<svg version="1.1" viewBox="0.0 0.0 960.0 720.0" fill="none" stroke="none" stroke-linecap="square" stroke-miterlimit="10" xmlns:xlink="http://www.w3.org/1999/xlink" xmlns="http://www.w3.org/2000/svg"><clipPath id="p.0"><path d="m0 0l960.0 0l0 720.0l-960.0 0l0 -720.0z" clip-rule="nonzero"/></clipPath><g clip-path="url(#p.0)"><path fill="#000000" fill-opacity="0.0" d="m0 0l960.0 0l0 720.0l-960.0 0z" fill-rule="evenodd"/><path fill="#000000" fill-opacity="0.0" d="m128.49869 156.03412l493.5748 0l0 382.42517l-493.5748 0z" fill-rule="evenodd"/><path stroke="#b7b7b7" stroke-width="1.0" stroke-linejoin="round" stroke-linecap="butt" stroke-dasharray="4.0,3.0" d="m128.49869 156.03412l493.5748 0l0 382.42517l-493.5748 0z" fill-rule="evenodd"/><path fill="#000000" fill-opacity="0.0" d="m196.82677 225.89764l0 0c0 -6.4795685 5.2527313 -11.732285 11.732285 -11.732285l0 0c3.1116028 0 6.095749 1.2360687 8.295975 3.4362946c2.200241 2.200241 3.4363098 5.184387 3.4363098 8.29599l0 0c0 6.479553 -5.252716 11.732285 -11.732285 11.732285l0 0c-6.479553 0 -11.732285 -5.2527313 -11.732285 -11.732285z" fill-rule="evenodd"/><path stroke="#000000" stroke-width="2.0" stroke-linejoin="round" stroke-linecap="butt" d="m196.82677 225.89764l0 0c0 -6.4795685 5.2527313 -11.732285 11.732285 -11.732285l0 0c3.1116028 0 6.095749 1.2360687 8.295975 3.4362946c2.200241 2.200241 3.4363098 5.184387 3.4363098 8.29599l0 0c0 6.479553 -5.252716 11.732285 -11.732285 11.732285l0 0c-6.479553 0 -11.732285 -5.2527313 -11.732285 -11.732285z" fill-rule="evenodd"/><path fill="#000000" fill-opacity="0.0" d="m208.55905 132.59055l0 81.574814" fill-rule="evenodd"/><path stroke="#000000" stroke-width="2.0" stroke-linejoin="round" stroke-linecap="butt" d="m208.55905 132.59055l0 74.72064" fill-rule="evenodd"/><path fill="#000000" stroke="#000000" stroke-width="2.0" stroke-linecap="butt" d="m208.55905 207.31119l-2.2491608 -2.249176l2.2491608 6.179535l2.249176 -6.179535z" fill-rule="evenodd"/><path fill="#000000" fill-opacity="0.0" d="m507.55643 225.89764l0 0c0 -6.4795685 5.252716 -11.732285 11.732269 -11.732285l0 0c3.1116333 0 6.095764 1.2360687 8.2960205 3.4362946c2.2001953 2.200241 3.4362793 5.184387 3.4362793 8.29599l0 0c0 6.479553 -5.2527466 11.732285 -11.7323 11.732285l0 0c-6.479553 0 -11.732269 -5.2527313 -11.732269 -11.732285z" fill-rule="evenodd"/><path stroke="#000000" stroke-width="2.0" stroke-linejoin="round" stroke-linecap="butt" d="m507.55643 225.89764l0 0c0 -6.4795685 5.252716 -11.732285 11.732269 -11.732285l0 0c3.1116333 0 6.095764 1.2360687 8.2960205 3.4362946c2.2001953 2.200241 3.4362793 5.184387 3.4362793 8.29599l0 0c0 6.479553 -5.2527466 11.732285 -11.7323 11.732285l0 0c-6.479553 0 -11.732269 -5.2527313 -11.732269 -11.732285z" fill-rule="evenodd"/><path fill="#000000" fill-opacity="0.0" d="m520.80054 132.59055l-1.5118408 81.574814" fill-rule="evenodd"/><path stroke="#000000" stroke-width="2.0" stroke-linejoin="round" stroke-linecap="butt" d="m520.80054 132.59055l-1.3848267 74.72182" fill-rule="evenodd"/><path fill="#000000" stroke="#000000" stroke-width="2.0" stroke-linecap="butt" d="m519.4157 207.31236l-2.2070923 -2.2904663l2.1342773 6.220154l2.3632812 -6.136795z" fill-rule="evenodd"/><path fill="#000000" fill-opacity="0.0" d="m196.82677 481.55905l0 0c0 -6.479553 5.2527313 -11.732269 11.732285 -11.732269l0 0c3.1116028 0 6.095749 1.2360535 8.295975 3.4363098c2.200241 2.2002258 3.4363098 5.1843567 3.4363098 8.295959l0 0c0 6.479553 -5.252716 11.7323 -11.732285 11.7323l0 0c-6.479553 0 -11.732285 -5.2527466 -11.732285 -11.7323z" fill-rule="evenodd"/><path stroke="#000000" stroke-width="2.0" stroke-linejoin="round" stroke-linecap="butt" d="m196.82677 481.55905l0 0c0 -6.479553 5.2527313 -11.732269 11.732285 -11.732269l0 0c3.1116028 0 6.095749 1.2360535 8.295975 3.4363098c2.200241 2.2002258 3.4363098 5.1843567 3.4363098 8.295959l0 0c0 6.479553 -5.252716 11.7323 -11.732285 11.7323l0 0c-6.479553 0 -11.732285 -5.2527466 -11.732285 -11.7323z" fill-rule="evenodd"/><path fill="#000000" fill-opacity="0.0" d="m507.55643 481.55905l0 0c0 -6.479553 5.252716 -11.732269 11.732269 -11.732269l0 0c3.1116333 0 6.095764 1.2360535 8.2960205 3.4363098c2.2001953 2.2002258 3.4362793 5.1843567 3.4362793 8.295959l0 0c0 6.479553 -5.2527466 11.7323 -11.7323 11.7323l0 0c-6.479553 0 -11.732269 -5.2527466 -11.732269 -11.7323z" fill-rule="evenodd"/><path stroke="#000000" stroke-width="2.0" stroke-linejoin="round" stroke-linecap="butt" d="m507.55643 481.55905l0 0c0 -6.479553 5.252716 -11.732269 11.732269 -11.732269l0 0c3.1116333 0 6.095764 1.2360535 8.2960205 3.4363098c2.2001953 2.2002258 3.4362793 5.1843567 3.4362793 8.295959l0 0c0 6.479553 -5.2527466 11.7323 -11.7323 11.7323l0 0c-6.479553 0 -11.732269 -5.2527466 -11.732269 -11.7323z" fill-rule="evenodd"/><path fill="#000000" fill-opacity="0.0" d="m210.07086 493.29135l-1.5118103 81.5748" fill-rule="evenodd"/><path stroke="#000000" stroke-width="2.0" stroke-linejoin="round" stroke-linecap="butt" d="m210.07086 493.29135l-1.3847961 74.72183" fill-rule="evenodd"/><path fill="#000000" stroke="#000000" stroke-width="2.0" stroke-linecap="butt" d="m208.68607 568.0131l-2.2071075 -2.2904053l2.1342773 6.220093l2.3632812 -6.13678z" fill-rule="evenodd"/><path fill="#000000" fill-opacity="0.0" d="m520.80054 493.29135l-1.5118408 81.5748" fill-rule="evenodd"/><path stroke="#000000" stroke-width="2.0" stroke-linejoin="round" stroke-linecap="butt" d="m520.80054 493.29135l-1.3848267 74.72183" fill-rule="evenodd"/><path fill="#000000" stroke="#000000" stroke-width="2.0" stroke-linecap="butt" d="m519.4157 568.0131l-2.2070923 -2.2904053l2.1342773 6.220093l2.3632812 -6.13678z" fill-rule="evenodd"/><path fill="#000000" fill-opacity="0.0" d="m208.55905 237.62993l0 232.18898" fill-rule="evenodd"/><path stroke="#000000" stroke-width="2.0" stroke-linejoin="round" stroke-linecap="butt" d="m208.55905 237.62993l0 232.18898" fill-rule="evenodd"/><path fill="#000000" fill-opacity="0.0" d="m519.2887 237.62993l0 232.18898" fill-rule="evenodd"/><path stroke="#000000" stroke-width="2.0" stroke-linejoin="round" stroke-linecap="butt" d="m519.2887 237.62993l0 232.18898" fill-rule="evenodd"/><path fill="#000000" fill-opacity="0.0" d="m216.85503 234.19362l294.14172 239.0551" fill-rule="evenodd"/><path stroke="#000000" stroke-width="2.0" stroke-linejoin="round" stroke-linecap="butt" d="m216.85503 234.19362l294.14172 239.0551" fill-rule="evenodd"/><path fill="#000000" fill-opacity="0.0" d="m510.99274 234.19362l-294.14172 239.0551" fill-rule="evenodd"/><path stroke="#000000" stroke-width="2.0" stroke-linejoin="round" stroke-linecap="butt" d="m510.99274 234.19362l-294.14172 239.0551" fill-rule="evenodd"/><path fill="#000000" fill-opacity="0.0" d="m149.7874 90.76378l117.54332 0l0 41.826767l-117.54332 0z" fill-rule="evenodd"/><path stroke="#000000" stroke-width="2.0" stroke-linejoin="round" stroke-linecap="butt" d="m149.7874 90.76378l117.54332 0l0 41.826767l-117.54332 0z" fill-rule="evenodd"/><path fill="#000000" d="m179.2808 118.59716l-1.59375 0l0 -6.125l-5.4375 0l0 6.125l-1.59375 0l0 -13.265625l1.59375 0l0 5.703125l5.4375 0l0 -5.703125l1.59375 0l0 13.265625zm11.195572 -5.078125q0 1.265625 -0.296875 2.25q-0.28125 0.984375 -0.828125 1.65625q-0.546875 0.65625 -1.34375 1.015625q-0.78125 0.34375 -1.8125 0.34375q-1.0 0 -1.796875 -0.34375q-0.796875 -0.359375 -1.359375 -1.015625q-0.5625 -0.671875 -0.859375 -1.65625q-0.28125 -0.984375 -0.28125 -2.25l0 -3.109375q0 -1.265625 0.28125 -2.234375q0.296875 -0.984375 0.84375 -1.65625q0.546875 -0.671875 1.34375 -1.015625q0.796875 -0.359375 1.8125 -0.359375q1.015625 0 1.8125 0.359375q0.796875 0.34375 1.34375 1.015625q0.5625 0.671875 0.84375 1.65625q0.296875 0.96875 0.296875 2.234375l0 3.109375zm-6.890625 -0.328125l5.171875 -3.96875q-0.15625 -1.3125 -0.78125 -2.0q-0.625 -0.6875 -1.796875 -0.6875q-1.328125 0 -1.96875 0.890625q-0.625 0.890625 -0.625 2.625l0 3.140625zm5.203125 -2.359375l-5.15625 3.953125q0.15625 1.28125 0.78125 1.953125q0.640625 0.671875 1.78125 0.671875q1.34375 0 1.96875 -0.90625q0.625 -0.90625 0.625 -2.625l0 -3.046875zm7.492447 6.671875q0 -0.265625 0.078125 -0.5q0.09375 -0.25 0.25 -0.421875q0.171875 -0.1875 0.421875 -0.28125q0.25 -0.09375 0.578125 -0.09375q0.328125 0 0.578125 0.09375q0.25 0.09375 0.40625 0.28125q0.171875 0.171875 0.25 0.421875q0.09375 0.234375 0.09375 0.5q0 0.265625 -0.09375 0.5q-0.078125 0.234375 -0.25 0.40625q-0.15625 0.171875 -0.40625 0.265625q-0.25 0.09375 -0.578125 0.09375q-0.328125 0 -0.578125 -0.09375q-0.25 -0.09375 -0.421875 -0.265625q-0.15625 -0.171875 -0.25 -0.40625q-0.078125 -0.234375 -0.078125 -0.5zm0 -8.0q0 -0.265625 0.078125 -0.5q0.09375 -0.25 0.25 -0.421875q0.171875 -0.1875 0.421875 -0.28125q0.25 -0.09375 0.578125 -0.09375q0.328125 0 0.578125 0.09375q0.25 0.09375 0.40625 0.28125q0.171875 0.171875 0.25 0.421875q0.09375 0.234375 0.09375 0.5q0 0.265625 -0.09375 0.5q-0.078125 0.234375 -0.25 0.40625q-0.15625 0.171875 -0.40625 0.265625q-0.25 0.09375 -0.578125 0.09375q-0.328125 0 -0.578125 -0.09375q-0.25 -0.09375 -0.421875 -0.265625q-0.15625 -0.171875 -0.25 -0.40625q-0.078125 -0.234375 -0.078125 -0.5zm9.039322 -0.765625l0.046875 0.9375q0.296875 -0.53125 0.78125 -0.8125q0.5 -0.296875 1.1875 -0.296875q1.359375 0 1.8125 1.046875q0.296875 -0.46875 0.765625 -0.75q0.484375 -0.296875 1.15625 -0.296875q1.09375 0 1.671875 0.671875q0.578125 0.65625 0.578125 2.0l0 7.359375l-1.59375 0l0 -7.375q0 -1.25 -1.140625 -1.234375q-0.296875 0 -0.515625 0.09375q-0.21875 0.078125 -0.375 0.21875q-0.140625 0.140625 -0.21875 0.328125q-0.078125 0.1875 -0.109375 0.375l0 7.59375l-1.609375 0l0 -7.390625q0 -0.59375 -0.265625 -0.90625q-0.265625 -0.328125 -0.828125 -0.3125q-0.53125 0 -0.828125 0.21875q-0.28125 0.203125 -0.421875 0.546875l0 7.84375l-1.609375 0l0 -9.859375l1.515625 0zm16.898697 9.859375q-0.09375 -0.1875 -0.15625 -0.46875q-0.0625 -0.296875 -0.09375 -0.609375q-0.25 0.265625 -0.5625 0.5q-0.3125 0.21875 -0.703125 0.390625q-0.375 0.171875 -0.8125 0.265625q-0.421875 0.109375 -0.890625 0.109375q-0.796875 0 -1.4375 -0.21875q-0.625 -0.234375 -1.0625 -0.625q-0.4375 -0.390625 -0.6875 -0.921875q-0.234375 -0.53125 -0.234375 -1.15625q0 -0.8125 0.3125 -1.421875q0.328125 -0.609375 0.921875 -1.015625q0.59375 -0.40625 1.421875 -0.59375q0.84375 -0.203125 1.875 -0.203125l1.828125 0l0 -0.78125q0 -0.453125 -0.171875 -0.796875q-0.15625 -0.359375 -0.453125 -0.609375q-0.296875 -0.25 -0.734375 -0.390625q-0.421875 -0.140625 -0.96875 -0.140625q-0.5 0 -0.90625 0.140625q-0.390625 0.125 -0.671875 0.34375q-0.265625 0.203125 -0.421875 0.484375q-0.140625 0.28125 -0.140625 0.59375l-1.6875 0q0 -0.53125 0.265625 -1.046875q0.28125 -0.53125 0.78125 -0.9375q0.5 -0.421875 1.21875 -0.671875q0.734375 -0.25 1.65625 -0.25q0.84375 0 1.5625 0.203125q0.71875 0.203125 1.234375 0.625q0.53125 0.40625 0.828125 1.03125q0.296875 0.609375 0.296875 1.4375l0 4.578125q0 0.5 0.09375 1.046875q0.09375 0.546875 0.25 0.96875l0 0.140625l-1.75 0zm-2.984375 -1.28125q0.5 0 0.921875 -0.125q0.4375 -0.140625 0.78125 -0.34375q0.34375 -0.203125 0.59375 -0.46875q0.265625 -0.28125 0.40625 -0.5625l0 -2.0l-1.5625 0q-1.46875 0 -2.296875 0.4375q-0.8125 0.4375 -0.8125 1.375q0 0.359375 0.125 0.671875q0.125 0.3125 0.359375 0.53125q0.25 0.21875 0.625 0.359375q0.375 0.125 0.859375 0.125zm7.961197 -8.578125l5.046875 0l0 8.40625l3.21875 0l0 1.453125l-8.265625 0l0 -1.453125l3.359375 0l0 -6.9375l-3.359375 0l0 -1.46875zm3.140625 -2.578125q0 -0.421875 0.25 -0.703125q0.25 -0.296875 0.765625 -0.296875q0.5 0 0.75 0.296875q0.25 0.28125 0.25 0.703125q0 0.40625 -0.25 0.6875q-0.25 0.265625 -0.75 0.265625q-0.515625 0 -0.765625 -0.265625q-0.25 -0.28125 -0.25 -0.6875zm9.304947 2.578125l0.125 1.453125q0.53125 -0.765625 1.3125 -1.1875q0.78125 -0.4375 1.75 -0.4375q0.78125 0 1.40625 0.21875q0.640625 0.21875 1.078125 0.6875q0.453125 0.453125 0.6875 1.171875q0.25 0.71875 0.25 1.6875l0 6.265625l-1.6875 0l0 -6.21875q0 -0.65625 -0.15625 -1.109375q-0.140625 -0.453125 -0.421875 -0.734375q-0.28125 -0.296875 -0.703125 -0.421875q-0.40625 -0.125 -0.953125 -0.125q-0.84375 0 -1.484375 0.421875q-0.640625 0.421875 -1.03125 1.125l0 7.0625l-1.6875 0l0 -9.859375l1.515625 0z" fill-rule="nonzero"/><path fill="#000000" fill-opacity="0.0" d="m457.8084 90.76378l122.96063 0l0 41.826767l-122.96063 0z" fill-rule="evenodd"/><path stroke="#000000" stroke-width="2.0" stroke-linejoin="round" stroke-linecap="butt" d="m457.8084 90.76378l122.96063 0l0 41.826767l-122.96063 0z" fill-rule="evenodd"/><path fill="#000000" d="m490.01047 118.59716l-1.59375 0l0 -6.125l-5.4375 0l0 6.125l-1.59375 0l0 -13.265625l1.59375 0l0 5.703125l5.4375 0l0 -5.703125l1.59375 0l0 13.265625zm8.336182 0l-1.6875 0l0 -11.109375l-3.46875 1.3125l0 -1.53125l5.03125 -1.9375l0.125 0l0 13.265625zm8.664337 -1.09375q0 -0.265625 0.078125 -0.5q0.09375 -0.25 0.25 -0.421875q0.171875 -0.1875 0.421875 -0.28125q0.25 -0.09375 0.578125 -0.09375q0.328125 0 0.578125 0.09375q0.25 0.09375 0.40625 0.28125q0.171875 0.171875 0.25 0.421875q0.09375 0.234375 0.09375 0.5q0 0.265625 -0.09375 0.5q-0.078125 0.234375 -0.25 0.40625q-0.15625 0.171875 -0.40625 0.265625q-0.25 0.09375 -0.578125 0.09375q-0.328125 0 -0.578125 -0.09375q-0.25 -0.09375 -0.421875 -0.265625q-0.15625 -0.171875 -0.25 -0.40625q-0.078125 -0.234375 -0.078125 -0.5zm0 -8.0q0 -0.265625 0.078125 -0.5q0.09375 -0.25 0.25 -0.421875q0.171875 -0.1875 0.421875 -0.28125q0.25 -0.09375 0.578125 -0.09375q0.328125 0 0.578125 0.09375q0.25 0.09375 0.40625 0.28125q0.171875 0.171875 0.25 0.421875q0.09375 0.234375 0.09375 0.5q0 0.265625 -0.09375 0.5q-0.078125 0.234375 -0.25 0.40625q-0.15625 0.171875 -0.40625 0.265625q-0.25 0.09375 -0.578125 0.09375q-0.328125 0 -0.578125 -0.09375q-0.25 -0.09375 -0.421875 -0.265625q-0.15625 -0.171875 -0.25 -0.40625q-0.078125 -0.234375 -0.078125 -0.5zm16.586182 4.28125q0 1.046875 -0.265625 1.96875q-0.25 0.90625 -0.75 1.59375q-0.484375 0.671875 -1.21875 1.0625q-0.71875 0.375 -1.640625 0.375q-0.90625 0 -1.59375 -0.296875q-0.6875 -0.296875 -1.171875 -0.84375l0 4.75l-1.6875 0l0 -13.65625l1.53125 0l0.09375 1.078125q0.484375 -0.609375 1.171875 -0.921875q0.703125 -0.328125 1.625 -0.328125q0.953125 0 1.671875 0.375q0.734375 0.359375 1.21875 1.03125q0.5 0.65625 0.75 1.59375q0.265625 0.921875 0.265625 2.015625l0 0.203125zm-1.6875 -0.203125q0 -0.71875 -0.171875 -1.359375q-0.15625 -0.65625 -0.484375 -1.15625q-0.328125 -0.5 -0.84375 -0.78125q-0.5 -0.296875 -1.21875 -0.296875q-0.8125 0 -1.359375 0.375q-0.546875 0.375 -0.875 0.96875l0 4.75q0.328125 0.578125 0.875 0.953125q0.546875 0.375 1.375 0.375q0.703125 0 1.203125 -0.296875q0.515625 -0.296875 0.84375 -0.796875q0.328125 -0.5 0.484375 -1.15625q0.171875 -0.65625 0.171875 -1.375l0 -0.203125zm8.914307 5.203125q-1.03125 0 -1.90625 -0.359375q-0.875 -0.359375 -1.5 -0.984375q-0.609375 -0.640625 -0.953125 -1.515625q-0.34375 -0.875 -0.34375 -1.90625l0 -0.390625q0 -1.1875 0.375 -2.125q0.390625 -0.953125 1.015625 -1.59375q0.640625 -0.65625 1.4375 -1.0q0.8125 -0.34375 1.65625 -0.34375q1.0625 0 1.859375 0.375q0.796875 0.359375 1.328125 1.015625q0.53125 0.640625 0.78125 1.53125q0.265625 0.875 0.265625 1.90625l0 0.75l-7.03125 0q0.015625 0.6875 0.25 1.28125q0.234375 0.578125 0.640625 1.03125q0.40625 0.4375 0.96875 0.703125q0.5625 0.25 1.25 0.25q0.90625 0 1.59375 -0.359375q0.703125 -0.375 1.171875 -0.96875l1.03125 0.796875q-0.25 0.375 -0.625 0.71875q-0.359375 0.328125 -0.84375 0.59375q-0.484375 0.265625 -1.09375 0.421875q-0.609375 0.171875 -1.328125 0.171875zm-0.21875 -8.84375q-0.515625 0 -0.96875 0.1875q-0.453125 0.1875 -0.8125 0.546875q-0.359375 0.359375 -0.625 0.890625q-0.25 0.515625 -0.34375 1.203125l5.296875 0l0 -0.125q-0.015625 -0.5 -0.1875 -0.984375q-0.15625 -0.484375 -0.46875 -0.859375q-0.296875 -0.390625 -0.765625 -0.625q-0.46875 -0.234375 -1.125 -0.234375zm13.523743 -1.375q0.234375 0 0.484375 0.015625q0.265625 0 0.484375 0.03125q0.234375 0.03125 0.421875 0.078125q0.203125 0.046875 0.34375 0.109375l-0.234375 1.640625q-0.484375 -0.109375 -0.9375 -0.15625q-0.4375 -0.046875 -0.921875 -0.046875q-1.1875 0 -1.921875 0.546875q-0.734375 0.53125 -1.078125 1.484375l0 6.328125l-1.6875 0l0 -9.859375l1.59375 0l0.09375 1.5625q0.59375 -0.796875 1.4375 -1.265625q0.84375 -0.46875 1.921875 -0.46875zm4.9924316 0.171875l5.046875 0l0 8.40625l3.21875 0l0 1.453125l-8.265625 0l0 -1.453125l3.359375 0l0 -6.9375l-3.359375 0l0 -1.46875zm3.140625 -2.578125q0 -0.421875 0.25 -0.703125q0.25 -0.296875 0.765625 -0.296875q0.5 0 0.75 0.296875q0.25 0.28125 0.25 0.703125q0 0.40625 -0.25 0.6875q-0.25 0.265625 -0.75 0.265625q-0.515625 0 -0.765625 -0.265625q-0.25 -0.28125 -0.25 -0.6875z" fill-rule="nonzero"/><path fill="#000000" fill-opacity="0.0" d="m173.37796 574.853l70.3622 0l0 41.826782l-70.3622 0z" fill-rule="evenodd"/><path stroke="#000000" stroke-width="2.0" stroke-linejoin="round" stroke-linecap="butt" d="m173.37796 574.853l70.3622 0l0 41.826782l-70.3622 0z" fill-rule="evenodd"/><path fill="#000000" d="m198.76973 602.6864l0 -13.265625l3.078125 0q1.375 0.015625 2.46875 0.46875q1.09375 0.453125 1.84375 1.265625q0.75 0.796875 1.140625 1.921875q0.40625 1.125 0.40625 2.5l0 0.96875q0 1.375 -0.40625 2.5q-0.390625 1.125 -1.140625 1.9375q-0.75 0.796875 -1.84375 1.25q-1.09375 0.4375 -2.46875 0.453125l-3.078125 0zm1.71875 -11.875l0 10.5l1.359375 0q1.078125 -0.015625 1.859375 -0.375q0.78125 -0.375 1.296875 -1.0q0.515625 -0.640625 0.765625 -1.5q0.25 -0.875 0.25 -1.890625l0 -0.984375q0 -1.015625 -0.265625 -1.875q-0.25 -0.859375 -0.765625 -1.484375q-0.5 -0.640625 -1.28125 -1.0q-0.78125 -0.375 -1.859375 -0.390625l-1.359375 0zm17.976822 6.796875q0 1.265625 -0.296875 2.25q-0.28125 0.984375 -0.828125 1.65625q-0.546875 0.65625 -1.34375 1.015625q-0.78125 0.34375 -1.8125 0.34375q-1.0 0 -1.796875 -0.34375q-0.796875 -0.359375 -1.359375 -1.015625q-0.5625 -0.671875 -0.859375 -1.65625q-0.28125 -0.984375 -0.28125 -2.25l0 -3.109375q0 -1.265625 0.28125 -2.234375q0.296875 -0.984375 0.84375 -1.65625q0.546875 -0.671875 1.34375 -1.015625q0.796875 -0.359375 1.8125 -0.359375q1.015625 0 1.8125 0.359375q0.796875 0.34375 1.34375 1.015625q0.5625 0.671875 0.84375 1.65625q0.296875 0.96875 0.296875 2.234375l0 3.109375zm-6.890625 -0.328125l5.171875 -3.96875q-0.15625 -1.3125 -0.78125 -2.0q-0.625 -0.6875 -1.796875 -0.6875q-1.328125 0 -1.96875 0.890625q-0.625 0.890625 -0.625 2.625l0 3.140625zm5.203125 -2.359375l-5.15625 3.953125q0.15625 1.28125 0.78125 1.953125q0.640625 0.671875 1.78125 0.671875q1.34375 0 1.96875 -0.90625q0.625 -0.90625 0.625 -2.625l0 -3.046875z" fill-rule="nonzero"/><path fill="#000000" fill-opacity="0.0" d="m484.1076 574.853l70.36218 0l0 41.826782l-70.36218 0z" fill-rule="evenodd"/><path stroke="#000000" stroke-width="2.0" stroke-linejoin="round" stroke-linecap="butt" d="m484.1076 574.853l70.36218 0l0 41.826782l-70.36218 0z" fill-rule="evenodd"/><path fill="#000000" d="m509.4994 602.6864l0 -13.265625l3.078125 0q1.375 0.015625 2.46875 0.46875q1.09375 0.453125 1.84375 1.265625q0.75 0.796875 1.140625 1.921875q0.40625 1.125 0.40625 2.5l0 0.96875q0 1.375 -0.40625 2.5q-0.390625 1.125 -1.140625 1.9375q-0.75 0.796875 -1.84375 1.25q-1.09375 0.4375 -2.46875 0.453125l-3.078125 0zm1.71875 -11.875l0 10.5l1.359375 0q1.078125 -0.015625 1.859375 -0.375q0.78125 -0.375 1.296875 -1.0q0.515625 -0.640625 0.765625 -1.5q0.25 -0.875 0.25 -1.890625l0 -0.984375q0 -1.015625 -0.265625 -1.875q-0.25 -0.859375 -0.765625 -1.484375q-0.5 -0.640625 -1.28125 -1.0q-0.78125 -0.375 -1.859375 -0.390625l-1.359375 0zm15.117432 11.875l-1.6875 0l0 -11.109375l-3.46875 1.3125l0 -1.53125l5.03125 -1.9375l0.125 0l0 13.265625z" fill-rule="nonzero"/></g></svg>