<svg version="1.1" viewBox="0.0 0.0 501.0866141732283 136.91076115485563" fill="none" stroke="none" stroke-linecap="square" stroke-miterlimit="10" xmlns:xlink="http://www.w3.org/1999/xlink" xmlns="http://www.w3.org/2000/svg"><clipPath id="p.0"><path d="m0 0l501.0866 0l0 136.91077l-501.0866 0l0 -136.91077z" clip-rule="nonzero"/></clipPath><g clip-path="url(#p.0)"><path fill="#000000" fill-opacity="0.0" d="m0 0l501.0866 0l0 136.91077l-501.0866 0z" fill-rule="evenodd"/><path fill="#000000" fill-opacity="0.0" d="m305.24408 36.719162l24.0 0l0 40.0l-24.0 0z" fill-rule="evenodd"/><path stroke="#000000" stroke-width="1.0" stroke-linejoin="round" stroke-linecap="butt" d="m305.24408 36.719162l24.0 0l0 40.0l-24.0 0z" fill-rule="evenodd"/><path fill="#000000" fill-opacity="0.0" d="m305.24408 64.383286l8.0 4.0l-8.0 4.0" fill-rule="evenodd"/><path stroke="#000000" stroke-width="1.0" stroke-linejoin="round" stroke-linecap="butt" d="m305.24408 64.383286l8.0 4.0l-8.0 4.0" fill-rule="evenodd"/><path fill="#000000" fill-opacity="0.0" d="m76.04462 60.719162l56.0 0l0 64.0l-56.0 0z" fill-rule="evenodd"/><path stroke="#000000" stroke-width="1.0" stroke-linejoin="round" stroke-linecap="butt" d="m76.04462 60.719162l56.0 0l0 64.0l-56.0 0z" fill-rule="evenodd"/><path fill="#ffffff" d="m71.16535 56.18635l56.0 0l0 63.999996l-56.0 0z" fill-rule="evenodd"/><path stroke="#000000" stroke-width="1.0" stroke-linejoin="round" stroke-linecap="butt" d="m71.16535 56.18635l56.0 0l0 63.999996l-56.0 0z" fill-rule="evenodd"/><path fill="#000000" d="m83.9466 90.80385q-0.21875 0.0625 -0.46875 0.09375q-0.25 0.03125 -0.5 0.03125q-0.734375 0 -1.109375 -0.328125q-0.359375 -0.34375 -0.359375 -1.046875l0 -2.046875l-1.09375 0l0 -0.5625l1.09375 0l0 -1.078125l0.6875 -0.171875l0 1.25l1.75 0l0 0.5625l-1.75 0l0 2.0q0 0.421875 0.21875 0.640625q0.21875 0.203125 0.65625 0.203125q0.1875 0 0.40625 -0.03125q0.234375 -0.03125 0.46875 -0.09375l0 0.578125zm2.5859375 -3.296875l-1.171875 0l0 -0.5625l1.859375 0l0 3.359375l1.15625 0l0 0.5625l-3.140625 0l0 -0.5625l1.296875 0l0 -2.796875zm0.234375 -2.203125q0.109375 0 0.203125 0.046875q0.109375 0.03125 0.171875 0.109375q0.078125 0.0625 0.109375 0.171875q0.046875 0.09375 0.046875 0.203125q0 0.109375 -0.046875 0.203125q-0.03125 0.09375 -0.109375 0.171875q-0.0625 0.078125 -0.171875 0.125q-0.09375 0.03125 -0.203125 0.03125q-0.109375 0 -0.21875 -0.03125q-0.09375 -0.046875 -0.171875 -0.125q-0.0625 -0.078125 -0.109375 -0.171875q-0.03125 -0.09375 -0.03125 -0.203125q0 -0.109375 0.03125 -0.203125q0.046875 -0.109375 0.109375 -0.171875q0.078125 -0.078125 0.171875 -0.109375q0.109375 -0.046875 0.21875 -0.046875zm5.8671875 5.421875q-0.265625 0.09375 -0.546875 0.140625q-0.28125 0.0625 -0.578125 0.0625q-0.921875 0 -1.421875 -0.5q-0.5 -0.515625 -0.5 -1.484375q0 -0.46875 0.140625 -0.84375q0.140625 -0.375 0.40625 -0.640625q0.265625 -0.28125 0.625 -0.421875q0.359375 -0.15625 0.796875 -0.15625q0.3125 0 0.578125 0.046875q0.265625 0.046875 0.5 0.140625l0 0.65625q-0.25 -0.140625 -0.515625 -0.203125q-0.265625 -0.0625 -0.546875 -0.0625q-0.265625 0 -0.5 0.109375q-0.21875 0.09375 -0.40625 0.28125q-0.171875 0.1875 -0.28125 0.46875q-0.09375 0.265625 -0.09375 0.59375q0 0.71875 0.34375 1.078125q0.34375 0.34375 0.96875 0.34375q0.265625 0 0.53125 -0.0625q0.265625 -0.0625 0.5 -0.1875l0 0.640625zm4.8828125 0.140625l-0.9375 0l-1.828125 -2.109375l0 2.109375l-0.671875 0l0 -5.515625l0.671875 0l0 3.390625l1.765625 -1.796875l0.890625 0l-1.828125 1.8125l1.9375 2.109375zm8.09375 -3.375q0.109375 0.140625 0.171875 0.328125q0.0625 0.171875 0.0625 0.390625q0 0.296875 -0.125 0.5625q-0.109375 0.25 -0.3125 0.4375q-0.203125 0.171875 -0.484375 0.265625q-0.28125 0.09375 -0.625 0.09375q-0.234375 0 -0.453125 -0.046875q-0.21875 -0.046875 -0.34375 -0.125q-0.078125 0.109375 -0.125 0.203125q-0.046875 0.09375 -0.046875 0.21875q0 0.140625 0.140625 0.25q0.140625 0.09375 0.375 0.09375l1.03125 0.046875q0.296875 0 0.546875 0.078125q0.25 0.0625 0.421875 0.1875q0.171875 0.125 0.265625 0.3125q0.109375 0.1875 0.109375 0.421875q0 0.265625 -0.109375 0.5q-0.109375 0.234375 -0.359375 0.40625q-0.234375 0.1875 -0.59375 0.28125q-0.359375 0.109375 -0.859375 0.109375q-0.484375 0 -0.8125 -0.078125q-0.328125 -0.078125 -0.546875 -0.21875q-0.21875 -0.125 -0.3125 -0.3125q-0.09375 -0.1875 -0.09375 -0.40625q0 -0.28125 0.125 -0.5q0.140625 -0.21875 0.40625 -0.421875q-0.09375 -0.046875 -0.171875 -0.109375q-0.078125 -0.078125 -0.125 -0.15625q-0.046875 -0.078125 -0.078125 -0.171875q-0.015625 -0.09375 -0.015625 -0.1875q0 -0.25 0.125 -0.453125q0.125 -0.21875 0.28125 -0.40625q-0.078125 -0.09375 -0.140625 -0.171875q-0.046875 -0.09375 -0.09375 -0.1875q-0.03125 -0.109375 -0.0625 -0.21875q-0.015625 -0.125 -0.015625 -0.265625q0 -0.3125 0.109375 -0.5625q0.109375 -0.25 0.3125 -0.421875q0.203125 -0.1875 0.484375 -0.28125q0.28125 -0.109375 0.625 -0.109375q0.15625 0 0.28125 0.03125q0.140625 0.015625 0.234375 0.046875l1.421875 0l0 0.546875l-0.625 0zm-2.359375 3.9375q0 0.28125 0.28125 0.40625q0.296875 0.125 0.8125 0.125q0.328125 0 0.546875 -0.0625q0.21875 -0.046875 0.34375 -0.140625q0.140625 -0.09375 0.203125 -0.21875q0.0625 -0.125 0.0625 -0.25q0 -0.25 -0.203125 -0.359375q-0.1875 -0.109375 -0.59375 -0.140625l-1.03125 -0.03125q-0.125 0.09375 -0.21875 0.171875q-0.078125 0.078125 -0.125 0.15625q-0.046875 0.09375 -0.0625 0.171875q-0.015625 0.09375 -0.015625 0.171875zm0.203125 -3.203125q0 0.1875 0.0625 0.34375q0.0625 0.15625 0.171875 0.265625q0.125 0.109375 0.265625 0.171875q0.15625 0.0625 0.34375 0.0625q0.203125 0 0.359375 -0.0625q0.171875 -0.078125 0.265625 -0.1875q0.109375 -0.125 0.171875 -0.28125q0.0625 -0.15625 0.0625 -0.3125q0 -0.1875 -0.0625 -0.34375q-0.0625 -0.15625 -0.1875 -0.265625q-0.109375 -0.109375 -0.265625 -0.171875q-0.15625 -0.0625 -0.34375 -0.0625q-0.203125 0 -0.359375 0.078125q-0.15625 0.0625 -0.265625 0.1875q-0.109375 0.109375 -0.171875 0.265625q-0.046875 0.140625 -0.046875 0.3125zm7.0390625 0.46875q0 0.140625 0 0.25q0 0.09375 -0.015625 0.171875l-2.75 0q0 0.609375 0.328125 0.9375q0.34375 0.3125 0.96875 0.3125q0.171875 0 0.34375 -0.015625q0.171875 -0.015625 0.328125 -0.03125q0.171875 -0.03125 0.3125 -0.046875q0.15625 -0.03125 0.28125 -0.078125l0 0.5625q-0.28125 0.078125 -0.640625 0.125q-0.34375 0.0625 -0.71875 0.0625q-0.5 0 -0.875 -0.140625q-0.359375 -0.140625 -0.59375 -0.390625q-0.21875 -0.265625 -0.34375 -0.640625q-0.109375 -0.390625 -0.109375 -0.859375q0 -0.421875 0.125 -0.78125q0.125 -0.375 0.34375 -0.65625q0.234375 -0.28125 0.5625 -0.4375q0.328125 -0.171875 0.75 -0.171875q0.421875 0 0.734375 0.140625q0.3125 0.125 0.53125 0.359375q0.21875 0.234375 0.328125 0.578125q0.109375 0.328125 0.109375 0.75zm-0.703125 -0.09375q0.015625 -0.265625 -0.046875 -0.484375q-0.0625 -0.21875 -0.203125 -0.375q-0.125 -0.15625 -0.328125 -0.234375q-0.1875 -0.09375 -0.453125 -0.09375q-0.21875 0 -0.40625 0.09375q-0.171875 0.078125 -0.3125 0.234375q-0.125 0.15625 -0.21875 0.375q-0.078125 0.21875 -0.09375 0.484375l2.0625 0zm1.7890625 -1.65625l0.609375 0l0.03125 0.625q0.171875 -0.203125 0.328125 -0.328125q0.15625 -0.140625 0.3125 -0.21875q0.15625 -0.078125 0.3125 -0.109375q0.15625 -0.046875 0.328125 -0.046875q0.609375 0 0.921875 0.359375q0.3125 0.359375 0.3125 1.078125l0 2.5625l-0.6875 0l0 -2.5q0 -0.46875 -0.171875 -0.6875q-0.171875 -0.21875 -0.5 -0.21875q-0.125 0 -0.25 0.046875q-0.125 0.03125 -0.25 0.125q-0.125 0.078125 -0.28125 0.234375q-0.140625 0.15625 -0.328125 0.390625l0 2.609375l-0.6875 0l0 -3.921875z" fill-rule="nonzero"/><path fill="#000000" fill-opacity="0.0" d="m39.165356 71.874016l31.999996 0" fill-rule="evenodd"/><path stroke="#000000" stroke-width="1.0" stroke-linejoin="round" stroke-linecap="butt" d="m39.165356 71.874016l28.57291 0" fill-rule="evenodd"/><path fill="#000000" stroke="#000000" stroke-width="1.0" stroke-linecap="butt" d="m67.738266 71.874016l-1.1245804 1.1245804l3.0897675 -1.1245804l-3.0897675 -1.1245804z" fill-rule="evenodd"/><path fill="#000000" fill-opacity="0.0" d="m39.165356 104.5538l31.999996 0" fill-rule="evenodd"/><path stroke="#000000" stroke-width="1.0" stroke-linejoin="round" stroke-linecap="butt" d="m39.165356 104.5538l28.57291 0" fill-rule="evenodd"/><path fill="#000000" stroke="#000000" stroke-width="1.0" stroke-linecap="butt" d="m67.738266 104.5538l-1.1245804 1.124588l3.0897675 -1.124588l-3.0897675 -1.1245804z" fill-rule="evenodd"/><path fill="#000000" fill-opacity="0.0" d="m1.7296588 58.740158l67.27559 0l0 13.133858l-67.27559 0z" fill-rule="evenodd"/><path fill="#000000" d="m24.091185 67.84646q-0.265625 0.09375 -0.546875 0.140625q-0.28125 0.0625 -0.578125 0.0625q-0.921875 0 -1.421875 -0.5q-0.5 -0.515625 -0.5 -1.484375q0 -0.46875 0.140625 -0.84375q0.140625 -0.375 0.40625 -0.640625q0.265625 -0.28125 0.625 -0.421875q0.359375 -0.15625 0.796875 -0.15625q0.3125 0 0.578125 0.046875q0.265625 0.046875 0.5 0.140625l0 0.65625q-0.25 -0.140625 -0.515625 -0.203125q-0.265625 -0.0625 -0.546875 -0.0625q-0.265625 0 -0.5 0.109375q-0.21875 0.09375 -0.40625 0.28125q-0.171875 0.1875 -0.28125 0.46875q-0.09375 0.265625 -0.09375 0.59375q0 0.71875 0.34375 1.078125q0.34375 0.34375 0.96875 0.34375q0.265625 0 0.53125 -0.0625q0.265625 -0.0625 0.5 -0.1875l0 0.640625zm2.6953125 -4.828121l-1.171875 0l0 -0.546875l1.859375 0l0 4.953121l1.15625 0l0 0.5625l-3.140625 0l0 -0.5625l1.296875 0l0 -4.406246zm6.5859394 4.968746l-0.9375 0l-1.8281269 -2.109375l0 2.109375l-0.671875 0l0 -5.515621l0.671875 0l0 3.3906212l1.7656269 -1.796875l0.890625 0l-1.8281269 1.8125l1.9375019 2.109375zm4.6484375 1.609375l-4.40625 0l0 -0.5625l4.40625 0l0 0.5625zm4.1015625 -6.499996q-0.53125 -0.109375 -0.921875 -0.109375q-0.921875 0 -0.921875 0.953125l0 0.6874962l1.71875 0l0 0.578125l-1.71875 0l0 2.78125l-0.6875 0l0 -2.78125l-1.265625 0l0 -0.578125l1.265625 0l0 -0.6406212q0 -1.5625 1.625 -1.5625q0.40625 0 0.90625 0.09375l0 0.578125zm-4.109375 0.9687462l0 0zm6.3671875 0.5625l-1.171875 0l0 -0.5625l1.859375 0l0 3.359375l1.15625 0l0 0.5625l-3.140625 0l0 -0.5625l1.296875 0l0 -2.796875zm0.234375 -2.2031212q0.109375 0 0.203125 0.046875q0.109375 0.03125 0.171875 0.109375q0.078125 0.0625 0.109375 0.171875q0.046875 0.09375 0.046875 0.203125q0 0.109375 -0.046875 0.203125q-0.03125 0.09375 -0.109375 0.171875q-0.0625 0.078125 -0.171875 0.125q-0.09375 0.03125 -0.203125 0.03125q-0.109375 0 -0.21875 -0.03125q-0.09375 -0.046875 -0.171875 -0.125q-0.0625 -0.078125 -0.109375 -0.171875q-0.03125 -0.09375 -0.03125 -0.203125q0 -0.109375 0.03125 -0.203125q0.046875 -0.109375 0.109375 -0.171875q0.078125 -0.078125 0.171875 -0.109375q0.109375 -0.046875 0.21875 -0.046875zm6.3515625 5.562496l-0.890625 0l-1.0625 -1.5l-1.046875 1.5l-0.875 0l1.515625 -1.96875l-1.453125 -1.953125l0.875 0l1.03125 1.5l1.015625 -1.5l0.828125 0l-1.46875 1.96875l1.53125 1.953125zm4.1796875 -2.171875q0 0.140625 0 0.25q0 0.09375 -0.015625 0.171875l-2.75 0q0 0.609375 0.328125 0.9375q0.34375 0.3125 0.96875 0.3125q0.171875 0 0.34375 -0.015625q0.171875 -0.015625 0.328125 -0.03125q0.171875 -0.03125 0.3125 -0.046875q0.15625 -0.03125 0.28125 -0.078125l0 0.5625q-0.28125 0.078125 -0.640625 0.125q-0.34375 0.0625 -0.71875 0.0625q-0.5 0 -0.875 -0.140625q-0.359375 -0.140625 -0.59375 -0.390625q-0.21875 -0.265625 -0.34375 -0.640625q-0.109375 -0.390625 -0.109375 -0.859375q0 -0.421875 0.125 -0.78125q0.125 -0.375 0.34375 -0.65625q0.234375 -0.28125 0.5625 -0.4375q0.328125 -0.17187119 0.75 -0.17187119q0.421875 0 0.734375 0.14062119q0.3125 0.125 0.53125 0.359375q0.21875 0.234375 0.328125 0.578125q0.109375 0.328125 0.109375 0.75zm-0.703125 -0.09375q0.015625 -0.265625 -0.046875 -0.484375q-0.0625 -0.21875 -0.203125 -0.375q-0.125 -0.15625 -0.328125 -0.234375q-0.1875 -0.09375 -0.453125 -0.09375q-0.21875 0 -0.40625 0.09375q-0.171875 0.078125 -0.3125 0.234375q-0.125 0.15625 -0.21875 0.375q-0.078125 0.21875 -0.09375 0.484375l2.0625 0zm1.5859375 0.390625q0 -0.5 0.140625 -0.890625q0.140625 -0.390625 0.390625 -0.65625q0.25 -0.265625 0.59375 -0.40625q0.359375 -0.140625 0.796875 -0.140625q0.1875 0 0.359375 0.03125q0.1875 0.015625 0.375 0.0625l0 -1.6406212l0.671875 0l0 5.515621l-0.609375 0l-0.015625 -0.75q-0.28125 0.421875 -0.625 0.625q-0.328125 0.203125 -0.71875 0.203125q-0.328125 0 -0.59375 -0.140625q-0.25 -0.15625 -0.421875 -0.40625q-0.171875 -0.25 -0.265625 -0.609375q-0.078125 -0.359375 -0.078125 -0.796875zm0.703125 -0.046875q0 0.703125 0.203125 1.0625q0.21875 0.34375 0.59375 0.34375q0.265625 0 0.546875 -0.21875q0.28125 -0.234375 0.609375 -0.6875l0 -1.828125q-0.171875 -0.078125 -0.375 -0.109375q-0.203125 -0.046875 -0.40625 -0.046875q-0.546875 0 -0.859375 0.359375q-0.3125 0.359375 -0.3125 1.125z" fill-rule="nonzero"/><path fill="#000000" fill-opacity="0.0" d="m1.7296588 91.419945l67.27559 0l0 13.133858l-67.27559 0z" fill-rule="evenodd"/><path fill="#000000" d="m24.403685 98.63563q0 0.515625 -0.15625 0.90625q-0.140625 0.390625 -0.40625 0.65625q-0.25 0.25 -0.609375 0.390625q-0.34375 0.125 -0.75 0.125q-0.1875 0 -0.375 -0.015625q-0.1875 -0.015625 -0.375 -0.078125l0 1.65625l-0.6875 0l0 -5.53125l0.609375 0l0.046875 0.65625q0.28125 -0.40625 0.609375 -0.5625q0.34375 -0.171875 0.734375 -0.171875q0.328125 0 0.578125 0.140625q0.265625 0.140625 0.4375 0.40625q0.171875 0.25 0.25 0.609375q0.09375 0.359375 0.09375 0.8125zm-0.703125 0.03125q0 -0.3125 -0.046875 -0.5625q-0.046875 -0.265625 -0.140625 -0.4375q-0.09375 -0.1875 -0.25 -0.296875q-0.15625 -0.109375 -0.359375 -0.109375q-0.125 0 -0.265625 0.046875q-0.125 0.046875 -0.28125 0.140625q-0.140625 0.09375 -0.296875 0.25q-0.15625 0.15625 -0.328125 0.390625l0 1.90625q0.1875 0.078125 0.390625 0.125q0.203125 0.046875 0.40625 0.046875q0.546875 0 0.859375 -0.375q0.3125 -0.375 0.3125 -1.125zm1.8984375 -1.921875l0.625 0l0.015625 0.71875q0.359375 -0.421875 0.6875 -0.609375q0.34375 -0.1875 0.6875 -0.1875q0.609375 0 0.921875 0.40625q0.3125 0.390625 0.296875 1.171875l-0.6875 0q0 -0.515625 -0.15625 -0.75q-0.15625 -0.234375 -0.46875 -0.234375q-0.140625 0 -0.28125 0.046875q-0.140625 0.046875 -0.296875 0.15625q-0.140625 0.109375 -0.3125 0.28125q-0.15625 0.15625 -0.34375 0.40625l0 2.515625l-0.6875 0l0 -3.921875zm7.5546894 1.75q0 0.140625 0 0.25q0 0.09375 -0.015625 0.171875l-2.750002 0q0 0.609375 0.328125 0.9375q0.34375 0.3125 0.96875 0.3125q0.171875 0 0.3437519 -0.015625q0.171875 -0.015625 0.328125 -0.03125q0.171875 -0.03125 0.3125 -0.046875q0.15625 -0.03125 0.28125 -0.078125l0 0.5625q-0.28125 0.078125 -0.640625 0.125q-0.3437519 0.0625 -0.7187519 0.0625q-0.5 0 -0.875 -0.140625q-0.359375 -0.140625 -0.59375 -0.390625q-0.21875 -0.265625 -0.34375 -0.640625q-0.109375 -0.390625 -0.109375 -0.859375q0 -0.421875 0.125 -0.78125q0.125 -0.375 0.34375 -0.65625q0.234375 -0.28125 0.5625 -0.4375q0.328125 -0.171875 0.75 -0.171875q0.421875 0 0.7343769 0.140625q0.3125 0.125 0.53125 0.359375q0.21875 0.234375 0.328125 0.578125q0.109375 0.328125 0.109375 0.75zm-0.703125 -0.09375q0.015625 -0.265625 -0.046875 -0.484375q-0.0625 -0.21875 -0.203125 -0.375q-0.125 -0.15625 -0.3281269 -0.234375q-0.1875 -0.09375 -0.453125 -0.09375q-0.21875 0 -0.40625 0.09375q-0.171875 0.078125 -0.3125 0.234375q-0.125 0.15625 -0.21875 0.375q-0.078125 0.21875 -0.09375 0.484375l2.062502 0zm4.8984375 1.1875q0 0.21875 -0.078125 0.390625q-0.0625 0.15625 -0.1875 0.28125q-0.125 0.125 -0.28125 0.21875q-0.15625 0.078125 -0.34375 0.140625q-0.171875 0.0625 -0.375 0.09375q-0.1875 0.03125 -0.375 0.03125q-0.390625 0 -0.734375 -0.046875q-0.328125 -0.03125 -0.640625 -0.109375l0 -0.625q0.34375 0.09375 0.671875 0.15625q0.34375 0.046875 0.6875 0.046875q0.484375 0 0.71875 -0.125q0.234375 -0.140625 0.234375 -0.390625q0 -0.109375 -0.046875 -0.1875q-0.03125 -0.09375 -0.125 -0.15625q-0.09375 -0.078125 -0.3125 -0.15625q-0.203125 -0.09375 -0.546875 -0.203125q-0.265625 -0.078125 -0.5 -0.171875q-0.21875 -0.09375 -0.390625 -0.234375q-0.15625 -0.140625 -0.25 -0.3125q-0.09375 -0.1875 -0.09375 -0.4375q0 -0.171875 0.078125 -0.359375q0.078125 -0.203125 0.25 -0.359375q0.1875 -0.171875 0.5 -0.28125q0.3125 -0.125 0.78125 -0.125q0.234375 0 0.515625 0.03125q0.28125 0.03125 0.578125 0.09375l0 0.59375q-0.3125 -0.078125 -0.609375 -0.109375q-0.28125 -0.03125 -0.484375 -0.03125q-0.265625 0 -0.4375 0.046875q-0.171875 0.03125 -0.28125 0.09375q-0.109375 0.0625 -0.15625 0.15625q-0.046875 0.09375 -0.046875 0.203125q0 0.109375 0.046875 0.203125q0.046875 0.078125 0.15625 0.15625q0.109375 0.078125 0.296875 0.15625q0.203125 0.078125 0.53125 0.171875q0.34375 0.109375 0.578125 0.21875q0.25 0.109375 0.390625 0.25q0.15625 0.125 0.21875 0.296875q0.0625 0.171875 0.0625 0.390625zm4.3359375 0.9375q-0.265625 0.09375 -0.546875 0.140625q-0.28125 0.0625 -0.578125 0.0625q-0.921875 0 -1.421875 -0.5q-0.5 -0.515625 -0.5 -1.484375q0 -0.46875 0.140625 -0.84375q0.140625 -0.375 0.40625 -0.640625q0.265625 -0.28125 0.625 -0.421875q0.359375 -0.15625 0.796875 -0.15625q0.3125 0 0.578125 0.046875q0.265625 0.046875 0.5 0.140625l0 0.65625q-0.25 -0.140625 -0.515625 -0.203125q-0.265625 -0.0625 -0.546875 -0.0625q-0.265625 0 -0.5 0.109375q-0.21875 0.09375 -0.40625 0.28125q-0.171875 0.1875 -0.28125 0.46875q-0.09375 0.265625 -0.09375 0.59375q0 0.71875 0.34375 1.078125q0.34375 0.34375 0.96875 0.34375q0.265625 0 0.53125 -0.0625q0.265625 -0.0625 0.5 -0.1875l0 0.640625zm3.8671875 0.140625l-0.015625 -0.53125q-0.3125 0.3125 -0.640625 0.46875q-0.328125 0.140625 -0.703125 0.140625q-0.328125 0 -0.578125 -0.09375q-0.234375 -0.09375 -0.390625 -0.234375q-0.140625 -0.15625 -0.21875 -0.359375q-0.078125 -0.203125 -0.078125 -0.4375q0 -0.59375 0.4375 -0.921875q0.453125 -0.34375 1.3125 -0.34375l0.8125 0l0 -0.34375q0 -0.34375 -0.234375 -0.546875q-0.21875 -0.21875 -0.671875 -0.21875q-0.328125 0 -0.65625 0.078125q-0.328125 0.078125 -0.671875 0.21875l0 -0.625q0.140625 -0.046875 0.296875 -0.078125q0.15625 -0.046875 0.328125 -0.078125q0.171875 -0.046875 0.359375 -0.0625q0.203125 -0.03125 0.390625 -0.03125q0.359375 0 0.640625 0.078125q0.296875 0.078125 0.484375 0.25q0.203125 0.15625 0.296875 0.40625q0.109375 0.234375 0.109375 0.5625l0 2.703125l-0.609375 0zm-0.0625 -1.78125l-0.875 0q-0.25 0 -0.4375 0.046875q-0.171875 0.046875 -0.296875 0.140625q-0.109375 0.09375 -0.171875 0.234375q-0.0625 0.125 -0.0625 0.28125q0 0.125 0.03125 0.234375q0.046875 0.09375 0.125 0.171875q0.078125 0.078125 0.203125 0.125q0.125 0.046875 0.296875 0.046875q0.234375 0 0.53125 -0.140625q0.3125 -0.140625 0.65625 -0.453125l0 -0.6875zm3.2890625 -3.1875l-1.171875 0l0 -0.546875l1.859375 0l0 4.953125l1.15625 0l0 0.5625l-3.140625 0l0 -0.5625l1.296875 0l0 -4.40625zm6.3671875 2.796875q0 0.140625 0 0.25q0 0.09375 -0.015625 0.171875l-2.75 0q0 0.609375 0.328125 0.9375q0.34375 0.3125 0.96875 0.3125q0.171875 0 0.34375 -0.015625q0.171875 -0.015625 0.328125 -0.03125q0.171875 -0.03125 0.3125 -0.046875q0.15625 -0.03125 0.28125 -0.078125l0 0.5625q-0.28125 0.078125 -0.640625 0.125q-0.34375 0.0625 -0.71875 0.0625q-0.5 0 -0.875 -0.140625q-0.359375 -0.140625 -0.59375 -0.390625q-0.21875 -0.265625 -0.34375 -0.640625q-0.109375 -0.390625 -0.109375 -0.859375q0 -0.421875 0.125 -0.78125q0.125 -0.375 0.34375 -0.65625q0.234375 -0.28125 0.5625 -0.4375q0.328125 -0.171875 0.75 -0.171875q0.421875 0 0.734375 0.140625q0.3125 0.125 0.53125 0.359375q0.21875 0.234375 0.328125 0.578125q0.109375 0.328125 0.109375 0.75zm-0.703125 -0.09375q0.015625 -0.265625 -0.046875 -0.484375q-0.0625 -0.21875 -0.203125 -0.375q-0.125 -0.15625 -0.328125 -0.234375q-0.1875 -0.09375 -0.453125 -0.09375q-0.21875 0 -0.40625 0.09375q-0.171875 0.078125 -0.3125 0.234375q-0.125 0.15625 -0.21875 0.375q-0.078125 0.21875 -0.09375 0.484375l2.0625 0zm1.9453125 -1.65625l0.625 0l0.015625 0.71875q0.359375 -0.421875 0.6875 -0.609375q0.34375 -0.1875 0.6875 -0.1875q0.609375 0 0.921875 0.40625q0.3125 0.390625 0.296875 1.171875l-0.6875 0q0 -0.515625 -0.15625 -0.75q-0.15625 -0.234375 -0.46875 -0.234375q-0.140625 0 -0.28125 0.046875q-0.140625 0.046875 -0.296875 0.15625q-0.140625 0.109375 -0.3125 0.28125q-0.15625 0.15625 -0.34375 0.40625l0 2.515625l-0.6875 0l0 -3.921875z" fill-rule="nonzero"/><path fill="#000000" fill-opacity="0.0" d="m127.178474 87.874016l156.72443 0" fill-rule="evenodd"/><path stroke="#000000" stroke-width="1.0" stroke-linejoin="round" stroke-linecap="butt" d="m127.178474 87.874016l156.72443 0" fill-rule="evenodd"/><path fill="#000000" fill-opacity="0.0" d="m136.56955 74.74016l96.598434 0l0 13.133858l-96.598434 0z" fill-rule="evenodd"/><path fill="#000000" d="m149.3508 83.92458q-0.21875 0.0625 -0.46875 0.09375q-0.25 0.03125 -0.5 0.03125q-0.734375 0 -1.109375 -0.328125q-0.359375 -0.34375 -0.359375 -1.046875l0 -2.046875l-1.09375 0l0 -0.5625l1.09375 0l0 -1.078125l0.6875 -0.171875l0 1.25l1.75 0l0 0.5625l-1.75 0l0 2.0q0 0.421875 0.21875 0.640625q0.21875 0.203125 0.65625 0.203125q0.1875 0 0.40625 -0.03125q0.234375 -0.03125 0.46875 -0.09375l0 0.578125zm2.5859375 -3.296875l-1.171875 0l0 -0.5625l1.859375 0l0 3.359375l1.15625 0l0 0.5625l-3.140625 0l0 -0.5625l1.296875 0l0 -2.796875zm0.234375 -2.203125q0.109375 0 0.203125 0.046875q0.109375 0.03125 0.171875 0.109375q0.078125 0.0625 0.109375 0.171875q0.046875 0.09375 0.046875 0.203125q0 0.109375 -0.046875 0.203125q-0.03125 0.09375 -0.109375 0.171875q-0.0625 0.078125 -0.171875 0.125q-0.09375 0.03125 -0.203125 0.03125q-0.109375 0 -0.21875 -0.03125q-0.09375 -0.046875 -0.171875 -0.125q-0.0625 -0.078125 -0.109375 -0.171875q-0.03125 -0.09375 -0.03125 -0.203125q0 -0.109375 0.03125 -0.203125q0.046875 -0.109375 0.109375 -0.171875q0.078125 -0.078125 0.171875 -0.109375q0.109375 -0.046875 0.21875 -0.046875zm5.8671875 5.421875q-0.265625 0.09375 -0.546875 0.140625q-0.28125 0.0625 -0.578125 0.0625q-0.921875 0 -1.421875 -0.5q-0.5 -0.515625 -0.5 -1.484375q0 -0.46875 0.140625 -0.84375q0.140625 -0.375 0.40625 -0.640625q0.265625 -0.28125 0.625 -0.421875q0.359375 -0.15625 0.796875 -0.15625q0.3125 0 0.578125 0.046875q0.265625 0.046875 0.5 0.140625l0 0.65625q-0.25 -0.140625 -0.515625 -0.203125q-0.265625 -0.0625 -0.546875 -0.0625q-0.265625 0 -0.5 0.109375q-0.21875 0.09375 -0.40625 0.28125q-0.171875 0.1875 -0.28125 0.46875q-0.09375 0.265625 -0.09375 0.59375q0 0.71875 0.34375 1.078125q0.34375 0.34375 0.96875 0.34375q0.265625 0 0.53125 -0.0625q0.265625 -0.0625 0.5 -0.1875l0 0.640625zm4.8828125 0.140625l-0.9375 0l-1.828125 -2.109375l0 2.109375l-0.671875 0l0 -5.515625l0.671875 0l0 3.390625l1.765625 -1.796875l0.890625 0l-1.828125 1.8125l1.9375 2.109375zm3.5234375 1.609375l-1.9375 0l0 -7.265625l1.9375 0l0 0.546875l-1.28125 0l0 6.171875l1.28125 0l0 0.546875zm5.1484375 -3.046875l-0.875 0l-0.140625 1.4375l-0.578125 0l0.140625 -1.4375l-1.0 0l-0.140625 1.4375l-0.578125 0l0.140625 -1.4375l-0.828125 0l0 -0.5l0.875 0l0.140625 -1.375l-0.8125 0l0 -0.5l0.875 0l0.125 -1.296875l0.578125 0l-0.140625 1.296875l1.0 0l0.140625 -1.296875l0.578125 0l-0.140625 1.296875l0.84375 0l0 0.5l-0.890625 0l-0.140625 1.375l0.828125 0l0 0.5zm-1.40625 -0.5l0.140625 -1.375l-1.0 0l-0.140625 1.375l1.0 0zm5.7421875 1.9375l-0.6875 0l0 -2.34375l-2.15625 0l0 2.34375l-0.6875 0l0 -5.109375l0.6875 0l0 2.15625l2.15625 0l0 -2.15625l0.6875 0l0 5.109375zm3.5703125 0l-0.015625 -0.53125q-0.3125 0.3125 -0.640625 0.46875q-0.328125 0.140625 -0.703125 0.140625q-0.328125 0 -0.578125 -0.09375q-0.234375 -0.09375 -0.390625 -0.234375q-0.140625 -0.15625 -0.21875 -0.359375q-0.078125 -0.203125 -0.078125 -0.4375q0 -0.59375 0.4375 -0.921875q0.453125 -0.34375 1.3125 -0.34375l0.8125 0l0 -0.34375q0 -0.34375 -0.234375 -0.546875q-0.21875 -0.21875 -0.671875 -0.21875q-0.328125 0 -0.65625 0.078125q-0.328125 0.078125 -0.671875 0.21875l0 -0.625q0.140625 -0.046875 0.296875 -0.078125q0.15625 -0.046875 0.328125 -0.078125q0.171875 -0.046875 0.359375 -0.0625q0.203125 -0.03125 0.390625 -0.03125q0.359375 0 0.640625 0.078125q0.296875 0.078125 0.484375 0.25q0.203125 0.15625 0.296875 0.40625q0.109375 0.234375 0.109375 0.5625l0 2.703125l-0.609375 0zm-0.0625 -1.78125l-0.875 0q-0.25 0 -0.4375 0.046875q-0.171875 0.046875 -0.296875 0.140625q-0.109375 0.09375 -0.171875 0.234375q-0.0625 0.125 -0.0625 0.28125q0 0.125 0.03125 0.234375q0.046875 0.09375 0.125 0.171875q0.078125 0.078125 0.203125 0.125q0.125 0.046875 0.296875 0.046875q0.234375 0 0.53125 -0.140625q0.3125 -0.140625 0.65625 -0.453125l0 -0.6875zm2.1015625 -2.140625l0.625 0l0.015625 0.71875q0.359375 -0.421875 0.6875 -0.609375q0.34375 -0.1875 0.6875 -0.1875q0.609375 0 0.921875 0.40625q0.3125 0.390625 0.296875 1.171875l-0.6875 0q0 -0.515625 -0.15625 -0.75q-0.15625 -0.234375 -0.46875 -0.234375q-0.140625 0 -0.28125 0.046875q-0.140625 0.046875 -0.296875 0.15625q-0.140625 0.109375 -0.3125 0.28125q-0.15625 0.15625 -0.34375 0.40625l0 2.515625l-0.6875 0l0 -3.921875zm7.3984375 3.859375q-0.21875 0.0625 -0.46875 0.09375q-0.25 0.03125 -0.5 0.03125q-0.734375 0 -1.109375 -0.328125q-0.359375 -0.34375 -0.359375 -1.046875l0 -2.046875l-1.09375 0l0 -0.5625l1.09375 0l0 -1.078125l0.6875 -0.171875l0 1.25l1.75 0l0 0.5625l-1.75 0l0 2.0q0 0.421875 0.21875 0.640625q0.21875 0.203125 0.65625 0.203125q0.1875 0 0.40625 -0.03125q0.234375 -0.03125 0.46875 -0.09375l0 0.578125zm4.3515625 -1.015625q0 0.21875 -0.078125 0.390625q-0.0625 0.15625 -0.1875 0.28125q-0.125 0.125 -0.28125 0.21875q-0.15625 0.078125 -0.34375 0.140625q-0.171875 0.0625 -0.375 0.09375q-0.1875 0.03125 -0.375 0.03125q-0.390625 0 -0.734375 -0.046875q-0.328125 -0.03125 -0.640625 -0.109375l0 -0.625q0.34375 0.09375 0.671875 0.15625q0.34375 0.046875 0.6875 0.046875q0.484375 0 0.71875 -0.125q0.234375 -0.140625 0.234375 -0.390625q0 -0.109375 -0.046875 -0.1875q-0.03125 -0.09375 -0.125 -0.15625q-0.09375 -0.078125 -0.3125 -0.15625q-0.203125 -0.09375 -0.546875 -0.203125q-0.265625 -0.078125 -0.5 -0.171875q-0.21875 -0.09375 -0.390625 -0.234375q-0.15625 -0.140625 -0.25 -0.3125q-0.09375 -0.1875 -0.09375 -0.4375q0 -0.171875 0.078125 -0.359375q0.078125 -0.203125 0.25 -0.359375q0.1875 -0.171875 0.5 -0.28125q0.3125 -0.125 0.78125 -0.125q0.234375 0 0.515625 0.03125q0.28125 0.03125 0.578125 0.09375l0 0.59375q-0.3125 -0.078125 -0.609375 -0.109375q-0.28125 -0.03125 -0.484375 -0.03125q-0.265625 0 -0.4375 0.046875q-0.171875 0.03125 -0.28125 0.09375q-0.109375 0.0625 -0.15625 0.15625q-0.046875 0.09375 -0.046875 0.203125q0 0.109375 0.046875 0.203125q0.046875 0.078125 0.15625 0.15625q0.109375 0.078125 0.296875 0.15625q0.203125 0.078125 0.53125 0.171875q0.34375 0.109375 0.578125 0.21875q0.25 0.109375 0.390625 0.25q0.15625 0.125 0.21875 0.296875q0.0625 0.171875 0.0625 0.390625zm4.0390625 -0.734375l-2.34375 0l0 -0.640625l2.34375 0l0 0.640625zm4.9140625 1.8125l-3.203125 0l0 -0.640625l1.3125 0l0 -3.71875l-1.21875 0.65625l-0.25 -0.578125l1.625 -0.84375l0.59375 0l0 4.484375l1.140625 0l0 0.640625zm2.7109375 -4.0q0.125 0 0.234375 0.0625q0.109375 0.046875 0.1875 0.125q0.078125 0.078125 0.125 0.1875q0.046875 0.109375 0.046875 0.234375q0 0.125 -0.046875 0.234375q-0.046875 0.109375 -0.125 0.1875q-0.078125 0.078125 -0.1875 0.125q-0.109375 0.046875 -0.234375 0.046875q-0.125 0 -0.234375 -0.046875q-0.109375 -0.046875 -0.1875 -0.125q-0.078125 -0.078125 -0.125 -0.1875q-0.046875 -0.109375 -0.046875 -0.234375q0 -0.125 0.046875 -0.234375q0.046875 -0.109375 0.125 -0.1875q0.078125 -0.078125 0.1875 -0.125q0.109375 -0.0625 0.234375 -0.0625zm0 2.875q0.125 0 0.234375 0.046875q0.109375 0.046875 0.1875 0.125q0.078125 0.078125 0.125 0.1875q0.046875 0.109375 0.046875 0.234375q0 0.125 -0.046875 0.234375q-0.046875 0.109375 -0.125 0.1875q-0.078125 0.078125 -0.1875 0.125q-0.109375 0.0625 -0.234375 0.0625q-0.125 0 -0.234375 -0.0625q-0.109375 -0.046875 -0.1875 -0.125q-0.078125 -0.078125 -0.125 -0.1875q-0.046875 -0.109375 -0.046875 -0.234375q0 -0.125 0.046875 -0.234375q0.046875 -0.109375 0.125 -0.1875q0.078125 -0.078125 0.1875 -0.125q0.109375 -0.046875 0.234375 -0.046875zm6.2578125 -1.421875q0 0.578125 -0.125 1.0625q-0.109375 0.484375 -0.359375 0.828125q-0.234375 0.34375 -0.59375 0.546875q-0.34375 0.1875 -0.828125 0.1875q-0.40625 0 -0.75 -0.15625q-0.328125 -0.15625 -0.5625 -0.46875q-0.234375 -0.328125 -0.375 -0.828125q-0.125 -0.5 -0.125 -1.171875q0 -0.59375 0.109375 -1.078125q0.125 -0.484375 0.359375 -0.828125q0.25 -0.34375 0.59375 -0.53125q0.359375 -0.1875 0.828125 -0.1875q0.421875 0 0.75 0.15625q0.34375 0.140625 0.578125 0.46875q0.234375 0.328125 0.359375 0.828125q0.140625 0.484375 0.140625 1.171875zm-0.6875 0.015625q0 -0.125 -0.015625 -0.25q-0.015625 -0.140625 -0.015625 -0.265625l-2.171875 1.609375q0.0625 0.203125 0.15625 0.375q0.09375 0.171875 0.21875 0.296875q0.125 0.109375 0.28125 0.1875q0.171875 0.0625 0.375 0.0625q0.265625 0 0.484375 -0.125q0.21875 -0.125 0.359375 -0.375q0.15625 -0.265625 0.234375 -0.640625q0.09375 -0.375 0.09375 -0.875zm-2.34375 -0.046875q0 0.125 0 0.25q0 0.109375 0.015625 0.234375l2.15625 -1.609375q-0.046875 -0.1875 -0.140625 -0.34375q-0.09375 -0.171875 -0.21875 -0.296875q-0.125 -0.125 -0.28125 -0.1875q-0.15625 -0.0625 -0.359375 -0.0625q-0.265625 0 -0.484375 0.125q-0.21875 0.125 -0.375 0.390625q-0.140625 0.25 -0.234375 0.625q-0.078125 0.375 -0.078125 0.875zm6.4140625 4.1875l-1.921875 0l0 -0.546875l1.265625 0l0 -6.171875l-1.265625 0l0 -0.546875l1.921875 0l0 7.265625z" fill-rule="nonzero"/><path fill="#ffffff" d="m403.24933 120.5538l0 -96.0l16.0 8.0l0 80.0z" fill-rule="evenodd"/><path stroke="#000000" stroke-width="1.0" stroke-linejoin="round" stroke-linecap="butt" d="m403.24933 120.5538l0 -96.0l16.0 8.0l0 80.0z" fill-rule="evenodd"/><path fill="#000000" fill-opacity="0.0" d="m273.45932 45.10105l32.0 0" fill-rule="evenodd"/><path stroke="#000000" stroke-width="1.0" stroke-linejoin="round" stroke-linecap="butt" d="m273.45932 45.10105l32.0 0" fill-rule="evenodd"/><path fill="#ffffff" d="m273.45932 19.501863l0 51.200005l16.0 -12.800003l0 -25.599998z" fill-rule="evenodd"/><path stroke="#000000" stroke-width="1.0" stroke-linejoin="round" stroke-linecap="butt" d="m273.45932 19.501863l0 51.200005l16.0 -12.800003l0 -25.599998z" fill-rule="evenodd"/><path fill="#000000" fill-opacity="0.0" d="m265.45932 10.168717l32.0 0l0 64.0l-32.0 0z" fill-rule="evenodd"/><path fill="#000000" d="m278.52182 35.30184q0 0.578125 -0.125 1.0625q-0.109375 0.484375 -0.359375 0.828125q-0.234375 0.34375 -0.59375 0.546875q-0.34375 0.1875 -0.828125 0.1875q-0.40625 0 -0.75 -0.15625q-0.328125 -0.15625 -0.5625 -0.46875q-0.234375 -0.328125 -0.375 -0.828125q-0.125 -0.5 -0.125 -1.171875q0 -0.59375 0.109375 -1.078125q0.125 -0.484375 0.359375 -0.828125q0.25 -0.34375 0.59375 -0.53125q0.359375 -0.1875 0.828125 -0.1875q0.421875 0 0.75 0.15625q0.34375 0.140625 0.578125 0.46875q0.234375 0.328125 0.359375 0.828125q0.140625 0.484375 0.140625 1.171875zm-0.6875 0.015625q0 -0.125 -0.015625 -0.25q-0.015625 -0.140625 -0.015625 -0.265625l-2.171875 1.609375q0.0625 0.203125 0.15625 0.375q0.09375 0.171875 0.21875 0.296875q0.125 0.109375 0.28125 0.1875q0.171875 0.0625 0.375 0.0625q0.265625 0 0.484375 -0.125q0.21875 -0.125 0.359375 -0.375q0.15625 -0.265625 0.234375 -0.640625q0.09375 -0.375 0.09375 -0.875zm-2.34375 -0.046875q0 0.125 0 0.25q0 0.109375 0.015625 0.234375l2.15625 -1.609375q-0.046875 -0.1875 -0.140625 -0.34375q-0.09375 -0.171875 -0.21875 -0.296875q-0.125 -0.125 -0.28125 -0.1875q-0.15625 -0.0625 -0.359375 -0.0625q-0.265625 0 -0.484375 0.125q-0.21875 0.125 -0.375 0.390625q-0.140625 0.25 -0.234375 0.625q-0.078125 0.375 -0.078125 0.875z" fill-rule="nonzero"/><path fill="#000000" d="m278.34995 59.848717l-3.203125 0l0 -0.640625l1.3125 0l0 -3.71875l-1.21875 0.65625l-0.25 -0.578125l1.625 -0.84375l0.59375 0l0 4.484375l1.140625 0l0 0.640625z" fill-rule="nonzero"/><path fill="#000000" fill-opacity="0.0" d="m283.1942 62.608925l0 25.039368" fill-rule="evenodd"/><path stroke="#000000" stroke-width="1.0" stroke-linejoin="round" stroke-linecap="butt" d="m283.1942 62.608925l0 25.039368" fill-rule="evenodd"/><path fill="#000000" fill-opacity="0.0" d="m329.76117 44.88714l72.97635 0" fill-rule="evenodd"/><path stroke="#000000" stroke-width="1.0" stroke-linejoin="round" stroke-linecap="butt" d="m329.76117 44.88714l72.97635 0" fill-rule="evenodd"/><path fill="#000000" fill-opacity="0.0" d="m366.2467 44.88714l0 -34.48819" fill-rule="evenodd"/><path stroke="#000000" stroke-width="1.0" stroke-linejoin="round" stroke-linecap="butt" d="m366.2467 44.88714l0 -34.48819" fill-rule="evenodd"/><path fill="#000000" fill-opacity="0.0" d="m365.90027 10.349081l-133.79529 0" fill-rule="evenodd"/><path stroke="#000000" stroke-width="1.0" stroke-linejoin="round" stroke-linecap="butt" d="m365.90027 10.349081l-133.79529 0" fill-rule="evenodd"/><path fill="#000000" fill-opacity="0.0" d="m231.76903 10.062992l0 41.76378" fill-rule="evenodd"/><path stroke="#000000" stroke-width="1.0" stroke-linejoin="round" stroke-linecap="butt" d="m231.76903 10.062992l0 41.76378" fill-rule="evenodd"/><path fill="#ffffff" d="m224.8189 58.795277l0 0c0 -4.4182777 3.581726 -8.0 8.0 -8.0l0 0c2.1217346 0 4.1565704 0.84285355 5.6568604 2.3431435c1.5002899 1.5002937 2.3431396 3.535122 2.3431396 5.6568565l0 0c0 4.4182777 -3.5817108 7.999996 -8.0 7.999996l0 0c-4.418274 0 -8.0 -3.5817184 -8.0 -7.999996z" fill-rule="evenodd"/><path stroke="#000000" stroke-width="1.0" stroke-linejoin="round" stroke-linecap="butt" d="m224.8189 58.795277l0 0c0 -4.4182777 3.581726 -8.0 8.0 -8.0l0 0c2.1217346 0 4.1565704 0.84285355 5.6568604 2.3431435c1.5002899 1.5002937 2.3431396 3.535122 2.3431396 5.6568565l0 0c0 4.4182777 -3.5817108 7.999996 -8.0 7.999996l0 0c-4.418274 0 -8.0 -3.5817184 -8.0 -7.999996z" fill-rule="evenodd"/><path fill="#000000" d="m234.6978 59.647152l-1.546875 0l0 1.59375l-0.671875 0l0 -1.59375l-1.53125 0l0 -0.59375l1.53125 0l0 -1.59375l0.671875 0l0 1.59375l1.546875 0l0 0.59375z" fill-rule="nonzero"/><path fill="#000000" fill-opacity="0.0" d="m240.8189 58.795277l32.661423 0" fill-rule="evenodd"/><path stroke="#000000" stroke-width="1.0" stroke-linejoin="round" stroke-linecap="butt" d="m240.8189 58.795277l32.661423 0" fill-rule="evenodd"/><path fill="#000000" fill-opacity="0.0" d="m231.77428 34.115486l41.70079 0" fill-rule="evenodd"/><path stroke="#000000" stroke-width="1.0" stroke-linejoin="round" stroke-linecap="butt" d="m231.77428 34.115486l41.70079 0" fill-rule="evenodd"/><path fill="#000000" fill-opacity="0.0" d="m224.8189 58.795277l-35.779526 0" fill-rule="evenodd"/><path stroke="#000000" stroke-width="1.0" stroke-linejoin="round" stroke-linecap="butt" d="m224.8189 58.795277l-35.779526 0" fill-rule="evenodd"/><path fill="#000000" fill-opacity="0.0" d="m154.29396 45.66142l67.27559 0l0 13.133858l-67.27559 0z" fill-rule="evenodd"/><path fill="#000000" d="m198.71017 53.830223q0 0.21875 -0.078125 0.390625q-0.0625 0.15625 -0.1875 0.28125q-0.125 0.125 -0.28125 0.21875q-0.15625 0.078125 -0.34375 0.140625q-0.171875 0.0625 -0.375 0.09375q-0.1875 0.03125 -0.375 0.03125q-0.390625 0 -0.734375 -0.046875q-0.328125 -0.03125 -0.640625 -0.109375l0 -0.625q0.34375 0.09375 0.671875 0.15625q0.34375 0.046875 0.6875 0.046875q0.484375 0 0.71875 -0.125q0.234375 -0.140625 0.234375 -0.390625q0 -0.109375 -0.046875 -0.1875q-0.03125 -0.09375 -0.125 -0.15625q-0.09375 -0.078125 -0.3125 -0.15625q-0.203125 -0.09375 -0.546875 -0.203125q-0.265625 -0.078125 -0.5 -0.171875q-0.21875 -0.09375 -0.390625 -0.234375q-0.15625 -0.140625 -0.25 -0.3125q-0.09375 -0.1875 -0.09375 -0.4375q0 -0.171875 0.078125 -0.359375q0.078125 -0.203125 0.25 -0.359375q0.1875 -0.171875 0.5 -0.28125q0.3125 -0.125 0.78125 -0.125q0.234375 0 0.515625 0.03125q0.28125 0.03125 0.578125 0.09375l0 0.59375q-0.3125 -0.078125 -0.609375 -0.109375q-0.28125 -0.03125 -0.484375 -0.03125q-0.265625 0 -0.4375 0.046875q-0.171875 0.03125 -0.28125 0.09375q-0.109375 0.0625 -0.15625 0.15625q-0.046875 0.09375 -0.046875 0.203125q0 0.109375 0.046875 0.203125q0.046875 0.078125 0.15625 0.15625q0.109375 0.078125 0.296875 0.15625q0.203125 0.078125 0.53125 0.171875q0.34375 0.109375 0.578125 0.21875q0.25 0.109375 0.390625 0.25q0.15625 0.125 0.21875 0.296875q0.0625 0.171875 0.0625 0.390625zm4.4453125 1.015625q-0.21875 0.0625 -0.46875 0.09375q-0.25 0.03125 -0.5 0.03125q-0.734375 0 -1.109375 -0.328125q-0.359375 -0.34375 -0.359375 -1.046875l0 -2.046875l-1.09375 0l0 -0.5625l1.09375 0l0 -1.078125l0.6875 -0.171875l0 1.25l1.75 0l0 0.5625l-1.75 0l0 2.0q0 0.421875 0.21875 0.640625q0.21875 0.203125 0.65625 0.203125q0.1875 0 0.40625 -0.03125q0.234375 -0.03125 0.46875 -0.09375l0 0.578125zm4.5546875 -2.109375q0 0.140625 0 0.25q0 0.09375 -0.015625 0.171875l-2.75 0q0 0.609375 0.328125 0.9375q0.34375 0.3125 0.96875 0.3125q0.171875 0 0.34375 -0.015625q0.171875 -0.015625 0.328125 -0.03125q0.171875 -0.03125 0.3125 -0.046875q0.15625 -0.03125 0.28125 -0.078125l0 0.5625q-0.28125 0.078125 -0.640625 0.125q-0.34375 0.0625 -0.71875 0.0625q-0.5 0 -0.875 -0.140625q-0.359375 -0.140625 -0.59375 -0.390625q-0.21875 -0.265625 -0.34375 -0.640625q-0.109375 -0.390625 -0.109375 -0.859375q0 -0.421875 0.125 -0.78125q0.125 -0.375 0.34375 -0.65625q0.234375 -0.28125 0.5625 -0.4375q0.328125 -0.171875 0.75 -0.171875q0.421875 0 0.734375 0.140625q0.3125 0.125 0.53125 0.359375q0.21875 0.234375 0.328125 0.578125q0.109375 0.328125 0.109375 0.75zm-0.703125 -0.09375q0.015625 -0.265625 -0.046875 -0.484375q-0.0625 -0.21875 -0.203125 -0.375q-0.125 -0.15625 -0.328125 -0.234375q-0.1875 -0.09375 -0.453125 -0.09375q-0.21875 0 -0.40625 0.09375q-0.171875 0.078125 -0.3125 0.234375q-0.125 0.15625 -0.21875 0.375q-0.078125 0.21875 -0.09375 0.484375l2.0625 0zm5.1484375 0.234375q0 0.515625 -0.15625 0.90625q-0.140625 0.390625 -0.40625 0.65625q-0.25 0.25 -0.609375 0.390625q-0.34375 0.125 -0.75 0.125q-0.1875 0 -0.375 -0.015625q-0.1875 -0.015625 -0.375 -0.078125l0 1.65625l-0.6875 0l0 -5.53125l0.609375 0l0.046875 0.65625q0.28125 -0.40625 0.609375 -0.5625q0.34375 -0.171875 0.734375 -0.171875q0.328125 0 0.578125 0.140625q0.265625 0.140625 0.4375 0.40625q0.171875 0.25 0.25 0.609375q0.09375 0.359375 0.09375 0.8125zm-0.703125 0.03125q0 -0.3125 -0.046875 -0.5625q-0.046875 -0.265625 -0.140625 -0.4375q-0.09375 -0.1875 -0.25 -0.296875q-0.15625 -0.109375 -0.359375 -0.109375q-0.125 0 -0.265625 0.046875q-0.125 0.046875 -0.28125 0.140625q-0.140625 0.09375 -0.296875 0.25q-0.15625 0.15625 -0.328125 0.390625l0 1.90625q0.1875 0.078125 0.390625 0.125q0.203125 0.046875 0.40625 0.046875q0.546875 0 0.859375 -0.375q0.3125 -0.375 0.3125 -1.125z" fill-rule="nonzero"/><path fill="#000000" fill-opacity="0.0" d="m298.2152 31.75328l67.275604 0l0 13.133858l-67.275604 0z" fill-rule="evenodd"/><path fill="#000000" d="m337.9205 41.00021l0 -2.8125q0 -0.1875 -0.015625 -0.296875q-0.015625 -0.125 -0.046875 -0.1875q-0.015625 -0.078125 -0.0625 -0.09375q-0.046875 -0.03125 -0.109375 -0.03125q-0.078125 0 -0.15625 0.046875q-0.0625 0.046875 -0.140625 0.15625q-0.078125 0.09375 -0.171875 0.265625q-0.078125 0.171875 -0.203125 0.4375l0 2.515625l-0.625 0l0 -2.75q0 -0.203125 -0.015625 -0.328125q-0.015625 -0.140625 -0.046875 -0.21875q-0.03125 -0.078125 -0.078125 -0.09375q-0.046875 -0.03125 -0.109375 -0.03125q-0.0625 0 -0.125 0.046875q-0.0625 0.03125 -0.140625 0.140625q-0.078125 0.09375 -0.171875 0.265625q-0.09375 0.171875 -0.21875 0.453125l0 2.515625l-0.625 0l0 -3.921875l0.515625 0l0.03125 0.75q0.09375 -0.234375 0.1875 -0.390625q0.109375 -0.15625 0.203125 -0.25q0.109375 -0.09375 0.21875 -0.140625q0.109375 -0.046875 0.25 -0.046875q0.328125 0 0.484375 0.21875q0.171875 0.203125 0.171875 0.640625q0.09375 -0.203125 0.171875 -0.359375q0.09375 -0.171875 0.1875 -0.265625q0.109375 -0.109375 0.234375 -0.171875q0.125 -0.0625 0.296875 -0.0625q0.734375 0 0.734375 1.140625l0 2.859375l-0.625 0zm4.7578125 -0.0625q-0.21875 0.0625 -0.46875 0.09375q-0.25 0.03125 -0.5 0.03125q-0.734375 0 -1.109375 -0.328125q-0.359375 -0.34375 -0.359375 -1.046875l0 -2.046875l-1.09375 0l0 -0.5625l1.09375 0l0 -1.078125l0.6875 -0.171875l0 1.25l1.75 0l0 0.5625l-1.75 0l0 2.0q0 0.421875 0.21875 0.640625q0.21875 0.203125 0.65625 0.203125q0.1875 0 0.40625 -0.03125q0.234375 -0.03125 0.46875 -0.09375l0 0.578125zm2.5859375 -3.296875l-1.171875 0l0 -0.5625l1.859375 0l0 3.359375l1.15625 0l0 0.5625l-3.140625 0l0 -0.5625l1.296875 0l0 -2.796875zm0.234375 -2.203125q0.109375 0 0.203125 0.046875q0.109375 0.03125 0.171875 0.109375q0.078125 0.0625 0.109375 0.171875q0.046875 0.09375 0.046875 0.203125q0 0.109375 -0.046875 0.203125q-0.03125 0.09375 -0.109375 0.171875q-0.0625 0.078125 -0.171875 0.125q-0.09375 0.03125 -0.203125 0.03125q-0.109375 0 -0.21875 -0.03125q-0.09375 -0.046875 -0.171875 -0.125q-0.0625 -0.078125 -0.109375 -0.171875q-0.03125 -0.09375 -0.03125 -0.203125q0 -0.109375 0.03125 -0.203125q0.046875 -0.109375 0.109375 -0.171875q0.078125 -0.078125 0.171875 -0.109375q0.109375 -0.046875 0.21875 -0.046875zm5.6171875 5.5625l0 -2.8125q0 -0.1875 -0.015625 -0.296875q-0.015625 -0.125 -0.046875 -0.1875q-0.015625 -0.078125 -0.0625 -0.09375q-0.046875 -0.03125 -0.109375 -0.03125q-0.078125 0 -0.15625 0.046875q-0.0625 0.046875 -0.140625 0.15625q-0.078125 0.09375 -0.171875 0.265625q-0.078125 0.171875 -0.203125 0.4375l0 2.515625l-0.625 0l0 -2.75q0 -0.203125 -0.015625 -0.328125q-0.015625 -0.140625 -0.046875 -0.21875q-0.03125 -0.078125 -0.078125 -0.09375q-0.046875 -0.03125 -0.109375 -0.03125q-0.0625 0 -0.125 0.046875q-0.0625 0.03125 -0.140625 0.140625q-0.078125 0.09375 -0.171875 0.265625q-0.09375 0.171875 -0.21875 0.453125l0 2.515625l-0.625 0l0 -3.921875l0.515625 0l0.03125 0.75q0.09375 -0.234375 0.1875 -0.390625q0.109375 -0.15625 0.203125 -0.25q0.109375 -0.09375 0.21875 -0.140625q0.109375 -0.046875 0.25 -0.046875q0.328125 0 0.484375 0.21875q0.171875 0.203125 0.171875 0.640625q0.09375 -0.203125 0.171875 -0.359375q0.09375 -0.171875 0.1875 -0.265625q0.109375 -0.109375 0.234375 -0.171875q0.125 -0.0625 0.296875 -0.0625q0.734375 0 0.734375 1.140625l0 2.859375l-0.625 0zm4.9140625 -2.171875q0 0.140625 0 0.25q0 0.09375 -0.015625 0.171875l-2.75 0q0 0.609375 0.328125 0.9375q0.34375 0.3125 0.96875 0.3125q0.171875 0 0.34375 -0.015625q0.171875 -0.015625 0.328125 -0.03125q0.171875 -0.03125 0.3125 -0.046875q0.15625 -0.03125 0.28125 -0.078125l0 0.5625q-0.28125 0.078125 -0.640625 0.125q-0.34375 0.0625 -0.71875 0.0625q-0.5 0 -0.875 -0.140625q-0.359375 -0.140625 -0.59375 -0.390625q-0.21875 -0.265625 -0.34375 -0.640625q-0.109375 -0.390625 -0.109375 -0.859375q0 -0.421875 0.125 -0.78125q0.125 -0.375 0.34375 -0.65625q0.234375 -0.28125 0.5625 -0.4375q0.328125 -0.171875 0.75 -0.171875q0.421875 0 0.734375 0.140625q0.3125 0.125 0.53125 0.359375q0.21875 0.234375 0.328125 0.578125q0.109375 0.328125 0.109375 0.75zm-0.703125 -0.09375q0.015625 -0.265625 -0.046875 -0.484375q-0.0625 -0.21875 -0.203125 -0.375q-0.125 -0.15625 -0.328125 -0.234375q-0.1875 -0.09375 -0.453125 -0.09375q-0.21875 0 -0.40625 0.09375q-0.171875 0.078125 -0.3125 0.234375q-0.125 0.15625 -0.21875 0.375q-0.078125 0.21875 -0.09375 0.484375l2.0625 0z" fill-rule="nonzero"/><path fill="#000000" fill-opacity="0.0" d="m403.06824 98.42519l-55.24408 0" fill-rule="evenodd"/><path stroke="#000000" stroke-width="1.0" stroke-linejoin="round" stroke-linecap="butt" d="m403.06824 98.42519l-55.24408 0" fill-rule="evenodd"/><path fill="#000000" fill-opacity="0.0" d="m332.5433 85.291336l67.275604 0l0 13.133858l-67.275604 0z" fill-rule="evenodd"/><path fill="#000000" d="m359.05328 94.53827l0 -2.8125q0 -0.1875 -0.015625 -0.296875q-0.015625 -0.125 -0.046875 -0.1875q-0.015625 -0.078125 -0.0625 -0.09375q-0.046875 -0.03125 -0.109375 -0.03125q-0.078125 0 -0.15625 0.046875q-0.0625 0.046875 -0.140625 0.15625q-0.078125 0.09375 -0.171875 0.265625q-0.078125 0.171875 -0.203125 0.4375l0 2.515625l-0.625 0l0 -2.75q0 -0.203125 -0.015625 -0.328125q-0.015625 -0.140625 -0.046875 -0.21875q-0.03125 -0.078125 -0.078125 -0.09375q-0.046875 -0.03125 -0.109375 -0.03125q-0.0625 0 -0.125 0.046875q-0.0625 0.03125 -0.140625 0.140625q-0.078125 0.09375 -0.171875 0.265625q-0.09375 0.171875 -0.21875 0.453125l0 2.515625l-0.625 0l0 -3.921875l0.515625 0l0.03125 0.75q0.09375 -0.234375 0.1875 -0.390625q0.109375 -0.15625 0.203125 -0.25q0.109375 -0.09375 0.21875 -0.140625q0.109375 -0.046875 0.25 -0.046875q0.328125 0 0.484375 0.21875q0.171875 0.203125 0.171875 0.640625q0.09375 -0.203125 0.171875 -0.359375q0.09375 -0.171875 0.1875 -0.265625q0.109375 -0.109375 0.234375 -0.171875q0.125 -0.0625 0.296875 -0.0625q0.734375 0 0.734375 1.140625l0 2.859375l-0.625 0zm4.7578125 -0.0625q-0.21875 0.0625 -0.46875 0.09375q-0.25 0.03125 -0.5 0.03125q-0.734375 0 -1.109375 -0.328125q-0.359375 -0.34375 -0.359375 -1.046875l0 -2.046875l-1.09375 0l0 -0.5625l1.09375 0l0 -1.078125l0.6875 -0.171875l0 1.25l1.75 0l0 0.5625l-1.75 0l0 2.0q0 0.421875 0.21875 0.640625q0.21875 0.203125 0.65625 0.203125q0.1875 0 0.40625 -0.03125q0.234375 -0.03125 0.46875 -0.09375l0 0.578125zm2.5859375 -3.296875l-1.171875 0l0 -0.5625l1.859375 0l0 3.359375l1.15625 0l0 0.5625l-3.140625 0l0 -0.5625l1.296875 0l0 -2.796875zm0.234375 -2.203125q0.109375 0 0.203125 0.046875q0.109375 0.03125 0.171875 0.109375q0.078125 0.0625 0.109375 0.171875q0.046875 0.09375 0.046875 0.203125q0 0.109375 -0.046875 0.203125q-0.03125 0.09375 -0.109375 0.171875q-0.0625 0.078125 -0.171875 0.125q-0.09375 0.03125 -0.203125 0.03125q-0.109375 0 -0.21875 -0.03125q-0.09375 -0.046875 -0.171875 -0.125q-0.0625 -0.078125 -0.109375 -0.171875q-0.03125 -0.09375 -0.03125 -0.203125q0 -0.109375 0.03125 -0.203125q0.046875 -0.109375 0.109375 -0.171875q0.078125 -0.078125 0.171875 -0.109375q0.109375 -0.046875 0.21875 -0.046875zm5.6171875 5.5625l0 -2.8125q0 -0.1875 -0.015625 -0.296875q-0.015625 -0.125 -0.046875 -0.1875q-0.015625 -0.078125 -0.0625 -0.09375q-0.046875 -0.03125 -0.109375 -0.03125q-0.078125 0 -0.15625 0.046875q-0.0625 0.046875 -0.140625 0.15625q-0.078125 0.09375 -0.171875 0.265625q-0.078125 0.171875 -0.203125 0.4375l0 2.515625l-0.625 0l0 -2.75q0 -0.203125 -0.015625 -0.328125q-0.015625 -0.140625 -0.046875 -0.21875q-0.03125 -0.078125 -0.078125 -0.09375q-0.046875 -0.03125 -0.109375 -0.03125q-0.0625 0 -0.125 0.046875q-0.0625 0.03125 -0.140625 0.140625q-0.078125 0.09375 -0.171875 0.265625q-0.09375 0.171875 -0.21875 0.453125l0 2.515625l-0.625 0l0 -3.921875l0.515625 0l0.03125 0.75q0.09375 -0.234375 0.1875 -0.390625q0.109375 -0.15625 0.203125 -0.25q0.109375 -0.09375 0.21875 -0.140625q0.109375 -0.046875 0.25 -0.046875q0.328125 0 0.484375 0.21875q0.171875 0.203125 0.171875 0.640625q0.09375 -0.203125 0.171875 -0.359375q0.09375 -0.171875 0.1875 -0.265625q0.109375 -0.109375 0.234375 -0.171875q0.125 -0.0625 0.296875 -0.0625q0.734375 0 0.734375 1.140625l0 2.859375l-0.625 0zm4.9140625 -2.171875q0 0.140625 0 0.25q0 0.09375 -0.015625 0.171875l-2.75 0q0 0.609375 0.328125 0.9375q0.34375 0.3125 0.96875 0.3125q0.171875 0 0.34375 -0.015625q0.171875 -0.015625 0.328125 -0.03125q0.171875 -0.03125 0.3125 -0.046875q0.15625 -0.03125 0.28125 -0.078125l0 0.5625q-0.28125 0.078125 -0.640625 0.125q-0.34375 0.0625 -0.71875 0.0625q-0.5 0 -0.875 -0.140625q-0.359375 -0.140625 -0.59375 -0.390625q-0.21875 -0.265625 -0.34375 -0.640625q-0.109375 -0.390625 -0.109375 -0.859375q0 -0.421875 0.125 -0.78125q0.125 -0.375 0.34375 -0.65625q0.234375 -0.28125 0.5625 -0.4375q0.328125 -0.171875 0.75 -0.171875q0.421875 0 0.734375 0.140625q0.3125 0.125 0.53125 0.359375q0.21875 0.234375 0.328125 0.578125q0.109375 0.328125 0.109375 0.75zm-0.703125 -0.09375q0.015625 -0.265625 -0.046875 -0.484375q-0.0625 -0.21875 -0.203125 -0.375q-0.125 -0.15625 -0.328125 -0.234375q-0.1875 -0.09375 -0.453125 -0.09375q-0.21875 0 -0.40625 0.09375q-0.171875 0.078125 -0.3125 0.234375q-0.125 0.15625 -0.21875 0.375q-0.078125 0.21875 -0.09375 0.484375l2.0625 0zm4.8359375 2.125q-0.265625 0.09375 -0.546875 0.140625q-0.28125 0.0625 -0.578125 0.0625q-0.921875 0 -1.421875 -0.5q-0.5 -0.515625 -0.5 -1.484375q0 -0.46875 0.140625 -0.84375q0.140625 -0.375 0.40625 -0.640625q0.265625 -0.28125 0.625 -0.421875q0.359375 -0.15625 0.796875 -0.15625q0.3125 0 0.578125 0.046875q0.265625 0.046875 0.5 0.140625l0 0.65625q-0.25 -0.140625 -0.515625 -0.203125q-0.265625 -0.0625 -0.546875 -0.0625q-0.265625 0 -0.5 0.109375q-0.21875 0.09375 -0.40625 0.28125q-0.171875 0.1875 -0.28125 0.46875q-0.09375 0.265625 -0.09375 0.59375q0 0.71875 0.34375 1.078125q0.34375 0.34375 0.96875 0.34375q0.265625 0 0.53125 -0.0625q0.265625 -0.0625 0.5 -0.1875l0 0.640625zm4.1484375 0.140625l0 -2.8125q0 -0.1875 -0.015625 -0.296875q-0.015625 -0.125 -0.046875 -0.1875q-0.015625 -0.078125 -0.0625 -0.09375q-0.046875 -0.03125 -0.109375 -0.03125q-0.078125 0 -0.15625 0.046875q-0.0625 0.046875 -0.140625 0.15625q-0.078125 0.09375 -0.171875 0.265625q-0.078125 0.171875 -0.203125 0.4375l0 2.515625l-0.625 0l0 -2.75q0 -0.203125 -0.015625 -0.328125q-0.015625 -0.140625 -0.046875 -0.21875q-0.03125 -0.078125 -0.078125 -0.09375q-0.046875 -0.03125 -0.109375 -0.03125q-0.0625 0 -0.125 0.046875q-0.0625 0.03125 -0.140625 0.140625q-0.078125 0.09375 -0.171875 0.265625q-0.09375 0.171875 -0.21875 0.453125l0 2.515625l-0.625 0l0 -3.921875l0.515625 0l0.03125 0.75q0.09375 -0.234375 0.1875 -0.390625q0.109375 -0.15625 0.203125 -0.25q0.109375 -0.09375 0.21875 -0.140625q0.109375 -0.046875 0.25 -0.046875q0.328125 0 0.484375 0.21875q0.171875 0.203125 0.171875 0.640625q0.09375 -0.203125 0.171875 -0.359375q0.09375 -0.171875 0.1875 -0.265625q0.109375 -0.109375 0.234375 -0.171875q0.125 -0.0625 0.296875 -0.0625q0.734375 0 0.734375 1.140625l0 2.859375l-0.625 0zm4.9609375 -2.03125q0 0.515625 -0.15625 0.90625q-0.140625 0.390625 -0.40625 0.65625q-0.25 0.25 -0.609375 0.390625q-0.34375 0.125 -0.75 0.125q-0.1875 0 -0.375 -0.015625q-0.1875 -0.015625 -0.375 -0.078125l0 1.65625l-0.6875 0l0 -5.53125l0.609375 0l0.046875 0.65625q0.28125 -0.40625 0.609375 -0.5625q0.34375 -0.171875 0.734375 -0.171875q0.328125 0 0.578125 0.140625q0.265625 0.140625 0.4375 0.40625q0.171875 0.25 0.25 0.609375q0.09375 0.359375 0.09375 0.8125zm-0.703125 0.03125q0 -0.3125 -0.046875 -0.5625q-0.046875 -0.265625 -0.140625 -0.4375q-0.09375 -0.1875 -0.25 -0.296875q-0.15625 -0.109375 -0.359375 -0.109375q-0.125 0 -0.265625 0.046875q-0.125 0.046875 -0.28125 0.140625q-0.140625 0.09375 -0.296875 0.25q-0.15625 0.15625 -0.328125 0.390625l0 1.90625q0.1875 0.078125 0.390625 0.125q0.203125 0.046875 0.40625 0.046875q0.546875 0 0.859375 -0.375q0.3125 -0.375 0.3125 -1.125z" fill-rule="nonzero"/><path fill="#000000" fill-opacity="0.0" d="m403.24933 65.98688l16.0 0l0 13.133858l-16.0 0z" fill-rule="evenodd"/><path fill="#000000" d="m407.6634 71.34318l0.421875 -0.4375l2.625 2.203125l-2.625 2.1875l-0.421875 -0.4375l2.140625 -1.75l-2.140625 -1.765625zm7.4609375 1.359375l-3.359375 0l0 -0.5625l3.359375 0l0 0.5625zm0 1.359375l-3.359375 0l0 -0.5625l3.359375 0l0 0.5625z" fill-rule="nonzero"/><path fill="#000000" fill-opacity="0.0" d="m486.14697 72.5538l-66.897644 0" fill-rule="evenodd"/><path stroke="#000000" stroke-width="1.0" stroke-linejoin="round" stroke-linecap="butt" d="m486.14697 72.5538l-66.897644 0" fill-rule="evenodd"/><path fill="#000000" fill-opacity="0.0" d="m419.063 58.795277l67.275604 0l0 13.133854l-67.275604 0z" fill-rule="evenodd"/><path fill="#000000" d="m450.48703 65.87033q0 0.140625 0 0.25q0 0.09375 -0.015625 0.171875l-2.75 0q0 0.609375 0.328125 0.9375q0.34375 0.3125 0.96875 0.3125q0.171875 0 0.34375 -0.015625q0.171875 -0.015625 0.328125 -0.03125q0.171875 -0.03125 0.3125 -0.046875q0.15625 -0.03125 0.28125 -0.078125l0 0.5625q-0.28125 0.078125 -0.640625 0.125q-0.34375 0.0625 -0.71875 0.0625q-0.5 0 -0.875 -0.140625q-0.359375 -0.140625 -0.59375 -0.390625q-0.21875 -0.265625 -0.34375 -0.640625q-0.109375 -0.390625 -0.109375 -0.859375q0 -0.421875 0.125 -0.78125q0.125 -0.375 0.34375 -0.65625q0.234375 -0.28125 0.5625 -0.4375q0.328125 -0.171875 0.75 -0.171875q0.421875 0 0.734375 0.140625q0.3125 0.125 0.53125 0.359375q0.21875 0.234375 0.328125 0.578125q0.109375 0.328125 0.109375 0.75zm-0.703125 -0.09375q0.015625 -0.265625 -0.046875 -0.484375q-0.0625 -0.21875 -0.203125 -0.375q-0.125 -0.15625 -0.328125 -0.234375q-0.1875 -0.09375 -0.453125 -0.09375q-0.21875 0 -0.40625 0.09375q-0.171875 0.078125 -0.3125 0.234375q-0.125 0.15625 -0.21875 0.375q-0.078125 0.21875 -0.09375 0.484375l2.0625 0zm5.3203125 2.265625l-0.890625 0l-1.0625 -1.5l-1.046875 1.5l-0.875 0l1.515625 -1.96875l-1.453125 -1.953125l0.875 0l1.03125 1.5l1.015625 -1.5l0.828125 0l-1.46875 1.96875l1.53125 1.953125zm4.2265625 -2.03125q0 0.515625 -0.15625 0.90625q-0.140625 0.390625 -0.40625 0.65625q-0.25 0.25 -0.609375 0.390625q-0.34375 0.125 -0.75 0.125q-0.1875 0 -0.375 -0.015625q-0.1875 -0.015625 -0.375 -0.078125l0 1.65625l-0.6875 0l0 -5.53125l0.609375 0l0.046875 0.65625q0.28125 -0.40625 0.609375 -0.5625q0.34375 -0.171875 0.734375 -0.171875q0.328125 0 0.578125 0.140625q0.265625 0.140625 0.4375 0.40625q0.171875 0.25 0.25 0.609375q0.09375 0.359375 0.09375 0.8125zm-0.703125 0.03125q0 -0.3125 -0.046875 -0.5625q-0.046875 -0.265625 -0.140625 -0.4375q-0.09375 -0.1875 -0.25 -0.296875q-0.15625 -0.109375 -0.359375 -0.109375q-0.125 0 -0.265625 0.046875q-0.125 0.046875 -0.28125 0.140625q-0.140625 0.09375 -0.296875 0.25q-0.15625 0.15625 -0.328125 0.390625l0 1.90625q0.1875 0.078125 0.390625 0.125q0.203125 0.046875 0.40625 0.046875q0.546875 0 0.859375 -0.375q0.3125 -0.375 0.3125 -1.125zm3.0859375 -1.359375l-1.171875 0l0 -0.5625l1.859375 0l0 3.359375l1.15625 0l0 0.5625l-3.140625 0l0 -0.5625l1.296875 0l0 -2.796875zm0.234375 -2.203125q0.109375 0 0.203125 0.046875q0.109375 0.03125 0.171875 0.109375q0.078125 0.0625 0.109375 0.171875q0.046875 0.09375 0.046875 0.203125q0 0.109375 -0.046875 0.203125q-0.03125 0.09375 -0.109375 0.171875q-0.0625 0.078125 -0.171875 0.125q-0.09375 0.03125 -0.203125 0.03125q-0.109375 0 -0.21875 -0.03125q-0.09375 -0.046875 -0.171875 -0.125q-0.0625 -0.078125 -0.109375 -0.171875q-0.03125 -0.09375 -0.03125 -0.203125q0 -0.109375 0.03125 -0.203125q0.046875 -0.109375 0.109375 -0.171875q0.078125 -0.078125 0.171875 -0.109375q0.109375 -0.046875 0.21875 -0.046875zm2.9765625 1.640625l0.625 0l0.015625 0.71875q0.359375 -0.421875 0.6875 -0.609375q0.34375 -0.1875 0.6875 -0.1875q0.609375 0 0.921875 0.40625q0.3125 0.390625 0.296875 1.171875l-0.6875 0q0 -0.515625 -0.15625 -0.75q-0.15625 -0.234375 -0.46875 -0.234375q-0.140625 0 -0.28125 0.046875q-0.140625 0.046875 -0.296875 0.15625q-0.140625 0.109375 -0.3125 0.28125q-0.15625 0.15625 -0.34375 0.40625l0 2.515625l-0.6875 0l0 -3.921875zm7.5546875 1.75q0 0.140625 0 0.25q0 0.09375 -0.015625 0.171875l-2.75 0q0 0.609375 0.328125 0.9375q0.34375 0.3125 0.96875 0.3125q0.171875 0 0.34375 -0.015625q0.171875 -0.015625 0.328125 -0.03125q0.171875 -0.03125 0.3125 -0.046875q0.15625 -0.03125 0.28125 -0.078125l0 0.5625q-0.28125 0.078125 -0.640625 0.125q-0.34375 0.0625 -0.71875 0.0625q-0.5 0 -0.875 -0.140625q-0.359375 -0.140625 -0.59375 -0.390625q-0.21875 -0.265625 -0.34375 -0.640625q-0.109375 -0.390625 -0.109375 -0.859375q0 -0.421875 0.125 -0.78125q0.125 -0.375 0.34375 -0.65625q0.234375 -0.28125 0.5625 -0.4375q0.328125 -0.171875 0.75 -0.171875q0.421875 0 0.734375 0.140625q0.3125 0.125 0.53125 0.359375q0.21875 0.234375 0.328125 0.578125q0.109375 0.328125 0.109375 0.75zm-0.703125 -0.09375q0.015625 -0.265625 -0.046875 -0.484375q-0.0625 -0.21875 -0.203125 -0.375q-0.125 -0.15625 -0.328125 -0.234375q-0.1875 -0.09375 -0.453125 -0.09375q-0.21875 0 -0.40625 0.09375q-0.171875 0.078125 -0.3125 0.234375q-0.125 0.15625 -0.21875 0.375q-0.078125 0.21875 -0.09375 0.484375l2.0625 0zm1.5859375 0.390625q0 -0.5 0.140625 -0.890625q0.140625 -0.390625 0.390625 -0.65625q0.25 -0.265625 0.59375 -0.40625q0.359375 -0.140625 0.796875 -0.140625q0.1875 0 0.359375 0.03125q0.1875 0.015625 0.375 0.0625l0 -1.640625l0.671875 0l0 5.515625l-0.609375 0l-0.015625 -0.75q-0.28125 0.421875 -0.625 0.625q-0.328125 0.203125 -0.71875 0.203125q-0.328125 0 -0.59375 -0.140625q-0.25 -0.15625 -0.421875 -0.40625q-0.171875 -0.25 -0.265625 -0.609375q-0.078125 -0.359375 -0.078125 -0.796875zm0.703125 -0.046875q0 0.703125 0.203125 1.0625q0.21875 0.34375 0.59375 0.34375q0.265625 0 0.546875 -0.21875q0.28125 -0.234375 0.609375 -0.6875l0 -1.828125q-0.171875 -0.078125 -0.375 -0.109375q-0.203125 -0.046875 -0.40625 -0.046875q-0.546875 0 -0.859375 0.359375q-0.3125 0.359375 -0.3125 1.125z" fill-rule="nonzero"/></g></svg>