<?xml version="1.0" encoding="UTF-8"?>
<svg width="1135" height="105.77" fill="none" stroke-linecap="square" stroke-miterlimit="10" version="1.1" viewBox="0 0 1135 105.77" xmlns="http://www.w3.org/2000/svg">
 <defs>
  <clipPath id="clipPath976-3">
   <path d="m0 0h1280v960h-1280z"/>
  </clipPath>
  <clipPath id="clipPath970-5">
   <path d="m0 0h1280v960h-1280z"/>
  </clipPath>
  <clipPath id="clipPath964-6">
   <path d="m0 0h1280v960h-1280z"/>
  </clipPath>
  <clipPath id="clipPath958-1">
   <path d="m0 0h1280v960h-1280z"/>
  </clipPath>
  <clipPath id="clipPath952-0">
   <path d="m0 0h1280v960h-1280z"/>
  </clipPath>
  <clipPath id="clipPath946-6">
   <path d="m0 0h1280v960h-1280z"/>
  </clipPath>
  <clipPath id="clipPath940-2">
   <path d="m0 0h1280v960h-1280z"/>
  </clipPath>
  <clipPath id="clipPath934-8">
   <path d="m0 0h1280v960h-1280z"/>
  </clipPath>
  <clipPath id="clipPath928-2">
   <path d="m0 0h1280v960h-1280z"/>
  </clipPath>
  <clipPath id="clipPath922-3">
   <path d="m0 0h1280v960h-1280z"/>
  </clipPath>
  <clipPath id="clipPath910-8">
   <path d="m0 0h1280v960h-1280z"/>
  </clipPath>
  <clipPath id="clipPath904-3">
   <path d="m0 0h1280v960h-1280z"/>
  </clipPath>
  <clipPath id="clipPath898-2">
   <path d="m0 0h1280v960h-1280z"/>
  </clipPath>
 </defs>
 <g fill="#000">
  <path transform="translate(-85.585 -100.5)" d="m85.585 112.22h314.96v94.047h-314.96z" clip-path="url(#clipPath976-3)" fill-opacity="0" fill-rule="evenodd"/>
  <g>
   <path transform="translate(-85.585 -100.5)" d="m97.726 127.5v4.7969q0.73438-0.8125 1.4062-1.1406 0.6875-0.32812 1.5469-0.32812 0.90625 0 1.5312 0.32812 0.64062 0.3125 1.0625 0.98438 0.4375 0.65625 0.4375 1.3906v4.8281h0.85937q0.29688 0 0.40625 0.10937 0.125 0.10938 0.125 0.28125 0 0.17188-0.125 0.28125-0.10937 0.10938-0.40625 0.10938h-2.5312q-0.28125 0-0.40625-0.10938-0.10937-0.10937-0.10937-0.28125 0-0.17187 0.10937-0.28125 0.125-0.10937 0.40625-0.10937h0.875v-4.7812q0-0.84375-0.60937-1.4062-0.60938-0.5625-1.6875-0.5625-0.85938 0-1.4531 0.42187-0.4375 0.29688-1.4375 1.3906v4.9375h0.875q0.28125 0 0.39062 0.10937 0.125 0.10938 0.125 0.28125 0 0.17188-0.125 0.28125-0.10938 0.10938-0.39062 0.10938h-2.5469q-0.26562 0-0.39062-0.10938-0.125-0.10937-0.125-0.28125 0-0.17187 0.125-0.28125 0.125-0.10937 0.39062-0.10937h0.89062v-10.078h-1.0469q-0.28125 0-0.40625-0.10937-0.125-0.10938-0.125-0.28125 0-0.17188 0.125-0.28125 0.125-0.10938 0.40625-0.10938zm15.558 5.5938q0.98437 0.48438 1.4688 1.2656 0.5 0.76562 0.5 1.6562 0 1.375-1.0469 2.3906-1.0312 1.0156-2.5156 1.0156-1.4844 0-2.5312-1.0156-1.0312-1.0156-1.0312-2.3906 0-0.89063 0.5-1.6562 0.5-0.78125 1.4844-1.2656-0.85937-0.48437-1.25-1.0156-0.53125-0.75-0.53125-1.6562 0-1.2812 0.98438-2.2344 0.98437-0.96875 2.375-0.96875 1.4062 0 2.3906 0.96875 0.98438 0.95313 0.98438 2.2344 0 0.90625-0.54688 1.6562-0.375 0.53125-1.2344 1.0156zm0.98437-2.6406q0-1-0.75-1.7188-0.75-0.73438-1.8281-0.73438-1.0781 0-1.8281 0.73438-0.75 0.71875-0.75 1.7031 0 0.90625 0.73438 1.5938 0.75 0.6875 1.8438 0.6875t1.8281-0.6875q0.75-0.6875 0.75-1.5781zm0.20313 5.5781q0-1.0312-0.79688-1.7812-0.79687-0.76562-1.9844-0.76562t-1.9844 0.76562q-0.79687 0.75-0.79687 1.7656 0 1.0625 0.79687 1.8438 0.8125 0.78125 1.9844 0.78125 1.1875 0 1.9844-0.78125 0.79688-0.78125 0.79688-1.8281zm11.808-3.4844q-0.59375 1.0781-1.4219 1.625-0.82813 0.53125-1.7031 0.53125-0.8125 0-1.5781-0.46875-0.75-0.46875-1.2031-1.3594-0.4375-0.89062-0.4375-1.875 0-1.4375 0.89063-2.6094 0.89062-1.1719 2.375-1.1719 1.0469 0 1.9219 0.65625t1.3594 1.9062q0.625 1.6094 0.625 3.7344 0 1.6562-0.53125 2.75-0.35938 0.73437-1.0469 1.4375-0.67187 0.6875-1.5312 1.125-1.1562 0.59375-2.4219 0.59375-0.84375 0-1.3594-0.3125-0.25-0.15625-0.25-0.375 0-0.15625 0.10938-0.26563 0.10937-0.10937 0.26562-0.10937 0.125 0 0.32813 0.10937 0.35937 0.17188 0.84375 0.17188 1.9688 0 3.3906-1.4219 1.4219-1.4219 1.4219-3.5781 0-0.375-0.0469-1.0938zm-0.14062-1.2969q-0.5-1.875-1.2344-2.5625-0.71875-0.6875-1.6875-0.6875-1 0-1.75 0.84375-0.75 0.82813-0.75 2.1406 0 1.2656 0.75 2.1094 0.75 0.82813 1.7031 0.82813 0.54687 0 1.0781-0.29688 0.53125-0.29687 1.0156-0.89062 0.29687-0.40625 0.875-1.4844zm9.8081 4.6406h-5.1719v-0.90625l4.3281-7.4844h1.625v7.6094h0.65625q0.28125 0 0.40625 0.10937 0.125 0.0937 0.125 0.28125 0 0.15625-0.125 0.28125-0.125 0.10938-0.40625 0.10938h-0.65625v2.4688h0.65625q0.28125 0 0.40625 0.10937 0.125 0.10938 0.125 0.28125 0 0.17188-0.125 0.28125-0.125 0.10938-0.40625 0.10938h-2.8906q-0.29688 0-0.42188-0.10938-0.10937-0.10937-0.10937-0.28125 0-0.17187 0.10937-0.28125 0.125-0.10937 0.42188-0.10937h1.4531zm0-0.78125v-6.8281h-0.40625l-3.9531 6.8281zm13.527-2.75v1.9219q0 2.5156-1.2031 3.9844-0.9375 1.1562-2.3594 1.1562-0.6875 0-1.2969-0.28125-0.60937-0.26563-1.0312-0.76563-0.26562-0.29687-0.59375-0.96875-0.3125-0.6875-0.45312-1.25-0.21875-0.79687-0.21875-1.875v-1.9219q0-2.5312 1.2031-3.9844 0.9375-1.1562 2.3594-1.1562 0.70312 0 1.2969 0.28125 0.60938 0.26563 1.0312 0.76563 0.28125 0.3125 0.59375 0.98437 0.3125 0.67188 0.46875 1.2344 0.20313 0.79687 0.20313 1.875zm-0.78125 0.0937q0-1.0938-0.3125-2.0469-0.3125-0.95312-0.70313-1.5156-0.23437-0.32813-0.59375-0.5625-0.53125-0.32813-1.1875-0.32813-1.3125 0-2.0625 1.3438-0.73437 1.3281-0.73437 3.1094v1.7188q0 1.1094 0.3125 2.0625 0.3125 0.95312 0.70312 1.5312 0.21875 0.3125 0.59375 0.54687 0.53125 0.32813 1.2031 0.32813 1.2969 0 2.0312-1.3438 0.75-1.3438 0.75-3.125zm8.4331-1.3438h0.34375q0.51563 0 0.89063 0.375 0.375 0.35937 0.375 0.875 0 0.54687-0.375 0.90625-0.375 0.35937-0.89063 0.35937h-0.34375q-0.51562 0-0.89062-0.35937-0.35938-0.375-0.35938-0.89063 0-0.54687 0.375-0.90625 0.375-0.35937 0.875-0.35937zm0 5.7969h0.34375q0.51563 0 0.89063 0.375 0.375 0.35938 0.375 0.875 0 0.53125-0.375 0.90625-0.375 0.35938-0.89063 0.35938h-0.34375q-0.51562 0-0.89062-0.35938-0.35938-0.375-0.35938-0.89062 0-0.54688 0.375-0.90625 0.375-0.35938 0.875-0.35938zm25.21 2.2344v-1.125q-1.6875 1.4375-3.625 1.4375-1.4062 0-2.1875-0.70313-0.78125-0.71875-0.78125-1.75 0-1.1406 1.0312-1.9844 1.0469-0.84375 3.0312-0.84375 0.54688 0 1.1719 0.0781 0.625 0.0625 1.3594 0.21875v-1.2656q0-0.64063-0.59375-1.1094-0.59375-0.48437-1.7812-0.48437-0.90625 0-2.5469 0.53125-0.29688 0.0937-0.375 0.0937-0.15625 0-0.26563-0.10938-0.10937-0.10937-0.10937-0.28125 0-0.15625 0.0937-0.25 0.14062-0.14062 1.0625-0.375 1.4375-0.39062 2.1875-0.39062 1.4688 0 2.2969 0.73437 0.82813 0.71875 0.82813 1.6406v5.1562h1.0312q0.29687 0 0.40625 0.10937 0.125 0.10938 0.125 0.28125 0 0.17188-0.125 0.28125-0.10938 0.10938-0.40625 0.10938zm0-3.875q-0.54687-0.15625-1.1562-0.23438-0.60937-0.0781-1.2812-0.0781-1.7031 0-2.6562 0.73437-0.73437 0.54688-0.73437 1.3125 0 0.70313 0.54687 1.1875 0.5625 0.48438 1.625 0.48438 1 0 1.8594-0.40625 0.875-0.40625 1.7969-1.2812zm12.98-7.7656v10.859h1.0469q0.28125 0 0.40625 0.10937 0.125 0.10938 0.125 0.28125 0 0.17188-0.125 0.28125-0.125 0.10938-0.40625 0.10938h-1.8281v-1.5469q-1.3594 1.8594-3.4531 1.8594-1.0469 0-2.0156-0.5625t-1.5312-1.5938q-0.5625-1.0469-0.5625-2.1562 0-1.1094 0.5625-2.1406 0.5625-1.0469 1.5312-1.6094t2.0312-0.5625q2.0469 0 3.4375 1.8594v-4.4062h-1.0469q-0.28125 0-0.40625-0.10937-0.125-0.10938-0.125-0.28125 0-0.17188 0.125-0.28125 0.125-0.10938 0.40625-0.10938zm-0.78125 7.6406q0-1.4844-1.0156-2.5-1-1.0312-2.375-1.0312-1.3906 0-2.3906 1.0312-1 1.0156-1 2.5 0 1.4688 1 2.5t2.3906 1.0312q1.375 0 2.375-1.0312 1.0156-1.0312 1.0156-2.5zm12.183-7.6406v10.859h1.0469q0.28125 0 0.40625 0.10937 0.125 0.10938 0.125 0.28125 0 0.17188-0.125 0.28125-0.125 0.10938-0.40625 0.10938h-1.8281v-1.5469q-1.3594 1.8594-3.4531 1.8594-1.0469 0-2.0156-0.5625t-1.5312-1.5938q-0.5625-1.0469-0.5625-2.1562 0-1.1094 0.5625-2.1406 0.5625-1.0469 1.5312-1.6094t2.0312-0.5625q2.0469 0 3.4375 1.8594v-4.4062h-1.0469q-0.28125 0-0.40625-0.10937-0.125-0.10938-0.125-0.28125 0-0.17188 0.125-0.28125 0.125-0.10938 0.40625-0.10938zm-0.78125 7.6406q0-1.4844-1.0156-2.5-1-1.0312-2.375-1.0312-1.3906 0-2.3906 1.0312-1 1.0156-1 2.5 0 1.4688 1 2.5t2.3906 1.0312q1.375 0 2.375-1.0312 1.0156-1.0312 1.0156-2.5zm18.835-4.0312v1.9688q1.5312-1.375 2.2812-1.7656 0.75-0.40625 1.3906-0.40625 0.70313 0 1.2969 0.46875t0.59375 0.71875q0 0.17188-0.10938 0.29688-0.10937 0.10937-0.29687 0.10937-0.0937 0-0.15625-0.0312-0.0625-0.0312-0.23438-0.21875-0.32812-0.3125-0.57812-0.4375-0.23438-0.125-0.46875-0.125-0.5 0-1.2188 0.40625t-2.5 2v4.2656h3.4531q0.28125 0 0.40625 0.10937 0.125 0.10938 0.125 0.28125 0 0.17188-0.125 0.28125-0.125 0.10938-0.40625 0.10938h-6.1094q-0.28125 0-0.40625-0.10938-0.10938-0.10937-0.10938-0.26562t0.10938-0.26563q0.10937-0.10937 0.40625-0.10937h1.875v-6.5h-1.4375q-0.28125 0-0.40625-0.10938-0.10938-0.10937-0.10938-0.28125 0-0.17187 0.10938-0.28125 0.125-0.10937 0.40625-0.10937zm8.98 7.25h5.9844v-0.29688q0-0.28125 0.10938-0.40625 0.10937-0.125 0.29687-0.125 0.15625 0 0.26563 0.125 0.125 0.125 0.125 0.40625v1.0781h-7.5312v-1.1562q2.375-2.125 4.6094-4.3438 1.0469-1.0156 1.4375-1.5 0.39063-0.48438 0.53125-0.84375 0.15625-0.375 0.15625-0.75 0-1-0.8125-1.7656-0.8125-0.78125-1.9531-0.78125-1.0156 0-1.8125 0.59375-0.78125 0.57813-1.0156 1.4531-0.0469 0.21875-0.14062 0.28125-0.10938 0.0937-0.25 0.0937-0.15625 0-0.26563-0.10938-0.10937-0.10937-0.10937-0.25 0-0.45312 0.48437-1.2031 0.48438-0.76563 1.3438-1.2031 0.85938-0.4375 1.7656-0.4375 1.4531 0 2.5 1.0156 1.0469 1 1.0469 2.2812 0 0.54687-0.17187 1-0.17188 0.4375-0.60938 0.98437-0.42187 0.53125-1.5156 1.6094-2.7344 2.7031-4.4688 4.2031zm13.214-2.0156h2.5312l-2.75 5.1094q-0.25 0.46875-0.60937 0.46875-0.23438 0-0.39063-0.17188-0.15625-0.15625-0.15625-0.375 0-0.0937 0.0156-0.21875zm23.413-5.2344v1.9688q1.5312-1.375 2.2812-1.7656 0.75-0.40625 1.3906-0.40625 0.70313 0 1.2969 0.46875t0.59375 0.71875q0 0.17188-0.10938 0.29688-0.10937 0.10937-0.29687 0.10937-0.0937 0-0.15625-0.0312-0.0625-0.0312-0.23438-0.21875-0.32812-0.3125-0.57812-0.4375-0.23438-0.125-0.46875-0.125-0.5 0-1.2188 0.40625t-2.5 2v4.2656h3.4531q0.28125 0 0.40625 0.10937 0.125 0.10938 0.125 0.28125 0 0.17188-0.125 0.28125-0.125 0.10938-0.40625 0.10938h-6.1094q-0.28125 0-0.40625-0.10938-0.10938-0.10937-0.10938-0.26562t0.10938-0.26563q0.10937-0.10937 0.40625-0.10937h1.875v-6.5h-1.4375q-0.28125 0-0.40625-0.10938-0.10938-0.10937-0.10938-0.28125 0-0.17187 0.10938-0.28125 0.125-0.10937 0.40625-0.10937zm13.933 1.6875q1.0781 0.48437 1.6406 1.3281 0.57812 0.84375 0.57812 1.75 0 1.4062-1.1406 2.4844-1.1406 1.0625-2.8438 1.0625-1 0-2.0781-0.42188-1.0781-0.4375-1.5-0.875-0.14062-0.15625-0.14062-0.32812 0-0.14063 0.0937-0.25 0.10937-0.10938 0.26562-0.10938 0.14063 0 0.32813 0.14063 1.4375 1.0625 3.0469 1.0625 1.3594 0 2.2656-0.84375 0.92187-0.85938 0.92187-1.8906 0-0.70312-0.45312-1.3594-0.45313-0.67188-1.2969-1.0625-0.84375-0.39063-1.7031-0.39063-0.28125 0-0.40625-0.0937-0.10938-0.10937-0.10938-0.28125 0-0.17187 0.10938-0.28125 0.10937-0.10937 0.34375-0.10937h0.67187q1.0469 0 1.7188-0.64063 0.6875-0.64062 0.6875-1.4844 0-0.875-0.71875-1.5312-0.70312-0.67188-1.8594-0.67188-0.79688 0-1.4844 0.28125-0.67187 0.28125-1.0781 0.75-0.15625 0.1875-0.23438 0.23438-0.0781 0.0469-0.17187 0.0469-0.15625 0-0.28125-0.10937-0.10938-0.10938-0.10938-0.26563 0-0.35937 0.8125-0.9375 1.125-0.78125 2.5469-0.78125 1.4844 0 2.4219 0.89063 0.95313 0.875 0.95313 2.1094 0 0.78125-0.45313 1.4844-0.45312 0.6875-1.3438 1.0938zm8.2612 3.5469h2.5312l-2.75 5.1094q-0.25 0.46875-0.60937 0.46875-0.23438 0-0.39063-0.17188-0.15625-0.15625-0.15625-0.375 0-0.0937 0.0156-0.21875zm24.882-1.4062 3.5781 3.4219q0.34375 0 0.4375 0.0312 0.0937 0.0312 0.15625 0.14062 0.0781 0.0937 0.0781 0.21875 0 0.17188-0.125 0.28125-0.10937 0.10938-0.40625 0.10938h-2.5q-0.29687 0-0.42187-0.10938-0.10938-0.10937-0.10938-0.28125 0-0.17187 0.10938-0.28125 0.125-0.10937 0.42187-0.10937h1.2812l-3.0312-2.9062-3.0156 2.9062h1.2969q0.28125 0 0.40625 0.10937 0.125 0.10938 0.125 0.28125 0 0.17188-0.125 0.28125-0.125 0.10938-0.40625 0.10938h-2.5312q-0.28125 0-0.40625-0.10938-0.10937-0.10937-0.10937-0.28125 0-0.125 0.0625-0.21875 0.0781-0.10937 0.15625-0.14062 0.0937-0.0312 0.45312-0.0312l3.5625-3.4219-3.1719-3.0469q-0.32813 0-0.42188-0.0312-0.0781-0.0312-0.15625-0.14063-0.0625-0.10937-0.0625-0.21875 0-0.17187 0.10938-0.28125 0.125-0.10937 0.42187-0.10937h2.125q0.28125 0 0.39063 0.10937 0.125 0.10938 0.125 0.28125 0 0.17188-0.125 0.28125-0.10938 0.10938-0.39063 0.10938h-0.9375l2.625 2.5312 2.6406-2.5312h-0.92188q-0.28125 0-0.40625-0.10938-0.125-0.10937-0.125-0.28125 0-0.17187 0.125-0.28125 0.125-0.10937 0.40625-0.10937h2.125q0.28125 0 0.39063 0.10937 0.125 0.10938 0.125 0.28125 0 0.10938-0.0781 0.21875-0.0625 0.10938-0.15625 0.14063-0.0781 0.0312-0.40625 0.0312zm14.449-2.5781v1.9219q0 2.5156-1.2031 3.9844-0.9375 1.1562-2.3594 1.1562-0.6875 0-1.2969-0.28125-0.60938-0.26563-1.0312-0.76563-0.26563-0.29687-0.59375-0.96875-0.3125-0.6875-0.45313-1.25-0.21875-0.79687-0.21875-1.875v-1.9219q0-2.5312 1.2031-3.9844 0.9375-1.1562 2.3594-1.1562 0.70313 0 1.2969 0.28125 0.60937 0.26563 1.0312 0.76563 0.28125 0.3125 0.59375 0.98437 0.3125 0.67188 0.46875 1.2344 0.20312 0.79687 0.20312 1.875zm-0.78125 0.0937q0-1.0938-0.3125-2.0469-0.3125-0.95312-0.70312-1.5156-0.23438-0.32813-0.59375-0.5625-0.53125-0.32813-1.1875-0.32813-1.3125 0-2.0625 1.3438-0.73438 1.3281-0.73438 3.1094v1.7188q0 1.1094 0.3125 2.0625 0.3125 0.95312 0.70313 1.5312 0.21875 0.3125 0.59375 0.54687 0.53125 0.32813 1.2031 0.32813 1.2969 0 2.0312-1.3438 0.75-1.3438 0.75-3.125z" clip-path="url(#clipPath970-5)"/>
   <path transform="translate(-85.585 -100.5)" d="m97.726 153.26v4.7969q0.73438-0.8125 1.4062-1.1406 0.6875-0.32813 1.5469-0.32813 0.90625 0 1.5312 0.32813 0.64062 0.3125 1.0625 0.98437 0.4375 0.65625 0.4375 1.3906v4.8281h0.85937q0.29688 0 0.40625 0.10938 0.125 0.10937 0.125 0.28125 0 0.17187-0.125 0.28125-0.10937 0.10937-0.40625 0.10937h-2.5312q-0.28125 0-0.40625-0.10937-0.10937-0.10938-0.10937-0.28125 0-0.17188 0.10937-0.28125 0.125-0.10938 0.40625-0.10938h0.875v-4.7812q0-0.84375-0.60937-1.4062-0.60938-0.5625-1.6875-0.5625-0.85938 0-1.4531 0.42188-0.4375 0.29687-1.4375 1.3906v4.9375h0.875q0.28125 0 0.39062 0.10938 0.125 0.10937 0.125 0.28125 0 0.17187-0.125 0.28125-0.10938 0.10937-0.39062 0.10937h-2.5469q-0.26562 0-0.39062-0.10937-0.125-0.10938-0.125-0.28125 0-0.17188 0.125-0.28125 0.125-0.10938 0.39062-0.10938h0.89062v-10.078h-1.0469q-0.28125 0-0.40625-0.10938-0.125-0.10937-0.125-0.28125 0-0.17187 0.125-0.28125 0.125-0.10937 0.40625-0.10937zm15.558 5.5938q0.98437 0.48437 1.4688 1.2656 0.5 0.76563 0.5 1.6562 0 1.375-1.0469 2.3906-1.0312 1.0156-2.5156 1.0156-1.4844 0-2.5312-1.0156-1.0312-1.0156-1.0312-2.3906 0-0.89062 0.5-1.6562 0.5-0.78125 1.4844-1.2656-0.85937-0.48438-1.25-1.0156-0.53125-0.75-0.53125-1.6562 0-1.2812 0.98438-2.2344 0.98437-0.96875 2.375-0.96875 1.4062 0 2.3906 0.96875 0.98438 0.95312 0.98438 2.2344 0 0.90625-0.54688 1.6562-0.375 0.53125-1.2344 1.0156zm0.98437-2.6406q0-1-0.75-1.7188-0.75-0.73437-1.8281-0.73437-1.0781 0-1.8281 0.73437-0.75 0.71875-0.75 1.7031 0 0.90625 0.73438 1.5938 0.75 0.6875 1.8438 0.6875t1.8281-0.6875q0.75-0.6875 0.75-1.5781zm0.20313 5.5781q0-1.0312-0.79688-1.7812-0.79687-0.76563-1.9844-0.76563t-1.9844 0.76563q-0.79687 0.75-0.79687 1.7656 0 1.0625 0.79687 1.8438 0.8125 0.78125 1.9844 0.78125 1.1875 0 1.9844-0.78125 0.79688-0.78125 0.79688-1.8281zm11.808-3.4844q-0.59375 1.0781-1.4219 1.625-0.82813 0.53125-1.7031 0.53125-0.8125 0-1.5781-0.46875-0.75-0.46875-1.2031-1.3594-0.4375-0.89063-0.4375-1.875 0-1.4375 0.89063-2.6094 0.89062-1.1719 2.375-1.1719 1.0469 0 1.9219 0.65625t1.3594 1.9062q0.625 1.6094 0.625 3.7344 0 1.6562-0.53125 2.75-0.35938 0.73438-1.0469 1.4375-0.67187 0.6875-1.5312 1.125-1.1562 0.59375-2.4219 0.59375-0.84375 0-1.3594-0.3125-0.25-0.15625-0.25-0.375 0-0.15625 0.10938-0.26562 0.10937-0.10938 0.26562-0.10938 0.125 0 0.32813 0.10938 0.35937 0.17187 0.84375 0.17187 1.9688 0 3.3906-1.4219 1.4219-1.4219 1.4219-3.5781 0-0.375-0.0469-1.0938zm-0.14062-1.2969q-0.5-1.875-1.2344-2.5625-0.71875-0.6875-1.6875-0.6875-1 0-1.75 0.84375-0.75 0.82812-0.75 2.1406 0 1.2656 0.75 2.1094 0.75 0.82812 1.7031 0.82812 0.54687 0 1.0781-0.29687 0.53125-0.29688 1.0156-0.89063 0.29687-0.40625 0.875-1.4844zm9.8081 4.6406h-5.1719v-0.90625l4.3281-7.4844h1.625v7.6094h0.65625q0.28125 0 0.40625 0.10938 0.125 0.0937 0.125 0.28125 0 0.15625-0.125 0.28125-0.125 0.10937-0.40625 0.10937h-0.65625v2.4688h0.65625q0.28125 0 0.40625 0.10938 0.125 0.10937 0.125 0.28125 0 0.17187-0.125 0.28125-0.125 0.10937-0.40625 0.10937h-2.8906q-0.29688 0-0.42188-0.10937-0.10937-0.10938-0.10937-0.28125 0-0.17188 0.10937-0.28125 0.125-0.10938 0.42188-0.10938h1.4531zm0-0.78125v-6.8281h-0.40625l-3.9531 6.8281zm11.402 0.78125h-5.1719v-0.90625l4.3281-7.4844h1.625v7.6094h0.65625q0.28125 0 0.40625 0.10938 0.125 0.0937 0.125 0.28125 0 0.15625-0.125 0.28125-0.125 0.10937-0.40625 0.10937h-0.65625v2.4688h0.65625q0.28125 0 0.40625 0.10938 0.125 0.10937 0.125 0.28125 0 0.17187-0.125 0.28125-0.125 0.10937-0.40625 0.10937h-2.8906q-0.29687 0-0.42187-0.10937-0.10938-0.10938-0.10938-0.28125 0-0.17188 0.10938-0.28125 0.125-0.10938 0.42187-0.10938h1.4531zm0-0.78125v-6.8281h-0.40625l-3.9531 6.8281zm9.7768-4h0.34375q0.51563 0 0.89063 0.375 0.375 0.35938 0.375 0.875 0 0.54688-0.375 0.90625-0.375 0.35938-0.89063 0.35938h-0.34375q-0.51562 0-0.89062-0.35938-0.35938-0.375-0.35938-0.89062 0-0.54688 0.375-0.90625 0.375-0.35938 0.875-0.35938zm0 5.7969h0.34375q0.51563 0 0.89063 0.375 0.375 0.35937 0.375 0.875 0 0.53125-0.375 0.90625-0.375 0.35937-0.89063 0.35937h-0.34375q-0.51562 0-0.89062-0.35937-0.35938-0.375-0.35938-0.89063 0-0.54687 0.375-0.90625 0.375-0.35937 0.875-0.35937zm25.554-5.2969q0-0.26562 0.10938-0.375 0.10937-0.125 0.28125-0.125 0.17187 0 0.28125 0.125 0.10937 0.10938 0.10937 0.40625v1.3281q0 0.28125-0.10937 0.40625-0.10938 0.10937-0.28125 0.10937-0.17188 0-0.28125-0.0937-0.0937-0.10937-0.10938-0.34375-0.0625-0.54687-0.57812-0.90625-0.76563-0.53125-2.0156-0.53125-1.3125 0-2.0312 0.53125-0.54687 0.40625-0.54687 0.89063 0 0.5625 0.64062 0.9375 0.45313 0.25 1.7031 0.39062 1.6094 0.17188 2.25 0.40625 0.89062 0.32813 1.3281 0.90625 0.45313 0.5625 0.45313 1.2344 0 0.98437-0.95313 1.7656-0.95312 0.78125-2.8125 0.78125-1.8438 0-3.0156-0.9375 0 0.3125-0.0469 0.40625-0.0312 0.0937-0.125 0.15625-0.0937 0.0625-0.21875 0.0625-0.17187 0-0.28125-0.10937-0.10937-0.125-0.10937-0.40625v-1.6094q0-0.28125 0.10937-0.39062 0.10938-0.125 0.28125-0.125 0.17188 0 0.28125 0.125 0.10938 0.10937 0.10938 0.29687 0 0.42188 0.21875 0.71875 0.32812 0.4375 1.0312 0.73438 0.71875 0.29687 1.75 0.29687 1.5156 0 2.25-0.5625 0.75-0.57812 0.75-1.2031 0-0.71875-0.75-1.1562-0.76563-0.4375-2.2188-0.57813-1.4531-0.15625-2.0781-0.39062-0.625-0.25-0.98437-0.73438-0.35938-0.48437-0.35938-1.0312 0-1.0156 0.98438-1.5938 0.98437-0.59375 2.3594-0.59375 1.6094 0 2.625 0.78125zm11.496 7.5312v-1.1406q-1.6094 1.4531-3.4531 1.4531-1.1406 0-1.7344-0.625-0.78125-0.8125-0.78125-1.9062v-5.0312h-1.0469q-0.28125 0-0.40625-0.10937-0.10937-0.10938-0.10937-0.28125 0-0.17188 0.10937-0.28125 0.125-0.10938 0.40625-0.10938h1.8281v5.8125q0 0.76563 0.48437 1.2656 0.48438 0.48437 1.2031 0.48437 1.9062 0 3.5-1.75v-5.0312h-1.4375q-0.28125 0-0.40625-0.10937-0.125-0.10938-0.125-0.28125 0-0.17188 0.125-0.28125 0.125-0.10938 0.40625-0.10938h2.2031v7.25h0.67188q0.26562 0 0.39062 0.10938 0.125 0.10937 0.125 0.28125 0 0.17187-0.125 0.28125-0.125 0.10937-0.39062 0.10937zm5.7925-11.641v5.1719q1.4062-1.8438 3.4062-1.8438 1.7031 0 2.9219 1.25 1.2188 1.2344 1.2188 3.0312 0 1.8125-1.2344 3.0781-1.2344 1.2656-2.9062 1.2656-2.0469 0-3.4062-1.8438v1.5312h-1.8281q-0.28125 0-0.40625-0.10937-0.10937-0.10938-0.10937-0.28125 0-0.17188 0.10937-0.28125 0.125-0.10938 0.40625-0.10938h1.0469v-10.078h-1.0469q-0.28125 0-0.40625-0.10938-0.10937-0.10937-0.10937-0.28125 0-0.17187 0.10937-0.28125 0.125-0.10937 0.40625-0.10937zm6.7656 7.6406q0-1.4688-1.0156-2.5-1.0156-1.0312-2.3594-1.0312-1.3594 0-2.375 1.0312-1 1.0312-1 2.5t1 2.5q1.0156 1.0312 2.375 1.0312 1.3438 0 2.3594-1.0312 1.0156-1.0312 1.0156-2.5zm18.038-4.0312v1.9688q1.5312-1.375 2.2812-1.7656 0.75-0.40625 1.3906-0.40625 0.70313 0 1.2969 0.46875t0.59375 0.71875q0 0.17187-0.10938 0.29687-0.10937 0.10938-0.29687 0.10938-0.0937 0-0.15625-0.0312-0.0625-0.0312-0.23438-0.21875-0.32812-0.3125-0.57812-0.4375-0.23438-0.125-0.46875-0.125-0.5 0-1.2188 0.40625t-2.5 2v4.2656h3.4531q0.28125 0 0.40625 0.10938 0.125 0.10937 0.125 0.28125 0 0.17187-0.125 0.28125-0.125 0.10937-0.40625 0.10937h-6.1094q-0.28125 0-0.40625-0.10937-0.10938-0.10938-0.10938-0.26563t0.10938-0.26562q0.10937-0.10938 0.40625-0.10938h1.875v-6.5h-1.4375q-0.28125 0-0.40625-0.10937-0.10938-0.10938-0.10938-0.28125 0-0.17188 0.10938-0.28125 0.125-0.10938 0.40625-0.10938zm13.792 4.7812h-5.1719v-0.90625l4.3281-7.4844h1.625v7.6094h0.65625q0.28125 0 0.40625 0.10938 0.125 0.0937 0.125 0.28125 0 0.15625-0.125 0.28125-0.125 0.10937-0.40625 0.10937h-0.65625v2.4688h0.65625q0.28125 0 0.40625 0.10938 0.125 0.10937 0.125 0.28125 0 0.17187-0.125 0.28125-0.125 0.10937-0.40625 0.10937h-2.8906q-0.29687 0-0.42187-0.10937-0.10938-0.10938-0.10938-0.28125 0-0.17188 0.10938-0.28125 0.125-0.10938 0.42187-0.10938h1.4531zm0-0.78125v-6.8281h-0.40625l-3.9531 6.8281zm8.4018 1.2344h2.5312l-2.75 5.1094q-0.25 0.46875-0.60937 0.46875-0.23438 0-0.39063-0.17187-0.15625-0.15625-0.15625-0.375 0-0.0937 0.0156-0.21875zm23.413-5.2344v1.9688q1.5312-1.375 2.2812-1.7656 0.75-0.40625 1.3906-0.40625 0.70312 0 1.2969 0.46875t0.59375 0.71875q0 0.17187-0.10937 0.29687-0.10938 0.10938-0.29688 0.10938-0.0937 0-0.15625-0.0312-0.0625-0.0312-0.23437-0.21875-0.32813-0.3125-0.57813-0.4375-0.23437-0.125-0.46875-0.125-0.5 0-1.2188 0.40625t-2.5 2v4.2656h3.4531q0.28125 0 0.40625 0.10938 0.125 0.10937 0.125 0.28125 0 0.17187-0.125 0.28125-0.125 0.10937-0.40625 0.10937h-6.1094q-0.28125 0-0.40625-0.10937-0.10937-0.10938-0.10937-0.26563t0.10937-0.26562q0.10938-0.10938 0.40625-0.10938h1.875v-6.5h-1.4375q-0.28125 0-0.40625-0.10937-0.10937-0.10938-0.10937-0.28125 0-0.17188 0.10937-0.28125 0.125-0.10938 0.40625-0.10938zm13.933 1.6875q1.0781 0.48438 1.6406 1.3281 0.57813 0.84375 0.57813 1.75 0 1.4062-1.1406 2.4844-1.1406 1.0625-2.8438 1.0625-1 0-2.0781-0.42187-1.0781-0.4375-1.5-0.875-0.14063-0.15625-0.14063-0.32813 0-0.14062 0.0937-0.25 0.10938-0.10937 0.26563-0.10937 0.14062 0 0.32812 0.14062 1.4375 1.0625 3.0469 1.0625 1.3594 0 2.2656-0.84375 0.92188-0.85937 0.92188-1.8906 0-0.70313-0.45313-1.3594-0.45312-0.67187-1.2969-1.0625-0.84375-0.39062-1.7031-0.39062-0.28125 0-0.40625-0.0937-0.10937-0.10938-0.10937-0.28125 0-0.17188 0.10937-0.28125 0.10938-0.10938 0.34375-0.10938h0.67188q1.0469 0 1.7188-0.64062 0.6875-0.64063 0.6875-1.4844 0-0.875-0.71875-1.5312-0.70313-0.67187-1.8594-0.67187-0.79687 0-1.4844 0.28125-0.67188 0.28125-1.0781 0.75-0.15625 0.1875-0.23437 0.23437-0.0781 0.0469-0.17188 0.0469-0.15625 0-0.28125-0.10938-0.10937-0.10937-0.10937-0.26562 0-0.35938 0.8125-0.9375 1.125-0.78125 2.5469-0.78125 1.4844 0 2.4219 0.89062 0.95312 0.875 0.95312 2.1094 0 0.78125-0.45312 1.4844-0.45313 0.6875-1.3438 1.0938zm8.2612 3.5469h2.5312l-2.75 5.1094q-0.25 0.46875-0.60938 0.46875-0.23437 0-0.39062-0.17187-0.15625-0.15625-0.15625-0.375 0-0.0937 0.0156-0.21875zm23.413-5.2344v1.9688q1.5312-1.375 2.2812-1.7656 0.75-0.40625 1.3906-0.40625 0.70312 0 1.2969 0.46875t0.59375 0.71875q0 0.17187-0.10937 0.29687-0.10938 0.10938-0.29688 0.10938-0.0937 0-0.15625-0.0312-0.0625-0.0312-0.23437-0.21875-0.32813-0.3125-0.57813-0.4375-0.23437-0.125-0.46875-0.125-0.5 0-1.2188 0.40625t-2.5 2v4.2656h3.4531q0.28125 0 0.40625 0.10938 0.125 0.10937 0.125 0.28125 0 0.17187-0.125 0.28125-0.125 0.10937-0.40625 0.10937h-6.1094q-0.28125 0-0.40625-0.10937-0.10937-0.10938-0.10937-0.26563t0.10937-0.26562q0.10938-0.10938 0.40625-0.10938h1.875v-6.5h-1.4375q-0.28125 0-0.40625-0.10937-0.10937-0.10938-0.10937-0.28125 0-0.17188 0.10937-0.28125 0.125-0.10938 0.40625-0.10938zm12.73-3.7656v11.016h2.6719q0.26562 0 0.39062 0.10938 0.125 0.10937 0.125 0.28125 0 0.17187-0.125 0.28125-0.125 0.10937-0.39062 0.10937h-6.125q-0.28125 0-0.40625-0.10937-0.125-0.10938-0.125-0.28125 0-0.17188 0.125-0.28125 0.125-0.10938 0.40625-0.10938h2.6719v-9.9375l-2.5469 0.79688q-0.1875 0.0469-0.26563 0.0469-0.14062 0-0.26562-0.10937-0.10938-0.125-0.10938-0.28125 0-0.14063 0.0937-0.25 0.0781-0.0781 0.3125-0.15625z" clip-path="url(#clipPath964-6)"/>
   <path transform="translate(-85.585 -100.5)" d="m97.726 179.02v4.7969q0.73438-0.8125 1.4062-1.1406 0.6875-0.32813 1.5469-0.32813 0.90625 0 1.5312 0.32813 0.64062 0.3125 1.0625 0.98437 0.4375 0.65625 0.4375 1.3906v4.8281h0.85937q0.29688 0 0.40625 0.10938 0.125 0.10937 0.125 0.28125 0 0.17187-0.125 0.28125-0.10937 0.10937-0.40625 0.10937h-2.5312q-0.28125 0-0.40625-0.10937-0.10937-0.10938-0.10937-0.28125 0-0.17188 0.10937-0.28125 0.125-0.10938 0.40625-0.10938h0.875v-4.7812q0-0.84375-0.60937-1.4062-0.60938-0.5625-1.6875-0.5625-0.85938 0-1.4531 0.42188-0.4375 0.29687-1.4375 1.3906v4.9375h0.875q0.28125 0 0.39062 0.10938 0.125 0.10937 0.125 0.28125 0 0.17187-0.125 0.28125-0.10938 0.10937-0.39062 0.10937h-2.5469q-0.26562 0-0.39062-0.10937-0.125-0.10938-0.125-0.28125 0-0.17188 0.125-0.28125 0.125-0.10938 0.39062-0.10938h0.89062v-10.078h-1.0469q-0.28125 0-0.40625-0.10938-0.125-0.10937-0.125-0.28125 0-0.17187 0.125-0.28125 0.125-0.10937 0.40625-0.10937zm15.558 5.5938q0.98437 0.48437 1.4688 1.2656 0.5 0.76563 0.5 1.6562 0 1.375-1.0469 2.3906-1.0312 1.0156-2.5156 1.0156-1.4844 0-2.5312-1.0156-1.0312-1.0156-1.0312-2.3906 0-0.89062 0.5-1.6562 0.5-0.78125 1.4844-1.2656-0.85937-0.48438-1.25-1.0156-0.53125-0.75-0.53125-1.6562 0-1.2812 0.98438-2.2344 0.98437-0.96875 2.375-0.96875 1.4062 0 2.3906 0.96875 0.98438 0.95312 0.98438 2.2344 0 0.90625-0.54688 1.6562-0.375 0.53125-1.2344 1.0156zm0.98437-2.6406q0-1-0.75-1.7188-0.75-0.73437-1.8281-0.73437-1.0781 0-1.8281 0.73437-0.75 0.71875-0.75 1.7031 0 0.90625 0.73438 1.5938 0.75 0.6875 1.8438 0.6875t1.8281-0.6875q0.75-0.6875 0.75-1.5781zm0.20313 5.5781q0-1.0312-0.79688-1.7812-0.79687-0.76563-1.9844-0.76563t-1.9844 0.76563q-0.79687 0.75-0.79687 1.7656 0 1.0625 0.79687 1.8438 0.8125 0.78125 1.9844 0.78125 1.1875 0 1.9844-0.78125 0.79688-0.78125 0.79688-1.8281zm11.808-3.4844q-0.59375 1.0781-1.4219 1.625-0.82813 0.53125-1.7031 0.53125-0.8125 0-1.5781-0.46875-0.75-0.46875-1.2031-1.3594-0.4375-0.89063-0.4375-1.875 0-1.4375 0.89063-2.6094 0.89062-1.1719 2.375-1.1719 1.0469 0 1.9219 0.65625t1.3594 1.9062q0.625 1.6094 0.625 3.7344 0 1.6562-0.53125 2.75-0.35938 0.73438-1.0469 1.4375-0.67187 0.6875-1.5312 1.125-1.1562 0.59375-2.4219 0.59375-0.84375 0-1.3594-0.3125-0.25-0.15625-0.25-0.375 0-0.15625 0.10938-0.26562 0.10937-0.10938 0.26562-0.10938 0.125 0 0.32813 0.10938 0.35937 0.17187 0.84375 0.17187 1.9688 0 3.3906-1.4219 1.4219-1.4219 1.4219-3.5781 0-0.375-0.0469-1.0938zm-0.14062-1.2969q-0.5-1.875-1.2344-2.5625-0.71875-0.6875-1.6875-0.6875-1 0-1.75 0.84375-0.75 0.82812-0.75 2.1406 0 1.2656 0.75 2.1094 0.75 0.82812 1.7031 0.82812 0.54687 0 1.0781-0.29687 0.53125-0.29688 1.0156-0.89063 0.29687-0.40625 0.875-1.4844zm9.8081 4.6406h-5.1719v-0.90625l4.3281-7.4844h1.625v7.6094h0.65625q0.28125 0 0.40625 0.10938 0.125 0.0937 0.125 0.28125 0 0.15625-0.125 0.28125-0.125 0.10937-0.40625 0.10937h-0.65625v2.4688h0.65625q0.28125 0 0.40625 0.10938 0.125 0.10937 0.125 0.28125 0 0.17187-0.125 0.28125-0.125 0.10937-0.40625 0.10937h-2.8906q-0.29688 0-0.42188-0.10937-0.10937-0.10938-0.10937-0.28125 0-0.17188 0.10937-0.28125 0.125-0.10938 0.42188-0.10938h1.4531zm0-0.78125v-6.8281h-0.40625l-3.9531 6.8281zm11.542-2.0156q0.98438 0.48437 1.4688 1.2656 0.5 0.76563 0.5 1.6562 0 1.375-1.0469 2.3906-1.0312 1.0156-2.5156 1.0156-1.4844 0-2.5312-1.0156-1.0312-1.0156-1.0312-2.3906 0-0.89062 0.5-1.6562 0.5-0.78125 1.4844-1.2656-0.85938-0.48438-1.25-1.0156-0.53125-0.75-0.53125-1.6562 0-1.2812 0.98437-2.2344 0.98438-0.96875 2.375-0.96875 1.4062 0 2.3906 0.96875 0.98437 0.95312 0.98437 2.2344 0 0.90625-0.54687 1.6562-0.375 0.53125-1.2344 1.0156zm0.98438-2.6406q0-1-0.75-1.7188-0.75-0.73437-1.8281-0.73437-1.0781 0-1.8281 0.73437-0.75 0.71875-0.75 1.7031 0 0.90625 0.73437 1.5938 0.75 0.6875 1.8438 0.6875t1.8281-0.6875q0.75-0.6875 0.75-1.5781zm0.20312 5.5781q0-1.0312-0.79687-1.7812-0.79688-0.76563-1.9844-0.76563t-1.9844 0.76563q-0.79688 0.75-0.79688 1.7656 0 1.0625 0.79688 1.8438 0.8125 0.78125 1.9844 0.78125 1.1875 0 1.9844-0.78125 0.79687-0.78125 0.79687-1.8281zm8.4487-4.9219h0.34375q0.51563 0 0.89063 0.375 0.375 0.35938 0.375 0.875 0 0.54688-0.375 0.90625-0.375 0.35938-0.89063 0.35938h-0.34375q-0.51562 0-0.89062-0.35938-0.35938-0.375-0.35938-0.89062 0-0.54688 0.375-0.90625 0.375-0.35938 0.875-0.35938zm0 5.7969h0.34375q0.51563 0 0.89063 0.375 0.375 0.35937 0.375 0.875 0 0.53125-0.375 0.90625-0.375 0.35937-0.89063 0.35937h-0.34375q-0.51562 0-0.89062-0.35937-0.35938-0.375-0.35938-0.89063 0-0.54687 0.375-0.90625 0.375-0.35937 0.875-0.35937zm25.21 2.2344v-1.125q-1.6875 1.4375-3.625 1.4375-1.4062 0-2.1875-0.70312-0.78125-0.71875-0.78125-1.75 0-1.1406 1.0312-1.9844 1.0469-0.84375 3.0312-0.84375 0.54688 0 1.1719 0.0781 0.625 0.0625 1.3594 0.21875v-1.2656q0-0.64062-0.59375-1.1094-0.59375-0.48438-1.7812-0.48438-0.90625 0-2.5469 0.53125-0.29688 0.0937-0.375 0.0937-0.15625 0-0.26563-0.10937-0.10937-0.10938-0.10937-0.28125 0-0.15625 0.0937-0.25 0.14062-0.14063 1.0625-0.375 1.4375-0.39063 2.1875-0.39063 1.4688 0 2.2969 0.73438 0.82813 0.71875 0.82813 1.6406v5.1562h1.0312q0.29687 0 0.40625 0.10938 0.125 0.10937 0.125 0.28125 0 0.17187-0.125 0.28125-0.10938 0.10937-0.40625 0.10937zm0-3.875q-0.54687-0.15625-1.1562-0.23437-0.60937-0.0781-1.2812-0.0781-1.7031 0-2.6562 0.73438-0.73437 0.54687-0.73437 1.3125 0 0.70312 0.54687 1.1875 0.5625 0.48437 1.625 0.48437 1 0 1.8594-0.40625 0.875-0.40625 1.7969-1.2812zm12.98-7.7656v10.859h1.0469q0.28125 0 0.40625 0.10938 0.125 0.10937 0.125 0.28125 0 0.17187-0.125 0.28125-0.125 0.10937-0.40625 0.10937h-1.8281v-1.5469q-1.3594 1.8594-3.4531 1.8594-1.0469 0-2.0156-0.5625t-1.5312-1.5938q-0.5625-1.0469-0.5625-2.1562 0-1.1094 0.5625-2.1406 0.5625-1.0469 1.5312-1.6094t2.0312-0.5625q2.0469 0 3.4375 1.8594v-4.4062h-1.0469q-0.28125 0-0.40625-0.10938-0.125-0.10937-0.125-0.28125 0-0.17187 0.125-0.28125 0.125-0.10937 0.40625-0.10937zm-0.78125 7.6406q0-1.4844-1.0156-2.5-1-1.0312-2.375-1.0312-1.3906 0-2.3906 1.0312-1 1.0156-1 2.5 0 1.4688 1 2.5t2.3906 1.0312q1.375 0 2.375-1.0312 1.0156-1.0312 1.0156-2.5zm12.183-7.6406v10.859h1.0469q0.28125 0 0.40625 0.10938 0.125 0.10937 0.125 0.28125 0 0.17187-0.125 0.28125-0.125 0.10937-0.40625 0.10937h-1.8281v-1.5469q-1.3594 1.8594-3.4531 1.8594-1.0469 0-2.0156-0.5625t-1.5312-1.5938q-0.5625-1.0469-0.5625-2.1562 0-1.1094 0.5625-2.1406 0.5625-1.0469 1.5312-1.6094t2.0312-0.5625q2.0469 0 3.4375 1.8594v-4.4062h-1.0469q-0.28125 0-0.40625-0.10938-0.125-0.10937-0.125-0.28125 0-0.17187 0.125-0.28125 0.125-0.10937 0.40625-0.10937zm-0.78125 7.6406q0-1.4844-1.0156-2.5-1-1.0312-2.375-1.0312-1.3906 0-2.3906 1.0312-1 1.0156-1 2.5 0 1.4688 1 2.5t2.3906 1.0312q1.375 0 2.375-1.0312 1.0156-1.0312 1.0156-2.5zm18.835-4.0312v1.9688q1.5312-1.375 2.2812-1.7656 0.75-0.40625 1.3906-0.40625 0.70313 0 1.2969 0.46875t0.59375 0.71875q0 0.17187-0.10938 0.29687-0.10937 0.10938-0.29687 0.10938-0.0937 0-0.15625-0.0312-0.0625-0.0312-0.23438-0.21875-0.32812-0.3125-0.57812-0.4375-0.23438-0.125-0.46875-0.125-0.5 0-1.2188 0.40625t-2.5 2v4.2656h3.4531q0.28125 0 0.40625 0.10938 0.125 0.10937 0.125 0.28125 0 0.17187-0.125 0.28125-0.125 0.10937-0.40625 0.10937h-6.1094q-0.28125 0-0.40625-0.10937-0.10938-0.10938-0.10938-0.26563t0.10938-0.26562q0.10937-0.10938 0.40625-0.10938h1.875v-6.5h-1.4375q-0.28125 0-0.40625-0.10937-0.10938-0.10938-0.10938-0.28125 0-0.17188 0.10938-0.28125 0.125-0.10938 0.40625-0.10938zm10.183-2.8281v3.8125q0.6875-0.28125 1.3125-0.42188 0.64063-0.14062 1.2031-0.14062 1.4688 0 2.4531 1.0312 1 1.0156 1 2.7031 0 1.8594-1.125 3.0156-1.1094 1.1406-2.7812 1.1406-1.0938 0-2.125-0.5-0.71875-0.34375-1.3125-0.84375-0.35937-0.3125-0.35937-0.51562 0-0.17188 0.10937-0.28125 0.125-0.10938 0.26563-0.10938 0.15625 0 0.34375 0.15625 1.3906 1.3125 3.0469 1.3125 1.3594 0 2.25-0.92187 0.89063-0.9375 0.89063-2.5 0-1.3125-0.76563-2.1094-0.76562-0.8125-1.9531-0.8125-1.2188 0-2.4375 0.64063-0.29688 0.15625-0.42188 0.15625-0.15625 0-0.26562-0.10938-0.0937-0.10937-0.0937-0.3125v-5.1719h5.4219q0.28125 0 0.40625 0.10937 0.125 0.10938 0.125 0.28125 0 0.17188-0.125 0.28125-0.125 0.10938-0.40625 0.10938zm12.011 8.0625h2.5312l-2.75 5.1094q-0.25 0.46875-0.60937 0.46875-0.23438 0-0.39063-0.17187-0.15625-0.15625-0.15625-0.375 0-0.0937 0.0156-0.21875zm23.413-5.2344v1.9688q1.5312-1.375 2.2812-1.7656 0.75-0.40625 1.3906-0.40625 0.70313 0 1.2969 0.46875t0.59375 0.71875q0 0.17187-0.10938 0.29687-0.10937 0.10938-0.29687 0.10938-0.0937 0-0.15625-0.0312-0.0625-0.0312-0.23438-0.21875-0.32812-0.3125-0.57812-0.4375-0.23438-0.125-0.46875-0.125-0.5 0-1.2188 0.40625t-2.5 2v4.2656h3.4531q0.28125 0 0.40625 0.10938 0.125 0.10937 0.125 0.28125 0 0.17187-0.125 0.28125-0.125 0.10937-0.40625 0.10937h-6.1094q-0.28125 0-0.40625-0.10937-0.10938-0.10938-0.10938-0.26563t0.10938-0.26562q0.10937-0.10938 0.40625-0.10938h1.875v-6.5h-1.4375q-0.28125 0-0.40625-0.10937-0.10938-0.10938-0.10938-0.28125 0-0.17188 0.10938-0.28125 0.125-0.10938 0.40625-0.10938zm13.792 4.7812h-5.1719v-0.90625l4.3281-7.4844h1.625v7.6094h0.65625q0.28125 0 0.40625 0.10938 0.125 0.0937 0.125 0.28125 0 0.15625-0.125 0.28125-0.125 0.10937-0.40625 0.10937h-0.65625v2.4688h0.65625q0.28125 0 0.40625 0.10938 0.125 0.10937 0.125 0.28125 0 0.17187-0.125 0.28125-0.125 0.10937-0.40625 0.10937h-2.8906q-0.29687 0-0.42187-0.10937-0.10938-0.10938-0.10938-0.28125 0-0.17188 0.10938-0.28125 0.125-0.10938 0.42187-0.10938h1.4531zm0-0.78125v-6.8281h-0.40625l-3.9531 6.8281zm8.4018 1.2344h2.5312l-2.75 5.1094q-0.25 0.46875-0.60937 0.46875-0.23438 0-0.39063-0.17187-0.15625-0.15625-0.15625-0.375 0-0.0937 0.0156-0.21875zm23.413-5.2344v1.9688q1.5312-1.375 2.2812-1.7656 0.75-0.40625 1.3906-0.40625 0.70312 0 1.2969 0.46875t0.59375 0.71875q0 0.17187-0.10937 0.29687-0.10938 0.10938-0.29688 0.10938-0.0937 0-0.15625-0.0312-0.0625-0.0312-0.23437-0.21875-0.32813-0.3125-0.57813-0.4375-0.23437-0.125-0.46875-0.125-0.5 0-1.2188 0.40625t-2.5 2v4.2656h3.4531q0.28125 0 0.40625 0.10938 0.125 0.10937 0.125 0.28125 0 0.17187-0.125 0.28125-0.125 0.10937-0.40625 0.10937h-6.1094q-0.28125 0-0.40625-0.10937-0.10937-0.10938-0.10937-0.26563t0.10937-0.26562q0.10938-0.10938 0.40625-0.10938h1.875v-6.5h-1.4375q-0.28125 0-0.40625-0.10937-0.10937-0.10938-0.10937-0.28125 0-0.17188 0.10937-0.28125 0.125-0.10938 0.40625-0.10938zm8.98 7.25h5.9844v-0.29687q0-0.28125 0.10937-0.40625 0.10938-0.125 0.29688-0.125 0.15625 0 0.26562 0.125 0.125 0.125 0.125 0.40625v1.0781h-7.5312v-1.1562q2.375-2.125 4.6094-4.3438 1.0469-1.0156 1.4375-1.5 0.39062-0.48437 0.53125-0.84375 0.15625-0.375 0.15625-0.75 0-1-0.8125-1.7656-0.8125-0.78125-1.9531-0.78125-1.0156 0-1.8125 0.59375-0.78125 0.57812-1.0156 1.4531-0.0469 0.21875-0.14063 0.28125-0.10937 0.0937-0.25 0.0937-0.15625 0-0.26562-0.10937-0.10938-0.10938-0.10938-0.25 0-0.45313 0.48438-1.2031 0.48437-0.76562 1.3438-1.2031 0.85937-0.4375 1.7656-0.4375 1.4531 0 2.5 1.0156 1.0469 1 1.0469 2.2812 0 0.54688-0.17188 1-0.17187 0.4375-0.60937 0.98438-0.42188 0.53125-1.5156 1.6094-2.7344 2.7031-4.4688 4.2031z" clip-path="url(#clipPath958-1)"/>
  </g>
  <path transform="translate(-85.585 -100.5)" d="m653.34 112.22h567.21v62.457h-567.21z" clip-path="url(#clipPath952-0)" fill-opacity="0" fill-rule="evenodd"/>
  <path transform="translate(-85.585 -100.5)" d="m664.81 126.12v3.7812q0.59375-0.64063 1.125-0.89063 0.54687-0.26562 1.2188-0.26562 0.70312 0 1.2031 0.25 0.51563 0.25 0.84375 0.78125 0.34375 0.51562 0.34375 1.0938v3.8281h0.6875q0.21875 0 0.3125 0.0781 0.0937 0.0781 0.0937 0.21875 0 0.14062-0.0937 0.23437-0.0937 0.0781-0.3125 0.0781h-2q-0.23437 0-0.32812-0.0781-0.0937-0.0937-0.0937-0.23437 0-0.14063 0.0937-0.21875 0.0937-0.0781 0.32812-0.0781h0.6875v-3.7812q0-0.65625-0.48437-1.1094-0.46875-0.45313-1.3281-0.45313-0.67187 0-1.1562 0.32813-0.34375 0.23437-1.1406 1.1094v3.9062h0.70312q0.21875 0 0.3125 0.0781 0.0937 0.0781 0.0937 0.21875 0 0.14062-0.0937 0.23437-0.0937 0.0781-0.3125 0.0781h-2q-0.23437 0-0.32812-0.0781-0.0937-0.0937-0.0937-0.23437 0-0.14063 0.0937-0.21875 0.0937-0.0781 0.32812-0.0781h0.6875v-7.9531h-0.82812q-0.21875 0-0.3125-0.0937-0.0937-0.0937-0.0937-0.23437 0-0.125 0.0937-0.20313 0.0937-0.0937 0.3125-0.0937zm11.345-0.125v8.7031h2.1094q0.21875 0 0.3125 0.0781 0.0937 0.0781 0.0937 0.21875 0 0.14062-0.0937 0.23437-0.0937 0.0781-0.3125 0.0781h-4.8438q-0.21875 0-0.3125-0.0781-0.0937-0.0937-0.0937-0.23437 0-0.14063 0.0937-0.21875 0.0937-0.0781 0.3125-0.0781h2.1094v-7.8594l-2 0.625q-0.15625 0.0469-0.21875 0.0469-0.10938 0-0.20313-0.0781-0.0937-0.0937-0.0937-0.21875 0-0.10937 0.0781-0.21875 0.0625-0.0469 0.25-0.125zm11.517 3.9531v1.5312q0 1.9844-0.95313 3.1406-0.73437 0.90625-1.8594 0.90625-0.54688 0-1.0312-0.21875-0.46875-0.21875-0.8125-0.59375-0.20313-0.25-0.46875-0.78125-0.25-0.53125-0.35938-0.98438-0.17187-0.625-0.17187-1.4688v-1.5312q0-1.9844 0.95312-3.1406 0.73438-0.90625 1.8594-0.90625 0.5625 0 1.0312 0.21875 0.46875 0.20313 0.8125 0.59375 0.21875 0.25 0.46875 0.79688 0.25 0.53124 0.35937 0.96874 0.17188 0.625 0.17188 1.4688zm-0.625 0.0781q0-0.85938-0.25-1.6094-0.23438-0.74999-0.54688-1.2031-0.17187-0.25-0.46875-0.4375-0.42187-0.26562-0.9375-0.26562-1.0312 0-1.625 1.0625-0.57812 1.0469-0.57812 2.4531v1.3594q0 0.875 0.23437 1.6406 0.25 0.75 0.5625 1.1875 0.1875 0.25 0.46875 0.4375 0.42188 0.26562 0.95313 0.26562 1.0156 0 1.5938-1.0625 0.59375-1.0625 0.59375-2.4688zm9.6265-0.0781v1.5312q0 1.9844-0.95312 3.1406-0.73438 0.90625-1.8594 0.90625-0.54687 0-1.0312-0.21875-0.46875-0.21875-0.8125-0.59375-0.20312-0.25-0.46875-0.78125-0.25-0.53125-0.35937-0.98438-0.17188-0.625-0.17188-1.4688v-1.5312q0-1.9844 0.95313-3.1406 0.73437-0.90625 1.8594-0.90625 0.5625 0 1.0312 0.21875 0.46875 0.20313 0.8125 0.59375 0.21875 0.25 0.46875 0.79688 0.25 0.53124 0.35938 0.96874 0.17187 0.625 0.17187 1.4688zm-0.625 0.0781q0-0.85938-0.25-1.6094-0.23437-0.74999-0.54687-1.2031-0.17188-0.25-0.46875-0.4375-0.42188-0.26562-0.9375-0.26562-1.0312 0-1.625 1.0625-0.57813 1.0469-0.57813 2.4531v1.3594q0 0.875 0.23438 1.6406 0.25 0.75 0.5625 1.1875 0.1875 0.25 0.46875 0.4375 0.42187 0.26562 0.95312 0.26562 1.0156 0 1.5938-1.0625 0.59375-1.0625 0.59375-2.4688zm10.892 9.3906h-8.1875q-0.21875 0-0.3125-0.0937-0.0937-0.0781-0.0937-0.21875 0-0.14062 0.0937-0.21875 0.0937-0.0781 0.3125-0.0781h8.1875q0.21875 0 0.3125 0.0781 0.0937 0.0781 0.0937 0.21875 0 0.14063-0.0937 0.21875-0.0937 0.0937-0.3125 0.0937zm7.7358-9.4688v1.5312q0 1.9844-0.95312 3.1406-0.73438 0.90625-1.8594 0.90625-0.54687 0-1.0312-0.21875-0.46875-0.21875-0.8125-0.59375-0.20312-0.25-0.46875-0.78125-0.25-0.53125-0.35937-0.98438-0.17188-0.625-0.17188-1.4688v-1.5312q0-1.9844 0.95313-3.1406 0.73437-0.90625 1.8594-0.90625 0.5625 0 1.0312 0.21875 0.46875 0.20313 0.8125 0.59375 0.21875 0.25 0.46875 0.79688 0.25 0.53124 0.35938 0.96874 0.17187 0.625 0.17187 1.4688zm-0.625 0.0781q0-0.85938-0.25-1.6094-0.23437-0.74999-0.54687-1.2031-0.17188-0.25-0.46875-0.4375-0.42188-0.26562-0.9375-0.26562-1.0312 0-1.625 1.0625-0.57813 1.0469-0.57813 2.4531v1.3594q0 0.875 0.23438 1.6406 0.25 0.75 0.5625 1.1875 0.1875 0.25 0.46875 0.4375 0.42187 0.26562 0.95312 0.26562 1.0156 0 1.5938-1.0625 0.59375-1.0625 0.59375-2.4688zm9.6265-0.0781v1.5312q0 1.9844-0.95313 3.1406-0.73437 0.90625-1.8594 0.90625-0.54688 0-1.0312-0.21875-0.46875-0.21875-0.8125-0.59375-0.20313-0.25-0.46875-0.78125-0.25-0.53125-0.35938-0.98438-0.17187-0.625-0.17187-1.4688v-1.5312q0-1.9844 0.95312-3.1406 0.73438-0.90625 1.8594-0.90625 0.5625 0 1.0312 0.21875 0.46875 0.20313 0.8125 0.59375 0.21875 0.25 0.46875 0.79688 0.25 0.53124 0.35937 0.96874 0.17188 0.625 0.17188 1.4688zm-0.625 0.0781q0-0.85938-0.25-1.6094-0.23438-0.74999-0.54688-1.2031-0.17187-0.25-0.46875-0.4375-0.42187-0.26562-0.9375-0.26562-1.0312 0-1.625 1.0625-0.57812 1.0469-0.57812 2.4531v1.3594q0 0.875 0.23437 1.6406 0.25 0.75 0.5625 1.1875 0.1875 0.25 0.46875 0.4375 0.42188 0.26562 0.95313 0.26562 1.0156 0 1.5938-1.0625 0.59375-1.0625 0.59375-2.4688zm7.939 2.7031h-4.0781v-0.70312l3.4219-5.9062h1.2812v6h0.51563q0.23437 0 0.32812 0.0937 0.0937 0.0781 0.0937 0.21875 0 0.125-0.0937 0.21875-0.0937 0.0781-0.32812 0.0781h-0.51563v1.9688h0.51563q0.23437 0 0.32812 0.0781 0.0937 0.0781 0.0937 0.21875 0 0.14062-0.0937 0.23437-0.0937 0.0781-0.32812 0.0781h-2.2812q-0.23438 0-0.32813-0.0781-0.0937-0.0937-0.0937-0.23437 0-0.14063 0.0937-0.21875 0.0937-0.0781 0.32813-0.0781h1.1406zm0-0.60937v-5.375h-0.3125l-3.1094 5.375zm10.689-2.1719v1.5312q0 1.9844-0.95313 3.1406-0.73437 0.90625-1.8594 0.90625-0.54688 0-1.0312-0.21875-0.46875-0.21875-0.8125-0.59375-0.20313-0.25-0.46875-0.78125-0.25-0.53125-0.35938-0.98438-0.17187-0.625-0.17187-1.4688v-1.5312q0-1.9844 0.95312-3.1406 0.73438-0.90625 1.8594-0.90625 0.5625 0 1.0312 0.21875 0.46875 0.20313 0.8125 0.59375 0.21875 0.25 0.46875 0.79688 0.25 0.53124 0.35937 0.96874 0.17188 0.625 0.17188 1.4688zm-0.625 0.0781q0-0.85938-0.25-1.6094-0.23438-0.74999-0.54688-1.2031-0.17187-0.25-0.46875-0.4375-0.42187-0.26562-0.9375-0.26562-1.0312 0-1.625 1.0625-0.57812 1.0469-0.57812 2.4531v1.3594q0 0.875 0.23437 1.6406 0.25 0.75 0.5625 1.1875 0.1875 0.25 0.46875 0.4375 0.42188 0.26562 0.95313 0.26562 1.0156 0 1.5938-1.0625 0.59375-1.0625 0.59375-2.4688zm6.6733-1.0625h0.26562q0.40625 0 0.6875 0.29687 0.29688 0.29688 0.29688 0.6875 0 0.4375-0.29688 0.73438-0.28125 0.28125-0.6875 0.28125h-0.26562q-0.40625 0-0.70313-0.29688-0.29687-0.29687-0.29687-0.70312 0-0.42188 0.29687-0.70313 0.29688-0.29687 0.70313-0.29687zm0 4.5781h0.26562q0.40625 0 0.6875 0.29688 0.29688 0.28125 0.29688 0.6875 0 0.42187-0.29688 0.71875-0.28125 0.28125-0.6875 0.28125h-0.26562q-0.40625 0-0.70313-0.28125-0.29687-0.29688-0.29687-0.70313 0-0.42187 0.29687-0.70312 0.29688-0.29688 0.70313-0.29688z" clip-path="url(#clipPath946-6)"/>
 </g>
 <path transform="translate(-85.585 -100.5)" d="m767.63 135.3v-0.89063q-1.3438 1.125-2.8594 1.125-1.1094 0-1.7344-0.54687-0.60938-0.5625-0.60938-1.375 0-0.89063 0.8125-1.5625 0.82813-0.67188 2.3906-0.67188 0.42187 0 0.92187 0.0625 0.5 0.0469 1.0781 0.17188v-1q0-0.5-0.46875-0.875t-1.4062-0.375q-0.71875 0-2.0156 0.42187-0.23437 0.0625-0.29687 0.0625-0.10938 0-0.20313-0.0781-0.0781-0.0937-0.0781-0.21875 0-0.125 0.0781-0.20313 0.0937-0.10937 0.82813-0.29687 1.1406-0.3125 1.7188-0.3125 1.1719 0 1.8125 0.57812 0.65625 0.57813 0.65625 1.2969v4.0781h0.82812q0.21875 0 0.3125 0.0781 0.0937 0.0781 0.0937 0.21875 0 0.14062-0.0937 0.23437-0.0937 0.0781-0.3125 0.0781zm0-3.0625q-0.42188-0.125-0.90625-0.17188-0.48438-0.0625-1.0156-0.0625-1.3438 0-2.1094 0.57813-0.5625 0.42187-0.5625 1.0312 0 0.54687 0.4375 0.9375 0.4375 0.375 1.2656 0.375 0.79688 0 1.4844-0.3125 0.6875-0.32813 1.4062-1.0156zm10.251-6.125v8.5781h0.8125q0.23437 0 0.32812 0.0781 0.0937 0.0781 0.0937 0.21875 0 0.14062-0.0937 0.23437-0.0937 0.0781-0.32812 0.0781h-1.4375v-1.2188q-1.0625 1.4531-2.7188 1.4531-0.82813 0-1.5938-0.4375-0.76563-0.4375-1.2188-1.25-0.4375-0.82812-0.4375-1.7031t0.4375-1.6875q0.45312-0.82813 1.2188-1.2656 0.76562-0.45312 1.6094-0.45312 1.6094 0 2.7031 1.4688v-3.4688h-0.8125q-0.23438 0-0.32813-0.0937-0.0937-0.0937-0.0937-0.23437 0-0.125 0.0937-0.20313 0.0937-0.0937 0.32813-0.0937zm-0.625 6.0312q0-1.1719-0.79688-1.9688-0.78125-0.8125-1.875-0.8125t-1.8906 0.8125q-0.79688 0.79687-0.79688 1.9688 0 1.1562 0.79688 1.9688 0.79687 0.8125 1.8906 0.8125t1.875-0.8125q0.79688-0.8125 0.79688-1.9688zm9.6265-6.0312v8.5781h0.8125q0.23438 0 0.32813 0.0781 0.0937 0.0781 0.0937 0.21875 0 0.14062-0.0937 0.23437-0.0937 0.0781-0.32813 0.0781h-1.4375v-1.2188q-1.0625 1.4531-2.7188 1.4531-0.82812 0-1.5938-0.4375-0.76562-0.4375-1.2188-1.25-0.4375-0.82812-0.4375-1.7031t0.4375-1.6875q0.45313-0.82813 1.2188-1.2656 0.76563-0.45312 1.6094-0.45312 1.6094 0 2.7031 1.4688v-3.4688h-0.8125q-0.23437 0-0.32812-0.0937-0.0937-0.0937-0.0937-0.23437 0-0.125 0.0937-0.20313 0.0937-0.0937 0.32812-0.0937zm-0.625 6.0312q0-1.1719-0.79687-1.9688-0.78125-0.8125-1.875-0.8125t-1.8906 0.8125q-0.79687 0.79687-0.79687 1.9688 0 1.1562 0.79687 1.9688 0.79688 0.8125 1.8906 0.8125t1.875-0.8125q0.79687-0.8125 0.79687-1.9688zm6.9233-6.3438v1.5938h-0.92187v-1.5938zm0.0156 3.1562v5.7344h2.4219q0.21875 0 0.3125 0.0781 0.0937 0.0781 0.0937 0.21875 0 0.14062-0.0937 0.23437-0.0937 0.0781-0.3125 0.0781h-5.4531q-0.21875 0-0.3125-0.0781-0.0937-0.0937-0.0937-0.23437 0-0.14063 0.0937-0.21875 0.0937-0.0781 0.3125-0.0781h2.4219v-5.1094h-1.7969q-0.21875 0-0.32813-0.0781-0.0937-0.0937-0.0937-0.23437 0-0.14063 0.0937-0.21875 0.0937-0.0937 0.32813-0.0937zm16.94 0v1.5469q1.2031-1.0781 1.7969-1.3906t1.1094-0.3125q0.54687 0 1.0156 0.375t0.46875 0.5625q0 0.14062-0.0937 0.23437-0.0937 0.0781-0.21875 0.0781-0.0781 0-0.14062-0.0156-0.0469-0.0312-0.1875-0.17187-0.25-0.25-0.4375-0.34375-0.1875-0.0937-0.375-0.0937-0.40625 0-0.98438 0.32812-0.5625 0.3125-1.9531 1.5625v3.375h2.7188q0.23437 0 0.32812 0.0781 0.0937 0.0781 0.0937 0.21875 0 0.14062-0.0937 0.23437-0.0937 0.0781-0.32812 0.0781h-4.8281q-0.21875 0-0.3125-0.0781-0.0937-0.0937-0.0937-0.21875 0-0.125 0.0937-0.20312 0.0937-0.0937 0.3125-0.0937h1.5v-5.125h-1.1406q-0.21875 0-0.3125-0.0781-0.0937-0.0937-0.0937-0.23437 0-0.14063 0.0781-0.21875 0.0937-0.0937 0.32813-0.0937zm7.0952 5.7344h4.7188v-0.25q0-0.21875 0.0781-0.3125 0.0937-0.0937 0.23437-0.0937 0.14063 0 0.21875 0.0937 0.0937 0.0937 0.0937 0.3125v0.85938h-5.9531v-0.90625q1.875-1.6875 3.6562-3.4375 0.82812-0.8125 1.125-1.1875 0.3125-0.375 0.42187-0.65625 0.10938-0.29688 0.10938-0.59375 0-0.79687-0.64063-1.4062-0.625-0.60937-1.5312-0.60937-0.79687 0-1.4219 0.46875t-0.8125 1.1406q-0.0469 0.17187-0.10938 0.23437-0.0781 0.0625-0.20312 0.0625-0.125 0-0.21875-0.0781-0.0781-0.0781-0.0781-0.20313 0-0.34374 0.39063-0.93749 0.39062-0.60938 1.0625-0.95313 0.67187-0.34375 1.3906-0.34375 1.1406 0 1.9688 0.79688 0.82813 0.79687 0.82813 1.8125 0 0.42188-0.14063 0.78125-0.125 0.34375-0.46875 0.76563-0.32812 0.42187-1.1875 1.2656-2.1719 2.1406-3.5312 3.3281zm10.423-1.6094h2l-2.1719 4.0469q-0.20313 0.375-0.48438 0.375-0.17187 0-0.3125-0.14062-0.125-0.125-0.125-0.29688 0-0.0781 0.0312-0.17187zm18.487-4.125v1.5469q1.2031-1.0781 1.7969-1.3906t1.1094-0.3125q0.54687 0 1.0156 0.375t0.46875 0.5625q0 0.14062-0.0937 0.23437-0.0937 0.0781-0.21875 0.0781-0.0781 0-0.14062-0.0156-0.0469-0.0312-0.1875-0.17187-0.25-0.25-0.4375-0.34375-0.1875-0.0937-0.375-0.0937-0.40625 0-0.98438 0.32812-0.5625 0.3125-1.9531 1.5625v3.375h2.7188q0.23437 0 0.32812 0.0781 0.0937 0.0781 0.0937 0.21875 0 0.14062-0.0937 0.23437-0.0937 0.0781-0.32812 0.0781h-4.8281q-0.21875 0-0.3125-0.0781-0.0937-0.0937-0.0937-0.21875 0-0.125 0.0937-0.20312 0.0937-0.0937 0.3125-0.0937h1.5v-5.125h-1.1406q-0.21875 0-0.3125-0.0781-0.0937-0.0937-0.0937-0.23437 0-0.14063 0.0781-0.21875 0.0937-0.0937 0.32813-0.0937zm11.001 1.3438q0.84375 0.375 1.2812 1.0469 0.45313 0.65625 0.45313 1.375 0 1.1094-0.89063 1.9531-0.89062 0.84375-2.25 0.84375-0.78125 0-1.6406-0.32813-0.84375-0.34375-1.1875-0.70312-0.10938-0.10938-0.10938-0.25 0-0.10938 0.0781-0.1875 0.0937-0.0937 0.21875-0.0937 0.10937 0 0.26562 0.10937 1.125 0.84375 2.3906 0.84375 1.0781 0 1.7969-0.67187 0.71875-0.67188 0.71875-1.5 0-0.54688-0.35937-1.0625-0.34375-0.53125-1.0156-0.82813-0.67187-0.3125-1.3438-0.3125-0.21875 0-0.32812-0.0781-0.0937-0.0937-0.0937-0.23438 0-0.125 0.0937-0.21875 0.0937-0.0937 0.28125-0.0937l0.53125 0.0156q0.82812 0 1.3594-0.5 0.54688-0.51563 0.54688-1.1719 0-0.68749-0.57813-1.2187-0.5625-0.53125-1.4688-0.53125-0.64062 0-1.1719 0.21875t-0.85938 0.60937q-0.10937 0.14063-0.17187 0.17188-0.0625 0.0312-0.14063 0.0312-0.125 0-0.21875-0.0781-0.0781-0.0937-0.0781-0.20312 0-0.29688 0.625-0.75 0.89062-0.60938 2.0156-0.60938 1.1719 0 1.9062 0.70313 0.75 0.6875 0.75 1.6562 0 0.60938-0.35937 1.1719-0.35938 0.54687-1.0469 0.875zm6.5171 2.7812h2l-2.1719 4.0469q-0.20313 0.375-0.48438 0.375-0.17187 0-0.3125-0.14062-0.125-0.125-0.125-0.29688 0-0.0781 0.0312-0.17187zm19.534-7.0938v8.7031h2.1094q0.21875 0 0.3125 0.0781 0.0937 0.0781 0.0937 0.21875 0 0.14062-0.0937 0.23437-0.0937 0.0781-0.3125 0.0781h-4.8438q-0.21875 0-0.3125-0.0781-0.0937-0.0937-0.0937-0.23437 0-0.14063 0.0937-0.21875 0.0937-0.0781 0.3125-0.0781h2.1094v-7.8594l-2 0.625q-0.15625 0.0469-0.21875 0.0469-0.10937 0-0.20312-0.0781-0.0937-0.0937-0.0937-0.21875 0-0.10937 0.0781-0.21875 0.0625-0.0469 0.25-0.125zm9.0015 0v8.7031h2.1094q0.21875 0 0.3125 0.0781 0.0937 0.0781 0.0937 0.21875 0 0.14062-0.0937 0.23437-0.0937 0.0781-0.3125 0.0781h-4.8438q-0.21875 0-0.3125-0.0781-0.0937-0.0937-0.0937-0.23437 0-0.14063 0.0937-0.21875 0.0937-0.0781 0.3125-0.0781h2.1094v-7.8594l-2 0.625q-0.15625 0.0469-0.21875 0.0469-0.10938 0-0.20313-0.0781-0.0937-0.0937-0.0937-0.21875 0-0.10937 0.0781-0.21875 0.0625-0.0469 0.25-0.125zm20.456-0.32812-4.9531 10.609q-0.125 0.26562-0.3125 0.26562-0.125 0-0.21875-0.0937-0.0937-0.0781-0.0937-0.20312 0-0.0781 0.0781-0.23438l4.9375-10.609q0.0781-0.17187 0.14063-0.21875 0.0781-0.0469 0.1875-0.0469 0.125 0 0.21875 0.0937 0.0937 0.0937 0.0937 0.20312 0 0.0781-0.0781 0.23438zm9.0015 0-4.9531 10.609q-0.125 0.26562-0.3125 0.26562-0.125 0-0.21875-0.0937-0.0937-0.0781-0.0937-0.20312 0-0.0781 0.0781-0.23438l4.9375-10.609q0.0781-0.17187 0.14062-0.21875 0.0781-0.0469 0.1875-0.0469 0.125 0 0.21875 0.0937 0.0937 0.0937 0.0937 0.20312 0 0.0781-0.0781 0.23438zm15.55 1.6875v7.3437h1.5938q0.21875 0 0.3125 0.0781 0.0937 0.0781 0.0937 0.21875 0 0.14062-0.0937 0.23437-0.0937 0.0781-0.3125 0.0781h-3.8281q-0.21875 0-0.3125-0.0781-0.0937-0.0937-0.0937-0.23437 0-0.14063 0.0937-0.21875 0.0937-0.0781 0.3125-0.0781h1.6094v-7.3437h-2.5312v2.125q0 0.23438-0.0781 0.32813-0.0781 0.0937-0.21875 0.0937-0.14063 0-0.23438-0.0937-0.0781-0.0937-0.0781-0.32813v-2.7344h6.8906v2.7344q0 0.23438-0.0937 0.32813-0.0781 0.0937-0.21875 0.0937-0.125 0-0.21875-0.0937-0.0781-0.0937-0.0781-0.32813v-2.125zm6.6577-1.2344v3.7812q0.59375-0.64063 1.125-0.89063 0.54687-0.26562 1.2188-0.26562 0.70312 0 1.2031 0.25 0.51563 0.25 0.84375 0.78125 0.34375 0.51562 0.34375 1.0938v3.8281h0.6875q0.21875 0 0.3125 0.0781 0.0937 0.0781 0.0937 0.21875 0 0.14062-0.0937 0.23437-0.0937 0.0781-0.3125 0.0781h-2q-0.23437 0-0.32812-0.0781-0.0937-0.0937-0.0937-0.23437 0-0.14063 0.0937-0.21875 0.0937-0.0781 0.32812-0.0781h0.6875v-3.7812q0-0.65625-0.48437-1.1094-0.46875-0.45313-1.3281-0.45313-0.67187 0-1.1562 0.32813-0.34375 0.23437-1.1406 1.1094v3.9062h0.70312q0.21875 0 0.3125 0.0781 0.0937 0.0781 0.0937 0.21875 0 0.14062-0.0937 0.23437-0.0937 0.0781-0.3125 0.0781h-2q-0.23437 0-0.32812-0.0781-0.0937-0.0937-0.0937-0.23437 0-0.14063 0.0937-0.21875 0.0937-0.0781 0.32812-0.0781h0.6875v-7.9531h-0.82812q-0.21875 0-0.3125-0.0937-0.0937-0.0937-0.0937-0.23437 0-0.125 0.0937-0.20313 0.0937-0.0937 0.3125-0.0937zm14.361 6.1562h-6.2656q0.15625 1.2031 1 1.9375 0.84375 0.71875 2.0781 0.71875 0.6875 0 1.4375-0.21875 0.75-0.23438 1.2344-0.60938 0.14063-0.10937 0.23438-0.10937 0.125 0 0.20312 0.0937 0.0937 0.0937 0.0937 0.21875 0 0.125-0.10937 0.23437-0.35938 0.375-1.2656 0.6875-0.89062 0.3125-1.8281 0.3125-1.5938 0-2.6562-1.0312-1.0469-1.0312-1.0469-2.5 0-1.3438 0.98438-2.2969 1-0.96875 2.4688-0.96875 1.5 0 2.4688 0.98437 0.98437 0.98438 0.96875 2.5469zm-0.625-0.60938q-0.17188-1.0312-0.95313-1.6562-0.78125-0.64062-1.8594-0.64062-1.0781 0-1.8594 0.625-0.76562 0.625-0.96875 1.6719zm12.987-2.7031v1.125q0.54688-0.67188 1.1719-1 0.625-0.34375 1.4844-0.34375 0.90625 0 1.6719 0.42187 0.78125 0.42188 1.2031 1.1875 0.42188 0.75 0.42188 1.5938 0 1.3281-0.95313 2.2656-0.95312 0.9375-2.3281 0.9375-1.6562 0-2.6719-1.3438v3.7188h1.4844q0.21875 0 0.3125 0.0781 0.10937 0.0781 0.10937 0.21875 0 0.14063-0.10937 0.21875-0.0937 0.0937-0.3125 0.0937h-2.9375q-0.21875 0-0.3125-0.0937-0.0937-0.0781-0.0937-0.21875 0-0.14062 0.0937-0.21875 0.0937-0.0781 0.3125-0.0781h0.82812v-7.9375h-0.82809q-0.21875 0-0.3125-0.0781-0.0937-0.0937-0.0937-0.23437 0-0.14063 0.0937-0.21875 0.0937-0.0937 0.3125-0.0937zm5.3281 2.9844q0-1.0625-0.78125-1.8125-0.76563-0.76562-1.875-0.76562-1.125 0-1.9062 0.76562-0.76563 0.75-0.76563 1.8125t0.76563 1.8281q0.78125 0.75 1.9062 0.75 1.1094 0 1.875-0.75 0.78125-0.76563 0.78125-1.8281zm7.7515 3.3594v-0.89063q-1.3438 1.125-2.8594 1.125-1.1094 0-1.7344-0.54687-0.60937-0.5625-0.60937-1.375 0-0.89063 0.8125-1.5625 0.82812-0.67188 2.3906-0.67188 0.42188 0 0.92188 0.0625 0.5 0.0469 1.0781 0.17188v-1q0-0.5-0.46875-0.875t-1.4062-0.375q-0.71875 0-2.0156 0.42187-0.23438 0.0625-0.29688 0.0625-0.10937 0-0.20312-0.0781-0.0781-0.0937-0.0781-0.21875 0-0.125 0.0781-0.20313 0.0937-0.10937 0.82812-0.29687 1.1406-0.3125 1.7188-0.3125 1.1719 0 1.8125 0.57812 0.65625 0.57813 0.65625 1.2969v4.0781h0.82813q0.21875 0 0.3125 0.0781 0.0937 0.0781 0.0937 0.21875 0 0.14062-0.0937 0.23437-0.0937 0.0781-0.3125 0.0781zm0-3.0625q-0.42187-0.125-0.90625-0.17188-0.48437-0.0625-1.0156-0.0625-1.3438 0-2.1094 0.57813-0.5625 0.42187-0.5625 1.0312 0 0.54687 0.4375 0.9375 0.4375 0.375 1.2656 0.375 0.79687 0 1.4844-0.3125 0.6875-0.32813 1.4062-1.0156zm5.9702-3.2812h3.3438q0.21875 0 0.3125 0.0937 0.0937 0.0781 0.0937 0.21875 0 0.14062-0.0937 0.23437-0.0937 0.0781-0.3125 0.0781h-3.3438v4.0938q0 0.53125 0.42187 0.89062 0.4375 0.35938 1.2656 0.35938 0.625 0 1.3438-0.1875 0.73437-0.1875 1.125-0.42188 0.15625-0.0937 0.25-0.0937 0.10937 0 0.20312 0.0937 0.0937 0.0937 0.0937 0.21875 0 0.10938-0.0937 0.20313-0.23437 0.23437-1.1406 0.51562t-1.7344 0.28125q-1.0781 0-1.7188-0.5-0.64062-0.5-0.64062-1.3594v-4.0938h-1.125q-0.21875 0-0.32813-0.0781-0.0937-0.0937-0.0937-0.23437 0-0.14063 0.0937-0.21875 0.10938-0.0937 0.32813-0.0937h1.125v-1.8125q0-0.21875 0.0937-0.3125 0.0937-0.0937 0.21875-0.0937 0.14062 0 0.21875 0.0937 0.0937 0.0937 0.0937 0.3125zm12.83 0.625v-0.20313q0-0.23437 0.094-0.32812 0.094-0.0937 0.2187-0.0937 0.1406 0 0.2188 0.0937 0.094 0.0937 0.094 0.32812v1.3906q0 0.21875-0.094 0.32812-0.078 0.0937-0.2188 0.0937-0.125 0-0.2187-0.0781-0.078-0.0937-0.094-0.29688-0.031-0.51562-0.6719-0.98437-0.6406-0.46875-1.7343-0.46875-1.3751 0-2.0782 0.85937-0.70312 0.85938-0.70312 1.9531 0 1.2031 0.78125 1.9844 0.78125 0.76563 2.0313 0.76563 0.7031 0 1.4531-0.26563 0.75-0.26562 1.3438-0.84375 0.1562-0.15625 0.2656-0.15625 0.125 0 0.2031 0.0937 0.094 0.0781 0.094 0.20313 0 0.3125-0.7344 0.79687-1.2031 0.78125-2.6562 0.78125-1.4844 0-2.4532-0.9375-0.95312-0.95312-0.95312-2.4062 0-1.4844 0.96875-2.4688 0.98437-0.98437 2.4688-0.98437 1.4219 0 2.375 0.84375zm4.4077-3.4688v3.7812q0.5938-0.64063 1.125-0.89063 0.5469-0.26562 1.2188-0.26562 0.7031 0 1.2031 0.25 0.5156 0.25 0.8438 0.78125 0.3437 0.51562 0.3437 1.0938v3.8281h0.6875q0.2188 0 0.3125 0.0781 0.094 0.0781 0.094 0.21875 0 0.14062-0.094 0.23437-0.094 0.0781-0.3125 0.0781h-2q-0.2344 0-0.3281-0.0781-0.094-0.0937-0.094-0.23437 0-0.14063 0.094-0.21875 0.094-0.0781 0.3281-0.0781h0.6875v-3.7812q0-0.65625-0.4844-1.1094-0.4687-0.45313-1.3281-0.45313-0.6719 0-1.1562 0.32813-0.3438 0.23437-1.1407 1.1094v3.9062h0.7032q0.2187 0 0.3125 0.0781 0.094 0.0781 0.094 0.21875 0 0.14062-0.094 0.23437-0.094 0.0781-0.3125 0.0781h-2q-0.2344 0-0.3282-0.0781-0.094-0.0937-0.094-0.23437 0-0.14063 0.094-0.21875 0.094-0.0781 0.3282-0.0781h0.6875v-7.9531h-0.8282q-0.2187 0-0.3125-0.0937-0.094-0.0937-0.094-0.23437 0-0.125 0.094-0.20313 0.094-0.0937 0.3125-0.0937zm14.361 6.1562h-6.2657q0.1563 1.2031 1 1.9375 0.8438 0.71875 2.0782 0.71875 0.6875 0 1.4375-0.21875 0.75-0.23438 1.2343-0.60938 0.1407-0.10937 0.2344-0.10937 0.125 0 0.2031 0.0937 0.094 0.0937 0.094 0.21875 0 0.125-0.1094 0.23437-0.3594 0.375-1.2656 0.6875-0.8906 0.3125-1.8281 0.3125-1.5938 0-2.6563-1.0312-1.0469-1.0312-1.0469-2.5 0-1.3438 0.9844-2.2969 1-0.96875 2.4688-0.96875 1.5 0 2.4687 0.98437 0.9844 0.98438 0.9688 2.5469zm-0.625-0.60938q-0.1719-1.0312-0.9532-1.6562-0.7812-0.64062-1.8593-0.64062-1.0782 0-1.8594 0.625-0.7656 0.625-0.9688 1.6719zm9.314-5.5469v8.5781h0.8125q0.2344 0 0.3281 0.0781 0.094 0.0781 0.094 0.21875 0 0.14062-0.094 0.23437-0.094 0.0781-0.3281 0.0781h-1.4375v-1.2188q-1.0625 1.4531-2.7188 1.4531-0.8281 0-1.5937-0.4375t-1.2188-1.25q-0.4375-0.82812-0.4375-1.7031t0.4375-1.6875q0.4532-0.82813 1.2188-1.2656 0.7656-0.45312 1.6094-0.45312 1.6093 0 2.7031 1.4688v-3.4688h-0.8125q-0.2344 0-0.3281-0.0937-0.094-0.0937-0.094-0.23437 0-0.125 0.094-0.20313 0.094-0.0937 0.3281-0.0937zm-0.625 6.0312q0-1.1719-0.7969-1.9688-0.7812-0.8125-1.875-0.8125-1.0937 0-1.8906 0.8125-0.7969 0.79687-0.7969 1.9688 0 1.1562 0.7969 1.9688t1.8906 0.8125q1.0938 0 1.875-0.8125 0.7969-0.8125 0.7969-1.9688zm15.925-6.3438v1.5938h-0.9219v-1.5938zm0.016 3.1562v5.7344h2.4219q0.2188 0 0.3125 0.0781 0.094 0.0781 0.094 0.21875 0 0.14062-0.094 0.23437-0.094 0.0781-0.3125 0.0781h-5.4531q-0.2188 0-0.3125-0.0781-0.094-0.0937-0.094-0.23437 0-0.14063 0.094-0.21875 0.094-0.0781 0.3125-0.0781h2.4219v-5.1094h-1.7969q-0.2188 0-0.3281-0.0781-0.094-0.0937-0.094-0.23437 0-0.14063 0.094-0.21875 0.094-0.0937 0.3281-0.0937zm6.689 0v0.9375q0.6406-0.65625 1.1562-0.90625 0.5313-0.25 1.1719-0.25 0.7031 0 1.2813 0.29687 0.4218 0.21875 0.75 0.73438 0.3281 0.5 0.3281 1.0469v3.875h0.5312q0.2188 0 0.3125 0.0781 0.094 0.0781 0.094 0.21875 0 0.14062-0.094 0.23437-0.094 0.0781-0.3125 0.0781h-1.6562q-0.2188 0-0.3281-0.0781-0.094-0.0937-0.094-0.23437 0-0.14063 0.094-0.21875 0.1093-0.0781 0.3281-0.0781h0.5156v-3.7812q0-0.65625-0.4844-1.0938-0.4687-0.45312-1.2656-0.45312-0.6094 0-1.0625 0.25-0.4375 0.23437-1.2656 1.2188v3.8594h0.6875q0.2187 0 0.3125 0.0781 0.1094 0.0781 0.1094 0.21875 0 0.14062-0.1094 0.23437-0.094 0.0781-0.3125 0.0781h-2q-0.2188 0-0.3125-0.0781-0.094-0.0937-0.094-0.23437 0-0.14063 0.094-0.21875 0.094-0.0781 0.3125-0.0781h0.6875v-5.1094h-0.5156q-0.2188 0-0.3125-0.0781-0.094-0.0937-0.094-0.23437 0-0.14063 0.094-0.21875 0.094-0.0937 0.3125-0.0937zm13.017 0.40625q0-0.21875 0.078-0.3125 0.094-0.0937 0.2344-0.0937 0.1406 0 0.2187 0.0937 0.094 0.0937 0.094 0.32812v1.0469q0 0.21875-0.094 0.32812-0.078 0.0937-0.2187 0.0937-0.125 0-0.2188-0.0781-0.078-0.0937-0.094-0.28125-0.047-0.4375-0.4531-0.71875-0.5938-0.40625-1.5938-0.40625-1.0312 0-1.5937 0.42187-0.4375 0.3125-0.4375 0.70313 0 0.4375 0.5156 0.71875 0.3437 0.21875 1.3281 0.32812 1.2813 0.125 1.7813 0.3125 0.7187 0.25 1.0625 0.70313 0.3437 0.45312 0.3437 0.98437 0 0.78125-0.75 1.3906-0.75 0.60937-2.2187 0.60937-1.4532 0-2.3907-0.73437 0 0.25-0.031 0.32812-0.016 0.0625-0.094 0.125-0.078 0.0469-0.1718 0.0469-0.1407 0-0.2344-0.0937-0.078-0.0937-0.078-0.3125v-1.2656q0-0.21875 0.078-0.3125 0.094-0.10937 0.2344-0.10937 0.125 0 0.2187 0.0937 0.094 0.0937 0.094 0.25 0 0.34375 0.1718 0.5625 0.25 0.35937 0.8125 0.59375 0.5625 0.21875 1.375 0.21875 1.2032 0 1.7813-0.4375 0.5937-0.45313 0.5937-0.95313 0-0.57812-0.5937-0.92187-0.6094-0.34375-1.75-0.45313-1.1406-0.125-1.6406-0.3125t-0.7813-0.5625q-0.2812-0.39062-0.2812-0.82812 0-0.78125 0.7812-1.25 0.7813-0.46875 1.8438-0.46875 1.2812 0 2.0781 0.625zm5.7046-0.40625h3.3437q0.2188 0 0.3125 0.0937 0.094 0.0781 0.094 0.21875 0 0.14062-0.094 0.23437-0.094 0.0781-0.3125 0.0781h-3.3437v4.0938q0 0.53125 0.4218 0.89062 0.4375 0.35938 1.2657 0.35938 0.625 0 1.3437-0.1875 0.7344-0.1875 1.125-0.42188 0.1563-0.0937 0.25-0.0937 0.1094 0 0.2031 0.0937 0.094 0.0937 0.094 0.21875 0 0.10938-0.094 0.20313-0.2343 0.23437-1.1406 0.51562-0.9062 0.28125-1.7344 0.28125-1.0781 0-1.7187-0.5t-0.6406-1.3594v-4.0938h-1.125q-0.2188 0-0.3282-0.0781-0.094-0.0937-0.094-0.23437 0-0.14063 0.094-0.21875 0.1094-0.0937 0.3282-0.0937h1.125v-1.8125q0-0.21875 0.094-0.3125 0.094-0.0937 0.2188-0.0937 0.1406 0 0.2187 0.0937 0.094 0.0937 0.094 0.3125zm9.5327 0v1.5469q1.2031-1.0781 1.7969-1.3906 0.5937-0.3125 1.1093-0.3125 0.5469 0 1.0157 0.375 0.4687 0.375 0.4687 0.5625 0 0.14062-0.094 0.23437-0.094 0.0781-0.2188 0.0781-0.078 0-0.1406-0.0156-0.047-0.0312-0.1875-0.17187-0.25-0.25-0.4375-0.34375-0.1875-0.0937-0.375-0.0937-0.4063 0-0.9844 0.32812-0.5625 0.3125-1.9531 1.5625v3.375h2.7187q0.2344 0 0.3282 0.0781 0.094 0.0781 0.094 0.21875 0 0.14062-0.094 0.23437-0.094 0.0781-0.3282 0.0781h-4.8281q-0.2187 0-0.3125-0.0781-0.094-0.0937-0.094-0.21875 0-0.125 0.094-0.20312 0.094-0.0937 0.3125-0.0937h1.5v-5.125h-1.1406q-0.2188 0-0.3125-0.0781-0.094-0.0937-0.094-0.23437 0-0.14063 0.078-0.21875 0.094-0.0937 0.3281-0.0937zm11.845 6.3438v-0.90625q-1.2656 1.1406-2.7344 1.1406-0.8906 0-1.3593-0.48437-0.6094-0.64063-0.6094-1.5v-3.9688h-0.8281q-0.2188 0-0.3125-0.0781-0.094-0.0937-0.094-0.23437 0-0.14063 0.094-0.21875 0.094-0.0937 0.3125-0.0937h1.4375v4.5938q0 0.59375 0.375 0.98437 0.3906 0.39063 0.9687 0.39063 1.5 0 2.75-1.375v-3.9688h-1.1406q-0.2188 0-0.3125-0.0781-0.094-0.0937-0.094-0.23437 0-0.14063 0.094-0.21875 0.094-0.0937 0.3125-0.0937h1.75v5.7344h0.5156q0.2344 0 0.3281 0.0781 0.094 0.0781 0.094 0.21875 0 0.14062-0.094 0.23437-0.094 0.0781-0.3281 0.0781zm9.4546-5.7188v-0.20313q0-0.23437 0.094-0.32812 0.094-0.0937 0.2188-0.0937 0.1406 0 0.2187 0.0937 0.094 0.0937 0.094 0.32812v1.3906q0 0.21875-0.094 0.32812-0.078 0.0937-0.2187 0.0937-0.125 0-0.2188-0.0781-0.078-0.0937-0.094-0.29688-0.031-0.51562-0.6719-0.98437-0.6406-0.46875-1.7344-0.46875-1.375 0-2.0781 0.85937-0.7031 0.85938-0.7031 1.9531 0 1.2031 0.7812 1.9844 0.7813 0.76563 2.0313 0.76563 0.7031 0 1.4531-0.26563 0.75-0.26562 1.3438-0.84375 0.1562-0.15625 0.2656-0.15625 0.125 0 0.2031 0.0937 0.094 0.0781 0.094 0.20313 0 0.3125-0.7344 0.79687-1.2031 0.78125-2.6563 0.78125-1.4843 0-2.4531-0.9375-0.9531-0.95312-0.9531-2.4062 0-1.4844 0.9687-2.4688 0.9844-0.98437 2.4688-0.98437 1.4219 0 2.375 0.84375zm5.1733-0.625h3.3438q0.2187 0 0.3125 0.0937 0.094 0.0781 0.094 0.21875 0 0.14062-0.094 0.23437-0.094 0.0781-0.3125 0.0781h-3.3438v4.0938q0 0.53125 0.4219 0.89062 0.4375 0.35938 1.2656 0.35938 0.625 0 1.3438-0.1875 0.7344-0.1875 1.125-0.42188 0.1562-0.0937 0.25-0.0937 0.1094 0 0.2031 0.0937 0.094 0.0937 0.094 0.21875 0 0.10938-0.094 0.20313-0.2344 0.23437-1.1406 0.51562-0.9063 0.28125-1.7344 0.28125-1.0781 0-1.7187-0.5-0.6407-0.5-0.6407-1.3594v-4.0938h-1.125q-0.2187 0-0.3281-0.0781-0.094-0.0937-0.094-0.23437 0-0.14063 0.094-0.21875 0.1094-0.0937 0.3281-0.0937h1.125v-1.8125q0-0.21875 0.094-0.3125 0.094-0.0937 0.2187-0.0937 0.1407 0 0.2188 0.0937 0.094 0.0937 0.094 0.3125zm10.58-3.1562v1.5938h-0.9219v-1.5938zm0.016 3.1562v5.7344h2.4219q0.2188 0 0.3125 0.0781 0.094 0.0781 0.094 0.21875 0 0.14062-0.094 0.23437-0.094 0.0781-0.3125 0.0781h-5.4531q-0.2188 0-0.3125-0.0781-0.094-0.0937-0.094-0.23437 0-0.14063 0.094-0.21875 0.094-0.0781 0.3125-0.0781h2.4219v-5.1094h-1.7969q-0.2188 0-0.3281-0.0781-0.094-0.0937-0.094-0.23437 0-0.14063 0.094-0.21875 0.094-0.0937 0.3281-0.0937zm12.111 3.1875q0 1.4062-1.0156 2.4062-1 0.98437-2.4219 0.98437-1.4375 0-2.4375-1t-1-2.3906q0-1.4062 1-2.4062t2.4375-1q1.4219 0 2.4219 1 1.0156 0.98437 1.0156 2.4062zm-0.625 0q0-1.1562-0.8281-1.9688-0.8125-0.8125-1.9844-0.8125t-2 0.8125-0.8281 1.9688q0 1.1406 0.8281 1.9688 0.8281 0.8125 2 0.8125t1.9844-0.8125q0.8281-0.8125 0.8281-1.9688zm4.2046-3.1875v0.9375q0.6406-0.65625 1.1562-0.90625 0.5313-0.25 1.1719-0.25 0.7031 0 1.2813 0.29687 0.4218 0.21875 0.75 0.73438 0.3281 0.5 0.3281 1.0469v3.875h0.5312q0.2188 0 0.3125 0.0781 0.094 0.0781 0.094 0.21875 0 0.14062-0.094 0.23437-0.094 0.0781-0.3125 0.0781h-1.6562q-0.2188 0-0.3281-0.0781-0.094-0.0937-0.094-0.23437 0-0.14063 0.094-0.21875 0.1093-0.0781 0.3281-0.0781h0.5156v-3.7812q0-0.65625-0.4844-1.0938-0.4687-0.45312-1.2656-0.45312-0.6094 0-1.0625 0.25-0.4375 0.23437-1.2656 1.2188v3.8594h0.6875q0.2187 0 0.3125 0.0781 0.1094 0.0781 0.1094 0.21875 0 0.14062-0.1094 0.23437-0.094 0.0781-0.3125 0.0781h-2q-0.2188 0-0.3125-0.0781-0.094-0.0937-0.094-0.23437 0-0.14063 0.094-0.21875 0.094-0.0781 0.3125-0.0781h0.6875v-5.1094h-0.5156q-0.2188 0-0.3125-0.0781-0.094-0.0937-0.094-0.23437 0-0.14063 0.094-0.21875 0.094-0.0937 0.3125-0.0937z" clip-path="url(#clipPath940-2)" fill="#f00"/>
 <g fill-rule="evenodd">
  <path transform="translate(-85.585 -100.5)" d="m345.25 131.11h308.09" clip-path="url(#clipPath934-8)" fill="#000" fill-opacity="0"/>
  <path transform="translate(-85.585 -100.5)" d="m345.25 131.11h302.09" clip-path="url(#clipPath928-2)" stroke="#f00" stroke-linecap="butt" stroke-linejoin="round"/>
  <path transform="translate(-85.585 -100.5)" d="m647.34 132.76 4.5382-1.6517-4.5382-1.6517z" clip-path="url(#clipPath922-3)" fill="#f00" stroke="#f00" stroke-linecap="butt"/>
 </g>
 <g fill="#000">
  <path transform="translate(-85.585 -100.5)" d="m86.152 168.54h41.827v28.567h-41.827z" clip-path="url(#clipPath910-8)" fill-opacity="0" fill-rule="evenodd"/>
  <path transform="translate(-85.585 -100.5)" d="m395.34 100.5h191.81v42.016h-191.81z" clip-path="url(#clipPath904-3)" fill-opacity="0" fill-rule="evenodd"/>
  <path transform="translate(-85.585 -100.5)" d="m405.84 127.42v-13.359h1.7656v5.4844h6.9375v-5.4844h1.7656v13.359h-1.7656v-6.2969h-6.9375v6.2969zm19.52-1.1875q-0.92188 0.76562-1.7656 1.0938-0.82812 0.3125-1.7969 0.3125-1.5938 0-2.4531-0.78125-0.85937-0.78125-0.85937-1.9844 0-0.71875 0.32812-1.2969 0.32813-0.59375 0.84375-0.9375 0.53125-0.35938 1.1875-0.54688 0.46875-0.125 1.4531-0.25 1.9844-0.23437 2.9219-0.5625 0.0156-0.34375 0.0156-0.42187 0-1-0.46875-1.4219-0.625-0.54687-1.875-0.54687-1.1562 0-1.7031 0.40625-0.54687 0.40625-0.8125 1.4219l-1.6094-0.21875q0.21875-1.0156 0.71875-1.6406 0.5-0.64063 1.4531-0.98438 0.95313-0.34375 2.1875-0.34375 1.25 0 2.0156 0.29688 0.78125 0.28125 1.1406 0.73437 0.375 0.4375 0.51563 1.1094 0.0781 0.42187 0.0781 1.5156v2.1875q0 2.2812 0.10938 2.8906 0.10937 0.59375 0.40625 1.1562h-1.7031q-0.26562-0.51563-0.32812-1.1875zm-0.14063-3.6719q-0.89062 0.375-2.6719 0.625-1.0156 0.14063-1.4375 0.32813-0.42188 0.1875-0.65625 0.53125-0.21875 0.34375-0.21875 0.78125 0 0.65625 0.5 1.0938t1.4531 0.4375q0.9375 0 1.6719-0.40625 0.75-0.42188 1.0938-1.1406 0.26562-0.5625 0.26562-1.6406zm4.1882 4.8594v-9.6719h1.4688v1.4688q0.5625-1.0312 1.0312-1.3594 0.48438-0.32813 1.0625-0.32813 0.82813 0 1.6875 0.53125l-0.5625 1.5156q-0.60937-0.35938-1.2031-0.35938-0.54688 0-0.96875 0.32813-0.42188 0.32812-0.60938 0.89062-0.28125 0.875-0.28125 1.9219v5.0625zm12.494 0v-1.2188q-0.90625 1.4375-2.7031 1.4375-1.1562 0-2.125-0.64063-0.96875-0.64062-1.5-1.7812-0.53125-1.1406-0.53125-2.625 0-1.4531 0.48437-2.625 0.48438-1.1875 1.4375-1.8125 0.96875-0.625 2.1719-0.625 0.875 0 1.5469 0.375 0.6875 0.35938 1.1094 0.95313v-4.7969h1.6406v13.359zm-5.1719-4.8281q0 1.8594 0.78125 2.7812 0.78125 0.92188 1.8438 0.92188 1.0781 0 1.8281-0.875 0.75-0.89063 0.75-2.6875 0-1.9844-0.76562-2.9062-0.76563-0.9375-1.8906-0.9375-1.0781 0-1.8125 0.89062-0.73437 0.89063-0.73437 2.8125zm11.063 4.8281-2.9688-9.6719h1.7031l1.5312 5.5781 0.57813 2.0781q0.0469-0.15625 0.5-2l1.5469-5.6562h1.6875l1.4375 5.6094 0.48438 1.8438 0.5625-1.8594 1.6562-5.5938h1.5938l-3.0312 9.6719h-1.7031l-1.5312-5.7969-0.375-1.6406-1.9531 7.4375zm18.004-1.1875q-0.92188 0.76562-1.7656 1.0938-0.82812 0.3125-1.7969 0.3125-1.5938 0-2.4531-0.78125-0.85937-0.78125-0.85937-1.9844 0-0.71875 0.32812-1.2969 0.32813-0.59375 0.84375-0.9375 0.53125-0.35938 1.1875-0.54688 0.46875-0.125 1.4531-0.25 1.9844-0.23437 2.9219-0.5625 0.0156-0.34375 0.0156-0.42187 0-1-0.46875-1.4219-0.625-0.54687-1.875-0.54687-1.1562 0-1.7031 0.40625-0.54687 0.40625-0.8125 1.4219l-1.6094-0.21875q0.21875-1.0156 0.71875-1.6406 0.5-0.64063 1.4531-0.98438 0.95313-0.34375 2.1875-0.34375 1.25 0 2.0156 0.29688 0.78125 0.28125 1.1406 0.73437 0.375 0.4375 0.51563 1.1094 0.0781 0.42187 0.0781 1.5156v2.1875q0 2.2812 0.10938 2.8906 0.10937 0.59375 0.40625 1.1562h-1.7031q-0.26562-0.51563-0.32812-1.1875zm-0.14063-3.6719q-0.89062 0.375-2.6719 0.625-1.0156 0.14063-1.4375 0.32813-0.42188 0.1875-0.65625 0.53125-0.21875 0.34375-0.21875 0.78125 0 0.65625 0.5 1.0938t1.4531 0.4375q0.9375 0 1.6719-0.40625 0.75-0.42188 1.0938-1.1406 0.26562-0.5625 0.26562-1.6406zm4.1882 4.8594v-9.6719h1.4688v1.4688q0.5625-1.0312 1.0312-1.3594 0.48437-0.32813 1.0625-0.32813 0.82812 0 1.6875 0.53125l-0.5625 1.5156q-0.60938-0.35938-1.2031-0.35938-0.54687 0-0.96875 0.32813-0.42187 0.32812-0.60937 0.89062-0.28125 0.875-0.28125 1.9219v5.0625zm12.853-3.1094 1.6875 0.20313q-0.40625 1.4844-1.4844 2.3125-1.0781 0.8125-2.7656 0.8125-2.125 0-3.375-1.2969-1.2344-1.3125-1.2344-3.6719 0-2.4531 1.25-3.7969 1.2656-1.3438 3.2656-1.3438 1.9375 0 3.1562 1.3281 1.2344 1.3125 1.2344 3.7031 0 0.15625 0 0.4375h-7.2188q0.0937 1.5938 0.90625 2.4531 0.8125 0.84375 2.0156 0.84375 0.90625 0 1.5469-0.46875 0.64063-0.48438 1.0156-1.5156zm-5.3906-2.6562h5.4062q-0.10937-1.2188-0.625-1.8281-0.78125-0.95313-2.0312-0.95313-1.125 0-1.9062 0.76563-0.76562 0.75-0.84375 2.0156zm14.309 5.7656v-9.6719h1.4688v1.4688q0.5625-1.0312 1.0312-1.3594 0.48438-0.32813 1.0625-0.32813 0.82813 0 1.6875 0.53125l-0.5625 1.5156q-0.60937-0.35938-1.2031-0.35938-0.54688 0-0.96875 0.32813-0.42188 0.32812-0.60938 0.89062-0.28125 0.875-0.28125 1.9219v5.0625zm12.853-3.1094 1.6875 0.20313q-0.40625 1.4844-1.4844 2.3125-1.0781 0.8125-2.7656 0.8125-2.125 0-3.375-1.2969-1.2344-1.3125-1.2344-3.6719 0-2.4531 1.25-3.7969 1.2656-1.3438 3.2656-1.3438 1.9375 0 3.1562 1.3281 1.2344 1.3125 1.2344 3.7031 0 0.15625 0 0.4375h-7.2188q0.0937 1.5938 0.90625 2.4531 0.8125 0.84375 2.0156 0.84375 0.90625 0 1.5469-0.46875 0.64063-0.48438 1.0156-1.5156zm-5.3906-2.6562h5.4062q-0.10937-1.2188-0.625-1.8281-0.78125-0.95313-2.0312-0.95313-1.125 0-1.9062 0.76563-0.76562 0.75-0.84375 2.0156zm15.407 5.7656v-1.2188q-0.90625 1.4375-2.7031 1.4375-1.1562 0-2.125-0.64063-0.96875-0.64062-1.5-1.7812-0.53125-1.1406-0.53125-2.625 0-1.4531 0.48437-2.625 0.48438-1.1875 1.4375-1.8125 0.96875-0.625 2.1719-0.625 0.87497 0 1.5468 0.375 0.6875 0.35938 1.1094 0.95313v-4.7969h1.6406v13.359zm-5.1718-4.8281q0 1.8594 0.78125 2.7812 0.78125 0.92188 1.8438 0.92188 1.0781 0 1.8281-0.875 0.75-0.89063 0.75-2.6875 0-1.9844-0.76562-2.9062-0.76563-0.9375-1.8906-0.9375-1.0781 0-1.8125 0.89062-0.73437 0.89063-0.73437 2.8125zm9.282-6.6406v-1.8906h1.6406v1.8906zm0 11.469v-9.6719h1.6406v9.6719zm4.1292 0v-9.6719h1.4688v1.4688q0.5625-1.0312 1.0312-1.3594 0.48438-0.32813 1.0625-0.32813 0.82813 0 1.6875 0.53125l-0.5625 1.5156q-0.60937-0.35938-1.2031-0.35938-0.54688 0-0.96875 0.32813-0.42188 0.32812-0.60938 0.89062-0.28125 0.875-0.28125 1.9219v5.0625zm12.853-3.1094 1.6875 0.20313q-0.40625 1.4844-1.4844 2.3125-1.0781 0.8125-2.7656 0.8125-2.125 0-3.375-1.2969-1.2344-1.3125-1.2344-3.6719 0-2.4531 1.25-3.7969 1.2656-1.3438 3.2656-1.3438 1.9375 0 3.1562 1.3281 1.2344 1.3125 1.2344 3.7031 0 0.15625 0 0.4375h-7.2188q0.0937 1.5938 0.90625 2.4531 0.8125 0.84375 2.0156 0.84375 0.90625 0 1.5469-0.46875 0.64062-0.48438 1.0156-1.5156zm-5.3906-2.6562h5.4062q-0.10938-1.2188-0.625-1.8281-0.78125-0.95313-2.0312-0.95313-1.125 0-1.9062 0.76563-0.76563 0.75-0.84375 2.0156zm15.454 2.2188 1.6094 0.21875q-0.26563 1.6562-1.3594 2.6094-1.0781 0.9375-2.6719 0.9375-1.9844 0-3.1875-1.2969-1.2031-1.2969-1.2031-3.7188 0-1.5781 0.51563-2.75 0.51562-1.1719 1.5781-1.75 1.0625-0.59375 2.3125-0.59375 1.5781 0 2.5781 0.79688 1 0.79687 1.2812 2.2656l-1.5938 0.23438q-0.23438-0.96875-0.8125-1.4531-0.57813-0.5-1.3906-0.5-1.2344 0-2.0156 0.89063-0.78125 0.89062-0.78125 2.8125 0 1.9531 0.75 2.8438 0.75 0.875 1.9531 0.875 0.96875 0 1.6094-0.59375 0.65625-0.59375 0.82812-1.8281zm6.5938 2.0781 0.23438 1.4531q-0.6875 0.14063-1.2344 0.14063-0.89062 0-1.3906-0.28125-0.48438-0.28125-0.6875-0.73438-0.20313-0.46875-0.20313-1.9375v-5.5781h-1.2031v-1.2656h1.2031v-2.3906l1.625-0.98438v3.375h1.6562v1.2656h-1.6562v5.6719q0 0.6875 0.0781 0.89063 0.0937 0.20312 0.28125 0.32812 0.20312 0.10938 0.57812 0.10938 0.26563 0 0.71875-0.0625zm0.94892-1.4219 1.625-0.25q0.125 0.96875 0.75 1.5 0.625 0.51563 1.75 0.51563t1.6719-0.45313q0.54688-0.46875 0.54688-1.0938 0-0.54687-0.48438-0.875-0.32812-0.21875-1.6719-0.54687-1.8125-0.46875-2.5156-0.79688-0.6875-0.32812-1.0469-0.90625-0.35938-0.59375-0.35938-1.3125 0-0.64062 0.29688-1.1875 0.29687-0.5625 0.8125-0.92187 0.375-0.28125 1.0312-0.46875 0.67187-0.20313 1.4219-0.20313 1.1406 0 2 0.32813 0.85938 0.32812 1.2656 0.89062 0.42187 0.5625 0.57812 1.5l-1.6094 0.21875q-0.10938-0.75-0.64063-1.1719-0.51562-0.42188-1.4688-0.42188-1.1406 0-1.625 0.375-0.46875 0.375-0.46875 0.875 0 0.3125 0.1875 0.57813 0.20313 0.26562 0.64063 0.4375 0.23437 0.0937 1.4375 0.42187 1.75 0.45313 2.4375 0.75 0.6875 0.29688 1.0781 0.85938 0.39063 0.5625 0.39063 1.4062 0 0.82812-0.48438 1.5469-0.46875 0.71875-1.375 1.125-0.90625 0.39063-2.0469 0.39063-1.875 0-2.875-0.78125-0.98438-0.78125-1.25-2.3281z" clip-path="url(#clipPath898-2)"/>
 </g>
</svg>
