<svg version="1.1" viewBox="0.0 0.0 928.2257217847769 191.00524934383202" fill="none" stroke="none" stroke-linecap="square" stroke-miterlimit="10" xmlns:xlink="http://www.w3.org/1999/xlink" xmlns="http://www.w3.org/2000/svg"><clipPath id="p.0"><path d="m0 0l928.2257 0l0 191.00525l-928.2257 0l0 -191.00525z" clip-rule="nonzero"/></clipPath><g clip-path="url(#p.0)"><path fill="#000000" fill-opacity="0.0" d="m0 0l928.2257 0l0 191.00525l-928.2257 0z" fill-rule="evenodd"/><path fill="#000000" fill-opacity="0.0" d="m274.28348 16.215223l109.13385 0l0 56.69291l-109.13385 0z" fill-rule="evenodd"/><path stroke="#000000" stroke-width="3.0" stroke-linejoin="round" stroke-linecap="butt" d="m274.28348 16.215223l109.13385 0l0 56.69291l-109.13385 0z" fill-rule="evenodd"/><path fill="#ffffff" d="m319.24884 25.56168l19.203125 0l0 38.399998l-19.203125 0l0 -38.399998z" fill-rule="nonzero"/><path fill="#000000" fill-opacity="0.0" d="m319.24884 29.641054l19.203125 0l0 36.25l-19.203125 0l0 -36.25z" fill-rule="nonzero"/><path fill="#202122" d="m323.73322 50.031677q0 -2.828125 1.109375 -6.0q1.109375 -3.171875 3.296875 -5.265625q2.203125 -2.09375 4.8125 -2.09375q2.3125 0 3.75 1.78125q1.4375 1.78125 1.4375 4.875q0 5.15625 -2.71875 9.3125q-2.703125 4.15625 -6.5 4.15625q-2.265625 0 -3.734375 -1.75q-1.453125 -1.75 -1.453125 -5.015625zm2.015625 -4.578125l10.9375 0q0.140625 -1.5 0.140625 -2.1875q0 -2.328125 -1.03125 -3.796875q-1.03125 -1.46875 -2.9375 -1.46875q-2.546875 0 -4.53125 2.390625q-1.96875 2.390625 -2.578125 5.0625zm-0.375 1.3125q-0.328125 2.171875 -0.328125 3.453125q0 2.203125 0.984375 3.734375q0.984375 1.53125 2.921875 1.53125q2.3125 0 4.40625 -2.28125q2.109375 -2.28125 3.078125 -6.4375l-11.0625 0z" fill-rule="nonzero"/><path fill="#000000" fill-opacity="0.0" d="m423.11548 16.215223l109.13385 0l0 56.69291l-109.13385 0z" fill-rule="evenodd"/><path stroke="#000000" stroke-width="3.0" stroke-linejoin="round" stroke-linecap="butt" d="m423.11548 16.215223l109.13385 0l0 56.69291l-109.13385 0z" fill-rule="evenodd"/><path fill="#ffffff" d="m468.08084 25.56168l19.203125 0l0 38.399998l-19.203125 0l0 -38.399998z" fill-rule="nonzero"/><path fill="#000000" fill-opacity="0.0" d="m468.08084 29.641054l19.203125 0l0 36.25l-19.203125 0l0 -36.25z" fill-rule="nonzero"/><path fill="#202122" d="m473.08084 53.484802l-1.703125 7.875q-0.203125 0.953125 -0.75 0.953125q-0.65625 0 -0.65625 -0.625q0 -0.1875 0.09375 -0.625l2.3125 -10.5625q0.546875 -2.515625 1.359375 -4.09375q0.828125 -1.59375 2.96875 -2.859375q2.140625 -1.265625 4.5625 -1.265625q2.421875 0 4.015625 1.59375q1.59375 1.59375 1.59375 4.109375q0 3.65625 -2.625 6.234375q-2.625 2.578125 -5.84375 2.578125q-3.4375 0 -5.328125 -3.3125zm8.078125 -9.875q-2.96875 0 -5.15625 2.125q-2.1875 2.125 -2.1875 5.0625q0 2.078125 1.40625 3.390625q1.421875 1.296875 3.15625 1.296875q2.765625 0 4.96875 -2.265625q2.21875 -2.265625 2.21875 -5.203125q0 -2.078125 -1.265625 -3.234375q-1.25 -1.171875 -3.140625 -1.171875z" fill-rule="nonzero"/><path fill="#000000" fill-opacity="0.0" d="m734.55646 3.0866141l0 185.51181" fill-rule="evenodd"/><path stroke="#000000" stroke-width="8.0" stroke-linejoin="round" stroke-linecap="butt" d="m734.55646 3.0866141l0 185.51181" fill-rule="evenodd"/><path fill="#000000" fill-opacity="0.0" d="m532.2493 44.56168l39.68506 0" fill-rule="evenodd"/><path stroke="#000000" stroke-width="3.0" stroke-linejoin="round" stroke-linecap="butt" d="m532.2493 44.56168l39.68506 0" fill-rule="evenodd"/><path fill="#000000" fill-opacity="0.0" d="m383.41733 44.56168l39.685028 0" fill-rule="evenodd"/><path stroke="#000000" stroke-width="3.0" stroke-linejoin="round" stroke-linecap="butt" d="m383.41733 44.56168l39.685028 0" fill-rule="evenodd"/><path fill="#000000" fill-opacity="0.0" d="m571.94617 16.215223l109.13391 0l0 56.69291l-109.13391 0z" fill-rule="evenodd"/><path stroke="#000000" stroke-width="3.0" stroke-linejoin="round" stroke-linecap="butt" d="m571.94617 16.215223l109.13391 0l0 56.69291l-109.13391 0z" fill-rule="evenodd"/><path fill="#ffffff" d="m618.4975 25.56168l16.03125 0l0 38.399998l-16.03125 0l0 -38.399998z" fill-rule="nonzero"/><path fill="#000000" fill-opacity="0.0" d="m618.4975 27.766054l16.03125 0l0 36.796875l-16.03125 0l0 -36.796875z" fill-rule="nonzero"/><path fill="#202122" d="m635.52875 42.516052l-0.640625 2.203125l-3.734375 0l-1.828125 6.203125q-0.5 1.71875 -0.5 2.546875q0 0.609375 0.375 1.015625q0.390625 0.390625 1.015625 0.390625q1.328125 0 2.125 -2.0625l0.609375 0q-1.046875 3.84375 -3.765625 3.84375q-1.140625 0 -1.84375 -0.671875q-0.6875 -0.671875 -0.6875 -1.90625q0 -0.96875 0.453125 -2.703125l0.390625 -1.484375q0.046875 -0.21875 0.140625 -0.53125l1.46875 -4.640625l-3.171875 0l-1.65625 5.703125q-1.140625 3.921875 -1.8125 5.078125q-0.65625 1.15625 -1.734375 1.15625q-0.546875 0 -1.0 -0.34375q-0.453125 -0.328125 -0.453125 -0.890625q0 -0.75 1.140625 -2.078125q2.828125 -3.3125 4.203125 -8.625l-1.140625 0q-2.6875 0 -3.46875 1.65625l-0.59375 0q1.421875 -3.859375 5.0 -3.859375l11.109375 0z" fill-rule="nonzero"/><path fill="#000000" fill-opacity="0.0" d="m274.28522 109.2336l257.95276 0l0 56.692917l-257.95276 0z" fill-rule="evenodd"/><path stroke="#000000" stroke-width="3.0" stroke-linejoin="round" stroke-linecap="butt" d="m274.28522 109.2336l257.95276 0l0 56.692917l-257.95276 0z" fill-rule="evenodd"/><path fill="#ffffff" d="m393.66003 118.580055l19.203125 0l0 38.4l-19.203125 0l0 -38.4z" fill-rule="nonzero"/><path fill="#000000" fill-opacity="0.0" d="m393.66003 122.659424l19.203125 0l0 36.25l-19.203125 0l0 -36.25z" fill-rule="nonzero"/><path fill="#202122" d="m404.7694 143.40942l5.53125 -7.640625q0.328125 -0.46875 0.75 -0.46875q0.546875 0 0.546875 0.578125q0 0.328125 -0.390625 0.875l-5.921875 8.171875l3.015625 9.09375l1.578125 0q0.75 0 0.75 0.53125q0 0.78125 -1.03125 0.78125l-2.234375 0l-3.046875 -9.09375l-6.34375 8.625q-0.34375 0.46875 -0.734375 0.46875q-0.5625 0 -0.5625 -0.640625q0 -0.28125 0.390625 -0.796875l6.765625 -9.171875l-2.546875 -7.625l-1.421875 0q-0.75 0 -0.75 -0.53125q0 -0.796875 1.03125 -0.796875l2.078125 0l2.546875 7.640625z" fill-rule="nonzero"/><path fill="#000000" fill-opacity="0.0" d="m571.93304 109.2336l109.13391 0l0 56.692917l-109.13391 0z" fill-rule="evenodd"/><path stroke="#000000" stroke-width="3.0" stroke-linejoin="round" stroke-linecap="butt" d="m571.93304 109.2336l109.13391 0l0 56.692917l-109.13391 0z" fill-rule="evenodd"/><path fill="#ffffff" d="m614.9536 118.580055l23.092773 0l0 38.4l-23.092773 0l0 -38.4z" fill-rule="nonzero"/><path fill="#000000" fill-opacity="0.0" d="m614.9536 136.62622l3.8896484 0l0 16.098633l-3.8896484 0l0 -16.098633z" fill-rule="nonzero"/><path fill="#010000" fill-opacity="0.0" d="m618.84326 122.659424l19.203125 0l0 36.25l-19.203125 0l0 -36.25z" fill-rule="nonzero"/><path fill="#202122" d="m630.8589 136.5813l-2.046875 9.921875q-0.171875 0.796875 -0.171875 1.15625q0 0.84375 1.015625 0.84375q0.796875 0 1.875 -0.46875q0.3125 -0.140625 0.5 -0.140625q0.546875 0 0.546875 0.609375q0 0.578125 -1.0 0.9375q-0.984375 0.375 -1.921875 0.375q-1.140625 0 -1.75 -0.578125q-0.59375 -0.59375 -0.59375 -1.46875q0 -0.625 0.140625 -1.28125l2.125 -10.21875q0.125 -0.609375 0.265625 -0.78125q0.15625 -0.1875 0.46875 -0.1875q0.65625 0 0.65625 0.640625q0 0.109375 -0.109375 0.640625z" fill-rule="nonzero"/><path fill="#000000" fill-opacity="0.0" d="m532.24805 137.58005l39.684998 0" fill-rule="evenodd"/><path stroke="#000000" stroke-width="3.0" stroke-linejoin="round" stroke-linecap="butt" d="m532.24805 137.58005l39.684998 0" fill-rule="evenodd"/><path fill="#000000" fill-opacity="0.0" d="m681.06696 137.58005l51.968506 0" fill-rule="evenodd"/><path stroke="#000000" stroke-width="3.0" stroke-linejoin="round" stroke-linecap="butt" d="m681.06696 137.58005l41.687256 0" fill-rule="evenodd"/><path fill="#000000" stroke="#000000" stroke-width="3.0" stroke-linecap="butt" d="m722.75415 137.58005l-3.3737183 3.3737488l9.269287 -3.3737488l-9.269287 -3.3737488z" fill-rule="evenodd"/><path fill="#000000" fill-opacity="0.0" d="m178.60104 3.0866141l0 181.41733" fill-rule="evenodd"/><path stroke="#000000" stroke-width="8.0" stroke-linejoin="round" stroke-linecap="butt" d="m178.60104 3.0866141l0 181.41733" fill-rule="evenodd"/><path fill="#000000" fill-opacity="0.0" d="m180.37007 44.56168l93.92128 0" fill-rule="evenodd"/><path stroke="#000000" stroke-width="3.0" stroke-linejoin="round" stroke-linecap="butt" d="m180.37007 44.56168l93.92128 0" fill-rule="evenodd"/><path fill="#000000" fill-opacity="0.0" d="m179.479 150.73491l69.03937 0" fill-rule="evenodd"/><path stroke="#000000" stroke-width="3.0" stroke-linejoin="round" stroke-linecap="butt" d="m179.479 150.73491l69.03937 0" fill-rule="evenodd"/><path fill="#000000" fill-opacity="0.0" d="m39.29659 61.56168l109.133865 0l0 56.692913l-109.133865 0z" fill-rule="evenodd"/><path stroke="#000000" stroke-width="3.0" stroke-linejoin="round" stroke-linecap="butt" d="m39.29659 61.56168l109.133865 0l0 56.692913l-109.133865 0z" fill-rule="evenodd"/><path fill="#ffffff" d="m54.695427 51.908134l78.336174 0l0 38.4l-78.336174 0l0 -38.4z" fill-rule="nonzero"/><path fill="#000000" fill-opacity="0.0" d="m54.695427 46.788063l78.336174 0l0 47.392097l-78.336174 0l0 -47.392097z" fill-rule="nonzero"/><path fill="#202122" d="m60.554802 82.628136l-4.03125 0l0 -22.40625l4.03125 0l0 8.84375l0.578125 0q0.640625 -1.3125 1.84375 -2.03125q1.21875 -0.71875 3.109375 -0.71875q1.40625 0 2.671875 0.546875q1.265625 0.53125 2.203125 1.578125q0.953125 1.03125 1.515625 2.546875q0.5625 1.5 0.5625 3.421875l0 0.578125q0 1.9375 -0.546875 3.453125q-0.546875 1.5 -1.484375 2.546875q-0.921875 1.03125 -2.1875 1.5625q-1.265625 0.53125 -2.734375 0.53125q-1.09375 0 -1.890625 -0.234375q-0.796875 -0.21875 -1.390625 -0.59375q-0.59375 -0.390625 -1.0 -0.890625q-0.390625 -0.5 -0.671875 -1.03125l-0.578125 0l0 2.296875zm4.21875 -3.390625q1.890625 0 3.046875 -1.171875q1.171875 -1.171875 1.171875 -3.1875l0 -0.375q0 -2.015625 -1.171875 -3.1875q-1.15625 -1.171875 -3.046875 -1.171875q-1.890625 0 -3.0625 1.203125q-1.15625 1.203125 -1.15625 3.15625l0 0.375q0 1.953125 1.15625 3.15625q1.171875 1.203125 3.0625 1.203125zm12.28717 -0.453125l5.375 0l0 -8.1875l-4.984375 0l0 -3.84375l9.015625 0l0 12.03125l4.609375 0l0 3.84375l-14.015625 0l0 -3.84375zm10.40625 -16.734375q0 0.640625 -0.25 1.203125q-0.234375 0.5625 -0.65625 0.96875q-0.40625 0.390625 -0.96875 0.640625q-0.5625 0.234375 -1.171875 0.234375q-0.640625 0 -1.1875 -0.234375q-0.53125 -0.25 -0.953125 -0.640625q-0.421875 -0.40625 -0.65625 -0.96875q-0.234375 -0.5625 -0.234375 -1.203125q0 -0.640625 0.234375 -1.203125q0.234375 -0.5625 0.65625 -0.953125q0.421875 -0.40625 0.953125 -0.640625q0.546875 -0.234375 1.1875 -0.234375q0.609375 0 1.171875 0.234375q0.5625 0.234375 0.96875 0.640625q0.421875 0.390625 0.65625 0.953125q0.25 0.5625 0.25 1.203125zm8.44342 4.703125l4.703125 0l0 -6.53125l4.0312424 0l0 6.53125l5.734375 0l0 3.84375l-5.734375 0l0 7.234375q0 0.953125 0.859375 0.953125l4.296875 0l0 3.84375l-6.7187424 0q-1.09375 0 -1.78125 -0.703125q-0.6875 -0.703125 -0.6875 -1.796875l0 -9.53125l-4.703125 0l0 -3.84375zm35.365288 11.84375l0 4.03125l-15.75 0l0 -4.421875q0 -1.75 0.53125 -3.0q0.53125 -1.25 1.5 -2.109375q0.984375 -0.875 2.359375 -1.421875q1.375 -0.5625 3.09375 -0.953125q1.28125 -0.28125 2.09375 -0.640625q0.828125 -0.375 1.296875 -0.84375q0.484375 -0.46875 0.65625 -1.015625q0.1875 -0.5625 0.1875 -1.28125q0 -1.34375 -0.984375 -2.234375q-0.96875 -0.890625 -2.703125 -0.890625q-1.828125 0 -2.921875 1.109375q-1.078125 1.09375 -1.078125 3.046875l0 1.40625l-4.21875 0l0 -1.796875q0 -1.5625 0.5625 -2.984375q0.5625 -1.421875 1.59375 -2.484375q1.046875 -1.078125 2.546875 -1.703125q1.5 -0.625 3.390625 -0.625q2.015625 0 3.515625 0.59375q1.515625 0.59375 2.515625 1.546875q1.015625 0.953125 1.5 2.21875q0.5 1.265625 0.5 2.609375l0 0.390625q0 2.8125 -1.59375 4.671875q-1.578125 1.859375 -5.15625 2.6875q-1.5 0.34375 -2.484375 0.71875q-0.96875 0.359375 -1.515625 0.8125q-0.546875 0.453125 -0.765625 0.984375q-0.203125 0.515625 -0.203125 1.1875l0 0.390625l11.53125 0z" fill-rule="nonzero"/><path fill="#ffffff" d="m64.48745 89.908134l58.752136 0l0 38.4l-58.752136 0l0 -38.4z" fill-rule="nonzero"/><path fill="#000000" fill-opacity="0.0" d="m64.48745 84.78806l58.75213 0l0 47.392097l-58.75213 0l0 -47.392097z" fill-rule="nonzero"/><path fill="#202122" d="m70.346825 120.628136l-4.03125 0l0 -22.40625l4.03125 0l0 8.84375l0.578125 0q0.640625 -1.3125 1.84375 -2.03125q1.21875 -0.71875 3.109375 -0.71875q1.40625 0 2.671875 0.546875q1.265625 0.53125 2.203125 1.578125q0.953125 1.03125 1.515625 2.546875q0.5625 1.5 0.5625 3.421875l0 0.578125q0 1.9375 -0.546875 3.453125q-0.546875 1.5 -1.484375 2.546875q-0.921875 1.03125 -2.1875 1.5625q-1.265625 0.53125 -2.734375 0.53125q-1.09375 0 -1.890625 -0.234375q-0.796875 -0.21875 -1.390625 -0.59375q-0.59375 -0.390625 -1.0 -0.890625q-0.390625 -0.5 -0.671875 -1.03125l-0.578125 0l0 2.296875zm4.21875 -3.390625q1.890625 0 3.046875 -1.171875q1.171875 -1.171875 1.171875 -3.1875l0 -0.375q0 -2.015625 -1.171875 -3.1875q-1.15625 -1.171875 -3.046875 -1.171875q-1.890625 0 -3.0625 1.203125q-1.15625 1.203125 -1.15625 3.15625l0 0.375q0 1.953125 1.15625 3.15625q1.171875 1.203125 3.0625 1.203125zm27.552795 -4.359375q0 1.984375 -0.671875 3.515625q-0.671875 1.515625 -1.828125 2.5625q-1.140625 1.03125 -2.640625 1.578125q-1.484375 0.546875 -3.109375 0.546875q-1.640625 0 -3.125 -0.546875q-1.484375 -0.546875 -2.640625 -1.578125q-1.15625 -1.046875 -1.828125 -2.5625q-0.671875 -1.53125 -0.671875 -3.515625l0 -0.375q0 -1.953125 0.671875 -3.46875q0.671875 -1.53125 1.828125 -2.578125q1.15625 -1.0625 2.640625 -1.59375q1.484375 -0.546875 3.125 -0.546875q1.625 0 3.109375 0.546875q1.5 0.53125 2.640625 1.59375q1.15625 1.046875 1.828125 2.578125q0.671875 1.515625 0.671875 3.46875l0 0.375zm-8.25 4.359375q0.859375 0 1.625 -0.28125q0.765625 -0.296875 1.34375 -0.84375q0.578125 -0.546875 0.90625 -1.328125q0.34375 -0.78125 0.34375 -1.765625l0 -0.640625q0 -1.0 -0.34375 -1.78125q-0.328125 -0.78125 -0.90625 -1.328125q-0.578125 -0.546875 -1.34375 -0.828125q-0.765625 -0.296875 -1.625 -0.296875q-0.875 0 -1.640625 0.296875q-0.765625 0.28125 -1.34375 0.828125q-0.578125 0.546875 -0.921875 1.328125q-0.328125 0.78125 -0.328125 1.78125l0 0.640625q0 0.984375 0.328125 1.765625q0.34375 0.78125 0.921875 1.328125q0.578125 0.546875 1.34375 0.84375q0.765625 0.28125 1.640625 0.28125zm22.818413 -12.484375l4.4375 0l-3.84375 7.453125l0 0.578125l4.078125 7.84375l-4.640625 0l-2.984375 -6.203125l-0.578125 0l-2.96875 6.203125l-4.640625 0l4.0625 -7.84375l0 -0.578125l-3.875 -7.453125l4.484375 0l2.9375 5.828125l0.578125 0l2.953125 -5.828125z" fill-rule="nonzero"/><path fill="#000000" fill-opacity="0.0" d="m779.2493 61.56168l109.13385 0l0 56.692913l-109.13385 0z" fill-rule="evenodd"/><path stroke="#000000" stroke-width="3.0" stroke-linejoin="round" stroke-linecap="butt" d="m779.2493 61.56168l109.13385 0l0 56.692913l-109.13385 0z" fill-rule="evenodd"/><path fill="#ffffff" d="m794.6482 51.908134l78.33618 0l0 38.4l-78.33618 0l0 -38.4z" fill-rule="nonzero"/><path fill="#000000" fill-opacity="0.0" d="m794.6482 46.788063l78.33618 0l0 47.392097l-78.33618 0l0 -47.392097z" fill-rule="nonzero"/><path fill="#202122" d="m800.50757 82.628136l-4.03125 0l0 -22.40625l4.03125 0l0 8.84375l0.578125 0q0.640625 -1.3125 1.84375 -2.03125q1.21875 -0.71875 3.109375 -0.71875q1.40625 0 2.671875 0.546875q1.265625 0.53125 2.203125 1.578125q0.953125 1.03125 1.515625 2.546875q0.5625 1.5 0.5625 3.421875l0 0.578125q0 1.9375 -0.546875 3.453125q-0.546875 1.5 -1.484375 2.546875q-0.921875 1.03125 -2.1875 1.5625q-1.265625 0.53125 -2.734375 0.53125q-1.09375 0 -1.890625 -0.234375q-0.796875 -0.21875 -1.390625 -0.59375q-0.59375 -0.390625 -1.0 -0.890625q-0.390625 -0.5 -0.671875 -1.03125l-0.578125 0l0 2.296875zm4.21875 -3.390625q1.890625 0 3.046875 -1.171875q1.171875 -1.171875 1.171875 -3.1875l0 -0.375q0 -2.015625 -1.171875 -3.1875q-1.15625 -1.171875 -3.046875 -1.171875q-1.890625 0 -3.0625 1.203125q-1.15625 1.203125 -1.15625 3.15625l0 0.375q0 1.953125 1.15625 3.15625q1.171875 1.203125 3.0625 1.203125zm27.552795 -4.359375q0 1.984375 -0.671875 3.515625q-0.671875 1.515625 -1.828125 2.5625q-1.140625 1.03125 -2.640625 1.578125q-1.484375 0.546875 -3.109375 0.546875q-1.640625 0 -3.125 -0.546875q-1.484375 -0.546875 -2.640625 -1.578125q-1.15625 -1.046875 -1.828125 -2.5625q-0.671875 -1.53125 -0.671875 -3.515625l0 -0.375q0 -1.953125 0.671875 -3.46875q0.671875 -1.53125 1.828125 -2.578125q1.15625 -1.0625 2.640625 -1.59375q1.484375 -0.546875 3.125 -0.546875q1.625 0 3.109375 0.546875q1.5 0.53125 2.640625 1.59375q1.15625 1.046875 1.828125 2.578125q0.671875 1.515625 0.671875 3.46875l0 0.375zm-8.25 4.359375q0.859375 0 1.625 -0.28125q0.765625 -0.296875 1.34375 -0.84375q0.578125 -0.546875 0.90625 -1.328125q0.34375 -0.78125 0.34375 -1.765625l0 -0.640625q0 -1.0 -0.34375 -1.78125q-0.328125 -0.78125 -0.90625 -1.328125q-0.578125 -0.546875 -1.34375 -0.828125q-0.765625 -0.296875 -1.625 -0.296875q-0.875 0 -1.640625 0.296875q-0.765625 0.28125 -1.34375 0.828125q-0.578125 0.546875 -0.921875 1.328125q-0.328125 0.78125 -0.328125 1.78125l0 0.640625q0 0.984375 0.328125 1.765625q0.34375 0.78125 0.921875 1.328125q0.578125 0.546875 1.34375 0.84375q0.765625 0.28125 1.640625 0.28125zm22.81842 -12.484375l4.4375 0l-3.84375 7.453125l0 0.578125l4.078125 7.84375l-4.640625 0l-2.984375 -6.203125l-0.578125 0l-2.96875 6.203125l-4.640625 0l4.0625 -7.84375l0 -0.578125l-3.875 -7.453125l4.484375 0l2.9375 5.828125l0.578125 0l2.953125 -5.828125zm24.38092 11.84375l0 4.03125l-15.75 0l0 -4.421875q0 -1.75 0.53125 -3.0q0.53125 -1.25 1.5 -2.109375q0.984375 -0.875 2.359375 -1.421875q1.375 -0.5625 3.09375 -0.953125q1.28125 -0.28125 2.09375 -0.640625q0.828125 -0.375 1.296875 -0.84375q0.484375 -0.46875 0.65625 -1.015625q0.1875 -0.5625 0.1875 -1.28125q0 -1.34375 -0.984375 -2.234375q-0.96875 -0.890625 -2.703125 -0.890625q-1.828125 0 -2.921875 1.109375q-1.078125 1.09375 -1.078125 3.046875l0 1.40625l-4.21875 0l0 -1.796875q0 -1.5625 0.5625 -2.984375q0.5625 -1.421875 1.59375 -2.484375q1.046875 -1.078125 2.546875 -1.703125q1.5 -0.625 3.390625 -0.625q2.015625 0 3.515625 0.59375q1.515625 0.59375 2.515625 1.546875q1.015625 0.953125 1.5 2.21875q0.5 1.265625 0.5 2.609375l0 0.390625q0 2.8125 -1.59375 4.671875q-1.578125 1.859375 -5.15625 2.6875q-1.5 0.34375 -2.484375 0.71875q-0.96875 0.359375 -1.515625 0.8125q-0.546875 0.453125 -0.765625 0.984375q-0.203125 0.515625 -0.203125 1.1875l0 0.390625l11.53125 0z" fill-rule="nonzero"/><path fill="#ffffff" d="m804.4402 89.908134l58.752136 0l0 38.4l-58.752136 0l0 -38.4z" fill-rule="nonzero"/><path fill="#000000" fill-opacity="0.0" d="m804.4402 84.78806l58.752136 0l0 47.392097l-58.752136 0l0 -47.392097z" fill-rule="nonzero"/><path fill="#202122" d="m810.29956 120.628136l-4.03125 0l0 -22.40625l4.03125 0l0 8.84375l0.578125 0q0.640625 -1.3125 1.84375 -2.03125q1.21875 -0.71875 3.109375 -0.71875q1.40625 0 2.671875 0.546875q1.265625 0.53125 2.203125 1.578125q0.953125 1.03125 1.515625 2.546875q0.5625 1.5 0.5625 3.421875l0 0.578125q0 1.9375 -0.546875 3.453125q-0.546875 1.5 -1.484375 2.546875q-0.921875 1.03125 -2.1875 1.5625q-1.265625 0.53125 -2.734375 0.53125q-1.09375 0 -1.890625 -0.234375q-0.796875 -0.21875 -1.390625 -0.59375q-0.59375 -0.390625 -1.0 -0.890625q-0.390625 -0.5 -0.671875 -1.03125l-0.578125 0l0 2.296875zm4.21875 -3.390625q1.890625 0 3.046875 -1.171875q1.171875 -1.171875 1.171875 -3.1875l0 -0.375q0 -2.015625 -1.171875 -3.1875q-1.15625 -1.171875 -3.046875 -1.171875q-1.890625 0 -3.0625 1.203125q-1.15625 1.203125 -1.15625 3.15625l0 0.375q0 1.953125 1.15625 3.15625q1.171875 1.203125 3.0625 1.203125zm12.28717 -0.453125l5.375 0l0 -8.1875l-4.984375 0l0 -3.84375l9.015625 0l0 12.03125l4.609375 0l0 3.84375l-14.015625 0l0 -3.84375zm10.40625 -16.734375q0 0.640625 -0.25 1.203125q-0.234375 0.5625 -0.65625 0.96875q-0.40625 0.390625 -0.96875 0.640625q-0.5625 0.234375 -1.171875 0.234375q-0.640625 0 -1.1875 -0.234375q-0.53125 -0.25 -0.953125 -0.640625q-0.421875 -0.40625 -0.65625 -0.96875q-0.234375 -0.5625 -0.234375 -1.203125q0 -0.640625 0.234375 -1.203125q0.234375 -0.5625 0.65625 -0.953125q0.421875 -0.40625 0.953125 -0.640625q0.546875 -0.234375 1.1875 -0.234375q0.609375 0 1.171875 0.234375q0.5625 0.234375 0.96875 0.640625q0.421875 0.390625 0.65625 0.953125q0.25 0.5625 0.25 1.203125zm8.44342 4.703125l4.703125 0l0 -6.53125l4.03125 0l0 6.53125l5.734375 0l0 3.84375l-5.734375 0l0 7.234375q0 0.953125 0.859375 0.953125l4.296875 0l0 3.84375l-6.71875 0q-1.09375 0 -1.78125 -0.703125q-0.6875 -0.703125 -0.6875 -1.796875l0 -9.53125l-4.703125 0l0 -3.84375z" fill-rule="nonzero"/><path fill="#000000" fill-opacity="0.0" d="m148.43045 89.908134l29.291336 0" fill-rule="evenodd"/><path stroke="#000000" stroke-width="3.0" stroke-linejoin="round" stroke-linecap="butt" d="m148.43045 89.908134l29.291336 0" fill-rule="evenodd"/><path fill="#000000" fill-opacity="0.0" d="m10.005249 89.908134l29.29134 0" fill-rule="evenodd"/><path stroke="#000000" stroke-width="3.0" stroke-linejoin="round" stroke-linecap="butt" d="m10.005249 89.908134l29.29134 0" fill-rule="evenodd"/><path fill="#000000" fill-opacity="0.0" d="m734.55646 89.908134l44.69287 0" fill-rule="evenodd"/><path stroke="#000000" stroke-width="3.0" stroke-linejoin="round" stroke-linecap="butt" d="m734.55646 89.908134l44.69287 0" fill-rule="evenodd"/><path fill="#000000" fill-opacity="0.0" d="m888.3832 89.908134l29.291382 0" fill-rule="evenodd"/><path stroke="#000000" stroke-width="3.0" stroke-linejoin="round" stroke-linecap="butt" d="m888.3832 89.908134l29.291382 0" fill-rule="evenodd"/><path fill="#000000" fill-opacity="0.0" d="m701.3884 44.220474l0.85040283 45.700783" fill-rule="evenodd"/><path stroke="#000000" stroke-width="3.0" stroke-linejoin="round" stroke-linecap="butt" d="m701.3884 44.220474l0.85040283 45.700783" fill-rule="evenodd"/><path fill="#000000" fill-opacity="0.0" d="m703.11285 89.908134l-482.51968 0" fill-rule="evenodd"/><path stroke="#000000" stroke-width="3.0" stroke-linejoin="round" stroke-linecap="butt" d="m703.11285 89.908134l-482.51968 0" fill-rule="evenodd"/><path fill="#000000" fill-opacity="0.0" d="m220.58792 89.908134l0 38.92913" fill-rule="evenodd"/><path stroke="#000000" stroke-width="3.0" stroke-linejoin="round" stroke-linecap="butt" d="m220.58792 89.908134l0 38.92913" fill-rule="evenodd"/><path fill="#000000" fill-opacity="0.0" d="m249.27821 120.27034l0 38.92914" fill-rule="evenodd"/><path stroke="#000000" stroke-width="4.0" stroke-linejoin="round" stroke-linecap="butt" d="m249.27821 120.27034l0 38.92914" fill-rule="evenodd"/><path fill="#000000" fill-opacity="0.0" d="m219.98688 128.83727l29.291336 0" fill-rule="evenodd"/><path stroke="#000000" stroke-width="3.0" stroke-linejoin="round" stroke-linecap="butt" d="m219.98688 128.83727l29.291336 0" fill-rule="evenodd"/><path fill="#000000" fill-opacity="0.0" d="m681.0945 44.56168l53.35431 0" fill-rule="evenodd"/><path stroke="#000000" stroke-width="3.0" stroke-linejoin="round" stroke-linecap="butt" d="m681.0945 44.56168l43.07306 0" fill-rule="evenodd"/><path fill="#000000" stroke="#000000" stroke-width="3.0" stroke-linecap="butt" d="m724.16754 44.56168l-3.3737183 3.3737526l9.269287 -3.3737526l-9.269287 -3.3737526z" fill-rule="evenodd"/><path fill="#000000" fill-opacity="0.0" d="m247.16711 137.58005l27.118103 0" fill-rule="evenodd"/><path stroke="#000000" stroke-width="3.0" stroke-linejoin="round" stroke-linecap="butt" d="m247.16711 137.58005l27.118103 0" fill-rule="evenodd"/></g></svg>