<svg version="1.1" viewBox="0.0 0.0 680.0603674540682 367.4461942257218" fill="none" stroke="none" stroke-linecap="square" stroke-miterlimit="10" xmlns:xlink="http://www.w3.org/1999/xlink" xmlns="http://www.w3.org/2000/svg"><clipPath id="p.0"><path d="m0 0l680.06036 0l0 367.4462l-680.06036 0l0 -367.4462z" clip-rule="nonzero"/></clipPath><g clip-path="url(#p.0)"><path fill="#000000" fill-opacity="0.0" d="m0 0l680.06036 0l0 367.4462l-680.06036 0z" fill-rule="evenodd"/><path fill="#ffffff" d="m167.58792 261.75067l375.9055 0l0 83.62204l-375.9055 0z" fill-rule="evenodd"/><path stroke="#000000" stroke-width="3.0" stroke-linejoin="round" stroke-linecap="butt" d="m167.58792 261.75067l375.9055 0l0 83.62204l-375.9055 0z" fill-rule="evenodd"/><path fill="#000000" d="m344.57114 299.03357l5.734375 0l0 1.03125l-4.609375 0l0 3.09375l4.53125 0l0 1.046875l-4.53125 0l0 4.15625l-1.125 0l0 -9.328125zm13.172424 2.6875q0 -0.453125 -0.1875 -0.796875q-0.171875 -0.34375 -0.484375 -0.5625q-0.3125 -0.234375 -0.71875 -0.359375q-0.390625 -0.125 -0.828125 -0.125q-0.390625 0 -0.734375 0.109375q-0.34375 0.09375 -0.625 0.28125q-0.265625 0.1875 -0.421875 0.46875q-0.15625 0.265625 -0.15625 0.625l0 0.078125q0 0.390625 0.15625 0.671875q0.15625 0.265625 0.46875 0.46875q0.3125 0.1875 0.78125 0.3125q0.46875 0.125 1.09375 0.21875q1.46875 0.21875 2.15625 0.859375q0.703125 0.625 0.703125 1.703125l0 0.15625q0 0.59375 -0.21875 1.09375q-0.203125 0.5 -0.609375 0.859375q-0.40625 0.359375 -1.015625 0.5625q-0.59375 0.203125 -1.375 0.203125q-0.890625 0 -1.578125 -0.25q-0.6875 -0.265625 -1.15625 -0.71875q-0.453125 -0.46875 -0.703125 -1.09375q-0.234375 -0.625 -0.234375 -1.34375l0 -0.40625l1.125 0l0 0.3125q0 1.234375 0.671875 1.84375q0.671875 0.609375 1.875 0.609375q1.03125 0 1.5625 -0.453125q0.53125 -0.453125 0.53125 -1.21875l0 -0.078125q0 -0.734375 -0.546875 -1.125q-0.53125 -0.390625 -1.75 -0.5625q-0.703125 -0.09375 -1.28125 -0.28125q-0.5625 -0.1875 -0.96875 -0.5q-0.390625 -0.3125 -0.609375 -0.75q-0.203125 -0.453125 -0.203125 -1.046875l0 -0.15625q0 -0.546875 0.21875 -1.0q0.234375 -0.453125 0.640625 -0.78125q0.40625 -0.34375 0.96875 -0.515625q0.578125 -0.1875 1.25 -0.1875q0.78125 0 1.40625 0.234375q0.625 0.21875 1.046875 0.609375q0.421875 0.375 0.640625 0.890625q0.21875 0.5 0.21875 1.0625l0 0.5625l-1.109375 0l0 -0.484375zm2.4848938 -2.6875l2.140625 0l1.25 8.84375l0.15625 0l1.25 -8.84375l2.140625 0l0 9.328125l-1.046875 0l0 -8.84375l-0.15625 0l-1.25 8.84375l-2.03125 0l-1.25 -8.84375l-0.15625 0l0 8.84375l-1.046875 0l0 -9.328125z" fill-rule="nonzero"/><path fill="#000000" fill-opacity="0.0" d="m49.065617 277.50793l118.897644 0" fill-rule="evenodd"/><path stroke="#000000" stroke-width="3.0" stroke-linejoin="round" stroke-linecap="butt" d="m59.346878 277.50793l108.61638 0" fill-rule="evenodd"/><path fill="#000000" stroke="#000000" stroke-width="3.0" stroke-linecap="butt" d="m59.346878 277.50793l3.3737488 -3.3737488l-9.269302 3.3737488l9.269302 3.3737488z" fill-rule="evenodd"/><path fill="#000000" fill-opacity="0.0" d="m51.21026 245.94888l116.75591 0l0 31.559052l-116.75591 0z" fill-rule="evenodd"/><path fill="#000000" d="m69.58554 258.69858l2.40625 0l0 0.875l0.15625 0q0.25 -0.546875 0.71875 -0.796875q0.46875 -0.265625 1.0625 -0.265625q1.0 0 1.609375 0.65625q0.625 0.65625 0.65625 1.90625l-1.09375 0.15625q0 -0.921875 -0.4375 -1.328125q-0.4375 -0.40625 -1.078125 -0.40625q-0.40625 0 -0.71875 0.171875q-0.296875 0.15625 -0.5 0.4375q-0.1875 0.265625 -0.28125 0.640625q-0.09375 0.375 -0.09375 0.796875l0 2.8125l1.671875 0l0 0.953125l-4.234375 0l0 -0.953125l1.515625 0l0 -4.703125l-1.359375 0l0 -0.953125zm9.297409 3.625q0.03125 0.984375 0.609375 1.59375q0.578125 0.59375 1.59375 0.59375q0.46875 0 0.8125 -0.109375q0.359375 -0.109375 0.59375 -0.296875q0.25 -0.1875 0.40625 -0.421875q0.15625 -0.25 0.25 -0.53125l0.984375 0.265625q-0.28125 0.921875 -1.03125 1.5q-0.75 0.578125 -2.03125 0.578125q-0.703125 0 -1.296875 -0.25q-0.59375 -0.25 -1.03125 -0.703125q-0.421875 -0.453125 -0.671875 -1.078125q-0.234375 -0.625 -0.234375 -1.375l0 -0.328125q0 -0.6875 0.25 -1.28125q0.25 -0.609375 0.6875 -1.03125q0.4375 -0.4375 1.03125 -0.6875q0.59375 -0.25 1.28125 -0.25q0.8125 0 1.40625 0.296875q0.59375 0.296875 0.96875 0.75q0.390625 0.4375 0.5625 0.953125q0.1875 0.515625 0.1875 0.953125l0 0.859375l-5.328125 0zm2.203125 -2.828125q-0.4375 0 -0.8125 0.140625q-0.375 0.140625 -0.671875 0.390625q-0.28125 0.25 -0.46875 0.59375q-0.171875 0.34375 -0.21875 0.75l4.25 0q-0.015625 -0.4375 -0.203125 -0.78125q-0.171875 -0.34375 -0.46875 -0.578125q-0.28125 -0.25 -0.65625 -0.375q-0.359375 -0.140625 -0.75 -0.140625zm10.250534 4.796875l-0.15625 0q-0.171875 0.3125 -0.421875 0.53125q-0.25 0.21875 -0.53125 0.375q-0.28125 0.15625 -0.59375 0.21875q-0.3125 0.078125 -0.609375 0.078125q-0.671875 0 -1.25 -0.21875q-0.5625 -0.234375 -1.0 -0.65625q-0.4375 -0.4375 -0.6875 -1.0625q-0.234375 -0.640625 -0.234375 -1.453125l0 -0.203125q0 -0.8125 0.25 -1.4375q0.25 -0.640625 0.671875 -1.0625q0.4375 -0.4375 1.0 -0.65625q0.578125 -0.234375 1.21875 -0.234375q0.6875 0 1.265625 0.3125q0.578125 0.3125 0.921875 0.90625l0.15625 0l0 -1.03125l1.046875 0l0 9.28125l-1.046875 0l0 -3.6875zm-2.203125 0.21875q0.46875 0 0.859375 -0.171875q0.40625 -0.171875 0.703125 -0.484375q0.296875 -0.328125 0.46875 -0.765625q0.171875 -0.453125 0.171875 -1.0l0 -0.171875q0 -0.53125 -0.171875 -0.96875q-0.171875 -0.453125 -0.46875 -0.765625q-0.296875 -0.328125 -0.703125 -0.5q-0.40625 -0.1875 -0.859375 -0.1875q-0.46875 0 -0.875 0.171875q-0.40625 0.171875 -0.71875 0.5q-0.296875 0.3125 -0.46875 0.765625q-0.15625 0.4375 -0.15625 0.96875l0 0.203125q0 0.5625 0.15625 1.0q0.171875 0.4375 0.46875 0.75q0.3125 0.3125 0.703125 0.484375q0.40625 0.171875 0.890625 0.171875zm13.235443 -5.8125l2.078125 0l0 -2.7187653l1.03125 0l0 2.7187653l2.5625 0l0 0.953125l-2.5625 0l0 4.296875q0 0.40625 0.359375 0.40625l1.890625 0l0 0.953125l-2.265625 0q-0.453125 0 -0.734375 -0.296875q-0.28125 -0.296875 -0.28125 -0.75l0 -4.609375l-2.078125 0l0 -0.953125zm10.359909 5.859375q0 -0.390625 0.265625 -0.65625q0.28125 -0.265625 0.671875 -0.265625q0.390625 0 0.65625 0.265625q0.28125 0.265625 0.28125 0.65625q0 0.390625 -0.28125 0.671875q-0.265625 0.265625 -0.65625 0.265625q-0.390625 0 -0.671875 -0.265625q-0.265625 -0.28125 -0.265625 -0.671875zm14.422943 -8.57814l5.65625 0l0 1.0312653l-4.53125 0l0 3.09375l4.453125 0l0 1.046875l-4.453125 0l0 3.109375l4.609375 0l0 1.046875l-5.734375 0l0 -9.32814zm7.875534 0l3.0625 0q1.734375 0 2.53125 0.82814026q0.8125 0.828125 0.8125 2.640625l0 2.390625q0 1.8125 -0.8125 2.640625q-0.796875 0.828125 -2.53125 0.828125l-3.0625 0l0 -1.046875l0.796875 0l0 -7.25l-0.796875 0l0 -1.0312653zm2.90625 8.281265q0.609375 0 1.0625 -0.109375q0.453125 -0.125 0.734375 -0.40625q0.296875 -0.296875 0.4375 -0.765625q0.140625 -0.484375 0.140625 -1.21875l0 -2.234375q0 -0.734375 -0.140625 -1.21875q-0.140625 -0.484375 -0.4375 -0.765625q-0.28125 -0.28125 -0.734375 -0.40625q-0.453125 -0.125 -1.0625 -0.125l-0.984375 0l0 7.25l0.984375 0zm10.188034 0.5625l0.15625 0l0 -8.843765l1.125 0l0 9.32814l-2.25 0l-2.6875 -8.84375l-0.15625 0l0 8.84375l-1.125 0l0 -9.32814l2.25 0l2.6875 8.843765z" fill-rule="nonzero"/><path fill="#ffffff" d="m167.9685 14.496063l141.13385 0l0 141.5748l-141.13385 0z" fill-rule="evenodd"/><path stroke="#000000" stroke-width="3.0" stroke-linejoin="round" stroke-linecap="butt" d="m167.9685 14.496063l141.13385 0l0 141.5748l-141.13385 0z" fill-rule="evenodd"/><path fill="#000000" d="m223.37811 80.75534l1.125 0l0 8.28125l4.875 0l0 1.046875l-6.0 0l0 -9.328125zm8.266159 0l5.734375 0l0 1.03125l-4.609375 0l0 3.09375l4.53125 0l0 1.046875l-4.53125 0l0 4.15625l-1.125 0l0 -9.328125zm13.172409 2.6875q0 -0.453125 -0.1875 -0.796875q-0.171875 -0.34375 -0.484375 -0.5625q-0.3125 -0.234375 -0.71875 -0.359375q-0.390625 -0.125 -0.828125 -0.125q-0.390625 0 -0.734375 0.109375q-0.34375 0.09375 -0.625 0.28125q-0.265625 0.1875 -0.421875 0.46875q-0.15625 0.265625 -0.15625 0.625l0 0.078125q0 0.390625 0.15625 0.671875q0.15625 0.265625 0.46875 0.46875q0.3125 0.1875 0.78125 0.3125q0.46875 0.125 1.09375 0.21875q1.46875 0.21875 2.15625 0.859375q0.703125 0.625 0.703125 1.703125l0 0.15625q0 0.59375 -0.21875 1.09375q-0.203125 0.5 -0.609375 0.859375q-0.40625 0.359375 -1.015625 0.5625q-0.59375 0.203125 -1.375 0.203125q-0.890625 0 -1.578125 -0.25q-0.6875 -0.265625 -1.15625 -0.71875q-0.453125 -0.46875 -0.703125 -1.09375q-0.234375 -0.625 -0.234375 -1.34375l0 -0.40625l1.125 0l0 0.3125q0 1.234375 0.671875 1.84375q0.671875 0.609375 1.875 0.609375q1.03125 0 1.5625 -0.453125q0.53125 -0.453125 0.53125 -1.21875l0 -0.078125q0 -0.734375 -0.546875 -1.125q-0.53125 -0.390625 -1.75 -0.5625q-0.703125 -0.09375 -1.28125 -0.28125q-0.5625 -0.1875 -0.96875 -0.5q-0.390625 -0.3125 -0.609375 -0.75q-0.203125 -0.453125 -0.203125 -1.046875l0 -0.15625q0 -0.546875 0.21875 -1.0q0.234375 -0.453125 0.640625 -0.78125q0.40625 -0.34375 0.96875 -0.515625q0.578125 -0.1875 1.25 -0.1875q0.78125 0 1.40625 0.234375q0.625 0.21875 1.046875 0.609375q0.421875 0.375 0.640625 0.890625q0.21875 0.5 0.21875 1.0625l0 0.5625l-1.109375 0l0 -0.484375zm8.875534 6.640625l-1.125 0l0 -3.125q0 -0.34375 -0.15625 -0.53125q-0.15625 -0.1875 -0.5625 -0.1875l-2.90625 0l0 3.84375l-1.109375 0l0 -9.328125l3.328125 0q0.71875 0 1.25 0.203125q0.53125 0.203125 0.875 0.5625q0.359375 0.34375 0.53125 0.8125q0.1875 0.453125 0.1875 0.953125l0 0.40625q0 0.515625 -0.28125 1.03125q-0.28125 0.515625 -0.890625 0.796875l0 0.171875q0.40625 0.0625 0.625 0.3125q0.234375 0.25 0.234375 0.71875l0 3.359375zm-4.75 -4.875l2.078125 0q0.953125 0 1.40625 -0.40625q0.46875 -0.40625 0.46875 -1.203125l0 -0.234375q0 -0.703125 -0.46875 -1.140625q-0.453125 -0.4375 -1.40625 -0.4375l-2.078125 0l0 3.421875z" fill-rule="nonzero"/><path fill="#000000" fill-opacity="0.0" d="m51.199474 46.05512l116.755905 0" fill-rule="evenodd"/><path stroke="#000000" stroke-width="3.0" stroke-linejoin="round" stroke-linecap="butt" d="m51.199474 46.05512l106.47464 0" fill-rule="evenodd"/><path fill="#000000" stroke="#000000" stroke-width="3.0" stroke-linecap="butt" d="m157.67412 46.05512l-3.3737488 3.3737488l9.269302 -3.3737488l-9.269302 -3.3737526z" fill-rule="evenodd"/><path fill="#000000" fill-opacity="0.0" d="m12.8173685 14.496063l155.14961 0l0 31.559055l-155.14961 0z" fill-rule="evenodd"/><path fill="#000000" d="m29.997543 27.245743l2.40625 0l0 0.875l0.15625 0q0.25 -0.546875 0.71875 -0.796875q0.46875 -0.265625 1.0625 -0.265625q1.0 0 1.609375 0.65625q0.625 0.65625 0.65625 1.90625l-1.09375 0.15625q0 -0.921875 -0.4375 -1.328125q-0.4375 -0.40625 -1.078125 -0.40625q-0.40625 0 -0.71875 0.171875q-0.296875 0.15625 -0.5 0.4375q-0.1875 0.265625 -0.28125 0.640625q-0.09375 0.375 -0.09375 0.796875l0 2.8125l1.671875 0l0 0.953125l-4.234375 0l0 -0.953125l1.515625 0l0 -4.703125l-1.359375 0l0 -0.953125zm9.906784 1.703125q0 0.484375 0.40625 0.734375q0.40625 0.25 1.484375 0.328125q1.15625 0.09375 1.765625 0.5625q0.609375 0.453125 0.609375 1.328125l0 0.09375q0 0.46875 -0.203125 0.859375q-0.1875 0.375 -0.53125 0.640625q-0.328125 0.265625 -0.8125 0.40625q-0.484375 0.140625 -1.0625 0.140625q-0.78125 0 -1.328125 -0.203125q-0.546875 -0.21875 -0.921875 -0.546875q-0.359375 -0.34375 -0.546875 -0.765625q-0.1875 -0.4375 -0.21875 -0.890625l0.984375 -0.234375q0.0625 0.765625 0.578125 1.234375q0.53125 0.453125 1.390625 0.453125q0.734375 0 1.171875 -0.28125q0.453125 -0.296875 0.453125 -0.8125q0 -0.5625 -0.4375 -0.796875q-0.4375 -0.25 -1.421875 -0.3125q-1.140625 -0.078125 -1.765625 -0.53125q-0.609375 -0.453125 -0.609375 -1.328125l0 -0.078125q0 -0.46875 0.203125 -0.8125q0.203125 -0.359375 0.53125 -0.59375q0.34375 -0.25 0.765625 -0.359375q0.4375 -0.125 0.90625 -0.125q0.65625 0 1.140625 0.1875q0.5 0.171875 0.828125 0.46875q0.328125 0.28125 0.5 0.65625q0.1875 0.359375 0.25 0.734375l-0.984375 0.25q-0.078125 -0.640625 -0.53125 -1.0q-0.4375 -0.359375 -1.15625 -0.359375q-0.28125 0 -0.546875 0.0625q-0.25 0.046875 -0.453125 0.171875q-0.203125 0.125 -0.328125 0.3125q-0.109375 0.171875 -0.109375 0.40625zm7.578659 7.578125l-1.03125 0l0 -9.28125l1.03125 0l0 1.03125l0.171875 0q0.34375 -0.59375 0.953125 -0.90625q0.609375 -0.3125 1.328125 -0.3125q0.625 0 1.171875 0.234375q0.546875 0.21875 0.953125 0.65625q0.421875 0.421875 0.671875 1.046875q0.25 0.625 0.25 1.421875l0 0.265625q0 0.8125 -0.25 1.4375q-0.234375 0.625 -0.65625 1.0625q-0.421875 0.421875 -0.984375 0.640625q-0.546875 0.21875 -1.171875 0.21875q-0.328125 0 -0.65625 -0.078125q-0.328125 -0.0625 -0.640625 -0.21875q-0.296875 -0.15625 -0.546875 -0.375q-0.25 -0.21875 -0.421875 -0.53125l-0.171875 0l0 3.6875zm2.21875 -3.46875q0.484375 0 0.875 -0.171875q0.40625 -0.171875 0.703125 -0.46875q0.296875 -0.3125 0.46875 -0.75q0.171875 -0.4375 0.171875 -0.984375l0 -0.265625q0 -0.53125 -0.171875 -0.96875q-0.171875 -0.4375 -0.46875 -0.75q-0.296875 -0.3125 -0.703125 -0.484375q-0.40625 -0.171875 -0.875 -0.171875q-0.46875 0 -0.875 0.1875q-0.390625 0.171875 -0.6875 0.5q-0.296875 0.3125 -0.484375 0.765625q-0.171875 0.4375 -0.171875 0.96875l0 0.171875q0 0.546875 0.171875 1.0q0.1875 0.4375 0.484375 0.765625q0.296875 0.3125 0.6875 0.484375q0.40625 0.171875 0.875 0.171875zm18.422943 -0.21875l-0.15625 0q-0.171875 0.3125 -0.421875 0.546875q-0.234375 0.21875 -0.53125 0.375q-0.28125 0.140625 -0.609375 0.203125q-0.3125 0.078125 -0.609375 0.078125q-0.65625 0 -1.234375 -0.21875q-0.578125 -0.234375 -1.015625 -0.65625q-0.421875 -0.4375 -0.671875 -1.0625q-0.25 -0.640625 -0.25 -1.453125l0 -0.203125q0 -0.8125 0.25 -1.4375q0.265625 -0.640625 0.6875 -1.0625q0.421875 -0.4375 1.0 -0.65625q0.578125 -0.234375 1.21875 -0.234375q0.671875 0 1.265625 0.296875q0.59375 0.296875 0.921875 0.921875l0.15625 0l0 -3.75l1.03125 0l0 9.328125l-1.03125 0l0 -1.015625zm-2.21875 0.21875q0.46875 0 0.859375 -0.171875q0.40625 -0.171875 0.703125 -0.484375q0.3125 -0.328125 0.484375 -0.765625q0.171875 -0.453125 0.171875 -1.0l0 -0.171875q0 -0.53125 -0.171875 -0.96875q-0.171875 -0.453125 -0.484375 -0.765625q-0.296875 -0.328125 -0.703125 -0.5q-0.40625 -0.1875 -0.859375 -0.1875q-0.46875 0 -0.875 0.171875q-0.40625 0.171875 -0.703125 0.5q-0.296875 0.3125 -0.46875 0.765625q-0.15625 0.4375 -0.15625 0.96875l0 0.203125q0 0.5625 0.15625 1.0q0.171875 0.4375 0.46875 0.75q0.296875 0.3125 0.6875 0.484375q0.40625 0.171875 0.890625 0.171875zm10.047409 -0.328125l-0.15625 0q-0.3125 0.671875 -0.890625 1.0q-0.5625 0.3125 -1.1875 0.3125q-0.65625 0 -1.21875 -0.21875q-0.546875 -0.21875 -0.96875 -0.65625q-0.421875 -0.4375 -0.671875 -1.0625q-0.234375 -0.625 -0.234375 -1.453125l0 -0.203125q0 -0.8125 0.234375 -1.4375q0.25 -0.640625 0.671875 -1.0625q0.421875 -0.4375 0.96875 -0.65625q0.5625 -0.234375 1.1875 -0.234375q0.6875 0 1.234375 0.296875q0.5625 0.296875 0.875 0.921875l0.15625 0l0 -1.03125l1.046875 0l0 5.25q0 0.40625 0.359375 0.40625l0.328125 0l0 0.953125l-0.703125 0q-0.453125 0 -0.75 -0.296875q-0.28125 -0.296875 -0.28125 -0.75l0 -0.078125zm-2.125 0.328125q0.46875 0 0.859375 -0.171875q0.390625 -0.171875 0.671875 -0.484375q0.28125 -0.328125 0.4375 -0.765625q0.15625 -0.453125 0.15625 -1.0l0 -0.171875q0 -0.53125 -0.15625 -0.96875q-0.15625 -0.453125 -0.453125 -0.765625q-0.28125 -0.328125 -0.671875 -0.5q-0.390625 -0.1875 -0.84375 -0.1875q-0.46875 0 -0.859375 0.171875q-0.390625 0.171875 -0.671875 0.484375q-0.28125 0.3125 -0.453125 0.765625q-0.15625 0.453125 -0.15625 0.984375l0 0.203125q0 1.140625 0.59375 1.78125q0.59375 0.625 1.546875 0.625zm5.266159 -5.8125l2.078125 0l0 -2.71875l1.03125 0l0 2.71875l2.5625 0l0 0.953125l-2.5625 0l0 4.296875q0 0.40625 0.359375 0.40625l1.890625 0l0 0.953125l-2.265625 0q-0.453125 0 -0.734375 -0.296875q-0.28125 -0.296875 -0.28125 -0.75l0 -4.609375l-2.078125 0l0 -0.953125zm13.172409 5.484375l-0.15625 0q-0.3125 0.671875 -0.890625 1.0q-0.5625 0.3125 -1.1875 0.3125q-0.65625 0 -1.21875 -0.21875q-0.546875 -0.21875 -0.96875 -0.65625q-0.421875 -0.4375 -0.671875 -1.0625q-0.234375 -0.625 -0.234375 -1.453125l0 -0.203125q0 -0.8125 0.234375 -1.4375q0.25 -0.640625 0.671875 -1.0625q0.421875 -0.4375 0.96875 -0.65625q0.5625 -0.234375 1.1875 -0.234375q0.6875 0 1.234375 0.296875q0.5625 0.296875 0.875 0.921875l0.15625 0l0 -1.03125l1.046875 0l0 5.25q0 0.40625 0.359375 0.40625l0.328125 0l0 0.953125l-0.703125 0q-0.453125 0 -0.75 -0.296875q-0.28125 -0.296875 -0.28125 -0.75l0 -0.078125zm-2.125 0.328125q0.46875 0 0.859375 -0.171875q0.390625 -0.171875 0.671875 -0.484375q0.28125 -0.328125 0.4375 -0.765625q0.15625 -0.453125 0.15625 -1.0l0 -0.171875q0 -0.53125 -0.15625 -0.96875q-0.15625 -0.453125 -0.453125 -0.765625q-0.28125 -0.328125 -0.671875 -0.5q-0.390625 -0.1875 -0.84375 -0.1875q-0.46875 0 -0.859375 0.171875q-0.390625 0.171875 -0.671875 0.484375q-0.28125 0.3125 -0.453125 0.765625q-0.15625 0.453125 -0.15625 0.984375l0 0.203125q0 1.140625 0.59375 1.78125q0.59375 0.625 1.546875 0.625zm13.579193 -5.8125l2.03125 0l0 -1.6875q0 -0.453125 0.28125 -0.734375q0.296875 -0.296875 0.75 -0.296875l2.609375 0l0 0.953125l-2.234375 0q-0.359375 0 -0.359375 0.40625l0 1.359375l2.765625 0l0 0.953125l-2.765625 0l0 5.65625l-1.046875 0l0 -5.65625l-2.03125 0l0 -0.953125zm10.203659 5.859375q0 -0.390625 0.265625 -0.65625q0.28125 -0.265625 0.671875 -0.265625q0.390625 0 0.65625 0.265625q0.28125 0.265625 0.28125 0.65625q0 0.390625 -0.28125 0.671875q-0.265625 0.265625 -0.65625 0.265625q-0.390625 0 -0.671875 -0.265625q-0.265625 -0.28125 -0.265625 -0.671875zm14.422943 -8.578125l5.65625 0l0 1.03125l-4.53125 0l0 3.09375l4.453125 0l0 1.046875l-4.453125 0l0 3.109375l4.609375 0l0 1.046875l-5.734375 0l0 -9.328125zm7.875534 0l3.0625 0q1.734375 0 2.53125 0.828125q0.8125 0.828125 0.8125 2.640625l0 2.390625q0 1.8125 -0.8125 2.640625q-0.796875 0.828125 -2.53125 0.828125l-3.0625 0l0 -1.046875l0.796875 0l0 -7.25l-0.796875 0l0 -1.03125zm2.90625 8.28125q0.609375 0 1.0625 -0.109375q0.453125 -0.125 0.734375 -0.40625q0.296875 -0.296875 0.4375 -0.765625q0.140625 -0.484375 0.140625 -1.21875l0 -2.234375q0 -0.734375 -0.140625 -1.21875q-0.140625 -0.484375 -0.4375 -0.765625q-0.28125 -0.28125 -0.734375 -0.40625q-0.453125 -0.125 -1.0625 -0.125l-0.984375 0l0 7.25l0.984375 0zm10.188034 0.5625l0.15625 0l0 -8.84375l1.125 0l0 9.328125l-2.25 0l-2.6875 -8.84375l-0.15625 0l0 8.84375l-1.125 0l0 -9.328125l2.25 0l2.6875 8.84375z" fill-rule="nonzero"/><path fill="#000000" fill-opacity="0.0" d="m103.20998 81.71129l64.377945 0" fill-rule="evenodd"/><path stroke="#cc0000" stroke-width="2.0" stroke-linejoin="round" stroke-linecap="butt" d="m103.20998 81.71129l57.523773 0" fill-rule="evenodd"/><path fill="#cc0000" stroke="#cc0000" stroke-width="2.0" stroke-linecap="butt" d="m160.73375 81.71129l-2.2491608 2.2491684l6.179535 -2.2491684l-6.179535 -2.2491684z" fill-rule="evenodd"/><path fill="#000000" fill-opacity="0.0" d="m85.98163 50.15223l81.98425 0l0 31.55906l-81.98425 0z" fill-rule="evenodd"/><path fill="#000000" d="m100.95626 64.605034q0 0.484375 0.40625 0.734375q0.40625 0.25 1.484375 0.328125q1.15625 0.09375 1.765625 0.5625q0.609375 0.453125 0.609375 1.328125l0 0.09375q0 0.46875 -0.203125 0.859375q-0.1875 0.375 -0.53125 0.640625q-0.328125 0.265625 -0.8125 0.40625q-0.484375 0.140625 -1.0625 0.140625q-0.78125 0 -1.328125 -0.203125q-0.546875 -0.21875 -0.921875 -0.546875q-0.359375 -0.34375 -0.546875 -0.765625q-0.1875 -0.4375 -0.21875 -0.890625l0.984375 -0.234375q0.0625 0.765625 0.578125 1.234375q0.53125 0.453125 1.390625 0.453125q0.734375 0 1.171875 -0.28125q0.453125 -0.296875 0.453125 -0.8125q0 -0.5625 -0.4375 -0.796875q-0.4375 -0.25 -1.421875 -0.3125q-1.140625 -0.078125 -1.765625 -0.53125q-0.609375 -0.453125 -0.609375 -1.328125l0 -0.078125q0 -0.46875 0.203125 -0.8125q0.203125 -0.359375 0.53125 -0.59375q0.34375 -0.25 0.765625 -0.359375q0.4375 -0.125 0.90625 -0.125q0.65625 0 1.140625 0.1875q0.5 0.171875 0.828125 0.46875q0.328125 0.28125 0.5 0.65625q0.1875 0.359375 0.25 0.734375l-0.984375 0.25q-0.078125 -0.640625 -0.53125 -1.0q-0.4375 -0.359375 -1.15625 -0.359375q-0.28125 0 -0.546875 0.0625q-0.25 0.046875 -0.453125 0.171875q-0.203125 0.125 -0.328125 0.3125q-0.109375 0.171875 -0.109375 0.40625zm7.547409 1.921875q0.03125 0.984375 0.609375 1.59375q0.578125 0.59375 1.59375 0.59375q0.46875 0 0.8125 -0.109375q0.359375 -0.109375 0.59375 -0.296875q0.25 -0.1875 0.40625 -0.421875q0.15625 -0.25 0.25 -0.53125l0.984375 0.265625q-0.28125 0.921875 -1.03125 1.5q-0.75 0.578125 -2.03125 0.578125q-0.703125 0 -1.296875 -0.25q-0.59375 -0.25 -1.03125 -0.703125q-0.421875 -0.453125 -0.671875 -1.078125q-0.234375 -0.625 -0.234375 -1.375l0 -0.328125q0 -0.6875 0.25 -1.28125q0.25 -0.609375 0.6875 -1.03125q0.4375 -0.4375 1.03125 -0.6875q0.59375 -0.25 1.28125 -0.25q0.8125 0 1.40625 0.296875q0.59375 0.296875 0.96875 0.75q0.390625 0.4375 0.5625 0.953125q0.1875 0.515625 0.1875 0.953125l0 0.859375l-5.328125 0zm2.203125 -2.828125q-0.4375 0 -0.8125 0.140625q-0.375 0.140625 -0.671875 0.390625q-0.28125 0.25 -0.46875 0.59375q-0.171875 0.34375 -0.21875 0.75l4.25 0q-0.015625 -0.4375 -0.203125 -0.78125q-0.171875 -0.34375 -0.46875 -0.578125q-0.28125 -0.25 -0.65625 -0.375q-0.359375 -0.140625 -0.75 -0.140625zm5.953659 2.828125q0.03125 0.984375 0.609375 1.59375q0.578125 0.59375 1.59375 0.59375q0.46875 0 0.8125 -0.109375q0.359375 -0.109375 0.59375 -0.296875q0.25 -0.1875 0.40625 -0.421875q0.15625 -0.25 0.25 -0.53125l0.984375 0.265625q-0.28125 0.921875 -1.03125 1.5q-0.75 0.578125 -2.03125 0.578125q-0.703125 0 -1.296875 -0.25q-0.59375 -0.25 -1.03125 -0.703125q-0.421875 -0.453125 -0.671875 -1.078125q-0.234375 -0.625 -0.234375 -1.375l0 -0.328125q0 -0.6875 0.25 -1.28125q0.25 -0.609375 0.6875 -1.03125q0.4375 -0.4375 1.03125 -0.6875q0.59375 -0.25 1.28125 -0.25q0.8125 0 1.40625 0.296875q0.59375 0.296875 0.96875 0.75q0.390625 0.4375 0.5625 0.953125q0.1875 0.515625 0.1875 0.953125l0 0.859375l-5.328125 0zm2.203125 -2.828125q-0.4375 0 -0.8125 0.140625q-0.375 0.140625 -0.671875 0.390625q-0.28125 0.25 -0.46875 0.59375q-0.171875 0.34375 -0.21875 0.75l4.25 0q-0.015625 -0.4375 -0.203125 -0.78125q-0.171875 -0.34375 -0.46875 -0.578125q-0.28125 -0.25 -0.65625 -0.375q-0.359375 -0.140625 -0.75 -0.140625zm10.313026 4.796875l-0.15625 0q-0.171875 0.3125 -0.421875 0.546875q-0.234375 0.21875 -0.53125 0.375q-0.28124237 0.140625 -0.6093674 0.203125q-0.3125 0.078125 -0.609375 0.078125q-0.65625 0 -1.234375 -0.21875q-0.578125 -0.234375 -1.015625 -0.65625q-0.421875 -0.4375 -0.671875 -1.0625q-0.25 -0.640625 -0.25 -1.453125l0 -0.203125q0 -0.8125 0.25 -1.4375q0.265625 -0.640625 0.6875 -1.0625q0.421875 -0.4375 1.0 -0.65625q0.578125 -0.234375 1.21875 -0.234375q0.671875 0 1.2656174 0.296875q0.59375 0.296875 0.921875 0.921875l0.15625 0l0 -3.75l1.03125 0l0 9.328125l-1.03125 0l0 -1.015625zm-2.2187424 0.21875q0.46875 0 0.859375 -0.171875q0.40624237 -0.171875 0.7031174 -0.484375q0.3125 -0.328125 0.484375 -0.765625q0.171875 -0.453125 0.171875 -1.0l0 -0.171875q0 -0.53125 -0.171875 -0.96875q-0.171875 -0.453125 -0.484375 -0.765625q-0.296875 -0.328125 -0.7031174 -0.5q-0.40625 -0.1875 -0.859375 -0.1875q-0.46875 0 -0.875 0.171875q-0.40625 0.171875 -0.703125 0.5q-0.296875 0.3125 -0.46875 0.765625q-0.15625 0.4375 -0.15625 0.96875l0 0.203125q0 0.5625 0.15625 1.0q0.171875 0.4375 0.46875 0.75q0.296875 0.3125 0.6875 0.484375q0.40625 0.171875 0.890625 0.171875zm5.0630264 1.4375l6.21875 0l0 0.953125l-6.21875 0l0 -0.953125zm9.109909 -3.625q0.03125 0.984375 0.609375 1.59375q0.578125 0.59375 1.59375 0.59375q0.46875 0 0.8125 -0.109375q0.359375 -0.109375 0.59375 -0.296875q0.25 -0.1875 0.40625 -0.421875q0.15625 -0.25 0.25 -0.53125l0.984375 0.265625q-0.28125 0.921875 -1.03125 1.5q-0.75 0.578125 -2.03125 0.578125q-0.703125 0 -1.296875 -0.25q-0.59375 -0.25 -1.03125 -0.703125q-0.421875 -0.453125 -0.671875 -1.078125q-0.234375 -0.625 -0.234375 -1.375l0 -0.328125q0 -0.6875 0.25 -1.28125q0.25 -0.609375 0.6875 -1.03125q0.4375 -0.4375 1.03125 -0.6875q0.59375 -0.25 1.28125 -0.25q0.8125 0 1.40625 0.296875q0.59375 0.296875 0.96875 0.75q0.390625 0.4375 0.5625 0.953125q0.1875 0.515625 0.1875 0.953125l0 0.859375l-5.328125 0zm2.203125 -2.828125q-0.4375 0 -0.8125 0.140625q-0.375 0.140625 -0.671875 0.390625q-0.28125 0.25 -0.46875 0.59375q-0.171875 0.34375 -0.21875 0.75l4.25 0q-0.015625 -0.4375 -0.203125 -0.78125q-0.171875 -0.34375 -0.46875 -0.578125q-0.28125 -0.25 -0.65625 -0.375q-0.359375 -0.140625 -0.75 -0.140625zm6.234909 5.8125l-1.046875 0l0 -6.609375l1.046875 0l0 1.125l0.15625 0q0.609375 -1.3125 2.125 -1.3125q1.15625 0 1.828125 0.71875q0.6875 0.703125 0.6875 2.140625l0 3.9375l-1.046875 0l0 -3.734375q0 -1.03125 -0.46875 -1.546875q-0.453125 -0.53125 -1.265625 -0.53125q-0.9375 0 -1.484375 0.65625q-0.53125 0.640625 -0.53125 1.71875l0 3.4375z" fill-rule="nonzero"/><path fill="#000000" fill-opacity="0.0" d="m168.36482 30.27559l68.755905 0l0 31.559053l-68.755905 0z" fill-rule="evenodd"/><path fill="#000000" d="m180.80368 44.728394q0 0.484375 0.40625 0.734375q0.40625 0.25 1.484375 0.328125q1.15625 0.09375 1.765625 0.5625q0.609375 0.453125 0.609375 1.328125l0 0.09375q0 0.46875 -0.203125 0.859375q-0.1875 0.375 -0.53125 0.640625q-0.328125 0.265625 -0.8125 0.40625q-0.484375 0.140625 -1.0625 0.140625q-0.78125 0 -1.328125 -0.203125q-0.546875 -0.21875 -0.921875 -0.546875q-0.359375 -0.34375 -0.546875 -0.765625q-0.1875 -0.4375 -0.21875 -0.890625l0.984375 -0.234375q0.0625 0.765625 0.578125 1.234375q0.53125 0.453125 1.390625 0.453125q0.734375 0 1.171875 -0.28125q0.453125 -0.296875 0.453125 -0.8125q0 -0.5625 -0.4375 -0.796875q-0.4375 -0.25 -1.421875 -0.3125q-1.140625 -0.078125 -1.765625 -0.53125q-0.609375 -0.453125 -0.609375 -1.328125l0 -0.078125q0 -0.46875 0.203125 -0.8125q0.203125 -0.359375 0.53125 -0.59375q0.34375 -0.25 0.765625 -0.359375q0.4375 -0.125 0.90625 -0.125q0.65625 0 1.140625 0.1875q0.5 0.171875 0.828125 0.46875q0.328125 0.28125 0.5 0.65625q0.1875 0.359375 0.25 0.734375l-0.984375 0.25q-0.078125 -0.640625 -0.53125 -1.0q-0.4375 -0.359375 -1.15625 -0.359375q-0.28125 0 -0.546875 0.0625q-0.25 0.046875 -0.453125 0.171875q-0.203125 0.125 -0.328125 0.3125q-0.109375 0.171875 -0.109375 0.40625zm7.547409 1.921875q0.03125 0.984375 0.609375 1.59375q0.578125 0.59375 1.59375 0.59375q0.46875 0 0.8125 -0.109375q0.359375 -0.109375 0.59375 -0.296875q0.25 -0.1875 0.40625 -0.421875q0.15625 -0.25 0.25 -0.53125l0.984375 0.265625q-0.28125 0.921875 -1.03125 1.5q-0.75 0.578125 -2.03125 0.578125q-0.703125 0 -1.296875 -0.25q-0.59375 -0.25 -1.03125 -0.703125q-0.421875 -0.453125 -0.671875 -1.078125q-0.234375 -0.625 -0.234375 -1.375l0 -0.328125q0 -0.6875 0.25 -1.28125q0.25 -0.609375 0.6875 -1.03125q0.4375 -0.4375 1.03125 -0.6875q0.59375 -0.25 1.28125 -0.25q0.8125 0 1.40625 0.296875q0.59375 0.296875 0.96875 0.75q0.390625 0.4375 0.5625 0.953125q0.1875 0.515625 0.1875 0.953125l0 0.859375l-5.328125 0zm2.203125 -2.828125q-0.4375 0 -0.8125 0.140625q-0.375 0.140625 -0.671875 0.390625q-0.28125 0.25 -0.46875 0.59375q-0.171875 0.34375 -0.21875 0.75l4.25 0q-0.015625 -0.4375 -0.203125 -0.78125q-0.171875 -0.34375 -0.46875 -0.578125q-0.28125 -0.25 -0.65625 -0.375q-0.359375 -0.140625 -0.75 -0.140625zm5.953659 2.828125q0.03125 0.984375 0.609375 1.59375q0.578125 0.59375 1.59375 0.59375q0.46875 0 0.8125 -0.109375q0.359375 -0.109375 0.59375 -0.296875q0.25 -0.1875 0.40625 -0.421875q0.15625 -0.25 0.25 -0.53125l0.984375 0.265625q-0.28125 0.921875 -1.03125 1.5q-0.75 0.578125 -2.03125 0.578125q-0.703125 0 -1.296875 -0.25q-0.59375 -0.25 -1.03125 -0.703125q-0.421875 -0.453125 -0.671875 -1.078125q-0.234375 -0.625 -0.234375 -1.375l0 -0.328125q0 -0.6875 0.25 -1.28125q0.25 -0.609375 0.6875 -1.03125q0.4375 -0.4375 1.03125 -0.6875q0.59375 -0.25 1.28125 -0.25q0.8125 0 1.40625 0.296875q0.59375 0.296875 0.96875 0.75q0.390625 0.4375 0.5625 0.953125q0.1875 0.515625 0.1875 0.953125l0 0.859375l-5.328125 0zm2.203125 -2.828125q-0.4375 0 -0.8125 0.140625q-0.375 0.140625 -0.671875 0.390625q-0.28125 0.25 -0.46875 0.59375q-0.171875 0.34375 -0.21875 0.75l4.25 0q-0.015625 -0.4375 -0.203125 -0.78125q-0.171875 -0.34375 -0.46875 -0.578125q-0.28125 -0.25 -0.65625 -0.375q-0.359375 -0.140625 -0.75 -0.140625zm10.313034 4.796875l-0.15625 0q-0.171875 0.3125 -0.421875 0.546875q-0.234375 0.21875 -0.53125 0.375q-0.28125 0.140625 -0.609375 0.203125q-0.3125 0.078125 -0.609375 0.078125q-0.65625 0 -1.234375 -0.21875q-0.578125 -0.234375 -1.015625 -0.65625q-0.421875 -0.4375 -0.671875 -1.0625q-0.25 -0.640625 -0.25 -1.453125l0 -0.203125q0 -0.8125 0.25 -1.4375q0.265625 -0.640625 0.6875 -1.0625q0.421875 -0.4375 1.0 -0.65625q0.578125 -0.234375 1.21875 -0.234375q0.671875 0 1.265625 0.296875q0.59375 0.296875 0.921875 0.921875l0.15625 0l0 -3.75l1.03125 0l0 9.328125l-1.03125 0l0 -1.015625zm-2.21875 0.21875q0.46875 0 0.859375 -0.171875q0.40625 -0.171875 0.703125 -0.484375q0.3125 -0.328125 0.484375 -0.765625q0.171875 -0.453125 0.171875 -1.0l0 -0.171875q0 -0.53125 -0.171875 -0.96875q-0.171875 -0.453125 -0.484375 -0.765625q-0.296875 -0.328125 -0.703125 -0.5q-0.40625 -0.1875 -0.859375 -0.1875q-0.46875 0 -0.875 0.171875q-0.40625 0.171875 -0.703125 0.5q-0.296875 0.3125 -0.46875 0.765625q-0.15625 0.4375 -0.15625 0.96875l0 0.203125q0 0.5625 0.15625 1.0q0.171875 0.4375 0.46875 0.75q0.296875 0.3125 0.6875 0.484375q0.40625 0.171875 0.890625 0.171875zm5.063034 1.4375l6.21875 0l0 0.953125l-6.21875 0l0 -0.953125zm10.406784 -9.21875q0 -0.390625 0.265625 -0.65625q0.28125 -0.28125 0.65625 -0.28125q0.390625 0 0.65625 0.28125q0.28125 0.265625 0.28125 0.65625q0 0.375 -0.28125 0.65625q-0.265625 0.265625 -0.65625 0.265625q-0.375 0 -0.65625 -0.265625q-0.265625 -0.28125 -0.265625 -0.65625zm-1.90625 7.625l2.328125 0l0 -4.703125l-2.078125 0l0 -0.953125l3.109375 0l0 5.65625l2.171875 0l0 0.953125l-5.53125 0l0 -0.953125z" fill-rule="nonzero"/><path fill="#000000" fill-opacity="0.0" d="m103.20998 129.54068l64.377945 0" fill-rule="evenodd"/><path stroke="#cc0000" stroke-width="2.0" stroke-linejoin="round" stroke-linecap="butt" d="m103.20998 129.54068l57.523773 0" fill-rule="evenodd"/><path fill="#cc0000" stroke="#cc0000" stroke-width="2.0" stroke-linecap="butt" d="m160.73375 129.54068l-2.2491608 2.249176l6.179535 -2.249176l-6.179535 -2.2491684z" fill-rule="evenodd"/><path fill="#000000" fill-opacity="0.0" d="m85.98163 97.98163l81.98425 0l0 31.559052l-81.98425 0z" fill-rule="evenodd"/><path fill="#000000" d="m99.58126 116.38756l2.40625 0l0 -7.421875l-2.328125 0l0 -0.953125l3.359375 0l0 8.375l2.40625 0l0 0.953125l-5.84375 0l0 -0.953125zm8.094284 -5.65625l2.03125 0l0 -1.6875q0 -0.453125 0.28125 -0.734375q0.296875 -0.296875 0.75 -0.296875l2.609375 0l0 0.953125l-2.234375 0q-0.359375 0 -0.359375 0.40625l0 1.359375l2.765625 0l0 0.953125l-2.765625 0l0 5.65625l-1.046875 0l0 -5.65625l-2.03125 0l0 -0.953125zm9.594284 1.703125q0 0.484375 0.40625 0.734375q0.40625 0.25 1.484375 0.328125q1.15625 0.09375 1.765625 0.5625q0.609375 0.453125 0.609375 1.328125l0 0.09375q0 0.46875 -0.203125 0.859375q-0.1875 0.375 -0.53125 0.640625q-0.328125 0.265625 -0.8125 0.40625q-0.484375 0.140625 -1.0625 0.140625q-0.78125 0 -1.328125 -0.203125q-0.546875 -0.21875 -0.921875 -0.546875q-0.359375 -0.34375 -0.546875 -0.765625q-0.1875 -0.4375 -0.21875 -0.890625l0.984375 -0.234375q0.0625 0.765625 0.578125 1.234375q0.53125 0.453125 1.390625 0.453125q0.734375 0 1.171875 -0.28125q0.453125 -0.296875 0.453125 -0.8125q0 -0.5625 -0.4375 -0.796875q-0.4375 -0.25 -1.421875 -0.3125q-1.140625 -0.078125 -1.765625 -0.53125q-0.609375 -0.453125 -0.609375 -1.328125l0 -0.078125q0 -0.46875 0.203125 -0.8125q0.203125 -0.359375 0.53125 -0.59375q0.34375 -0.25 0.765625 -0.359375q0.4375 -0.125 0.90625 -0.125q0.65625 0 1.140625 0.1875q0.5 0.171875 0.828125 0.46875q0.328125 0.28125 0.5 0.65625q0.1875 0.359375 0.25 0.734375l-0.984375 0.25q-0.078125 -0.640625 -0.53125 -1.0q-0.4375 -0.359375 -1.15625 -0.359375q-0.28125 0 -0.546875 0.0625q-0.25 0.046875 -0.453125 0.171875q-0.203125 0.125 -0.328125 0.3125q-0.109375 0.171875 -0.109375 0.40625zm6.406784 -1.703125l2.40625 0l0 0.875l0.15625 0q0.25 -0.546875 0.71875 -0.796875q0.46875 -0.265625 1.0624924 -0.265625q1.0 0 1.609375 0.65625q0.625 0.65625 0.65625 1.90625l-1.09375 0.15625q0 -0.921875 -0.4375 -1.328125q-0.4375 -0.40625 -1.0781174 -0.40625q-0.40625 0 -0.71875 0.171875q-0.296875 0.15625 -0.5 0.4375q-0.1875 0.265625 -0.28125 0.640625q-0.09375 0.375 -0.09375 0.796875l0 2.8125l1.671875 0l0 0.953125l-4.234375 0l0 -0.953125l1.515625 0l0 -4.703125l-1.359375 0l0 -0.953125zm8.344276 7.25l6.21875 0l0 0.953125l-6.21875 0l0 -0.953125zm9.109909 -3.625q0.03125 0.984375 0.609375 1.59375q0.578125 0.59375 1.59375 0.59375q0.46875 0 0.8125 -0.109375q0.359375 -0.109375 0.59375 -0.296875q0.25 -0.1875 0.40625 -0.421875q0.15625 -0.25 0.25 -0.53125l0.984375 0.265625q-0.28125 0.921875 -1.03125 1.5q-0.75 0.578125 -2.03125 0.578125q-0.703125 0 -1.296875 -0.25q-0.59375 -0.25 -1.03125 -0.703125q-0.421875 -0.453125 -0.671875 -1.078125q-0.234375 -0.625 -0.234375 -1.375l0 -0.328125q0 -0.6875 0.25 -1.28125q0.25 -0.609375 0.6875 -1.03125q0.4375 -0.4375 1.03125 -0.6875q0.59375 -0.25 1.28125 -0.25q0.8125 0 1.40625 0.296875q0.59375 0.296875 0.96875 0.75q0.390625 0.4375 0.5625 0.953125q0.1875 0.515625 0.1875 0.953125l0 0.859375l-5.328125 0zm2.203125 -2.828125q-0.4375 0 -0.8125 0.140625q-0.375 0.140625 -0.671875 0.390625q-0.28125 0.25 -0.46875 0.59375q-0.171875 0.34375 -0.21875 0.75l4.25 0q-0.015625 -0.4375 -0.203125 -0.78125q-0.171875 -0.34375 -0.46875 -0.578125q-0.28125 -0.25 -0.65625 -0.375q-0.359375 -0.140625 -0.75 -0.140625zm6.234909 5.8125l-1.046875 0l0 -6.609375l1.046875 0l0 1.125l0.15625 0q0.609375 -1.3125 2.125 -1.3125q1.15625 0 1.828125 0.71875q0.6875 0.703125 0.6875 2.140625l0 3.9375l-1.046875 0l0 -3.734375q0 -1.03125 -0.46875 -1.546875q-0.453125 -0.53125 -1.265625 -0.53125q-0.9375 0 -1.484375 0.65625q-0.53125 0.640625 -0.53125 1.71875l0 3.4375z" fill-rule="nonzero"/><path fill="#ffffff" d="m391.18896 12.816273l64.37796 0l0 233.44882l-64.37796 0z" fill-rule="evenodd"/><path stroke="#000000" stroke-width="3.0" stroke-linejoin="round" stroke-linecap="butt" d="m391.18896 12.816273l64.37796 0l0 233.44882l-64.37796 0z" fill-rule="evenodd"/><path fill="#000000" d="m410.22064 121.700066l0 -1.546875l3.046875 -1.9375l0 -0.171875l-5.28125 0l0 -1.03125l6.234375 0l0 1.703125l-3.03125 1.953125l0 0.15625l0.53125 0q0.53125 0 1.015625 0.171875q0.5 0.171875 0.875 0.515625q0.390625 0.328125 0.609375 0.8125q0.234375 0.484375 0.234375 1.125l0 0.234375q0 0.609375 -0.234375 1.125q-0.234375 0.515625 -0.671875 0.90625q-0.421875 0.375 -1.0 0.59375q-0.578125 0.21875 -1.265625 0.21875q-0.78125 0 -1.40625 -0.234375q-0.625 -0.25 -1.0625 -0.671875q-0.4375 -0.421875 -0.671875 -0.984375q-0.234375 -0.5625 -0.234375 -1.203125l0 -0.71875l1.109375 0l0 0.640625q0 0.5 0.171875 0.90625q0.171875 0.390625 0.46875 0.671875q0.296875 0.265625 0.703125 0.40625q0.421875 0.140625 0.90625 0.140625q0.4375 0 0.8125 -0.140625q0.375 -0.140625 0.65625 -0.40625q0.28125 -0.265625 0.4375 -0.609375q0.171875 -0.359375 0.171875 -0.75l0 -0.09375q0 -0.828125 -0.53125 -1.296875q-0.53125 -0.484375 -1.34375 -0.484375l-1.25 0zm12.250519 3.59375l0 1.046875l-6.3125 0l0 -1.59375q0 -0.640625 0.203125 -1.109375q0.21875 -0.484375 0.609375 -0.8125q0.390625 -0.34375 0.953125 -0.5625q0.5625 -0.234375 1.265625 -0.40625q1.1875 -0.265625 1.703125 -0.75q0.53125 -0.5 0.53125 -1.21875l0 -0.078125q0 -0.359375 -0.125 -0.703125q-0.109375 -0.34375 -0.359375 -0.625q-0.25 -0.28125 -0.65625 -0.453125q-0.390625 -0.171875 -0.9375 -0.171875q-1.015625 0 -1.59375 0.640625q-0.5625 0.625 -0.5625 1.65625l0 0.59375l-1.109375 0l0 -0.671875q0 -0.640625 0.203125 -1.21875q0.21875 -0.59375 0.625 -1.046875q0.421875 -0.453125 1.03125 -0.71875q0.609375 -0.265625 1.40625 -0.265625q0.8125 0 1.40625 0.25q0.609375 0.25 1.0 0.65625q0.40625 0.40625 0.59375 0.921875q0.203125 0.5 0.203125 1.03125l0 0.25q0 1.0625 -0.671875 1.8125q-0.65625 0.75 -2.125 1.078125q-1.28125 0.28125 -1.890625 0.75q-0.59375 0.453125 -0.59375 1.328125l0 0.390625l5.203125 0zm1.7036743 -4.65625q0 -1.8125 0.859375 -2.8125q0.875 -1.0 2.421875 -1.0q1.546875 0 2.40625 1.0q0.875 1.0 0.875 2.8125l0 2.078125q0 1.859375 -0.875 2.84375q-0.859375 0.96875 -2.40625 0.96875q-1.546875 0 -2.421875 -0.96875q-0.859375 -0.984375 -0.859375 -2.84375l0 -2.078125zm3.28125 4.875q1.078125 0 1.609375 -0.75q0.546875 -0.75 0.546875 -2.125l0 -1.921875q0 -0.640625 -0.140625 -1.15625q-0.125 -0.53125 -0.40625 -0.90625q-0.265625 -0.390625 -0.671875 -0.59375q-0.40625 -0.21875 -0.9375 -0.21875q-0.546875 0 -0.953125 0.21875q-0.390625 0.203125 -0.671875 0.59375q-0.265625 0.375 -0.40625 0.90625q-0.125 0.515625 -0.125 1.15625l0 1.921875q0 1.375 0.53125 2.125q0.546875 0.75 1.625 0.75zm-0.859375 -3.84375q0 -0.34375 0.25 -0.59375q0.265625 -0.25 0.609375 -0.25q0.34375 0 0.59375 0.25q0.265625 0.25 0.265625 0.59375q0 0.359375 -0.265625 0.609375q-0.25 0.25 -0.59375 0.25q-0.34375 0 -0.609375 -0.25q-0.25 -0.25 -0.25 -0.609375zm6.891144 4.671875l-1.03125 0l0 -9.328125l1.03125 0l0 3.75l0.171875 0q0.34375 -0.59375 0.953125 -0.90625q0.609375 -0.3125 1.328125 -0.3125q0.625 0 1.171875 0.234375q0.546875 0.21875 0.953125 0.65625q0.421875 0.421875 0.671875 1.046875q0.25 0.625 0.25 1.421875l0 0.265625q0 0.8125 -0.25 1.4375q-0.234375 0.625 -0.65625 1.0625q-0.421875 0.421875 -0.984375 0.640625q-0.546875 0.21875 -1.171875 0.21875q-0.328125 0 -0.65625 -0.078125q-0.328125 -0.0625 -0.640625 -0.21875q-0.296875 -0.15625 -0.546875 -0.375q-0.25 -0.21875 -0.421875 -0.53125l-0.171875 0l0 1.015625zm2.21875 -0.796875q0.484375 0 0.875 -0.171875q0.40625 -0.171875 0.703125 -0.46875q0.296875 -0.3125 0.46875 -0.75q0.171875 -0.4375 0.171875 -0.984375l0 -0.265625q0 -0.53125 -0.171875 -0.96875q-0.171875 -0.4375 -0.46875 -0.75q-0.296875 -0.3125 -0.703125 -0.484375q-0.40625 -0.171875 -0.875 -0.171875q-0.46875 0 -0.875 0.1875q-0.390625 0.171875 -0.6875 0.5q-0.296875 0.3125 -0.484375 0.765625q-0.171875 0.4375 -0.171875 0.96875l0 0.171875q0 0.546875 0.171875 1.0q0.1875 0.4375 0.484375 0.765625q0.296875 0.3125 0.6875 0.484375q0.40625 0.171875 0.875 0.171875z" fill-rule="nonzero"/><path fill="#000000" d="m416.4868 133.01256l5.734375 0l0 1.03125l-4.609375 0l0 3.09375l4.53125 0l0 1.046875l-4.53125 0l0 4.15625l-1.125 0l0 -9.328125zm8.156799 0l5.734375 0l0 1.03125l-4.609375 0l0 3.09375l4.53125 0l0 1.046875l-4.53125 0l0 4.15625l-1.125 0l0 -9.328125z" fill-rule="nonzero"/><path fill="#ffffff" d="m479.11023 12.816273l64.37793 0l0 233.44882l-64.37793 0z" fill-rule="evenodd"/><path stroke="#000000" stroke-width="3.0" stroke-linejoin="round" stroke-linecap="butt" d="m479.11023 12.816273l64.37793 0l0 233.44882l-64.37793 0z" fill-rule="evenodd"/><path fill="#000000" d="m498.1419 113.700066l0 -1.546875l3.046875 -1.9375l0 -0.171875l-5.28125 0l0 -1.03125l6.234375 0l0 1.703125l-3.03125 1.953125l0 0.15625l0.53125 0q0.53125 0 1.015625 0.171875q0.5 0.171875 0.875 0.515625q0.390625 0.328125 0.609375 0.8125q0.234375 0.484375 0.234375 1.125l0 0.234375q0 0.609375 -0.234375 1.125q-0.234375 0.515625 -0.671875 0.90625q-0.421875 0.375 -1.0 0.59375q-0.578125 0.21875 -1.265625 0.21875q-0.78125 0 -1.40625 -0.234375q-0.625 -0.25 -1.0625 -0.671875q-0.4375 -0.421875 -0.671875 -0.984375q-0.234375 -0.5625 -0.234375 -1.203125l0 -0.71875l1.109375 0l0 0.640625q0 0.5 0.171875 0.90625q0.171875 0.390625 0.46875 0.671875q0.296875 0.265625 0.703125 0.40625q0.421875 0.140625 0.90625 0.140625q0.4375 0 0.8125 -0.140625q0.375 -0.140625 0.65625 -0.40625q0.28125 -0.265625 0.4375 -0.609375q0.171875 -0.359375 0.171875 -0.75l0 -0.09375q0 -0.828125 -0.53125 -1.296875q-0.53125 -0.484375 -1.34375 -0.484375l-1.25 0zm12.250519 3.59375l0 1.046875l-6.3125 0l0 -1.59375q0 -0.640625 0.203125 -1.109375q0.21875 -0.484375 0.609375 -0.8125q0.390625 -0.34375 0.953125 -0.5625q0.5625 -0.234375 1.265625 -0.40625q1.1875 -0.265625 1.703125 -0.75q0.53125 -0.5 0.53125 -1.21875l0 -0.078125q0 -0.359375 -0.125 -0.703125q-0.109375 -0.34375 -0.359375 -0.625q-0.25 -0.28125 -0.65625 -0.453125q-0.390625 -0.171875 -0.9375 -0.171875q-1.015625 0 -1.59375 0.640625q-0.5625 0.625 -0.5625 1.65625l0 0.59375l-1.109375 0l0 -0.671875q0 -0.640625 0.203125 -1.21875q0.21875 -0.59375 0.625 -1.046875q0.421875 -0.453125 1.03125 -0.71875q0.609375 -0.265625 1.40625 -0.265625q0.8125 0 1.40625 0.25q0.609375 0.25 1.0 0.65625q0.40625 0.40625 0.59375 0.921875q0.203125 0.5 0.203125 1.03125l0 0.25q0 1.0625 -0.671875 1.8125q-0.65625 0.75 -2.125 1.078125q-1.28125 0.28125 -1.890625 0.75q-0.59375 0.453125 -0.59375 1.328125l0 0.390625l5.203125 0zm1.7036438 -4.65625q0 -1.8125 0.859375 -2.8125q0.875 -1.0 2.421875 -1.0q1.546875 0 2.40625 1.0q0.875 1.0 0.875 2.8125l0 2.078125q0 1.859375 -0.875 2.84375q-0.859375 0.96875 -2.40625 0.96875q-1.546875 0 -2.421875 -0.96875q-0.859375 -0.984375 -0.859375 -2.84375l0 -2.078125zm3.28125 4.875q1.078125 0 1.609375 -0.75q0.546875 -0.75 0.546875 -2.125l0 -1.921875q0 -0.640625 -0.140625 -1.15625q-0.125 -0.53125 -0.40625 -0.90625q-0.265625 -0.390625 -0.671875 -0.59375q-0.40625 -0.21875 -0.9375 -0.21875q-0.546875 0 -0.953125 0.21875q-0.390625 0.203125 -0.671875 0.59375q-0.265625 0.375 -0.40625 0.90625q-0.125 0.515625 -0.125 1.15625l0 1.921875q0 1.375 0.53125 2.125q0.546875 0.75 1.625 0.75zm-0.859375 -3.84375q0 -0.34375 0.25 -0.59375q0.265625 -0.25 0.609375 -0.25q0.34375 0 0.59375 0.25q0.265625 0.25 0.265625 0.59375q0 0.359375 -0.265625 0.609375q-0.25 0.25 -0.59375 0.25q-0.34375 0 -0.609375 -0.25q-0.25 -0.25 -0.25 -0.609375zm6.8911743 4.671875l-1.03125 0l0 -9.328125l1.03125 0l0 3.75l0.171875 0q0.34375 -0.59375 0.953125 -0.90625q0.609375 -0.3125 1.328125 -0.3125q0.625 0 1.171875 0.234375q0.546875 0.21875 0.953125 0.65625q0.421875 0.421875 0.671875 1.046875q0.25 0.625 0.25 1.421875l0 0.265625q0 0.8125 -0.25 1.4375q-0.234375 0.625 -0.65625 1.0625q-0.421875 0.421875 -0.984375 0.640625q-0.546875 0.21875 -1.171875 0.21875q-0.328125 0 -0.65625 -0.078125q-0.328125 -0.0625 -0.640625 -0.21875q-0.296875 -0.15625 -0.546875 -0.375q-0.25 -0.21875 -0.421875 -0.53125l-0.171875 0l0 1.015625zm2.21875 -0.796875q0.484375 0 0.875 -0.171875q0.40625 -0.171875 0.703125 -0.46875q0.296875 -0.3125 0.46875 -0.75q0.171875 -0.4375 0.171875 -0.984375l0 -0.265625q0 -0.53125 -0.171875 -0.96875q-0.171875 -0.4375 -0.46875 -0.75q-0.296875 -0.3125 -0.703125 -0.484375q-0.40625 -0.171875 -0.875 -0.171875q-0.46875 0 -0.875 0.1875q-0.390625 0.171875 -0.6875 0.5q-0.296875 0.3125 -0.484375 0.765625q-0.171875 0.4375 -0.171875 0.96875l0 0.171875q0 0.546875 0.171875 1.0q0.1875 0.4375 0.484375 0.765625q0.296875 0.3125 0.6875 0.484375q0.40625 0.171875 0.875 0.171875z" fill-rule="nonzero"/><path fill="#000000" d="m504.07993 127.731316l2.078125 0l0 -2.71875l1.03125 0l0 2.71875l2.5625 0l0 0.9531174l-2.5625 0l0 4.296875q0 0.40625 0.359375 0.40625l1.890625 0l0 0.953125l-2.265625 0q-0.453125 0 -0.734375 -0.296875q-0.28125 -0.296875 -0.28125 -0.75l0 -4.609375l-2.078125 0l0 -0.9531174zm14.609894 3.3906174q0 0.8125 -0.28125 1.453125q-0.265625 0.625 -0.71875 1.0625q-0.453125 0.4375 -1.0625 0.671875q-0.59375 0.21875 -1.25 0.21875q-0.671875 0 -1.265625 -0.21875q-0.59375 -0.234375 -1.046875 -0.671875q-0.453125 -0.4375 -0.734375 -1.0625q-0.265625 -0.640625 -0.265625 -1.453125l0 -0.171875q0 -0.8125 0.265625 -1.4375q0.28125 -0.640625 0.734375 -1.078125q0.453125 -0.43749237 1.046875 -0.6562424q0.609375 -0.234375 1.265625 -0.234375q0.65625 0 1.25 0.234375q0.609375 0.21875 1.0625 0.6562424q0.453125 0.4375 0.71875 1.078125q0.28125 0.625 0.28125 1.4375l0 0.171875zm-3.3125 2.421875q0.484375 0 0.890625 -0.171875q0.40625 -0.171875 0.703125 -0.484375q0.3125 -0.3125 0.484375 -0.765625q0.171875 -0.453125 0.171875 -1.0l0 -0.171875q0 -0.53125 -0.171875 -0.96875q-0.171875 -0.453125 -0.484375 -0.765625q-0.296875 -0.328125 -0.71875 -0.5q-0.40625 -0.1875 -0.875 -0.1875q-0.46875 0 -0.890625 0.1875q-0.40625 0.171875 -0.71875 0.5q-0.296875 0.3125 -0.46875 0.765625q-0.171875 0.4375 -0.171875 0.96875l0 0.171875q0 0.546875 0.171875 1.0q0.171875 0.453125 0.46875 0.765625q0.3125 0.3125 0.71875 0.484375q0.40625 0.171875 0.890625 0.171875z" fill-rule="nonzero"/><path fill="#000000" d="m494.48538 149.29381l0 -7.796875l-0.15625 0l-1.53125 3.515625l-1.109375 0l0 -0.078125l1.75 -3.921875l2.171875 0l0 8.28125l2.640625 0l0 1.046875l-6.390625 0l0 -1.046875l2.625 0zm10.609894 -5.5625q0 -0.875 -0.53125 -1.390625q-0.53125 -0.53125 -1.46875 -0.53125q-0.453125 0 -0.84375 0.171875q-0.375 0.15625 -0.65625 0.453125q-0.265625 0.296875 -0.421875 0.71875q-0.15625 0.40625 -0.15625 0.890625l0 1.390625l0.171875 0q0.3125 -0.578125 0.90625 -0.90625q0.59375 -0.34375 1.328125 -0.34375q0.640625 0 1.1875 0.203125q0.546875 0.203125 0.9375 0.609375q0.390625 0.40625 0.609375 0.96875q0.21875 0.5625 0.21875 1.28125l0 0.15625q0 0.703125 -0.25 1.28125q-0.234375 0.5625 -0.671875 0.984375q-0.4375 0.40625 -1.03125 0.640625q-0.59375 0.21875 -1.28125 0.21875q-0.6875 0 -1.28125 -0.21875q-0.59375 -0.234375 -1.03125 -0.640625q-0.4375 -0.40625 -0.6875 -0.96875q-0.234375 -0.578125 -0.234375 -1.25l0 -3.40625q0 -0.734375 0.25 -1.328125q0.25 -0.59375 0.6875 -1.015625q0.4375 -0.421875 1.015625 -0.640625q0.59375 -0.234375 1.25 -0.234375q0.671875 0 1.234375 0.203125q0.578125 0.203125 0.984375 0.578125q0.421875 0.375 0.65625 0.921875q0.234375 0.53125 0.234375 1.203125l-1.125 0zm-1.953125 5.8125q0.484375 0 0.875 -0.15625q0.390625 -0.15625 0.671875 -0.4375q0.28125 -0.28125 0.421875 -0.65625q0.15625 -0.390625 0.15625 -0.859375l0 -0.15625q0 -0.46875 -0.171875 -0.859375q-0.15625 -0.390625 -0.4375 -0.65625q-0.28125 -0.28125 -0.671875 -0.4375q-0.390625 -0.15625 -0.84375 -0.15625q-0.453125 0 -0.84375 0.171875q-0.375 0.15625 -0.671875 0.4375q-0.28125 0.265625 -0.453125 0.640625q-0.15625 0.375 -0.15625 0.796875l0 0.265625q0 0.4375 0.140625 0.8125q0.15625 0.375 0.4375 0.65625q0.28125 0.28125 0.671875 0.4375q0.390625 0.15625 0.875 0.15625zm4.8755493 -4.90625q0 -1.8125 0.859375 -2.8125q0.875 -1.0 2.421875 -1.0q1.546875 0 2.40625 1.0q0.875 1.0 0.875 2.8125l0 2.078125q0 1.859375 -0.875 2.84375q-0.859375 0.96875 -2.40625 0.96875q-1.546875 0 -2.421875 -0.96875q-0.859375 -0.984375 -0.859375 -2.84375l0 -2.078125zm3.28125 4.875q1.078125 0 1.609375 -0.75q0.546875 -0.75 0.546875 -2.125l0 -1.921875q0 -0.640625 -0.140625 -1.15625q-0.125 -0.53125 -0.40625 -0.90625q-0.265625 -0.390625 -0.671875 -0.59375q-0.40625 -0.21875 -0.9375 -0.21875q-0.546875 0 -0.953125 0.21875q-0.390625 0.203125 -0.671875 0.59375q-0.265625 0.375 -0.40625 0.90625q-0.125 0.515625 -0.125 1.15625l0 1.921875q0 1.375 0.53125 2.125q0.546875 0.75 1.625 0.75zm-0.859375 -3.84375q0 -0.34375 0.25 -0.59375q0.265625 -0.25 0.609375 -0.25q0.34375 0 0.59375 0.25q0.265625 0.25 0.265625 0.59375q0 0.359375 -0.265625 0.609375q-0.25 0.25 -0.59375 0.25q-0.34375 0 -0.609375 -0.25q-0.25 -0.25 -0.25 -0.609375zm5.7349243 -1.03125q0 -1.8125 0.859375 -2.8125q0.875 -1.0 2.421875 -1.0q1.546875 0 2.40625 1.0q0.875 1.0 0.875 2.8125l0 2.078125q0 1.859375 -0.875 2.84375q-0.859375 0.96875 -2.40625 0.96875q-1.546875 0 -2.421875 -0.96875q-0.859375 -0.984375 -0.859375 -2.84375l0 -2.078125zm3.28125 4.875q1.078125 0 1.609375 -0.75q0.546875 -0.75 0.546875 -2.125l0 -1.921875q0 -0.640625 -0.140625 -1.15625q-0.125 -0.53125 -0.40625 -0.90625q-0.265625 -0.390625 -0.671875 -0.59375q-0.40625 -0.21875 -0.9375 -0.21875q-0.546875 0 -0.953125 0.21875q-0.390625 0.203125 -0.671875 0.59375q-0.265625 0.375 -0.40625 0.90625q-0.125 0.515625 -0.125 1.15625l0 1.921875q0 1.375 0.53125 2.125q0.546875 0.75 1.625 0.75zm-0.859375 -3.84375q0 -0.34375 0.25 -0.59375q0.265625 -0.25 0.609375 -0.25q0.34375 0 0.59375 0.25q0.265625 0.25 0.265625 0.59375q0 0.359375 -0.265625 0.609375q-0.25 0.25 -0.59375 0.25q-0.34375 0 -0.609375 -0.25q-0.25 -0.25 -0.25 -0.609375zm6.8911133 4.671875l-1.03125 0l0 -9.328125l1.03125 0l0 3.75l0.171875 0q0.34375 -0.59375 0.953125 -0.90625q0.609375 -0.3125 1.328125 -0.3125q0.625 0 1.171875 0.234375q0.546875 0.21875 0.953125 0.65625q0.421875 0.421875 0.671875 1.046875q0.25 0.625 0.25 1.421875l0 0.265625q0 0.8125 -0.25 1.4375q-0.234375 0.625 -0.65625 1.0625q-0.421875 0.421875 -0.984375 0.640625q-0.546875 0.21875 -1.171875 0.21875q-0.328125 0 -0.65625 -0.078125q-0.328125 -0.0625 -0.640625 -0.21875q-0.296875 -0.15625 -0.546875 -0.375q-0.25 -0.21875 -0.421875 -0.53125l-0.171875 0l0 1.015625zm2.21875 -0.796875q0.484375 0 0.875 -0.171875q0.40625 -0.171875 0.703125 -0.46875q0.296875 -0.3125 0.46875 -0.75q0.171875 -0.4375 0.171875 -0.984375l0 -0.265625q0 -0.53125 -0.171875 -0.96875q-0.171875 -0.4375 -0.46875 -0.75q-0.296875 -0.3125 -0.703125 -0.484375q-0.40625 -0.171875 -0.875 -0.171875q-0.46875 0 -0.875 0.1875q-0.390625 0.171875 -0.6875 0.5q-0.296875 0.3125 -0.484375 0.765625q-0.171875 0.4375 -0.171875 0.96875l0 0.171875q0 0.546875 0.171875 1.0q0.1875 0.4375 0.484375 0.765625q0.296875 0.3125 0.6875 0.484375q0.40625 0.171875 0.875 0.171875z" fill-rule="nonzero"/><path fill="#000000" fill-opacity="0.0" d="m309.2053 61.834446l81.98425 0" fill-rule="evenodd"/><path stroke="#000000" stroke-width="2.0" stroke-linejoin="round" stroke-linecap="butt" d="m309.2053 61.834446l75.1301 0" fill-rule="evenodd"/><path fill="#000000" stroke="#000000" stroke-width="2.0" stroke-linecap="butt" d="m384.3354 61.834446l-2.249176 2.2491646l6.179535 -2.2491646l-6.179535 -2.2491684z" fill-rule="evenodd"/><path fill="#000000" fill-opacity="0.0" d="m319.00916 30.27559l72.188965 0l0 31.559053l-72.188965 0z" fill-rule="evenodd"/><path fill="#000000" d="m337.24292 44.728394q0 0.484375 0.40625 0.734375q0.40625 0.25 1.484375 0.328125q1.15625 0.09375 1.765625 0.5625q0.609375 0.453125 0.609375 1.328125l0 0.09375q0 0.46875 -0.203125 0.859375q-0.1875 0.375 -0.53125 0.640625q-0.328125 0.265625 -0.8125 0.40625q-0.484375 0.140625 -1.0625 0.140625q-0.78125 0 -1.328125 -0.203125q-0.546875 -0.21875 -0.921875 -0.546875q-0.359375 -0.34375 -0.546875 -0.765625q-0.1875 -0.4375 -0.21875 -0.890625l0.984375 -0.234375q0.0625 0.765625 0.578125 1.234375q0.53125 0.453125 1.390625 0.453125q0.734375 0 1.171875 -0.28125q0.453125 -0.296875 0.453125 -0.8125q0 -0.5625 -0.4375 -0.796875q-0.4375 -0.25 -1.421875 -0.3125q-1.140625 -0.078125 -1.765625 -0.53125q-0.609375 -0.453125 -0.609375 -1.328125l0 -0.078125q0 -0.46875 0.203125 -0.8125q0.203125 -0.359375 0.53125 -0.59375q0.34375 -0.25 0.765625 -0.359375q0.4375 -0.125 0.90625 -0.125q0.65625 0 1.140625 0.1875q0.5 0.171875 0.828125 0.46875q0.328125 0.28125 0.5 0.65625q0.1875 0.359375 0.25 0.734375l-0.984375 0.25q-0.078125 -0.640625 -0.53125 -1.0q-0.4375 -0.359375 -1.15625 -0.359375q-0.28125 0 -0.546875 0.0625q-0.25 0.046875 -0.453125 0.171875q-0.203125 0.125 -0.328125 0.3125q-0.109375 0.171875 -0.109375 0.40625zm6.5630493 -1.703125l2.078125 0l0 -2.71875l1.03125 0l0 2.71875l2.5625 0l0 0.953125l-2.5625 0l0 4.296875q0 0.40625 0.359375 0.40625l1.890625 0l0 0.953125l-2.265625 0q-0.453125 0 -0.734375 -0.296875q-0.28125 -0.296875 -0.28125 -0.75l0 -4.609375l-2.078125 0l0 -0.953125zm13.172394 5.484375l-0.15625 0q-0.3125 0.671875 -0.890625 1.0q-0.5625 0.3125 -1.1875 0.3125q-0.65625 0 -1.21875 -0.21875q-0.546875 -0.21875 -0.96875 -0.65625q-0.421875 -0.4375 -0.671875 -1.0625q-0.234375 -0.625 -0.234375 -1.453125l0 -0.203125q0 -0.8125 0.234375 -1.4375q0.25 -0.640625 0.671875 -1.0625q0.421875 -0.4375 0.96875 -0.65625q0.5625 -0.234375 1.1875 -0.234375q0.6875 0 1.234375 0.296875q0.5625 0.296875 0.875 0.921875l0.15625 0l0 -1.03125l1.046875 0l0 5.25q0 0.40625 0.359375 0.40625l0.328125 0l0 0.953125l-0.703125 0q-0.453125 0 -0.75 -0.296875q-0.28125 -0.296875 -0.28125 -0.75l0 -0.078125zm-2.125 0.328125q0.46875 0 0.859375 -0.171875q0.390625 -0.171875 0.671875 -0.484375q0.28125 -0.328125 0.4375 -0.765625q0.15625 -0.453125 0.15625 -1.0l0 -0.171875q0 -0.53125 -0.15625 -0.96875q-0.15625 -0.453125 -0.453125 -0.765625q-0.28125 -0.328125 -0.671875 -0.5q-0.390625 -0.1875 -0.84375 -0.1875q-0.46875 0 -0.859375 0.171875q-0.390625 0.171875 -0.671875 0.484375q-0.28125 0.3125 -0.453125 0.765625q-0.15625 0.453125 -0.15625 0.984375l0 0.203125q0 1.140625 0.59375 1.78125q0.59375 0.625 1.546875 0.625zm5.2661743 -5.8125l2.078125 0l0 -2.71875l1.03125 0l0 2.71875l2.5625 0l0 0.953125l-2.5625 0l0 4.296875q0 0.40625 0.359375 0.40625l1.890625 0l0 0.953125l-2.265625 0q-0.453125 0 -0.734375 -0.296875q-0.28125 -0.296875 -0.28125 -0.75l0 -4.609375l-2.078125 0l0 -0.953125zm9.141144 3.625q0.03125 0.984375 0.609375 1.59375q0.578125 0.59375 1.59375 0.59375q0.46875 0 0.8125 -0.109375q0.359375 -0.109375 0.59375 -0.296875q0.25 -0.1875 0.40625 -0.421875q0.15625 -0.25 0.25 -0.53125l0.984375 0.265625q-0.28125 0.921875 -1.03125 1.5q-0.75 0.578125 -2.03125 0.578125q-0.703125 0 -1.296875 -0.25q-0.59375 -0.25 -1.03125 -0.703125q-0.421875 -0.453125 -0.671875 -1.078125q-0.234375 -0.625 -0.234375 -1.375l0 -0.328125q0 -0.6875 0.25 -1.28125q0.25 -0.609375 0.6875 -1.03125q0.4375 -0.4375 1.03125 -0.6875q0.59375 -0.25 1.28125 -0.25q0.8125 0 1.40625 0.296875q0.59375 0.296875 0.96875 0.75q0.390625 0.4375 0.5625 0.953125q0.1875 0.515625 0.1875 0.953125l0 0.859375l-5.328125 0zm2.203125 -2.828125q-0.4375 0 -0.8125 0.140625q-0.375 0.140625 -0.671875 0.390625q-0.28125 0.25 -0.46875 0.59375q-0.171875 0.34375 -0.21875 0.75l4.25 0q-0.015625 -0.4375 -0.203125 -0.78125q-0.171875 -0.34375 -0.46875 -0.578125q-0.28125 -0.25 -0.65625 -0.375q-0.359375 -0.140625 -0.75 -0.140625z" fill-rule="nonzero"/><path fill="#000000" fill-opacity="0.0" d="m329.63254 61.372704l0 150.25214l61.228363 0l0 -0.7088318" fill-rule="evenodd"/><path stroke="#000000" stroke-width="2.0" stroke-linejoin="round" stroke-linecap="butt" d="m329.63254 61.372704l0 150.25214l54.41092 0" fill-rule="evenodd"/><path fill="#000000" stroke="#000000" stroke-width="2.0" stroke-linecap="butt" d="m384.04346 211.62483l-2.004486 2.4697113l5.913788 -2.8761597l-6.378998 -1.598053z" fill-rule="evenodd"/><path fill="#000000" fill-opacity="0.0" d="m376.02753 93.4462l0 72.18898l-31.559052 0l0 -72.18898z" fill-rule="evenodd"/><path fill="#000000" d="m357.41846 112.289345q0.390625 0 0.65625 0.265625q0.265625 0.28125 0.265625 0.671875q0 0.390625 -0.265625 0.65625q-0.265625 0.28125 -0.65625 0.28125q-0.390625 0 -0.671875 -0.28125q-0.265625 -0.265625 -0.265625 -0.65625q0 -0.390625 0.265625 -0.671875q0.28125 -0.265625 0.671875 -0.265625zm0 16.313576q0.390625 0 0.65625 0.265625q0.265625 0.28125 0.265625 0.671875q0 0.390625 -0.265625 0.65625q-0.265625 0.28125 -0.65625 0.28125q-0.390625 0 -0.671875 -0.28125q-0.265625 -0.265625 -0.265625 -0.65625q0 -0.390625 0.265625 -0.671875q0.28125 -0.265625 0.671875 -0.265625zm0 16.313568q0.390625 0 0.65625 0.265625q0.265625 0.28125 0.265625 0.671875q0 0.390625 -0.265625 0.65625q-0.265625 0.28125 -0.65625 0.28125q-0.390625 0 -0.671875 -0.28125q-0.265625 -0.265625 -0.265625 -0.65625q0 -0.390625 0.265625 -0.671875q0.28125 -0.265625 0.671875 -0.265625z" fill-rule="nonzero"/><path fill="#000000" fill-opacity="0.0" d="m543.48706 129.54048l120.12598 0" fill-rule="evenodd"/><path stroke="#000000" stroke-width="3.0" stroke-linejoin="round" stroke-linecap="butt" d="m543.48706 129.54048l109.84473 0" fill-rule="evenodd"/><path fill="#000000" stroke="#000000" stroke-width="3.0" stroke-linecap="butt" d="m653.3318 129.54048l-3.3737183 3.373764l9.269287 -3.373764l-9.269287 -3.3737411z" fill-rule="evenodd"/><path fill="#000000" fill-opacity="0.0" d="m543.48846 97.98163l120.12598 0l0 31.559052l-120.12598 0z" fill-rule="evenodd"/><path fill="#000000" d="m568.76776 114.35631q0.03125 0.984375 0.609375 1.59375q0.578125 0.59375 1.59375 0.59375q0.46875 0 0.8125 -0.109375q0.359375 -0.109375 0.59375 -0.296875q0.25 -0.1875 0.40625 -0.421875q0.15625 -0.25 0.25 -0.53125l0.984375 0.265625q-0.28125 0.921875 -1.03125 1.5q-0.75 0.578125 -2.03125 0.578125q-0.703125 0 -1.296875 -0.25q-0.59375 -0.25 -1.03125 -0.703125q-0.421875 -0.453125 -0.671875 -1.078125q-0.234375 -0.625 -0.234375 -1.375l0 -0.328125q0 -0.6875 0.25 -1.28125q0.25 -0.609375 0.6875 -1.03125q0.4375 -0.4375 1.03125 -0.6875q0.59375 -0.25 1.28125 -0.25q0.8125 0 1.40625 0.296875q0.59375 0.296875 0.96875 0.75q0.390625 0.4375 0.5625 0.953125q0.1875 0.515625 0.1875 0.953125l0 0.859375l-5.328125 0zm2.203125 -2.828125q-0.4375 0 -0.8125 0.140625q-0.375 0.140625 -0.671875 0.390625q-0.28125 0.25 -0.46875 0.59375q-0.171875 0.34375 -0.21875 0.75l4.25 0q-0.015625 -0.4375 -0.203125 -0.78125q-0.171875 -0.34375 -0.46875 -0.578125q-0.28125 -0.25 -0.65625 -0.375q-0.359375 -0.140625 -0.75 -0.140625zm6.2349243 5.8125l-1.046875 0l0 -6.609375l1.046875 0l0 1.125l0.15625 0q0.609375 -1.3125 2.125 -1.3125q1.15625 0 1.828125 0.71875q0.6875 0.703125 0.6875 2.140625l0 3.9375l-1.046875 0l0 -3.734375q0 -1.03125 -0.46875 -1.546875q-0.453125 -0.53125 -1.265625 -0.53125q-0.9375 0 -1.484375 0.65625q-0.53125 0.640625 -0.53125 1.71875l0 3.4375zm6.8911743 -6.609375l2.078125 0l0 -2.71875l1.03125 0l0 2.71875l2.5625 0l0 0.953125l-2.5625 0l0 4.296875q0 0.40625 0.359375 0.40625l1.890625 0l0 0.953125l-2.265625 0q-0.453125 0 -0.734375 -0.296875q-0.28125 -0.296875 -0.28125 -0.75l0 -4.609375l-2.078125 0l0 -0.953125zm8.000549 0l2.40625 0l0 0.875l0.15625 0q0.25 -0.546875 0.71875 -0.796875q0.46875 -0.265625 1.0625 -0.265625q1.0 0 1.609375 0.65625q0.625 0.65625 0.65625 1.90625l-1.09375 0.15625q0 -0.921875 -0.4375 -1.328125q-0.4375 -0.40625 -1.078125 -0.40625q-0.40625 0 -0.71875 0.171875q-0.296875 0.15625 -0.5 0.4375q-0.1875 0.265625 -0.28125 0.640625q-0.09375 0.375 -0.09375 0.796875l0 2.8125l1.671875 0l0 0.953125l-4.234375 0l0 -0.953125l1.515625 0l0 -4.703125l-1.359375 0l0 -0.953125zm14.766113 3.390625q0 0.8125 -0.28125 1.453125q-0.265625 0.625 -0.71875 1.0625q-0.453125 0.4375 -1.0625 0.671875q-0.59375 0.21875 -1.25 0.21875q-0.671875 0 -1.265625 -0.21875q-0.59375 -0.234375 -1.046875 -0.671875q-0.453125 -0.4375 -0.734375 -1.0625q-0.265625 -0.640625 -0.265625 -1.453125l0 -0.171875q0 -0.8125 0.265625 -1.4375q0.28125 -0.640625 0.734375 -1.078125q0.453125 -0.4375 1.046875 -0.65625q0.609375 -0.234375 1.265625 -0.234375q0.65625 0 1.25 0.234375q0.609375 0.21875 1.0625 0.65625q0.453125 0.4375 0.71875 1.078125q0.28125 0.625 0.28125 1.4375l0 0.171875zm-3.3125 2.421875q0.484375 0 0.890625 -0.171875q0.40625 -0.171875 0.703125 -0.484375q0.3125 -0.3125 0.484375 -0.765625q0.171875 -0.453125 0.171875 -1.0l0 -0.171875q0 -0.53125 -0.171875 -0.96875q-0.171875 -0.453125 -0.484375 -0.765625q-0.296875 -0.328125 -0.71875 -0.5q-0.40625 -0.1875 -0.875 -0.1875q-0.46875 0 -0.890625 0.1875q-0.40625 0.171875 -0.71875 0.5q-0.296875 0.3125 -0.46875 0.765625q-0.171875 0.4375 -0.171875 0.96875l0 0.171875q0 0.546875 0.171875 1.0q0.171875 0.453125 0.46875 0.765625q0.3125 0.3125 0.71875 0.484375q0.40625 0.171875 0.890625 0.171875zm6.0317993 3.46875l-1.03125 0l0 -9.28125l1.03125 0l0 1.03125l0.171875 0q0.34375 -0.59375 0.953125 -0.90625q0.609375 -0.3125 1.328125 -0.3125q0.625 0 1.171875 0.234375q0.546875 0.21875 0.953125 0.65625q0.421875 0.421875 0.671875 1.046875q0.25 0.625 0.25 1.421875l0 0.265625q0 0.8125 -0.25 1.4375q-0.234375 0.625 -0.65625 1.0625q-0.421875 0.421875 -0.984375 0.640625q-0.546875 0.21875 -1.171875 0.21875q-0.328125 0 -0.65625 -0.078125q-0.328125 -0.0625 -0.640625 -0.21875q-0.296875 -0.15625 -0.546875 -0.375q-0.25 -0.21875 -0.421875 -0.53125l-0.171875 0l0 3.6875zm2.21875 -3.46875q0.484375 0 0.875 -0.171875q0.40625 -0.171875 0.703125 -0.46875q0.296875 -0.3125 0.46875 -0.75q0.171875 -0.4375 0.171875 -0.984375l0 -0.265625q0 -0.53125 -0.171875 -0.96875q-0.171875 -0.4375 -0.46875 -0.75q-0.296875 -0.3125 -0.703125 -0.484375q-0.40625 -0.171875 -0.875 -0.171875q-0.46875 0 -0.875 0.1875q-0.390625 0.171875 -0.6875 0.5q-0.296875 0.3125 -0.484375 0.765625q-0.171875 0.4375 -0.171875 0.96875l0 0.171875q0 0.546875 0.171875 1.0q0.1875 0.4375 0.484375 0.765625q0.296875 0.3125 0.6875 0.484375q0.40625 0.171875 0.875 0.171875zm9.938049 -0.40625l-0.15625 0q-0.3125 0.640625 -0.84375 1.015625q-0.515625 0.375 -1.3125 0.375q-0.546875 0 -1.015625 -0.1875q-0.453125 -0.171875 -0.78125 -0.53125q-0.328125 -0.359375 -0.515625 -0.890625q-0.171875 -0.53125 -0.171875 -1.25l0 -3.9375l1.046875 0l0 3.8125q0 1.03125 0.421875 1.515625q0.421875 0.484375 1.3125 0.484375q0.9375 0 1.46875 -0.640625q0.546875 -0.65625 0.546875 -1.734375l0 -3.4375l1.046875 0l0 8.234375q0 0.453125 -0.296875 0.75q-0.28125 0.296875 -0.734375 0.296875l-3.765625 0l0 -0.96875l3.390625 0q0.359375 0 0.359375 -0.390625l0 -2.515625zm3.1724243 1.84375l6.21875 0l0 0.953125l-6.21875 0l0 -0.953125zm14.578674 -3.859375q0 0.8125 -0.28125 1.453125q-0.265625 0.625 -0.71875 1.0625q-0.453125 0.4375 -1.0625 0.671875q-0.59375 0.21875 -1.25 0.21875q-0.671875 0 -1.265625 -0.21875q-0.59375 -0.234375 -1.046875 -0.671875q-0.453125 -0.4375 -0.734375 -1.0625q-0.265625 -0.640625 -0.265625 -1.453125l0 -0.171875q0 -0.8125 0.265625 -1.4375q0.28125 -0.640625 0.734375 -1.078125q0.453125 -0.4375 1.046875 -0.65625q0.609375 -0.234375 1.265625 -0.234375q0.65625 0 1.25 0.234375q0.609375 0.21875 1.0625 0.65625q0.453125 0.4375 0.71875 1.078125q0.28125 0.625 0.28125 1.4375l0 0.171875zm-3.3125 2.421875q0.484375 0 0.890625 -0.171875q0.40625 -0.171875 0.703125 -0.484375q0.3125 -0.3125 0.484375 -0.765625q0.171875 -0.453125 0.171875 -1.0l0 -0.171875q0 -0.53125 -0.171875 -0.96875q-0.171875 -0.453125 -0.484375 -0.765625q-0.296875 -0.328125 -0.71875 -0.5q-0.40625 -0.1875 -0.875 -0.1875q-0.46875 0 -0.890625 0.1875q-0.40625 0.171875 -0.71875 0.5q-0.296875 0.3125 -0.46875 0.765625q-0.171875 0.4375 -0.171875 0.96875l0 0.171875q0 0.546875 0.171875 1.0q0.171875 0.453125 0.46875 0.765625q0.3125 0.3125 0.71875 0.484375q0.40625 0.171875 0.890625 0.171875z" fill-rule="nonzero"/><path fill="#000000" fill-opacity="0.0" d="m543.48706 280.87906l120.12598 0" fill-rule="evenodd"/><path stroke="#000000" stroke-width="3.0" stroke-linejoin="round" stroke-linecap="butt" d="m543.48706 280.87906l109.84473 0" fill-rule="evenodd"/><path fill="#000000" stroke="#000000" stroke-width="3.0" stroke-linecap="butt" d="m653.3318 280.87906l-3.3737183 3.3737488l9.269287 -3.3737488l-9.269287 -3.3737488z" fill-rule="evenodd"/><path fill="#000000" fill-opacity="0.0" d="m543.48816 249.3202l128.66144 0l0 31.559067l-128.66144 0z" fill-rule="evenodd"/><path fill="#000000" d="m556.7217 265.6949q0.03125 0.984375 0.609375 1.59375q0.578125 0.59375 1.59375 0.59375q0.46875 0 0.8125 -0.109375q0.359375 -0.109375 0.59375 -0.296875q0.25 -0.1875 0.40625 -0.421875q0.15625 -0.25 0.25 -0.53125l0.984375 0.265625q-0.28125 0.921875 -1.03125 1.5q-0.75 0.578125 -2.03125 0.578125q-0.703125 0 -1.296875 -0.25q-0.59375 -0.25 -1.03125 -0.703125q-0.421875 -0.453125 -0.671875 -1.078125q-0.234375 -0.625 -0.234375 -1.375l0 -0.328125q0 -0.6875 0.25 -1.28125q0.25 -0.609375 0.6875 -1.03125q0.4375 -0.4375 1.03125 -0.6875q0.59375 -0.25 1.28125 -0.25q0.8125 0 1.40625 0.296875q0.59375 0.296875 0.96875 0.75q0.390625 0.4375 0.5625 0.953125q0.1875 0.515625 0.1875 0.953125l0 0.859375l-5.328125 0zm2.203125 -2.828125q-0.4375 0 -0.8125 0.140625q-0.375 0.140625 -0.671875 0.390625q-0.28125 0.25 -0.46875 0.59375q-0.171875 0.34375 -0.21875 0.75l4.25 0q-0.015625 -0.4375 -0.203125 -0.78125q-0.171875 -0.34375 -0.46875 -0.578125q-0.28125 -0.25 -0.65625 -0.375q-0.359375 -0.140625 -0.75 -0.140625zm6.2348633 5.8125l-1.046875 0l0 -6.609375l1.046875 0l0 1.125l0.15625 0q0.609375 -1.3125 2.125 -1.3125q1.15625 0 1.828125 0.71875q0.6875 0.703125 0.6875 2.140625l0 3.9375l-1.046875 0l0 -3.734375q0 -1.03125 -0.46875 -1.546875q-0.453125 -0.53125 -1.265625 -0.53125q-0.9375 0 -1.484375 0.65625q-0.53125 0.640625 -0.53125 1.71875l0 3.4375zm6.8911743 -6.609375l2.078125 0l0 -2.71875l1.03125 0l0 2.71875l2.5625 0l0 0.953125l-2.5625 0l0 4.296875q0 0.40625 0.359375 0.40625l1.890625 0l0 0.953125l-2.265625 0q-0.453125 0 -0.734375 -0.296875q-0.28125 -0.296875 -0.28125 -0.75l0 -4.609375l-2.078125 0l0 -0.953125zm8.000549 0l2.40625 0l0 0.875l0.15625 0q0.25 -0.546875 0.71875 -0.796875q0.46875 -0.265625 1.0625 -0.265625q1.0 0 1.609375 0.65625q0.625 0.65625 0.65625 1.90625l-1.09375 0.15625q0 -0.921875 -0.4375 -1.328125q-0.4375 -0.40625 -1.078125 -0.40625q-0.40625 0 -0.71875 0.171875q-0.296875 0.15625 -0.5 0.4375q-0.1875 0.265625 -0.28125 0.640625q-0.09375 0.375 -0.09375 0.796875l0 2.8125l1.671875 0l0 0.953125l-4.234375 0l0 -0.953125l1.515625 0l0 -4.703125l-1.359375 0l0 -0.953125zm14.766174 3.390625q0 0.8125 -0.28125 1.453125q-0.265625 0.625 -0.71875 1.0625q-0.453125 0.4375 -1.0625 0.671875q-0.59375 0.21875 -1.25 0.21875q-0.671875 0 -1.265625 -0.21875q-0.59375 -0.234375 -1.046875 -0.671875q-0.453125 -0.4375 -0.734375 -1.0625q-0.265625 -0.640625 -0.265625 -1.453125l0 -0.171875q0 -0.8125 0.265625 -1.4375q0.28125 -0.640625 0.734375 -1.078125q0.453125 -0.4375 1.046875 -0.65625q0.609375 -0.234375 1.265625 -0.234375q0.65625 0 1.25 0.234375q0.609375 0.21875 1.0625 0.65625q0.453125 0.4375 0.71875 1.078125q0.28125 0.625 0.28125 1.4375l0 0.171875zm-3.3125 2.421875q0.484375 0 0.890625 -0.171875q0.40625 -0.171875 0.703125 -0.484375q0.3125 -0.3125 0.484375 -0.765625q0.171875 -0.453125 0.171875 -1.0l0 -0.171875q0 -0.53125 -0.171875 -0.96875q-0.171875 -0.453125 -0.484375 -0.765625q-0.296875 -0.328125 -0.71875 -0.5q-0.40625 -0.1875 -0.875 -0.1875q-0.46875 0 -0.890625 0.1875q-0.40625 0.171875 -0.71875 0.5q-0.296875 0.3125 -0.46875 0.765625q-0.171875 0.4375 -0.171875 0.96875l0 0.171875q0 0.546875 0.171875 1.0q0.171875 0.453125 0.46875 0.765625q0.3125 0.3125 0.71875 0.484375q0.40625 0.171875 0.890625 0.171875zm6.0317383 3.46875l-1.03125 0l0 -9.28125l1.03125 0l0 1.03125l0.171875 0q0.34375 -0.59375 0.953125 -0.90625q0.609375 -0.3125 1.328125 -0.3125q0.625 0 1.171875 0.234375q0.546875 0.21875 0.953125 0.65625q0.421875 0.421875 0.671875 1.046875q0.25 0.625 0.25 1.421875l0 0.265625q0 0.8125 -0.25 1.4375q-0.234375 0.625 -0.65625 1.0625q-0.421875 0.421875 -0.984375 0.640625q-0.546875 0.21875 -1.171875 0.21875q-0.328125 0 -0.65625 -0.078125q-0.328125 -0.0625 -0.640625 -0.21875q-0.296875 -0.15625 -0.546875 -0.375q-0.25 -0.21875 -0.421875 -0.53125l-0.171875 0l0 3.6875zm2.21875 -3.46875q0.484375 0 0.875 -0.171875q0.40625 -0.171875 0.703125 -0.46875q0.296875 -0.3125 0.46875 -0.75q0.171875 -0.4375 0.171875 -0.984375l0 -0.265625q0 -0.53125 -0.171875 -0.96875q-0.171875 -0.4375 -0.46875 -0.75q-0.296875 -0.3125 -0.703125 -0.484375q-0.40625 -0.171875 -0.875 -0.171875q-0.46875 0 -0.875 0.1875q-0.390625 0.171875 -0.6875 0.5q-0.296875 0.3125 -0.484375 0.765625q-0.171875 0.4375 -0.171875 0.96875l0 0.171875q0 0.546875 0.171875 1.0q0.1875 0.4375 0.484375 0.765625q0.296875 0.3125 0.6875 0.484375q0.40625 0.171875 0.875 0.171875zm9.938049 -0.40625l-0.15625 0q-0.3125 0.640625 -0.84375 1.015625q-0.515625 0.375 -1.3125 0.375q-0.546875 0 -1.015625 -0.1875q-0.453125 -0.171875 -0.78125 -0.53125q-0.328125 -0.359375 -0.515625 -0.890625q-0.171875 -0.53125 -0.171875 -1.25l0 -3.9375l1.046875 0l0 3.8125q0 1.03125 0.421875 1.515625q0.421875 0.484375 1.3125 0.484375q0.9375 0 1.46875 -0.640625q0.546875 -0.65625 0.546875 -1.734375l0 -3.4375l1.046875 0l0 8.234375q0 0.453125 -0.296875 0.75q-0.28125 0.296875 -0.734375 0.296875l-3.765625 0l0 -0.96875l3.390625 0q0.359375 0 0.359375 -0.390625l0 -2.515625zm3.1724243 1.84375l6.21875 0l0 0.953125l-6.21875 0l0 -0.953125zm12.281799 -0.640625l-2.0625 0l-2.296875 -6.609375l1.21875 0l2.03125 6.125l0.15625 0l2.03125 -6.125l1.21875 0l-2.296875 6.609375zm9.016113 -1.125l-0.15625 0q-0.3125 0.671875 -0.890625 1.0q-0.5625 0.3125 -1.1875 0.3125q-0.65625 0 -1.21875 -0.21875q-0.546875 -0.21875 -0.96875 -0.65625q-0.421875 -0.4375 -0.671875 -1.0625q-0.234375 -0.625 -0.234375 -1.453125l0 -0.203125q0 -0.8125 0.234375 -1.4375q0.25 -0.640625 0.671875 -1.0625q0.421875 -0.4375 0.96875 -0.65625q0.5625 -0.234375 1.1875 -0.234375q0.6875 0 1.234375 0.296875q0.5625 0.296875 0.875 0.921875l0.15625 0l0 -1.03125l1.046875 0l0 5.25q0 0.40625 0.359375 0.40625l0.328125 0l0 0.953125l-0.703125 0q-0.453125 0 -0.75 -0.296875q-0.28125 -0.296875 -0.28125 -0.75l0 -0.078125zm-2.125 0.328125q0.46875 0 0.859375 -0.171875q0.390625 -0.171875 0.671875 -0.484375q0.28125 -0.328125 0.4375 -0.765625q0.15625 -0.453125 0.15625 -1.0l0 -0.171875q0 -0.53125 -0.15625 -0.96875q-0.15625 -0.453125 -0.453125 -0.765625q-0.28125 -0.328125 -0.671875 -0.5q-0.390625 -0.1875 -0.84375 -0.1875q-0.46875 0 -0.859375 0.171875q-0.390625 0.171875 -0.671875 0.484375q-0.28125 0.3125 -0.453125 0.765625q-0.15625 0.453125 -0.15625 0.984375l0 0.203125q0 1.140625 0.59375 1.78125q0.59375 0.625 1.546875 0.625zm5.4849243 -0.15625l2.40625 0l0 -7.421875l-2.328125 0l0 -0.953125l3.359375 0l0 8.375l2.40625 0l0 0.953125l-5.84375 0l0 -0.953125zm10.219299 -7.625q0 -0.390625 0.265625 -0.65625q0.28125 -0.28125 0.65625 -0.28125q0.390625 0 0.65625 0.28125q0.28125 0.265625 0.28125 0.65625q0 0.375 -0.28125 0.65625q-0.265625 0.265625 -0.65625 0.265625q-0.375 0 -0.65625 -0.265625q-0.265625 -0.28125 -0.265625 -0.65625zm-1.90625 7.625l2.328125 0l0 -4.703125l-2.078125 0l0 -0.953125l3.109375 0l0 5.65625l2.171875 0l0 0.953125l-5.53125 0l0 -0.953125zm13.125549 -0.0625l-0.15625 0q-0.171875 0.3125 -0.421875 0.546875q-0.234375 0.21875 -0.53125 0.375q-0.28125 0.140625 -0.609375 0.203125q-0.3125 0.078125 -0.609375 0.078125q-0.65625 0 -1.234375 -0.21875q-0.578125 -0.234375 -1.015625 -0.65625q-0.421875 -0.4375 -0.671875 -1.0625q-0.25 -0.640625 -0.25 -1.453125l0 -0.203125q0 -0.8125 0.25 -1.4375q0.265625 -0.640625 0.6875 -1.0625q0.421875 -0.4375 1.0 -0.65625q0.578125 -0.234375 1.21875 -0.234375q0.671875 0 1.265625 0.296875q0.59375 0.296875 0.921875 0.921875l0.15625 0l0 -3.75l1.03125 0l0 9.328125l-1.03125 0l0 -1.015625zm-2.21875 0.21875q0.46875 0 0.859375 -0.171875q0.40625 -0.171875 0.703125 -0.484375q0.3125 -0.328125 0.484375 -0.765625q0.171875 -0.453125 0.171875 -1.0l0 -0.171875q0 -0.53125 -0.171875 -0.96875q-0.171875 -0.453125 -0.484375 -0.765625q-0.296875 -0.328125 -0.703125 -0.5q-0.40625 -0.1875 -0.859375 -0.1875q-0.46875 0 -0.875 0.171875q-0.40625 0.171875 -0.703125 0.5q-0.296875 0.3125 -0.46875 0.765625q-0.15625 0.4375 -0.15625 0.96875l0 0.203125q0 0.5625 0.15625 1.0q0.171875 0.4375 0.46875 0.75q0.296875 0.3125 0.6875 0.484375q0.40625 0.171875 0.890625 0.171875z" fill-rule="nonzero"/><path fill="#000000" fill-opacity="0.0" d="m86.37896 318.3879l81.984245 0" fill-rule="evenodd"/><path stroke="#000000" stroke-width="2.0" stroke-linejoin="round" stroke-linecap="butt" d="m86.37896 318.3879l75.13007 0" fill-rule="evenodd"/><path fill="#000000" stroke="#000000" stroke-width="2.0" stroke-linecap="butt" d="m161.50903 318.3879l-2.2491608 2.2491455l6.179535 -2.2491455l-6.179535 -2.249176z" fill-rule="evenodd"/><path fill="#000000" fill-opacity="0.0" d="m58.632545 286.82944l109.73228 0l0 31.559052l-109.73228 0z" fill-rule="evenodd"/><path fill="#000000" d="m75.93352 297.61038q0 -0.390625 0.265625 -0.65625q0.28125 -0.28125 0.65625 -0.28125q0.390625 0 0.65625 0.28125q0.28125 0.265625 0.28125 0.65625q0 0.375 -0.28125 0.65625q-0.265625 0.265625 -0.65625 0.265625q-0.375 0 -0.65625 -0.265625q-0.265625 -0.28125 -0.265625 -0.65625zm-1.90625 7.625l2.328125 0l0 -4.703125l-2.078125 0l0 -0.953125l3.109375 0l0 5.65625l2.171875 0l0 0.953125l-5.53125 0l0 -0.953125zm9.047409 0.953125l-1.046875 0l0 -6.609375l1.046875 0l0 1.125l0.15625 0q0.609375 -1.3125 2.125 -1.3125q1.15625 0 1.828125 0.71875q0.6875 0.703125 0.6875 2.140625l0 3.9375l-1.046875 0l0 -3.734375q0 -1.03125 -0.46875 -1.546875q-0.453125 -0.53125 -1.265625 -0.53125q-0.9375 0 -1.484375 0.65625q-0.53125 0.640625 -0.53125 1.71875l0 3.4375zm6.922409 0.640625l6.21875 0l0 0.953125l-6.21875 0l0 -0.953125zm9.141159 2.03125l-1.03125 0l0 -9.28125l1.03125 0l0 1.03125l0.171875 0q0.34375 -0.59375 0.953125 -0.90625q0.609375 -0.3125 1.328125 -0.3125q0.625 0 1.171875 0.234375q0.546875 0.21875 0.953125 0.65625q0.421875 0.421875 0.671875 1.046875q0.25 0.625 0.25 1.421875l0 0.265625q0 0.8125 -0.25 1.4375q-0.234375 0.625 -0.65625 1.0625q-0.421875 0.421875 -0.984375 0.640625q-0.546875 0.21875 -1.171875 0.21875q-0.328125 0 -0.65625 -0.078125q-0.328125 -0.0625 -0.640625 -0.21875q-0.296875 -0.15625 -0.546875 -0.375q-0.25 -0.21875 -0.421875 -0.53125l-0.171875 0l0 3.6875zm2.21875 -3.46875q0.484375 0 0.875 -0.171875q0.40625 -0.171875 0.703125 -0.46875q0.296875 -0.3125 0.46875 -0.75q0.171875 -0.4375 0.171875 -0.984375l0 -0.265625q0 -0.53125 -0.171875 -0.96875q-0.171875 -0.4375 -0.46875 -0.75q-0.296875 -0.3125 -0.703125 -0.484375q-0.40625 -0.171875 -0.875 -0.171875q-0.46875 0 -0.875 0.1875q-0.390625 0.171875 -0.6875 0.5q-0.296875 0.3125 -0.484375 0.765625q-0.171875 0.4375 -0.171875 0.96875l0 0.171875q0 0.546875 0.171875 1.0q0.1875 0.4375 0.484375 0.765625q0.296875 0.3125 0.6875 0.484375q0.40625 0.171875 0.875 0.171875zm4.766159 -5.8125l2.40625 0l0 0.875l0.15625 0q0.25 -0.546875 0.71875 -0.796875q0.46875 -0.265625 1.0625 -0.265625q1.0 0 1.609375 0.65625q0.625 0.65625 0.65625 1.90625l-1.09375 0.15625q0 -0.921875 -0.4375 -1.328125q-0.4375 -0.40625 -1.078125 -0.40625q-0.40625 0 -0.71875 0.171875q-0.296875 0.15625 -0.5 0.4375q-0.1875 0.265625 -0.28125 0.640625q-0.09375 0.375 -0.09375 0.796875l0 2.8125l1.671875 0l0 0.953125l-4.234375 0l0 -0.953125l1.515625 0l0 -4.703125l-1.359375 0l0 -0.953125zm14.766159 3.390625q0 0.8125 -0.28125 1.453125q-0.265625 0.625 -0.71875 1.0625q-0.453125 0.4375 -1.0625 0.671875q-0.59375 0.21875 -1.25 0.21875q-0.671875 0 -1.265625 -0.21875q-0.59375 -0.234375 -1.046875 -0.671875q-0.453125 -0.4375 -0.734375 -1.0625q-0.265625 -0.640625 -0.265625 -1.453125l0 -0.171875q0 -0.8125 0.265625 -1.4375q0.28125 -0.640625 0.734375 -1.078125q0.453125 -0.4375 1.046875 -0.65625q0.609375 -0.234375 1.265625 -0.234375q0.65625 0 1.25 0.234375q0.609375 0.21875 1.0625 0.65625q0.453125 0.4375 0.71875 1.078125q0.28125 0.625 0.28125 1.4375l0 0.171875zm-3.3125 2.421875q0.484375 0 0.890625 -0.171875q0.40625 -0.171875 0.703125 -0.484375q0.3125 -0.3125 0.484375 -0.765625q0.171875 -0.453125 0.171875 -1.0l0 -0.171875q0 -0.53125 -0.171875 -0.96875q-0.171875 -0.453125 -0.484375 -0.765625q-0.296875 -0.328125 -0.71875 -0.5q-0.40625 -0.1875 -0.875 -0.1875q-0.46875 0 -0.890625 0.1875q-0.40625 0.171875 -0.71875 0.5q-0.296875 0.3125 -0.46875 0.765625q-0.171875 0.4375 -0.171875 0.96875l0 0.171875q0 0.546875 0.171875 1.0q0.171875 0.453125 0.46875 0.765625q0.3125 0.3125 0.71875 0.484375q0.40625 0.171875 0.890625 0.171875zm11.422409 -1.546875q-0.109375 0.546875 -0.375 1.015625q-0.25 0.46875 -0.65625 0.8125q-0.390625 0.328125 -0.9375 0.515625q-0.53125 0.1875 -1.171875 0.1875q-0.703125 0 -1.328125 -0.21875q-0.609375 -0.234375 -1.078125 -0.671875q-0.46875 -0.4375 -0.75 -1.0625q-0.265625 -0.625 -0.265625 -1.4375l0 -0.15625q0 -0.796875 0.265625 -1.4375q0.28125 -0.640625 0.75 -1.078125q0.46875 -0.4375 1.078125 -0.671875q0.625 -0.25 1.328125 -0.25q0.625 0 1.15625 0.1875q0.53125 0.1875 0.9375 0.53125q0.40625 0.328125 0.65625 0.796875q0.265625 0.46875 0.359375 1.015625l-1.03125 0.234375q-0.046875 -0.34375 -0.203125 -0.671875q-0.140625 -0.328125 -0.40625 -0.5625q-0.265625 -0.25 -0.640625 -0.390625q-0.359375 -0.15625 -0.859375 -0.15625q-0.484375 0 -0.90625 0.1875q-0.40625 0.171875 -0.734375 0.5q-0.3125 0.328125 -0.5 0.78125q-0.171875 0.453125 -0.171875 0.984375l0 0.15625q0 0.5625 0.171875 1.015625q0.1875 0.4375 0.5 0.75q0.328125 0.296875 0.75 0.46875q0.421875 0.171875 0.921875 0.171875q0.484375 0 0.84375 -0.15625q0.375 -0.15625 0.625 -0.390625q0.265625 -0.25 0.421875 -0.5625q0.15625 -0.328125 0.203125 -0.671875l1.046875 0.234375zm2.734909 -0.640625q0.03125 0.984375 0.609375 1.59375q0.578125 0.59375 1.59375 0.59375q0.46875 0 0.8125 -0.109375q0.359375 -0.109375 0.59375 -0.296875q0.25 -0.1875 0.40625 -0.421875q0.15625 -0.25 0.25 -0.53125l0.984375 0.265625q-0.28125 0.921875 -1.03125 1.5q-0.75 0.578125 -2.03125 0.578125q-0.703125 0 -1.296875 -0.25q-0.59375 -0.25 -1.03125 -0.703125q-0.421875 -0.453125 -0.671875 -1.078125q-0.234375 -0.625 -0.234375 -1.375l0 -0.328125q0 -0.6875 0.25 -1.28125q0.25 -0.609375 0.6875 -1.03125q0.4375 -0.4375 1.03125 -0.6875q0.59375 -0.25 1.28125 -0.25q0.8125 0 1.40625 0.296875q0.59375 0.296875 0.96875 0.75q0.390625 0.4375 0.5625 0.953125q0.1875 0.515625 0.1875 0.953125l0 0.859375l-5.328125 0zm2.203125 -2.828125q-0.4375 0 -0.8125 0.140625q-0.375 0.140625 -0.671875 0.390625q-0.28125 0.25 -0.46875 0.59375q-0.171875 0.34375 -0.21875 0.75l4.25 0q-0.015625 -0.4375 -0.203125 -0.78125q-0.171875 -0.34375 -0.46875 -0.578125q-0.28125 -0.25 -0.65625 -0.375q-0.359375 -0.140625 -0.75 -0.140625zm6.563034 0.90625q0 0.484375 0.40625 0.734375q0.40625 0.25 1.484375 0.328125q1.15625 0.09375 1.765625 0.5625q0.609375 0.453125 0.609375 1.328125l0 0.09375q0 0.46875 -0.203125 0.859375q-0.1875 0.375 -0.53125 0.640625q-0.328125 0.265625 -0.8125 0.40625q-0.484375 0.140625 -1.0625 0.140625q-0.78125 0 -1.328125 -0.203125q-0.546875 -0.21875 -0.921875 -0.546875q-0.359375 -0.34375 -0.546875 -0.765625q-0.1875 -0.4375 -0.21875 -0.890625l0.984375 -0.234375q0.0625 0.765625 0.578125 1.234375q0.53125 0.453125 1.390625 0.453125q0.734375 0 1.171875 -0.28125q0.453125 -0.296875 0.453125 -0.8125q0 -0.5625 -0.4375 -0.796875q-0.4375 -0.25 -1.421875 -0.3125q-1.140625 -0.078125 -1.765625 -0.53125q-0.609375 -0.453125 -0.609375 -1.328125l0 -0.078125q0 -0.46875 0.203125 -0.8125q0.203125 -0.359375 0.53125 -0.59375q0.34375 -0.25 0.765625 -0.359375q0.4375 -0.125 0.90625 -0.125q0.65625 0 1.140625 0.1875q0.5 0.171875 0.828125 0.46875q0.328125 0.28125 0.5 0.65625q0.1875 0.359375 0.25 0.734375l-0.984375 0.25q-0.078125 -0.640625 -0.53125 -1.0q-0.4375 -0.359375 -1.15625 -0.359375q-0.28125 0 -0.546875 0.0625q-0.25 0.046875 -0.453125 0.171875q-0.203125 0.125 -0.328125 0.3125q-0.109375 0.171875 -0.109375 0.40625zm8.156784 0q0 0.484375 0.40625 0.734375q0.40625 0.25 1.484375 0.328125q1.15625 0.09375 1.765625 0.5625q0.609375 0.453125 0.609375 1.328125l0 0.09375q0 0.46875 -0.203125 0.859375q-0.1875 0.375 -0.53125 0.640625q-0.328125 0.265625 -0.8125 0.40625q-0.484375 0.140625 -1.0625 0.140625q-0.78125 0 -1.328125 -0.203125q-0.546875 -0.21875 -0.921875 -0.546875q-0.359375 -0.34375 -0.546875 -0.765625q-0.1875 -0.4375 -0.21875 -0.890625l0.984375 -0.234375q0.0625 0.765625 0.578125 1.234375q0.53125 0.453125 1.390625 0.453125q0.734375 0 1.171875 -0.28125q0.453125 -0.296875 0.453125 -0.8125q0 -0.5625 -0.4375 -0.796875q-0.4375 -0.25 -1.421875 -0.3125q-1.140625 -0.078125 -1.765625 -0.53125q-0.609375 -0.453125 -0.609375 -1.328125l0 -0.078125q0 -0.46875 0.203125 -0.8125q0.203125 -0.359375 0.53125 -0.59375q0.34375 -0.25 0.765625 -0.359375q0.4375 -0.125 0.90625 -0.125q0.65625 0 1.140625 0.1875q0.5 0.171875 0.828125 0.46875q0.328125 0.28125 0.5 0.65625q0.1875 0.359375 0.25 0.734375l-0.984375 0.25q-0.078125 -0.640625 -0.53125 -1.0q-0.4375 -0.359375 -1.15625 -0.359375q-0.28125 0 -0.546875 0.0625q-0.25 0.046875 -0.453125 0.171875q-0.203125 0.125 -0.328125 0.3125q-0.109375 0.171875 -0.109375 0.40625z" fill-rule="nonzero"/><path fill="#000000" fill-opacity="0.0" d="m544.04724 322.28348l109.165344 0" fill-rule="evenodd"/><path stroke="#000000" stroke-width="2.0" stroke-linejoin="round" stroke-linecap="butt" d="m550.9014 322.28348l102.31116 0" fill-rule="evenodd"/><path fill="#000000" stroke="#000000" stroke-width="2.0" stroke-linecap="butt" d="m550.9014 322.28348l2.2491455 -2.249176l-6.1795044 2.249176l6.1795044 2.2491455z" fill-rule="evenodd"/><path fill="#000000" fill-opacity="0.0" d="m543.48816 290.72446l109.7323 0l0 31.559052l-109.7323 0z" fill-rule="evenodd"/><path fill="#000000" d="m555.4139 307.09912q0.03125 0.984375 0.609375 1.59375q0.578125 0.59375 1.59375 0.59375q0.46875 0 0.8125 -0.109375q0.359375 -0.109375 0.59375 -0.296875q0.25 -0.1875 0.40625 -0.421875q0.15625 -0.25 0.25 -0.53125l0.984375 0.265625q-0.28125 0.921875 -1.03125 1.5q-0.75 0.578125 -2.03125 0.578125q-0.703125 0 -1.296875 -0.25q-0.59375 -0.25 -1.03125 -0.703125q-0.421875 -0.453125 -0.671875 -1.078125q-0.234375 -0.625 -0.234375 -1.375l0 -0.328125q0 -0.6875 0.25 -1.28125q0.25 -0.609375 0.6875 -1.03125q0.4375 -0.4375 1.03125 -0.6875q0.59375 -0.25 1.28125 -0.25q0.8125 0 1.40625 0.296875q0.59375 0.296875 0.96875 0.75q0.390625 0.4375 0.5625 0.953125q0.1875 0.515625 0.1875 0.953125l0 0.859375l-5.328125 0zm2.203125 -2.828125q-0.4375 0 -0.8125 0.140625q-0.375 0.140625 -0.671875 0.390625q-0.28125 0.25 -0.46875 0.59375q-0.171875 0.34375 -0.21875 0.75l4.25 0q-0.015625 -0.4375 -0.203125 -0.78125q-0.171875 -0.34375 -0.46875 -0.578125q-0.28125 -0.25 -0.65625 -0.375q-0.359375 -0.140625 -0.75 -0.140625zm6.2349243 5.8125l-1.046875 0l0 -6.609375l1.046875 0l0 1.125l0.15625 0q0.609375 -1.3125 2.125 -1.3125q1.15625 0 1.828125 0.71875q0.6875 0.703125 0.6875 2.140625l0 3.9375l-1.046875 0l0 -3.734375q0 -1.03125 -0.46875 -1.546875q-0.453125 -0.53125 -1.265625 -0.53125q-0.9375 0 -1.484375 0.65625q-0.53125 0.640625 -0.53125 1.71875l0 3.4375zm6.8911743 -6.609375l2.078125 0l0 -2.71875l1.03125 0l0 2.71875l2.5625 0l0 0.953125l-2.5625 0l0 4.296875q0 0.40625 0.359375 0.40625l1.890625 0l0 0.953125l-2.265625 0q-0.453125 0 -0.734375 -0.296875q-0.28125 -0.296875 -0.28125 -0.75l0 -4.609375l-2.078125 0l0 -0.953125zm8.000488 0l2.40625 0l0 0.875l0.15625 0q0.25 -0.546875 0.71875 -0.796875q0.46875 -0.265625 1.0625 -0.265625q1.0 0 1.609375 0.65625q0.625 0.65625 0.65625 1.90625l-1.09375 0.15625q0 -0.921875 -0.4375 -1.328125q-0.4375 -0.40625 -1.078125 -0.40625q-0.40625 0 -0.71875 0.171875q-0.296875 0.15625 -0.5 0.4375q-0.1875 0.265625 -0.28125 0.640625q-0.09375 0.375 -0.09375 0.796875l0 2.8125l1.671875 0l0 0.953125l-4.234375 0l0 -0.953125l1.515625 0l0 -4.703125l-1.359375 0l0 -0.953125zm14.766174 3.390625q0 0.8125 -0.28125 1.453125q-0.265625 0.625 -0.71875 1.0625q-0.453125 0.4375 -1.0625 0.671875q-0.59375 0.21875 -1.25 0.21875q-0.671875 0 -1.265625 -0.21875q-0.59375 -0.234375 -1.046875 -0.671875q-0.453125 -0.4375 -0.734375 -1.0625q-0.265625 -0.640625 -0.265625 -1.453125l0 -0.171875q0 -0.8125 0.265625 -1.4375q0.28125 -0.640625 0.734375 -1.078125q0.453125 -0.4375 1.046875 -0.65625q0.609375 -0.234375 1.265625 -0.234375q0.65625 0 1.25 0.234375q0.609375 0.21875 1.0625 0.65625q0.453125 0.4375 0.71875 1.078125q0.28125 0.625 0.28125 1.4375l0 0.171875zm-3.3125 2.421875q0.484375 0 0.890625 -0.171875q0.40625 -0.171875 0.703125 -0.484375q0.3125 -0.3125 0.484375 -0.765625q0.171875 -0.453125 0.171875 -1.0l0 -0.171875q0 -0.53125 -0.171875 -0.96875q-0.171875 -0.453125 -0.484375 -0.765625q-0.296875 -0.328125 -0.71875 -0.5q-0.40625 -0.1875 -0.875 -0.1875q-0.46875 0 -0.890625 0.1875q-0.40625 0.171875 -0.71875 0.5q-0.296875 0.3125 -0.46875 0.765625q-0.171875 0.4375 -0.171875 0.96875l0 0.171875q0 0.546875 0.171875 1.0q0.171875 0.453125 0.46875 0.765625q0.3125 0.3125 0.71875 0.484375q0.40625 0.171875 0.890625 0.171875zm6.0317993 3.46875l-1.03125 0l0 -9.28125l1.03125 0l0 1.03125l0.171875 0q0.34375 -0.59375 0.953125 -0.90625q0.609375 -0.3125 1.328125 -0.3125q0.625 0 1.171875 0.234375q0.546875 0.21875 0.953125 0.65625q0.421875 0.421875 0.671875 1.046875q0.25 0.625 0.25 1.421875l0 0.265625q0 0.8125 -0.25 1.4375q-0.234375 0.625 -0.65625 1.0625q-0.421875 0.421875 -0.984375 0.640625q-0.546875 0.21875 -1.171875 0.21875q-0.328125 0 -0.65625 -0.078125q-0.328125 -0.0625 -0.640625 -0.21875q-0.296875 -0.15625 -0.546875 -0.375q-0.25 -0.21875 -0.421875 -0.53125l-0.171875 0l0 3.6875zm2.21875 -3.46875q0.484375 0 0.875 -0.171875q0.40625 -0.171875 0.703125 -0.46875q0.296875 -0.3125 0.46875 -0.75q0.171875 -0.4375 0.171875 -0.984375l0 -0.265625q0 -0.53125 -0.171875 -0.96875q-0.171875 -0.4375 -0.46875 -0.75q-0.296875 -0.3125 -0.703125 -0.484375q-0.40625 -0.171875 -0.875 -0.171875q-0.46875 0 -0.875 0.1875q-0.390625 0.171875 -0.6875 0.5q-0.296875 0.3125 -0.484375 0.765625q-0.171875 0.4375 -0.171875 0.96875l0 0.171875q0 0.546875 0.171875 1.0q0.1875 0.4375 0.484375 0.765625q0.296875 0.3125 0.6875 0.484375q0.40625 0.171875 0.875 0.171875zm9.938049 -0.40625l-0.15625 0q-0.3125 0.640625 -0.84375 1.015625q-0.515625 0.375 -1.3125 0.375q-0.546875 0 -1.015625 -0.1875q-0.453125 -0.171875 -0.78125 -0.53125q-0.328125 -0.359375 -0.515625 -0.890625q-0.171875 -0.53125 -0.171875 -1.25l0 -3.9375l1.046875 0l0 3.8125q0 1.03125 0.421875 1.515625q0.421875 0.484375 1.3125 0.484375q0.9375 0 1.46875 -0.640625q0.546875 -0.65625 0.546875 -1.734375l0 -3.4375l1.046875 0l0 8.234375q0 0.453125 -0.296875 0.75q-0.28125 0.296875 -0.734375 0.296875l-3.765625 0l0 -0.96875l3.390625 0q0.359375 0 0.359375 -0.390625l0 -2.515625zm3.1723633 1.84375l6.21875 0l0 0.953125l-6.21875 0l0 -0.953125zm13.141174 -1.765625l-0.15625 0q-0.3125 0.671875 -0.890625 1.0q-0.5625 0.3125 -1.1875 0.3125q-0.65625 0 -1.21875 -0.21875q-0.546875 -0.21875 -0.96875 -0.65625q-0.421875 -0.4375 -0.671875 -1.0625q-0.234375 -0.625 -0.234375 -1.453125l0 -0.203125q0 -0.8125 0.234375 -1.4375q0.25 -0.640625 0.671875 -1.0625q0.421875 -0.4375 0.96875 -0.65625q0.5625 -0.234375 1.1875 -0.234375q0.6875 0 1.234375 0.296875q0.5625 0.296875 0.875 0.921875l0.15625 0l0 -1.03125l1.046875 0l0 5.25q0 0.40625 0.359375 0.40625l0.328125 0l0 0.953125l-0.703125 0q-0.453125 0 -0.75 -0.296875q-0.28125 -0.296875 -0.28125 -0.75l0 -0.078125zm-2.125 0.328125q0.46875 0 0.859375 -0.171875q0.390625 -0.171875 0.671875 -0.484375q0.28125 -0.328125 0.4375 -0.765625q0.15625 -0.453125 0.15625 -1.0l0 -0.171875q0 -0.53125 -0.15625 -0.96875q-0.15625 -0.453125 -0.453125 -0.765625q-0.28125 -0.328125 -0.671875 -0.5q-0.390625 -0.1875 -0.84375 -0.1875q-0.46875 0 -0.859375 0.171875q-0.390625 0.171875 -0.671875 0.484375q-0.28125 0.3125 -0.453125 0.765625q-0.15625 0.453125 -0.15625 0.984375l0 0.203125q0 1.140625 0.59375 1.78125q0.59375 0.625 1.546875 0.625zm11.672424 -1.546875q-0.109375 0.546875 -0.375 1.015625q-0.25 0.46875 -0.65625 0.8125q-0.390625 0.328125 -0.9375 0.515625q-0.53125 0.1875 -1.171875 0.1875q-0.703125 0 -1.328125 -0.21875q-0.609375 -0.234375 -1.078125 -0.671875q-0.46875 -0.4375 -0.75 -1.0625q-0.265625 -0.625 -0.265625 -1.4375l0 -0.15625q0 -0.796875 0.265625 -1.4375q0.28125 -0.640625 0.75 -1.078125q0.46875 -0.4375 1.078125 -0.671875q0.625 -0.25 1.328125 -0.25q0.625 0 1.15625 0.1875q0.53125 0.1875 0.9375 0.53125q0.40625 0.328125 0.65625 0.796875q0.265625 0.46875 0.359375 1.015625l-1.03125 0.234375q-0.046875 -0.34375 -0.203125 -0.671875q-0.140625 -0.328125 -0.40625 -0.5625q-0.265625 -0.25 -0.640625 -0.390625q-0.359375 -0.15625 -0.859375 -0.15625q-0.484375 0 -0.90625 0.1875q-0.40625 0.171875 -0.734375 0.5q-0.3125 0.328125 -0.5 0.78125q-0.171875 0.453125 -0.171875 0.984375l0 0.15625q0 0.5625 0.171875 1.015625q0.1875 0.4375 0.5 0.75q0.328125 0.296875 0.75 0.46875q0.421875 0.171875 0.921875 0.171875q0.484375 0 0.84375 -0.15625q0.375 -0.15625 0.625 -0.390625q0.265625 -0.25 0.421875 -0.5625q0.15625 -0.328125 0.203125 -0.671875l1.046875 0.234375zm3.6724243 -1.515625l0.234375 0l2.515625 -2.75l1.28125 0l0 0.078125l-2.75 3.03125l0 0.234375l3.0625 3.1875l0 0.078125l-1.265625 0l-2.8125 -2.90625l-0.265625 0l0 2.90625l-1.03125 0l0 -9.328125l1.03125 0l0 5.46875z" fill-rule="nonzero"/></g></svg>