<svg version="1.1" viewBox="0.0 0.0 584.3622047244095 314.62992125984255" fill="none" stroke="none" stroke-linecap="square" stroke-miterlimit="10" xmlns:xlink="http://www.w3.org/1999/xlink" xmlns="http://www.w3.org/2000/svg"><clipPath id="p.0"><path d="m0 0l584.3622 0l0 314.6299l-584.3622 0l0 -314.6299z" clip-rule="nonzero"/></clipPath><g clip-path="url(#p.0)"><path fill="#000000" fill-opacity="0.0" d="m0 0l584.3622 0l0 314.6299l-584.3622 0z" fill-rule="evenodd"/><path fill="#000000" fill-opacity="0.0" d="m18.767841 107.9827l105.480316 0" fill-rule="evenodd"/><path stroke="#000000" stroke-width="3.0" stroke-linejoin="round" stroke-linecap="butt" d="m18.767841 107.9827l105.480316 0" fill-rule="evenodd"/><path fill="#000000" fill-opacity="0.0" d="m3.8503938 87.67702l120.97638 0l0 29.732285l-120.97638 0z" fill-rule="evenodd"/><path fill="#000000" d="m36.790184 100.303055q0 0.484375 0.40625 0.734375q0.40625 0.25 1.484375 0.328125q1.15625 0.09375 1.765625 0.5625q0.609375 0.453125 0.609375 1.328125l0 0.09375q0 0.46875 -0.203125 0.859375q-0.1875 0.375 -0.53125 0.640625q-0.328125 0.265625 -0.8125 0.40625q-0.484375 0.140625 -1.0625 0.140625q-0.78125 0 -1.328125 -0.203125q-0.546875 -0.21875 -0.921875 -0.546875q-0.359375 -0.34375 -0.546875 -0.765625q-0.1875 -0.4375 -0.21875 -0.890625l0.984375 -0.234375q0.0625 0.765625 0.578125 1.234375q0.53125 0.453125 1.390625 0.453125q0.734375 0 1.171875 -0.28125q0.453125 -0.296875 0.453125 -0.8125q0 -0.5625 -0.4375 -0.796875q-0.4375 -0.25 -1.421875 -0.3125q-1.140625 -0.078125 -1.765625 -0.53125q-0.609375 -0.453125 -0.609375 -1.328125l0 -0.078125q0 -0.46875 0.203125 -0.8125q0.203125 -0.359375 0.53125 -0.59375q0.34375 -0.25 0.765625 -0.359375q0.4375 -0.125 0.90625 -0.125q0.65625 0 1.140625 0.1875q0.5 0.171875 0.828125 0.46875q0.328125 0.28125 0.5 0.65625q0.1875 0.359375 0.25 0.734375l-0.984375 0.25q-0.078125 -0.640625 -0.53125 -1.0q-0.4375 -0.359375 -1.15625 -0.359375q-0.28125 0 -0.546875 0.0625q-0.25 0.046875 -0.453125 0.171875q-0.203125 0.125 -0.328125 0.3125q-0.109375 0.171875 -0.109375 0.40625zm7.547409 1.921875q0.03125 0.984375 0.609375 1.59375q0.578125 0.59375 1.59375 0.59375q0.46875 0 0.8125 -0.109375q0.359375 -0.109375 0.59375 -0.296875q0.25 -0.1875 0.40625 -0.421875q0.15625 -0.25 0.25 -0.53125l0.984375 0.265625q-0.28125 0.921875 -1.03125 1.5q-0.75 0.578125 -2.03125 0.578125q-0.703125 0 -1.296875 -0.25q-0.59375 -0.25 -1.03125 -0.703125q-0.421875 -0.453125 -0.671875 -1.078125q-0.234375 -0.625 -0.234375 -1.375l0 -0.328125q0 -0.6875 0.25 -1.28125q0.25 -0.609375 0.6875 -1.03125q0.4375 -0.4375 1.03125 -0.6875q0.59375 -0.25 1.28125 -0.25q0.8125 0 1.40625 0.296875q0.59375 0.296875 0.96875 0.75q0.390625 0.4375 0.5625 0.953125q0.1875 0.515625 0.1875 0.953125l0 0.859375l-5.328125 0zm2.203125 -2.828125q-0.4375 0 -0.8125 0.140625q-0.375 0.140625 -0.671875 0.390625q-0.28125 0.25 -0.46875 0.59375q-0.171875 0.34375 -0.21875 0.75l4.25 0q-0.015625 -0.4375 -0.203125 -0.78125q-0.171875 -0.34375 -0.46875 -0.578125q-0.28125 -0.25 -0.65625 -0.375q-0.359375 -0.140625 -0.75 -0.140625zm11.375534 3.46875q-0.109375 0.546875 -0.375 1.015625q-0.25 0.46875 -0.65625 0.8125q-0.390625 0.328125 -0.9375 0.515625q-0.53125 0.1875 -1.171875 0.1875q-0.703125 0 -1.328125 -0.21875q-0.609375 -0.234375 -1.078125 -0.671875q-0.46875 -0.4375 -0.75 -1.0625q-0.265625 -0.625 -0.265625 -1.4375l0 -0.15625q0 -0.796875 0.265625 -1.4375q0.28125 -0.640625 0.75 -1.078125q0.46875 -0.4375 1.078125 -0.671875q0.625 -0.25 1.328125 -0.25q0.625 0 1.15625 0.1875q0.53125 0.1875 0.9375 0.53125q0.40625 0.328125 0.65625 0.796875q0.265625 0.46875 0.359375 1.015625l-1.03125 0.234375q-0.046875 -0.34375 -0.203125 -0.671875q-0.140625 -0.328125 -0.40625 -0.5625q-0.265625 -0.25 -0.640625 -0.390625q-0.359375 -0.15625 -0.859375 -0.15625q-0.484375 0 -0.90625 0.1875q-0.40625 0.171875 -0.734375 0.5q-0.3125 0.328125 -0.5 0.78125q-0.171875 0.453125 -0.171875 0.984375l0 0.15625q0 0.5625 0.171875 1.015625q0.1875 0.4375 0.5 0.75q0.328125 0.296875 0.75 0.46875q0.421875 0.171875 0.921875 0.171875q0.484375 0 0.84375 -0.15625q0.375 -0.15625 0.625 -0.390625q0.265625 -0.25 0.421875 -0.5625q0.15625 -0.328125 0.203125 -0.671875l1.046875 0.234375zm1.594284 -4.265625l2.40625 0l0 0.875l0.15625 0q0.25 -0.546875 0.71875 -0.796875q0.46875 -0.265625 1.0625 -0.265625q1.0 0 1.609375 0.65625q0.625 0.65625 0.65625 1.90625l-1.09375 0.15625q0 -0.921875 -0.4375 -1.328125q-0.4375 -0.40625 -1.078125 -0.40625q-0.40625 0 -0.71875 0.171875q-0.296875 0.15625 -0.5 0.4375q-0.1875 0.265625 -0.28125 0.640625q-0.09375 0.375 -0.09375 0.796875l0 2.8125l1.671875 0l0 0.953125l-4.234375 0l0 -0.953125l1.515625 0l0 -4.703125l-1.359375 0l0 -0.953125zm9.297409 3.625q0.03125 0.984375 0.609375 1.59375q0.578125 0.59375 1.59375 0.59375q0.46875 0 0.8125 -0.109375q0.359375 -0.109375 0.59375 -0.296875q0.25 -0.1875 0.40625 -0.421875q0.15625 -0.25 0.25 -0.53125l0.984375 0.265625q-0.28125 0.921875 -1.03125 1.5q-0.75 0.578125 -2.03125 0.578125q-0.703125 0 -1.296875 -0.25q-0.59375 -0.25 -1.03125 -0.703125q-0.421875 -0.453125 -0.671875 -1.078125q-0.234375 -0.625 -0.234375 -1.375l0 -0.328125q0 -0.6875 0.25 -1.28125q0.25 -0.609375 0.6875 -1.03125q0.4375 -0.4375 1.03125 -0.6875q0.59375 -0.25 1.28125 -0.25q0.8125 0 1.40625 0.296875q0.59375 0.296875 0.96875 0.75q0.390625 0.4375 0.5625 0.953125q0.1875 0.515625 0.1875 0.953125l0 0.859375l-5.328125 0zm2.203125 -2.828125q-0.4375 0 -0.8125 0.140625q-0.375 0.140625 -0.671875 0.390625q-0.28125 0.25 -0.46875 0.59375q-0.171875 0.34375 -0.21875 0.75l4.25 0q-0.015625 -0.4375 -0.203125 -0.78125q-0.171875 -0.34375 -0.46875 -0.578125q-0.28125 -0.25 -0.65625 -0.375q-0.359375 -0.140625 -0.75 -0.140625zm4.969284 -0.796875l2.078125 0l0 -2.71875l1.03125 0l0 2.71875l2.5625 0l0 0.953125l-2.5625 0l0 4.296875q0 0.40625 0.359375 0.40625l1.890625 0l0 0.953125l-2.265625 0q-0.453125 0 -0.734375 -0.296875q-0.28125 -0.296875 -0.28125 -0.75l0 -4.609375l-2.078125 0l0 -0.953125zm8.188034 7.25l6.21875 0l0 0.953125l-6.21875 0l0 -0.953125zm10.047409 -4.5l0.234375 0l2.515625 -2.75l1.28125 0l0 0.078125l-2.75 3.03125l0 0.234375l3.0625 3.1875l0 0.078125l-1.265625 0l-2.8125 -2.90625l-0.265625 0l0 2.90625l-1.03125 0l0 -9.328125l1.03125 0l0 5.46875zm7.219284 0.875q0.03125 0.984375 0.609375 1.59375q0.578125 0.59375 1.59375 0.59375q0.46875 0 0.8125 -0.109375q0.359375 -0.109375 0.59375 -0.296875q0.25 -0.1875 0.40625 -0.421875q0.15625 -0.25 0.25 -0.53125l0.984375 0.265625q-0.28125 0.921875 -1.03125 1.5q-0.75 0.578125 -2.03125 0.578125q-0.703125 0 -1.296875 -0.25q-0.59375 -0.25 -1.03125 -0.703125q-0.421875 -0.453125 -0.671875 -1.078125q-0.234375 -0.625 -0.234375 -1.375l0 -0.328125q0 -0.6875 0.25 -1.28125q0.25 -0.609375 0.6875 -1.03125q0.4375 -0.4375 1.03125 -0.6875q0.59375 -0.25 1.28125 -0.25q0.8125 0 1.40625 0.296875q0.59375 0.296875 0.96875 0.75q0.390625 0.4375 0.5625 0.953125q0.1875 0.515625 0.1875 0.953125l0 0.859375l-5.328125 0zm2.203125 -2.828125q-0.4375 0 -0.8125 0.140625q-0.375 0.140625 -0.671875 0.390625q-0.28125 0.25 -0.46875 0.59375q-0.171875 0.34375 -0.21875 0.75l4.25 0q-0.015625 -0.4375 -0.203125 -0.78125q-0.171875 -0.34375 -0.46875 -0.578125q-0.28125 -0.25 -0.65625 -0.375q-0.359375 -0.140625 -0.75 -0.140625zm9.984909 4.609375l-0.15625 0q-0.3125 0.640625 -0.84375 1.015625q-0.515625 0.375 -1.3125 0.375q-0.546875 0 -1.015625 -0.1875q-0.453125 -0.171875 -0.78125 -0.53125q-0.328125 -0.359375 -0.515625 -0.890625q-0.171875 -0.53125 -0.171875 -1.25l0 -3.9375l1.046875 0l0 3.8125q0 1.03125 0.421875 1.515625q0.421875 0.484375 1.3125 0.484375q0.9375 0 1.46875 -0.640625q0.546875 -0.65625 0.546875 -1.734375l0 -3.4375l1.046875 0l0 8.234375q0 0.453125 -0.296875 0.75q-0.28125 0.296875 -0.734375 0.296875l-3.765625 0l0 -0.96875l3.390625 0q0.359375 0 0.359375 -0.390625l0 -2.515625z" fill-rule="nonzero"/><path fill="#000000" fill-opacity="0.0" d="m445.62204 187.22047l-425.3858 0" fill-rule="evenodd"/><path stroke="#000000" stroke-width="3.0" stroke-linejoin="round" stroke-linecap="butt" d="m435.3408 187.22047l-415.10455 0" fill-rule="evenodd"/><path fill="#000000" stroke="#000000" stroke-width="3.0" stroke-linecap="butt" d="m435.3408 187.22047l-3.3737488 3.3737488l9.269287 -3.3737488l-9.269287 -3.3737488z" fill-rule="evenodd"/><path fill="#000000" fill-opacity="0.0" d="m1.9606299 157.4876l146.86613 0l0 29.732285l-146.86613 0z" fill-rule="evenodd"/><path fill="#000000" d="m33.14741 179.28758l-1.03125 0l0 -4.75q0 -0.46875 -0.2187481 -0.765625q-0.21875 -0.296875 -0.6875 -0.296875q-0.4375 0 -0.71875 0.328125q-0.265625 0.328125 -0.265625 1.0l0 4.484375l-1.03125 0l0 -4.796875q0 -0.4375 -0.25 -0.71875q-0.234375 -0.296875 -0.640625 -0.296875q-0.46875 0 -0.734375 0.34375q-0.265625 0.34375 -0.265625 0.90625l0 4.5625l-1.03125 0l0 -6.609375l1.03125 0l0 0.71875l0.171875 0q0.171875 -0.46875 0.5 -0.6875q0.328125 -0.21875 0.78125 -0.21875q0.484375 0 0.796875 0.25q0.3125 0.25 0.4375 0.65625l0.15625 0q0.453125 -0.90625 1.4375 -0.90625q0.7499981 0 1.1562481 0.484375q0.40625 0.46875 0.40625 1.21875l0 5.09375zm2.563034 -2.984375q0.03125 0.984375 0.609375 1.59375q0.578125 0.59375 1.59375 0.59375q0.46875 0 0.8125 -0.109375q0.359375 -0.109375 0.59375 -0.296875q0.25 -0.1875 0.40625 -0.421875q0.15625 -0.25 0.25 -0.53125l0.984375 0.265625q-0.28125 0.921875 -1.03125 1.5q-0.75 0.578125 -2.03125 0.578125q-0.703125 0 -1.296875 -0.25q-0.59375 -0.25 -1.03125 -0.703125q-0.421875 -0.453125 -0.671875 -1.078125q-0.234375 -0.625 -0.234375 -1.375l0 -0.328125q0 -0.6875 0.25 -1.28125q0.25 -0.609375 0.6875 -1.03125q0.4375 -0.4375 1.03125 -0.6875q0.59375 -0.25 1.28125 -0.25q0.8125 0 1.40625 0.296875q0.59375 0.296875 0.96875 0.75q0.390625 0.4375 0.5625 0.953125q0.1875 0.515625 0.1875 0.953125l0 0.859375l-5.328125 0zm2.203125 -2.828125q-0.4375 0 -0.8125 0.140625q-0.375 0.140625 -0.671875 0.390625q-0.28125 0.25 -0.46875 0.59375q-0.171875 0.34375 -0.21875 0.75l4.25 0q-0.015625 -0.4375 -0.203125 -0.78125q-0.171875 -0.34375 -0.46875 -0.578125q-0.28125 -0.25 -0.65625 -0.375q-0.359375 -0.140625 -0.75 -0.140625zm6.563034 0.90625q0 0.484375 0.40625 0.734375q0.40625 0.25 1.484375 0.328125q1.15625 0.09375 1.765625 0.5625q0.609375 0.453125 0.609375 1.328125l0 0.09375q0 0.46875 -0.203125 0.859375q-0.1875 0.375 -0.53125 0.640625q-0.328125 0.265625 -0.8125 0.40625q-0.484375 0.140625 -1.0625 0.140625q-0.78125 0 -1.328125 -0.203125q-0.546875 -0.21875 -0.921875 -0.546875q-0.359375 -0.34375 -0.546875 -0.765625q-0.1875 -0.4375 -0.21875 -0.890625l0.984375 -0.234375q0.0625 0.765625 0.578125 1.234375q0.53125 0.453125 1.390625 0.453125q0.734375 0 1.171875 -0.28125q0.453125 -0.296875 0.453125 -0.8125q0 -0.5625 -0.4375 -0.796875q-0.4375 -0.25 -1.421875 -0.3125q-1.140625 -0.078125 -1.765625 -0.53125q-0.609375 -0.453125 -0.609375 -1.328125l0 -0.078125q0 -0.46875 0.203125 -0.8125q0.203125 -0.359375 0.53125 -0.59375q0.34375 -0.25 0.765625 -0.359375q0.4375 -0.125 0.90625 -0.125q0.65625 0 1.140625 0.1875q0.5 0.171875 0.828125 0.46875q0.328125 0.28125 0.5 0.65625q0.1875 0.359375 0.25 0.734375l-0.984375 0.25q-0.078125 -0.640625 -0.53125 -1.0q-0.4375 -0.359375 -1.15625 -0.359375q-0.28125 0 -0.546875 0.0625q-0.25 0.046875 -0.453125 0.171875q-0.203125 0.125 -0.328125 0.3125q-0.109375 0.171875 -0.109375 0.40625zm8.156784 0q0 0.484375 0.40625 0.734375q0.40625 0.25 1.484375 0.328125q1.15625 0.09375 1.765625 0.5625q0.609375 0.453125 0.609375 1.328125l0 0.09375q0 0.46875 -0.203125 0.859375q-0.1875 0.375 -0.53125 0.640625q-0.328125 0.265625 -0.8125 0.40625q-0.484375 0.140625 -1.0625 0.140625q-0.78125 0 -1.328125 -0.203125q-0.546875 -0.21875 -0.921875 -0.546875q-0.359375 -0.34375 -0.546875 -0.765625q-0.1875 -0.4375 -0.21875 -0.890625l0.984375 -0.234375q0.0625 0.765625 0.578125 1.234375q0.53125 0.453125 1.390625 0.453125q0.734375 0 1.171875 -0.28125q0.453125 -0.296875 0.453125 -0.8125q0 -0.5625 -0.4375 -0.796875q-0.4375 -0.25 -1.421875 -0.3125q-1.140625 -0.078125 -1.765625 -0.53125q-0.609375 -0.453125 -0.609375 -1.328125l0 -0.078125q0 -0.46875 0.203125 -0.8125q0.203125 -0.359375 0.53125 -0.59375q0.34375 -0.25 0.765625 -0.359375q0.4375 -0.125 0.90625 -0.125q0.65625 0 1.140625 0.1875q0.5 0.171875 0.828125 0.46875q0.328125 0.28125 0.5 0.65625q0.1875 0.359375 0.25 0.734375l-0.984375 0.25q-0.078125 -0.640625 -0.53125 -1.0q-0.4375 -0.359375 -1.15625 -0.359375q-0.28125 0 -0.546875 0.0625q-0.25 0.046875 -0.453125 0.171875q-0.203125 0.125 -0.328125 0.3125q-0.109375 0.171875 -0.109375 0.40625zm11.578663 3.78125l-0.15625 0q-0.3125038 0.671875 -0.8906288 1.0q-0.5625 0.3125 -1.1875 0.3125q-0.65625 0 -1.21875 -0.21875q-0.546875 -0.21875 -0.96875 -0.65625q-0.421875 -0.4375 -0.671875 -1.0625q-0.234375 -0.625 -0.234375 -1.453125l0 -0.203125q0 -0.8125 0.234375 -1.4375q0.25 -0.640625 0.671875 -1.0625q0.421875 -0.4375 0.96875 -0.65625q0.5625 -0.234375 1.1875 -0.234375q0.6875 0 1.234375 0.296875q0.5625 0.296875 0.8750038 0.921875l0.15625 0l0 -1.03125l1.046875 0l0 5.25q0 0.40625 0.359375 0.40625l0.328125 0l0 0.953125l-0.703125 0q-0.453125 0 -0.75 -0.296875q-0.28125 -0.296875 -0.28125 -0.75l0 -0.078125zm-2.1250038 0.328125q0.46875 0 0.859375 -0.171875q0.390625 -0.171875 0.671875 -0.484375q0.28125 -0.328125 0.4375038 -0.765625q0.15625 -0.453125 0.15625 -1.0l0 -0.171875q0 -0.53125 -0.15625 -0.96875q-0.15625381 -0.453125 -0.4531288 -0.765625q-0.28125 -0.328125 -0.671875 -0.5q-0.390625 -0.1875 -0.84375 -0.1875q-0.46875 0 -0.859375 0.171875q-0.390625 0.171875 -0.671875 0.484375q-0.28125 0.3125 -0.453125 0.765625q-0.15625 0.453125 -0.15625 0.984375l0 0.203125q0 1.140625 0.59375 1.78125q0.59375 0.625 1.546875 0.625zm10.516163 -0.21875l-0.15625 0q-0.328125 0.609375 -0.890625 0.90625q-0.546875 0.296875 -1.203125 0.296875q-0.65625 0 -1.25 -0.21875q-0.578125 -0.234375 -1.03125 -0.65625q-0.4375 -0.4375 -0.703125 -1.0625q-0.265625 -0.640625 -0.265625 -1.453125l0 -0.203125q0 -0.8125 0.265625 -1.4375q0.265625 -0.640625 0.703125 -1.0625q0.453125 -0.4375 1.03125 -0.65625q0.59375 -0.234375 1.234375 -0.234375q0.71875 0 1.25 0.3125q0.546875 0.3125 0.859375 0.90625l0.15625 0l0 -1.03125l1.03125 0l0 8.234375q0 0.453125 -0.28125 0.75q-0.28125 0.296875 -0.734375 0.296875l-4.3125 0l0 -0.96875l3.9375 0q0.359375 0 0.359375 -0.390625l0 -2.328125zm-2.21875 0.21875q0.46875 0 0.859375 -0.171875q0.40625 -0.171875 0.703125 -0.484375q0.3125 -0.328125 0.484375 -0.765625q0.171875 -0.453125 0.171875 -1.0l0 -0.171875q0 -0.53125 -0.171875 -0.96875q-0.171875 -0.453125 -0.484375 -0.765625q-0.296875 -0.328125 -0.703125 -0.5q-0.40625 -0.1875 -0.859375 -0.1875q-0.46875 0 -0.875 0.171875q-0.40625 0.171875 -0.703125 0.5q-0.296875 0.3125 -0.46875 0.765625q-0.15625 0.4375 -0.15625 0.96875l0 0.203125q0 0.5625 0.15625 1.0q0.171875 0.4375 0.46875 0.75q0.296875 0.3125 0.6875 0.484375q0.40625 0.171875 0.890625 0.171875zm6.109909 -2.1875q0.03125 0.984375 0.609375 1.59375q0.578125 0.59375 1.59375 0.59375q0.46875 0 0.8125 -0.109375q0.359375 -0.109375 0.59375 -0.296875q0.25 -0.1875 0.40625 -0.421875q0.15625 -0.25 0.25 -0.53125l0.984375 0.265625q-0.28125 0.921875 -1.03125 1.5q-0.75 0.578125 -2.03125 0.578125q-0.703125 0 -1.296875 -0.25q-0.59375 -0.25 -1.03125 -0.703125q-0.421875 -0.453125 -0.671875 -1.078125q-0.234375 -0.625 -0.234375 -1.375l0 -0.328125q0 -0.6875 0.25 -1.28125q0.25 -0.609375 0.6875 -1.03125q0.4375 -0.4375 1.03125 -0.6875q0.59375 -0.25 1.28125 -0.25q0.8125 0 1.40625 0.296875q0.59375 0.296875 0.96875 0.75q0.390625 0.4375 0.5625 0.953125q0.1875 0.515625 0.1875 0.953125l0 0.859375l-5.328125 0zm2.203125 -2.828125q-0.4375 0 -0.8125 0.140625q-0.375 0.140625 -0.671875 0.390625q-0.28125 0.25 -0.46875 0.59375q-0.171875 0.34375 -0.21875 0.75l4.25 0q-0.015625 -0.4375 -0.203125 -0.78125q-0.171875 -0.34375 -0.46875 -0.578125q-0.28125 -0.25 -0.65625 -0.375q-0.359375 -0.140625 -0.75 -0.140625zm7.547409 -4.5625q0 -0.453125 0.28125 -0.734375q0.296875 -0.296875 0.75 -0.296875l1.296875 0l0 0.953125l-0.921875 0q-0.359375 0 -0.359375 0.40625l0 10.765625q0 0.40625 0.359375 0.40625l0.921875 0l0 0.953125l-1.296875 0q-0.453125 0 -0.75 -0.296875q-0.28125 -0.28125 -0.28125 -0.734375l0 -11.421875zm7.859909 1.796875q0 -0.390625 0.265625 -0.65625q0.28125 -0.28125 0.65625 -0.28125q0.390625 0 0.65625 0.28125q0.28125 0.265625 0.28125 0.65625q0 0.375 -0.28125 0.65625q-0.265625 0.265625 -0.65625 0.265625q-0.375 0 -0.65625 -0.265625q-0.265625 -0.28125 -0.265625 -0.65625zm-1.90625 7.625l2.328125 0l0 -4.703125l-2.078125 0l0 -0.953125l3.109375 0l0 5.65625l2.171875 0l0 0.953125l-5.53125 0l0 -0.953125zm8.141159 -4.1875l2.296875 0l0 -2.3125l0.96875 0l0 2.3125l2.296875 0l0 0.953125l-2.296875 0l0 2.3125l-0.96875 0l0 -2.3125l-2.296875 0l0 -0.953125zm10.000534 4.390625q0 -0.390625 0.265625 -0.65625q0.28125 -0.265625 0.671875 -0.265625q0.390625 0 0.65625 0.265625q0.28125 0.265625 0.28125 0.65625q0 0.390625 -0.28125 0.671875q-0.265625 0.265625 -0.65625 0.265625q-0.390625 0 -0.671875 -0.265625q-0.265625 -0.28125 -0.265625 -0.671875zm0 -5.109375q0 -0.390625 0.265625 -0.65625q0.28125 -0.28125 0.671875 -0.28125q0.390625 0 0.65625 0.28125q0.28125 0.265625 0.28125 0.65625q0 0.375 -0.28125 0.65625q-0.265625 0.265625 -0.65625 0.265625q-0.390625 0 -0.671875 -0.265625q-0.265625 -0.28125 -0.265625 -0.65625zm11.047409 -0.75q0 -0.875 -0.53125 -1.390625q-0.53125 -0.53125 -1.46875 -0.53125q-0.453125 0 -0.84375 0.171875q-0.375 0.15625 -0.65625 0.453125q-0.265625 0.296875 -0.421875 0.71875q-0.15625 0.40625 -0.15625 0.890625l0 1.390625l0.171875 0q0.3125 -0.578125 0.90625 -0.90625q0.59375 -0.34375 1.328125 -0.34375q0.640625 0 1.1875 0.203125q0.546875 0.203125 0.9375 0.609375q0.390625 0.40625 0.609375 0.96875q0.21875 0.5625 0.21875 1.28125l0 0.15625q0 0.703125 -0.25 1.28125q-0.234375 0.5625 -0.671875 0.984375q-0.4375 0.40625 -1.03125 0.640625q-0.59375 0.21875 -1.28125 0.21875q-0.6875 0 -1.28125 -0.21875q-0.59375 -0.234375 -1.03125 -0.640625q-0.4375 -0.40625 -0.6875 -0.96875q-0.234375 -0.578125 -0.234375 -1.25l0 -3.40625q0 -0.734375 0.25 -1.328125q0.25 -0.59375 0.6875 -1.015625q0.4375 -0.421875 1.015625 -0.640625q0.59375 -0.234375 1.25 -0.234375q0.671875 0 1.234375 0.203125q0.578125 0.203125 0.984375 0.578125q0.421875 0.375 0.65625 0.921875q0.234375 0.53125 0.234375 1.203125l-1.125 0zm-1.953125 5.8125q0.484375 0 0.875 -0.15625q0.390625 -0.15625 0.671875 -0.4375q0.28125 -0.28125 0.421875 -0.65625q0.15625 -0.390625 0.15625 -0.859375l0 -0.15625q0 -0.46875 -0.171875 -0.859375q-0.15625 -0.390625 -0.4375 -0.65625q-0.28125 -0.28125 -0.671875 -0.4375q-0.390625 -0.15625 -0.84375 -0.15625q-0.453125 0 -0.84375 0.171875q-0.375 0.15625 -0.671875 0.4375q-0.28125 0.265625 -0.453125 0.640625q-0.15625 0.375 -0.15625 0.796875l0 0.265625q0 0.4375 0.140625 0.8125q0.15625 0.375 0.4375 0.65625q0.28125 0.28125 0.671875 0.4375q0.390625 0.15625 0.875 0.15625zm8.000534 -8.53125l2.171875 0l0 6.53125l1.4375 0l0 1.03125l-1.4375 0l0 1.765625l-1.125 0l0 -1.765625l-4.3125 0l0 -1.546875l3.265625 -6.015625zm-2.3125 6.375l0 0.15625l3.359375 0l0 -6.046875l-0.15625 0l-3.203125 5.890625zm11.188034 4.0q0 0.453125 -0.296875 0.734375q-0.28125 0.296875 -0.734375 0.296875l-1.296875 0l0 -0.953125l0.921875 0q0.359375 0 0.359375 -0.40625l0 -10.765625q0 -0.40625 -0.359375 -0.40625l-0.921875 0l0 -0.953125l1.296875 0q0.453125 0 0.734375 0.296875q0.296875 0.28125 0.296875 0.734375l0 11.421875z" fill-rule="nonzero"/><path fill="#000000" fill-opacity="0.0" d="m452.5378 162.77953l114.92917 0" fill-rule="evenodd"/><path stroke="#000000" stroke-width="3.0" stroke-linejoin="round" stroke-linecap="butt" d="m452.5378 162.77953l96.92911 0" fill-rule="evenodd"/><path fill="#000000" stroke="#000000" stroke-width="3.0" stroke-linecap="butt" d="m549.4669 167.73473l13.614319 -4.9552l-13.614319 -4.9552z" fill-rule="evenodd"/><path fill="#000000" fill-opacity="0.0" d="m446.48007 131.22067l120.97641 0l0 31.559052l-120.97641 0z" fill-rule="evenodd"/><path fill="#000000" d="m479.35703 143.97035l2.078125 0l0 -2.71875l1.03125 0l0 2.71875l2.5625 0l0 0.953125l-2.5625 0l0 4.296875q0 0.40625 0.359375 0.40625l1.890625 0l0 0.953125l-2.265625 0q-0.453125 0 -0.734375 -0.296875q-0.28125 -0.296875 -0.28125 -0.75l0 -4.609375l-2.078125 0l0 -0.953125zm14.609894 3.390625q0 0.8125 -0.28125 1.453125q-0.265625 0.625 -0.71875 1.0625q-0.453125 0.4375 -1.0625 0.671875q-0.59375 0.21875 -1.25 0.21875q-0.671875 0 -1.265625 -0.21875q-0.59375 -0.234375 -1.046875 -0.671875q-0.453125 -0.4375 -0.734375 -1.0625q-0.265625 -0.640625 -0.265625 -1.453125l0 -0.171875q0 -0.8125 0.265625 -1.4375q0.28125 -0.640625 0.734375 -1.078125q0.453125 -0.4375 1.046875 -0.65625q0.609375 -0.234375 1.265625 -0.234375q0.65625 0 1.25 0.234375q0.609375 0.21875 1.0625 0.65625q0.453125 0.4375 0.71875 1.078125q0.28125 0.625 0.28125 1.4375l0 0.171875zm-3.3125 2.421875q0.484375 0 0.890625 -0.171875q0.40625 -0.171875 0.703125 -0.484375q0.3125 -0.3125 0.484375 -0.765625q0.171875 -0.453125 0.171875 -1.0l0 -0.171875q0 -0.53125 -0.171875 -0.96875q-0.171875 -0.453125 -0.484375 -0.765625q-0.296875 -0.328125 -0.71875 -0.5q-0.40625 -0.1875 -0.875 -0.1875q-0.46875 0 -0.890625 0.1875q-0.40625 0.171875 -0.71875 0.5q-0.296875 0.3125 -0.46875 0.765625q-0.171875 0.4375 -0.171875 0.96875l0 0.171875q0 0.546875 0.171875 1.0q0.171875 0.453125 0.46875 0.765625q0.3125 0.3125 0.71875 0.484375q0.40625 0.171875 0.890625 0.171875zm18.516693 -5.84375q0 -0.453125 -0.1875 -0.796875q-0.171875 -0.34375 -0.484375 -0.5625q-0.3125 -0.234375 -0.71875 -0.359375q-0.390625 -0.125 -0.828125 -0.125q-0.390625 0 -0.734375 0.109375q-0.34375 0.09375 -0.625 0.28125q-0.265625 0.1875 -0.421875 0.46875q-0.15625 0.265625 -0.15625 0.625l0 0.078125q0 0.390625 0.15625 0.671875q0.15625 0.265625 0.46875 0.46875q0.3125 0.1875 0.78125 0.3125q0.46875 0.125 1.09375 0.21875q1.46875 0.21875 2.15625 0.859375q0.703125 0.625 0.703125 1.703125l0 0.15625q0 0.59375 -0.21875 1.09375q-0.203125 0.5 -0.609375 0.859375q-0.40625 0.359375 -1.015625 0.5625q-0.59375 0.203125 -1.375 0.203125q-0.890625 0 -1.578125 -0.25q-0.6875 -0.265625 -1.15625 -0.71875q-0.453125 -0.46875 -0.703125 -1.09375q-0.234375 -0.625 -0.234375 -1.34375l0 -0.40625l1.125 0l0 0.3125q0 1.234375 0.671875 1.84375q0.671875 0.609375 1.875 0.609375q1.03125 0 1.5625 -0.453125q0.53125 -0.453125 0.53125 -1.21875l0 -0.078125q0 -0.734375 -0.546875 -1.125q-0.53125 -0.390625 -1.75 -0.5625q-0.703125 -0.09375 -1.28125 -0.28125q-0.5625 -0.1875 -0.96875 -0.5q-0.390625 -0.3125 -0.609375 -0.75q-0.203125 -0.453125 -0.203125 -1.046875l0 -0.15625q0 -0.546875 0.21875 -1.0q0.234375 -0.453125 0.640625 -0.78125q0.40625 -0.34375 0.96875 -0.515625q0.578125 -0.1875 1.25 -0.1875q0.78125 0 1.40625 0.234375q0.625 0.21875 1.046875 0.609375q0.421875 0.375 0.640625 0.890625q0.21875 0.5 0.21875 1.0625l0 0.5625l-1.109375 0l0 -0.484375zm2.8442688 -2.6875l1.125 0l0 4.125l3.96875 0l0 -4.125l1.125 0l0 9.328125l-1.125 0l0 -4.15625l-3.96875 0l0 4.15625l-1.125 0l0 -9.328125zm13.266174 7.015625l-4.0 0l-0.671875 2.3125l-1.203125 0l2.828125 -9.328125l2.09375 0l2.828125 9.328125l-1.203125 0l-0.671875 -2.3125zm-2.078125 -6.53125l-1.609375 5.484375l3.375 0l-1.609375 -5.484375l-0.15625 0zm7.3130493 4.203125l0 -1.546875l3.046875 -1.9375l0 -0.171875l-5.28125 0l0 -1.03125l6.234375 0l0 1.703125l-3.03125 1.953125l0 0.15625l0.53125 0q0.53125 0 1.015625 0.171875q0.5 0.171875 0.875 0.515625q0.390625 0.328125 0.609375 0.8125q0.234375 0.484375 0.234375 1.125l0 0.234375q0 0.609375 -0.234375 1.125q-0.234375 0.515625 -0.671875 0.90625q-0.421875 0.375 -1.0 0.59375q-0.578125 0.21875 -1.265625 0.21875q-0.78125 0 -1.40625 -0.234375q-0.625 -0.25 -1.0625 -0.671875q-0.4375 -0.421875 -0.671875 -0.984375q-0.234375 -0.5625 -0.234375 -1.203125l0 -0.71875l1.109375 0l0 0.640625q0 0.5 0.171875 0.90625q0.171875 0.390625 0.46875 0.671875q0.296875 0.265625 0.703125 0.40625q0.421875 0.140625 0.90625 0.140625q0.4375 0 0.8125 -0.140625q0.375 -0.140625 0.65625 -0.40625q0.28125 -0.265625 0.4375 -0.609375q0.171875 -0.359375 0.171875 -0.75l0 -0.09375q0 -0.828125 -0.53125 -1.296875q-0.53125 -0.484375 -1.34375 -0.484375l-1.25 0z" fill-rule="nonzero"/><path fill="#000000" fill-opacity="0.0" d="m448.00037 71.834656l0 219.68503" fill-rule="evenodd"/><path stroke="#000000" stroke-width="8.0" stroke-linejoin="round" stroke-linecap="butt" d="m448.00037 71.834656l0 219.68503" fill-rule="evenodd"/><path fill="#ffffff" d="m124.826775 86.94226l125.41732 0l0 42.078735l-125.41732 0z" fill-rule="evenodd"/><path stroke="#000000" stroke-width="3.0" stroke-linejoin="round" stroke-linecap="butt" d="m124.826775 86.94226l125.41732 0l0 42.078735l-125.41732 0z" fill-rule="evenodd"/><path fill="#000000" d="m135.74864 109.79726q0.03125 0.984375 0.609375 1.59375q0.578125 0.59375 1.59375 0.59375q0.46875 0 0.8125 -0.109375q0.359375 -0.109375 0.59375 -0.296875q0.25 -0.1875 0.40625 -0.421875q0.15625 -0.25 0.25 -0.53125l0.984375 0.265625q-0.28125 0.921875 -1.03125 1.5q-0.75 0.578125 -2.03125 0.578125q-0.703125 0 -1.296875 -0.25q-0.59375 -0.25 -1.03125 -0.703125q-0.421875 -0.453125 -0.671875 -1.078125q-0.234375 -0.625 -0.234375 -1.375l0 -0.328125q0 -0.6875 0.25 -1.28125q0.25 -0.609375 0.6875 -1.03125q0.4375 -0.4375 1.03125 -0.6875q0.59375 -0.25 1.28125 -0.25q0.8125 0 1.40625 0.296875q0.59375 0.296875 0.96875 0.75q0.390625 0.4375 0.5625 0.953125q0.1875 0.515625 0.1875 0.953125l0 0.859375l-5.328125 0zm2.203125 -2.828125q-0.4375 0 -0.8125 0.140625q-0.375 0.140625 -0.671875 0.390625q-0.28125 0.25 -0.46875 0.59375q-0.171875 0.34375 -0.21875 0.75l4.25 0q-0.015625 -0.4375 -0.203125 -0.78125q-0.171875 -0.34375 -0.46875 -0.578125q-0.28125 -0.25 -0.65625 -0.375q-0.359375 -0.140625 -0.75 -0.140625zm6.234909 5.8125l-1.046875 0l0 -6.609375l1.046875 0l0 1.125l0.15625 0q0.609375 -1.3125 2.125 -1.3125q1.15625 0 1.828125 0.71875q0.6875 0.703125 0.6875 2.140625l0 3.9375l-1.046875 0l0 -3.734375q0 -1.03125 -0.46875 -1.546875q-0.453125 -0.53125 -1.265625 -0.53125q-0.9375 0 -1.484375 0.65625q-0.53125 0.640625 -0.53125 1.71875l0 3.4375zm13.297409 -2.34375q-0.109375 0.546875 -0.375 1.015625q-0.25 0.46875 -0.65625 0.8125q-0.390625 0.328125 -0.9375 0.515625q-0.53125 0.1875 -1.171875 0.1875q-0.703125 0 -1.328125 -0.21875q-0.609375 -0.234375 -1.078125 -0.671875q-0.46875 -0.4375 -0.75 -1.0625q-0.265625 -0.625 -0.265625 -1.4375l0 -0.15625q0 -0.796875 0.265625 -1.4375q0.28125 -0.640625 0.75 -1.078125q0.46875 -0.4375 1.078125 -0.671875q0.625 -0.25 1.328125 -0.25q0.625 0 1.15625 0.1875q0.53125 0.1875 0.9375 0.53125q0.40625 0.328125 0.65625 0.796875q0.265625 0.46875 0.359375 1.015625l-1.03125 0.234375q-0.046875 -0.34375 -0.203125 -0.671875q-0.140625 -0.328125 -0.40625 -0.5625q-0.265625 -0.25 -0.640625 -0.390625q-0.359375 -0.15625 -0.859375 -0.15625q-0.484375 0 -0.90625 0.1875q-0.40625 0.171875 -0.734375 0.5q-0.3125 0.328125 -0.5 0.78125q-0.171875 0.453125 -0.171875 0.984375l0 0.15625q0 0.5625 0.171875 1.015625q0.1875 0.4375 0.5 0.75q0.328125 0.296875 0.75 0.46875q0.421875 0.171875 0.921875 0.171875q0.484375 0 0.84375 -0.15625q0.375 -0.15625 0.625 -0.390625q0.265625 -0.25 0.421875 -0.5625q0.15625 -0.328125 0.203125 -0.671875l1.046875 0.234375zm8.203659 -0.875q0 0.8125 -0.28125 1.453125q-0.265625 0.625 -0.71875 1.0625q-0.453125 0.4375 -1.0625 0.671875q-0.59375 0.21875 -1.25 0.21875q-0.671875 0 -1.265625 -0.21875q-0.59375 -0.234375 -1.046875 -0.671875q-0.453125 -0.4375 -0.734375 -1.0625q-0.265625 -0.640625 -0.265625 -1.453125l0 -0.171875q0 -0.8125 0.265625 -1.4375q0.28125 -0.640625 0.734375 -1.078125q0.453125 -0.4375 1.046875 -0.65625q0.609375 -0.234375 1.265625 -0.234375q0.65625 0 1.25 0.234375q0.609375 0.21875 1.0625 0.65625q0.453125 0.4375 0.71875 1.078125q0.28125 0.625 0.28125 1.4375l0 0.171875zm-3.3125 2.421875q0.484375 0 0.890625 -0.171875q0.40625 -0.171875 0.703125 -0.484375q0.3125 -0.3125 0.484375 -0.765625q0.171875 -0.453125 0.171875 -1.0l0 -0.171875q0 -0.53125 -0.171875 -0.96875q-0.171875 -0.453125 -0.484375 -0.765625q-0.296875 -0.328125 -0.71875 -0.5q-0.40625 -0.1875 -0.875 -0.1875q-0.46875 0 -0.890625 0.1875q-0.40625 0.171875 -0.71875 0.5q-0.296875 0.3125 -0.46875 0.765625q-0.171875 0.4375 -0.171875 0.96875l0 0.171875q0 0.546875 0.171875 1.0q0.171875 0.453125 0.46875 0.765625q0.3125 0.3125 0.71875 0.484375q0.40625 0.171875 0.890625 0.171875zm10.359909 -0.21875l-0.15625 0q-0.171875 0.3125 -0.421875 0.546875q-0.234375 0.21875 -0.53125 0.375q-0.28125 0.140625 -0.609375 0.203125q-0.3125 0.078125 -0.609375 0.078125q-0.65625 0 -1.234375 -0.21875q-0.578125 -0.234375 -1.015625 -0.65625q-0.421875 -0.4375 -0.671875 -1.0625q-0.25 -0.640625 -0.25 -1.453125l0 -0.203125q0 -0.8125 0.25 -1.4375q0.265625 -0.640625 0.6875 -1.0625q0.421875 -0.4375 1.0 -0.65625q0.578125 -0.234375 1.21875 -0.234375q0.671875 0 1.265625 0.296875q0.59375 0.296875 0.921875 0.921875l0.15625 0l0 -3.75l1.03125 0l0 9.328125l-1.03125 0l0 -1.015625zm-2.21875 0.21875q0.46875 0 0.859375 -0.171875q0.40625 -0.171875 0.703125 -0.484375q0.3125 -0.328125 0.484375 -0.765625q0.171875 -0.453125 0.171875 -1.0l0 -0.171875q0 -0.53125 -0.171875 -0.96875q-0.171875 -0.453125 -0.484375 -0.765625q-0.296875 -0.328125 -0.703125 -0.5q-0.40625 -0.1875 -0.859375 -0.1875q-0.46875 0 -0.875 0.171875q-0.40625 0.171875 -0.703125 0.5q-0.296875 0.3125 -0.46875 0.765625q-0.15625 0.4375 -0.15625 0.96875l0 0.203125q0 0.5625 0.15625 1.0q0.171875 0.4375 0.46875 0.75q0.296875 0.3125 0.6875 0.484375q0.40625 0.171875 0.890625 0.171875zm6.016159 -2.1875q0.03125 0.984375 0.609375 1.59375q0.578125 0.59375 1.59375 0.59375q0.46875 0 0.8125 -0.109375q0.359375 -0.109375 0.59375 -0.296875q0.25 -0.1875 0.40625 -0.421875q0.15625 -0.25 0.25 -0.53125l0.984375 0.265625q-0.28125 0.921875 -1.03125 1.5q-0.75 0.578125 -2.03125 0.578125q-0.703125 0 -1.296875 -0.25q-0.59375 -0.25 -1.03125 -0.703125q-0.421875 -0.453125 -0.671875 -1.078125q-0.234375 -0.625 -0.234375 -1.375l0 -0.328125q0 -0.6875 0.25 -1.28125q0.25 -0.609375 0.6875 -1.03125q0.4375 -0.4375 1.03125 -0.6875q0.59375 -0.25 1.28125 -0.25q0.8125 0 1.40625 0.296875q0.59375 0.296875 0.96875 0.75q0.390625 0.4375 0.5625 0.953125q0.1875 0.515625 0.1875 0.953125l0 0.859375l-5.328125 0zm2.203125 -2.828125q-0.4375 0 -0.8125 0.140625q-0.375 0.140625 -0.671875 0.390625q-0.28125 0.25 -0.46875 0.59375q-0.171875 0.34375 -0.21875 0.75l4.25 0q-0.015625 -0.4375 -0.203125 -0.78125q-0.171875 -0.34375 -0.46875 -0.578125q-0.28125 -0.25 -0.65625 -0.375q-0.359375 -0.140625 -0.75 -0.140625zm5.000534 6.453125l6.21875 0l0 0.953125l-6.21875 0l0 -0.953125zm9.719284 -5.546875q0 0.484375 0.40625 0.734375q0.40625 0.25 1.484375 0.328125q1.15625 0.09375 1.765625 0.5625q0.609375 0.453125 0.609375 1.328125l0 0.09375q0 0.46875 -0.203125 0.859375q-0.1875 0.375 -0.53125 0.640625q-0.328125 0.265625 -0.8125 0.40625q-0.484375 0.140625 -1.0625 0.140625q-0.78125 0 -1.328125 -0.203125q-0.546875 -0.21875 -0.921875 -0.546875q-0.359375 -0.34375 -0.546875 -0.765625q-0.1875 -0.4375 -0.21875 -0.890625l0.984375 -0.234375q0.0625 0.765625 0.578125 1.234375q0.53125 0.453125 1.390625 0.453125q0.734375 0 1.171875 -0.28125q0.453125 -0.296875 0.453125 -0.8125q0 -0.5625 -0.4375 -0.796875q-0.4375 -0.25 -1.421875 -0.3125q-1.140625 -0.078125 -1.765625 -0.53125q-0.609375 -0.453125 -0.609375 -1.328125l0 -0.078125q0 -0.46875 0.203125 -0.8125q0.203125 -0.359375 0.53125 -0.59375q0.34375 -0.25 0.765625 -0.359375q0.4375 -0.125 0.90625 -0.125q0.65625 0 1.140625 0.1875q0.5 0.171875 0.828125 0.46875q0.328125 0.28125 0.5 0.65625q0.1875 0.359375 0.25 0.734375l-0.984375 0.25q-0.078125 -0.640625 -0.53125 -1.0q-0.4375 -0.359375 -1.15625 -0.359375q-0.28125 0 -0.546875 0.0625q-0.25 0.046875 -0.453125 0.171875q-0.203125 0.125 -0.328125 0.3125q-0.109375 0.171875 -0.109375 0.40625zm6.563034 -1.703125l2.078125 0l0 -2.71875l1.03125 0l0 2.71875l2.5625 0l0 0.953125l-2.5625 0l0 4.296875q0 0.40625 0.359375 0.40625l1.890625 0l0 0.953125l-2.265625 0q-0.453125 0 -0.734375 -0.296875q-0.28125 -0.296875 -0.28125 -0.75l0 -4.609375l-2.078125 0l0 -0.953125zm8.000534 0l2.40625 0l0 0.875l0.15625 0q0.25 -0.546875 0.71875 -0.796875q0.46875 -0.265625 1.0625 -0.265625q1.0 0 1.609375 0.65625q0.625 0.65625 0.65625 1.90625l-1.09375 0.15625q0 -0.921875 -0.4375 -1.328125q-0.4375 -0.40625 -1.078125 -0.40625q-0.40625 0 -0.71875 0.171875q-0.296875 0.15625 -0.5 0.4375q-0.1875 0.265625 -0.28125 0.640625q-0.09375 0.375 -0.09375 0.796875l0 2.8125l1.671875 0l0 0.953125l-4.234375 0l0 -0.953125l1.515625 0l0 -4.703125l-1.359375 0l0 -0.953125zm10.594284 -1.96875q0 -0.390625 0.265625 -0.65625q0.28125 -0.28125 0.65625 -0.28125q0.390625 0 0.65625 0.28125q0.28125 0.265625 0.28125 0.65625q0 0.375 -0.28125 0.65625q-0.265625 0.265625 -0.65625 0.265625q-0.375 0 -0.65625 -0.265625q-0.265625 -0.28125 -0.265625 -0.65625zm-1.90625 7.625l2.328125 0l0 -4.703125l-2.078125 0l0 -0.953125l3.109375 0l0 5.65625l2.171875 0l0 0.953125l-5.53125 0l0 -0.953125zm9.047409 0.953125l-1.046875 0l0 -6.609375l1.046875 0l0 1.125l0.15625 0q0.609375 -1.3125 2.125 -1.3125q1.15625 0 1.828125 0.71875q0.6875 0.703125 0.6875 2.140625l0 3.9375l-1.046875 0l0 -3.734375q0 -1.03125 -0.46875 -1.546875q-0.453125 -0.53125 -1.265625 -0.53125q-0.9375 0 -1.484375 0.65625q-0.53125 0.640625 -0.53125 1.71875l0 3.4375zm12.141159 -1.015625l-0.15625 0q-0.328125 0.609375 -0.890625 0.90625q-0.546875 0.296875 -1.203125 0.296875q-0.65625 0 -1.25 -0.21875q-0.578125 -0.234375 -1.03125 -0.65625q-0.4375 -0.4375 -0.703125 -1.0625q-0.265625 -0.640625 -0.265625 -1.453125l0 -0.203125q0 -0.8125 0.265625 -1.4375q0.265625 -0.640625 0.703125 -1.0625q0.453125 -0.4375 1.03125 -0.65625q0.59375 -0.234375 1.234375 -0.234375q0.71875 0 1.25 0.3125q0.546875 0.3125 0.859375 0.90625l0.15625 0l0 -1.03125l1.03125 0l0 8.234375q0 0.453125 -0.28125 0.75q-0.28125 0.296875 -0.734375 0.296875l-4.3125 0l0 -0.96875l3.9375 0q0.359375 0 0.359375 -0.390625l0 -2.328125zm-2.21875 0.21875q0.46875 0 0.859375 -0.171875q0.40625 -0.171875 0.703125 -0.484375q0.3125 -0.328125 0.484375 -0.765625q0.171875 -0.453125 0.171875 -1.0l0 -0.171875q0 -0.53125 -0.171875 -0.96875q-0.171875 -0.453125 -0.484375 -0.765625q-0.296875 -0.328125 -0.703125 -0.5q-0.40625 -0.1875 -0.859375 -0.1875q-0.46875 0 -0.875 0.171875q-0.40625 0.171875 -0.703125 0.5q-0.296875 0.3125 -0.46875 0.765625q-0.15625 0.4375 -0.15625 0.96875l0 0.203125q0 0.5625 0.15625 1.0q0.171875 0.4375 0.46875 0.75q0.296875 0.3125 0.6875 0.484375q0.40625 0.171875 0.890625 0.171875z" fill-rule="nonzero"/><path fill="#000000" fill-opacity="0.0" d="m148.41995 38.75853l0 48.09449" fill-rule="evenodd"/><path stroke="#980000" stroke-width="2.0" stroke-linejoin="round" stroke-linecap="butt" d="m148.41995 38.75853l0 36.09449" fill-rule="evenodd"/><path fill="#980000" stroke="#980000" stroke-width="2.0" stroke-linecap="butt" d="m145.11649 74.85302l3.3034668 9.076195l3.3034668 -9.076195z" fill-rule="evenodd"/><path fill="#000000" fill-opacity="0.0" d="m214.77428 38.75853l0 48.09449" fill-rule="evenodd"/><path stroke="#980000" stroke-width="2.0" stroke-linejoin="round" stroke-linecap="butt" d="m214.77428 38.75853l0 36.09449" fill-rule="evenodd"/><path fill="#980000" stroke="#980000" stroke-width="2.0" stroke-linecap="butt" d="m211.47081 74.85302l3.3034668 9.076195l3.3034668 -9.076195z" fill-rule="evenodd"/><path fill="#000000" fill-opacity="0.0" d="m121.47244 93.72441l0 -88.850395l29.732285 0l0 88.850395z" fill-rule="evenodd"/><path fill="#980000" d="m134.09848 76.59704q0.484375 0 0.734375 -0.40625q0.25 -0.40625 0.328125 -1.484375q0.09375 -1.15625 0.5625 -1.765625q0.453125 -0.609375 1.328125 -0.609375l0.09375 0q0.46875 0 0.859375 0.203125q0.375 0.1875 0.640625 0.53125q0.265625 0.328125 0.40625 0.8125q0.140625 0.484375 0.140625 1.0625q0 0.78125 -0.203125 1.328125q-0.21875 0.546875 -0.546875 0.921875q-0.34375 0.359375 -0.765625 0.546875q-0.4375 0.1875 -0.890625 0.21875l-0.234375 -0.984375q0.765625 -0.0625 1.234375 -0.578125q0.453125 -0.53125 0.453125 -1.390625q0 -0.734375 -0.28125 -1.171875q-0.296875 -0.453125 -0.8125 -0.453125q-0.5625 0 -0.796875 0.4375q-0.25 0.4375 -0.3125 1.421875q-0.078125 1.140625 -0.53125 1.765625q-0.453125 0.609375 -1.328125 0.609375l-0.078125 0q-0.46875 0 -0.8125 -0.203125q-0.359375 -0.203125 -0.59375 -0.53125q-0.25 -0.34375 -0.359375 -0.765625q-0.125 -0.4375 -0.125 -0.90625q0 -0.65625 0.1875 -1.140625q0.171875 -0.5 0.46875 -0.828125q0.28125 -0.328125 0.65625 -0.5q0.359375 -0.1875 0.734375 -0.25l0.25 0.984375q-0.640625 0.078125 -1.0 0.53125q-0.359375 0.4375 -0.359375 1.15625q0 0.28125 0.0625 0.546875q0.046875 0.25 0.171875 0.453125q0.125 0.203125 0.3125 0.328125q0.171875 0.109375 0.40625 0.109375zm-1.703125 -6.563034l0 -2.078125l-2.71875 0l0 -1.03125l2.71875 0l0 -2.5625l0.953125 0l0 2.5625l4.296875 0q0.40625 0 0.40625 -0.359375l0 -1.890625l0.953125 0l0 2.265625q0 0.453125 -0.296875 0.734375q-0.296875 0.28125 -0.75 0.28125l-4.609375 0l0 2.078125l-0.953125 0zm0 -8.000534l0 -2.40625l0.875 0l0 -0.15625q-0.546875 -0.25 -0.796875 -0.71875q-0.265625 -0.46875 -0.265625 -1.0625q0 -1.0 0.65625 -1.609375q0.65625 -0.625 1.90625 -0.65625l0.15625 1.09375q-0.921875 0 -1.328125 0.4375q-0.40625 0.4375 -0.40625 1.078125q0 0.40625 0.171875 0.71875q0.15625 0.296875 0.4375 0.5q0.265625 0.1875 0.640625 0.28125q0.375 0.09375 0.796875 0.09375l2.8125 0l0 -1.671875l0.953125 0l0 4.234375l-0.953125 0l0 -1.515625l-4.703125 0l0 1.359375l-0.953125 0zm3.625 -9.297409q0.984375 -0.03125 1.59375 -0.609375q0.59375 -0.578125 0.59375 -1.59375q0 -0.46875 -0.109375 -0.8125q-0.109375 -0.359375 -0.296875 -0.59375q-0.1875 -0.25 -0.421875 -0.40625q-0.25 -0.15625 -0.53125 -0.25l0.265625 -0.984375q0.921875 0.28125 1.5 1.03125q0.578125 0.75 0.578125 2.03125q0 0.703125 -0.25 1.296875q-0.25 0.59375 -0.703125 1.03125q-0.453125 0.421875 -1.078125 0.671875q-0.625 0.234375 -1.375 0.234375l-0.328125 0q-0.6875 0 -1.28125 -0.25q-0.609375 -0.25 -1.03125 -0.6875q-0.4375 -0.4375 -0.6875 -1.03125q-0.25 -0.59375 -0.25 -1.28125q0 -0.8125 0.296875 -1.40625q0.296875 -0.59375 0.75 -0.96875q0.4375 -0.390625 0.953125 -0.5625q0.515625 -0.1875 0.953125 -0.1875l0.859375 0l0 5.328125zm-2.828125 -2.203125q0 0.4375 0.140625 0.8125q0.140625 0.375 0.390625 0.671875q0.25 0.28125 0.59375 0.46875q0.34375 0.171875 0.75 0.21875l0 -4.25q-0.4375 0.015625 -0.78125 0.203125q-0.34375 0.171875 -0.578125 0.46875q-0.25 0.28125 -0.375 0.65625q-0.140625 0.359375 -0.140625 0.75zm5.8125 -6.234909l0 1.046875l-6.609375 0l0 -1.046875l1.125 0l0 -0.15625q-1.3125 -0.609375 -1.3125 -2.125q0 -1.15625 0.71875 -1.828125q0.703125 -0.6875 2.140625 -0.6875l3.9375 0l0 1.046875l-3.734375 0q-1.03125 0 -1.546875 0.46875q-0.53125 0.453125 -0.53125 1.265625q0 0.9375 0.65625 1.484375q0.640625 0.53125 1.71875 0.53125l3.4375 0zm-1.015625 -12.141159l0 0.15625q0.609375 0.328125 0.90625 0.890625q0.296875 0.546875 0.296875 1.203125q0 0.65625 -0.21875 1.25q-0.234375 0.578125 -0.65625 1.03125q-0.4375 0.4375 -1.0625 0.703125q-0.640625 0.265625 -1.453125 0.265625l-0.203125 0q-0.8125 0 -1.4375 -0.265625q-0.640625 -0.265625 -1.0625 -0.703125q-0.4375 -0.453125 -0.65625 -1.03125q-0.234375 -0.59375 -0.234375 -1.234375q0 -0.71875 0.3125 -1.25q0.3125 -0.546875 0.90625 -0.859375l0 -0.15625l-1.03125 0l0 -1.0312481l8.234375 0q0.453125 0 0.75 0.28125q0.296875 0.28125 0.296875 0.7343731l0 4.3125l-0.96875 0l0 -3.9375q0 -0.359375 -0.390625 -0.359375l-2.328125 0zm0.21875 2.21875q0 -0.46875 -0.171875 -0.859375q-0.171875 -0.40625 -0.484375 -0.703125q-0.328125 -0.3125 -0.765625 -0.484375q-0.453125 -0.171875 -1.0 -0.171875l-0.171875 0q-0.53125 0 -0.96875 0.171875q-0.453125 0.171875 -0.765625 0.484375q-0.328125 0.296875 -0.5 0.703125q-0.1875 0.40625 -0.1875 0.859375q0 0.46875 0.171875 0.875q0.171875 0.40625 0.5 0.703125q0.3125 0.296875 0.765625 0.46875q0.4375 0.15625 0.96875 0.15625l0.203125 0q0.5625 0 1.0 -0.15625q0.4375 -0.171875 0.75 -0.46875q0.3125 -0.296875 0.484375 -0.6875q0.171875 -0.40625 0.171875 -0.890625zm-5.8125 -5.125532l0 -2.078125l-2.71875 0l0 -1.03125l2.71875 0l0 -2.5625l0.953125 0l0 2.5625l4.296875 0q0.40625 0 0.40625 -0.359375l0 -1.890625l0.953125 0l0 2.265625q0 0.453125 -0.296875 0.734375q-0.296875 0.28125 -0.75 0.28125l-4.609375 0l0 2.078125l-0.953125 0zm6.609375 -9.422409l0 1.046875l-9.328125 0l0 -1.046875l3.921875 0l0 -0.15625q-0.640625 -0.3125 -1.015625 -0.859375q-0.375 -0.546875 -0.375 -1.359375q0 -1.078125 0.71875 -1.750001q0.703125 -0.671875 2.140625 -0.671875l3.9375 0l0 1.046876l-3.734375 0q-1.03125 0 -1.546875 0.46875q-0.53125 0.453125 -0.53125 1.265625q0 0.9375 0.65625 1.484375q0.640625 0.53125 1.71875 0.53125l3.4375 0z" fill-rule="nonzero"/><path fill="#000000" fill-opacity="0.0" d="m185.04199 93.72441l0 -88.850395l29.732285 0l0 88.850395z" fill-rule="evenodd"/><path fill="#980000" d="m198.7149 68.11213l0 -0.234375l-2.75 -2.515625l0 -1.28125l0.078125 0l3.03125 2.75l0.234375 0l3.1875 -3.0625l0.078125 0l0 1.265625l-2.90625 2.8125l0 0.265625l2.90625 0l0 1.03125l-9.328125 0l0 -1.03125l5.46875 0zm0.875 -7.219284q0.984375 -0.03125 1.59375 -0.609375q0.59375 -0.578125 0.59375 -1.59375q0 -0.46875 -0.109375 -0.8125q-0.109375 -0.359375 -0.296875 -0.59375q-0.1875 -0.25 -0.421875 -0.40625q-0.25 -0.15625 -0.53125 -0.25l0.265625 -0.984375q0.921875 0.28125 1.5 1.03125q0.578125 0.75 0.578125 2.03125q0 0.703125 -0.25 1.296875q-0.25 0.59375 -0.703125 1.03125q-0.453125 0.421875 -1.078125 0.671875q-0.625 0.234375 -1.375 0.234375l-0.328125 0q-0.6875 0 -1.28125 -0.25q-0.609375 -0.25 -1.03125 -0.6875q-0.4375 -0.4375 -0.6875 -1.03125q-0.25 -0.59375 -0.25 -1.28125q0 -0.8125 0.296875 -1.40625q0.296875 -0.59375 0.75 -0.96875q0.4375 -0.390625 0.953125 -0.5625q0.515625 -0.1875 0.953125 -0.1875l0.859375 0l0 5.328125zm-2.828125 -2.203125q0 0.4375 0.140625 0.8125q0.140625 0.375 0.390625 0.671875q0.25 0.28125 0.59375 0.46875q0.34375 0.171875 0.75 0.21875l0 -4.25q-0.4375 0.015625 -0.78125 0.203125q-0.34375 0.171875 -0.578125 0.46875q-0.25 0.28125 -0.375 0.65625q-0.140625 0.359375 -0.140625 0.75zm4.609375 -9.984909l0 0.15625q0.640625 0.3125 1.015625 0.84375q0.375 0.515625 0.375 1.3125q0 0.546875 -0.1875 1.015625q-0.171875 0.453125 -0.53125 0.78125q-0.359375 0.328125 -0.890625 0.515625q-0.53125 0.171875 -1.25 0.171875l-3.9375 0l0 -1.046875l3.8125 0q1.03125 0 1.515625 -0.421875q0.484375 -0.421875 0.484375 -1.3125q0 -0.9375 -0.640625 -1.46875q-0.65625 -0.546875 -1.734375 -0.546875l-3.4375 0l0 -1.046875l8.234375 0q0.453125 0 0.75 0.296875q0.296875 0.28125 0.296875 0.734375l0 3.765625l-0.96875 0l0 -3.390625q0 -0.359375 -0.390625 -0.359375l-2.515625 0zm1.84375 -3.172409l0 -6.21875l0.953125 0l0 6.21875l-0.953125 0zm-1.59375 -8.344284l0 -2.40625l-7.421875 0l0 2.328125l-0.953125 0l0 -3.359375l8.375 0l0 -2.406248l0.953125 0l0 5.843748l-0.953125 0zm-2.03125 -8.922407q0.984375 -0.03125 1.59375 -0.609375q0.59375 -0.578125 0.59375 -1.59375q0 -0.46875 -0.109375 -0.8125q-0.109375 -0.359375 -0.296875 -0.59375q-0.1875 -0.25 -0.421875 -0.40625q-0.25 -0.15625 -0.53125 -0.25l0.265625 -0.984375q0.921875 0.28125 1.5 1.03125q0.578125 0.75 0.578125 2.03125q0 0.703125 -0.25 1.296875q-0.25 0.59375 -0.703125 1.03125q-0.453125 0.421875 -1.078125 0.671875q-0.625 0.234375 -1.375 0.234375l-0.328125 0q-0.6875 0 -1.28125 -0.25q-0.609375 -0.25 -1.03125 -0.6875q-0.4375 -0.4375 -0.6875 -1.03125q-0.25 -0.59375 -0.25 -1.28125q0 -0.8125 0.296875 -1.40625q0.296875 -0.59375 0.75 -0.96875q0.4375 -0.390625 0.953125 -0.5625q0.515625 -0.1875 0.953125 -0.1875l0.859375 0l0 5.328125zm-2.828125 -2.203125q0 0.4375 0.140625 0.8125q0.140625 0.375 0.390625 0.671875q0.25 0.28125 0.59375 0.46875q0.34375 0.171875 0.75 0.21875l0 -4.25q-0.4375 0.015625 -0.78125 0.203125q-0.34375 0.171875 -0.578125 0.46875q-0.25 0.28125 -0.375 0.65625q-0.140625 0.359375 -0.140625 0.75zm5.8125 -6.234909l0 1.046875l-6.609375 0l0 -1.046875l1.125 0l0 -0.15625q-1.3125 -0.609375 -1.3125 -2.125q0 -1.15625 0.71875 -1.828126q0.703125 -0.6875 2.140625 -0.6875l3.9375 0l0 1.046876l-3.734375 0q-1.03125 0 -1.546875 0.46875q-0.53125 0.453125 -0.53125 1.265625q0 0.9375 0.65625 1.484375q0.640625 0.53125 1.71875 0.53125l3.4375 0z" fill-rule="nonzero"/><path fill="#000000" fill-opacity="0.0" d="m252.35432 107.98163l97.25984 0" fill-rule="evenodd"/><path stroke="#000000" stroke-width="3.0" stroke-linejoin="round" stroke-linecap="butt" d="m252.35432 107.98163l97.25984 0" fill-rule="evenodd"/><path fill="#000000" fill-opacity="0.0" d="m318.14316 75.62049l0 64.7244" fill-rule="evenodd"/><path stroke="#000000" stroke-width="3.0" stroke-linejoin="round" stroke-linecap="butt" d="m318.14316 75.62049l0 64.7244" fill-rule="evenodd"/><path fill="#000000" fill-opacity="0.0" d="m318.14316 77.08506l31.40158 0" fill-rule="evenodd"/><path stroke="#000000" stroke-width="3.0" stroke-linejoin="round" stroke-linecap="butt" d="m318.14316 77.08506l31.40158 0" fill-rule="evenodd"/><path fill="#000000" fill-opacity="0.0" d="m318.14316 138.81451l31.40158 0" fill-rule="evenodd"/><path stroke="#000000" stroke-width="3.0" stroke-linejoin="round" stroke-linecap="butt" d="m318.14316 138.81451l31.40158 0" fill-rule="evenodd"/><path fill="#000000" fill-opacity="0.0" d="m318.14316 123.63078l31.40158 0" fill-rule="evenodd"/><path stroke="#000000" stroke-width="3.0" stroke-linejoin="round" stroke-linecap="butt" d="m318.14316 123.63078l31.40158 0" fill-rule="evenodd"/><path fill="#000000" fill-opacity="0.0" d="m318.14316 92.3342l31.40158 0" fill-rule="evenodd"/><path stroke="#000000" stroke-width="3.0" stroke-linejoin="round" stroke-linecap="butt" d="m318.14316 92.3342l31.40158 0" fill-rule="evenodd"/><path fill="#000000" fill-opacity="0.0" d="m349.7941 68.66511l0 77.98426" fill-rule="evenodd"/><path stroke="#000000" stroke-width="8.0" stroke-linejoin="round" stroke-linecap="butt" d="m349.7941 68.66511l0 77.98426" fill-rule="evenodd"/><path fill="#000000" fill-opacity="0.0" d="m353.34528 107.9827l91.40158 0" fill-rule="evenodd"/><path stroke="#000000" stroke-width="3.0" stroke-linejoin="round" stroke-linecap="butt" d="m353.34528 107.9827l81.12033 0" fill-rule="evenodd"/><path fill="#000000" stroke="#000000" stroke-width="3.0" stroke-linecap="butt" d="m434.46558 107.9827l-3.3737488 3.3737488l9.269318 -3.3737488l-9.269318 -3.3737564z" fill-rule="evenodd"/><path fill="#000000" fill-opacity="0.0" d="m368.53543 101.96326l12.692902 12.692909" fill-rule="evenodd"/><path stroke="#000000" stroke-width="3.0" stroke-linejoin="round" stroke-linecap="butt" d="m368.53543 101.96326l12.692902 12.692909" fill-rule="evenodd"/><path fill="#000000" fill-opacity="0.0" d="m285.84778 101.30971l12.692902 12.692917" fill-rule="evenodd"/><path stroke="#000000" stroke-width="3.0" stroke-linejoin="round" stroke-linecap="butt" d="m285.84778 101.30971l12.692902 12.692917" fill-rule="evenodd"/><path fill="#000000" fill-opacity="0.0" d="m350.04462 71.83465l46.11023 0l0 29.732285l-46.11023 0z" fill-rule="evenodd"/><path fill="#000000" d="m370.9742 84.89141q0 -0.875 -0.53125 -1.390625q-0.53125 -0.53125 -1.46875 -0.53125q-0.453125 0 -0.84375 0.171875q-0.375 0.15625 -0.65625 0.453125q-0.265625 0.296875 -0.421875 0.71875q-0.15625 0.40625 -0.15625 0.890625l0 1.390625l0.171875 0q0.3125 -0.578125 0.90625 -0.90625q0.59375 -0.34375 1.328125 -0.34375q0.640625 0 1.1875 0.203125q0.546875 0.203125 0.9375 0.609375q0.390625 0.40625 0.609375 0.96875q0.21875 0.5625 0.21875 1.28125l0 0.15625q0 0.703125 -0.25 1.28125q-0.234375 0.5625 -0.671875 0.984375q-0.4375 0.40625 -1.03125 0.640625q-0.59375 0.21875 -1.28125 0.21875q-0.6875 0 -1.28125 -0.21875q-0.59375 -0.234375 -1.03125 -0.640625q-0.4375 -0.40625 -0.6875 -0.96875q-0.234375 -0.578125 -0.234375 -1.25l0 -3.40625q0 -0.734375 0.25 -1.328125q0.25 -0.59375 0.6875 -1.015625q0.4375 -0.421875 1.015625 -0.640625q0.59375 -0.234375 1.25 -0.234375q0.671875 0 1.234375 0.203125q0.578125 0.203125 0.984375 0.578125q0.421875 0.375 0.65625 0.921875q0.234375 0.53125 0.234375 1.203125l-1.125 0zm-1.953125 5.8125q0.484375 0 0.875 -0.15625q0.390625 -0.15625 0.671875 -0.4375q0.28125 -0.28125 0.421875 -0.65625q0.15625 -0.390625 0.15625 -0.859375l0 -0.15625q0 -0.46875 -0.171875 -0.859375q-0.15625 -0.390625 -0.4375 -0.65625q-0.28125 -0.28125 -0.671875 -0.4375q-0.390625 -0.15625 -0.84375 -0.15625q-0.453125 0 -0.84375 0.171875q-0.375 0.15625 -0.671875 0.4375q-0.28125 0.265625 -0.453125 0.640625q-0.15625 0.375 -0.15625 0.796875l0 0.265625q0 0.4375 0.140625 0.8125q0.15625 0.375 0.4375 0.65625q0.28125 0.28125 0.671875 0.4375q0.390625 0.15625 0.875 0.15625zm8.000519 -8.53125l2.171875 0l0 6.53125l1.4375 0l0 1.03125l-1.4375 0l0 1.765625l-1.125 0l0 -1.765625l-4.3125 0l0 -1.546875l3.265625 -6.015625zm-2.3125 6.375l0 0.15625l3.359375 0l0 -6.046875l-0.15625 0l-3.203125 5.890625z" fill-rule="nonzero"/><path fill="#000000" fill-opacity="0.0" d="m259.2257 71.83465l64.031525 0l0 29.732285l-64.031525 0z" fill-rule="evenodd"/><path fill="#000000" d="m271.8964 87.11016l0 -4.9375l5.828125 0l0 1.03125l-4.75 0l0 3.34375l0.171875 0q0.125 -0.265625 0.34375 -0.515625q0.21875 -0.25 0.5 -0.4375q0.28125 -0.1875 0.640625 -0.296875q0.359375 -0.109375 0.796875 -0.109375q0.640625 0 1.171875 0.21875q0.546875 0.203125 0.9375 0.59375q0.390625 0.375 0.609375 0.921875q0.21875 0.546875 0.21875 1.21875l0 0.234375q0 0.671875 -0.21875 1.265625q-0.203125 0.59375 -0.625 1.0625q-0.40625 0.453125 -1.03125 0.71875q-0.609375 0.265625 -1.40625 0.265625q-0.8125 0 -1.4375 -0.234375q-0.625 -0.25 -1.0625 -0.671875q-0.421875 -0.421875 -0.640625 -1.0q-0.21875 -0.59375 -0.21875 -1.265625l0 -0.375l1.125 0l0 0.296875q0 1.109375 0.609375 1.65625q0.625 0.546875 1.625 0.546875q0.53125 0 0.9375 -0.1875q0.40625 -0.1875 0.671875 -0.515625q0.28125 -0.328125 0.40625 -0.765625q0.140625 -0.4375 0.140625 -0.890625l0 -0.09375q0 -0.40625 -0.140625 -0.765625q-0.125 -0.359375 -0.375 -0.625q-0.25 -0.265625 -0.609375 -0.421875q-0.34375 -0.15625 -0.765625 -0.15625q-0.28125 0 -0.515625 0.078125q-0.21875 0.078125 -0.40625 0.21875q-0.171875 0.125 -0.28125 0.28125q-0.109375 0.15625 -0.15625 0.3125l-2.09375 0zm10.688019 3.34375l0 -7.796875l-0.15625 0l-1.53125 3.515625l-1.109375 0l0 -0.078125l1.75 -3.921875l2.171875 0l0 8.28125l2.640625 0l0 1.046875l-6.390625 0l0 -1.046875l2.625 0zm11.828674 0l0 1.046875l-6.3125 0l0 -1.59375q0 -0.640625 0.203125 -1.109375q0.21875 -0.484375 0.609375 -0.8125q0.390625 -0.34375 0.953125 -0.5625q0.5625 -0.234375 1.265625 -0.40625q1.1875 -0.265625 1.703125 -0.75q0.53125 -0.5 0.53125 -1.21875l0 -0.078125q0 -0.359375 -0.125 -0.703125q-0.109375 -0.34375 -0.359375 -0.625q-0.25 -0.28125 -0.65625 -0.453125q-0.390625 -0.171875 -0.9375 -0.171875q-1.015625 0 -1.59375 0.640625q-0.5625 0.625 -0.5625 1.65625l0 0.59375l-1.109375 0l0 -0.671875q0 -0.640625 0.203125 -1.21875q0.21875 -0.59375 0.625 -1.046875q0.421875 -0.453125 1.03125 -0.71875q0.609375 -0.265625 1.40625 -0.265625q0.8125 0 1.40625 0.25q0.609375 0.25 1.0 0.65625q0.40625 0.40625 0.59375 0.921875q0.203125 0.5 0.203125 1.03125l0 0.25q0 1.0625 -0.671875 1.8125q-0.65625 0.75 -2.125 1.078125q-1.28125 0.28125 -1.890625 0.75q-0.59375 0.453125 -0.59375 1.328125l0 0.390625l5.203125 0zm2.2036438 -4.09375l2.296875 0l0 -2.3125l0.96875 0l0 2.3125l2.296875 0l0 0.953125l-2.296875 0l0 2.3125l-0.96875 0l0 -2.3125l-2.296875 0l0 -0.953125zm12.813049 4.015625l-0.15625 0q-0.3125 0.671875 -0.890625 1.0q-0.5625 0.3125 -1.1875 0.3125q-0.65625 0 -1.21875 -0.21875q-0.546875 -0.21875 -0.96875 -0.65625q-0.421875 -0.4375 -0.671875 -1.0625q-0.234375 -0.625 -0.234375 -1.453125l0 -0.203125q0 -0.8125 0.234375 -1.4375q0.25 -0.640625 0.671875 -1.0625q0.421875 -0.4375 0.96875 -0.65625q0.5625 -0.234375 1.1875 -0.234375q0.6875 0 1.234375 0.296875q0.5625 0.296875 0.875 0.921875l0.15625 0l0 -1.03125l1.046875 0l0 5.25q0 0.40625 0.359375 0.40625l0.328125 0l0 0.953125l-0.703125 0q-0.453125 0 -0.75 -0.296875q-0.28125 -0.296875 -0.28125 -0.75l0 -0.078125zm-2.125 0.328125q0.46875 0 0.859375 -0.171875q0.390625 -0.171875 0.671875 -0.484375q0.28125 -0.328125 0.4375 -0.765625q0.15625 -0.453125 0.15625 -1.0l0 -0.171875q0 -0.53125 -0.15625 -0.96875q-0.15625 -0.453125 -0.453125 -0.765625q-0.28125 -0.328125 -0.671875 -0.5q-0.390625 -0.1875 -0.84375 -0.1875q-0.46875 0 -0.859375 0.171875q-0.390625 0.171875 -0.671875 0.484375q-0.28125 0.3125 -0.453125 0.765625q-0.15625 0.453125 -0.15625 0.984375l0 0.203125q0 1.140625 0.59375 1.78125q0.59375 0.625 1.546875 0.625z" fill-rule="nonzero"/><path fill="#000000" fill-opacity="0.0" d="m265.23883 34.212597l125.41733 0l0 122.708664l-125.41733 0z" fill-rule="evenodd"/><path stroke="#999999" stroke-width="2.0" stroke-linejoin="round" stroke-linecap="butt" stroke-dasharray="2.0,6.0" d="m265.23883 34.212597l125.41733 0l0 122.708664l-125.41733 0z" fill-rule="evenodd"/><path fill="#666666" d="m302.63718 57.138847l-0.9375 0l0 -8.359375l0.9375 0l0 0.9375l0.140625 0q0.3125 -0.546875 0.859375 -0.828125q0.5625 -0.28125 1.203125 -0.28125q0.5625 0 1.046875 0.203125q0.5 0.203125 0.875 0.59375q0.375 0.390625 0.59375 0.953125q0.21875 0.5625 0.21875 1.28125l0 0.234375q0 0.734375 -0.21875 1.296875q-0.203125 0.5625 -0.59375 0.953125q-0.375 0.375 -0.875 0.578125q-0.5 0.203125 -1.0625 0.203125q-0.296875 0 -0.59375 -0.078125q-0.296875 -0.0625 -0.578125 -0.1875q-0.265625 -0.140625 -0.5 -0.34375q-0.21875 -0.203125 -0.375 -0.46875l-0.140625 0l0 3.3125zm1.984375 -3.125q0.4375 0 0.796875 -0.140625q0.359375 -0.15625 0.625 -0.4375q0.28125 -0.28125 0.421875 -0.671875q0.15625 -0.390625 0.15625 -0.890625l0 -0.234375q0 -0.484375 -0.15625 -0.875q-0.140625 -0.390625 -0.421875 -0.671875q-0.265625 -0.28125 -0.640625 -0.4375q-0.359375 -0.15625 -0.78125 -0.15625q-0.40625 0 -0.78125 0.171875q-0.359375 0.15625 -0.625 0.453125q-0.265625 0.28125 -0.421875 0.6875q-0.15625 0.390625 -0.15625 0.875l0 0.140625q0 0.5 0.15625 0.90625q0.15625 0.390625 0.421875 0.6875q0.265625 0.28125 0.625 0.4375q0.375 0.15625 0.78125 0.15625zm4.29718 -5.234375l2.171875 0l0 0.796875l0.140625 0q0.21875 -0.5 0.640625 -0.734375q0.421875 -0.234375 0.96875 -0.234375q0.890625 0 1.4375 0.59375q0.5625 0.59375 0.59375 1.71875l-0.984375 0.140625q0 -0.828125 -0.390625 -1.1875q-0.390625 -0.375 -0.96875 -0.375q-0.375 0 -0.65625 0.15625q-0.265625 0.140625 -0.453125 0.390625q-0.171875 0.25 -0.25 0.59375q-0.078125 0.328125 -0.078125 0.703125l0 2.53125l1.5 0l0 0.859375l-3.8125 0l0 -0.859375l1.375 0l0 -4.234375l-1.234375 0l0 -0.859375zm9.531555 -1.78125q0 -0.34375 0.25 -0.578125q0.25 -0.25 0.59375 -0.25q0.34375 0 0.59375 0.25q0.25 0.234375 0.25 0.578125q0 0.359375 -0.25 0.609375q-0.25 0.234375 -0.59375 0.234375q-0.34375 0 -0.59375 -0.234375q-0.25 -0.25 -0.25 -0.609375zm-1.703125 6.875l2.09375 0l0 -4.234375l-1.875 0l0 -0.859375l2.8125 0l0 5.09375l1.9375 0l0 0.859375l-4.96875 0l0 -0.859375zm12.92218 0.859375l-0.9375 0l0 -4.265625q0 -0.421875 -0.1875 -0.6875q-0.1875 -0.28125 -0.609375 -0.28125q-0.40625 0 -0.65625 0.296875q-0.234375 0.296875 -0.234375 0.90625l0 4.03125l-0.9375 0l0 -4.3125q0 -0.40625 -0.21875 -0.65625q-0.21875 -0.265625 -0.578125 -0.265625q-0.421875 0 -0.65625 0.3125q-0.234375 0.3125 -0.234375 0.8125l0 4.109375l-0.9375 0l0 -5.953125l0.9375 0l0 0.65625l0.140625 0q0.15625 -0.421875 0.453125 -0.625q0.296875 -0.203125 0.703125 -0.203125q0.4375 0 0.71875 0.234375q0.28125 0.234375 0.390625 0.59375l0.140625 0q0.40625 -0.828125 1.296875 -0.828125q0.671875 0 1.03125 0.4375q0.375 0.421875 0.375 1.109375l0 4.578125zm1.4534302 0.578125l5.59375 0l0 0.859375l-5.59375 0l0 -0.859375zm8.750305 -5.0q0 0.4375 0.359375 0.671875q0.375 0.21875 1.34375 0.296875q1.046875 0.078125 1.59375 0.5q0.546875 0.40625 0.546875 1.203125l0 0.0625q0 0.4375 -0.1875 0.78125q-0.171875 0.34375 -0.484375 0.59375q-0.296875 0.234375 -0.734375 0.359375q-0.4375 0.125 -0.953125 0.125q-0.6875 0 -1.1875 -0.1875q-0.5 -0.1875 -0.828125 -0.484375q-0.328125 -0.3125 -0.5 -0.703125q-0.171875 -0.390625 -0.1875 -0.78125l0.875 -0.21875q0.0625 0.671875 0.53125 1.09375q0.46875 0.40625 1.25 0.40625q0.65625 0 1.0625 -0.25q0.40625 -0.265625 0.40625 -0.734375q0 -0.5 -0.40625 -0.703125q-0.390625 -0.21875 -1.28125 -0.28125q-1.03125 -0.078125 -1.578125 -0.484375q-0.546875 -0.40625 -0.546875 -1.1875l0 -0.078125q0 -0.421875 0.171875 -0.734375q0.1875 -0.3125 0.484375 -0.53125q0.3125 -0.21875 0.6875 -0.328125q0.390625 -0.109375 0.8125 -0.109375q0.578125 0 1.015625 0.171875q0.453125 0.15625 0.75 0.421875q0.3125 0.25 0.46875 0.59375q0.15625 0.328125 0.203125 0.671875l-0.875 0.203125q-0.0625 -0.5625 -0.46875 -0.890625q-0.40625 -0.328125 -1.046875 -0.328125q-0.25 0 -0.484375 0.0625q-0.234375 0.046875 -0.421875 0.15625q-0.171875 0.109375 -0.28125 0.28125q-0.109375 0.15625 -0.109375 0.359375zm6.10968 3.5625l2.15625 0l0 -6.671875l-2.09375 0l0 -0.875l3.03125 0l0 7.546875l2.15625 0l0 0.859375l-5.25 0l0 -0.859375zm9.187805 -6.875q0 -0.34375 0.25 -0.578125q0.25 -0.25 0.59375 -0.25q0.34375 0 0.59375 0.25q0.25 0.234375 0.25 0.578125q0 0.359375 -0.25 0.609375q-0.25 0.234375 -0.59375 0.234375q-0.34375 0 -0.59375 -0.234375q-0.25 -0.25 -0.25 -0.609375zm-1.703125 6.875l2.09375 0l0 -4.234375l-1.875 0l0 -0.859375l2.8125 0l0 5.09375l1.9375 0l0 0.859375l-4.96875 0l0 -0.859375zm12.76593 -1.25q-0.09375 0.484375 -0.328125 0.90625q-0.234375 0.421875 -0.59375 0.734375q-0.359375 0.296875 -0.84375 0.46875q-0.46875 0.171875 -1.0625 0.171875q-0.625 0 -1.1875 -0.203125q-0.546875 -0.203125 -0.96875 -0.59375q-0.421875 -0.390625 -0.671875 -0.953125q-0.25 -0.5625 -0.25 -1.296875l0 -0.15625q0 -0.71875 0.25 -1.28125q0.25 -0.578125 0.671875 -0.96875q0.421875 -0.40625 0.96875 -0.625q0.5625 -0.21875 1.1875 -0.21875q0.5625 0 1.03125 0.171875q0.484375 0.171875 0.84375 0.484375q0.375 0.296875 0.609375 0.71875q0.234375 0.421875 0.328125 0.90625l-0.9375 0.21875q-0.046875 -0.3125 -0.1875 -0.609375q-0.125 -0.296875 -0.359375 -0.515625q-0.234375 -0.21875 -0.578125 -0.34375q-0.328125 -0.140625 -0.78125 -0.140625q-0.421875 0 -0.8125 0.171875q-0.375 0.15625 -0.671875 0.453125q-0.28125 0.296875 -0.4375 0.703125q-0.15625 0.40625 -0.15625 0.875l0 0.15625q0 0.5 0.15625 0.90625q0.15625 0.390625 0.4375 0.671875q0.296875 0.28125 0.6875 0.4375q0.390625 0.140625 0.828125 0.140625q0.4375 0 0.765625 -0.140625q0.34375 -0.140625 0.578125 -0.359375q0.234375 -0.21875 0.359375 -0.5q0.140625 -0.296875 0.1875 -0.609375l0.9375 0.21875zm2.4690552 -0.578125q0.03125 0.890625 0.546875 1.4375q0.515625 0.53125 1.4375 0.53125q0.421875 0 0.734375 -0.09375q0.3125 -0.09375 0.53125 -0.265625q0.21875 -0.171875 0.359375 -0.390625q0.140625 -0.21875 0.21875 -0.46875l0.890625 0.234375q-0.25 0.828125 -0.9375 1.359375q-0.671875 0.515625 -1.8125 0.515625q-0.640625 0 -1.1875 -0.21875q-0.53125 -0.234375 -0.921875 -0.640625q-0.375 -0.40625 -0.59375 -0.96875q-0.203125 -0.5625 -0.203125 -1.25l0 -0.28125q0 -0.625 0.21875 -1.15625q0.21875 -0.546875 0.609375 -0.9375q0.40625 -0.390625 0.9375 -0.609375q0.53125 -0.234375 1.15625 -0.234375q0.734375 0 1.265625 0.28125q0.53125 0.265625 0.875 0.671875q0.34375 0.390625 0.5 0.859375q0.171875 0.453125 0.171875 0.859375l0 0.765625l-4.796875 0zm1.984375 -2.546875q-0.390625 0 -0.734375 0.125q-0.34375 0.125 -0.609375 0.359375q-0.25 0.21875 -0.421875 0.53125q-0.15625 0.3125 -0.203125 0.671875l3.84375 0q-0.03125 -0.390625 -0.1875 -0.703125q-0.15625 -0.3125 -0.421875 -0.515625q-0.25 -0.21875 -0.59375 -0.34375q-0.328125 -0.125 -0.671875 -0.125zm4.32843 -0.71875l2.171875 0l0 0.796875l0.140625 0q0.21875 -0.5 0.640625 -0.734375q0.421875 -0.234375 0.96875 -0.234375q0.890625 0 1.4375 0.59375q0.5625 0.59375 0.59375 1.71875l-0.984375 0.140625q0 -0.828125 -0.390625 -1.1875q-0.390625 -0.375 -0.96875 -0.375q-0.375 0 -0.65625 0.15625q-0.265625 0.140625 -0.453125 0.390625q-0.171875 0.25 -0.25 0.59375q-0.078125 0.328125 -0.078125 0.703125l0 2.53125l1.5 0l0 0.859375l-3.8125 0l0 -0.859375l1.375 0l0 -4.234375l-1.234375 0l0 -0.859375z" fill-rule="nonzero"/><path fill="#000000" fill-opacity="0.0" d="m445.62204 263.8294l-198.92912 0" fill-rule="evenodd"/><path stroke="#000000" stroke-width="3.0" stroke-linejoin="round" stroke-linecap="butt" d="m435.3408 263.8294l-188.64787 0" fill-rule="evenodd"/><path fill="#000000" stroke="#000000" stroke-width="3.0" stroke-linecap="butt" d="m435.3408 263.8294l-3.3737488 3.3737488l9.269287 -3.3737488l-9.269287 -3.3737488z" fill-rule="evenodd"/><path fill="#000000" fill-opacity="0.0" d="m234.22047 234.0971l162.61418 0l0 29.7323l-162.61418 0z" fill-rule="evenodd"/><path fill="#000000" d="m259.24796 252.91273q0.03125 0.984375 0.609375 1.59375q0.578125 0.59375 1.59375 0.59375q0.46875 0 0.8125 -0.109375q0.359375 -0.109375 0.59375 -0.296875q0.25 -0.1875 0.40625 -0.421875q0.15625 -0.25 0.25 -0.53125l0.984375 0.265625q-0.28125 0.921875 -1.03125 1.5q-0.75 0.57814026 -2.03125 0.57814026q-0.703125 0 -1.296875 -0.25001526q-0.59375 -0.25 -1.03125 -0.703125q-0.421875 -0.453125 -0.671875 -1.078125q-0.234375 -0.625 -0.234375 -1.375l0 -0.328125q0 -0.6875 0.25 -1.28125q0.25 -0.609375 0.6875 -1.03125q0.4375 -0.4375 1.03125 -0.6875q0.59375 -0.25 1.28125 -0.25q0.8125 0 1.40625 0.296875q0.59375 0.296875 0.96875 0.75q0.390625 0.4375 0.5625 0.953125q0.1875 0.515625 0.1875 0.953125l0 0.859375l-5.328125 0zm2.203125 -2.828125q-0.4375 0 -0.8125 0.140625q-0.375 0.140625 -0.671875 0.390625q-0.28125 0.25 -0.46875 0.59375q-0.171875 0.34375 -0.21875 0.75l4.25 0q-0.015625 -0.4375 -0.203125 -0.78125q-0.171875 -0.34375 -0.46875 -0.578125q-0.28125 -0.25 -0.65625 -0.375q-0.359375 -0.140625 -0.75 -0.140625zm6.2349243 5.8125l-1.046875 0l0 -6.609375l1.046875 0l0 1.125l0.15625 0q0.609375 -1.3125 2.125 -1.3125q1.15625 0 1.828125 0.71875q0.6875 0.703125 0.6875 2.140625l0 3.9375l-1.046875 0l0 -3.734375q0 -1.03125 -0.46875 -1.546875q-0.453125 -0.53125 -1.265625 -0.53125q-0.9375 0 -1.484375 0.65625q-0.53125 0.640625 -0.53125 1.71875l0 3.4375zm13.297394 -2.34375q-0.109375 0.546875 -0.375 1.015625q-0.25 0.46875 -0.65625 0.8125q-0.390625 0.328125 -0.9375 0.515625q-0.53125 0.18751526 -1.171875 0.18751526q-0.703125 0 -1.328125 -0.21876526q-0.609375 -0.234375 -1.078125 -0.671875q-0.46875 -0.4375 -0.75 -1.0625q-0.265625 -0.625 -0.265625 -1.4375l0 -0.15625q0 -0.796875 0.265625 -1.4375q0.28125 -0.640625 0.75 -1.078125q0.46875 -0.4375 1.078125 -0.671875q0.625 -0.25 1.328125 -0.25q0.625 0 1.15625 0.1875q0.53125 0.1875 0.9375 0.53125q0.40625 0.328125 0.65625 0.796875q0.265625 0.46875 0.359375 1.015625l-1.03125 0.234375q-0.046875 -0.34375 -0.203125 -0.671875q-0.140625 -0.328125 -0.40625 -0.5625q-0.265625 -0.25 -0.640625 -0.390625q-0.359375 -0.15625 -0.859375 -0.15625q-0.484375 0 -0.90625 0.1875q-0.40625 0.171875 -0.734375 0.5q-0.3125 0.328125 -0.5 0.78125q-0.171875 0.453125 -0.171875 0.984375l0 0.15625q0 0.5625 0.171875 1.015625q0.1875 0.4375 0.5 0.75q0.328125 0.296875 0.75 0.46875q0.421875 0.171875 0.921875 0.171875q0.484375 0 0.84375 -0.15625q0.375 -0.15625 0.625 -0.390625q0.265625 -0.25 0.421875 -0.5625q0.15625 -0.328125 0.203125 -0.671875l1.046875 0.234375zm1.7817993 2.9843903l6.21875 0l0 0.953125l-6.21875 0l0 -0.953125zm14.578644 -3.8593903q0 0.8125 -0.28125 1.453125q-0.265625 0.625 -0.71875 1.0625q-0.453125 0.4375 -1.0625 0.671875q-0.59375 0.21876526 -1.25 0.21876526q-0.671875 0 -1.265625 -0.21876526q-0.59375 -0.234375 -1.046875 -0.671875q-0.453125 -0.4375 -0.734375 -1.0625q-0.265625 -0.640625 -0.265625 -1.453125l0 -0.171875q0 -0.8125 0.265625 -1.4375q0.28125 -0.640625 0.734375 -1.078125q0.453125 -0.4375 1.046875 -0.65625q0.609375 -0.234375 1.265625 -0.234375q0.65625 0 1.25 0.234375q0.609375 0.21875 1.0625 0.65625q0.453125 0.4375 0.71875 1.078125q0.28125 0.625 0.28125 1.4375l0 0.171875zm-3.3125 2.421875q0.484375 0 0.890625 -0.171875q0.40625 -0.171875 0.703125 -0.484375q0.3125 -0.3125 0.484375 -0.765625q0.171875 -0.453125 0.171875 -1.0l0 -0.171875q0 -0.53125 -0.171875 -0.96875q-0.171875 -0.453125 -0.484375 -0.765625q-0.296875 -0.328125 -0.71875 -0.5q-0.40625 -0.1875 -0.875 -0.1875q-0.46875 0 -0.890625 0.1875q-0.40625 0.171875 -0.71875 0.5q-0.296875 0.3125 -0.46875 0.765625q-0.171875 0.4375 -0.171875 0.96875l0 0.171875q0 0.546875 0.171875 1.0q0.171875 0.453125 0.46875 0.765625q0.3125 0.3125 0.71875 0.484375q0.40625 0.171875 0.890625 0.171875zm9.953674 -5.8125l1.046875 0l0 6.609375l-1.046875 0l0 -1.203125l-0.15625 0q-0.328125 0.640625 -0.84375 1.015625q-0.515625 0.37501526 -1.3125 0.37501526q-0.546875 0 -1.015625 -0.18751526q-0.453125 -0.171875 -0.78125 -0.53125q-0.328125 -0.359375 -0.515625 -0.890625q-0.171875 -0.53125 -0.171875 -1.25l0 -3.9375l1.046875 0l0 3.8125q0 1.03125 0.421875 1.515625q0.421875 0.484375 1.3125 0.484375q0.9375 0 1.46875 -0.640625q0.546875 -0.65625 0.546875 -1.734375l0 -3.4375zm3.2192688 0l2.078125 0l0 -2.71875l1.03125 0l0 2.71875l2.5625 0l0 0.953125l-2.5625 0l0 4.296875q0 0.40625 0.359375 0.40625l1.890625 0l0 0.953125l-2.265625 0q-0.453125 0 -0.734375 -0.296875q-0.28125 -0.296875 -0.28125 -0.75l0 -4.609375l-2.078125 0l0 -0.953125zm8.375549 5.65625l2.40625 0l0 -7.421875l-2.328125 0l0 -0.953125l3.359375 0l0 8.375l2.40625 0l0 0.953125l-5.84375 0l0 -0.953125zm8.922394 -2.03125q0.03125 0.984375 0.609375 1.59375q0.578125 0.59375 1.59375 0.59375q0.46875 0 0.8125 -0.109375q0.359375 -0.109375 0.59375 -0.296875q0.25 -0.1875 0.40625 -0.421875q0.15625 -0.25 0.25 -0.53125l0.984375 0.265625q-0.28125 0.921875 -1.03125 1.5q-0.75 0.57814026 -2.03125 0.57814026q-0.703125 0 -1.296875 -0.25001526q-0.59375 -0.25 -1.03125 -0.703125q-0.421875 -0.453125 -0.671875 -1.078125q-0.234375 -0.625 -0.234375 -1.375l0 -0.328125q0 -0.6875 0.25 -1.28125q0.25 -0.609375 0.6875 -1.03125q0.4375 -0.4375 1.03125 -0.6875q0.59375 -0.25 1.28125 -0.25q0.8125 0 1.40625 0.296875q0.59375 0.296875 0.96875 0.75q0.390625 0.4375 0.5625 0.953125q0.1875 0.515625 0.1875 0.953125l0 0.859375l-5.328125 0zm2.203125 -2.828125q-0.4375 0 -0.8125 0.140625q-0.375 0.140625 -0.671875 0.390625q-0.28125 0.25 -0.46875 0.59375q-0.171875 0.34375 -0.21875 0.75l4.25 0q-0.015625 -0.4375 -0.203125 -0.78125q-0.171875 -0.34375 -0.46875 -0.578125q-0.28125 -0.25 -0.65625 -0.375q-0.359375 -0.140625 -0.75 -0.140625zm6.2349243 5.8125l-1.046875 0l0 -6.609375l1.046875 0l0 1.125l0.15625 0q0.609375 -1.3125 2.125 -1.3125q1.15625 0 1.828125 0.71875q0.6875 0.703125 0.6875 2.140625l0 3.9375l-1.046875 0l0 -3.734375q0 -1.03125 -0.46875 -1.546875q-0.453125 -0.53125 -1.265625 -0.53125q-0.9375 0 -1.484375 0.65625q-0.53125 0.640625 -0.53125 1.71875l0 3.4375zm9.469269 -10.375q0 -0.453125 0.28125 -0.734375q0.296875 -0.296875 0.75 -0.296875l1.296875 0l0 0.953125l-0.921875 0q-0.359375 0 -0.359375 0.40625l0 10.76564q0 0.40625 0.359375 0.40625l0.921875 0l0 0.953125l-1.296875 0q-0.453125 0 -0.75 -0.296875q-0.28125 -0.28125 -0.28125 -0.734375l0 -11.42189zm11.891174 9.328125l0 1.046875l-6.3125 0l0 -1.59375q0 -0.640625 0.203125 -1.109375q0.21875 -0.484375 0.609375 -0.8125q0.390625 -0.34375 0.953125 -0.5625q0.5625 -0.234375 1.265625 -0.40625q1.1875 -0.265625 1.703125 -0.75q0.53125 -0.5 0.53125 -1.21875l0 -0.078125q0 -0.359375 -0.125 -0.703125q-0.109375 -0.34375 -0.359375 -0.625q-0.25 -0.28125 -0.65625 -0.453125q-0.390625 -0.171875 -0.9375 -0.171875q-1.015625 0 -1.59375 0.640625q-0.5625 0.625 -0.5625 1.65625l0 0.59375l-1.109375 0l0 -0.671875q0 -0.640625 0.203125 -1.21875q0.21875 -0.59375 0.625 -1.046875q0.421875 -0.453125 1.03125 -0.71875q0.609375 -0.265625 1.40625 -0.265625q0.8125 0 1.40625 0.25q0.609375 0.25 1.0 0.65625q0.40625 0.40625 0.59375 0.921875q0.203125 0.5 0.203125 1.03125l0 0.25q0 1.0625 -0.671875 1.8125q-0.65625 0.75 -2.125 1.078125q-1.28125 0.28125 -1.890625 0.75q-0.59375 0.453125 -0.59375 1.328125l0 0.390625l5.203125 0zm4.063019 -3.59375l0 -1.546875l3.046875 -1.9375l0 -0.171875l-5.28125 0l0 -1.03125l6.234375 0l0 1.703125l-3.03125 1.953125l0 0.15625l0.53125 0q0.53125 0 1.015625 0.171875q0.5 0.171875 0.875 0.515625q0.390625 0.328125 0.609375 0.8125q0.234375 0.484375 0.234375 1.125l0 0.234375q0 0.609375 -0.234375 1.125q-0.234375 0.515625 -0.671875 0.90625q-0.421875 0.375 -1.0 0.59375q-0.578125 0.21876526 -1.265625 0.21876526q-0.78125 0 -1.40625 -0.23439026q-0.625 -0.25 -1.0625 -0.671875q-0.4375 -0.421875 -0.671875 -0.984375q-0.234375 -0.5625 -0.234375 -1.203125l0 -0.71875l1.109375 0l0 0.640625q0 0.5 0.171875 0.90625q0.171875 0.390625 0.46875 0.671875q0.296875 0.265625 0.703125 0.40625q0.421875 0.140625 0.90625 0.140625q0.4375 0 0.8125 -0.140625q0.375 -0.140625 0.65625 -0.40625q0.28125 -0.265625 0.4375 -0.609375q0.171875 -0.359375 0.171875 -0.75l0 -0.09375q0 -0.828125 -0.53125 -1.296875q-0.53125 -0.484375 -1.34375 -0.484375l-1.25 0zm8.141174 3.890625q0 -0.390625 0.265625 -0.65625q0.28125 -0.265625 0.671875 -0.265625q0.390625 0 0.65625 0.265625q0.28125 0.265625 0.28125 0.65625q0 0.390625 -0.28125 0.671875q-0.265625 0.26564026 -0.65625 0.26564026q-0.390625 0 -0.671875 -0.26564026q-0.265625 -0.28125 -0.265625 -0.671875zm0 -5.109375q0 -0.390625 0.265625 -0.65625q0.28125 -0.28125 0.671875 -0.28125q0.390625 0 0.65625 0.28125q0.28125 0.265625 0.28125 0.65625q0 0.375 -0.28125 0.65625q-0.265625 0.265625 -0.65625 0.265625q-0.390625 0 -0.671875 -0.265625q-0.265625 -0.28125 -0.265625 -0.65625zm5.813019 0.15625q0 -1.8125 0.859375 -2.8125q0.875 -1.0 2.421875 -1.0q1.546875 0 2.40625 1.0q0.875 1.0 0.875 2.8125l0 2.078125q0 1.859375 -0.875 2.84375q-0.859375 0.96876526 -2.40625 0.96876526q-1.546875 0 -2.421875 -0.96876526q-0.859375 -0.984375 -0.859375 -2.84375l0 -2.078125zm3.28125 4.875q1.078125 0 1.609375 -0.75q0.546875 -0.75 0.546875 -2.125l0 -1.921875q0 -0.640625 -0.140625 -1.15625q-0.125 -0.53125 -0.40625 -0.90625q-0.265625 -0.390625 -0.671875 -0.59375q-0.40625 -0.21875 -0.9375 -0.21875q-0.546875 0 -0.953125 0.21875q-0.390625 0.203125 -0.671875 0.59375q-0.265625 0.375 -0.40625 0.90625q-0.125 0.515625 -0.125 1.15625l0 1.921875q0 1.375 0.53125 2.125q0.546875 0.75 1.625 0.75zm-0.859375 -3.84375q0 -0.34375 0.25 -0.59375q0.265625 -0.25 0.609375 -0.25q0.34375 0 0.59375 0.25q0.265625 0.25 0.265625 0.59375q0 0.359375 -0.265625 0.609375q-0.25 0.25 -0.59375 0.25q-0.34375 0 -0.609375 -0.25q-0.25 -0.25 -0.25 -0.609375zm9.578674 5.7187653q0 0.453125 -0.296875 0.734375q-0.28125 0.296875 -0.734375 0.296875l-1.296875 0l0 -0.953125l0.921875 0q0.359375 0 0.359375 -0.40625l0 -10.76564q0 -0.40625 -0.359375 -0.40625l-0.921875 0l0 -0.953125l1.296875 0q0.453125 0 0.734375 0.296875q0.296875 0.28125 0.296875 0.734375l0 11.42189z" fill-rule="nonzero"/><path fill="#000000" fill-opacity="0.0" d="m234.22047 259.7848l162.61418 0l0 29.73227l-162.61418 0z" fill-rule="evenodd"/><path fill="#000000" d="m272.4985 274.9754l0 0.953125l-2.53125 0l-1.59375 7.5q-0.109375 0.5 -0.421875 0.734375q-0.3125 0.25 -0.6875 0.25q-0.421875 0 -0.6875 -0.171875q-0.25 -0.171875 -0.4375 -0.46875l-0.59375 -0.953125l0.8125 -0.515625l0.5625 0.890625q0.09375 0.15625 0.234375 0.15625q0.109375 0 0.15625 -0.0625q0.046875 -0.046875 0.078125 -0.125l1.546875 -7.234375l-2.046875 0l0 -0.953125l2.265625 0l0.34375 -1.6875q0.109375 -0.453125 0.453125 -0.734375q0.34375 -0.296875 0.796875 -0.296875l2.390625 0l0 0.953125l-2.21875 0q-0.375 0 -0.453125 0.40625l-0.28125 1.359375l2.3125 0zm5.531769 -0.1875q0.5625 0 1.046875 0.203125q0.5 0.203125 0.859375 0.5625q0.359375 0.359375 0.5625 0.859375q0.21875 0.5 0.21875 1.09375q0 0.828125 -0.28125 1.59375q-0.265625 0.765625 -0.796875 1.359375q-0.515625 0.59375 -1.296875 0.953125q-0.765625 0.359375 -1.734375 0.359375q-0.5625 0 -1.0625 -0.1875q-0.484375 -0.203125 -0.859375 -0.546875q-0.359375 -0.34375 -0.578125 -0.84375q-0.203125 -0.5 -0.203125 -1.109375q0 -0.96875 0.328125 -1.75q0.328125 -0.796875 0.890625 -1.359375q0.5625 -0.5625 1.3125 -0.875q0.75 -0.3125 1.59375 -0.3125zm-1.1875 6.0q0.609375 0 1.125 -0.265625q0.515625 -0.28125 0.890625 -0.71875q0.375 -0.453125 0.578125 -1.03125q0.21875 -0.578125 0.21875 -1.1875q0 -0.78125 -0.5 -1.296875q-0.484375 -0.515625 -1.359375 -0.515625q-0.578125 0 -1.078125 0.265625q-0.5 0.25 -0.890625 0.6875q-0.375 0.4375 -0.609375 1.015625q-0.21875 0.578125 -0.21875 1.234375q0 0.796875 0.46875 1.3125q0.484375 0.5 1.375 0.5zm7.5317993 -4.671875q0.046875 -0.15625 -0.03125 -0.234375q-0.078125 -0.09375 -0.203125 -0.09375q-0.109375 0 -0.203125 0.0625l-1.203125 0.828125l-0.53125 -0.78125l1.1875 -0.796875q0.453125 -0.3125 0.90625 -0.3125q0.421875 0 0.71875 0.234375q0.3125 0.234375 0.359375 0.75l0.15625 0q0.390625 -0.546875 0.859375 -0.765625q0.484375 -0.21875 1.0 -0.21875q0.96875 0 1.515625 0.5625q0.546875 0.546875 0.546875 1.453125q0 0.34375 -0.078125 0.703125l-1.140625 0.078125q0.0625 -0.328125 0.0625 -0.5625q0 -0.640625 -0.359375 -0.9375q-0.34375 -0.3125 -0.90625 -0.3125q-0.390625 0 -0.71875 0.15625q-0.328125 0.15625 -0.578125 0.421875q-0.234375 0.25 -0.40625 0.59375q-0.15625 0.34375 -0.234375 0.71875l-0.625 2.96875l1.5625 0l0 0.953125l-4.234375 0l0 -0.953125l1.625 0l0.953125 -4.515625zm14.954193 5.46875l-1.15625 0l1.984375 -9.328125l1.15625 0l-0.890625 4.125l0.359375 0l4.1875 -4.125l1.296875 0l0 0.15625l-4.484375 4.421875l0 0.171875l2.90625 4.5l0 0.078125l-1.28125 0l-2.671875 -4.15625l-0.53125 0l-0.875 4.15625zm8.438019 -2.984375q-0.03125 0.109375 -0.046875 0.25q-0.015625 0.125 -0.015625 0.265625q0 0.734375 0.421875 1.21875q0.4375 0.46875 1.359375 0.46875q0.46875 0 0.828125 -0.109375q0.375 -0.109375 0.640625 -0.296875q0.265625 -0.203125 0.453125 -0.4375q0.203125 -0.25 0.34375 -0.53125l0.84375 0.484375q-0.1875 0.375 -0.46875 0.71875q-0.28125 0.34375 -0.671875 0.59375q-0.375 0.25 -0.890625 0.390625q-0.5 0.15625 -1.15625 0.15625q-0.59375 0 -1.09375 -0.1875q-0.5 -0.171875 -0.859375 -0.515625q-0.359375 -0.34375 -0.5625 -0.828125q-0.203125 -0.5 -0.203125 -1.125q0 -0.84375 0.265625 -1.609375q0.265625 -0.78125 0.765625 -1.375q0.515625 -0.609375 1.265625 -0.96875q0.75 -0.375 1.6875 -0.375q0.671875 0 1.15625 0.203125q0.5 0.203125 0.8125 0.5625q0.328125 0.359375 0.484375 0.8125q0.171875 0.4375 0.171875 0.90625q0 0.375 -0.09375 0.703125l-0.140625 0.625l-5.296875 0zm2.78125 -2.828125q-0.46875 0 -0.875 0.140625q-0.40625 0.140625 -0.75 0.390625q-0.328125 0.25 -0.5625 0.59375q-0.234375 0.34375 -0.375 0.75l4.234375 0q0.046875 -0.21875 0.046875 -0.40625q0 -0.71875 -0.5 -1.09375q-0.484375 -0.375 -1.21875 -0.375zm6.4067993 3.015625q-0.09375 0.40625 -0.09375 0.765625q0 1.234375 1.328125 1.234375q0.90625 0 1.5625 -0.640625q0.65625 -0.65625 0.875 -1.734375l0.734375 -3.4375l1.03125 0l-1.75 8.234375q-0.09375 0.453125 -0.4375 0.75q-0.34375 0.296875 -0.796875 0.296875l-3.609375 0l0 -0.96875l3.4375 0q0.359375 0 0.4375 -0.390625l0.5 -2.359375l-0.15625 0q-0.390625 0.609375 -0.953125 0.921875q-0.546875 0.3125 -1.3125 0.3125q-0.890625 0 -1.421875 -0.53125q-0.53125 -0.53125 -0.53125 -1.515625q0 -0.390625 0.09375 -0.8125l0.59375 -2.84375q0.03125 -0.140625 -0.03125 -0.203125q-0.0625 -0.078125 -0.15625 -0.078125q-0.078125 0 -0.171875 0.0625l-0.671875 0.46875l-0.53125 -0.78125l0.6875 -0.46875q0.40625 -0.28125 0.84375 -0.28125q0.4375 0 0.75 0.296875q0.328125 0.296875 0.328125 0.8125q0 0.078125 -0.015625 0.15625q0 0.0625 -0.03125 0.1875l-0.53125 2.546875zm7.391144 -6.53125l2.109375 0l-0.765625 8.84375l0.15625 0l2.921875 -8.84375l2.1875 0l-1.984375 9.328125l-1.046875 0l1.875 -8.84375l-0.15625 0l-2.921875 8.84375l-2.046875 0l0.765625 -8.84375l-0.171875 0l-1.875 8.84375l-1.03125 0l1.984375 -9.328125zm11.656799 8.390625l-0.15625 0q-0.390625 0.5625 -0.96875 0.84375q-0.578125 0.28125 -1.28125 0.28125q-0.5625 0 -1.046875 -0.1875q-0.46875 -0.203125 -0.796875 -0.546875q-0.328125 -0.34375 -0.515625 -0.828125q-0.1875 -0.5 -0.1875 -1.109375q0 -0.921875 0.265625 -1.703125q0.28125 -0.78125 0.78125 -1.359375q0.5 -0.578125 1.203125 -0.90625q0.703125 -0.34375 1.546875 -0.34375q0.78125 0 1.296875 0.34375q0.515625 0.328125 0.671875 0.875l0.15625 0l0.234375 -1.03125l1.03125 0l-1.75 8.234375q-0.09375 0.453125 -0.453125 0.75q-0.34375 0.296875 -0.796875 0.296875l-4.015625 0l0 -0.96875l3.84375 0q0.375 0 0.453125 -0.390625l0.484375 -2.25zm-2.171875 0.140625q0.609375 0 1.109375 -0.265625q0.515625 -0.28125 0.875 -0.71875q0.375 -0.453125 0.5625 -1.03125q0.203125 -0.578125 0.203125 -1.15625q0 -0.828125 -0.46875 -1.328125q-0.453125 -0.515625 -1.25 -0.515625q-0.625 0 -1.125 0.265625q-0.5 0.265625 -0.859375 0.71875q-0.359375 0.4375 -0.546875 1.03125q-0.1875 0.578125 -0.1875 1.21875q0 0.8125 0.421875 1.296875q0.4375 0.484375 1.265625 0.484375zm7.641144 -4.671875q0.046875 -0.15625 -0.03125 -0.234375q-0.078125 -0.09375 -0.203125 -0.09375q-0.109375 0 -0.203125 0.0625l-1.203125 0.828125l-0.53125 -0.78125l1.1875 -0.796875q0.453125 -0.3125 0.90625 -0.3125q0.421875 0 0.71875 0.234375q0.3125 0.234375 0.359375 0.75l0.15625 0q0.390625 -0.546875 0.859375 -0.765625q0.484375 -0.21875 1.0 -0.21875q0.96875 0 1.515625 0.5625q0.546875 0.546875 0.546875 1.453125q0 0.34375 -0.078125 0.703125l-1.140625 0.078125q0.0625 -0.328125 0.0625 -0.5625q0 -0.640625 -0.359375 -0.9375q-0.34375 -0.3125 -0.90625 -0.3125q-0.390625 0 -0.71875 0.15625q-0.328125 0.15625 -0.578125 0.421875q-0.234375 0.25 -0.40625 0.59375q-0.15625 0.34375 -0.234375 0.71875l-0.625 2.96875l1.5625 0l0 0.953125l-4.234375 0l0 -0.953125l1.625 0l0.953125 -4.515625zm18.126068 -1.328125q0.5625 0 1.046875 0.203125q0.5 0.203125 0.859375 0.5625q0.359375 0.359375 0.5625 0.859375q0.21875 0.5 0.21875 1.09375q0 0.828125 -0.28125 1.59375q-0.265625 0.765625 -0.796875 1.359375q-0.515625 0.59375 -1.296875 0.953125q-0.765625 0.359375 -1.734375 0.359375q-0.5625 0 -1.0625 -0.1875q-0.484375 -0.203125 -0.859375 -0.546875q-0.359375 -0.34375 -0.578125 -0.84375q-0.203125 -0.5 -0.203125 -1.109375q0 -0.96875 0.328125 -1.75q0.328125 -0.796875 0.890625 -1.359375q0.5625 -0.5625 1.3125 -0.875q0.75 -0.3125 1.59375 -0.3125zm-1.1875 6.0q0.609375 0 1.125 -0.265625q0.515625 -0.28125 0.890625 -0.71875q0.375 -0.453125 0.578125 -1.03125q0.21875 -0.578125 0.21875 -1.1875q0 -0.78125 -0.5 -1.296875q-0.484375 -0.515625 -1.359375 -0.515625q-0.578125 0 -1.078125 0.265625q-0.5 0.25 -0.890625 0.6875q-0.375 0.4375 -0.609375 1.015625q-0.21875 0.578125 -0.21875 1.234375q0 0.796875 0.46875 1.3125q0.484375 0.5 1.375 0.5zm10.453674 -3.171875q0.046875 -0.1875 0.0625 -0.3125q0.015625 -0.125 0.015625 -0.265625q0 -0.640625 -0.390625 -0.953125q-0.375 -0.3125 -1.0625 -0.3125q-0.90625 0 -1.484375 0.65625q-0.5625 0.640625 -0.78125 1.640625l-0.734375 3.515625l-1.046875 0l1.421875 -6.609375l1.03125 0l-0.203125 0.953125l0.171875 0q0.328125 -0.59375 0.859375 -0.859375q0.546875 -0.28125 1.140625 -0.28125q0.4375 0 0.8125 0.140625q0.390625 0.140625 0.671875 0.40625q0.296875 0.265625 0.453125 0.65625q0.171875 0.375 0.171875 0.890625q0 0.328125 -0.078125 0.703125l-0.640625 2.953125q-0.03125 0.109375 0.015625 0.171875q0.0625 0.046875 0.140625 0.046875q0.078125 0 0.15625 -0.046875l0.546875 -0.421875l0.5625 0.796875l-0.515625 0.375q-0.40625 0.3125 -0.890625 0.3125q-0.203125 0 -0.390625 -0.046875q-0.1875 -0.046875 -0.34375 -0.15625q-0.140625 -0.125 -0.234375 -0.296875q-0.09375 -0.1875 -0.09375 -0.46875q0 -0.171875 0.0625 -0.4375l0.59375 -2.75zm6.703644 -4.21875q0.046875 -0.15625 -0.03125 -0.234375q-0.078125 -0.09375 -0.203125 -0.09375q-0.09375 0 -0.203125 0.0625l-1.5625 1.0625l-0.53125 -0.78125l1.578125 -1.0625q0.21875 -0.15625 0.4375 -0.21875q0.234375 -0.0625 0.453125 -0.0625q0.4375 0 0.78125 0.265625q0.34375 0.265625 0.34375 0.828125q0 0.21875 -0.0625 0.421875l-1.609375 6.84375q-0.03125 0.15625 0.03125 0.25q0.078125 0.09375 0.203125 0.09375q0.09375 0 0.1875 -0.0625l1.53125 -1.046875l0.546875 0.78125l-1.546875 1.046875q-0.421875 0.28125 -0.890625 0.28125q-0.4375 0 -0.78125 -0.265625q-0.328125 -0.265625 -0.328125 -0.828125q0 -0.234375 0.046875 -0.421875l1.609375 -6.859375zm6.6411743 5.390625q-0.09375 0.40625 -0.09375 0.765625q0 1.234375 1.328125 1.234375q0.90625 0 1.5625 -0.640625q0.65625 -0.65625 0.875 -1.734375l0.734375 -3.4375l1.03125 0l-1.75 8.234375q-0.09375 0.453125 -0.4375 0.75q-0.34375 0.296875 -0.796875 0.296875l-3.609375 0l0 -0.96875l3.4375 0q0.359375 0 0.4375 -0.390625l0.5 -2.359375l-0.15625 0q-0.390625 0.609375 -0.953125 0.921875q-0.546875 0.3125 -1.3125 0.3125q-0.890625 0 -1.421875 -0.53125q-0.53125 -0.53125 -0.53125 -1.515625q0 -0.390625 0.09375 -0.8125l0.59375 -2.84375q0.03125 -0.140625 -0.03125 -0.203125q-0.0625 -0.078125 -0.15625 -0.078125q-0.078125 0 -0.171875 0.0625l-0.671875 0.46875l-0.53125 -0.78125l0.6875 -0.46875q0.40625 -0.28125 0.84375 -0.28125q0.4375 0 0.75 0.296875q0.328125 0.296875 0.328125 0.8125q0 0.078125 -0.015625 0.15625q0 0.0625 -0.03125 0.1875l-0.53125 2.546875z" fill-rule="nonzero"/></g></svg>