<svg version="1.1" viewBox="0.0 0.0 529.9186351706037 406.98687664041995" fill="none" stroke="none" stroke-linecap="square" stroke-miterlimit="10" xmlns:xlink="http://www.w3.org/1999/xlink" xmlns="http://www.w3.org/2000/svg"><clipPath id="p.0"><path d="m0 0l529.91864 0l0 406.98688l-529.91864 0l0 -406.98688z" clip-rule="nonzero"/></clipPath><g clip-path="url(#p.0)"><path fill="#000000" fill-opacity="0.0" d="m0 0l529.91864 0l0 406.98688l-529.91864 0z" fill-rule="evenodd"/><path fill="#ffffff" d="m92.49869 69.61155l133.32283 0l0 55.90551l-133.32283 0z" fill-rule="evenodd"/><path stroke="#000000" stroke-width="3.0" stroke-linejoin="round" stroke-linecap="butt" d="m92.49869 69.61155l133.32283 0l0 55.90551l-133.32283 0z" fill-rule="evenodd"/><path fill="#000000" d="m146.53918 90.9218l0 13.5625l-2.046875 0l0 -13.5625l2.046875 0zm6.6378784 13.765625q-1.234375 0 -2.203125 -0.625q-0.953125 -0.640625 -1.5 -1.8125q-0.546875 -1.1875 -0.546875 -2.828125q0 -1.65625 0.546875 -2.828125q0.5625 -1.171875 1.515625 -1.796875q0.96875 -0.625 2.203125 -0.625q0.953125 0 1.53125 0.328125q0.578125 0.3125 0.890625 0.734375q0.328125 0.40625 0.5 0.71875l0.125 0l0 -5.03125l1.984375 0l0 13.5625l-1.9375 0l0 -1.578125l-0.171875 0q-0.171875 0.3125 -0.515625 0.734375q-0.328125 0.421875 -0.921875 0.734375q-0.578125 0.3125 -1.5 0.3125zm0.4375 -1.6875q0.859375 0 1.453125 -0.453125q0.59375 -0.453125 0.890625 -1.265625q0.3125 -0.8125 0.3125 -1.890625q0 -1.046875 -0.3125 -1.84375q-0.296875 -0.796875 -0.890625 -1.234375q-0.578125 -0.453125 -1.453125 -0.453125q-0.890625 0 -1.5 0.46875q-0.59375 0.453125 -0.890625 1.265625q-0.296875 0.796875 -0.296875 1.796875q0 1.03125 0.296875 1.84375q0.3125 0.8125 0.90625 1.296875q0.609375 0.46875 1.484375 0.46875zm9.407928 -12.078125l0 13.5625l-1.984375 0l0 -13.5625l1.984375 0zm7.0504913 13.765625q-1.5 0 -2.59375 -0.640625q-1.078125 -0.65625 -1.671875 -1.828125q-0.578125 -1.171875 -0.578125 -2.75q0 -1.5625 0.578125 -2.75q0.59375 -1.203125 1.640625 -1.875q1.0625 -0.671875 2.484375 -0.671875q0.859375 0 1.671875 0.296875q0.8125 0.28125 1.453125 0.890625q0.640625 0.609375 1.0 1.578125q0.375 0.96875 0.375 2.359375l0 0.703125l-8.078125 0l0 -1.484375l6.140625 0q0 -0.78125 -0.328125 -1.390625q-0.3125 -0.609375 -0.890625 -0.953125q-0.5625 -0.359375 -1.328125 -0.359375q-0.84375 0 -1.46875 0.40625q-0.609375 0.40625 -0.953125 1.0625q-0.328125 0.65625 -0.328125 1.40625l0 1.171875q0 1.015625 0.359375 1.734375q0.375 0.71875 1.015625 1.09375q0.65625 0.359375 1.515625 0.359375q0.5625 0 1.03125 -0.15625q0.46875 -0.15625 0.796875 -0.484375q0.34375 -0.328125 0.515625 -0.796875l1.875 0.328125q-0.21875 0.828125 -0.796875 1.453125q-0.578125 0.609375 -1.453125 0.953125q-0.875 0.34375 -1.984375 0.34375z" fill-rule="nonzero"/><path fill="#ffffff" d="m92.49869 178.51706l133.32283 0l0 55.905518l-133.32283 0z" fill-rule="evenodd"/><path stroke="#000000" stroke-width="3.0" stroke-linejoin="round" stroke-linecap="butt" d="m92.49869 178.51706l133.32283 0l0 55.905518l-133.32283 0z" fill-rule="evenodd"/><path fill="#000000" d="m134.89915 213.38982l0 -13.5625l4.84375 0q1.578125 0 2.609375 0.578125q1.046875 0.5625 1.5625 1.5625q0.53125 1.0 0.53125 2.25q0 1.25 -0.53125 2.25q-0.515625 1.0 -1.5625 1.578125q-1.046875 0.578125 -2.609375 0.578125l-3.328125 0l0 -1.734375l3.140625 0q1.0 0 1.609375 -0.34375q0.625 -0.359375 0.921875 -0.953125q0.296875 -0.609375 0.296875 -1.375q0 -0.765625 -0.296875 -1.359375q-0.296875 -0.609375 -0.921875 -0.9375q-0.625 -0.34375 -1.640625 -0.34375l-2.578125 0l0 11.8125l-2.046875 0zm11.7690735 0l0 -10.171875l1.921875 0l0 1.609375l0.109375 0q0.265625 -0.8125 0.96875 -1.28125q0.71875 -0.484375 1.609375 -0.484375q0.1875 0 0.4375 0.015625q0.25 0.015625 0.40625 0.03125l0 1.890625q-0.125 -0.03125 -0.4375 -0.0625q-0.296875 -0.046875 -0.59375 -0.046875q-0.703125 0 -1.25 0.296875q-0.546875 0.28125 -0.875 0.8125q-0.3125 0.515625 -0.3125 1.171875l0 6.21875l-1.984375 0zm11.187851 0.203125q-1.5 0 -2.59375 -0.640625q-1.078125 -0.65625 -1.671875 -1.828125q-0.578125 -1.171875 -0.578125 -2.75q0 -1.5625 0.578125 -2.75q0.59375 -1.203125 1.640625 -1.875q1.0625 -0.671875 2.484375 -0.671875q0.859375 0 1.671875 0.296875q0.8125 0.28125 1.453125 0.890625q0.640625 0.609375 1.0 1.578125q0.375 0.96875 0.375 2.359375l0 0.703125l-8.078125 0l0 -1.484375l6.140625 0q0 -0.78125 -0.328125 -1.390625q-0.3125 -0.609375 -0.890625 -0.953125q-0.5625 -0.359375 -1.328125 -0.359375q-0.84375 0 -1.46875 0.40625q-0.609375 0.40625 -0.953125 1.0625q-0.328125 0.65625 -0.328125 1.40625l0 1.171875q0 1.015625 0.359375 1.734375q0.375 0.71875 1.015625 1.09375q0.65625 0.359375 1.515625 0.359375q0.5625 0 1.03125 -0.15625q0.46875 -0.15625 0.796875 -0.484375q0.34375 -0.328125 0.515625 -0.796875l1.875 0.328125q-0.21875 0.828125 -0.796875 1.453125q-0.578125 0.609375 -1.453125 0.953125q-0.875 0.34375 -1.984375 0.34375zm11.411163 -10.375l0 1.578125l-5.75 0l0 -1.578125l5.75 0zm-4.171875 10.171875l0 -11.359375q0 -0.953125 0.40625 -1.578125q0.421875 -0.640625 1.109375 -0.953125q0.703125 -0.3125 1.5 -0.3125q0.609375 0 1.03125 0.09375q0.421875 0.09375 0.625 0.171875l-0.46875 1.609375q-0.140625 -0.046875 -0.359375 -0.09375q-0.21875 -0.0625 -0.53125 -0.0625q-0.71875 0 -1.03125 0.359375q-0.296875 0.359375 -0.296875 1.03125l0 11.09375l-1.984375 0zm6.211685 0l0 -10.171875l1.984375 0l0 10.171875l-1.984375 0zm1.0625 -11.75q-0.515625 0 -0.890625 -0.34375q-0.359375 -0.34375 -0.359375 -0.828125q0 -0.5 0.359375 -0.84375q0.375 -0.34375 0.890625 -0.34375q0.515625 0 0.875 0.34375q0.375 0.34375 0.375 0.84375q0 0.484375 -0.375 0.828125q-0.359375 0.34375 -0.875 0.34375zm5.1442413 1.578125l2.25 3.953125l2.265625 -3.953125l2.171875 0l-3.171875 5.078125l3.1875 5.09375l-2.15625 0l-2.296875 -3.796875l-2.28125 3.796875l-2.171875 0l3.15625 -5.09375l-3.125 -5.078125l2.171875 0z" fill-rule="nonzero"/><path fill="#ffffff" d="m92.49869 287.42258l133.32283 0l0 55.905518l-133.32283 0z" fill-rule="evenodd"/><path stroke="#000000" stroke-width="3.0" stroke-linejoin="round" stroke-linecap="butt" d="m92.49869 287.42258l133.32283 0l0 55.905518l-133.32283 0z" fill-rule="evenodd"/><path fill="#000000" d="m120.24747 308.73282l2.484375 0l4.328125 10.546875l0.15625 0l4.3125 -10.546875l2.484375 0l0 13.5625l-1.9375 0l0 -9.8125l-0.125 0l-4.0 9.796875l-1.625 0l-4.0 -9.8125l-0.125 0l0 9.828125l-1.953125 0l0 -13.5625zm20.982819 13.765625q-1.5 0 -2.59375 -0.640625q-1.078125 -0.65625 -1.671875 -1.828125q-0.578125 -1.171875 -0.578125 -2.75q0 -1.5625 0.578125 -2.75q0.59375 -1.203125 1.640625 -1.875q1.0625 -0.671875 2.484375 -0.671875q0.859375 0 1.671875 0.296875q0.8125 0.28125 1.453125 0.890625q0.640625 0.609375 1.0 1.578125q0.375 0.96875 0.375 2.359375l0 0.703125l-8.078125 0l0 -1.484375l6.140625 0q0 -0.78125 -0.328125 -1.390625q-0.3125 -0.609375 -0.890625 -0.953125q-0.5625 -0.359375 -1.328125 -0.359375q-0.84375 0 -1.46875 0.40625q-0.609375 0.40625 -0.953125 1.0625q-0.328125 0.65625 -0.328125 1.40625l0 1.171875q0 1.015625 0.359375 1.734375q0.375 0.71875 1.015625 1.09375q0.65625 0.359375 1.515625 0.359375q0.5625 0 1.03125 -0.15625q0.46875 -0.15625 0.796875 -0.484375q0.34375 -0.328125 0.515625 -0.796875l1.875 0.328125q-0.21875 0.828125 -0.796875 1.453125q-0.578125 0.609375 -1.453125 0.953125q-0.875 0.34375 -1.984375 0.34375zm14.192413 -7.890625l-1.796875 0.3125q-0.109375 -0.34375 -0.359375 -0.65625q-0.234375 -0.3125 -0.640625 -0.5q-0.40625 -0.203125 -1.03125 -0.203125q-0.84375 0 -1.40625 0.375q-0.5625 0.375 -0.5625 0.953125q0 0.515625 0.375 0.828125q0.390625 0.3125 1.21875 0.515625l1.625 0.359375q1.40625 0.328125 2.09375 1.015625q0.6875 0.671875 0.6875 1.75q0 0.90625 -0.53125 1.625q-0.515625 0.703125 -1.453125 1.109375q-0.9375 0.40625 -2.171875 0.40625q-1.71875 0 -2.796875 -0.734375q-1.078125 -0.734375 -1.328125 -2.078125l1.921875 -0.296875q0.171875 0.75 0.734375 1.140625q0.5625 0.375 1.453125 0.375q0.96875 0 1.546875 -0.40625q0.59375 -0.40625 0.59375 -1.0q0 -0.46875 -0.359375 -0.796875q-0.359375 -0.328125 -1.078125 -0.5l-1.71875 -0.375q-1.4375 -0.328125 -2.125 -1.03125q-0.671875 -0.703125 -0.671875 -1.796875q0 -0.90625 0.5 -1.578125q0.515625 -0.671875 1.40625 -1.046875q0.890625 -0.390625 2.03125 -0.390625q1.640625 0 2.59375 0.71875q0.953125 0.703125 1.25 1.90625zm9.997391 0l-1.796875 0.3125q-0.109375 -0.34375 -0.359375 -0.65625q-0.234375 -0.3125 -0.640625 -0.5q-0.40625 -0.203125 -1.03125 -0.203125q-0.84375 0 -1.40625 0.375q-0.5625 0.375 -0.5625 0.953125q0 0.515625 0.375 0.828125q0.390625 0.3125 1.21875 0.515625l1.625 0.359375q1.40625 0.328125 2.09375 1.015625q0.6875 0.671875 0.6875 1.75q0 0.90625 -0.53125 1.625q-0.515625 0.703125 -1.453125 1.109375q-0.9375 0.40625 -2.171875 0.40625q-1.71875 0 -2.796875 -0.734375q-1.078125 -0.734375 -1.328125 -2.078125l1.921875 -0.296875q0.171875 0.75 0.734375 1.140625q0.5625 0.375 1.453125 0.375q0.96875 0 1.546875 -0.40625q0.59375 -0.40625 0.59375 -1.0q0 -0.46875 -0.359375 -0.796875q-0.359375 -0.328125 -1.078125 -0.5l-1.71875 -0.375q-1.4375 -0.328125 -2.125 -1.03125q-0.671875 -0.703125 -0.671875 -1.796875q0 -0.90625 0.5 -1.578125q0.515625 -0.671875 1.40625 -1.046875q0.890625 -0.390625 2.03125 -0.390625q1.640625 0 2.59375 0.71875q0.953125 0.703125 1.25 1.90625zm5.3411407 7.90625q-0.96875 0 -1.75 -0.359375q-0.78125 -0.359375 -1.234375 -1.046875q-0.453125 -0.6875 -0.453125 -1.6875q0 -0.859375 0.328125 -1.40625q0.328125 -0.5625 0.890625 -0.890625q0.5625 -0.328125 1.25 -0.484375q0.703125 -0.171875 1.421875 -0.265625q0.921875 -0.09375 1.484375 -0.15625q0.578125 -0.078125 0.828125 -0.234375q0.265625 -0.171875 0.265625 -0.53125l0 -0.046875q0 -0.859375 -0.484375 -1.328125q-0.484375 -0.484375 -1.453125 -0.484375q-1.0 0 -1.578125 0.4375q-0.5625 0.4375 -0.78125 0.984375l-1.859375 -0.4375q0.328125 -0.921875 0.96875 -1.484375q0.640625 -0.578125 1.46875 -0.84375q0.84375 -0.265625 1.75 -0.265625q0.609375 0 1.296875 0.140625q0.6875 0.140625 1.28125 0.53125q0.609375 0.375 0.984375 1.078125q0.390625 0.6875 0.390625 1.8125l0 6.75l-1.9375 0l0 -1.390625l-0.078125 0q-0.1875 0.390625 -0.578125 0.765625q-0.375 0.359375 -0.984375 0.609375q-0.59375 0.234375 -1.4375 0.234375zm0.421875 -1.578125q0.828125 0 1.40625 -0.328125q0.59375 -0.328125 0.890625 -0.84375q0.3125 -0.53125 0.3125 -1.140625l0 -1.3125q-0.09375 0.109375 -0.40625 0.203125q-0.296875 0.078125 -0.6875 0.140625q-0.375 0.0625 -0.75 0.125q-0.359375 0.046875 -0.609375 0.078125q-0.5625 0.078125 -1.046875 0.25q-0.46875 0.171875 -0.75 0.5q-0.28125 0.3125 -0.28125 0.84375q0 0.734375 0.53125 1.109375q0.546875 0.375 1.390625 0.375zm11.495163 5.375q-1.203125 0 -2.078125 -0.328125q-0.875 -0.3125 -1.421875 -0.84375q-0.546875 -0.515625 -0.828125 -1.125l1.703125 -0.703125q0.1875 0.28125 0.484375 0.609375q0.296875 0.328125 0.8125 0.546875q0.53125 0.234375 1.359375 0.234375q1.125 0 1.859375 -0.546875q0.734375 -0.53125 0.734375 -1.71875l0 -2.0l-0.125 0q-0.1875 0.328125 -0.53125 0.734375q-0.328125 0.390625 -0.90625 0.6875q-0.578125 0.28125 -1.515625 0.28125q-1.203125 0 -2.171875 -0.5625q-0.96875 -0.5625 -1.53125 -1.671875q-0.546875 -1.109375 -0.546875 -2.734375q0 -1.625 0.546875 -2.78125q0.5625 -1.15625 1.515625 -1.78125q0.96875 -0.625 2.203125 -0.625q0.953125 0 1.53125 0.328125q0.578125 0.3125 0.90625 0.734375q0.328125 0.40625 0.515625 0.71875l0.140625 0l0 -1.640625l1.9375 0l0 10.390625q0 1.3125 -0.609375 2.140625q-0.609375 0.84375 -1.65625 1.25q-1.03125 0.40625 -2.328125 0.40625zm-0.015625 -5.8125q0.859375 0 1.453125 -0.390625q0.59375 -0.40625 0.890625 -1.15625q0.3125 -0.75 0.3125 -1.8125q0 -1.03125 -0.3125 -1.8125q-0.296875 -0.78125 -0.890625 -1.21875q-0.578125 -0.4375 -1.453125 -0.4375q-0.890625 0 -1.5 0.46875q-0.59375 0.453125 -0.890625 1.25q-0.296875 0.78125 -0.296875 1.75q0 1.0 0.296875 1.765625q0.3125 0.75 0.90625 1.171875q0.609375 0.421875 1.484375 0.421875zm11.655182 2.0q-1.5 0 -2.59375 -0.640625q-1.078125 -0.65625 -1.671875 -1.828125q-0.578125 -1.171875 -0.578125 -2.75q0 -1.5625 0.578125 -2.75q0.59375 -1.203125 1.640625 -1.875q1.0625 -0.671875 2.484375 -0.671875q0.859375 0 1.671875 0.296875q0.8125 0.28125 1.453125 0.890625q0.640625 0.609375 1.0 1.578125q0.375 0.96875 0.375 2.359375l0 0.703125l-8.078125 0l0 -1.484375l6.140625 0q0 -0.78125 -0.328125 -1.390625q-0.3125 -0.609375 -0.890625 -0.953125q-0.5625 -0.359375 -1.328125 -0.359375q-0.84375 0 -1.46875 0.40625q-0.609375 0.40625 -0.953125 1.0625q-0.328125 0.65625 -0.328125 1.40625l0 1.171875q0 1.015625 0.359375 1.734375q0.375 0.71875 1.015625 1.09375q0.65625 0.359375 1.515625 0.359375q0.5625 0 1.03125 -0.15625q0.46875 -0.15625 0.796875 -0.484375q0.34375 -0.328125 0.515625 -0.796875l1.875 0.328125q-0.21875 0.828125 -0.796875 1.453125q-0.578125 0.609375 -1.453125 0.953125q-0.875 0.34375 -1.984375 0.34375z" fill-rule="nonzero"/><path fill="#ffffff" d="m306.3491 69.61155l133.32281 0l0 55.90551l-133.32281 0z" fill-rule="evenodd"/><path stroke="#000000" stroke-width="3.0" stroke-linejoin="round" stroke-linecap="butt" d="m306.3491 69.61155l133.32281 0l0 55.90551l-133.32281 0z" fill-rule="evenodd"/><path fill="#000000" d="m357.43176 104.4843l0 -13.5625l4.84375 0q1.578125 0 2.609375 0.578125q1.046875 0.5625 1.5625 1.5625q0.53125 1.0 0.53125 2.25q0 1.25 -0.53125 2.25q-0.515625 1.0 -1.5625 1.578125q-1.046875 0.578125 -2.609375 0.578125l-3.328125 0l0 -1.734375l3.140625 0q1.0 0 1.609375 -0.34375q0.625 -0.359375 0.921875 -0.953125q0.296875 -0.609375 0.296875 -1.375q0 -0.765625 -0.296875 -1.359375q-0.296875 -0.609375 -0.921875 -0.9375q-0.625 -0.34375 -1.640625 -0.34375l-2.578125 0l0 11.8125l-2.046875 0zm14.64502 0.21875q-0.96875 0 -1.75 -0.359375q-0.78125 -0.359375 -1.234375 -1.046875q-0.453125 -0.6875 -0.453125 -1.6875q0 -0.859375 0.328125 -1.40625q0.328125 -0.5625 0.890625 -0.890625q0.5625 -0.328125 1.25 -0.484375q0.703125 -0.171875 1.421875 -0.265625q0.921875 -0.09375 1.484375 -0.15625q0.578125 -0.078125 0.828125 -0.234375q0.265625 -0.171875 0.265625 -0.53125l0 -0.046875q0 -0.859375 -0.484375 -1.328125q-0.484375 -0.484375 -1.453125 -0.484375q-1.0 0 -1.578125 0.4375q-0.5625 0.4375 -0.78125 0.984375l-1.859375 -0.4375q0.328125 -0.921875 0.96875 -1.484375q0.640625 -0.578125 1.46875 -0.84375q0.84375 -0.265625 1.75 -0.265625q0.609375 0 1.296875 0.140625q0.6875 0.140625 1.28125 0.53125q0.609375 0.375 0.984375 1.078125q0.390625 0.6875 0.390625 1.8125l0 6.75l-1.9375 0l0 -1.390625l-0.078125 0q-0.1875 0.390625 -0.578125 0.765625q-0.375 0.359375 -0.984375 0.609375q-0.59375 0.234375 -1.4375 0.234375zm0.421875 -1.578125q0.828125 0 1.40625 -0.328125q0.59375 -0.328125 0.890625 -0.84375q0.3125 -0.53125 0.3125 -1.140625l0 -1.3125q-0.09375 0.109375 -0.40625 0.203125q-0.296875 0.078125 -0.6875 0.140625q-0.375 0.0625 -0.75 0.125q-0.359375 0.046875 -0.609375 0.078125q-0.5625 0.078125 -1.046875 0.25q-0.46875 0.171875 -0.75 0.5q-0.28125 0.3125 -0.28125 0.84375q0 0.734375 0.53125 1.109375q0.546875 0.375 1.390625 0.375zm11.042023 1.5625q-1.234375 0 -2.203125 -0.625q-0.953125 -0.640625 -1.5 -1.8125q-0.546875 -1.1875 -0.546875 -2.828125q0 -1.65625 0.546875 -2.828125q0.5625 -1.171875 1.515625 -1.796875q0.96875 -0.625 2.203125 -0.625q0.953125 0 1.53125 0.328125q0.578125 0.3125 0.890625 0.734375q0.328125 0.40625 0.5 0.71875l0.125 0l0 -5.03125l1.984375 0l0 13.5625l-1.9375 0l0 -1.578125l-0.171875 0q-0.171875 0.3125 -0.515625 0.734375q-0.328125 0.421875 -0.921875 0.734375q-0.578125 0.3125 -1.5 0.3125zm0.4375 -1.6875q0.859375 0 1.453125 -0.453125q0.59375 -0.453125 0.890625 -1.265625q0.3125 -0.8125 0.3125 -1.890625q0 -1.046875 -0.3125 -1.84375q-0.296875 -0.796875 -0.890625 -1.234375q-0.578125 -0.453125 -1.453125 -0.453125q-0.890625 0 -1.5 0.46875q-0.59375 0.453125 -0.890625 1.265625q-0.296875 0.796875 -0.296875 1.796875q0 1.03125 0.296875 1.84375q0.3125 0.8125 0.90625 1.296875q0.609375 0.46875 1.484375 0.46875z" fill-rule="nonzero"/><path fill="#ffffff" d="m306.3491 178.51706l133.32281 0l0 55.905518l-133.32281 0z" fill-rule="evenodd"/><path stroke="#000000" stroke-width="3.0" stroke-linejoin="round" stroke-linecap="butt" d="m306.3491 178.51706l133.32281 0l0 55.905518l-133.32281 0z" fill-rule="evenodd"/><path fill="#000000" d="m346.9971 213.38982l0 -13.5625l4.84375 0q1.578125 0 2.609375 0.578125q1.046875 0.5625 1.5625 1.5625q0.53125 1.0 0.53125 2.25q0 1.25 -0.53125 2.25q-0.515625 1.0 -1.5625 1.578125q-1.046875 0.578125 -2.609375 0.578125l-3.328125 0l0 -1.734375l3.140625 0q1.0 0 1.609375 -0.34375q0.625 -0.359375 0.921875 -0.953125q0.296875 -0.609375 0.296875 -1.375q0 -0.765625 -0.296875 -1.359375q-0.296875 -0.609375 -0.921875 -0.9375q-0.625 -0.34375 -1.640625 -0.34375l-2.578125 0l0 11.8125l-2.046875 0zm14.64502 0.21875q-0.96875 0 -1.75 -0.359375q-0.78125 -0.359375 -1.234375 -1.046875q-0.453125 -0.6875 -0.453125 -1.6875q0 -0.859375 0.328125 -1.40625q0.328125 -0.5625 0.890625 -0.890625q0.5625 -0.328125 1.25 -0.484375q0.703125 -0.171875 1.421875 -0.265625q0.921875 -0.09375 1.484375 -0.15625q0.578125 -0.078125 0.828125 -0.234375q0.265625 -0.171875 0.265625 -0.53125l0 -0.046875q0 -0.859375 -0.484375 -1.328125q-0.484375 -0.484375 -1.453125 -0.484375q-1.0 0 -1.578125 0.4375q-0.5625 0.4375 -0.78125 0.984375l-1.859375 -0.4375q0.328125 -0.921875 0.96875 -1.484375q0.640625 -0.578125 1.46875 -0.84375q0.84375 -0.265625 1.75 -0.265625q0.609375 0 1.296875 0.140625q0.6875 0.140625 1.28125 0.53125q0.609375 0.375 0.984375 1.078125q0.390625 0.6875 0.390625 1.8125l0 6.75l-1.9375 0l0 -1.390625l-0.078125 0q-0.1875 0.390625 -0.578125 0.765625q-0.375 0.359375 -0.984375 0.609375q-0.59375 0.234375 -1.4375 0.234375zm0.421875 -1.578125q0.828125 0 1.40625 -0.328125q0.59375 -0.328125 0.890625 -0.84375q0.3125 -0.53125 0.3125 -1.140625l0 -1.3125q-0.09375 0.109375 -0.40625 0.203125q-0.296875 0.078125 -0.6875 0.140625q-0.375 0.0625 -0.75 0.125q-0.359375 0.046875 -0.609375 0.078125q-0.5625 0.078125 -1.046875 0.25q-0.46875 0.171875 -0.75 0.5q-0.28125 0.3125 -0.28125 0.84375q0 0.734375 0.53125 1.109375q0.546875 0.375 1.390625 0.375zm11.042053 1.5625q-1.234375 0 -2.203125 -0.625q-0.953125 -0.640625 -1.5 -1.8125q-0.546875 -1.1875 -0.546875 -2.828125q0 -1.65625 0.546875 -2.828125q0.5625 -1.171875 1.515625 -1.796875q0.96875 -0.625 2.203125 -0.625q0.953125 0 1.53125 0.328125q0.578125 0.3125 0.890625 0.734375q0.328125 0.40625 0.5 0.71875l0.125 0l0 -5.03125l1.984375 0l0 13.5625l-1.9375 0l0 -1.578125l-0.171875 0q-0.171875 0.3125 -0.515625 0.734375q-0.328125 0.421875 -0.921875 0.734375q-0.578125 0.3125 -1.5 0.3125zm0.4375 -1.6875q0.859375 0 1.453125 -0.453125q0.59375 -0.453125 0.890625 -1.265625q0.3125 -0.8125 0.3125 -1.890625q0 -1.046875 -0.3125 -1.84375q-0.296875 -0.796875 -0.890625 -1.234375q-0.578125 -0.453125 -1.453125 -0.453125q-0.890625 0 -1.5 0.46875q-0.59375 0.453125 -0.890625 1.265625q-0.296875 0.796875 -0.296875 1.796875q0 1.03125 0.296875 1.84375q0.3125 0.8125 0.90625 1.296875q0.609375 0.46875 1.484375 0.46875zm12.126678 1.703125q-1.578125 0 -2.6875 -0.8125q-1.109375 -0.828125 -1.703125 -2.390625q-0.59375 -1.578125 -0.59375 -3.796875q0 -2.203125 0.59375 -3.765625q0.59375 -1.5625 1.703125 -2.375q1.125 -0.828125 2.6875 -0.828125q1.546875 0 2.65625 0.828125q1.125 0.8125 1.71875 2.375q0.59375 1.5625 0.59375 3.765625q0 2.21875 -0.59375 3.796875q-0.59375 1.5625 -1.703125 2.390625q-1.109375 0.8125 -2.671875 0.8125zm0 -1.765625q1.375 0 2.15625 -1.34375q0.78125 -1.34375 0.78125 -3.890625q0 -1.6875 -0.359375 -2.859375q-0.359375 -1.171875 -1.015625 -1.765625q-0.65625 -0.609375 -1.5625 -0.609375q-1.375 0 -2.15625 1.359375q-0.78125 1.34375 -0.78125 3.875q0 1.703125 0.34375 2.875q0.359375 1.15625 1.015625 1.765625q0.65625 0.59375 1.578125 0.59375zm12.473053 -12.015625l0 13.5625l-2.046875 0l0 -11.515625l-0.09375 0l-3.234375 2.125l0 -1.96875l3.375 -2.203125l2.0 0z" fill-rule="nonzero"/><path fill="#ffffff" d="m306.3491 287.42258l133.32281 0l0 55.905518l-133.32281 0z" fill-rule="evenodd"/><path stroke="#000000" stroke-width="3.0" stroke-linejoin="round" stroke-linecap="butt" d="m306.3491 287.42258l133.32281 0l0 55.905518l-133.32281 0z" fill-rule="evenodd"/><path fill="#000000" d="m350.5482 322.29532l0 -13.5625l8.421875 0l0 1.75l-6.375 0l0 4.140625l5.765625 0l0 1.75l-5.765625 0l0 5.921875l-2.046875 0zm12.759644 -13.5625l0 13.5625l-1.984375 0l0 -13.5625l1.984375 0zm9.113007 9.34375l0 -5.953125l1.984375 0l0 10.171875l-1.953125 0l0 -1.765625l-0.09375 0q-0.359375 0.8125 -1.140625 1.359375q-0.765625 0.53125 -1.90625 0.53125q-0.984375 0 -1.734375 -0.421875q-0.75 -0.4375 -1.1875 -1.28125q-0.421875 -0.859375 -0.421875 -2.125l0 -6.46875l1.984375 0l0 6.234375q0 1.03125 0.578125 1.65625q0.578125 0.609375 1.5 0.609375q0.546875 0 1.09375 -0.265625q0.5625 -0.28125 0.921875 -0.84375q0.375 -0.578125 0.375 -1.4375zm12.262421 -3.46875l-1.796875 0.3125q-0.109375 -0.34375 -0.359375 -0.65625q-0.234375 -0.3125 -0.640625 -0.5q-0.40625 -0.203125 -1.03125 -0.203125q-0.84375 0 -1.40625 0.375q-0.5625 0.375 -0.5625 0.953125q0 0.515625 0.375 0.828125q0.390625 0.3125 1.21875 0.515625l1.625 0.359375q1.40625 0.328125 2.09375 1.015625q0.6875 0.671875 0.6875 1.75q0 0.90625 -0.53125 1.625q-0.515625 0.703125 -1.453125 1.109375q-0.9375 0.40625 -2.171875 0.40625q-1.71875 0 -2.796875 -0.734375q-1.078125 -0.734375 -1.328125 -2.078125l1.921875 -0.296875q0.171875 0.75 0.734375 1.140625q0.5625 0.375 1.453125 0.375q0.96875 0 1.546875 -0.40625q0.59375 -0.40625 0.59375 -1.0q0 -0.46875 -0.359375 -0.796875q-0.359375 -0.328125 -1.078125 -0.5l-1.71875 -0.375q-1.4375 -0.328125 -2.125 -1.03125q-0.671875 -0.703125 -0.671875 -1.796875q0 -0.90625 0.5 -1.578125q0.515625 -0.671875 1.40625 -1.046875q0.890625 -0.390625 2.03125 -0.390625q1.640625 0 2.59375 0.71875q0.953125 0.703125 1.25 1.90625zm4.3567505 1.640625l0 6.046875l-1.984375 0l0 -13.5625l1.953125 0l0 5.046875l0.125 0q0.359375 -0.828125 1.09375 -1.3125q0.734375 -0.484375 1.921875 -0.484375q1.046875 0 1.828125 0.4375q0.796875 0.421875 1.21875 1.28125q0.4375 0.84375 0.4375 2.125l0 6.46875l-1.96875 0l0 -6.234375q0 -1.125 -0.578125 -1.734375q-0.578125 -0.625 -1.609375 -0.625q-0.703125 0 -1.265625 0.296875q-0.546875 0.296875 -0.859375 0.875q-0.3125 0.578125 -0.3125 1.375z" fill-rule="nonzero"/><path fill="#000000" fill-opacity="0.0" d="m159.16011 125.51706l0 26.500229l0.06298828 0l0 26.507645" fill-rule="evenodd"/><path stroke="#000000" stroke-width="3.0" stroke-linejoin="round" stroke-linecap="butt" d="m159.16011 125.51706l0 26.500229l0.06298828 0l0 16.22638" fill-rule="evenodd"/><path fill="#000000" stroke="#000000" stroke-width="3.0" stroke-linecap="butt" d="m159.2231 168.24367l-3.3737488 -3.3737488l3.3737488 9.269302l3.3737488 -9.269302z" fill-rule="evenodd"/><path fill="#000000" fill-opacity="0.0" d="m159.2231 131.54593l92.031494 0l0 28.37796l-92.031494 0z" fill-rule="evenodd"/><path fill="#000000" d="m175.56685 151.00218q-0.109375 0.546875 -0.375 1.015625q-0.25 0.46875 -0.65625 0.8125q-0.390625 0.328125 -0.9375 0.515625q-0.53125 0.1875 -1.171875 0.1875q-0.703125 0 -1.328125 -0.21875q-0.609375 -0.234375 -1.078125 -0.671875q-0.46875 -0.4375 -0.75 -1.0625q-0.265625 -0.625 -0.265625 -1.4375l0 -0.15625q0 -0.796875 0.265625 -1.4375q0.28125 -0.640625 0.75 -1.078125q0.46875 -0.4375 1.078125 -0.671875q0.625 -0.25 1.328125 -0.25q0.625 0 1.15625 0.1875q0.53125 0.1875 0.9375 0.53125q0.40625 0.328125 0.65625 0.796875q0.265625 0.46875 0.359375 1.015625l-1.03125 0.234375q-0.046875 -0.34375 -0.203125 -0.671875q-0.140625 -0.328125 -0.40625 -0.5625q-0.265625 -0.25 -0.640625 -0.390625q-0.359375 -0.15625 -0.859375 -0.15625q-0.484375 0 -0.90625 0.1875q-0.40625 0.171875 -0.734375 0.5q-0.3125 0.328125 -0.5 0.78125q-0.171875 0.453125 -0.171875 0.984375l0 0.15625q0 0.5625 0.171875 1.015625q0.1875 0.4375 0.5 0.75q0.328125 0.296875 0.75 0.46875q0.421875 0.171875 0.921875 0.171875q0.484375 0 0.84375 -0.15625q0.375 -0.15625 0.625 -0.390625q0.265625 -0.25 0.421875 -0.5625q0.15625 -0.328125 0.203125 -0.671875l1.046875 0.234375zm7.094284 -4.296875q0 -0.453125 -0.1875 -0.796875q-0.171875 -0.34375 -0.484375 -0.5625q-0.3125 -0.234375 -0.71875 -0.359375q-0.390625 -0.125 -0.828125 -0.125q-0.390625 0 -0.734375 0.109375q-0.34375 0.09375 -0.625 0.28125q-0.265625 0.1875 -0.421875 0.46875q-0.15625 0.265625 -0.15625 0.625l0 0.078125q0 0.390625 0.15625 0.671875q0.15625 0.265625 0.46875 0.46875q0.3125 0.1875 0.78125 0.3125q0.46875 0.125 1.09375 0.21875q1.46875 0.21875 2.15625 0.859375q0.703125 0.625 0.703125 1.703125l0 0.15625q0 0.59375 -0.21875 1.09375q-0.203125 0.5 -0.609375 0.859375q-0.40625 0.359375 -1.015625 0.5625q-0.59375 0.203125 -1.375 0.203125q-0.890625 0 -1.578125 -0.25q-0.6875 -0.265625 -1.15625 -0.71875q-0.453125 -0.46875 -0.703125 -1.09375q-0.234375 -0.625 -0.234375 -1.34375l0 -0.40625l1.125 0l0 0.3125q0 1.234375 0.671875 1.84375q0.671875 0.609375 1.875 0.609375q1.03125 0 1.5625 -0.453125q0.53125 -0.453125 0.53125 -1.21875l0 -0.078125q0 -0.734375 -0.546875 -1.125q-0.53125 -0.390625 -1.75 -0.5625q-0.703125 -0.09375 -1.28125 -0.28125q-0.5625 -0.1875 -0.96875 -0.5q-0.390625 -0.3125 -0.609375 -0.75q-0.203125 -0.453125 -0.203125 -1.046875l0 -0.15625q0 -0.546875 0.21875 -1.0q0.234375 -0.453125 0.640625 -0.78125q0.40625 -0.34375 0.96875 -0.515625q0.578125 -0.1875 1.25 -0.1875q0.78125 0 1.40625 0.234375q0.625 0.21875 1.046875 0.609375q0.421875 0.375 0.640625 0.890625q0.21875 0.5 0.21875 1.0625l0 0.5625l-1.109375 0l0 -0.484375zm2.844284 -2.6875l1.125 0l0 4.125l3.96875 0l0 -4.125l1.125 0l0 9.328125l-1.125 0l0 -4.15625l-3.96875 0l0 4.15625l-1.125 0l0 -9.328125zm13.266159 7.015625l-4.0 0l-0.671875 2.3125l-1.203125 0l2.828125 -9.328125l2.09375 0l2.828125 9.328125l-1.203125 0l-0.671875 -2.3125zm-2.078125 -6.53125l-1.609375 5.484375l3.375 0l-1.609375 -5.484375l-0.15625 0zm6.469284 8.84375l-1.125 0l0 -9.328125l1.125 0l0 4.125l0.296875 0l3.59375 -4.125l1.375 0l0 0.078125l-3.859375 4.5l0 0.171875l4.03125 4.5l0 0.078125l-1.421875 0l-3.71875 -4.15625l-0.296875 0l0 4.15625zm7.094284 -9.328125l5.65625 0l0 1.03125l-4.53125 0l0 3.09375l4.453125 0l0 1.046875l-4.453125 0l0 3.109375l4.609375 0l0 1.046875l-5.734375 0l0 -9.328125z" fill-rule="nonzero"/><path fill="#000000" fill-opacity="0.0" d="m92.49869 97.56431l-25.0 0l0 217.82678l25.062988 0" fill-rule="evenodd"/><path stroke="#000000" stroke-width="3.0" stroke-linejoin="round" stroke-linecap="butt" d="m92.49869 97.56431l-25.0 0l0 217.82678l14.781731 0" fill-rule="evenodd"/><path fill="#000000" stroke="#000000" stroke-width="3.0" stroke-linecap="butt" d="m82.28042 315.39108l-3.3737488 3.3737488l9.269302 -3.3737488l-9.269302 -3.3737488z" fill-rule="evenodd"/><path fill="#000000" fill-opacity="0.0" d="m159.16011 234.42258l0 26.500214l0.06298828 0l0 26.50766" fill-rule="evenodd"/><path stroke="#000000" stroke-width="3.0" stroke-linejoin="round" stroke-linecap="butt" d="m159.16011 234.42258l0 26.500214l0.06298828 0l0 16.22641" fill-rule="evenodd"/><path fill="#000000" stroke="#000000" stroke-width="3.0" stroke-linecap="butt" d="m159.2231 277.1492l-3.3737488 -3.3737793l3.3737488 9.269318l3.3737488 -9.269318z" fill-rule="evenodd"/><path fill="#000000" fill-opacity="0.0" d="m225.82152 315.37534l40.263687 0l0 -217.79529l40.27176 0" fill-rule="evenodd"/><path stroke="#000000" stroke-width="3.0" stroke-linejoin="round" stroke-linecap="butt" d="m225.82152 315.37534l40.263687 0l0 -217.79529l29.990509 0" fill-rule="evenodd"/><path fill="#000000" stroke="#000000" stroke-width="3.0" stroke-linecap="butt" d="m296.07568 97.580055l-3.3737488 3.3737488l9.269318 -3.3737488l-9.269318 -3.3737564z" fill-rule="evenodd"/><path fill="#000000" fill-opacity="0.0" d="m373.0105 125.51706l0 26.500229l0.06298828 0l0 26.507645" fill-rule="evenodd"/><path stroke="#000000" stroke-width="3.0" stroke-linejoin="round" stroke-linecap="butt" d="m373.0105 125.51706l0 26.500229l0.06298828 0l0 16.22638" fill-rule="evenodd"/><path fill="#000000" stroke="#000000" stroke-width="3.0" stroke-linecap="butt" d="m373.0735 168.24367l-3.3737488 -3.3737488l3.3737488 9.269302l3.3737488 -9.269302z" fill-rule="evenodd"/><path fill="#000000" fill-opacity="0.0" d="m439.6719 97.56431l25.0 0l0 217.82678l-24.937012 0" fill-rule="evenodd"/><path stroke="#000000" stroke-width="3.0" stroke-linejoin="round" stroke-linecap="butt" d="m439.6719 97.56431l25.0 0l0 217.82678l-14.655762 0" fill-rule="evenodd"/><path fill="#000000" stroke="#000000" stroke-width="3.0" stroke-linecap="butt" d="m450.01617 315.39108l3.3737488 -3.3737488l-9.269318 3.3737488l9.269318 3.3737488z" fill-rule="evenodd"/><path fill="#000000" fill-opacity="0.0" d="m373.0105 234.42258l0 26.500214l0.06298828 0l0 26.50766" fill-rule="evenodd"/><path stroke="#000000" stroke-width="3.0" stroke-linejoin="round" stroke-linecap="butt" d="m373.0105 234.42258l0 26.500214l0.06298828 0l0 16.22641" fill-rule="evenodd"/><path fill="#000000" stroke="#000000" stroke-width="3.0" stroke-linecap="butt" d="m373.0735 277.1492l-3.3737488 -3.3737793l3.3737488 9.269318l3.3737488 -9.269318z" fill-rule="evenodd"/><path fill="#000000" fill-opacity="0.0" d="m373.0105 343.3281l0 24.999817l125.509155 0l0 -323.71686l-339.36743 0l0 25.01625" fill-rule="evenodd"/><path stroke="#000000" stroke-width="3.0" stroke-linejoin="round" stroke-linecap="butt" d="m373.0105 343.3281l0 24.999817l125.509155 0l0 -323.71686l-339.36743 0l0 14.734989" fill-rule="evenodd"/><path fill="#000000" stroke="#000000" stroke-width="3.0" stroke-linecap="butt" d="m159.15224 59.34604l-3.373764 -3.3737526l3.373764 9.269306l3.3737488 -9.269306z" fill-rule="evenodd"/><path fill="#000000" fill-opacity="0.0" d="m64.97507 39.501312l30.110237 30.110237" fill-rule="evenodd"/><path stroke="#980000" stroke-width="3.0" stroke-linejoin="round" stroke-linecap="butt" d="m64.97507 39.501312l17.382317 17.382317" fill-rule="evenodd"/><path fill="#980000" stroke="#980000" stroke-width="3.0" stroke-linecap="butt" d="m78.85352 60.38748l13.130615 6.122902l-6.122902 -13.130611z" fill-rule="evenodd"/><path fill="#000000" fill-opacity="0.0" d="m39.120735 250.11548l0 -110.17322l28.377953 0l0 110.17322z" fill-rule="evenodd"/><path fill="#000000" d="m54.28011 234.83423q-0.453125 0 -0.796875 0.1875q-0.34375 0.171875 -0.5625 0.484375q-0.234375 0.3125 -0.359375 0.71875q-0.125 0.390625 -0.125 0.828125q0 0.390625 0.109375 0.734375q0.09375 0.34375 0.28125 0.625q0.1875 0.265625 0.46875 0.421875q0.265625 0.15625 0.625 0.15625l0.078125 0q0.390625 0 0.671875 -0.15625q0.265625 -0.15625 0.46875 -0.46875q0.1875 -0.3125 0.3125 -0.78125q0.125 -0.46875 0.21875 -1.09375q0.21875 -1.46875 0.859375 -2.15625q0.625 -0.703125 1.703125 -0.703125l0.15625 0q0.59375 0 1.09375 0.21875q0.5 0.203125 0.859375 0.609375q0.359375 0.40625 0.5625 1.015625q0.203125 0.59375 0.203125 1.375q0 0.890625 -0.25 1.578125q-0.265625 0.6875 -0.71875 1.15625q-0.46875 0.453125 -1.09375 0.703125q-0.625 0.234375 -1.34375 0.234375l-0.40625 0l0 -1.125l0.3125 0q1.234375 0 1.84375 -0.671875q0.609375 -0.671875 0.609375 -1.875q0 -1.03125 -0.453125 -1.5625q-0.453125 -0.53125 -1.21875 -0.53125l-0.078125 0q-0.734375 0 -1.125 0.546875q-0.390625 0.53125 -0.5625 1.75q-0.09375 0.703125 -0.28125 1.28125q-0.1875 0.5625 -0.5 0.96875q-0.3125 0.390625 -0.75 0.609375q-0.453125 0.203125 -1.046875 0.203125l-0.15625 0q-0.546875 0 -1.0 -0.21875q-0.453125 -0.234375 -0.78125 -0.640625q-0.34375 -0.40625 -0.515625 -0.96875q-0.1875 -0.578125 -0.1875 -1.25q0 -0.78125 0.234375 -1.40625q0.21875 -0.625 0.609375 -1.046875q0.375 -0.421875 0.890625 -0.640625q0.5 -0.21875 1.0625 -0.21875l0.5625 0l0 1.109375l-0.484375 0zm-2.6875 -2.844284l0 -1.125l4.125 0l0 -3.96875l-4.125 0l0 -1.125l9.328125 0l0 1.125l-4.15625 0l0 3.96875l4.15625 0l0 1.125l-9.328125 0zm7.015625 -13.266159l0 4.0l2.3125 0.671875l0 1.203125l-9.328125 -2.828125l0 -2.09375l9.328125 -2.828125l0 1.203125l-2.3125 0.671875zm-6.53125 2.078125l5.484375 1.609375l0 -3.375l-5.484375 1.609375l0 0.15625zm4.203125 -7.313034l-1.546875 0l-1.9375 -3.046875l-0.171875 0l0 5.28125l-1.03125 0l0 -6.234375l1.703125 0l1.953125 3.03125l0.15625 0l0 -0.53125q0 -0.53125 0.171875 -1.015625q0.171875 -0.5 0.515625 -0.875q0.328125 -0.390625 0.8125 -0.609375q0.484375 -0.234375 1.125 -0.234375l0.234375 0q0.609375 0 1.125 0.234375q0.515625 0.234375 0.90625 0.671875q0.375 0.421875 0.59375 1.0q0.21875 0.578125 0.21875 1.265625q0 0.78125 -0.234375 1.40625q-0.25 0.625 -0.671875 1.0625q-0.421875 0.4375 -0.984375 0.671875q-0.5625 0.234375 -1.203125 0.234375l-0.71875 0l0 -1.109375l0.640625 0q0.5 0 0.90625 -0.171875q0.390625 -0.171875 0.671875 -0.46875q0.265625 -0.296875 0.40625 -0.703125q0.140625 -0.421875 0.140625 -0.90625q0 -0.4375 -0.140625 -0.8125q-0.140625 -0.375 -0.40625 -0.65625q-0.265625 -0.28125 -0.609375 -0.4375q-0.359375 -0.171875 -0.75 -0.171875l-0.09375 0q-0.828125 0 -1.296875 0.53125q-0.484375 0.53125 -0.484375 1.34375l0 1.25zm-6.109375 -10.563034l0.296875 -0.921875l11.859375 3.875l-0.28125 0.9375l-11.875 -3.890625zm4.109375 -8.875534q-0.453125 0 -0.796875 0.1875q-0.34375 0.171875 -0.5625 0.484375q-0.234375 0.3125 -0.359375 0.71875q-0.125 0.390625 -0.125 0.828125q0 0.390625 0.109375 0.734375q0.09375 0.34375 0.28125 0.625q0.1875 0.265625 0.46875 0.421875q0.265625 0.15625 0.625 0.15625l0.078125 0q0.390625 0 0.671875 -0.15625q0.265625 -0.15625 0.46875 -0.46875q0.1875 -0.3125 0.3125 -0.78125q0.125 -0.46875 0.21875 -1.09375q0.21875 -1.46875 0.859375 -2.15625q0.625 -0.703125 1.703125 -0.703125l0.15625 0q0.59375 0 1.09375 0.21875q0.5 0.203125 0.859375 0.609375q0.359375 0.40625 0.5625 1.015625q0.203125 0.59375 0.203125 1.375q0 0.890625 -0.25 1.578125q-0.265625 0.6875 -0.71875 1.15625q-0.46875 0.453125 -1.09375 0.703125q-0.625 0.234375 -1.34375 0.234375l-0.40625 0l0 -1.125l0.3125 0q1.234375 0 1.84375 -0.671875q0.609375 -0.671875 0.609375 -1.875q0 -1.03125 -0.453125 -1.5625q-0.453125 -0.53125 -1.21875 -0.53125l-0.078125 0q-0.734375 0 -1.125 0.546875q-0.390625 0.53125 -0.5625 1.75q-0.09375 0.703125 -0.28125 1.28125q-0.1875 0.5625 -0.5 0.96875q-0.3125 0.390625 -0.75 0.609375q-0.453125 0.203125 -1.046875 0.203125l-0.15625 0q-0.546875 0 -1.0 -0.21875q-0.453125 -0.234375 -0.78125 -0.640625q-0.34375 -0.40625 -0.515625 -0.96875q-0.1875 -0.578125 -0.1875 -1.25q0 -0.78125 0.234375 -1.40625q0.21875 -0.625 0.609375 -1.046875q0.375 -0.421875 0.890625 -0.640625q0.5 -0.21875 1.0625 -0.21875l0.5625 0l0 1.109375l-0.484375 0zm-2.6875 -2.844284l0 -1.125l4.125 0l0 -3.96875l-4.125 0l0 -1.125l9.328125 0l0 1.125l-4.15625 0l0 3.96875l4.15625 0l0 1.125l-9.328125 0zm7.015625 -13.266159l0 4.0l2.3125 0.671875l0 1.203125l-9.328125 -2.828125l0 -2.09375l9.328125 -2.828125l0 1.203125l-2.3125 0.671875zm-6.53125 2.078125l5.484375 1.609375l0 -3.375l-5.484375 1.609375l0 0.15625zm8.84375 -6.469284l0 1.125l-9.328125 0l0 -1.125l4.125 0l0 -0.296875l-4.125 -3.59375l0 -1.375l0.078125 0l4.5 3.859375l0.171875 0l4.5 -4.03125l0.078125 0l0 1.421875l-4.15625 3.71875l0 0.296875l4.15625 0zm-9.328125 -7.094284l0 -5.65625l1.03125 0l0 4.53125l3.09375 0l0 -4.453125l1.046875 0l0 4.453125l3.109375 0l0 -4.609375l1.046875 0l0 5.734375l-9.328125 0z" fill-rule="nonzero"/><path fill="#000000" fill-opacity="0.0" d="m239.39502 257.5118l0 -110.17323l28.37796 0l0 110.17323z" fill-rule="evenodd"/><path fill="#000000" d="m263.86688 229.02081l0 1.03125l-9.28125 0l0 -1.03125l1.03125 0l0 -0.171875q-0.59375 -0.34375 -0.90625 -0.953125q-0.3125 -0.609375 -0.3125 -1.328125q0 -0.625 0.234375 -1.171875q0.21875 -0.546875 0.65625 -0.953125q0.421875 -0.421875 1.046875 -0.671875q0.625 -0.25 1.421875 -0.25l0.265625 0q0.8125 0 1.4375 0.25q0.625 0.234375 1.0625 0.65625q0.421875 0.421875 0.640625 0.984375q0.21875 0.546875 0.21875 1.171875q0 0.328125 -0.078125 0.65625q-0.0625 0.328125 -0.21875 0.640625q-0.15625 0.296875 -0.375 0.546875q-0.21875 0.25 -0.53125 0.421875l0 0.171875l3.6875 0zm-3.46875 -2.21875q0 -0.484375 -0.171875 -0.875q-0.171875 -0.40625 -0.46875 -0.703125q-0.3125 -0.296875 -0.75 -0.46875q-0.4375 -0.171875 -0.984375 -0.171875l-0.265625 0q-0.53125 0 -0.96875 0.171875q-0.4375 0.171875 -0.75 0.46875q-0.3125 0.296875 -0.484375 0.703125q-0.171875 0.40625 -0.171875 0.875q0 0.46875 0.1875 0.875q0.171875 0.390625 0.5 0.6875q0.3125 0.296875 0.765625 0.484375q0.4375 0.171875 0.96875 0.171875l0.171875 0q0.546875 0 1.0 -0.171875q0.4375 -0.1875 0.765625 -0.484375q0.3125 -0.296875 0.484375 -0.6875q0.171875 -0.40625 0.171875 -0.875zm-5.8125 -4.766159l0 -2.40625l0.875 0l0 -0.15625q-0.546875 -0.25 -0.796875 -0.71875q-0.265625 -0.46875 -0.265625 -1.0625q0 -1.0 0.65625 -1.609375q0.65625 -0.625 1.90625 -0.65625l0.15625 1.09375q-0.921875 0 -1.328125 0.4375q-0.40625 0.4375 -0.40625 1.078125q0 0.40625 0.171875 0.71875q0.15625 0.296875 0.4375 0.5q0.265625 0.1875 0.640625 0.28125q0.375 0.09375 0.796875 0.09375l2.8125 0l0 -1.671875l0.953125 0l0 4.234375l-0.953125 0l0 -1.515625l-4.703125 0l0 1.359375l-0.953125 0zm3.390625 -14.766159q0.8125 0 1.453125 0.28125q0.625 0.265625 1.0625 0.71875q0.4375 0.453125 0.671875 1.0625q0.21875 0.59375 0.21875 1.25q0 0.671875 -0.21875 1.265625q-0.234375 0.59375 -0.671875 1.046875q-0.4375 0.453125 -1.0625 0.734375q-0.640625 0.265625 -1.453125 0.265625l-0.171875 0q-0.8125 0 -1.4375 -0.265625q-0.640625 -0.28125 -1.078125 -0.734375q-0.4375 -0.453125 -0.65625 -1.046875q-0.234375 -0.609375 -0.234375 -1.265625q0 -0.65625 0.234375 -1.25q0.21875 -0.609375 0.65625 -1.0625q0.4375 -0.453125 1.078125 -0.71875q0.625 -0.28125 1.4375 -0.28125l0.171875 0zm2.421875 3.3125q0 -0.484375 -0.171875 -0.890625q-0.171875 -0.40625 -0.484375 -0.703125q-0.3125 -0.3125 -0.765625 -0.484375q-0.453125 -0.171875 -1.0 -0.171875l-0.171875 0q-0.53125 0 -0.96875 0.171875q-0.453125 0.171875 -0.765625 0.484375q-0.328125 0.296875 -0.5 0.71875q-0.1875 0.40625 -0.1875 0.875q0 0.46875 0.1875 0.890625q0.171875 0.40625 0.5 0.71875q0.3125 0.296875 0.765625 0.46875q0.4375 0.171875 0.96875 0.171875l0.171875 0q0.546875 0 1.0 -0.171875q0.453125 -0.171875 0.765625 -0.46875q0.3125 -0.3125 0.484375 -0.71875q0.171875 -0.40625 0.171875 -0.890625zm-1.546875 -11.422409q0.546875 0.109375 1.015625 0.375q0.46875 0.25 0.8125 0.65625q0.328125 0.390625 0.515625 0.9375q0.1875 0.53125 0.1875 1.171875q0 0.703125 -0.21875 1.328125q-0.234375 0.609375 -0.671875 1.078125q-0.4375 0.46875 -1.0625 0.75q-0.625 0.265625 -1.4375 0.265625l-0.15625 0q-0.796875 0 -1.4375 -0.265625q-0.640625 -0.28125 -1.078125 -0.75q-0.4375 -0.46875 -0.671875 -1.078125q-0.25 -0.625 -0.25 -1.328125q0 -0.625 0.1875 -1.15625q0.1875 -0.53125 0.53125 -0.9375q0.328125 -0.40625 0.796875 -0.65625q0.46875 -0.265625 1.015625 -0.359375l0.234375 1.03125q-0.34375 0.046875 -0.671875 0.203125q-0.328125 0.140625 -0.5625 0.40625q-0.25 0.265625 -0.390625 0.640625q-0.15625 0.359375 -0.15625 0.859375q0 0.484375 0.1875 0.90625q0.171875 0.40625 0.5 0.734375q0.328125 0.3125 0.78125 0.5q0.453125 0.171875 0.984375 0.171875l0.15625 0q0.5625 0 1.015625 -0.171875q0.4375 -0.1875 0.75 -0.5q0.296875 -0.328125 0.46875 -0.75q0.171875 -0.421875 0.171875 -0.921875q0 -0.484375 -0.15625 -0.84375q-0.15625 -0.375 -0.390625 -0.625q-0.25 -0.265625 -0.5625 -0.421875q-0.328125 -0.15625 -0.671875 -0.203125l0.234375 -1.046875zm-0.640625 -2.734909q0.984375 -0.03125 1.59375 -0.609375q0.59375 -0.578125 0.59375 -1.59375q0 -0.46875 -0.109375 -0.8125q-0.109375 -0.359375 -0.296875 -0.59375q-0.1875 -0.25 -0.421875 -0.40625q-0.25 -0.15625 -0.53125 -0.25l0.265625 -0.984375q0.921875 0.28125 1.5 1.03125q0.578125 0.75 0.578125 2.03125q0 0.703125 -0.25 1.296875q-0.25 0.59375 -0.703125 1.03125q-0.453125 0.421875 -1.078125 0.671875q-0.625 0.234375 -1.375 0.234375l-0.328125 0q-0.6875 0 -1.28125 -0.25q-0.609375 -0.25 -1.03125 -0.6875q-0.4375 -0.4375 -0.6875 -1.03125q-0.25 -0.59375 -0.25 -1.28125q0 -0.8125 0.296875 -1.40625q0.296875 -0.59375 0.75 -0.96875q0.4375 -0.390625 0.953125 -0.5625q0.515625 -0.1875 0.953125 -0.1875l0.859375 0l0 5.328125zm-2.828125 -2.203125q0 0.4375 0.140625 0.8125q0.140625 0.375 0.390625 0.671875q0.25 0.28125 0.59375 0.46875q0.34375 0.171875 0.75 0.21875l0 -4.25q-0.4375 0.015625 -0.78125 0.203125q-0.34375 0.171875 -0.578125 0.46875q-0.25 0.28125 -0.375 0.65625q-0.140625 0.359375 -0.140625 0.75zm0.90625 -6.563034q0.484375 0 0.734375 -0.40625q0.25 -0.40625 0.328125 -1.484375q0.09375 -1.15625 0.5625 -1.765625q0.453125 -0.609375 1.328125 -0.609375l0.09375 0q0.46875 0 0.859375 0.203125q0.375 0.1875 0.640625 0.53125q0.265625 0.328125 0.40625 0.8125q0.140625 0.484375 0.140625 1.0625q0 0.78125 -0.203125 1.328125q-0.21875 0.546875 -0.546875 0.921875q-0.34375 0.359375 -0.765625 0.546875q-0.4375 0.1875 -0.890625 0.21875l-0.234375 -0.984375q0.765625 -0.0625 1.234375 -0.578125q0.453125 -0.53125 0.453125 -1.390625q0 -0.734375 -0.28125 -1.171875q-0.296875 -0.453125 -0.8125 -0.453125q-0.5625 0 -0.796875 0.4375q-0.25 0.4375 -0.3125 1.421875q-0.078125 1.140625 -0.53125 1.765625q-0.453125 0.609375 -1.328125 0.609375l-0.078125 0q-0.46875 0 -0.8125 -0.203125q-0.359375 -0.203125 -0.59375 -0.53125q-0.25 -0.34375 -0.359375 -0.765625q-0.125 -0.4375 -0.125 -0.90625q0 -0.65625 0.1875 -1.140625q0.171875 -0.5 0.46875 -0.828125q0.28125 -0.328125 0.65625 -0.5q0.359375 -0.1875 0.734375 -0.25l0.25 0.984375q-0.640625 0.078125 -1.0 0.53125q-0.359375 0.4375 -0.359375 1.15625q0 0.28125 0.0625 0.546875q0.046875 0.25 0.171875 0.453125q0.125 0.203125 0.3125 0.328125q0.171875 0.109375 0.40625 0.109375zm0 -8.156784q0.484375 0 0.734375 -0.40625q0.25 -0.40625 0.328125 -1.484375q0.09375 -1.15625 0.5625 -1.765625q0.453125 -0.609375 1.328125 -0.609375l0.09375 0q0.46875 0 0.859375 0.203125q0.375 0.1875 0.640625 0.53125q0.265625 0.328125 0.40625 0.8125q0.140625 0.484375 0.140625 1.0625q0 0.78125 -0.203125 1.328125q-0.21875 0.546875 -0.546875 0.921875q-0.34375 0.359375 -0.765625 0.546875q-0.4375 0.1875 -0.890625 0.21875l-0.234375 -0.984375q0.765625 -0.0625 1.234375 -0.578125q0.453125 -0.53125 0.453125 -1.390625q0 -0.734375 -0.28125 -1.171875q-0.296875 -0.453125 -0.8125 -0.453125q-0.5625 0 -0.796875 0.4375q-0.25 0.4375 -0.3125 1.421875q-0.078125 1.140625 -0.53125 1.765625q-0.453125 0.609375 -1.328125 0.609375l-0.078125 0q-0.46875 0 -0.8125 -0.203125q-0.359375 -0.203125 -0.59375 -0.53125q-0.25 -0.34375 -0.359375 -0.765625q-0.125 -0.4375 -0.125 -0.90625q0 -0.65625 0.1875 -1.140625q0.171875 -0.5 0.46875 -0.828125q0.28125 -0.328125 0.65625 -0.5q0.359375 -0.1875 0.734375 -0.25l0.25 0.984375q-0.640625 0.078125 -1.0 0.53125q-0.359375 0.4375 -0.359375 1.15625q0 0.28125 0.0625 0.546875q0.046875 0.25 0.171875 0.453125q0.125 0.203125 0.3125 0.328125q0.171875 0.109375 0.40625 0.109375z" fill-rule="nonzero"/><path fill="#000000" fill-opacity="0.0" d="m437.98163 265.9134l0 -125.60631l28.37796 0l0 125.60631z" fill-rule="evenodd"/><path fill="#000000" d="m456.79724 250.12906q0.984375 -0.03125 1.59375 -0.609375q0.59375 -0.578125 0.59375 -1.59375q0 -0.46875 -0.109375 -0.8125q-0.109375 -0.359375 -0.296875 -0.59375q-0.1875 -0.25 -0.421875 -0.40625q-0.25 -0.15625 -0.53125 -0.25l0.265625 -0.984375q0.921875 0.28125 1.5 1.03125q0.578125 0.75 0.578125 2.03125q0 0.703125 -0.25 1.296875q-0.25 0.59375 -0.703125 1.03125q-0.453125 0.421875 -1.078125 0.671875q-0.625 0.234375 -1.375 0.234375l-0.328125 0q-0.6875 0 -1.28125 -0.25q-0.609375 -0.25 -1.03125 -0.6875q-0.4375 -0.4375 -0.6875 -1.03125q-0.25 -0.59375 -0.25 -1.28125q0 -0.8125 0.296875 -1.40625q0.296875 -0.59375 0.75 -0.96875q0.4375 -0.390625 0.953125 -0.5625q0.515625 -0.1875 0.953125 -0.1875l0.859375 0l0 5.328125zm-2.828125 -2.203125q0 0.4375 0.140625 0.8125q0.140625 0.375 0.390625 0.671875q0.25 0.28125 0.59375 0.46875q0.34375 0.171875 0.75 0.21875l0 -4.25q-0.4375 0.015625 -0.78125 0.203125q-0.34375 0.171875 -0.578125 0.46875q-0.25 0.28125 -0.375 0.65625q-0.140625 0.359375 -0.140625 0.75zm5.8125 -6.234909l0 1.046875l-6.609375 0l0 -1.046875l1.125 0l0 -0.15625q-1.3125 -0.609375 -1.3125 -2.125q0 -1.15625 0.71875 -1.828125q0.703125 -0.6875 2.140625 -0.6875l3.9375 0l0 1.046875l-3.734375 0q-1.03125 0 -1.546875 0.46875q-0.53125 0.453125 -0.53125 1.265625q0 0.9375 0.65625 1.484375q0.640625 0.53125 1.71875 0.53125l3.4375 0zm-1.015625 -12.234909l0 0.15625q0.3125 0.171875 0.546875 0.421875q0.21875 0.234375 0.375 0.53125q0.140625 0.28125 0.203125 0.609375q0.078125 0.3125 0.078125 0.609375q0 0.65625 -0.21875 1.234375q-0.234375 0.578125 -0.65625 1.015625q-0.4375 0.421875 -1.0625 0.671875q-0.640625 0.25 -1.453125 0.25l-0.203125 0q-0.8125 0 -1.4375 -0.25q-0.640625 -0.265625 -1.0625 -0.6875q-0.4375 -0.421875 -0.65625 -1.0q-0.234375 -0.578125 -0.234375 -1.21875q0 -0.671875 0.296875 -1.265625q0.296875 -0.59375 0.921875 -0.921875l0 -0.15625l-3.75 0l0 -1.03125l9.328125 0l0 1.03125l-1.015625 0zm0.21875 2.21875q0 -0.46875 -0.171875 -0.859375q-0.171875 -0.40625 -0.484375 -0.703125q-0.328125 -0.3125 -0.765625 -0.484375q-0.453125 -0.171875 -1.0 -0.171875l-0.171875 0q-0.53125 0 -0.96875 0.171875q-0.453125 0.171875 -0.765625 0.484375q-0.328125 0.296875 -0.5 0.703125q-0.1875 0.40625 -0.1875 0.859375q0 0.46875 0.171875 0.875q0.171875 0.40625 0.5 0.703125q0.3125 0.296875 0.765625 0.46875q0.4375 0.15625 0.96875 0.15625l0.203125 0q0.5625 0 1.0 -0.15625q0.4375 -0.171875 0.75 -0.46875q0.3125 -0.296875 0.484375 -0.6875q0.171875 -0.40625 0.171875 -0.890625zm1.4375 -5.063034l0 -6.21875l0.953125 0l0 6.21875l-0.953125 0zm-3.859375 -14.578659q0.8125 0 1.453125 0.28125q0.625 0.265625 1.0625 0.71875q0.4375 0.453125 0.671875 1.0625q0.21875 0.59375 0.21875 1.25q0 0.671875 -0.21875 1.265625q-0.234375 0.59375 -0.671875 1.046875q-0.4375 0.453125 -1.0625 0.734375q-0.640625 0.265625 -1.453125 0.265625l-0.171875 0q-0.8125 0 -1.4375 -0.265625q-0.640625 -0.28125 -1.078125 -0.734375q-0.4375 -0.453125 -0.65625 -1.046875q-0.234375 -0.609375 -0.234375 -1.265625q0 -0.65625 0.234375 -1.25q0.21875 -0.609375 0.65625 -1.0625q0.4375 -0.453125 1.078125 -0.71875q0.625 -0.28125 1.4375 -0.28125l0.171875 0zm2.421875 3.3125q0 -0.484375 -0.171875 -0.890625q-0.171875 -0.40625 -0.484375 -0.703125q-0.3125 -0.3125 -0.765625 -0.484375q-0.453125 -0.171875 -1.0 -0.171875l-0.171875 0q-0.53125 0 -0.96875 0.171875q-0.453125 0.171875 -0.765625 0.484375q-0.328125 0.296875 -0.5 0.71875q-0.1875 0.40625 -0.1875 0.875q0 0.46875 0.1875 0.890625q0.171875 0.40625 0.5 0.71875q0.3125 0.296875 0.765625 0.46875q0.4375 0.171875 0.96875 0.171875l0.171875 0q0.546875 0 1.0 -0.171875q0.453125 -0.171875 0.765625 -0.46875q0.3125 -0.3125 0.484375 -0.71875q0.171875 -0.40625 0.171875 -0.890625zm-5.8125 -5.172409l0 -2.03125l-1.6875 0q-0.453125 0 -0.734375 -0.28125q-0.296875 -0.296875 -0.296875 -0.75l0 -2.609375l0.953125 0l0 2.234375q0 0.359375 0.40625 0.359375l1.359375 0l0 -2.765625l0.953125 0l0 2.765625l5.65625 0l0 1.046875l-5.65625 0l0 2.03125l-0.953125 0zm7.25 -8.031784l0 -6.2187347l0.953125 0l0 6.2187347l-0.953125 0zm-0.640625 -9.141144l0 1.03125l-9.328125 0l0 -1.03125l3.75 0l0 -0.171875q-0.59375 -0.34375 -0.90625 -0.953125q-0.3125 -0.609375 -0.3125 -1.328125q0 -0.625 0.234375 -1.171875q0.21875 -0.546875 0.65625 -0.953125q0.421875 -0.421875 1.046875 -0.671875q0.625 -0.25 1.421875 -0.25l0.265625 0q0.8125 0 1.4375 0.25q0.625 0.234375 1.0625 0.65625q0.421875 0.421875 0.640625 0.984375q0.21875 0.546875 0.21875 1.171875q0 0.328125 -0.078125 0.65625q-0.0625 0.328125 -0.21875 0.640625q-0.15625 0.296875 -0.375 0.546875q-0.21875 0.25 -0.53125 0.421875l0 0.171875l1.015625 0zm-0.796875 -2.21875q0 -0.484375 -0.171875 -0.875q-0.171875 -0.40625 -0.46875 -0.703125q-0.3125 -0.296875 -0.75 -0.46875q-0.4375 -0.171875 -0.984375 -0.171875l-0.265625 0q-0.53125 0 -0.96875 0.171875q-0.4375 0.171875 -0.75 0.46875q-0.3125 0.296875 -0.484375 0.703125q-0.171875 0.40625 -0.171875 0.875q0 0.46875 0.1875 0.875q0.171875 0.390625 0.5 0.6875q0.3125 0.296875 0.765625 0.484375q0.4375 0.171875 0.96875 0.171875l0.171875 0q0.546875 0 1.0 -0.171875q0.4375 -0.1875 0.765625 -0.484375q0.3125 -0.296875 0.484375 -0.6875q0.171875 -0.40625 0.171875 -0.875zm-0.15625 -5.141159l0 -2.40625l-7.421875 0l0 2.328125l-0.953125 0l0 -3.359375l8.375 0l0 -2.40625l0.953125 0l0 5.84375l-0.953125 0zm-2.265625 -14.391159q0.8125 0 1.453125 0.28125q0.625 0.265625 1.0625 0.71875q0.4375 0.453125 0.671875 1.0625q0.21875 0.59375 0.21875 1.25q0 0.671875 -0.21875 1.265625q-0.234375 0.59375 -0.671875 1.046875q-0.4375 0.453125 -1.0625 0.734375q-0.640625 0.265625 -1.453125 0.265625l-0.171875 0q-0.8125 0 -1.4375 -0.265625q-0.640625 -0.28125 -1.078125 -0.734375q-0.4375 -0.453125 -0.65625 -1.046875q-0.234375 -0.609375 -0.234375 -1.265625q0 -0.65625 0.234375 -1.25q0.21875 -0.609375 0.65625 -1.0625q0.4375 -0.453125 1.078125 -0.71875q0.625 -0.28125 1.4375 -0.28125l0.171875 0zm2.421875 3.3125q0 -0.484375 -0.171875 -0.890625q-0.171875 -0.40625 -0.484375 -0.703125q-0.3125 -0.3125 -0.765625 -0.484375q-0.453125 -0.171875 -1.0 -0.171875l-0.171875 0q-0.53125 0 -0.96875 0.171875q-0.453125 0.171875 -0.765625 0.484375q-0.328125 0.296875 -0.5 0.71875q-0.1875 0.40625 -0.1875 0.875q0 0.46875 0.1875 0.890625q0.171875 0.40625 0.5 0.71875q0.3125 0.296875 0.765625 0.46875q0.4375 0.171875 0.96875 0.171875l0.171875 0q0.546875 0 1.0 -0.171875q0.453125 -0.171875 0.765625 -0.46875q0.3125 -0.3125 0.484375 -0.71875q0.171875 -0.40625 0.171875 -0.890625zm-1.546875 -11.422409q0.546875 0.109375 1.015625 0.375q0.46875 0.25 0.8125 0.65625q0.328125 0.390625 0.515625 0.9375q0.1875 0.53125 0.1875 1.171875q0 0.703125 -0.21875 1.328125q-0.234375 0.609375 -0.671875 1.078125q-0.4375 0.46875 -1.0625 0.75q-0.625 0.265625 -1.4375 0.265625l-0.15625 0q-0.796875 0 -1.4375 -0.265625q-0.640625 -0.28125 -1.078125 -0.75q-0.4375 -0.46875 -0.671875 -1.078125q-0.25 -0.625 -0.25 -1.328125q0 -0.625 0.1875 -1.15625q0.1875 -0.53125 0.53125 -0.9375q0.328125 -0.40625 0.796875 -0.65625q0.46875 -0.265625 1.015625 -0.359375l0.234375 1.03125q-0.34375 0.046875 -0.671875 0.203125q-0.328125 0.140625 -0.5625 0.40625q-0.25 0.265625 -0.390625 0.640625q-0.15625 0.359375 -0.15625 0.859375q0 0.484375 0.1875 0.90625q0.171875 0.40625 0.5 0.734375q0.328125 0.3125 0.78125 0.5q0.453125 0.171875 0.984375 0.171875l0.15625 0q0.5625 0 1.015625 -0.171875q0.4375 -0.1875 0.75 -0.5q0.296875 -0.328125 0.46875 -0.75q0.171875 -0.421875 0.171875 -0.921875q0 -0.484375 -0.15625 -0.84375q-0.15625 -0.375 -0.390625 -0.625q-0.25 -0.265625 -0.5625 -0.421875q-0.328125 -0.15625 -0.671875 -0.203125l0.234375 -1.046875zm-1.515625 -3.672409l0 -0.234375l-2.75 -2.515625l0 -1.28125l0.078125 0l3.03125 2.75l0.234375 0l3.1875 -3.0625l0.078125 0l0 1.265625l-2.90625 2.8125l0 0.265625l2.90625 0l0 1.03125l-9.328125 0l0 -1.03125l5.46875 0z" fill-rule="nonzero"/><path fill="#000000" fill-opacity="0.0" d="m77.66398 7.989848l44.944878 44.94488l-20.062988 20.062988l-44.94488 -44.944878z" fill-rule="evenodd"/><path fill="#980000" d="m75.52816 27.336817l1.701477 1.7014751l-0.618721 0.6187191l0.11048889 0.11048508q0.56346893 -0.20992279 1.0717087 -0.05524254q0.5192795 0.14363098 0.93912506 0.56347466q0.70710754 0.70710754 0.6739578 1.6020393q-0.022094727 0.90598106 -0.8838806 1.8119602l-0.88388824 -0.66291046q0.6518631 -0.6518669 0.6297684 -1.2484875q-0.022094727 -0.59662056 -0.4750824 -1.0496101q-0.2872696 -0.28726387 -0.6297684 -0.38669968q-0.32041168 -0.09943771 -0.6629181 -0.044195175q-0.32040405 0.055244446 -0.6518631 0.25411797q-0.33145142 0.19887352 -0.6297684 0.49718285l-1.9887314 1.988739l1.18219 1.1821938l-0.6739578 0.67396164l-2.994156 -2.994156l0.6739578 -0.67396164l1.0717087 1.0717087l3.325615 -3.325611l-0.9612274 -0.9612236l0.67396545 -0.67395973zm4.010994 9.137522q-0.6739578 0.7181549 -0.69605255 1.5578461q-0.011047363 0.82864 0.70710754 1.5467949q0.33145142 0.33145523 0.6518631 0.49718475q0.33145142 0.17677689 0.6297684 0.20992279q0.3093567 0.044193268 0.5855713 -0.011047363q0.28726196 -0.06629181 0.55242157 -0.19887543l0.50823975 0.88388443q-0.8507385 0.45298767 -1.7898636 0.33145523q-0.9391327 -0.12153244 -1.845108 -1.0275154q-0.49718475 -0.49718475 -0.74025726 -1.0938034q-0.24306488 -0.59662247 -0.23201752 -1.2263908q0.022094727 -0.6187172 0.28726196 -1.2374344q0.2762146 -0.60766983 0.80654144 -1.1380005l0.23202515 -0.23202133q0.48612976 -0.48613358 1.082756 -0.7292023q0.607666 -0.25411606 1.2153397 -0.2430687q0.6187134 0 1.2153397 0.2430687q0.59661865 0.2430687 1.082756 0.7292023q0.5745239 0.5745239 0.7844467 1.2042923q0.20992279 0.6297684 0.15467834 1.2153397q-0.03314209 0.5855713 -0.2762146 1.0717087q-0.23201752 0.49718475 -0.5413742 0.80654526l-0.60767365 0.60766983l-3.7675552 -3.7675552zm3.5576324 -0.4419403q-0.3093567 -0.3093605 -0.6739578 -0.47509003q-0.36460114 -0.16572571 -0.7513046 -0.19887161q-0.3756485 -0.022098541 -0.751297 0.088386536q-0.36460114 0.121536255 -0.6850128 0.3756523l3.0052032 3.0052032q0.29830933 -0.32040787 0.40879822 -0.69605637q0.121536255 -0.36460495 0.07733917 -0.74025345q-0.022094727 -0.3756523 -0.19887543 -0.7292061q-0.15467834 -0.35355377 -0.43089294 -0.62976456zm3.9999542 5.281582q-0.3425064 0.3425026 -0.23201752 0.80654144q0.11048126 0.46403885 0.8175888 1.2816315q0.751297 0.88388443 0.8507385 1.6462326q0.11048126 0.7513008 -0.5082321 1.3700218l-0.06629181 0.066287994q-0.33145905 0.33145905 -0.7513046 0.46403885q-0.39774323 0.13258362 -0.82863617 0.07734299q-0.41984558 -0.044197083 -0.8617859 -0.28726196q-0.44194794 -0.2430687 -0.8507385 -0.6518669q-0.5524292 -0.5524254 -0.7954941 -1.082756q-0.23202515 -0.541378 -0.26516724 -1.0385628q-0.011047363 -0.49718475 0.15467834 -0.9280777q0.1767807 -0.4419403 0.47509003 -0.7844467l0.8617859 0.53033066q-0.49718475 0.5855713 -0.46404266 1.2816315q0.055244446 0.69605637 0.6629181 1.3037262q0.5192795 0.5192833 1.0275116 0.6297684q0.53032684 0.11048508 0.894928 -0.25411606q0.39775085 -0.39774704 0.25411987 -0.87283707q-0.13258362 -0.48613358 -0.7844467 -1.226387q-0.751297 -0.8617859 -0.87283325 -1.6241379q-0.11048889 -0.7513008 0.5082321 -1.370018l0.055244446 -0.05524063q0.33145142 -0.33145905 0.7181549 -0.43089676q0.39774323 -0.11048508 0.7954941 -0.044193268q0.41984558 0.06629181 0.7954941 0.28726196q0.39775085 0.22097015 0.7292023 0.5524292q0.46404266 0.46403885 0.67396545 0.93912506q0.23201752 0.4750862 0.25411224 0.91703033q0.03314972 0.43089294 -0.11048126 0.8175926q-0.121536255 0.38669586 -0.3425064 0.69605637l-0.87283325 -0.5192795q0.39774323 -0.50823593 0.33145142 -1.0827599q-0.055236816 -0.56347656 -0.56347656 -1.0717087q-0.1988678 -0.19887161 -0.43089294 -0.3425026q-0.20992279 -0.14363098 -0.4419403 -0.19887543q-0.23201752 -0.05524063 -0.45298767 -0.011047363q-0.19887543 0.044193268 -0.36460114 0.20992279zm3.9778519 6.695793q-0.6739578 0.7181549 -0.6960602 1.5578461q-0.011047363 0.82864 0.70710754 1.5467949q0.33145905 0.33145523 0.6518631 0.49718475q0.33145905 0.17677689 0.6297684 0.20992279q0.3093567 0.044193268 0.5855713 -0.011047363q0.28726196 -0.06629181 0.5524292 -0.19887543l0.5082321 0.88388443q-0.8507385 0.45298767 -1.7898636 0.33145523q-0.93912506 -0.12153244 -1.845108 -1.0275154q-0.49718475 -0.49718475 -0.74024963 -1.0938034q-0.24307251 -0.59662247 -0.23201752 -1.2263908q0.022094727 -0.6187172 0.28726196 -1.2374344q0.27620697 -0.60766983 0.80654144 -1.1380005l0.23201752 -0.23202133q0.4861374 -0.48613358 1.082756 -0.7292023q0.60767365 -0.25411606 1.2153397 -0.2430687q0.618721 0 1.2153397 0.2430687q0.5966263 0.2430687 1.082756 0.7292023q0.57453156 0.5745239 0.7844467 1.2042923q0.20992279 0.6297684 0.15468597 1.2153397q-0.03314972 0.5855713 -0.2762146 1.0717087q-0.23201752 0.49718475 -0.54138184 0.80654526l-0.607666 0.60766983l-3.7675552 -3.7675552zm3.5576324 -0.4419403q-0.30936432 -0.3093605 -0.67396545 -0.47509003q-0.36460114 -0.16572571 -0.751297 -0.19887161q-0.3756485 -0.022098541 -0.7513046 0.088386536q-0.36460114 0.121536255 -0.6850052 0.3756523l3.0052032 3.0052032q0.29830933 -0.32040787 0.4087906 -0.69605637q0.121536255 -0.36460495 0.0773468 -0.74025345q-0.022102356 -0.3756523 -0.19887543 -0.7292061q-0.15467834 -0.35355377 -0.43089294 -0.62976456zm4.077286 2.9503365l1.4694595 1.4694557l1.9224472 -1.9224434l0.7292023 0.7292023l-1.9224472 1.9224472l1.8119583 1.8119621l-0.6739578 0.67396164l-1.8119583 -1.8119621l-3.038353 3.0383492q-0.28726196 0.28726196 -0.03314209 0.541378l1.3368683 1.3368721l-0.6739578 0.67396164l-1.6020355 -1.6020393q-0.32041168 -0.32040787 -0.30936432 -0.7292023q0.011047363 -0.4087944 0.33145905 -0.7292023l3.2593155 -3.2593231l-1.4694519 -1.4694557l0.6739578 -0.67396164z" fill-rule="nonzero"/></g></svg>