<svg version="1.1" viewBox="0.0 0.0 432.59055118110234 251.29658792650918" fill="none" stroke="none" stroke-linecap="square" stroke-miterlimit="10" xmlns:xlink="http://www.w3.org/1999/xlink" xmlns="http://www.w3.org/2000/svg"><clipPath id="p.0"><path d="m0 0l432.59055 0l0 251.29659l-432.59055 0l0 -251.29659z" clip-rule="nonzero"/></clipPath><g clip-path="url(#p.0)"><path fill="#000000" fill-opacity="0.0" d="m0 0l432.59055 0l0 251.29659l-432.59055 0z" fill-rule="evenodd"/><path fill="#000000" fill-opacity="0.0" d="m42.76784 27.982697l105.480316 0" fill-rule="evenodd"/><path stroke="#000000" stroke-width="3.0" stroke-linejoin="round" stroke-linecap="butt" d="m42.76784 27.982697l105.480316 0" fill-rule="evenodd"/><path fill="#000000" fill-opacity="0.0" d="m27.850393 7.6770205l120.97637 0l0 29.732285l-120.97637 0z" fill-rule="evenodd"/><path fill="#000000" d="m96.91732 18.59993q0 -0.875 -0.53125 -1.390625q-0.53125 -0.53125 -1.46875 -0.53125q-0.453125 0 -0.84375 0.171875q-0.375 0.15625 -0.65625 0.453125q-0.265625 0.296875 -0.421875 0.71875q-0.15625 0.40625 -0.15625 0.890625l0 1.390625l0.171875 0q0.3125 -0.578125 0.90625 -0.90625q0.59375 -0.34375 1.328125 -0.34375q0.640625 0 1.1875 0.203125q0.546875 0.203125 0.9375 0.609375q0.390625 0.40625 0.609375 0.96875q0.21875 0.5625 0.21875 1.28125l0 0.15625q0 0.703125 -0.25 1.28125q-0.234375 0.5625 -0.671875 0.984375q-0.4375 0.40625 -1.03125 0.640625q-0.59375 0.21875 -1.28125 0.21875q-0.6875 0 -1.28125 -0.21875q-0.59375 -0.234375 -1.03125 -0.640625q-0.4375 -0.40625 -0.6875 -0.96875q-0.234375 -0.578125 -0.234375 -1.25l0 -3.40625q0 -0.734375 0.25 -1.328125q0.25 -0.59375 0.6875 -1.015625q0.4375 -0.421875 1.015625 -0.64062595q0.59375 -0.234375 1.25 -0.234375q0.671875 0 1.234375 0.203125q0.578125 0.20312595 0.984375 0.57812595q0.421875 0.375 0.65625 0.921875q0.234375 0.53125 0.234375 1.203125l-1.125 0zm-1.953125 5.8125q0.484375 0 0.875 -0.15625q0.390625 -0.15625 0.671875 -0.4375q0.28125 -0.28125 0.421875 -0.65625q0.15625 -0.390625 0.15625 -0.859375l0 -0.15625q0 -0.46875 -0.171875 -0.859375q-0.15625 -0.390625 -0.4375 -0.65625q-0.28125 -0.28125 -0.671875 -0.4375q-0.390625 -0.15625 -0.84375 -0.15625q-0.453125 0 -0.84375 0.171875q-0.375 0.15625 -0.671875 0.4375q-0.28125 0.265625 -0.453125 0.640625q-0.15625 0.375 -0.15625 0.796875l0 0.265625q0 0.4375 0.140625 0.8125q0.15625 0.375 0.4375 0.65625q0.28125 0.28125 0.671875 0.4375q0.390625 0.15625 0.875 0.15625zm8.000534 -8.531251l2.171875 0l0 6.531251l1.4375 0l0 1.03125l-1.4375 0l0 1.765625l-1.125 0l0 -1.765625l-4.3125 0l0 -1.546875l3.265625 -6.015626zm-2.3125 6.375001l0 0.15625l3.359375 0l0 -6.046875l-0.15625 0l-3.203125 5.890625zm9.688034 -5.625q0 -0.390625 0.265625 -0.65625095q0.28125 -0.28125 0.671875 -0.28125q0.390625 0 0.65625 0.28125q0.28125 0.26562595 0.28125 0.65625095q0 0.28125 -0.171875 0.515625q-0.15625 0.234375 -0.40625 0.34375l0 1.484375l-0.71875 0l0 -1.484375q-0.25 -0.109375 -0.421875 -0.34375q-0.15625 -0.234375 -0.15625 -0.515625zm6.969284 8.578125l-1.03125 0l0 -9.328126l1.03125 0l0 3.750001l0.171875 0q0.34375 -0.59375 0.953125 -0.90625q0.609375 -0.3125 1.328125 -0.3125q0.625 0 1.171875 0.234375q0.546875 0.21875 0.953125 0.65625q0.421875 0.421875 0.671875 1.046875q0.25 0.625 0.25 1.421875l0 0.265625q0 0.8125 -0.25 1.4375q-0.234375 0.625 -0.65625 1.0625q-0.421875 0.421875 -0.984375 0.640625q-0.546875 0.21875 -1.171875 0.21875q-0.328125 0 -0.65625 -0.078125q-0.328125 -0.0625 -0.640625 -0.21875q-0.296875 -0.15625 -0.546875 -0.375q-0.25 -0.21875 -0.421875 -0.53125l-0.171875 0l0 1.015625zm2.21875 -0.796875q0.484375 0 0.875 -0.171875q0.40625 -0.171875 0.703125 -0.46875q0.296875 -0.3125 0.46875 -0.75q0.171875 -0.4375 0.171875 -0.984375l0 -0.265625q0 -0.53125 -0.171875 -0.96875q-0.171875 -0.4375 -0.46875 -0.75q-0.296875 -0.3125 -0.703125 -0.484375q-0.40625 -0.171875 -0.875 -0.171875q-0.46875 0 -0.875 0.1875q-0.390625 0.171875 -0.6875 0.5q-0.296875 0.3125 -0.484375 0.765625q-0.171875 0.4375 -0.171875 0.96875l0 0.171875q0 0.546875 0.171875 1.0q0.1875 0.4375 0.484375 0.765625q0.296875 0.3125 0.6875 0.484375q0.40625 0.171875 0.875 0.171875zm12.9385605 -4.90625q0 -1.8125 0.859375 -2.8125q0.875 -1.000001 2.421875 -1.000001q1.546875 0 2.40625 1.000001q0.875 1.0 0.875 2.8125l0 2.078125q0 1.859375 -0.875 2.84375q-0.859375 0.96875 -2.40625 0.96875q-1.546875 0 -2.421875 -0.96875q-0.859375 -0.984375 -0.859375 -2.84375l0 -2.078125zm3.28125 4.875q1.078125 0 1.609375 -0.75q0.546875 -0.75 0.546875 -2.125l0 -1.921875q0 -0.640625 -0.140625 -1.15625q-0.125 -0.53125 -0.40625 -0.90625q-0.265625 -0.390625 -0.671875 -0.59375q-0.40625 -0.21875 -0.9375 -0.21875q-0.546875 0 -0.953125 0.21875q-0.390625 0.203125 -0.671875 0.59375q-0.265625 0.375 -0.40625 0.90625q-0.125 0.515625 -0.125 1.15625l0 1.921875q0 1.375 0.53125 2.125q0.546875 0.75 1.625 0.75zm-0.859375 -3.84375q0 -0.34375 0.25 -0.59375q0.265625 -0.25 0.609375 -0.25q0.34375 0 0.59375 0.25q0.265625 0.25 0.265625 0.59375q0 0.359375 -0.265625 0.609375q-0.25 0.25 -0.59375 0.25q-0.34375 0 -0.609375 -0.25q-0.25 -0.25 -0.25 -0.609375z" fill-rule="nonzero"/><path fill="#000000" fill-opacity="0.0" d="m145.47252 51.87604l-102.55118 0" fill-rule="evenodd"/><path stroke="#000000" stroke-width="3.0" stroke-linejoin="round" stroke-linecap="butt" d="m145.47252 51.87604l-102.55118 0" fill-rule="evenodd"/><path fill="#000000" fill-opacity="0.0" d="m1.9606299 46.309113l146.86613 0l0 29.732285l-146.86613 0z" fill-rule="evenodd"/><path fill="#000000" d="m33.14741 68.109116l-1.03125 0l0 -4.750004q0 -0.46875 -0.2187481 -0.765625q-0.21875 -0.296875 -0.6875 -0.296875q-0.4375 0 -0.71875 0.328125q-0.265625 0.328125 -0.265625 1.0l0 4.484379l-1.03125 0l0 -4.796879q0 -0.4375 -0.25 -0.71875q-0.234375 -0.296875 -0.640625 -0.296875q-0.46875 0 -0.734375 0.34375q-0.265625 0.34375 -0.265625 0.90625l0 4.562504l-1.03125 0l0 -6.609379l1.03125 0l0 0.71875l0.171875 0q0.171875 -0.46875 0.5 -0.6875q0.328125 -0.21875 0.78125 -0.21875q0.484375 0 0.796875 0.25q0.3125 0.25 0.4375 0.65625l0.15625 0q0.453125 -0.90625 1.4375 -0.90625q0.7499981 0 1.1562481 0.484375q0.40625 0.46875 0.40625 1.21875l0 5.093754zm2.563034 -2.984375q0.03125 0.984375 0.609375 1.59375q0.578125 0.59375 1.59375 0.59375q0.46875 0 0.8125 -0.109375q0.359375 -0.109375 0.59375 -0.296875q0.25 -0.1875 0.40625 -0.421875q0.15625 -0.25 0.25 -0.53125l0.984375 0.265625q-0.28125 0.921875 -1.03125 1.5q-0.75 0.578125 -2.03125 0.578125q-0.703125 0 -1.296875 -0.25q-0.59375 -0.25 -1.03125 -0.703125q-0.421875 -0.453125 -0.671875 -1.078125q-0.234375 -0.625 -0.234375 -1.375l0 -0.328125q0 -0.6875038 0.25 -1.2812538q0.25 -0.609375 0.6875 -1.03125q0.4375 -0.4375 1.03125 -0.6875q0.59375 -0.25 1.28125 -0.25q0.8125 0 1.40625 0.296875q0.59375 0.296875 0.96875 0.75q0.390625 0.4375 0.5625 0.953125q0.1875 0.515625 0.1875 0.9531288l0 0.859375l-5.328125 0zm2.203125 -2.8281288q-0.4375 0 -0.8125 0.140625q-0.375 0.140625 -0.671875 0.390625q-0.28125 0.25 -0.46875 0.59375q-0.171875 0.34375 -0.21875 0.7500038l4.25 0q-0.015625 -0.4375038 -0.203125 -0.7812538q-0.171875 -0.34375 -0.46875 -0.578125q-0.28125 -0.25 -0.65625 -0.375q-0.359375 -0.140625 -0.75 -0.140625zm6.563034 0.90625q0 0.484375 0.40625 0.734375q0.40625 0.2500038 1.484375 0.3281288q1.15625 0.09375 1.765625 0.5625q0.609375 0.453125 0.609375 1.328125l0 0.09375q0 0.46875 -0.203125 0.859375q-0.1875 0.375 -0.53125 0.640625q-0.328125 0.265625 -0.8125 0.40625q-0.484375 0.140625 -1.0625 0.140625q-0.78125 0 -1.328125 -0.203125q-0.546875 -0.21875 -0.921875 -0.546875q-0.359375 -0.34375 -0.546875 -0.765625q-0.1875 -0.4375 -0.21875 -0.890625l0.984375 -0.234375q0.0625 0.765625 0.578125 1.234375q0.53125 0.453125 1.390625 0.453125q0.734375 0 1.171875 -0.28125q0.453125 -0.296875 0.453125 -0.8125q0 -0.5625 -0.4375 -0.796875q-0.4375 -0.25 -1.421875 -0.3125q-1.140625 -0.078125 -1.765625 -0.53125q-0.609375 -0.453125 -0.609375 -1.3281288l0 -0.078125q0 -0.46875 0.203125 -0.8125q0.203125 -0.359375 0.53125 -0.59375q0.34375 -0.25 0.765625 -0.359375q0.4375 -0.125 0.90625 -0.125q0.65625 0 1.140625 0.1875q0.5 0.171875 0.828125 0.46875q0.328125 0.28125 0.5 0.65625q0.1875 0.359375 0.25 0.734375l-0.984375 0.25q-0.078125 -0.640625 -0.53125 -1.0q-0.4375 -0.359375 -1.15625 -0.359375q-0.28125 0 -0.546875 0.0625q-0.25 0.046875 -0.453125 0.171875q-0.203125 0.125 -0.328125 0.3125q-0.109375 0.171875 -0.109375 0.40625zm8.156784 0q0 0.484375 0.40625 0.734375q0.40625 0.2500038 1.484375 0.3281288q1.15625 0.09375 1.765625 0.5625q0.609375 0.453125 0.609375 1.328125l0 0.09375q0 0.46875 -0.203125 0.859375q-0.1875 0.375 -0.53125 0.640625q-0.328125 0.265625 -0.8125 0.40625q-0.484375 0.140625 -1.0625 0.140625q-0.78125 0 -1.328125 -0.203125q-0.546875 -0.21875 -0.921875 -0.546875q-0.359375 -0.34375 -0.546875 -0.765625q-0.1875 -0.4375 -0.21875 -0.890625l0.984375 -0.234375q0.0625 0.765625 0.578125 1.234375q0.53125 0.453125 1.390625 0.453125q0.734375 0 1.171875 -0.28125q0.453125 -0.296875 0.453125 -0.8125q0 -0.5625 -0.4375 -0.796875q-0.4375 -0.25 -1.421875 -0.3125q-1.140625 -0.078125 -1.765625 -0.53125q-0.609375 -0.453125 -0.609375 -1.3281288l0 -0.078125q0 -0.46875 0.203125 -0.8125q0.203125 -0.359375 0.53125 -0.59375q0.34375 -0.25 0.765625 -0.359375q0.4375 -0.125 0.90625 -0.125q0.65625 0 1.140625 0.1875q0.5 0.171875 0.828125 0.46875q0.328125 0.28125 0.5 0.65625q0.1875 0.359375 0.25 0.734375l-0.984375 0.25q-0.078125 -0.640625 -0.53125 -1.0q-0.4375 -0.359375 -1.15625 -0.359375q-0.28125 0 -0.546875 0.0625q-0.25 0.046875 -0.453125 0.171875q-0.203125 0.125 -0.328125 0.3125q-0.109375 0.171875 -0.109375 0.40625zm11.578663 3.7812538l-0.15625 0q-0.3125038 0.671875 -0.8906288 1.0q-0.5625 0.3125 -1.1875 0.3125q-0.65625 0 -1.21875 -0.21875q-0.546875 -0.21875 -0.96875 -0.65625q-0.421875 -0.4375 -0.671875 -1.0625q-0.234375 -0.625 -0.234375 -1.453125l0 -0.203125q0 -0.8125038 0.234375 -1.4375038q0.25 -0.640625 0.671875 -1.0625q0.421875 -0.4375 0.96875 -0.65625q0.5625 -0.234375 1.1875 -0.234375q0.6875 0 1.234375 0.296875q0.5625 0.296875 0.8750038 0.921875l0.15625 0l0 -1.03125l1.046875 0l0 5.250004q0 0.40625 0.359375 0.40625l0.328125 0l0 0.953125l-0.703125 0q-0.453125 0 -0.75 -0.296875q-0.28125 -0.296875 -0.28125 -0.75l0 -0.078125zm-2.1250038 0.328125q0.46875 0 0.859375 -0.171875q0.390625 -0.171875 0.671875 -0.484375q0.28125 -0.328125 0.4375038 -0.765625q0.15625 -0.453125 0.15625 -1.0l0 -0.171875q0 -0.53125 -0.15625 -0.9687538q-0.15625381 -0.453125 -0.4531288 -0.765625q-0.28125 -0.328125 -0.671875 -0.5q-0.390625 -0.1875 -0.84375 -0.1875q-0.46875 0 -0.859375 0.171875q-0.390625 0.171875 -0.671875 0.484375q-0.28125 0.3125 -0.453125 0.765625q-0.15625 0.4531288 -0.15625 0.9843788l0 0.203125q0 1.140625 0.59375 1.78125q0.59375 0.625 1.546875 0.625zm10.516163 -0.21875l-0.15625 0q-0.328125 0.609375 -0.890625 0.90625q-0.546875 0.296875 -1.203125 0.296875q-0.65625 0 -1.25 -0.21875q-0.578125 -0.234375 -1.03125 -0.65625q-0.4375 -0.4375 -0.703125 -1.0625q-0.265625 -0.640625 -0.265625 -1.453125l0 -0.203125q0 -0.8125038 0.265625 -1.4375038q0.265625 -0.640625 0.703125 -1.0625q0.453125 -0.4375 1.03125 -0.65625q0.59375 -0.234375 1.234375 -0.234375q0.71875 0 1.25 0.3125q0.546875 0.3125 0.859375 0.90625l0.15625 0l0 -1.03125l1.03125 0l0 8.234379q0 0.453125 -0.28125 0.75q-0.28125 0.296875 -0.734375 0.296875l-4.3125 0l0 -0.96875l3.9375 0q0.359375 0 0.359375 -0.390625l0 -2.328125zm-2.21875 0.21875q0.46875 0 0.859375 -0.171875q0.40625 -0.171875 0.703125 -0.484375q0.3125 -0.328125 0.484375 -0.765625q0.171875 -0.453125 0.171875 -1.0l0 -0.171875q0 -0.53125 -0.171875 -0.9687538q-0.171875 -0.453125 -0.484375 -0.765625q-0.296875 -0.328125 -0.703125 -0.5q-0.40625 -0.1875 -0.859375 -0.1875q-0.46875 0 -0.875 0.171875q-0.40625 0.171875 -0.703125 0.5q-0.296875 0.3125 -0.46875 0.765625q-0.15625 0.4375038 -0.15625 0.9687538l0 0.203125q0 0.5625 0.15625 1.0q0.171875 0.4375 0.46875 0.75q0.296875 0.3125 0.6875 0.484375q0.40625 0.171875 0.890625 0.171875zm6.109909 -2.1875q0.03125 0.984375 0.609375 1.59375q0.578125 0.59375 1.59375 0.59375q0.46875 0 0.8125 -0.109375q0.359375 -0.109375 0.59375 -0.296875q0.25 -0.1875 0.40625 -0.421875q0.15625 -0.25 0.25 -0.53125l0.984375 0.265625q-0.28125 0.921875 -1.03125 1.5q-0.75 0.578125 -2.03125 0.578125q-0.703125 0 -1.296875 -0.25q-0.59375 -0.25 -1.03125 -0.703125q-0.421875 -0.453125 -0.671875 -1.078125q-0.234375 -0.625 -0.234375 -1.375l0 -0.328125q0 -0.6875038 0.25 -1.2812538q0.25 -0.609375 0.6875 -1.03125q0.4375 -0.4375 1.03125 -0.6875q0.59375 -0.25 1.28125 -0.25q0.8125 0 1.40625 0.296875q0.59375 0.296875 0.96875 0.75q0.390625 0.4375 0.5625 0.953125q0.1875 0.515625 0.1875 0.9531288l0 0.859375l-5.328125 0zm2.203125 -2.8281288q-0.4375 0 -0.8125 0.140625q-0.375 0.140625 -0.671875 0.390625q-0.28125 0.25 -0.46875 0.59375q-0.171875 0.34375 -0.21875 0.7500038l4.25 0q-0.015625 -0.4375038 -0.203125 -0.7812538q-0.171875 -0.34375 -0.46875 -0.578125q-0.28125 -0.25 -0.65625 -0.375q-0.359375 -0.140625 -0.75 -0.140625zm7.547409 -4.5625q0 -0.453125 0.28125 -0.734375q0.296875 -0.296875 0.75 -0.296875l1.296875 0l0 0.953125l-0.921875 0q-0.359375 0 -0.359375 0.40625l0 10.765629q0 0.40625 0.359375 0.40625l0.921875 0l0 0.953125l-1.296875 0q-0.453125 0 -0.75 -0.296875q-0.28125 -0.28125 -0.28125 -0.734375l0 -11.421879zm7.859909 1.796875q0 -0.390625 0.265625 -0.65625q0.28125 -0.28125 0.65625 -0.28125q0.390625 0 0.65625 0.28125q0.28125 0.265625 0.28125 0.65625q0 0.375 -0.28125 0.65625q-0.265625 0.265625 -0.65625 0.265625q-0.375 0 -0.65625 -0.265625q-0.265625 -0.28125 -0.265625 -0.65625zm-1.90625 7.625004l2.328125 0l0 -4.703129l-2.078125 0l0 -0.953125l3.109375 0l0 5.656254l2.171875 0l0 0.953125l-5.53125 0l0 -0.953125zm8.141159 -4.187504l2.296875 0l0 -2.3125l0.96875 0l0 2.3125l2.296875 0l0 0.953125l-2.296875 0l0 2.3125038l-0.96875 0l0 -2.3125038l-2.296875 0l0 -0.953125zm10.000534 4.390629q0 -0.390625 0.265625 -0.65625q0.28125 -0.265625 0.671875 -0.265625q0.390625 0 0.65625 0.265625q0.28125 0.265625 0.28125 0.65625q0 0.390625 -0.28125 0.671875q-0.265625 0.265625 -0.65625 0.265625q-0.390625 0 -0.671875 -0.265625q-0.265625 -0.28125 -0.265625 -0.671875zm0 -5.109379q0 -0.390625 0.265625 -0.65625q0.28125 -0.28125 0.671875 -0.28125q0.390625 0 0.65625 0.28125q0.28125 0.265625 0.28125 0.65625q0 0.375 -0.28125 0.65625q-0.265625 0.265625 -0.65625 0.265625q-0.390625 0 -0.671875 -0.265625q-0.265625 -0.28125 -0.265625 -0.65625zm11.047409 -0.75q0 -0.875 -0.53125 -1.390625q-0.53125 -0.53125 -1.46875 -0.53125q-0.453125 0 -0.84375 0.171875q-0.375 0.15625 -0.65625 0.453125q-0.265625 0.296875 -0.421875 0.71875q-0.15625 0.40625 -0.15625 0.890625l0 1.390625l0.171875 0q0.3125 -0.578125 0.90625 -0.90625q0.59375 -0.34375 1.328125 -0.34375q0.640625 0 1.1875 0.203125q0.546875 0.203125 0.9375 0.609375q0.390625 0.40625 0.609375 0.96875q0.21875 0.5625038 0.21875 1.2812538l0 0.15625q0 0.703125 -0.25 1.28125q-0.234375 0.5625 -0.671875 0.984375q-0.4375 0.40625 -1.03125 0.640625q-0.59375 0.21875 -1.28125 0.21875q-0.6875 0 -1.28125 -0.21875q-0.59375 -0.234375 -1.03125 -0.640625q-0.4375 -0.40625 -0.6875 -0.96875q-0.234375 -0.578125 -0.234375 -1.25l0 -3.4062538q0 -0.734375 0.25 -1.328125q0.25 -0.59375 0.6875 -1.015625q0.4375 -0.421875 1.015625 -0.640625q0.59375 -0.234375 1.25 -0.234375q0.671875 0 1.234375 0.203125q0.578125 0.203125 0.984375 0.578125q0.421875 0.375 0.65625 0.921875q0.234375 0.53125 0.234375 1.203125l-1.125 0zm-1.953125 5.812504q0.484375 0 0.875 -0.15625q0.390625 -0.15625 0.671875 -0.4375q0.28125 -0.28125 0.421875 -0.65625q0.15625 -0.390625 0.15625 -0.859375l0 -0.15625q0 -0.46875 -0.171875 -0.859375q-0.15625 -0.3906288 -0.4375 -0.6562538q-0.28125 -0.28125 -0.671875 -0.4375q-0.390625 -0.15625 -0.84375 -0.15625q-0.453125 0 -0.84375 0.171875q-0.375 0.15625 -0.671875 0.4375q-0.28125 0.265625 -0.453125 0.6406288q-0.15625 0.375 -0.15625 0.796875l0 0.265625q0 0.4375 0.140625 0.8125q0.15625 0.375 0.4375 0.65625q0.28125 0.28125 0.671875 0.4375q0.390625 0.15625 0.875 0.15625zm8.000534 -8.531254l2.171875 0l0 6.531254l1.4375 0l0 1.03125l-1.4375 0l0 1.765625l-1.125 0l0 -1.765625l-4.3125 0l0 -1.546875l3.265625 -6.015629zm-2.3125 6.375004l0 0.15625l3.359375 0l0 -6.046879l-0.15625 0l-3.203125 5.890629zm11.188034 4.0q0 0.453125 -0.296875 0.734375q-0.28125 0.296875 -0.734375 0.296875l-1.296875 0l0 -0.953125l0.921875 0q0.359375 0 0.359375 -0.40625l0 -10.765629q0 -0.40625 -0.359375 -0.40625l-0.921875 0l0 -0.953125l1.296875 0q0.453125 0 0.734375 0.296875q0.296875 0.28125 0.296875 0.734375l0 11.421879z" fill-rule="nonzero"/><path fill="#000000" fill-opacity="0.0" d="m152.52493 62.322834l40.692917 0" fill-rule="evenodd"/><path stroke="#000000" stroke-width="3.0" stroke-linejoin="round" stroke-linecap="butt" d="m152.52493 62.322834l40.692917 0" fill-rule="evenodd"/><path fill="#ffffff" d="m231.42783 51.783302l0 0c5.8272552 -5.8272552 15.275101 -5.8272552 21.102356 0l0 0c2.798355 2.7983475 4.370453 6.5937195 4.370453 10.551182c0 3.9574623 -1.5720978 7.7528343 -4.370453 10.551182l0 0c-5.8272552 5.8272552 -15.275101 5.8272552 -21.102356 0l0 0c-5.8272552 -5.8272552 -5.8272552 -15.2751045 0 -21.102364z" fill-rule="evenodd"/><path fill="#000000" fill-opacity="0.0" d="m241.979 47.41286l0 29.84325m14.921631 -14.921627l-29.843262 0" fill-rule="evenodd"/><path fill="#000000" fill-opacity="0.0" d="m231.42783 51.783302l0 0c5.8272552 -5.8272552 15.275101 -5.8272552 21.102356 0l0 0c2.798355 2.7983475 4.370453 6.5937195 4.370453 10.551182c0 3.9574623 -1.5720978 7.7528343 -4.370453 10.551182l0 0c-5.8272552 5.8272552 -15.275101 5.8272552 -21.102356 0l0 0c-5.8272552 -5.8272552 -5.8272552 -15.2751045 0 -21.102364z" fill-rule="evenodd"/><path stroke="#000000" stroke-width="3.0" stroke-linejoin="round" stroke-linecap="butt" d="m241.979 47.41286l0 29.84325m14.921631 -14.921627l-29.843262 0" fill-rule="evenodd"/><path stroke="#000000" stroke-width="3.0" stroke-linejoin="round" stroke-linecap="butt" d="m231.42783 51.783302l0 0c5.8272552 -5.8272552 15.275101 -5.8272552 21.102356 0l0 0c2.798355 2.7983475 4.370453 6.5937195 4.370453 10.551182c0 3.9574623 -1.5720978 7.7528343 -4.370453 10.551182l0 0c-5.8272552 5.8272552 -15.275101 5.8272552 -21.102356 0l0 0c-5.8272552 -5.8272552 -5.8272552 -15.2751045 0 -21.102364z" fill-rule="evenodd"/><path fill="#000000" fill-opacity="0.0" d="m190.4672 62.322834l36.59842 0" fill-rule="evenodd"/><path stroke="#000000" stroke-width="3.0" stroke-linejoin="round" stroke-linecap="butt" d="m190.4672 62.322834l36.59842 0" fill-rule="evenodd"/><path fill="#000000" fill-opacity="0.0" d="m225.98425 109.23622l0 131.65355" fill-rule="evenodd"/><path stroke="#000000" stroke-width="3.0" stroke-linejoin="round" stroke-linecap="butt" d="m225.98425 119.51748l0 121.37229" fill-rule="evenodd"/><path fill="#000000" stroke="#000000" stroke-width="3.0" stroke-linecap="butt" d="m225.98425 119.51748l3.3737488 3.3737488l-3.3737488 -9.269302l-3.3737488 9.269302z" fill-rule="evenodd"/><path fill="#000000" fill-opacity="0.0" d="m264.9133 104.020996l0 146.86615l-38.92914 0l0 -146.86615z" fill-rule="evenodd"/><path fill="#000000" d="m239.23105 123.9347l7.796875 0l0 -0.15625l-3.515625 -1.53125l0 -1.109375l0.078125 0l3.921875 1.75l0 2.171875l-8.28125 0l0 2.640625l-1.046875 0l0 -6.390625l1.046875 0l0 2.625zm2.609375 14.032326l2.015625 0l1.921875 5.5625l-1.109375 0l-1.734375 -5.171875l-0.171875 0l-1.71875 5.171875l-1.125 0l1.921875 -5.5625zm0 8.156784l2.015625 0l1.921875 5.5625l-1.109375 0l-1.734375 -5.171875l-0.171875 0l-1.71875 5.171875l-1.125 0l1.921875 -5.5625zm-6.328125 16.969818l0 -1.03125l9.28125 0l0 1.03125l-1.03125 0l0 0.171875q0.59375 0.34375 0.90625 0.953125q0.3125 0.609375 0.3125 1.328125q0 0.625 -0.234375 1.171875q-0.21875 0.546875 -0.65625 0.953125q-0.421875 0.421875 -1.046875 0.671875q-0.625 0.25 -1.421875 0.25l-0.265625 0q-0.8125 0 -1.4375 -0.25q-0.625 -0.234375 -1.0625 -0.65625q-0.421875 -0.421875 -0.640625 -0.984375q-0.21875 -0.546875 -0.21875 -1.171875q0 -0.328125 0.078125 -0.65625q0.0625 -0.328125 0.21875 -0.640625q0.15625 -0.296875 0.375 -0.546875q0.21875 -0.25 0.53125 -0.421875l0 -0.171875l-3.6875 0zm3.46875 2.21875q0 0.484375 0.171875 0.875q0.171875 0.40625 0.46875 0.703125q0.3125 0.296875 0.75 0.46875q0.4375 0.171875 0.984375 0.171875l0.265625 0q0.53125 0 0.96875 -0.171875q0.4375 -0.171875 0.75 -0.46875q0.3125 -0.296875 0.484375 -0.703125q0.171875 -0.40625 0.171875 -0.875q0 -0.46875 -0.1875 -0.875q-0.171875 -0.390625 -0.5 -0.6875q-0.3125 -0.296875 -0.765625 -0.484375q-0.4375 -0.171875 -0.96875 -0.171875l-0.171875 0q-0.546875 0 -1.0 0.171875q-0.4375 0.1875 -0.765625 0.484375q-0.3125 0.296875 -0.484375 0.6875q-0.171875 0.40625 -0.171875 0.875zm0.328125 9.938034l0 -0.15625q-0.671875 -0.3125 -1.0 -0.890625q-0.3125 -0.5625 -0.3125 -1.1875q0 -0.65625 0.21875 -1.21875q0.21875 -0.546875 0.65625 -0.96875q0.4375 -0.421875 1.0625 -0.671875q0.625 -0.234375 1.453125 -0.234375l0.203125 0q0.8125 0 1.4375 0.234375q0.640625 0.25 1.0625 0.671875q0.4375 0.421875 0.65625 0.96875q0.234375 0.5625 0.234375 1.1875q0 0.6875 -0.296875 1.234375q-0.296875 0.5625 -0.921875 0.875l0 0.15625l1.03125 0l0 1.046875l-5.25 0q-0.40625 0 -0.40625 0.359375l0 0.328125l-0.953125 0l0 -0.703125q0 -0.453125 0.296875 -0.75q0.296875 -0.28125 0.75 -0.28125l0.078125 0zm-0.328125 -2.125q0 0.46875 0.171875 0.859375q0.171875 0.390625 0.484375 0.671875q0.328125 0.28125 0.765625 0.4375q0.453125 0.15625 1.0 0.15625l0.171875 0q0.53125 0 0.96875 -0.15625q0.453125 -0.15625 0.765625 -0.453125q0.328125 -0.28125 0.5 -0.671875q0.1875 -0.390625 0.1875 -0.84375q0 -0.46875 -0.171875 -0.859375q-0.171875 -0.390625 -0.484375 -0.671875q-0.3125 -0.28125 -0.765625 -0.453125q-0.453125 -0.15625 -0.984375 -0.15625l-0.203125 0q-1.140625 0 -1.78125 0.59375q-0.625 0.59375 -0.625 1.546875zm0.21875 10.609909l0 -0.15625q-0.3125 -0.171875 -0.546875 -0.421875q-0.21875 -0.234375 -0.375 -0.53125q-0.140625 -0.28125 -0.203125 -0.609375q-0.078125 -0.3125 -0.078125 -0.609375q0 -0.65625 0.21875 -1.234375q0.234375 -0.578125 0.65625 -1.015625q0.4375 -0.421875 1.0625 -0.671875q0.640625 -0.25 1.453125 -0.25l0.203125 0q0.8125 0 1.4375 0.25q0.640625 0.265625 1.0625 0.6875q0.4375 0.421875 0.65625 1.0q0.234375 0.578125 0.234375 1.21875q0 0.671875 -0.296875 1.265625q-0.296875 0.59375 -0.921875 0.921875l0 0.15625l3.75 0l0 1.03125l-9.328125 0l0 -1.03125l1.015625 0zm-0.21875 -2.21875q0 0.46875 0.171875 0.859375q0.171875 0.40625 0.484375 0.703125q0.328125 0.3125 0.765625 0.484375q0.453125 0.171875 1.0 0.171875l0.171875 0q0.53125 0 0.96875 -0.171875q0.453125 -0.171875 0.765625 -0.484375q0.328125 -0.296875 0.5 -0.703125q0.1875 -0.40625 0.1875 -0.859375q0 -0.46875 -0.171875 -0.875q-0.171875 -0.40625 -0.5 -0.703125q-0.3125 -0.296875 -0.765625 -0.46875q-0.4375 -0.15625 -0.96875 -0.15625l-0.203125 0q-0.5625 0 -1.0 0.15625q-0.4375 0.171875 -0.75 0.46875q-0.3125 0.296875 -0.484375 0.6875q-0.171875 0.40625 -0.171875 0.890625zm-1.4375 5.063034l0 6.21875l-0.953125 0l0 -6.21875l0.953125 0zm3.625 9.109909q-0.984375 0.03125 -1.59375 0.609375q-0.59375 0.578125 -0.59375 1.59375q0 0.46875 0.109375 0.8125q0.109375 0.359375 0.296875 0.59375q0.1875 0.25 0.421875 0.40625q0.25 0.15625 0.53125 0.25l-0.265625 0.984375q-0.921875 -0.28125 -1.5 -1.03125q-0.578125 -0.75 -0.578125 -2.03125q0 -0.703125 0.25 -1.296875q0.25 -0.59375 0.703125 -1.03125q0.453125 -0.421875 1.078125 -0.671875q0.625 -0.234375 1.375 -0.234375l0.328125 0q0.6875 0 1.28125 0.25q0.609375 0.25 1.03125 0.6875q0.4375 0.4375 0.6875 1.03125q0.25 0.59375 0.25 1.28125q0 0.8125 -0.296875 1.40625q-0.296875 0.59375 -0.75 0.96875q-0.4375 0.390625 -0.953125 0.5625q-0.515625 0.1875 -0.953125 0.1875l-0.859375 0l0 -5.328125zm2.828125 2.203125q0 -0.4375 -0.140625 -0.8125q-0.140625 -0.375 -0.390625 -0.671875q-0.25 -0.28125 -0.59375 -0.46875q-0.34375 -0.171875 -0.75 -0.21875l0 4.25q0.4375 -0.015625 0.78125 -0.203125q0.34375 -0.171875 0.578125 -0.46875q0.25 -0.28125 0.375 -0.65625q0.140625 -0.359375 0.140625 -0.75zm-6.453125 5.000534l0 6.21875l-0.953125 0l0 -6.21875l0.953125 0zm1.59375 8.344284l0 2.40625l7.421875 0l0 -2.328125l0.953125 0l0 3.359375l-8.375 0l0 2.40625l-0.953125 0l0 -5.84375l0.953125 0zm2.265625 14.391159q-0.8125 0 -1.453125 -0.28125q-0.625 -0.265625 -1.0625 -0.71875q-0.4375 -0.453125 -0.671875 -1.0625q-0.21875 -0.59375 -0.21875 -1.25q0 -0.671875 0.21875 -1.265625q0.234375 -0.59375 0.671875 -1.046875q0.4375 -0.453125 1.0625 -0.734375q0.640625 -0.265625 1.453125 -0.265625l0.171875 0q0.8125 0 1.4375 0.265625q0.640625 0.28125 1.078125 0.734375q0.4375 0.453125 0.65625 1.046875q0.234375 0.609375 0.234375 1.265625q0 0.65625 -0.234375 1.25q-0.21875 0.609375 -0.65625 1.0625q-0.4375 0.453125 -1.078125 0.71875q-0.625 0.28125 -1.4375 0.28125l-0.171875 0zm-2.421875 -3.3125q0 0.484375 0.171875 0.890625q0.171875 0.40625 0.484375 0.703125q0.3125 0.3125 0.765625 0.484375q0.453125 0.171875 1.0 0.171875l0.171875 0q0.53125 0 0.96875 -0.171875q0.453125 -0.171875 0.765625 -0.484375q0.328125 -0.296875 0.5 -0.71875q0.1875 -0.40625 0.1875 -0.875q0 -0.46875 -0.1875 -0.890625q-0.171875 -0.40625 -0.5 -0.71875q-0.3125 -0.296875 -0.765625 -0.46875q-0.4375 -0.171875 -0.96875 -0.171875l-0.171875 0q-0.546875 0 -1.0 0.171875q-0.453125 0.171875 -0.765625 0.46875q-0.3125 0.3125 -0.484375 0.71875q-0.171875 0.40625 -0.171875 0.890625zm1.546875 11.422409q-0.546875 -0.109375 -1.015625 -0.375q-0.46875 -0.25 -0.8125 -0.65625q-0.328125 -0.390625 -0.515625 -0.9375q-0.1875 -0.53125 -0.1875 -1.171875q0 -0.703125 0.21875 -1.328125q0.234375 -0.609375 0.671875 -1.078125q0.4375 -0.46875 1.0625 -0.75q0.625 -0.265625 1.4375 -0.265625l0.15625 0q0.796875 0 1.4375 0.265625q0.640625 0.28125 1.078125 0.75q0.4375 0.46875 0.671875 1.078125q0.25 0.625 0.25 1.328125q0 0.625 -0.1875 1.15625q-0.1875 0.53125 -0.53125 0.9375q-0.328125 0.40625 -0.796875 0.65625q-0.46875 0.265625 -1.015625 0.359375l-0.234375 -1.03125q0.34375 -0.046875 0.671875 -0.203125q0.328125 -0.140625 0.5625 -0.40625q0.25 -0.265625 0.390625 -0.640625q0.15625 -0.359375 0.15625 -0.859375q0 -0.484375 -0.1875 -0.90625q-0.171875 -0.40625 -0.5 -0.734375q-0.328125 -0.3125 -0.78125 -0.5q-0.453125 -0.171875 -0.984375 -0.171875l-0.15625 0q-0.5625 0 -1.015625 0.171875q-0.4375 0.1875 -0.75 0.5q-0.296875 0.328125 -0.46875 0.75q-0.171875 0.421875 -0.171875 0.921875q0 0.484375 0.15625 0.84375q0.15625 0.375 0.390625 0.625q0.25 0.265625 0.5625 0.421875q0.328125 0.15625 0.671875 0.203125l-0.234375 1.046875z" fill-rule="nonzero"/><path fill="#000000" fill-opacity="0.0" d="m257.56955 62.322834l114.92914 0" fill-rule="evenodd"/><path stroke="#000000" stroke-width="3.0" stroke-linejoin="round" stroke-linecap="butt" d="m257.56955 62.322834l96.92914 0" fill-rule="evenodd"/><path fill="#000000" stroke="#000000" stroke-width="3.0" stroke-linecap="butt" d="m354.4987 67.27803l13.614288 -4.9551964l-13.614288 -4.9551964z" fill-rule="evenodd"/><path fill="#000000" fill-opacity="0.0" d="m251.51181 30.763979l120.97638 0l0 31.559053l-120.97638 0z" fill-rule="evenodd"/><path fill="#000000" d="m273.16922 52.794907l-1.03125 0l0 -9.28125l1.03125 0l0 1.03125l0.171875 0q0.34375 -0.59375 0.953125 -0.90625q0.609375 -0.3125 1.328125 -0.3125q0.625 0 1.171875 0.234375q0.546875 0.21875 0.953125 0.65625q0.421875 0.421875 0.671875 1.046875q0.25 0.625 0.25 1.421875l0 0.265625q0 0.8125 -0.25 1.4375q-0.234375 0.625 -0.65625 1.0625q-0.421875 0.421875 -0.984375 0.640625q-0.546875 0.21875 -1.171875 0.21875q-0.328125 0 -0.65625 -0.078125q-0.328125 -0.0625 -0.640625 -0.21875q-0.296875 -0.15625 -0.546875 -0.375q-0.25 -0.21875 -0.421875 -0.53125l-0.171875 0l0 3.6875zm2.21875 -3.46875q0.484375 0 0.875 -0.171875q0.40625 -0.171875 0.703125 -0.46875q0.296875 -0.3125 0.46875 -0.75q0.171875 -0.4375 0.171875 -0.984375l0 -0.265625q0 -0.53125 -0.171875 -0.96875q-0.171875 -0.4375 -0.46875 -0.75q-0.296875 -0.3125 -0.703125 -0.484375q-0.40625 -0.171875 -0.875 -0.171875q-0.46875 0 -0.875 0.1875q-0.390625 0.171875 -0.6875 0.5q-0.296875 0.3125 -0.484375 0.765625q-0.171875 0.4375 -0.171875 0.96875l0 0.171875q0 0.546875 0.171875 1.0q0.1875 0.4375 0.484375 0.765625q0.296875 0.3125 0.6875 0.484375q0.40625 0.171875 0.875 0.171875zm9.938019 -0.328125l-0.15625 0q-0.3125 0.671875 -0.890625 1.0q-0.5625 0.3125 -1.1875 0.3125q-0.65625 0 -1.21875 -0.21875q-0.546875 -0.21875 -0.96875 -0.65625q-0.421875 -0.4375 -0.671875 -1.0625q-0.234375 -0.625 -0.234375 -1.453125l0 -0.203125q0 -0.8125 0.234375 -1.4375q0.25 -0.640625 0.671875 -1.0625q0.421875 -0.4375 0.96875 -0.65625q0.5625 -0.234375 1.1875 -0.234375q0.6875 0 1.234375 0.296875q0.5625 0.296875 0.875 0.921875l0.15625 0l0 -1.03125l1.046875 0l0 5.25q0 0.40625 0.359375 0.40625l0.328125 0l0 0.953125l-0.703125 0q-0.453125 0 -0.75 -0.296875q-0.28125 -0.296875 -0.28125 -0.75l0 -0.078125zm-2.125 0.328125q0.46875 0 0.859375 -0.171875q0.390625 -0.171875 0.671875 -0.484375q0.28125 -0.328125 0.4375 -0.765625q0.15625 -0.453125 0.15625 -1.0l0 -0.171875q0 -0.53125 -0.15625 -0.96875q-0.15625 -0.453125 -0.453125 -0.765625q-0.28125 -0.328125 -0.671875 -0.5q-0.390625 -0.1875 -0.84375 -0.1875q-0.46875 0 -0.859375 0.171875q-0.390625 0.171875 -0.671875 0.484375q-0.28125 0.3125 -0.453125 0.765625q-0.15625 0.453125 -0.15625 0.984375l0 0.203125q0 1.140625 0.59375 1.78125q0.59375 0.625 1.546875 0.625zm10.609924 -0.21875l-0.15625 0q-0.171875 0.3125 -0.421875 0.546875q-0.234375 0.21875 -0.53125 0.375q-0.28125 0.140625 -0.609375 0.203125q-0.3125 0.078125 -0.609375 0.078125q-0.65625 0 -1.234375 -0.21875q-0.578125 -0.234375 -1.015625 -0.65625q-0.421875 -0.4375 -0.671875 -1.0625q-0.25 -0.640625 -0.25 -1.453125l0 -0.203125q0 -0.8125 0.25 -1.4375q0.265625 -0.640625 0.6875 -1.0625q0.421875 -0.4375 1.0 -0.65625q0.578125 -0.234375 1.21875 -0.234375q0.671875 0 1.265625 0.296875q0.59375 0.296875 0.921875 0.921875l0.15625 0l0 -3.75l1.03125 0l0 9.328125l-1.03125 0l0 -1.015625zm-2.21875 0.21875q0.46875 0 0.859375 -0.171875q0.40625 -0.171875 0.703125 -0.484375q0.3125 -0.328125 0.484375 -0.765625q0.171875 -0.453125 0.171875 -1.0l0 -0.171875q0 -0.53125 -0.171875 -0.96875q-0.171875 -0.453125 -0.484375 -0.765625q-0.296875 -0.328125 -0.703125 -0.5q-0.40625 -0.1875 -0.859375 -0.1875q-0.46875 0 -0.875 0.171875q-0.40625 0.171875 -0.703125 0.5q-0.296875 0.3125 -0.46875 0.765625q-0.15625 0.4375 -0.15625 0.96875l0 0.203125q0 0.5625 0.15625 1.0q0.171875 0.4375 0.46875 0.75q0.296875 0.3125 0.6875 0.484375q0.40625 0.171875 0.890625 0.171875zm10.375519 -0.21875l-0.15625 0q-0.171875 0.3125 -0.421875 0.546875q-0.234375 0.21875 -0.53125 0.375q-0.28125 0.140625 -0.609375 0.203125q-0.3125 0.078125 -0.609375 0.078125q-0.65625 0 -1.234375 -0.21875q-0.578125 -0.234375 -1.015625 -0.65625q-0.421875 -0.4375 -0.671875 -1.0625q-0.25 -0.640625 -0.25 -1.453125l0 -0.203125q0 -0.8125 0.25 -1.4375q0.265625 -0.640625 0.6875 -1.0625q0.421875 -0.4375 1.0 -0.65625q0.578125 -0.234375 1.21875 -0.234375q0.671875 0 1.265625 0.296875q0.59375 0.296875 0.921875 0.921875l0.15625 0l0 -3.75l1.03125 0l0 9.328125l-1.03125 0l0 -1.015625zm-2.21875 0.21875q0.46875 0 0.859375 -0.171875q0.40625 -0.171875 0.703125 -0.484375q0.3125 -0.328125 0.484375 -0.765625q0.171875 -0.453125 0.171875 -1.0l0 -0.171875q0 -0.53125 -0.171875 -0.96875q-0.171875 -0.453125 -0.484375 -0.765625q-0.296875 -0.328125 -0.703125 -0.5q-0.40625 -0.1875 -0.859375 -0.1875q-0.46875 0 -0.875 0.171875q-0.40625 0.171875 -0.703125 0.5q-0.296875 0.3125 -0.46875 0.765625q-0.15625 0.4375 -0.15625 0.96875l0 0.203125q0 0.5625 0.15625 1.0q0.171875 0.4375 0.46875 0.75q0.296875 0.3125 0.6875 0.484375q0.40625 0.171875 0.890625 0.171875zm6.0161743 -2.1875q0.03125 0.984375 0.609375 1.59375q0.578125 0.59375 1.59375 0.59375q0.46875 0 0.8125 -0.109375q0.359375 -0.109375 0.59375 -0.296875q0.25 -0.1875 0.40625 -0.421875q0.15625 -0.25 0.25 -0.53125l0.984375 0.265625q-0.28125 0.921875 -1.03125 1.5q-0.75 0.578125 -2.03125 0.578125q-0.703125 0 -1.296875 -0.25q-0.59375 -0.25 -1.03125 -0.703125q-0.421875 -0.453125 -0.671875 -1.078125q-0.234375 -0.625 -0.234375 -1.375l0 -0.328125q0 -0.6875 0.25 -1.28125q0.25 -0.609375 0.6875 -1.03125q0.4375 -0.4375 1.03125 -0.6875q0.59375 -0.25 1.28125 -0.25q0.8125 0 1.40625 0.296875q0.59375 0.296875 0.96875 0.75q0.390625 0.4375 0.5625 0.953125q0.1875 0.515625 0.1875 0.953125l0 0.859375l-5.328125 0zm2.203125 -2.828125q-0.4375 0 -0.8125 0.140625q-0.375 0.140625 -0.671875 0.390625q-0.28125 0.25 -0.46875 0.59375q-0.171875 0.34375 -0.21875 0.75l4.25 0q-0.015625 -0.4375 -0.203125 -0.78125q-0.171875 -0.34375 -0.46875 -0.578125q-0.28125 -0.25 -0.65625 -0.375q-0.359375 -0.140625 -0.75 -0.140625zm10.313019 4.796875l-0.15625 0q-0.171875 0.3125 -0.421875 0.546875q-0.234375 0.21875 -0.53125 0.375q-0.28125 0.140625 -0.609375 0.203125q-0.3125 0.078125 -0.609375 0.078125q-0.65625 0 -1.234375 -0.21875q-0.578125 -0.234375 -1.015625 -0.65625q-0.421875 -0.4375 -0.671875 -1.0625q-0.25 -0.640625 -0.25 -1.453125l0 -0.203125q0 -0.8125 0.25 -1.4375q0.265625 -0.640625 0.6875 -1.0625q0.421875 -0.4375 1.0 -0.65625q0.578125 -0.234375 1.21875 -0.234375q0.671875 0 1.265625 0.296875q0.59375 0.296875 0.921875 0.921875l0.15625 0l0 -3.75l1.03125 0l0 9.328125l-1.03125 0l0 -1.015625zm-2.21875 0.21875q0.46875 0 0.859375 -0.171875q0.40625 -0.171875 0.703125 -0.484375q0.3125 -0.328125 0.484375 -0.765625q0.171875 -0.453125 0.171875 -1.0l0 -0.171875q0 -0.53125 -0.171875 -0.96875q-0.171875 -0.453125 -0.484375 -0.765625q-0.296875 -0.328125 -0.703125 -0.5q-0.40625 -0.1875 -0.859375 -0.1875q-0.46875 0 -0.875 0.171875q-0.40625 0.171875 -0.703125 0.5q-0.296875 0.3125 -0.46875 0.765625q-0.15625 0.4375 -0.15625 0.96875l0 0.203125q0 0.5625 0.15625 1.0q0.171875 0.4375 0.46875 0.75q0.296875 0.3125 0.6875 0.484375q0.40625 0.171875 0.890625 0.171875zm5.0630493 1.4375l6.21875 0l0 0.953125l-6.21875 0l0 -0.953125zm14.703644 -0.640625l-1.03125 0l0 -4.75q0 -0.46875 -0.21875 -0.765625q-0.21875 -0.296875 -0.6875 -0.296875q-0.4375 0 -0.71875 0.328125q-0.265625 0.328125 -0.265625 1.0l0 4.484375l-1.03125 0l0 -4.796875q0 -0.4375 -0.25 -0.71875q-0.234375 -0.296875 -0.640625 -0.296875q-0.46875 0 -0.734375 0.34375q-0.265625 0.34375 -0.265625 0.90625l0 4.5625l-1.03125 0l0 -6.609375l1.03125 0l0 0.71875l0.171875 0q0.171875 -0.46875 0.5 -0.6875q0.328125 -0.21875 0.78125 -0.21875q0.484375 0 0.796875 0.25q0.3125 0.25 0.4375 0.65625l0.15625 0q0.453125 -0.90625 1.4375 -0.90625q0.75 0 1.15625 0.484375q0.40625 0.46875 0.40625 1.21875l0 5.09375zm3.1724243 -4.90625q0 0.484375 0.40625 0.734375q0.40625 0.25 1.484375 0.328125q1.15625 0.09375 1.765625 0.5625q0.609375 0.453125 0.609375 1.328125l0 0.09375q0 0.46875 -0.203125 0.859375q-0.1875 0.375 -0.53125 0.640625q-0.328125 0.265625 -0.8125 0.40625q-0.484375 0.140625 -1.0625 0.140625q-0.78125 0 -1.328125 -0.203125q-0.546875 -0.21875 -0.921875 -0.546875q-0.359375 -0.34375 -0.546875 -0.765625q-0.1875 -0.4375 -0.21875 -0.890625l0.984375 -0.234375q0.0625 0.765625 0.578125 1.234375q0.53125 0.453125 1.390625 0.453125q0.734375 0 1.171875 -0.28125q0.453125 -0.296875 0.453125 -0.8125q0 -0.5625 -0.4375 -0.796875q-0.4375 -0.25 -1.421875 -0.3125q-1.140625 -0.078125 -1.765625 -0.53125q-0.609375 -0.453125 -0.609375 -1.328125l0 -0.078125q0 -0.46875 0.203125 -0.8125q0.203125 -0.359375 0.53125 -0.59375q0.34375 -0.25 0.765625 -0.359375q0.4375 -0.125 0.90625 -0.125q0.65625 0 1.140625 0.1875q0.5 0.171875 0.828125 0.46875q0.328125 0.28125 0.5 0.65625q0.1875 0.359375 0.25 0.734375l-0.984375 0.25q-0.078125 -0.640625 -0.53125 -1.0q-0.4375 -0.359375 -1.15625 -0.359375q-0.28125 0 -0.546875 0.0625q-0.25 0.046875 -0.453125 0.171875q-0.203125 0.125 -0.328125 0.3125q-0.109375 0.171875 -0.109375 0.40625zm11.813019 3.890625l-0.15625 0q-0.328125 0.609375 -0.890625 0.90625q-0.546875 0.296875 -1.203125 0.296875q-0.65625 0 -1.25 -0.21875q-0.578125 -0.234375 -1.03125 -0.65625q-0.4375 -0.4375 -0.703125 -1.0625q-0.265625 -0.640625 -0.265625 -1.453125l0 -0.203125q0 -0.8125 0.265625 -1.4375q0.265625 -0.640625 0.703125 -1.0625q0.453125 -0.4375 1.03125 -0.65625q0.59375 -0.234375 1.234375 -0.234375q0.71875 0 1.25 0.3125q0.546875 0.3125 0.859375 0.90625l0.15625 0l0 -1.03125l1.03125 0l0 8.234375q0 0.453125 -0.28125 0.75q-0.28125 0.296875 -0.734375 0.296875l-4.3125 0l0 -0.96875l3.9375 0q0.359375 0 0.359375 -0.390625l0 -2.328125zm-2.21875 0.21875q0.46875 0 0.859375 -0.171875q0.40625 -0.171875 0.703125 -0.484375q0.3125 -0.328125 0.484375 -0.765625q0.171875 -0.453125 0.171875 -1.0l0 -0.171875q0 -0.53125 -0.171875 -0.96875q-0.171875 -0.453125 -0.484375 -0.765625q-0.296875 -0.328125 -0.703125 -0.5q-0.40625 -0.1875 -0.859375 -0.1875q-0.46875 0 -0.875 0.171875q-0.40625 0.171875 -0.703125 0.5q-0.296875 0.3125 -0.46875 0.765625q-0.15625 0.4375 -0.15625 0.96875l0 0.203125q0 0.5625 0.15625 1.0q0.171875 0.4375 0.46875 0.75q0.296875 0.3125 0.6875 0.484375q0.40625 0.171875 0.890625 0.171875z" fill-rule="nonzero"/><path fill="#000000" fill-opacity="0.0" d="m148.82713 18.21261l0 174.23622" fill-rule="evenodd"/><path stroke="#000000" stroke-width="8.0" stroke-linejoin="round" stroke-linecap="butt" d="m148.82713 18.21261l0 174.23622" fill-rule="evenodd"/><path fill="#000000" fill-opacity="0.0" d="m220.27821 107.2841l43.401566 0" fill-rule="evenodd"/><path stroke="#000000" stroke-width="8.0" stroke-linejoin="round" stroke-linecap="butt" d="m220.27821 107.2841l43.401566 0" fill-rule="evenodd"/><path fill="#000000" fill-opacity="0.0" d="m241.979 103.546555l0 -24.755905" fill-rule="evenodd"/><path stroke="#000000" stroke-width="3.0" stroke-linejoin="round" stroke-linecap="butt" d="m241.979 103.546555l0 -24.755905" fill-rule="evenodd"/><path fill="#000000" fill-opacity="0.0" d="m296.23883 133.24936l43.40158 0" fill-rule="evenodd"/><path stroke="#000000" stroke-width="8.0" stroke-linejoin="round" stroke-linecap="butt" d="m296.23883 133.24936l43.40158 0" fill-rule="evenodd"/><path fill="#000000" fill-opacity="0.0" d="m317.93964 129.51181l0 -24.755905" fill-rule="evenodd"/><path stroke="#000000" stroke-width="3.0" stroke-linejoin="round" stroke-linecap="butt" d="m317.93964 129.51181l0 -24.755905" fill-rule="evenodd"/><path fill="#000000" fill-opacity="0.0" d="m332.5328 104.7561l120.97638 0l0 31.559052l-120.97638 0z" fill-rule="evenodd"/><path fill="#000000" d="m349.04843 124.11516l-1.03125 0l0 -4.75q0 -0.46875 -0.21875 -0.765625q-0.21875 -0.296875 -0.6875 -0.296875q-0.4375 0 -0.71875 0.328125q-0.265625 0.328125 -0.265625 1.0l0 4.484375l-1.03125 0l0 -4.796875q0 -0.4375 -0.25 -0.71875q-0.234375 -0.296875 -0.640625 -0.296875q-0.46875 0 -0.734375 0.34375q-0.265625 0.34375 -0.265625 0.90625l0 4.5625l-1.03125 0l0 -6.609375l1.03125 0l0 0.71875l0.171875 0q0.171875 -0.46875 0.5 -0.6875q0.328125 -0.21875 0.78125 -0.21875q0.484375 0 0.796875 0.25q0.3125 0.25 0.4375 0.65625l0.15625 0q0.453125 -0.90625 1.4375 -0.90625q0.75 0 1.15625 0.484375q0.40625 0.46875 0.40625 1.21875l0 5.09375zm6.5161743 -6.609375l1.046875 0l0 6.609375l-1.046875 0l0 -1.203125l-0.15625 0q-0.328125 0.640625 -0.84375 1.015625q-0.515625 0.375 -1.3125 0.375q-0.546875 0 -1.015625 -0.1875q-0.453125 -0.171875 -0.78125 -0.53125q-0.328125 -0.359375 -0.515625 -0.890625q-0.171875 -0.53125 -0.171875 -1.25l0 -3.9375l1.046875 0l0 3.8125q0 1.03125 0.421875 1.515625q0.421875 0.484375 1.3125 0.484375q0.9375 0 1.46875 -0.640625q0.546875 -0.65625 0.546875 -1.734375l0 -3.4375zm8.141144 0l1.1875 0l-1.9375 3.140625l0 0.15625l2.09375 3.3125l-1.203125 0l-1.796875 -2.90625l-0.25 0l-1.796875 2.90625l-1.203125 0l2.09375 -3.3125l0 -0.15625l-1.9375 -3.140625l1.1875 0l1.65625 2.75l0.25 0l1.65625 -2.75zm17.329193 6.609375l-1.921875 0l-0.796875 -6.125l-0.15625 0l-0.796875 6.125l-1.921875 0l-1.046875 -6.609375l1.078125 0l0.875 6.125l0.15625 0l0.78125 -6.125l1.90625 0l0.78125 6.125l0.15625 0l0.875 -6.125l1.078125 0l-1.046875 6.609375zm4.5005493 -8.578125q0 -0.390625 0.265625 -0.65625q0.28125 -0.28125 0.65625 -0.28125q0.390625 0 0.65625 0.28125q0.28125 0.265625 0.28125 0.65625q0 0.375 -0.28125 0.65625q-0.265625 0.265625 -0.65625 0.265625q-0.375 0 -0.65625 -0.265625q-0.265625 -0.28125 -0.265625 -0.65625zm-1.90625 7.625l2.328125 0l0 -4.703125l-2.078125 0l0 -0.953125l3.109375 0l0 5.65625l2.171875 0l0 0.953125l-5.53125 0l0 -0.953125zm7.781769 -5.65625l2.078125 0l0 -2.71875l1.03125 0l0 2.71875l2.5625 0l0 0.953125l-2.5625 0l0 4.296875q0 0.40625 0.359375 0.40625l1.890625 0l0 0.953125l-2.265625 0q-0.453125 0 -0.734375 -0.296875q-0.28125 -0.296875 -0.28125 -0.75l0 -4.609375l-2.078125 0l0 -0.953125zm9.422424 6.609375l-1.046875 0l0 -9.328125l1.046875 0l0 3.921875l0.15625 0q0.3125 -0.640625 0.859375 -1.015625q0.546875 -0.375 1.359375 -0.375q1.078125 0 1.75 0.71875q0.671875 0.703125 0.671875 2.140625l0 3.9375l-1.046875 0l0 -3.734375q0 -1.03125 -0.46875 -1.546875q-0.453125 -0.53125 -1.265625 -0.53125q-0.9375 0 -1.484375 0.65625q-0.53125 0.640625 -0.53125 1.71875l0 3.4375zm14.907318 -5.703125q0 -1.8125 0.859375 -2.8125q0.875 -1.0 2.421875 -1.0q1.546875 0 2.40625 1.0q0.875 1.0 0.875 2.8125l0 2.078125q0 1.859375 -0.875 2.84375q-0.859375 0.96875 -2.40625 0.96875q-1.546875 0 -2.421875 -0.96875q-0.859375 -0.984375 -0.859375 -2.84375l0 -2.078125zm3.28125 4.875q1.078125 0 1.609375 -0.75q0.546875 -0.75 0.546875 -2.125l0 -1.921875q0 -0.640625 -0.140625 -1.15625q-0.125 -0.53125 -0.40625 -0.90625q-0.265625 -0.390625 -0.671875 -0.59375q-0.40625 -0.21875 -0.9375 -0.21875q-0.546875 0 -0.953125 0.21875q-0.390625 0.203125 -0.671875 0.59375q-0.265625 0.375 -0.40625 0.90625q-0.125 0.515625 -0.125 1.15625l0 1.921875q0 1.375 0.53125 2.125q0.546875 0.75 1.625 0.75zm-0.859375 -3.84375q0 -0.34375 0.25 -0.59375q0.265625 -0.25 0.609375 -0.25q0.34375 0 0.59375 0.25q0.265625 0.25 0.265625 0.59375q0 0.359375 -0.265625 0.609375q-0.25 0.25 -0.59375 0.25q-0.34375 0 -0.609375 -0.25q-0.25 -0.25 -0.25 -0.609375z" fill-rule="nonzero"/><path fill="#000000" fill-opacity="0.0" d="m304.0475 136.31496l0 25.385834" fill-rule="evenodd"/><path stroke="#000000" stroke-width="3.0" stroke-linejoin="round" stroke-linecap="butt" d="m304.0475 146.59622l0 15.1045685" fill-rule="evenodd"/><path fill="#000000" stroke="#000000" stroke-width="3.0" stroke-linecap="butt" d="m304.0475 146.59622l3.3737488 3.3737488l-3.3737488 -9.269302l-3.3737488 9.269302z" fill-rule="evenodd"/><path fill="#ffffff" d="m310.50656 188.35468l0 0c4.1051636 -4.105179 10.760956 -4.105179 14.86615 0l0 0c1.9713745 1.9713745 3.0788574 4.6451263 3.0788574 7.4330597c0 2.7879486 -1.1074829 5.4617004 -3.0788574 7.433075l0 0c-4.105194 4.105179 -10.760986 4.105179 -14.86615 0l0 0c-4.1051636 -4.1051636 -4.1051636 -10.760971 0 -14.866135z" fill-rule="evenodd"/><path fill="#000000" fill-opacity="0.0" d="m317.93964 185.27579l0 21.02391m10.511932 -10.511963l-21.023895 0" fill-rule="evenodd"/><path fill="#000000" fill-opacity="0.0" d="m310.50656 188.35468l0 0c4.1051636 -4.105179 10.760956 -4.105179 14.86615 0l0 0c1.9713745 1.9713745 3.0788574 4.6451263 3.0788574 7.4330597c0 2.7879486 -1.1074829 5.4617004 -3.0788574 7.433075l0 0c-4.105194 4.105179 -10.760986 4.105179 -14.86615 0l0 0c-4.1051636 -4.1051636 -4.1051636 -10.760971 0 -14.866135z" fill-rule="evenodd"/><path stroke="#000000" stroke-width="3.0" stroke-linejoin="round" stroke-linecap="butt" d="m317.93964 185.27579l0 21.02391m10.511932 -10.511963l-21.023895 0" fill-rule="evenodd"/><path stroke="#000000" stroke-width="3.0" stroke-linejoin="round" stroke-linecap="butt" d="m310.50656 188.35468l0 0c4.1051636 -4.105179 10.760956 -4.105179 14.86615 0l0 0c1.9713745 1.9713745 3.0788574 4.6451263 3.0788574 7.4330597c0 2.7879486 -1.1074829 5.4617004 -3.0788574 7.433075l0 0c-4.105194 4.105179 -10.760986 4.105179 -14.86615 0l0 0c-4.1051636 -4.1051636 -4.1051636 -10.760971 0 -14.866135z" fill-rule="evenodd"/><path fill="#000000" fill-opacity="0.0" d="m339.6404 180.00807l120.97638 0l0 31.559052l-120.97638 0z" fill-rule="evenodd"/><path fill="#000000" d="m349.4373 193.664q0 -1.8125 0.859375 -2.8125q0.875 -1.0 2.421875 -1.0q1.546875 0 2.40625 1.0q0.875 1.0 0.875 2.8125l0 2.078125q0 1.859375 -0.875 2.84375q-0.859375 0.96875 -2.40625 0.96875q-1.546875 0 -2.421875 -0.96875q-0.859375 -0.984375 -0.859375 -2.84375l0 -2.078125zm3.28125 4.84375q1.078125 0 1.609375 -0.734375q0.546875 -0.734375 0.546875 -2.109375l0 -1.921875q0 -1.28125 -0.546875 -2.0625q-0.53125 -0.796875 -1.609375 -0.796875q-1.078125 0 -1.625 0.796875q-0.53125 0.78125 -0.53125 2.0625l0 1.921875q0 1.375 0.53125 2.109375q0.546875 0.734375 1.625 0.734375zm11.078674 0.859375l-1.125 0l0 -3.125q0 -0.34375 -0.15625 -0.53125q-0.15625 -0.1875 -0.5625 -0.1875l-2.90625 0l0 3.84375l-1.109375 0l0 -9.328125l3.328125 0q0.71875 0 1.25 0.203125q0.53125 0.203125 0.875 0.5625q0.359375 0.34375 0.53125 0.8125q0.1875 0.453125 0.1875 0.953125l0 0.40625q0 0.515625 -0.28125 1.03125q-0.28125 0.515625 -0.890625 0.796875l0 0.171875q0.40625 0.0625 0.625 0.3125q0.234375 0.25 0.234375 0.71875l0 3.359375zm-4.75 -4.875l2.078125 0q0.953125 0 1.40625 -0.40625q0.46875 -0.40625 0.46875 -1.203125l0 -0.234375q0 -0.703125 -0.46875 -1.140625q-0.453125 -0.4375 -1.40625 -0.4375l-2.078125 0l0 3.421875z" fill-rule="nonzero"/><path fill="#000000" fill-opacity="0.0" d="m145.47252 81.28871l-102.55118 0" fill-rule="evenodd"/><path stroke="#000000" stroke-width="3.0" stroke-linejoin="round" stroke-linecap="butt" d="m145.47252 81.28871l-102.55118 0" fill-rule="evenodd"/><path fill="#000000" fill-opacity="0.0" d="m1.9606299 75.72179l146.86613 0l0 29.732285l-146.86613 0z" fill-rule="evenodd"/><path fill="#000000" d="m64.16518 97.03741l0.15625 0l0 -8.84375l1.125 0l0 9.328125l-2.2500038 0l-2.6875 -8.84375l-0.15625 0l0 8.84375l-1.125 0l0 -9.328125l2.25 0l2.6875038 8.84375zm3.547409 -4.65625l2.296875 0l0 -2.3125l0.96875 0l0 2.3125l2.296875 0l0 0.953125l-2.296875 0l0 2.3125l-0.96875 0l0 -2.3125l-2.296875 0l0 -0.953125zm13.141159 -1.5q0 -0.453125 -0.1875 -0.796875q-0.171875 -0.34375 -0.484375 -0.5625q-0.3125 -0.234375 -0.71875 -0.359375q-0.390625 -0.125 -0.828125 -0.125q-0.390625 0 -0.734375 0.109375q-0.34375 0.09375 -0.625 0.28125q-0.265625 0.1875 -0.421875 0.46875q-0.15625 0.265625 -0.15625 0.625l0 0.078125q0 0.390625 0.15625 0.671875q0.15625 0.265625 0.46875 0.46875q0.3125 0.1875 0.78125 0.3125q0.46875 0.125 1.09375 0.21875q1.46875 0.21875 2.15625 0.859375q0.703125 0.625 0.703125 1.703125l0 0.15625q0 0.59375 -0.21875 1.09375q-0.203125 0.5 -0.609375 0.859375q-0.40625 0.359375 -1.015625 0.5625q-0.59375 0.203125 -1.375 0.203125q-0.890625 0 -1.578125 -0.25q-0.6875 -0.265625 -1.15625 -0.71875q-0.453125 -0.46875 -0.703125 -1.09375q-0.234375 -0.625 -0.234375 -1.34375l0 -0.40625l1.125 0l0 0.3125q0 1.234375 0.671875 1.84375q0.671875 0.609375 1.875 0.609375q1.03125 0 1.5625 -0.453125q0.53125 -0.453125 0.53125 -1.21875l0 -0.078125q0 -0.734375 -0.546875 -1.125q-0.53125 -0.390625 -1.75 -0.5625q-0.703125 -0.09375 -1.28125 -0.28125q-0.5625 -0.1875 -0.96875 -0.5q-0.390625 -0.3125 -0.609375 -0.75q-0.203125 -0.453125 -0.203125 -1.046875l0 -0.15625q0 -0.546875 0.21875 -1.0q0.234375 -0.453125 0.640625 -0.78125q0.40625 -0.34375 0.96875 -0.515625q0.578125 -0.1875 1.25 -0.1875q0.78125 0 1.40625 0.234375q0.625 0.21875 1.046875 0.609375q0.421875 0.375 0.640625 0.890625q0.21875 0.5 0.21875 1.0625l0 0.5625l-1.109375 0l0 -0.484375zm5.391159 -3.734375q0 -0.453125 0.28125 -0.734375q0.296875 -0.296875 0.75 -0.296875l1.296875 0l0 0.953125l-0.921875 0q-0.359375 0 -0.359375 0.40625l0 10.765625q0 0.40625 0.359375 0.40625l0.921875 0l0 0.953125l-1.296875 0q-0.453125 0 -0.75 -0.296875q-0.28125 -0.28125 -0.28125 -0.734375l0 -11.421875zm7.859909 1.796875q0 -0.390625 0.265625 -0.65625q0.28125 -0.28125 0.65625 -0.28125q0.390625 0 0.65625 0.28125q0.28125 0.265625 0.28125 0.65625q0 0.375 -0.28125 0.65625q-0.265625 0.265625 -0.65625 0.265625q-0.375 0 -0.65625 -0.265625q-0.265625 -0.28125 -0.265625 -0.65625zm-1.90625 7.625l2.328125 0l0 -4.703125l-2.078125 0l0 -0.953125l3.109375 0l0 5.65625l2.171875 0l0 0.953125l-5.53125 0l0 -0.953125zm8.141159 -4.1875l2.296875 0l0 -2.3125l0.96875 0l0 2.3125l2.296875 0l0 0.953125l-2.296875 0l0 2.3125l-0.96875 0l0 -2.3125l-2.296875 0l0 -0.953125zm10.000534 4.390625q0 -0.390625 0.265625 -0.65625q0.28125 -0.265625 0.671875 -0.265625q0.390625 0 0.65625 0.265625q0.28125 0.265625 0.28125 0.65625q0 0.390625 -0.28125 0.671875q-0.265625 0.265625 -0.65625 0.265625q-0.390625 0 -0.671875 -0.265625q-0.265625 -0.28125 -0.265625 -0.671875zm0 -5.109375q0 -0.390625 0.265625 -0.65625q0.28125 -0.28125 0.671875 -0.28125q0.390625 0 0.65625 0.28125q0.28125 0.265625 0.28125 0.65625q0 0.375 -0.28125 0.65625q-0.265625 0.265625 -0.65625 0.265625q-0.390625 0 -0.671875 -0.265625q-0.265625 -0.28125 -0.265625 -0.65625zm11.047409 -0.75q0 -0.875 -0.53125 -1.390625q-0.53125 -0.53125 -1.46875 -0.53125q-0.453125 0 -0.84375 0.171875q-0.375 0.15625 -0.65625 0.453125q-0.265625 0.296875 -0.421875 0.71875q-0.15625 0.40625 -0.15625 0.890625l0 1.390625l0.171875 0q0.3125 -0.578125 0.90625 -0.90625q0.59375 -0.34375 1.328125 -0.34375q0.640625 0 1.1875 0.203125q0.546875 0.203125 0.9375 0.609375q0.390625 0.40625 0.609375 0.96875q0.21875 0.5625 0.21875 1.28125l0 0.15625q0 0.703125 -0.25 1.28125q-0.234375 0.5625 -0.671875 0.984375q-0.4375 0.40625 -1.03125 0.640625q-0.59375 0.21875 -1.28125 0.21875q-0.6875 0 -1.28125 -0.21875q-0.59375 -0.234375 -1.03125 -0.640625q-0.4375 -0.40625 -0.6875 -0.96875q-0.234375 -0.578125 -0.234375 -1.25l0 -3.40625q0 -0.734375 0.25 -1.328125q0.25 -0.59375 0.6875 -1.015625q0.4375 -0.421875 1.015625 -0.640625q0.59375 -0.234375 1.25 -0.234375q0.671875 0 1.234375 0.203125q0.578125 0.203125 0.984375 0.578125q0.421875 0.375 0.65625 0.921875q0.234375 0.53125 0.234375 1.203125l-1.125 0zm-1.953125 5.8125q0.484375 0 0.875 -0.15625q0.390625 -0.15625 0.671875 -0.4375q0.28125 -0.28125 0.421875 -0.65625q0.15625 -0.390625 0.15625 -0.859375l0 -0.15625q0 -0.46875 -0.171875 -0.859375q-0.15625 -0.390625 -0.4375 -0.65625q-0.28125 -0.28125 -0.671875 -0.4375q-0.390625 -0.15625 -0.84375 -0.15625q-0.453125 0 -0.84375 0.171875q-0.375 0.15625 -0.671875 0.4375q-0.28125 0.265625 -0.453125 0.640625q-0.15625 0.375 -0.15625 0.796875l0 0.265625q0 0.4375 0.140625 0.8125q0.15625 0.375 0.4375 0.65625q0.28125 0.28125 0.671875 0.4375q0.390625 0.15625 0.875 0.15625zm8.000534 -8.53125l2.171875 0l0 6.53125l1.4375 0l0 1.03125l-1.4375 0l0 1.765625l-1.125 0l0 -1.765625l-4.3125 0l0 -1.546875l3.265625 -6.015625zm-2.3125 6.375l0 0.15625l3.359375 0l0 -6.046875l-0.15625 0l-3.203125 5.890625zm11.188034 4.0q0 0.453125 -0.296875 0.734375q-0.28125 0.296875 -0.734375 0.296875l-1.296875 0l0 -0.953125l0.921875 0q0.359375 0 0.359375 -0.40625l0 -10.765625q0 -0.40625 -0.359375 -0.40625l-0.921875 0l0 -0.953125l1.296875 0q0.453125 0 0.734375 0.296875q0.296875 0.28125 0.296875 0.734375l0 11.421875z" fill-rule="nonzero"/><path fill="#000000" fill-opacity="0.0" d="m145.47252 107.83465l-102.55118 0" fill-rule="evenodd"/><path stroke="#000000" stroke-width="3.0" stroke-linejoin="round" stroke-linecap="butt" d="m145.47252 107.83465l-102.55118 0" fill-rule="evenodd"/><path fill="#000000" fill-opacity="0.0" d="m1.9606299 102.267715l146.86613 0l0 29.732285l-146.86613 0z" fill-rule="evenodd"/><path fill="#000000" d="m116.15329 118.36459q0 -1.8125 0.859375 -2.8125q0.875 -1.0 2.421875 -1.0q1.546875 0 2.40625 1.0q0.875 1.0 0.875 2.8125l0 2.078125q0 1.859375 -0.875 2.84375q-0.859375 0.96875 -2.40625 0.96875q-1.546875 0 -2.421875 -0.96875q-0.859375 -0.984375 -0.859375 -2.84375l0 -2.078125zm3.28125 4.875q1.078125 0 1.609375 -0.75q0.546875 -0.75 0.546875 -2.125l0 -1.921875q0 -0.640625 -0.140625 -1.15625q-0.125 -0.53125 -0.40625 -0.90625q-0.265625 -0.390625 -0.671875 -0.59375q-0.40625 -0.21875 -0.9375 -0.21875q-0.546875 0 -0.953125 0.21875q-0.390625 0.203125 -0.671875 0.59375q-0.265625 0.375 -0.40625 0.90625q-0.125 0.515625 -0.125 1.15625l0 1.921875q0 1.375 0.53125 2.125q0.546875 0.75 1.625 0.75zm-0.859375 -3.84375q0 -0.34375 0.25 -0.59375q0.265625 -0.25 0.609375 -0.25q0.34375 0 0.59375 0.25q0.265625 0.25 0.265625 0.59375q0 0.359375 -0.265625 0.609375q-0.25 0.25 -0.59375 0.25q-0.34375 0 -0.609375 -0.25q-0.25 -0.25 -0.25 -0.609375zm8.516159 3.625l0 -7.796875l-0.15625 0l-1.53125 3.515625l-1.109375 0l0 -0.078125l1.75 -3.921875l2.171875 0l0 8.28125l2.640625 0l0 1.046875l-6.390625 0l0 -1.046875l2.625 0zm8.156784 0l0 -7.796875l-0.15625 0l-1.53125 3.515625l-1.109375 0l0 -0.078125l1.75 -3.921875l2.171875 0l0 8.28125l2.640625 0l0 1.046875l-6.390625 0l0 -1.046875l2.625 0z" fill-rule="nonzero"/><path fill="#000000" fill-opacity="0.0" d="m145.47252 134.86613l-102.55118 0" fill-rule="evenodd"/><path stroke="#000000" stroke-width="3.0" stroke-linejoin="round" stroke-linecap="butt" d="m145.47252 134.86613l-102.55118 0" fill-rule="evenodd"/><path fill="#000000" fill-opacity="0.0" d="m1.9606299 129.29921l146.86613 0l0 29.732285l-146.86613 0z" fill-rule="evenodd"/><path fill="#000000" d="m102.62097 150.05234l0 -7.796875l-0.15625 0l-1.53125 3.515625l-1.109375 0l0 -0.078125l1.75 -3.921875l2.171875 0l0 8.28125l2.640625 0l0 1.046875l-6.390625 0l0 -1.046875l2.625 0zm8.156784 0l0 -7.796875l-0.15625 0l-1.53125 3.515625l-1.109375 0l0 -0.078125l1.75 -3.921875l2.171875 0l0 8.28125l2.640625 0l0 1.046875l-6.390625 0l0 -1.046875l2.625 0zm8.156784 0l0 -7.796875l-0.15625 0l-1.53125 3.515625l-1.109375 0l0 -0.078125l1.75 -3.921875l2.171875 0l0 8.28125l2.640625 0l0 1.046875l-6.390625 0l0 -1.046875l2.625 0zm8.156784 0l0 -7.796875l-0.15625 0l-1.53125 3.515625l-1.109375 0l0 -0.078125l1.75 -3.921875l2.171875 0l0 8.28125l2.640625 0l0 1.046875l-6.390625 0l0 -1.046875l2.625 0zm8.156784 0l0 -7.796875l-0.15625 0l-1.53125 3.515625l-1.109375 0l0 -0.078125l1.75 -3.921875l2.171875 0l0 8.28125l2.640625 0l0 1.046875l-6.390625 0l0 -1.046875l2.625 0z" fill-rule="nonzero"/><path fill="#000000" fill-opacity="0.0" d="m145.47252 158.54593l-102.55118 0" fill-rule="evenodd"/><path stroke="#000000" stroke-width="3.0" stroke-linejoin="round" stroke-linecap="butt" d="m145.47252 158.54593l-102.55118 0" fill-rule="evenodd"/><path fill="#000000" fill-opacity="0.0" d="m1.9606299 152.979l146.86613 0l0 29.732285l-146.86613 0z" fill-rule="evenodd"/><path fill="#000000" d="m116.15329 169.07588q0 -1.8125 0.859375 -2.8125q0.875 -1.0 2.421875 -1.0q1.546875 0 2.40625 1.0q0.875 1.0 0.875 2.8125l0 2.078125q0 1.859375 -0.875 2.84375q-0.859375 0.96875 -2.40625 0.96875q-1.546875 0 -2.421875 -0.96875q-0.859375 -0.984375 -0.859375 -2.84375l0 -2.078125zm3.28125 4.875q1.078125 0 1.609375 -0.75q0.546875 -0.75 0.546875 -2.125l0 -1.921875q0 -0.640625 -0.140625 -1.15625q-0.125 -0.53125 -0.40625 -0.90625q-0.265625 -0.390625 -0.671875 -0.59375q-0.40625 -0.21875 -0.9375 -0.21875q-0.546875 0 -0.953125 0.21875q-0.390625 0.203125 -0.671875 0.59375q-0.265625 0.375 -0.40625 0.90625q-0.125 0.515625 -0.125 1.15625l0 1.921875q0 1.375 0.53125 2.125q0.546875 0.75 1.625 0.75zm-0.859375 -3.84375q0 -0.34375 0.25 -0.59375q0.265625 -0.25 0.609375 -0.25q0.34375 0 0.59375 0.25q0.265625 0.25 0.265625 0.59375q0 0.359375 -0.265625 0.609375q-0.25 0.25 -0.59375 0.25q-0.34375 0 -0.609375 -0.25q-0.25 -0.25 -0.25 -0.609375zm5.734909 -1.03125q0 -1.8125 0.859375 -2.8125q0.875 -1.0 2.421875 -1.0q1.546875 0 2.40625 1.0q0.875 1.0 0.875 2.8125l0 2.078125q0 1.859375 -0.875 2.84375q-0.859375 0.96875 -2.40625 0.96875q-1.546875 0 -2.421875 -0.96875q-0.859375 -0.984375 -0.859375 -2.84375l0 -2.078125zm3.28125 4.875q1.078125 0 1.609375 -0.75q0.546875 -0.75 0.546875 -2.125l0 -1.921875q0 -0.640625 -0.140625 -1.15625q-0.125 -0.53125 -0.40625 -0.90625q-0.265625 -0.390625 -0.671875 -0.59375q-0.40625 -0.21875 -0.9375 -0.21875q-0.546875 0 -0.953125 0.21875q-0.390625 0.203125 -0.671875 0.59375q-0.265625 0.375 -0.40625 0.90625q-0.125 0.515625 -0.125 1.15625l0 1.921875q0 1.375 0.53125 2.125q0.546875 0.75 1.625 0.75zm-0.859375 -3.84375q0 -0.34375 0.25 -0.59375q0.265625 -0.25 0.609375 -0.25q0.34375 0 0.59375 0.25q0.265625 0.25 0.265625 0.59375q0 0.359375 -0.265625 0.609375q-0.25 0.25 -0.59375 0.25q-0.34375 0 -0.609375 -0.25q-0.25 -0.25 -0.25 -0.609375zm8.516159 3.625l0 -7.796875l-0.15625 0l-1.53125 3.515625l-1.109375 0l0 -0.078125l1.75 -3.921875l2.171875 0l0 8.28125l2.640625 0l0 1.046875l-6.390625 0l0 -1.046875l2.625 0z" fill-rule="nonzero"/></g></svg>