<?xml version="1.0" encoding="UTF-8" standalone="no"?>
<svg
   version="1.1"
   viewBox="0.0 0.0 620 300"
   fill="none"
   stroke="none"
   stroke-linecap="square"
   stroke-miterlimit="10"
   id="svg109"
   sodipodi:docname="otbn_operational_states.svg"
   inkscape:version="1.1.1 (3bf5ae0d25, 2021-09-20, custom)"
   xmlns:inkscape="http://www.inkscape.org/namespaces/inkscape"
   xmlns:sodipodi="http://sodipodi.sourceforge.net/DTD/sodipodi-0.dtd"
   xmlns="http://www.w3.org/2000/svg"
   xmlns:svg="http://www.w3.org/2000/svg">
  <defs
     id="defs113" />
  <sodipodi:namedview
     id="namedview111"
     pagecolor="#ffffff"
     bordercolor="#666666"
     borderopacity="1.0"
     inkscape:pageshadow="2"
     inkscape:pageopacity="0.0"
     inkscape:pagecheckerboard="0"
     showgrid="false"
     inkscape:zoom="2.04614"
     inkscape:cx="154.19278"
     inkscape:cy="148.57244"
     inkscape:window-width="1916"
     inkscape:window-height="1037"
     inkscape:window-x="0"
     inkscape:window-y="0"
     inkscape:window-maximized="1"
     inkscape:current-layer="svg109" />
  <clipPath
     id="p.0">
    <path
       d="m0 0l617.2598 0l0 296.9475l-617.2598 0l0 -296.9475z"
       clip-rule="nonzero"
       id="path2" />
  </clipPath>
  <path
     fill="#000000"
     fill-opacity="0"
     d="M 0,0 H 617.2598 V 296.9475 H 0 Z"
     fill-rule="evenodd"
     id="path5" />
  <path
     fill="#000000"
     fill-opacity="0"
     d="m 128.57306,4.858777 c 17.5433,0 35.08661,14.299212 35.08661,28.598427"
     fill-rule="evenodd"
     id="path7" />
  <path
     stroke="#000000"
     stroke-width="1"
     stroke-linejoin="round"
     stroke-linecap="butt"
     d="m 132.3568,5.0763474 0.3196,0.037438 c 0.27244,0.033546 0.54455,0.070311 0.81625,0.1102395 0.54341,0.079857 1.08522,0.1723695 1.62488,0.2770996 2.15864,0.4189224 4.28303,1.0333419 6.33889,1.81533 4.11171,1.5639758 7.94931,3.7982285 11.23868,6.4793315 3.28937,2.681103 6.03052,5.809055 7.94931,9.160433 0.47971,0.837845 0.90801,1.689653 1.28063,2.551935 0.18631,0.431141 0.3587,0.864899 0.51663,1.300841 0.079,0.217969 0.15433,0.436487 0.22601,0.655492 l 0.0228,0.07151"
     fill-rule="evenodd"
     id="path9" />
  <path
     fill="#000000"
     stroke="#000000"
     stroke-width="1"
     stroke-linecap="butt"
     d="m 129.07222,4.8874803 c 0.0522,-0.9070101 0.82971,-1.6000078 1.73672,-1.5478535 0.90702,0.052154 1.60001,0.8297105 1.54786,1.7367206 -0.0522,0.9070101 -0.82972,1.600008 -1.73673,1.5478535 -0.907,-0.052154 -1.6,-0.8297105 -1.54785,-1.7367206 z"
     fill-rule="nonzero"
     id="path11" />
  <path
     fill="#000000"
     stroke="#000000"
     stroke-width="1"
     stroke-linecap="butt"
     d="m 161.06041,27.802816 2.3631,4.211683 0.89699,-4.745311 z"
     fill-rule="evenodd"
     id="path13" />
  <path
     fill="#c9daf8"
     d="m 274.83356,66.6664 v 0 c 0,-18.455875 15.49023,-33.41732 34.59842,-33.41732 v 0 c 9.17609,0 17.97632,3.520741 24.46478,9.787704 6.48847,6.266964 10.13364,14.766792 10.13364,23.629616 v 0 c 0,18.45588 -15.49024,33.41732 -34.59842,33.41732 v 0 c -19.10819,0 -34.59842,-14.961441 -34.59842,-33.41732 z"
     fill-rule="evenodd"
     id="path15" />
  <path
     stroke="#000000"
     stroke-width="1"
     stroke-linejoin="round"
     stroke-linecap="butt"
     d="m 274.83356,66.6664 v 0 c 0,-18.455875 15.49023,-33.41732 34.59842,-33.41732 v 0 c 9.17609,0 17.97632,3.520741 24.46478,9.787704 6.48847,6.266964 10.13364,14.766792 10.13364,23.629616 v 0 c 0,18.45588 -15.49024,33.41732 -34.59842,33.41732 v 0 c -19.10819,0 -34.59842,-14.961441 -34.59842,-33.41732 z"
     fill-rule="evenodd"
     id="path17" />
  <path
     fill="#000000"
     d="m 298.04135,62.682648 v -1.609375 h 1.40625 v 1.609375 z m 0,9.84375 v -8.296875 h 1.40625 v 8.296875 z m 8.92969,0 v -1.046875 q -0.78125,1.234375 -2.3125,1.234375 -1,0 -1.82813,-0.546875 -0.82812,-0.546875 -1.29687,-1.53125 -0.45313,-0.984375 -0.45313,-2.25 0,-1.25 0.40625,-2.25 0.42188,-1.015625 1.25,-1.546875 0.82813,-0.546875 1.85938,-0.546875 0.75,0 1.32812,0.3125 0.59375,0.3125 0.95313,0.828125 v -4.109375 h 1.40625 v 11.453125 z m -4.4375,-4.140625 q 0,1.59375 0.67187,2.390625 0.67188,0.78125 1.57813,0.78125 0.92187,0 1.5625,-0.75 0.65625,-0.765625 0.65625,-2.3125 0,-1.703125 -0.65625,-2.5 -0.65625,-0.796875 -1.625,-0.796875 -0.9375,0 -1.5625,0.765625 -0.625,0.765625 -0.625,2.421875 z m 7.92969,4.140625 V 61.073273 h 1.40625 v 11.453125 z m 9.25781,-2.671875 1.45312,0.171875 q -0.34375,1.28125 -1.28125,1.984375 -0.92187,0.703125 -2.35937,0.703125 -1.82813,0 -2.89063,-1.125 -1.0625,-1.125 -1.0625,-3.140625 0,-2.09375 1.07813,-3.25 1.07812,-1.15625 2.79687,-1.15625 1.65625,0 2.70313,1.140625 1.0625,1.125 1.0625,3.171875 0,0.125 0,0.375 h -6.1875 q 0.0781,1.375 0.76562,2.109375 0.70313,0.71875 1.73438,0.71875 0.78125,0 1.32812,-0.40625 0.54688,-0.40625 0.85938,-1.296875 z m -4.60938,-2.28125 h 4.625 q -0.0937,-1.046875 -0.53125,-1.5625 -0.67187,-0.8125 -1.73437,-0.8125 -0.96875,0 -1.64063,0.65625 -0.65625,0.640625 -0.71875,1.71875 z"
     fill-rule="nonzero"
     id="path19" />
  <path
     fill="#f4cccc"
     d="m 421.82224,135.10379 v 0 c 0,-18.45588 15.49027,-33.41733 34.59845,-33.41733 v 0 c 9.17606,0 17.97632,3.52075 24.46478,9.78771 6.48844,6.26696 10.13364,14.76679 10.13364,23.62962 v 0 c 0,18.45587 -15.49023,33.41731 -34.59842,33.41731 v 0 c -19.10819,0 -34.59845,-14.96144 -34.59845,-33.41731 z"
     fill-rule="evenodd"
     id="path21" />
  <path
     stroke="#000000"
     stroke-width="1"
     stroke-linejoin="round"
     stroke-linecap="butt"
     d="m 421.82224,135.10379 v 0 c 0,-18.45588 15.49027,-33.41733 34.59845,-33.41733 v 0 c 9.17606,0 17.97632,3.52075 24.46478,9.78771 6.48844,6.26696 10.13364,14.76679 10.13364,23.62962 v 0 c 0,18.45587 -15.49023,33.41731 -34.59842,33.41731 v 0 c -19.10819,0 -34.59845,-14.96144 -34.59845,-33.41731 z"
     fill-rule="evenodd"
     id="path23" />
  <path
     fill="#000000"
     d="m 434.32693,140.96379 v -11.45313 h 1.40625 v 11.45313 z m 3.05469,-4.15625 q 0,-2.29688 1.28125,-3.40625 1.07812,-0.92188 2.60937,-0.92188 1.71875,0 2.79688,1.125 1.09375,1.10938 1.09375,3.09375 0,1.59375 -0.48438,2.51563 -0.48437,0.92187 -1.40625,1.4375 -0.90625,0.5 -2,0.5 -1.73437,0 -2.8125,-1.10938 -1.07812,-1.125 -1.07812,-3.23437 z m 1.45312,0 q 0,1.59375 0.6875,2.39062 0.70313,0.79688 1.75,0.79688 1.04688,0 1.73438,-0.79688 0.70312,-0.79687 0.70312,-2.4375 0,-1.53125 -0.70312,-2.32812 -0.6875,-0.79688 -1.73438,-0.79688 -1.04687,0 -1.75,0.79688 -0.6875,0.78125 -0.6875,2.375 z m 13.38281,1.10937 1.39063,0.1875 q -0.23438,1.42188 -1.17188,2.23438 -0.92187,0.8125 -2.28125,0.8125 -1.70312,0 -2.75,-1.10938 -1.03125,-1.125 -1.03125,-3.20312 0,-1.34375 0.4375,-2.34375 0.45313,-1.01563 1.35938,-1.51563 0.92187,-0.5 1.98437,-0.5 1.35938,0 2.21875,0.6875 0.85938,0.67188 1.09375,1.9375 l -1.35937,0.20313 q -0.20313,-0.82813 -0.70313,-1.25 -0.48437,-0.42188 -1.1875,-0.42188 -1.0625,0 -1.73437,0.76563 -0.65625,0.75 -0.65625,2.40625 0,1.67187 0.64062,2.4375 0.64063,0.75 1.67188,0.75 0.82812,0 1.375,-0.5 0.5625,-0.51563 0.70312,-1.57813 z m 2.59375,3.04688 v -11.45313 h 1.40625 v 6.53125 l 3.32813,-3.375 h 1.82812 l -3.17187,3.07813 3.48437,5.21875 h -1.73437 l -2.73438,-4.25 -1,0.95312 v 3.29688 z m 13.67188,-2.67188 1.45312,0.17188 q -0.34375,1.28125 -1.28125,1.98437 -0.92187,0.70313 -2.35937,0.70313 -1.82813,0 -2.89063,-1.125 -1.0625,-1.125 -1.0625,-3.14063 0,-2.09375 1.07813,-3.25 1.07812,-1.15625 2.79687,-1.15625 1.65625,0 2.70313,1.14063 1.0625,1.125 1.0625,3.17187 0,0.125 0,0.375 h -6.1875 q 0.0781,1.375 0.76562,2.10938 0.70313,0.71875 1.73438,0.71875 0.78125,0 1.32812,-0.40625 0.54688,-0.40625 0.85938,-1.29688 z m -4.60938,-2.28125 h 4.625 q -0.0937,-1.04687 -0.53125,-1.5625 -0.67187,-0.8125 -1.73437,-0.8125 -0.96875,0 -1.64063,0.65625 -0.65625,0.64063 -0.71875,1.71875 z m 13.21094,4.95313 v -1.04688 q -0.78125,1.23438 -2.3125,1.23438 -1,0 -1.82812,-0.54688 -0.82813,-0.54687 -1.29688,-1.53125 -0.45312,-0.98437 -0.45312,-2.25 0,-1.25 0.40625,-2.25 0.42187,-1.01562 1.25,-1.54687 0.82812,-0.54688 1.85937,-0.54688 0.75,0 1.32813,0.3125 0.59375,0.3125 0.95312,0.82813 v -4.10938 h 1.40625 v 11.45313 z m -4.4375,-4.14063 q 0,1.59375 0.67188,2.39063 0.67187,0.78125 1.57812,0.78125 0.92188,0 1.5625,-0.75 0.65625,-0.76563 0.65625,-2.3125 0,-1.70313 -0.65625,-2.5 -0.65625,-0.79688 -1.625,-0.79688 -0.9375,0 -1.5625,0.76563 -0.625,0.76562 -0.625,2.42187 z"
     fill-rule="nonzero"
     id="path25" />
  <path
     fill="#d9d2e9"
     d="m 274.83356,189.47897 v 0 c 0,-18.45589 15.49023,-33.41733 34.59842,-33.41733 v 0 c 9.17609,0 17.97632,3.52075 24.46478,9.78771 6.48847,6.26696 10.13364,14.7668 10.13364,23.62962 v 0 c 0,18.45587 -15.49024,33.41733 -34.59842,33.41733 v 0 c -19.10819,0 -34.59842,-14.96146 -34.59842,-33.41733 z"
     fill-rule="evenodd"
     id="path27" />
  <path
     stroke="#000000"
     stroke-width="1"
     stroke-linejoin="round"
     stroke-linecap="butt"
     d="m 274.83356,189.47897 v 0 c 0,-18.45589 15.49023,-33.41733 34.59842,-33.41733 v 0 c 9.17609,0 17.97632,3.52075 24.46478,9.78771 6.48847,6.26696 10.13364,14.7668 10.13364,23.62962 v 0 c 0,18.45587 -15.49024,33.41733 -34.59842,33.41733 v 0 c -19.10819,0 -34.59842,-14.96146 -34.59842,-33.41733 z"
     fill-rule="evenodd"
     id="path29" />
  <path
     fill="#000000"
     d="m 294.8929,195.33897 h -1.3125 v -11.45313 h 1.40625 v 4.07813 q 0.89062,-1.10938 2.28125,-1.10938 0.76562,0 1.4375,0.3125 0.6875,0.29688 1.125,0.85938 0.45312,0.5625 0.70312,1.35937 0.25,0.78125 0.25,1.67188 0,2.14062 -1.0625,3.3125 -1.04687,1.15625 -2.53125,1.15625 -1.46875,0 -2.29687,-1.23438 z m -0.0156,-4.21875 q 0,1.5 0.40625,2.15625 0.65625,1.09375 1.79688,1.09375 0.92187,0 1.59375,-0.79688 0.67187,-0.8125 0.67187,-2.39062 0,-1.625 -0.65625,-2.39063 -0.64062,-0.78125 -1.54687,-0.78125 -0.92188,0 -1.59375,0.79688 -0.67188,0.79687 -0.67188,2.3125 z m 13.05469,4.21875 v -1.21875 q -0.96875,1.40625 -2.64062,1.40625 -0.73438,0 -1.375,-0.28125 -0.625,-0.28125 -0.9375,-0.70313 -0.3125,-0.4375 -0.4375,-1.04687 -0.0781,-0.42188 -0.0781,-1.3125 v -5.14063 h 1.40625 v 4.59375 q 0,1.10938 0.0781,1.48438 0.14062,0.5625 0.5625,0.875 0.4375,0.3125 1.0625,0.3125 0.64062,0 1.1875,-0.3125 0.5625,-0.32813 0.78125,-0.89063 0.23437,-0.5625 0.23437,-1.625 v -4.4375 h 1.40625 v 8.29688 z m 2.89844,-2.48438 1.39062,-0.21875 q 0.10938,0.84375 0.64063,1.29688 0.54687,0.4375 1.5,0.4375 0.96875,0 1.4375,-0.39063 0.46875,-0.40625 0.46875,-0.9375 0,-0.46875 -0.40625,-0.75 -0.29688,-0.1875 -1.4375,-0.46875 -1.54688,-0.39062 -2.15625,-0.67187 -0.59375,-0.29688 -0.90625,-0.79688 -0.29688,-0.5 -0.29688,-1.10937 0,-0.5625 0.25,-1.03125 0.25,-0.46875 0.6875,-0.78125 0.32813,-0.25 0.89063,-0.40625 0.57812,-0.17188 1.21875,-0.17188 0.98437,0 1.71875,0.28125 0.73437,0.28125 1.07812,0.76563 0.35938,0.46875 0.5,1.28125 l -1.375,0.1875 q -0.0937,-0.64063 -0.54687,-1 -0.45313,-0.35938 -1.26563,-0.35938 -0.96875,0 -1.39062,0.32813 -0.40625,0.3125 -0.40625,0.73437 0,0.28125 0.17187,0.5 0.17188,0.21875 0.53125,0.375 0.21875,0.0781 1.25,0.35938 1.48438,0.39062 2.07813,0.65625 0.59375,0.25 0.92187,0.73437 0.34375,0.48438 0.34375,1.20313 0,0.70312 -0.42187,1.32812 -0.40625,0.60938 -1.1875,0.95313 -0.76563,0.34375 -1.73438,0.34375 -1.625,0 -2.46875,-0.67188 -0.84375,-0.67187 -1.07812,-2 z m 8.5,5.6875 -0.15625,-1.32812 q 0.45312,0.125 0.79687,0.125 0.46875,0 0.75,-0.15625 0.28125,-0.15625 0.46875,-0.4375 0.125,-0.20313 0.42188,-1.04688 0.0469,-0.10937 0.125,-0.34375 l -3.14063,-8.3125 h 1.51563 l 1.71875,4.79688 q 0.34375,0.92187 0.60937,1.92187 0.23438,-0.96875 0.57813,-1.89062 l 1.76562,-4.82813 h 1.40625 l -3.15625,8.4375 q -0.5,1.375 -0.78125,1.89063 -0.375,0.6875 -0.85937,1.01562 -0.48438,0.32813 -1.15625,0.32813 -0.40625,0 -0.90625,-0.17188 z"
     fill-rule="nonzero"
     id="path31" />
  <path
     fill="#000000"
     fill-opacity="0"
     d="m 329.8133,112.7267 h 76.75589 v 30.70866 H 329.8133 Z"
     fill-rule="evenodd"
     id="path33" />
  <path
     fill="#000000"
     d="m 353.52478,116.69353 v -1.35938 h 1.17188 v 1.35938 z m 0,8.1875 v -6.90625 h 1.17188 v 6.90625 z m 2.47672,-2.0625 1.15625,-0.1875 q 0.10937,0.70312 0.54687,1.07812 0.45313,0.35938 1.25,0.35938 0.8125,0 1.20313,-0.32813 0.39062,-0.32812 0.39062,-0.76562 0,-0.39063 -0.35937,-0.625 -0.23438,-0.15625 -1.1875,-0.39063 -1.29688,-0.32812 -1.79688,-0.5625 -0.48437,-0.25 -0.75,-0.65625 -0.25,-0.42187 -0.25,-0.9375 0,-0.45312 0.20313,-0.84375 0.21875,-0.40625 0.57812,-0.67187 0.28125,-0.1875 0.75,-0.32813 0.46875,-0.14062 1.01563,-0.14062 0.8125,0 1.42187,0.23437 0.60938,0.23438 0.90625,0.64063 0.29688,0.39062 0.40625,1.0625 l -1.14062,0.15625 q -0.0781,-0.53125 -0.45313,-0.82813 -0.375,-0.3125 -1.0625,-0.3125 -0.8125,0 -1.15625,0.26563 -0.34375,0.26562 -0.34375,0.625 0,0.23437 0.14063,0.42187 0.15625,0.1875 0.45312,0.3125 0.17188,0.0625 1.03125,0.29688 1.25,0.32812 1.73438,0.54687 0.5,0.20313 0.78125,0.60938 0.28125,0.40625 0.28125,1 0,0.59375 -0.34375,1.10937 -0.34375,0.51563 -1,0.79688 -0.64063,0.28125 -1.45313,0.28125 -1.34375,0 -2.04687,-0.5625 -0.70313,-0.5625 -0.90625,-1.65625 z m 6.66406,0 1.15625,-0.1875 q 0.10937,0.70312 0.54687,1.07812 0.45313,0.35938 1.25,0.35938 0.8125,0 1.20313,-0.32813 0.39062,-0.32812 0.39062,-0.76562 0,-0.39063 -0.35937,-0.625 -0.23438,-0.15625 -1.1875,-0.39063 -1.29688,-0.32812 -1.79688,-0.5625 -0.48437,-0.25 -0.75,-0.65625 -0.25,-0.42187 -0.25,-0.9375 0,-0.45312 0.20313,-0.84375 0.21875,-0.40625 0.57812,-0.67187 0.28125,-0.1875 0.75,-0.32813 0.46875,-0.14062 1.01563,-0.14062 0.8125,0 1.42187,0.23437 0.60938,0.23438 0.90625,0.64063 0.29688,0.39062 0.40625,1.0625 l -1.14062,0.15625 q -0.0781,-0.53125 -0.45313,-0.82813 -0.375,-0.3125 -1.0625,-0.3125 -0.8125,0 -1.15625,0.26563 -0.34375,0.26562 -0.34375,0.625 0,0.23437 0.14063,0.42187 0.15625,0.1875 0.45312,0.3125 0.17188,0.0625 1.03125,0.29688 1.25,0.32812 1.73438,0.54687 0.5,0.20313 0.78125,0.60938 0.28125,0.40625 0.28125,1 0,0.59375 -0.34375,1.10937 -0.34375,0.51563 -1,0.79688 -0.64063,0.28125 -1.45313,0.28125 -1.34375,0 -2.04687,-0.5625 -0.70313,-0.5625 -0.90625,-1.65625 z m 11.66406,2.0625 v -1.01563 q -0.8125,1.17188 -2.1875,1.17188 -0.60937,0 -1.14062,-0.23438 -0.53125,-0.23437 -0.79688,-0.57812 -0.25,-0.35938 -0.35937,-0.875 -0.0625,-0.34375 -0.0625,-1.09375 v -4.28125 h 1.17187 v 3.82812 q 0,0.92188 0.0625,1.23438 0.10938,0.46875 0.46875,0.73437 0.35938,0.25 0.89063,0.25 0.51562,0 0.98437,-0.26562 0.46875,-0.26563 0.65625,-0.73438 0.1875,-0.46875 0.1875,-1.34375 v -3.70312 h 1.17188 v 6.90625 z m 7.6156,-2.21875 1.20313,0.14062 q -0.28125,1.0625 -1.0625,1.65625 -0.76563,0.57813 -1.96875,0.57813 -1.51563,0 -2.40625,-0.9375 -0.89063,-0.9375 -0.89063,-2.60938 0,-1.75 0.89063,-2.70312 0.90625,-0.96875 2.34375,-0.96875 1.39062,0 2.26562,0.9375 0.875,0.9375 0.875,2.65625 0,0.10937 0,0.3125 h -5.15625 q 0.0625,1.14062 0.64063,1.75 0.57812,0.59375 1.4375,0.59375 0.65625,0 1.10937,-0.32813 0.45313,-0.34375 0.71875,-1.07812 z m -3.84375,-1.90625 h 3.85938 q -0.0781,-0.85938 -0.4375,-1.29688 -0.5625,-0.6875 -1.45313,-0.6875 -0.8125,0 -1.35937,0.54688 -0.54688,0.53125 -0.60938,1.4375 z"
     fill-rule="nonzero"
     id="path35" />
  <path
     fill="#000000"
     d="m 344.32245,138.34978 1.15625,0.15625 q -0.1875,1.1875 -0.96875,1.85937 -0.78125,0.67188 -1.92188,0.67188 -1.40625,0 -2.28125,-0.92188 -0.85937,-0.9375 -0.85937,-2.65625 0,-1.125 0.375,-1.96875 0.375,-0.84375 1.125,-1.25 0.76562,-0.42187 1.65625,-0.42187 1.125,0 1.84375,0.57812 0.71875,0.5625 0.92187,1.60938 l -1.14062,0.17187 q -0.17188,-0.70312 -0.59375,-1.04687 -0.40625,-0.35938 -0.98438,-0.35938 -0.89062,0 -1.45312,0.64063 -0.54688,0.64062 -0.54688,2 0,1.40625 0.53125,2.03125 0.54688,0.625 1.40625,0.625 0.6875,0 1.14063,-0.42188 0.46875,-0.42187 0.59375,-1.29687 z m 1.71094,-0.92188 q 0,-1.92187 1.07812,-2.84375 0.89063,-0.76562 2.17188,-0.76562 1.42187,0 2.32812,0.9375 0.90625,0.92187 0.90625,2.57812 0,1.32813 -0.40625,2.09375 -0.39062,0.76563 -1.15625,1.1875 -0.76562,0.42188 -1.67187,0.42188 -1.45313,0 -2.35938,-0.92188 -0.89062,-0.9375 -0.89062,-2.6875 z m 1.20312,0 q 0,1.32813 0.57813,1.98438 0.59375,0.65625 1.46875,0.65625 0.875,0 1.45312,-0.65625 0.57813,-0.67188 0.57813,-2.03125 0,-1.28125 -0.59375,-1.9375 -0.57813,-0.65625 -1.4375,-0.65625 -0.875,0 -1.46875,0.65625 -0.57813,0.65625 -0.57813,1.98437 z m 6.64685,3.45313 v -6.90625 h 1.04688 v 0.96875 q 0.32812,-0.51563 0.85937,-0.8125 0.54688,-0.3125 1.23438,-0.3125 0.78125,0 1.26562,0.3125 0.48438,0.3125 0.6875,0.89062 0.82813,-1.20312 2.14063,-1.20312 1.03125,0 1.57812,0.57812 0.5625,0.5625 0.5625,1.73438 v 4.75 h -1.17187 v -4.35938 q 0,-0.70312 -0.125,-1 -0.10938,-0.3125 -0.40625,-0.5 -0.29688,-0.1875 -0.70313,-0.1875 -0.71875,0 -1.20312,0.48438 -0.48438,0.48437 -0.48438,1.54687 v 4.01563 h -1.17187 v -4.48438 q 0,-0.78125 -0.29688,-1.17187 -0.28125,-0.39063 -0.92187,-0.39063 -0.5,0 -0.92188,0.26563 -0.42187,0.25 -0.60937,0.75 -0.1875,0.5 -0.1875,1.45312 v 3.57813 z m 11.10245,0 v -6.90625 h 1.04688 v 0.96875 q 0.32812,-0.51563 0.85937,-0.8125 0.54688,-0.3125 1.23438,-0.3125 0.78125,0 1.26562,0.3125 0.48438,0.3125 0.6875,0.89062 0.82813,-1.20312 2.14063,-1.20312 1.03125,0 1.57812,0.57812 0.5625,0.5625 0.5625,1.73438 v 4.75 h -1.17187 v -4.35938 q 0,-0.70312 -0.125,-1 -0.10938,-0.3125 -0.40625,-0.5 -0.29688,-0.1875 -0.70313,-0.1875 -0.71875,0 -1.20312,0.48438 -0.48438,0.48437 -0.48438,1.54687 v 4.01563 h -1.17187 v -4.48438 q 0,-0.78125 -0.29688,-1.17187 -0.28125,-0.39063 -0.92187,-0.39063 -0.5,0 -0.92188,0.26563 -0.42187,0.25 -0.60937,0.75 -0.1875,0.5 -0.1875,1.45312 v 3.57813 z m 15.61804,-0.85938 q -0.65625,0.5625 -1.26562,0.79688 -0.59375,0.21875 -1.28125,0.21875 -1.14063,0 -1.75,-0.54688 -0.60938,-0.5625 -0.60938,-1.4375 0,-0.5 0.21875,-0.92187 0.23438,-0.42188 0.60938,-0.67188 0.375,-0.25 0.84375,-0.39062 0.34375,-0.0781 1.04687,-0.17188 1.42188,-0.17187 2.09375,-0.40625 0,-0.23437 0,-0.29687 0,-0.71875 -0.32812,-1.01563 -0.45313,-0.39062 -1.34375,-0.39062 -0.8125,0 -1.21875,0.29687 -0.39063,0.28125 -0.57813,1.01563 l -1.14062,-0.15625 q 0.15625,-0.73438 0.51562,-1.1875 0.35938,-0.45313 1.03125,-0.6875 0.67188,-0.25 1.5625,-0.25 0.89063,0 1.4375,0.20312 0.5625,0.20313 0.8125,0.53125 0.26563,0.3125 0.375,0.79688 0.0469,0.29687 0.0469,1.07812 v 1.5625 q 0,1.625 0.0781,2.0625 0.0781,0.4375 0.29688,0.82813 h -1.21875 q -0.1875,-0.35938 -0.23438,-0.85938 z m -0.0937,-2.60937 q -0.64062,0.26562 -1.92187,0.4375 -0.71875,0.10937 -1.01563,0.25 -0.29687,0.125 -0.46875,0.375 -0.15625,0.25 -0.15625,0.54687 0,0.46875 0.34375,0.78125 0.35938,0.3125 1.04688,0.3125 0.67187,0 1.20312,-0.29687 0.53125,-0.29688 0.78125,-0.8125 0.1875,-0.39063 0.1875,-1.17188 z m 2.9906,3.46875 v -6.90625 h 1.0625 v 0.98437 q 0.75,-1.14062 2.1875,-1.14062 0.625,0 1.15625,0.21875 0.53125,0.21875 0.78125,0.59375 0.26563,0.35937 0.375,0.85937 0.0625,0.32813 0.0625,1.14063 v 4.25 h -1.17187 v -4.20313 q 0,-0.71875 -0.14063,-1.0625 -0.14062,-0.35937 -0.48437,-0.5625 -0.34375,-0.21875 -0.8125,-0.21875 -0.75,0 -1.29688,0.46875 -0.54687,0.46875 -0.54687,1.79688 v 3.78125 z m 11.89685,0 v -0.875 q -0.65625,1.03125 -1.9375,1.03125 -0.8125,0 -1.51562,-0.45313 -0.6875,-0.45312 -1.07813,-1.26562 -0.375,-0.82813 -0.375,-1.89063 0,-1.03125 0.34375,-1.875 0.34375,-0.84375 1.03125,-1.28125 0.70313,-0.45312 1.54688,-0.45312 0.625,0 1.10937,0.26562 0.5,0.25 0.79688,0.67188 v -3.42188 h 1.17187 v 9.54688 z m -3.70312,-3.45313 q 0,1.32813 0.5625,1.98438 0.5625,0.65625 1.32812,0.65625 0.76563,0 1.29688,-0.625 0.53125,-0.625 0.53125,-1.90625 0,-1.42188 -0.54688,-2.07813 -0.54687,-0.67187 -1.34375,-0.67187 -0.78125,0 -1.3125,0.64062 -0.51562,0.625 -0.51562,2 z"
     fill-rule="nonzero"
     id="path37" />
  <path
     fill="#000000"
     fill-opacity="0"
     d="m 333.89676,90.29601 v 75.55906"
     fill-rule="evenodd"
     id="path39" />
  <path
     stroke="#000000"
     stroke-width="1"
     stroke-linejoin="round"
     stroke-linecap="butt"
     d="m 333.89676,90.29601 v 69.55906"
     fill-rule="evenodd"
     id="path41" />
  <path
     fill="#000000"
     stroke="#000000"
     stroke-width="1"
     stroke-linecap="butt"
     d="m 332.24503,159.85507 1.65173,4.5381 1.65174,-4.5381 z"
     fill-rule="evenodd"
     id="path43" />
  <path
     fill="#000000"
     fill-opacity="0"
     d="m 344.0304,189.47897 87.93701,-30.74016"
     fill-rule="evenodd"
     id="path45" />
  <path
     stroke="#ff0000"
     stroke-width="1"
     stroke-linejoin="round"
     stroke-linecap="butt"
     d="m 344.0304,189.47896 82.27307,-28.76021"
     fill-rule="evenodd"
     id="path47" />
  <path
     fill="#ff0000"
     stroke="#ff0000"
     stroke-width="1"
     stroke-linecap="butt"
     d="m 426.84854,162.27795 3.73883,-3.05673 -4.82895,-0.0617 z"
     fill-rule="evenodd"
     id="path49" />
  <path
     fill="#000000"
     fill-opacity="0"
     d="m 344.0304,66.6664 87.93701,44.8189"
     fill-rule="evenodd"
     id="path51" />
  <path
     stroke="#ff0000"
     stroke-width="1"
     stroke-linejoin="round"
     stroke-linecap="butt"
     d="m 344.0304,66.6664 82.59128,42.09434"
     fill-rule="evenodd"
     id="path53" />
  <path
     fill="#ff0000"
     stroke="#ff0000"
     stroke-width="1"
     stroke-linecap="butt"
     d="m 425.87164,110.23236 4.79327,0.5891 -3.29321,-3.53234 z"
     fill-rule="evenodd"
     id="path55" />
  <path
     fill="#000000"
     fill-opacity="0"
     d="M 374.57877,55.16334 H 482.04334 V 85.872 H 374.57877 Z"
     fill-rule="evenodd"
     id="path57" />
  <path
     fill="#ff0000"
     d="m 375.73502,75.31767 v -6 h -1.03125 v -0.90625 h 1.03125 v -0.734375 q 0,-0.703125 0.125,-1.046875 0.17188,-0.453125 0.59375,-0.734375 0.42188,-0.28125 1.20313,-0.28125 0.48437,0 1.09375,0.109375 l -0.1875,1.03125 q -0.35938,-0.0625 -0.6875,-0.0625 -0.53125,0 -0.75,0.234375 -0.21875,0.21875 -0.21875,0.84375 v 0.640625 h 1.34375 v 0.90625 h -1.34375 v 6 z m 7.93735,-0.859375 q -0.65625,0.5625 -1.26563,0.796875 -0.59375,0.21875 -1.28125,0.21875 -1.14062,0 -1.75,-0.546875 -0.60937,-0.5625 -0.60937,-1.4375 0,-0.5 0.21875,-0.921875 0.23437,-0.421875 0.60937,-0.671875 0.375,-0.25 0.84375,-0.390625 0.34375,-0.07813 1.04688,-0.171875 1.42187,-0.171875 2.09375,-0.40625 0,-0.234375 0,-0.296875 0,-0.71875 -0.32813,-1.015625 -0.45312,-0.390625 -1.34375,-0.390625 -0.8125,0 -1.21875,0.296875 -0.39062,0.28125 -0.57812,1.015625 l -1.14063,-0.15625 q 0.15625,-0.734375 0.51563,-1.1875 0.35937,-0.453125 1.03125,-0.6875 0.67187,-0.25 1.5625,-0.25 0.89062,0 1.4375,0.203125 0.5625,0.203125 0.8125,0.53125 0.26562,0.3125 0.375,0.796875 0.0469,0.296875 0.0469,1.078125 v 1.5625 q 0,1.625 0.0781,2.0625 0.0781,0.4375 0.29687,0.828125 h -1.21875 q -0.1875,-0.359375 -0.23437,-0.859375 z m -0.0937,-2.609375 q -0.64063,0.265625 -1.92188,0.4375 -0.71875,0.109375 -1.01562,0.25 -0.29688,0.125 -0.46875,0.375 -0.15625,0.25 -0.15625,0.546875 0,0.46875 0.34375,0.78125 0.35937,0.3125 1.04687,0.3125 0.67188,0 1.20313,-0.296875 0.53125,-0.296875 0.78125,-0.8125 0.1875,-0.390625 0.1875,-1.171875 z m 5.5531,2.421875 0.17187,1.03125 q -0.5,0.109375 -0.89062,0.109375 -0.64063,0 -1,-0.203125 -0.34375,-0.203125 -0.48438,-0.53125 -0.14062,-0.328125 -0.14062,-1.390625 v -3.96875 h -0.85938 v -0.90625 h 0.85938 v -1.71875 l 1.17187,-0.703125 v 2.421875 h 1.17188 v 0.90625 h -1.17188 v 4.046875 q 0,0.5 0.0469,0.640625 0.0625,0.140625 0.20312,0.234375 0.14063,0.07813 0.40625,0.07813 0.20313,0 0.51563,-0.04687 z m 5.65613,0.1875 q -0.65625,0.5625 -1.26563,0.796875 -0.59375,0.21875 -1.28125,0.21875 -1.14062,0 -1.75,-0.546875 -0.60937,-0.5625 -0.60937,-1.4375 0,-0.5 0.21875,-0.921875 0.23437,-0.421875 0.60937,-0.671875 0.375,-0.25 0.84375,-0.390625 0.34375,-0.07813 1.04688,-0.171875 1.42187,-0.171875 2.09375,-0.40625 0,-0.234375 0,-0.296875 0,-0.71875 -0.32813,-1.015625 -0.45312,-0.390625 -1.34375,-0.390625 -0.8125,0 -1.21875,0.296875 -0.39062,0.28125 -0.57812,1.015625 l -1.14063,-0.15625 q 0.15625,-0.734375 0.51563,-1.1875 0.35937,-0.453125 1.03125,-0.6875 0.67187,-0.25 1.5625,-0.25 0.89062,0 1.4375,0.203125 0.5625,0.203125 0.8125,0.53125 0.26562,0.3125 0.375,0.796875 0.0469,0.296875 0.0469,1.078125 v 1.5625 q 0,1.625 0.0781,2.0625 0.0781,0.4375 0.29687,0.828125 h -1.21875 q -0.1875,-0.359375 -0.23437,-0.859375 z m -0.0937,-2.609375 q -0.64063,0.265625 -1.92188,0.4375 -0.71875,0.109375 -1.01562,0.25 -0.29688,0.125 -0.46875,0.375 -0.15625,0.25 -0.15625,0.546875 0,0.46875 0.34375,0.78125 0.35937,0.3125 1.04687,0.3125 0.67188,0 1.20313,-0.296875 0.53125,-0.296875 0.78125,-0.8125 0.1875,-0.390625 0.1875,-1.171875 z m 2.97497,3.46875 v -9.546875 h 1.17188 v 9.546875 z m 11.41406,-2.21875 1.20313,0.140625 q -0.28125,1.0625 -1.0625,1.65625 -0.76563,0.578125 -1.96875,0.578125 -1.51563,0 -2.40625,-0.9375 -0.89063,-0.9375 -0.89063,-2.609375 0,-1.75 0.89063,-2.703125 0.90625,-0.96875 2.34375,-0.96875 1.39062,0 2.26562,0.9375 0.875,0.9375 0.875,2.65625 0,0.109375 0,0.3125 h -5.15625 q 0.0625,1.140625 0.64063,1.75 0.57812,0.59375 1.4375,0.59375 0.65625,0 1.10937,-0.328125 0.45313,-0.34375 0.71875,-1.078125 z m -3.84375,-1.90625 h 3.85938 q -0.0781,-0.859375 -0.4375,-1.296875 -0.5625,-0.6875 -1.45313,-0.6875 -0.8125,0 -1.35937,0.546875 -0.54688,0.53125 -0.60938,1.4375 z m 6.50623,4.125 v -6.90625 h 1.0625 v 1.046875 q 0.40625,-0.734375 0.73437,-0.96875 0.34375,-0.234375 0.76563,-0.234375 0.59375,0 1.20312,0.375 l -0.40625,1.078125 q -0.4375,-0.25 -0.85937,-0.25 -0.39063,0 -0.70313,0.234375 -0.29687,0.234375 -0.42187,0.640625 -0.20313,0.625 -0.20313,1.359375 v 3.625 z m 4.43838,0 v -6.90625 h 1.0625 v 1.046875 q 0.40625,-0.734375 0.73438,-0.96875 0.34375,-0.234375 0.76562,-0.234375 0.59375,0 1.20313,0.375 l -0.40625,1.078125 q -0.4375,-0.25 -0.85938,-0.25 -0.39062,0 -0.70312,0.234375 -0.29688,0.234375 -0.42188,0.640625 -0.20312,0.625 -0.20312,1.359375 v 3.625 z m 4.01648,-3.453125 q 0,-1.921875 1.07813,-2.84375 0.89062,-0.765625 2.17187,-0.765625 1.42188,0 2.32813,0.9375 0.90625,0.921875 0.90625,2.578125 0,1.328125 -0.40625,2.09375 -0.39063,0.765625 -1.15625,1.1875 -0.76563,0.421875 -1.67188,0.421875 -1.45312,0 -2.35937,-0.921875 -0.89063,-0.9375 -0.89063,-2.6875 z m 1.20313,0 q 0,1.328125 0.57812,1.984375 0.59375,0.65625 1.46875,0.65625 0.875,0 1.45313,-0.65625 0.57812,-0.671875 0.57812,-2.03125 0,-1.28125 -0.59375,-1.9375 -0.57812,-0.65625 -1.4375,-0.65625 -0.875,0 -1.46875,0.65625 -0.57812,0.65625 -0.57812,1.984375 z m 6.63122,3.453125 v -6.90625 h 1.0625 v 1.046875 q 0.40625,-0.734375 0.73438,-0.96875 0.34375,-0.234375 0.76562,-0.234375 0.59375,0 1.20313,0.375 l -0.40625,1.078125 q -0.4375,-0.25 -0.85938,-0.25 -0.39062,0 -0.70312,0.234375 -0.29688,0.234375 -0.42188,0.640625 -0.20312,0.625 -0.20312,1.359375 v 3.625 z"
     fill-rule="nonzero"
     id="path59" />
  <path
     fill="#000000"
     fill-opacity="0"
     d="M 284.9672,165.84935 V 90.2903"
     fill-rule="evenodd"
     id="path61" />
  <path
     stroke="#000000"
     stroke-width="1"
     stroke-linejoin="round"
     stroke-linecap="butt"
     d="M 284.9672,165.84937 V 96.29031"
     fill-rule="evenodd"
     id="path63" />
  <path
     fill="#000000"
     stroke="#000000"
     stroke-width="1"
     stroke-linecap="butt"
     d="m 286.61893,96.290306 -1.65173,-4.538101 -1.65174,4.538101 z"
     fill-rule="evenodd"
     id="path65" />
  <path
     fill="#000000"
     fill-opacity="0"
     d="m 208.20915,119.7578 h 76.7559 v 30.70866 h -76.7559 z"
     fill-rule="evenodd"
     id="path67" />
  <path
     fill="#000000"
     d="m 219.23595,128.459 q 0,-1.92187 1.07812,-2.84374 0.89063,-0.76563 2.17188,-0.76563 1.42187,0 2.32812,0.9375 0.90625,0.92188 0.90625,2.57812 0,1.32812 -0.40625,2.09375 -0.39062,0.76562 -1.15625,1.1875 -0.76562,0.42187 -1.67187,0.42187 -1.45313,0 -2.35938,-0.92187 -0.89062,-0.9375 -0.89062,-2.6875 z m 1.20312,0 q 0,1.32812 0.57813,1.98437 0.59375,0.65625 1.46875,0.65625 0.875,0 1.45312,-0.65625 0.57813,-0.67187 0.57813,-2.03125 0,-1.28124 -0.59375,-1.93749 -0.57813,-0.65625 -1.4375,-0.65625 -0.875,0 -1.46875,0.65625 -0.57813,0.65625 -0.57813,1.98437 z m 6.64686,6.10937 v -9.56249 h 1.07812 v 0.89063 q 0.375,-0.53125 0.84375,-0.78125 0.48438,-0.26563 1.15625,-0.26563 0.875,0 1.54688,0.45313 0.6875,0.45312 1.03125,1.28125 0.34375,0.82812 0.34375,1.82812 0,1.04687 -0.375,1.90625 -0.375,0.84375 -1.10938,1.29687 -0.71875,0.45313 -1.53125,0.45313 -0.57812,0 -1.04687,-0.25 -0.46875,-0.25 -0.76563,-0.625 v 3.375 z m 1.0625,-6.07812 q 0,1.34375 0.53125,1.98437 0.54687,0.625 1.3125,0.625 0.78125,0 1.34375,-0.65625 0.5625,-0.65625 0.5625,-2.04687 0,-1.31249 -0.54688,-1.96874 -0.54687,-0.67188 -1.29687,-0.67188 -0.75,0 -1.32813,0.70313 -0.57812,0.70312 -0.57812,2.03124 z m 11.08435,1.20312 1.20312,0.14063 q -0.28125,1.0625 -1.0625,1.65625 -0.76562,0.57812 -1.96875,0.57812 -1.51562,0 -2.40625,-0.9375 -0.89062,-0.9375 -0.89062,-2.60937 0,-1.74999 0.89062,-2.70312 0.90625,-0.96875 2.34375,-0.96875 1.39063,0 2.26563,0.9375 0.875,0.9375 0.875,2.65624 0,0.10938 0,0.3125 h -5.15625 q 0.0625,1.14063 0.64062,1.75 0.57813,0.59375 1.4375,0.59375 0.65625,0 1.10938,-0.32812 0.45312,-0.34375 0.71875,-1.07813 z m -3.84375,-1.90624 h 3.85937 q -0.0781,-0.85937 -0.4375,-1.29687 -0.5625,-0.6875 -1.45312,-0.6875 -0.8125,0 -1.35938,0.54687 -0.54687,0.53125 -0.60937,1.4375 z m 6.50622,4.12499 v -6.90624 h 1.0625 v 1.04688 q 0.40625,-0.73438 0.73438,-0.96875 0.34375,-0.23438 0.76562,-0.23438 0.59375,0 1.20313,0.375 l -0.40625,1.07813 q -0.4375,-0.25 -0.85938,-0.25 -0.39062,0 -0.70312,0.23437 -0.29688,0.23438 -0.42188,0.64063 -0.20312,0.625 -0.20312,1.35936 v 3.625 z m 8.96962,-0.85937 q -0.65625,0.5625 -1.26562,0.79687 -0.59375,0.21875 -1.28125,0.21875 -1.14063,0 -1.75,-0.54687 -0.60938,-0.5625 -0.60938,-1.4375 0,-0.5 0.21875,-0.92188 0.23438,-0.42187 0.60938,-0.67187 0.375,-0.25 0.84375,-0.39063 0.34375,-0.0781 1.04687,-0.17186 1.42188,-0.17188 2.09375,-0.40625 0,-0.23438 0,-0.29688 0,-0.71875 -0.32812,-1.01562 -0.45313,-0.39063 -1.34375,-0.39063 -0.8125,0 -1.21875,0.29688 -0.39063,0.28125 -0.57813,1.01562 l -1.14062,-0.15625 q 0.15625,-0.73437 0.51562,-1.1875 0.35938,-0.45312 1.03125,-0.6875 0.67188,-0.25 1.5625,-0.25 0.89063,0 1.4375,0.20313 0.5625,0.20312 0.8125,0.53125 0.26563,0.3125 0.375,0.79687 0.0469,0.29688 0.0469,1.07813 v 1.56249 q 0,1.625 0.0781,2.0625 0.0781,0.4375 0.29688,0.82813 h -1.21875 q -0.1875,-0.35938 -0.23438,-0.85938 z m -0.0937,-2.60938 q -0.64062,0.26563 -1.92187,0.4375 -0.71875,0.10938 -1.01563,0.25 -0.29687,0.125 -0.46875,0.375 -0.15625,0.25 -0.15625,0.54688 0,0.46875 0.34375,0.78125 0.35938,0.3125 1.04688,0.3125 0.67187,0 1.20312,-0.29688 0.53125,-0.29687 0.78125,-0.8125 0.1875,-0.39062 0.1875,-1.17187 z m 5.5531,2.42188 0.17188,1.03125 q -0.5,0.10937 -0.89063,0.10937 -0.64062,0 -1,-0.20312 -0.34375,-0.20313 -0.48437,-0.53125 -0.14063,-0.32813 -0.14063,-1.39063 v -3.96874 h -0.85937 v -0.90625 h 0.85937 v -1.71875 l 1.17188,-0.70312 v 2.42187 h 1.17187 v 0.90625 h -1.17187 v 4.04687 q 0,0.5 0.0469,0.64062 0.0625,0.14063 0.20313,0.23438 0.14062,0.0781 0.40625,0.0781 0.20312,0 0.51562,-0.0469 z m 1.15613,-7.14062 v -1.35937 h 1.17188 v 1.35937 z m 0,8.18749 v -6.90624 h 1.17188 v 6.90624 z m 2.50797,-3.45312 q 0,-1.92187 1.07812,-2.84374 0.89063,-0.76563 2.17188,-0.76563 1.42187,0 2.32812,0.9375 0.90625,0.92188 0.90625,2.57812 0,1.32812 -0.40625,2.09375 -0.39062,0.76562 -1.15625,1.1875 -0.76562,0.42187 -1.67187,0.42187 -1.45313,0 -2.35938,-0.92187 -0.89062,-0.9375 -0.89062,-2.6875 z m 1.20312,0 q 0,1.32812 0.57813,1.98437 0.59375,0.65625 1.46875,0.65625 0.875,0 1.45312,-0.65625 0.57813,-0.67187 0.57813,-2.03125 0,-1.28124 -0.59375,-1.93749 -0.57813,-0.65625 -1.4375,-0.65625 -0.875,0 -1.46875,0.65625 -0.57813,0.65625 -0.57813,1.98437 z m 6.64685,3.45312 v -6.90624 h 1.0625 v 0.98438 q 0.75,-1.14063 2.1875,-1.14063 0.625,0 1.15625,0.21875 0.53125,0.21875 0.78125,0.59375 0.26563,0.35938 0.375,0.85938 0.0625,0.32812 0.0625,1.14062 v 4.24999 h -1.17187 v -4.20311 q 0,-0.71875 -0.14063,-1.0625 -0.14062,-0.35938 -0.48437,-0.5625 -0.34375,-0.21875 -0.8125,-0.21875 -0.75,0 -1.29688,0.46875 -0.54687,0.46875 -0.54687,1.79686 v 3.78125 z"
     fill-rule="nonzero"
     id="path69" />
  <path
     fill="#000000"
     d="m 221.23125,145.38087 1.15625,0.15625 q -0.1875,1.1875 -0.96875,1.85937 -0.78125,0.67188 -1.92188,0.67188 -1.40625,0 -2.28125,-0.92188 -0.85937,-0.9375 -0.85937,-2.65625 0,-1.125 0.375,-1.96875 0.375,-0.84375 1.125,-1.25 0.76562,-0.42187 1.65625,-0.42187 1.125,0 1.84375,0.57812 0.71875,0.5625 0.92187,1.60938 l -1.14062,0.17187 q -0.17188,-0.70312 -0.59375,-1.04687 -0.40625,-0.35938 -0.98438,-0.35938 -0.89062,0 -1.45312,0.64063 -0.54688,0.64062 -0.54688,2 0,1.40625 0.53125,2.03125 0.54688,0.625 1.40625,0.625 0.6875,0 1.14063,-0.42188 0.46875,-0.42187 0.59375,-1.29687 z m 1.71094,-0.92188 q 0,-1.92187 1.07812,-2.84375 0.89063,-0.76562 2.17188,-0.76562 1.42187,0 2.32812,0.9375 0.90625,0.92187 0.90625,2.57812 0,1.32813 -0.40625,2.09375 -0.39062,0.76563 -1.15625,1.1875 -0.76562,0.42188 -1.67187,0.42188 -1.45313,0 -2.35938,-0.92188 -0.89062,-0.9375 -0.89062,-2.6875 z m 1.20312,0 q 0,1.32813 0.57813,1.98438 0.59375,0.65625 1.46875,0.65625 0.875,0 1.45312,-0.65625 0.57813,-0.67188 0.57813,-2.03125 0,-1.28125 -0.59375,-1.9375 -0.57813,-0.65625 -1.4375,-0.65625 -0.875,0 -1.46875,0.65625 -0.57813,0.65625 -0.57813,1.98437 z m 6.64685,3.45313 v -6.90625 h 1.04688 v 0.96875 q 0.32812,-0.51563 0.85937,-0.8125 0.54688,-0.3125 1.23438,-0.3125 0.78125,0 1.26562,0.3125 0.48438,0.3125 0.6875,0.89062 0.82813,-1.20312 2.14063,-1.20312 1.03125,0 1.57812,0.57812 0.5625,0.5625 0.5625,1.73438 v 4.75 h -1.17187 v -4.35938 q 0,-0.70312 -0.125,-1 -0.10938,-0.3125 -0.40625,-0.5 -0.29688,-0.1875 -0.70313,-0.1875 -0.71875,0 -1.20312,0.48438 -0.48438,0.48437 -0.48438,1.54687 v 4.01563 h -1.17187 v -4.48438 q 0,-0.78125 -0.29688,-1.17187 -0.28125,-0.39063 -0.92187,-0.39063 -0.5,0 -0.92188,0.26563 -0.42187,0.25 -0.60937,0.75 -0.1875,0.5 -0.1875,1.45312 v 3.57813 z m 11.10244,2.65625 v -9.5625 h 1.07812 v 0.89062 q 0.375,-0.53125 0.84375,-0.78125 0.48438,-0.26562 1.15625,-0.26562 0.875,0 1.54688,0.45312 0.6875,0.45313 1.03125,1.28125 0.34375,0.82813 0.34375,1.82813 0,1.04687 -0.375,1.90625 -0.375,0.84375 -1.10938,1.29687 -0.71875,0.45313 -1.53125,0.45313 -0.57812,0 -1.04687,-0.25 -0.46875,-0.25 -0.76563,-0.625 v 3.375 z m 1.0625,-6.07813 q 0,1.34375 0.53125,1.98438 0.54687,0.625 1.3125,0.625 0.78125,0 1.34375,-0.65625 0.5625,-0.65625 0.5625,-2.04688 0,-1.3125 -0.54688,-1.96875 -0.54687,-0.67187 -1.29687,-0.67187 -0.75,0 -1.32813,0.70312 -0.57812,0.70313 -0.57812,2.03125 z m 6.33435,3.42188 v -9.54688 h 1.17187 v 9.54688 z m 7.71109,-2.21875 1.20312,0.14062 q -0.28125,1.0625 -1.0625,1.65625 -0.76562,0.57813 -1.96875,0.57813 -1.51562,0 -2.40625,-0.9375 -0.89062,-0.9375 -0.89062,-2.60938 0,-1.75 0.89062,-2.70312 0.90625,-0.96875 2.34375,-0.96875 1.39063,0 2.26563,0.9375 0.875,0.9375 0.875,2.65625 0,0.10937 0,0.3125 h -5.15625 q 0.0625,1.14062 0.64062,1.75 0.57813,0.59375 1.4375,0.59375 0.65625,0 1.10938,-0.32813 0.45312,-0.34375 0.71875,-1.07812 z m -3.84375,-1.90625 h 3.85937 q -0.0781,-0.85938 -0.4375,-1.29688 -0.5625,-0.6875 -1.45312,-0.6875 -0.8125,0 -1.35938,0.54688 -0.54687,0.53125 -0.60937,1.4375 z m 9.08435,3.07812 0.17187,1.03125 q -0.5,0.10938 -0.89062,0.10938 -0.64063,0 -1,-0.20313 -0.34375,-0.20312 -0.48438,-0.53125 -0.14062,-0.32812 -0.14062,-1.39062 v -3.96875 h -0.85938 v -0.90625 h 0.85938 v -1.71875 l 1.17187,-0.70313 v 2.42188 h 1.17188 v 0.90625 h -1.17188 v 4.04687 q 0,0.5 0.0469,0.64063 0.0625,0.14062 0.20312,0.23437 0.14063,0.0781 0.40625,0.0781 0.20313,0 0.51563,-0.0469 z m 5.87487,-1.17187 1.20313,0.14062 q -0.28125,1.0625 -1.0625,1.65625 -0.76563,0.57813 -1.96875,0.57813 -1.51563,0 -2.40625,-0.9375 -0.89063,-0.9375 -0.89063,-2.60938 0,-1.75 0.89063,-2.70312 0.90625,-0.96875 2.34375,-0.96875 1.39062,0 2.26562,0.9375 0.875,0.9375 0.875,2.65625 0,0.10937 0,0.3125 h -5.15625 q 0.0625,1.14062 0.64063,1.75 0.57812,0.59375 1.4375,0.59375 0.65625,0 1.10937,-0.32813 0.45313,-0.34375 0.71875,-1.07812 z m -3.84375,-1.90625 h 3.85938 q -0.0781,-0.85938 -0.4375,-1.29688 -0.5625,-0.6875 -1.45313,-0.6875 -0.8125,0 -1.35937,0.54688 -0.54688,0.53125 -0.60938,1.4375 z m 11.00623,4.125 v -0.875 q -0.65625,1.03125 -1.9375,1.03125 -0.8125,0 -1.51562,-0.45313 -0.6875,-0.45312 -1.07813,-1.26562 -0.375,-0.82813 -0.375,-1.89063 0,-1.03125 0.34375,-1.875 0.34375,-0.84375 1.03125,-1.28125 0.70313,-0.45312 1.54688,-0.45312 0.625,0 1.10937,0.26562 0.5,0.25 0.79688,0.67188 v -3.42188 h 1.17187 v 9.54688 z m -3.70312,-3.45313 q 0,1.32813 0.5625,1.98438 0.5625,0.65625 1.32812,0.65625 0.76563,0 1.29688,-0.625 0.53125,-0.625 0.53125,-1.90625 0,-1.42188 -0.54688,-2.07813 -0.54687,-0.67187 -1.34375,-0.67187 -0.78125,0 -1.3125,0.64062 -0.51562,0.625 -0.51562,2 z"
     fill-rule="nonzero"
     id="path71" />
  <path
     fill="#000000"
     fill-opacity="0"
     d="m 374.57877,174.69456 h 107.46457 v 30.70866 H 374.57877 Z"
     fill-rule="evenodd"
     id="path73" />
  <path
     fill="#ff0000"
     d="m 375.73502,194.84889 v -6 h -1.03125 v -0.90625 h 1.03125 v -0.73438 q 0,-0.70312 0.125,-1.04687 0.17188,-0.45313 0.59375,-0.73438 0.42188,-0.28125 1.20313,-0.28125 0.48437,0 1.09375,0.10938 l -0.1875,1.03125 q -0.35938,-0.0625 -0.6875,-0.0625 -0.53125,0 -0.75,0.23437 -0.21875,0.21875 -0.21875,0.84375 v 0.64063 h 1.34375 v 0.90625 h -1.34375 v 6 z m 7.93735,-0.85938 q -0.65625,0.5625 -1.26563,0.79688 -0.59375,0.21875 -1.28125,0.21875 -1.14062,0 -1.75,-0.54688 -0.60937,-0.5625 -0.60937,-1.4375 0,-0.5 0.21875,-0.92187 0.23437,-0.42188 0.60937,-0.67188 0.375,-0.25 0.84375,-0.39062 0.34375,-0.0781 1.04688,-0.17188 1.42187,-0.17187 2.09375,-0.40625 0,-0.23437 0,-0.29687 0,-0.71875 -0.32813,-1.01563 -0.45312,-0.39062 -1.34375,-0.39062 -0.8125,0 -1.21875,0.29687 -0.39062,0.28125 -0.57812,1.01563 l -1.14063,-0.15625 q 0.15625,-0.73438 0.51563,-1.1875 0.35937,-0.45313 1.03125,-0.6875 0.67187,-0.25 1.5625,-0.25 0.89062,0 1.4375,0.20312 0.5625,0.20313 0.8125,0.53125 0.26562,0.3125 0.375,0.79688 0.0469,0.29687 0.0469,1.07812 v 1.5625 q 0,1.625 0.0781,2.0625 0.0781,0.4375 0.29687,0.82813 h -1.21875 q -0.1875,-0.35938 -0.23437,-0.85938 z m -0.0937,-2.60937 q -0.64063,0.26562 -1.92188,0.4375 -0.71875,0.10937 -1.01562,0.25 -0.29688,0.125 -0.46875,0.375 -0.15625,0.25 -0.15625,0.54687 0,0.46875 0.34375,0.78125 0.35937,0.3125 1.04687,0.3125 0.67188,0 1.20313,-0.29687 0.53125,-0.29688 0.78125,-0.8125 0.1875,-0.39063 0.1875,-1.17188 z m 5.5531,2.42187 0.17187,1.03125 q -0.5,0.10938 -0.89062,0.10938 -0.64063,0 -1,-0.20313 -0.34375,-0.20312 -0.48438,-0.53125 -0.14062,-0.32812 -0.14062,-1.39062 v -3.96875 h -0.85938 v -0.90625 h 0.85938 v -1.71875 l 1.17187,-0.70313 v 2.42188 h 1.17188 v 0.90625 h -1.17188 v 4.04687 q 0,0.5 0.0469,0.64063 0.0625,0.14062 0.20312,0.23437 0.14063,0.0781 0.40625,0.0781 0.20313,0 0.51563,-0.0469 z m 5.65613,0.1875 q -0.65625,0.5625 -1.26563,0.79688 -0.59375,0.21875 -1.28125,0.21875 -1.14062,0 -1.75,-0.54688 -0.60937,-0.5625 -0.60937,-1.4375 0,-0.5 0.21875,-0.92187 0.23437,-0.42188 0.60937,-0.67188 0.375,-0.25 0.84375,-0.39062 0.34375,-0.0781 1.04688,-0.17188 1.42187,-0.17187 2.09375,-0.40625 0,-0.23437 0,-0.29687 0,-0.71875 -0.32813,-1.01563 -0.45312,-0.39062 -1.34375,-0.39062 -0.8125,0 -1.21875,0.29687 -0.39062,0.28125 -0.57812,1.01563 l -1.14063,-0.15625 q 0.15625,-0.73438 0.51563,-1.1875 0.35937,-0.45313 1.03125,-0.6875 0.67187,-0.25 1.5625,-0.25 0.89062,0 1.4375,0.20312 0.5625,0.20313 0.8125,0.53125 0.26562,0.3125 0.375,0.79688 0.0469,0.29687 0.0469,1.07812 v 1.5625 q 0,1.625 0.0781,2.0625 0.0781,0.4375 0.29687,0.82813 h -1.21875 q -0.1875,-0.35938 -0.23437,-0.85938 z m -0.0937,-2.60937 q -0.64063,0.26562 -1.92188,0.4375 -0.71875,0.10937 -1.01562,0.25 -0.29688,0.125 -0.46875,0.375 -0.15625,0.25 -0.15625,0.54687 0,0.46875 0.34375,0.78125 0.35937,0.3125 1.04687,0.3125 0.67188,0 1.20313,-0.29687 0.53125,-0.29688 0.78125,-0.8125 0.1875,-0.39063 0.1875,-1.17188 z m 2.97497,3.46875 v -9.54688 h 1.17188 v 9.54688 z m 11.41406,-2.21875 1.20313,0.14062 q -0.28125,1.0625 -1.0625,1.65625 -0.76563,0.57813 -1.96875,0.57813 -1.51563,0 -2.40625,-0.9375 -0.89063,-0.9375 -0.89063,-2.60938 0,-1.75 0.89063,-2.70312 0.90625,-0.96875 2.34375,-0.96875 1.39062,0 2.26562,0.9375 0.875,0.9375 0.875,2.65625 0,0.10937 0,0.3125 h -5.15625 q 0.0625,1.14062 0.64063,1.75 0.57812,0.59375 1.4375,0.59375 0.65625,0 1.10937,-0.32813 0.45313,-0.34375 0.71875,-1.07812 z m -3.84375,-1.90625 h 3.85938 q -0.0781,-0.85938 -0.4375,-1.29688 -0.5625,-0.6875 -1.45313,-0.6875 -0.8125,0 -1.35937,0.54688 -0.54688,0.53125 -0.60938,1.4375 z m 6.50623,4.125 v -6.90625 h 1.0625 v 1.04687 q 0.40625,-0.73437 0.73437,-0.96875 0.34375,-0.23437 0.76563,-0.23437 0.59375,0 1.20312,0.375 l -0.40625,1.07812 q -0.4375,-0.25 -0.85937,-0.25 -0.39063,0 -0.70313,0.23438 -0.29687,0.23437 -0.42187,0.64062 -0.20313,0.625 -0.20313,1.35938 v 3.625 z m 4.43838,0 v -6.90625 h 1.0625 v 1.04687 q 0.40625,-0.73437 0.73438,-0.96875 0.34375,-0.23437 0.76562,-0.23437 0.59375,0 1.20313,0.375 l -0.40625,1.07812 q -0.4375,-0.25 -0.85938,-0.25 -0.39062,0 -0.70312,0.23438 -0.29688,0.23437 -0.42188,0.64062 -0.20312,0.625 -0.20312,1.35938 v 3.625 z m 4.01648,-3.45313 q 0,-1.92187 1.07813,-2.84375 0.89062,-0.76562 2.17187,-0.76562 1.42188,0 2.32813,0.9375 0.90625,0.92187 0.90625,2.57812 0,1.32813 -0.40625,2.09375 -0.39063,0.76563 -1.15625,1.1875 -0.76563,0.42188 -1.67188,0.42188 -1.45312,0 -2.35937,-0.92188 -0.89063,-0.9375 -0.89063,-2.6875 z m 1.20313,0 q 0,1.32813 0.57812,1.98438 0.59375,0.65625 1.46875,0.65625 0.875,0 1.45313,-0.65625 0.57812,-0.67188 0.57812,-2.03125 0,-1.28125 -0.59375,-1.9375 -0.57812,-0.65625 -1.4375,-0.65625 -0.875,0 -1.46875,0.65625 -0.57812,0.65625 -0.57812,1.98437 z m 6.63122,3.45313 v -6.90625 h 1.0625 v 1.04687 q 0.40625,-0.73437 0.73438,-0.96875 0.34375,-0.23437 0.76562,-0.23437 0.59375,0 1.20313,0.375 l -0.40625,1.07812 q -0.4375,-0.25 -0.85938,-0.25 -0.39062,0 -0.70312,0.23438 -0.29688,0.23437 -0.42188,0.64062 -0.20312,0.625 -0.20312,1.35938 v 3.625 z"
     fill-rule="nonzero"
     id="path75" />
  <path
     fill="#fff2cc"
     d="m 129.06125,66.87453 v 0 c 0,-18.45588 15.49023,-33.417324 34.59842,-33.417324 v 0 c 9.17607,0 17.97632,3.520744 24.46478,9.787708 6.48847,6.266964 10.13364,14.766788 10.13364,23.629616 v 0 c 0,18.45588 -15.49023,33.41732 -34.59842,33.41732 v 0 c -19.10819,0 -34.59842,-14.961441 -34.59842,-33.41732 z"
     fill-rule="evenodd"
     id="path77" />
  <path
     stroke="#000000"
     stroke-width="1"
     stroke-linejoin="round"
     stroke-linecap="butt"
     d="m 129.06125,66.87453 v 0 c 0,-18.45588 15.49023,-33.417324 34.59842,-33.417324 v 0 c 9.17607,0 17.97632,3.520744 24.46478,9.787708 6.48847,6.266964 10.13364,14.766788 10.13364,23.629616 v 0 c 0,18.45588 -15.49023,33.41732 -34.59842,33.41732 v 0 c -19.10819,0 -34.59842,-14.961441 -34.59842,-33.41732 z"
     fill-rule="evenodd"
     id="path79" />
  <path
     fill="#000000"
     d="m 154.4956,62.890778 v -1.609375 h 1.40625 v 1.609375 z m 0,9.84375 v -8.296875 h 1.40625 v 8.296875 z m 3.55469,0 v -8.296875 h 1.26562 v 1.171875 q 0.90625,-1.359375 2.64063,-1.359375 0.75,0 1.375,0.265625 0.625,0.265625 0.9375,0.703125 0.3125,0.4375 0.4375,1.046875 0.0781,0.390625 0.0781,1.359375 v 5.109375 h -1.40625 v -5.046875 q 0,-0.859375 -0.17187,-1.28125 -0.15625,-0.4375 -0.57813,-0.6875 -0.40625,-0.25 -0.96875,-0.25 -0.90625,0 -1.5625,0.578125 -0.64062,0.5625 -0.64062,2.15625 v 4.53125 z m 8.89843,-9.84375 v -1.609375 h 1.40625 v 1.609375 z m 0,9.84375 v -8.296875 h 1.40625 v 8.296875 z m 6.61719,-1.265625 0.20313,1.25 q -0.59375,0.125 -1.0625,0.125 -0.76563,0 -1.1875,-0.234375 -0.42188,-0.25 -0.59375,-0.640625 -0.17188,-0.40625 -0.17188,-1.671875 v -4.765625 h -1.03125 v -1.09375 h 1.03125 v -2.0625 l 1.40625,-0.84375 v 2.90625 h 1.40625 v 1.09375 h -1.40625 v 4.84375 q 0,0.609375 0.0625,0.78125 0.0781,0.171875 0.25,0.28125 0.17188,0.09375 0.48438,0.09375 0.23437,0 0.60937,-0.0625 z"
     fill-rule="nonzero"
     id="path81" />
  <path
     fill="#000000"
     fill-opacity="0"
     d="m 198.25809,66.87453 76.56692,-0.220474"
     fill-rule="evenodd"
     id="path83" />
  <path
     stroke="#000000"
     stroke-width="1"
     stroke-linejoin="round"
     stroke-linecap="butt"
     d="m 198.2581,66.87453 70.56694,-0.203201"
     fill-rule="evenodd"
     id="path85" />
  <path
     fill="#000000"
     stroke="#000000"
     stroke-width="1"
     stroke-linecap="butt"
     d="m 268.8298,68.32305 4.53332,-1.664795 -4.54281,-1.638657 z"
     fill-rule="evenodd"
     id="path87" />
  <path
     fill="#c9daf8"
     d="M 163.58923,248.13164 H 301.76248 V 294.1789 H 163.58923 Z"
     fill-rule="evenodd"
     id="path89" />
  <path
     fill="#000000"
     d="m 223.19292,267.76776 v -1.35938 h 1.17187 v 1.35938 z m 0,8.1875 v -6.90625 h 1.17187 v 6.90625 z m 7.42982,0 v -0.875 q -0.65625,1.03125 -1.9375,1.03125 -0.8125,0 -1.5156,-0.45313 -0.6875,-0.45312 -1.07813,-1.26562 -0.375,-0.82813 -0.375,-1.89063 0,-1.03125 0.34375,-1.875 0.34375,-0.84375 1.03125,-1.28125 0.70311,-0.45312 1.54686,-0.45312 0.625,0 1.10937,0.26562 0.5,0.25 0.79688,0.67188 v -3.42188 h 1.17187 v 9.54688 z m -3.7031,-3.45313 q 0,1.32813 0.5625,1.98438 0.56248,0.65625 1.3281,0.65625 0.76563,0 1.29688,-0.625 0.53125,-0.625 0.53125,-1.90625 0,-1.42188 -0.54688,-2.07813 -0.54687,-0.67187 -1.34375,-0.67187 -0.78125,0 -1.31248,0.64062 -0.51562,0.625 -0.51562,2 z m 6.61558,3.45313 v -9.54688 h 1.17188 v 9.54688 z m 7.71109,-2.21875 1.20313,0.14062 q -0.28125,1.0625 -1.0625,1.65625 -0.76563,0.57813 -1.96875,0.57813 -1.51563,0 -2.40625,-0.9375 -0.89063,-0.9375 -0.89063,-2.60938 0,-1.75 0.89063,-2.70312 0.90625,-0.96875 2.34375,-0.96875 1.39062,0 2.26562,0.9375 0.875,0.9375 0.875,2.65625 0,0.10937 0,0.3125 h -5.15625 q 0.0625,1.14062 0.64063,1.75 0.57812,0.59375 1.4375,0.59375 0.65625,0 1.10937,-0.32813 0.45313,-0.34375 0.71875,-1.07812 z m -3.84375,-1.90625 h 3.85938 q -0.0781,-0.85938 -0.4375,-1.29688 -0.5625,-0.6875 -1.45313,-0.6875 -0.8125,0 -1.35937,0.54688 -0.54688,0.53125 -0.60938,1.4375 z"
     fill-rule="nonzero"
     id="path91" />
  <path
     fill="#f4cccc"
     d="M 470.62155,248.13164 H 608.7948 V 294.1789 H 470.62155 Z"
     fill-rule="evenodd"
     id="path93" />
  <path
     fill="#000000"
     d="m 503.145,274.9084 0.17187,1.03125 q -0.5,0.10937 -0.89062,0.10937 -0.64063,0 -1,-0.20312 -0.34375,-0.20313 -0.48438,-0.53125 -0.14062,-0.32813 -0.14062,-1.39063 v -3.96875 h -0.85938 v -0.90625 h 0.85938 v -1.71875 l 1.17187,-0.70312 v 2.42187 h 1.17188 v 0.90625 h -1.17188 v 4.04688 q 0,0.5 0.0469,0.64062 0.0625,0.14063 0.20312,0.23438 0.14063,0.0781 0.40625,0.0781 0.20313,0 0.51563,-0.0469 z m 5.87485,-1.17188 1.20312,0.14063 q -0.28125,1.0625 -1.0625,1.65625 -0.76562,0.57812 -1.96875,0.57812 -1.51562,0 -2.40625,-0.9375 -0.89062,-0.9375 -0.89062,-2.60937 0,-1.75 0.89062,-2.70313 0.90625,-0.96875 2.34375,-0.96875 1.39063,0 2.26563,0.9375 0.875,0.9375 0.875,2.65625 0,0.10938 0,0.3125 h -5.15625 q 0.0625,1.14063 0.64062,1.75 0.57813,0.59375 1.4375,0.59375 0.65625,0 1.10938,-0.32812 0.45312,-0.34375 0.71875,-1.07813 z m -3.84375,-1.90625 h 3.85937 q -0.0781,-0.85937 -0.4375,-1.29687 -0.5625,-0.6875 -1.45312,-0.6875 -0.8125,0 -1.35938,0.54687 -0.54687,0.53125 -0.60937,1.4375 z m 6.50622,4.125 v -6.90625 h 1.0625 v 1.04688 q 0.40625,-0.73438 0.73438,-0.96875 0.34375,-0.23438 0.76562,-0.23438 0.59375,0 1.20313,0.375 l -0.40625,1.07813 q -0.4375,-0.25 -0.85938,-0.25 -0.39062,0 -0.70312,0.23437 -0.29688,0.23438 -0.42188,0.64063 -0.20312,0.625 -0.20312,1.35937 v 3.625 z m 4.45398,0 v -6.90625 h 1.04688 v 0.96875 q 0.32812,-0.51562 0.85937,-0.8125 0.54688,-0.3125 1.23438,-0.3125 0.78125,0 1.26562,0.3125 0.48438,0.3125 0.6875,0.89063 0.82813,-1.20313 2.14063,-1.20313 1.03125,0 1.57812,0.57813 0.5625,0.5625 0.5625,1.73437 v 4.75 h -1.17187 v -4.35937 q 0,-0.70313 -0.125,-1 -0.10938,-0.3125 -0.40625,-0.5 -0.29688,-0.1875 -0.70313,-0.1875 -0.71875,0 -1.20312,0.48437 -0.48438,0.48438 -0.48438,1.54688 v 4.01562 h -1.17187 v -4.48437 q 0,-0.78125 -0.29688,-1.17188 -0.28125,-0.39062 -0.92187,-0.39062 -0.5,0 -0.92188,0.26562 -0.42187,0.25 -0.60937,0.75 -0.1875,0.5 -0.1875,1.45313 v 3.57812 z m 11.11811,-8.1875 v -1.35937 h 1.17187 v 1.35937 z m 0,8.1875 v -6.90625 h 1.17187 v 6.90625 z m 2.94543,0 v -6.90625 h 1.0625 v 0.98438 q 0.75,-1.14063 2.1875,-1.14063 0.625,0 1.15625,0.21875 0.53125,0.21875 0.78125,0.59375 0.26563,0.35938 0.375,0.85938 0.0625,0.32812 0.0625,1.14062 v 4.25 h -1.17187 v -4.20312 q 0,-0.71875 -0.14063,-1.0625 -0.14062,-0.35938 -0.48437,-0.5625 -0.34375,-0.21875 -0.8125,-0.21875 -0.75,0 -1.29688,0.46875 -0.54687,0.46875 -0.54687,1.79687 v 3.78125 z m 11.9281,-0.85937 q -0.65625,0.5625 -1.26562,0.79687 -0.59375,0.21875 -1.28125,0.21875 -1.14063,0 -1.75,-0.54687 -0.60938,-0.5625 -0.60938,-1.4375 0,-0.5 0.21875,-0.92188 0.23438,-0.42187 0.60938,-0.67187 0.375,-0.25 0.84375,-0.39063 0.34375,-0.0781 1.04687,-0.17187 1.42188,-0.17188 2.09375,-0.40625 0,-0.23438 0,-0.29688 0,-0.71875 -0.32812,-1.01562 -0.45313,-0.39063 -1.34375,-0.39063 -0.8125,0 -1.21875,0.29688 -0.39063,0.28125 -0.57813,1.01562 l -1.14062,-0.15625 q 0.15625,-0.73437 0.51562,-1.1875 0.35938,-0.45312 1.03125,-0.6875 0.67188,-0.25 1.5625,-0.25 0.89063,0 1.4375,0.20313 0.5625,0.20312 0.8125,0.53125 0.26563,0.3125 0.375,0.79687 0.0469,0.29688 0.0469,1.07813 v 1.5625 q 0,1.625 0.0781,2.0625 0.0781,0.4375 0.29688,0.82812 h -1.21875 q -0.1875,-0.35937 -0.23438,-0.85937 z m -0.0937,-2.60938 q -0.64062,0.26563 -1.92187,0.4375 -0.71875,0.10938 -1.01563,0.25 -0.29687,0.125 -0.46875,0.375 -0.15625,0.25 -0.15625,0.54688 0,0.46875 0.34375,0.78125 0.35938,0.3125 1.04688,0.3125 0.67187,0 1.20312,-0.29688 0.53125,-0.29687 0.78125,-0.8125 0.1875,-0.39062 0.1875,-1.17187 z m 2.97498,3.46875 v -9.54687 h 1.17187 v 9.54687 z m 6.21093,-2.0625 1.15625,-0.1875 q 0.10938,0.70313 0.54688,1.07813 0.45312,0.35937 1.25,0.35937 0.8125,0 1.20312,-0.32812 0.39063,-0.32813 0.39063,-0.76563 0,-0.39062 -0.35938,-0.625 -0.23437,-0.15625 -1.1875,-0.39062 -1.29687,-0.32813 -1.79687,-0.5625 -0.48438,-0.25 -0.75,-0.65625 -0.25,-0.42188 -0.25,-0.9375 0,-0.45313 0.20312,-0.84375 0.21875,-0.40625 0.57813,-0.67188 0.28125,-0.1875 0.75,-0.32812 0.46875,-0.14063 1.01562,-0.14063 0.8125,0 1.42188,0.23438 0.60937,0.23437 0.90625,0.64062 0.29687,0.39063 0.40625,1.0625 l -1.14063,0.15625 q -0.0781,-0.53125 -0.45312,-0.82812 -0.375,-0.3125 -1.0625,-0.3125 -0.8125,0 -1.15625,0.26562 -0.34375,0.26563 -0.34375,0.625 0,0.23438 0.14062,0.42188 0.15625,0.1875 0.45313,0.3125 0.17187,0.0625 1.03125,0.29687 1.25,0.32813 1.73437,0.54688 0.5,0.20312 0.78125,0.60937 0.28125,0.40625 0.28125,1 0,0.59375 -0.34375,1.10938 -0.34375,0.51562 -1,0.79687 -0.64062,0.28125 -1.45312,0.28125 -1.34375,0 -2.04688,-0.5625 -0.70312,-0.5625 -0.90625,-1.65625 z m 9.69532,1.01563 0.17187,1.03125 q -0.5,0.10937 -0.89062,0.10937 -0.64063,0 -1,-0.20312 -0.34375,-0.20313 -0.48438,-0.53125 -0.14062,-0.32813 -0.14062,-1.39063 v -3.96875 h -0.85938 v -0.90625 h 0.85938 v -1.71875 l 1.17187,-0.70312 v 2.42187 h 1.17188 v 0.90625 h -1.17188 v 4.04688 q 0,0.5 0.0469,0.64062 0.0625,0.14063 0.20312,0.23438 0.14063,0.0781 0.40625,0.0781 0.20313,0 0.51563,-0.0469 z m 5.65612,0.1875 q -0.65625,0.5625 -1.26562,0.79687 -0.59375,0.21875 -1.28125,0.21875 -1.14063,0 -1.75,-0.54687 -0.60938,-0.5625 -0.60938,-1.4375 0,-0.5 0.21875,-0.92188 0.23438,-0.42187 0.60938,-0.67187 0.375,-0.25 0.84375,-0.39063 0.34375,-0.0781 1.04687,-0.17187 1.42188,-0.17188 2.09375,-0.40625 0,-0.23438 0,-0.29688 0,-0.71875 -0.32812,-1.01562 -0.45313,-0.39063 -1.34375,-0.39063 -0.8125,0 -1.21875,0.29688 -0.39063,0.28125 -0.57813,1.01562 l -1.14062,-0.15625 q 0.15625,-0.73437 0.51562,-1.1875 0.35938,-0.45312 1.03125,-0.6875 0.67188,-0.25 1.5625,-0.25 0.89063,0 1.4375,0.20313 0.5625,0.20312 0.8125,0.53125 0.26563,0.3125 0.375,0.79687 0.0469,0.29688 0.0469,1.07813 v 1.5625 q 0,1.625 0.0781,2.0625 0.0781,0.4375 0.29688,0.82812 h -1.21875 q -0.1875,-0.35937 -0.23438,-0.85937 z m -0.0937,-2.60938 q -0.64062,0.26563 -1.92187,0.4375 -0.71875,0.10938 -1.01563,0.25 -0.29687,0.125 -0.46875,0.375 -0.15625,0.25 -0.15625,0.54688 0,0.46875 0.34375,0.78125 0.35938,0.3125 1.04688,0.3125 0.67187,0 1.20312,-0.29688 0.53125,-0.29687 0.78125,-0.8125 0.1875,-0.39062 0.1875,-1.17187 z m 5.55311,2.42188 0.17187,1.03125 q -0.5,0.10937 -0.89062,0.10937 -0.64063,0 -1,-0.20312 -0.34375,-0.20313 -0.48438,-0.53125 -0.14062,-0.32813 -0.14062,-1.39063 v -3.96875 h -0.85938 v -0.90625 h 0.85938 v -1.71875 l 1.17187,-0.70312 v 2.42187 h 1.17188 v 0.90625 h -1.17188 v 4.04688 q 0,0.5 0.0469,0.64062 0.0625,0.14063 0.20312,0.23438 0.14063,0.0781 0.40625,0.0781 0.20313,0 0.51563,-0.0469 z m 5.87487,-1.17188 1.20313,0.14063 q -0.28125,1.0625 -1.0625,1.65625 -0.76563,0.57812 -1.96875,0.57812 -1.51563,0 -2.40625,-0.9375 -0.89063,-0.9375 -0.89063,-2.60937 0,-1.75 0.89063,-2.70313 0.90625,-0.96875 2.34375,-0.96875 1.39062,0 2.26562,0.9375 0.875,0.9375 0.875,2.65625 0,0.10938 0,0.3125 h -5.15625 q 0.0625,1.14063 0.64063,1.75 0.57812,0.59375 1.4375,0.59375 0.65625,0 1.10937,-0.32812 0.45313,-0.34375 0.71875,-1.07813 z m -3.84375,-1.90625 h 3.85938 q -0.0781,-0.85937 -0.4375,-1.29687 -0.5625,-0.6875 -1.45313,-0.6875 -0.8125,0 -1.35937,0.54687 -0.54688,0.53125 -0.60938,1.4375 z"
     fill-rule="nonzero"
     id="path95" />
  <path
     fill="#d9d2e9"
     d="M 317.1054,248.13164 H 455.27862 V 294.1789 H 317.1054 Z"
     fill-rule="evenodd"
     id="path97" />
  <path
     fill="#000000"
     d="m 355.2142,270.6115 v -9.5625 h 1.07812 v 0.89062 q 0.375,-0.53125 0.84375,-0.78125 0.48438,-0.26562 1.15625,-0.26562 0.875,0 1.54688,0.45312 0.6875,0.45313 1.03125,1.28125 0.34375,0.82813 0.34375,1.82813 0,1.04687 -0.375,1.90625 -0.375,0.84375 -1.10938,1.29687 -0.71875,0.45313 -1.53125,0.45313 -0.57812,0 -1.04687,-0.25 -0.46875,-0.25 -0.76563,-0.625 v 3.375 z m 1.0625,-6.07813 q 0,1.34375 0.53125,1.98438 0.54687,0.625 1.3125,0.625 0.78125,0 1.34375,-0.65625 0.5625,-0.65625 0.5625,-2.04688 0,-1.3125 -0.54688,-1.96875 -0.54687,-0.67187 -1.29687,-0.67187 -0.75,0 -1.32813,0.70312 -0.57812,0.70313 -0.57812,2.03125 z m 11.08435,1.20313 1.20313,0.14062 q -0.28125,1.0625 -1.0625,1.65625 -0.76563,0.57813 -1.96875,0.57813 -1.51563,0 -2.40625,-0.9375 -0.89063,-0.9375 -0.89063,-2.60938 0,-1.75 0.89063,-2.70312 0.90625,-0.96875 2.34375,-0.96875 1.39062,0 2.26562,0.9375 0.875,0.9375 0.875,2.65625 0,0.10937 0,0.3125 h -5.15625 q 0.0625,1.14062 0.64063,1.75 0.57812,0.59375 1.4375,0.59375 0.65625,0 1.10937,-0.32813 0.45313,-0.34375 0.71875,-1.07812 z m -3.84375,-1.90625 h 3.85938 q -0.0781,-0.85938 -0.4375,-1.29688 -0.5625,-0.6875 -1.45313,-0.6875 -0.8125,0 -1.35937,0.54688 -0.54688,0.53125 -0.60938,1.4375 z m 6.50623,4.125 V 261.049 h 1.0625 v 1.04687 q 0.40625,-0.73437 0.73437,-0.96875 0.34375,-0.23437 0.76563,-0.23437 0.59375,0 1.20312,0.375 l -0.40625,1.07812 q -0.4375,-0.25 -0.85937,-0.25 -0.39063,0 -0.70313,0.23438 -0.29687,0.23437 -0.42187,0.64062 -0.20313,0.625 -0.20313,1.35938 v 3.625 z m 4.73523,0 v -6 h -1.03125 V 261.049 h 1.03125 v -0.73438 q 0,-0.70312 0.125,-1.04687 0.17187,-0.45313 0.59375,-0.73438 0.42187,-0.28125 1.20312,-0.28125 0.48438,0 1.09375,0.10938 l -0.1875,1.03125 q -0.35937,-0.0625 -0.6875,-0.0625 -0.53125,0 -0.75,0.23437 -0.21875,0.21875 -0.21875,0.84375 v 0.64063 h 1.34375 v 0.90625 h -1.34375 v 6 z m 2.98425,-3.45313 q 0,-1.92187 1.07812,-2.84375 0.89063,-0.76562 2.17188,-0.76562 1.42187,0 2.32812,0.9375 0.90625,0.92187 0.90625,2.57812 0,1.32813 -0.40625,2.09375 -0.39062,0.76563 -1.15625,1.1875 -0.76562,0.42188 -1.67187,0.42188 -1.45313,0 -2.35938,-0.92188 -0.89062,-0.9375 -0.89062,-2.6875 z m 1.20312,0 q 0,1.32813 0.57813,1.98438 0.59375,0.65625 1.46875,0.65625 0.875,0 1.45312,-0.65625 0.57813,-0.67188 0.57813,-2.03125 0,-1.28125 -0.59375,-1.9375 -0.57813,-0.65625 -1.4375,-0.65625 -0.875,0 -1.46875,0.65625 -0.57813,0.65625 -0.57813,1.98437 z m 6.63123,3.45313 V 261.049 h 1.0625 v 1.04687 q 0.40625,-0.73437 0.73437,-0.96875 0.34375,-0.23437 0.76563,-0.23437 0.59375,0 1.20312,0.375 l -0.40625,1.07812 q -0.4375,-0.25 -0.85937,-0.25 -0.39063,0 -0.70313,0.23438 -0.29687,0.23437 -0.42187,0.64062 -0.20313,0.625 -0.20313,1.35938 v 3.625 z m 4.45398,0 V 261.049 h 1.04687 v 0.96875 q 0.32813,-0.51563 0.85938,-0.8125 0.54687,-0.3125 1.23437,-0.3125 0.78125,0 1.26563,0.3125 0.48437,0.3125 0.6875,0.89062 0.82812,-1.20312 2.14062,-1.20312 1.03125,0 1.57813,0.57812 0.5625,0.5625 0.5625,1.73438 v 4.75 h -1.17188 v -4.35938 q 0,-0.70312 -0.125,-1 -0.10937,-0.3125 -0.40625,-0.5 -0.29687,-0.1875 -0.70312,-0.1875 -0.71875,0 -1.20313,0.48438 -0.48437,0.48437 -0.48437,1.54687 v 4.01563 h -1.17188 v -4.48438 q 0,-0.78125 -0.29687,-1.17187 -0.28125,-0.39063 -0.92188,-0.39063 -0.5,0 -0.92187,0.26563 -0.42188,0.25 -0.60938,0.75 -0.1875,0.5 -0.1875,1.45312 v 3.57813 z m 11.11807,-8.1875 v -1.35938 h 1.17188 v 1.35938 z m 0,8.1875 V 261.049 h 1.17188 v 6.90625 z m 2.94547,0 V 261.049 h 1.0625 v 0.98437 q 0.75,-1.14062 2.1875,-1.14062 0.625,0 1.15625,0.21875 0.53125,0.21875 0.78125,0.59375 0.26562,0.35937 0.375,0.85937 0.0625,0.32813 0.0625,1.14063 v 4.25 H 408.548 v -4.20313 q 0,-0.71875 -0.14062,-1.0625 -0.14063,-0.35937 -0.48438,-0.5625 -0.34375,-0.21875 -0.8125,-0.21875 -0.75,0 -1.29687,0.46875 -0.54688,0.46875 -0.54688,1.79688 v 3.78125 z m 7.19372,0.57812 1.14063,0.15625 q 0.0781,0.53125 0.40625,0.78125 0.4375,0.3125 1.1875,0.3125 0.8125,0 1.25,-0.32812 0.45312,-0.3125 0.60937,-0.90625 0.0937,-0.35938 0.0781,-1.5 -0.76563,0.90625 -1.90625,0.90625 -1.4375,0 -2.21875,-1.03125 -0.78125,-1.03125 -0.78125,-2.46875 0,-0.98438 0.35937,-1.8125 0.35938,-0.84375 1.03125,-1.29688 0.6875,-0.45312 1.60938,-0.45312 1.21875,0 2.01562,0.98437 V 261.049 h 1.07813 v 5.96875 q 0,1.60937 -0.32813,2.28125 -0.32812,0.6875 -1.04687,1.07812 -0.70313,0.39063 -1.75,0.39063 -1.23438,0 -2,-0.5625 -0.75,-0.5625 -0.73438,-1.67188 z m 0.98438,-4.15625 q 0,1.35938 0.53125,1.98438 0.54687,0.625 1.35937,0.625 0.79688,0 1.34375,-0.625 0.54688,-0.625 0.54688,-1.95313 0,-1.26562 -0.5625,-1.90625 -0.5625,-0.64062 -1.35938,-0.64062 -0.76562,0 -1.3125,0.64062 -0.54687,0.625 -0.54687,1.875 z"
     fill-rule="nonzero"
     id="path99" />
  <path
     fill="#000000"
     d="m 358.84085,280.50214 q 0,-1.92188 1.07812,-2.84375 0.89063,-0.76563 2.17188,-0.76563 1.42187,0 2.32812,0.9375 0.90625,0.92188 0.90625,2.57813 0,1.32812 -0.40625,2.09375 -0.39062,0.76562 -1.15625,1.1875 -0.76562,0.42187 -1.67187,0.42187 -1.45313,0 -2.35938,-0.92187 -0.89062,-0.9375 -0.89062,-2.6875 z m 1.20312,0 q 0,1.32812 0.57813,1.98437 0.59375,0.65625 1.46875,0.65625 0.875,0 1.45312,-0.65625 0.57813,-0.67187 0.57813,-2.03125 0,-1.28125 -0.59375,-1.9375 -0.57813,-0.65625 -1.4375,-0.65625 -0.875,0 -1.46875,0.65625 -0.57813,0.65625 -0.57813,1.98438 z m 6.64686,6.10937 v -9.5625 h 1.07812 v 0.89063 q 0.375,-0.53125 0.84375,-0.78125 0.48438,-0.26563 1.15625,-0.26563 0.875,0 1.54688,0.45313 0.6875,0.45312 1.03125,1.28125 0.34375,0.82812 0.34375,1.82812 0,1.04688 -0.375,1.90625 -0.375,0.84375 -1.10938,1.29688 -0.71875,0.45312 -1.53125,0.45312 -0.57812,0 -1.04687,-0.25 -0.46875,-0.25 -0.76563,-0.625 v 3.375 z m 1.0625,-6.07812 q 0,1.34375 0.53125,1.98437 0.54687,0.625 1.3125,0.625 0.78125,0 1.34375,-0.65625 0.5625,-0.65625 0.5625,-2.04687 0,-1.3125 -0.54688,-1.96875 -0.54687,-0.67188 -1.29687,-0.67188 -0.75,0 -1.32813,0.70313 -0.57812,0.70312 -0.57812,2.03125 z m 11.08435,1.20312 1.20312,0.14063 q -0.28125,1.0625 -1.0625,1.65625 -0.76562,0.57812 -1.96875,0.57812 -1.51562,0 -2.40625,-0.9375 -0.89062,-0.9375 -0.89062,-2.60937 0,-1.75 0.89062,-2.70313 0.90625,-0.96875 2.34375,-0.96875 1.39063,0 2.26563,0.9375 0.875,0.9375 0.875,2.65625 0,0.10938 0,0.3125 h -5.15625 q 0.0625,1.14063 0.64062,1.75 0.57813,0.59375 1.4375,0.59375 0.65625,0 1.10938,-0.32812 0.45312,-0.34375 0.71875,-1.07813 z m -3.84375,-1.90625 h 3.85937 q -0.0781,-0.85937 -0.4375,-1.29687 -0.5625,-0.6875 -1.45312,-0.6875 -0.8125,0 -1.35938,0.54687 -0.54687,0.53125 -0.60937,1.4375 z m 6.50622,4.125 v -6.90625 h 1.0625 v 1.04688 q 0.40625,-0.73438 0.73438,-0.96875 0.34375,-0.23438 0.76562,-0.23438 0.59375,0 1.20313,0.375 l -0.40625,1.07813 q -0.4375,-0.25 -0.85938,-0.25 -0.39062,0 -0.70312,0.23437 -0.29688,0.23438 -0.42188,0.64063 -0.20312,0.625 -0.20312,1.35937 v 3.625 z m 8.96964,-0.85937 q -0.65625,0.5625 -1.26563,0.79687 -0.59375,0.21875 -1.28125,0.21875 -1.14062,0 -1.75,-0.54687 -0.60937,-0.5625 -0.60937,-1.4375 0,-0.5 0.21875,-0.92188 0.23437,-0.42187 0.60937,-0.67187 0.375,-0.25 0.84375,-0.39063 0.34375,-0.0781 1.04688,-0.17187 1.42187,-0.17188 2.09375,-0.40625 0,-0.23438 0,-0.29688 0,-0.71875 -0.32813,-1.01562 -0.45312,-0.39063 -1.34375,-0.39063 -0.8125,0 -1.21875,0.29688 -0.39062,0.28125 -0.57812,1.01562 l -1.14063,-0.15625 q 0.15625,-0.73437 0.51563,-1.1875 0.35937,-0.45312 1.03125,-0.6875 0.67187,-0.25 1.5625,-0.25 0.89062,0 1.4375,0.20313 0.5625,0.20312 0.8125,0.53125 0.26562,0.3125 0.375,0.79687 0.0469,0.29688 0.0469,1.07813 v 1.5625 q 0,1.625 0.0781,2.0625 0.0781,0.4375 0.29687,0.82812 h -1.21875 q -0.1875,-0.35937 -0.23437,-0.85937 z m -0.0937,-2.60938 q -0.64063,0.26563 -1.92188,0.4375 -0.71875,0.10938 -1.01562,0.25 -0.29688,0.125 -0.46875,0.375 -0.15625,0.25 -0.15625,0.54688 0,0.46875 0.34375,0.78125 0.35937,0.3125 1.04687,0.3125 0.67188,0 1.20313,-0.29688 0.53125,-0.29687 0.78125,-0.8125 0.1875,-0.39062 0.1875,-1.17187 z m 5.5531,2.42188 0.17187,1.03125 q -0.5,0.10937 -0.89062,0.10937 -0.64063,0 -1,-0.20312 -0.34375,-0.20313 -0.48438,-0.53125 -0.14062,-0.32813 -0.14062,-1.39063 v -3.96875 h -0.85938 v -0.90625 h 0.85938 v -1.71875 l 1.17187,-0.70312 v 2.42187 h 1.17188 v 0.90625 h -1.17188 v 4.04688 q 0,0.5 0.0469,0.64062 0.0625,0.14063 0.20312,0.23438 0.14063,0.0781 0.40625,0.0781 0.20313,0 0.51563,-0.0469 z m 1.1561,-7.14063 v -1.35937 h 1.17187 v 1.35937 z m 0,8.1875 v -6.90625 h 1.17187 v 6.90625 z m 2.50796,-3.45312 q 0,-1.92188 1.07813,-2.84375 0.89062,-0.76563 2.17187,-0.76563 1.42188,0 2.32813,0.9375 0.90625,0.92188 0.90625,2.57813 0,1.32812 -0.40625,2.09375 -0.39063,0.76562 -1.15625,1.1875 -0.76563,0.42187 -1.67188,0.42187 -1.45312,0 -2.35937,-0.92187 -0.89063,-0.9375 -0.89063,-2.6875 z m 1.20313,0 q 0,1.32812 0.57812,1.98437 0.59375,0.65625 1.46875,0.65625 0.875,0 1.45313,-0.65625 0.57812,-0.67187 0.57812,-2.03125 0,-1.28125 -0.59375,-1.9375 -0.57812,-0.65625 -1.4375,-0.65625 -0.875,0 -1.46875,0.65625 -0.57812,0.65625 -0.57812,1.98438 z m 6.64685,3.45312 v -6.90625 h 1.0625 v 0.98438 q 0.75,-1.14063 2.1875,-1.14063 0.625,0 1.15625,0.21875 0.53125,0.21875 0.78125,0.59375 0.26562,0.35938 0.375,0.85938 0.0625,0.32812 0.0625,1.14062 v 4.25 h -1.17188 v -4.20312 q 0,-0.71875 -0.14062,-1.0625 -0.14063,-0.35938 -0.48438,-0.5625 -0.34375,-0.21875 -0.8125,-0.21875 -0.75,0 -1.29687,0.46875 -0.54688,0.46875 -0.54688,1.79687 v 3.78125 z"
     fill-rule="nonzero"
     id="path101" />
  <path
     fill="#fff2cc"
     d="M 10.072179,248.13164 H 148.24541 V 294.1789 H 10.072179 Z"
     fill-rule="evenodd"
     id="path103" />
  <path
     fill="#000000"
     d="m 27.45272,267.76776 v -1.35938 h 1.171875 v 1.35938 z m 0,8.1875 v -6.90625 h 1.171875 v 6.90625 z m 2.945465,0 v -6.90625 h 1.0625 v 0.98437 q 0.75,-1.14062 2.1875,-1.14062 0.625,0 1.15625,0.21875 0.53125,0.21875 0.78125,0.59375 0.265625,0.35937 0.375,0.85937 0.0625,0.32813 0.0625,1.14063 v 4.25 H 34.85131 v -4.20313 q 0,-0.71875 -0.140625,-1.0625 -0.140625,-0.35937 -0.484375,-0.5625 -0.34375,-0.21875 -0.8125,-0.21875 -0.75,0 -1.296875,0.46875 -0.546875,0.46875 -0.546875,1.79688 v 3.78125 z m 7.428101,-8.1875 v -1.35938 h 1.171875 v 1.35938 z m 0,8.1875 v -6.90625 h 1.171875 v 6.90625 z m 5.507965,-1.04688 0.171875,1.03125 q -0.5,0.10938 -0.890625,0.10938 -0.640625,0 -1,-0.20313 -0.34375,-0.20312 -0.484375,-0.53125 -0.140625,-0.32812 -0.140625,-1.39062 v -3.96875 h -0.859375 v -0.90625 h 0.859375 v -1.71875 l 1.171875,-0.70313 v 2.42188 h 1.171875 v 0.90625 h -1.171875 v 4.04687 q 0,0.5 0.04687,0.64063 0.0625,0.14062 0.203125,0.23437 0.140625,0.0781 0.40625,0.0781 0.203125,0 0.515625,-0.0469 z m 1.156112,-7.14062 v -1.35938 h 1.171875 v 1.35938 z m 0,8.1875 v -6.90625 h 1.171875 v 6.90625 z m 7.46109,-0.85938 q -0.65625,0.5625 -1.265625,0.79688 -0.59375,0.21875 -1.28125,0.21875 -1.140625,0 -1.75,-0.54688 -0.609375,-0.5625 -0.609375,-1.4375 0,-0.5 0.21875,-0.92187 0.234375,-0.42188 0.609375,-0.67188 0.375,-0.25 0.84375,-0.39062 0.34375,-0.0781 1.046875,-0.17188 1.421875,-0.17187 2.09375,-0.40625 0,-0.23437 0,-0.29687 0,-0.71875 -0.328125,-1.01563 -0.453125,-0.39062 -1.34375,-0.39062 -0.8125,0 -1.21875,0.29687 -0.390625,0.28125 -0.578125,1.01563 l -1.140625,-0.15625 q 0.15625,-0.73438 0.515625,-1.1875 0.359375,-0.45313 1.03125,-0.6875 0.671875,-0.25 1.5625,-0.25 0.890625,0 1.4375,0.20312 0.5625,0.20313 0.8125,0.53125 0.265625,0.3125 0.375,0.79688 0.04687,0.29687 0.04687,1.07812 v 1.5625 q 0,1.625 0.07813,2.0625 0.07813,0.4375 0.296875,0.82813 h -1.21875 q -0.1875,-0.35938 -0.234375,-0.85938 z m -0.09375,-2.60937 q -0.640625,0.26562 -1.921875,0.4375 -0.71875,0.10937 -1.015625,0.25 -0.296875,0.125 -0.46875,0.375 -0.15625,0.25 -0.15625,0.54687 0,0.46875 0.34375,0.78125 0.359375,0.3125 1.046875,0.3125 0.671875,0 1.203125,-0.29687 0.53125,-0.29688 0.78125,-0.8125 0.1875,-0.39063 0.1875,-1.17188 z m 2.974976,3.46875 v -9.54688 h 1.171875 v 9.54688 z m 6.210953,-2.0625 1.15625,-0.1875 q 0.109375,0.70312 0.546875,1.07812 0.453125,0.35938 1.25,0.35938 0.8125,0 1.203125,-0.32813 0.390625,-0.32812 0.390625,-0.76562 0,-0.39063 -0.359375,-0.625 -0.234375,-0.15625 -1.1875,-0.39063 -1.296875,-0.32812 -1.796875,-0.5625 -0.484375,-0.25 -0.75,-0.65625 -0.25,-0.42187 -0.25,-0.9375 0,-0.45312 0.203125,-0.84375 0.21875,-0.40625 0.578125,-0.67187 0.28125,-0.1875 0.75,-0.32813 0.46875,-0.14062 1.015625,-0.14062 0.8125,0 1.421875,0.23437 0.609375,0.23438 0.90625,0.64063 0.296875,0.39062 0.40625,1.0625 l -1.140625,0.15625 q -0.07813,-0.53125 -0.453125,-0.82813 -0.375,-0.3125 -1.0625,-0.3125 -0.8125,0 -1.15625,0.26563 -0.34375,0.26562 -0.34375,0.625 0,0.23437 0.140625,0.42187 0.15625,0.1875 0.453125,0.3125 0.171875,0.0625 1.03125,0.29688 1.25,0.32812 1.734375,0.54687 0.5,0.20313 0.78125,0.60938 0.28125,0.40625 0.28125,1 0,0.59375 -0.34375,1.10937 -0.34375,0.51563 -1,0.79688 -0.640625,0.28125 -1.453125,0.28125 -1.34375,0 -2.046875,-0.5625 -0.703125,-0.5625 -0.90625,-1.65625 z m 11.867187,-0.15625 1.203125,0.14062 q -0.28125,1.0625 -1.0625,1.65625 -0.765625,0.57813 -1.96875,0.57813 -1.515625,0 -2.40625,-0.9375 -0.890625,-0.9375 -0.890625,-2.60938 0,-1.75 0.890625,-2.70312 0.90625,-0.96875 2.34375,-0.96875 1.390625,0 2.265625,0.9375 0.875,0.9375 0.875,2.65625 0,0.10937 0,0.3125 h -5.15625 q 0.0625,1.14062 0.640625,1.75 0.578125,0.59375 1.4375,0.59375 0.65625,0 1.109375,-0.32813 0.453125,-0.34375 0.71875,-1.07812 z m -3.84375,-1.90625 h 3.859375 q -0.07813,-0.85938 -0.4375,-1.29688 -0.5625,-0.6875 -1.453125,-0.6875 -0.8125,0 -1.359375,0.54688 -0.546875,0.53125 -0.609375,1.4375 z m 11.037476,1.59375 1.15625,0.15625 q -0.1875,1.1875 -0.96875,1.85937 -0.78125,0.67188 -1.921875,0.67188 -1.40625,0 -2.28125,-0.92188 -0.859375,-0.9375 -0.859375,-2.65625 0,-1.125 0.375,-1.96875 0.375,-0.84375 1.125,-1.25 0.765625,-0.42187 1.65625,-0.42187 1.125,0 1.84375,0.57812 0.71875,0.5625 0.921875,1.60938 l -1.140625,0.17187 q -0.171875,-0.70312 -0.59375,-1.04687 -0.40625,-0.35938 -0.984375,-0.35938 -0.890625,0 -1.453125,0.64063 -0.546875,0.64062 -0.546875,2 0,1.40625 0.53125,2.03125 0.546875,0.625 1.40625,0.625 0.6875,0 1.140625,-0.42188 0.46875,-0.42187 0.59375,-1.29687 z m 6.679688,2.53125 v -1.01563 q -0.8125,1.17188 -2.1875,1.17188 -0.609375,0 -1.140625,-0.23438 -0.53125,-0.23437 -0.796875,-0.57812 -0.25,-0.35938 -0.359375,-0.875 -0.0625,-0.34375 -0.0625,-1.09375 v -4.28125 h 1.171875 v 3.82812 q 0,0.92188 0.0625,1.23438 0.109375,0.46875 0.46875,0.73437 0.359375,0.25 0.890625,0.25 0.515625,0 0.984375,-0.26562 0.46875,-0.26563 0.65625,-0.73438 0.1875,-0.46875 0.1875,-1.34375 v -3.70312 h 1.171875 v 6.90625 z m 2.8656,0 v -6.90625 h 1.0625 v 1.04687 q 0.40625,-0.73437 0.734375,-0.96875 0.34375,-0.23437 0.765625,-0.23437 0.59375,0 1.203125,0.375 l -0.40625,1.07812 q -0.4375,-0.25 -0.859375,-0.25 -0.390625,0 -0.703125,0.23438 -0.296875,0.23437 -0.421875,0.64062 -0.203125,0.625 -0.203125,1.35938 v 3.625 z m 9.18837,-2.21875 1.203127,0.14062 q -0.281252,1.0625 -1.062502,1.65625 -0.765625,0.57813 -1.96875,0.57813 -1.515625,0 -2.40625,-0.9375 -0.890625,-0.9375 -0.890625,-2.60938 0,-1.75 0.890625,-2.70312 0.90625,-0.96875 2.34375,-0.96875 1.390625,0 2.265625,0.9375 0.874997,0.9375 0.874997,2.65625 0,0.10937 0,0.3125 h -5.156247 q 0.0625,1.14062 0.640625,1.75 0.578125,0.59375 1.4375,0.59375 0.65625,0 1.109375,-0.32813 0.453125,-0.34375 0.71875,-1.07812 z m -3.84375,-1.90625 h 3.859375 q -0.07813,-0.85938 -0.4375,-1.29688 -0.5625,-0.6875 -1.453125,-0.6875 -0.8125,0 -1.359375,0.54688 -0.546875,0.53125 -0.609375,1.4375 z m 11.506087,4.125 -2.125,-6.90625 h 1.21875 l 1.09375,3.98437 0.42188,1.48438 q 0.0156,-0.10938 0.35937,-1.42188 l 1.09375,-4.04687 h 1.20313 l 1.03125,4 0.34375,1.32812 0.40625,-1.34375 1.17187,-3.98437 h 1.14063 l -2.15625,6.90625 h -1.21875 l -1.09375,-4.14063 -0.26563,-1.17187 -1.40625,5.3125 z m 8.35953,-8.1875 v -1.35938 h 1.17187 v 1.35938 z m 0,8.1875 v -6.90625 h 1.17187 v 6.90625 z m 2.94546,2.65625 v -9.5625 h 1.07813 v 0.89062 q 0.375,-0.53125 0.84375,-0.78125 0.48437,-0.26562 1.15625,-0.26562 0.875,0 1.54687,0.45312 0.6875,0.45313 1.03125,1.28125 0.34375,0.82813 0.34375,1.82813 0,1.04687 -0.375,1.90625 -0.375,0.84375 -1.10937,1.29687 -0.71875,0.45313 -1.53125,0.45313 -0.57813,0 -1.04688,-0.25 -0.46875,-0.25 -0.76562,-0.625 v 3.375 z m 1.0625,-6.07813 q 0,1.34375 0.53125,1.98438 0.54688,0.625 1.3125,0.625 0.78125,0 1.34375,-0.65625 0.5625,-0.65625 0.5625,-2.04688 0,-1.3125 -0.54687,-1.96875 -0.54688,-0.67187 -1.29688,-0.67187 -0.75,0 -1.32812,0.70312 -0.57813,0.70313 -0.57813,2.03125 z m 11.08435,1.20313 1.20312,0.14062 q -0.28125,1.0625 -1.0625,1.65625 -0.76562,0.57813 -1.96875,0.57813 -1.51562,0 -2.40624,-0.9375 -0.89063,-0.9375 -0.89063,-2.60938 0,-1.75 0.89063,-2.70312 0.90625,-0.96875 2.34374,-0.96875 1.39063,0 2.26563,0.9375 0.875,0.9375 0.875,2.65625 0,0.10937 0,0.3125 h -5.15625 q 0.0625,1.14062 0.64063,1.75 0.57812,0.59375 1.43749,0.59375 0.65625,0 1.10938,-0.32813 0.45312,-0.34375 0.71875,-1.07812 z m -3.84375,-1.90625 h 3.85937 q -0.0781,-0.85938 -0.4375,-1.29688 -0.5625,-0.6875 -1.45312,-0.6875 -0.8125,0 -1.35937,0.54688 -0.54688,0.53125 -0.60938,1.4375 z"
     fill-rule="nonzero"
     id="path105" />
</svg>
