<svg version="1.1" viewBox="0.0 0.0 8478.325459317586 3560.3123359580054" fill="none" stroke="none" stroke-linecap="square" stroke-miterlimit="10" xmlns:xlink="http://www.w3.org/1999/xlink" xmlns="http://www.w3.org/2000/svg"><clipPath id="p.0"><path d="m0 0l8478.325 0l0 3560.3123l-8478.325 0l0 -3560.3123z" clip-rule="nonzero"/></clipPath><g clip-path="url(#p.0)"><path fill="#000000" fill-opacity="0.0" d="m0 0l8478.325 0l0 3560.3123l-8478.325 0z" fill-rule="evenodd"/><path fill="#d9d2e9" d="m3315.1758 2731.5747l901.2915 0l0 544.6301l-901.2915 0z" fill-rule="evenodd"/><path fill="#fce5cd" d="m4216.4673 2731.5747l2138.7085 0l0 544.6301l-2138.7085 0z" fill-rule="evenodd"/><path fill="#000000" fill-opacity="0.0" d="m3344.4673 2731.5757l3010.7085 0l0 544.6299l-3010.7085 0z" fill-rule="evenodd"/><path stroke="#434343" stroke-width="16.0" stroke-linejoin="round" stroke-linecap="butt" d="m3344.4673 2731.5757l3010.7085 0l0 544.6299l-3010.7085 0z" fill-rule="evenodd"/><path fill="#d9d2e9" d="m302.18896 546.34735l3010.7087 0l0 544.62994l-3010.7087 0z" fill-rule="evenodd"/><path stroke="#351c75" stroke-width="16.0" stroke-linejoin="round" stroke-linecap="butt" d="m302.18896 546.34735l3010.7087 0l0 544.62994l-3010.7087 0z" fill-rule="evenodd"/><path fill="#434343" d="m1723.5043 882.1223l-27.9375 -91.265625l15.984375 0l14.53125 52.671875l5.40625 19.59375q0.34375 -1.453125 4.734375 -18.8125l14.515625 -53.453125l15.90625 0l13.65625 52.9375l4.5625 17.4375l5.234375 -17.609375l15.640625 -52.765625l15.046875 0l-28.53125 91.265625l-16.078125 0l-14.515625 -54.65625l-3.53125 -15.5625l-18.46875 70.21875l-16.15625 0zm164.22656 0l-15.46875 0l0 -98.578125q-5.59375 5.328125 -14.65625 10.65625q-9.0625 5.328125 -16.28125 8.0l0 -14.953125q12.96875 -6.109375 22.671875 -14.78125q9.71875 -8.6875 13.765625 -16.84375l9.96875 0l0 126.5z" fill-rule="nonzero"/><path fill="#fce5cd" d="m3342.189 546.34735l3010.7085 0l0 544.62994l-3010.7085 0z" fill-rule="evenodd"/><path stroke="#783f04" stroke-width="16.0" stroke-linejoin="round" stroke-linecap="butt" d="m3342.189 546.34735l3010.7085 0l0 544.62994l-3010.7085 0z" fill-rule="evenodd"/><path fill="#434343" d="m4763.5044 882.1223l-27.9375 -91.265625l15.984375 0l14.53125 52.671875l5.40625 19.59375q0.34375 -1.453125 4.734375 -18.8125l14.515625 -53.453125l15.90625 0l13.65625 52.9375l4.5625 17.4375l5.234375 -17.609375l15.640625 -52.765625l15.046875 0l-28.53125 91.265625l-16.078125 0l-14.515625 -54.65625l-3.53125 -15.5625l-18.46875 70.21875l-16.15625 0zm187.25781 -14.875l0 14.875l-83.28125 0q-0.171875 -5.59375 1.8125 -10.75q3.171875 -8.5 10.171875 -16.75q7.015625 -8.25 20.25 -19.078125q20.53125 -16.84375 27.75 -26.6875q7.21875 -9.84375 7.21875 -18.609375q0 -9.1875 -6.578125 -15.5q-6.5625 -6.328125 -17.140625 -6.328125q-11.171875 0 -17.875 6.703125q-6.703125 6.703125 -6.78125 18.5625l-15.90625 -1.625q1.640625 -17.796875 12.296875 -27.109375q10.65625 -9.328125 28.609375 -9.328125q18.140625 0 28.703125 10.0625q10.578125 10.046875 10.578125 24.90625q0 7.5625 -3.09375 14.875q-3.09375 7.296875 -10.28125 15.375q-7.171875 8.078125 -23.84375 22.171875q-13.921875 11.6875 -17.875 15.859375q-3.953125 4.171875 -6.53125 8.375l61.796875 0z" fill-rule="nonzero"/><path fill="#d9d2e9" d="m1177.6326 1638.9615l3010.7087 0l0 544.62976l-3010.7087 0z" fill-rule="evenodd"/><path stroke="#351c75" stroke-width="16.0" stroke-linejoin="round" stroke-linecap="butt" d="m1177.6326 1638.9615l3010.7087 0l0 544.62976l-3010.7087 0z" fill-rule="evenodd"/><path fill="#434343" d="m2598.9478 1974.7365l-27.9375 -91.265625l15.984375 0l14.53125 52.671875l5.40625 19.59375q0.34375 -1.453125 4.734375 -18.8125l14.515625 -53.453125l15.90625 0l13.65625 52.9375l4.5625 17.4375l5.234375 -17.609375l15.640625 -52.765625l15.046875 0l-28.53125 91.265625l-16.078125 0l-14.515625 -54.65625l-3.53125 -15.5625l-18.46875 70.21875l-16.15625 0zm164.22656 0l-15.46875 0l0 -98.578125q-5.59375 5.328125 -14.65625 10.65625q-9.0625 5.328125 -16.28125 8.0l0 -14.953125q12.96875 -6.109375 22.671875 -14.78125q9.71875 -8.6875 13.765625 -16.84375l9.96875 0l0 126.5z" fill-rule="nonzero"/><path fill="#fce5cd" d="m4217.6323 1638.9606l2138.709 0l0 544.63l-2138.709 0z" fill-rule="evenodd"/><path stroke="#783f04" stroke-width="16.0" stroke-linejoin="round" stroke-linecap="butt" d="m4217.6323 1638.9606l2138.709 0l0 544.63l-2138.709 0z" fill-rule="evenodd"/><path fill="#434343" d="m5202.9478 1974.7356l-27.9375 -91.265625l15.984375 0l14.53125 52.671875l5.40625 19.59375q0.34375 -1.453125 4.734375 -18.8125l14.515625 -53.453125l15.90625 0l13.65625 52.9375l4.5625 17.4375l5.234375 -17.609375l15.640625 -52.765625l15.046875 0l-28.53125 91.265625l-16.078125 0l-14.515625 -54.65625l-3.53125 -15.5625l-18.46875 70.21875l-16.15625 0zm187.25781 -14.875l0 14.875l-83.28125 0q-0.171875 -5.59375 1.8125 -10.75q3.171875 -8.5 10.171875 -16.75q7.015625 -8.25 20.25 -19.078125q20.53125 -16.84375 27.75 -26.6875q7.21875 -9.84375 7.21875 -18.609375q0 -9.1875 -6.578125 -15.5q-6.5625 -6.328125 -17.140625 -6.328125q-11.171875 0 -17.875 6.703125q-6.703125 6.703125 -6.78125 18.5625l-15.90625 -1.625q1.640625 -17.796875 12.296875 -27.109375q10.65625 -9.328125 28.609375 -9.328125q18.140625 0 28.703125 10.0625q10.578125 10.046875 10.578125 24.90625q0 7.5625 -3.09375 14.875q-3.09375 7.296875 -10.28125 15.375q-7.171875 8.078125 -23.84375 22.171875q-13.921875 11.6875 -17.875 15.859375q-3.953125 4.171875 -6.53125 8.375l61.796875 0z" fill-rule="nonzero"/><path fill="#000000" fill-opacity="0.0" d="m296.5643 250.34645l-5.7952576 3314.3938" fill-rule="evenodd"/><path stroke="#434343" stroke-width="16.0" stroke-linejoin="round" stroke-linecap="butt" stroke-dasharray="64.0,48.0" d="m296.5643 250.34645l-5.7952576 3314.3938" fill-rule="evenodd"/><path fill="#000000" fill-opacity="0.0" d="m3328.5642 258.34647l0 3305.8584" fill-rule="evenodd"/><path stroke="#434343" stroke-width="16.0" stroke-linejoin="round" stroke-linecap="butt" stroke-dasharray="64.0,48.0" d="m3328.5642 258.34647l0 3305.8584" fill-rule="evenodd"/><path fill="#000000" fill-opacity="0.0" d="m6352.8975 250.34645l0 3331.7166" fill-rule="evenodd"/><path stroke="#434343" stroke-width="16.0" stroke-linejoin="round" stroke-linecap="butt" stroke-dasharray="64.0,48.0" d="m6352.8975 250.34645l0 3331.7166" fill-rule="evenodd"/><path fill="#000000" fill-opacity="0.0" d="m4189.113 2887.5432l1321.4175 0l0 232.69312l-1321.4175 0z" fill-rule="evenodd"/><path fill="#434343" d="m4765.7827 3065.5034l-27.9375 -91.265625l15.984375 0l14.53125 52.671875l5.40625 19.59375q0.34375 -1.453125 4.734375 -18.8125l14.515625 -53.453125l15.90625 0l13.65625 52.9375l4.5625 17.4375l5.234375 -17.609375l15.640625 -52.765625l15.046875 0l-28.53125 91.265625l-16.078125 0l-14.515625 -54.65625l-3.53125 -15.5625l-18.46875 70.21875l-16.15625 0zm106.03906 -33.265625l15.46875 -2.0625q2.671875 13.15625 9.0625 18.953125q6.40625 5.796875 15.609375 5.796875q10.90625 0 18.421875 -7.5625q7.53125 -7.5625 7.53125 -18.734375q0 -10.65625 -6.96875 -17.5625q-6.953125 -6.921875 -17.703125 -6.921875q-4.375 0 -10.90625 1.71875l1.71875 -13.578125q1.546875 0.171875 2.484375 0.171875q9.890625 0 17.796875 -5.15625q7.90625 -5.15625 7.90625 -15.90625q0 -8.5 -5.765625 -14.078125q-5.75 -5.59375 -14.859375 -5.59375q-9.03125 0 -15.046875 5.671875q-6.015625 5.671875 -7.734375 17.015625l-15.46875 -2.75q2.84375 -15.5625 12.890625 -24.109375q10.0625 -8.546875 25.015625 -8.546875q10.3125 0 18.984375 4.421875q8.6875 4.421875 13.28125 12.078125q4.59375 7.640625 4.59375 16.234375q0 8.171875 -4.390625 14.875q-4.375 6.703125 -12.96875 10.65625q11.171875 2.578125 17.359375 10.703125q6.1875 8.109375 6.1875 20.3125q0 16.5 -12.03125 27.984375q-12.03125 11.46875 -30.421875 11.46875q-16.578125 0 -27.546875 -9.875q-10.953125 -9.890625 -12.5 -25.625z" fill-rule="nonzero"/><path fill="#000000" fill-opacity="0.0" d="m628.77954 162.42783l901.2914 0l0 42.015747l-901.2914 0z" fill-rule="evenodd"/><path fill="#000000" fill-opacity="0.0" d="m-339.22833 0l1321.4172 0l0 232.69292l-1321.4172 0z" fill-rule="evenodd"/><path fill="#434343" d="m20.57799 144.95999l16.234373 -1.375q1.8125 11.859375 8.375 17.828125q6.578125 5.96875 15.859375 5.96875q11.171875 0 18.90625 -8.421875q7.734375 -8.421875 7.734375 -22.34375q0 -13.234375 -7.4375 -20.875q-7.421875 -7.65625 -19.453125 -7.65625q-7.484375 0 -13.5 3.40625q-6.015625 3.390625 -9.453125 8.796875l-14.515623 -1.890625l12.203123 -64.703125l62.640625 0l0 14.78125l-50.265625 0l-6.796875 33.859375q11.34375 -7.90625 23.8125 -7.90625q16.5 0 27.84375 11.4375q11.34375 11.421875 11.34375 29.375q0 17.109375 -9.96875 29.5625q-12.125 15.3125 -33.09375 15.3125q-17.1875 0 -28.0625 -9.625q-10.859373 -9.640625 -12.406248 -25.53125zm156.14844 33.0l-15.46875 0l0 -98.578125q-5.59375 5.328125 -14.65625 10.65625q-9.0625 5.328125 -16.28125 8.0l0 -14.953125q12.96875 -6.109375 22.671875 -14.78125q9.71875 -8.6875 13.765625 -16.84375l9.96875 0l0 126.5zm120.91408 -14.875l0 14.875l-83.281265 0q-0.171875 -5.59375 1.8125 -10.75q3.171875 -8.5 10.171875 -16.75q7.015625 -8.25 20.25 -19.078125q20.531265 -16.84375 27.750015 -26.6875q7.21875 -9.84375 7.21875 -18.609375q0 -9.1875 -6.578125 -15.5q-6.5625 -6.328125 -17.140625 -6.328125q-11.17189 0 -17.875015 6.703125q-6.703125 6.703125 -6.78125 18.5625l-15.90625 -1.625q1.640625 -17.796875 12.296875 -27.109375q10.65625 -9.328125 28.60939 -9.328125q18.140625 0 28.703125 10.0625q10.578125 10.046875 10.578125 24.90625q0 7.5625 -3.09375 14.875q-3.09375 7.296875 -10.28125 15.375q-7.171875 8.078125 -23.84375 22.171875q-13.92189 11.6875 -17.875015 15.859375q-3.953125 4.171875 -6.53125 8.375l61.79689 0zm84.046875 14.875l-14.359375 0l0 -125.984375l15.46875 0l0 44.9375q9.796875 -12.28125 25.015625 -12.28125q8.421875 0 15.9375 3.390625q7.515625 3.390625 12.375 9.546875q4.859375 6.140625 7.609375 14.828125q2.75 8.671875 2.75 18.546875q0 23.46875 -11.609375 36.28125q-11.59375 12.796875 -27.84375 12.796875q-16.15625 0 -25.34375 -13.5l0 11.4375zm-0.171875 -46.328125q0 16.421875 4.46875 23.71875q7.296875 11.953125 19.765625 11.953125q10.140625 0 17.53125 -8.8125q7.390625 -8.8125 7.390625 -26.25q0 -17.875 -7.09375 -26.375q-7.09375 -8.515625 -17.140625 -8.515625q-10.140625 0 -17.53125 8.8125q-7.390625 8.796875 -7.390625 25.46875zm83.86719 -61.875l0 -17.78125l15.46875 0l0 17.78125l-15.46875 0zm0 108.203125l0 -91.265625l15.46875 0l0 91.265625l-15.46875 0zm72.78906 -13.84375l2.234375 13.671875q-6.53125 1.375 -11.6875 1.375q-8.421875 0 -13.0625 -2.65625q-4.640625 -2.671875 -6.53125 -7.015625q-1.890625 -4.34375 -1.890625 -18.265625l0 -52.5l-11.34375 0l0 -12.03125l11.34375 0l0 -22.609375l15.390625 -9.28125l0 31.890625l15.546875 0l0 12.03125l-15.546875 0l0 53.359375q0 6.625 0.8125 8.515625q0.8125 1.890625 2.65625 3.015625q1.859375 1.109375 5.296875 1.109375q2.578125 0 6.78125 -0.609375zm8.9453125 -13.40625l15.296875 -2.40625q1.28125 9.203125 7.171875 14.109375q5.890625 4.890625 16.453125 4.890625q10.65625 0 15.8125 -4.34375q5.15625 -4.34375 5.15625 -10.1875q0 -5.234375 -4.546875 -8.25q-3.1875 -2.0625 -15.8125 -5.234375q-17.015625 -4.296875 -23.59375 -7.4375q-6.578125 -3.140625 -9.96875 -8.671875q-3.390625 -5.546875 -3.390625 -12.25q0 -6.109375 2.78125 -11.296875q2.796875 -5.203125 7.609375 -8.640625q3.609375 -2.671875 9.84375 -4.515625q6.234375 -1.84375 13.359375 -1.84375q10.75 0 18.859375 3.09375q8.125 3.09375 11.984375 8.375q3.875 5.28125 5.34375 14.140625l-15.125 2.0625q-1.03125 -7.046875 -5.984375 -11.0q-4.9375 -3.953125 -13.953125 -3.953125q-10.65625 0 -15.21875 3.53125q-4.546875 3.515625 -4.546875 8.234375q0 3.015625 1.890625 5.421875q1.890625 2.484375 5.921875 4.125q2.328125 0.859375 13.671875 3.953125q16.40625 4.375 22.890625 7.171875q6.5 2.796875 10.1875 8.125q3.703125 5.328125 3.703125 13.234375q0 7.734375 -4.515625 14.5625q-4.515625 6.828125 -13.03125 10.578125q-8.5 3.734375 -19.234375 3.734375q-17.796875 0 -27.125 -7.390625q-9.3125 -7.390625 -11.890625 -21.921875z" fill-rule="nonzero"/><path fill="#000000" fill-opacity="0.0" d="m2732.7717 0l1321.4172 0l0 232.69292l-1321.4172 0z" fill-rule="evenodd"/><path fill="#434343" d="m3173.8748 163.08499l0 14.875l-83.28125 0q-0.171875 -5.59375 1.8125 -10.75q3.171875 -8.5 10.171875 -16.75q7.015625 -8.25 20.25 -19.078125q20.53125 -16.84375 27.75 -26.6875q7.21875 -9.84375 7.21875 -18.609375q0 -9.1875 -6.578125 -15.5q-6.5625 -6.328125 -17.140625 -6.328125q-11.171875 0 -17.875 6.703125q-6.703125 6.703125 -6.78125 18.5625l-15.90625 -1.625q1.640625 -17.796875 12.296875 -27.109375q10.65625 -9.328125 28.609375 -9.328125q18.140625 0 28.703125 10.0625q10.578125 10.046875 10.578125 24.90625q0 7.5625 -3.09375 14.875q-3.09375 7.296875 -10.28125 15.375q-7.171875 8.078125 -23.84375 22.171875q-13.921875 11.6875 -17.875 15.859375q-3.953125 4.171875 -6.53125 8.375l61.796875 0zm16.585938 -18.125l16.234375 -1.375q1.8125 11.859375 8.375 17.828125q6.578125 5.96875 15.859375 5.96875q11.171875 0 18.90625 -8.421875q7.734375 -8.421875 7.734375 -22.34375q0 -13.234375 -7.4375 -20.875q-7.421875 -7.65625 -19.453125 -7.65625q-7.484375 0 -13.5 3.40625q-6.015625 3.390625 -9.453125 8.796875l-14.515625 -1.890625l12.203125 -64.703125l62.640625 0l0 14.78125l-50.265625 0l-6.796875 33.859375q11.34375 -7.90625 23.8125 -7.90625q16.5 0 27.84375 11.4375q11.34375 11.421875 11.34375 29.375q0 17.109375 -9.96875 29.5625q-12.125 15.3125 -33.09375 15.3125q-17.1875 0 -28.0625 -9.625q-10.859375 -9.640625 -12.40625 -25.53125zm178.14844 -62.140625l-15.390625 1.203125q-2.0625 -9.109375 -5.84375 -13.234375q-6.265625 -6.609375 -15.46875 -6.609375q-7.390625 0 -12.96875 4.125q-7.3125 5.328125 -11.53125 15.5625q-4.203125 10.21875 -4.375 29.125q5.59375 -8.515625 13.671875 -12.640625q8.078125 -4.125 16.921875 -4.125q15.46875 0 26.34375 11.390625q10.875 11.390625 10.875 29.4375q0 11.859375 -5.125 22.046875q-5.109375 10.171875 -14.046875 15.59375q-8.9375 5.421875 -20.28125 5.421875q-19.328125 0 -31.53125 -14.21875q-12.203125 -14.234375 -12.203125 -46.890625q0 -36.53125 13.484375 -53.109375q11.78125 -14.4375 31.71875 -14.4375q14.859375 0 24.359375 8.34375q9.5 8.328125 11.390625 23.015625zm-63.171875 54.3125q0 8.0 3.390625 15.3125q3.40625 7.296875 9.5 11.125q6.109375 3.8125 12.8125 3.8125q9.796875 0 16.84375 -7.90625q7.046875 -7.90625 7.046875 -21.484375q0 -13.0625 -6.96875 -20.578125q-6.953125 -7.515625 -17.53125 -7.515625q-10.484375 0 -17.796875 7.515625q-7.296875 7.515625 -7.296875 19.71875zm148.25 40.828125l-14.359375 0l0 -125.984375l15.46875 0l0 44.9375q9.796875 -12.28125 25.015625 -12.28125q8.421875 0 15.9375 3.390625q7.515625 3.390625 12.375 9.546875q4.859375 6.140625 7.609375 14.828125q2.75 8.671875 2.75 18.546875q0 23.46875 -11.609375 36.28125q-11.59375 12.796875 -27.84375 12.796875q-16.15625 0 -25.34375 -13.5l0 11.4375zm-0.171875 -46.328125q0 16.421875 4.46875 23.71875q7.296875 11.953125 19.765625 11.953125q10.140625 0 17.53125 -8.8125q7.390625 -8.8125 7.390625 -26.25q0 -17.875 -7.09375 -26.375q-7.09375 -8.515625 -17.140625 -8.515625q-10.140625 0 -17.53125 8.8125q-7.390625 8.796875 -7.390625 25.46875zm83.86719 -61.875l0 -17.78125l15.46875 0l0 17.78125l-15.46875 0zm0 108.203125l0 -91.265625l15.46875 0l0 91.265625l-15.46875 0zm72.78906 -13.84375l2.234375 13.671875q-6.53125 1.375 -11.6875 1.375q-8.421875 0 -13.0625 -2.65625q-4.640625 -2.671875 -6.53125 -7.015625q-1.890625 -4.34375 -1.890625 -18.265625l0 -52.5l-11.34375 0l0 -12.03125l11.34375 0l0 -22.609375l15.390625 -9.28125l0 31.890625l15.546875 0l0 12.03125l-15.546875 0l0 53.359375q0 6.625 0.8125 8.515625q0.8125 1.890625 2.65625 3.015625q1.859375 1.109375 5.296875 1.109375q2.578125 0 6.78125 -0.609375zm8.9453125 -13.40625l15.296875 -2.40625q1.28125 9.203125 7.171875 14.109375q5.890625 4.890625 16.453125 4.890625q10.65625 0 15.8125 -4.34375q5.15625 -4.34375 5.15625 -10.1875q0 -5.234375 -4.546875 -8.25q-3.1875 -2.0625 -15.8125 -5.234375q-17.015625 -4.296875 -23.59375 -7.4375q-6.578125 -3.140625 -9.96875 -8.671875q-3.390625 -5.546875 -3.390625 -12.25q0 -6.109375 2.78125 -11.296875q2.796875 -5.203125 7.609375 -8.640625q3.609375 -2.671875 9.84375 -4.515625q6.234375 -1.84375 13.359375 -1.84375q10.75 0 18.859375 3.09375q8.125 3.09375 11.984375 8.375q3.875 5.28125 5.34375 14.140625l-15.125 2.0625q-1.03125 -7.046875 -5.984375 -11.0q-4.9375 -3.953125 -13.953125 -3.953125q-10.65625 0 -15.21875 3.53125q-4.546875 3.515625 -4.546875 8.234375q0 3.015625 1.890625 5.421875q1.890625 2.484375 5.921875 4.125q2.328125 0.859375 13.671875 3.953125q16.40625 4.375 22.890625 7.171875q6.5 2.796875 10.1875 8.125q3.703125 5.328125 3.703125 13.234375q0 7.734375 -4.515625 14.5625q-4.515625 6.828125 -13.03125 10.578125q-8.5 3.734375 -19.234375 3.734375q-17.796875 0 -27.125 -7.390625q-9.3125 -7.390625 -11.890625 -21.921875z" fill-rule="nonzero"/><path fill="#000000" fill-opacity="0.0" d="m5708.7715 0l1321.4175 0l0 232.69292l-1321.4175 0z" fill-rule="evenodd"/><path fill="#434343" d="m6166.461 115.81937q0 -22.34375 4.59375 -35.953125q4.59375 -13.625 13.65625 -21.015625q9.078125 -7.390625 22.828125 -7.390625q10.140625 0 17.78125 4.078125q7.65625 4.078125 12.640625 11.78125q4.984375 7.6875 7.8125 18.734375q2.84375 11.03125 2.84375 29.765625q0 22.171875 -4.5625 35.796875q-4.546875 13.625 -13.625 21.0625q-9.0625 7.4375 -22.890625 7.4375q-18.21875 0 -28.625 -13.078125q-12.453125 -15.71875 -12.453125 -51.21875zm15.890625 0q0 31.03125 7.265625 41.296875q7.265625 10.265625 17.921875 10.265625q10.65625 0 17.90625 -10.3125q7.265625 -10.3125 7.265625 -41.25q0 -31.109375 -7.265625 -41.328125q-7.25 -10.234375 -18.078125 -10.234375q-10.65625 0 -17.015625 9.03125q-8.0 11.515625 -8.0 42.53125zm149.45312 62.140625l-14.359375 0l0 -125.984375l15.46875 0l0 44.9375q9.796875 -12.28125 25.015625 -12.28125q8.421875 0 15.9375 3.390625q7.515625 3.390625 12.375 9.546875q4.859375 6.140625 7.609375 14.828125q2.75 8.671875 2.75 18.546875q0 23.46875 -11.609375 36.28125q-11.59375 12.796875 -27.84375 12.796875q-16.15625 0 -25.34375 -13.5l0 11.4375zm-0.171875 -46.328125q0 16.421875 4.46875 23.71875q7.296875 11.953125 19.765625 11.953125q10.140625 0 17.53125 -8.8125q7.390625 -8.8125 7.390625 -26.25q0 -17.875 -7.09375 -26.375q-7.09375 -8.515625 -17.140625 -8.515625q-10.140625 0 -17.53125 8.8125q-7.390625 8.796875 -7.390625 25.46875zm83.86719 -61.875l0 -17.78125l15.46875 0l0 17.78125l-15.46875 0zm0 108.203125l0 -91.265625l15.46875 0l0 91.265625l-15.46875 0zm72.78906 -13.84375l2.234375 13.671875q-6.53125 1.375 -11.6875 1.375q-8.421875 0 -13.0625 -2.65625q-4.640625 -2.671875 -6.53125 -7.015625q-1.890625 -4.34375 -1.890625 -18.265625l0 -52.5l-11.34375 0l0 -12.03125l11.34375 0l0 -22.609375l15.390625 -9.28125l0 31.890625l15.546875 0l0 12.03125l-15.546875 0l0 53.359375q0 6.625 0.8125 8.515625q0.8125 1.890625 2.65625 3.015625q1.859375 1.109375 5.296875 1.109375q2.578125 0 6.78125 -0.609375zm8.9453125 -13.40625l15.296875 -2.40625q1.28125 9.203125 7.171875 14.109375q5.890625 4.890625 16.453125 4.890625q10.65625 0 15.8125 -4.34375q5.15625 -4.34375 5.15625 -10.1875q0 -5.234375 -4.546875 -8.25q-3.1875 -2.0625 -15.8125 -5.234375q-17.015625 -4.296875 -23.59375 -7.4375q-6.578125 -3.140625 -9.96875 -8.671875q-3.390625 -5.546875 -3.390625 -12.25q0 -6.109375 2.78125 -11.296875q2.796875 -5.203125 7.609375 -8.640625q3.609375 -2.671875 9.84375 -4.515625q6.234375 -1.84375 13.359375 -1.84375q10.75 0 18.859375 3.09375q8.125 3.09375 11.984375 8.375q3.875 5.28125 5.34375 14.140625l-15.125 2.0625q-1.03125 -7.046875 -5.984375 -11.0q-4.9375 -3.953125 -13.953125 -3.953125q-10.65625 0 -15.21875 3.53125q-4.546875 3.515625 -4.546875 8.234375q0 3.015625 1.890625 5.421875q1.890625 2.484375 5.921875 4.125q2.328125 0.859375 13.671875 3.953125q16.40625 4.375 22.890625 7.171875q6.5 2.796875 10.1875 8.125q3.703125 5.328125 3.703125 13.234375q0 7.734375 -4.515625 14.5625q-4.515625 6.828125 -13.03125 10.578125q-8.5 3.734375 -19.234375 3.734375q-17.796875 0 -27.125 -7.390625q-9.3125 -7.390625 -11.890625 -21.921875z" fill-rule="nonzero"/><path fill="#000000" fill-opacity="0.0" d="m6530.5645 702.31494l2366.0781 0l0 232.69293l-2366.0781 0z" fill-rule="evenodd"/><path fill="#434343" d="m6605.1426 880.27496l-15.46875 0l0 -98.578125q-5.59375 5.328125 -14.65625 10.65625q-9.0625 5.328125 -16.28125 8.0l0 -14.953125q12.96875 -6.109375 22.671875 -14.78125q9.71875 -8.6875 13.765625 -16.84375l9.96875 0l0 126.5zm54.054688 37.046875l-11.09375 0q25.703125 -41.265625 25.703125 -82.59375q0 -16.15625 -3.703125 -32.0625q-2.921875 -12.890625 -8.15625 -24.75q-3.359375 -7.734375 -13.84375 -25.78125l11.09375 0q16.15625 21.578125 23.890625 43.3125q6.609375 18.734375 6.609375 39.1875q0 23.203125 -8.890625 44.875q-8.890625 21.65625 -21.609375 37.8125zm189.22656 -81.21875l16.671875 4.203125q-5.234375 20.546875 -18.859375 31.34375q-13.625 10.78125 -33.296875 10.78125q-20.375 0 -33.140625 -8.296875q-12.75 -8.296875 -19.421875 -24.015625q-6.65625 -15.734375 -6.65625 -33.78125q0 -19.6875 7.515625 -34.328125q7.53125 -14.65625 21.40625 -22.265625q13.875 -7.609375 30.546875 -7.609375q18.90625 0 31.796875 9.625q12.890625 9.625 17.96875 27.078125l-16.421875 3.859375q-4.375 -13.75 -12.71875 -20.015625q-8.328125 -6.28125 -20.96875 -6.28125q-14.515625 0 -24.28125 6.96875q-9.75 6.953125 -13.703125 18.6875q-3.953125 11.734375 -3.953125 24.1875q0 16.078125 4.6875 28.0625q4.6875 11.984375 14.5625 17.921875q9.890625 5.921875 21.40625 5.921875q14.0 0 23.703125 -8.078125q9.71875 -8.078125 13.15625 -23.96875zm29.476562 -1.46875q0 -25.34375 14.09375 -37.546875q11.78125 -10.140625 28.703125 -10.140625q18.828125 0 30.765625 12.328125q11.953125 12.328125 11.953125 34.078125q0 17.609375 -5.296875 27.71875q-5.28125 10.09375 -15.375 15.6875q-10.09375 5.578125 -22.046875 5.578125q-19.15625 0 -30.984375 -12.28125q-11.8125 -12.296875 -11.8125 -35.421875zm15.90625 0q0 17.53125 7.640625 26.265625q7.65625 8.71875 19.25 8.71875q11.515625 0 19.15625 -8.765625q7.65625 -8.765625 7.65625 -26.734375q0 -16.921875 -7.6875 -25.640625q-7.6875 -8.734375 -19.125 -8.734375q-11.59375 0 -19.25 8.6875q-7.640625 8.671875 -7.640625 26.203125zm87.74219 45.640625l0 -91.265625l13.921875 0l0 12.96875q10.046875 -15.03125 29.046875 -15.03125q8.25 0 15.15625 2.96875q6.921875 2.953125 10.359375 7.765625q3.4375 4.8125 4.8125 11.4375q0.859375 4.296875 0.859375 15.03125l0 56.125l-15.46875 0l0 -55.515625q0 -9.453125 -1.8125 -14.140625q-1.796875 -4.6875 -6.390625 -7.46875q-4.59375 -2.796875 -10.78125 -2.796875q-9.890625 0 -17.0625 6.28125q-7.171875 6.265625 -7.171875 23.796875l0 49.84375l-15.46875 0zm157.42969 -33.4375l15.21875 1.984375q-2.5 15.71875 -12.765625 24.625q-10.265625 8.890625 -25.21875 8.890625q-18.734375 0 -30.125 -12.25q-11.390625 -12.25 -11.390625 -35.109375q0 -14.78125 4.890625 -25.859375q4.90625 -11.09375 14.921875 -16.625q10.015625 -5.546875 21.78125 -5.546875q14.875 0 24.328125 7.515625q9.453125 7.515625 12.109375 21.359375l-15.03125 2.3125q-2.15625 -9.1875 -7.609375 -13.828125q-5.453125 -4.640625 -13.1875 -4.640625q-11.6875 0 -19.0 8.375q-7.296875 8.375 -7.296875 26.515625q0 18.390625 7.046875 26.734375q7.046875 8.328125 18.390625 8.328125q9.109375 0 15.203125 -5.578125q6.109375 -5.59375 7.734375 -17.203125zm88.0 22.171875q-8.59375 7.3125 -16.546875 10.328125q-7.9375 3.0 -17.046875 3.0q-15.046875 0 -23.125 -7.34375q-8.078125 -7.359375 -8.078125 -18.78125q0 -6.703125 3.046875 -12.25q3.0625 -5.546875 8.0 -8.890625q4.9375 -3.359375 11.125 -5.078125q4.5625 -1.203125 13.75 -2.3125q18.734375 -2.234375 27.59375 -5.328125q0.078125 -3.1875 0.078125 -4.046875q0 -9.453125 -4.375 -13.3125q-5.9375 -5.25 -17.625 -5.25q-10.90625 0 -16.109375 3.828125q-5.203125 3.828125 -7.6875 13.53125l-15.125 -2.0625q2.0625 -9.703125 6.78125 -15.671875q4.734375 -5.984375 13.671875 -9.203125q8.9375 -3.21875 20.703125 -3.21875q11.6875 0 18.984375 2.75q7.3125 2.75 10.75 6.921875q3.4375 4.15625 4.8125 10.515625q0.78125 3.953125 0.78125 14.265625l0 20.625q0 21.578125 0.984375 27.296875q0.984375 5.703125 3.90625 10.953125l-16.15625 0q-2.40625 -4.8125 -3.09375 -11.265625zm-1.28125 -34.546875q-8.421875 3.4375 -25.265625 5.84375q-9.546875 1.375 -13.5 3.09375q-3.953125 1.71875 -6.109375 5.03125q-2.140625 3.3125 -2.140625 7.34375q0 6.1875 4.6875 10.3125q4.6875 4.125 13.703125 4.125q8.9375 0 15.890625 -3.90625q6.96875 -3.90625 10.234375 -10.703125q2.5 -5.234375 2.5 -15.46875l0 -5.671875zm73.38281 31.96875l2.234375 13.671875q-6.53125 1.375 -11.6875 1.375q-8.421875 0 -13.0625 -2.65625q-4.640625 -2.671875 -6.53125 -7.015625q-1.890625 -4.34375 -1.890625 -18.265625l0 -52.5l-11.34375 0l0 -12.03125l11.34375 0l0 -22.609375l15.390625 -9.28125l0 31.890625l15.546875 0l0 12.03125l-15.546875 0l0 53.359375q0 6.625 0.8125 8.515625q0.8125 1.890625 2.65625 3.015625q1.859375 1.109375 5.296875 1.109375q2.578125 0 6.78125 -0.609375zm77.60156 -15.546875l15.984375 1.96875q-3.78125 14.015625 -14.015625 21.75q-10.21875 7.734375 -26.109375 7.734375q-20.03125 0 -31.765625 -12.328125q-11.71875 -12.34375 -11.71875 -34.59375q0 -23.03125 11.859375 -35.75q11.859375 -12.71875 30.765625 -12.71875q18.296875 0 29.890625 12.46875q11.609375 12.453125 11.609375 35.046875q0 1.375 -0.078125 4.125l-68.0625 0q0.859375 15.046875 8.5 23.046875q7.65625 7.984375 19.078125 7.984375q8.515625 0 14.53125 -4.46875q6.015625 -4.46875 9.53125 -14.265625zm-50.78125 -25.015625l50.953125 0q-1.03125 -11.515625 -5.84375 -17.265625q-7.390625 -8.9375 -19.15625 -8.9375q-10.65625 0 -17.921875 7.140625q-7.265625 7.125 -8.03125 19.0625zm86.19531 54.40625l0 -91.265625l13.921875 0l0 12.96875q10.046875 -15.03125 29.046875 -15.03125q8.25 0 15.15625 2.96875q6.921875 2.953125 10.359375 7.765625q3.4375 4.8125 4.8125 11.4375q0.859375 4.296875 0.859375 15.03125l0 56.125l-15.46875 0l0 -55.515625q0 -9.453125 -1.8125 -14.140625q-1.796875 -4.6875 -6.390625 -7.46875q-4.59375 -2.796875 -10.78125 -2.796875q-9.890625 0 -17.0625 6.28125q-7.171875 6.265625 -7.171875 23.796875l0 49.84375l-15.46875 0zm157.42969 -11.265625q-8.59375 7.3125 -16.546875 10.328125q-7.9375 3.0 -17.046875 3.0q-15.046875 0 -23.125 -7.34375q-8.078125 -7.359375 -8.078125 -18.78125q0 -6.703125 3.046875 -12.25q3.0625 -5.546875 8.0 -8.890625q4.9375 -3.359375 11.125 -5.078125q4.5625 -1.203125 13.75 -2.3125q18.734375 -2.234375 27.59375 -5.328125q0.078125 -3.1875 0.078125 -4.046875q0 -9.453125 -4.375 -13.3125q-5.9375 -5.25 -17.625 -5.25q-10.90625 0 -16.109375 3.828125q-5.203125 3.828125 -7.6875 13.53125l-15.125 -2.0625q2.0625 -9.703125 6.78125 -15.671875q4.734375 -5.984375 13.671875 -9.203125q8.9375 -3.21875 20.703125 -3.21875q11.6875 0 18.984375 2.75q7.3125 2.75 10.75 6.921875q3.4375 4.15625 4.8125 10.515625q0.78125 3.953125 0.78125 14.265625l0 20.625q0 21.578125 0.984375 27.296875q0.984375 5.703125 3.90625 10.953125l-16.15625 0q-2.40625 -4.8125 -3.09375 -11.265625zm-1.28125 -34.546875q-8.421875 3.4375 -25.265625 5.84375q-9.546875 1.375 -13.5 3.09375q-3.953125 1.71875 -6.109375 5.03125q-2.140625 3.3125 -2.140625 7.34375q0 6.1875 4.6875 10.3125q4.6875 4.125 13.703125 4.125q8.9375 0 15.890625 -3.90625q6.96875 -3.90625 10.234375 -10.703125q2.5 -5.234375 2.5 -15.46875l0 -5.671875zm73.38281 31.96875l2.234375 13.671875q-6.53125 1.375 -11.6875 1.375q-8.421875 0 -13.0625 -2.65625q-4.640625 -2.671875 -6.53125 -7.015625q-1.890625 -4.34375 -1.890625 -18.265625l0 -52.5l-11.34375 0l0 -12.03125l11.34375 0l0 -22.609375l15.390625 -9.28125l0 31.890625l15.546875 0l0 12.03125l-15.546875 0l0 53.359375q0 6.625 0.8125 8.515625q0.8125 1.890625 2.65625 3.015625q1.859375 1.109375 5.296875 1.109375q2.578125 0 6.78125 -0.609375zm77.60156 -15.546875l15.984375 1.96875q-3.78125 14.015625 -14.015625 21.75q-10.21875 7.734375 -26.109375 7.734375q-20.03125 0 -31.765625 -12.328125q-11.71875 -12.34375 -11.71875 -34.59375q0 -23.03125 11.859375 -35.75q11.859375 -12.71875 30.765625 -12.71875q18.296875 0 29.890625 12.46875q11.609375 12.453125 11.609375 35.046875q0 1.375 -0.078125 4.125l-68.0625 0q0.859375 15.046875 8.5 23.046875q7.65625 7.984375 19.078125 7.984375q8.515625 0 14.53125 -4.46875q6.015625 -4.46875 9.53125 -14.265625zm-50.78125 -25.015625l50.953125 0q-1.03125 -11.515625 -5.84375 -17.265625q-7.390625 -8.9375 -19.15625 -8.9375q-10.65625 0 -17.921875 7.140625q-7.265625 7.125 -8.03125 19.0625zm134.92188 54.40625l0 -91.265625l13.921875 0l0 13.828125q5.328125 -9.703125 9.828125 -12.796875q4.515625 -3.09375 9.9375 -3.09375q7.8125 0 15.890625 4.984375l-5.328125 14.34375q-5.671875 -3.34375 -11.34375 -3.34375q-5.0625 0 -9.109375 3.046875q-4.03125 3.046875 -5.75 8.46875q-2.578125 8.25 -2.578125 18.046875l0 47.78125l-15.46875 0zm121.25 -29.390625l15.984375 1.96875q-3.78125 14.015625 -14.015625 21.75q-10.21875 7.734375 -26.109375 7.734375q-20.03125 0 -31.765625 -12.328125q-11.71875 -12.34375 -11.71875 -34.59375q0 -23.03125 11.859375 -35.75q11.859375 -12.71875 30.765625 -12.71875q18.296875 0 29.890625 12.46875q11.609375 12.453125 11.609375 35.046875q0 1.375 -0.078125 4.125l-68.0625 0q0.859375 15.046875 8.5 23.046875q7.65625 7.984375 19.078125 7.984375q8.515625 0 14.53125 -4.46875q6.015625 -4.46875 9.53125 -14.265625zm-50.78125 -25.015625l50.953125 0q-1.03125 -11.515625 -5.84375 -17.265625q-7.390625 -8.9375 -19.15625 -8.9375q-10.65625 0 -17.921875 7.140625q-7.265625 7.125 -8.03125 19.0625zm83.35156 61.96875l15.046875 2.234375q0.9375 6.96875 5.234375 10.140625q5.765625 4.296875 15.734375 4.296875q10.734375 0 16.578125 -4.296875q5.84375 -4.296875 7.90625 -12.03125q1.203125 -4.71875 1.125 -19.859375q-10.140625 11.953125 -25.265625 11.953125q-18.828125 0 -29.140625 -13.578125q-10.3125 -13.578125 -10.3125 -32.578125q0 -13.0625 4.71875 -24.09375q4.734375 -11.046875 13.71875 -17.0625q8.984375 -6.015625 21.09375 -6.015625q16.15625 0 26.640625 13.0625l0 -11.0l14.265625 0l0 78.890625q0 21.3125 -4.34375 30.203125q-4.328125 8.90625 -13.75 14.0625q-9.40625 5.15625 -23.15625 5.15625q-16.328125 0 -26.390625 -7.359375q-10.046875 -7.34375 -9.703125 -22.125zm12.8125 -54.828125q0 17.953125 7.125 26.203125q7.140625 8.25 17.875 8.25q10.65625 0 17.875 -8.203125q7.21875 -8.203125 7.21875 -25.734375q0 -16.765625 -7.4375 -25.265625q-7.421875 -8.515625 -17.90625 -8.515625q-10.3125 0 -17.53125 8.390625q-7.21875 8.375 -7.21875 24.875zm87.99219 -60.9375l0 -17.78125l15.46875 0l0 17.78125l-15.46875 0zm0 108.203125l0 -91.265625l15.46875 0l0 91.265625l-15.46875 0zm32.835938 -27.25l15.296875 -2.40625q1.28125 9.203125 7.171875 14.109375q5.890625 4.890625 16.453125 4.890625q10.65625 0 15.8125 -4.34375q5.15625 -4.34375 5.15625 -10.1875q0 -5.234375 -4.546875 -8.25q-3.1875 -2.0625 -15.8125 -5.234375q-17.015625 -4.296875 -23.59375 -7.4375q-6.578125 -3.140625 -9.96875 -8.671875q-3.390625 -5.546875 -3.390625 -12.25q0 -6.109375 2.78125 -11.296875q2.796875 -5.203125 7.609375 -8.640625q3.609375 -2.671875 9.84375 -4.515625q6.234375 -1.84375 13.359375 -1.84375q10.75 0 18.859375 3.09375q8.125 3.09375 11.984375 8.375q3.875 5.28125 5.34375 14.140625l-15.125 2.0625q-1.03125 -7.046875 -5.984375 -11.0q-4.9375 -3.953125 -13.953125 -3.953125q-10.65625 0 -15.21875 3.53125q-4.546875 3.515625 -4.546875 8.234375q0 3.015625 1.890625 5.421875q1.890625 2.484375 5.921875 4.125q2.328125 0.859375 13.671875 3.953125q16.40625 4.375 22.890625 7.171875q6.5 2.796875 10.1875 8.125q3.703125 5.328125 3.703125 13.234375q0 7.734375 -4.515625 14.5625q-4.515625 6.828125 -13.03125 10.578125q-8.5 3.734375 -19.234375 3.734375q-17.796875 0 -27.125 -7.390625q-9.3125 -7.390625 -11.890625 -21.921875zm127.953125 13.40625l2.234375 13.671875q-6.53125 1.375 -11.6875 1.375q-8.421875 0 -13.0625 -2.65625q-4.640625 -2.671875 -6.53125 -7.015625q-1.890625 -4.34375 -1.890625 -18.265625l0 -52.5l-11.34375 0l0 -12.03125l11.34375 0l0 -22.609375l15.390625 -9.28125l0 31.890625l15.546875 0l0 12.03125l-15.546875 0l0 53.359375q0 6.625 0.8125 8.515625q0.8125 1.890625 2.65625 3.015625q1.859375 1.109375 5.296875 1.109375q2.578125 0 6.78125 -0.609375zm77.60156 -15.546875l15.984375 1.96875q-3.78125 14.015625 -14.015625 21.75q-10.21875 7.734375 -26.109375 7.734375q-20.03125 0 -31.765625 -12.328125q-11.71875 -12.34375 -11.71875 -34.59375q0 -23.03125 11.859375 -35.75q11.859375 -12.71875 30.765625 -12.71875q18.296875 0 29.890625 12.46875q11.609375 12.453125 11.609375 35.046875q0 1.375 -0.078125 4.125l-68.0625 0q0.859375 15.046875 8.5 23.046875q7.65625 7.984375 19.078125 7.984375q8.515625 0 14.53125 -4.46875q6.015625 -4.46875 9.53125 -14.265625zm-50.78125 -25.015625l50.953125 0q-1.03125 -11.515625 -5.84375 -17.265625q-7.390625 -8.9375 -19.15625 -8.9375q-10.65625 0 -17.921875 7.140625q-7.265625 7.125 -8.03125 19.0625zm86.02344 54.40625l0 -91.265625l13.921875 0l0 13.828125q5.328125 -9.703125 9.828125 -12.796875q4.515625 -3.09375 9.9375 -3.09375q7.8125 0 15.890625 4.984375l-5.328125 14.34375q-5.671875 -3.34375 -11.34375 -3.34375q-5.0625 0 -9.109375 3.046875q-4.03125 3.046875 -5.75 8.46875q-2.578125 8.25 -2.578125 18.046875l0 47.78125l-15.46875 0zm52.59375 -27.25l15.296875 -2.40625q1.28125 9.203125 7.171875 14.109375q5.890625 4.890625 16.453125 4.890625q10.65625 0 15.8125 -4.34375q5.15625 -4.34375 5.15625 -10.1875q0 -5.234375 -4.546875 -8.25q-3.1875 -2.0625 -15.8125 -5.234375q-17.015625 -4.296875 -23.59375 -7.4375q-6.578125 -3.140625 -9.96875 -8.671875q-3.390625 -5.546875 -3.390625 -12.25q0 -6.109375 2.78125 -11.296875q2.796875 -5.203125 7.609375 -8.640625q3.609375 -2.671875 9.84375 -4.515625q6.234375 -1.84375 13.359375 -1.84375q10.75 0 18.859375 3.09375q8.125 3.09375 11.984375 8.375q3.875 5.28125 5.34375 14.140625l-15.125 2.0625q-1.03125 -7.046875 -5.984375 -11.0q-4.9375 -3.953125 -13.953125 -3.953125q-10.65625 0 -15.21875 3.53125q-4.546875 3.515625 -4.546875 8.234375q0 3.015625 1.890625 5.421875q1.890625 2.484375 5.921875 4.125q2.328125 0.859375 13.671875 3.953125q16.40625 4.375 22.890625 7.171875q6.5 2.796875 10.1875 8.125q3.703125 5.328125 3.703125 13.234375q0 7.734375 -4.515625 14.5625q-4.515625 6.828125 -13.03125 10.578125q-8.5 3.734375 -19.234375 3.734375q-17.796875 0 -27.125 -7.390625q-9.3125 -7.390625 -11.890625 -21.921875z" fill-rule="nonzero"/><path fill="#000000" fill-opacity="0.0" d="m6526.008 1794.9291l2366.079 0l0 232.693l-2366.079 0z" fill-rule="evenodd"/><path fill="#434343" d="m6671.617 1958.0142l0 14.875l-83.28125 0q-0.171875 -5.59375 1.8125 -10.75q3.171875 -8.5 10.171875 -16.75q7.015625 -8.25 20.25 -19.078125q20.53125 -16.84375 27.75 -26.6875q7.21875 -9.84375 7.21875 -18.609375q0 -9.1875 -6.578125 -15.5q-6.5625 -6.328125 -17.140625 -6.328125q-11.171875 0 -17.875 6.703125q-6.703125 6.703125 -6.78125 18.5625l-15.90625 -1.625q1.640625 -17.796875 12.296875 -27.109375q10.65625 -9.328125 28.609375 -9.328125q18.140625 0 28.703125 10.0625q10.578125 10.046875 10.578125 24.90625q0 7.5625 -3.09375 14.875q-3.09375 7.296875 -10.28125 15.375q-7.171875 8.078125 -23.84375 22.171875q-13.921875 11.6875 -17.875 15.859375q-3.953125 4.171875 -6.53125 8.375l61.796875 0zm31.023438 51.921875l-11.09375 0q25.703125 -41.265625 25.703125 -82.59375q0 -16.15625 -3.703125 -32.0625q-2.921875 -12.890625 -8.15625 -24.75q-3.359375 -7.734375 -13.84375 -25.78125l11.09375 0q16.15625 21.578125 23.890625 43.3125q6.609375 18.734375 6.609375 39.1875q0 23.203125 -8.890625 44.875q-8.890625 21.65625 -21.609375 37.8125zm93.66406 -77.53125l15.734375 -1.375q1.109375 9.453125 5.1875 15.515625q4.09375 6.0625 12.6875 9.796875q8.59375 3.734375 19.328125 3.734375q9.546875 0 16.84375 -2.828125q7.3125 -2.84375 10.875 -7.78125q3.5625 -4.9375 3.5625 -10.78125q0 -5.9375 -3.4375 -10.359375q-3.4375 -4.421875 -11.34375 -7.4375q-5.0625 -1.96875 -22.421875 -6.140625q-17.359375 -4.171875 -24.328125 -7.859375q-9.015625 -4.734375 -13.453125 -11.734375q-4.421875 -7.0 -4.421875 -15.6875q0 -9.53125 5.40625 -17.828125q5.421875 -8.296875 15.8125 -12.59375q10.40625 -4.296875 23.125 -4.296875q14.015625 0 24.703125 4.515625q10.703125 4.515625 16.453125 13.28125q5.765625 8.765625 6.203125 19.84375l-15.984375 1.203125q-1.296875 -11.9375 -8.734375 -18.03125q-7.421875 -6.109375 -21.953125 -6.109375q-15.125 0 -22.046875 5.546875q-6.90625 5.53125 -6.90625 13.359375q0 6.78125 4.890625 11.171875q4.8125 4.375 25.140625 8.984375q20.328125 4.59375 27.890625 8.03125q11.0 5.0625 16.234375 12.84375q5.25 7.78125 5.25 17.921875q0 10.046875 -5.765625 18.953125q-5.75 8.890625 -16.546875 13.84375q-10.78125 4.9375 -24.265625 4.9375q-17.109375 0 -28.671875 -4.984375q-11.546875 -5.0 -18.125 -15.0q-6.578125 -10.015625 -6.921875 -22.65625zm121.09375 40.484375l0 -125.984375l15.46875 0l0 45.203125q10.828125 -12.546875 27.328125 -12.546875q10.140625 0 17.609375 4.0q7.484375 3.984375 10.703125 11.03125q3.21875 7.046875 3.21875 20.453125l0 57.84375l-15.46875 0l0 -57.84375q0 -11.59375 -5.03125 -16.875q-5.015625 -5.296875 -14.21875 -5.296875q-6.875 0 -12.9375 3.578125q-6.046875 3.5625 -8.625 9.671875q-2.578125 6.09375 -2.578125 16.828125l0 49.9375l-15.46875 0zm97.96094 -108.203125l0 -17.78125l15.46875 0l0 17.78125l-15.46875 0zm0 108.203125l0 -91.265625l15.46875 0l0 91.265625l-15.46875 0zm42.710938 0l0 -79.234375l-13.65625 0l0 -12.03125l13.65625 0l0 -9.71875q0 -9.1875 1.640625 -13.65625q2.234375 -6.015625 7.859375 -9.75q5.625 -3.75 15.765625 -3.75q6.53125 0 14.4375 1.546875l-2.3125 13.5q-4.8125 -0.859375 -9.109375 -0.859375q-7.046875 0 -9.96875 3.015625q-2.921875 3.0 -2.921875 11.25l0 8.421875l17.78125 0l0 12.03125l-17.78125 0l0 79.234375l-15.390625 0zm78.97656 -13.84375l2.234375 13.671875q-6.53125 1.375 -11.6875 1.375q-8.421875 0 -13.0625 -2.65625q-4.640625 -2.671875 -6.53125 -7.015625q-1.890625 -4.34375 -1.890625 -18.265625l0 -52.5l-11.34375 0l0 -12.03125l11.34375 0l0 -22.609375l15.390625 -9.28125l0 31.890625l15.546875 0l0 12.03125l-15.546875 0l0 53.359375q0 6.625 0.8125 8.515625q0.8125 1.890625 2.65625 3.015625q1.859375 1.109375 5.296875 1.109375q2.578125 0 6.78125 -0.609375zm97.796875 0l2.234375 13.671875q-6.53125 1.375 -11.6875 1.375q-8.421875 0 -13.0625 -2.65625q-4.640625 -2.671875 -6.53125 -7.015625q-1.890625 -4.34375 -1.890625 -18.265625l0 -52.5l-11.34375 0l0 -12.03125l11.34375 0l0 -22.609375l15.390625 -9.28125l0 31.890625l15.546875 0l0 12.03125l-15.546875 0l0 53.359375q0 6.625 0.8125 8.515625q0.8125 1.890625 2.65625 3.015625q1.859375 1.109375 5.296875 1.109375q2.578125 0 6.78125 -0.609375zm15.1328125 13.84375l0 -125.984375l15.46875 0l0 45.203125q10.828125 -12.546875 27.328125 -12.546875q10.140625 0 17.609375 4.0q7.484375 3.984375 10.703125 11.03125q3.21875 7.046875 3.21875 20.453125l0 57.84375l-15.46875 0l0 -57.84375q0 -11.59375 -5.03125 -16.875q-5.015625 -5.296875 -14.21875 -5.296875q-6.875 0 -12.9375 3.578125q-6.046875 3.5625 -8.625 9.671875q-2.578125 6.09375 -2.578125 16.828125l0 49.9375l-15.46875 0zm160.35156 -29.390625l15.984375 1.96875q-3.78125 14.015625 -14.015625 21.75q-10.21875 7.734375 -26.109375 7.734375q-20.03125 0 -31.765625 -12.328125q-11.71875 -12.34375 -11.71875 -34.59375q0 -23.03125 11.859375 -35.75q11.859375 -12.71875 30.765625 -12.71875q18.296875 0 29.890625 12.46875q11.609375 12.453125 11.609375 35.046875q0 1.375 -0.078125 4.125l-68.0625 0q0.859375 15.046875 8.5 23.046875q7.65625 7.984375 19.078125 7.984375q8.515625 0 14.53125 -4.46875q6.015625 -4.46875 9.53125 -14.265625zm-50.78125 -25.015625l50.953125 0q-1.03125 -11.515625 -5.84375 -17.265625q-7.390625 -8.9375 -19.15625 -8.9375q-10.65625 0 -17.921875 7.140625q-7.265625 7.125 -8.03125 19.0625zm86.19531 54.40625l0 -91.265625l13.828125 0l0 12.796875q4.296875 -6.703125 11.421875 -10.78125q7.140625 -4.078125 16.25 -4.078125q10.140625 0 16.625 4.21875q6.5 4.203125 9.15625 11.765625q10.828125 -15.984375 28.1875 -15.984375q13.578125 0 20.875 7.515625q7.3125 7.515625 7.3125 23.15625l0 62.65625l-15.375 0l0 -57.5q0 -9.28125 -1.515625 -13.359375q-1.5 -4.078125 -5.453125 -6.5625q-3.953125 -2.5 -9.28125 -2.5q-9.625 0 -15.984375 6.40625q-6.359375 6.390625 -6.359375 20.484375l0 53.03125l-15.46875 0l0 -59.296875q0 -10.3125 -3.78125 -15.46875q-3.78125 -5.15625 -12.375 -5.15625q-6.53125 0 -12.078125 3.4375q-5.53125 3.4375 -8.03125 10.0625q-2.484375 6.609375 -2.484375 19.0625l0 47.359375l-15.46875 0zm229.27344 -13.84375l2.234375 13.671875q-6.53125 1.375 -11.6875 1.375q-8.421875 0 -13.0625 -2.65625q-4.640625 -2.671875 -6.53125 -7.015625q-1.890625 -4.34375 -1.890625 -18.265625l0 -52.5l-11.34375 0l0 -12.03125l11.34375 0l0 -22.609375l15.390625 -9.28125l0 31.890625l15.546875 0l0 12.03125l-15.546875 0l0 53.359375q0 6.625 0.8125 8.515625q0.8125 1.890625 2.65625 3.015625q1.859375 1.109375 5.296875 1.109375q2.578125 0 6.78125 -0.609375zm9.3671875 -31.796875q0 -25.34375 14.09375 -37.546875q11.78125 -10.140625 28.703125 -10.140625q18.828125 0 30.765625 12.328125q11.953125 12.328125 11.953125 34.078125q0 17.609375 -5.296875 27.71875q-5.28125 10.09375 -15.375 15.6875q-10.09375 5.578125 -22.046875 5.578125q-19.15625 0 -30.984375 -12.28125q-11.8125 -12.296875 -11.8125 -35.421875zm15.90625 0q0 17.53125 7.640625 26.265625q7.65625 8.71875 19.25 8.71875q11.515625 0 19.15625 -8.765625q7.65625 -8.765625 7.65625 -26.734375q0 -16.921875 -7.6875 -25.640625q-7.6875 -8.734375 -19.125 -8.734375q-11.59375 0 -19.25 8.6875q-7.640625 8.671875 -7.640625 26.203125zm84.89844 53.203125l15.046875 2.234375q0.9375 6.96875 5.234375 10.140625q5.765625 4.296875 15.734375 4.296875q10.734375 0 16.578125 -4.296875q5.84375 -4.296875 7.90625 -12.03125q1.203125 -4.71875 1.125 -19.859375q-10.140625 11.953125 -25.265625 11.953125q-18.828125 0 -29.140625 -13.578125q-10.3125 -13.578125 -10.3125 -32.578125q0 -13.0625 4.71875 -24.09375q4.734375 -11.046875 13.71875 -17.0625q8.984375 -6.015625 21.09375 -6.015625q16.15625 0 26.640625 13.0625l0 -11.0l14.265625 0l0 78.890625q0 21.3125 -4.34375 30.203125q-4.328125 8.90625 -13.75 14.0625q-9.40625 5.15625 -23.15625 5.15625q-16.328125 0 -26.390625 -7.359375q-10.046875 -7.34375 -9.703125 -22.125zm12.8125 -54.828125q0 17.953125 7.125 26.203125q7.140625 8.25 17.875 8.25q10.65625 0 17.875 -8.203125q7.21875 -8.203125 7.21875 -25.734375q0 -16.765625 -7.4375 -25.265625q-7.421875 -8.515625 -17.90625 -8.515625q-10.3125 0 -17.53125 8.390625q-7.21875 8.375 -7.21875 24.875zm150.38281 17.875l15.984375 1.96875q-3.78125 14.015625 -14.015625 21.75q-10.21875 7.734375 -26.109375 7.734375q-20.03125 0 -31.765625 -12.328125q-11.71875 -12.34375 -11.71875 -34.59375q0 -23.03125 11.859375 -35.75q11.859375 -12.71875 30.765625 -12.71875q18.296875 0 29.890625 12.46875q11.609375 12.453125 11.609375 35.046875q0 1.375 -0.078125 4.125l-68.0625 0q0.859375 15.046875 8.5 23.046875q7.65625 7.984375 19.078125 7.984375q8.515625 0 14.53125 -4.46875q6.015625 -4.46875 9.53125 -14.265625zm-50.78125 -25.015625l50.953125 0q-1.03125 -11.515625 -5.84375 -17.265625q-7.390625 -8.9375 -19.15625 -8.9375q-10.65625 0 -17.921875 7.140625q-7.265625 7.125 -8.03125 19.0625zm119.96094 40.5625l2.234375 13.671875q-6.53125 1.375 -11.6875 1.375q-8.421875 0 -13.0625 -2.65625q-4.640625 -2.671875 -6.53125 -7.015625q-1.890625 -4.34375 -1.890625 -18.265625l0 -52.5l-11.34375 0l0 -12.03125l11.34375 0l0 -22.609375l15.390625 -9.28125l0 31.890625l15.546875 0l0 12.03125l-15.546875 0l0 53.359375q0 6.625 0.8125 8.515625q0.8125 1.890625 2.65625 3.015625q1.859375 1.109375 5.296875 1.109375q2.578125 0 6.78125 -0.609375zm15.1328125 13.84375l0 -125.984375l15.46875 0l0 45.203125q10.828125 -12.546875 27.328125 -12.546875q10.140625 0 17.609375 4.0q7.484375 3.984375 10.703125 11.03125q3.21875 7.046875 3.21875 20.453125l0 57.84375l-15.46875 0l0 -57.84375q0 -11.59375 -5.03125 -16.875q-5.015625 -5.296875 -14.21875 -5.296875q-6.875 0 -12.9375 3.578125q-6.046875 3.5625 -8.625 9.671875q-2.578125 6.09375 -2.578125 16.828125l0 49.9375l-15.46875 0zm160.35156 -29.390625l15.984375 1.96875q-3.78125 14.015625 -14.015625 21.75q-10.21875 7.734375 -26.109375 7.734375q-20.03125 0 -31.765625 -12.328125q-11.71875 -12.34375 -11.71875 -34.59375q0 -23.03125 11.859375 -35.75q11.859375 -12.71875 30.765625 -12.71875q18.296875 0 29.890625 12.46875q11.609375 12.453125 11.609375 35.046875q0 1.375 -0.078125 4.125l-68.0625 0q0.859375 15.046875 8.5 23.046875q7.65625 7.984375 19.078125 7.984375q8.515625 0 14.53125 -4.46875q6.015625 -4.46875 9.53125 -14.265625zm-50.78125 -25.015625l50.953125 0q-1.03125 -11.515625 -5.84375 -17.265625q-7.390625 -8.9375 -19.15625 -8.9375q-10.65625 0 -17.921875 7.140625q-7.265625 7.125 -8.03125 19.0625zm86.02344 54.40625l0 -91.265625l13.921875 0l0 13.828125q5.328125 -9.703125 9.828125 -12.796875q4.515625 -3.09375 9.9375 -3.09375q7.8125 0 15.890625 4.984375l-5.328125 14.34375q-5.671875 -3.34375 -11.34375 -3.34375q-5.0625 0 -9.109375 3.046875q-4.03125 3.046875 -5.75 8.46875q-2.578125 8.25 -2.578125 18.046875l0 47.78125l-15.46875 0z" fill-rule="nonzero"/><path fill="#000000" fill-opacity="0.0" d="m6532.8423 2887.5432l2366.0786 0l0 232.69312l-2366.0786 0z" fill-rule="evenodd"/><path fill="#434343" d="m6597.233 3032.2378l15.46875 -2.0625q2.671875 13.15625 9.0625 18.953125q6.40625 5.796875 15.609375 5.796875q10.90625 0 18.421875 -7.5625q7.53125 -7.5625 7.53125 -18.734375q0 -10.65625 -6.96875 -17.5625q-6.953125 -6.921875 -17.703125 -6.921875q-4.375 0 -10.90625 1.71875l1.71875 -13.578125q1.546875 0.171875 2.484375 0.171875q9.890625 0 17.796875 -5.15625q7.90625 -5.15625 7.90625 -15.90625q0 -8.5 -5.765625 -14.078125q-5.75 -5.59375 -14.859375 -5.59375q-9.03125 0 -15.046875 5.671875q-6.015625 5.671875 -7.734375 17.015625l-15.46875 -2.75q2.84375 -15.5625 12.890625 -24.109375q10.0625 -8.546875 25.015625 -8.546875q10.3125 0 18.984375 4.421875q8.6875 4.421875 13.28125 12.078125q4.59375 7.640625 4.59375 16.234375q0 8.171875 -4.390625 14.875q-4.375 6.703125 -12.96875 10.65625q11.171875 2.578125 17.359375 10.703125q6.1875 8.109375 6.1875 20.3125q0 16.5 -12.03125 27.984375q-12.03125 11.46875 -30.421875 11.46875q-16.578125 0 -27.546875 -9.875q-10.953125 -9.890625 -12.5 -25.625zm112.24219 70.3125l-11.09375 0q25.703125 -41.265625 25.703125 -82.59375q0 -16.15625 -3.703125 -32.0625q-2.921875 -12.890625 -8.15625 -24.75q-3.359375 -7.734375 -13.84375 -25.78125l11.09375 0q16.15625 21.578125 23.890625 43.3125q6.609375 18.734375 6.609375 39.1875q0 23.203125 -8.890625 44.875q-8.890625 21.65625 -21.609375 37.8125zm128.21875 -37.046875l0 -111.125l-41.515625 0l0 -14.859375l99.859375 0l0 14.859375l-41.671875 0l0 111.125l-16.671875 0zm66.77344 0l0 -91.265625l13.921875 0l0 13.828125q5.328125 -9.703125 9.828125 -12.796875q4.515625 -3.09375 9.9375 -3.09375q7.8125 0 15.890625 4.984375l-5.328125 14.34375q-5.671875 -3.34375 -11.34375 -3.34375q-5.0625 0 -9.109375 3.046875q-4.03125 3.046875 -5.75 8.46875q-2.578125 8.25 -2.578125 18.046875l0 47.78125l-15.46875 0zm118.59375 0l0 -13.40625q-10.65625 15.46875 -28.96875 15.46875q-8.078125 0 -15.078125 -3.09375q-7.0 -3.09375 -10.40625 -7.78125q-3.390625 -4.6875 -4.765625 -11.46875q-0.9375 -4.5625 -0.9375 -14.4375l0 -56.546875l15.46875 0l0 50.609375q0 12.125 0.9375 16.328125q1.46875 6.109375 6.1875 9.59375q4.734375 3.46875 11.6875 3.46875q6.96875 0 13.0625 -3.5625q6.109375 -3.5625 8.640625 -9.703125q2.53125 -6.15625 2.53125 -17.84375l0 -48.890625l15.46875 0l0 91.265625l-13.828125 0zm38.070312 0l0 -91.265625l13.921875 0l0 12.96875q10.046875 -15.03125 29.046875 -15.03125q8.25 0 15.15625 2.96875q6.921875 2.953125 10.359375 7.765625q3.4375 4.8125 4.8125 11.4375q0.859375 4.296875 0.859375 15.03125l0 56.125l-15.46875 0l0 -55.515625q0 -9.453125 -1.8125 -14.140625q-1.796875 -4.6875 -6.390625 -7.46875q-4.59375 -2.796875 -10.78125 -2.796875q-9.890625 0 -17.0625 6.28125q-7.171875 6.265625 -7.171875 23.796875l0 49.84375l-15.46875 0zm157.42969 -33.4375l15.21875 1.984375q-2.5 15.71875 -12.765625 24.625q-10.265625 8.890625 -25.21875 8.890625q-18.734375 0 -30.125 -12.25q-11.390625 -12.25 -11.390625 -35.109375q0 -14.78125 4.890625 -25.859375q4.90625 -11.09375 14.921875 -16.625q10.015625 -5.546875 21.78125 -5.546875q14.875 0 24.328125 7.515625q9.453125 7.515625 12.109375 21.359375l-15.03125 2.3125q-2.15625 -9.1875 -7.609375 -13.828125q-5.453125 -4.640625 -13.1875 -4.640625q-11.6875 0 -19.0 8.375q-7.296875 8.375 -7.296875 26.515625q0 18.390625 7.046875 26.734375q7.046875 8.328125 18.390625 8.328125q9.109375 0 15.203125 -5.578125q6.109375 -5.59375 7.734375 -17.203125zm88.0 22.171875q-8.59375 7.3125 -16.546875 10.328125q-7.9375 3.0 -17.046875 3.0q-15.046875 0 -23.125 -7.34375q-8.078125 -7.359375 -8.078125 -18.78125q0 -6.703125 3.046875 -12.25q3.0625 -5.546875 8.0 -8.890625q4.9375 -3.359375 11.125 -5.078125q4.5625 -1.203125 13.75 -2.3125q18.734375 -2.234375 27.59375 -5.328125q0.078125 -3.1875 0.078125 -4.046875q0 -9.453125 -4.375 -13.3125q-5.9375 -5.25 -17.625 -5.25q-10.90625 0 -16.109375 3.828125q-5.203125 3.828125 -7.6875 13.53125l-15.125 -2.0625q2.0625 -9.703125 6.78125 -15.671875q4.734375 -5.984375 13.671875 -9.203125q8.9375 -3.21875 20.703125 -3.21875q11.6875 0 18.984375 2.75q7.3125 2.75 10.75 6.921875q3.4375 4.15625 4.8125 10.515625q0.78125 3.953125 0.78125 14.265625l0 20.625q0 21.578125 0.984375 27.296875q0.984375 5.703125 3.90625 10.953125l-16.15625 0q-2.40625 -4.8125 -3.09375 -11.265625zm-1.28125 -34.546875q-8.421875 3.4375 -25.265625 5.84375q-9.546875 1.375 -13.5 3.09375q-3.953125 1.71875 -6.109375 5.03125q-2.140625 3.3125 -2.140625 7.34375q0 6.1875 4.6875 10.3125q4.6875 4.125 13.703125 4.125q8.9375 0 15.890625 -3.90625q6.96875 -3.90625 10.234375 -10.703125q2.5 -5.234375 2.5 -15.46875l0 -5.671875zm73.38281 31.96875l2.234375 13.671875q-6.53125 1.375 -11.6875 1.375q-8.421875 0 -13.0625 -2.65625q-4.640625 -2.671875 -6.53125 -7.015625q-1.890625 -4.34375 -1.890625 -18.265625l0 -52.5l-11.34375 0l0 -12.03125l11.34375 0l0 -22.609375l15.390625 -9.28125l0 31.890625l15.546875 0l0 12.03125l-15.546875 0l0 53.359375q0 6.625 0.8125 8.515625q0.8125 1.890625 2.65625 3.015625q1.859375 1.109375 5.296875 1.109375q2.578125 0 6.78125 -0.609375zm77.60156 -15.546875l15.984375 1.96875q-3.78125 14.015625 -14.015625 21.75q-10.21875 7.734375 -26.109375 7.734375q-20.03125 0 -31.765625 -12.328125q-11.71875 -12.34375 -11.71875 -34.59375q0 -23.03125 11.859375 -35.75q11.859375 -12.71875 30.765625 -12.71875q18.296875 0 29.890625 12.46875q11.609375 12.453125 11.609375 35.046875q0 1.375 -0.078125 4.125l-68.0625 0q0.859375 15.046875 8.5 23.046875q7.65625 7.984375 19.078125 7.984375q8.515625 0 14.53125 -4.46875q6.015625 -4.46875 9.53125 -14.265625zm-50.78125 -25.015625l50.953125 0q-1.03125 -11.515625 -5.84375 -17.265625q-7.390625 -8.9375 -19.15625 -8.9375q-10.65625 0 -17.921875 7.140625q-7.265625 7.125 -8.03125 19.0625zm168.85938 40.5625l2.234375 13.671875q-6.53125 1.375 -11.6875 1.375q-8.421875 0 -13.0625 -2.65625q-4.640625 -2.671875 -6.53125 -7.015625q-1.890625 -4.34375 -1.890625 -18.265625l0 -52.5l-11.34375 0l0 -12.03125l11.34375 0l0 -22.609375l15.390625 -9.28125l0 31.890625l15.546875 0l0 12.03125l-15.546875 0l0 53.359375q0 6.625 0.8125 8.515625q0.8125 1.890625 2.65625 3.015625q1.859375 1.109375 5.296875 1.109375q2.578125 0 6.78125 -0.609375zm9.3671875 -31.796875q0 -25.34375 14.09375 -37.546875q11.78125 -10.140625 28.703125 -10.140625q18.828125 0 30.765625 12.328125q11.953125 12.328125 11.953125 34.078125q0 17.609375 -5.296875 27.71875q-5.28125 10.09375 -15.375 15.6875q-10.09375 5.578125 -22.046875 5.578125q-19.15625 0 -30.984375 -12.28125q-11.8125 -12.296875 -11.8125 -35.421875zm15.90625 0q0 17.53125 7.640625 26.265625q7.65625 8.71875 19.25 8.71875q11.515625 0 19.15625 -8.765625q7.65625 -8.765625 7.65625 -26.734375q0 -16.921875 -7.6875 -25.640625q-7.6875 -8.734375 -19.125 -8.734375q-11.59375 0 -19.25 8.6875q-7.640625 8.671875 -7.640625 26.203125zm213.64062 30.765625l0 14.875l-83.28125 0q-0.171875 -5.59375 1.8125 -10.75q3.171875 -8.5 10.171875 -16.75q7.015625 -8.25 20.25 -19.078125q20.53125 -16.84375 27.75 -26.6875q7.21875 -9.84375 7.21875 -18.609375q0 -9.1875 -6.578125 -15.5q-6.5625 -6.328125 -17.140625 -6.328125q-11.171875 0 -17.875 6.703125q-6.703125 6.703125 -6.78125 18.5625l-15.90625 -1.625q1.640625 -17.796875 12.296875 -27.109375q10.65625 -9.328125 28.609375 -9.328125q18.140625 0 28.703125 10.0625q10.578125 10.046875 10.578125 24.90625q0 7.5625 -3.09375 14.875q-3.09375 7.296875 -10.28125 15.375q-7.171875 8.078125 -23.84375 22.171875q-13.921875 11.6875 -17.875 15.859375q-3.953125 4.171875 -6.53125 8.375l61.796875 0zm16.585938 -18.125l16.234375 -1.375q1.8125 11.859375 8.375 17.828125q6.578125 5.96875 15.859375 5.96875q11.171875 0 18.90625 -8.421875q7.734375 -8.421875 7.734375 -22.34375q0 -13.234375 -7.4375 -20.875q-7.421875 -7.65625 -19.453125 -7.65625q-7.484375 0 -13.5 3.40625q-6.015625 3.390625 -9.453125 8.796875l-14.515625 -1.890625l12.203125 -64.703125l62.640625 0l0 14.78125l-50.265625 0l-6.796875 33.859375q11.34375 -7.90625 23.8125 -7.90625q16.5 0 27.84375 11.4375q11.34375 11.421875 11.34375 29.375q0 17.109375 -9.96875 29.5625q-12.125 15.3125 -33.09375 15.3125q-17.1875 0 -28.0625 -9.625q-10.859375 -9.640625 -12.40625 -25.53125zm178.14844 -62.140625l-15.390625 1.203125q-2.0625 -9.109375 -5.84375 -13.234375q-6.265625 -6.609375 -15.46875 -6.609375q-7.390625 0 -12.96875 4.125q-7.3125 5.328125 -11.53125 15.5625q-4.203125 10.21875 -4.375 29.125q5.59375 -8.515625 13.671875 -12.640625q8.078125 -4.125 16.921875 -4.125q15.46875 0 26.34375 11.390625q10.875 11.390625 10.875 29.4375q0 11.859375 -5.125 22.046875q-5.109375 10.171875 -14.046875 15.59375q-8.9375 5.421875 -20.28125 5.421875q-19.328125 0 -31.53125 -14.21875q-12.203125 -14.234375 -12.203125 -46.890625q0 -36.53125 13.484375 -53.109375q11.78125 -14.4375 31.71875 -14.4375q14.859375 0 24.359375 8.34375q9.5 8.328125 11.390625 23.015625zm-63.171875 54.3125q0 8.0 3.390625 15.3125q3.40625 7.296875 9.5 11.125q6.109375 3.8125 12.8125 3.8125q9.796875 0 16.84375 -7.90625q7.046875 -7.90625 7.046875 -21.484375q0 -13.0625 -6.96875 -20.578125q-6.953125 -7.515625 -17.53125 -7.515625q-10.484375 0 -17.796875 7.515625q-7.296875 7.515625 -7.296875 19.71875zm148.25 40.828125l-14.359375 0l0 -125.984375l15.46875 0l0 44.9375q9.796875 -12.28125 25.015625 -12.28125q8.421875 0 15.9375 3.390625q7.515625 3.390625 12.375 9.546875q4.859375 6.140625 7.609375 14.828125q2.75 8.671875 2.75 18.546875q0 23.46875 -11.609375 36.28125q-11.59375 12.796875 -27.84375 12.796875q-16.15625 0 -25.34375 -13.5l0 11.4375zm-0.171875 -46.328125q0 16.421875 4.46875 23.71875q7.296875 11.953125 19.765625 11.953125q10.140625 0 17.53125 -8.8125q7.390625 -8.8125 7.390625 -26.25q0 -17.875 -7.09375 -26.375q-7.09375 -8.515625 -17.140625 -8.515625q-10.140625 0 -17.53125 8.8125q-7.390625 8.796875 -7.390625 25.46875zm83.86719 -61.875l0 -17.78125l15.469238 0l0 17.78125l-15.469238 0zm0 108.203125l0 -91.265625l15.469238 0l0 91.265625l-15.469238 0zm72.78955 -13.84375l2.234375 13.671875q-6.53125 1.375 -11.6875 1.375q-8.421875 0 -13.0625 -2.65625q-4.640625 -2.671875 -6.53125 -7.015625q-1.890625 -4.34375 -1.890625 -18.265625l0 -52.5l-11.34375 0l0 -12.03125l11.34375 0l0 -22.609375l15.390625 -9.28125l0 31.890625l15.546875 0l0 12.03125l-15.546875 0l0 53.359375q0 6.625 0.8125 8.515625q0.8125 1.890625 2.65625 3.015625q1.859375 1.109375 5.296875 1.109375q2.578125 0 6.78125 -0.609375zm8.9453125 -13.40625l15.296875 -2.40625q1.28125 9.203125 7.171875 14.109375q5.890625 4.890625 16.453125 4.890625q10.65625 0 15.8125 -4.34375q5.15625 -4.34375 5.15625 -10.1875q0 -5.234375 -4.546875 -8.25q-3.1875 -2.0625 -15.8125 -5.234375q-17.015625 -4.296875 -23.59375 -7.4375q-6.578125 -3.140625 -9.96875 -8.671875q-3.390625 -5.546875 -3.390625 -12.25q0 -6.109375 2.78125 -11.296875q2.796875 -5.203125 7.609375 -8.640625q3.609375 -2.671875 9.84375 -4.515625q6.234375 -1.84375 13.359375 -1.84375q10.75 0 18.859375 3.09375q8.125 3.09375 11.984375 8.375q3.875 5.28125 5.34375 14.140625l-15.125 2.0625q-1.03125 -7.046875 -5.984375 -11.0q-4.9375 -3.953125 -13.953125 -3.953125q-10.65625 0 -15.21875 3.53125q-4.546875 3.515625 -4.546875 8.234375q0 3.015625 1.890625 5.421875q1.890625 2.484375 5.921875 4.125q2.328125 0.859375 13.671875 3.953125q16.40625 4.375 22.890625 7.171875q6.5 2.796875 10.1875 8.125q3.703125 5.328125 3.703125 13.234375q0 7.734375 -4.515625 14.5625q-4.515625 6.828125 -13.03125 10.578125q-8.5 3.734375 -19.234375 3.734375q-17.796875 0 -27.125 -7.390625q-9.3125 -7.390625 -11.890625 -21.921875z" fill-rule="nonzero"/></g></svg>