<svg version="1.1" viewBox="0.0 0.0 1038.8267716535433 210.08923884514437" fill="none" stroke="none" stroke-linecap="square" stroke-miterlimit="10" xmlns:xlink="http://www.w3.org/1999/xlink" xmlns="http://www.w3.org/2000/svg"><clipPath id="p.0"><path d="m0 0l1038.8268 0l0 210.08923l-1038.8268 0l0 -210.08923z" clip-rule="nonzero"/></clipPath><g clip-path="url(#p.0)"><path fill="#000000" fill-opacity="0.0" d="m0 0l1038.8268 0l0 210.08923l-1038.8268 0z" fill-rule="evenodd"/><path fill="#cfe2f3" d="m99.16273 17.018373l93.79528 0l0 37.51181l-93.79528 0z" fill-rule="evenodd"/><path stroke="#000000" stroke-width="2.0" stroke-linejoin="round" stroke-linecap="butt" d="m99.16273 17.018373l93.79528 0l0 37.51181l-93.79528 0z" fill-rule="evenodd"/><path fill="#000000" fill-opacity="0.0" d="m652.5932 17.018373l184.59839 0l0 37.51181l-184.59839 0z" fill-rule="evenodd"/><path stroke="#b7b7b7" stroke-width="2.0" stroke-linejoin="round" stroke-linecap="butt" d="m652.5932 17.018373l184.59839 0l0 37.51181l-184.59839 0z" fill-rule="evenodd"/><path fill="#666666" d="m678.2963 39.2424q0.28125 0 0.53125 0.125q0.265625 0.109375 0.453125 0.296875q0.1875 0.1875 0.296875 0.453125q0.109375 0.25 0.109375 0.546875q0 0.296875 -0.109375 0.546875q-0.109375 0.25 -0.296875 0.453125q-0.1875 0.1875 -0.453125 0.296875q-0.25 0.109375 -0.53125 0.109375q-0.296875 0 -0.5625 -0.109375q-0.25 -0.109375 -0.4375 -0.296875q-0.1875 -0.203125 -0.296875 -0.453125q-0.109375 -0.25 -0.109375 -0.546875q0 -0.296875 0.109375 -0.546875q0.109375 -0.265625 0.296875 -0.453125q0.1875 -0.1875 0.4375 -0.296875q0.265625 -0.125 0.5625 -0.125zm19.054138 0q0.28125 0 0.53125 0.125q0.265625 0.109375 0.453125 0.296875q0.1875 0.1875 0.296875 0.453125q0.109375 0.25 0.109375 0.546875q0 0.296875 -0.109375 0.546875q-0.109375 0.25 -0.296875 0.453125q-0.1875 0.1875 -0.453125 0.296875q-0.25 0.109375 -0.53125 0.109375q-0.296875 0 -0.5625 -0.109375q-0.25 -0.109375 -0.4375 -0.296875q-0.1875 -0.203125 -0.296875 -0.453125q-0.109375 -0.25 -0.109375 -0.546875q0 -0.296875 0.109375 -0.546875q0.109375 -0.265625 0.296875 -0.453125q0.1875 -0.1875 0.4375 -0.296875q0.265625 -0.125 0.5625 -0.125zm19.0542 0q0.28125 0 0.53125 0.125q0.265625 0.109375 0.453125 0.296875q0.1875 0.1875 0.296875 0.453125q0.109375 0.25 0.109375 0.546875q0 0.296875 -0.109375 0.546875q-0.109375 0.25 -0.296875 0.453125q-0.1875 0.1875 -0.453125 0.296875q-0.25 0.109375 -0.53125 0.109375q-0.296875 0 -0.5625 -0.109375q-0.25 -0.109375 -0.4375 -0.296875q-0.1875 -0.203125 -0.296875 -0.453125q-0.109375 -0.25 -0.109375 -0.546875q0 -0.296875 0.109375 -0.546875q0.109375 -0.265625 0.296875 -0.453125q0.1875 -0.1875 0.4375 -0.296875q0.265625 -0.125 0.5625 -0.125zm19.054138 0q0.28125 0 0.53125 0.125q0.265625 0.109375 0.453125 0.296875q0.1875 0.1875 0.296875 0.453125q0.109375 0.25 0.109375 0.546875q0 0.296875 -0.109375 0.546875q-0.109375 0.25 -0.296875 0.453125q-0.1875 0.1875 -0.453125 0.296875q-0.25 0.109375 -0.53125 0.109375q-0.296875 0 -0.5625 -0.109375q-0.25 -0.109375 -0.4375 -0.296875q-0.1875 -0.203125 -0.296875 -0.453125q-0.109375 -0.25 -0.109375 -0.546875q0 -0.296875 0.109375 -0.546875q0.109375 -0.265625 0.296875 -0.453125q0.1875 -0.1875 0.4375 -0.296875q0.265625 -0.125 0.5625 -0.125zm19.0542 0q0.28125 0 0.53125 0.125q0.265625 0.109375 0.453125 0.296875q0.1875 0.1875 0.296875 0.453125q0.109375 0.25 0.109375 0.546875q0 0.296875 -0.109375 0.546875q-0.109375 0.25 -0.296875 0.453125q-0.1875 0.1875 -0.453125 0.296875q-0.25 0.109375 -0.53125 0.109375q-0.296875 0 -0.5625 -0.109375q-0.25 -0.109375 -0.4375 -0.296875q-0.1875 -0.203125 -0.296875 -0.453125q-0.109375 -0.25 -0.109375 -0.546875q0 -0.296875 0.109375 -0.546875q0.109375 -0.265625 0.296875 -0.453125q0.1875 -0.1875 0.4375 -0.296875q0.265625 -0.125 0.5625 -0.125zm19.054138 0q0.28125 0 0.53125 0.125q0.265625 0.109375 0.453125 0.296875q0.1875 0.1875 0.296875 0.453125q0.109375 0.25 0.109375 0.546875q0 0.296875 -0.109375 0.546875q-0.109375 0.25 -0.296875 0.453125q-0.1875 0.1875 -0.453125 0.296875q-0.25 0.109375 -0.53125 0.109375q-0.296875 0 -0.5625 -0.109375q-0.25 -0.109375 -0.4375 -0.296875q-0.1875 -0.203125 -0.296875 -0.453125q-0.109375 -0.25 -0.109375 -0.546875q0 -0.296875 0.109375 -0.546875q0.109375 -0.265625 0.296875 -0.453125q0.1875 -0.1875 0.4375 -0.296875q0.265625 -0.125 0.5625 -0.125zm19.0542 0q0.28125 0 0.53125 0.125q0.265625 0.109375 0.453125 0.296875q0.1875 0.1875 0.296875 0.453125q0.109375 0.25 0.109375 0.546875q0 0.296875 -0.109375 0.546875q-0.109375 0.25 -0.296875 0.453125q-0.1875 0.1875 -0.453125 0.296875q-0.25 0.109375 -0.53125 0.109375q-0.296875 0 -0.5625 -0.109375q-0.25 -0.109375 -0.4375 -0.296875q-0.1875 -0.203125 -0.296875 -0.453125q-0.109375 -0.25 -0.109375 -0.546875q0 -0.296875 0.109375 -0.546875q0.109375 -0.265625 0.296875 -0.453125q0.1875 -0.1875 0.4375 -0.296875q0.265625 -0.125 0.5625 -0.125z" fill-rule="nonzero"/><path fill="#000000" fill-opacity="0.0" d="m99.16273 17.018373l184.59845 0l0 37.51181l-184.59845 0z" fill-rule="evenodd"/><path stroke="#000000" stroke-width="2.0" stroke-linejoin="round" stroke-linecap="butt" d="m99.16273 17.018373l184.59845 0l0 37.51181l-184.59845 0z" fill-rule="evenodd"/><path fill="#000000" d="m124.41273 34.633026l-2.515625 0l0 -1.21875l4.0 0l0 7.265625l2.5312576 0l0 1.234375l-6.8125076 0l0 -1.234375l2.796875 0l0 -6.046875zm0.515625 -4.781248q0.25 0 0.453125 0.09375q0.21875 0.09375 0.375 0.25q0.15625 0.15625 0.234375 0.375q0.09375 0.203125 0.09375 0.453125q0 0.234375 -0.09375 0.453125q-0.078125 0.203125 -0.234375 0.359375q-0.15625 0.15625 -0.375 0.2499981q-0.203125 0.09375 -0.453125 0.09375q-0.25 0 -0.46875 -0.09375q-0.203125 -0.09374809 -0.359375 -0.2499981q-0.15625 -0.15625 -0.25 -0.359375q-0.078125 -0.21875 -0.078125 -0.453125q0 -0.25 0.078125 -0.453125q0.09375 -0.21875 0.25 -0.375q0.15625 -0.15625 0.359375 -0.25q0.21875 -0.09375 0.46875 -0.09375zm6.120842 3.562498l1.3125 0l0.046875 1.375q0.375 -0.4375 0.71875 -0.71875q0.359375 -0.296875 0.6875 -0.46875q0.328125 -0.1875 0.671875 -0.25q0.359375 -0.078125 0.734375 -0.078125q1.3125 0 1.984375 0.78125q0.671875 0.765625 0.671875 2.3125l0 5.546875l-1.484375 0l0 -5.421875q0 -1.0 -0.375 -1.46875q-0.359375 -0.484375 -1.09375 -0.484375q-0.28125 0 -0.546875 0.078125q-0.25 0.078125 -0.53125 0.28125q-0.265625 0.203125 -0.59375 0.546875q-0.328125 0.328125 -0.734375 0.828125l0 5.640625l-1.46875 0l0 -8.5zm9.527084 0l1.3125 0l0.046875 1.375q0.375 -0.4375 0.71875 -0.71875q0.359375 -0.296875 0.6875 -0.46875q0.328125 -0.1875 0.671875 -0.25q0.359375 -0.078125 0.734375 -0.078125q1.3125 0 1.984375 0.78125q0.671875 0.765625 0.671875 2.3125l0 5.546875l-1.484375 0l0 -5.421875q0 -1.0 -0.375 -1.46875q-0.359375 -0.484375 -1.09375 -0.484375q-0.28125 0 -0.546875 0.078125q-0.25 0.078125 -0.53125 0.28125q-0.265625 0.203125 -0.59375 0.546875q-0.328125 0.328125 -0.734375 0.828125l0 5.640625l-1.46875 0l0 -8.5zm16.69896 3.796875q0 0.328125 -0.015625 0.546875q0 0.203125 -0.015625 0.375l-5.96875 0q0 1.3125 0.71875 2.015625q0.734375 0.6875 2.109375 0.6875q0.375 0 0.734375 -0.03125q0.375 -0.03125 0.71875 -0.078125q0.359375 -0.046875 0.671875 -0.109375q0.3125 -0.0625 0.59375 -0.140625l0 1.203125q-0.609375 0.171875 -1.375 0.28125q-0.75 0.109375 -1.5625 0.109375q-1.09375 0 -1.875 -0.296875q-0.78125 -0.296875 -1.296875 -0.859375q-0.5 -0.5625 -0.75 -1.375q-0.234375 -0.828125 -0.234375 -1.859375q0 -0.890625 0.25 -1.6875q0.265625 -0.796875 0.765625 -1.40625q0.5 -0.609375 1.21875 -0.953125q0.71875 -0.359375 1.625 -0.359375q0.890625 0 1.578125 0.28125q0.6875 0.265625 1.15625 0.78125q0.46875 0.515625 0.703125 1.25q0.25 0.734375 0.25 1.625zm-1.53125 -0.203125q0.015625 -0.5625 -0.125 -1.03125q-0.125 -0.46875 -0.40625 -0.8125q-0.28125 -0.34375 -0.703125 -0.53125q-0.421875 -0.1875 -0.984375 -0.1875q-0.484375 0 -0.890625 0.1875q-0.390625 0.1875 -0.6875 0.53125q-0.28125 0.328125 -0.453125 0.8125q-0.171875 0.46875 -0.21875 1.03125l4.46875 0zm4.2302094 -3.59375l1.34375 0l0.046875 1.578125q0.75 -0.90625 1.484375 -1.3125q0.734375 -0.40625 1.46875 -0.40625q1.328125 0 2.0 0.859375q0.6875 0.84375 0.640625 2.53125l-1.5 0q0.03125 -1.125 -0.328125 -1.625q-0.34375 -0.5 -1.015625 -0.5q-0.296875 0 -0.609375 0.109375q-0.296875 0.09375 -0.609375 0.328125q-0.3125 0.234375 -0.671875 0.609375q-0.359375 0.359375 -0.765625 0.875l0 5.453125l-1.484375 0l0 -8.5zm54.932297 8.5l-2.03125 0l-3.953125 -4.546875l0 4.546875l-1.46875 0l0 -11.953123l1.46875 0l0 7.343748l3.8125 -3.890625l1.953125 0l-4.0 3.921875l4.21875 4.578125zm9.058334 -4.703125q0 0.328125 -0.015625 0.546875q0 0.203125 -0.015625 0.375l-5.96875 0q0 1.3125 0.71875 2.015625q0.734375 0.6875 2.109375 0.6875q0.375 0 0.734375 -0.03125q0.375 -0.03125 0.71875 -0.078125q0.359375 -0.046875 0.671875 -0.109375q0.3125 -0.0625 0.59375 -0.140625l0 1.203125q-0.609375 0.171875 -1.375 0.28125q-0.75 0.109375 -1.5625 0.109375q-1.09375 0 -1.875 -0.296875q-0.78125 -0.296875 -1.296875 -0.859375q-0.5 -0.5625 -0.75 -1.375q-0.234375 -0.828125 -0.234375 -1.859375q0 -0.890625 0.25 -1.6875q0.265625 -0.796875 0.765625 -1.40625q0.5 -0.609375 1.21875 -0.953125q0.71875 -0.359375 1.625 -0.359375q0.890625 0 1.578125 0.28125q0.6875 0.265625 1.15625 0.78125q0.46875 0.515625 0.703125 1.25q0.25 0.734375 0.25 1.625zm-1.53125 -0.203125q0.015625 -0.5625 -0.125 -1.03125q-0.125 -0.46875 -0.40625 -0.8125q-0.28125 -0.34375 -0.703125 -0.53125q-0.421875 -0.1875 -0.984375 -0.1875q-0.484375 0 -0.890625 0.1875q-0.390625 0.1875 -0.6875 0.53125q-0.28125 0.328125 -0.453125 0.8125q-0.171875 0.46875 -0.21875 1.03125l4.46875 0zm11.433334 -3.59375l-2.890625 7.609375q-0.453125 1.15625 -0.9375 1.984375q-0.46875 0.84375 -1.03125 1.375q-0.5625 0.546875 -1.25 0.796875q-0.671875 0.25 -1.515625 0.25q-0.21875 0 -0.40625 -0.015625q-0.171875 0 -0.375 -0.015625l0 -1.328125q0.1875 0.015625 0.40625 0.03125q0.21875 0.03125 0.46875 0.03125q0.40625 0 0.75 -0.125q0.359375 -0.109375 0.671875 -0.375q0.3125 -0.265625 0.59375 -0.703125q0.296875 -0.421875 0.5625 -1.015625l-3.390625 -8.5l1.671875 0l2.140625 5.625l0.4375 1.3125l0.5 -1.34375l1.984375 -5.59375l1.609375 0z" fill-rule="nonzero"/><path fill="#000000" fill-opacity="0.0" d="m283.76117 17.018373l184.59842 0l0 37.51181l-184.59842 0z" fill-rule="evenodd"/><path stroke="#000000" stroke-width="2.0" stroke-linejoin="round" stroke-linecap="butt" d="m283.76117 17.018373l184.59842 0l0 37.51181l-184.59842 0z" fill-rule="evenodd"/><path fill="#000000" d="m312.16742 41.914276l0 -6.09375q0 -0.40625 -0.03125 -0.65625q-0.015625 -0.25 -0.09375 -0.390625q-0.0625 -0.15625 -0.15625 -0.21875q-0.09375 -0.0625 -0.234375 -0.0625q-0.171875 0 -0.3125 0.109375q-0.140625 0.09375 -0.3125 0.328125q-0.171875 0.21875 -0.375 0.609375q-0.1875 0.375 -0.453125 0.921875l0 5.453125l-1.34375 0l0 -5.9375q0 -0.46875 -0.03125 -0.75q-0.03125 -0.296875 -0.09375 -0.453125q-0.0625 -0.15625 -0.171875 -0.21875q-0.09375 -0.0625 -0.25 -0.0625q-0.140625 0 -0.28125 0.09375q-0.140625 0.078125 -0.3125 0.296875q-0.15625 0.21875 -0.359375 0.609375q-0.203125 0.375 -0.484375 0.96875l0 5.453125l-1.34375 0l0 -8.5l1.125 0l0.0625 1.625q0.21875 -0.484375 0.421875 -0.8125q0.21875 -0.34375 0.4375 -0.546875q0.21875 -0.21875 0.46875 -0.3125q0.25 -0.09375 0.546875 -0.09375q0.6875 0 1.046875 0.453125q0.359375 0.4375 0.359375 1.375q0.203125 -0.4375 0.390625 -0.78125q0.203125 -0.34375 0.421875 -0.578125q0.21875 -0.234375 0.484375 -0.34375q0.28125 -0.125 0.640625 -0.125q1.59375 0 1.59375 2.453125l0 6.1875l-1.359375 0zm10.198944 -2.3125q0 0.4375 -0.15625 0.796875q-0.140625 0.359375 -0.40625 0.640625q-0.265625 0.265625 -0.609375 0.46875q-0.34375 0.1875 -0.75 0.3125q-0.390625 0.125 -0.8125 0.1875q-0.40625 0.0625 -0.796875 0.0625q-0.859375 0 -1.59375 -0.078125q-0.71875 -0.078125 -1.40625 -0.25l0 -1.34375q0.734375 0.203125 1.46875 0.3125q0.734375 0.109375 1.46875 0.109375q1.0625 0 1.5625 -0.28125q0.515625 -0.296875 0.515625 -0.828125q0 -0.21875 -0.09375 -0.40625q-0.078125 -0.1875 -0.296875 -0.34375q-0.203125 -0.171875 -0.65625 -0.34375q-0.4375 -0.1875 -1.203125 -0.40625q-0.578125 -0.171875 -1.0625 -0.390625q-0.484375 -0.21875 -0.84375 -0.515625q-0.34375 -0.296875 -0.546875 -0.6875q-0.203125 -0.390625 -0.203125 -0.9375q0 -0.359375 0.15625 -0.78125q0.171875 -0.421875 0.5625 -0.78125q0.40625 -0.375 1.078125 -0.609375q0.671875 -0.234375 1.6875 -0.234375q0.5 0 1.109375 0.0625q0.609375 0.046875 1.265625 0.171875l0 1.3125q-0.6875 -0.171875 -1.3125 -0.25q-0.625 -0.078125 -1.078125 -0.078125q-0.546875 0 -0.921875 0.09375q-0.375 0.078125 -0.609375 0.234375q-0.234375 0.140625 -0.34375 0.34375q-0.09375 0.1875 -0.09375 0.421875q0 0.234375 0.078125 0.421875q0.09375 0.171875 0.328125 0.359375q0.25 0.171875 0.671875 0.34375q0.4375 0.171875 1.140625 0.375q0.75 0.21875 1.265625 0.46875q0.515625 0.234375 0.828125 0.53125q0.328125 0.296875 0.46875 0.671875q0.140625 0.359375 0.140625 0.84375zm8.917725 -4.984375q0.234375 0.296875 0.359375 0.703125q0.140625 0.390625 0.140625 0.84375q0 0.65625 -0.25 1.203125q-0.234375 0.546875 -0.671875 0.9375q-0.4375 0.390625 -1.0625 0.609375q-0.609375 0.203125 -1.34375 0.203125q-0.53125 0 -1.0 -0.109375q-0.453125 -0.109375 -0.734375 -0.28125q-0.15625 0.234375 -0.265625 0.453125q-0.109375 0.203125 -0.109375 0.46875q0 0.3125 0.296875 0.53125q0.3125 0.21875 0.828125 0.234375l2.234375 0.078125q0.625 0.015625 1.15625 0.171875q0.546875 0.140625 0.9375 0.40625q0.390625 0.265625 0.59375 0.671875q0.21875 0.390625 0.21875 0.921875q0 0.5625 -0.25 1.0625q-0.234375 0.515625 -0.75 0.890625q-0.515625 0.390625 -1.296875 0.609375q-0.78125 0.234375 -1.875 0.234375q-1.03125 0 -1.75 -0.171875q-0.71875 -0.15625 -1.1875 -0.453125q-0.46875 -0.28125 -0.6875 -0.6875q-0.203125 -0.390625 -0.203125 -0.875q0 -0.625 0.28125 -1.09375q0.296875 -0.453125 0.890625 -0.890625q-0.21875 -0.109375 -0.375 -0.25q-0.15625 -0.15625 -0.265625 -0.328125q-0.09375 -0.1875 -0.15625 -0.390625q-0.046875 -0.203125 -0.046875 -0.40625q0 -0.546875 0.25 -1.0q0.265625 -0.453125 0.625 -0.859375q-0.15625 -0.203125 -0.28125 -0.390625q-0.125 -0.1875 -0.21875 -0.390625q-0.09375 -0.21875 -0.140625 -0.46875q-0.046875 -0.25 -0.046875 -0.578125q0 -0.65625 0.234375 -1.203125q0.25 -0.546875 0.6875 -0.9375q0.4375 -0.390625 1.046875 -0.59375q0.625 -0.21875 1.359375 -0.21875q0.3125 0 0.59375 0.046875q0.296875 0.03125 0.515625 0.09375l3.078125 0l0 1.203125l-1.359375 0zm-5.109375 8.53125q0 0.59375 0.625 0.859375q0.625 0.28125 1.75 0.28125q0.703125 0 1.171875 -0.125q0.484375 -0.125 0.765625 -0.34375q0.296875 -0.203125 0.421875 -0.46875q0.125 -0.265625 0.125 -0.546875q0 -0.515625 -0.421875 -0.765625q-0.421875 -0.234375 -1.28125 -0.28125l-2.21875 -0.078125q-0.28125 0.1875 -0.46875 0.359375q-0.1875 0.1875 -0.296875 0.359375q-0.09375 0.1875 -0.140625 0.375q-0.03125 0.1875 -0.03125 0.375zm0.453125 -6.953125q0 0.40625 0.125 0.75q0.140625 0.328125 0.390625 0.578125q0.25 0.234375 0.578125 0.359375q0.328125 0.125 0.734375 0.125q0.4375 0 0.78125 -0.140625q0.34375 -0.15625 0.578125 -0.40625q0.234375 -0.25 0.359375 -0.578125q0.125 -0.328125 0.125 -0.6875q0 -0.40625 -0.140625 -0.734375q-0.140625 -0.34375 -0.390625 -0.578125q-0.234375 -0.25 -0.578125 -0.375q-0.328125 -0.125 -0.734375 -0.125q-0.4375 0 -0.78125 0.15625q-0.34375 0.140625 -0.578125 0.390625q-0.234375 0.25 -0.359375 0.578125q-0.109375 0.328125 -0.109375 0.6875zm24.194794 5.40625q-0.578125 0.21875 -1.1875 0.328125q-0.59375 0.109375 -1.234375 0.109375q-2.015625 0 -3.109375 -1.09375q-1.078125 -1.09375 -1.078125 -3.1875q0 -1.015625 0.3125 -1.828125q0.3125 -0.828125 0.875 -1.40625q0.5625 -0.59375 1.34375 -0.90625q0.796875 -0.3125 1.75 -0.3125q0.65625 0 1.21875 0.09375q0.578125 0.09375 1.109375 0.296875l0 1.40625q-0.546875 -0.28125 -1.125 -0.40625q-0.5625 -0.140625 -1.171875 -0.140625q-0.578125 0 -1.078125 0.21875q-0.5 0.21875 -0.890625 0.625q-0.375 0.390625 -0.59375 0.984375q-0.21875 0.578125 -0.21875 1.3125q0 1.546875 0.75 2.3125q0.75 0.765625 2.078125 0.765625q0.59375 0 1.15625 -0.125q0.5625 -0.140625 1.09375 -0.421875l0 1.375zm9.761444 0.3125l-1.484375 0l0 -5.421875q0 -0.984375 -0.375 -1.46875q-0.359375 -0.484375 -1.046875 -0.484375q-0.296875 0 -0.5625 0.078125q-0.25 0.078125 -0.53125 0.28125q-0.265625 0.203125 -0.609375 0.546875q-0.328125 0.328125 -0.75 0.828125l0 5.640625l-1.46875 0l0 -11.953123l1.46875 0l0 3.453123l-0.046875 1.34375q0.34375 -0.421875 0.671875 -0.703125q0.34375 -0.28125 0.671875 -0.453125q0.328125 -0.1875 0.671875 -0.25q0.359375 -0.078125 0.734375 -0.078125q1.265625 0 1.953125 0.78125q0.703125 0.765625 0.703125 2.3125l0 5.546875zm9.5271 0l-1.328125 0l-0.046875 -1.375q-0.375 0.4375 -0.71875 0.734375q-0.34375 0.296875 -0.6875 0.484375q-0.34375 0.171875 -0.6875 0.234375q-0.34375 0.078125 -0.71875 0.078125q-1.3125 0 -1.984375 -0.765625q-0.65625 -0.78125 -0.65625 -2.328125l0 -5.5625l1.46875 0l0 5.4375q0 1.953125 1.46875 1.953125q0.265625 0 0.515625 -0.078125q0.265625 -0.078125 0.546875 -0.28125q0.296875 -0.203125 0.609375 -0.53125q0.328125 -0.34375 0.734375 -0.859375l0 -5.640625l1.484375 0l0 8.5zm2.698944 -8.5l1.3125 0l0.046875 1.375q0.375 -0.4375 0.71875 -0.71875q0.359375 -0.296875 0.6875 -0.46875q0.328125 -0.1875 0.671875 -0.25q0.359375 -0.078125 0.734375 -0.078125q1.3125 0 1.984375 0.78125q0.671875 0.765625 0.671875 2.3125l0 5.546875l-1.484375 0l0 -5.421875q0 -1.0 -0.375 -1.46875q-0.359375 -0.484375 -1.09375 -0.484375q-0.28125 0 -0.546875 0.078125q-0.25 0.078125 -0.53125 0.28125q-0.265625 0.203125 -0.59375 0.546875q-0.328125 0.328125 -0.734375 0.828125l0 5.640625l-1.46875 0l0 -8.5zm17.167725 8.5l-2.03125 0l-3.953125 -4.546875l0 4.546875l-1.46875 0l0 -11.953123l1.46875 0l0 7.343748l3.8125 -3.890625l1.953125 0l-4.0 3.921875l4.21875 4.578125zm18.772919 -3.109375l-1.890625 0l-0.3125 3.109375l-1.25 0l0.3125 -3.109375l-2.15625 0l-0.3125 3.109375l-1.25 0l0.3125 -3.109375l-1.8125 0l0 -1.09375l1.921875 0l0.296875 -2.96875l-1.78125 0l0 -1.09375l1.890625 0l0.296875 -2.796873l1.234375 0l-0.28125 2.796873l2.15625 0l0.296875 -2.796873l1.25 0l-0.296875 2.796873l1.8125 0l0 1.09375l-1.921875 0l-0.296875 2.96875l1.78125 0l0 1.09375zm-3.03125 -1.09375l0.296875 -2.96875l-2.15625 0l-0.296875 2.96875l2.15625 0zm12.620819 -1.328125q0 1.28125 -0.25 2.328125q-0.25 1.03125 -0.765625 1.78125q-0.515625 0.75 -1.28125 1.171875q-0.765625 0.40625 -1.8125 0.40625q-0.875 0 -1.609375 -0.328125q-0.734375 -0.34375 -1.25 -1.03125q-0.515625 -0.703125 -0.796875 -1.765625q-0.265625 -1.078125 -0.265625 -2.5625q0 -1.265625 0.25 -2.3125q0.265625 -1.046875 0.765625 -1.796875q0.515625 -0.7499981 1.28125 -1.1562481q0.78125 -0.40625 1.796875 -0.40625q0.890625 0 1.609375 0.328125q0.734375 0.328125 1.25 1.0312481q0.515625 0.703125 0.796875 1.78125q0.28125 1.0625 0.28125 2.53125zm-1.484375 0.0625q0 -0.296875 -0.03125 -0.578125q-0.015625 -0.28125 -0.046875 -0.546875l-4.671875 3.46875q0.125 0.4375 0.3125 0.8125q0.203125 0.375 0.46875 0.640625q0.28125 0.265625 0.625 0.421875q0.359375 0.140625 0.8125 0.140625q0.578125 0 1.046875 -0.28125q0.46875 -0.28125 0.796875 -0.828125q0.328125 -0.546875 0.5 -1.359375q0.1875 -0.828125 0.1875 -1.890625zm-5.0625 -0.109375q0 0.265625 0 0.53125q0 0.265625 0.03125 0.5l4.6875 -3.453125q-0.140625 -0.4375 -0.328125 -0.78125q-0.1875 -0.359375 -0.46875 -0.609375q-0.265625 -0.265625 -0.625 -0.40625q-0.34375 -0.1562481 -0.765625 -0.1562481q-0.578125 0 -1.046875 0.2812481q-0.46875 0.28125 -0.796875 0.84375q-0.328125 0.546875 -0.515625 1.359375q-0.171875 0.8125 -0.171875 1.890625z" fill-rule="nonzero"/><path fill="#000000" fill-opacity="0.0" d="m468.3596 17.018373l184.59842 0l0 37.51181l-184.59842 0z" fill-rule="evenodd"/><path stroke="#000000" stroke-width="2.0" stroke-linejoin="round" stroke-linecap="butt" d="m468.3596 17.018373l184.59842 0l0 37.51181l-184.59842 0z" fill-rule="evenodd"/><path fill="#000000" d="m496.76584 41.914276l0 -6.09375q0 -0.40625 -0.03125 -0.65625q-0.015625 -0.25 -0.09375 -0.390625q-0.0625 -0.15625 -0.15625 -0.21875q-0.09375 -0.0625 -0.234375 -0.0625q-0.171875 0 -0.3125 0.109375q-0.140625 0.09375 -0.3125 0.328125q-0.171875 0.21875 -0.375 0.609375q-0.1875 0.375 -0.453125 0.921875l0 5.453125l-1.34375 0l0 -5.9375q0 -0.46875 -0.03125 -0.75q-0.03125 -0.296875 -0.09375 -0.453125q-0.0625 -0.15625 -0.171875 -0.21875q-0.09375 -0.0625 -0.25 -0.0625q-0.140625 0 -0.28125 0.09375q-0.140625 0.078125 -0.3125 0.296875q-0.15625 0.21875 -0.359375 0.609375q-0.203125 0.375 -0.484375 0.96875l0 5.453125l-1.34375 0l0 -8.5l1.125 0l0.0625 1.625q0.21875 -0.484375 0.421875 -0.8125q0.21875 -0.34375 0.4375 -0.546875q0.21875 -0.21875 0.46875 -0.3125q0.25 -0.09375 0.546875 -0.09375q0.6875 0 1.046875 0.453125q0.359375 0.4375 0.359375 1.375q0.203125 -0.4375 0.390625 -0.78125q0.203125 -0.34375 0.421875 -0.578125q0.21875 -0.234375 0.484375 -0.34375q0.28125 -0.125 0.640625 -0.125q1.59375 0 1.59375 2.453125l0 6.1875l-1.359375 0zm10.198944 -2.3125q0 0.4375 -0.15625 0.796875q-0.140625 0.359375 -0.40625 0.640625q-0.265625 0.265625 -0.609375 0.46875q-0.34375 0.1875 -0.75 0.3125q-0.390625 0.125 -0.8125 0.1875q-0.40625 0.0625 -0.796875 0.0625q-0.859375 0 -1.59375 -0.078125q-0.71875 -0.078125 -1.40625 -0.25l0 -1.34375q0.734375 0.203125 1.46875 0.3125q0.734375 0.109375 1.46875 0.109375q1.0625 0 1.5625 -0.28125q0.515625 -0.296875 0.515625 -0.828125q0 -0.21875 -0.09375 -0.40625q-0.078125 -0.1875 -0.296875 -0.34375q-0.203125 -0.171875 -0.65625 -0.34375q-0.4375 -0.1875 -1.203125 -0.40625q-0.578125 -0.171875 -1.0625 -0.390625q-0.484375 -0.21875 -0.84375 -0.515625q-0.34375 -0.296875 -0.546875 -0.6875q-0.203125 -0.390625 -0.203125 -0.9375q0 -0.359375 0.15625 -0.78125q0.171875 -0.421875 0.5625 -0.78125q0.40625 -0.375 1.078125 -0.609375q0.671875 -0.234375 1.6875 -0.234375q0.5 0 1.109375 0.0625q0.609375 0.046875 1.265625 0.171875l0 1.3125q-0.6875 -0.171875 -1.3125 -0.25q-0.625 -0.078125 -1.078125 -0.078125q-0.546875 0 -0.921875 0.09375q-0.375 0.078125 -0.609375 0.234375q-0.234375 0.140625 -0.34375 0.34375q-0.09375 0.1875 -0.09375 0.421875q0 0.234375 0.078125 0.421875q0.09375 0.171875 0.328125 0.359375q0.25 0.171875 0.671875 0.34375q0.4375 0.171875 1.140625 0.375q0.75 0.21875 1.265625 0.46875q0.515625 0.234375 0.828125 0.53125q0.328125 0.296875 0.46875 0.671875q0.140625 0.359375 0.140625 0.84375zm8.917725 -4.984375q0.234375 0.296875 0.359375 0.703125q0.140625 0.390625 0.140625 0.84375q0 0.65625 -0.25 1.203125q-0.234375 0.546875 -0.671875 0.9375q-0.4375 0.390625 -1.0625 0.609375q-0.609375 0.203125 -1.34375 0.203125q-0.53125 0 -1.0 -0.109375q-0.453125 -0.109375 -0.734375 -0.28125q-0.15625 0.234375 -0.265625 0.453125q-0.109375 0.203125 -0.109375 0.46875q0 0.3125 0.296875 0.53125q0.3125 0.21875 0.828125 0.234375l2.234375 0.078125q0.625 0.015625 1.15625 0.171875q0.546875 0.140625 0.9375 0.40625q0.390625 0.265625 0.59375 0.671875q0.21875 0.390625 0.21875 0.921875q0 0.5625 -0.25 1.0625q-0.234375 0.515625 -0.75 0.890625q-0.515625 0.390625 -1.296875 0.609375q-0.78125 0.234375 -1.875 0.234375q-1.03125 0 -1.75 -0.171875q-0.71875 -0.15625 -1.1875 -0.453125q-0.46875 -0.28125 -0.6875 -0.6875q-0.203125 -0.390625 -0.203125 -0.875q0 -0.625 0.28125 -1.09375q0.296875 -0.453125 0.890625 -0.890625q-0.21875 -0.109375 -0.375 -0.25q-0.15625 -0.15625 -0.265625 -0.328125q-0.09375 -0.1875 -0.15625 -0.390625q-0.046875 -0.203125 -0.046875 -0.40625q0 -0.546875 0.25 -1.0q0.265625 -0.453125 0.625 -0.859375q-0.15625 -0.203125 -0.28125 -0.390625q-0.125 -0.1875 -0.21875 -0.390625q-0.09375 -0.21875 -0.140625 -0.46875q-0.046875 -0.25 -0.046875 -0.578125q0 -0.65625 0.234375 -1.203125q0.25 -0.546875 0.6875 -0.9375q0.4375 -0.390625 1.046875 -0.59375q0.625 -0.21875 1.359375 -0.21875q0.3125 0 0.59375 0.046875q0.296875 0.03125 0.515625 0.09375l3.078125 0l0 1.203125l-1.359375 0zm-5.109375 8.53125q0 0.59375 0.625 0.859375q0.625 0.28125 1.75 0.28125q0.703125 0 1.171875 -0.125q0.484375 -0.125 0.765625 -0.34375q0.296875 -0.203125 0.421875 -0.46875q0.125 -0.265625 0.125 -0.546875q0 -0.515625 -0.421875 -0.765625q-0.421875 -0.234375 -1.28125 -0.28125l-2.21875 -0.078125q-0.28125 0.1875 -0.46875 0.359375q-0.1875 0.1875 -0.296875 0.359375q-0.09375 0.1875 -0.140625 0.375q-0.03125 0.1875 -0.03125 0.375zm0.453125 -6.953125q0 0.40625 0.125 0.75q0.140625 0.328125 0.390625 0.578125q0.25 0.234375 0.578125 0.359375q0.328125 0.125 0.734375 0.125q0.4375 0 0.78125 -0.140625q0.34375 -0.15625 0.578125 -0.40625q0.234375 -0.25 0.359375 -0.578125q0.125 -0.328125 0.125 -0.6875q0 -0.40625 -0.140625 -0.734375q-0.140625 -0.34375 -0.390625 -0.578125q-0.234375 -0.25 -0.578125 -0.375q-0.328125 -0.125 -0.734375 -0.125q-0.4375 0 -0.78125 0.15625q-0.34375 0.140625 -0.578125 0.390625q-0.234375 0.25 -0.359375 0.578125q-0.109375 0.328125 -0.109375 0.6875zm24.194763 5.40625q-0.578125 0.21875 -1.1875 0.328125q-0.59375 0.109375 -1.234375 0.109375q-2.015625 0 -3.109375 -1.09375q-1.078125 -1.09375 -1.078125 -3.1875q0 -1.015625 0.3125 -1.828125q0.3125 -0.828125 0.875 -1.40625q0.5625 -0.59375 1.34375 -0.90625q0.796875 -0.3125 1.75 -0.3125q0.65625 0 1.21875 0.09375q0.578125 0.09375 1.109375 0.296875l0 1.40625q-0.546875 -0.28125 -1.125 -0.40625q-0.5625 -0.140625 -1.171875 -0.140625q-0.578125 0 -1.078125 0.21875q-0.5 0.21875 -0.890625 0.625q-0.375 0.390625 -0.59375 0.984375q-0.21875 0.578125 -0.21875 1.3125q0 1.546875 0.75 2.3125q0.75 0.765625 2.078125 0.765625q0.59375 0 1.15625 -0.125q0.5625 -0.140625 1.09375 -0.421875l0 1.375zm9.761475 0.3125l-1.484375 0l0 -5.421875q0 -0.984375 -0.375 -1.46875q-0.359375 -0.484375 -1.046875 -0.484375q-0.296875 0 -0.5625 0.078125q-0.25 0.078125 -0.53125 0.28125q-0.265625 0.203125 -0.609375 0.546875q-0.328125 0.328125 -0.75 0.828125l0 5.640625l-1.46875 0l0 -11.953123l1.46875 0l0 3.453123l-0.046875 1.34375q0.34375 -0.421875 0.671875 -0.703125q0.34375 -0.28125 0.671875 -0.453125q0.328125 -0.1875 0.671875 -0.25q0.359375 -0.078125 0.734375 -0.078125q1.265625 0 1.953125 0.78125q0.703125 0.765625 0.703125 2.3125l0 5.546875zm9.5271 0l-1.328125 0l-0.046875 -1.375q-0.375 0.4375 -0.71875 0.734375q-0.34375 0.296875 -0.6875 0.484375q-0.34375 0.171875 -0.6875 0.234375q-0.34375 0.078125 -0.71875 0.078125q-1.3125 0 -1.984375 -0.765625q-0.65625 -0.78125 -0.65625 -2.328125l0 -5.5625l1.46875 0l0 5.4375q0 1.953125 1.46875 1.953125q0.265625 0 0.515625 -0.078125q0.265625 -0.078125 0.546875 -0.28125q0.296875 -0.203125 0.609375 -0.53125q0.328125 -0.34375 0.734375 -0.859375l0 -5.640625l1.484375 0l0 8.5zm2.6989746 -8.5l1.3125 0l0.046875 1.375q0.375 -0.4375 0.71875 -0.71875q0.359375 -0.296875 0.6875 -0.46875q0.328125 -0.1875 0.671875 -0.25q0.359375 -0.078125 0.734375 -0.078125q1.3125 0 1.984375 0.78125q0.671875 0.765625 0.671875 2.3125l0 5.546875l-1.484375 0l0 -5.421875q0 -1.0 -0.375 -1.46875q-0.359375 -0.484375 -1.09375 -0.484375q-0.28125 0 -0.546875 0.078125q-0.25 0.078125 -0.53125 0.28125q-0.265625 0.203125 -0.59375 0.546875q-0.328125 0.328125 -0.734375 0.828125l0 5.640625l-1.46875 0l0 -8.5zm17.167664 8.5l-2.03125 0l-3.953125 -4.546875l0 4.546875l-1.46875 0l0 -11.953123l1.46875 0l0 7.343748l3.8125 -3.890625l1.953125 0l-4.0 3.921875l4.21875 4.578125zm18.77295 -3.109375l-1.890625 0l-0.3125 3.109375l-1.25 0l0.3125 -3.109375l-2.15625 0l-0.3125 3.109375l-1.25 0l0.3125 -3.109375l-1.8125 0l0 -1.09375l1.921875 0l0.296875 -2.96875l-1.78125 0l0 -1.09375l1.890625 0l0.296875 -2.796873l1.234375 0l-0.28125 2.796873l2.15625 0l0.296875 -2.796873l1.25 0l-0.296875 2.796873l1.8125 0l0 1.09375l-1.921875 0l-0.296875 2.96875l1.78125 0l0 1.09375zm-3.03125 -1.09375l0.296875 -2.96875l-2.15625 0l-0.296875 2.96875l2.15625 0zm12.2771 4.203125l-6.953125 0l0 -1.375l2.84375 0l0 -8.0625l-2.640625 1.4375l-0.546875 -1.25l3.515625 -1.8593731l1.3125 0l0 9.734373l2.46875 0l0 1.375z" fill-rule="nonzero"/><path fill="#000000" fill-opacity="0.0" d="m837.55646 17.018373l184.59839 0l0 37.51181l-184.59839 0z" fill-rule="evenodd"/><path stroke="#000000" stroke-width="2.0" stroke-linejoin="round" stroke-linecap="butt" d="m837.55646 17.018373l184.59839 0l0 37.51181l-184.59839 0z" fill-rule="evenodd"/><path fill="#000000" d="m865.9627 41.914276l0 -6.09375q0 -0.40625 -0.03125 -0.65625q-0.015625 -0.25 -0.09375 -0.390625q-0.0625 -0.15625 -0.15625 -0.21875q-0.09375 -0.0625 -0.234375 -0.0625q-0.171875 0 -0.3125 0.109375q-0.140625 0.09375 -0.3125 0.328125q-0.171875 0.21875 -0.375 0.609375q-0.1875 0.375 -0.453125 0.921875l0 5.453125l-1.34375 0l0 -5.9375q0 -0.46875 -0.03125 -0.75q-0.03125 -0.296875 -0.09375 -0.453125q-0.0625 -0.15625 -0.171875 -0.21875q-0.09375 -0.0625 -0.25 -0.0625q-0.140625 0 -0.28125 0.09375q-0.140625 0.078125 -0.3125 0.296875q-0.15625 0.21875 -0.359375 0.609375q-0.203125 0.375 -0.484375 0.96875l0 5.453125l-1.34375 0l0 -8.5l1.125 0l0.0625 1.625q0.21875 -0.484375 0.421875 -0.8125q0.21875 -0.34375 0.4375 -0.546875q0.21875 -0.21875 0.46875 -0.3125q0.25 -0.09375 0.546875 -0.09375q0.6875 0 1.046875 0.453125q0.359375 0.4375 0.359375 1.375q0.203125 -0.4375 0.390625 -0.78125q0.203125 -0.34375 0.421875 -0.578125q0.21875 -0.234375 0.484375 -0.34375q0.28125 -0.125 0.640625 -0.125q1.59375 0 1.59375 2.453125l0 6.1875l-1.359375 0zm10.198914 -2.3125q0 0.4375 -0.15625 0.796875q-0.140625 0.359375 -0.40625 0.640625q-0.265625 0.265625 -0.609375 0.46875q-0.34375 0.1875 -0.75 0.3125q-0.390625 0.125 -0.8125 0.1875q-0.40625 0.0625 -0.796875 0.0625q-0.859375 0 -1.59375 -0.078125q-0.71875 -0.078125 -1.40625 -0.25l0 -1.34375q0.734375 0.203125 1.46875 0.3125q0.734375 0.109375 1.46875 0.109375q1.0625 0 1.5625 -0.28125q0.515625 -0.296875 0.515625 -0.828125q0 -0.21875 -0.09375 -0.40625q-0.078125 -0.1875 -0.296875 -0.34375q-0.203125 -0.171875 -0.65625 -0.34375q-0.4375 -0.1875 -1.203125 -0.40625q-0.578125 -0.171875 -1.0625 -0.390625q-0.484375 -0.21875 -0.84375 -0.515625q-0.34375 -0.296875 -0.546875 -0.6875q-0.203125 -0.390625 -0.203125 -0.9375q0 -0.359375 0.15625 -0.78125q0.171875 -0.421875 0.5625 -0.78125q0.40625 -0.375 1.078125 -0.609375q0.671875 -0.234375 1.6875 -0.234375q0.5 0 1.109375 0.0625q0.609375 0.046875 1.265625 0.171875l0 1.3125q-0.6875 -0.171875 -1.3125 -0.25q-0.625 -0.078125 -1.078125 -0.078125q-0.546875 0 -0.921875 0.09375q-0.375 0.078125 -0.609375 0.234375q-0.234375 0.140625 -0.34375 0.34375q-0.09375 0.1875 -0.09375 0.421875q0 0.234375 0.078125 0.421875q0.09375 0.171875 0.328125 0.359375q0.25 0.171875 0.671875 0.34375q0.4375 0.171875 1.140625 0.375q0.75 0.21875 1.265625 0.46875q0.515625 0.234375 0.828125 0.53125q0.328125 0.296875 0.46875 0.671875q0.140625 0.359375 0.140625 0.84375zm8.917725 -4.984375q0.234375 0.296875 0.359375 0.703125q0.140625 0.390625 0.140625 0.84375q0 0.65625 -0.25 1.203125q-0.234375 0.546875 -0.671875 0.9375q-0.4375 0.390625 -1.0625 0.609375q-0.609375 0.203125 -1.34375 0.203125q-0.53125 0 -1.0 -0.109375q-0.453125 -0.109375 -0.734375 -0.28125q-0.15625 0.234375 -0.265625 0.453125q-0.109375 0.203125 -0.109375 0.46875q0 0.3125 0.296875 0.53125q0.3125 0.21875 0.828125 0.234375l2.234375 0.078125q0.625 0.015625 1.15625 0.171875q0.546875 0.140625 0.9375 0.40625q0.390625 0.265625 0.59375 0.671875q0.21875 0.390625 0.21875 0.921875q0 0.5625 -0.25 1.0625q-0.234375 0.515625 -0.75 0.890625q-0.515625 0.390625 -1.296875 0.609375q-0.78125 0.234375 -1.875 0.234375q-1.03125 0 -1.75 -0.171875q-0.71875 -0.15625 -1.1875 -0.453125q-0.46875 -0.28125 -0.6875 -0.6875q-0.203125 -0.390625 -0.203125 -0.875q0 -0.625 0.28125 -1.09375q0.296875 -0.453125 0.890625 -0.890625q-0.21875 -0.109375 -0.375 -0.25q-0.15625 -0.15625 -0.265625 -0.328125q-0.09375 -0.1875 -0.15625 -0.390625q-0.046875 -0.203125 -0.046875 -0.40625q0 -0.546875 0.25 -1.0q0.265625 -0.453125 0.625 -0.859375q-0.15625 -0.203125 -0.28125 -0.390625q-0.125 -0.1875 -0.21875 -0.390625q-0.09375 -0.21875 -0.140625 -0.46875q-0.046875 -0.25 -0.046875 -0.578125q0 -0.65625 0.234375 -1.203125q0.25 -0.546875 0.6875 -0.9375q0.4375 -0.390625 1.046875 -0.59375q0.625 -0.21875 1.359375 -0.21875q0.3125 0 0.59375 0.046875q0.296875 0.03125 0.515625 0.09375l3.078125 0l0 1.203125l-1.359375 0zm-5.109375 8.53125q0 0.59375 0.625 0.859375q0.625 0.28125 1.75 0.28125q0.703125 0 1.171875 -0.125q0.484375 -0.125 0.765625 -0.34375q0.296875 -0.203125 0.421875 -0.46875q0.125 -0.265625 0.125 -0.546875q0 -0.515625 -0.421875 -0.765625q-0.421875 -0.234375 -1.28125 -0.28125l-2.21875 -0.078125q-0.28125 0.1875 -0.46875 0.359375q-0.1875 0.1875 -0.296875 0.359375q-0.09375 0.1875 -0.140625 0.375q-0.03125 0.1875 -0.03125 0.375zm0.453125 -6.953125q0 0.40625 0.125 0.75q0.140625 0.328125 0.390625 0.578125q0.25 0.234375 0.578125 0.359375q0.328125 0.125 0.734375 0.125q0.4375 0 0.78125 -0.140625q0.34375 -0.15625 0.578125 -0.40625q0.234375 -0.25 0.359375 -0.578125q0.125 -0.328125 0.125 -0.6875q0 -0.40625 -0.140625 -0.734375q-0.140625 -0.34375 -0.390625 -0.578125q-0.234375 -0.25 -0.578125 -0.375q-0.328125 -0.125 -0.734375 -0.125q-0.4375 0 -0.78125 0.15625q-0.34375 0.140625 -0.578125 0.390625q-0.234375 0.25 -0.359375 0.578125q-0.109375 0.328125 -0.109375 0.6875zm24.194824 5.40625q-0.578125 0.21875 -1.1875 0.328125q-0.59375 0.109375 -1.234375 0.109375q-2.015625 0 -3.109375 -1.09375q-1.078125 -1.09375 -1.078125 -3.1875q0 -1.015625 0.3125 -1.828125q0.3125 -0.828125 0.875 -1.40625q0.5625 -0.59375 1.34375 -0.90625q0.796875 -0.3125 1.75 -0.3125q0.65625 0 1.21875 0.09375q0.578125 0.09375 1.109375 0.296875l0 1.40625q-0.546875 -0.28125 -1.125 -0.40625q-0.5625 -0.140625 -1.171875 -0.140625q-0.578125 0 -1.078125 0.21875q-0.5 0.21875 -0.890625 0.625q-0.375 0.390625 -0.59375 0.984375q-0.21875 0.578125 -0.21875 1.3125q0 1.546875 0.75 2.3125q0.75 0.765625 2.078125 0.765625q0.59375 0 1.15625 -0.125q0.5625 -0.140625 1.09375 -0.421875l0 1.375zm9.761414 0.3125l-1.484375 0l0 -5.421875q0 -0.984375 -0.375 -1.46875q-0.359375 -0.484375 -1.046875 -0.484375q-0.296875 0 -0.5625 0.078125q-0.25 0.078125 -0.53125 0.28125q-0.265625 0.203125 -0.609375 0.546875q-0.328125 0.328125 -0.75 0.828125l0 5.640625l-1.46875 0l0 -11.953123l1.46875 0l0 3.453123l-0.046875 1.34375q0.34375 -0.421875 0.671875 -0.703125q0.34375 -0.28125 0.671875 -0.453125q0.328125 -0.1875 0.671875 -0.25q0.359375 -0.078125 0.734375 -0.078125q1.265625 0 1.953125 0.78125q0.703125 0.765625 0.703125 2.3125l0 5.546875zm9.5271 0l-1.328125 0l-0.046875 -1.375q-0.375 0.4375 -0.71875 0.734375q-0.34375 0.296875 -0.6875 0.484375q-0.34375 0.171875 -0.6875 0.234375q-0.34375 0.078125 -0.71875 0.078125q-1.3125 0 -1.984375 -0.765625q-0.65625 -0.78125 -0.65625 -2.328125l0 -5.5625l1.46875 0l0 5.4375q0 1.953125 1.46875 1.953125q0.265625 0 0.515625 -0.078125q0.265625 -0.078125 0.546875 -0.28125q0.296875 -0.203125 0.609375 -0.53125q0.328125 -0.34375 0.734375 -0.859375l0 -5.640625l1.484375 0l0 8.5zm2.6989746 -8.5l1.3125 0l0.046875 1.375q0.375 -0.4375 0.71875 -0.71875q0.359375 -0.296875 0.6875 -0.46875q0.328125 -0.1875 0.671875 -0.25q0.359375 -0.078125 0.734375 -0.078125q1.3125 0 1.984375 0.78125q0.671875 0.765625 0.671875 2.3125l0 5.546875l-1.484375 0l0 -5.421875q0 -1.0 -0.375 -1.46875q-0.359375 -0.484375 -1.09375 -0.484375q-0.28125 0 -0.546875 0.078125q-0.25 0.078125 -0.53125 0.28125q-0.265625 0.203125 -0.59375 0.546875q-0.328125 0.328125 -0.734375 0.828125l0 5.640625l-1.46875 0l0 -8.5zm17.167725 8.5l-2.03125 0l-3.953125 -4.546875l0 4.546875l-1.46875 0l0 -11.953123l1.46875 0l0 7.343748l3.8125 -3.890625l1.953125 0l-4.0 3.921875l4.21875 4.578125zm18.772888 -3.109375l-1.890625 0l-0.3125 3.109375l-1.25 0l0.3125 -3.109375l-2.15625 0l-0.3125 3.109375l-1.25 0l0.3125 -3.109375l-1.8125 0l0 -1.09375l1.921875 0l0.296875 -2.96875l-1.78125 0l0 -1.09375l1.890625 0l0.296875 -2.796873l1.234375 0l-0.28125 2.796873l2.15625 0l0.296875 -2.796873l1.25 0l-0.296875 2.796873l1.8125 0l0 1.09375l-1.921875 0l-0.296875 2.96875l1.78125 0l0 1.09375zm-3.03125 -1.09375l0.296875 -2.96875l-2.15625 0l-0.296875 2.96875l2.15625 0zm12.37085 4.203125l-1.96875 0l-3.21875 -6.890625l-0.9375 -2.21875l0 5.578125l0 3.53125l-1.40625 0l0 -11.062498l1.9375 0l3.078125 6.531248l1.109375 2.53125l0 -5.921875l0 -3.140623l1.40625 0l0 11.062498z" fill-rule="nonzero"/><path fill="#fce5cd" d="m99.16273 154.4252l93.79528 0l0 37.51181l-93.79528 0z" fill-rule="evenodd"/><path stroke="#000000" stroke-width="2.0" stroke-linejoin="round" stroke-linecap="butt" d="m99.16273 154.4252l93.79528 0l0 37.51181l-93.79528 0z" fill-rule="evenodd"/><path fill="#000000" fill-opacity="0.0" d="m99.16273 154.4252l184.59845 0l0 37.51181l-184.59845 0z" fill-rule="evenodd"/><path stroke="#000000" stroke-width="2.0" stroke-linejoin="round" stroke-linecap="butt" d="m99.16273 154.4252l184.59845 0l0 37.51181l-184.59845 0z" fill-rule="evenodd"/><path fill="#000000" d="m128.91273 175.0086q0 0.984375 -0.28125 1.8125q-0.28125 0.828125 -0.8125076 1.421875q-0.515625 0.578125 -1.265625 0.90625q-0.75 0.328125 -1.71875 0.328125q-0.90625 0 -1.640625 -0.28125q-0.71875 -0.296875 -1.21875 -0.84375q-0.5 -0.546875 -0.765625 -1.359375q-0.265625 -0.8125 -0.265625 -1.875q0 -0.984375 0.28125 -1.796875q0.28125 -0.8125 0.796875 -1.40625q0.53125 -0.59375 1.28125 -0.90625q0.75 -0.328125 1.703125 -0.328125q0.921875 0 1.640625 0.28125q0.71875 0.28125 1.21875 0.828125q0.5156326 0.546875 0.7812576 1.359375q0.265625 0.8125 0.265625 1.859375zm-1.5000076 0.0625q0 -0.78125 -0.1875 -1.359375q-0.171875 -0.59375 -0.5 -0.984375q-0.3125 -0.40625 -0.78125 -0.59375q-0.453125 -0.203125 -1.015625 -0.203125q-0.65625 0 -1.125 0.265625q-0.46875 0.25 -0.78125 0.6875q-0.296875 0.421875 -0.4375 1.0q-0.140625 0.5625 -0.140625 1.1875q0 0.796875 0.171875 1.390625q0.171875 0.578125 0.5 0.984375q0.328125 0.390625 0.78125 0.59375q0.453125 0.1875 1.03125 0.1875q0.65625 0 1.125 -0.25q0.46875 -0.265625 0.765625 -0.6875q0.3125 -0.4375 0.453125 -1.0q0.140625 -0.578125 0.140625 -1.21875zm10.464592 4.25l-1.328125 0l-0.046875 -1.375q-0.375 0.4375 -0.71875 0.734375q-0.34375 0.296875 -0.6875 0.484375q-0.34375 0.171875 -0.6875 0.234375q-0.34375 0.078125 -0.71875 0.078125q-1.3125 0 -1.984375 -0.765625q-0.65625 -0.78125 -0.65625 -2.328125l0 -5.5625l1.46875 0l0 5.4375q0 1.953125 1.46875 1.953125q0.265625 0 0.515625 -0.078125q0.265625 -0.078125 0.546875 -0.28125q0.296875 -0.203125 0.609375 -0.53125q0.328125 -0.34375 0.734375 -0.859375l0 -5.640625l1.484375 0l0 8.5zm9.542709 -0.125q-0.5 0.140625 -1.03125 0.1875q-0.53125 0.0625 -1.09375 0.0625q-1.59375 0 -2.390625 -0.71875q-0.78125 -0.734375 -0.78125 -2.234375l0 -4.4375l-2.375 0l0 -1.234375l2.375 0l0 -2.328125l1.46875 -0.375l0 2.703125l3.828125 0l0 1.234375l-3.828125 0l0 4.328125q0 0.90625 0.484375 1.359375q0.5 0.453125 1.4375 0.453125q0.40625 0 0.890625 -0.0625q0.484375 -0.0625 1.015625 -0.203125l0 1.265625zm9.855209 -4.578125q0 0.328125 -0.015625 0.546875q0 0.203125 -0.015625 0.375l-5.96875 0q0 1.3125 0.71875 2.015625q0.734375 0.6875 2.109375 0.6875q0.375 0 0.734375 -0.03125q0.375 -0.03125 0.71875 -0.078125q0.359375 -0.046875 0.671875 -0.109375q0.3125 -0.0625 0.59375 -0.140625l0 1.203125q-0.609375 0.171875 -1.375 0.28125q-0.75 0.109375 -1.5625 0.109375q-1.09375 0 -1.875 -0.296875q-0.78125 -0.296875 -1.296875 -0.859375q-0.5 -0.5625 -0.75 -1.375q-0.234375 -0.828125 -0.234375 -1.859375q0 -0.890625 0.25 -1.6875q0.265625 -0.796875 0.765625 -1.40625q0.5 -0.609375 1.21875 -0.953125q0.71875 -0.359375 1.625 -0.359375q0.890625 0 1.578125 0.28125q0.6875 0.265625 1.15625 0.78125q0.46875 0.515625 0.703125 1.25q0.25 0.734375 0.25 1.625zm-1.53125 -0.203125q0.015625 -0.5625 -0.125 -1.03125q-0.125 -0.46875 -0.40625 -0.8125q-0.28125 -0.34375 -0.703125 -0.53125q-0.421875 -0.1875 -0.984375 -0.1875q-0.484375 0 -0.890625 0.1875q-0.390625 0.1875 -0.6875 0.53125q-0.28125 0.328125 -0.453125 0.8125q-0.171875 0.46875 -0.21875 1.03125l4.46875 0zm4.2302094 -3.59375l1.34375 0l0.046875 1.578125q0.75 -0.90625 1.484375 -1.3125q0.734375 -0.40625 1.46875 -0.40625q1.328125 0 2.0 0.859375q0.6875 0.84375 0.640625 2.53125l-1.5 0q0.03125 -1.125 -0.328125 -1.625q-0.34375 -0.5 -1.015625 -0.5q-0.296875 0 -0.609375 0.109375q-0.296875 0.09375 -0.609375 0.328125q-0.3125 0.234375 -0.671875 0.609375q-0.359375 0.359375 -0.765625 0.875l0 5.453125l-1.484375 0l0 -8.5zm54.932297 8.5l-2.03125 0l-3.953125 -4.546875l0 4.546875l-1.46875 0l0 -11.953125l1.46875 0l0 7.34375l3.8125 -3.890625l1.953125 0l-4.0 3.921875l4.21875 4.578125zm9.058334 -4.703125q0 0.328125 -0.015625 0.546875q0 0.203125 -0.015625 0.375l-5.96875 0q0 1.3125 0.71875 2.015625q0.734375 0.6875 2.109375 0.6875q0.375 0 0.734375 -0.03125q0.375 -0.03125 0.71875 -0.078125q0.359375 -0.046875 0.671875 -0.109375q0.3125 -0.0625 0.59375 -0.140625l0 1.203125q-0.609375 0.171875 -1.375 0.28125q-0.75 0.109375 -1.5625 0.109375q-1.09375 0 -1.875 -0.296875q-0.78125 -0.296875 -1.296875 -0.859375q-0.5 -0.5625 -0.75 -1.375q-0.234375 -0.828125 -0.234375 -1.859375q0 -0.890625 0.25 -1.6875q0.265625 -0.796875 0.765625 -1.40625q0.5 -0.609375 1.21875 -0.953125q0.71875 -0.359375 1.625 -0.359375q0.890625 0 1.578125 0.28125q0.6875 0.265625 1.15625 0.78125q0.46875 0.515625 0.703125 1.25q0.25 0.734375 0.25 1.625zm-1.53125 -0.203125q0.015625 -0.5625 -0.125 -1.03125q-0.125 -0.46875 -0.40625 -0.8125q-0.28125 -0.34375 -0.703125 -0.53125q-0.421875 -0.1875 -0.984375 -0.1875q-0.484375 0 -0.890625 0.1875q-0.390625 0.1875 -0.6875 0.53125q-0.28125 0.328125 -0.453125 0.8125q-0.171875 0.46875 -0.21875 1.03125l4.46875 0zm11.433334 -3.59375l-2.890625 7.609375q-0.453125 1.15625 -0.9375 1.984375q-0.46875 0.84375 -1.03125 1.375q-0.5625 0.546875 -1.25 0.796875q-0.671875 0.25 -1.515625 0.25q-0.21875 0 -0.40625 -0.015625q-0.171875 0 -0.375 -0.015625l0 -1.328125q0.1875 0.015625 0.40625 0.03125q0.21875 0.03125 0.46875 0.03125q0.40625 0 0.75 -0.125q0.359375 -0.109375 0.671875 -0.375q0.3125 -0.265625 0.59375 -0.703125q0.296875 -0.421875 0.5625 -1.015625l-3.390625 -8.5l1.671875 0l2.140625 5.625l0.4375 1.3125l0.5 -1.34375l1.984375 -5.59375l1.609375 0z" fill-rule="nonzero"/><path fill="#fff2cc" d="m283.76117 154.4252l93.79526 0l0 37.51181l-93.79526 0z" fill-rule="evenodd"/><path stroke="#000000" stroke-width="2.0" stroke-linejoin="round" stroke-linecap="butt" d="m283.76117 154.4252l93.79526 0l0 37.51181l-93.79526 0z" fill-rule="evenodd"/><path fill="#000000" d="m312.94867 179.3211l-1.484375 0l0 -5.421875q0 -0.984375 -0.375 -1.46875q-0.359375 -0.484375 -1.046875 -0.484375q-0.296875 0 -0.5625 0.078125q-0.25 0.078125 -0.53125 0.28125q-0.265625 0.203125 -0.609375 0.546875q-0.328125 0.328125 -0.75 0.828125l0 5.640625l-1.46875 0l0 -11.953125l1.46875 0l0 3.453125l-0.046875 1.34375q0.34375 -0.421875 0.671875 -0.703125q0.34375 -0.28125 0.671875 -0.453125q0.328125 -0.1875 0.671875 -0.25q0.359375 -0.078125 0.734375 -0.078125q1.265625 0 1.953125 0.78125q0.703125 0.765625 0.703125 2.3125l0 5.546875zm8.152069 0l-0.03125 -1.140625q-0.703125 0.6875 -1.421875 1.0q-0.703125 0.296875 -1.5 0.296875q-0.71875 0 -1.234375 -0.1875q-0.515625 -0.1875 -0.859375 -0.515625q-0.328125 -0.328125 -0.484375 -0.765625q-0.15625 -0.4375 -0.15625 -0.953125q0 -1.28125 0.953125 -2.0q0.953125 -0.71875 2.8125 -0.71875l1.765625 0l0 -0.75q0 -0.75 -0.484375 -1.203125q-0.484375 -0.453125 -1.46875 -0.453125q-0.71875 0 -1.421875 0.15625q-0.703125 0.15625 -1.4375 0.453125l0 -1.328125q0.265625 -0.09375 0.609375 -0.1875q0.34375 -0.109375 0.71875 -0.171875q0.390625 -0.078125 0.796875 -0.125q0.421875 -0.046875 0.84375 -0.046875q0.765625 0 1.375 0.171875q0.625 0.15625 1.046875 0.515625q0.4375 0.34375 0.65625 0.875q0.234375 0.515625 0.234375 1.21875l0 5.859375l-1.3125 0zm-0.15625 -3.859375l-1.875 0q-0.546875 0 -0.953125 0.109375q-0.390625 0.109375 -0.65625 0.3125q-0.25 0.203125 -0.375 0.484375q-0.109375 0.28125 -0.109375 0.640625q0 0.234375 0.0625 0.46875q0.078125 0.21875 0.25 0.390625q0.171875 0.171875 0.4375 0.28125q0.28125 0.09375 0.671875 0.09375q0.5 0 1.15625 -0.296875q0.65625 -0.3125 1.390625 -0.984375l0 -1.5zm10.948975 1.546875q0 0.4375 -0.15625 0.796875q-0.140625 0.359375 -0.40625 0.640625q-0.265625 0.265625 -0.609375 0.46875q-0.34375 0.1875 -0.75 0.3125q-0.390625 0.125 -0.8125 0.1875q-0.40625 0.0625 -0.796875 0.0625q-0.859375 0 -1.59375 -0.078125q-0.71875 -0.078125 -1.40625 -0.25l0 -1.34375q0.734375 0.203125 1.46875 0.3125q0.734375 0.109375 1.46875 0.109375q1.0625 0 1.5625 -0.28125q0.515625 -0.296875 0.515625 -0.828125q0 -0.21875 -0.09375 -0.40625q-0.078125 -0.1875 -0.296875 -0.34375q-0.203125 -0.171875 -0.65625 -0.34375q-0.4375 -0.1875 -1.203125 -0.40625q-0.578125 -0.171875 -1.0625 -0.390625q-0.484375 -0.21875 -0.84375 -0.515625q-0.34375 -0.296875 -0.546875 -0.6875q-0.203125 -0.390625 -0.203125 -0.9375q0 -0.359375 0.15625 -0.78125q0.171875 -0.421875 0.5625 -0.78125q0.40625 -0.375 1.078125 -0.609375q0.671875 -0.234375 1.6875 -0.234375q0.5 0 1.109375 0.0625q0.609375 0.046875 1.265625 0.171875l0 1.3125q-0.6875 -0.171875 -1.3125 -0.25q-0.625 -0.078125 -1.078125 -0.078125q-0.546875 0 -0.921875 0.09375q-0.375 0.078125 -0.609375 0.234375q-0.234375 0.140625 -0.34375 0.34375q-0.09375 0.1875 -0.09375 0.421875q0 0.234375 0.078125 0.421875q0.09375 0.171875 0.328125 0.359375q0.25 0.171875 0.671875 0.34375q0.4375 0.171875 1.140625 0.375q0.75 0.21875 1.265625 0.46875q0.515625 0.234375 0.828125 0.53125q0.328125 0.296875 0.46875 0.671875q0.140625 0.359375 0.140625 0.84375zm9.636444 2.3125l-1.484375 0l0 -5.421875q0 -0.984375 -0.375 -1.46875q-0.359375 -0.484375 -1.046875 -0.484375q-0.296875 0 -0.5625 0.078125q-0.25 0.078125 -0.53125 0.28125q-0.265625 0.203125 -0.609375 0.546875q-0.328125 0.328125 -0.75 0.828125l0 5.640625l-1.46875 0l0 -11.953125l1.46875 0l0 3.453125l-0.046875 1.34375q0.34375 -0.421875 0.671875 -0.703125q0.34375 -0.28125 0.671875 -0.453125q0.328125 -0.1875 0.671875 -0.25q0.359375 -0.078125 0.734375 -0.078125q1.265625 0 1.953125 0.78125q0.703125 0.765625 0.703125 2.3125l0 5.546875z" fill-rule="nonzero"/><path fill="#000000" fill-opacity="0.0" d="m377.55643 154.4252l93.79529 0l0 37.51181l-93.79529 0z" fill-rule="evenodd"/><path stroke="#000000" stroke-width="2.0" stroke-linejoin="round" stroke-linecap="butt" d="m377.55643 154.4252l93.79529 0l0 37.51181l-93.79529 0z" fill-rule="evenodd"/><path fill="#000000" d="m407.1658 174.91486q0 1.140625 -0.3125 1.984375q-0.3125 0.84375 -0.875 1.40625q-0.5625 0.5625 -1.328125 0.84375q-0.75 0.265625 -1.640625 0.265625q-0.40625 0 -0.8125 -0.046875q-0.40625 -0.03125 -0.8125 -0.125l0 3.546875l-1.46875 0l0 -11.96875l1.3125 0l0.09375 1.421875q0.625 -0.859375 1.34375 -1.203125q0.71875 -0.359375 1.5625 -0.359375q0.71875 0 1.265625 0.3125q0.5625 0.296875 0.921875 0.859375q0.375 0.546875 0.5625 1.328125q0.1875 0.78125 0.1875 1.734375zm-1.5 0.078125q0 -0.671875 -0.109375 -1.234375q-0.09375 -0.5625 -0.3125 -0.953125q-0.203125 -0.390625 -0.53125 -0.609375q-0.328125 -0.234375 -0.78125 -0.234375q-0.28125 0 -0.578125 0.09375q-0.28125 0.078125 -0.59375 0.296875q-0.296875 0.203125 -0.640625 0.546875q-0.34375 0.34375 -0.734375 0.84375l0 4.125q0.40625 0.171875 0.84375 0.265625q0.453125 0.09375 0.890625 0.09375q1.1875 0 1.859375 -0.796875q0.6875 -0.8125 0.6875 -2.4375zm9.230225 4.328125l-0.03125 -1.140625q-0.703125 0.6875 -1.421875 1.0q-0.703125 0.296875 -1.5 0.296875q-0.71875 0 -1.234375 -0.1875q-0.515625 -0.1875 -0.859375 -0.515625q-0.328125 -0.328125 -0.484375 -0.765625q-0.15625 -0.4375 -0.15625 -0.953125q0 -1.28125 0.953125 -2.0q0.953125 -0.71875 2.8125 -0.71875l1.765625 0l0 -0.75q0 -0.75 -0.484375 -1.203125q-0.484375 -0.453125 -1.46875 -0.453125q-0.71875 0 -1.421875 0.15625q-0.703125 0.15625 -1.4375 0.453125l0 -1.328125q0.265625 -0.09375 0.609375 -0.1875q0.34375 -0.109375 0.71875 -0.171875q0.390625 -0.078125 0.796875 -0.125q0.421875 -0.046875 0.84375 -0.046875q0.765625 0 1.375 0.171875q0.625 0.15625 1.046875 0.515625q0.4375 0.34375 0.65625 0.875q0.234375 0.515625 0.234375 1.21875l0 5.859375l-1.3125 0zm-0.15625 -3.859375l-1.875 0q-0.546875 0 -0.953125 0.109375q-0.390625 0.109375 -0.65625 0.3125q-0.25 0.203125 -0.375 0.484375q-0.109375 0.28125 -0.109375 0.640625q0 0.234375 0.0625 0.46875q0.078125 0.21875 0.25 0.390625q0.171875 0.171875 0.4375 0.28125q0.28125 0.09375 0.671875 0.09375q0.5 0 1.15625 -0.296875q0.65625 -0.3125 1.390625 -0.984375l0 -1.5zm3.792694 -0.203125q0 -1.09375 0.296875 -1.9375q0.296875 -0.84375 0.84375 -1.421875q0.546875 -0.578125 1.3125 -0.875q0.765625 -0.296875 1.703125 -0.296875q0.40625 0 0.796875 0.046875q0.390625 0.046875 0.78125 0.15625l0 -3.5625l1.46875 0l0 11.953125l-1.3125 0l-0.046875 -1.609375q-0.625 0.90625 -1.34375 1.34375q-0.71875 0.421875 -1.5625 0.421875q-0.71875 0 -1.28125 -0.296875q-0.546875 -0.3125 -0.921875 -0.859375q-0.359375 -0.5625 -0.546875 -1.34375q-0.1875 -0.78125 -0.1875 -1.71875zm1.5 -0.09375q0 1.53125 0.453125 2.296875q0.453125 0.75 1.28125 0.75q0.5625 0 1.1875 -0.5q0.625 -0.5 1.3125 -1.484375l0 -3.9375q-0.375 -0.171875 -0.8125 -0.25q-0.4375 -0.09375 -0.875 -0.09375q-1.1875 0 -1.875 0.78125q-0.671875 0.765625 -0.671875 2.4375z" fill-rule="nonzero"/><path fill="#000000" fill-opacity="0.0" d="m99.54068 54.34646l184.22049 100.850395" fill-rule="evenodd"/><path stroke="#000000" stroke-width="2.0" stroke-linejoin="round" stroke-linecap="butt" d="m99.54068 54.34646l178.20825 97.559044" fill-rule="evenodd"/><path fill="#000000" stroke="#000000" stroke-width="2.0" stroke-linecap="butt" d="m277.74893 151.9055l-3.0529175 0.8928375l6.5004883 0.99450684l-4.340393 -4.940277z" fill-rule="evenodd"/><path fill="#000000" fill-opacity="0.0" d="m1022.7559 54.897636l-649.7953 98.173225" fill-rule="evenodd"/><path stroke="#000000" stroke-width="2.0" stroke-linejoin="round" stroke-linecap="butt" d="m1022.7559 54.897636l-643.018 97.1493" fill-rule="evenodd"/><path fill="#000000" stroke="#000000" stroke-width="2.0" stroke-linecap="butt" d="m379.73788 152.04694l1.8879395 -2.5599213l-5.7742004 3.1470642l6.4461975 1.3007812z" fill-rule="evenodd"/><path fill="#000000" fill-opacity="0.0" d="m0.16535433 17.018373l99.37008 0l0 37.51181l-99.37008 0z" fill-rule="evenodd"/><path fill="#000000" d="m32.283344 42.65837l-6.953127 0l0 -1.375l2.84375 0l0 -8.0625l-2.640625 1.4375l-0.546875 -1.25l3.515625 -1.8593731l1.3125 0l0 9.734373l2.468752 0l0 1.375zm9.167709 -2.3125q0 0.4375 -0.15625 0.796875q-0.140625 0.359375 -0.40625 0.640625q-0.265625 0.265625 -0.609375 0.46875q-0.34375 0.1875 -0.75 0.3125q-0.390625 0.125 -0.8125 0.1875q-0.40625 0.0625 -0.796875 0.0625q-0.859375 0 -1.59375 -0.078125q-0.71875 -0.078125 -1.40625 -0.25l0 -1.34375q0.734375 0.203125 1.46875 0.3125q0.734375 0.109375 1.46875 0.109375q1.0625 0 1.5625 -0.28125q0.515625 -0.296875 0.515625 -0.828125q0 -0.21875 -0.09375 -0.40625q-0.078125 -0.1875 -0.296875 -0.34375q-0.203125 -0.171875 -0.65625 -0.34375q-0.4375 -0.1875 -1.203125 -0.40625q-0.578125 -0.171875 -1.0625 -0.390625q-0.484375 -0.21875 -0.84375 -0.515625q-0.34375 -0.296875 -0.546875 -0.6875q-0.203125 -0.390625 -0.203125 -0.9375q0 -0.359375 0.15625 -0.78125q0.171875 -0.421875 0.5625 -0.78125q0.40625 -0.375 1.078125 -0.609375q0.671875 -0.234375 1.6875 -0.234375q0.5 0 1.109375 0.0625q0.609375 0.046875 1.265625 0.171875l0 1.3125q-0.6875 -0.171875 -1.3125 -0.25q-0.625 -0.078125 -1.078125 -0.078125q-0.546875 0 -0.921875 0.09375q-0.375 0.078125 -0.609375 0.234375q-0.234375 0.140625 -0.34375 0.34375q-0.09375 0.1875 -0.09375 0.421875q0 0.234375 0.078125 0.421875q0.09375 0.171875 0.328125 0.359375q0.25 0.171875 0.671875 0.34375q0.4375 0.171875 1.140625 0.375q0.75 0.21875 1.265625 0.46875q0.515625 0.234375 0.828125 0.53125q0.328125 0.296875 0.46875 0.671875q0.140625 0.359375 0.140625 0.84375zm9.652084 2.1875q-0.5 0.140625 -1.03125 0.1875q-0.53125 0.0625 -1.09375 0.0625q-1.59375 0 -2.390625 -0.71875q-0.78125 -0.734375 -0.78125 -2.234375l0 -4.4375l-2.375 0l0 -1.234375l2.375 0l0 -2.328123l1.46875 -0.375l0 2.703123l3.828125 0l0 1.234375l-3.828125 0l0 4.328125q0 0.90625 0.484375 1.359375q0.5 0.453125 1.4375 0.453125q0.40625 0 0.890625 -0.0625q0.484375 -0.0625 1.015625 -0.203125l0 1.265625zm12.554169 -8.375l1.3437462 0l0.046875 1.578125q0.75 -0.90625 1.484375 -1.3125q0.734375 -0.40625 1.46875 -0.40625q1.328125 0 2.0 0.859375q0.6875 0.84375 0.640625 2.53125l-1.5 0q0.03125 -1.125 -0.328125 -1.625q-0.34375 -0.5 -1.015625 -0.5q-0.296875 0 -0.609375 0.109375q-0.296875 0.09375 -0.609375 0.328125q-0.3125 0.234375 -0.671875 0.609375q-0.359375 0.359375 -0.765625 0.875l0 5.453125l-1.4843712 0l0 -8.5zm9.183331 0l1.3125 0l0.046875 1.375q0.375 -0.4375 0.71875 -0.71875q0.359375 -0.296875 0.6875 -0.46875q0.328125 -0.1875 0.671875 -0.25q0.359375 -0.078125 0.734375 -0.078125q1.3125 0 1.984375 0.78125q0.671875 0.765625 0.671875 2.3125l0 5.546875l-1.484375 0l0 -5.421875q0 -1.0 -0.375 -1.46875q-0.359375 -0.484375 -1.09375 -0.484375q-0.28125 0 -0.546875 0.078125q-0.25 0.078125 -0.53125 0.28125q-0.265625 0.203125 -0.59375 0.546875q-0.328125 0.328125 -0.734375 0.828125l0 5.640625l-1.46875 0l0 -8.5zm9.089584 4.4375q0 -1.09375 0.296875 -1.9375q0.296875 -0.84375 0.84375 -1.421875q0.546875 -0.578125 1.3125 -0.875q0.765625 -0.296875 1.703125 -0.296875q0.40625 0 0.796875 0.046875q0.390625 0.046875 0.78125 0.15625l0 -3.562498l1.46875 0l0 11.953123l-1.3125 0l-0.046875 -1.609375q-0.625 0.90625 -1.34375 1.34375q-0.71875 0.421875 -1.5625 0.421875q-0.71875 0 -1.28125 -0.296875q-0.546875 -0.3125 -0.921875 -0.859375q-0.359375 -0.5625 -0.546875 -1.34375q-0.1875 -0.78125 -0.1875 -1.71875zm1.5 -0.09375q0 1.53125 0.453125 2.296875q0.453125 0.75 1.28125 0.75q0.5625 0 1.1875 -0.5q0.625 -0.5 1.3125 -1.484375l0 -3.9375q-0.375 -0.171875 -0.8125 -0.25q-0.4375 -0.09375 -0.875 -0.09375q-1.1875 0 -1.875 0.78125q-0.671875 0.765625 -0.671875 2.4375z" fill-rule="nonzero"/><path fill="#000000" fill-opacity="0.0" d="m0.16535433 153.07086l99.37008 0l0 37.51181l-99.37008 0z" fill-rule="evenodd"/><path fill="#000000" d="m32.377094 178.71086l-7.281252 0l0 -1.3125l2.859375 -2.84375q0.703125 -0.703125 1.140625 -1.203125q0.4375 -0.515625 0.671875 -0.921875q0.25 -0.421875 0.328125 -0.796875q0.09375 -0.375 0.09375 -0.8125q0 -0.40625 -0.109375 -0.765625q-0.109375 -0.375 -0.34375 -0.65625q-0.21875 -0.28125 -0.59375 -0.4375q-0.359375 -0.15625 -0.859375 -0.15625q-0.703125 0 -1.28125 0.3125q-0.578125 0.3125 -1.0625 0.8125l-0.8125 -0.96875q0.625 -0.671875 1.4375 -1.0625q0.828125 -0.390625 1.90625 -0.390625q0.734375 0 1.34375 0.21875q0.609375 0.21875 1.046875 0.640625q0.4375 0.40625 0.671875 1.015625q0.25 0.59375 0.25 1.34375q0 0.625 -0.171875 1.171875q-0.171875 0.546875 -0.515625 1.09375q-0.34375 0.53125 -0.859375 1.109375q-0.515625 0.5625 -1.234375 1.25l-2.0 1.953125l5.375002 0l0 1.40625zm2.3552094 -8.5l1.3125 0l0.046875 1.375q0.375 -0.4375 0.71875 -0.71875q0.359375 -0.296875 0.6875 -0.46875q0.328125 -0.1875 0.671875 -0.25q0.359375 -0.078125 0.734375 -0.078125q1.3125 0 1.984375 0.78125q0.671875 0.765625 0.671875 2.3125l0 5.546875l-1.484375 0l0 -5.421875q0 -1.0 -0.375 -1.46875q-0.359375 -0.484375 -1.09375 -0.484375q-0.28125 0 -0.546875 0.078125q-0.25 0.078125 -0.53125 0.28125q-0.265625 0.203125 -0.59375 0.546875q-0.328125 0.328125 -0.734375 0.828125l0 5.640625l-1.46875 0l0 -8.5zm9.089584 4.4375q0 -1.09375 0.296875 -1.9375q0.296875 -0.84375 0.84375 -1.421875q0.546875 -0.578125 1.3125 -0.875q0.765625 -0.296875 1.703125 -0.296875q0.40625 0 0.796875 0.046875q0.390625 0.046875 0.78125 0.15625l0 -3.5625l1.46875 0l0 11.953125l-1.3125 0l-0.046875 -1.609375q-0.625 0.90625 -1.34375 1.34375q-0.71875 0.421875 -1.5625 0.421875q-0.71875 0 -1.28125 -0.296875q-0.546875 -0.3125 -0.921875 -0.859375q-0.359375 -0.5625 -0.546875 -1.34375q-0.1875 -0.78125 -0.1875 -1.71875zm1.5 -0.09375q0 1.53125 0.453125 2.296875q0.453125 0.75 1.28125 0.75q0.5625 0 1.1875 -0.5q0.625 -0.5 1.3125 -1.484375l0 -3.9375q-0.375 -0.171875 -0.8125 -0.25q-0.4375 -0.09375 -0.875 -0.09375q-1.1875 0 -1.875 0.78125q-0.671875 0.765625 -0.671875 2.4375zm18.335419 -4.34375l1.3437462 0l0.046875 1.578125q0.75 -0.90625 1.484375 -1.3125q0.734375 -0.40625 1.46875 -0.40625q1.328125 0 2.0 0.859375q0.6875 0.84375 0.640625 2.53125l-1.5 0q0.03125 -1.125 -0.328125 -1.625q-0.34375 -0.5 -1.015625 -0.5q-0.296875 0 -0.609375 0.109375q-0.296875 0.09375 -0.609375 0.328125q-0.3125 0.234375 -0.671875 0.609375q-0.359375 0.359375 -0.765625 0.875l0 5.453125l-1.4843712 0l0 -8.5zm9.183331 0l1.3125 0l0.046875 1.375q0.375 -0.4375 0.71875 -0.71875q0.359375 -0.296875 0.6875 -0.46875q0.328125 -0.1875 0.671875 -0.25q0.359375 -0.078125 0.734375 -0.078125q1.3125 0 1.984375 0.78125q0.671875 0.765625 0.671875 2.3125l0 5.546875l-1.484375 0l0 -5.421875q0 -1.0 -0.375 -1.46875q-0.359375 -0.484375 -1.09375 -0.484375q-0.28125 0 -0.546875 0.078125q-0.25 0.078125 -0.53125 0.28125q-0.265625 0.203125 -0.59375 0.546875q-0.328125 0.328125 -0.734375 0.828125l0 5.640625l-1.46875 0l0 -8.5zm9.089584 4.4375q0 -1.09375 0.296875 -1.9375q0.296875 -0.84375 0.84375 -1.421875q0.546875 -0.578125 1.3125 -0.875q0.765625 -0.296875 1.703125 -0.296875q0.40625 0 0.796875 0.046875q0.390625 0.046875 0.78125 0.15625l0 -3.5625l1.46875 0l0 11.953125l-1.3125 0l-0.046875 -1.609375q-0.625 0.90625 -1.34375 1.34375q-0.71875 0.421875 -1.5625 0.421875q-0.71875 0 -1.28125 -0.296875q-0.546875 -0.3125 -0.921875 -0.859375q-0.359375 -0.5625 -0.546875 -1.34375q-0.1875 -0.78125 -0.1875 -1.71875zm1.5 -0.09375q0 1.53125 0.453125 2.296875q0.453125 0.75 1.28125 0.75q0.5625 0 1.1875 -0.5q0.625 -0.5 1.3125 -1.484375l0 -3.9375q-0.375 -0.171875 -0.8125 -0.25q-0.4375 -0.09375 -0.875 -0.09375q-1.1875 0 -1.875 0.78125q-0.671875 0.765625 -0.671875 2.4375z" fill-rule="nonzero"/></g></svg>