<svg version="1.1" viewBox="0.0 0.0 1080.0 500.0" fill="none" stroke="none" stroke-linecap="square" stroke-miterlimit="10" xmlns:xlink="http://www.w3.org/1999/xlink" xmlns="http://www.w3.org/2000/svg"><clipPath id="p.0"><path d="m0 0l1080.0 0l0 500.0l-1080.0 0l0 -500.0z" clip-rule="nonzero"/></clipPath><g clip-path="url(#p.0)"><path fill="#000000" fill-opacity="0.0" d="m0 0l1080.0 0l0 500.0l-1080.0 0z" fill-rule="evenodd"/><path fill="#000000" fill-opacity="0.0" d="m31.66754 166.43811l88.40945 0" fill-rule="evenodd"/><path stroke="#000000" stroke-width="2.0" stroke-linejoin="round" stroke-linecap="butt" d="m31.667538 166.43811l81.55527 0" fill-rule="evenodd"/><path fill="#000000" stroke="#000000" stroke-width="2.0" stroke-linecap="butt" d="m113.22282 166.43811l-2.2491684 2.2491608l6.179535 -2.2491608l-6.179535 -2.249176z" fill-rule="evenodd"/><path fill="#000000" fill-opacity="0.0" d="m31.66754 111.26973l154.29921 0l0 55.181107l-154.29921 0z" fill-rule="evenodd"/><path fill="#000000" d="m61.464413 135.23465l-3.265625 0l0 9.765625l-1.53125 0l0 -9.765625l-3.265625 0l0 -1.296875l8.0625 0l0 1.296875zm9.058338 9.765625l-6.359375 0l0 -11.0625l1.53125 0l0 9.78125l4.828125 0l0 1.28125zm8.495834 -3.921875l-5.0625 0l0 -1.390625l5.0625 0l0 1.390625zm10.839584 0.078125q0 0.90625 -0.265625 1.65625q-0.25 0.734375 -0.75 1.25q-0.5 0.515625 -1.21875 0.8125q-0.71875 0.28125 -1.65625 0.28125q-1.03125 0 -1.765625 -0.265625q-0.71875 -0.28125 -1.171875 -0.765625q-0.4375 -0.5 -0.65625 -1.1875q-0.203125 -0.703125 -0.203125 -1.5625l0 -7.4375l1.5 0l0 7.328125q0 0.640625 0.125 1.140625q0.125 0.484375 0.40625 0.8125q0.28125 0.328125 0.71875 0.5q0.453125 0.171875 1.09375 0.171875q1.203125 0 1.765625 -0.6875q0.578125 -0.703125 0.578125 -1.953125l0 -7.3125l1.5 0l0 7.21875zm9.245834 3.84375l-6.359375 0l0 -11.0625l1.53125 0l0 9.78125l4.828125 0l0 1.28125z" fill-rule="nonzero"/><path fill="#000000" fill-opacity="0.0" d="m119.13411 27.83727l113.70079 0l0 446.4882l-113.70079 0z" fill-rule="evenodd"/><path stroke="#000000" stroke-width="1.0" stroke-linejoin="round" stroke-linecap="butt" d="m119.13411 27.83727l113.70079 0l0 446.4882l-113.70079 0z" fill-rule="evenodd"/><path fill="#000000" d="m141.83723 56.97727l1.34375 0l0.046875 1.578125q0.75 -0.90625 1.484375 -1.3125q0.734375 -0.40625 1.46875 -0.40625q1.328125 0 2.0 0.859375q0.6875 0.84375 0.640625 2.53125l-1.5 0q0.03125 -1.125 -0.328125 -1.625q-0.34375 -0.5 -1.015625 -0.5q-0.296875 0 -0.609375 0.109375q-0.296875 0.09375 -0.609375 0.328125q-0.3125 0.234375 -0.671875 0.609375q-0.359375 0.359375 -0.765625 0.875l0 5.453129l-1.484375 0l0 -8.500004zm16.35521 3.796875q0 0.328125 -0.015625 0.546875q0 0.203125 -0.015625 0.375l-5.96875 0q0 1.3125 0.71875 2.015625q0.734375 0.6875038 2.109375 0.6875038q0.375 0 0.734375 -0.03125q0.375 -0.03125 0.71875 -0.078125q0.359375 -0.046875 0.671875 -0.109375q0.3125 -0.0625 0.59375 -0.140625l0 1.203125q-0.609375 0.171875 -1.375 0.28125q-0.75 0.109375 -1.5625 0.109375q-1.09375 0 -1.875 -0.296875q-0.78125 -0.296875 -1.296875 -0.859375q-0.5 -0.5625038 -0.75 -1.3750038q-0.234375 -0.828125 -0.234375 -1.859375q0 -0.890625 0.25 -1.6875q0.265625 -0.796875 0.765625 -1.40625q0.5 -0.609375 1.21875 -0.953125q0.71875 -0.359375 1.625 -0.359375q0.890625 0 1.578125 0.28125q0.6875 0.265625 1.15625 0.78125q0.46875 0.515625 0.703125 1.25q0.25 0.734375 0.25 1.625zm-1.53125 -0.203125q0.015625 -0.5625 -0.125 -1.03125q-0.125 -0.46875 -0.40625 -0.8125q-0.28125 -0.34375 -0.703125 -0.53125q-0.421875 -0.1875 -0.984375 -0.1875q-0.484375 0 -0.890625 0.1875q-0.390625 0.1875 -0.6875 0.53125q-0.28125 0.328125 -0.453125 0.8125q-0.171875 0.46875 -0.21875 1.03125l4.46875 0zm9.995834 -2.390625q0.234375 0.296875 0.359375 0.703125q0.140625 0.390625 0.140625 0.84375q0 0.65625 -0.25 1.203125q-0.234375 0.546875 -0.671875 0.9375q-0.4375 0.390625 -1.0625 0.609375q-0.609375 0.203125 -1.34375 0.203125q-0.53125 0 -1.0 -0.109375q-0.453125 -0.109375 -0.734375 -0.28125q-0.15625 0.234375 -0.265625 0.453125q-0.109375 0.203125 -0.109375 0.46875q0 0.3125 0.296875 0.53125q0.3125 0.21875 0.828125 0.234375l2.234375 0.078128815q0.625 0.015625 1.15625 0.171875q0.546875 0.140625 0.9375 0.40625q0.390625 0.265625 0.59375 0.671875q0.21875 0.390625 0.21875 0.921875q0 0.5625 -0.25 1.0625q-0.234375 0.515625 -0.75 0.890625q-0.515625 0.390625 -1.296875 0.609375q-0.78125 0.234375 -1.875 0.234375q-1.03125 0 -1.75 -0.171875q-0.71875 -0.15625 -1.1875 -0.453125q-0.46875 -0.28125 -0.6875 -0.6875q-0.203125 -0.390625 -0.203125 -0.875q0 -0.625 0.28125 -1.09375q0.296875 -0.453125 0.890625 -0.890625q-0.21875 -0.109375 -0.375 -0.25q-0.15625 -0.15625 -0.265625 -0.328125q-0.09375 -0.1875 -0.15625 -0.3906288q-0.046875 -0.203125 -0.046875 -0.40625q0 -0.546875 0.25 -1.0q0.265625 -0.453125 0.625 -0.859375q-0.15625 -0.203125 -0.28125 -0.390625q-0.125 -0.1875 -0.21875 -0.390625q-0.09375 -0.21875 -0.140625 -0.46875q-0.046875 -0.25 -0.046875 -0.578125q0 -0.65625 0.234375 -1.203125q0.25 -0.546875 0.6875 -0.9375q0.4375 -0.390625 1.046875 -0.59375q0.625 -0.21875 1.359375 -0.21875q0.3125 0 0.59375 0.046875q0.296875 0.03125 0.515625 0.09375l3.078125 0l0 1.203125l-1.359375 0zm-5.109375 8.531254q0 0.59375 0.625 0.859375q0.625 0.28125 1.75 0.28125q0.703125 0 1.171875 -0.125q0.484375 -0.125 0.765625 -0.34375q0.296875 -0.203125 0.421875 -0.46875q0.125 -0.265625 0.125 -0.546875q0 -0.515625 -0.421875 -0.765625q-0.421875 -0.234375 -1.28125 -0.28125l-2.21875 -0.078125q-0.28125 0.1875 -0.46875 0.359375q-0.1875 0.1875 -0.296875 0.359375q-0.09375 0.1875 -0.140625 0.375q-0.03125 0.1875 -0.03125 0.375zm0.453125 -6.953129q0 0.40625 0.125 0.75q0.140625 0.328125 0.390625 0.578125q0.25 0.234375 0.578125 0.359375q0.328125 0.125 0.734375 0.125q0.4375 0 0.78125 -0.140625q0.34375 -0.15625 0.578125 -0.40625q0.234375 -0.25 0.359375 -0.578125q0.125 -0.328125 0.125 -0.6875q0 -0.40625 -0.140625 -0.734375q-0.140625 -0.34375 -0.390625 -0.578125q-0.234375 -0.25 -0.578125 -0.375q-0.328125 -0.125 -0.734375 -0.125q-0.4375 0 -0.78125 0.15625q-0.34375 0.140625 -0.578125 0.390625q-0.234375 0.25 -0.359375 0.578125q-0.109375 0.328125 -0.109375 0.6875zm11.417709 3.046875q0.28125 0 0.53125 0.125q0.265625 0.109375 0.453125 0.296875q0.1875 0.1875 0.296875 0.453125q0.109375 0.25 0.109375 0.5468788q0 0.296875 -0.109375 0.546875q-0.109375 0.25 -0.296875 0.453125q-0.1875 0.1875 -0.453125 0.296875q-0.25 0.109375 -0.53125 0.109375q-0.296875 0 -0.5625 -0.109375q-0.25 -0.109375 -0.4375 -0.296875q-0.1875 -0.203125 -0.296875 -0.453125q-0.109375 -0.25 -0.109375 -0.546875q0 -0.2968788 0.109375 -0.5468788q0.109375 -0.265625 0.296875 -0.453125q0.1875 -0.1875 0.4375 -0.296875q0.265625 -0.125 0.5625 -0.125z" fill-rule="nonzero"/><path fill="#000000" d="m147.54036 86.47727l0 -6.09375q0 -0.40625 -0.03125 -0.65625q-0.015625 -0.25 -0.09375 -0.390625q-0.0625 -0.15625 -0.15625 -0.21875q-0.09375 -0.0625 -0.234375 -0.0625q-0.171875 0 -0.3125 0.109375q-0.140625 0.09375 -0.3125 0.328125q-0.171875 0.21875 -0.375 0.609375q-0.1875 0.375 -0.453125 0.921875l0 5.453125l-1.34375 0l0 -5.9375q0 -0.46875 -0.03125 -0.75q-0.03125 -0.296875 -0.09375 -0.453125q-0.0625 -0.15625 -0.171875 -0.21875q-0.09375 -0.0625 -0.25 -0.0625q-0.140625 0 -0.28125 0.09375q-0.140625 0.078125 -0.3125 0.296875q-0.15625 0.21875 -0.359375 0.609375q-0.203125 0.375 -0.484375 0.96875l0 5.453125l-1.34375 0l0 -8.5l1.125 0l0.0625 1.625q0.21875 -0.484375 0.421875 -0.8125q0.21875 -0.34375 0.4375 -0.546875q0.21875 -0.21875 0.46875 -0.3125q0.25 -0.09375 0.546875 -0.09375q0.6875 0 1.046875 0.453125q0.359375 0.4375 0.359375 1.375q0.203125 -0.4375 0.390625 -0.78125q0.203125 -0.34375 0.421875 -0.578125q0.21875 -0.234375 0.484375 -0.34375q0.28125 -0.125 0.640625 -0.125q1.59375 0 1.59375 2.453125l0 6.1875l-1.359375 0zm10.870834 -4.3125q0 0.984375 -0.28125 1.8125q-0.28125 0.828125 -0.8125 1.421875q-0.515625 0.578125 -1.265625 0.90625q-0.75 0.328125 -1.71875 0.328125q-0.90625 0 -1.640625 -0.28125q-0.71875 -0.296875 -1.21875 -0.84375q-0.5 -0.546875 -0.765625 -1.359375q-0.265625 -0.8125 -0.265625 -1.875q0 -0.984375 0.28125 -1.796875q0.28125 -0.8125 0.796875 -1.40625q0.53125 -0.59375 1.28125 -0.90625q0.75 -0.328125 1.703125 -0.328125q0.921875 0 1.640625 0.28125q0.71875 0.28125 1.21875 0.828125q0.515625 0.546875 0.78125 1.359375q0.265625 0.8125 0.265625 1.859375zm-1.5 0.0625q0 -0.78125 -0.1875 -1.359375q-0.171875 -0.59375 -0.5 -0.984375q-0.3125 -0.40625 -0.78125 -0.59375q-0.453125 -0.203125 -1.015625 -0.203125q-0.65625 0 -1.125 0.265625q-0.46875 0.25 -0.78125 0.6875q-0.296875 0.421875 -0.4375 1.0q-0.140625 0.5625 -0.140625 1.1875q0 0.796875 0.171875 1.390625q0.171875 0.578125 0.5 0.984375q0.328125 0.390625 0.78125 0.59375q0.453125 0.1875 1.03125 0.1875q0.65625 0 1.125 -0.25q0.46875 -0.265625 0.765625 -0.6875q0.3125 -0.4375 0.453125 -1.0q0.140625 -0.578125 0.140625 -1.21875zm3.1989594 0.1875q0 -1.09375 0.296875 -1.9375q0.296875 -0.84375 0.84375 -1.421875q0.546875 -0.578125 1.3125 -0.875q0.765625 -0.296875 1.703125 -0.296875q0.40625 0 0.796875 0.046875q0.390625 0.046875 0.78125 0.15625l0 -3.5625l1.46875 0l0 11.953125l-1.3125 0l-0.046875 -1.609375q-0.625 0.90625 -1.34375 1.34375q-0.71875 0.421875 -1.5625 0.421875q-0.71875 0 -1.28125 -0.296875q-0.546875 -0.3125 -0.921875 -0.859375q-0.359375 -0.5625 -0.546875 -1.34375q-0.1875 -0.78125 -0.1875 -1.71875zm1.5 -0.09375q0 1.53125 0.453125 2.296875q0.453125 0.75 1.28125 0.75q0.5625 0 1.1875 -0.5q0.625 -0.5 1.3125 -1.484375l0 -3.9375q-0.375 -0.171875 -0.8125 -0.25q-0.4375 -0.09375 -0.875 -0.09375q-1.1875 0 -1.875 0.78125q-0.671875 0.765625 -0.671875 2.4375zm15.292709 4.15625l-1.328125 0l-0.046875 -1.375q-0.375 0.4375 -0.71875 0.734375q-0.34375 0.296875 -0.6875 0.484375q-0.34375 0.171875 -0.6875 0.234375q-0.34375 0.078125 -0.71875 0.078125q-1.3125 0 -1.984375 -0.765625q-0.65625 -0.78125 -0.65625 -2.328125l0 -5.5625l1.46875 0l0 5.4375q0 1.953125 1.46875 1.953125q0.265625 0 0.515625 -0.078125q0.265625 -0.078125 0.546875 -0.28125q0.296875 -0.203125 0.609375 -0.53125q0.328125 -0.34375 0.734375 -0.859375l0 -5.640625l1.484375 0l0 8.5zm5.5895844 -10.75l-2.515625 0l0 -1.203125l4.0 0l0 10.71875l2.53125 0l0 1.234375l-6.8125 0l0 -1.234375l2.796875 0l0 -9.515625zm13.808334 6.046875q0 0.328125 -0.015625 0.546875q0 0.203125 -0.015625 0.375l-5.96875 0q0 1.3125 0.71875 2.015625q0.734375 0.6875 2.109375 0.6875q0.375 0 0.734375 -0.03125q0.375 -0.03125 0.71875 -0.078125q0.359375 -0.046875 0.671875 -0.109375q0.3125 -0.0625 0.59375 -0.140625l0 1.203125q-0.609375 0.171875 -1.375 0.28125q-0.75 0.109375 -1.5625 0.109375q-1.09375 0 -1.875 -0.296875q-0.78125 -0.296875 -1.296875 -0.859375q-0.5 -0.5625 -0.75 -1.375q-0.234375 -0.828125 -0.234375 -1.859375q0 -0.890625 0.25 -1.6875q0.265625 -0.796875 0.765625 -1.40625q0.5 -0.609375 1.21875 -0.953125q0.71875 -0.359375 1.625 -0.359375q0.890625 0 1.578125 0.28125q0.6875 0.265625 1.15625 0.78125q0.46875 0.515625 0.703125 1.25q0.25 0.734375 0.25 1.625zm-1.53125 -0.203125q0.015625 -0.5625 -0.125 -1.03125q-0.125 -0.46875 -0.40625 -0.8125q-0.28125 -0.34375 -0.703125 -0.53125q-0.421875 -0.1875 -0.984375 -0.1875q-0.484375 0 -0.890625 0.1875q-0.390625 0.1875 -0.6875 0.53125q-0.28125 0.328125 -0.453125 0.8125q-0.171875 0.46875 -0.21875 1.03125l4.46875 0z" fill-rule="nonzero"/><path fill="#000000" fill-opacity="0.0" d="m420.36618 211.98936l88.79779 0l0 68.52159l-88.79779 0" fill-rule="evenodd"/><path stroke="#000000" stroke-width="2.0" stroke-linejoin="round" stroke-linecap="butt" d="m420.36618 211.98936l88.79779 0l0 68.52159l-88.79779 0" fill-rule="evenodd"/><path fill="#000000" fill-opacity="0.0" d="m491.40298 211.98936l0 68.52159" fill-rule="evenodd"/><path stroke="#000000" stroke-width="2.0" stroke-linejoin="round" stroke-linecap="butt" d="m491.40298 211.98936l0 68.52159" fill-rule="evenodd"/><path fill="#000000" fill-opacity="0.0" d="m473.64377 211.98936l0 68.52159" fill-rule="evenodd"/><path stroke="#000000" stroke-width="2.0" stroke-linejoin="round" stroke-linecap="butt" d="m473.64377 211.98936l0 68.52159" fill-rule="evenodd"/><path fill="#000000" fill-opacity="0.0" d="m455.88458 211.98936l0 68.52159" fill-rule="evenodd"/><path stroke="#000000" stroke-width="2.0" stroke-linejoin="round" stroke-linecap="butt" d="m455.88458 211.98936l0 68.52159" fill-rule="evenodd"/><path fill="#000000" fill-opacity="0.0" d="m438.12537 211.98936l0 68.52159" fill-rule="evenodd"/><path stroke="#000000" stroke-width="2.0" stroke-linejoin="round" stroke-linecap="butt" d="m438.12537 211.98936l0 68.52159" fill-rule="evenodd"/><path fill="#000000" fill-opacity="0.0" d="m361.2958 213.20735l32.22046 0.37794495" fill-rule="evenodd"/><path stroke="#000000" stroke-width="2.0" stroke-linejoin="round" stroke-linecap="butt" d="m361.2958 213.20735l32.22046 0.37794495" fill-rule="evenodd"/><path fill="#000000" fill-opacity="0.0" d="m395.3485 280.5118l149.35431 0l0 37.51181l-149.35431 0z" fill-rule="evenodd"/><path fill="#000000" d="m424.786 305.4077l-6.953125 0l0 -1.375l2.84375 0l0 -8.0625l-2.640625 1.4375l-0.546875 -1.25l3.515625 -1.859375l1.3125 0l0 9.734375l2.46875 0l0 1.375zm9.761475 -3.5q0 0.765625 -0.28125 1.4375q-0.28125 0.65625 -0.796875 1.15625q-0.5 0.484375 -1.21875 0.78125q-0.703125 0.28125 -1.578125 0.28125q-0.90625 0 -1.609375 -0.296875q-0.703125 -0.296875 -1.1875 -0.890625q-0.46875 -0.609375 -0.71875 -1.53125q-0.234375 -0.921875 -0.234375 -2.1875q0 -0.84375 0.109375 -1.640625q0.109375 -0.796875 0.359375 -1.5q0.25 -0.703125 0.671875 -1.28125q0.421875 -0.578125 1.046875 -1.0q0.640625 -0.421875 1.484375 -0.65625q0.859375 -0.234375 1.984375 -0.234375l1.09375 0l0 1.296875l-1.1875 0q-0.984375 0 -1.71875 0.234375q-0.71875 0.234375 -1.21875 0.671875q-0.484375 0.421875 -0.75 1.03125q-0.25 0.609375 -0.328125 1.359375l-0.03125 0.34375q0.53125 -0.3125 1.234375 -0.5q0.703125 -0.1875 1.515625 -0.1875q0.828125 0 1.453125 0.25q0.640625 0.234375 1.046875 0.671875q0.421875 0.4375 0.640625 1.046875q0.21875 0.609375 0.21875 1.34375zm-1.546875 0.09375q0 -0.515625 -0.125 -0.921875q-0.125 -0.40625 -0.390625 -0.6875q-0.25 -0.296875 -0.65625 -0.453125q-0.40625 -0.15625 -0.96875 -0.15625q-0.3125 0 -0.640625 0.0625q-0.328125 0.0625 -0.65625 0.171875q-0.3125 0.109375 -0.609375 0.25q-0.28125 0.125 -0.515625 0.28125q0 1.078125 0.15625 1.8125q0.15625 0.734375 0.453125 1.171875q0.296875 0.4375 0.734375 0.625q0.4375 0.1875 1.015625 0.1875q0.484375 0 0.875 -0.15625q0.40625 -0.15625 0.703125 -0.453125q0.296875 -0.3125 0.453125 -0.734375q0.171875 -0.4375 0.171875 -1.0zm11.417694 3.40625l-1.953125 0l-2.296875 -3.234375l-2.265625 3.234375l-1.90625 0l3.296875 -4.265625l-3.140625 -4.234375l1.875 0l2.234375 3.265625l2.203125 -3.265625l1.8125 0l-3.1875 4.265625l3.328125 4.234375zm8.823975 -3.359375q0 0.734375 -0.296875 1.375q-0.296875 0.625 -0.890625 1.109375q-0.578125 0.484375 -1.484375 0.765625q-0.890625 0.265625 -2.09375 0.265625q-0.65625 0 -1.1875 -0.046875q-0.515625 -0.046875 -0.96875 -0.109375l0 -1.3125q0.515625 0.078125 1.09375 0.140625q0.59375 0.046875 1.203125 0.046875q0.828125 0 1.40625 -0.140625q0.59375 -0.15625 0.96875 -0.4375q0.375 -0.28125 0.546875 -0.671875q0.171875 -0.40625 0.171875 -0.90625q0 -0.453125 -0.203125 -0.78125q-0.203125 -0.34375 -0.578125 -0.5625q-0.359375 -0.234375 -0.875 -0.34375q-0.515625 -0.125 -1.125 -0.125l-1.265625 0l0 -1.203125l1.28125 0q0.5 0 0.90625 -0.125q0.421875 -0.140625 0.703125 -0.390625q0.296875 -0.25 0.453125 -0.609375q0.15625 -0.359375 0.15625 -0.8125q0 -0.890625 -0.546875 -1.296875q-0.53125 -0.40625 -1.578125 -0.40625q-0.5625 0 -1.15625 0.109375q-0.59375 0.109375 -1.265625 0.328125l0 -1.28125q0.28125 -0.09375 0.609375 -0.171875q0.328125 -0.09375 0.65625 -0.140625q0.328125 -0.0625 0.640625 -0.078125q0.328125 -0.03125 0.625 -0.03125q0.875 0 1.546875 0.1875q0.671875 0.1875 1.109375 0.546875q0.453125 0.34375 0.671875 0.859375q0.234375 0.5 0.234375 1.140625q0 0.953125 -0.484375 1.59375q-0.484375 0.640625 -1.328125 1.015625q0.421875 0.078125 0.84375 0.28125q0.421875 0.203125 0.75 0.515625q0.34375 0.3125 0.546875 0.75q0.203125 0.421875 0.203125 0.953125zm9.745819 3.359375l-7.28125 0l0 -1.3125l2.859375 -2.84375q0.703125 -0.703125 1.140625 -1.203125q0.4375 -0.515625 0.671875 -0.921875q0.25 -0.421875 0.328125 -0.796875q0.09375 -0.375 0.09375 -0.8125q0 -0.40625 -0.109375 -0.765625q-0.109375 -0.375 -0.34375 -0.65625q-0.21875 -0.28125 -0.59375 -0.4375q-0.359375 -0.15625 -0.859375 -0.15625q-0.703125 0 -1.28125 0.3125q-0.578125 0.3125 -1.0625 0.8125l-0.8125 -0.96875q0.625 -0.671875 1.4375 -1.0625q0.828125 -0.390625 1.90625 -0.390625q0.734375 0 1.34375 0.21875q0.609375 0.21875 1.046875 0.640625q0.4375 0.40625 0.671875 1.015625q0.25 0.59375 0.25 1.34375q0 0.625 -0.171875 1.171875q-0.171875 0.546875 -0.515625 1.09375q-0.34375 0.53125 -0.859375 1.109375q-0.515625 0.5625 -1.234375 1.25l-2.0 1.953125l5.375 0l0 1.40625zm9.605225 -4.40625q0 1.0625 -0.296875 1.90625q-0.28125 0.828125 -0.828125 1.40625q-0.53125 0.578125 -1.296875 0.890625q-0.765625 0.296875 -1.734375 0.296875q-0.75 0 -1.546875 -0.140625q-0.78125 -0.140625 -1.546875 -0.453125l0 -11.453125l1.46875 0l0 3.28125l-0.0625 1.578125q0.625 -0.84375 1.34375 -1.1875q0.734375 -0.359375 1.5625 -0.359375q0.71875 0 1.265625 0.3125q0.5625 0.296875 0.921875 0.859375q0.375 0.546875 0.5625 1.328125q0.1875 0.78125 0.1875 1.734375zm-1.5 0.078125q0 -0.671875 -0.109375 -1.234375q-0.09375 -0.5625 -0.3125 -0.953125q-0.203125 -0.390625 -0.53125 -0.609375q-0.328125 -0.234375 -0.78125 -0.234375q-0.28125 0 -0.578125 0.09375q-0.28125 0.078125 -0.59375 0.296875q-0.296875 0.203125 -0.640625 0.546875q-0.34375 0.34375 -0.734375 0.84375l0 4.125q0.421875 0.171875 0.875 0.265625q0.453125 0.09375 0.859375 0.09375q0.5 0 0.953125 -0.15625q0.46875 -0.15625 0.8125 -0.53125q0.359375 -0.390625 0.5625 -1.0q0.21875 -0.625 0.21875 -1.546875zm19.913544 -5.4375l-4.6875 0l0 3.578125l4.4375 0l0 1.265625l-4.4375 0l0 4.921875l-1.546875 0l0 -11.0625l6.234375 0l0 1.296875zm5.558319 -0.03125l-2.546875 0l0 -1.265625l6.625 0l0 1.265625l-2.546875 0l0 8.515625l2.546875 0l0 1.28125l-6.625 0l0 -1.28125l2.546875 0l0 -8.515625zm13.49585 0.03125l-4.6875 0l0 3.578125l4.4375 0l0 1.265625l-4.4375 0l0 4.921875l-1.546875 0l0 -11.0625l6.234375 0l0 1.296875zm10.62085 4.171875q0 1.484375 -0.359375 2.5625q-0.34375 1.078125 -0.9375 1.796875q-0.59375 0.703125 -1.40625 1.046875q-0.796875 0.34375 -1.6875 0.34375q-1.0625 0 -1.859375 -0.390625q-0.78125 -0.390625 -1.3125 -1.109375q-0.515625 -0.734375 -0.765625 -1.765625q-0.25 -1.046875 -0.25 -2.359375q0 -1.484375 0.34375 -2.5625q0.34375 -1.078125 0.9375 -1.78125q0.609375 -0.71875 1.390625 -1.046875q0.796875 -0.34375 1.6875 -0.34375q1.078125 0 1.859375 0.390625q0.796875 0.375 1.3125 1.109375q0.53125 0.71875 0.78125 1.765625q0.265625 1.03125 0.265625 2.34375zm-1.5625 0.109375q0 -0.984375 -0.15625 -1.78125q-0.140625 -0.8125 -0.46875 -1.390625q-0.328125 -0.59375 -0.859375 -0.90625q-0.515625 -0.328125 -1.25 -0.328125q-0.71875 0 -1.234375 0.34375q-0.5 0.34375 -0.828125 0.9375q-0.328125 0.578125 -0.5 1.375q-0.15625 0.78125 -0.15625 1.671875q0 0.984375 0.15625 1.796875q0.15625 0.796875 0.46875 1.390625q0.328125 0.578125 0.84375 0.90625q0.515625 0.3125 1.25 0.3125q0.703125 0 1.21875 -0.34375q0.515625 -0.34375 0.84375 -0.921875q0.34375 -0.59375 0.5 -1.375q0.171875 -0.796875 0.171875 -1.6875z" fill-rule="nonzero"/><path fill="#000000" fill-opacity="0.0" d="m233.08136 149.8924l326.3307 0" fill-rule="evenodd"/><path stroke="#000000" stroke-width="2.0" stroke-linejoin="round" stroke-linecap="butt" d="m233.08136 149.8924l319.47656 0" fill-rule="evenodd"/><path fill="#000000" stroke="#000000" stroke-width="2.0" stroke-linecap="butt" d="m552.5579 149.8924l-2.2492065 2.2491608l6.1795654 -2.2491608l-6.1795654 -2.249176z" fill-rule="evenodd"/><path fill="#000000" fill-opacity="0.0" d="m511.70898 246.2513l233.03937 0" fill-rule="evenodd"/><path stroke="#000000" stroke-width="2.0" stroke-linejoin="round" stroke-linecap="butt" d="m511.70898 246.2513l233.03937 0" fill-rule="evenodd"/><path fill="#000000" fill-opacity="0.0" d="m528.37305 27.837103l273.03937 0l0 446.4882l-273.03937 0z" fill-rule="evenodd"/><path stroke="#666666" stroke-width="1.0" stroke-linejoin="round" stroke-linecap="butt" stroke-dasharray="4.0,3.0" d="m528.37305 27.837103l273.03937 0l0 446.4882l-273.03937 0z" fill-rule="evenodd"/><path fill="#000000" d="m557.9668 65.477104l-1.5 0l0 -5.078129l-4.65625 0l0 5.078129l-1.5 0l0 -11.062504l1.5 0l0 4.6875l4.65625 0l0 -4.6875l1.5 0l0 11.062504zm10.042664 0l-1.46875 0l-0.21875 -6.890629l-0.09375 -2.65625l-0.515625 1.546875l-1.640625 4.390625l-1.03125 0l-1.5625 -4.21875l-0.515625 -1.71875l-0.03125 2.765625l-0.1875 6.781254l-1.421875 0l0.53125 -11.062504l1.78125 0l1.5 4.171875l0.484375 1.40625l0.453125 -1.40625l1.578125 -4.171875l1.828125 0l0.53125 11.062504zm9.855225 0l-1.640625 0l-0.765625 -2.4062538l-4.609375 0l-0.765625 2.4062538l-1.578125 0l3.671875 -11.062504l2.078125 0l3.609375 11.062504zm-2.84375 -3.7500038l-1.859375 -5.921875l-1.875 5.921875l3.734375 0zm11.355225 3.3281288q-1.328125 0.5625 -2.78125 0.5625q-2.34375 0 -3.609375 -1.40625q-1.25 -1.4062538 -1.25 -4.140629q0 -1.328125 0.34375 -2.40625q0.34375 -1.078125 0.984375 -1.8125q0.65625 -0.75 1.5625 -1.15625q0.90625 -0.40625 2.046875 -0.40625q0.765625 0 1.421875 0.125q0.671875 0.125 1.28125 0.40625l0 1.46875q-0.609375 -0.328125 -1.25 -0.5q-0.640625 -0.171875 -1.40625 -0.171875q-0.78125 0 -1.40625 0.296875q-0.625 0.296875 -1.078125 0.84375q-0.4375 0.546875 -0.671875 1.359375q-0.234375 0.796875 -0.234375 1.8125q0 2.15625 0.875 3.25q0.875 1.0937538 2.546875 1.0937538q0.71875 0 1.359375 -0.171875q0.65625 -0.17187881 1.265625 -0.4687538l0 1.4218788zm18.585388 0.109375q-0.578125 0.21875 -1.1875 0.328125q-0.59375 0.109375 -1.234375 0.109375q-2.015625 0 -3.109375 -1.09375q-1.078125 -1.0937538 -1.078125 -3.1875038q0 -1.015625 0.3125 -1.828125q0.3125 -0.828125 0.875 -1.40625q0.5625 -0.59375 1.34375 -0.90625q0.796875 -0.3125 1.75 -0.3125q0.65625 0 1.21875 0.09375q0.578125 0.09375 1.109375 0.296875l0 1.40625q-0.546875 -0.28125 -1.125 -0.40625q-0.5625 -0.140625 -1.171875 -0.140625q-0.578125 0 -1.078125 0.21875q-0.5 0.21875 -0.890625 0.625q-0.375 0.390625 -0.59375 0.984375q-0.21875 0.578125 -0.21875 1.3125q0 1.546875 0.75 2.3125q0.75 0.7656288 2.078125 0.7656288q0.59375 0 1.15625 -0.125q0.5625 -0.140625 1.09375 -0.4218788l0 1.3750038zm10.323975 -4.000004q0 0.984375 -0.28125 1.8125q-0.28125 0.828125 -0.8125 1.4218788q-0.515625 0.578125 -1.265625 0.90625q-0.75 0.328125 -1.71875 0.328125q-0.90625 0 -1.640625 -0.28125q-0.71875 -0.296875 -1.21875 -0.84375q-0.5 -0.5468788 -0.765625 -1.3593788q-0.265625 -0.8125 -0.265625 -1.875q0 -0.984375 0.28125 -1.796875q0.28125 -0.8125 0.796875 -1.40625q0.53125 -0.59375 1.28125 -0.90625q0.75 -0.328125 1.703125 -0.328125q0.921875 0 1.640625 0.28125q0.71875 0.28125 1.21875 0.828125q0.515625 0.546875 0.78125 1.359375q0.265625 0.8125 0.265625 1.859375zm-1.5 0.0625q0 -0.78125 -0.1875 -1.359375q-0.171875 -0.59375 -0.5 -0.984375q-0.3125 -0.40625 -0.78125 -0.59375q-0.453125 -0.203125 -1.015625 -0.203125q-0.65625 0 -1.125 0.265625q-0.46875 0.25 -0.78125 0.6875q-0.296875 0.421875 -0.4375 1.0q-0.140625 0.5625 -0.140625 1.1875q0 0.796875 0.171875 1.390625q0.171875 0.578125 0.5 0.984375q0.328125 0.390625 0.78125 0.5937538q0.453125 0.1875 1.03125 0.1875q0.65625 0 1.125 -0.25q0.46875 -0.2656288 0.765625 -0.6875038q0.3125 -0.4375 0.453125 -1.0q0.140625 -0.578125 0.140625 -1.21875zm3.9802246 -4.25l1.34375 0l0.046875 1.578125q0.75 -0.90625 1.484375 -1.3125q0.734375 -0.40625 1.46875 -0.40625q1.328125 0 2.0 0.859375q0.6875 0.84375 0.640625 2.53125l-1.5 0q0.03125 -1.125 -0.328125 -1.625q-0.34375 -0.5 -1.015625 -0.5q-0.296875 0 -0.609375 0.109375q-0.296875 0.09375 -0.609375 0.328125q-0.3125 0.234375 -0.671875 0.609375q-0.359375 0.359375 -0.765625 0.875l0 5.453129l-1.484375 0l0 -8.500004zm16.355225 3.796875q0 0.328125 -0.015625 0.546875q0 0.203125 -0.015625 0.375l-5.96875 0q0 1.3125 0.71875 2.015625q0.734375 0.6875038 2.109375 0.6875038q0.375 0 0.734375 -0.03125q0.375 -0.03125 0.71875 -0.078125q0.359375 -0.046875 0.671875 -0.109375q0.3125 -0.0625 0.59375 -0.140625l0 1.203125q-0.609375 0.171875 -1.375 0.28125q-0.75 0.109375 -1.5625 0.109375q-1.09375 0 -1.875 -0.296875q-0.78125 -0.296875 -1.296875 -0.859375q-0.5 -0.5625038 -0.75 -1.3750038q-0.234375 -0.828125 -0.234375 -1.859375q0 -0.890625 0.25 -1.6875q0.265625 -0.796875 0.765625 -1.40625q0.5 -0.609375 1.21875 -0.953125q0.71875 -0.359375 1.625 -0.359375q0.890625 0 1.578125 0.28125q0.6875 0.265625 1.15625 0.78125q0.46875 0.515625 0.703125 1.25q0.25 0.734375 0.25 1.625zm-1.53125 -0.203125q0.015625 -0.5625 -0.125 -1.03125q-0.125 -0.46875 -0.40625 -0.8125q-0.28125 -0.34375 -0.703125 -0.53125q-0.421875 -0.1875 -0.984375 -0.1875q-0.484375 0 -0.890625 0.1875q-0.390625 0.1875 -0.6875 0.53125q-0.28125 0.328125 -0.453125 0.8125q-0.171875 0.46875 -0.21875 1.03125l4.46875 0z" fill-rule="nonzero"/><path fill="#000000" fill-opacity="0.0" d="m856.92303 27.837103l195.33856 0l0 446.4882l-195.33856 0z" fill-rule="evenodd"/><path stroke="#666666" stroke-width="1.0" stroke-linejoin="round" stroke-linecap="butt" d="m856.92303 27.837103l195.33856 0l0 446.4882l-195.33856 0z" fill-rule="evenodd"/><path fill="#000000" d="m886.36053 62.4771q0 0.796875 -0.328125 1.390625q-0.3125 0.5781288 -0.890625 0.9843788q-0.578125 0.390625 -1.390625 0.59375q-0.796875 0.1875 -1.78125 0.1875q-0.4375 0 -0.875 -0.046875q-0.4375 -0.03125 -0.84375 -0.078125q-0.390625 -0.046875 -0.75 -0.109375q-0.34375 -0.078125 -0.640625 -0.15625l0 -1.4531288q0.640625 0.23437881 1.421875 0.3750038q0.796875 0.140625 1.796875 0.140625q0.734375 0 1.25 -0.109375q0.515625 -0.125 0.828125 -0.3437538q0.328125 -0.234375 0.46875 -0.546875q0.15625 -0.328125 0.15625 -0.734375q0 -0.453125 -0.25 -0.765625q-0.25 -0.328125 -0.65625 -0.578125q-0.40625 -0.25 -0.921875 -0.453125q-0.515625 -0.203125 -1.0625 -0.421875q-0.546875 -0.21875 -1.0625 -0.46875q-0.515625 -0.265625 -0.921875 -0.609375q-0.40625 -0.359375 -0.65625 -0.828125q-0.25 -0.484375 -0.25 -1.140625q0 -0.5625 0.234375 -1.109375q0.234375 -0.546875 0.734375 -0.96875q0.5 -0.4375 1.28125 -0.6875q0.78125 -0.265625 1.859375 -0.265625q0.28125 0 0.609375 0.03125q0.328125 0.015625 0.65625 0.0625q0.34375 0.046875 0.671875 0.109375q0.328125 0.046875 0.59375 0.125l0 1.34375q-0.640625 -0.1875 -1.296875 -0.28125q-0.65625 -0.09375 -1.265625 -0.09375q-1.296875 0 -1.90625 0.4375q-0.609375 0.421875 -0.609375 1.15625q0 0.4375 0.25 0.765625q0.25 0.328125 0.65625 0.578125q0.40625 0.25 0.921875 0.46875q0.53125 0.203125 1.0625 0.421875q0.546875 0.21875 1.0625 0.484375q0.53125 0.25 0.9375 0.609375q0.40625 0.359375 0.65625 0.84375q0.25 0.484375 0.25 1.140625zm9.683289 3.0000038l-1.5 0l0 -5.078129l-4.65625 0l0 5.078129l-1.5 0l0 -11.062504l1.5 0l0 4.6875l4.65625 0l0 -4.6875l1.5 0l0 11.062504zm10.37085 0l-1.640625 0l-0.765625 -2.4062538l-4.609375 0l-0.765625 2.4062538l-1.578125 0l3.671875 -11.062504l2.078125 0l3.609375 11.062504zm-2.84375 -3.7500038l-1.859375 -5.921875l-1.875 5.921875l3.734375 0zm11.4646 3.7500038l-7.28125 0l0 -1.3125l2.859375 -2.8437538q0.703125 -0.703125 1.140625 -1.203125q0.4375 -0.515625 0.671875 -0.921875q0.25 -0.421875 0.328125 -0.796875q0.09375 -0.375 0.09375 -0.8125q0 -0.40625 -0.109375 -0.765625q-0.109375 -0.375 -0.34375 -0.65625q-0.21875 -0.28125 -0.59375 -0.4375q-0.359375 -0.15625 -0.859375 -0.15625q-0.703125 0 -1.28125 0.3125q-0.578125 0.3125 -1.0625 0.8125l-0.8125 -0.96875q0.625 -0.671875 1.4375 -1.0625q0.828125 -0.390625 1.90625 -0.390625q0.734375 0 1.34375 0.21875q0.609375 0.21875 1.046875 0.640625q0.4375 0.40625 0.671875 1.015625q0.25 0.59375 0.25 1.34375q0 0.625 -0.171875 1.171875q-0.171875 0.546875 -0.515625 1.09375q-0.34375 0.53125 -0.859375 1.109375q-0.515625 0.5625 -1.234375 1.25l-2.0 1.9531288l5.375 0l0 1.40625z" fill-rule="nonzero"/><path fill="#000000" fill-opacity="0.0" d="m857.4008 291.17957l154.2992 0l0 55.18112l-154.2992 0z" fill-rule="evenodd"/><path fill="#000000" d="m879.3227 320.84763q0 -1.09375 0.296875 -1.9375q0.296875 -0.84375 0.84375 -1.421875q0.546875 -0.578125 1.3125 -0.875q0.765625 -0.296875 1.703125 -0.296875q0.40625 0 0.796875 0.046875q0.390625 0.046875 0.78125 0.15625l0 -3.5625l1.46875 0l0 11.953125l-1.3125 0l-0.046875 -1.609375q-0.625 0.90625 -1.34375 1.34375q-0.71875 0.421875 -1.5625 0.421875q-0.71875 0 -1.28125 -0.296875q-0.546875 -0.3125 -0.921875 -0.859375q-0.359375 -0.5625 -0.546875 -1.34375q-0.1875 -0.78125 -0.1875 -1.71875zm1.5 -0.09375q0 1.53125 0.453125 2.296875q0.453125 0.75 1.28125 0.75q0.5625 0 1.1875 -0.5q0.625 -0.5 1.3125 -1.484375l0 -3.9375q-0.375 -0.171875 -0.8125 -0.25q-0.4375 -0.09375 -0.875 -0.09375q-1.1875 0 -1.875 0.78125q-0.671875 0.765625 -0.671875 2.4375zm11.355164 -3.125l-2.515625 0l0 -1.21875l4.0 0l0 7.265625l2.53125 0l0 1.234375l-6.8125 0l0 -1.234375l2.796875 0l0 -6.046875zm0.515625 -4.78125q0.25 0 0.453125 0.09375q0.21875 0.09375 0.375 0.25q0.15625 0.15625 0.234375 0.375q0.09375 0.203125 0.09375 0.453125q0 0.234375 -0.09375 0.453125q-0.078125 0.203125 -0.234375 0.359375q-0.15625 0.15625 -0.375 0.25q-0.203125 0.09375 -0.453125 0.09375q-0.25 0 -0.46875 -0.09375q-0.203125 -0.09375 -0.359375 -0.25q-0.15625 -0.15625 -0.25 -0.359375q-0.078125 -0.21875 -0.078125 -0.453125q0 -0.25 0.078125 -0.453125q0.09375 -0.21875 0.25 -0.375q0.15625 -0.15625 0.359375 -0.25q0.21875 -0.09375 0.46875 -0.09375zm12.230225 4.765625q0.234375 0.296875 0.359375 0.703125q0.140625 0.390625 0.140625 0.84375q0 0.65625 -0.25 1.203125q-0.234375 0.546875 -0.671875 0.9375q-0.4375 0.390625 -1.0625 0.609375q-0.609375 0.203125 -1.34375 0.203125q-0.53125 0 -1.0 -0.109375q-0.453125 -0.109375 -0.734375 -0.28125q-0.15625 0.234375 -0.265625 0.453125q-0.109375 0.203125 -0.109375 0.46875q0 0.3125 0.296875 0.53125q0.3125 0.21875 0.828125 0.234375l2.234375 0.078125q0.625 0.015625 1.15625 0.171875q0.546875 0.140625 0.9375 0.40625q0.390625 0.265625 0.59375 0.671875q0.21875 0.390625 0.21875 0.921875q0 0.5625 -0.25 1.0625q-0.234375 0.515625 -0.75 0.890625q-0.515625 0.390625 -1.296875 0.609375q-0.78125 0.234375 -1.875 0.234375q-1.03125 0 -1.75 -0.171875q-0.71875 -0.15625 -1.1875 -0.453125q-0.46875 -0.28125 -0.6875 -0.6875q-0.203125 -0.390625 -0.203125 -0.875q0 -0.625 0.28125 -1.09375q0.296875 -0.453125 0.890625 -0.890625q-0.21875 -0.109375 -0.375 -0.25q-0.15625 -0.15625 -0.265625 -0.328125q-0.09375 -0.1875 -0.15625 -0.390625q-0.046875 -0.203125 -0.046875 -0.40625q0 -0.546875 0.25 -1.0q0.265625 -0.453125 0.625 -0.859375q-0.15625 -0.203125 -0.28125 -0.390625q-0.125 -0.1875 -0.21875 -0.390625q-0.09375 -0.21875 -0.140625 -0.46875q-0.046875 -0.25 -0.046875 -0.578125q0 -0.65625 0.234375 -1.203125q0.25 -0.546875 0.6875 -0.9375q0.4375 -0.390625 1.046875 -0.59375q0.625 -0.21875 1.359375 -0.21875q0.3125 0 0.59375 0.046875q0.296875 0.03125 0.515625 0.09375l3.078125 0l0 1.203125l-1.359375 0zm-5.109375 8.53125q0 0.59375 0.625 0.859375q0.625 0.28125 1.75 0.28125q0.703125 0 1.171875 -0.125q0.484375 -0.125 0.765625 -0.34375q0.296875 -0.203125 0.421875 -0.46875q0.125 -0.265625 0.125 -0.546875q0 -0.515625 -0.421875 -0.765625q-0.421875 -0.234375 -1.28125 -0.28125l-2.21875 -0.078125q-0.28125 0.1875 -0.46875 0.359375q-0.1875 0.1875 -0.296875 0.359375q-0.09375 0.1875 -0.140625 0.375q-0.03125 0.1875 -0.03125 0.375zm0.453125 -6.953125q0 0.40625 0.125 0.75q0.140625 0.328125 0.390625 0.578125q0.25 0.234375 0.578125 0.359375q0.328125 0.125 0.734375 0.125q0.4375 0 0.78125 -0.140625q0.34375 -0.15625 0.578125 -0.40625q0.234375 -0.25 0.359375 -0.578125q0.125 -0.328125 0.125 -0.6875q0 -0.40625 -0.140625 -0.734375q-0.140625 -0.34375 -0.390625 -0.578125q-0.234375 -0.25 -0.578125 -0.375q-0.328125 -0.125 -0.734375 -0.125q-0.4375 0 -0.78125 0.15625q-0.34375 0.140625 -0.578125 0.390625q-0.234375 0.25 -0.359375 0.578125q-0.109375 0.328125 -0.109375 0.6875zm15.24585 1.015625q0 0.328125 -0.015625 0.546875q0 0.203125 -0.015625 0.375l-5.96875 0q0 1.3125 0.71875 2.015625q0.734375 0.6875 2.109375 0.6875q0.375 0 0.734375 -0.03125q0.375 -0.03125 0.71875 -0.078125q0.359375 -0.046875 0.671875 -0.109375q0.3125 -0.0625 0.59375 -0.140625l0 1.203125q-0.609375 0.171875 -1.375 0.28125q-0.75 0.109375 -1.5625 0.109375q-1.09375 0 -1.875 -0.296875q-0.78125 -0.296875 -1.296875 -0.859375q-0.5 -0.5625 -0.75 -1.375q-0.234375 -0.828125 -0.234375 -1.859375q0 -0.890625 0.25 -1.6875q0.265625 -0.796875 0.765625 -1.40625q0.5 -0.609375 1.21875 -0.953125q0.71875 -0.359375 1.625 -0.359375q0.890625 0 1.578125 0.28125q0.6875 0.265625 1.15625 0.78125q0.46875 0.515625 0.703125 1.25q0.25 0.734375 0.25 1.625zm-1.53125 -0.203125q0.015625 -0.5625 -0.125 -1.03125q-0.125 -0.46875 -0.40625 -0.8125q-0.28125 -0.34375 -0.703125 -0.53125q-0.421875 -0.1875 -0.984375 -0.1875q-0.484375 0 -0.890625 0.1875q-0.390625 0.1875 -0.6875 0.53125q-0.28125 0.328125 -0.453125 0.8125q-0.171875 0.46875 -0.21875 1.03125l4.46875 0zm10.605225 2.59375q0 0.4375 -0.15625 0.796875q-0.140625 0.359375 -0.40625 0.640625q-0.265625 0.265625 -0.609375 0.46875q-0.34375 0.1875 -0.75 0.3125q-0.390625 0.125 -0.8125 0.1875q-0.40625 0.0625 -0.796875 0.0625q-0.859375 0 -1.59375 -0.078125q-0.71875 -0.078125 -1.40625 -0.25l0 -1.34375q0.734375 0.203125 1.46875 0.3125q0.734375 0.109375 1.46875 0.109375q1.0625 0 1.5625 -0.28125q0.515625 -0.296875 0.515625 -0.828125q0 -0.21875 -0.09375 -0.40625q-0.078125 -0.1875 -0.296875 -0.34375q-0.203125 -0.171875 -0.65625 -0.34375q-0.4375 -0.1875 -1.203125 -0.40625q-0.578125 -0.171875 -1.0625 -0.390625q-0.484375 -0.21875 -0.84375 -0.515625q-0.34375 -0.296875 -0.546875 -0.6875q-0.203125 -0.390625 -0.203125 -0.9375q0 -0.359375 0.15625 -0.78125q0.171875 -0.421875 0.5625 -0.78125q0.40625 -0.375 1.078125 -0.609375q0.671875 -0.234375 1.6875 -0.234375q0.5 0 1.109375 0.0625q0.609375 0.046875 1.265625 0.171875l0 1.3125q-0.6875 -0.171875 -1.3125 -0.25q-0.625 -0.078125 -1.078125 -0.078125q-0.546875 0 -0.921875 0.09375q-0.375 0.078125 -0.609375 0.234375q-0.234375 0.140625 -0.34375 0.34375q-0.09375 0.1875 -0.09375 0.421875q0 0.234375 0.078125 0.421875q0.09375 0.171875 0.328125 0.359375q0.25 0.171875 0.671875 0.34375q0.4375 0.171875 1.140625 0.375q0.75 0.21875 1.265625 0.46875q0.515625 0.234375 0.828125 0.53125q0.328125 0.296875 0.46875 0.671875q0.140625 0.359375 0.140625 0.84375zm9.652039 2.1875q-0.5 0.140625 -1.03125 0.1875q-0.53125 0.0625 -1.09375 0.0625q-1.59375 0 -2.390625 -0.71875q-0.78125 -0.734375 -0.78125 -2.234375l0 -4.4375l-2.375 0l0 -1.234375l2.375 0l0 -2.328125l1.46875 -0.375l0 2.703125l3.828125 0l0 1.234375l-3.828125 0l0 4.328125q0 0.90625 0.484375 1.359375q0.5 0.453125 1.4375 0.453125q0.40625 0 0.890625 -0.0625q0.484375 -0.0625 1.015625 -0.203125l0 1.265625z" fill-rule="nonzero"/><path fill="#000000" fill-opacity="0.0" d="m857.4008 318.77014l-624.50397 0" fill-rule="evenodd"/><path stroke="#000000" stroke-width="2.0" stroke-linejoin="round" stroke-linecap="butt" d="m857.4008 318.77014l-617.6498 0" fill-rule="evenodd"/><path fill="#000000" stroke="#000000" stroke-width="2.0" stroke-linecap="butt" d="m239.75104 318.77014l2.2491608 -2.249176l-6.179535 2.249176l6.179535 2.249176z" fill-rule="evenodd"/><path fill="#000000" fill-opacity="0.0" d="m559.4171 105.04249l154.2992 0l0 89.70078l-154.2992 0z" fill-rule="evenodd"/><path stroke="#000000" stroke-width="2.0" stroke-linejoin="round" stroke-linecap="butt" d="m559.4171 105.04249l154.2992 0l0 89.70078l-154.2992 0z" fill-rule="evenodd"/><path fill="#000000" d="m589.4171 156.03288l-2.03125 0l-3.953125 -4.546875l0 4.546875l-1.46875 0l0 -11.953125l1.46875 0l0 7.34375l3.8125 -3.890625l1.953125 0l-4.0 3.921875l4.21875 4.578125zm9.05835 -4.703125q0 0.328125 -0.015625 0.546875q0 0.203125 -0.015625 0.375l-5.96875 0q0 1.3125 0.71875 2.015625q0.734375 0.6875 2.109375 0.6875q0.375 0 0.734375 -0.03125q0.375 -0.03125 0.71875 -0.078125q0.359375 -0.046875 0.671875 -0.109375q0.3125 -0.0625 0.59375 -0.140625l0 1.203125q-0.609375 0.171875 -1.375 0.28125q-0.75 0.109375 -1.5625 0.109375q-1.09375 0 -1.875 -0.296875q-0.78125 -0.296875 -1.296875 -0.859375q-0.5 -0.5625 -0.75 -1.375q-0.234375 -0.828125 -0.234375 -1.859375q0 -0.890625 0.25 -1.6875q0.265625 -0.796875 0.765625 -1.40625q0.5 -0.609375 1.21875 -0.953125q0.71875 -0.359375 1.625 -0.359375q0.890625 0 1.578125 0.28125q0.6875 0.265625 1.15625 0.78125q0.46875 0.515625 0.703125 1.25q0.25 0.734375 0.25 1.625zm-1.53125 -0.203125q0.015625 -0.5625 -0.125 -1.03125q-0.125 -0.46875 -0.40625 -0.8125q-0.28125 -0.34375 -0.703125 -0.53125q-0.421875 -0.1875 -0.984375 -0.1875q-0.484375 0 -0.890625 0.1875q-0.390625 0.1875 -0.6875 0.53125q-0.28125 0.328125 -0.453125 0.8125q-0.171875 0.46875 -0.21875 1.03125l4.46875 0zm11.43335 -3.59375l-2.890625 7.609375q-0.453125 1.15625 -0.9375 1.984375q-0.46875 0.84375 -1.03125 1.375q-0.5625 0.546875 -1.25 0.796875q-0.671875 0.25 -1.515625 0.25q-0.21875 0 -0.40625 -0.015625q-0.171875 0 -0.375 -0.015625l0 -1.328125q0.1875 0.015625 0.40625 0.03125q0.21875 0.03125 0.46875 0.03125q0.40625 0 0.75 -0.125q0.359375 -0.109375 0.671875 -0.375q0.3125 -0.265625 0.59375 -0.703125q0.296875 -0.421875 0.5625 -1.015625l-3.390625 -8.5l1.671875 0l2.140625 5.625l0.4375 1.3125l0.5 -1.34375l1.984375 -5.59375l1.609375 0zm10.152039 11.96875l-9.53125 0l0 -1.21875l9.53125 0l0 1.21875zm8.605225 -7.875q0 1.140625 -0.3125 1.984375q-0.3125 0.84375 -0.875 1.40625q-0.5625 0.5625 -1.328125 0.84375q-0.75 0.265625 -1.640625 0.265625q-0.40625 0 -0.8125 -0.046875q-0.40625 -0.03125 -0.8125 -0.125l0 3.546875l-1.46875 0l0 -11.96875l1.3125 0l0.09375 1.421875q0.625 -0.859375 1.34375 -1.203125q0.71875 -0.359375 1.5625 -0.359375q0.71875 0 1.265625 0.3125q0.5625 0.296875 0.921875 0.859375q0.375 0.546875 0.5625 1.328125q0.1875 0.78125 0.1875 1.734375zm-1.5 0.078125q0 -0.671875 -0.109375 -1.234375q-0.09375 -0.5625 -0.3125 -0.953125q-0.203125 -0.390625 -0.53125 -0.609375q-0.328125 -0.234375 -0.78125 -0.234375q-0.28125 0 -0.578125 0.09375q-0.28125 0.078125 -0.59375 0.296875q-0.296875 0.203125 -0.640625 0.546875q-0.34375 0.34375 -0.734375 0.84375l0 4.125q0.40625 0.171875 0.84375 0.265625q0.453125 0.09375 0.890625 0.09375q1.1875 0 1.859375 -0.796875q0.6875 -0.8125 0.6875 -2.4375zm9.230225 4.328125l-0.03125 -1.140625q-0.703125 0.6875 -1.421875 1.0q-0.703125 0.296875 -1.5 0.296875q-0.71875 0 -1.234375 -0.1875q-0.515625 -0.1875 -0.859375 -0.515625q-0.328125 -0.328125 -0.484375 -0.765625q-0.15625 -0.4375 -0.15625 -0.953125q0 -1.28125 0.953125 -2.0q0.953125 -0.71875 2.8125 -0.71875l1.765625 0l0 -0.75q0 -0.75 -0.484375 -1.203125q-0.484375 -0.453125 -1.46875 -0.453125q-0.71875 0 -1.421875 0.15625q-0.703125 0.15625 -1.4375 0.453125l0 -1.328125q0.265625 -0.09375 0.609375 -0.1875q0.34375 -0.109375 0.71875 -0.171875q0.390625 -0.078125 0.796875 -0.125q0.421875 -0.046875 0.84375 -0.046875q0.765625 0 1.375 0.171875q0.625 0.15625 1.046875 0.515625q0.4375 0.34375 0.65625 0.875q0.234375 0.515625 0.234375 1.21875l0 5.859375l-1.3125 0zm-0.15625 -3.859375l-1.875 0q-0.546875 0 -0.953125 0.109375q-0.390625 0.109375 -0.65625 0.3125q-0.25 0.203125 -0.375 0.484375q-0.109375 0.28125 -0.109375 0.640625q0 0.234375 0.0625 0.46875q0.078125 0.21875 0.25 0.390625q0.171875 0.171875 0.4375 0.28125q0.28125 0.09375 0.671875 0.09375q0.5 0 1.15625 -0.296875q0.65625 -0.3125 1.390625 -0.984375l0 -1.5zm3.7927246 -0.203125q0 -1.09375 0.296875 -1.9375q0.296875 -0.84375 0.84375 -1.421875q0.546875 -0.578125 1.3125 -0.875q0.765625 -0.296875 1.703125 -0.296875q0.40625 0 0.796875 0.046875q0.390625 0.046875 0.78125 0.15625l0 -3.5625l1.46875 0l0 11.953125l-1.3125 0l-0.046875 -1.609375q-0.625 0.90625 -1.34375 1.34375q-0.71875 0.421875 -1.5625 0.421875q-0.71875 0 -1.28125 -0.296875q-0.546875 -0.3125 -0.921875 -0.859375q-0.359375 -0.5625 -0.546875 -1.34375q-0.1875 -0.78125 -0.1875 -1.71875zm1.5 -0.09375q0 1.53125 0.453125 2.296875q0.453125 0.75 1.28125 0.75q0.5625 0 1.1875 -0.5q0.625 -0.5 1.3125 -1.484375l0 -3.9375q-0.375 -0.171875 -0.8125 -0.25q-0.4375 -0.09375 -0.875 -0.09375q-1.1875 0 -1.875 0.78125q-0.671875 0.765625 -0.671875 2.4375zm8.027039 0.09375q0 -1.09375 0.296875 -1.9375q0.296875 -0.84375 0.84375 -1.421875q0.546875 -0.578125 1.3125 -0.875q0.765625 -0.296875 1.703125 -0.296875q0.40625 0 0.796875 0.046875q0.390625 0.046875 0.78125 0.15625l0 -3.5625l1.46875 0l0 11.953125l-1.3125 0l-0.046875 -1.609375q-0.625 0.90625 -1.34375 1.34375q-0.71875 0.421875 -1.5625 0.421875q-0.71875 0 -1.28125 -0.296875q-0.546875 -0.3125 -0.921875 -0.859375q-0.359375 -0.5625 -0.546875 -1.34375q-0.1875 -0.78125 -0.1875 -1.71875zm1.5 -0.09375q0 1.53125 0.453125 2.296875q0.453125 0.75 1.28125 0.75q0.5625 0 1.1875 -0.5q0.625 -0.5 1.3125 -1.484375l0 -3.9375q-0.375 -0.171875 -0.8125 -0.25q-0.4375 -0.09375 -0.875 -0.09375q-1.1875 0 -1.875 0.78125q-0.671875 0.765625 -0.671875 2.4375zm11.355225 -3.125l-2.515625 0l0 -1.21875l4.0 0l0 7.265625l2.53125 0l0 1.234375l-6.8125 0l0 -1.234375l2.796875 0l0 -6.046875zm0.515625 -4.78125q0.25 0 0.453125 0.09375q0.21875 0.09375 0.375 0.25q0.15625 0.15625 0.234375 0.375q0.09375 0.203125 0.09375 0.453125q0 0.234375 -0.09375 0.453125q-0.078125 0.203125 -0.234375 0.359375q-0.15625 0.15625 -0.375 0.25q-0.203125 0.09375 -0.453125 0.09375q-0.25 0 -0.46875 -0.09375q-0.203125 -0.09375 -0.359375 -0.25q-0.15625 -0.15625 -0.25 -0.359375q-0.078125 -0.21875 -0.078125 -0.453125q0 -0.25 0.078125 -0.453125q0.09375 -0.21875 0.25 -0.375q0.15625 -0.15625 0.359375 -0.25q0.21875 -0.09375 0.46875 -0.09375zm6.1208496 3.5625l1.3125 0l0.046875 1.375q0.375 -0.4375 0.71875 -0.71875q0.359375 -0.296875 0.6875 -0.46875q0.328125 -0.1875 0.671875 -0.25q0.359375 -0.078125 0.734375 -0.078125q1.3125 0 1.984375 0.78125q0.671875 0.765625 0.671875 2.3125l0 5.546875l-1.484375 0l0 -5.421875q0 -1.0 -0.375 -1.46875q-0.359375 -0.484375 -1.09375 -0.484375q-0.28125 0 -0.546875 0.078125q-0.25 0.078125 -0.53125 0.28125q-0.265625 0.203125 -0.59375 0.546875q-0.328125 0.328125 -0.734375 0.828125l0 5.640625l-1.46875 0l0 -8.5zm15.636475 1.203125q0.234375 0.296875 0.359375 0.703125q0.140625 0.390625 0.140625 0.84375q0 0.65625 -0.25 1.203125q-0.234375 0.546875 -0.671875 0.9375q-0.4375 0.390625 -1.0625 0.609375q-0.609375 0.203125 -1.34375 0.203125q-0.53125 0 -1.0 -0.109375q-0.453125 -0.109375 -0.734375 -0.28125q-0.15625 0.234375 -0.265625 0.453125q-0.109375 0.203125 -0.109375 0.46875q0 0.3125 0.296875 0.53125q0.3125 0.21875 0.828125 0.234375l2.234375 0.078125q0.625 0.015625 1.15625 0.171875q0.546875 0.140625 0.9375 0.40625q0.390625 0.265625 0.59375 0.671875q0.21875 0.390625 0.21875 0.921875q0 0.5625 -0.25 1.0625q-0.234375 0.515625 -0.75 0.890625q-0.515625 0.390625 -1.296875 0.609375q-0.78125 0.234375 -1.875 0.234375q-1.03125 0 -1.75 -0.171875q-0.71875 -0.15625 -1.1875 -0.453125q-0.46875 -0.28125 -0.6875 -0.6875q-0.203125 -0.390625 -0.203125 -0.875q0 -0.625 0.28125 -1.09375q0.296875 -0.453125 0.890625 -0.890625q-0.21875 -0.109375 -0.375 -0.25q-0.15625 -0.15625 -0.265625 -0.328125q-0.09375 -0.1875 -0.15625 -0.390625q-0.046875 -0.203125 -0.046875 -0.40625q0 -0.546875 0.25 -1.0q0.265625 -0.453125 0.625 -0.859375q-0.15625 -0.203125 -0.28125 -0.390625q-0.125 -0.1875 -0.21875 -0.390625q-0.09375 -0.21875 -0.140625 -0.46875q-0.046875 -0.25 -0.046875 -0.578125q0 -0.65625 0.234375 -1.203125q0.25 -0.546875 0.6875 -0.9375q0.4375 -0.390625 1.046875 -0.59375q0.625 -0.21875 1.359375 -0.21875q0.3125 0 0.59375 0.046875q0.296875 0.03125 0.515625 0.09375l3.078125 0l0 1.203125l-1.359375 0zm-5.109375 8.53125q0 0.59375 0.625 0.859375q0.625 0.28125 1.75 0.28125q0.703125 0 1.171875 -0.125q0.484375 -0.125 0.765625 -0.34375q0.296875 -0.203125 0.421875 -0.46875q0.125 -0.265625 0.125 -0.546875q0 -0.515625 -0.421875 -0.765625q-0.421875 -0.234375 -1.28125 -0.28125l-2.21875 -0.078125q-0.28125 0.1875 -0.46875 0.359375q-0.1875 0.1875 -0.296875 0.359375q-0.09375 0.1875 -0.140625 0.375q-0.03125 0.1875 -0.03125 0.375zm0.453125 -6.953125q0 0.40625 0.125 0.75q0.140625 0.328125 0.390625 0.578125q0.25 0.234375 0.578125 0.359375q0.328125 0.125 0.734375 0.125q0.4375 0 0.78125 -0.140625q0.34375 -0.15625 0.578125 -0.40625q0.234375 -0.25 0.359375 -0.578125q0.125 -0.328125 0.125 -0.6875q0 -0.40625 -0.140625 -0.734375q-0.140625 -0.34375 -0.390625 -0.578125q-0.234375 -0.25 -0.578125 -0.375q-0.328125 -0.125 -0.734375 -0.125q-0.4375 0 -0.78125 0.15625q-0.34375 0.140625 -0.578125 0.390625q-0.234375 0.25 -0.359375 0.578125q-0.109375 0.328125 -0.109375 0.6875z" fill-rule="nonzero"/><path fill="#000000" fill-opacity="0.0" d="m713.72864 121.7234l28.881897 0" fill-rule="evenodd"/><path stroke="#000000" stroke-width="2.0" stroke-linejoin="round" stroke-linecap="butt" d="m713.72864 121.7234l28.881897 0" fill-rule="evenodd"/><path fill="#000000" fill-opacity="0.0" d="m713.6888 177.39479l29.984253 0" fill-rule="evenodd"/><path stroke="#000000" stroke-width="2.0" stroke-linejoin="round" stroke-linecap="butt" d="m713.6888 177.39479l29.984253 0" fill-rule="evenodd"/><path fill="#000000" fill-opacity="0.0" d="m744.74945 166.43811l113.700745 0" fill-rule="evenodd"/><path stroke="#000000" stroke-width="2.0" stroke-linejoin="round" stroke-linecap="butt" d="m744.74945 166.43811l106.84662 0" fill-rule="evenodd"/><path fill="#000000" stroke="#000000" stroke-width="2.0" stroke-linecap="butt" d="m851.59607 166.43811l-2.2492065 2.2491608l6.1795654 -2.2491608l-6.1795654 -2.249176z" fill-rule="evenodd"/><path fill="#000000" fill-opacity="0.0" d="m857.4008 138.85391l154.2992 0l0 55.181107l-154.2992 0z" fill-rule="evenodd"/><path fill="#000000" d="m885.80707 172.58447l0 -6.09375q0 -0.40625 -0.03125 -0.65625q-0.015625 -0.25 -0.09375 -0.390625q-0.0625 -0.15625 -0.15625 -0.21875q-0.09375 -0.0625 -0.234375 -0.0625q-0.171875 0 -0.3125 0.109375q-0.140625 0.09375 -0.3125 0.328125q-0.171875 0.21875 -0.375 0.609375q-0.1875 0.375 -0.453125 0.921875l0 5.453125l-1.34375 0l0 -5.9375q0 -0.46875 -0.03125 -0.75q-0.03125 -0.296875 -0.09375 -0.453125q-0.0625 -0.15625 -0.171875 -0.21875q-0.09375 -0.0625 -0.25 -0.0625q-0.140625 0 -0.28125 0.09375q-0.140625 0.078125 -0.3125 0.296875q-0.15625 0.21875 -0.359375 0.609375q-0.203125 0.375 -0.484375 0.96875l0 5.453125l-1.34375 0l0 -8.5l1.125 0l0.0625 1.625q0.21875 -0.484375 0.421875 -0.8125q0.21875 -0.34375 0.4375 -0.546875q0.21875 -0.21875 0.46875 -0.3125q0.25 -0.09375 0.546875 -0.09375q0.6875 0 1.046875 0.453125q0.359375 0.4375 0.359375 1.375q0.203125 -0.4375 0.390625 -0.78125q0.203125 -0.34375 0.421875 -0.578125q0.21875 -0.234375 0.484375 -0.34375q0.28125 -0.125 0.640625 -0.125q1.59375 0 1.59375 2.453125l0 6.1875l-1.359375 0zm10.652039 -4.703125q0 0.328125 -0.015625 0.546875q0 0.203125 -0.015625 0.375l-5.96875 0q0 1.3125 0.71875 2.015625q0.734375 0.6875 2.109375 0.6875q0.375 0 0.734375 -0.03125q0.375 -0.03125 0.71875 -0.078125q0.359375 -0.046875 0.671875 -0.109375q0.3125 -0.0625 0.59375 -0.140625l0 1.203125q-0.609375 0.171875 -1.375 0.28125q-0.75 0.109375 -1.5625 0.109375q-1.09375 0 -1.875 -0.296875q-0.78125 -0.296875 -1.296875 -0.859375q-0.5 -0.5625 -0.75 -1.375q-0.234375 -0.828125 -0.234375 -1.859375q0 -0.890625 0.25 -1.6875q0.265625 -0.796875 0.765625 -1.40625q0.5 -0.609375 1.21875 -0.953125q0.71875 -0.359375 1.625 -0.359375q0.890625 0 1.578125 0.28125q0.6875 0.265625 1.15625 0.78125q0.46875 0.515625 0.703125 1.25q0.25 0.734375 0.25 1.625zm-1.53125 -0.203125q0.015625 -0.5625 -0.125 -1.03125q-0.125 -0.46875 -0.40625 -0.8125q-0.28125 -0.34375 -0.703125 -0.53125q-0.421875 -0.1875 -0.984375 -0.1875q-0.484375 0 -0.890625 0.1875q-0.390625 0.1875 -0.6875 0.53125q-0.28125 0.328125 -0.453125 0.8125q-0.171875 0.46875 -0.21875 1.03125l4.46875 0zm10.605225 2.59375q0 0.4375 -0.15625 0.796875q-0.140625 0.359375 -0.40625 0.640625q-0.265625 0.265625 -0.609375 0.46875q-0.34375 0.1875 -0.75 0.3125q-0.390625 0.125 -0.8125 0.1875q-0.40625 0.0625 -0.796875 0.0625q-0.859375 0 -1.59375 -0.078125q-0.71875 -0.078125 -1.40625 -0.25l0 -1.34375q0.734375 0.203125 1.46875 0.3125q0.734375 0.109375 1.46875 0.109375q1.0625 0 1.5625 -0.28125q0.515625 -0.296875 0.515625 -0.828125q0 -0.21875 -0.09375 -0.40625q-0.078125 -0.1875 -0.296875 -0.34375q-0.203125 -0.171875 -0.65625 -0.34375q-0.4375 -0.1875 -1.203125 -0.40625q-0.578125 -0.171875 -1.0625 -0.390625q-0.484375 -0.21875 -0.84375 -0.515625q-0.34375 -0.296875 -0.546875 -0.6875q-0.203125 -0.390625 -0.203125 -0.9375q0 -0.359375 0.15625 -0.78125q0.171875 -0.421875 0.5625 -0.78125q0.40625 -0.375 1.078125 -0.609375q0.671875 -0.234375 1.6875 -0.234375q0.5 0 1.109375 0.0625q0.609375 0.046875 1.265625 0.171875l0 1.3125q-0.6875 -0.171875 -1.3125 -0.25q-0.625 -0.078125 -1.078125 -0.078125q-0.546875 0 -0.921875 0.09375q-0.375 0.078125 -0.609375 0.234375q-0.234375 0.140625 -0.34375 0.34375q-0.09375 0.1875 -0.09375 0.421875q0 0.234375 0.078125 0.421875q0.09375 0.171875 0.328125 0.359375q0.25 0.171875 0.671875 0.34375q0.4375 0.171875 1.140625 0.375q0.75 0.21875 1.265625 0.46875q0.515625 0.234375 0.828125 0.53125q0.328125 0.296875 0.46875 0.671875q0.140625 0.359375 0.140625 0.84375zm9.5271 0q0 0.4375 -0.15625 0.796875q-0.140625 0.359375 -0.40625 0.640625q-0.265625 0.265625 -0.609375 0.46875q-0.34375 0.1875 -0.75 0.3125q-0.390625 0.125 -0.8125 0.1875q-0.40625 0.0625 -0.796875 0.0625q-0.859375 0 -1.59375 -0.078125q-0.71875 -0.078125 -1.40625 -0.25l0 -1.34375q0.734375 0.203125 1.46875 0.3125q0.734375 0.109375 1.46875 0.109375q1.0625 0 1.5625 -0.28125q0.515625 -0.296875 0.515625 -0.828125q0 -0.21875 -0.09375 -0.40625q-0.078125 -0.1875 -0.296875 -0.34375q-0.203125 -0.171875 -0.65625 -0.34375q-0.4375 -0.1875 -1.203125 -0.40625q-0.578125 -0.171875 -1.0625 -0.390625q-0.484375 -0.21875 -0.84375 -0.515625q-0.34375 -0.296875 -0.546875 -0.6875q-0.203125 -0.390625 -0.203125 -0.9375q0 -0.359375 0.15625 -0.78125q0.171875 -0.421875 0.5625 -0.78125q0.40625 -0.375 1.078125 -0.609375q0.671875 -0.234375 1.6875 -0.234375q0.5 0 1.109375 0.0625q0.609375 0.046875 1.265625 0.171875l0 1.3125q-0.6875 -0.171875 -1.3125 -0.25q-0.625 -0.078125 -1.078125 -0.078125q-0.546875 0 -0.921875 0.09375q-0.375 0.078125 -0.609375 0.234375q-0.234375 0.140625 -0.34375 0.34375q-0.09375 0.1875 -0.09375 0.421875q0 0.234375 0.078125 0.421875q0.09375 0.171875 0.328125 0.359375q0.25 0.171875 0.671875 0.34375q0.4375 0.171875 1.140625 0.375q0.75 0.21875 1.265625 0.46875q0.515625 0.234375 0.828125 0.53125q0.328125 0.296875 0.46875 0.671875q0.140625 0.359375 0.140625 0.84375zm8.261475 2.3125l-0.03125 -1.140625q-0.703125 0.6875 -1.421875 1.0q-0.703125 0.296875 -1.5 0.296875q-0.71875 0 -1.234375 -0.1875q-0.515625 -0.1875 -0.859375 -0.515625q-0.328125 -0.328125 -0.484375 -0.765625q-0.15625 -0.4375 -0.15625 -0.953125q0 -1.28125 0.953125 -2.0q0.953125 -0.71875 2.8125 -0.71875l1.765625 0l0 -0.75q0 -0.75 -0.484375 -1.203125q-0.484375 -0.453125 -1.46875 -0.453125q-0.71875 0 -1.421875 0.15625q-0.703125 0.15625 -1.4375 0.453125l0 -1.328125q0.265625 -0.09375 0.609375 -0.1875q0.34375 -0.109375 0.71875 -0.171875q0.390625 -0.078125 0.796875 -0.125q0.421875 -0.046875 0.84375 -0.046875q0.765625 0 1.375 0.171875q0.625 0.15625 1.046875 0.515625q0.4375 0.34375 0.65625 0.875q0.234375 0.515625 0.234375 1.21875l0 5.859375l-1.3125 0zm-0.15625 -3.859375l-1.875 0q-0.546875 0 -0.953125 0.109375q-0.390625 0.109375 -0.65625 0.3125q-0.25 0.203125 -0.375 0.484375q-0.109375 0.28125 -0.109375 0.640625q0 0.234375 0.0625 0.46875q0.078125 0.21875 0.25 0.390625q0.171875 0.171875 0.4375 0.28125q0.28125 0.09375 0.671875 0.09375q0.5 0 1.15625 -0.296875q0.65625 -0.3125 1.390625 -0.984375l0 -1.5zm10.339539 -3.4375q0.234375 0.296875 0.359375 0.703125q0.140625 0.390625 0.140625 0.84375q0 0.65625 -0.25 1.203125q-0.234375 0.546875 -0.671875 0.9375q-0.4375 0.390625 -1.0625 0.609375q-0.609375 0.203125 -1.34375 0.203125q-0.53125 0 -1.0 -0.109375q-0.453125 -0.109375 -0.734375 -0.28125q-0.15625 0.234375 -0.265625 0.453125q-0.109375 0.203125 -0.109375 0.46875q0 0.3125 0.296875 0.53125q0.3125 0.21875 0.828125 0.234375l2.234375 0.078125q0.625 0.015625 1.15625 0.171875q0.546875 0.140625 0.9375 0.40625q0.390625 0.265625 0.59375 0.671875q0.21875 0.390625 0.21875 0.921875q0 0.5625 -0.25 1.0625q-0.234375 0.515625 -0.75 0.890625q-0.515625 0.390625 -1.296875 0.609375q-0.78125 0.234375 -1.875 0.234375q-1.03125 0 -1.75 -0.171875q-0.71875 -0.15625 -1.1875 -0.453125q-0.46875 -0.28125 -0.6875 -0.6875q-0.203125 -0.390625 -0.203125 -0.875q0 -0.625 0.28125 -1.09375q0.296875 -0.453125 0.890625 -0.890625q-0.21875 -0.109375 -0.375 -0.25q-0.15625 -0.15625 -0.265625 -0.328125q-0.09375 -0.1875 -0.15625 -0.390625q-0.046875 -0.203125 -0.046875 -0.40625q0 -0.546875 0.25 -1.0q0.265625 -0.453125 0.625 -0.859375q-0.15625 -0.203125 -0.28125 -0.390625q-0.125 -0.1875 -0.21875 -0.390625q-0.09375 -0.21875 -0.140625 -0.46875q-0.046875 -0.25 -0.046875 -0.578125q0 -0.65625 0.234375 -1.203125q0.25 -0.546875 0.6875 -0.9375q0.4375 -0.390625 1.046875 -0.59375q0.625 -0.21875 1.359375 -0.21875q0.3125 0 0.59375 0.046875q0.296875 0.03125 0.515625 0.09375l3.078125 0l0 1.203125l-1.359375 0zm-5.109375 8.53125q0 0.59375 0.625 0.859375q0.625 0.28125 1.75 0.28125q0.703125 0 1.171875 -0.125q0.484375 -0.125 0.765625 -0.34375q0.296875 -0.203125 0.421875 -0.46875q0.125 -0.265625 0.125 -0.546875q0 -0.515625 -0.421875 -0.765625q-0.421875 -0.234375 -1.28125 -0.28125l-2.21875 -0.078125q-0.28125 0.1875 -0.46875 0.359375q-0.1875 0.1875 -0.296875 0.359375q-0.09375 0.1875 -0.140625 0.375q-0.03125 0.1875 -0.03125 0.375zm0.453125 -6.953125q0 0.40625 0.125 0.75q0.140625 0.328125 0.390625 0.578125q0.25 0.234375 0.578125 0.359375q0.328125 0.125 0.734375 0.125q0.4375 0 0.78125 -0.140625q0.34375 -0.15625 0.578125 -0.40625q0.234375 -0.25 0.359375 -0.578125q0.125 -0.328125 0.125 -0.6875q0 -0.40625 -0.140625 -0.734375q-0.140625 -0.34375 -0.390625 -0.578125q-0.234375 -0.25 -0.578125 -0.375q-0.328125 -0.125 -0.734375 -0.125q-0.4375 0 -0.78125 0.15625q-0.34375 0.140625 -0.578125 0.390625q-0.234375 0.25 -0.359375 0.578125q-0.109375 0.328125 -0.109375 0.6875zm15.24585 1.015625q0 0.328125 -0.015625 0.546875q0 0.203125 -0.015625 0.375l-5.96875 0q0 1.3125 0.71875 2.015625q0.734375 0.6875 2.109375 0.6875q0.375 0 0.734375 -0.03125q0.375 -0.03125 0.71875 -0.078125q0.359375 -0.046875 0.671875 -0.109375q0.3125 -0.0625 0.59375 -0.140625l0 1.203125q-0.609375 0.171875 -1.375 0.28125q-0.75 0.109375 -1.5625 0.109375q-1.09375 0 -1.875 -0.296875q-0.78125 -0.296875 -1.296875 -0.859375q-0.5 -0.5625 -0.75 -1.375q-0.234375 -0.828125 -0.234375 -1.859375q0 -0.890625 0.25 -1.6875q0.265625 -0.796875 0.765625 -1.40625q0.5 -0.609375 1.21875 -0.953125q0.71875 -0.359375 1.625 -0.359375q0.890625 0 1.578125 0.28125q0.6875 0.265625 1.15625 0.78125q0.46875 0.515625 0.703125 1.25q0.25 0.734375 0.25 1.625zm-1.53125 -0.203125q0.015625 -0.5625 -0.125 -1.03125q-0.125 -0.46875 -0.40625 -0.8125q-0.28125 -0.34375 -0.703125 -0.53125q-0.421875 -0.1875 -0.984375 -0.1875q-0.484375 0 -0.890625 0.1875q-0.390625 0.1875 -0.6875 0.53125q-0.28125 0.328125 -0.453125 0.8125q-0.171875 0.46875 -0.21875 1.03125l4.46875 0z" fill-rule="nonzero"/><path fill="#000000" fill-opacity="0.0" d="m856.92303 378.9735l195.33856 0l0 55.18112l-195.33856 0z" fill-rule="evenodd"/><path fill="#000000" d="m885.3293 412.70407l0 -6.09375q0 -0.40625 -0.03125 -0.65625q-0.015625 -0.25 -0.09375 -0.390625q-0.0625 -0.15625 -0.15625 -0.21875q-0.09375 -0.0625 -0.234375 -0.0625q-0.171875 0 -0.3125 0.109375q-0.140625 0.09375 -0.3125 0.328125q-0.171875 0.21875 -0.375 0.609375q-0.1875 0.375 -0.453125 0.921875l0 5.453125l-1.34375 0l0 -5.9375q0 -0.46875 -0.03125 -0.75q-0.03125 -0.296875 -0.09375 -0.453125q-0.0625 -0.15625 -0.171875 -0.21875q-0.09375 -0.0625 -0.25 -0.0625q-0.140625 0 -0.28125 0.09375q-0.140625 0.078125 -0.3125 0.296875q-0.15625 0.21875 -0.359375 0.609375q-0.203125 0.375 -0.484375 0.96875l0 5.453125l-1.34375 0l0 -8.5l1.125 0l0.0625 1.625q0.21875 -0.484375 0.421875 -0.8125q0.21875 -0.34375 0.4375 -0.546875q0.21875 -0.21875 0.46875 -0.3125q0.25 -0.09375 0.546875 -0.09375q0.6875 0 1.046875 0.453125q0.359375 0.4375 0.359375 1.375q0.203125 -0.4375 0.390625 -0.78125q0.203125 -0.34375 0.421875 -0.578125q0.21875 -0.234375 0.484375 -0.34375q0.28125 -0.125 0.640625 -0.125q1.59375 0 1.59375 2.453125l0 6.1875l-1.359375 0zm10.652039 -4.703125q0 0.328125 -0.015625 0.546875q0 0.203125 -0.015625 0.375l-5.96875 0q0 1.3125 0.71875 2.015625q0.734375 0.6875 2.109375 0.6875q0.375 0 0.734375 -0.03125q0.375 -0.03125 0.71875 -0.078125q0.359375 -0.046875 0.671875 -0.109375q0.3125 -0.0625 0.59375 -0.140625l0 1.203125q-0.609375 0.171875 -1.375 0.28125q-0.75 0.109375 -1.5625 0.109375q-1.09375 0 -1.875 -0.296875q-0.78125 -0.296875 -1.296875 -0.859375q-0.5 -0.5625 -0.75 -1.375q-0.234375 -0.828125 -0.234375 -1.859375q0 -0.890625 0.25 -1.6875q0.265625 -0.796875 0.765625 -1.40625q0.5 -0.609375 1.21875 -0.953125q0.71875 -0.359375 1.625 -0.359375q0.890625 0 1.578125 0.28125q0.6875 0.265625 1.15625 0.78125q0.46875 0.515625 0.703125 1.25q0.25 0.734375 0.25 1.625zm-1.53125 -0.203125q0.015625 -0.5625 -0.125 -1.03125q-0.125 -0.46875 -0.40625 -0.8125q-0.28125 -0.34375 -0.703125 -0.53125q-0.421875 -0.1875 -0.984375 -0.1875q-0.484375 0 -0.890625 0.1875q-0.390625 0.1875 -0.6875 0.53125q-0.28125 0.328125 -0.453125 0.8125q-0.171875 0.46875 -0.21875 1.03125l4.46875 0zm10.605225 2.59375q0 0.4375 -0.15625 0.796875q-0.140625 0.359375 -0.40625 0.640625q-0.265625 0.265625 -0.609375 0.46875q-0.34375 0.1875 -0.75 0.3125q-0.390625 0.125 -0.8125 0.1875q-0.40625 0.0625 -0.796875 0.0625q-0.859375 0 -1.59375 -0.078125q-0.71875 -0.078125 -1.40625 -0.25l0 -1.34375q0.734375 0.203125 1.46875 0.3125q0.734375 0.109375 1.46875 0.109375q1.0625 0 1.5625 -0.28125q0.515625 -0.296875 0.515625 -0.828125q0 -0.21875 -0.09375 -0.40625q-0.078125 -0.1875 -0.296875 -0.34375q-0.203125 -0.171875 -0.65625 -0.34375q-0.4375 -0.1875 -1.203125 -0.40625q-0.578125 -0.171875 -1.0625 -0.390625q-0.484375 -0.21875 -0.84375 -0.515625q-0.34375 -0.296875 -0.546875 -0.6875q-0.203125 -0.390625 -0.203125 -0.9375q0 -0.359375 0.15625 -0.78125q0.171875 -0.421875 0.5625 -0.78125q0.40625 -0.375 1.078125 -0.609375q0.671875 -0.234375 1.6875 -0.234375q0.5 0 1.109375 0.0625q0.609375 0.046875 1.265625 0.171875l0 1.3125q-0.6875 -0.171875 -1.3125 -0.25q-0.625 -0.078125 -1.078125 -0.078125q-0.546875 0 -0.921875 0.09375q-0.375 0.078125 -0.609375 0.234375q-0.234375 0.140625 -0.34375 0.34375q-0.09375 0.1875 -0.09375 0.421875q0 0.234375 0.078125 0.421875q0.09375 0.171875 0.328125 0.359375q0.25 0.171875 0.671875 0.34375q0.4375 0.171875 1.140625 0.375q0.75 0.21875 1.265625 0.46875q0.515625 0.234375 0.828125 0.53125q0.328125 0.296875 0.46875 0.671875q0.140625 0.359375 0.140625 0.84375zm9.5271 0q0 0.4375 -0.15625 0.796875q-0.140625 0.359375 -0.40625 0.640625q-0.265625 0.265625 -0.609375 0.46875q-0.34375 0.1875 -0.75 0.3125q-0.390625 0.125 -0.8125 0.1875q-0.40625 0.0625 -0.796875 0.0625q-0.859375 0 -1.59375 -0.078125q-0.71875 -0.078125 -1.40625 -0.25l0 -1.34375q0.734375 0.203125 1.46875 0.3125q0.734375 0.109375 1.46875 0.109375q1.0625 0 1.5625 -0.28125q0.515625 -0.296875 0.515625 -0.828125q0 -0.21875 -0.09375 -0.40625q-0.078125 -0.1875 -0.296875 -0.34375q-0.203125 -0.171875 -0.65625 -0.34375q-0.4375 -0.1875 -1.203125 -0.40625q-0.578125 -0.171875 -1.0625 -0.390625q-0.484375 -0.21875 -0.84375 -0.515625q-0.34375 -0.296875 -0.546875 -0.6875q-0.203125 -0.390625 -0.203125 -0.9375q0 -0.359375 0.15625 -0.78125q0.171875 -0.421875 0.5625 -0.78125q0.40625 -0.375 1.078125 -0.609375q0.671875 -0.234375 1.6875 -0.234375q0.5 0 1.109375 0.0625q0.609375 0.046875 1.265625 0.171875l0 1.3125q-0.6875 -0.171875 -1.3125 -0.25q-0.625 -0.078125 -1.078125 -0.078125q-0.546875 0 -0.921875 0.09375q-0.375 0.078125 -0.609375 0.234375q-0.234375 0.140625 -0.34375 0.34375q-0.09375 0.1875 -0.09375 0.421875q0 0.234375 0.078125 0.421875q0.09375 0.171875 0.328125 0.359375q0.25 0.171875 0.671875 0.34375q0.4375 0.171875 1.140625 0.375q0.75 0.21875 1.265625 0.46875q0.515625 0.234375 0.828125 0.53125q0.328125 0.296875 0.46875 0.671875q0.140625 0.359375 0.140625 0.84375zm8.261475 2.3125l-0.03125 -1.140625q-0.703125 0.6875 -1.421875 1.0q-0.703125 0.296875 -1.5 0.296875q-0.71875 0 -1.234375 -0.1875q-0.515625 -0.1875 -0.859375 -0.515625q-0.328125 -0.328125 -0.484375 -0.765625q-0.15625 -0.4375 -0.15625 -0.953125q0 -1.28125 0.953125 -2.0q0.953125 -0.71875 2.8125 -0.71875l1.765625 0l0 -0.75q0 -0.75 -0.484375 -1.203125q-0.484375 -0.453125 -1.46875 -0.453125q-0.71875 0 -1.421875 0.15625q-0.703125 0.15625 -1.4375 0.453125l0 -1.328125q0.265625 -0.09375 0.609375 -0.1875q0.34375 -0.109375 0.71875 -0.171875q0.390625 -0.078125 0.796875 -0.125q0.421875 -0.046875 0.84375 -0.046875q0.765625 0 1.375 0.171875q0.625 0.15625 1.046875 0.515625q0.4375 0.34375 0.65625 0.875q0.234375 0.515625 0.234375 1.21875l0 5.859375l-1.3125 0zm-0.15625 -3.859375l-1.875 0q-0.546875 0 -0.953125 0.109375q-0.390625 0.109375 -0.65625 0.3125q-0.25 0.203125 -0.375 0.484375q-0.109375 0.28125 -0.109375 0.640625q0 0.234375 0.0625 0.46875q0.078125 0.21875 0.25 0.390625q0.171875 0.171875 0.4375 0.28125q0.28125 0.09375 0.671875 0.09375q0.5 0 1.15625 -0.296875q0.65625 -0.3125 1.390625 -0.984375l0 -1.5zm10.339539 -3.4375q0.234375 0.296875 0.359375 0.703125q0.140625 0.390625 0.140625 0.84375q0 0.65625 -0.25 1.203125q-0.234375 0.546875 -0.671875 0.9375q-0.4375 0.390625 -1.0625 0.609375q-0.609375 0.203125 -1.34375 0.203125q-0.53125 0 -1.0 -0.109375q-0.453125 -0.109375 -0.734375 -0.28125q-0.15625 0.234375 -0.265625 0.453125q-0.109375 0.203125 -0.109375 0.46875q0 0.3125 0.296875 0.53125q0.3125 0.21875 0.828125 0.234375l2.234375 0.078125q0.625 0.015625 1.15625 0.171875q0.546875 0.140625 0.9375 0.40625q0.390625 0.265625 0.59375 0.671875q0.21875 0.390625 0.21875 0.921875q0 0.5625 -0.25 1.0625q-0.234375 0.515625 -0.75 0.890625q-0.515625 0.390625 -1.296875 0.609375q-0.78125 0.234375 -1.875 0.234375q-1.03125 0 -1.75 -0.171875q-0.71875 -0.15625 -1.1875 -0.453125q-0.46875 -0.28125 -0.6875 -0.6875q-0.203125 -0.390625 -0.203125 -0.875q0 -0.625 0.28125 -1.09375q0.296875 -0.453125 0.890625 -0.890625q-0.21875 -0.109375 -0.375 -0.25q-0.15625 -0.15625 -0.265625 -0.328125q-0.09375 -0.1875 -0.15625 -0.390625q-0.046875 -0.203125 -0.046875 -0.40625q0 -0.546875 0.25 -1.0q0.265625 -0.453125 0.625 -0.859375q-0.15625 -0.203125 -0.28125 -0.390625q-0.125 -0.1875 -0.21875 -0.390625q-0.09375 -0.21875 -0.140625 -0.46875q-0.046875 -0.25 -0.046875 -0.578125q0 -0.65625 0.234375 -1.203125q0.25 -0.546875 0.6875 -0.9375q0.4375 -0.390625 1.046875 -0.59375q0.625 -0.21875 1.359375 -0.21875q0.3125 0 0.59375 0.046875q0.296875 0.03125 0.515625 0.09375l3.078125 0l0 1.203125l-1.359375 0zm-5.109375 8.53125q0 0.59375 0.625 0.859375q0.625 0.28125 1.75 0.28125q0.703125 0 1.171875 -0.125q0.484375 -0.125 0.765625 -0.34375q0.296875 -0.203125 0.421875 -0.46875q0.125 -0.265625 0.125 -0.546875q0 -0.515625 -0.421875 -0.765625q-0.421875 -0.234375 -1.28125 -0.28125l-2.21875 -0.078125q-0.28125 0.1875 -0.46875 0.359375q-0.1875 0.1875 -0.296875 0.359375q-0.09375 0.1875 -0.140625 0.375q-0.03125 0.1875 -0.03125 0.375zm0.453125 -6.953125q0 0.40625 0.125 0.75q0.140625 0.328125 0.390625 0.578125q0.25 0.234375 0.578125 0.359375q0.328125 0.125 0.734375 0.125q0.4375 0 0.78125 -0.140625q0.34375 -0.15625 0.578125 -0.40625q0.234375 -0.25 0.359375 -0.578125q0.125 -0.328125 0.125 -0.6875q0 -0.40625 -0.140625 -0.734375q-0.140625 -0.34375 -0.390625 -0.578125q-0.234375 -0.25 -0.578125 -0.375q-0.328125 -0.125 -0.734375 -0.125q-0.4375 0 -0.78125 0.15625q-0.34375 0.140625 -0.578125 0.390625q-0.234375 0.25 -0.359375 0.578125q-0.109375 0.328125 -0.109375 0.6875zm15.24585 1.015625q0 0.328125 -0.015625 0.546875q0 0.203125 -0.015625 0.375l-5.96875 0q0 1.3125 0.71875 2.015625q0.734375 0.6875 2.109375 0.6875q0.375 0 0.734375 -0.03125q0.375 -0.03125 0.71875 -0.078125q0.359375 -0.046875 0.671875 -0.109375q0.3125 -0.0625 0.59375 -0.140625l0 1.203125q-0.609375 0.171875 -1.375 0.28125q-0.75 0.109375 -1.5625 0.109375q-1.09375 0 -1.875 -0.296875q-0.78125 -0.296875 -1.296875 -0.859375q-0.5 -0.5625 -0.75 -1.375q-0.234375 -0.828125 -0.234375 -1.859375q0 -0.890625 0.25 -1.6875q0.265625 -0.796875 0.765625 -1.40625q0.5 -0.609375 1.21875 -0.953125q0.71875 -0.359375 1.625 -0.359375q0.890625 0 1.578125 0.28125q0.6875 0.265625 1.15625 0.78125q0.46875 0.515625 0.703125 1.25q0.25 0.734375 0.25 1.625zm-1.53125 -0.203125q0.015625 -0.5625 -0.125 -1.03125q-0.125 -0.46875 -0.40625 -0.8125q-0.28125 -0.34375 -0.703125 -0.53125q-0.421875 -0.1875 -0.984375 -0.1875q-0.484375 0 -0.890625 0.1875q-0.390625 0.1875 -0.6875 0.53125q-0.28125 0.328125 -0.453125 0.8125q-0.171875 0.46875 -0.21875 1.03125l4.46875 0zm12.05835 8.375l-9.53125 0l0 -1.21875l9.53125 0l0 1.21875zm4.2458496 -14.21875l-2.515625 0l0 -1.203125l4.0 0l0 10.71875l2.53125 0l0 1.234375l-6.8125 0l0 -1.234375l2.796875 0l0 -9.515625zm13.808289 6.046875q0 0.328125 -0.015625 0.546875q0 0.203125 -0.015625 0.375l-5.96875 0q0 1.3125 0.71875 2.015625q0.734375 0.6875 2.109375 0.6875q0.375 0 0.734375 -0.03125q0.375 -0.03125 0.71875 -0.078125q0.359375 -0.046875 0.671875 -0.109375q0.3125 -0.0625 0.59375 -0.140625l0 1.203125q-0.609375 0.171875 -1.375 0.28125q-0.75 0.109375 -1.5625 0.109375q-1.09375 0 -1.875 -0.296875q-0.78125 -0.296875 -1.296875 -0.859375q-0.5 -0.5625 -0.75 -1.375q-0.234375 -0.828125 -0.234375 -1.859375q0 -0.890625 0.25 -1.6875q0.265625 -0.796875 0.765625 -1.40625q0.5 -0.609375 1.21875 -0.953125q0.71875 -0.359375 1.625 -0.359375q0.890625 0 1.578125 0.28125q0.6875 0.265625 1.15625 0.78125q0.46875 0.515625 0.703125 1.25q0.25 0.734375 0.25 1.625zm-1.53125 -0.203125q0.015625 -0.5625 -0.125 -1.03125q-0.125 -0.46875 -0.40625 -0.8125q-0.28125 -0.34375 -0.703125 -0.53125q-0.421875 -0.1875 -0.984375 -0.1875q-0.484375 0 -0.890625 0.1875q-0.390625 0.1875 -0.6875 0.53125q-0.28125 0.328125 -0.453125 0.8125q-0.171875 0.46875 -0.21875 1.03125l4.46875 0zm3.8864746 -3.59375l1.3125 0l0.046875 1.375q0.375 -0.4375 0.71875 -0.71875q0.359375 -0.296875 0.6875 -0.46875q0.328125 -0.1875 0.671875 -0.25q0.359375 -0.078125 0.734375 -0.078125q1.3125 0 1.984375 0.78125q0.671875 0.765625 0.671875 2.3125l0 5.546875l-1.484375 0l0 -5.421875q0 -1.0 -0.375 -1.46875q-0.359375 -0.484375 -1.09375 -0.484375q-0.28125 0 -0.546875 0.078125q-0.25 0.078125 -0.53125 0.28125q-0.265625 0.203125 -0.59375 0.546875q-0.328125 0.328125 -0.734375 0.828125l0 5.640625l-1.46875 0l0 -8.5zm15.636475 1.203125q0.234375 0.296875 0.359375 0.703125q0.140625 0.390625 0.140625 0.84375q0 0.65625 -0.25 1.203125q-0.234375 0.546875 -0.671875 0.9375q-0.4375 0.390625 -1.0625 0.609375q-0.609375 0.203125 -1.34375 0.203125q-0.53125 0 -1.0 -0.109375q-0.453125 -0.109375 -0.734375 -0.28125q-0.15625 0.234375 -0.265625 0.453125q-0.109375 0.203125 -0.109375 0.46875q0 0.3125 0.296875 0.53125q0.3125 0.21875 0.828125 0.234375l2.234375 0.078125q0.625 0.015625 1.15625 0.171875q0.546875 0.140625 0.9375 0.40625q0.390625 0.265625 0.59375 0.671875q0.21875 0.390625 0.21875 0.921875q0 0.5625 -0.25 1.0625q-0.234375 0.515625 -0.75 0.890625q-0.515625 0.390625 -1.296875 0.609375q-0.78125 0.234375 -1.875 0.234375q-1.03125 0 -1.75 -0.171875q-0.71875 -0.15625 -1.1875 -0.453125q-0.46875 -0.28125 -0.6875 -0.6875q-0.203125 -0.390625 -0.203125 -0.875q0 -0.625 0.28125 -1.09375q0.296875 -0.453125 0.890625 -0.890625q-0.21875 -0.109375 -0.375 -0.25q-0.15625 -0.15625 -0.265625 -0.328125q-0.09375 -0.1875 -0.15625 -0.390625q-0.046875 -0.203125 -0.046875 -0.40625q0 -0.546875 0.25 -1.0q0.265625 -0.453125 0.625 -0.859375q-0.15625 -0.203125 -0.28125 -0.390625q-0.125 -0.1875 -0.21875 -0.390625q-0.09375 -0.21875 -0.140625 -0.46875q-0.046875 -0.25 -0.046875 -0.578125q0 -0.65625 0.234375 -1.203125q0.25 -0.546875 0.6875 -0.9375q0.4375 -0.390625 1.046875 -0.59375q0.625 -0.21875 1.359375 -0.21875q0.3125 0 0.59375 0.046875q0.296875 0.03125 0.515625 0.09375l3.078125 0l0 1.203125l-1.359375 0zm-5.109375 8.53125q0 0.59375 0.625 0.859375q0.625 0.28125 1.75 0.28125q0.703125 0 1.171875 -0.125q0.484375 -0.125 0.765625 -0.34375q0.296875 -0.203125 0.421875 -0.46875q0.125 -0.265625 0.125 -0.546875q0 -0.515625 -0.421875 -0.765625q-0.421875 -0.234375 -1.28125 -0.28125l-2.21875 -0.078125q-0.28125 0.1875 -0.46875 0.359375q-0.1875 0.1875 -0.296875 0.359375q-0.09375 0.1875 -0.140625 0.375q-0.03125 0.1875 -0.03125 0.375zm0.453125 -6.953125q0 0.40625 0.125 0.75q0.140625 0.328125 0.390625 0.578125q0.25 0.234375 0.578125 0.359375q0.328125 0.125 0.734375 0.125q0.4375 0 0.78125 -0.140625q0.34375 -0.15625 0.578125 -0.40625q0.234375 -0.25 0.359375 -0.578125q0.125 -0.328125 0.125 -0.6875q0 -0.40625 -0.140625 -0.734375q-0.140625 -0.34375 -0.390625 -0.578125q-0.234375 -0.25 -0.578125 -0.375q-0.328125 -0.125 -0.734375 -0.125q-0.4375 0 -0.78125 0.15625q-0.34375 0.140625 -0.578125 0.390625q-0.234375 0.25 -0.359375 0.578125q-0.109375 0.328125 -0.109375 0.6875zm14.917725 5.59375q-0.5 0.140625 -1.03125 0.1875q-0.53125 0.0625 -1.09375 0.0625q-1.59375 0 -2.390625 -0.71875q-0.78125 -0.734375 -0.78125 -2.234375l0 -4.4375l-2.375 0l0 -1.234375l2.375 0l0 -2.328125l1.46875 -0.375l0 2.703125l3.828125 0l0 1.234375l-3.828125 0l0 4.328125q0 0.90625 0.484375 1.359375q0.5 0.453125 1.4375 0.453125q0.40625 0 0.890625 -0.0625q0.484375 -0.0625 1.015625 -0.203125l0 1.265625zm9.511414 0.125l-1.484375 0l0 -5.421875q0 -0.984375 -0.375 -1.46875q-0.359375 -0.484375 -1.046875 -0.484375q-0.296875 0 -0.5625 0.078125q-0.25 0.078125 -0.53125 0.28125q-0.265625 0.203125 -0.609375 0.546875q-0.328125 0.328125 -0.75 0.828125l0 5.640625l-1.46875 0l0 -11.953125l1.46875 0l0 3.453125l-0.046875 1.34375q0.34375 -0.421875 0.671875 -0.703125q0.34375 -0.28125 0.671875 -0.453125q0.328125 -0.1875 0.671875 -0.25q0.359375 -0.078125 0.734375 -0.078125q1.265625 0 1.953125 0.78125q0.703125 0.765625 0.703125 2.3125l0 5.546875z" fill-rule="nonzero"/><path fill="#000000" fill-opacity="0.0" d="m730.3577 406.5577l127.055115 0" fill-rule="evenodd"/><path stroke="#000000" stroke-width="2.0" stroke-linejoin="round" stroke-linecap="butt" d="m730.3578 406.5577l120.20093 0" fill-rule="evenodd"/><path fill="#000000" stroke="#000000" stroke-width="2.0" stroke-linecap="butt" d="m850.5587 406.5577l-2.2491455 2.2491455l6.1795044 -2.2491455l-6.1795044 -2.249176z" fill-rule="evenodd"/><path fill="#000000" fill-opacity="0.0" d="m360.23907 320.1295l0 -38.519684" fill-rule="evenodd"/><path stroke="#000000" stroke-width="2.0" stroke-linejoin="round" stroke-linecap="butt" d="m360.23907 320.1295l0 -38.519684" fill-rule="evenodd"/><path fill="#000000" fill-opacity="0.0" d="m360.23618 280.51233l32.15747 0" fill-rule="evenodd"/><path stroke="#000000" stroke-width="2.0" stroke-linejoin="round" stroke-linecap="butt" d="m360.23618 280.51233l32.15747 0" fill-rule="evenodd"/><path fill="#000000" fill-opacity="0.0" d="m744.74945 88.27166l0 178.2362" fill-rule="evenodd"/><path stroke="#000000" stroke-width="4.0" stroke-linejoin="round" stroke-linecap="butt" d="m744.74945 88.27166l0 178.2362" fill-rule="evenodd"/><path fill="#000000" fill-opacity="0.0" d="m392.8389 197.86093l0 96.787415" fill-rule="evenodd"/><path stroke="#000000" stroke-width="4.0" stroke-linejoin="round" stroke-linecap="butt" d="m392.8389 197.86093l0 96.787415" fill-rule="evenodd"/><path fill="#000000" fill-opacity="0.0" d="m392.4077 247.8362l40.0 0" fill-rule="evenodd"/><path stroke="#000000" stroke-width="2.0" stroke-linejoin="round" stroke-linecap="butt" d="m392.4077 247.8362l33.145844 0" fill-rule="evenodd"/><path fill="#000000" stroke="#000000" stroke-width="2.0" stroke-linecap="butt" d="m425.55356 247.8362l-2.249176 2.249176l6.179535 -2.249176l-6.179535 -2.2491608z" fill-rule="evenodd"/><path fill="#000000" fill-opacity="0.0" d="m339.67294 112.393776l143.74805 0l0 37.511818l-143.74805 0z" fill-rule="evenodd"/><path fill="#000000" d="m368.75107 134.97719q0 0.4375 -0.15625 0.796875q-0.140625 0.359375 -0.40625 0.640625q-0.265625 0.265625 -0.609375 0.46875q-0.34375 0.1875 -0.75 0.3125q-0.390625 0.125 -0.8125 0.1875q-0.40625 0.0625 -0.796875 0.0625q-0.859375 0 -1.59375 -0.078125q-0.71875 -0.078125 -1.40625 -0.25l0 -1.34375q0.734375 0.203125 1.46875 0.3125q0.734375 0.109375 1.46875 0.109375q1.0625 0 1.5625 -0.28125q0.515625 -0.296875 0.515625 -0.828125q0 -0.21875 -0.09375 -0.40625q-0.078125 -0.1875 -0.296875 -0.34375q-0.203125 -0.171875 -0.65625 -0.34375q-0.4375 -0.1875 -1.203125 -0.40625q-0.578125 -0.171875 -1.0625 -0.390625q-0.484375 -0.21875 -0.84375 -0.515625q-0.34375 -0.296875 -0.546875 -0.6875q-0.203125 -0.390625 -0.203125 -0.9375q0 -0.359375 0.15625 -0.78125q0.171875 -0.421875 0.5625 -0.78125q0.40625 -0.375 1.078125 -0.609375q0.671875 -0.234375 1.6875 -0.234375q0.5 0 1.109375 0.0625q0.609375 0.046875 1.265625 0.171875l0 1.3125q-0.6875 -0.171875 -1.3125 -0.25q-0.625 -0.078125 -1.078125 -0.078125q-0.546875 0 -0.921875 0.09375q-0.375 0.078125 -0.609375 0.234375q-0.234375 0.140625 -0.34375 0.34375q-0.09375 0.1875 -0.09375 0.421875q0 0.234375 0.078125 0.421875q0.09375 0.171875 0.328125 0.359375q0.25 0.171875 0.671875 0.34375q0.4375 0.171875 1.140625 0.375q0.75 0.21875 1.265625 0.46875q0.515625 0.234375 0.828125 0.53125q0.328125 0.296875 0.46875 0.671875q0.140625 0.359375 0.140625 0.84375zm9.980225 -2.390625q0 0.328125 -0.015625 0.546875q0 0.203125 -0.015625 0.375l-5.96875 0q0 1.3125 0.71875 2.015625q0.734375 0.6875 2.109375 0.6875q0.375 0 0.734375 -0.03125q0.375 -0.03125 0.71875 -0.078125q0.359375 -0.046875 0.671875 -0.109375q0.3125 -0.0625 0.59375 -0.140625l0 1.203125q-0.609375 0.171875 -1.375 0.28125q-0.75 0.109375 -1.5625 0.109375q-1.09375 0 -1.875 -0.296875q-0.78125 -0.296875 -1.296875 -0.859375q-0.5 -0.5625 -0.75 -1.375q-0.234375 -0.828125 -0.234375 -1.859375q0 -0.890625 0.25 -1.6875q0.265625 -0.796875 0.765625 -1.40625q0.5 -0.609375 1.21875 -0.953125q0.71875 -0.359375 1.625 -0.359375q0.890625 0 1.578125 0.28125q0.6875 0.265625 1.15625 0.78125q0.46875 0.515625 0.703125 1.25q0.25 0.734375 0.25 1.625zm-1.53125 -0.203125q0.015625 -0.5625 -0.125 -1.03125q-0.125 -0.46875 -0.40625 -0.8125q-0.28125 -0.34375 -0.703125 -0.53125q-0.421875 -0.1875 -0.984375 -0.1875q-0.484375 0 -0.890625 0.1875q-0.390625 0.1875 -0.6875 0.53125q-0.28125 0.328125 -0.453125 0.8125q-0.171875 0.46875 -0.21875 1.03125l4.46875 0zm10.480194 4.59375q-0.578125 0.21875 -1.1875 0.328125q-0.59375 0.109375 -1.234375 0.109375q-2.015625 0 -3.109375 -1.09375q-1.078125 -1.09375 -1.078125 -3.1875q0 -1.015625 0.3125 -1.828125q0.3125 -0.828125 0.875 -1.40625q0.5625 -0.59375 1.34375 -0.90625q0.796875 -0.3125 1.75 -0.3125q0.65625 0 1.21875 0.09375q0.578125 0.09375 1.109375 0.296875l0 1.40625q-0.546875 -0.28125 -1.125 -0.40625q-0.5625 -0.140625 -1.171875 -0.140625q-0.578125 0 -1.078125 0.21875q-0.5 0.21875 -0.890625 0.625q-0.375 0.390625 -0.59375 0.984375q-0.21875 0.578125 -0.21875 1.3125q0 1.546875 0.75 2.3125q0.75 0.765625 2.078125 0.765625q0.59375 0 1.15625 -0.125q0.5625 -0.140625 1.09375 -0.421875l0 1.375zm3.2770996 -8.1875l1.34375 0l0.046875 1.578125q0.75 -0.90625 1.484375 -1.3125q0.734375 -0.40625 1.46875 -0.40625q1.328125 0 2.0 0.859375q0.6875 0.84375 0.640625 2.53125l-1.5 0q0.03125 -1.125 -0.328125 -1.625q-0.34375 -0.5 -1.015625 -0.5q-0.296875 0 -0.609375 0.109375q-0.296875 0.09375 -0.609375 0.328125q-0.3125 0.234375 -0.671875 0.609375q-0.359375 0.359375 -0.765625 0.875l0 5.453125l-1.484375 0l0 -8.5zm16.355194 3.796875q0 0.328125 -0.015625 0.546875q0 0.203125 -0.015625 0.375l-5.96875 0q0 1.3125 0.71875 2.015625q0.734375 0.6875 2.109375 0.6875q0.375 0 0.734375 -0.03125q0.375 -0.03125 0.71875 -0.078125q0.359375 -0.046875 0.671875 -0.109375q0.3125 -0.0625 0.59375 -0.140625l0 1.203125q-0.609375 0.171875 -1.375 0.28125q-0.75 0.109375 -1.5625 0.109375q-1.09375 0 -1.875 -0.296875q-0.78125 -0.296875 -1.296875 -0.859375q-0.5 -0.5625 -0.75 -1.375q-0.234375 -0.828125 -0.234375 -1.859375q0 -0.890625 0.25 -1.6875q0.265625 -0.796875 0.765625 -1.40625q0.5 -0.609375 1.21875 -0.953125q0.71875 -0.359375 1.625 -0.359375q0.890625 0 1.578125 0.28125q0.6875 0.265625 1.15625 0.78125q0.46875 0.515625 0.703125 1.25q0.25 0.734375 0.25 1.625zm-1.53125 -0.203125q0.015625 -0.5625 -0.125 -1.03125q-0.125 -0.46875 -0.40625 -0.8125q-0.28125 -0.34375 -0.703125 -0.53125q-0.421875 -0.1875 -0.984375 -0.1875q-0.484375 0 -0.890625 0.1875q-0.390625 0.1875 -0.6875 0.53125q-0.28125 0.328125 -0.453125 0.8125q-0.171875 0.46875 -0.21875 1.03125l4.46875 0zm10.730225 4.78125q-0.5 0.140625 -1.03125 0.1875q-0.53125 0.0625 -1.09375 0.0625q-1.59375 0 -2.390625 -0.71875q-0.78125 -0.734375 -0.78125 -2.234375l0 -4.4375l-2.375 0l0 -1.234375l2.375 0l0 -2.3281326l1.46875 -0.375l0 2.7031326l3.828125 0l0 1.234375l-3.828125 0l0 4.328125q0 0.90625 0.484375 1.359375q0.5 0.453125 1.4375 0.453125q0.40625 0 0.890625 -0.0625q0.484375 -0.0625 1.015625 -0.203125l0 1.265625zm10.855194 3.59375l-9.53125 0l0 -1.21875l9.53125 0l0 1.21875zm8.99585 -3.46875l-2.03125 0l-3.953125 -4.546875l0 4.546875l-1.46875 0l0 -11.953133l1.46875 0l0 7.3437576l3.8125 -3.890625l1.953125 0l-4.0 3.921875l4.21875 4.578125zm9.058319 -4.703125q0 0.328125 -0.015625 0.546875q0 0.203125 -0.015625 0.375l-5.96875 0q0 1.3125 0.71875 2.015625q0.734375 0.6875 2.109375 0.6875q0.375 0 0.734375 -0.03125q0.375 -0.03125 0.71875 -0.078125q0.359375 -0.046875 0.671875 -0.109375q0.3125 -0.0625 0.59375 -0.140625l0 1.203125q-0.609375 0.171875 -1.375 0.28125q-0.75 0.109375 -1.5625 0.109375q-1.09375 0 -1.875 -0.296875q-0.78125 -0.296875 -1.296875 -0.859375q-0.5 -0.5625 -0.75 -1.375q-0.234375 -0.828125 -0.234375 -1.859375q0 -0.890625 0.25 -1.6875q0.265625 -0.796875 0.765625 -1.40625q0.5 -0.609375 1.21875 -0.953125q0.71875 -0.359375 1.625 -0.359375q0.890625 0 1.578125 0.28125q0.6875 0.265625 1.15625 0.78125q0.46875 0.515625 0.703125 1.25q0.25 0.734375 0.25 1.625zm-1.53125 -0.203125q0.015625 -0.5625 -0.125 -1.03125q-0.125 -0.46875 -0.40625 -0.8125q-0.28125 -0.34375 -0.703125 -0.53125q-0.421875 -0.1875 -0.984375 -0.1875q-0.484375 0 -0.890625 0.1875q-0.390625 0.1875 -0.6875 0.53125q-0.28125 0.328125 -0.453125 0.8125q-0.171875 0.46875 -0.21875 1.03125l4.46875 0zm11.43335 -3.59375l-2.890625 7.609375q-0.453125 1.15625 -0.9375 1.984375q-0.46875 0.84375 -1.03125 1.375q-0.5625 0.546875 -1.25 0.796875q-0.671875 0.25 -1.515625 0.25q-0.21875 0 -0.40625 -0.015625q-0.171875 0 -0.375 -0.015625l0 -1.328125q0.1875 0.015625 0.40625 0.03125q0.21875 0.03125 0.46875 0.03125q0.40625 0 0.75 -0.125q0.359375 -0.109375 0.671875 -0.375q0.3125 -0.265625 0.59375 -0.703125q0.296875 -0.421875 0.5625 -1.015625l-3.390625 -8.5l1.671875 0l2.140625 5.625l0.4375 1.3125l0.5 -1.34375l1.984375 -5.59375l1.609375 0z" fill-rule="nonzero"/><path fill="#000000" fill-opacity="0.0" d="m576.0462 361.7081l154.29926 0l0 89.700806l-154.29926 0z" fill-rule="evenodd"/><path stroke="#000000" stroke-width="2.0" stroke-linejoin="round" stroke-linecap="butt" d="m576.0462 361.7081l154.29926 0l0 89.700806l-154.29926 0z" fill-rule="evenodd"/><path fill="#000000" d="m601.2962 391.4485l-2.515625 0l0 -1.203125l4.0 0l0 10.71875l2.53125 0l0 1.234375l-6.8125 0l0 -1.234375l2.796875 0l0 -9.515625zm13.80835 6.046875q0 0.328125 -0.015625 0.546875q0 0.203125 -0.015625 0.375l-5.96875 0q0 1.3125 0.71875 2.015625q0.734375 0.6875 2.109375 0.6875q0.375 0 0.734375 -0.03125q0.375 -0.03125 0.71875 -0.078125q0.359375 -0.046875 0.671875 -0.109375q0.3125 -0.0625 0.59375 -0.140625l0 1.203125q-0.609375 0.171875 -1.375 0.28125q-0.75 0.109375 -1.5625 0.109375q-1.09375 0 -1.875 -0.296875q-0.78125 -0.296875 -1.296875 -0.859375q-0.5 -0.5625 -0.75 -1.375q-0.234375 -0.828125 -0.234375 -1.859375q0 -0.890625 0.25 -1.6875q0.265625 -0.796875 0.765625 -1.40625q0.5 -0.609375 1.21875 -0.953125q0.71875 -0.359375 1.625 -0.359375q0.890625 0 1.578125 0.28125q0.6875 0.265625 1.15625 0.78125q0.46875 0.515625 0.703125 1.25q0.25 0.734375 0.25 1.625zm-1.53125 -0.203125q0.015625 -0.5625 -0.125 -1.03125q-0.125 -0.46875 -0.40625 -0.8125q-0.28125 -0.34375 -0.703125 -0.53125q-0.421875 -0.1875 -0.984375 -0.1875q-0.484375 0 -0.890625 0.1875q-0.390625 0.1875 -0.6875 0.53125q-0.28125 0.328125 -0.453125 0.8125q-0.171875 0.46875 -0.21875 1.03125l4.46875 0zm3.8864746 -3.59375l1.3125 0l0.046875 1.375q0.375 -0.4375 0.71875 -0.71875q0.359375 -0.296875 0.6875 -0.46875q0.328125 -0.1875 0.671875 -0.25q0.359375 -0.078125 0.734375 -0.078125q1.3125 0 1.984375 0.78125q0.671875 0.765625 0.671875 2.3125l0 5.546875l-1.484375 0l0 -5.421875q0 -1.0 -0.375 -1.46875q-0.359375 -0.484375 -1.09375 -0.484375q-0.28125 0 -0.546875 0.078125q-0.25 0.078125 -0.53125 0.28125q-0.265625 0.203125 -0.59375 0.546875q-0.328125 0.328125 -0.734375 0.828125l0 5.640625l-1.46875 0l0 -8.5zm15.636475 1.203125q0.234375 0.296875 0.359375 0.703125q0.140625 0.390625 0.140625 0.84375q0 0.65625 -0.25 1.203125q-0.234375 0.546875 -0.671875 0.9375q-0.4375 0.390625 -1.0625 0.609375q-0.609375 0.203125 -1.34375 0.203125q-0.53125 0 -1.0 -0.109375q-0.453125 -0.109375 -0.734375 -0.28125q-0.15625 0.234375 -0.265625 0.453125q-0.109375 0.203125 -0.109375 0.46875q0 0.3125 0.296875 0.53125q0.3125 0.21875 0.828125 0.234375l2.234375 0.078125q0.625 0.015625 1.15625 0.171875q0.546875 0.140625 0.9375 0.40625q0.390625 0.265625 0.59375 0.671875q0.21875 0.390625 0.21875 0.921875q0 0.5625 -0.25 1.0625q-0.234375 0.515625 -0.75 0.890625q-0.515625 0.390625 -1.296875 0.609375q-0.78125 0.234375 -1.875 0.234375q-1.03125 0 -1.75 -0.171875q-0.71875 -0.15625 -1.1875 -0.453125q-0.46875 -0.28125 -0.6875 -0.6875q-0.203125 -0.390625 -0.203125 -0.875q0 -0.625 0.28125 -1.09375q0.296875 -0.453125 0.890625 -0.890625q-0.21875 -0.109375 -0.375 -0.25q-0.15625 -0.15625 -0.265625 -0.328125q-0.09375 -0.1875 -0.15625 -0.390625q-0.046875 -0.203125 -0.046875 -0.40625q0 -0.546875 0.25 -1.0q0.265625 -0.453125 0.625 -0.859375q-0.15625 -0.203125 -0.28125 -0.390625q-0.125 -0.1875 -0.21875 -0.390625q-0.09375 -0.21875 -0.140625 -0.46875q-0.046875 -0.25 -0.046875 -0.578125q0 -0.65625 0.234375 -1.203125q0.25 -0.546875 0.6875 -0.9375q0.4375 -0.390625 1.046875 -0.59375q0.625 -0.21875 1.359375 -0.21875q0.3125 0 0.59375 0.046875q0.296875 0.03125 0.515625 0.09375l3.078125 0l0 1.203125l-1.359375 0zm-5.109375 8.53125q0 0.59375 0.625 0.859375q0.625 0.28125 1.75 0.28125q0.703125 0 1.171875 -0.125q0.484375 -0.125 0.765625 -0.34375q0.296875 -0.203125 0.421875 -0.46875q0.125 -0.265625 0.125 -0.546875q0 -0.515625 -0.421875 -0.765625q-0.421875 -0.234375 -1.28125 -0.28125l-2.21875 -0.078125q-0.28125 0.1875 -0.46875 0.359375q-0.1875 0.1875 -0.296875 0.359375q-0.09375 0.1875 -0.140625 0.375q-0.03125 0.1875 -0.03125 0.375zm0.453125 -6.953125q0 0.40625 0.125 0.75q0.140625 0.328125 0.390625 0.578125q0.25 0.234375 0.578125 0.359375q0.328125 0.125 0.734375 0.125q0.4375 0 0.78125 -0.140625q0.34375 -0.15625 0.578125 -0.40625q0.234375 -0.25 0.359375 -0.578125q0.125 -0.328125 0.125 -0.6875q0 -0.40625 -0.140625 -0.734375q-0.140625 -0.34375 -0.390625 -0.578125q-0.234375 -0.25 -0.578125 -0.375q-0.328125 -0.125 -0.734375 -0.125q-0.4375 0 -0.78125 0.15625q-0.34375 0.140625 -0.578125 0.390625q-0.234375 0.25 -0.359375 0.578125q-0.109375 0.328125 -0.109375 0.6875zm14.917664 5.59375q-0.5 0.140625 -1.03125 0.1875q-0.53125 0.0625 -1.09375 0.0625q-1.59375 0 -2.390625 -0.71875q-0.78125 -0.734375 -0.78125 -2.234375l0 -4.4375l-2.375 0l0 -1.234375l2.375 0l0 -2.328125l1.46875 -0.375l0 2.703125l3.828125 0l0 1.234375l-3.828125 0l0 4.328125q0 0.90625 0.484375 1.359375q0.5 0.453125 1.4375 0.453125q0.40625 0 0.890625 -0.0625q0.484375 -0.0625 1.015625 -0.203125l0 1.265625zm9.511475 0.125l-1.484375 0l0 -5.421875q0 -0.984375 -0.375 -1.46875q-0.359375 -0.484375 -1.046875 -0.484375q-0.296875 0 -0.5625 0.078125q-0.25 0.078125 -0.53125 0.28125q-0.265625 0.203125 -0.609375 0.546875q-0.328125 0.328125 -0.75 0.828125l0 5.640625l-1.46875 0l0 -11.953125l1.46875 0l0 3.453125l-0.046875 1.34375q0.34375 -0.421875 0.671875 -0.703125q0.34375 -0.28125 0.671875 -0.453125q0.328125 -0.1875 0.671875 -0.25q0.359375 -0.078125 0.734375 -0.078125q1.265625 0 1.953125 0.78125q0.703125 0.765625 0.703125 2.3125l0 5.546875zm10.87085 3.46875l-9.53125 0l0 -1.21875l9.53125 0l0 1.21875z" fill-rule="nonzero"/><path fill="#000000" d="m604.9993 422.886q-0.578125 0.21875 -1.1875 0.328125q-0.59375 0.109375 -1.234375 0.109375q-2.015625 0 -3.109375 -1.09375q-1.078125 -1.09375 -1.078125 -3.1875q0 -1.015625 0.3125 -1.828125q0.3125 -0.828125 0.875 -1.40625q0.5625 -0.59375 1.34375 -0.90625q0.796875 -0.3125 1.75 -0.3125q0.65625 0 1.21875 0.09375q0.578125 0.09375 1.109375 0.296875l0 1.40625q-0.546875 -0.28125 -1.125 -0.40625q-0.5625 -0.140625 -1.171875 -0.140625q-0.578125 0 -1.078125 0.21875q-0.5 0.21875 -0.890625 0.625q-0.375 0.390625 -0.59375 0.984375q-0.21875 0.578125 -0.21875 1.3125q0 1.546875 0.75 2.3125q0.75 0.765625 2.078125 0.765625q0.59375 0 1.15625 -0.125q0.5625 -0.140625 1.09375 -0.421875l0 1.375zm10.323975 -4.0q0 0.984375 -0.28125 1.8125q-0.28125 0.828125 -0.8125 1.421875q-0.515625 0.578125 -1.265625 0.90625q-0.75 0.328125 -1.71875 0.328125q-0.90625 0 -1.640625 -0.28125q-0.71875 -0.296875 -1.21875 -0.84375q-0.5 -0.546875 -0.765625 -1.359375q-0.265625 -0.8125 -0.265625 -1.875q0 -0.984375 0.28125 -1.796875q0.28125 -0.8125 0.796875 -1.40625q0.53125 -0.59375 1.28125 -0.90625q0.75 -0.328125 1.703125 -0.328125q0.921875 0 1.640625 0.28125q0.71875 0.28125 1.21875 0.828125q0.515625 0.546875 0.78125 1.359375q0.265625 0.8125 0.265625 1.859375zm-1.5 0.0625q0 -0.78125 -0.1875 -1.359375q-0.171875 -0.59375 -0.5 -0.984375q-0.3125 -0.40625 -0.78125 -0.59375q-0.453125 -0.203125 -1.015625 -0.203125q-0.65625 0 -1.125 0.265625q-0.46875 0.25 -0.78125 0.6875q-0.296875 0.421875 -0.4375 1.0q-0.140625 0.5625 -0.140625 1.1875q0 0.796875 0.171875 1.390625q0.171875 0.578125 0.5 0.984375q0.328125 0.390625 0.78125 0.59375q0.453125 0.1875 1.03125 0.1875q0.65625 0 1.125 -0.25q0.46875 -0.265625 0.765625 -0.6875q0.3125 -0.4375 0.453125 -1.0q0.140625 -0.578125 0.140625 -1.21875zm3.6364746 -4.25l1.3125 0l0.046875 1.375q0.375 -0.4375 0.71875 -0.71875q0.359375 -0.296875 0.6875 -0.46875q0.328125 -0.1875 0.671875 -0.25q0.359375 -0.078125 0.734375 -0.078125q1.3125 0 1.984375 0.78125q0.671875 0.765625 0.671875 2.3125l0 5.546875l-1.484375 0l0 -5.421875q0 -1.0 -0.375 -1.46875q-0.359375 -0.484375 -1.09375 -0.484375q-0.28125 0 -0.546875 0.078125q-0.25 0.078125 -0.53125 0.28125q-0.265625 0.203125 -0.59375 0.546875q-0.328125 0.328125 -0.734375 0.828125l0 5.640625l-1.46875 0l0 -8.5zm8.730225 0l1.671875 0l2.078125 5.625l0.453125 1.375l0.46875 -1.40625l2.0625 -5.59375l1.609375 0l-3.328125 8.5l-1.6875 0l-3.328125 -8.5zm17.495789 3.796875q0 0.328125 -0.015625 0.546875q0 0.203125 -0.015625 0.375l-5.96875 0q0 1.3125 0.71875 2.015625q0.734375 0.6875 2.109375 0.6875q0.375 0 0.734375 -0.03125q0.375 -0.03125 0.71875 -0.078125q0.359375 -0.046875 0.671875 -0.109375q0.3125 -0.0625 0.59375 -0.140625l0 1.203125q-0.609375 0.171875 -1.375 0.28125q-0.75 0.109375 -1.5625 0.109375q-1.09375 0 -1.875 -0.296875q-0.78125 -0.296875 -1.296875 -0.859375q-0.5 -0.5625 -0.75 -1.375q-0.234375 -0.828125 -0.234375 -1.859375q0 -0.890625 0.25 -1.6875q0.265625 -0.796875 0.765625 -1.40625q0.5 -0.609375 1.21875 -0.953125q0.71875 -0.359375 1.625 -0.359375q0.890625 0 1.578125 0.28125q0.6875 0.265625 1.15625 0.78125q0.46875 0.515625 0.703125 1.25q0.25 0.734375 0.25 1.625zm-1.53125 -0.203125q0.015625 -0.5625 -0.125 -1.03125q-0.125 -0.46875 -0.40625 -0.8125q-0.28125 -0.34375 -0.703125 -0.53125q-0.421875 -0.1875 -0.984375 -0.1875q-0.484375 0 -0.890625 0.1875q-0.390625 0.1875 -0.6875 0.53125q-0.28125 0.328125 -0.453125 0.8125q-0.171875 0.46875 -0.21875 1.03125l4.46875 0zm4.2302246 -3.59375l1.34375 0l0.046875 1.578125q0.75 -0.90625 1.484375 -1.3125q0.734375 -0.40625 1.46875 -0.40625q1.328125 0 2.0 0.859375q0.6875 0.84375 0.640625 2.53125l-1.5 0q0.03125 -1.125 -0.328125 -1.625q-0.34375 -0.5 -1.015625 -0.5q-0.296875 0 -0.609375 0.109375q-0.296875 0.09375 -0.609375 0.328125q-0.3125 0.234375 -0.671875 0.609375q-0.359375 0.359375 -0.765625 0.875l0 5.453125l-1.484375 0l0 -8.5zm15.9021 6.1875q0 0.4375 -0.15625 0.796875q-0.140625 0.359375 -0.40625 0.640625q-0.265625 0.265625 -0.609375 0.46875q-0.34375 0.1875 -0.75 0.3125q-0.390625 0.125 -0.8125 0.1875q-0.40625 0.0625 -0.796875 0.0625q-0.859375 0 -1.59375 -0.078125q-0.71875 -0.078125 -1.40625 -0.25l0 -1.34375q0.734375 0.203125 1.46875 0.3125q0.734375 0.109375 1.46875 0.109375q1.0625 0 1.5625 -0.28125q0.515625 -0.296875 0.515625 -0.828125q0 -0.21875 -0.09375 -0.40625q-0.078125 -0.1875 -0.296875 -0.34375q-0.203125 -0.171875 -0.65625 -0.34375q-0.4375 -0.1875 -1.203125 -0.40625q-0.578125 -0.171875 -1.0625 -0.390625q-0.484375 -0.21875 -0.84375 -0.515625q-0.34375 -0.296875 -0.546875 -0.6875q-0.203125 -0.390625 -0.203125 -0.9375q0 -0.359375 0.15625 -0.78125q0.171875 -0.421875 0.5625 -0.78125q0.40625 -0.375 1.078125 -0.609375q0.671875 -0.234375 1.6875 -0.234375q0.5 0 1.109375 0.0625q0.609375 0.046875 1.265625 0.171875l0 1.3125q-0.6875 -0.171875 -1.3125 -0.25q-0.625 -0.078125 -1.078125 -0.078125q-0.546875 0 -0.921875 0.09375q-0.375 0.078125 -0.609375 0.234375q-0.234375 0.140625 -0.34375 0.34375q-0.09375 0.1875 -0.09375 0.421875q0 0.234375 0.078125 0.421875q0.09375 0.171875 0.328125 0.359375q0.25 0.171875 0.671875 0.34375q0.4375 0.171875 1.140625 0.375q0.75 0.21875 1.265625 0.46875q0.515625 0.234375 0.828125 0.53125q0.328125 0.296875 0.46875 0.671875q0.140625 0.359375 0.140625 0.84375zm5.6989746 -4.96875l-2.515625 0l0 -1.21875l4.0 0l0 7.265625l2.53125 0l0 1.234375l-6.8125 0l0 -1.234375l2.796875 0l0 -6.046875zm0.515625 -4.78125q0.25 0 0.453125 0.09375q0.21875 0.09375 0.375 0.25q0.15625 0.15625 0.234375 0.375q0.09375 0.203125 0.09375 0.453125q0 0.234375 -0.09375 0.453125q-0.078125 0.203125 -0.234375 0.359375q-0.15625 0.15625 -0.375 0.25q-0.203125 0.09375 -0.453125 0.09375q-0.25 0 -0.46875 -0.09375q-0.203125 -0.09375 -0.359375 -0.25q-0.15625 -0.15625 -0.25 -0.359375q-0.078125 -0.21875 -0.078125 -0.453125q0 -0.25 0.078125 -0.453125q0.09375 -0.21875 0.25 -0.375q0.15625 -0.15625 0.359375 -0.25q0.21875 -0.09375 0.46875 -0.09375zm13.511414 7.75q0 0.984375 -0.28125 1.8125q-0.28125 0.828125 -0.8125 1.421875q-0.515625 0.578125 -1.265625 0.90625q-0.75 0.328125 -1.71875 0.328125q-0.90625 0 -1.640625 -0.28125q-0.71875 -0.296875 -1.21875 -0.84375q-0.5 -0.546875 -0.765625 -1.359375q-0.265625 -0.8125 -0.265625 -1.875q0 -0.984375 0.28125 -1.796875q0.28125 -0.8125 0.796875 -1.40625q0.53125 -0.59375 1.28125 -0.90625q0.75 -0.328125 1.703125 -0.328125q0.921875 0 1.640625 0.28125q0.71875 0.28125 1.21875 0.828125q0.515625 0.546875 0.78125 1.359375q0.265625 0.8125 0.265625 1.859375zm-1.5 0.0625q0 -0.78125 -0.1875 -1.359375q-0.171875 -0.59375 -0.5 -0.984375q-0.3125 -0.40625 -0.78125 -0.59375q-0.453125 -0.203125 -1.015625 -0.203125q-0.65625 0 -1.125 0.265625q-0.46875 0.25 -0.78125 0.6875q-0.296875 0.421875 -0.4375 1.0q-0.140625 0.5625 -0.140625 1.1875q0 0.796875 0.171875 1.390625q0.171875 0.578125 0.5 0.984375q0.328125 0.390625 0.78125 0.59375q0.453125 0.1875 1.03125 0.1875q0.65625 0 1.125 -0.25q0.46875 -0.265625 0.765625 -0.6875q0.3125 -0.4375 0.453125 -1.0q0.140625 -0.578125 0.140625 -1.21875zm3.6364746 -4.25l1.3125 0l0.046875 1.375q0.375 -0.4375 0.71875 -0.71875q0.359375 -0.296875 0.6875 -0.46875q0.328125 -0.1875 0.671875 -0.25q0.359375 -0.078125 0.734375 -0.078125q1.3125 0 1.984375 0.78125q0.671875 0.765625 0.671875 2.3125l0 5.546875l-1.484375 0l0 -5.421875q0 -1.0 -0.375 -1.46875q-0.359375 -0.484375 -1.09375 -0.484375q-0.28125 0 -0.546875 0.078125q-0.25 0.078125 -0.53125 0.28125q-0.265625 0.203125 -0.59375 0.546875q-0.328125 0.328125 -0.734375 0.828125l0 5.640625l-1.46875 0l0 -8.5z" fill-rule="nonzero"/><path fill="#000000" fill-opacity="0.0" d="m310.55118 406.55643l265.48032 0" fill-rule="evenodd"/><path stroke="#000000" stroke-width="2.0" stroke-linejoin="round" stroke-linecap="butt" d="m310.55118 406.55643l258.62613 0" fill-rule="evenodd"/><path fill="#000000" stroke="#000000" stroke-width="2.0" stroke-linecap="butt" d="m569.1773 406.55643l-2.2491455 2.249176l6.1795044 -2.249176l-6.1795044 -2.249176z" fill-rule="evenodd"/><path fill="#000000" fill-opacity="0.0" d="m266.65765 171.49081l94.17322 0l0 89.700775l-94.17322 0z" fill-rule="evenodd"/><path stroke="#000000" stroke-width="2.0" stroke-linejoin="round" stroke-linecap="butt" d="m266.65765 171.49081l94.17322 0l0 89.700775l-94.17322 0z" fill-rule="evenodd"/><path fill="#000000" d="m293.7724 218.07495q0 1.140625 -0.3125 1.984375q-0.3125 0.84375 -0.875 1.40625q-0.5625 0.5625 -1.328125 0.84375q-0.75 0.265625 -1.640625 0.265625q-0.40625 0 -0.8125 -0.046875q-0.40625 -0.03125 -0.8125 -0.125l0 3.546875l-1.46875 0l0 -11.96875l1.3125 0l0.09375 1.421875q0.625 -0.859375 1.34375 -1.203125q0.71875 -0.359375 1.5625 -0.359375q0.71875 0 1.265625 0.3125q0.5625 0.296875 0.921875 0.859375q0.375 0.546875 0.5625 1.328125q0.1875 0.78125 0.1875 1.734375zm-1.5 0.078125q0 -0.671875 -0.109375 -1.234375q-0.09375 -0.5625 -0.3125 -0.953125q-0.203125 -0.390625 -0.53125 -0.609375q-0.328125 -0.234375 -0.78125 -0.234375q-0.28125 0 -0.578125 0.09375q-0.28125 0.078125 -0.59375 0.296875q-0.296875 0.203125 -0.640625 0.546875q-0.34375 0.34375 -0.734375 0.84375l0 4.125q0.40625 0.171875 0.84375 0.265625q0.453125 0.09375 0.890625 0.09375q1.1875 0 1.859375 -0.796875q0.6875 -0.8125 0.6875 -2.4375zm9.230194 4.328125l-0.03125 -1.140625q-0.703125 0.6875 -1.421875 1.0q-0.703125 0.296875 -1.5 0.296875q-0.71875 0 -1.234375 -0.1875q-0.515625 -0.1875 -0.859375 -0.515625q-0.328125 -0.328125 -0.484375 -0.765625q-0.15625 -0.4375 -0.15625 -0.953125q0 -1.28125 0.953125 -2.0q0.953125 -0.71875 2.8125 -0.71875l1.765625 0l0 -0.75q0 -0.75 -0.484375 -1.203125q-0.484375 -0.453125 -1.46875 -0.453125q-0.71875 0 -1.421875 0.15625q-0.703125 0.15625 -1.4375 0.453125l0 -1.328125q0.265625 -0.09375 0.609375 -0.1875q0.34375 -0.109375 0.71875 -0.171875q0.390625 -0.078125 0.796875 -0.125q0.421875 -0.046875 0.84375 -0.046875q0.765625 0 1.375 0.171875q0.625 0.15625 1.046875 0.515625q0.4375 0.34375 0.65625 0.875q0.234375 0.515625 0.234375 1.21875l0 5.859375l-1.3125 0zm-0.15625 -3.859375l-1.875 0q-0.546875 0 -0.953125 0.109375q-0.390625 0.109375 -0.65625 0.3125q-0.25 0.203125 -0.375 0.484375q-0.109375 0.28125 -0.109375 0.640625q0 0.234375 0.0625 0.46875q0.078125 0.21875 0.25 0.390625q0.171875 0.171875 0.4375 0.28125q0.28125 0.09375 0.671875 0.09375q0.5 0 1.15625 -0.296875q0.65625 -0.3125 1.390625 -0.984375l0 -1.5zm10.823975 3.546875q-0.578125 0.21875 -1.1875 0.328125q-0.59375 0.109375 -1.234375 0.109375q-2.015625 0 -3.109375 -1.09375q-1.078125 -1.09375 -1.078125 -3.1875q0 -1.015625 0.3125 -1.828125q0.3125 -0.828125 0.875 -1.40625q0.5625 -0.59375 1.34375 -0.90625q0.796875 -0.3125 1.75 -0.3125q0.65625 0 1.21875 0.09375q0.578125 0.09375 1.109375 0.296875l0 1.40625q-0.546875 -0.28125 -1.125 -0.40625q-0.5625 -0.140625 -1.171875 -0.140625q-0.578125 0 -1.078125 0.21875q-0.5 0.21875 -0.890625 0.625q-0.375 0.390625 -0.59375 0.984375q-0.21875 0.578125 -0.21875 1.3125q0 1.546875 0.75 2.3125q0.75 0.765625 2.078125 0.765625q0.59375 0 1.15625 -0.125q0.5625 -0.140625 1.09375 -0.421875l0 1.375zm10.573944 0.3125l-2.03125 0l-3.953125 -4.546875l0 4.546875l-1.46875 0l0 -11.953125l1.46875 0l0 7.34375l3.8125 -3.890625l1.953125 0l-4.0 3.921875l4.21875 4.578125zm9.05835 -4.703125q0 0.328125 -0.015625 0.546875q0 0.203125 -0.015625 0.375l-5.96875 0q0 1.3125 0.71875 2.015625q0.734375 0.6875 2.109375 0.6875q0.375 0 0.734375 -0.03125q0.375 -0.03125 0.71875 -0.078125q0.359375 -0.046875 0.671875 -0.109375q0.3125 -0.0625 0.59375 -0.140625l0 1.203125q-0.609375 0.171875 -1.375 0.28125q-0.75 0.109375 -1.5625 0.109375q-1.09375 0 -1.875 -0.296875q-0.78125 -0.296875 -1.296875 -0.859375q-0.5 -0.5625 -0.75 -1.375q-0.234375 -0.828125 -0.234375 -1.859375q0 -0.890625 0.25 -1.6875q0.265625 -0.796875 0.765625 -1.40625q0.5 -0.609375 1.21875 -0.953125q0.71875 -0.359375 1.625 -0.359375q0.890625 0 1.578125 0.28125q0.6875 0.265625 1.15625 0.78125q0.46875 0.515625 0.703125 1.25q0.25 0.734375 0.25 1.625zm-1.53125 -0.203125q0.015625 -0.5625 -0.125 -1.03125q-0.125 -0.46875 -0.40625 -0.8125q-0.28125 -0.34375 -0.703125 -0.53125q-0.421875 -0.1875 -0.984375 -0.1875q-0.484375 0 -0.890625 0.1875q-0.390625 0.1875 -0.6875 0.53125q-0.28125 0.328125 -0.453125 0.8125q-0.171875 0.46875 -0.21875 1.03125l4.46875 0zm4.230194 -3.59375l1.34375 0l0.046875 1.578125q0.75 -0.90625 1.484375 -1.3125q0.734375 -0.40625 1.46875 -0.40625q1.328125 0 2.0 0.859375q0.6875 0.84375 0.640625 2.53125l-1.5 0q0.03125 -1.125 -0.328125 -1.625q-0.34375 -0.5 -1.015625 -0.5q-0.296875 0 -0.609375 0.109375q-0.296875 0.09375 -0.609375 0.328125q-0.3125 0.234375 -0.671875 0.609375q-0.359375 0.359375 -0.765625 0.875l0 5.453125l-1.484375 0l0 -8.5z" fill-rule="nonzero"/><path fill="#000000" fill-opacity="0.0" d="m232.83089 216.3412l33.826767 0" fill-rule="evenodd"/><path stroke="#000000" stroke-width="2.0" stroke-linejoin="round" stroke-linecap="butt" d="m232.83089 216.3412l26.97261 0" fill-rule="evenodd"/><path fill="#000000" stroke="#000000" stroke-width="2.0" stroke-linecap="butt" d="m259.8035 216.3412l-2.249176 2.249176l6.179535 -2.249176l-6.179535 -2.2491608z" fill-rule="evenodd"/><path fill="#000000" fill-opacity="0.0" d="m310.5853 406.7743l0 -145.51181" fill-rule="evenodd"/><path stroke="#000000" stroke-width="2.0" stroke-linejoin="round" stroke-linecap="butt" d="m310.5853 406.7743l0 -145.51181" fill-rule="evenodd"/></g></svg>