<svg version="1.1" viewBox="0.0 0.0 1280.0 800.0" fill="none" stroke="none" stroke-linecap="square" stroke-miterlimit="10" xmlns:xlink="http://www.w3.org/1999/xlink" xmlns="http://www.w3.org/2000/svg"><clipPath id="p.0"><path d="m0 0l1280.0 0l0 800.0l-1280.0 0l0 -800.0z" clip-rule="nonzero"/></clipPath><g clip-path="url(#p.0)"><path fill="#000000" fill-opacity="0.0" d="m0 0l1280.0 0l0 800.0l-1280.0 0z" fill-rule="evenodd"/><path fill="#000000" fill-opacity="0.0" d="m550.30035 48.31045l0 700.09454" fill-rule="evenodd"/><path stroke="#000000" stroke-width="12.0" stroke-linejoin="round" stroke-linecap="butt" d="m550.30035 48.31045l0 700.09454" fill-rule="evenodd"/><path fill="#000000" fill-opacity="0.0" d="m111.63549 266.90097l438.2047 0" fill-rule="evenodd"/><path stroke="#000000" stroke-width="4.0" stroke-linejoin="round" stroke-linecap="butt" d="m111.63549 266.90097l438.2047 0" fill-rule="evenodd"/><path fill="#000000" fill-opacity="0.0" d="m30.738829 47.87113l485.7638 0l0 86.64567l-485.7638 0z" fill-rule="evenodd"/><path fill="#000000" d="m290.5521 80.02647q-3.03125 -0.640625 -5.234375 -0.640625q-5.1875 0 -5.1875 5.4375l0 3.90625l9.734375 0l0 3.203125l-9.734375 0l0 15.78125l-3.921875 0l0 -15.78125l-7.15625 0l0 -3.203125l7.15625 0l0 -3.6875q0 -8.875 9.25 -8.875q2.296875 0 5.09375 0.53125l0 3.328125zm-23.265625 5.46875l0 0zm36.030975 3.1875l-6.578125 0l0 -3.1875l10.46875 0l0 19.015625l6.625 0l0 3.203125l-17.8125 0l0 -3.203125l7.296875 0l0 -15.828125zm1.34375 -12.515625q0.65625 0 1.203125 0.234375q0.546875 0.234375 0.953125 0.65625q0.421875 0.421875 0.65625 0.96875q0.234375 0.53125 0.234375 1.1875q0 0.609375 -0.234375 1.171875q-0.234375 0.546875 -0.65625 0.96875q-0.40625 0.421875 -0.953125 0.65625q-0.546875 0.234375 -1.203125 0.234375q-0.640625 0 -1.1875 -0.234375q-0.546875 -0.234375 -0.96875 -0.65625q-0.40625 -0.421875 -0.640625 -0.96875q-0.234375 -0.5625 -0.234375 -1.171875q0 -0.65625 0.234375 -1.1875q0.234375 -0.546875 0.640625 -0.96875q0.421875 -0.421875 0.96875 -0.65625q0.546875 -0.234375 1.1875 -0.234375zm35.73413 3.859375q-3.03125 -0.640625 -5.234375 -0.640625q-5.1875 0 -5.1875 5.4375l0 3.90625l9.734375 0l0 3.203125l-9.734375 0l0 15.78125l-3.921875 0l0 -15.78125l-7.15625 0l0 -3.203125l7.15625 0l0 -3.6875q0 -8.875 9.25 -8.875q2.296875 0 5.09375 0.53125l0 3.328125zm-23.265625 5.46875l0 0zm47.812256 10.9375q0 2.578125 -0.734375 4.75q-0.734375 2.15625 -2.109375 3.6875q-1.359375 1.53125 -3.34375 2.390625q-1.96875 0.84375 -4.46875 0.84375q-2.390625 0 -4.28125 -0.734375q-1.890625 -0.734375 -3.203125 -2.171875q-1.3125 -1.453125 -2.015625 -3.578125q-0.703125 -2.125 -0.703125 -4.890625q0 -2.578125 0.734375 -4.71875q0.734375 -2.140625 2.09375 -3.671875q1.375 -1.546875 3.34375 -2.390625q1.984375 -0.859375 4.484375 -0.859375q2.390625 0 4.28125 0.75q1.890625 0.734375 3.203125 2.171875q1.3125 1.421875 2.015625 3.546875q0.703125 2.125 0.703125 4.875zm-3.9375 0.171875q0 -2.0625 -0.46875 -3.59375q-0.453125 -1.546875 -1.296875 -2.5625q-0.828125 -1.03125 -2.046875 -1.546875q-1.203125 -0.53125 -2.6875 -0.53125q-1.71875 0 -2.953125 0.671875q-1.21875 0.671875 -2.015625 1.8125q-0.78125 1.125 -1.15625 2.625q-0.359375 1.484375 -0.359375 3.125q0 2.0625 0.453125 3.609375q0.46875 1.546875 1.296875 2.578125q0.84375 1.03125 2.03125 1.546875q1.203125 0.515625 2.703125 0.515625q1.734375 0 2.953125 -0.671875q1.234375 -0.671875 2.015625 -1.796875q0.796875 -1.140625 1.15625 -2.625q0.375 -1.5 0.375 -3.15625zm30.89035 20.1875l-24.921875 0l0 -3.1875l24.921875 0l0 3.1875zm4.4528503 -31.296875l3.515625 0l0.109375 4.09375q1.96875 -2.375 3.875 -3.4375q1.921875 -1.0625 3.875 -1.0625q3.453125 0 5.234375 2.234375q1.78125 2.234375 1.640625 6.640625l-3.890625 0q0.0625 -2.921875 -0.859375 -4.234375q-0.90625 -1.3125 -2.6875 -1.3125q-0.765625 0 -1.5625 0.28125q-0.78125 0.265625 -1.609375 0.875q-0.828125 0.609375 -1.765625 1.5625q-0.921875 0.953125 -1.984375 2.296875l0 14.28125l-3.890625 0l0 -22.21875zm22.874756 11.578125q0 -2.84375 0.78125 -5.046875q0.78125 -2.203125 2.203125 -3.71875q1.421875 -1.515625 3.421875 -2.296875q2.015625 -0.78125 4.46875 -0.78125q1.0625 0 2.09375 0.140625q1.03125 0.125 2.015625 0.40625l0 -9.34375l3.875 0l0 31.28125l-3.453125 0l-0.125 -4.203125q-1.625 2.34375 -3.5 3.46875q-1.875 1.125 -4.078125 1.125q-1.890625 0 -3.34375 -0.78125q-1.453125 -0.796875 -2.421875 -2.25q-0.953125 -1.453125 -1.453125 -3.484375q-0.484375 -2.046875 -0.484375 -4.515625zm3.953125 -0.25q0 4.03125 1.171875 6.015625q1.1875 1.96875 3.359375 1.96875q1.453125 0 3.078125 -1.296875q1.640625 -1.3125 3.421875 -3.875l0 -10.3125q-0.953125 -0.4375 -2.109375 -0.671875q-1.140625 -0.234375 -2.265625 -0.234375q-3.140625 0 -4.90625 2.03125q-1.75 2.03125 -1.75 6.375zm36.374756 10.890625l-0.078125 -2.984375q-1.828125 1.796875 -3.703125 2.59375q-1.859375 0.78125 -3.921875 0.78125q-1.890625 0 -3.25 -0.484375q-1.34375 -0.484375 -2.21875 -1.328125q-0.875 -0.859375 -1.296875 -2.0q-0.40625 -1.15625 -0.40625 -2.515625q0 -3.34375 2.484375 -5.234375q2.5 -1.890625 7.375 -1.890625l4.59375 0l0 -1.9375q0 -1.96875 -1.265625 -3.15625q-1.25 -1.1875 -3.84375 -1.1875q-1.875 0 -3.703125 0.421875q-1.828125 0.421875 -3.78125 1.1875l0 -3.46875q0.734375 -0.265625 1.625 -0.515625q0.90625 -0.265625 1.890625 -0.453125q1.0 -0.203125 2.078125 -0.328125q1.09375 -0.125 2.203125 -0.125q2.015625 0 3.625 0.453125q1.625 0.4375 2.734375 1.34375q1.125 0.90625 1.71875 2.28125q0.59375 1.375 0.59375 3.234375l0 15.3125l-3.453125 0zm-0.421875 -10.109375l-4.890625 0q-1.4375 0 -2.484375 0.28125q-1.03125 0.28125 -1.703125 0.8125q-0.65625 0.53125 -0.984375 1.28125q-0.3125 0.734375 -0.3125 1.671875q0 0.640625 0.203125 1.234375q0.203125 0.578125 0.640625 1.03125q0.4375 0.453125 1.140625 0.71875q0.71875 0.265625 1.734375 0.265625q1.328125 0 3.046875 -0.796875q1.71875 -0.8125 3.609375 -2.5625l0 -3.9375zm28.9841 9.796875q-1.3125 0.328125 -2.703125 0.46875q-1.390625 0.15625 -2.84375 0.15625q-4.171875 0 -6.234375 -1.890625q-2.0625 -1.890625 -2.0625 -5.8125l0 -11.59375l-6.21875 0l0 -3.234375l6.21875 0l0 -6.109375l3.859375 -1.0l0 7.109375l9.984375 0l0 3.234375l-9.984375 0l0 11.28125q0 2.390625 1.265625 3.578125q1.28125 1.1875 3.75 1.1875q1.0625 0 2.328125 -0.171875q1.265625 -0.171875 2.640625 -0.515625l0 3.3125zm21.280975 0.3125l-0.078125 -2.984375q-1.828125 1.796875 -3.703125 2.59375q-1.859375 0.78125 -3.921875 0.78125q-1.890625 0 -3.25 -0.484375q-1.34375 -0.484375 -2.21875 -1.328125q-0.875 -0.859375 -1.296875 -2.0q-0.40625 -1.15625 -0.40625 -2.515625q0 -3.34375 2.484375 -5.234375q2.5 -1.890625 7.375 -1.890625l4.59375 0l0 -1.9375q0 -1.96875 -1.265625 -3.15625q-1.25 -1.1875 -3.84375 -1.1875q-1.875 0 -3.703125 0.421875q-1.828125 0.421875 -3.78125 1.1875l0 -3.46875q0.734375 -0.265625 1.625 -0.515625q0.90625 -0.265625 1.890625 -0.453125q1.0 -0.203125 2.078125 -0.328125q1.09375 -0.125 2.203125 -0.125q2.015625 0 3.625 0.453125q1.625 0.4375 2.734375 1.34375q1.125 0.90625 1.71875 2.28125q0.59375 1.375 0.59375 3.234375l0 15.3125l-3.453125 0zm-0.421875 -10.109375l-4.890625 0q-1.4375 0 -2.484375 0.28125q-1.03125 0.28125 -1.703125 0.8125q-0.65625 0.53125 -0.984375 1.28125q-0.3125 0.734375 -0.3125 1.671875q0 0.640625 0.203125 1.234375q0.203125 0.578125 0.640625 1.03125q0.4375 0.453125 1.140625 0.71875q0.71875 0.265625 1.734375 0.265625q1.328125 0 3.046875 -0.796875q1.71875 -0.8125 3.609375 -2.5625l0 -3.9375z" fill-rule="nonzero"/><path fill="#000000" fill-opacity="0.0" d="m550.7503 375.83746l693.76373 0" fill-rule="evenodd"/><path stroke="#000000" stroke-width="4.0" stroke-linejoin="round" stroke-linecap="butt" d="m550.7503 375.83743l680.0555 0" fill-rule="evenodd"/><path fill="#000000" stroke="#000000" stroke-width="4.0" stroke-linecap="butt" d="m1230.8058 375.83743l-4.498413 4.4983215l12.359131 -4.4983215l-12.359131 -4.4983215z" fill-rule="evenodd"/><path fill="#000000" fill-opacity="0.0" d="m30.738829 180.26726l485.7638 0l0 86.645676l-485.7638 0z" fill-rule="evenodd"/><path fill="#000000" d="m212.38098 249.18822l-1.640625 0q-4.28125 0 -6.359375 -2.015625q-2.078125 -2.0 -2.078125 -6.0625153l0 -7.625q0 -1.078125 -0.25 -1.921875q-0.234375 -0.859375 -0.84375 -1.4375q-0.609375 -0.59375 -1.625 -0.90625q-1.0 -0.3125 -2.53125 -0.3125l-0.953125 0l0 -3.078125l0.953125 0q1.625 0 2.640625 -0.265625q1.015625 -0.265625 1.59375 -0.796875q0.578125 -0.546875 0.796875 -1.390625q0.21875 -0.84375 0.21875 -1.984375l0 -5.25q0 -1.859375 0.4375 -3.34375q0.453125 -1.5 1.453125 -2.546875q1.015625 -1.0625 2.609375 -1.625q1.609375 -0.5625 3.9375 -0.5625l1.640625 0l0 3.09375l-1.3125 0q-5.140625 0 -5.140625 4.984375l0 5.15625q0 5.40625 -4.65625 6.09375q4.703125 0.453125 4.703125 6.0625l0 7.5625q0 5.0625153 5.09375 5.0625153l1.3125 0l0 3.109375zm27.546616 -29.156265q0 1.78125 -0.671875 3.515625q-0.65625 1.734375 -2.046875 3.109375q-1.390625 1.375 -3.5625 2.234375q-2.171875 0.84375 -5.1875 0.84375l-3.578125 0l0 10.375l-3.9375 0l0 -28.921875l8.140625 0q2.140625 0 4.109375 0.484375q1.984375 0.46875 3.46875 1.53125q1.5 1.0625 2.375 2.75q0.890625 1.671875 0.890625 4.078125zm-4.09375 0.1875q0 -2.796875 -1.828125 -4.28125q-1.828125 -1.484375 -5.09375 -1.484375l-4.03125 0l0 11.90625l3.671875 0q3.5 0 5.390625 -1.515625q1.890625 -1.53125 1.890625 -4.625zm24.34349 19.890625l-0.078125 -2.984375q-1.828125 1.796875 -3.703125 2.59375q-1.859375 0.78125 -3.921875 0.78125q-1.890625 0 -3.25 -0.484375q-1.34375 -0.484375 -2.21875 -1.328125q-0.875 -0.859375 -1.296875 -2.0q-0.40625 -1.15625 -0.40625 -2.515625q0 -3.34375 2.484375 -5.234375q2.5 -1.890625 7.375 -1.890625l4.59375 0l0 -1.9375q0 -1.96875 -1.265625 -3.15625q-1.25 -1.1875 -3.84375 -1.1875q-1.875 0 -3.703125 0.421875q-1.828125 0.421875 -3.78125 1.1875l0 -3.46875q0.734375 -0.265625 1.625 -0.515625q0.90625 -0.265625 1.890625 -0.453125q1.0 -0.203125 2.078125 -0.328125q1.09375 -0.125 2.203125 -0.125q2.015625 0 3.625 0.453125q1.625 0.4375 2.734375 1.34375q1.125 0.90625 1.71875 2.28125q0.59375 1.375 0.59375 3.234375l0 15.3125l-3.453125 0zm-0.421875 -10.109375l-4.890625 0q-1.4375 0 -2.484375 0.28125q-1.03125 0.28125 -1.703125 0.8125q-0.65625 0.53125 -0.984375 1.28125q-0.3125 0.734375 -0.3125 1.671875q0 0.640625 0.203125 1.234375q0.203125 0.578125 0.640625 1.03125q0.4375 0.453125 1.140625 0.71875q0.71875 0.265625 1.734375 0.265625q1.328125 0 3.046875 -0.796875q1.71875 -0.8125 3.609375 -2.5625l0 -3.9375zm9.937225 -0.53125q0 -2.84375 0.78125 -5.046875q0.78125 -2.203125 2.203125 -3.71875q1.421875 -1.515625 3.421875 -2.296875q2.015625 -0.78125 4.46875 -0.78125q1.0625 0 2.09375 0.140625q1.03125 0.125 2.015625 0.40625l0 -9.34375l3.875 0l0 31.28125l-3.453125 0l-0.125 -4.203125q-1.625 2.34375 -3.5 3.46875q-1.875 1.125 -4.078125 1.125q-1.890625 0 -3.34375 -0.78125q-1.453125 -0.796875 -2.421875 -2.25q-0.953125 -1.453125 -1.453125 -3.484375q-0.484375 -2.046875 -0.484375 -4.515625zm3.953125 -0.25q0 4.03125 1.171875 6.015625q1.1875 1.96875 3.359375 1.96875q1.453125 0 3.078125 -1.296875q1.640625 -1.3125 3.421875 -3.875l0 -10.3125q-0.953125 -0.4375 -2.109375 -0.671875q-1.140625 -0.234375 -2.265625 -0.234375q-3.140625 0 -4.90625 2.03125q-1.75 2.03125 -1.75 6.375zm40.874756 3.625q0 1.84375 -0.75 3.28125q-0.75 1.421875 -2.109375 2.390625q-1.34375 0.96875 -3.1875 1.484375q-1.828125 0.5 -3.984375 0.5q-2.359375 0 -4.171875 -0.515625q-1.796875 -0.53125 -3.015625 -1.484375q-1.21875 -0.953125 -1.84375 -2.25q-0.609375 -1.3125 -0.609375 -2.890625q0 -2.65625 1.46875 -4.578125q1.484375 -1.921875 4.59375 -3.5q-2.84375 -1.4375 -4.15625 -3.1875q-1.296875 -1.765625 -1.296875 -4.046875q0 -1.390625 0.578125 -2.703125q0.578125 -1.3125 1.734375 -2.328125q1.171875 -1.015625 2.90625 -1.625q1.75 -0.609375 4.125 -0.609375q2.234375 0 3.921875 0.484375q1.703125 0.46875 2.84375 1.359375q1.15625 0.875 1.734375 2.140625q0.578125 1.265625 0.578125 2.8125q0 2.515625 -1.40625 4.296875q-1.40625 1.765625 -4.0 3.09375q1.28125 0.640625 2.390625 1.421875q1.109375 0.765625 1.921875 1.71875q0.828125 0.953125 1.28125 2.125q0.453125 1.171875 0.453125 2.609375zm-4.578125 -14.953125q0 -1.96875 -1.390625 -2.921875q-1.375 -0.96875 -3.890625 -0.96875q-2.46875 0 -3.859375 0.953125q-1.375 0.9375 -1.375 2.84375q0 0.859375 0.328125 1.59375q0.328125 0.734375 1.03125 1.375q0.703125 0.640625 1.734375 1.265625q1.046875 0.609375 2.484375 1.25q2.5 -1.171875 3.71875 -2.4375q1.21875 -1.28125 1.21875 -2.953125zm0.390625 15.25q0 -0.828125 -0.265625 -1.59375q-0.265625 -0.78125 -0.953125 -1.53125q-0.6875 -0.75 -1.84375 -1.5q-1.140625 -0.75 -2.90625 -1.546875q-1.515625 0.71875 -2.546875 1.4375q-1.015625 0.71875 -1.65625 1.46875q-0.625 0.734375 -0.890625 1.53125q-0.265625 0.796875 -0.265625 1.6875q0 1.0 0.421875 1.765625q0.4375 0.75 1.1875 1.28125q0.75 0.53125 1.796875 0.796875q1.046875 0.265625 2.25 0.265625q1.1875 0 2.21875 -0.234375q1.046875 -0.25 1.796875 -0.734375q0.765625 -0.5 1.203125 -1.265625q0.453125 -0.765625 0.453125 -1.828125zm29.76538 -7.484375q0 3.3125 -0.671875 6.046875q-0.65625 2.734375 -2.0 4.703125q-1.34375 1.953125 -3.359375 3.03125q-2.0 1.0625 -4.703125 1.0625q-2.3125 0 -4.21875 -0.859375q-1.90625 -0.875 -3.265625 -2.6875q-1.34375 -1.828125 -2.078125 -4.640625q-0.71875 -2.8125 -0.71875 -6.65625q0 -3.3125 0.671875 -6.0625q0.671875 -2.75 2.0 -4.703125q1.34375 -1.953125 3.359375 -3.03125q2.015625 -1.078125 4.703125 -1.078125q2.3125 0 4.21875 0.875q1.90625 0.875 3.25 2.703125q1.359375 1.828125 2.078125 4.640625q0.734375 2.8125 0.734375 6.65625zm-3.890625 0.140625q0 -0.765625 -0.0625 -1.5q-0.046875 -0.75 -0.109375 -1.453125l-12.25 9.09375q0.34375 1.15625 0.84375 2.140625q0.515625 0.96875 1.234375 1.671875q0.71875 0.6875 1.625 1.078125q0.921875 0.375 2.09375 0.375q1.515625 0 2.734375 -0.71875q1.234375 -0.734375 2.09375 -2.171875q0.875 -1.4375 1.328125 -3.578125q0.46875 -2.140625 0.46875 -4.9375zm-13.234375 -0.265625q0 0.671875 0 1.359375q0.015625 0.6875 0.09375 1.328125l12.234375 -9.046875q-0.328125 -1.125 -0.84375 -2.046875q-0.5 -0.9375 -1.21875 -1.609375q-0.703125 -0.6875 -1.609375 -1.0625q-0.90625 -0.375 -2.046875 -0.375q-1.5 0 -2.734375 0.734375q-1.21875 0.734375 -2.09375 2.1875q-0.859375 1.4375 -1.328125 3.578125q-0.453125 2.140625 -0.453125 4.953125zm24.343475 19.10939q1.125 0.046875 2.1875 -0.203125q1.0625 -0.23439026 1.875 -0.71876526q0.8125 -0.46875 1.296875 -1.1875q0.484375 -0.703125 0.484375 -1.609375q0 -0.921875 -0.328125 -1.5q-0.3125 -0.578125 -0.71875 -1.0625q-0.390625 -0.484375 -0.71875 -1.03125q-0.3125 -0.5625 -0.3125 -1.484375q0 -0.46875 0.171875 -0.96875q0.1875 -0.515625 0.546875 -0.9375q0.359375 -0.421875 0.921875 -0.6875q0.578125 -0.265625 1.34375 -0.265625q0.78125 0 1.5 0.328125q0.71875 0.3125 1.25 0.984375q0.546875 0.65625 0.859375 1.65625q0.328125 0.984375 0.328125 2.34375q0 1.828125 -0.671875 3.515625q-0.671875 1.703125 -2.015625 3.0000153q-1.34375 1.3125 -3.34375 2.078125q-2.0 0.78125 -4.65625 0.78125l0 -3.03125zm42.14035 -24.60939q0 1.78125 -0.671875 3.515625q-0.65625 1.734375 -2.046875 3.109375q-1.390625 1.375 -3.5625 2.234375q-2.171875 0.84375 -5.1875 0.84375l-3.578125 0l0 10.375l-3.9375 0l0 -28.921875l8.140625 0q2.140625 0 4.109375 0.484375q1.984375 0.46875 3.46875 1.53125q1.5 1.0625 2.375 2.75q0.890625 1.671875 0.890625 4.078125zm-4.09375 0.1875q0 -2.796875 -1.828125 -4.28125q-1.828125 -1.484375 -5.09375 -1.484375l-4.03125 0l0 11.90625l3.671875 0q3.5 0 5.390625 -1.515625q1.890625 -1.53125 1.890625 -4.625zm24.343506 19.890625l-0.078125 -2.984375q-1.828125 1.796875 -3.703125 2.59375q-1.859375 0.78125 -3.921875 0.78125q-1.890625 0 -3.25 -0.484375q-1.34375 -0.484375 -2.21875 -1.328125q-0.875 -0.859375 -1.296875 -2.0q-0.40625 -1.15625 -0.40625 -2.515625q0 -3.34375 2.484375 -5.234375q2.5 -1.890625 7.375 -1.890625l4.59375 0l0 -1.9375q0 -1.96875 -1.265625 -3.15625q-1.25 -1.1875 -3.84375 -1.1875q-1.875 0 -3.703125 0.421875q-1.828125 0.421875 -3.78125 1.1875l0 -3.46875q0.734375 -0.265625 1.625 -0.515625q0.90625 -0.265625 1.890625 -0.453125q1.0 -0.203125 2.078125 -0.328125q1.09375 -0.125 2.203125 -0.125q2.015625 0 3.625 0.453125q1.625 0.4375 2.734375 1.34375q1.125 0.90625 1.71875 2.28125q0.59375 1.375 0.59375 3.234375l0 15.3125l-3.453125 0zm-0.421875 -10.109375l-4.890625 0q-1.4375 0 -2.484375 0.28125q-1.03125 0.28125 -1.703125 0.8125q-0.65625 0.53125 -0.984375 1.28125q-0.3125 0.734375 -0.3125 1.671875q0 0.640625 0.203125 1.234375q0.203125 0.578125 0.640625 1.03125q0.4375 0.453125 1.140625 0.71875q0.71875 0.265625 1.734375 0.265625q1.328125 0 3.046875 -0.796875q1.71875 -0.8125 3.609375 -2.5625l0 -3.9375zm9.937256 -0.53125q0 -2.84375 0.78125 -5.046875q0.78125 -2.203125 2.203125 -3.71875q1.421875 -1.515625 3.421875 -2.296875q2.015625 -0.78125 4.46875 -0.78125q1.0625 0 2.09375 0.140625q1.03125 0.125 2.015625 0.40625l0 -9.34375l3.875 0l0 31.28125l-3.453125 0l-0.125 -4.203125q-1.625 2.34375 -3.5 3.46875q-1.875 1.125 -4.078125 1.125q-1.890625 0 -3.34375 -0.78125q-1.453125 -0.796875 -2.421875 -2.25q-0.953125 -1.453125 -1.453125 -3.484375q-0.484375 -2.046875 -0.484375 -4.515625zm3.953125 -0.25q0 4.03125 1.171875 6.015625q1.1875 1.96875 3.359375 1.96875q1.453125 0 3.078125 -1.296875q1.640625 -1.3125 3.421875 -3.875l0 -10.3125q-0.953125 -0.4375 -2.109375 -0.671875q-1.140625 -0.234375 -2.265625 -0.234375q-3.140625 0 -4.90625 2.03125q-1.75 2.03125 -1.75 6.375zm41.530975 -3.5625q0 3.3125 -0.671875 6.046875q-0.65625 2.734375 -2.0 4.703125q-1.34375 1.953125 -3.359375 3.03125q-2.0 1.0625 -4.703125 1.0625q-2.3125 0 -4.21875 -0.859375q-1.90625 -0.875 -3.265625 -2.6875q-1.34375 -1.828125 -2.078125 -4.640625q-0.71875 -2.8125 -0.71875 -6.65625q0 -3.3125 0.671875 -6.0625q0.671875 -2.75 2.0 -4.703125q1.34375 -1.953125 3.359375 -3.03125q2.015625 -1.078125 4.703125 -1.078125q2.3125 0 4.21875 0.875q1.90625 0.875 3.25 2.703125q1.359375 1.828125 2.078125 4.640625q0.734375 2.8125 0.734375 6.65625zm-3.890625 0.140625q0 -0.765625 -0.0625 -1.5q-0.046875 -0.75 -0.109375 -1.453125l-12.25 9.09375q0.34375 1.15625 0.84375 2.140625q0.515625 0.96875 1.234375 1.671875q0.71875 0.6875 1.625 1.078125q0.921875 0.375 2.09375 0.375q1.515625 0 2.734375 -0.71875q1.234375 -0.734375 2.09375 -2.171875q0.875 -1.4375 1.328125 -3.578125q0.46875 -2.140625 0.46875 -4.9375zm-13.234375 -0.265625q0 0.671875 0 1.359375q0.015625 0.6875 0.09375 1.328125l12.234375 -9.046875q-0.328125 -1.125 -0.84375 -2.046875q-0.5 -0.9375 -1.21875 -1.609375q-0.703125 -0.6875 -1.609375 -1.0625q-0.90625 -0.375 -2.046875 -0.375q-1.5 0 -2.734375 0.734375q-1.21875 0.734375 -2.09375 2.1875q-0.859375 1.4375 -1.328125 3.578125q-0.453125 2.140625 -0.453125 4.953125zm42.0466 0.125q0 3.3125 -0.671875 6.046875q-0.65625 2.734375 -2.0 4.703125q-1.34375 1.953125 -3.359375 3.03125q-2.0 1.0625 -4.703125 1.0625q-2.3125 0 -4.21875 -0.859375q-1.90625 -0.875 -3.265625 -2.6875q-1.34375 -1.828125 -2.078125 -4.640625q-0.71875 -2.8125 -0.71875 -6.65625q0 -3.3125 0.671875 -6.0625q0.671875 -2.75 2.0 -4.703125q1.34375 -1.953125 3.359375 -3.03125q2.015625 -1.078125 4.703125 -1.078125q2.3125 0 4.21875 0.875q1.90625 0.875 3.25 2.703125q1.359375 1.828125 2.078125 4.640625q0.734375 2.8125 0.734375 6.65625zm-3.890625 0.140625q0 -0.765625 -0.0625 -1.5q-0.046875 -0.75 -0.109375 -1.453125l-12.25 9.09375q0.34375 1.15625 0.84375 2.140625q0.515625 0.96875 1.234375 1.671875q0.71875 0.6875 1.625 1.078125q0.921875 0.375 2.09375 0.375q1.515625 0 2.734375 -0.71875q1.234375 -0.734375 2.09375 -2.171875q0.875 -1.4375 1.328125 -3.578125q0.46875 -2.140625 0.46875 -4.9375zm-13.234375 -0.265625q0 0.671875 0 1.359375q0.015625 0.6875 0.09375 1.328125l12.234375 -9.046875q-0.328125 -1.125 -0.84375 -2.046875q-0.5 -0.9375 -1.21875 -1.609375q-0.703125 -0.6875 -1.609375 -1.0625q-0.90625 -0.375 -2.046875 -0.375q-1.5 0 -2.734375 0.734375q-1.21875 0.734375 -2.09375 2.1875q-0.859375 1.4375 -1.328125 3.578125q-0.453125 2.140625 -0.453125 4.953125zm24.14038 -17.46875l1.640625 0q4.28125 0 6.359375 2.0q2.078125 2.0 2.078125 6.078125l0 5.109375q0 1.09375 0.234375 1.953125q0.25 0.84375 0.859375 1.4375q0.609375 0.578125 1.625 0.890625q1.015625 0.296875 2.546875 0.296875l0.953125 0l0 3.078125l-0.953125 0q-1.609375 0 -2.640625 0.265625q-1.03125 0.265625 -1.609375 0.8125q-0.578125 0.546875 -0.796875 1.390625q-0.21875 0.828125 -0.21875 1.984375l0 7.75q0 1.859375 -0.453125 3.3437653q-0.4375 1.5 -1.4375 2.546875q-0.984375 1.0625 -2.609375 1.625q-1.609375 0.5625 -3.9375 0.5625l-1.640625 0l0 -3.109375l1.328125 0q5.125 0 5.125 -4.9687653l0 -7.65625q0 -5.40625 4.65625 -6.0625q-4.703125 -0.515625 -4.703125 -6.09375l0 -5.0625q0 -5.078125 -5.078125 -5.078125l-1.328125 0l0 -3.09375z" fill-rule="nonzero"/><path fill="#000000" fill-opacity="0.0" d="m111.64853 399.2971l438.20474 0" fill-rule="evenodd"/><path stroke="#000000" stroke-width="4.0" stroke-linejoin="round" stroke-linecap="butt" d="m111.64853 399.2971l438.20474 0" fill-rule="evenodd"/><path fill="#000000" fill-opacity="0.0" d="m30.738829 312.66336l485.7638 0l0 86.64569l-485.7638 0z" fill-rule="evenodd"/><path fill="#000000" d="m414.3789 352.42807q0 1.78125 -0.671875 3.515625q-0.65625 1.734375 -2.046875 3.109375q-1.390625 1.375 -3.5625 2.234375q-2.171875 0.84375 -5.1875 0.84375l-3.578125 0l0 10.375l-3.9375 0l0 -28.921875l8.140625 0q2.140625 0 4.109375 0.484375q1.984375 0.46875 3.46875 1.53125q1.5 1.0625 2.375 2.75q0.890625 1.671875 0.890625 4.078125zm-4.09375 0.1875q0 -2.796875 -1.828125 -4.28125q-1.828125 -1.484375 -5.09375 -1.484375l-4.03125 0l0 11.90625l3.671875 0q3.5 0 5.390625 -1.515625q1.890625 -1.53125 1.890625 -4.625zm24.343506 19.890625l-0.078125 -2.984375q-1.828125 1.796875 -3.703125 2.59375q-1.859375 0.78125 -3.921875 0.78125q-1.890625 0 -3.25 -0.484375q-1.34375 -0.484375 -2.21875 -1.328125q-0.875 -0.859375 -1.296875 -2.0q-0.40625 -1.15625 -0.40625 -2.515625q0 -3.34375 2.484375 -5.234375q2.5 -1.890625 7.375 -1.890625l4.59375 0l0 -1.9375q0 -1.96875 -1.265625 -3.15625q-1.25 -1.1875 -3.84375 -1.1875q-1.875 0 -3.703125 0.421875q-1.828125 0.421875 -3.78125 1.1875l0 -3.46875q0.734375 -0.265625 1.625 -0.515625q0.90625 -0.265625 1.890625 -0.453125q1.0 -0.203125 2.078125 -0.328125q1.09375 -0.125 2.203125 -0.125q2.015625 0 3.625 0.453125q1.625 0.4375 2.734375 1.34375q1.125 0.90625 1.71875 2.28125q0.59375 1.375 0.59375 3.234375l0 15.3125l-3.453125 0zm-0.421875 -10.109375l-4.890625 0q-1.4375 0 -2.484375 0.28125q-1.03125 0.28125 -1.703125 0.8125q-0.65625 0.53125 -0.984375 1.28125q-0.3125 0.734375 -0.3125 1.671875q0 0.640625 0.203125 1.234375q0.203125 0.578125 0.640625 1.03125q0.4375 0.453125 1.140625 0.71875q0.71875 0.265625 1.734375 0.265625q1.328125 0 3.046875 -0.796875q1.71875 -0.8125 3.609375 -2.5625l0 -3.9375zm9.937225 -0.53125q0 -2.84375 0.78125 -5.046875q0.78125 -2.203125 2.203125 -3.71875q1.421875 -1.515625 3.421875 -2.296875q2.015625 -0.78125 4.46875 -0.78125q1.0625 0 2.09375 0.140625q1.03125 0.125 2.015625 0.40625l0 -9.34375l3.875 0l0 31.28125l-3.453125 0l-0.125 -4.203125q-1.625 2.34375 -3.5 3.46875q-1.875 1.125 -4.078125 1.125q-1.890625 0 -3.34375 -0.78125q-1.453125 -0.796875 -2.421875 -2.25q-0.953125 -1.453125 -1.453125 -3.484375q-0.484375 -2.046875 -0.484375 -4.515625zm3.953125 -0.25q0 4.03125 1.171875 6.015625q1.1875 1.96875 3.359375 1.96875q1.453125 0 3.078125 -1.296875q1.640625 -1.3125 3.421875 -3.875l0 -10.3125q-0.953125 -0.4375 -2.109375 -0.671875q-1.140625 -0.234375 -2.265625 -0.234375q-3.140625 0 -4.90625 2.03125q-1.75 2.03125 -1.75 6.375zm41.530975 -3.5625q0 3.3125 -0.671875 6.046875q-0.65625 2.734375 -2.0 4.703125q-1.34375 1.953125 -3.359375 3.03125q-2.0 1.0625 -4.703125 1.0625q-2.3125 0 -4.21875 -0.859375q-1.90625 -0.875 -3.265625 -2.6875q-1.34375 -1.828125 -2.078125 -4.640625q-0.71875 -2.8125 -0.71875 -6.65625q0 -3.3125 0.671875 -6.0625q0.671875 -2.75 2.0 -4.703125q1.34375 -1.953125 3.359375 -3.03125q2.015625 -1.078125 4.703125 -1.078125q2.3125 0 4.21875 0.875q1.90625 0.875 3.25 2.703125q1.359375 1.828125 2.078125 4.640625q0.734375 2.8125 0.734375 6.65625zm-3.890625 0.140625q0 -0.765625 -0.0625 -1.5q-0.046875 -0.75 -0.109375 -1.453125l-12.25 9.09375q0.34375 1.15625 0.84375 2.140625q0.515625 0.96875 1.234375 1.671875q0.71875 0.6875 1.625 1.078125q0.921875 0.375 2.09375 0.375q1.515625 0 2.734375 -0.71875q1.234375 -0.734375 2.09375 -2.171875q0.875 -1.4375 1.328125 -3.578125q0.46875 -2.140625 0.46875 -4.9375zm-13.234375 -0.265625q0 0.671875 0 1.359375q0.015625 0.6875 0.09375 1.328125l12.234375 -9.046875q-0.328125 -1.125 -0.84375 -2.046875q-0.5 -0.9375 -1.21875 -1.609375q-0.703125 -0.6875 -1.609375 -1.0625q-0.90625 -0.375 -2.046875 -0.375q-1.5 0 -2.734375 0.734375q-1.21875 0.734375 -2.09375 2.1875q-0.859375 1.4375 -1.328125 3.578125q-0.453125 2.140625 -0.453125 4.953125zm42.04663 0.125q0 3.3125 -0.671875 6.046875q-0.65625 2.734375 -2.0 4.703125q-1.34375 1.953125 -3.359375 3.03125q-2.0 1.0625 -4.703125 1.0625q-2.3125 0 -4.21875 -0.859375q-1.90625 -0.875 -3.265625 -2.6875q-1.34375 -1.828125 -2.078125 -4.640625q-0.71875 -2.8125 -0.71875 -6.65625q0 -3.3125 0.671875 -6.0625q0.671875 -2.75 2.0 -4.703125q1.34375 -1.953125 3.359375 -3.03125q2.015625 -1.078125 4.703125 -1.078125q2.3125 0 4.21875 0.875q1.90625 0.875 3.25 2.703125q1.359375 1.828125 2.078125 4.640625q0.734375 2.8125 0.734375 6.65625zm-3.890625 0.140625q0 -0.765625 -0.0625 -1.5q-0.046875 -0.75 -0.109375 -1.453125l-12.25 9.09375q0.34375 1.15625 0.84375 2.140625q0.515625 0.96875 1.234375 1.671875q0.71875 0.6875 1.625 1.078125q0.921875 0.375 2.09375 0.375q1.515625 0 2.734375 -0.71875q1.234375 -0.734375 2.09375 -2.171875q0.875 -1.4375 1.328125 -3.578125q0.46875 -2.140625 0.46875 -4.9375zm-13.234375 -0.265625q0 0.671875 0 1.359375q0.015625 0.6875 0.09375 1.328125l12.234375 -9.046875q-0.328125 -1.125 -0.84375 -2.046875q-0.5 -0.9375 -1.21875 -1.609375q-0.703125 -0.6875 -1.609375 -1.0625q-0.90625 -0.375 -2.046875 -0.375q-1.5 0 -2.734375 0.734375q-1.21875 0.734375 -2.09375 2.1875q-0.859375 1.4375 -1.328125 3.578125q-0.453125 2.140625 -0.453125 4.953125z" fill-rule="nonzero"/><path fill="#000000" fill-opacity="0.0" d="m111.64853 531.69324l438.20474 0" fill-rule="evenodd"/><path stroke="#000000" stroke-width="4.0" stroke-linejoin="round" stroke-linecap="butt" d="m111.64853 531.69324l438.20474 0" fill-rule="evenodd"/><path fill="#000000" fill-opacity="0.0" d="m30.738829 442.65787l485.7638 0l0 86.64566l-485.7638 0z" fill-rule="evenodd"/><path fill="#000000" d="m278.39584 474.39133l-6.578125 0l0 -3.171875l10.46875 0l0 28.078125l6.625 0l0 3.203125l-17.8125 0l0 -3.203125l7.296875 0l0 -24.90625zm36.124725 15.828125q0 0.8125 -0.03125 1.375q-0.015625 0.546875 -0.0625 1.03125l-15.59375 0q0 3.40625 1.890625 5.234375q1.90625 1.828125 5.5 1.828125q0.96875 0 1.9375 -0.078125q0.984375 -0.078125 1.890625 -0.203125q0.90625 -0.140625 1.734375 -0.296875q0.828125 -0.171875 1.53125 -0.375l0 3.171875q-1.5625 0.4375 -3.546875 0.703125q-1.984375 0.28125 -4.109375 0.28125q-2.84375 0 -4.90625 -0.765625q-2.0625 -0.78125 -3.390625 -2.25q-1.3125 -1.46875 -1.9375 -3.59375q-0.625 -2.140625 -0.625 -4.84375q0 -2.34375 0.671875 -4.4375q0.671875 -2.09375 1.96875 -3.671875q1.296875 -1.59375 3.171875 -2.515625q1.890625 -0.9375 4.28125 -0.9375q2.3125 0 4.109375 0.734375q1.796875 0.734375 3.015625 2.078125q1.234375 1.328125 1.859375 3.25q0.640625 1.90625 0.640625 4.28125zm-4.015625 -0.5625q0.078125 -1.46875 -0.28125 -2.703125q-0.359375 -1.234375 -1.109375 -2.109375q-0.734375 -0.890625 -1.84375 -1.390625q-1.09375 -0.5 -2.5625 -0.5q-1.25 0 -2.296875 0.5q-1.046875 0.484375 -1.796875 1.375q-0.75 0.875 -1.21875 2.125q-0.453125 1.234375 -0.5625 2.703125l11.671875 0zm10.171631 -9.375l3.421875 0l0.15625 3.578125q0.96875 -1.140625 1.875 -1.90625q0.921875 -0.765625 1.78125 -1.234375q0.875 -0.46875 1.78125 -0.65625q0.921875 -0.1875 1.890625 -0.1875q3.4375 0 5.1875 2.03125q1.765625 2.03125 1.765625 6.09375l0 14.5l-3.859375 0l0 -14.1875q0 -2.609375 -0.96875 -3.859375q-0.96875 -1.25 -2.90625 -1.25q-0.703125 0 -1.375 0.21875q-0.671875 0.203125 -1.40625 0.71875q-0.734375 0.515625 -1.59375 1.40625q-0.84375 0.890625 -1.90625 2.21875l0 14.734375l-3.84375 0l0 -22.21875zm39.92163 31.296875l-10.90625 0l0 -41.125l10.90625 0l0 3.09375l-7.234375 0l0 34.921875l7.234375 0l0 3.109375zm29.0466 -18.234375q0 1.984375 -0.734375 3.734375q-0.71875 1.75 -2.046875 3.046875q-1.328125 1.296875 -3.203125 2.03125q-1.859375 0.734375 -4.140625 0.734375q-2.390625 0 -4.234375 -0.75q-1.828125 -0.765625 -3.078125 -2.34375q-1.234375 -1.59375 -1.875 -4.0q-0.640625 -2.421875 -0.640625 -5.71875q0 -2.203125 0.28125 -4.28125q0.296875 -2.09375 0.953125 -3.921875q0.671875 -1.84375 1.78125 -3.359375q1.109375 -1.53125 2.75 -2.625q1.65625 -1.09375 3.890625 -1.703125q2.234375 -0.609375 5.171875 -0.609375l2.859375 0l0 3.359375l-3.09375 0q-2.59375 0 -4.5 0.625q-1.90625 0.609375 -3.1875 1.75q-1.28125 1.125 -1.96875 2.71875q-0.6875 1.59375 -0.859375 3.5625l-0.09375 0.90625q1.390625 -0.828125 3.21875 -1.3125q1.828125 -0.5 3.953125 -0.5q2.1875 0 3.828125 0.640625q1.65625 0.640625 2.75 1.78125q1.109375 1.140625 1.65625 2.734375q0.5625 1.59375 0.5625 3.5zm-4.03125 0.234375q0 -1.328125 -0.328125 -2.390625q-0.3125 -1.078125 -1.0 -1.8125q-0.6875 -0.75 -1.75 -1.15625q-1.046875 -0.421875 -2.5 -0.421875q-0.84375 0 -1.71875 0.15625q-0.859375 0.15625 -1.6875 0.4375q-0.828125 0.28125 -1.578125 0.640625q-0.75 0.34375 -1.375 0.75q0 2.84375 0.390625 4.765625q0.40625 1.90625 1.1875 3.0625q0.796875 1.15625 1.9375 1.640625q1.15625 0.484375 2.65625 0.484375q1.265625 0 2.3125 -0.40625q1.0625 -0.40625 1.8125 -1.203125q0.765625 -0.796875 1.203125 -1.9375q0.4375 -1.140625 0.4375 -2.609375zm28.030975 0.140625q0 1.890625 -0.78125 3.5625q-0.765625 1.671875 -2.3125 2.921875q-1.546875 1.25 -3.890625 1.96875q-2.34375 0.71875 -5.46875 0.71875q-1.734375 0 -3.109375 -0.109375q-1.359375 -0.109375 -2.5625 -0.28125l0 -3.453125q1.375 0.25 2.90625 0.390625q1.53125 0.125 3.125 0.125q2.15625 0 3.6875 -0.390625q1.546875 -0.390625 2.515625 -1.109375q0.984375 -0.734375 1.421875 -1.78125q0.453125 -1.046875 0.453125 -2.34375q0 -1.203125 -0.53125 -2.078125q-0.53125 -0.890625 -1.5 -1.484375q-0.96875 -0.59375 -2.3125 -0.890625q-1.328125 -0.3125 -2.921875 -0.3125l-3.296875 0l0 -3.15625l3.34375 0q1.296875 0 2.375 -0.34375q1.078125 -0.34375 1.84375 -0.984375q0.765625 -0.640625 1.171875 -1.578125q0.40625 -0.953125 0.40625 -2.140625q0 -2.328125 -1.421875 -3.390625q-1.40625 -1.0625 -4.15625 -1.0625q-1.453125 0 -3.015625 0.296875q-1.546875 0.28125 -3.3125 0.859375l0 -3.375q0.75 -0.265625 1.59375 -0.46875q0.859375 -0.21875 1.703125 -0.359375q0.859375 -0.140625 1.703125 -0.21875q0.84375 -0.078125 1.609375 -0.078125q2.3125 0 4.0625 0.5q1.75 0.5 2.921875 1.4375q1.171875 0.921875 1.765625 2.25q0.59375 1.328125 0.59375 2.984375q0 2.484375 -1.28125 4.171875q-1.265625 1.671875 -3.46875 2.671875q1.125 0.171875 2.21875 0.703125q1.09375 0.53125 1.96875 1.359375q0.875 0.828125 1.40625 1.96875q0.546875 1.125 0.546875 2.5zm15.624756 -13.84375q0.6875 0 1.3125 0.28125q0.625 0.28125 1.078125 0.75q0.46875 0.453125 0.75 1.078125q0.28125 0.625 0.28125 1.296875q0 0.71875 -0.28125 1.328125q-0.28125 0.609375 -0.75 1.078125q-0.453125 0.453125 -1.078125 0.71875q-0.625 0.265625 -1.3125 0.265625q-0.703125 0 -1.3125 -0.265625q-0.609375 -0.265625 -1.078125 -0.71875q-0.453125 -0.46875 -0.71875 -1.078125q-0.265625 -0.609375 -0.265625 -1.328125q0 -0.671875 0.265625 -1.296875q0.265625 -0.625 0.71875 -1.078125q0.46875 -0.46875 1.078125 -0.75q0.609375 -0.28125 1.3125 -0.28125zm0 16.234375q0.6875 0 1.3125 0.28125q0.625 0.265625 1.078125 0.734375q0.46875 0.46875 0.75 1.09375q0.28125 0.609375 0.28125 1.296875q0 0.703125 -0.28125 1.3125q-0.28125 0.609375 -0.75 1.078125q-0.453125 0.46875 -1.078125 0.71875q-0.625 0.265625 -1.3125 0.265625q-0.703125 0 -1.3125 -0.265625q-0.609375 -0.25 -1.078125 -0.71875q-0.453125 -0.46875 -0.71875 -1.078125q-0.265625 -0.609375 -0.265625 -1.3125q0 -0.6875 0.265625 -1.296875q0.265625 -0.625 0.71875 -1.09375q0.46875 -0.46875 1.078125 -0.734375q0.609375 -0.28125 1.3125 -0.28125zm34.218506 -2.390625q0 1.890625 -0.78125 3.5625q-0.765625 1.671875 -2.3125 2.921875q-1.546875 1.25 -3.890625 1.96875q-2.34375 0.71875 -5.46875 0.71875q-1.734375 0 -3.109375 -0.109375q-1.359375 -0.109375 -2.5625 -0.28125l0 -3.453125q1.375 0.25 2.90625 0.390625q1.53125 0.125 3.125 0.125q2.15625 0 3.6875 -0.390625q1.546875 -0.390625 2.515625 -1.109375q0.984375 -0.734375 1.421875 -1.78125q0.453125 -1.046875 0.453125 -2.34375q0 -1.203125 -0.53125 -2.078125q-0.53125 -0.890625 -1.5 -1.484375q-0.96875 -0.59375 -2.3125 -0.890625q-1.328125 -0.3125 -2.921875 -0.3125l-3.296875 0l0 -3.15625l3.34375 0q1.296875 0 2.375 -0.34375q1.078125 -0.34375 1.84375 -0.984375q0.765625 -0.640625 1.171875 -1.578125q0.40625 -0.953125 0.40625 -2.140625q0 -2.328125 -1.421875 -3.390625q-1.40625 -1.0625 -4.15625 -1.0625q-1.453125 0 -3.015625 0.296875q-1.546875 0.28125 -3.3125 0.859375l0 -3.375q0.75 -0.265625 1.59375 -0.46875q0.859375 -0.21875 1.703125 -0.359375q0.859375 -0.140625 1.703125 -0.21875q0.84375 -0.078125 1.609375 -0.078125q2.3125 0 4.0625 0.5q1.75 0.5 2.921875 1.4375q1.171875 0.921875 1.765625 2.25q0.59375 1.328125 0.59375 2.984375q0 2.484375 -1.28125 4.171875q-1.265625 1.671875 -3.46875 2.671875q1.125 0.171875 2.21875 0.703125q1.09375 0.53125 1.96875 1.359375q0.875 0.828125 1.40625 1.96875q0.546875 1.125 0.546875 2.5zm25.4841 8.78125l-19.0625 0l0 -3.453125l7.484375 -7.4375q1.84375 -1.8125 2.984375 -3.140625q1.15625 -1.328125 1.796875 -2.421875q0.640625 -1.09375 0.859375 -2.0625q0.21875 -0.984375 0.21875 -2.109375q0 -1.0625 -0.28125 -2.015625q-0.28125 -0.96875 -0.890625 -1.703125q-0.59375 -0.734375 -1.546875 -1.15625q-0.953125 -0.421875 -2.28125 -0.421875q-1.828125 0 -3.34375 0.828125q-1.5 0.8125 -2.765625 2.125l-2.125 -2.546875q1.640625 -1.734375 3.78125 -2.765625q2.140625 -1.046875 4.96875 -1.046875q1.921875 0 3.5 0.578125q1.59375 0.578125 2.734375 1.671875q1.15625 1.078125 1.78125 2.65625q0.640625 1.5625 0.640625 3.53125q0 1.65625 -0.453125 3.078125q-0.4375 1.40625 -1.34375 2.8125q-0.890625 1.40625 -2.25 2.921875q-1.359375 1.5 -3.21875 3.296875l-5.25 5.109375l14.0625 0l0 3.671875zm19.89035 9.078125l-10.90625 0l0 -3.109375l7.1875 0l0 -34.921875l-7.1875 0l0 -3.09375l10.90625 0l0 41.125z" fill-rule="nonzero"/><path fill="#000000" fill-opacity="0.0" d="m111.64853 659.28613l438.20474 0" fill-rule="evenodd"/><path stroke="#000000" stroke-width="4.0" stroke-linejoin="round" stroke-linecap="butt" d="m111.64853 659.28613l438.20474 0" fill-rule="evenodd"/><path fill="#000000" fill-opacity="0.0" d="m30.738829 572.6524l485.7638 0l0 86.64563l-485.7638 0z" fill-rule="evenodd"/><path fill="#000000" d="m303.31744 604.38586l-6.578125 0l0 -3.171875l10.46875 0l0 28.078125l6.625 0l0 3.203125l-17.8125 0l0 -3.203125l7.296875 0l0 -24.90625zm36.124756 15.828125q0 0.8125 -0.03125 1.375q-0.015625 0.546875 -0.0625 1.03125l-15.59375 0q0 3.40625 1.890625 5.234375q1.90625 1.828125 5.5 1.828125q0.96875 0 1.9375 -0.078125q0.984375 -0.078125 1.890625 -0.203125q0.90625 -0.140625 1.734375 -0.296875q0.828125 -0.171875 1.53125 -0.375l0 3.171875q-1.5625 0.4375 -3.546875 0.703125q-1.984375 0.28125 -4.109375 0.28125q-2.84375 0 -4.90625 -0.765625q-2.0625 -0.78125 -3.390625 -2.25q-1.3125 -1.46875 -1.9375 -3.59375q-0.625 -2.140625 -0.625 -4.84375q0 -2.34375 0.671875 -4.4375q0.671875 -2.09375 1.96875 -3.671875q1.296875 -1.59375 3.171875 -2.515625q1.890625 -0.9375 4.28125 -0.9375q2.3125 0 4.109375 0.734375q1.796875 0.734375 3.015625 2.078125q1.234375 1.328125 1.859375 3.25q0.640625 1.90625 0.640625 4.28125zm-4.015625 -0.5625q0.078125 -1.46875 -0.28125 -2.703125q-0.359375 -1.234375 -1.109375 -2.109375q-0.734375 -0.890625 -1.84375 -1.390625q-1.09375 -0.5 -2.5625 -0.5q-1.25 0 -2.296875 0.5q-1.046875 0.484375 -1.796875 1.375q-0.75 0.875 -1.21875 2.125q-0.453125 1.234375 -0.5625 2.703125l11.671875 0zm10.1716 -9.375l3.421875 0l0.15625 3.578125q0.96875 -1.140625 1.875 -1.90625q0.921875 -0.765625 1.78125 -1.234375q0.875 -0.46875 1.78125 -0.65625q0.921875 -0.1875 1.890625 -0.1875q3.4375 0 5.1875 2.03125q1.765625 2.03125 1.765625 6.09375l0 14.5l-3.859375 0l0 -14.1875q0 -2.609375 -0.96875 -3.859375q-0.96875 -1.25 -2.90625 -1.25q-0.703125 0 -1.375 0.21875q-0.671875 0.203125 -1.40625 0.71875q-0.734375 0.515625 -1.59375 1.40625q-0.84375 0.890625 -1.90625 2.21875l0 14.734375l-3.84375 0l0 -22.21875zm39.9216 31.296875l-10.90625 0l0 -41.125l10.90625 0l0 3.09375l-7.234375 0l0 34.921875l7.234375 0l0 3.109375zm28.124756 -17.859375q0 1.890625 -0.78125 3.5625q-0.765625 1.671875 -2.3125 2.921875q-1.546875 1.25 -3.890625 1.96875q-2.34375 0.71875 -5.46875 0.71875q-1.734375 0 -3.109375 -0.109375q-1.359375 -0.109375 -2.5625 -0.28125l0 -3.453125q1.375 0.25 2.90625 0.390625q1.53125 0.125 3.125 0.125q2.15625 0 3.6875 -0.390625q1.546875 -0.390625 2.515625 -1.109375q0.984375 -0.734375 1.421875 -1.78125q0.453125 -1.046875 0.453125 -2.34375q0 -1.203125 -0.53125 -2.078125q-0.53125 -0.890625 -1.5 -1.484375q-0.96875 -0.59375 -2.3125 -0.890625q-1.328125 -0.3125 -2.921875 -0.3125l-3.296875 0l0 -3.15625l3.34375 0q1.296875 0 2.375 -0.34375q1.078125 -0.34375 1.84375 -0.984375q0.765625 -0.640625 1.171875 -1.578125q0.40625 -0.953125 0.40625 -2.140625q0 -2.328125 -1.421875 -3.390625q-1.40625 -1.0625 -4.15625 -1.0625q-1.453125 0 -3.015625 0.296875q-1.546875 0.28125 -3.3125 0.859375l0 -3.375q0.75 -0.265625 1.59375 -0.46875q0.859375 -0.21875 1.703125 -0.359375q0.859375 -0.140625 1.703125 -0.21875q0.84375 -0.078125 1.609375 -0.078125q2.3125 0 4.0625 0.5q1.75 0.5 2.921875 1.4375q1.171875 0.921875 1.765625 2.25q0.59375 1.328125 0.59375 2.984375q0 2.484375 -1.28125 4.171875q-1.265625 1.671875 -3.46875 2.671875q1.125 0.171875 2.21875 0.703125q1.09375 0.53125 1.96875 1.359375q0.875 0.828125 1.40625 1.96875q0.546875 1.125 0.546875 2.5zm25.23413 8.78125l-18.171875 0l0 -3.578125l7.4375 0l0 -21.125l-6.921875 3.765625l-1.421875 -3.28125l9.203125 -4.84375l3.421875 0l0 25.484375l6.453125 0l0 3.578125zm15.312225 -22.625q0.6875 0 1.3125 0.28125q0.625 0.28125 1.078125 0.75q0.46875 0.453125 0.75 1.078125q0.28125 0.625 0.28125 1.296875q0 0.71875 -0.28125 1.328125q-0.28125 0.609375 -0.75 1.078125q-0.453125 0.453125 -1.078125 0.71875q-0.625 0.265625 -1.3125 0.265625q-0.703125 0 -1.3125 -0.265625q-0.609375 -0.265625 -1.078125 -0.71875q-0.453125 -0.46875 -0.71875 -1.078125q-0.265625 -0.609375 -0.265625 -1.328125q0 -0.671875 0.265625 -1.296875q0.265625 -0.625 0.71875 -1.078125q0.46875 -0.46875 1.078125 -0.75q0.609375 -0.28125 1.3125 -0.28125zm0 16.234375q0.6875 0 1.3125 0.28125q0.625 0.265625 1.078125 0.734375q0.46875 0.46875 0.75 1.09375q0.28125 0.609375 0.28125 1.296875q0 0.703125 -0.28125 1.3125q-0.28125 0.609375 -0.75 1.078125q-0.453125 0.46875 -1.078125 0.71875q-0.625 0.265625 -1.3125 0.265625q-0.703125 0 -1.3125 -0.265625q-0.609375 -0.25 -1.078125 -0.71875q-0.453125 -0.46875 -0.71875 -1.078125q-0.265625 -0.609375 -0.265625 -1.3125q0 -0.6875 0.265625 -1.296875q0.265625 -0.625 0.71875 -1.09375q0.46875 -0.46875 1.078125 -0.734375q0.609375 -0.28125 1.3125 -0.28125zm35.437225 -8.0625q0 3.3125 -0.671875 6.046875q-0.65625 2.734375 -2.0 4.703125q-1.34375 1.953125 -3.359375 3.03125q-2.0 1.0625 -4.703125 1.0625q-2.3125 0 -4.21875 -0.859375q-1.90625 -0.875 -3.265625 -2.6875q-1.34375 -1.828125 -2.078125 -4.640625q-0.71875 -2.8125 -0.71875 -6.65625q0 -3.3125 0.671875 -6.0625q0.671875 -2.75 2.0 -4.703125q1.34375 -1.953125 3.359375 -3.03125q2.015625 -1.078125 4.703125 -1.078125q2.3125 0 4.21875 0.875q1.90625 0.875 3.25 2.703125q1.359375 1.828125 2.078125 4.640625q0.734375 2.8125 0.734375 6.65625zm-3.890625 0.140625q0 -0.765625 -0.0625 -1.5q-0.046875 -0.75 -0.109375 -1.453125l-12.25 9.09375q0.34375 1.15625 0.84375 2.140625q0.515625 0.96875 1.234375 1.671875q0.71875 0.6875 1.625 1.078125q0.921875 0.375 2.09375 0.375q1.515625 0 2.734375 -0.71875q1.234375 -0.734375 2.09375 -2.171875q0.875 -1.4375 1.328125 -3.578125q0.46875 -2.140625 0.46875 -4.9375zm-13.234375 -0.265625q0 0.671875 0 1.359375q0.015625 0.6875 0.09375 1.328125l12.234375 -9.046875q-0.328125 -1.125 -0.84375 -2.046875q-0.5 -0.9375 -1.21875 -1.609375q-0.703125 -0.6875 -1.609375 -1.0625q-0.90625 -0.375 -2.046875 -0.375q-1.5 0 -2.734375 0.734375q-1.21875 0.734375 -2.09375 2.1875q-0.859375 1.4375 -1.328125 3.578125q-0.453125 2.140625 -0.453125 4.953125zm36.35913 23.65625l-10.90625 0l0 -3.109375l7.1875 0l0 -34.921875l-7.1875 0l0 -3.09375l10.90625 0l0 41.125z" fill-rule="nonzero"/><path fill="#000000" fill-opacity="0.0" d="m111.63549 132.689l438.2047 0" fill-rule="evenodd"/><path stroke="#000000" stroke-width="4.0" stroke-linejoin="round" stroke-linecap="butt" d="m111.63549 132.689l438.2047 0" fill-rule="evenodd"/><path fill="#000000" fill-opacity="0.0" d="m669.55206 289.20374l485.76373 0l0 86.64566l-485.76373 0z" fill-rule="evenodd"/><path fill="#000000" d="m827.55383 342.98407q0 1.171875 -0.40625 2.109375q-0.390625 0.921875 -1.078125 1.640625q-0.6875 0.71875 -1.59375 1.234375q-0.90625 0.5 -1.9375 0.84375q-1.03125 0.328125 -2.125 0.46875q-1.078125 0.15625 -2.109375 0.15625q-2.265625 0 -4.15625 -0.203125q-1.890625 -0.1875 -3.703125 -0.625l0 -3.546875q1.9375 0.546875 3.859375 0.84375q1.9375 0.28125 3.84375 0.28125q2.765625 0 4.09375 -0.75q1.328125 -0.75 1.328125 -2.140625q0 -0.609375 -0.21875 -1.078125q-0.203125 -0.46875 -0.765625 -0.90625q-0.546875 -0.4375 -1.71875 -0.890625q-1.15625 -0.46875 -3.171875 -1.0625q-1.5 -0.453125 -2.78125 -1.015625q-1.265625 -0.5625 -2.203125 -1.328125q-0.921875 -0.78125 -1.453125 -1.8125q-0.53125 -1.046875 -0.53125 -2.46875q0 -0.921875 0.421875 -2.03125q0.4375 -1.109375 1.484375 -2.0625q1.046875 -0.953125 2.8125 -1.578125q1.765625 -0.640625 4.421875 -0.640625q1.3125 0 2.90625 0.15625q1.59375 0.140625 3.3125 0.484375l0 3.4375q-1.8125 -0.4375 -3.4375 -0.640625q-1.625 -0.21875 -2.828125 -0.21875q-1.4375 0 -2.421875 0.21875q-0.984375 0.21875 -1.59375 0.609375q-0.609375 0.390625 -0.875 0.90625q-0.265625 0.515625 -0.265625 1.109375q0 0.609375 0.234375 1.09375q0.234375 0.484375 0.859375 0.9375q0.640625 0.453125 1.765625 0.90625q1.125 0.453125 2.9375 0.984375q1.984375 0.578125 3.328125 1.21875q1.34375 0.625 2.1875 1.40625q0.84375 0.765625 1.203125 1.75q0.375 0.96875 0.375 2.203125zm25.187256 6.0625l-3.859375 0l0 -14.1875q0 -2.5625 -0.96875 -3.828125q-0.953125 -1.28125 -2.75 -1.28125q-0.765625 0 -1.453125 0.21875q-0.671875 0.203125 -1.40625 0.71875q-0.71875 0.515625 -1.59375 1.40625q-0.859375 0.890625 -1.984375 2.21875l0 14.734375l-3.84375 0l0 -31.28125l3.84375 0l0 9.0625l-0.125 3.5q0.90625 -1.09375 1.78125 -1.828125q0.875 -0.75 1.734375 -1.203125q0.875 -0.46875 1.78125 -0.671875q0.921875 -0.203125 1.890625 -0.203125q3.3125 0 5.125 2.03125q1.828125 2.03125 1.828125 6.09375l0 14.5zm21.32782 0l-0.078125 -2.984375q-1.828125 1.796875 -3.703125 2.59375q-1.859375 0.78125 -3.921875 0.78125q-1.890625 0 -3.25 -0.484375q-1.34375 -0.484375 -2.21875 -1.328125q-0.875 -0.859375 -1.296875 -2.0q-0.40625 -1.15625 -0.40625 -2.515625q0 -3.34375 2.484375 -5.234375q2.5 -1.890625 7.375 -1.890625l4.59375 0l0 -1.9375q0 -1.96875 -1.265625 -3.15625q-1.25 -1.1875 -3.84375 -1.1875q-1.875 0 -3.703125 0.421875q-1.828125 0.421875 -3.78125 1.1875l0 -3.46875q0.734375 -0.265625 1.625 -0.515625q0.90625 -0.265625 1.890625 -0.453125q1.0 -0.203125 2.078125 -0.328125q1.09375 -0.125 2.203125 -0.125q2.015625 0 3.625 0.453125q1.625 0.4375 2.734375 1.34375q1.125 0.90625 1.71875 2.28125q0.59375 1.375 0.59375 3.234375l0 15.3125l-3.453125 0zm-0.421875 -10.109375l-4.890625 0q-1.4375 0 -2.484375 0.28125q-1.03125 0.28125 -1.703125 0.8125q-0.65625 0.53125 -0.984375 1.28125q-0.3125 0.734375 -0.3125 1.671875q0 0.640625 0.203125 1.234375q0.203125 0.578125 0.640625 1.03125q0.4375 0.453125 1.140625 0.71875q0.71875 0.265625 1.734375 0.265625q1.328125 0 3.046875 -0.796875q1.71875 -0.8125 3.609375 -2.5625l0 -3.9375zm32.45288 19.1875l-24.921875 0l0 -3.1875l24.921875 0l0 3.1875zm23.26538 -36.765625q-3.03125 -0.640625 -5.234375 -0.640625q-5.1875 0 -5.1875 5.4375l0 3.90625l9.734375 0l0 3.203125l-9.734375 0l0 15.78125l-3.921875 0l0 -15.78125l-7.15625 0l0 -3.203125l7.15625 0l0 -3.6875q0 -8.875 9.25 -8.875q2.296875 0 5.09375 0.53125l0 3.328125zm-23.265625 5.46875l0 0zm36.031006 3.1875l-6.578125 0l0 -3.1875l10.46875 0l0 19.015625l6.625 0l0 3.203125l-17.8125 0l0 -3.203125l7.296875 0l0 -15.828125zm1.34375 -12.515625q0.65625 0 1.203125 0.234375q0.546875 0.234375 0.953125 0.65625q0.421875 0.421875 0.65625 0.96875q0.234375 0.53125 0.234375 1.1875q0 0.609375 -0.234375 1.171875q-0.234375 0.546875 -0.65625 0.96875q-0.40625 0.421875 -0.953125 0.65625q-0.546875 0.234375 -1.203125 0.234375q-0.640625 0 -1.1875 -0.234375q-0.546875 -0.234375 -0.96875 -0.65625q-0.40625 -0.421875 -0.640625 -0.96875q-0.234375 -0.5625 -0.234375 -1.171875q0 -0.65625 0.234375 -1.1875q0.234375 -0.546875 0.640625 -0.96875q0.421875 -0.421875 0.96875 -0.65625q0.546875 -0.234375 1.1875 -0.234375zm35.73407 3.859375q-3.03125 -0.640625 -5.234375 -0.640625q-5.1875 0 -5.1875 5.4375l0 3.90625l9.734375 0l0 3.203125l-9.734375 0l0 15.78125l-3.921875 0l0 -15.78125l-7.15625 0l0 -3.203125l7.15625 0l0 -3.6875q0 -8.875 9.25 -8.875q2.296875 0 5.09375 0.53125l0 3.328125zm-23.265625 5.46875l0 0zm47.812256 10.9375q0 2.578125 -0.734375 4.75q-0.734375 2.15625 -2.109375 3.6875q-1.359375 1.53125 -3.34375 2.390625q-1.96875 0.84375 -4.46875 0.84375q-2.390625 0 -4.28125 -0.734375q-1.890625 -0.734375 -3.203125 -2.171875q-1.3125 -1.453125 -2.015625 -3.578125q-0.703125 -2.125 -0.703125 -4.890625q0 -2.578125 0.734375 -4.71875q0.734375 -2.140625 2.09375 -3.671875q1.375 -1.546875 3.34375 -2.390625q1.984375 -0.859375 4.484375 -0.859375q2.390625 0 4.28125 0.75q1.890625 0.734375 3.203125 2.171875q1.3125 1.421875 2.015625 3.546875q0.703125 2.125 0.703125 4.875zm-3.9375 0.171875q0 -2.0625 -0.46875 -3.59375q-0.453125 -1.546875 -1.296875 -2.5625q-0.828125 -1.03125 -2.046875 -1.546875q-1.203125 -0.53125 -2.6875 -0.53125q-1.71875 0 -2.953125 0.671875q-1.21875 0.671875 -2.015625 1.8125q-0.78125 1.125 -1.15625 2.625q-0.359375 1.484375 -0.359375 3.125q0 2.0625 0.453125 3.609375q0.46875 1.546875 1.296875 2.578125q0.84375 1.03125 2.03125 1.546875q1.203125 0.515625 2.703125 0.515625q1.734375 0 2.953125 -0.671875q1.234375 -0.671875 2.015625 -1.796875q0.796875 -1.140625 1.15625 -2.625q0.375 -1.5 0.375 -3.15625zm30.89038 20.1875l-24.921875 0l0 -3.1875l24.921875 0l0 3.1875zm4.452881 -31.296875l3.515625 0l0.109375 4.09375q1.96875 -2.375 3.875 -3.4375q1.921875 -1.0625 3.875 -1.0625q3.453125 0 5.234375 2.234375q1.78125 2.234375 1.640625 6.640625l-3.890625 0q0.0625 -2.921875 -0.859375 -4.234375q-0.90625 -1.3125 -2.6875 -1.3125q-0.765625 0 -1.5625 0.28125q-0.78125 0.265625 -1.609375 0.875q-0.828125 0.609375 -1.765625 1.5625q-0.921875 0.953125 -1.984375 2.296875l0 14.28125l-3.890625 0l0 -22.21875zm22.874756 11.578125q0 -2.84375 0.78125 -5.046875q0.78125 -2.203125 2.203125 -3.71875q1.421875 -1.515625 3.421875 -2.296875q2.015625 -0.78125 4.46875 -0.78125q1.0625 0 2.09375 0.140625q1.03125 0.125 2.015625 0.40625l0 -9.34375l3.875 0l0 31.28125l-3.453125 0l-0.125 -4.203125q-1.625 2.34375 -3.5 3.46875q-1.875 1.125 -4.078125 1.125q-1.890625 0 -3.34375 -0.78125q-1.453125 -0.796875 -2.421875 -2.25q-0.953125 -1.453125 -1.453125 -3.484375q-0.484375 -2.046875 -0.484375 -4.515625zm3.953125 -0.25q0 4.03125 1.171875 6.015625q1.1875 1.96875 3.359375 1.96875q1.453125 0 3.078125 -1.296875q1.640625 -1.3125 3.421875 -3.875l0 -10.3125q-0.953125 -0.4375 -2.109375 -0.671875q-1.140625 -0.234375 -2.265625 -0.234375q-3.140625 0 -4.90625 2.03125q-1.75 2.03125 -1.75 6.375zm36.374634 10.890625l-0.078125 -2.984375q-1.828125 1.796875 -3.703125 2.59375q-1.859375 0.78125 -3.921875 0.78125q-1.890625 0 -3.25 -0.484375q-1.34375 -0.484375 -2.21875 -1.328125q-0.875 -0.859375 -1.296875 -2.0q-0.40625 -1.15625 -0.40625 -2.515625q0 -3.34375 2.484375 -5.234375q2.5 -1.890625 7.375 -1.890625l4.59375 0l0 -1.9375q0 -1.96875 -1.265625 -3.15625q-1.25 -1.1875 -3.84375 -1.1875q-1.875 0 -3.703125 0.421875q-1.828125 0.421875 -3.78125 1.1875l0 -3.46875q0.734375 -0.265625 1.625 -0.515625q0.90625 -0.265625 1.890625 -0.453125q1.0 -0.203125 2.078125 -0.328125q1.09375 -0.125 2.203125 -0.125q2.015625 0 3.625 0.453125q1.625 0.4375 2.734375 1.34375q1.125 0.90625 1.71875 2.28125q0.59375 1.375 0.59375 3.234375l0 15.3125l-3.453125 0zm-0.421875 -10.109375l-4.890625 0q-1.4375 0 -2.484375 0.28125q-1.03125 0.28125 -1.703125 0.8125q-0.65625 0.53125 -0.984375 1.28125q-0.3125 0.734375 -0.3125 1.671875q0 0.640625 0.203125 1.234375q0.203125 0.578125 0.640625 1.03125q0.4375 0.453125 1.140625 0.71875q0.71875 0.265625 1.734375 0.265625q1.328125 0 3.046875 -0.796875q1.71875 -0.8125 3.609375 -2.5625l0 -3.9375zm28.98413 9.796875q-1.3125 0.328125 -2.703125 0.46875q-1.390625 0.15625 -2.84375 0.15625q-4.171875 0 -6.234375 -1.890625q-2.0625 -1.890625 -2.0625 -5.8125l0 -11.59375l-6.21875 0l0 -3.234375l6.21875 0l0 -6.109375l3.859375 -1.0l0 7.109375l9.984375 0l0 3.234375l-9.984375 0l0 11.28125q0 2.390625 1.265625 3.578125q1.28125 1.1875 3.75 1.1875q1.0625 0 2.328125 -0.171875q1.265625 -0.171875 2.640625 -0.515625l0 3.3125zm21.281006 0.3125l-0.078125 -2.984375q-1.828125 1.796875 -3.703125 2.59375q-1.859375 0.78125 -3.921875 0.78125q-1.890625 0 -3.25 -0.484375q-1.34375 -0.484375 -2.21875 -1.328125q-0.875 -0.859375 -1.296875 -2.0q-0.40625 -1.15625 -0.40625 -2.515625q0 -3.34375 2.484375 -5.234375q2.5 -1.890625 7.375 -1.890625l4.59375 0l0 -1.9375q0 -1.96875 -1.265625 -3.15625q-1.25 -1.1875 -3.84375 -1.1875q-1.875 0 -3.703125 0.421875q-1.828125 0.421875 -3.78125 1.1875l0 -3.46875q0.734375 -0.265625 1.625 -0.515625q0.90625 -0.265625 1.890625 -0.453125q1.0 -0.203125 2.078125 -0.328125q1.09375 -0.125 2.203125 -0.125q2.015625 0 3.625 0.453125q1.625 0.4375 2.734375 1.34375q1.125 0.90625 1.71875 2.28125q0.59375 1.375 0.59375 3.234375l0 15.3125l-3.453125 0zm-0.421875 -10.109375l-4.890625 0q-1.4375 0 -2.484375 0.28125q-1.03125 0.28125 -1.703125 0.8125q-0.65625 0.53125 -0.984375 1.28125q-0.3125 0.734375 -0.3125 1.671875q0 0.640625 0.203125 1.234375q0.203125 0.578125 0.640625 1.03125q0.4375 0.453125 1.140625 0.71875q0.71875 0.265625 1.734375 0.265625q1.328125 0 3.046875 -0.796875q1.71875 -0.8125 3.609375 -2.5625l0 -3.9375z" fill-rule="nonzero"/></g></svg>