<?xml version="1.0" encoding="UTF-8" standalone="no"?>
<svg
   version="1.1"
   viewBox="0.0 0.0 1060.0 500.0"
   fill="none"
   stroke="none"
   stroke-linecap="square"
   stroke-miterlimit="10"
   id="svg1280"
   sodipodi:docname="sha2_block_diagram.svg"
   inkscape:version="1.2.2 (b0a8486541, 2022-12-01)"
   xmlns:inkscape="http://www.inkscape.org/namespaces/inkscape"
   xmlns:sodipodi="http://sodipodi.sourceforge.net/DTD/sodipodi-0.dtd"
   xmlns="http://www.w3.org/2000/svg"
   xmlns:svg="http://www.w3.org/2000/svg">
  <defs
     id="defs1284">
    <rect
       x="606.74497"
       y="323.70349"
       width="26.083901"
       height="25.06154"
       id="rect2375" />
    <rect
       x="585.68957"
       y="338.87518"
       width="9.2562594"
       height="19.232389"
       id="rect2369" />
    <rect
       x="585.61964"
       y="318.54744"
       width="61.967049"
       height="65.183307"
       id="rect2313" />
    <rect
       x="585.61963"
       y="318.54745"
       width="61.967049"
       height="65.183304"
       id="rect2313-6" />
  </defs>
  <sodipodi:namedview
     id="namedview1282"
     pagecolor="#ffffff"
     bordercolor="#000000"
     borderopacity="0.25"
     inkscape:showpageshadow="2"
     inkscape:pageopacity="0.0"
     inkscape:pagecheckerboard="0"
     inkscape:deskcolor="#d1d1d1"
     showgrid="false"
     inkscape:zoom="1.354717"
     inkscape:cx="530"
     inkscape:cy="250.23677"
     inkscape:window-width="1920"
     inkscape:window-height="1115"
     inkscape:window-x="0"
     inkscape:window-y="1055"
     inkscape:window-maximized="1"
     inkscape:current-layer="g1278" />
  <clipPath
     id="p.0">
    <path
       d="m0 0l1060.0 0l0 500.0l-1060.0 0l0 -500.0z"
       clip-rule="nonzero"
       id="path993" />
  </clipPath>
  <g
     clip-path="url(#p.0)"
     id="g1278">
    <path
       fill="#000000"
       fill-opacity="0.0"
       d="m0 0l1060.0 0l0 500.0l-1060.0 0z"
       fill-rule="evenodd"
       id="path996" />
    <path
       fill="#000000"
       fill-opacity="0.0"
       d="m28.425873 156.53212l116.031494 0"
       fill-rule="evenodd"
       id="path998" />
    <path
       stroke="#000000"
       stroke-width="2.0"
       stroke-linejoin="round"
       stroke-linecap="butt"
       d="m28.425873 156.53214l109.17732 0"
       fill-rule="evenodd"
       id="path1000" />
    <path
       fill="#000000"
       stroke="#000000"
       stroke-width="2.0"
       stroke-linecap="butt"
       d="m137.6032 156.53214l-2.2491608 2.2491608l6.179535 -2.2491608l-6.179535 -2.249176z"
       fill-rule="evenodd"
       id="path1002" />
    <path
       fill="#000000"
       fill-opacity="0.0"
       d="m28.425873 104.64723l138.51968 0l0 51.87401l-138.51968 0z"
       fill-rule="evenodd"
       id="path1004" />
    <path
       fill="#000000"
       d="m55.550873 127.41299l-3.015625 0l0 9.031258l-1.40625 0l0 -9.031258l-3.03125 0l0 -1.1875l7.453125 0l0 1.1875zm8.375 9.031258l-5.875 0l0 -10.218758l1.40625 0l0 9.031258l4.46875 0l0 1.1875zm7.828125 -3.625l-4.671875 0l0 -1.28125l4.671875 0l0 1.28125zm10.015625 0.0625q0 0.84375 -0.234375 1.53125q-0.234375 0.6875 -0.703125 1.171875q-0.453125 0.46875 -1.125 0.734375q-0.671875 0.265625 -1.53125 0.265625q-0.953125 0 -1.625 -0.25q-0.65625 -0.25 -1.078125 -0.703125q-0.421875 -0.46875 -0.609375 -1.109375q-0.1875 -0.640625 -0.1875 -1.421875l0 -6.8750076l1.390625 0l0 6.7656326q0 0.59375 0.109375 1.046875q0.109375 0.453125 0.359375 0.765625q0.265625 0.296875 0.671875 0.453125q0.421875 0.15625 1.015625 0.15625q1.109375 0 1.625 -0.640625q0.53125 -0.640625 0.53125 -1.796875l0 -6.7500076l1.390625 0l0 6.6562576zm8.546875 3.5625l-5.875 0l0 -10.218758l1.40625 0l0 9.031258l4.46875 0l0 1.1875z"
       fill-rule="nonzero"
       id="path1006" />
    <path
       fill="#000000"
       fill-opacity="0.0"
       d="m144.48293 26.180307l118.110245 0l0 442.04724l-118.110245 0z"
       fill-rule="evenodd"
       id="path1008" />
    <path
       stroke="#666666"
       stroke-width="1.0"
       stroke-linejoin="round"
       stroke-linecap="butt"
       stroke-dasharray="4.0,3.0"
       d="m144.48293 26.180307l118.110245 0l0 442.04724l-118.110245 0z"
       fill-rule="evenodd"
       id="path1010" />
    <path
       fill="#666666"
       d="m165.06105 52.696556l1.234375 0l0.046875 1.4375q0.6875 -0.828125 1.359375 -1.203125q0.6875 -0.375 1.375 -0.375q1.21875 0 1.84375 0.796875q0.625 0.78125 0.578125 2.328125l-1.375 0q0.03125 -1.03125 -0.296875 -1.484375q-0.328125 -0.46875 -0.953125 -0.46875q-0.265625 0 -0.546875 0.09375q-0.28125 0.09375 -0.578125 0.3125q-0.28125 0.21875 -0.609375 0.5625q-0.328125 0.328125 -0.703125 0.796875l0 5.046875l-1.375 0l0 -7.84375zm15.09375 3.5q0 0.296875 -0.015625 0.5q0 0.1875 -0.015625 0.359375l-5.5 0q0 1.203125 0.671875 1.84375q0.671875 0.640625 1.9375 0.640625q0.34375 0 0.6875 -0.015625q0.34375 -0.03125 0.65625 -0.078125q0.328125 -0.046875 0.609375 -0.109375q0.296875 -0.0625 0.546875 -0.125l0 1.109375q-0.546875 0.15625 -1.25 0.25q-0.703125 0.109375 -1.453125 0.109375q-1.0 0 -1.734375 -0.265625q-0.71875 -0.28125 -1.1875 -0.796875q-0.46875 -0.53125 -0.6875 -1.28125q-0.21875 -0.75 -0.21875 -1.703125q0 -0.828125 0.234375 -1.5625q0.234375 -0.75 0.6875 -1.296875q0.46875 -0.5625 1.125 -0.890625q0.671875 -0.328125 1.515625 -0.328125q0.8125 0 1.4375 0.265625q0.640625 0.25 1.078125 0.71875q0.4375 0.46875 0.65625 1.15625q0.21875 0.671875 0.21875 1.5zm-1.40625 -0.1875q0.015625 -0.53125 -0.109375 -0.953125q-0.125 -0.4375 -0.390625 -0.75q-0.25 -0.3125 -0.640625 -0.484375q-0.390625 -0.1875 -0.90625 -0.1875q-0.453125 0 -0.828125 0.171875q-0.359375 0.171875 -0.625 0.484375q-0.265625 0.3125 -0.4375 0.75q-0.15625 0.4375 -0.1875 0.96875l4.125 0zm9.234375 -2.203125q0.21875 0.265625 0.328125 0.640625q0.125 0.359375 0.125 0.78125q0 0.609375 -0.21875 1.109375q-0.21875 0.5 -0.625 0.859375q-0.40625 0.359375 -0.984375 0.5625q-0.5625 0.203125 -1.234375 0.203125q-0.5 0 -0.9375 -0.109375q-0.421875 -0.109375 -0.671875 -0.265625q-0.140625 0.21875 -0.25 0.421875q-0.09375 0.1875 -0.09375 0.4375q0 0.296875 0.28125 0.5q0.28125 0.1875 0.75 0.203125l2.0625 0.078125q0.59375 0.015625 1.078125 0.15625q0.5 0.125 0.859375 0.375q0.359375 0.25 0.546875 0.625q0.203125 0.359375 0.203125 0.84375q0 0.53125 -0.234375 1.0q-0.21875 0.46875 -0.6875 0.8125q-0.46875 0.359375 -1.203125 0.5625q-0.71875 0.21875 -1.71875 0.21875q-0.953125 0 -1.625 -0.15625q-0.671875 -0.140625 -1.109375 -0.421875q-0.421875 -0.265625 -0.625 -0.640625q-0.1875 -0.359375 -0.1875 -0.8125q0 -0.5625 0.265625 -1.0q0.265625 -0.4375 0.828125 -0.828125q-0.203125 -0.09375 -0.359375 -0.234375q-0.140625 -0.140625 -0.234375 -0.3125q-0.09375 -0.171875 -0.140625 -0.359375q-0.046875 -0.1875 -0.046875 -0.359375q0 -0.515625 0.234375 -0.9375q0.234375 -0.421875 0.5625 -0.796875q-0.140625 -0.171875 -0.265625 -0.34375q-0.109375 -0.171875 -0.1875 -0.375q-0.078125 -0.203125 -0.125 -0.421875q-0.046875 -0.234375 -0.046875 -0.53125q0 -0.609375 0.21875 -1.109375q0.234375 -0.515625 0.625 -0.875q0.40625 -0.359375 0.96875 -0.546875q0.578125 -0.203125 1.265625 -0.203125q0.28125 0 0.546875 0.046875q0.265625 0.03125 0.46875 0.09375l2.84375 0l0 1.109375l-1.25 0zm-4.71875 7.875q0 0.546875 0.578125 0.796875q0.578125 0.265625 1.609375 0.265625q0.640625 0 1.078125 -0.125q0.453125 -0.109375 0.71875 -0.3125q0.265625 -0.1875 0.375 -0.4375q0.125 -0.234375 0.125 -0.5q0 -0.46875 -0.390625 -0.703125q-0.390625 -0.234375 -1.1875 -0.265625l-2.046875 -0.078125q-0.265625 0.171875 -0.4375 0.34375q-0.15625 0.171875 -0.25 0.328125q-0.09375 0.171875 -0.140625 0.34375q-0.03125 0.171875 -0.03125 0.34375zm0.40625 -6.421875q0 0.375 0.125 0.6875q0.125 0.3125 0.34375 0.53125q0.234375 0.21875 0.546875 0.34375q0.3125 0.109375 0.6875 0.109375q0.40625 0 0.71875 -0.125q0.3125 -0.140625 0.53125 -0.375q0.21875 -0.234375 0.328125 -0.53125q0.109375 -0.3125 0.109375 -0.640625q0 -0.375 -0.125 -0.6875q-0.125 -0.3125 -0.359375 -0.53125q-0.21875 -0.21875 -0.53125 -0.34375q-0.296875 -0.125 -0.671875 -0.125q-0.40625 0 -0.734375 0.140625q-0.3125 0.140625 -0.53125 0.375q-0.203125 0.234375 -0.328125 0.546875q-0.109375 0.296875 -0.109375 0.625zm10.125 -1.4375l-2.3125 0l0 -1.125l3.6875 0l0 6.703125l2.34375 0l0 1.140625l-6.296875 0l0 -1.140625l2.578125 0l0 -5.578125zm0.484375 -4.421875q0.21875 0 0.40625 0.09375q0.203125 0.078125 0.34375 0.234375q0.15625 0.140625 0.234375 0.328125q0.078125 0.1875 0.078125 0.421875q0 0.21875 -0.078125 0.421875q-0.078125 0.1875 -0.234375 0.34375q-0.140625 0.140625 -0.34375 0.21875q-0.1875 0.078125 -0.40625 0.078125q-0.234375 0 -0.4375 -0.078125q-0.1875 -0.078125 -0.328125 -0.21875q-0.140625 -0.15625 -0.234375 -0.34375q-0.078125 -0.203125 -0.078125 -0.421875q0 -0.234375 0.078125 -0.421875q0.09375 -0.1875 0.234375 -0.328125q0.140625 -0.15625 0.328125 -0.234375q0.203125 -0.09375 0.4375 -0.09375zm11.859375 9.0q0 0.40625 -0.140625 0.734375q-0.140625 0.328125 -0.390625 0.59375q-0.234375 0.25 -0.5625 0.4375q-0.3125 0.171875 -0.6875 0.296875q-0.359375 0.109375 -0.75 0.15625q-0.375 0.0625 -0.734375 0.0625q-0.796875 0 -1.46875 -0.078125q-0.671875 -0.0625 -1.3125 -0.21875l0 -1.25q0.6875 0.1875 1.359375 0.296875q0.6875 0.09375 1.359375 0.09375q0.984375 0 1.453125 -0.265625q0.46875 -0.265625 0.46875 -0.75q0 -0.21875 -0.078125 -0.375q-0.078125 -0.171875 -0.28125 -0.328125q-0.1875 -0.15625 -0.59375 -0.3125q-0.40625 -0.171875 -1.125 -0.375q-0.53125 -0.15625 -0.984375 -0.359375q-0.4375 -0.203125 -0.765625 -0.46875q-0.328125 -0.28125 -0.515625 -0.640625q-0.1875 -0.375 -0.1875 -0.875q0 -0.328125 0.140625 -0.71875q0.15625 -0.390625 0.515625 -0.71875q0.375 -0.34375 1.0 -0.5625q0.625 -0.21875 1.5625 -0.21875q0.46875 0 1.03125 0.046875q0.5625 0.046875 1.171875 0.171875l0 1.21875q-0.640625 -0.15625 -1.21875 -0.234375q-0.578125 -0.078125 -1.0 -0.078125q-0.5 0 -0.859375 0.078125q-0.34375 0.078125 -0.5625 0.21875q-0.203125 0.140625 -0.296875 0.328125q-0.09375 0.171875 -0.09375 0.390625q0 0.203125 0.078125 0.375q0.078125 0.171875 0.296875 0.34375q0.234375 0.15625 0.625 0.3125q0.40625 0.15625 1.046875 0.34375q0.6875 0.203125 1.15625 0.4375q0.484375 0.21875 0.78125 0.5q0.296875 0.265625 0.421875 0.609375q0.140625 0.34375 0.140625 0.78125zm8.90625 2.03125q-0.46875 0.125 -0.96875 0.171875q-0.484375 0.046875 -0.984375 0.046875q-1.484375 0 -2.21875 -0.671875q-0.71875 -0.671875 -0.71875 -2.046875l0 -4.09375l-2.1875 0l0 -1.140625l2.1875 0l0 -2.15625l1.359375 -0.359375l0 2.515625l3.53125 0l0 1.140625l-3.53125 0l0 3.984375q0 0.84375 0.453125 1.265625q0.453125 0.40625 1.328125 0.40625q0.375 0 0.8125 -0.046875q0.453125 -0.0625 0.9375 -0.1875l0 1.171875zm9.09375 -4.234375q0 0.296875 -0.015625 0.5q0 0.1875 -0.015625 0.359375l-5.5 0q0 1.203125 0.671875 1.84375q0.671875 0.640625 1.9375 0.640625q0.34375 0 0.6875 -0.015625q0.34375 -0.03125 0.65625 -0.078125q0.328125 -0.046875 0.609375 -0.109375q0.296875 -0.0625 0.546875 -0.125l0 1.109375q-0.546875 0.15625 -1.25 0.25q-0.703125 0.109375 -1.453125 0.109375q-1.0 0 -1.734375 -0.265625q-0.71875 -0.28125 -1.1875 -0.796875q-0.46875 -0.53125 -0.6875 -1.28125q-0.21875 -0.75 -0.21875 -1.703125q0 -0.828125 0.234375 -1.5625q0.234375 -0.75 0.6875 -1.296875q0.46875 -0.5625 1.125 -0.890625q0.671875 -0.328125 1.515625 -0.328125q0.8125 0 1.4375 0.265625q0.640625 0.25 1.078125 0.71875q0.4375 0.46875 0.65625 1.15625q0.21875 0.671875 0.21875 1.5zm-1.40625 -0.1875q0.015625 -0.53125 -0.109375 -0.953125q-0.125 -0.4375 -0.390625 -0.75q-0.25 -0.3125 -0.640625 -0.484375q-0.390625 -0.1875 -0.90625 -0.1875q-0.453125 0 -0.828125 0.171875q-0.359375 0.171875 -0.625 0.484375q-0.265625 0.3125 -0.4375 0.75q-0.15625 0.4375 -0.1875 0.96875l4.125 0zm3.90625 -3.3125l1.234375 0l0.046875 1.4375q0.6875 -0.828125 1.359375 -1.203125q0.6875 -0.375 1.375 -0.375q1.21875 0 1.84375 0.796875q0.625 0.78125 0.578125 2.328125l-1.375 0q0.03125 -1.03125 -0.296875 -1.484375q-0.328125 -0.46875 -0.953125 -0.46875q-0.265625 0 -0.546875 0.09375q-0.28125 0.09375 -0.578125 0.3125q-0.28125 0.21875 -0.609375 0.5625q-0.328125 0.328125 -0.703125 0.796875l0 5.046875l-1.375 0l0 -7.84375z"
       fill-rule="nonzero"
       id="path1012" />
    <path
       fill="#666666"
       d="m170.32668 79.540306l0 -5.640625q0 -0.359375 -0.03125 -0.59375q-0.015625 -0.234375 -0.078125 -0.375q-0.0625 -0.140625 -0.15625 -0.1875q-0.078125 -0.0625 -0.21875 -0.0625q-0.15625 0 -0.296875 0.09375q-0.125 0.09375 -0.28125 0.3125q-0.140625 0.203125 -0.328125 0.5625q-0.1875 0.34375 -0.4375 0.84375l0 5.046875l-1.234375 0l0 -5.484375q0 -0.4375 -0.03125 -0.703125q-0.03125 -0.265625 -0.09375 -0.40625q-0.046875 -0.15625 -0.140625 -0.203125q-0.09375 -0.0625 -0.234375 -0.0625q-0.140625 0 -0.265625 0.078125q-0.125 0.078125 -0.28125 0.28125q-0.140625 0.203125 -0.328125 0.5625q-0.1875 0.34375 -0.453125 0.890625l0 5.046875l-1.25 0l0 -7.84375l1.046875 0l0.0625 1.484375q0.203125 -0.4375 0.390625 -0.75q0.1875 -0.3125 0.390625 -0.5q0.203125 -0.203125 0.4375 -0.28125q0.234375 -0.09375 0.515625 -0.09375q0.625 0 0.953125 0.421875q0.328125 0.40625 0.328125 1.265625q0.1875 -0.40625 0.359375 -0.71875q0.1875 -0.3125 0.390625 -0.53125q0.21875 -0.21875 0.46875 -0.328125q0.25 -0.109375 0.578125 -0.109375q1.46875 0 1.46875 2.265625l0 5.71875l-1.25 0zm10.03125 -3.984375q0 0.90625 -0.265625 1.671875q-0.25 0.765625 -0.734375 1.3125q-0.484375 0.53125 -1.1875 0.84375q-0.6875 0.296875 -1.5625 0.296875q-0.84375 0 -1.515625 -0.265625q-0.671875 -0.265625 -1.140625 -0.765625q-0.453125 -0.515625 -0.703125 -1.265625q-0.25 -0.75 -0.25 -1.71875q0 -0.921875 0.25 -1.671875q0.265625 -0.75 0.75 -1.296875q0.484375 -0.546875 1.171875 -0.84375q0.703125 -0.296875 1.59375 -0.296875q0.84375 0 1.5 0.265625q0.671875 0.25 1.140625 0.765625q0.46875 0.5 0.703125 1.25q0.25 0.75 0.25 1.71875zm-1.390625 0.0625q0 -0.734375 -0.15625 -1.265625q-0.15625 -0.546875 -0.453125 -0.90625q-0.296875 -0.375 -0.734375 -0.546875q-0.421875 -0.1875 -0.9375 -0.1875q-0.609375 0 -1.046875 0.234375q-0.4375 0.234375 -0.71875 0.640625q-0.265625 0.390625 -0.40625 0.921875q-0.125 0.53125 -0.125 1.109375q0 0.71875 0.15625 1.265625q0.171875 0.546875 0.46875 0.921875q0.296875 0.359375 0.71875 0.546875q0.421875 0.171875 0.953125 0.171875q0.609375 0 1.03125 -0.234375q0.4375 -0.234375 0.71875 -0.625q0.28125 -0.40625 0.40625 -0.9375q0.125 -0.53125 0.125 -1.109375zm2.96875 0.15625q0 -1.0 0.265625 -1.765625q0.28125 -0.78125 0.78125 -1.3125q0.5 -0.546875 1.203125 -0.8125q0.71875 -0.28125 1.578125 -0.28125q0.375 0 0.734375 0.046875q0.375 0.046875 0.71875 0.140625l0 -3.296875l1.375 0l0 11.046875l-1.21875 0l-0.046875 -1.484375q-0.578125 0.828125 -1.25 1.234375q-0.65625 0.390625 -1.421875 0.390625q-0.671875 0 -1.1875 -0.28125q-0.515625 -0.28125 -0.859375 -0.796875q-0.328125 -0.515625 -0.5 -1.234375q-0.171875 -0.71875 -0.171875 -1.59375zm1.390625 -0.078125q0 1.421875 0.40625 2.125q0.421875 0.6875 1.1875 0.6875q0.515625 0 1.09375 -0.453125q0.578125 -0.46875 1.203125 -1.375l0 -3.640625q-0.328125 -0.15625 -0.734375 -0.234375q-0.40625 -0.078125 -0.8125 -0.078125q-1.109375 0 -1.734375 0.71875q-0.609375 0.71875 -0.609375 2.25zm14.109375 3.84375l-1.21875 0l-0.046875 -1.265625q-0.359375 0.40625 -0.671875 0.671875q-0.3125 0.265625 -0.625 0.4375q-0.3125 0.171875 -0.640625 0.234375q-0.3125 0.0625 -0.65625 0.0625q-1.21875 0 -1.84375 -0.703125q-0.609375 -0.71875 -0.609375 -2.15625l0 -5.125l1.359375 0l0 5.015625q0 1.796875 1.359375 1.796875q0.25 0 0.484375 -0.0625q0.25 -0.078125 0.5 -0.265625q0.265625 -0.1875 0.5625 -0.5q0.3125 -0.3125 0.6875 -0.78125l0 -5.203125l1.359375 0l0 7.84375zm5.15625 -9.921875l-2.3125 0l0 -1.125l3.6875 0l0 9.90625l2.34375 0l0 1.140625l-6.296875 0l0 -1.140625l2.578125 0l0 -8.78125zm12.75 5.578125q0 0.296875 -0.015625 0.5q0 0.1875 -0.015625 0.359375l-5.5 0q0 1.203125 0.671875 1.84375q0.671875 0.640625 1.9375 0.640625q0.34375 0 0.6875 -0.015625q0.34375 -0.03125 0.65625 -0.078125q0.328125 -0.046875 0.609375 -0.109375q0.296875 -0.0625 0.546875 -0.125l0 1.109375q-0.546875 0.15625 -1.25 0.25q-0.703125 0.109375 -1.453125 0.109375q-1.0 0 -1.734375 -0.265625q-0.71875 -0.28125 -1.1875 -0.796875q-0.46875 -0.53125 -0.6875 -1.28125q-0.21875 -0.75 -0.21875 -1.703125q0 -0.828125 0.234375 -1.5625q0.234375 -0.75 0.6875 -1.296875q0.46875 -0.5625 1.125 -0.890625q0.671875 -0.328125 1.515625 -0.328125q0.8125 0 1.4375 0.265625q0.640625 0.25 1.078125 0.71875q0.4375 0.46875 0.65625 1.15625q0.21875 0.671875 0.21875 1.5zm-1.40625 -0.1875q0.015625 -0.53125 -0.109375 -0.953125q-0.125 -0.4375 -0.390625 -0.75q-0.25 -0.3125 -0.640625 -0.484375q-0.390625 -0.1875 -0.90625 -0.1875q-0.453125 0 -0.828125 0.171875q-0.359375 0.171875 -0.625 0.484375q-0.265625 0.3125 -0.4375 0.75q-0.15625 0.4375 -0.1875 0.96875l4.125 0z"
       fill-rule="nonzero"
       id="path1014" />
    <path
       fill="#000000"
       fill-opacity="0.0"
       d="m297.11444 26.180307l125.00787 0l0 442.04724l-125.00787 0z"
       fill-rule="evenodd"
       id="path1016" />
    <path
       stroke="#666666"
       stroke-width="1.0"
       stroke-linejoin="round"
       stroke-linecap="butt"
       stroke-dasharray="4.0,3.0"
       d="m297.11444 26.180307l125.00787 0l0 442.04724l-125.00787 0z"
       fill-rule="evenodd"
       id="path1018" />
    <path
       fill="#666666"
       d="m324.05194 60.540306l-1.390625 0l0 -4.6875l-4.28125 0l0 4.6875l-1.390625 0l0 -10.21875l1.390625 0l0 4.328125l4.28125 0l0 -4.328125l1.390625 0l0 10.21875zm9.28125 0l-1.359375 0l-0.203125 -6.375l-0.09375 -2.4375l-0.46875 1.421875l-1.515625 4.0625l-0.953125 0l-1.4375 -3.90625l-0.484375 -1.578125l-0.03125 2.546875l-0.171875 6.265625l-1.3125 0l0.5 -10.21875l1.640625 0l1.375 3.84375l0.453125 1.296875l0.421875 -1.296875l1.453125 -3.84375l1.6875 0l0.5 10.21875zm9.09375 0l-1.515625 0l-0.703125 -2.234375l-4.25 0l-0.71875 2.234375l-1.453125 0l3.390625 -10.21875l1.90625 0l3.34375 10.21875zm-2.625 -3.46875l-1.71875 -5.46875l-1.734375 5.46875l3.453125 0zm10.484375 3.078125q-1.234375 0.515625 -2.578125 0.515625q-2.15625 0 -3.328125 -1.296875q-1.15625 -1.296875 -1.15625 -3.828125q0 -1.21875 0.3125 -2.203125q0.328125 -1.0 0.921875 -1.6875q0.59375 -0.703125 1.4375 -1.078125q0.84375 -0.375 1.890625 -0.375q0.71875 0 1.328125 0.125q0.609375 0.125 1.171875 0.375l0 1.359375q-0.5625 -0.296875 -1.15625 -0.453125q-0.59375 -0.171875 -1.296875 -0.171875q-0.71875 0 -1.296875 0.28125q-0.578125 0.265625 -0.984375 0.78125q-0.40625 0.5 -0.625 1.25q-0.21875 0.734375 -0.21875 1.671875q0 1.984375 0.796875 3.0q0.8125 1.0 2.359375 1.0q0.65625 0 1.25 -0.140625q0.609375 -0.15625 1.171875 -0.4375l0 1.3125zm17.15625 0.09375q-0.53125 0.203125 -1.09375 0.296875q-0.546875 0.109375 -1.140625 0.109375q-1.859375 0 -2.875 -1.0q-1.0 -1.015625 -1.0 -2.953125q0 -0.9375 0.28125 -1.6875q0.296875 -0.765625 0.8125 -1.296875q0.53125 -0.546875 1.25 -0.828125q0.734375 -0.296875 1.609375 -0.296875q0.609375 0 1.140625 0.09375q0.53125 0.078125 1.015625 0.265625l0 1.296875q-0.5 -0.265625 -1.03125 -0.375q-0.53125 -0.125 -1.09375 -0.125q-0.515625 0 -0.984375 0.203125q-0.46875 0.1875 -0.828125 0.5625q-0.34375 0.375 -0.546875 0.921875q-0.203125 0.53125 -0.203125 1.21875q0 1.421875 0.6875 2.125q0.703125 0.703125 1.921875 0.703125q0.5625 0 1.078125 -0.125q0.515625 -0.125 1.0 -0.375l0 1.265625zm9.53125 -3.6875q0 0.90625 -0.265625 1.671875q-0.25 0.765625 -0.734375 1.3125q-0.484375 0.53125 -1.1875 0.84375q-0.6875 0.296875 -1.5625 0.296875q-0.84375 0 -1.515625 -0.265625q-0.671875 -0.265625 -1.140625 -0.765625q-0.453125 -0.515625 -0.703125 -1.265625q-0.25 -0.75 -0.25 -1.71875q0 -0.921875 0.25 -1.671875q0.265625 -0.75 0.75 -1.296875q0.484375 -0.546875 1.171875 -0.84375q0.703125 -0.296875 1.59375 -0.296875q0.84375 0 1.5 0.265625q0.671875 0.25 1.140625 0.765625q0.46875 0.5 0.703125 1.25q0.25 0.75 0.25 1.71875zm-1.390625 0.0625q0 -0.734375 -0.15625 -1.265625q-0.15625 -0.546875 -0.453125 -0.90625q-0.296875 -0.375 -0.734375 -0.546875q-0.421875 -0.1875 -0.9375 -0.1875q-0.609375 0 -1.046875 0.234375q-0.4375 0.234375 -0.71875 0.640625q-0.265625 0.390625 -0.40625 0.921875q-0.125 0.53125 -0.125 1.109375q0 0.71875 0.15625 1.265625q0.171875 0.546875 0.46875 0.921875q0.296875 0.359375 0.71875 0.546875q0.421875 0.171875 0.953125 0.171875q0.609375 0 1.03125 -0.234375q0.4375 -0.234375 0.71875 -0.625q0.28125 -0.40625 0.40625 -0.9375q0.125 -0.53125 0.125 -1.109375zm3.6875 -3.921875l1.234375 0l0.046875 1.4375q0.6875 -0.828125 1.359375 -1.203125q0.6875 -0.375 1.375 -0.375q1.21875 0 1.84375 0.796875q0.625 0.78125 0.578125 2.328125l-1.375 0q0.03125 -1.03125 -0.296875 -1.484375q-0.328125 -0.46875 -0.953125 -0.46875q-0.265625 0 -0.546875 0.09375q-0.28125 0.09375 -0.578125 0.3125q-0.28125 0.21875 -0.609375 0.5625q-0.328125 0.328125 -0.703125 0.796875l0 5.046875l-1.375 0l0 -7.84375zm15.09375 3.5q0 0.296875 -0.015625 0.5q0 0.1875 -0.015625 0.359375l-5.5 0q0 1.203125 0.671875 1.84375q0.671875 0.640625 1.9375 0.640625q0.34375 0 0.6875 -0.015625q0.34375 -0.03125 0.65625 -0.078125q0.328125 -0.046875 0.609375 -0.109375q0.296875 -0.0625 0.546875 -0.125l0 1.109375q-0.546875 0.15625 -1.25 0.25q-0.703125 0.109375 -1.453125 0.109375q-1.0 0 -1.734375 -0.265625q-0.71875 -0.28125 -1.1875 -0.796875q-0.46875 -0.53125 -0.6875 -1.28125q-0.21875 -0.75 -0.21875 -1.703125q0 -0.828125 0.234375 -1.5625q0.234375 -0.75 0.6875 -1.296875q0.46875 -0.5625 1.125 -0.890625q0.671875 -0.328125 1.515625 -0.328125q0.8125 0 1.4375 0.265625q0.640625 0.25 1.078125 0.71875q0.4375 0.46875 0.65625 1.15625q0.21875 0.671875 0.21875 1.5zm-1.40625 -0.1875q0.015625 -0.53125 -0.109375 -0.953125q-0.125 -0.4375 -0.390625 -0.75q-0.25 -0.3125 -0.640625 -0.484375q-0.390625 -0.1875 -0.90625 -0.1875q-0.453125 0 -0.828125 0.171875q-0.359375 0.171875 -0.625 0.484375q-0.265625 0.3125 -0.4375 0.75q-0.15625 0.4375 -0.1875 0.96875l4.125 0z"
       fill-rule="nonzero"
       id="path1020" />
    <path
       fill="#000000"
       fill-opacity="0.0"
       d="m456.80664 26.180307l580.34644 0l0 442.04724l-580.34644 0z"
       fill-rule="evenodd"
       id="path1022" />
    <path
       stroke="#666666"
       stroke-width="1.0"
       stroke-linejoin="round"
       stroke-linecap="butt"
       d="m456.80664 26.180307l580.34644 0l0 442.04724l-580.34644 0z"
       fill-rule="evenodd"
       id="path1024" />
    <path
       fill="#000000"
       d="m483.60352 57.77468q0 0.71875 -0.296875 1.265625q-0.296875 0.546875 -0.828125 0.921875q-0.53125 0.359375 -1.28125 0.546875q-0.75 0.171875 -1.640625 0.171875q-0.40625 0 -0.8125 -0.03125q-0.40625 -0.03125 -0.78125 -0.078125q-0.359375 -0.046875 -0.6875 -0.109375q-0.328125 -0.0625 -0.59375 -0.140625l0 -1.34375q0.578125 0.21875 1.3125 0.34375q0.734375 0.125 1.65625 0.125q0.671875 0 1.140625 -0.09375q0.484375 -0.109375 0.78125 -0.3125q0.296875 -0.21875 0.4375 -0.515625q0.140625 -0.296875 0.140625 -0.671875q0 -0.421875 -0.234375 -0.703125q-0.234375 -0.296875 -0.609375 -0.53125q-0.375 -0.234375 -0.859375 -0.421875q-0.46875 -0.1875 -0.96875 -0.390625q-0.5 -0.203125 -0.984375 -0.4375q-0.484375 -0.25 -0.859375 -0.5625q-0.375 -0.328125 -0.609375 -0.765625q-0.21875 -0.4375 -0.21875 -1.046875q0 -0.515625 0.21875 -1.015625q0.21875 -0.515625 0.671875 -0.90625q0.46875 -0.40625 1.1875 -0.640625q0.71875 -0.25 1.71875 -0.25q0.265625 0 0.5625 0.03125q0.296875 0.015625 0.609375 0.0625q0.3125 0.046875 0.609375 0.109375q0.296875 0.046875 0.5625 0.109375l0 1.25q-0.609375 -0.171875 -1.21875 -0.265625q-0.59375 -0.09375 -1.15625 -0.09375q-1.1875 0 -1.75 0.40625q-0.5625 0.390625 -0.5625 1.0625q0 0.421875 0.21875 0.71875q0.234375 0.296875 0.609375 0.53125q0.375 0.234375 0.859375 0.421875q0.484375 0.1875 0.984375 0.390625q0.5 0.203125 0.96875 0.453125q0.484375 0.234375 0.859375 0.578125q0.375 0.328125 0.609375 0.78125q0.234375 0.4375 0.234375 1.046875zm8.9375 2.765625l-1.390625 0l0 -4.6875l-4.28125 0l0 4.6875l-1.390625 0l0 -10.21875l1.390625 0l0 4.328125l4.28125 0l0 -4.328125l1.390625 0l0 10.21875zm9.578125 0l-1.515625 0l-0.703125 -2.234375l-4.25 0l-0.71875 2.234375l-1.453125 0l3.390625 -10.21875l1.90625 0l3.34375 10.21875zm-2.625 -3.46875l-1.71875 -5.46875l-1.734375 5.46875l3.453125 0zm10.578125 3.46875l-6.71875 0l0 -1.21875l2.640625 -2.625q0.640625 -0.640625 1.046875 -1.109375q0.40625 -0.46875 0.625 -0.859375q0.234375 -0.390625 0.3125 -0.734375q0.078125 -0.34375 0.078125 -0.734375q0 -0.375 -0.109375 -0.71875q-0.09375 -0.34375 -0.3125 -0.59375q-0.203125 -0.265625 -0.546875 -0.40625q-0.328125 -0.15625 -0.796875 -0.15625q-0.640625 0 -1.171875 0.296875q-0.53125 0.28125 -0.984375 0.75l-0.75 -0.90625q0.578125 -0.609375 1.328125 -0.96875q0.765625 -0.375 1.765625 -0.375q0.671875 0 1.234375 0.203125q0.5625 0.203125 0.96875 0.59375q0.40625 0.375 0.625 0.9375q0.21875 0.546875 0.21875 1.25q0 0.578125 -0.15625 1.078125q-0.15625 0.5 -0.46875 1.0q-0.3125 0.5 -0.796875 1.03125q-0.484375 0.53125 -1.140625 1.15625l-1.84375 1.8125l4.953125 0l0 1.296875z"
       fill-rule="nonzero"
       id="path1026" />
    <path
       fill="#000000"
       fill-opacity="0.0"
       d="m263.02954 142.01218l33.700775 0"
       fill-rule="evenodd"
       id="path1028" />
    <path
       stroke="#000000"
       stroke-width="2.0"
       stroke-linejoin="round"
       stroke-linecap="butt"
       d="m263.02954 142.01218l26.846619 0"
       fill-rule="evenodd"
       id="path1030" />
    <path
       fill="#000000"
       stroke="#000000"
       stroke-width="2.0"
       stroke-linecap="butt"
       d="m289.87616 142.01218l-2.249176 2.249176l6.179535 -2.249176l-6.179535 -2.2491608z"
       fill-rule="evenodd"
       id="path1032" />
    <path
       fill="#000000"
       fill-opacity="0.0"
       d="m422.591 71.37345l175.74805 0"
       fill-rule="evenodd"
       id="path1034" />
    <path
       stroke="#000000"
       stroke-width="2.0"
       stroke-linejoin="round"
       stroke-linecap="butt"
       d="m422.591 71.37345l175.74805 0"
       fill-rule="evenodd"
       id="path1036" />
    <path
       fill="#000000"
       fill-opacity="0.0"
       d="m640.85614 135.48712l0 -71.42209l136.50781 0l0 71.42209z"
       fill-rule="evenodd"
       id="path1038" />
    <path
       stroke="#000000"
       stroke-width="2.0"
       stroke-linejoin="round"
       stroke-linecap="butt"
       d="m640.85614 135.48712l0 -71.42209l136.50781 0l0 71.42209z"
       fill-rule="evenodd"
       id="path1040" />
    <path
       fill="#000000"
       fill-opacity="0.0"
       d="m755.439 134.47224l0 -71.48552"
       fill-rule="evenodd"
       id="path1042" />
    <path
       stroke="#000000"
       stroke-width="2.0"
       stroke-linejoin="round"
       stroke-linecap="butt"
       d="m755.439 134.47224l0 -71.48552"
       fill-rule="evenodd"
       id="path1044" />
    <path
       fill="#000000"
       fill-opacity="0.0"
       d="m661.7821 134.47224l0 -71.48552"
       fill-rule="evenodd"
       id="path1046" />
    <path
       stroke="#000000"
       stroke-width="2.0"
       stroke-linejoin="round"
       stroke-linecap="butt"
       d="m661.7821 134.47224l0 -71.48552"
       fill-rule="evenodd"
       id="path1048" />
    <path
       fill="#000000"
       fill-opacity="0.0"
       d="m733.02246 135.48712l0 -71.42209"
       fill-rule="evenodd"
       id="path1050" />
    <path
       stroke="#000000"
       stroke-width="2.0"
       stroke-linejoin="round"
       stroke-linecap="butt"
       d="m733.02246 135.48712l0 -71.42209"
       fill-rule="evenodd"
       id="path1052" />
    <path
       fill="#000000"
       fill-opacity="0.0"
       d="m663.5807 85.14282l70.677185 0l0 31.275589l-70.677185 0z"
       fill-rule="evenodd"
       id="path1054" />
    <path
       fill="#000000"
       d="m692.5677 106.64062l0 -5.640625q0 -0.359375 -0.03125 -0.59375q-0.015625 -0.234375 -0.078125 -0.375q-0.0625 -0.140625 -0.15625 -0.1875q-0.078125 -0.0625 -0.21875 -0.0625q-0.15625 0 -0.296875 0.09375q-0.125 0.09375 -0.28125 0.3125q-0.140625 0.203125 -0.328125 0.5625q-0.1875 0.34375 -0.4375 0.84375l0 5.046875l-1.234375 0l0 -5.484375q0 -0.4375 -0.03125 -0.703125q-0.03125 -0.265625 -0.09375 -0.40625q-0.046875 -0.15625 -0.140625 -0.203125q-0.09375 -0.0625 -0.234375 -0.0625q-0.140625 0 -0.265625 0.078125q-0.125 0.078125 -0.28125 0.28125q-0.140625 0.203125 -0.328125 0.5625q-0.1875 0.34375 -0.453125 0.890625l0 5.046875l-1.25 0l0 -7.84375l1.046875 0l0.0625 1.484375q0.203125 -0.4375 0.390625 -0.75q0.1875 -0.3125 0.390625 -0.5q0.203125 -0.203125 0.4375 -0.28125q0.234375 -0.09375 0.515625 -0.09375q0.625 0 0.953125 0.421875q0.328125 0.40625 0.328125 1.265625q0.1875 -0.40625 0.359375 -0.71875q0.1875 -0.3125 0.390625 -0.53125q0.21875 -0.21875 0.46875 -0.328125q0.25 -0.109375 0.578125 -0.109375q1.46875 0 1.46875 2.265625l0 5.71875l-1.25 0zm9.421875 -2.140625q0 0.40625 -0.140625 0.734375q-0.140625 0.328125 -0.390625 0.59375q-0.234375 0.25 -0.5625 0.4375q-0.3125 0.171875 -0.6875 0.296875q-0.359375 0.109375 -0.75 0.15625q-0.375 0.0625 -0.734375 0.0625q-0.796875 0 -1.46875 -0.078125q-0.671875 -0.0625 -1.3125 -0.21875l0 -1.25q0.6875 0.1875 1.359375 0.296875q0.6875 0.09375 1.359375 0.09375q0.984375 0 1.453125 -0.265625q0.46875 -0.265625 0.46875 -0.75q0 -0.21875 -0.078125 -0.375q-0.078125 -0.171875 -0.28125 -0.328125q-0.1875 -0.15625 -0.59375 -0.3125q-0.40625 -0.171875 -1.125 -0.375q-0.53125 -0.15625 -0.984375 -0.359375q-0.4375 -0.203125 -0.765625 -0.46875q-0.328125 -0.28125 -0.515625 -0.640625q-0.1875 -0.375 -0.1875 -0.875q0 -0.328125 0.140625 -0.71875q0.15625 -0.390625 0.515625 -0.71875q0.375 -0.34375 1.0 -0.5625q0.625 -0.21875 1.5625 -0.21875q0.46875 0 1.03125 0.046875q0.5625 0.046875 1.171875 0.171875l0 1.21875q-0.640625 -0.15625 -1.21875 -0.234375q-0.578125 -0.078125 -1.0 -0.078125q-0.5 0 -0.859375 0.078125q-0.34375 0.078125 -0.5625 0.21875q-0.203125 0.140625 -0.296875 0.328125q-0.09375 0.171875 -0.09375 0.390625q0 0.203125 0.078125 0.375q0.078125 0.171875 0.296875 0.34375q0.234375 0.15625 0.625 0.3125q0.40625 0.15625 1.046875 0.34375q0.6875 0.203125 1.15625 0.4375q0.484375 0.21875 0.78125 0.5q0.296875 0.265625 0.421875 0.609375q0.140625 0.34375 0.140625 0.78125zm8.234375 -4.59375q0.21875 0.265625 0.328125 0.640625q0.125 0.359375 0.125 0.78125q0 0.609375 -0.21875 1.109375q-0.21875 0.5 -0.625 0.859375q-0.40625 0.359375 -0.984375 0.5625q-0.5625 0.203125 -1.234375 0.203125q-0.5 0 -0.9375 -0.109375q-0.421875 -0.109375 -0.671875 -0.265625q-0.140625 0.21875 -0.25 0.421875q-0.09375 0.1875 -0.09375 0.4375q0 0.296875 0.28125 0.5q0.28125 0.1875 0.75 0.203125l2.0625 0.078125q0.59375 0.015625 1.078125 0.15625q0.5 0.125 0.859375 0.375q0.359375 0.25 0.546875 0.625q0.203125 0.359375 0.203125 0.84375q0 0.53125 -0.234375 1.0q-0.21875 0.46875 -0.6875 0.8125q-0.46875 0.359375 -1.203125 0.5625q-0.71875 0.21875 -1.71875 0.21875q-0.953125 0 -1.625 -0.15625q-0.671875 -0.140625 -1.109375 -0.421875q-0.421875 -0.265625 -0.625 -0.640625q-0.1875 -0.359375 -0.1875 -0.8125q0 -0.5625 0.265625 -1.0q0.265625 -0.4375 0.828125 -0.828125q-0.203125 -0.09375 -0.359375 -0.234375q-0.140625 -0.140625 -0.234375 -0.3125q-0.09375 -0.171875 -0.140625 -0.359375q-0.046875 -0.1875 -0.046875 -0.359375q0 -0.515625 0.234375 -0.9375q0.234375 -0.421875 0.5625 -0.796875q-0.140625 -0.171875 -0.265625 -0.34375q-0.109375 -0.171875 -0.1875 -0.375q-0.078125 -0.203125 -0.125 -0.421875q-0.046875 -0.234375 -0.046875 -0.53125q0 -0.609375 0.21875 -1.109375q0.234375 -0.515625 0.625 -0.875q0.40625 -0.359375 0.96875 -0.546875q0.578125 -0.203125 1.265625 -0.203125q0.28125 0 0.546875 0.046875q0.265625 0.03125 0.46875 0.09375l2.84375 0l0 1.109375l-1.25 0zm-4.71875 7.875q0 0.546875 0.578125 0.796875q0.578125 0.265625 1.609375 0.265625q0.640625 0 1.078125 -0.125q0.453125 -0.109375 0.71875 -0.3125q0.265625 -0.1875 0.375 -0.4375q0.125 -0.234375 0.125 -0.5q0 -0.46875 -0.390625 -0.703125q-0.390625 -0.234375 -1.1875 -0.265625l-2.046875 -0.078125q-0.265625 0.171875 -0.4375 0.34375q-0.15625 0.171875 -0.25 0.328125q-0.09375 0.171875 -0.140625 0.34375q-0.03125 0.171875 -0.03125 0.34375zm0.40625 -6.421875q0 0.375 0.125 0.6875q0.125 0.3125 0.34375 0.53125q0.234375 0.21875 0.546875 0.34375q0.3125 0.109375 0.6875 0.109375q0.40625 0 0.71875 -0.125q0.3125 -0.140625 0.53125 -0.375q0.21875 -0.234375 0.328125 -0.53125q0.109375 -0.3125 0.109375 -0.640625q0 -0.375 -0.125 -0.6875q-0.125 -0.3125 -0.359375 -0.53125q-0.21875 -0.21875 -0.53125 -0.34375q-0.296875 -0.125 -0.671875 -0.125q-0.40625 0 -0.734375 0.140625q-0.3125 0.140625 -0.53125 0.375q-0.203125 0.234375 -0.328125 0.546875q-0.109375 0.296875 -0.109375 0.625z"
       fill-rule="nonzero"
       id="path1056" />
    <path
       fill="#000000"
       fill-opacity="0.0"
       d="m708.32465 274.0237l70.677124 0l0 137.95276l-70.677124 0z"
       fill-rule="evenodd"
       id="path1058" />
    <path
       stroke="#000000"
       stroke-width="2.0"
       stroke-linejoin="round"
       stroke-linecap="butt"
       d="m708.32465 274.0237l70.677124 0l0 137.95276l-70.677124 0z"
       fill-rule="evenodd"
       id="path1060" />
    <path
       fill="#000000"
       fill-opacity="0.0"
       d="m709.3288 389.82388l70.74017 0"
       fill-rule="evenodd"
       id="path1066" />
    <path
       stroke="#000000"
       stroke-width="2.0"
       stroke-linejoin="round"
       stroke-linecap="butt"
       d="m709.3288 389.82388l70.74017 0"
       fill-rule="evenodd"
       id="path1068" />
    <path
       fill="#000000"
       fill-opacity="0.0"
       d="m709.3288 295.172l70.74017 0"
       fill-rule="evenodd"
       id="path1070" />
    <path
       stroke="#000000"
       stroke-width="2.0"
       stroke-linejoin="round"
       stroke-linecap="butt"
       d="m709.3288 295.172l70.74017 0"
       fill-rule="evenodd"
       id="path1072" />
    <path
       fill="#000000"
       fill-opacity="0.0"
       d="m708.32465 367.16916l70.677124 0"
       fill-rule="evenodd"
       id="path1074" />
    <path
       stroke="#000000"
       stroke-width="2.0"
       stroke-linejoin="round"
       stroke-linecap="butt"
       d="m708.32465 367.16916l70.677124 0"
       fill-rule="evenodd"
       id="path1076" />
    <path
       fill="#000000"
       fill-opacity="0.0"
       d="m708.32465 412.4786l70.677124 0l0 31.275574l-70.677124 0z"
       fill-rule="evenodd"
       id="path1078" />
    <path
       fill="#000000"
       d="m733.63196 433.97638l-1.359375 0l0 -5.015625q0 -0.90625 -0.34375 -1.34375q-0.34375 -0.453125 -0.96875 -0.453125q-0.28125 0 -0.515625 0.078125q-0.234375 0.0625 -0.5 0.25q-0.25 0.1875 -0.5625 0.5q-0.296875 0.3125 -0.703125 0.78125l0 5.203125l-1.359375 0l0 -11.046875l1.359375 0l0 3.203125l-0.046875 1.234375q0.328125 -0.390625 0.625 -0.640625q0.3125 -0.265625 0.625 -0.421875q0.3125 -0.171875 0.625 -0.234375q0.328125 -0.078125 0.671875 -0.078125q1.171875 0 1.8125 0.71875q0.640625 0.703125 0.640625 2.140625l0 5.125zm7.53125 0l-0.03125 -1.0625q-0.640625 0.640625 -1.3125 0.921875q-0.65625 0.28125 -1.375 0.28125q-0.671875 0 -1.15625 -0.171875q-0.46875 -0.171875 -0.78125 -0.46875q-0.3125 -0.3125 -0.453125 -0.71875q-0.140625 -0.40625 -0.140625 -0.875q0 -1.1875 0.875 -1.84375q0.875 -0.671875 2.59375 -0.671875l1.625 0l0 -0.6875q0 -0.703125 -0.453125 -1.109375q-0.4375 -0.421875 -1.34375 -0.421875q-0.671875 0 -1.3125 0.15625q-0.640625 0.140625 -1.328125 0.40625l0 -1.21875q0.25 -0.09375 0.5625 -0.1875q0.328125 -0.09375 0.671875 -0.15625q0.359375 -0.078125 0.734375 -0.109375q0.390625 -0.046875 0.78125 -0.046875q0.703125 0 1.265625 0.15625q0.578125 0.15625 0.96875 0.484375q0.40625 0.3125 0.609375 0.796875q0.21875 0.484375 0.21875 1.140625l0 5.40625l-1.21875 0zm-0.15625 -3.578125l-1.71875 0q-0.515625 0 -0.890625 0.109375q-0.359375 0.09375 -0.59375 0.28125q-0.234375 0.1875 -0.34375 0.453125q-0.109375 0.265625 -0.109375 0.59375q0 0.21875 0.0625 0.4375q0.078125 0.203125 0.234375 0.359375q0.15625 0.15625 0.40625 0.25q0.25 0.09375 0.609375 0.09375q0.46875 0 1.0625 -0.28125q0.609375 -0.28125 1.28125 -0.90625l0 -1.390625zm10.125 1.4375q0 0.40625 -0.140625 0.734375q-0.140625 0.328125 -0.390625 0.59375q-0.234375 0.25 -0.5625 0.4375q-0.3125 0.171875 -0.6875 0.296875q-0.359375 0.109375 -0.75 0.15625q-0.375 0.0625 -0.734375 0.0625q-0.796875 0 -1.46875 -0.078125q-0.671875 -0.0625 -1.3125 -0.21875l0 -1.25q0.6875 0.1875 1.359375 0.296875q0.6875 0.09375 1.359375 0.09375q0.984375 0 1.453125 -0.265625q0.46875 -0.265625 0.46875 -0.75q0 -0.21875 -0.078125 -0.375q-0.078125 -0.171875 -0.28125 -0.328125q-0.1875 -0.15625 -0.59375 -0.3125q-0.40625 -0.171875 -1.125 -0.375q-0.53125 -0.15625 -0.984375 -0.359375q-0.4375 -0.203125 -0.765625 -0.46875q-0.328125 -0.28125 -0.515625 -0.640625q-0.1875 -0.375 -0.1875 -0.875q0 -0.328125 0.140625 -0.71875q0.15625 -0.390625 0.515625 -0.71875q0.375 -0.34375 1.0 -0.5625q0.625 -0.21875 1.5625 -0.21875q0.46875 0 1.03125 0.046875q0.5625 0.046875 1.171875 0.171875l0 1.21875q-0.640625 -0.15625 -1.21875 -0.234375q-0.578125 -0.078125 -1.0 -0.078125q-0.5 0 -0.859375 0.078125q-0.34375 0.078125 -0.5625 0.21875q-0.203125 0.140625 -0.296875 0.328125q-0.09375 0.171875 -0.09375 0.390625q0 0.203125 0.078125 0.375q0.078125 0.171875 0.296875 0.34375q0.234375 0.15625 0.625 0.3125q0.40625 0.15625 1.046875 0.34375q0.6875 0.203125 1.15625 0.4375q0.484375 0.21875 0.78125 0.5q0.296875 0.265625 0.421875 0.609375q0.140625 0.34375 0.140625 0.78125zm8.890625 2.140625l-1.359375 0l0 -5.015625q0 -0.90625 -0.34375 -1.34375q-0.34375 -0.453125 -0.96875 -0.453125q-0.28125 0 -0.515625 0.078125q-0.234375 0.0625 -0.5 0.25q-0.25 0.1875 -0.5625 0.5q-0.296875 0.3125 -0.703125 0.78125l0 5.203125l-1.359375 0l0 -11.046875l1.359375 0l0 3.203125l-0.046875 1.234375q0.328125 -0.390625 0.625 -0.640625q0.3125 -0.265625 0.625 -0.421875q0.3125 -0.171875 0.625 -0.234375q0.328125 -0.078125 0.671875 -0.078125q1.171875 0 1.8125 0.71875q0.640625 0.703125 0.640625 2.140625l0 5.125z"
       fill-rule="nonzero"
       id="path1080" />
    <path
       fill="#000000"
       fill-opacity="0.0"
       d="m565.3532 274.52057l70.677185 0l0 137.95276l-70.677185 0z"
       fill-rule="evenodd"
       id="path1082" />
    <path
       stroke="#000000"
       stroke-width="2.0"
       stroke-linejoin="round"
       stroke-linecap="butt"
       d="m565.3532 274.52057l70.677185 0l0 137.95276l-70.677185 0z"
       fill-rule="evenodd"
       id="path1084" />
    <path
       fill="#000000"
       fill-opacity="0.0"
       d="m566.3574 390.32074l70.74011 0"
       fill-rule="evenodd"
       id="path1090" />
    <path
       stroke="#000000"
       stroke-width="2.0"
       stroke-linejoin="round"
       stroke-linecap="butt"
       d="m566.3574 390.32074l70.74011 0"
       fill-rule="evenodd"
       id="path1092" />
    <path
       fill="#000000"
       fill-opacity="0.0"
       d="m566.3574 295.66885l70.74011 0"
       fill-rule="evenodd"
       id="path1094" />
    <path
       stroke="#000000"
       stroke-width="2.0"
       stroke-linejoin="round"
       stroke-linecap="butt"
       d="m566.3574 295.66885l70.74011 0"
       fill-rule="evenodd"
       id="path1096" />
    <path
       fill="#000000"
       fill-opacity="0.0"
       d="m565.3532 367.66602l70.677185 0"
       fill-rule="evenodd"
       id="path1098" />
    <path
       stroke="#000000"
       stroke-width="2.0"
       stroke-linejoin="round"
       stroke-linecap="butt"
       d="m565.3532 367.66602l70.677185 0"
       fill-rule="evenodd"
       id="path1100" />
    <path
       fill="#000000"
       fill-opacity="0.0"
       d="m565.3532 412.97546l70.677185 0l0 31.275574l-70.677185 0z"
       fill-rule="evenodd"
       id="path1102" />
    <path
       fill="#000000"
       d="m575.1605 430.7076q0 -1.0 0.265625 -1.765625q0.28125 -0.78125 0.78125 -1.3125q0.5 -0.546875 1.203125 -0.8125q0.71875 -0.28125 1.578125 -0.28125q0.375 0 0.734375 0.046875q0.375 0.046875 0.71875 0.140625l0 -3.296875l1.375 0l0 11.046875l-1.21875 0l-0.046875 -1.484375q-0.578125 0.828125 -1.25 1.234375q-0.65625 0.390625 -1.421875 0.390625q-0.671875 0 -1.1875 -0.28125q-0.515625 -0.28125 -0.859375 -0.796875q-0.328125 -0.515625 -0.5 -1.234375q-0.171875 -0.71875 -0.171875 -1.59375zm1.390625 -0.078125q0 1.421875 0.40625 2.125q0.421875 0.6875 1.1875 0.6875q0.515625 0 1.09375 -0.453125q0.578125 -0.46875 1.203125 -1.375l0 -3.640625q-0.328125 -0.15625 -0.734375 -0.234375q-0.40625 -0.078125 -0.8125 -0.078125q-1.109375 0 -1.734375 0.71875q-0.609375 0.71875 -0.609375 2.25zm10.46875 -2.875l-2.3125 0l0 -1.125l3.6875 0l0 6.703125l2.34375 0l0 1.140625l-6.296875 0l0 -1.140625l2.578125 0l0 -5.578125zm0.484375 -4.421875q0.21875 0 0.40625 0.09375q0.203125 0.078125 0.34375 0.234375q0.15625 0.140625 0.234375 0.328125q0.078125 0.1875 0.078125 0.421875q0 0.21875 -0.078125 0.421875q-0.078125 0.1875 -0.234375 0.34375q-0.140625 0.140625 -0.34375 0.21875q-0.1875 0.078125 -0.40625 0.078125q-0.234375 0 -0.4375 -0.078125q-0.1875 -0.078125 -0.328125 -0.21875q-0.140625 -0.15625 -0.234375 -0.34375q-0.078125 -0.203125 -0.078125 -0.421875q0 -0.234375 0.078125 -0.421875q0.09375 -0.1875 0.234375 -0.328125q0.140625 -0.15625 0.328125 -0.234375q0.203125 -0.09375 0.4375 -0.09375zm11.296875 4.40625q0.21875 0.265625 0.328125 0.640625q0.125 0.359375 0.125 0.78125q0 0.609375 -0.21875 1.109375q-0.21875 0.5 -0.625 0.859375q-0.40625 0.359375 -0.984375 0.5625q-0.5625 0.203125 -1.234375 0.203125q-0.5 0 -0.9375 -0.109375q-0.421875 -0.109375 -0.671875 -0.265625q-0.140625 0.21875 -0.25 0.421875q-0.09375 0.1875 -0.09375 0.4375q0 0.296875 0.28125 0.5q0.28125 0.1875 0.75 0.203125l2.0625 0.078125q0.59375 0.015625 1.078125 0.15625q0.5 0.125 0.859375 0.375q0.359375 0.25 0.546875 0.625q0.203125 0.359375 0.203125 0.84375q0 0.53125 -0.234375 1.0q-0.21875 0.46875 -0.6875 0.8125q-0.46875 0.359375 -1.203125 0.5625q-0.71875 0.21875 -1.71875 0.21875q-0.953125 0 -1.625 -0.15625q-0.671875 -0.140625 -1.109375 -0.421875q-0.421875 -0.265625 -0.625 -0.640625q-0.1875 -0.359375 -0.1875 -0.8125q0 -0.5625 0.265625 -1.0q0.265625 -0.4375 0.828125 -0.828125q-0.203125 -0.09375 -0.359375 -0.234375q-0.140625 -0.140625 -0.234375 -0.3125q-0.09375 -0.171875 -0.140625 -0.359375q-0.046875 -0.1875 -0.046875 -0.359375q0 -0.515625 0.234375 -0.9375q0.234375 -0.421875 0.5625 -0.796875q-0.140625 -0.171875 -0.265625 -0.34375q-0.109375 -0.171875 -0.1875 -0.375q-0.078125 -0.203125 -0.125 -0.421875q-0.046875 -0.234375 -0.046875 -0.53125q0 -0.609375 0.21875 -1.109375q0.234375 -0.515625 0.625 -0.875q0.40625 -0.359375 0.96875 -0.546875q0.578125 -0.203125 1.265625 -0.203125q0.28125 0 0.546875 0.046875q0.265625 0.03125 0.46875 0.09375l2.84375 0l0 1.109375l-1.25 0zm-4.71875 7.875q0 0.546875 0.578125 0.796875q0.578125 0.265625 1.609375 0.265625q0.640625 0 1.078125 -0.125q0.453125 -0.109375 0.71875 -0.3125q0.265625 -0.1875 0.375 -0.4375q0.125 -0.234375 0.125 -0.5q0 -0.46875 -0.390625 -0.703125q-0.390625 -0.234375 -1.1875 -0.265625l-2.046875 -0.078125q-0.265625 0.171875 -0.4375 0.34375q-0.15625 0.171875 -0.25 0.328125q-0.09375 0.171875 -0.140625 0.34375q-0.03125 0.171875 -0.03125 0.34375zm0.40625 -6.421875q0 0.375 0.125 0.6875q0.125 0.3125 0.34375 0.53125q0.234375 0.21875 0.546875 0.34375q0.3125 0.109375 0.6875 0.109375q0.40625 0 0.71875 -0.125q0.3125 -0.140625 0.53125 -0.375q0.21875 -0.234375 0.328125 -0.53125q0.109375 -0.3125 0.109375 -0.640625q0 -0.375 -0.125 -0.6875q-0.125 -0.3125 -0.359375 -0.53125q-0.21875 -0.21875 -0.53125 -0.34375q-0.296875 -0.125 -0.671875 -0.125q-0.40625 0 -0.734375 0.140625q-0.3125 0.140625 -0.53125 0.375q-0.203125 0.234375 -0.328125 0.546875q-0.109375 0.296875 -0.109375 0.625zm14.078125 0.9375q0 0.296875 -0.015625 0.5q0 0.1875 -0.015625 0.359375l-5.5 0q0 1.203125 0.671875 1.84375q0.671875 0.640625 1.9375 0.640625q0.34375 0 0.6875 -0.015625q0.34375 -0.03125 0.65625 -0.078125q0.328125 -0.046875 0.609375 -0.109375q0.296875 -0.0625 0.546875 -0.125l0 1.109375q-0.546875 0.15625 -1.25 0.25q-0.703125 0.109375 -1.453125 0.109375q-1.0 0 -1.734375 -0.265625q-0.71875 -0.28125 -1.1875 -0.796875q-0.46875 -0.53125 -0.6875 -1.28125q-0.21875 -0.75 -0.21875 -1.703125q0 -0.828125 0.234375 -1.5625q0.234375 -0.75 0.6875 -1.296875q0.46875 -0.5625 1.125 -0.890625q0.671875 -0.328125 1.515625 -0.328125q0.8125 0 1.4375 0.265625q0.640625 0.25 1.078125 0.71875q0.4375 0.46875 0.65625 1.15625q0.21875 0.671875 0.21875 1.5zm-1.40625 -0.1875q0.015625 -0.53125 -0.109375 -0.953125q-0.125 -0.4375 -0.390625 -0.75q-0.25 -0.3125 -0.640625 -0.484375q-0.390625 -0.1875 -0.90625 -0.1875q-0.453125 0 -0.828125 0.171875q-0.359375 0.171875 -0.625 0.484375q-0.265625 0.3125 -0.4375 0.75q-0.15625 0.4375 -0.1875 0.96875l4.125 0zm9.796875 2.390625q0 0.40625 -0.140625 0.734375q-0.140625 0.328125 -0.390625 0.59375q-0.234375 0.25 -0.5625 0.4375q-0.3125 0.171875 -0.6875 0.296875q-0.359375 0.109375 -0.75 0.15625q-0.375 0.0625 -0.734375 0.0625q-0.796875 0 -1.46875 -0.078125q-0.671875 -0.0625 -1.3125 -0.21875l0 -1.25q0.6875 0.1875 1.359375 0.296875q0.6875 0.09375 1.359375 0.09375q0.984375 0 1.453125 -0.265625q0.46875 -0.265625 0.46875 -0.75q0 -0.21875 -0.078125 -0.375q-0.078125 -0.171875 -0.28125 -0.328125q-0.1875 -0.15625 -0.59375 -0.3125q-0.40625 -0.171875 -1.125 -0.375q-0.53125 -0.15625 -0.984375 -0.359375q-0.4375 -0.203125 -0.765625 -0.46875q-0.328125 -0.28125 -0.515625 -0.640625q-0.1875 -0.375 -0.1875 -0.875q0 -0.328125 0.140625 -0.71875q0.15625 -0.390625 0.515625 -0.71875q0.375 -0.34375 1.0 -0.5625q0.625 -0.21875 1.5625 -0.21875q0.46875 0 1.03125 0.046875q0.5625 0.046875 1.171875 0.171875l0 1.21875q-0.640625 -0.15625 -1.21875 -0.234375q-0.578125 -0.078125 -1.0 -0.078125q-0.5 0 -0.859375 0.078125q-0.34375 0.078125 -0.5625 0.21875q-0.203125 0.140625 -0.296875 0.328125q-0.09375 0.171875 -0.09375 0.390625q0 0.203125 0.078125 0.375q0.078125 0.171875 0.296875 0.34375q0.234375 0.15625 0.625 0.3125q0.40625 0.15625 1.046875 0.34375q0.6875 0.203125 1.15625 0.4375q0.484375 0.21875 0.78125 0.5q0.296875 0.265625 0.421875 0.609375q0.140625 0.34375 0.140625 0.78125zm8.90625 2.03125q-0.46875 0.125 -0.96875 0.171875q-0.484375 0.046875 -0.984375 0.046875q-1.484375 0 -2.21875 -0.671875q-0.71875 -0.671875 -0.71875 -2.046875l0 -4.09375l-2.1875 0l0 -1.140625l2.1875 0l0 -2.15625l1.359375 -0.359375l0 2.515625l3.53125 0l0 1.140625l-3.53125 0l0 3.984375q0 0.84375 0.453125 1.265625q0.453125 0.40625 1.328125 0.40625q0.375 0 0.8125 -0.046875q0.453125 -0.0625 0.9375 -0.1875l0 1.171875z"
       fill-rule="nonzero"
       id="path1104" />
    <path
       fill="#000000"
       fill-opacity="0.0"
       d="m853.3672 55.965496l125.00787 0l0 307.68506l-125.00787 0z"
       fill-rule="evenodd"
       id="path1106" />
    <path
       stroke="#000000"
       stroke-width="2.0"
       stroke-linejoin="round"
       stroke-linecap="butt"
       d="m853.3672 55.965496l125.00787 0l0 307.68506l-125.00787 0z"
       fill-rule="evenodd"
       id="path1108" />
    <path
       fill="#000000"
       d="m880.14844 89.93487q-1.234375 0.515625 -2.578125 0.515625q-2.15625 0 -3.328125 -1.296875q-1.15625 -1.296875 -1.15625 -3.828125q0 -1.21875 0.3125 -2.203125q0.328125 -1.0 0.921875 -1.6875q0.59375 -0.703125 1.4375 -1.078125q0.84375 -0.375 1.890625 -0.375q0.71875 0 1.328125 0.125q0.609375 0.125 1.171875 0.375l0 1.359375q-0.5625 -0.296875 -1.15625 -0.453125q-0.59375 -0.171875 -1.296875 -0.171875q-0.71875 0 -1.296875 0.28125q-0.578125 0.265625 -0.984375 0.78125q-0.40625 0.5 -0.625 1.25q-0.21875 0.734375 -0.21875 1.671875q0 1.984375 0.796875 3.0q0.8125 1.0 2.359375 1.0q0.65625 0 1.25 -0.140625q0.609375 -0.15625 1.171875 -0.4375l0 1.3125zm9.09375 -3.59375q0 0.90625 -0.265625 1.671875q-0.25 0.765625 -0.734375 1.3125q-0.484375 0.53125 -1.1875 0.84375q-0.6875 0.296875 -1.5625 0.296875q-0.84375 0 -1.515625 -0.265625q-0.671875 -0.265625 -1.140625 -0.765625q-0.453125 -0.515625 -0.703125 -1.265625q-0.25 -0.75 -0.25 -1.71875q0 -0.921875 0.25 -1.671875q0.265625 -0.75 0.75 -1.296875q0.484375 -0.546875 1.171875 -0.84375q0.703125 -0.296875 1.59375 -0.296875q0.84375 0 1.5 0.265625q0.671875 0.25 1.140625 0.765625q0.46875 0.5 0.703125 1.25q0.25 0.75 0.25 1.71875zm-1.390625 0.0625q0 -0.734375 -0.15625 -1.265625q-0.15625 -0.546875 -0.453125 -0.90625q-0.296875 -0.375 -0.734375 -0.546875q-0.421875 -0.1875 -0.9375 -0.1875q-0.609375 0 -1.046875 0.234375q-0.4375 0.234375 -0.71875 0.640625q-0.265625 0.390625 -0.40625 0.921875q-0.125 0.53125 -0.125 1.109375q0 0.71875 0.15625 1.265625q0.171875 0.546875 0.46875 0.921875q0.296875 0.359375 0.71875 0.546875q0.421875 0.171875 0.953125 0.171875q0.609375 0 1.03125 -0.234375q0.4375 -0.234375 0.71875 -0.625q0.28125 -0.40625 0.40625 -0.9375q0.125 -0.53125 0.125 -1.109375zm8.953125 3.921875l0 -5.640625q0 -0.359375 -0.03125 -0.59375q-0.015625 -0.234375 -0.078125 -0.375q-0.0625 -0.140625 -0.15625 -0.1875q-0.078125 -0.0625 -0.21875 -0.0625q-0.15625 0 -0.296875 0.09375q-0.125 0.09375 -0.28125 0.3125q-0.140625 0.203125 -0.328125 0.5625q-0.1875 0.34375 -0.4375 0.84375l0 5.046875l-1.234375 0l0 -5.484375q0 -0.4375 -0.03125 -0.703125q-0.03125 -0.265625 -0.09375 -0.40625q-0.046875 -0.15625 -0.140625 -0.203125q-0.09375 -0.0625 -0.234375 -0.0625q-0.140625 0 -0.265625 0.078125q-0.125 0.078125 -0.28125 0.28125q-0.140625 0.203125 -0.328125 0.5625q-0.1875 0.34375 -0.453125 0.890625l0 5.046875l-1.25 0l0 -7.84375l1.046875 0l0.0625 1.484375q0.203125 -0.4375 0.390625 -0.75q0.1875 -0.3125 0.390625 -0.5q0.203125 -0.203125 0.4375 -0.28125q0.234375 -0.09375 0.515625 -0.09375q0.625 0 0.953125 0.421875q0.328125 0.40625 0.328125 1.265625q0.1875 -0.40625 0.359375 -0.71875q0.1875 -0.3125 0.390625 -0.53125q0.21875 -0.21875 0.46875 -0.328125q0.25 -0.109375 0.578125 -0.109375q1.46875 0 1.46875 2.265625l0 5.71875l-1.25 0zm9.90625 -4.0625q0 1.046875 -0.296875 1.828125q-0.28125 0.78125 -0.796875 1.296875q-0.515625 0.515625 -1.21875 0.78125q-0.703125 0.25 -1.53125 0.25q-0.375 0 -0.75 -0.046875q-0.359375 -0.03125 -0.75 -0.125l0 3.28125l-1.359375 0l0 -11.046875l1.21875 0l0.078125 1.3125q0.59375 -0.8125 1.25 -1.125q0.671875 -0.328125 1.4375 -0.328125q0.671875 0 1.171875 0.28125q0.515625 0.28125 0.859375 0.796875q0.34375 0.5 0.515625 1.234375q0.171875 0.71875 0.171875 1.609375zm-1.390625 0.0625q0 -0.625 -0.09375 -1.140625q-0.078125 -0.515625 -0.28125 -0.875q-0.1875 -0.375 -0.5 -0.578125q-0.296875 -0.203125 -0.71875 -0.203125q-0.265625 0 -0.53125 0.078125q-0.265625 0.078125 -0.546875 0.28125q-0.28125 0.1875 -0.609375 0.5q-0.3125 0.3125 -0.671875 0.78125l0 3.8125q0.375 0.15625 0.78125 0.25q0.421875 0.078125 0.828125 0.078125q1.09375 0 1.71875 -0.734375q0.625 -0.75 0.625 -2.25zm3.8125 -3.84375l1.234375 0l0.046875 1.4375q0.6875 -0.828125 1.359375 -1.203125q0.6875 -0.375 1.375 -0.375q1.21875 0 1.84375 0.796875q0.625 0.78125 0.578125 2.328125l-1.375 0q0.03125 -1.03125 -0.296875 -1.484375q-0.328125 -0.46875 -0.953125 -0.46875q-0.265625 0 -0.546875 0.09375q-0.28125 0.09375 -0.578125 0.3125q-0.28125 0.21875 -0.609375 0.5625q-0.328125 0.328125 -0.703125 0.796875l0 5.046875l-1.375 0l0 -7.84375zm15.09375 3.5q0 0.296875 -0.015625 0.5q0 0.1875 -0.015625 0.359375l-5.5 0q0 1.203125 0.671875 1.84375q0.671875 0.640625 1.9375 0.640625q0.34375 0 0.6875 -0.015625q0.34375 -0.03125 0.65625 -0.078125q0.328125 -0.046875 0.609375 -0.109375q0.296875 -0.0625 0.546875 -0.125l0 1.109375q-0.546875 0.15625 -1.25 0.25q-0.703125 0.109375 -1.453125 0.109375q-1.0 0 -1.734375 -0.265625q-0.71875 -0.28125 -1.1875 -0.796875q-0.46875 -0.53125 -0.6875 -1.28125q-0.21875 -0.75 -0.21875 -1.703125q0 -0.828125 0.234375 -1.5625q0.234375 -0.75 0.6875 -1.296875q0.46875 -0.5625 1.125 -0.890625q0.671875 -0.328125 1.515625 -0.328125q0.8125 0 1.4375 0.265625q0.640625 0.25 1.078125 0.71875q0.4375 0.46875 0.65625 1.15625q0.21875 0.671875 0.21875 1.5zm-1.40625 -0.1875q0.015625 -0.53125 -0.109375 -0.953125q-0.125 -0.4375 -0.390625 -0.75q-0.25 -0.3125 -0.640625 -0.484375q-0.390625 -0.1875 -0.90625 -0.1875q-0.453125 0 -0.828125 0.171875q-0.359375 0.171875 -0.625 0.484375q-0.265625 0.3125 -0.4375 0.75q-0.15625 0.4375 -0.1875 0.96875l4.125 0zm9.796875 2.390625q0 0.40625 -0.140625 0.734375q-0.140625 0.328125 -0.390625 0.59375q-0.234375 0.25 -0.5625 0.4375q-0.3125 0.171875 -0.6875 0.296875q-0.359375 0.109375 -0.75 0.15625q-0.375 0.0625 -0.734375 0.0625q-0.796875 0 -1.46875 -0.078125q-0.671875 -0.0625 -1.3125 -0.21875l0 -1.25q0.6875 0.1875 1.359375 0.296875q0.6875 0.09375 1.359375 0.09375q0.984375 0 1.453125 -0.265625q0.46875 -0.265625 0.46875 -0.75q0 -0.21875 -0.078125 -0.375q-0.078125 -0.171875 -0.28125 -0.328125q-0.1875 -0.15625 -0.59375 -0.3125q-0.40625 -0.171875 -1.125 -0.375q-0.53125 -0.15625 -0.984375 -0.359375q-0.4375 -0.203125 -0.765625 -0.46875q-0.328125 -0.28125 -0.515625 -0.640625q-0.1875 -0.375 -0.1875 -0.875q0 -0.328125 0.140625 -0.71875q0.15625 -0.390625 0.515625 -0.71875q0.375 -0.34375 1.0 -0.5625q0.625 -0.21875 1.5625 -0.21875q0.46875 0 1.03125 0.046875q0.5625 0.046875 1.171875 0.171875l0 1.21875q-0.640625 -0.15625 -1.21875 -0.234375q-0.578125 -0.078125 -1.0 -0.078125q-0.5 0 -0.859375 0.078125q-0.34375 0.078125 -0.5625 0.21875q-0.203125 0.140625 -0.296875 0.328125q-0.09375 0.171875 -0.09375 0.390625q0 0.203125 0.078125 0.375q0.078125 0.171875 0.296875 0.34375q0.234375 0.15625 0.625 0.3125q0.40625 0.15625 1.046875 0.34375q0.6875 0.203125 1.15625 0.4375q0.484375 0.21875 0.78125 0.5q0.296875 0.265625 0.421875 0.609375q0.140625 0.34375 0.140625 0.78125zm8.796875 0q0 0.40625 -0.140625 0.734375q-0.140625 0.328125 -0.390625 0.59375q-0.234375 0.25 -0.5625 0.4375q-0.3125 0.171875 -0.6875 0.296875q-0.359375 0.109375 -0.75 0.15625q-0.375 0.0625 -0.734375 0.0625q-0.796875 0 -1.46875 -0.078125q-0.671875 -0.0625 -1.3125 -0.21875l0 -1.25q0.6875 0.1875 1.359375 0.296875q0.6875 0.09375 1.359375 0.09375q0.984375 0 1.453125 -0.265625q0.46875 -0.265625 0.46875 -0.75q0 -0.21875 -0.078125 -0.375q-0.078125 -0.171875 -0.28125 -0.328125q-0.1875 -0.15625 -0.59375 -0.3125q-0.40625 -0.171875 -1.125 -0.375q-0.53125 -0.15625 -0.984375 -0.359375q-0.4375 -0.203125 -0.765625 -0.46875q-0.328125 -0.28125 -0.515625 -0.640625q-0.1875 -0.375 -0.1875 -0.875q0 -0.328125 0.140625 -0.71875q0.15625 -0.390625 0.515625 -0.71875q0.375 -0.34375 1.0 -0.5625q0.625 -0.21875 1.5625 -0.21875q0.46875 0 1.03125 0.046875q0.5625 0.046875 1.171875 0.171875l0 1.21875q-0.640625 -0.15625 -1.21875 -0.234375q-0.578125 -0.078125 -1.0 -0.078125q-0.5 0 -0.859375 0.078125q-0.34375 0.078125 -0.5625 0.21875q-0.203125 0.140625 -0.296875 0.328125q-0.09375 0.171875 -0.09375 0.390625q0 0.203125 0.078125 0.375q0.078125 0.171875 0.296875 0.34375q0.234375 0.15625 0.625 0.3125q0.40625 0.15625 1.046875 0.34375q0.6875 0.203125 1.15625 0.4375q0.484375 0.21875 0.78125 0.5q0.296875 0.265625 0.421875 0.609375q0.140625 0.34375 0.140625 0.78125z"
       fill-rule="nonzero"
       id="path1110" />
    <path
       fill="#000000"
       fill-opacity="0.0"
       d="m777.36395 99.77608l77.00787 0"
       fill-rule="evenodd"
       id="path1112" />
    <path
       stroke="#000000"
       stroke-width="2.0"
       stroke-linejoin="round"
       stroke-linecap="butt"
       d="m777.36395 99.77607l70.15369 0"
       fill-rule="evenodd"
       id="path1114" />
    <path
       fill="#000000"
       stroke="#000000"
       stroke-width="2.0"
       stroke-linecap="butt"
       d="m847.51764 99.77607l-2.2492065 2.2491684l6.1795654 -2.2491684l-6.1795654 -2.2491608z"
       fill-rule="evenodd"
       id="path1116" />
    <path
       fill="#000000"
       fill-opacity="0.0"
       d="m778.99445 332.8435l74.236206 0"
       fill-rule="evenodd"
       id="path1118" />
    <path
       stroke="#000000"
       stroke-width="2.0"
       stroke-linejoin="round"
       stroke-linecap="butt"
       d="m778.99445 332.84354l67.38202 0"
       fill-rule="evenodd"
       id="path1120" />
    <path
       fill="#000000"
       stroke="#000000"
       stroke-width="2.0"
       stroke-linecap="butt"
       d="m846.37646 332.84354l-2.2491455 2.2491455l6.1795044 -2.2491455l-6.1795044 -2.249176z"
       fill-rule="evenodd"
       id="path1122" />
    <path
       fill="#000000"
       fill-opacity="0.0"
       d="m680.34735 294.5747l0 91.02362"
       fill-rule="evenodd"
       id="path1124" />
    <path
       stroke="#000000"
       stroke-width="4.0"
       stroke-linejoin="round"
       stroke-linecap="butt"
       d="m680.34735 294.5747l0 91.02362"
       fill-rule="evenodd"
       id="path1126" />
    <path
       fill="#000000"
       fill-opacity="0.0"
       d="m680.76556 343.0001l27.559082 0"
       fill-rule="evenodd"
       id="path1128" />
    <path
       stroke="#000000"
       stroke-width="1.0"
       stroke-linejoin="round"
       stroke-linecap="butt"
       d="m680.76556 343.0001l24.132019 0"
       fill-rule="evenodd"
       id="path1130" />
    <path
       fill="#000000"
       stroke="#000000"
       stroke-width="1.0"
       stroke-linecap="butt"
       d="m704.8976 343.0001l-1.1246338 1.1246033l3.0897827 -1.1246033l-3.0897827 -1.1245728z"
       fill-rule="evenodd"
       id="path1132" />
    <path
       fill="#000000"
       fill-opacity="0.0"
       d="m778.99445 209.8226l74.236206 0"
       fill-rule="evenodd"
       id="path1134" />
    <path
       stroke="#000000"
       stroke-width="2.0"
       stroke-linejoin="round"
       stroke-linecap="butt"
       d="m778.99445 209.82259l67.38202 0"
       fill-rule="evenodd"
       id="path1136" />
    <path
       fill="#000000"
       stroke="#000000"
       stroke-width="2.0"
       stroke-linecap="butt"
       d="m846.37646 209.82259l-2.2491455 2.249176l6.1795044 -2.249176l-6.1795044 -2.2491608z"
       fill-rule="evenodd"
       id="path1138" />
    <path
       fill="#000000"
       fill-opacity="0.0"
       d="m763.0425 179.3159l70.677124 0l0 31.275589l-70.677124 0z"
       fill-rule="evenodd"
       id="path1140" />
    <path
       fill="#000000"
       d="m789.0998 200.8137l-1.875 0l-3.65625 -4.203125l0 4.203125l-1.359375 0l0 -11.046875l1.359375 0l0 6.78125l3.53125 -3.578125l1.796875 0l-3.6875 3.609375l3.890625 4.234375zm7.03125 3.203125l-3.84375 0l0 -14.515625l3.84375 0l0 1.09375l-2.546875 0l0 12.328125l2.546875 0l0 1.09375zm3.828125 -11.046875l1.234375 0l0.046875 1.4375q0.6875 -0.828125 1.359375 -1.203125q0.6875 -0.375 1.375 -0.375q1.21875 0 1.84375 0.796875q0.625 0.78125 0.578125 2.328125l-1.375 0q0.03125 -1.03125 -0.296875 -1.484375q-0.328125 -0.46875 -0.953125 -0.46875q-0.265625 0 -0.546875 0.09375q-0.28125 0.09375 -0.578125 0.3125q-0.28125 0.21875 -0.609375 0.5625q-0.328125 0.328125 -0.703125 0.796875l0 5.046875l-1.375 0l0 -7.84375zm13.328125 11.046875l-3.859375 0l0 -1.09375l2.546875 0l0 -12.328125l-2.546875 0l0 -1.09375l3.859375 0l0 14.515625z"
       fill-rule="nonzero"
       id="path1142" />
    <path
       fill="#000000"
       fill-opacity="0.0"
       d="m978.02783 332.8435l47.748047 0"
       fill-rule="evenodd"
       id="path1144" />
    <path
       stroke="#000000"
       stroke-width="2.0"
       stroke-linejoin="round"
       stroke-linecap="butt"
       d="m978.02783 332.8435l47.748047 0"
       fill-rule="evenodd"
       id="path1146" />
    <path
       fill="#000000"
       fill-opacity="0.0"
       d="m1025.7634 333.9641l0 115.24408"
       fill-rule="evenodd"
       id="path1148" />
    <path
       stroke="#000000"
       stroke-width="2.0"
       stroke-linejoin="round"
       stroke-linecap="butt"
       d="m1025.7634 333.9641l0 115.24408"
       fill-rule="evenodd"
       id="path1150" />
    <path
       fill="#000000"
       fill-opacity="0.0"
       d="m1026.8461 449.18283l-368.8504 0"
       fill-rule="evenodd"
       id="path1152" />
    <path
       stroke="#000000"
       stroke-width="2.0"
       stroke-linejoin="round"
       stroke-linecap="butt"
       d="m1026.8461 449.18283l-368.8504 0"
       fill-rule="evenodd"
       id="path1154" />
    <path
       fill="#000000"
       fill-opacity="0.0"
       d="m659.04614 449.18283l0 -83.33859"
       fill-rule="evenodd"
       id="path1156" />
    <path
       stroke="#000000"
       stroke-width="2.0"
       stroke-linejoin="round"
       stroke-linecap="butt"
       d="m659.04614 449.18283l0 -83.33859"
       fill-rule="evenodd"
       id="path1158" />
    <path
       fill="#000000"
       fill-opacity="0.0"
       d="m659.04614 365.84772l20.661438 0"
       fill-rule="evenodd"
       id="path1160" />
    <path
       stroke="#000000"
       stroke-width="2.0"
       stroke-linejoin="round"
       stroke-linecap="butt"
       d="m659.04614 365.84772l20.661438 0"
       fill-rule="evenodd"
       id="path1162" />
    <path
       fill="#000000"
       fill-opacity="0.0"
       d="m636.2636 316.50528l44.503906 0"
       fill-rule="evenodd"
       id="path1164" />
    <path
       stroke="#000000"
       stroke-width="2.0"
       stroke-linejoin="round"
       stroke-linecap="butt"
       d="m636.2636 316.50528l44.503906 0"
       fill-rule="evenodd"
       id="path1166" />
    <path
       fill="#000000"
       fill-opacity="0.0"
       d="m600.00684 55.267776l0 91.02362"
       fill-rule="evenodd"
       id="path1168" />
    <path
       stroke="#000000"
       stroke-width="4.0"
       stroke-linejoin="round"
       stroke-linecap="butt"
       d="m600.00684 55.267776l0 91.02362"
       fill-rule="evenodd"
       id="path1170" />
    <path
       fill="#000000"
       fill-opacity="0.0"
       d="m600.4632 100.77806l40.409485 0"
       fill-rule="evenodd"
       id="path1172" />
    <path
       stroke="#000000"
       stroke-width="2.0"
       stroke-linejoin="round"
       stroke-linecap="butt"
       d="m600.4632 100.77806l33.555298 0"
       fill-rule="evenodd"
       id="path1174" />
    <path
       fill="#000000"
       stroke="#000000"
       stroke-width="2.0"
       stroke-linecap="butt"
       d="m634.0185 100.77806l-2.2491455 2.2491684l6.1795044 -2.2491684l-6.1795044 -2.2491684z"
       fill-rule="evenodd"
       id="path1176" />
    <path
       fill="#000000"
       fill-opacity="0.0"
       d="m534.4273 294.5747l0 91.02362"
       fill-rule="evenodd"
       id="path1178" />
    <path
       stroke="#000000"
       stroke-width="4.0"
       stroke-linejoin="round"
       stroke-linecap="butt"
       d="m534.4273 294.5747l0 91.02362"
       fill-rule="evenodd"
       id="path1180" />
    <path
       fill="#000000"
       fill-opacity="0.0"
       d="m537.8008 340.085l27.559021 0"
       fill-rule="evenodd"
       id="path1182" />
    <path
       stroke="#000000"
       stroke-width="2.0"
       stroke-linejoin="round"
       stroke-linecap="butt"
       d="m537.8008 340.085l20.704895 0"
       fill-rule="evenodd"
       id="path1184" />
    <path
       fill="#000000"
       stroke="#000000"
       stroke-width="2.0"
       stroke-linecap="butt"
       d="m558.5057 340.085l-2.2492065 2.249176l6.1795654 -2.249176l-6.1795654 -2.249176z"
       fill-rule="evenodd"
       id="path1186" />
    <path
       fill="#000000"
       fill-opacity="0.0"
       d="m475.7555 358.3684l55.307068 0"
       fill-rule="evenodd"
       id="path1188" />
    <path
       stroke="#000000"
       stroke-width="2.0"
       stroke-linejoin="round"
       stroke-linecap="butt"
       d="m475.7555 358.3684l55.307068 0"
       fill-rule="evenodd"
       id="path1190" />
    <path
       fill="#000000"
       fill-opacity="0.0"
       d="m456.65146 358.36575l70.677155 0l0 31.275604l-70.677155 0z"
       fill-rule="evenodd"
       id="path1192" />
    <path
       fill="#000000"
       d="m469.5213 373.1448l-2.3125 0l0 -1.125l3.6875 0l0 6.703125l2.34375 0l0 1.140625l-6.296875 0l0 -1.140625l2.578125 0l0 -5.578125zm0.484375 -4.421875q0.21875 0 0.40625 0.09375q0.203125 0.078125 0.34375 0.234375q0.15625 0.140625 0.234375 0.328125q0.078125 0.1875 0.078125 0.421875q0 0.21875 -0.078125 0.421875q-0.078125 0.1875 -0.234375 0.34375q-0.140625 0.140625 -0.34375 0.21875q-0.1875 0.078125 -0.40625 0.078125q-0.234375 0 -0.4375 -0.078125q-0.1875 -0.078125 -0.328125 -0.21875q-0.140625 -0.15625 -0.234375 -0.34375q-0.078125 -0.203125 -0.078125 -0.421875q0 -0.234375 0.078125 -0.421875q0.09375 -0.1875 0.234375 -0.328125q0.140625 -0.15625 0.328125 -0.234375q0.203125 -0.09375 0.4375 -0.09375zm5.640625 3.296875l1.21875 0l0.046875 1.265625q0.34375 -0.40625 0.65625 -0.671875q0.328125 -0.28125 0.640625 -0.4375q0.3125 -0.171875 0.625 -0.234375q0.328125 -0.0625 0.671875 -0.0625q1.203125 0 1.828125 0.71875q0.625 0.703125 0.625 2.140625l0 5.125l-1.359375 0l0 -5.015625q0 -0.921875 -0.34375 -1.359375q-0.34375 -0.4375 -1.03125 -0.4375q-0.25 0 -0.484375 0.078125q-0.234375 0.0625 -0.5 0.25q-0.25 0.1875 -0.5625 0.5q-0.296875 0.3125 -0.671875 0.78125l0 5.203125l-1.359375 0l0 -7.84375zm11.46875 1.125l-2.3125 0l0 -1.125l3.6875 0l0 6.703125l2.34375 0l0 1.140625l-6.296875 0l0 -1.140625l2.578125 0l0 -5.578125zm0.484375 -4.421875q0.21875 0 0.40625 0.09375q0.203125 0.078125 0.34375 0.234375q0.15625 0.140625 0.234375 0.328125q0.078125 0.1875 0.078125 0.421875q0 0.21875 -0.078125 0.421875q-0.078125 0.1875 -0.234375 0.34375q-0.140625 0.140625 -0.34375 0.21875q-0.1875 0.078125 -0.40625 0.078125q-0.234375 0 -0.4375 -0.078125q-0.1875 -0.078125 -0.328125 -0.21875q-0.140625 -0.15625 -0.234375 -0.34375q-0.078125 -0.203125 -0.078125 -0.421875q0 -0.234375 0.078125 -0.421875q0.09375 -0.1875 0.234375 -0.328125q0.140625 -0.15625 0.328125 -0.234375q0.203125 -0.09375 0.4375 -0.09375zm11.96875 11.03125q-0.46875 0.125 -0.96875 0.171875q-0.484375 0.046875 -0.984375 0.046875q-1.484375 0 -2.21875 -0.671875q-0.71875 -0.671875 -0.71875 -2.046875l0 -4.09375l-2.1875 0l0 -1.140625l2.1875 0l0 -2.15625l1.359375 -0.359375l0 2.515625l3.53125 0l0 1.140625l-3.53125 0l0 3.984375q0 0.84375 0.453125 1.265625q0.453125 0.40625 1.328125 0.40625q0.375 0 0.8125 -0.046875q0.453125 -0.0625 0.9375 -0.1875l0 1.171875zm10.015625 3.3125l-8.796875 0l0 -1.125l8.796875 0l0 1.125zm7.5625 -3.203125l-1.359375 0l0 -5.015625q0 -0.90625 -0.34375 -1.34375q-0.34375 -0.453125 -0.96875 -0.453125q-0.28125 0 -0.515625 0.078125q-0.234375 0.0625 -0.5 0.25q-0.25 0.1875 -0.5625 0.5q-0.296875 0.3125 -0.703125 0.78125l0 5.203125l-1.359375 0l0 -11.046875l1.359375 0l0 3.203125l-0.046875 1.234375q0.328125 -0.390625 0.625 -0.640625q0.3125 -0.265625 0.625 -0.421875q0.3125 -0.171875 0.625 -0.234375q0.328125 -0.078125 0.671875 -0.078125q1.171875 0 1.8125 0.71875q0.640625 0.703125 0.640625 2.140625l0 5.125z"
       fill-rule="nonzero"
       id="path1194" />
    <path
       fill="#000000"
       fill-opacity="0.0"
       d="m658.8892 317.63196l-0.3779297 -52.44095"
       fill-rule="evenodd"
       id="path1196" />
    <path
       stroke="#000000"
       stroke-width="2.0"
       stroke-linejoin="round"
       stroke-linecap="butt"
       d="m658.8892 317.63196l-0.32855225 -45.586945"
       fill-rule="evenodd"
       id="path1198" />
    <path
       fill="#000000"
       stroke="#000000"
       stroke-width="2.0"
       stroke-linecap="butt"
       d="m658.56067 272.045l2.2653198 2.2328796l-2.2936401 -6.163147l-2.2045898 6.195587z"
       fill-rule="evenodd"
       id="path1200" />
    <path
       fill="#000000"
       fill-opacity="0.0"
       d="m810.7676 332.86465l0 -83.33858"
       fill-rule="evenodd"
       id="path1202" />
    <path
       stroke="#000000"
       stroke-width="2.0"
       stroke-linejoin="round"
       stroke-linecap="butt"
       d="m810.7676 332.86465l0 -83.33858"
       fill-rule="evenodd"
       id="path1204" />
    <path
       fill="#000000"
       fill-opacity="0.0"
       d="m673.3645 250.1665l137.3858 0"
       fill-rule="evenodd"
       id="path1206" />
    <path
       stroke="#000000"
       stroke-width="2.0"
       stroke-linejoin="round"
       stroke-linecap="butt"
       d="m680.2187 250.1665l130.53162 0"
       fill-rule="evenodd"
       id="path1208" />
    <path
       fill="#000000"
       stroke="#000000"
       stroke-width="2.0"
       stroke-linecap="butt"
       d="m680.2187 250.1665l2.2491455 -2.249176l-6.1795044 2.249176l6.1795044 2.2491608z"
       fill-rule="evenodd"
       id="path1210" />
    <path
       fill="#000000"
       fill-opacity="0.0"
       d="m642.28876 250.66856l-161.66931 0"
       fill-rule="evenodd"
       id="path1212" />
    <path
       stroke="#000000"
       stroke-width="2.0"
       stroke-linejoin="round"
       stroke-linecap="butt"
       d="m642.28876 250.66856l-161.66931 0"
       fill-rule="evenodd"
       id="path1214" />
    <path
       fill="#000000"
       fill-opacity="0.0"
       d="m480.9438 250.629l0 63.62204"
       fill-rule="evenodd"
       id="path1216" />
    <path
       stroke="#000000"
       stroke-width="2.0"
       stroke-linejoin="round"
       stroke-linecap="butt"
       d="m480.9438 250.629l0 63.62204"
       fill-rule="evenodd"
       id="path1218" />
    <path
       fill="#000000"
       fill-opacity="0.0"
       d="m480.9438 313.1277l52.094482 0"
       fill-rule="evenodd"
       id="path1220" />
    <path
       stroke="#000000"
       stroke-width="2.0"
       stroke-linejoin="round"
       stroke-linecap="butt"
       d="m480.9438 313.1277l52.094482 0"
       fill-rule="evenodd"
       id="path1222" />
    <path
       fill="#000000"
       fill-opacity="0.0"
       d="m642.28876 235.03076l31.055115 0l0 31.275604l-31.055115 0z"
       fill-rule="evenodd"
       id="path1224" />
    <path
       stroke="#000000"
       stroke-width="2.0"
       stroke-linejoin="round"
       stroke-linecap="butt"
       d="m642.28876 235.03076l31.055115 0l0 31.275604l-31.055115 0z"
       fill-rule="evenodd"
       id="path1226" />
    <path
       fill="#000000"
       d="m659.0525 250.09668l5.296875 0l0 2.40625l-5.296875 0l0 5.859375l-2.40625 0l0 -5.859375l-5.28125 0l0 -2.40625l5.28125 0l0 -5.53125l2.40625 0l0 5.53125z"
       fill-rule="nonzero"
       id="path1228" />
    <path
       fill="#000000"
       fill-opacity="0.0"
       d="m688.1676 185.18828l0 0c0 -8.671295 6.9519653 -15.70079 15.527588 -15.70079l0 0c4.118164 0 8.067627 1.6541901 10.979614 4.5986633c2.9119873 2.9444733 4.5479126 6.938019 4.5479126 11.102127l0 0c0 8.67131 -6.9519043 15.70079 -15.527527 15.70079l0 0c-8.575623 0 -15.527588 -7.02948 -15.527588 -15.70079z"
       fill-rule="evenodd"
       id="path1230" />
    <path
       stroke="#000000"
       stroke-width="1.0"
       stroke-linejoin="round"
       stroke-linecap="butt"
       d="m688.1676 185.18828l0 0c0 -8.671295 6.9519653 -15.70079 15.527588 -15.70079l0 0c4.118164 0 8.067627 1.6541901 10.979614 4.5986633c2.9119873 2.9444733 4.5479126 6.938019 4.5479126 11.102127l0 0c0 8.67131 -6.9519043 15.70079 -15.527527 15.70079l0 0c-8.575623 0 -15.527588 -7.02948 -15.527588 -15.70079z"
       fill-rule="evenodd"
       id="path1232" />
    <path
       fill="#000000"
       d="m704.9314 184.61641l5.296875 0l0 2.40625l-5.296875 0l0 5.859375l-2.40625 0l0 -5.859375l-5.28125 0l0 -2.40625l5.28125 0l0 -5.53125l2.40625 0l0 5.53125z"
       fill-rule="nonzero"
       id="path1234" />
    <path
       fill="#000000"
       fill-opacity="0.0"
       d="m688.1676 185.18828l-155.46454 0"
       fill-rule="evenodd"
       id="path1236" />
    <path
       stroke="#000000"
       stroke-width="2.0"
       stroke-linejoin="round"
       stroke-linecap="butt"
       d="m688.1676 185.18828l-155.46454 0"
       fill-rule="evenodd"
       id="path1238" />
    <path
       fill="#000000"
       fill-opacity="0.0"
       d="m533.0204 186.0175l0 -53.732285"
       fill-rule="evenodd"
       id="path1240" />
    <path
       stroke="#000000"
       stroke-width="2.0"
       stroke-linejoin="round"
       stroke-linecap="butt"
       d="m533.0204 186.0175l0 -53.732285"
       fill-rule="evenodd"
       id="path1242" />
    <path
       fill="#000000"
       fill-opacity="0.0"
       d="m533.0204 132.8414l67.275635 0"
       fill-rule="evenodd"
       id="path1244" />
    <path
       stroke="#000000"
       stroke-width="2.0"
       stroke-linejoin="round"
       stroke-linecap="butt"
       d="m533.0204 132.8414l67.275635 0"
       fill-rule="evenodd"
       id="path1246" />
    <path
       fill="#000000"
       fill-opacity="0.0"
       d="m669.251 135.283l23.464539 38.803146"
       fill-rule="evenodd"
       id="path1248" />
    <path
       stroke="#000000"
       stroke-width="2.0"
       stroke-linejoin="round"
       stroke-linecap="butt"
       d="m669.251 135.283l23.464539 38.803146"
       fill-rule="evenodd"
       id="path1250" />
    <path
       fill="#000000"
       fill-opacity="0.0"
       d="m698.6175 135.38913l1.7637329 34.645676"
       fill-rule="evenodd"
       id="path1252" />
    <path
       stroke="#000000"
       stroke-width="2.0"
       stroke-linejoin="round"
       stroke-linecap="butt"
       d="m698.6175 135.38913l1.7637329 34.645676"
       fill-rule="evenodd"
       id="path1254" />
    <path
       fill="#000000"
       fill-opacity="0.0"
       d="m768.3615 135.13542l-50.519653 43.842514"
       fill-rule="evenodd"
       id="path1256" />
    <path
       stroke="#000000"
       stroke-width="2.0"
       stroke-linejoin="round"
       stroke-linecap="butt"
       d="m768.3615 135.13542l-50.519653 43.842514"
       fill-rule="evenodd"
       id="path1258" />
    <path
       fill="#000000"
       fill-opacity="0.0"
       d="m744.8206 135.51599l-34.519653 35.527557"
       fill-rule="evenodd"
       id="path1260" />
    <path
       stroke="#000000"
       stroke-width="2.0"
       stroke-linejoin="round"
       stroke-linecap="butt"
       d="m744.8206 135.51599l-34.519653 35.527557"
       fill-rule="evenodd"
       id="path1262" />
    <path
       fill="#000000"
       fill-opacity="0.0"
       d="m422.591 449.18283l173.60632 0"
       fill-rule="evenodd"
       id="path1264" />
    <path
       stroke="#000000"
       stroke-width="2.0"
       stroke-linejoin="round"
       stroke-linecap="butt"
       d="m429.44516 449.18283l166.75217 0"
       fill-rule="evenodd"
       id="path1266" />
    <path
       fill="#000000"
       stroke="#000000"
       stroke-width="2.0"
       stroke-linecap="butt"
       d="m429.4452 449.18283l2.2491455 -2.249176l-6.179535 2.249176l6.179535 2.249176z"
       fill-rule="evenodd"
       id="path1268" />
    <path
       fill="#000000"
       fill-opacity="0.0"
       d="m600.6918 444.25104l0 0"
       fill-rule="evenodd"
       id="path1270" />
    <path
       stroke="#000000"
       stroke-width="1.0"
       stroke-linejoin="round"
       stroke-linecap="butt"
       d="m600.6918 444.25104l0 0"
       fill-rule="evenodd"
       id="path1272" />
    <path
       fill="#000000"
       fill-opacity="0.0"
       d="m596.18494 438.87033l0 10.708649"
       fill-rule="evenodd"
       id="path1274" />
    <path
       stroke="#000000"
       stroke-width="2.0"
       stroke-linejoin="round"
       stroke-linecap="butt"
       d="m596.18494 438.87033l0 10.708649"
       fill-rule="evenodd"
       id="path1276" />
    <text
       xml:space="preserve"
       id="text2311"
       style="font-style:normal;font-variant:normal;font-weight:normal;font-stretch:normal;font-size:16px;font-family:Verdana;-inkscape-font-specification:'Verdana, Normal';font-variant-ligatures:normal;font-variant-caps:normal;font-variant-numeric:normal;font-variant-east-asian:normal;white-space:pre;shape-inside:url(#rect2313);shape-padding:4.49272;fill:#000000;fill-opacity:1"
       transform="translate(-5.3458143,-4.7265047)"><tspan
         x="590.11328"
         y="337.6383"
         id="tspan2672"><tspan
           style="font-size:14.6667px"
           id="tspan2670">8 x </tspan></tspan><tspan
         x="590.11328"
         y="357.6383"
         id="tspan2676"><tspan
           style="font-size:14.6667px"
           id="tspan2674">64b</tspan></tspan></text>
    <text
       xml:space="preserve"
       id="text2311-2"
       style="font-style:normal;font-variant:normal;font-weight:normal;font-stretch:normal;font-size:16px;font-family:Verdana;-inkscape-font-specification:'Verdana, Normal';font-variant-ligatures:normal;font-variant-caps:normal;font-variant-numeric:normal;font-variant-east-asian:normal;white-space:pre;shape-inside:url(#rect2313-6);shape-padding:4.49272;display:inline;fill:#000000;fill-opacity:1"
       transform="translate(137.49921,-5.5877521)"><tspan
         x="590.11328"
         y="337.6383"
         id="tspan2680"><tspan
           style="font-size:14.6667px"
           id="tspan2678">8 x </tspan></tspan><tspan
         x="590.11328"
         y="357.6383"
         id="tspan2684"><tspan
           style="font-size:14.6667px"
           id="tspan2682">64b</tspan></tspan></text>
    <text
       xml:space="preserve"
       id="text2367"
       style="fill:#000000;fill-opacity:1;white-space:pre;shape-inside:url(#rect2369)" />
    <text
       xml:space="preserve"
       id="text2373"
       style="fill:#000000;fill-opacity:1;-inkscape-font-specification:'Verdana, Normal';font-family:Verdana;font-weight:normal;font-style:normal;font-stretch:normal;font-variant:normal;font-size:16px;font-variant-ligatures:normal;font-variant-caps:normal;font-variant-numeric:normal;font-variant-east-asian:normal;white-space:pre;shape-inside:url(#rect2375)" />
  </g>
</svg>
