<svg version="1.1" viewBox="0.0 0.0 567.2965879265092 219.49343832020998" fill="none" stroke="none" stroke-linecap="square" stroke-miterlimit="10" xmlns:xlink="http://www.w3.org/1999/xlink" xmlns="http://www.w3.org/2000/svg"><clipPath id="p.0"><path d="m0 0l567.2966 0l0 219.49344l-567.2966 0l0 -219.49344z" clip-rule="nonzero"/></clipPath><g clip-path="url(#p.0)"><path fill="#000000" fill-opacity="0.0" d="m0 0l567.2966 0l0 219.49344l-567.2966 0z" fill-rule="evenodd"/><path fill="#c9daf8" d="m171.95276 65.41732l0 0c0 -9.61932 8.072968 -17.41732 18.031494 -17.41732l0 0c4.782242 0 9.368637 1.8350334 12.750198 5.1014175c3.3815613 3.2663803 5.281296 7.6965446 5.281296 12.315903l0 0c0 9.619324 -8.072968 17.417328 -18.031494 17.417328l0 0c-9.958527 0 -18.031494 -7.798004 -18.031494 -17.417328z" fill-rule="evenodd"/><path stroke="#000000" stroke-width="1.0" stroke-linejoin="round" stroke-linecap="butt" d="m171.95276 65.41732l0 0c0 -9.61932 8.072968 -17.41732 18.031494 -17.41732l0 0c4.782242 0 9.368637 1.8350334 12.750198 5.1014175c3.3815613 3.2663803 5.281296 7.6965446 5.281296 12.315903l0 0c0 9.619324 -8.072968 17.417328 -18.031494 17.417328l0 0c-9.958527 0 -18.031494 -7.798004 -18.031494 -17.417328z" fill-rule="evenodd"/><path fill="#000000" d="m180.16003 63.097324l0 -5.734375l2.546875 0q0.765625 0 1.15625 0.15625q0.40625 0.15625 0.640625 0.546875q0.234375 0.390625 0.234375 0.859375q0 0.609375 -0.390625 1.03125q-0.390625 0.421875 -1.21875 0.53125q0.296875 0.140625 0.453125 0.28125q0.34375 0.3125 0.640625 0.765625l0.984375 1.5625l-0.953125 0l-0.75 -1.1875q-0.328125 -0.515625 -0.546875 -0.78125q-0.21875 -0.28125 -0.390625 -0.390625q-0.171875 -0.109375 -0.34375 -0.15625q-0.125 -0.03125 -0.421875 -0.03125l-0.875 0l0 2.546875l-0.765625 0zm0.765625 -3.203125l1.625 0q0.515625 0 0.8125 -0.109375q0.296875 -0.109375 0.4375 -0.34375q0.15625 -0.234375 0.15625 -0.515625q0 -0.40625 -0.296875 -0.65625q-0.28125 -0.265625 -0.921875 -0.265625l-1.8125 0l0 1.890625zm7.7617188 1.859375l0.71875 0.09375q-0.171875 0.640625 -0.640625 1.0q-0.453125 0.34375 -1.1875 0.34375q-0.90625 0 -1.4375 -0.5625q-0.53125 -0.5625 -0.53125 -1.578125q0 -1.046875 0.53125 -1.625q0.546875 -0.578125 1.40625 -0.578125q0.828125 0 1.359375 0.578125q0.53125 0.5625 0.53125 1.59375q0 0.0625 -0.015625 0.1875l-3.09375 0q0.046875 0.671875 0.390625 1.046875q0.34375 0.359375 0.875 0.359375q0.375 0 0.640625 -0.203125q0.28125 -0.203125 0.453125 -0.65625zm-2.3125 -1.125l2.3125 0q-0.046875 -0.53125 -0.265625 -0.796875q-0.328125 -0.40625 -0.875 -0.40625q-0.484375 0 -0.8125 0.328125q-0.328125 0.328125 -0.359375 0.875zm3.6367188 1.234375l0.6875 -0.109375q0.0625 0.40625 0.328125 0.640625q0.265625 0.21875 0.75 0.21875q0.484375 0 0.71875 -0.1875q0.234375 -0.203125 0.234375 -0.46875q0 -0.25 -0.203125 -0.375q-0.140625 -0.09375 -0.71875 -0.25q-0.78125 -0.1875 -1.078125 -0.328125q-0.296875 -0.140625 -0.453125 -0.390625q-0.15625 -0.265625 -0.15625 -0.5625q0 -0.28125 0.125 -0.515625q0.140625 -0.234375 0.359375 -0.390625q0.15625 -0.125 0.4375 -0.203125q0.28125 -0.09375 0.609375 -0.09375q0.484375 0 0.859375 0.140625q0.375 0.140625 0.546875 0.390625q0.171875 0.234375 0.234375 0.640625l-0.6875 0.09375q-0.046875 -0.328125 -0.265625 -0.5q-0.21875 -0.1875 -0.640625 -0.1875q-0.484375 0 -0.6875 0.171875q-0.203125 0.15625 -0.203125 0.375q0 0.125 0.078125 0.234375q0.09375 0.125 0.28125 0.1875q0.09375 0.046875 0.609375 0.1875q0.75 0.203125 1.046875 0.328125q0.296875 0.125 0.453125 0.375q0.171875 0.234375 0.171875 0.59375q0 0.34375 -0.203125 0.65625q-0.203125 0.3125 -0.59375 0.484375q-0.375 0.171875 -0.875 0.171875q-0.796875 0 -1.234375 -0.328125q-0.421875 -0.34375 -0.53125 -1.0zm7.125 -0.109375l0.71875 0.09375q-0.171875 0.640625 -0.640625 1.0q-0.453125 0.34375 -1.1875 0.34375q-0.90625 0 -1.4375 -0.5625q-0.53125 -0.5625 -0.53125 -1.578125q0 -1.046875 0.53125 -1.625q0.546875 -0.578125 1.40625 -0.578125q0.828125 0 1.359375 0.578125q0.53125 0.5625 0.53125 1.59375q0 0.0625 -0.015625 0.1875l-3.09375 0q0.046875 0.671875 0.390625 1.046875q0.34375 0.359375 0.875 0.359375q0.375 0 0.640625 -0.203125q0.28125 -0.203125 0.453125 -0.65625zm-2.3125 -1.125l2.3125 0q-0.046875 -0.53125 -0.265625 -0.796875q-0.328125 -0.40625 -0.875 -0.40625q-0.484375 0 -0.8125 0.328125q-0.328125 0.328125 -0.359375 0.875zm5.4492188 1.84375l0.109375 0.609375q-0.296875 0.078125 -0.53125 0.078125q-0.390625 0 -0.609375 -0.125q-0.203125 -0.125 -0.296875 -0.3125q-0.078125 -0.203125 -0.078125 -0.84375l0 -2.390625l-0.515625 0l0 -0.546875l0.515625 0l0 -1.015625l0.703125 -0.421875l0 1.4375l0.703125 0l0 0.546875l-0.703125 0l0 2.4375q0 0.296875 0.03125 0.390625q0.046875 0.078125 0.125 0.125q0.078125 0.046875 0.234375 0.046875q0.125 0 0.3125 -0.015625z" fill-rule="nonzero"/><path fill="#000000" d="m186.56433 71.25357l0.71875 -0.0625q0.046875 0.4375 0.234375 0.71875q0.1875 0.265625 0.578125 0.4375q0.390625 0.171875 0.875 0.171875q0.4375 0 0.765625 -0.125q0.328125 -0.140625 0.484375 -0.359375q0.171875 -0.234375 0.171875 -0.5q0 -0.265625 -0.15625 -0.46875q-0.15625 -0.203125 -0.515625 -0.328125q-0.234375 -0.09375 -1.03125 -0.28125q-0.78125 -0.1875 -1.09375 -0.359375q-0.40625 -0.21875 -0.609375 -0.53125q-0.203125 -0.328125 -0.203125 -0.71875q0 -0.4375 0.25 -0.8125q0.25 -0.375 0.71875 -0.5625q0.46875 -0.203125 1.046875 -0.203125q0.640625 0 1.125 0.203125q0.484375 0.203125 0.75 0.609375q0.265625 0.390625 0.28125 0.90625l-0.734375 0.046875q-0.046875 -0.546875 -0.390625 -0.8125q-0.34375 -0.28125 -1.0 -0.28125q-0.6875 0 -1.0 0.25q-0.3125 0.25 -0.3125 0.609375q0 0.3125 0.21875 0.5q0.21875 0.203125 1.140625 0.421875q0.921875 0.203125 1.265625 0.359375q0.5 0.234375 0.734375 0.59375q0.25 0.34375 0.25 0.796875q0 0.46875 -0.265625 0.875q-0.265625 0.390625 -0.75 0.625q-0.484375 0.21875 -1.109375 0.21875q-0.765625 0 -1.296875 -0.21875q-0.53125 -0.234375 -0.828125 -0.6875q-0.296875 -0.453125 -0.3125 -1.03125zm7.0390625 1.21875l0.109375 0.609375q-0.296875 0.078125 -0.53125 0.078125q-0.390625 0 -0.609375 -0.125q-0.203125 -0.125 -0.296875 -0.3125q-0.078125 -0.203125 -0.078125 -0.84375l0 -2.390625l-0.515625 0l0 -0.546875l0.515625 0l0 -1.015625l0.703125 -0.421875l0 1.4375l0.703125 0l0 0.546875l-0.703125 0l0 2.4375q0 0.296875 0.03125 0.390625q0.046875 0.078125 0.125 0.125q0.078125 0.046875 0.234375 0.046875q0.125 0 0.3125 -0.015625z" fill-rule="nonzero"/><path fill="#000000" fill-opacity="0.0" d="m168.0 32.0c10.992126 0 21.984253 8.0 21.984253 16.0" fill-rule="evenodd"/><path stroke="#000000" stroke-width="1.0" stroke-linejoin="round" stroke-linecap="butt" d="m171.77756 32.306786l0.3230133 0.052589417c1.3525543 0.234375 2.6836395 0.578125 3.9717712 1.015625c2.5762787 0.875 4.9808044 2.125 7.0418243 3.625c2.0610352 1.5 3.7785492 3.25 4.9808197 5.125l0.09327698 0.15010834" fill-rule="evenodd"/><path fill="#000000" stroke="#000000" stroke-width="1.0" stroke-linecap="butt" d="m168.49835 32.040474c0.07354736 -0.9055271 0.8672333 -1.5799866 1.7727661 -1.5064468c0.90553284 0.07354164 1.5799866 0.86723137 1.5064392 1.7727585c-0.073532104 0.905529 -0.8672333 1.5799866 -1.7727509 1.5064468c-0.90553284 -0.073539734 -1.5799866 -0.8672333 -1.5064545 -1.7727585z" fill-rule="nonzero"/><path fill="#000000" stroke="#000000" stroke-width="1.0" stroke-linecap="butt" d="m186.61226 42.769527l2.9344025 3.8356018l0.21759033 -4.82444z" fill-rule="evenodd"/><path fill="#000000" fill-opacity="0.0" d="m168.0 0l232.0 0l0 32.0l-232.0 0z" fill-rule="evenodd"/><path fill="#000000" d="m263.5026 19.24l0 -7.5625l1.546875 0l0 6.28125l3.828125 0l0 1.28125l-5.375 0zm11.353027 -2.796875l1.5 0.46875q-0.34375 1.25 -1.15625 1.859375q-0.796875 0.59375 -2.015625 0.59375q-1.515625 0 -2.5 -1.03125q-0.984375 -1.046875 -0.984375 -2.84375q0 -1.90625 0.984375 -2.953125q0.984375 -1.0625 2.59375 -1.0625q1.390625 0 2.265625 0.828125q0.53125 0.5 0.78125 1.40625l-1.515625 0.375q-0.140625 -0.59375 -0.578125 -0.9375q-0.421875 -0.34375 -1.03125 -0.34375q-0.859375 0 -1.390625 0.609375q-0.515625 0.609375 -0.515625 1.96875q0 1.4375 0.515625 2.0625q0.515625 0.609375 1.359375 0.609375q0.609375 0 1.046875 -0.390625q0.453125 -0.390625 0.640625 -1.21875zm2.7737122 2.796875l0 -7.625l1.53125 0l0 7.625l-1.53125 0zm5.96817 0l0 -7.625l5.234375 0l0 1.28125l-3.6875 0l0 1.8125l3.1875 0l0 1.296875l-3.1875 0l0 3.234375l-1.546875 0zm6.1186523 -2.484375l1.5 -0.140625q0.125 0.75 0.53125 1.109375q0.421875 0.34375 1.125 0.34375q0.75 0 1.125 -0.3125q0.375 -0.3125 0.375 -0.734375q0 -0.265625 -0.15625 -0.453125q-0.15625 -0.1875 -0.5625 -0.328125q-0.265625 -0.09375 -1.234375 -0.34375q-1.234375 -0.296875 -1.734375 -0.75q-0.703125 -0.625 -0.703125 -1.53125q0 -0.59375 0.328125 -1.09375q0.34375 -0.515625 0.953125 -0.78125q0.625 -0.265625 1.5 -0.265625q1.4375 0 2.15625 0.640625q0.734375 0.625 0.78125 1.671875l-1.546875 0.078125q-0.09375 -0.59375 -0.421875 -0.84375q-0.328125 -0.265625 -0.984375 -0.265625q-0.671875 0 -1.046875 0.28125q-0.234375 0.171875 -0.234375 0.46875q0 0.265625 0.21875 0.46875q0.296875 0.234375 1.421875 0.5q1.125 0.265625 1.65625 0.5625q0.546875 0.28125 0.84375 0.78125q0.3125 0.484375 0.3125 1.203125q0 0.65625 -0.375 1.234375q-0.359375 0.5625 -1.03125 0.84375q-0.65625 0.28125 -1.65625 0.28125q-1.4375 0 -2.21875 -0.671875q-0.78125 -0.671875 -0.921875 -1.953125zm7.4670105 2.484375l0 -7.625l2.3125 0l1.375 5.203125l1.375 -5.203125l2.3125 0l0 7.625l-1.4375 0l0 -6.0l-1.515625 6.0l-1.484375 0l-1.5 -6.0l0 6.0l-1.4375 0z" fill-rule="nonzero"/><path fill="#c9daf8" d="m168.0 184.0l72.0 0l0 24.0l-72.0 0z" fill-rule="evenodd"/><path fill="#000000" d="m181.67969 196.83624l0.71875 -0.0625q0.046875 0.4375 0.234375 0.71875q0.1875 0.265625 0.578125 0.4375q0.390625 0.171875 0.875 0.171875q0.4375 0 0.765625 -0.125q0.328125 -0.140625 0.484375 -0.359375q0.171875 -0.234375 0.171875 -0.5q0 -0.265625 -0.15625 -0.46875q-0.15625 -0.203125 -0.515625 -0.328125q-0.234375 -0.09375 -1.03125 -0.28125q-0.78125 -0.1875 -1.09375 -0.359375q-0.40625 -0.21875 -0.609375 -0.53125q-0.203125 -0.328125 -0.203125 -0.71875q0 -0.4375 0.25 -0.8125q0.25 -0.375 0.71875 -0.5625q0.46875 -0.203125 1.046875 -0.203125q0.640625 0 1.125 0.203125q0.484375 0.203125 0.75 0.609375q0.265625 0.390625 0.28125 0.90625l-0.734375 0.046875q-0.046875 -0.546875 -0.390625 -0.8125q-0.34375 -0.28125 -1.0 -0.28125q-0.6875 0 -1.0 0.25q-0.3125 0.25 -0.3125 0.609375q0 0.3125 0.21875 0.5q0.21875 0.203125 1.140625 0.421875q0.921875 0.203125 1.265625 0.359375q0.5 0.234375 0.734375 0.59375q0.25 0.34375 0.25 0.796875q0 0.46875 -0.265625 0.875q-0.265625 0.390625 -0.75 0.625q-0.484375 0.21875 -1.109375 0.21875q-0.765625 0 -1.296875 -0.21875q-0.53125 -0.234375 -0.828125 -0.6875q-0.296875 -0.453125 -0.3125 -1.03125zm7.0390625 1.21875l0.109375 0.609375q-0.296875 0.078125 -0.53125 0.078125q-0.390625 0 -0.609375 -0.125q-0.203125 -0.125 -0.296875 -0.3125q-0.078125 -0.203125 -0.078125 -0.84375l0 -2.390625l-0.515625 0l0 -0.546875l0.515625 0l0 -1.015625l0.703125 -0.421875l0 1.4375l0.703125 0l0 0.546875l-0.703125 0l0 2.4375q0 0.296875 0.03125 0.390625q0.046875 0.078125 0.125 0.125q0.078125 0.046875 0.234375 0.046875q0.125 0 0.3125 -0.015625zm3.3945312 0.109375q-0.390625 0.328125 -0.75 0.46875q-0.359375 0.140625 -0.78125 0.140625q-0.671875 0 -1.046875 -0.328125q-0.359375 -0.34375 -0.359375 -0.859375q0 -0.3125 0.125 -0.5625q0.140625 -0.25 0.359375 -0.390625q0.234375 -0.15625 0.515625 -0.234375q0.203125 -0.0625 0.625 -0.109375q0.859375 -0.109375 1.25 -0.25q0.015625 -0.140625 0.015625 -0.171875q0 -0.4375 -0.203125 -0.609375q-0.265625 -0.234375 -0.796875 -0.234375q-0.5 0 -0.734375 0.171875q-0.234375 0.171875 -0.359375 0.609375l-0.6875 -0.09375q0.09375 -0.4375 0.3125 -0.703125q0.21875 -0.28125 0.625 -0.421875q0.40625 -0.15625 0.9375 -0.15625q0.53125 0 0.859375 0.125q0.34375 0.125 0.5 0.328125q0.15625 0.1875 0.21875 0.46875q0.03125 0.1875 0.03125 0.65625l0 0.9375q0 0.96875 0.046875 1.234375q0.046875 0.265625 0.171875 0.5l-0.734375 0q-0.109375 -0.21875 -0.140625 -0.515625zm-0.0625 -1.5625q-0.375 0.15625 -1.140625 0.265625q-0.4375 0.0625 -0.625 0.140625q-0.171875 0.078125 -0.265625 0.234375q-0.09375 0.140625 -0.09375 0.328125q0 0.28125 0.203125 0.46875q0.21875 0.1875 0.625 0.1875q0.40625 0 0.71875 -0.171875q0.328125 -0.1875 0.46875 -0.5q0.109375 -0.234375 0.109375 -0.703125l0 -0.25zm1.7929688 2.078125l0 -4.15625l0.640625 0l0 0.640625q0.234375 -0.453125 0.4375 -0.59375q0.21875 -0.140625 0.453125 -0.140625q0.359375 0 0.734375 0.234375l-0.25 0.65625q-0.25 -0.15625 -0.515625 -0.15625q-0.234375 0 -0.421875 0.140625q-0.171875 0.140625 -0.25 0.375q-0.125 0.375 -0.125 0.828125l0 2.171875l-0.703125 0zm4.2109375 -0.625l0.109375 0.609375q-0.296875 0.078125 -0.53125 0.078125q-0.390625 0 -0.609375 -0.125q-0.203125 -0.125 -0.296875 -0.3125q-0.078125 -0.203125 -0.078125 -0.84375l0 -2.390625l-0.515625 0l0 -0.546875l0.515625 0l0 -1.015625l0.703125 -0.421875l0 1.4375l0.703125 0l0 0.546875l-0.703125 0l0 2.4375q0 0.296875 0.03125 0.390625q0.046875 0.078125 0.125 0.125q0.078125 0.046875 0.234375 0.046875q0.125 0 0.3125 -0.015625zm3.4101562 0.625l0 -0.609375q-0.484375 0.703125 -1.3125 0.703125q-0.375 0 -0.703125 -0.140625q-0.3125 -0.140625 -0.46875 -0.34375q-0.140625 -0.21875 -0.203125 -0.53125q-0.046875 -0.203125 -0.046875 -0.65625l0 -2.578125l0.703125 0l0 2.3125q0 0.546875 0.046875 0.734375q0.0625 0.28125 0.265625 0.4375q0.21875 0.15625 0.546875 0.15625q0.3125 0 0.578125 -0.15625q0.28125 -0.171875 0.390625 -0.4375q0.125 -0.28125 0.125 -0.8125l0 -2.234375l0.703125 0l0 4.15625l-0.625 0zm1.7304688 1.59375l0 -5.75l0.640625 0l0 0.546875q0.21875 -0.3125 0.5 -0.46875q0.296875 -0.171875 0.703125 -0.171875q0.53125 0 0.9375 0.28125q0.40625 0.265625 0.609375 0.765625q0.203125 0.5 0.203125 1.09375q0 0.640625 -0.234375 1.15625q-0.21875 0.5 -0.65625 0.78125q-0.4375 0.265625 -0.90625 0.265625q-0.359375 0 -0.640625 -0.140625q-0.28125 -0.15625 -0.453125 -0.390625l0 2.03125l-0.703125 0zm0.640625 -3.640625q0 0.796875 0.3125 1.1875q0.328125 0.375 0.796875 0.375q0.46875 0 0.796875 -0.390625q0.328125 -0.40625 0.328125 -1.234375q0 -0.796875 -0.328125 -1.1875q-0.3125 -0.390625 -0.765625 -0.390625q-0.453125 0 -0.796875 0.421875q-0.34375 0.40625 -0.34375 1.21875zm5.5 2.140625l1.65625 -5.921875l0.5625 0l-1.65625 5.921875l-0.5625 0zm5.1953125 -0.09375l0 -5.734375l0.75 0l0 5.734375l-0.75 0zm4.6914062 0l0 -0.53125q-0.390625 0.625 -1.15625 0.625q-0.5 0 -0.921875 -0.265625q-0.40625 -0.28125 -0.640625 -0.765625q-0.21875 -0.5 -0.21875 -1.140625q0 -0.609375 0.203125 -1.109375q0.203125 -0.515625 0.609375 -0.78125q0.421875 -0.28125 0.9375 -0.28125q0.375 0 0.65625 0.171875q0.296875 0.15625 0.484375 0.40625l0 -2.0625l0.703125 0l0 5.734375l-0.65625 0zm-2.21875 -2.078125q0 0.796875 0.328125 1.203125q0.34375 0.390625 0.796875 0.390625q0.46875 0 0.78125 -0.375q0.328125 -0.375 0.328125 -1.15625q0 -0.84375 -0.328125 -1.234375q-0.328125 -0.40625 -0.8125 -0.40625q-0.46875 0 -0.78125 0.390625q-0.3125 0.375 -0.3125 1.1875zm3.9648438 2.078125l0 -5.734375l0.703125 0l0 5.734375l-0.703125 0zm4.6367188 -1.34375l0.71875 0.09375q-0.171875 0.640625 -0.640625 1.0q-0.453125 0.34375 -1.1875 0.34375q-0.90625 0 -1.4375 -0.5625q-0.53125 -0.5625 -0.53125 -1.578125q0 -1.046875 0.53125 -1.625q0.546875 -0.578125 1.40625 -0.578125q0.828125 0 1.359375 0.578125q0.53125 0.5625 0.53125 1.59375q0 0.0625 -0.015625 0.1875l-3.09375 0q0.046875 0.671875 0.390625 1.046875q0.34375 0.359375 0.875 0.359375q0.375 0 0.640625 -0.203125q0.28125 -0.203125 0.453125 -0.65625zm-2.3125 -1.125l2.3125 0q-0.046875 -0.53125 -0.265625 -0.796875q-0.328125 -0.40625 -0.875 -0.40625q-0.484375 0 -0.8125 0.328125q-0.328125 0.328125 -0.359375 0.875z" fill-rule="nonzero"/><path fill="#f4cccc" d="m328.0 184.0l72.0 0l0 24.0l-72.0 0z" fill-rule="evenodd"/><path fill="#000000" d="m340.51172 198.68l0 -5.046875l-1.890625 0l0 -0.6875l4.546875 0l0 0.6875l-1.90625 0l0 5.046875l-0.75 0zm5.296875 -1.34375l0.71875 0.09375q-0.171875 0.640625 -0.640625 1.0q-0.453125 0.34375 -1.1875 0.34375q-0.90625 0 -1.4375 -0.5625q-0.53125 -0.5625 -0.53125 -1.578125q0 -1.046875 0.53125 -1.625q0.546875 -0.578125 1.40625 -0.578125q0.828125 0 1.359375 0.578125q0.53125 0.5625 0.53125 1.59375q0 0.0625 -0.015625 0.1875l-3.09375 0q0.046875 0.671875 0.390625 1.046875q0.34375 0.359375 0.875 0.359375q0.375 0 0.640625 -0.203125q0.28125 -0.203125 0.453125 -0.65625zm-2.3125 -1.125l2.3125 0q-0.046875 -0.53125 -0.265625 -0.796875q-0.328125 -0.40625 -0.875 -0.40625q-0.484375 0 -0.8125 0.328125q-0.328125 0.328125 -0.359375 0.875zm3.9023438 2.46875l0 -4.15625l0.640625 0l0 0.640625q0.234375 -0.453125 0.4375 -0.59375q0.21875 -0.140625 0.453125 -0.140625q0.359375 0 0.734375 0.234375l-0.25 0.65625q-0.25 -0.15625 -0.515625 -0.15625q-0.234375 0 -0.421875 0.140625q-0.171875 0.140625 -0.25 0.375q-0.125 0.375 -0.125 0.828125l0 2.171875l-0.703125 0zm2.6796875 0l0 -4.15625l0.625 0l0 0.59375q0.203125 -0.3125 0.515625 -0.5q0.328125 -0.1875 0.75 -0.1875q0.453125 0 0.75 0.203125q0.296875 0.1875 0.421875 0.53125q0.484375 -0.734375 1.28125 -0.734375q0.609375 0 0.9375 0.34375q0.34375 0.34375 0.34375 1.0625l0 2.84375l-0.703125 0l0 -2.609375q0 -0.421875 -0.078125 -0.609375q-0.0625 -0.1875 -0.25 -0.296875q-0.171875 -0.125 -0.40625 -0.125q-0.4375 0 -0.734375 0.296875q-0.28125 0.296875 -0.28125 0.9375l0 2.40625l-0.703125 0l0 -2.703125q0 -0.46875 -0.171875 -0.703125q-0.171875 -0.234375 -0.5625 -0.234375q-0.296875 0 -0.5625 0.15625q-0.25 0.15625 -0.359375 0.46875q-0.109375 0.296875 -0.109375 0.859375l0 2.15625l-0.703125 0zm6.6640625 -4.921875l0 -0.8125l0.703125 0l0 0.8125l-0.703125 0zm0 4.921875l0 -4.15625l0.703125 0l0 4.15625l-0.703125 0zm1.7773438 0l0 -4.15625l0.625 0l0 0.59375q0.46875 -0.6875 1.328125 -0.6875q0.375 0 0.6875 0.140625q0.3125 0.140625 0.46875 0.359375q0.15625 0.21875 0.21875 0.515625q0.046875 0.1875 0.046875 0.6875l0 2.546875l-0.703125 0l0 -2.53125q0 -0.421875 -0.09375 -0.625q-0.078125 -0.21875 -0.296875 -0.34375q-0.203125 -0.140625 -0.484375 -0.140625q-0.4375 0 -0.765625 0.296875q-0.328125 0.28125 -0.328125 1.078125l0 2.265625l-0.703125 0zm7.1523438 -0.515625q-0.390625 0.328125 -0.75 0.46875q-0.359375 0.140625 -0.78125 0.140625q-0.671875 0 -1.046875 -0.328125q-0.359375 -0.34375 -0.359375 -0.859375q0 -0.3125 0.125 -0.5625q0.140625 -0.25 0.359375 -0.390625q0.234375 -0.15625 0.515625 -0.234375q0.203125 -0.0625 0.625 -0.109375q0.859375 -0.109375 1.25 -0.25q0.015625 -0.140625 0.015625 -0.171875q0 -0.4375 -0.203125 -0.609375q-0.265625 -0.234375 -0.796875 -0.234375q-0.5 0 -0.734375 0.171875q-0.234375 0.171875 -0.359375 0.609375l-0.6875 -0.09375q0.09375 -0.4375 0.3125 -0.703125q0.21875 -0.28125 0.625 -0.421875q0.40625 -0.15625 0.9375 -0.15625q0.53125 0 0.859375 0.125q0.34375 0.125 0.5 0.328125q0.15625 0.1875 0.21875 0.46875q0.03125 0.1875 0.03125 0.65625l0 0.9375q0 0.96875 0.046875 1.234375q0.046875 0.265625 0.171875 0.5l-0.734375 0q-0.109375 -0.21875 -0.140625 -0.515625zm-0.0625 -1.5625q-0.375 0.15625 -1.140625 0.265625q-0.4375 0.0625 -0.625 0.140625q-0.171875 0.078125 -0.265625 0.234375q-0.09375 0.140625 -0.09375 0.328125q0 0.28125 0.203125 0.46875q0.21875 0.1875 0.625 0.1875q0.40625 0 0.71875 -0.171875q0.328125 -0.1875 0.46875 -0.5q0.109375 -0.234375 0.109375 -0.703125l0 -0.25zm1.7929688 2.078125l0 -5.734375l0.703125 0l0 5.734375l-0.703125 0zm3.84375 -1.84375l0.71875 -0.0625q0.046875 0.4375 0.234375 0.71875q0.1875 0.265625 0.578125 0.4375q0.390625 0.171875 0.875 0.171875q0.4375 0 0.765625 -0.125q0.328125 -0.140625 0.484375 -0.359375q0.171875 -0.234375 0.171875 -0.5q0 -0.265625 -0.15625 -0.46875q-0.15625 -0.203125 -0.515625 -0.328125q-0.234375 -0.09375 -1.03125 -0.28125q-0.78125 -0.1875 -1.09375 -0.359375q-0.40625 -0.21875 -0.609375 -0.53125q-0.203125 -0.328125 -0.203125 -0.71875q0 -0.4375 0.25 -0.8125q0.25 -0.375 0.71875 -0.5625q0.46875 -0.203125 1.046875 -0.203125q0.640625 0 1.125 0.203125q0.484375 0.203125 0.75 0.609375q0.265625 0.390625 0.28125 0.90625l-0.734375 0.046875q-0.046875 -0.546875 -0.390625 -0.8125q-0.34375 -0.28125 -1.0 -0.28125q-0.6875 0 -1.0 0.25q-0.3125 0.25 -0.3125 0.609375q0 0.3125 0.21875 0.5q0.21875 0.203125 1.140625 0.421875q0.921875 0.203125 1.265625 0.359375q0.5 0.234375 0.734375 0.59375q0.25 0.34375 0.25 0.796875q0 0.46875 -0.265625 0.875q-0.265625 0.390625 -0.75 0.625q-0.484375 0.21875 -1.109375 0.21875q-0.765625 0 -1.296875 -0.21875q-0.53125 -0.234375 -0.828125 -0.6875q-0.296875 -0.453125 -0.3125 -1.03125zm7.0390625 1.21875l0.109375 0.609375q-0.296875 0.078125 -0.53125 0.078125q-0.390625 0 -0.609375 -0.125q-0.203125 -0.125 -0.296875 -0.3125q-0.078125 -0.203125 -0.078125 -0.84375l0 -2.390625l-0.515625 0l0 -0.546875l0.515625 0l0 -1.015625l0.703125 -0.421875l0 1.4375l0.703125 0l0 0.546875l-0.703125 0l0 2.4375q0 0.296875 0.03125 0.390625q0.046875 0.078125 0.125 0.125q0.078125 0.046875 0.234375 0.046875q0.125 0 0.3125 -0.015625zm3.3945312 0.109375q-0.390625 0.328125 -0.75 0.46875q-0.359375 0.140625 -0.78125 0.140625q-0.671875 0 -1.046875 -0.328125q-0.359375 -0.34375 -0.359375 -0.859375q0 -0.3125 0.125 -0.5625q0.140625 -0.25 0.359375 -0.390625q0.234375 -0.15625 0.515625 -0.234375q0.203125 -0.0625 0.625 -0.109375q0.859375 -0.109375 1.25 -0.25q0.015625 -0.140625 0.015625 -0.171875q0 -0.4375 -0.203125 -0.609375q-0.265625 -0.234375 -0.796875 -0.234375q-0.5 0 -0.734375 0.171875q-0.234375 0.171875 -0.359375 0.609375l-0.6875 -0.09375q0.09375 -0.4375 0.3125 -0.703125q0.21875 -0.28125 0.625 -0.421875q0.40625 -0.15625 0.9375 -0.15625q0.53125 0 0.859375 0.125q0.34375 0.125 0.5 0.328125q0.15625 0.1875 0.21875 0.46875q0.03125 0.1875 0.03125 0.65625l0 0.9375q0 0.96875 0.046875 1.234375q0.046875 0.265625 0.171875 0.5l-0.734375 0q-0.109375 -0.21875 -0.140625 -0.515625zm-0.0625 -1.5625q-0.375 0.15625 -1.140625 0.265625q-0.4375 0.0625 -0.625 0.140625q-0.171875 0.078125 -0.265625 0.234375q-0.09375 0.140625 -0.09375 0.328125q0 0.28125 0.203125 0.46875q0.21875 0.1875 0.625 0.1875q0.40625 0 0.71875 -0.171875q0.328125 -0.1875 0.46875 -0.5q0.109375 -0.234375 0.109375 -0.703125l0 -0.25zm3.3398438 1.453125l0.109375 0.609375q-0.296875 0.078125 -0.53125 0.078125q-0.390625 0 -0.609375 -0.125q-0.203125 -0.125 -0.296875 -0.3125q-0.078125 -0.203125 -0.078125 -0.84375l0 -2.390625l-0.515625 0l0 -0.546875l0.515625 0l0 -1.015625l0.703125 -0.421875l0 1.4375l0.703125 0l0 0.546875l-0.703125 0l0 2.4375q0 0.296875 0.03125 0.390625q0.046875 0.078125 0.125 0.125q0.078125 0.046875 0.234375 0.046875q0.125 0 0.3125 -0.015625zm3.5351562 -0.71875l0.71875 0.09375q-0.171875 0.640625 -0.640625 1.0q-0.453125 0.34375 -1.1875 0.34375q-0.90625 0 -1.4375 -0.5625q-0.53125 -0.5625 -0.53125 -1.578125q0 -1.046875 0.53125 -1.625q0.546875 -0.578125 1.40625 -0.578125q0.828125 0 1.359375 0.578125q0.53125 0.5625 0.53125 1.59375q0 0.0625 -0.015625 0.1875l-3.09375 0q0.046875 0.671875 0.390625 1.046875q0.34375 0.359375 0.875 0.359375q0.375 0 0.640625 -0.203125q0.28125 -0.203125 0.453125 -0.65625zm-2.3125 -1.125l2.3125 0q-0.046875 -0.53125 -0.265625 -0.796875q-0.328125 -0.40625 -0.875 -0.40625q-0.484375 0 -0.8125 0.328125q-0.328125 0.328125 -0.359375 0.875z" fill-rule="nonzero"/><path fill="#c9daf8" d="m264.01575 65.41732l0 0c0 -9.61932 8.072968 -17.41732 18.031494 -17.41732l0 0c4.782257 0 9.368622 1.8350334 12.750183 5.1014175c3.3815613 3.2663803 5.281311 7.6965446 5.281311 12.315903l0 0c0 9.619324 -8.072968 17.417328 -18.031494 17.417328l0 0c-9.958527 0 -18.031494 -7.798004 -18.031494 -17.417328z" fill-rule="evenodd"/><path stroke="#000000" stroke-width="1.0" stroke-linejoin="round" stroke-linecap="butt" d="m264.01575 65.41732l0 0c0 -9.61932 8.072968 -17.41732 18.031494 -17.41732l0 0c4.782257 0 9.368622 1.8350334 12.750183 5.1014175c3.3815613 3.2663803 5.281311 7.6965446 5.281311 12.315903l0 0c0 9.619324 -8.072968 17.417328 -18.031494 17.417328l0 0c-9.958527 0 -18.031494 -7.798004 -18.031494 -17.417328z" fill-rule="evenodd"/><path fill="#000000" d="m272.56873 68.09732l0 -5.734371l0.75 0l0 5.734371l-0.75 0zm4.6914062 0l0 -0.53125q-0.390625 0.625 -1.15625 0.625q-0.5 0 -0.921875 -0.265625q-0.40625 -0.28125 -0.640625 -0.765625q-0.21875 -0.5 -0.21875 -1.140625q0 -0.609375 0.203125 -1.109375q0.203125 -0.515625 0.609375 -0.78125q0.421875 -0.2812462 0.9375 -0.2812462q0.375 0 0.65625 0.17187119q0.296875 0.15625 0.484375 0.40625l0 -2.0624962l0.703125 0l0 5.734371l-0.65625 0zm-2.21875 -2.078125q0 0.796875 0.328125 1.203125q0.34375 0.390625 0.796875 0.390625q0.46875 0 0.78125 -0.375q0.328125 -0.375 0.328125 -1.15625q0 -0.84375 -0.328125 -1.234375q-0.328125 -0.40625 -0.8125 -0.40625q-0.46875 0 -0.78125 0.390625q-0.3125 0.375 -0.3125 1.1875zm3.9648438 2.078125l0 -5.734371l0.703125 0l0 5.734371l-0.703125 0zm4.6367188 -1.34375l0.71875 0.09375q-0.171875 0.640625 -0.640625 1.0q-0.453125 0.34375 -1.1875 0.34375q-0.90625 0 -1.4375 -0.5625q-0.53125 -0.5625 -0.53125 -1.578125q0 -1.046875 0.53125 -1.625q0.546875 -0.5781212 1.40625 -0.5781212q0.828125 0 1.359375 0.5781212q0.53125 0.5625 0.53125 1.59375q0 0.0625 -0.015625 0.1875l-3.09375 0q0.046875 0.671875 0.390625 1.046875q0.34375 0.359375 0.875 0.359375q0.375 0 0.640625 -0.203125q0.28125 -0.203125 0.453125 -0.65625zm-2.3125 -1.125l2.3125 0q-0.046875 -0.53125 -0.265625 -0.796875q-0.328125 -0.40625 -0.875 -0.40625q-0.484375 0 -0.8125 0.328125q-0.328125 0.328125 -0.359375 0.875zm3.7460938 0.625l0.71875 -0.0625q0.046875 0.4375 0.234375 0.71875q0.1875 0.265625 0.578125 0.4375q0.390625 0.171875 0.875 0.171875q0.4375 0 0.765625 -0.125q0.328125 -0.140625 0.484375 -0.359375q0.171875 -0.234375 0.171875 -0.5q0 -0.265625 -0.15625 -0.46875q-0.15625 -0.203125 -0.515625 -0.328125q-0.234375 -0.09375 -1.03125 -0.28125q-0.78125 -0.1875 -1.09375 -0.359375q-0.40625 -0.21875 -0.609375 -0.53125q-0.203125 -0.328125 -0.203125 -0.7187462q0 -0.4375 0.25 -0.8125q0.25 -0.375 0.71875 -0.5625q0.46875 -0.203125 1.046875 -0.203125q0.640625 0 1.125 0.203125q0.484375 0.203125 0.75 0.609375q0.265625 0.390625 0.28125 0.90625l-0.734375 0.046871185q-0.046875 -0.5468712 -0.390625 -0.8124962q-0.34375 -0.28125 -1.0 -0.28125q-0.6875 0 -1.0 0.25q-0.3125 0.25 -0.3125 0.609375q0 0.3124962 0.21875 0.4999962q0.21875 0.203125 1.140625 0.421875q0.921875 0.203125 1.265625 0.359375q0.5 0.234375 0.734375 0.59375q0.25 0.34375 0.25 0.796875q0 0.46875 -0.265625 0.875q-0.265625 0.390625 -0.75 0.625q-0.484375 0.21875 -1.109375 0.21875q-0.765625 0 -1.296875 -0.21875q-0.53125 -0.234375 -0.828125 -0.6875q-0.296875 -0.453125 -0.3125 -1.03125zm7.0390625 1.21875l0.109375 0.609375q-0.296875 0.078125 -0.53125 0.078125q-0.390625 0 -0.609375 -0.125q-0.203125 -0.125 -0.296875 -0.3125q-0.078125 -0.203125 -0.078125 -0.84375l0 -2.390625l-0.515625 0l0 -0.5468712l0.515625 0l0 -1.015625l0.703125 -0.421875l0 1.4375l0.703125 0l0 0.5468712l-0.703125 0l0 2.4375q0 0.296875 0.03125 0.390625q0.046875 0.078125 0.125 0.125q0.078125 0.046875 0.234375 0.046875q0.125 0 0.3125 -0.015625z" fill-rule="nonzero"/><path fill="#f4cccc" d="m360.0 129.41733l0 0c0 -9.619324 8.072968 -17.417328 18.031494 -17.417328l0 0c4.782257 0 9.368622 1.8350372 12.750183 5.1014175c3.3815613 3.2663803 5.281311 7.696541 5.281311 12.31591l0 0c0 9.619324 -8.072968 17.417313 -18.031494 17.417313l0 0c-9.958527 0 -18.031494 -7.797989 -18.031494 -17.417313z" fill-rule="evenodd"/><path stroke="#000000" stroke-width="1.0" stroke-linejoin="round" stroke-linecap="butt" d="m360.0 129.41733l0 0c0 -9.619324 8.072968 -17.417328 18.031494 -17.417328l0 0c4.782257 0 9.368622 1.8350372 12.750183 5.1014175c3.3815613 3.2663803 5.281311 7.696541 5.281311 12.31591l0 0c0 9.619324 -8.072968 17.417313 -18.031494 17.417313l0 0c-9.958527 0 -18.031494 -7.797989 -18.031494 -17.417313z" fill-rule="evenodd"/><path fill="#000000" d="m366.00415 132.09732l0 -5.734375l4.140625 0l0 0.6875l-3.390625 0l0 1.75l3.171875 0l0 0.671875l-3.171875 0l0 1.953125l3.515625 0l0 0.671875l-4.265625 0zm5.2109375 0l0 -4.15625l0.640625 0l0 0.640625q0.234375 -0.453125 0.4375 -0.59375q0.21875 -0.140625 0.453125 -0.140625q0.359375 0 0.734375 0.234375l-0.25 0.65625q-0.25 -0.15625 -0.515625 -0.15625q-0.234375 0 -0.421875 0.140625q-0.171875 0.140625 -0.25 0.375q-0.125 0.375 -0.125 0.828125l0 2.171875l-0.703125 0zm2.6640625 0l0 -4.15625l0.640625 0l0 0.640625q0.234375 -0.453125 0.4375 -0.59375q0.21875 -0.140625 0.453125 -0.140625q0.359375 0 0.734375 0.234375l-0.25 0.65625q-0.25 -0.15625 -0.515625 -0.15625q-0.234375 0 -0.421875 0.140625q-0.171875 0.140625 -0.25 0.375q-0.125 0.375 -0.125 0.828125l0 2.171875l-0.703125 0zm2.4140625 -2.078125q0 -1.15625 0.640625 -1.703125q0.53125 -0.46875 1.3125 -0.46875q0.84375 0 1.390625 0.5625q0.546875 0.5625 0.546875 1.546875q0 0.8125 -0.25 1.265625q-0.234375 0.453125 -0.703125 0.71875q-0.453125 0.25 -0.984375 0.25q-0.875 0 -1.421875 -0.5625q-0.53125 -0.5625 -0.53125 -1.609375zm0.71875 0q0 0.796875 0.34375 1.203125q0.359375 0.390625 0.890625 0.390625q0.515625 0 0.859375 -0.390625q0.359375 -0.40625 0.359375 -1.21875q0 -0.78125 -0.359375 -1.171875q-0.34375 -0.390625 -0.859375 -0.390625q-0.53125 0 -0.890625 0.390625q-0.34375 0.390625 -0.34375 1.1875zm3.9804688 2.078125l0 -4.15625l0.640625 0l0 0.640625q0.234375 -0.453125 0.4375 -0.59375q0.21875 -0.140625 0.453125 -0.140625q0.359375 0 0.734375 0.234375l-0.25 0.65625q-0.25 -0.15625 -0.515625 -0.15625q-0.234375 0 -0.421875 0.140625q-0.171875 0.140625 -0.25 0.375q-0.125 0.375 -0.125 0.828125l0 2.171875l-0.703125 0zm2.5078125 -1.84375l0.71875 -0.0625q0.046875 0.4375 0.234375 0.71875q0.1875 0.265625 0.578125 0.4375q0.390625 0.171875 0.875 0.171875q0.4375 0 0.765625 -0.125q0.328125 -0.140625 0.484375 -0.359375q0.171875 -0.234375 0.171875 -0.5q0 -0.265625 -0.15625 -0.46875q-0.15625 -0.203125 -0.515625 -0.328125q-0.234375 -0.09375 -1.03125 -0.28125q-0.78125 -0.1875 -1.09375 -0.359375q-0.40625 -0.21875 -0.609375 -0.53125q-0.203125 -0.328125 -0.203125 -0.71875q0 -0.4375 0.25 -0.8125q0.25 -0.375 0.71875 -0.5625q0.46875 -0.203125 1.046875 -0.203125q0.640625 0 1.125 0.203125q0.484375 0.203125 0.75 0.609375q0.265625 0.390625 0.28125 0.90625l-0.734375 0.046875q-0.046875 -0.546875 -0.390625 -0.8125q-0.34375 -0.28125 -1.0 -0.28125q-0.6875 0 -1.0 0.25q-0.3125 0.25 -0.3125 0.609375q0 0.3125 0.21875 0.5q0.21875 0.203125 1.140625 0.421875q0.921875 0.203125 1.265625 0.359375q0.5 0.234375 0.734375 0.59375q0.25 0.34375 0.25 0.796875q0 0.46875 -0.265625 0.875q-0.265625 0.390625 -0.75 0.625q-0.484375 0.21875 -1.109375 0.21875q-0.765625 0 -1.296875 -0.21875q-0.53125 -0.234375 -0.828125 -0.6875q-0.296875 -0.453125 -0.3125 -1.03125zm7.0390625 1.21875l0.109375 0.609375q-0.296875 0.078125 -0.53125 0.078125q-0.390625 0 -0.609375 -0.125q-0.203125 -0.125 -0.296875 -0.3125q-0.078125 -0.203125 -0.078125 -0.84375l0 -2.390625l-0.515625 0l0 -0.546875l0.515625 0l0 -1.015625l0.703125 -0.421875l0 1.4375l0.703125 0l0 0.546875l-0.703125 0l0 2.4375q0 0.296875 0.03125 0.390625q0.046875 0.078125 0.125 0.125q0.078125 0.046875 0.234375 0.046875q0.125 0 0.3125 -0.015625z" fill-rule="nonzero"/><path fill="#d9d2e9" d="m171.95276 129.41733l0 0c0 -9.619324 8.072968 -17.417328 18.031494 -17.417328l0 0c4.782242 0 9.368637 1.8350372 12.750198 5.1014175c3.3815613 3.2663803 5.281296 7.696541 5.281296 12.31591l0 0c0 9.619324 -8.072968 17.417313 -18.031494 17.417313l0 0c-9.958527 0 -18.031494 -7.797989 -18.031494 -17.417313z" fill-rule="evenodd"/><path stroke="#000000" stroke-width="1.0" stroke-linejoin="round" stroke-linecap="butt" d="m171.95276 129.41733l0 0c0 -9.619324 8.072968 -17.417328 18.031494 -17.417328l0 0c4.782242 0 9.368637 1.8350372 12.750198 5.1014175c3.3815613 3.2663803 5.281296 7.696541 5.281296 12.31591l0 0c0 9.619324 -8.072968 17.417313 -18.031494 17.417313l0 0c-9.958527 0 -18.031494 -7.797989 -18.031494 -17.417313z" fill-rule="evenodd"/><path fill="#000000" d="m182.34949 127.09732l-1.53125 -5.734375l0.78125 0l0.875 3.765625q0.140625 0.578125 0.234375 1.171875q0.21875 -0.921875 0.265625 -1.0625l1.09375 -3.875l0.90625 0l0.828125 2.90625q0.296875 1.078125 0.4375 2.03125q0.109375 -0.546875 0.28125 -1.25l0.90625 -3.6875l0.765625 0l-1.578125 5.734375l-0.734375 0l-1.203125 -4.359375q-0.15625 -0.546875 -0.171875 -0.671875q-0.09375 0.390625 -0.171875 0.671875l-1.21875 4.359375l-0.765625 0zm6.296875 0l0 -4.15625l0.640625 0l0 0.640625q0.234375 -0.453125 0.4375 -0.59375q0.21875 -0.140625 0.453125 -0.140625q0.359375 0 0.734375 0.234375l-0.25 0.65625q-0.25 -0.15625 -0.515625 -0.15625q-0.234375 0 -0.421875 0.140625q-0.171875 0.140625 -0.25 0.375q-0.125 0.375 -0.125 0.828125l0 2.171875l-0.703125 0zm2.6796875 -4.921875l0 -0.8125l0.703125 0l0 0.8125l-0.703125 0zm0 4.921875l0 -4.15625l0.703125 0l0 4.15625l-0.703125 0zm3.3085938 -0.625l0.109375 0.609375q-0.296875 0.078125 -0.53125 0.078125q-0.390625 0 -0.609375 -0.125q-0.203125 -0.125 -0.296875 -0.3125q-0.078125 -0.203125 -0.078125 -0.84375l0 -2.390625l-0.515625 0l0 -0.546875l0.515625 0l0 -1.015625l0.703125 -0.421875l0 1.4375l0.703125 0l0 0.546875l-0.703125 0l0 2.4375q0 0.296875 0.03125 0.390625q0.046875 0.078125 0.125 0.125q0.078125 0.046875 0.234375 0.046875q0.125 0 0.3125 -0.015625zm3.5351562 -0.71875l0.71875 0.09375q-0.171875 0.640625 -0.640625 1.0q-0.453125 0.34375 -1.1875 0.34375q-0.90625 0 -1.4375 -0.5625q-0.53125 -0.5625 -0.53125 -1.578125q0 -1.046875 0.53125 -1.625q0.546875 -0.578125 1.40625 -0.578125q0.828125 0 1.359375 0.578125q0.53125 0.5625 0.53125 1.59375q0 0.0625 -0.015625 0.1875l-3.09375 0q0.046875 0.671875 0.390625 1.046875q0.34375 0.359375 0.875 0.359375q0.375 0 0.640625 -0.203125q0.28125 -0.203125 0.453125 -0.65625zm-2.3125 -1.125l2.3125 0q-0.046875 -0.53125 -0.265625 -0.796875q-0.328125 -0.40625 -0.875 -0.40625q-0.484375 0 -0.8125 0.328125q-0.328125 0.328125 -0.359375 0.875z" fill-rule="nonzero"/><path fill="#000000" d="m179.9784 137.09732l-1.53125 -5.734375l0.78125 0l0.875 3.765625q0.140625 0.578125 0.234375 1.171875q0.21875 -0.921875 0.265625 -1.0625l1.09375 -3.875l0.90625 0l0.828125 2.90625q0.296875 1.078125 0.4375 2.03125q0.109375 -0.546875 0.28125 -1.25l0.90625 -3.6875l0.765625 0l-1.578125 5.734375l-0.734375 0l-1.203125 -4.359375q-0.15625 -0.546875 -0.171875 -0.671875q-0.09375 0.390625 -0.171875 0.671875l-1.21875 4.359375l-0.765625 0zm8.863281 -0.515625q-0.390625 0.328125 -0.75 0.46875q-0.359375 0.140625 -0.78125 0.140625q-0.671875 0 -1.046875 -0.328125q-0.359375 -0.34375 -0.359375 -0.859375q0 -0.3125 0.125 -0.5625q0.140625 -0.25 0.359375 -0.390625q0.234375 -0.15625 0.515625 -0.234375q0.203125 -0.0625 0.625 -0.109375q0.859375 -0.109375 1.25 -0.25q0.015625 -0.140625 0.015625 -0.171875q0 -0.4375 -0.203125 -0.609375q-0.265625 -0.234375 -0.796875 -0.234375q-0.5 0 -0.734375 0.171875q-0.234375 0.171875 -0.359375 0.609375l-0.6875 -0.09375q0.09375 -0.4375 0.3125 -0.703125q0.21875 -0.28125 0.625 -0.421875q0.40625 -0.15625 0.9375 -0.15625q0.53125 0 0.859375 0.125q0.34375 0.125 0.5 0.328125q0.15625 0.1875 0.21875 0.46875q0.03125 0.1875 0.03125 0.65625l0 0.9375q0 0.96875 0.046875 1.234375q0.046875 0.265625 0.171875 0.5l-0.734375 0q-0.109375 -0.21875 -0.140625 -0.515625zm-0.0625 -1.5625q-0.375 0.15625 -1.140625 0.265625q-0.4375 0.0625 -0.625 0.140625q-0.171875 0.078125 -0.265625 0.234375q-0.09375 0.140625 -0.09375 0.328125q0 0.28125 0.203125 0.46875q0.21875 0.1875 0.625 0.1875q0.40625 0 0.71875 -0.171875q0.328125 -0.1875 0.46875 -0.5q0.109375 -0.234375 0.109375 -0.703125l0 -0.25zm1.8085938 -2.84375l0 -0.8125l0.703125 0l0 0.8125l-0.703125 0zm0 4.921875l0 -4.15625l0.703125 0l0 4.15625l-0.703125 0zm3.3085938 -0.625l0.109375 0.609375q-0.296875 0.078125 -0.53125 0.078125q-0.390625 0 -0.609375 -0.125q-0.203125 -0.125 -0.296875 -0.3125q-0.078125 -0.203125 -0.078125 -0.84375l0 -2.390625l-0.515625 0l0 -0.546875l0.515625 0l0 -1.015625l0.703125 -0.421875l0 1.4375l0.703125 0l0 0.546875l-0.703125 0l0 2.4375q0 0.296875 0.03125 0.390625q0.046875 0.078125 0.125 0.125q0.078125 0.046875 0.234375 0.046875q0.125 0 0.3125 -0.015625zm0.51953125 -1.21875l0.71875 -0.0625q0.046875 0.4375 0.234375 0.71875q0.1875 0.265625 0.578125 0.4375q0.390625 0.171875 0.875 0.171875q0.4375 0 0.765625 -0.125q0.328125 -0.140625 0.484375 -0.359375q0.171875 -0.234375 0.171875 -0.5q0 -0.265625 -0.15625 -0.46875q-0.15625 -0.203125 -0.515625 -0.328125q-0.234375 -0.09375 -1.03125 -0.28125q-0.78125 -0.1875 -1.09375 -0.359375q-0.40625 -0.21875 -0.609375 -0.53125q-0.203125 -0.328125 -0.203125 -0.71875q0 -0.4375 0.25 -0.8125q0.25 -0.375 0.71875 -0.5625q0.46875 -0.203125 1.046875 -0.203125q0.640625 0 1.125 0.203125q0.484375 0.203125 0.75 0.609375q0.265625 0.390625 0.28125 0.90625l-0.734375 0.046875q-0.046875 -0.546875 -0.390625 -0.8125q-0.34375 -0.28125 -1.0 -0.28125q-0.6875 0 -1.0 0.25q-0.3125 0.25 -0.3125 0.609375q0 0.3125 0.21875 0.5q0.21875 0.203125 1.140625 0.421875q0.921875 0.203125 1.265625 0.359375q0.5 0.234375 0.734375 0.59375q0.25 0.34375 0.25 0.796875q0 0.46875 -0.265625 0.875q-0.265625 0.390625 -0.75 0.625q-0.484375 0.21875 -1.109375 0.21875q-0.765625 0 -1.296875 -0.21875q-0.53125 -0.234375 -0.828125 -0.6875q-0.296875 -0.453125 -0.3125 -1.03125zm7.0390625 1.21875l0.109375 0.609375q-0.296875 0.078125 -0.53125 0.078125q-0.390625 0 -0.609375 -0.125q-0.203125 -0.125 -0.296875 -0.3125q-0.078125 -0.203125 -0.078125 -0.84375l0 -2.390625l-0.515625 0l0 -0.546875l0.515625 0l0 -1.015625l0.703125 -0.421875l0 1.4375l0.703125 0l0 0.546875l-0.703125 0l0 2.4375q0 0.296875 0.03125 0.390625q0.046875 0.078125 0.125 0.125q0.078125 0.046875 0.234375 0.046875q0.125 0 0.3125 -0.015625z" fill-rule="nonzero"/><path fill="#d9d2e9" d="m264.01575 129.41733l0 0c0 -9.619324 8.072968 -17.417328 18.031494 -17.417328l0 0c4.782257 0 9.368622 1.8350372 12.750183 5.1014175c3.3815613 3.2663803 5.281311 7.696541 5.281311 12.31591l0 0c0 9.619324 -8.072968 17.417313 -18.031494 17.417313l0 0c-9.958527 0 -18.031494 -7.797989 -18.031494 -17.417313z" fill-rule="evenodd"/><path stroke="#000000" stroke-width="1.0" stroke-linejoin="round" stroke-linecap="butt" d="m264.01575 129.41733l0 0c0 -9.619324 8.072968 -17.417328 18.031494 -17.417328l0 0c4.782257 0 9.368622 1.8350372 12.750183 5.1014175c3.3815613 3.2663803 5.281311 7.696541 5.281311 12.31591l0 0c0 9.619324 -8.072968 17.417313 -18.031494 17.417313l0 0c-9.958527 0 -18.031494 -7.797989 -18.031494 -17.417313z" fill-rule="evenodd"/><path fill="#000000" d="m274.41248 127.09732l-1.53125 -5.734375l0.78125 0l0.875 3.765625q0.140625 0.578125 0.234375 1.171875q0.21875 -0.921875 0.265625 -1.0625l1.09375 -3.875l0.90625 0l0.828125 2.90625q0.296875 1.078125 0.4375 2.03125q0.109375 -0.546875 0.28125 -1.25l0.90625 -3.6875l0.765625 0l-1.578125 5.734375l-0.734375 0l-1.203125 -4.359375q-0.15625 -0.546875 -0.171875 -0.671875q-0.09375 0.390625 -0.171875 0.671875l-1.21875 4.359375l-0.765625 0zm6.296875 0l0 -4.15625l0.640625 0l0 0.640625q0.234375 -0.453125 0.4375 -0.59375q0.21875 -0.140625 0.453125 -0.140625q0.359375 0 0.734375 0.234375l-0.25 0.65625q-0.25 -0.15625 -0.515625 -0.15625q-0.234375 0 -0.421875 0.140625q-0.171875 0.140625 -0.25 0.375q-0.125 0.375 -0.125 0.828125l0 2.171875l-0.703125 0zm2.6796875 -4.921875l0 -0.8125l0.703125 0l0 0.8125l-0.703125 0zm0 4.921875l0 -4.15625l0.703125 0l0 4.15625l-0.703125 0zm3.3085938 -0.625l0.109375 0.609375q-0.296875 0.078125 -0.53125 0.078125q-0.390625 0 -0.609375 -0.125q-0.203125 -0.125 -0.296875 -0.3125q-0.078125 -0.203125 -0.078125 -0.84375l0 -2.390625l-0.515625 0l0 -0.546875l0.515625 0l0 -1.015625l0.703125 -0.421875l0 1.4375l0.703125 0l0 0.546875l-0.703125 0l0 2.4375q0 0.296875 0.03125 0.390625q0.046875 0.078125 0.125 0.125q0.078125 0.046875 0.234375 0.046875q0.125 0 0.3125 -0.015625zm3.5351562 -0.71875l0.71875 0.09375q-0.171875 0.640625 -0.640625 1.0q-0.453125 0.34375 -1.1875 0.34375q-0.90625 0 -1.4375 -0.5625q-0.53125 -0.5625 -0.53125 -1.578125q0 -1.046875 0.53125 -1.625q0.546875 -0.578125 1.40625 -0.578125q0.828125 0 1.359375 0.578125q0.53125 0.5625 0.53125 1.59375q0 0.0625 -0.015625 0.1875l-3.09375 0q0.046875 0.671875 0.390625 1.046875q0.34375 0.359375 0.875 0.359375q0.375 0 0.640625 -0.203125q0.28125 -0.203125 0.453125 -0.65625zm-2.3125 -1.125l2.3125 0q-0.046875 -0.53125 -0.265625 -0.796875q-0.328125 -0.40625 -0.875 -0.40625q-0.484375 0 -0.8125 0.328125q-0.328125 0.328125 -0.359375 0.875z" fill-rule="nonzero"/><path fill="#000000" d="m278.62732 135.25357l0.71875 -0.0625q0.046875 0.4375 0.234375 0.71875q0.1875 0.265625 0.578125 0.4375q0.390625 0.171875 0.875 0.171875q0.4375 0 0.765625 -0.125q0.328125 -0.140625 0.484375 -0.359375q0.171875 -0.234375 0.171875 -0.5q0 -0.265625 -0.15625 -0.46875q-0.15625 -0.203125 -0.515625 -0.328125q-0.234375 -0.09375 -1.03125 -0.28125q-0.78125 -0.1875 -1.09375 -0.359375q-0.40625 -0.21875 -0.609375 -0.53125q-0.203125 -0.328125 -0.203125 -0.71875q0 -0.4375 0.25 -0.8125q0.25 -0.375 0.71875 -0.5625q0.46875 -0.203125 1.046875 -0.203125q0.640625 0 1.125 0.203125q0.484375 0.203125 0.75 0.609375q0.265625 0.390625 0.28125 0.90625l-0.734375 0.046875q-0.046875 -0.546875 -0.390625 -0.8125q-0.34375 -0.28125 -1.0 -0.28125q-0.6875 0 -1.0 0.25q-0.3125 0.25 -0.3125 0.609375q0 0.3125 0.21875 0.5q0.21875 0.203125 1.140625 0.421875q0.921875 0.203125 1.265625 0.359375q0.5 0.234375 0.734375 0.59375q0.25 0.34375 0.25 0.796875q0 0.46875 -0.265625 0.875q-0.265625 0.390625 -0.75 0.625q-0.484375 0.21875 -1.109375 0.21875q-0.765625 0 -1.296875 -0.21875q-0.53125 -0.234375 -0.828125 -0.6875q-0.296875 -0.453125 -0.3125 -1.03125zm7.0390625 1.21875l0.109375 0.609375q-0.296875 0.078125 -0.53125 0.078125q-0.390625 0 -0.609375 -0.125q-0.203125 -0.125 -0.296875 -0.3125q-0.078125 -0.203125 -0.078125 -0.84375l0 -2.390625l-0.515625 0l0 -0.546875l0.515625 0l0 -1.015625l0.703125 -0.421875l0 1.4375l0.703125 0l0 0.546875l-0.703125 0l0 2.4375q0 0.296875 0.03125 0.390625q0.046875 0.078125 0.125 0.125q0.078125 0.046875 0.234375 0.046875q0.125 0 0.3125 -0.015625z" fill-rule="nonzero"/><path fill="#000000" fill-opacity="0.0" d="m202.73445 141.73323l66.55116 0" fill-rule="evenodd"/><path stroke="#000000" stroke-width="1.0" stroke-linejoin="round" stroke-linecap="butt" d="m202.73444 141.73323l60.551178 0" fill-rule="evenodd"/><path fill="#000000" stroke="#000000" stroke-width="1.0" stroke-linecap="butt" d="m263.2856 143.38496l4.5381165 -1.6517334l-4.5381165 -1.6517334z" fill-rule="evenodd"/><path fill="#d9d2e9" d="m248.0 184.0l72.0 0l0 24.0l-72.0 0z" fill-rule="evenodd"/><path fill="#000000" d="m276.36523 193.68l-1.53125 -5.734375l0.78125 0l0.875 3.765625q0.140625 0.578125 0.234375 1.171875q0.21875 -0.921875 0.265625 -1.0625l1.09375 -3.875l0.90625 0l0.828125 2.90625q0.296875 1.078125 0.4375 2.03125q0.109375 -0.546875 0.28125 -1.25l0.90625 -3.6875l0.765625 0l-1.578125 5.734375l-0.734375 0l-1.203125 -4.359375q-0.15625 -0.546875 -0.171875 -0.671875q-0.09375 0.390625 -0.171875 0.671875l-1.21875 4.359375l-0.765625 0zm6.296875 0l0 -4.15625l0.640625 0l0 0.640625q0.234375 -0.453125 0.4375 -0.59375q0.21875 -0.140625 0.453125 -0.140625q0.359375 0 0.734375 0.234375l-0.25 0.65625q-0.25 -0.15625 -0.515625 -0.15625q-0.234375 0 -0.421875 0.140625q-0.171875 0.140625 -0.25 0.375q-0.125 0.375 -0.125 0.828125l0 2.171875l-0.703125 0zm2.6796875 -4.921875l0 -0.8125l0.703125 0l0 0.8125l-0.703125 0zm0 4.921875l0 -4.15625l0.703125 0l0 4.15625l-0.703125 0zm3.3085938 -0.625l0.109375 0.609375q-0.296875 0.078125 -0.53125 0.078125q-0.390625 0 -0.609375 -0.125q-0.203125 -0.125 -0.296875 -0.3125q-0.078125 -0.203125 -0.078125 -0.84375l0 -2.390625l-0.515625 0l0 -0.546875l0.515625 0l0 -1.015625l0.703125 -0.421875l0 1.4375l0.703125 0l0 0.546875l-0.703125 0l0 2.4375q0 0.296875 0.03125 0.390625q0.046875 0.078125 0.125 0.125q0.078125 0.046875 0.234375 0.046875q0.125 0 0.3125 -0.015625zm3.5351562 -0.71875l0.71875 0.09375q-0.171875 0.640625 -0.640625 1.0q-0.453125 0.34375 -1.1875 0.34375q-0.90625 0 -1.4375 -0.5625q-0.53125 -0.5625 -0.53125 -1.578125q0 -1.046875 0.53125 -1.625q0.546875 -0.578125 1.40625 -0.578125q0.828125 0 1.359375 0.578125q0.53125 0.5625 0.53125 1.59375q0 0.0625 -0.015625 0.1875l-3.09375 0q0.046875 0.671875 0.390625 1.046875q0.34375 0.359375 0.875 0.359375q0.375 0 0.640625 -0.203125q0.28125 -0.203125 0.453125 -0.65625zm-2.3125 -1.125l2.3125 0q-0.046875 -0.53125 -0.265625 -0.796875q-0.328125 -0.40625 -0.875 -0.40625q-0.484375 0 -0.8125 0.328125q-0.328125 0.328125 -0.359375 0.875z" fill-rule="nonzero"/><path fill="#000000" d="m266.82422 200.88312q0 -1.421875 0.765625 -2.21875q0.765625 -0.8125 1.96875 -0.8125q0.796875 0 1.4375 0.375q0.640625 0.375 0.96875 1.0625q0.328125 0.671875 0.328125 1.53125q0 0.875 -0.359375 1.5625q-0.34375 0.6875 -0.984375 1.046875q-0.640625 0.34375 -1.390625 0.34375q-0.8125 0 -1.453125 -0.390625q-0.625 -0.390625 -0.953125 -1.0625q-0.328125 -0.671875 -0.328125 -1.4375zm0.78125 0.015625q0 1.03125 0.546875 1.640625q0.5625 0.59375 1.40625 0.59375q0.859375 0 1.40625 -0.59375q0.546875 -0.609375 0.546875 -1.71875q0 -0.703125 -0.234375 -1.21875q-0.234375 -0.53125 -0.6875 -0.8125q-0.453125 -0.28125 -1.015625 -0.28125q-0.8125 0 -1.390625 0.546875q-0.578125 0.546875 -0.578125 1.84375zm5.5820312 4.375l0 -5.75l0.640625 0l0 0.546875q0.21875 -0.3125 0.5 -0.46875q0.296875 -0.171875 0.703125 -0.171875q0.53125 0 0.9375 0.28125q0.40625 0.265625 0.609375 0.765625q0.203125 0.5 0.203125 1.09375q0 0.640625 -0.234375 1.15625q-0.21875 0.5 -0.65625 0.78125q-0.4375 0.265625 -0.90625 0.265625q-0.359375 0 -0.640625 -0.140625q-0.28125 -0.15625 -0.453125 -0.390625l0 2.03125l-0.703125 0zm0.640625 -3.640625q0 0.796875 0.3125 1.1875q0.328125 0.375 0.796875 0.375q0.46875 0 0.796875 -0.390625q0.328125 -0.40625 0.328125 -1.234375q0 -0.796875 -0.328125 -1.1875q-0.3125 -0.390625 -0.765625 -0.390625q-0.453125 0 -0.796875 0.421875q-0.34375 0.40625 -0.34375 1.21875zm6.6523438 0.703125l0.71875 0.09375q-0.171875 0.640625 -0.640625 1.0q-0.453125 0.34375 -1.1875 0.34375q-0.90625 0 -1.4375 -0.5625q-0.53125 -0.5625 -0.53125 -1.578125q0 -1.046875 0.53125 -1.625q0.546875 -0.578125 1.40625 -0.578125q0.828125 0 1.359375 0.578125q0.53125 0.5625 0.53125 1.59375q0 0.0625 -0.015625 0.1875l-3.09375 0q0.046875 0.671875 0.390625 1.046875q0.34375 0.359375 0.875 0.359375q0.375 0 0.640625 -0.203125q0.28125 -0.203125 0.453125 -0.65625zm-2.3125 -1.125l2.3125 0q-0.046875 -0.53125 -0.265625 -0.796875q-0.328125 -0.40625 -0.875 -0.40625q-0.484375 0 -0.8125 0.328125q-0.328125 0.328125 -0.359375 0.875zm3.9023438 2.46875l0 -4.15625l0.640625 0l0 0.640625q0.234375 -0.453125 0.4375 -0.59375q0.21875 -0.140625 0.453125 -0.140625q0.359375 0 0.734375 0.234375l-0.25 0.65625q-0.25 -0.15625 -0.515625 -0.15625q-0.234375 0 -0.421875 0.140625q-0.171875 0.140625 -0.25 0.375q-0.125 0.375 -0.125 0.828125l0 2.171875l-0.703125 0zm5.3828125 -0.515625q-0.390625 0.328125 -0.75 0.46875q-0.359375 0.140625 -0.78125 0.140625q-0.671875 0 -1.046875 -0.328125q-0.359375 -0.34375 -0.359375 -0.859375q0 -0.3125 0.125 -0.5625q0.140625 -0.25 0.359375 -0.390625q0.234375 -0.15625 0.515625 -0.234375q0.203125 -0.0625 0.625 -0.109375q0.859375 -0.109375 1.25 -0.25q0.015625 -0.140625 0.015625 -0.171875q0 -0.4375 -0.203125 -0.609375q-0.265625 -0.234375 -0.796875 -0.234375q-0.5 0 -0.734375 0.171875q-0.234375 0.171875 -0.359375 0.609375l-0.6875 -0.09375q0.09375 -0.4375 0.3125 -0.703125q0.21875 -0.28125 0.625 -0.421875q0.40625 -0.15625 0.9375 -0.15625q0.53125 0 0.859375 0.125q0.34375 0.125 0.5 0.328125q0.15625 0.1875 0.21875 0.46875q0.03125 0.1875 0.03125 0.65625l0 0.9375q0 0.96875 0.046875 1.234375q0.046875 0.265625 0.171875 0.5l-0.734375 0q-0.109375 -0.21875 -0.140625 -0.515625zm-0.0625 -1.5625q-0.375 0.15625 -1.140625 0.265625q-0.4375 0.0625 -0.625 0.140625q-0.171875 0.078125 -0.265625 0.234375q-0.09375 0.140625 -0.09375 0.328125q0 0.28125 0.203125 0.46875q0.21875 0.1875 0.625 0.1875q0.40625 0 0.71875 -0.171875q0.328125 -0.1875 0.46875 -0.5q0.109375 -0.234375 0.109375 -0.703125l0 -0.25zm3.3398438 1.453125l0.109375 0.609375q-0.296875 0.078125 -0.53125 0.078125q-0.390625 0 -0.609375 -0.125q-0.203125 -0.125 -0.296875 -0.3125q-0.078125 -0.203125 -0.078125 -0.84375l0 -2.390625l-0.515625 0l0 -0.546875l0.515625 0l0 -1.015625l0.703125 -0.421875l0 1.4375l0.703125 0l0 0.546875l-0.703125 0l0 2.4375q0 0.296875 0.03125 0.390625q0.046875 0.078125 0.125 0.125q0.078125 0.046875 0.234375 0.046875q0.125 0 0.3125 -0.015625zm0.69140625 -4.296875l0 -0.8125l0.703125 0l0 0.8125l-0.703125 0zm0 4.921875l0 -4.15625l0.703125 0l0 4.15625l-0.703125 0zm1.5117188 -2.078125q0 -1.15625 0.640625 -1.703125q0.53125 -0.46875 1.3125 -0.46875q0.84375 0 1.390625 0.5625q0.546875 0.5625 0.546875 1.546875q0 0.8125 -0.25 1.265625q-0.234375 0.453125 -0.703125 0.71875q-0.453125 0.25 -0.984375 0.25q-0.875 0 -1.421875 -0.5625q-0.53125 -0.5625 -0.53125 -1.609375zm0.71875 0q0 0.796875 0.34375 1.203125q0.359375 0.390625 0.890625 0.390625q0.515625 0 0.859375 -0.390625q0.359375 -0.40625 0.359375 -1.21875q0 -0.78125 -0.359375 -1.171875q-0.34375 -0.390625 -0.859375 -0.390625q-0.53125 0 -0.890625 0.390625q-0.34375 0.390625 -0.34375 1.1875zm3.9960938 2.078125l0 -4.15625l0.625 0l0 0.59375q0.46875 -0.6875 1.328125 -0.6875q0.375 0 0.6875 0.140625q0.3125 0.140625 0.46875 0.359375q0.15625 0.21875 0.21875 0.515625q0.046875 0.1875 0.046875 0.6875l0 2.546875l-0.703125 0l0 -2.53125q0 -0.421875 -0.09375 -0.625q-0.078125 -0.21875 -0.296875 -0.34375q-0.203125 -0.140625 -0.484375 -0.140625q-0.4375 0 -0.765625 0.296875q-0.328125 0.28125 -0.328125 1.078125l0 2.265625l-0.703125 0z" fill-rule="nonzero"/><path fill="#000000" fill-opacity="0.0" d="m288.0 88.0l40.0 0l0 16.0l-40.0 0z" fill-rule="evenodd"/><path fill="#000000" d="m296.76694 98.4l0 -4.765625l0.59375 0l0 4.765625l-0.59375 0zm3.7444153 -1.265625l0.578125 0.078125q-0.09375 0.59375 -0.484375 0.9375q-0.390625 0.328125 -0.953125 0.328125q-0.703125 0 -1.140625 -0.453125q-0.421875 -0.46875 -0.421875 -1.34375q0 -0.546875 0.171875 -0.96875q0.1875 -0.421875 0.5625 -0.625q0.390625 -0.21875 0.828125 -0.21875q0.5625 0 0.921875 0.296875q0.359375 0.28125 0.46875 0.796875l-0.578125 0.09375q-0.078125 -0.359375 -0.296875 -0.53125q-0.203125 -0.171875 -0.484375 -0.171875q-0.453125 0 -0.734375 0.3125q-0.265625 0.3125 -0.265625 1.0q0 0.703125 0.265625 1.015625q0.265625 0.3125 0.703125 0.3125q0.34375 0 0.5625 -0.203125q0.234375 -0.21875 0.296875 -0.65625zm0.546875 2.59375l0 -0.421875l3.875 0l0 0.421875l-3.875 0zm4.2331543 -1.328125l0 -3.453125l0.515625 0l0 0.53125q0.203125 -0.375 0.375 -0.484375q0.171875 -0.125 0.375 -0.125q0.296875 0 0.609375 0.1875l-0.203125 0.546875q-0.21875 -0.125 -0.4375 -0.125q-0.1875 0 -0.34375 0.125q-0.140625 0.109375 -0.21875 0.3125q-0.09375 0.3125 -0.09375 0.671875l0 1.8125l-0.578125 0zm4.5759583 -1.109375l0.609375 0.078125q-0.140625 0.53125 -0.53125 0.828125q-0.390625 0.28125 -0.984375 0.28125q-0.765625 0 -1.203125 -0.46875q-0.4375 -0.46875 -0.4375 -1.3125q0 -0.859375 0.4375 -1.34375q0.453125 -0.484375 1.171875 -0.484375q0.6875 0 1.125 0.46875q0.4375 0.46875 0.4375 1.328125q0 0.046875 0 0.15625l-2.578125 0q0.03125 0.578125 0.3125 0.875q0.296875 0.296875 0.734375 0.296875q0.328125 0 0.546875 -0.15625q0.234375 -0.171875 0.359375 -0.546875zm-1.921875 -0.953125l1.9375 0q-0.046875 -0.4375 -0.21875 -0.640625q-0.28125 -0.34375 -0.734375 -0.34375q-0.40625 0 -0.6875 0.265625q-0.265625 0.265625 -0.296875 0.71875zm5.467499 3.390625l0 -1.703125q-0.140625 0.203125 -0.390625 0.328125q-0.234375 0.125 -0.515625 0.125q-0.609375 0 -1.0625 -0.484375q-0.4375 -0.5 -0.4375 -1.359375q0 -0.515625 0.171875 -0.921875q0.1875 -0.421875 0.53125 -0.625q0.34375 -0.21875 0.75 -0.21875q0.640625 0 1.015625 0.546875l0 -0.46875l0.515625 0l0 4.78125l-0.578125 0zm-1.8125 -3.0625q0 0.671875 0.28125 1.0q0.28125 0.328125 0.671875 0.328125q0.375 0 0.640625 -0.3125q0.28125 -0.3125 0.28125 -0.96875q0 -0.6875 -0.296875 -1.03125q-0.28125 -0.34375 -0.65625 -0.34375q-0.390625 0 -0.65625 0.328125q-0.265625 0.3125 -0.265625 1.0zm2.7800293 3.0625l0 -0.421875l3.875 0l0 0.421875l-3.875 0zm4.2331543 -5.421875l0 -0.671875l0.59375 0l0 0.671875l-0.59375 0zm0 4.09375l0 -3.453125l0.59375 0l0 3.453125l-0.59375 0z" fill-rule="nonzero"/><path fill="#000000" fill-opacity="0.0" d="m200.0 152.0l64.0 0l0 16.0l-64.0 0z" fill-rule="evenodd"/><path fill="#000000" d="m215.19786 156.68124q0 -0.96875 0.53125 -1.421875q0.453125 -0.390625 1.09375 -0.390625q0.703125 0 1.15625 0.46875q0.453125 0.46875 0.453125 1.28125q0 0.671875 -0.203125 1.0625q-0.1875 0.375 -0.578125 0.59375q-0.375 0.203125 -0.828125 0.203125q-0.734375 0 -1.1875 -0.453125q-0.4375 -0.46875 -0.4375 -1.34375zm0.609375 0q0 0.65625 0.28125 0.984375q0.296875 0.328125 0.734375 0.328125q0.4375 0 0.71875 -0.328125q0.296875 -0.328125 0.296875 -1.015625q0 -0.640625 -0.296875 -0.96875q-0.296875 -0.328125 -0.71875 -0.328125q-0.4375 0 -0.734375 0.328125q-0.28125 0.328125 -0.28125 1.0zm4.592514 1.203125l0.078125 0.515625q-0.25 0.046875 -0.4375 0.046875q-0.3125 0 -0.5 -0.09375q-0.171875 -0.109375 -0.25 -0.265625q-0.0625 -0.171875 -0.0625 -0.703125l0 -1.984375l-0.4375 0l0 -0.453125l0.4375 0l0 -0.859375l0.578125 -0.34375l0 1.203125l0.59375 0l0 0.453125l-0.59375 0l0 2.015625q0 0.25 0.03125 0.328125q0.03125 0.078125 0.09375 0.125q0.078125 0.03125 0.203125 0.03125q0.109375 0 0.265625 -0.015625zm0.56806946 1.84375l0 -4.78125l0.53125 0l0 0.453125q0.1875 -0.265625 0.421875 -0.390625q0.25 -0.140625 0.578125 -0.140625q0.453125 0 0.78125 0.234375q0.34375 0.21875 0.515625 0.640625q0.171875 0.40625 0.171875 0.90625q0 0.53125 -0.1875 0.953125q-0.1875 0.421875 -0.5625 0.65625q-0.359375 0.21875 -0.75 0.21875q-0.296875 0 -0.53125 -0.125q-0.234375 -0.125 -0.375 -0.3125l0 1.6875l-0.59375 0zm0.53125 -3.03125q0 0.65625 0.265625 0.984375q0.28125 0.3125 0.65625 0.3125q0.390625 0 0.671875 -0.328125q0.28125 -0.328125 0.28125 -1.015625q0 -0.671875 -0.28125 -1.0q-0.265625 -0.328125 -0.640625 -0.328125q-0.375 0 -0.671875 0.359375q-0.28125 0.34375 -0.28125 1.015625zm2.639389 3.03125l0 -0.421875l3.875 0l0 0.421875l-3.875 0zm4.233139 -1.328125l0 -3.453125l0.515625 0l0 0.53125q0.203125 -0.375 0.375 -0.484375q0.171875 -0.125 0.375 -0.125q0.296875 0 0.609375 0.1875l-0.203125 0.546875q-0.21875 -0.125 -0.4375 -0.125q-0.1875 0 -0.34375 0.125q-0.140625 0.109375 -0.21875 0.3125q-0.09375 0.3125 -0.09375 0.671875l0 1.8125l-0.578125 0zm3.1697083 0l-1.3125 -3.453125l0.625 0l0.734375 2.0625q0.125 0.34375 0.234375 0.703125q0.0625 -0.28125 0.203125 -0.65625l0.78125 -2.109375l0.59375 0l-1.3125 3.453125l-0.546875 0zm4.625 -0.421875q-0.328125 0.265625 -0.625 0.390625q-0.296875 0.109375 -0.640625 0.109375q-0.578125 0 -0.890625 -0.28125q-0.296875 -0.28125 -0.296875 -0.703125q0 -0.25 0.109375 -0.453125q0.125 -0.21875 0.3125 -0.34375q0.1875 -0.140625 0.421875 -0.203125q0.171875 -0.046875 0.515625 -0.078125q0.71875 -0.09375 1.046875 -0.203125q0 -0.125 0 -0.15625q0 -0.359375 -0.15625 -0.5q-0.234375 -0.203125 -0.671875 -0.203125q-0.40625 0 -0.609375 0.15625q-0.203125 0.140625 -0.296875 0.5l-0.5625 -0.078125q0.078125 -0.359375 0.25 -0.578125q0.1875 -0.234375 0.515625 -0.359375q0.34375 -0.125 0.78125 -0.125q0.453125 0 0.71875 0.109375q0.28125 0.09375 0.40625 0.265625q0.140625 0.15625 0.1875 0.390625q0.03125 0.15625 0.03125 0.546875l0 0.765625q0 0.828125 0.03125 1.046875q0.046875 0.203125 0.15625 0.40625l-0.609375 0q-0.09375 -0.1875 -0.125 -0.421875zm-0.046875 -1.3125q-0.3125 0.125 -0.953125 0.21875q-0.359375 0.0625 -0.515625 0.125q-0.140625 0.0625 -0.234375 0.1875q-0.078125 0.125 -0.078125 0.28125q0 0.234375 0.171875 0.390625q0.1875 0.15625 0.53125 0.15625q0.328125 0 0.59375 -0.140625q0.265625 -0.15625 0.390625 -0.421875q0.09375 -0.1875 0.09375 -0.578125l0 -0.21875zm1.483139 1.734375l0 -4.765625l0.59375 0l0 4.765625l-0.59375 0zm1.4944305 -4.09375l0 -0.671875l0.59375 0l0 0.671875l-0.59375 0zm0 4.09375l0 -3.453125l0.59375 0l0 3.453125l-0.59375 0zm3.7131805 0l0 -0.4375q-0.328125 0.515625 -0.953125 0.515625q-0.421875 0 -0.765625 -0.21875q-0.34375 -0.234375 -0.53125 -0.640625q-0.1875 -0.40625 -0.1875 -0.9375q0 -0.515625 0.171875 -0.9375q0.171875 -0.421875 0.515625 -0.640625q0.34375 -0.234375 0.765625 -0.234375q0.3125 0 0.546875 0.140625q0.25 0.125 0.40625 0.328125l0 -1.703125l0.578125 0l0 4.765625l-0.546875 0zm-1.84375 -1.71875q0 0.65625 0.28125 0.984375q0.28125 0.328125 0.65625 0.328125q0.390625 0 0.65625 -0.3125q0.265625 -0.3125 0.265625 -0.953125q0 -0.703125 -0.28125 -1.03125q-0.265625 -0.34375 -0.671875 -0.34375q-0.375 0 -0.640625 0.328125q-0.265625 0.3125 -0.265625 1.0zm2.780014 3.046875l0 -0.421875l3.875 0l0 0.421875l-3.875 0zm4.233139 -5.421875l0 -0.671875l0.59375 0l0 0.671875l-0.59375 0zm0 4.09375l0 -3.453125l0.59375 0l0 3.453125l-0.59375 0z" fill-rule="nonzero"/><path fill="#000000" d="m204.70953 167.80624q-0.484375 -0.609375 -0.828125 -1.421875q-0.328125 -0.828125 -0.328125 -1.703125q0 -0.78125 0.25 -1.484375q0.296875 -0.828125 0.90625 -1.640625l0.40625 0q-0.390625 0.671875 -0.515625 0.96875q-0.203125 0.4375 -0.3125 0.9375q-0.140625 0.59375 -0.140625 1.21875q0 1.5625 0.96875 3.125l-0.40625 0zm1.0915833 -1.40625l0 -3.453125l0.53125 0l0 0.484375q0.15625 -0.25 0.421875 -0.40625q0.28125 -0.15625 0.625 -0.15625q0.375 0 0.625 0.15625q0.25 0.15625 0.34375 0.453125q0.40625 -0.609375 1.0625 -0.609375q0.515625 0 0.78125 0.296875q0.28125 0.28125 0.28125 0.859375l0 2.375l-0.578125 0l0 -2.171875q0 -0.359375 -0.0625 -0.5q-0.046875 -0.15625 -0.203125 -0.25q-0.140625 -0.09375 -0.34375 -0.09375q-0.359375 0 -0.609375 0.25q-0.234375 0.234375 -0.234375 0.765625l0 2.0l-0.59375 0l0 -2.25q0 -0.375 -0.140625 -0.5625q-0.140625 -0.203125 -0.46875 -0.203125q-0.25 0 -0.453125 0.125q-0.203125 0.125 -0.296875 0.375q-0.09375 0.25 -0.09375 0.71875l0 1.796875l-0.59375 0zm5.3259583 -1.71875q0 -0.96875 0.53125 -1.421875q0.453125 -0.390625 1.09375 -0.390625q0.703125 0 1.15625 0.46875q0.453125 0.46875 0.453125 1.28125q0 0.671875 -0.203125 1.0625q-0.1875 0.375 -0.578125 0.59375q-0.375 0.203125 -0.828125 0.203125q-0.734375 0 -1.1875 -0.453125q-0.4375 -0.46875 -0.4375 -1.34375zm0.609375 0q0 0.65625 0.28125 0.984375q0.296875 0.328125 0.734375 0.328125q0.4375 0 0.71875 -0.328125q0.296875 -0.328125 0.296875 -1.015625q0 -0.640625 -0.296875 -0.96875q-0.296875 -0.328125 -0.71875 -0.328125q-0.4375 0 -0.734375 0.328125q-0.28125 0.328125 -0.28125 1.0zm3.3112793 1.71875l0 -3.453125l0.515625 0l0 0.53125q0.203125 -0.375 0.375 -0.484375q0.171875 -0.125 0.375 -0.125q0.296875 0 0.609375 0.1875l-0.203125 0.546875q-0.21875 -0.125 -0.4375 -0.125q-0.1875 0 -0.34375 0.125q-0.140625 0.109375 -0.21875 0.3125q-0.09375 0.3125 -0.09375 0.671875l0 1.8125l-0.578125 0zm4.5759583 -1.109375l0.609375 0.078125q-0.140625 0.53125 -0.53125 0.828125q-0.390625 0.28125 -0.984375 0.28125q-0.765625 0 -1.203125 -0.46875q-0.4375 -0.46875 -0.4375 -1.3125q0 -0.859375 0.4375 -1.34375q0.453125 -0.484375 1.171875 -0.484375q0.6875 0 1.125 0.46875q0.4375 0.46875 0.4375 1.328125q0 0.046875 0 0.15625l-2.578125 0q0.03125 0.578125 0.3125 0.875q0.296875 0.296875 0.734375 0.296875q0.328125 0 0.546875 -0.15625q0.234375 -0.171875 0.359375 -0.546875zm-1.921875 -0.953125l1.9375 0q-0.046875 -0.4375 -0.21875 -0.640625q-0.28125 -0.34375 -0.734375 -0.34375q-0.40625 0 -0.6875 0.265625q-0.265625 0.265625 -0.296875 0.71875zm7.3480835 2.0625l0 -0.4375q-0.328125 0.515625 -0.953125 0.515625q-0.421875 0 -0.765625 -0.21875q-0.34375 -0.234375 -0.53125 -0.640625q-0.1875 -0.40625 -0.1875 -0.9375q0 -0.515625 0.171875 -0.9375q0.171875 -0.421875 0.515625 -0.640625q0.34375 -0.234375 0.765625 -0.234375q0.3125 0 0.546875 0.140625q0.25 0.125 0.40625 0.328125l0 -1.703125l0.578125 0l0 4.765625l-0.546875 0zm-1.84375 -1.71875q0 0.65625 0.28125 0.984375q0.28125 0.328125 0.65625 0.328125q0.390625 0 0.65625 -0.3125q0.265625 -0.3125 0.265625 -0.953125q0 -0.703125 -0.28125 -1.03125q-0.265625 -0.34375 -0.671875 -0.34375q-0.375 0 -0.640625 0.328125q-0.265625 0.3125 -0.265625 1.0zm5.561249 1.296875q-0.328125 0.265625 -0.625 0.390625q-0.296875 0.109375 -0.640625 0.109375q-0.578125 0 -0.890625 -0.28125q-0.296875 -0.28125 -0.296875 -0.703125q0 -0.25 0.109375 -0.453125q0.125 -0.21875 0.3125 -0.34375q0.1875 -0.140625 0.421875 -0.203125q0.171875 -0.046875 0.515625 -0.078125q0.71875 -0.09375 1.046875 -0.203125q0 -0.125 0 -0.15625q0 -0.359375 -0.15625 -0.5q-0.234375 -0.203125 -0.671875 -0.203125q-0.40625 0 -0.609375 0.15625q-0.203125 0.140625 -0.296875 0.5l-0.5625 -0.078125q0.078125 -0.359375 0.25 -0.578125q0.1875 -0.234375 0.515625 -0.359375q0.34375 -0.125 0.78125 -0.125q0.453125 0 0.71875 0.109375q0.28125 0.09375 0.40625 0.265625q0.140625 0.15625 0.1875 0.390625q0.03125 0.15625 0.03125 0.546875l0 0.765625q0 0.828125 0.03125 1.046875q0.046875 0.203125 0.15625 0.40625l-0.609375 0q-0.09375 -0.1875 -0.125 -0.421875zm-0.046875 -1.3125q-0.3125 0.125 -0.953125 0.21875q-0.359375 0.0625 -0.515625 0.125q-0.140625 0.0625 -0.234375 0.1875q-0.078125 0.125 -0.078125 0.28125q0 0.234375 0.171875 0.390625q0.1875 0.15625 0.53125 0.15625q0.328125 0 0.59375 -0.140625q0.265625 -0.15625 0.390625 -0.421875q0.09375 -0.1875 0.09375 -0.578125l0 -0.21875zm2.7800293 1.21875l0.078125 0.515625q-0.25 0.046875 -0.4375 0.046875q-0.3125 0 -0.5 -0.09375q-0.171875 -0.109375 -0.25 -0.265625q-0.0625 -0.171875 -0.0625 -0.703125l0 -1.984375l-0.4375 0l0 -0.453125l0.4375 0l0 -0.859375l0.578125 -0.34375l0 1.203125l0.59375 0l0 0.453125l-0.59375 0l0 2.015625q0 0.25 0.03125 0.328125q0.03125 0.078125 0.09375 0.125q0.078125 0.03125 0.203125 0.03125q0.109375 0 0.265625 -0.015625zm2.8180542 0.09375q-0.328125 0.265625 -0.625 0.390625q-0.296875 0.109375 -0.640625 0.109375q-0.578125 0 -0.890625 -0.28125q-0.296875 -0.28125 -0.296875 -0.703125q0 -0.25 0.109375 -0.453125q0.125 -0.21875 0.3125 -0.34375q0.1875 -0.140625 0.421875 -0.203125q0.171875 -0.046875 0.515625 -0.078125q0.71875 -0.09375 1.046875 -0.203125q0 -0.125 0 -0.15625q0 -0.359375 -0.15625 -0.5q-0.234375 -0.203125 -0.671875 -0.203125q-0.40625 0 -0.609375 0.15625q-0.203125 0.140625 -0.296875 0.5l-0.5625 -0.078125q0.078125 -0.359375 0.25 -0.578125q0.1875 -0.234375 0.515625 -0.359375q0.34375 -0.125 0.78125 -0.125q0.453125 0 0.71875 0.109375q0.28125 0.09375 0.40625 0.265625q0.140625 0.15625 0.1875 0.390625q0.03125 0.15625 0.03125 0.546875l0 0.765625q0 0.828125 0.03125 1.046875q0.046875 0.203125 0.15625 0.40625l-0.609375 0q-0.09375 -0.1875 -0.125 -0.421875zm-0.046875 -1.3125q-0.3125 0.125 -0.953125 0.21875q-0.359375 0.0625 -0.515625 0.125q-0.140625 0.0625 -0.234375 0.1875q-0.078125 0.125 -0.078125 0.28125q0 0.234375 0.171875 0.390625q0.1875 0.15625 0.53125 0.15625q0.328125 0 0.59375 -0.140625q0.265625 -0.15625 0.390625 -0.421875q0.09375 -0.1875 0.09375 -0.578125l0 -0.21875zm4.6293335 1.21875l0.078125 0.515625q-0.25 0.046875 -0.4375 0.046875q-0.3125 0 -0.5 -0.09375q-0.171875 -0.109375 -0.25 -0.265625q-0.0625 -0.171875 -0.0625 -0.703125l0 -1.984375l-0.4375 0l0 -0.453125l0.4375 0l0 -0.859375l0.578125 -0.34375l0 1.203125l0.59375 0l0 0.453125l-0.59375 0l0 2.015625q0 0.25 0.03125 0.328125q0.03125 0.078125 0.09375 0.125q0.078125 0.03125 0.203125 0.03125q0.109375 0 0.265625 -0.015625zm0.34933472 -1.203125q0 -0.96875 0.53125 -1.421875q0.453125 -0.390625 1.09375 -0.390625q0.703125 0 1.15625 0.46875q0.453125 0.46875 0.453125 1.28125q0 0.671875 -0.203125 1.0625q-0.1875 0.375 -0.578125 0.59375q-0.375 0.203125 -0.828125 0.203125q-0.734375 0 -1.1875 -0.453125q-0.4375 -0.46875 -0.4375 -1.34375zm0.609375 0q0 0.65625 0.28125 0.984375q0.296875 0.328125 0.734375 0.328125q0.4375 0 0.71875 -0.328125q0.296875 -0.328125 0.296875 -1.015625q0 -0.640625 -0.296875 -0.96875q-0.296875 -0.328125 -0.71875 -0.328125q-0.4375 0 -0.734375 0.328125q-0.28125 0.328125 -0.28125 1.0zm5.8012085 1.71875l-1.0625 -3.453125l0.609375 0l0.546875 2.0l0.203125 0.734375q0.015625 -0.0625 0.1875 -0.71875l0.546875 -2.015625l0.59375 0l0.515625 2.0l0.171875 0.65625l0.203125 -0.65625l0.59375 -2.0l0.5625 0l-1.078125 3.453125l-0.609375 0l-0.546875 -2.0625l-0.125 -0.59375l-0.703125 2.65625l-0.609375 0zm4.1662903 0l0 -3.453125l0.515625 0l0 0.53125q0.203125 -0.375 0.375 -0.484375q0.171875 -0.125 0.375 -0.125q0.296875 0 0.609375 0.1875l-0.203125 0.546875q-0.21875 -0.125 -0.4375 -0.125q-0.1875 0 -0.34375 0.125q-0.140625 0.109375 -0.21875 0.3125q-0.09375 0.3125 -0.09375 0.671875l0 1.8125l-0.578125 0zm2.2165833 -4.09375l0 -0.671875l0.59375 0l0 0.671875l-0.59375 0zm0 4.09375l0 -3.453125l0.59375 0l0 3.453125l-0.59375 0zm2.7600708 -0.515625l0.078125 0.515625q-0.25 0.046875 -0.4375 0.046875q-0.3125 0 -0.5 -0.09375q-0.171875 -0.109375 -0.25 -0.265625q-0.0625 -0.171875 -0.0625 -0.703125l0 -1.984375l-0.4375 0l0 -0.453125l0.4375 0l0 -0.859375l0.578125 -0.34375l0 1.203125l0.59375 0l0 0.453125l-0.59375 0l0 2.015625q0 0.25 0.03125 0.328125q0.03125 0.078125 0.09375 0.125q0.078125 0.03125 0.203125 0.03125q0.109375 0 0.265625 -0.015625zm2.9274292 -0.59375l0.609375 0.078125q-0.140625 0.53125 -0.53125 0.828125q-0.390625 0.28125 -0.984375 0.28125q-0.765625 0 -1.203125 -0.46875q-0.4375 -0.46875 -0.4375 -1.3125q0 -0.859375 0.4375 -1.34375q0.453125 -0.484375 1.171875 -0.484375q0.6875 0 1.125 0.46875q0.4375 0.46875 0.4375 1.328125q0 0.046875 0 0.15625l-2.578125 0q0.03125 0.578125 0.3125 0.875q0.296875 0.296875 0.734375 0.296875q0.328125 0 0.546875 -0.15625q0.234375 -0.171875 0.359375 -0.546875zm-1.921875 -0.953125l1.9375 0q-0.046875 -0.4375 -0.21875 -0.640625q-0.28125 -0.34375 -0.734375 -0.34375q-0.40625 0 -0.6875 0.265625q-0.265625 0.265625 -0.296875 0.71875zm3.6550293 3.46875l-0.421875 0q0.96875 -1.5625 0.96875 -3.125q0 -0.609375 -0.140625 -1.21875q-0.109375 -0.484375 -0.3125 -0.9375q-0.125 -0.28125 -0.515625 -0.96875l0.421875 0q0.609375 0.8125 0.890625 1.640625q0.25 0.703125 0.25 1.484375q0 0.875 -0.34375 1.703125q-0.328125 0.8125 -0.796875 1.421875z" fill-rule="nonzero"/><path fill="#000000" fill-opacity="0.0" d="m312.0 136.0l32.0 0l0 24.0l-32.0 0z" fill-rule="evenodd"/><path fill="#ff0000" d="m321.48663 140.07187q0 -1.171875 0.625 -1.84375q0.640625 -0.671875 1.65625 -0.671875q0.65625 0 1.1875 0.3125q0.53125 0.3125 0.796875 0.875q0.28125 0.5625 0.28125 1.28125q0 0.71875 -0.296875 1.296875q-0.28125 0.578125 -0.828125 0.875q-0.53125 0.28125 -1.15625 0.28125q-0.671875 0 -1.203125 -0.3125q-0.515625 -0.328125 -0.796875 -0.890625q-0.265625 -0.5625 -0.265625 -1.203125zm0.640625 0.015625q0 0.859375 0.453125 1.359375q0.46875 0.5 1.171875 0.5q0.71875 0 1.171875 -0.5q0.46875 -0.5 0.46875 -1.421875q0 -0.578125 -0.203125 -1.015625q-0.203125 -0.4375 -0.578125 -0.671875q-0.375 -0.25 -0.84375 -0.25q-0.671875 0 -1.15625 0.46875q-0.484375 0.453125 -0.484375 1.53125zm5.927429 2.3125l0 -4.203125l-1.5625 0l0 -0.5625l3.78125 0l0 0.5625l-1.578125 0l0 4.203125l-0.640625 0zm2.862793 0l0 -4.765625l1.796875 0q0.46875 0 0.71875 0.046875q0.359375 0.0625 0.59375 0.234375q0.234375 0.15625 0.375 0.453125q0.15625 0.296875 0.15625 0.640625q0 0.609375 -0.390625 1.03125q-0.390625 0.421875 -1.40625 0.421875l-1.21875 0l0 1.9375l-0.625 0zm0.625 -2.5l1.234375 0q0.609375 0 0.859375 -0.21875q0.265625 -0.234375 0.265625 -0.640625q0 -0.3125 -0.15625 -0.515625q-0.140625 -0.21875 -0.390625 -0.28125q-0.15625 -0.046875 -0.59375 -0.046875l-1.21875 0l0 1.703125z" fill-rule="nonzero"/><path fill="#ff0000" d="m314.09995 150.4l-1.0625 -3.453125l0.609375 0l0.546875 2.0l0.203125 0.734375q0.015625 -0.0625 0.1875 -0.71875l0.546875 -2.015625l0.59375 0l0.515625 2.0l0.171875 0.65625l0.203125 -0.65625l0.59375 -2.0l0.5625 0l-1.078125 3.453125l-0.609375 0l-0.546875 -2.0625l-0.125 -0.59375l-0.703125 2.65625l-0.609375 0zm4.1662903 0l0 -3.453125l0.515625 0l0 0.53125q0.203125 -0.375 0.375 -0.484375q0.171875 -0.125 0.375 -0.125q0.296875 0 0.609375 0.1875l-0.203125 0.546875q-0.21875 -0.125 -0.4375 -0.125q-0.1875 0 -0.34375 0.125q-0.140625 0.109375 -0.21875 0.3125q-0.09375 0.3125 -0.09375 0.671875l0 1.8125l-0.578125 0zm2.2165833 -4.09375l0 -0.671875l0.59375 0l0 0.671875l-0.59375 0zm0 4.09375l0 -3.453125l0.59375 0l0 3.453125l-0.59375 0zm2.7600708 -0.515625l0.078125 0.515625q-0.25 0.046875 -0.4375 0.046875q-0.3125 0 -0.5 -0.09375q-0.171875 -0.109375 -0.25 -0.265625q-0.0625 -0.171875 -0.0625 -0.703125l0 -1.984375l-0.4375 0l0 -0.453125l0.4375 0l0 -0.859375l0.578125 -0.34375l0 1.203125l0.59375 0l0 0.453125l-0.59375 0l0 2.015625q0 0.25 0.03125 0.328125q0.03125 0.078125 0.09375 0.125q0.078125 0.03125 0.203125 0.03125q0.109375 0 0.265625 -0.015625zm2.9274292 -0.59375l0.609375 0.078125q-0.140625 0.53125 -0.53125 0.828125q-0.390625 0.28125 -0.984375 0.28125q-0.765625 0 -1.203125 -0.46875q-0.4375 -0.46875 -0.4375 -1.3125q0 -0.859375 0.4375 -1.34375q0.453125 -0.484375 1.171875 -0.484375q0.6875 0 1.125 0.46875q0.4375 0.46875 0.4375 1.328125q0 0.046875 0 0.15625l-2.578125 0q0.03125 0.578125 0.3125 0.875q0.296875 0.296875 0.734375 0.296875q0.328125 0 0.546875 -0.15625q0.234375 -0.171875 0.359375 -0.546875zm-1.921875 -0.953125l1.9375 0q-0.046875 -0.4375 -0.21875 -0.640625q-0.28125 -0.34375 -0.734375 -0.34375q-0.40625 0 -0.6875 0.265625q-0.265625 0.265625 -0.296875 0.71875zm7.4730835 0.953125l0.609375 0.078125q-0.140625 0.53125 -0.53125 0.828125q-0.390625 0.28125 -0.984375 0.28125q-0.765625 0 -1.203125 -0.46875q-0.4375 -0.46875 -0.4375 -1.3125q0 -0.859375 0.4375 -1.34375q0.453125 -0.484375 1.171875 -0.484375q0.6875 0 1.125 0.46875q0.4375 0.46875 0.4375 1.328125q0 0.046875 0 0.15625l-2.578125 0q0.03125 0.578125 0.3125 0.875q0.296875 0.296875 0.734375 0.296875q0.328125 0 0.546875 -0.15625q0.234375 -0.171875 0.359375 -0.546875zm-1.921875 -0.953125l1.9375 0q-0.046875 -0.4375 -0.21875 -0.640625q-0.28125 -0.34375 -0.734375 -0.34375q-0.40625 0 -0.6875 0.265625q-0.265625 0.265625 -0.296875 0.71875zm3.2644043 2.0625l0 -3.453125l0.515625 0l0 0.53125q0.203125 -0.375 0.375 -0.484375q0.171875 -0.125 0.375 -0.125q0.296875 0 0.609375 0.1875l-0.203125 0.546875q-0.21875 -0.125 -0.4375 -0.125q-0.1875 0 -0.34375 0.125q-0.140625 0.109375 -0.21875 0.3125q-0.09375 0.3125 -0.09375 0.671875l0 1.8125l-0.578125 0zm2.2165833 0l0 -3.453125l0.515625 0l0 0.53125q0.203125 -0.375 0.375 -0.484375q0.171875 -0.125 0.375 -0.125q0.296875 0 0.609375 0.1875l-0.203125 0.546875q-0.21875 -0.125 -0.4375 -0.125q-0.1875 0 -0.34375 0.125q-0.140625 0.109375 -0.21875 0.3125q-0.09375 0.3125 -0.09375 0.671875l0 1.8125l-0.578125 0zm1.9978333 -1.71875q0 -0.96875 0.53125 -1.421875q0.453125 -0.390625 1.09375 -0.390625q0.703125 0 1.15625 0.46875q0.453125 0.46875 0.453125 1.28125q0 0.671875 -0.203125 1.0625q-0.1875 0.375 -0.578125 0.59375q-0.375 0.203125 -0.828125 0.203125q-0.734375 0 -1.1875 -0.453125q-0.4375 -0.46875 -0.4375 -1.34375zm0.609375 0q0 0.65625 0.28125 0.984375q0.296875 0.328125 0.734375 0.328125q0.4375 0 0.71875 -0.328125q0.296875 -0.328125 0.296875 -1.015625q0 -0.640625 -0.296875 -0.96875q-0.296875 -0.328125 -0.71875 -0.328125q-0.4375 0 -0.734375 0.328125q-0.28125 0.328125 -0.28125 1.0zm3.3112488 1.71875l0 -3.453125l0.515625 0l0 0.53125q0.203125 -0.375 0.375 -0.484375q0.171875 -0.125 0.375 -0.125q0.296875 0 0.609375 0.1875l-0.203125 0.546875q-0.21875 -0.125 -0.4375 -0.125q-0.1875 0 -0.34375 0.125q-0.140625 0.109375 -0.21875 0.3125q-0.09375 0.3125 -0.09375 0.671875l0 1.8125l-0.578125 0z" fill-rule="nonzero"/><path fill="#000000" fill-opacity="0.0" d="m208.14174 64.0l55.87401 0" fill-rule="evenodd"/><path stroke="#000000" stroke-width="1.0" stroke-linejoin="round" stroke-linecap="butt" d="m208.14174 64.0l49.87401 0" fill-rule="evenodd"/><path fill="#000000" stroke="#000000" stroke-width="1.0" stroke-linecap="butt" d="m258.01575 65.65173l4.538086 -1.6517334l-4.538086 -1.6517334z" fill-rule="evenodd"/><path fill="#000000" fill-opacity="0.0" d="m269.29706 117.10142l-66.55119 0" fill-rule="evenodd"/><path stroke="#000000" stroke-width="1.0" stroke-linejoin="round" stroke-linecap="butt" d="m269.29706 117.10142l-60.551178 0" fill-rule="evenodd"/><path fill="#000000" stroke="#000000" stroke-width="1.0" stroke-linecap="butt" d="m208.74588 115.449684l-4.538101 1.6517334l4.538101 1.6517334z" fill-rule="evenodd"/><path fill="#000000" fill-opacity="0.0" d="m282.04724 82.83465l0 29.165352" fill-rule="evenodd"/><path stroke="#000000" stroke-width="1.0" stroke-linejoin="round" stroke-linecap="butt" d="m282.04724 82.83465l0 23.165352" fill-rule="evenodd"/><path fill="#000000" stroke="#000000" stroke-width="1.0" stroke-linecap="butt" d="m280.3955 106.0l1.6517334 4.538101l1.6517334 -4.538101z" fill-rule="evenodd"/><path fill="#000000" fill-opacity="0.0" d="m300.07874 129.41733l59.93701 0" fill-rule="evenodd"/><path stroke="#ff0000" stroke-width="1.0" stroke-linejoin="round" stroke-linecap="butt" d="m300.07874 129.41733l53.93701 0" fill-rule="evenodd"/><path fill="#ff0000" stroke="#ff0000" stroke-width="1.0" stroke-linecap="butt" d="m354.01575 131.06906l4.538086 -1.6517334l-4.538086 -1.651741z" fill-rule="evenodd"/><path fill="#000000" fill-opacity="0.0" d="m216.0 96.0l40.0 0l0 16.0l-40.0 0z" fill-rule="evenodd"/><path fill="#000000" d="m222.52435 104.68125q0 -0.96875 0.53125 -1.421875q0.453125 -0.390625 1.09375 -0.390625q0.703125 0 1.15625 0.46875q0.453125 0.46875 0.453125 1.28125q0 0.671875 -0.203125 1.0625q-0.1875 0.375 -0.578125 0.59375q-0.375 0.203125 -0.828125 0.203125q-0.734375 0 -1.1875 -0.453125q-0.4375 -0.46875 -0.4375 -1.34375zm0.609375 0q0 0.65625 0.28125 0.984375q0.296875 0.328125 0.734375 0.328125q0.4375 0 0.71875 -0.328125q0.296875 -0.328125 0.296875 -1.015625q0 -0.640625 -0.296875 -0.96875q-0.296875 -0.328125 -0.71875 -0.328125q-0.4375 0 -0.734375 0.328125q-0.28125 0.328125 -0.28125 1.0zm4.5925293 1.203125l0.078125 0.515625q-0.25 0.046875 -0.4375 0.046875q-0.3125 0 -0.5 -0.09375q-0.171875 -0.109375 -0.25 -0.265625q-0.0625 -0.171875 -0.0625 -0.703125l0 -1.984375l-0.4375 0l0 -0.453125l0.4375 0l0 -0.859375l0.578125 -0.34375l0 1.203125l0.59375 0l0 0.453125l-0.59375 0l0 2.015625q0 0.25 0.03125 0.328125q0.03125 0.078125 0.09375 0.125q0.078125 0.03125 0.203125 0.03125q0.109375 0 0.265625 -0.015625zm0.5680542 1.84375l0 -4.78125l0.53125 0l0 0.453125q0.1875 -0.265625 0.421875 -0.390625q0.25 -0.140625 0.578125 -0.140625q0.453125 0 0.78125 0.234375q0.34375 0.21875 0.515625 0.640625q0.171875 0.40625 0.171875 0.90625q0 0.53125 -0.1875 0.953125q-0.1875 0.421875 -0.5625 0.65625q-0.359375 0.21875 -0.75 0.21875q-0.296875 0 -0.53125 -0.125q-0.234375 -0.125 -0.375 -0.3125l0 1.6875l-0.59375 0zm0.53125 -3.03125q0 0.65625 0.265625 0.984375q0.28125 0.3125 0.65625 0.3125q0.390625 0 0.671875 -0.328125q0.28125 -0.328125 0.28125 -1.015625q0 -0.671875 -0.28125 -1.0q-0.265625 -0.328125 -0.640625 -0.328125q-0.375 0 -0.671875 0.359375q-0.28125 0.34375 -0.28125 1.015625zm2.6394043 3.03125l0 -0.421875l3.875 0l0 0.421875l-3.875 0zm4.123749 -1.046875l0.578125 0.09375q0.03125 0.265625 0.1875 0.375q0.21875 0.171875 0.59375 0.171875q0.40625 0 0.625 -0.171875q0.234375 -0.15625 0.3125 -0.453125q0.046875 -0.171875 0.03125 -0.75q-0.375 0.453125 -0.953125 0.453125q-0.703125 0 -1.09375 -0.515625q-0.390625 -0.515625 -0.390625 -1.234375q0 -0.484375 0.171875 -0.90625q0.1875 -0.421875 0.515625 -0.640625q0.34375 -0.234375 0.796875 -0.234375q0.625 0 1.015625 0.5l0 -0.421875l0.53125 0l0 2.984375q0 0.8125 -0.171875 1.140625q-0.15625 0.34375 -0.515625 0.53125q-0.34375 0.203125 -0.859375 0.203125q-0.625 0 -1.015625 -0.28125q-0.375 -0.28125 -0.359375 -0.84375zm0.484375 -2.0625q0 0.671875 0.265625 0.984375q0.28125 0.3125 0.6875 0.3125q0.40625 0 0.671875 -0.3125q0.265625 -0.3125 0.265625 -0.96875q0 -0.640625 -0.28125 -0.953125q-0.28125 -0.328125 -0.671875 -0.328125q-0.390625 0 -0.671875 0.328125q-0.265625 0.3125 -0.265625 0.9375zm3.3269043 1.78125l0 -3.453125l0.53125 0l0 0.5q0.375 -0.578125 1.09375 -0.578125q0.3125 0 0.578125 0.109375q0.265625 0.109375 0.390625 0.296875q0.125 0.1875 0.1875 0.4375q0.03125 0.15625 0.03125 0.5625l0 2.125l-0.59375 0l0 -2.09375q0 -0.359375 -0.078125 -0.53125q-0.0625 -0.1875 -0.234375 -0.28125q-0.171875 -0.109375 -0.40625 -0.109375q-0.375 0 -0.640625 0.234375q-0.265625 0.234375 -0.265625 0.890625l0 1.890625l-0.59375 0zm4.983124 -0.515625l0.078125 0.515625q-0.25 0.046875 -0.4375 0.046875q-0.3125 0 -0.5 -0.09375q-0.171875 -0.109375 -0.25 -0.265625q-0.0625 -0.171875 -0.0625 -0.703125l0 -1.984375l-0.4375 0l0 -0.453125l0.4375 0l0 -0.859375l0.578125 -0.34375l0 1.203125l0.59375 0l0 0.453125l-0.59375 0l0 2.015625q0 0.25 0.03125 0.328125q0.03125 0.078125 0.09375 0.125q0.078125 0.03125 0.203125 0.03125q0.109375 0 0.265625 -0.015625zm0.036834717 1.84375l0 -0.421875l3.875 0l0 0.421875l-3.875 0zm4.233124 -5.421875l0 -0.671875l0.59375 0l0 0.671875l-0.59375 0zm0 4.09375l0 -3.453125l0.59375 0l0 3.453125l-0.59375 0z" fill-rule="nonzero"/><path fill="#000000" fill-opacity="0.0" d="m189.98425 112.0l79.3071 -34.267715" fill-rule="evenodd"/><path stroke="#000000" stroke-width="1.0" stroke-linejoin="round" stroke-linecap="butt" d="m189.98425 112.0l73.799255 -31.88784" fill-rule="evenodd"/><path fill="#000000" stroke="#000000" stroke-width="1.0" stroke-linecap="butt" d="m264.43866 81.6284l3.5106812 -3.3162613l-4.820984 0.2837677z" fill-rule="evenodd"/><path fill="#000000" fill-opacity="0.0" d="m168.0 88.0l40.0 0l0 16.0l-40.0 0z" fill-rule="evenodd"/><path fill="#000000" d="m171.19786 92.68125q0 -0.96875 0.53125 -1.421875q0.453125 -0.390625 1.09375 -0.390625q0.703125 0 1.15625 0.46875q0.453125 0.46875 0.453125 1.28125q0 0.671875 -0.203125 1.0625q-0.1875 0.375 -0.578125 0.59375q-0.375 0.203125 -0.828125 0.203125q-0.734375 0 -1.1875 -0.453125q-0.4375 -0.46875 -0.4375 -1.34375zm0.609375 0q0 0.65625 0.28125 0.984375q0.296875 0.328125 0.734375 0.328125q0.4375 0 0.71875 -0.328125q0.296875 -0.328125 0.296875 -1.015625q0 -0.640625 -0.296875 -0.96875q-0.296875 -0.328125 -0.71875 -0.328125q-0.4375 0 -0.734375 0.328125q-0.28125 0.328125 -0.28125 1.0zm4.592514 1.203125l0.078125 0.515625q-0.25 0.046875 -0.4375 0.046875q-0.3125 0 -0.5 -0.09375q-0.171875 -0.109375 -0.25 -0.265625q-0.0625 -0.171875 -0.0625 -0.703125l0 -1.984375l-0.4375 0l0 -0.453125l0.4375 0l0 -0.859375l0.578125 -0.34375l0 1.203125l0.59375 0l0 0.453125l-0.59375 0l0 2.015625q0 0.25 0.03125 0.328125q0.03125 0.078125 0.09375 0.125q0.078125 0.03125 0.203125 0.03125q0.109375 0 0.265625 -0.015625zm0.56806946 1.84375l0 -4.78125l0.53125 0l0 0.453125q0.1875 -0.265625 0.421875 -0.390625q0.25 -0.140625 0.578125 -0.140625q0.453125 0 0.78125 0.234375q0.34375 0.21875 0.515625 0.640625q0.171875 0.40625 0.171875 0.90625q0 0.53125 -0.1875 0.953125q-0.1875 0.421875 -0.5625 0.65625q-0.359375 0.21875 -0.75 0.21875q-0.296875 0 -0.53125 -0.125q-0.234375 -0.125 -0.375 -0.3125l0 1.6875l-0.59375 0zm0.53125 -3.03125q0 0.65625 0.265625 0.984375q0.28125 0.3125 0.65625 0.3125q0.390625 0 0.671875 -0.328125q0.28125 -0.328125 0.28125 -1.015625q0 -0.671875 -0.28125 -1.0q-0.265625 -0.328125 -0.640625 -0.328125q-0.375 0 -0.671875 0.359375q-0.28125 0.34375 -0.28125 1.015625zm2.639389 3.03125l0 -0.421875l3.875 0l0 0.421875l-3.875 0zm4.233139 -1.328125l0 -3.453125l0.515625 0l0 0.53125q0.203125 -0.375 0.375 -0.484375q0.171875 -0.125 0.375 -0.125q0.296875 0 0.609375 0.1875l-0.203125 0.546875q-0.21875 -0.125 -0.4375 -0.125q-0.1875 0 -0.34375 0.125q-0.140625 0.109375 -0.21875 0.3125q-0.09375 0.3125 -0.09375 0.671875l0 1.8125l-0.578125 0zm3.1697083 0l-1.3125 -3.453125l0.625 0l0.734375 2.0625q0.125 0.34375 0.234375 0.703125q0.0625 -0.28125 0.203125 -0.65625l0.78125 -2.109375l0.59375 0l-1.3125 3.453125l-0.546875 0zm4.625 -0.421875q-0.328125 0.265625 -0.625 0.390625q-0.296875 0.109375 -0.640625 0.109375q-0.578125 0 -0.890625 -0.28125q-0.296875 -0.28125 -0.296875 -0.703125q0 -0.25 0.109375 -0.453125q0.125 -0.21875 0.3125 -0.34375q0.1875 -0.140625 0.421875 -0.203125q0.171875 -0.046875 0.515625 -0.078125q0.71875 -0.09375 1.046875 -0.203125q0 -0.125 0 -0.15625q0 -0.359375 -0.15625 -0.5q-0.234375 -0.203125 -0.671875 -0.203125q-0.40625 0 -0.609375 0.15625q-0.203125 0.140625 -0.296875 0.5l-0.5625 -0.078125q0.078125 -0.359375 0.25 -0.578125q0.1875 -0.234375 0.515625 -0.359375q0.34375 -0.125 0.78125 -0.125q0.453125 0 0.71875 0.109375q0.28125 0.09375 0.40625 0.265625q0.140625 0.15625 0.1875 0.390625q0.03125 0.15625 0.03125 0.546875l0 0.765625q0 0.828125 0.03125 1.046875q0.046875 0.203125 0.15625 0.40625l-0.609375 0q-0.09375 -0.1875 -0.125 -0.421875zm-0.046875 -1.3125q-0.3125 0.125 -0.953125 0.21875q-0.359375 0.0625 -0.515625 0.125q-0.140625 0.0625 -0.234375 0.1875q-0.078125 0.125 -0.078125 0.28125q0 0.234375 0.171875 0.390625q0.1875 0.15625 0.53125 0.15625q0.328125 0 0.59375 -0.140625q0.265625 -0.15625 0.390625 -0.421875q0.09375 -0.1875 0.09375 -0.578125l0 -0.21875zm1.483139 1.734375l0 -4.765625l0.59375 0l0 4.765625l-0.59375 0zm1.4944305 -4.09375l0 -0.671875l0.59375 0l0 0.671875l-0.59375 0zm0 4.09375l0 -3.453125l0.59375 0l0 3.453125l-0.59375 0zm3.7131805 0l0 -0.4375q-0.328125 0.515625 -0.953125 0.515625q-0.421875 0 -0.765625 -0.21875q-0.34375 -0.234375 -0.53125 -0.640625q-0.1875 -0.40625 -0.1875 -0.9375q0 -0.515625 0.171875 -0.9375q0.171875 -0.421875 0.515625 -0.640625q0.34375 -0.234375 0.765625 -0.234375q0.3125 0 0.546875 0.140625q0.25 0.125 0.40625 0.328125l0 -1.703125l0.578125 0l0 4.765625l-0.546875 0zm-1.84375 -1.71875q0 0.65625 0.28125 0.984375q0.28125 0.328125 0.65625 0.328125q0.390625 0 0.65625 -0.3125q0.265625 -0.3125 0.265625 -0.953125q0 -0.703125 -0.28125 -1.03125q-0.265625 -0.34375 -0.671875 -0.34375q-0.375 0 -0.640625 0.328125q-0.265625 0.3125 -0.265625 1.0zm2.780014 3.046875l0 -0.421875l3.875 0l0 0.421875l-3.875 0zm4.233139 -5.421875l0 -0.671875l0.59375 0l0 0.671875l-0.59375 0zm0 4.09375l0 -3.453125l0.59375 0l0 3.453125l-0.59375 0z" fill-rule="nonzero"/><path fill="#000000" d="m175.8746 103.80625q-0.484375 -0.609375 -0.828125 -1.421875q-0.328125 -0.828125 -0.328125 -1.703125q0 -0.78125 0.25 -1.484375q0.296875 -0.828125 0.90625 -1.640625l0.40625 0q-0.390625 0.671875 -0.515625 0.96875q-0.203125 0.4375 -0.3125 0.9375q-0.140625 0.59375 -0.140625 1.21875q0 1.5625 0.96875 3.125l-0.40625 0zm1.2322083 -1.40625l0 -3.0l-0.515625 0l0 -0.453125l0.515625 0l0 -0.359375q0 -0.359375 0.0625 -0.515625q0.078125 -0.234375 0.296875 -0.375q0.21875 -0.140625 0.59375 -0.140625q0.25 0 0.546875 0.0625l-0.078125 0.5q-0.1875 -0.03125 -0.359375 -0.03125q-0.265625 0 -0.375 0.125q-0.109375 0.109375 -0.109375 0.421875l0 0.3125l0.671875 0l0 0.453125l-0.671875 0l0 3.0l-0.578125 0zm1.7087097 -4.09375l0 -0.671875l0.59375 0l0 0.671875l-0.59375 0zm0 4.09375l0 -3.453125l0.59375 0l0 3.453125l-0.59375 0zm1.4787903 0l0 -3.453125l0.53125 0l0 0.5q0.375 -0.578125 1.09375 -0.578125q0.3125 0 0.578125 0.109375q0.265625 0.109375 0.390625 0.296875q0.125 0.1875 0.1875 0.4375q0.03125 0.15625 0.03125 0.5625l0 2.125l-0.59375 0l0 -2.09375q0 -0.359375 -0.078125 -0.53125q-0.0625 -0.1875 -0.234375 -0.28125q-0.171875 -0.109375 -0.40625 -0.109375q-0.375 0 -0.640625 0.234375q-0.265625 0.234375 -0.265625 0.890625l0 1.890625l-0.59375 0zm3.7019043 -4.09375l0 -0.671875l0.59375 0l0 0.671875l-0.59375 0zm0 4.09375l0 -3.453125l0.59375 0l0 3.453125l-0.59375 0zm1.2444153 -1.03125l0.578125 -0.09375q0.046875 0.34375 0.265625 0.53125q0.234375 0.1875 0.625 0.1875q0.40625 0 0.59375 -0.15625q0.203125 -0.171875 0.203125 -0.390625q0 -0.203125 -0.171875 -0.3125q-0.125 -0.078125 -0.59375 -0.203125q-0.640625 -0.15625 -0.890625 -0.265625q-0.25 -0.125 -0.390625 -0.328125q-0.125 -0.21875 -0.125 -0.46875q0 -0.234375 0.109375 -0.421875q0.109375 -0.203125 0.296875 -0.34375q0.125 -0.09375 0.359375 -0.15625q0.234375 -0.078125 0.515625 -0.078125q0.40625 0 0.703125 0.125q0.3125 0.109375 0.453125 0.3125q0.15625 0.203125 0.203125 0.53125l-0.5625 0.078125q-0.046875 -0.265625 -0.234375 -0.40625q-0.1875 -0.15625 -0.53125 -0.15625q-0.390625 0 -0.5625 0.140625q-0.171875 0.125 -0.171875 0.296875q0 0.125 0.0625 0.203125q0.078125 0.109375 0.21875 0.15625q0.09375 0.046875 0.53125 0.15625q0.609375 0.171875 0.859375 0.28125q0.25 0.09375 0.390625 0.296875q0.140625 0.203125 0.140625 0.5q0 0.296875 -0.171875 0.5625q-0.171875 0.25 -0.5 0.390625q-0.3125 0.140625 -0.71875 0.140625q-0.6875 0 -1.046875 -0.28125q-0.34375 -0.28125 -0.4375 -0.828125zm3.5625 1.03125l0 -4.765625l0.59375 0l0 1.703125q0.40625 -0.46875 1.03125 -0.46875q0.375 0 0.65625 0.15625q0.28125 0.140625 0.40625 0.421875q0.125 0.265625 0.125 0.765625l0 2.1875l-0.578125 0l0 -2.1875q0 -0.4375 -0.203125 -0.640625q-0.1875 -0.203125 -0.53125 -0.203125q-0.265625 0 -0.5 0.140625q-0.21875 0.140625 -0.3125 0.375q-0.09375 0.21875 -0.09375 0.625l0 1.890625l-0.59375 0zm6.0612793 -1.109375l0.609375 0.078125q-0.140625 0.53125 -0.53125 0.828125q-0.390625 0.28125 -0.984375 0.28125q-0.765625 0 -1.203125 -0.46875q-0.4375 -0.46875 -0.4375 -1.3125q0 -0.859375 0.4375 -1.34375q0.453125 -0.484375 1.171875 -0.484375q0.6875 0 1.125 0.46875q0.4375 0.46875 0.4375 1.328125q0 0.046875 0 0.15625l-2.578125 0q0.03125 0.578125 0.3125 0.875q0.296875 0.296875 0.734375 0.296875q0.328125 0 0.546875 -0.15625q0.234375 -0.171875 0.359375 -0.546875zm-1.921875 -0.953125l1.9375 0q-0.046875 -0.4375 -0.21875 -0.640625q-0.28125 -0.34375 -0.734375 -0.34375q-0.40625 0 -0.6875 0.265625q-0.265625 0.265625 -0.296875 0.71875zm5.498749 2.0625l0 -0.4375q-0.328125 0.515625 -0.953125 0.515625q-0.421875 0 -0.765625 -0.21875q-0.34375 -0.234375 -0.53125 -0.640625q-0.1875 -0.40625 -0.1875 -0.9375q0 -0.515625 0.171875 -0.9375q0.171875 -0.421875 0.515625 -0.640625q0.34375 -0.234375 0.765625 -0.234375q0.3125 0 0.546875 0.140625q0.25 0.125 0.40625 0.328125l0 -1.703125l0.578125 0l0 4.765625l-0.546875 0zm-1.84375 -1.71875q0 0.65625 0.28125 0.984375q0.28125 0.328125 0.65625 0.328125q0.390625 0 0.65625 -0.3125q0.265625 -0.3125 0.265625 -0.953125q0 -0.703125 -0.28125 -1.03125q-0.265625 -0.34375 -0.671875 -0.34375q-0.375 0 -0.640625 0.328125q-0.265625 0.3125 -0.265625 1.0zm3.7019043 3.125l-0.421875 0q0.96875 -1.5625 0.96875 -3.125q0 -0.609375 -0.140625 -1.21875q-0.109375 -0.484375 -0.3125 -0.9375q-0.125 -0.28125 -0.515625 -0.96875l0.421875 0q0.609375 0.8125 0.890625 1.640625q0.25 0.703125 0.25 1.484375q0 0.875 -0.34375 1.703125q-0.328125 0.8125 -0.796875 1.421875z" fill-rule="nonzero"/><path fill="#000000" fill-opacity="0.0" d="m216.0 48.0l40.0 0l0 16.0l-40.0 0z" fill-rule="evenodd"/><path fill="#000000" d="m225.13583 58.4l0 -4.765625l0.59375 0l0 4.765625l-0.59375 0zm3.7444153 -1.265625l0.578125 0.078125q-0.09375 0.59375 -0.484375 0.9375q-0.390625 0.328125 -0.953125 0.328125q-0.703125 0 -1.140625 -0.453125q-0.421875 -0.46875 -0.421875 -1.34375q0 -0.546875 0.171875 -0.96875q0.1875 -0.421875 0.5625 -0.625q0.390625 -0.21875 0.828125 -0.21875q0.5625 0 0.921875 0.296875q0.359375 0.28125 0.46875 0.796875l-0.578125 0.09375q-0.078125 -0.359375 -0.296875 -0.53125q-0.203125 -0.171875 -0.484375 -0.171875q-0.453125 0 -0.734375 0.3125q-0.265625 0.3125 -0.265625 1.0q0 0.703125 0.265625 1.015625q0.265625 0.3125 0.703125 0.3125q0.34375 0 0.5625 -0.203125q0.234375 -0.21875 0.296875 -0.65625zm1.078125 -2.828125l0 -0.671875l0.59375 0l0 0.671875l-0.59375 0zm0 4.09375l0 -3.453125l0.59375 0l0 3.453125l-0.59375 0zm0.9475708 1.328125l0 -0.421875l3.875 0l0 0.421875l-3.875 0zm6.592499 -2.4375l0.609375 0.078125q-0.140625 0.53125 -0.53125 0.828125q-0.390625 0.28125 -0.984375 0.28125q-0.765625 0 -1.203125 -0.46875q-0.4375 -0.46875 -0.4375 -1.3125q0 -0.859375 0.4375 -1.34375q0.453125 -0.484375 1.171875 -0.484375q0.6875 0 1.125 0.46875q0.4375 0.46875 0.4375 1.328125q0 0.046875 0 0.15625l-2.578125 0q0.03125 0.578125 0.3125 0.875q0.296875 0.296875 0.734375 0.296875q0.328125 0 0.546875 -0.15625q0.234375 -0.171875 0.359375 -0.546875zm-1.921875 -0.953125l1.9375 0q-0.046875 -0.4375 -0.21875 -0.640625q-0.28125 -0.34375 -0.734375 -0.34375q-0.40625 0 -0.6875 0.265625q-0.265625 0.265625 -0.296875 0.71875zm3.2644043 2.0625l0 -3.453125l0.53125 0l0 0.5q0.375 -0.578125 1.09375 -0.578125q0.3125 0 0.578125 0.109375q0.265625 0.109375 0.390625 0.296875q0.125 0.1875 0.1875 0.4375q0.03125 0.15625 0.03125 0.5625l0 2.125l-0.59375 0l0 -2.09375q0 -0.359375 -0.078125 -0.53125q-0.0625 -0.1875 -0.234375 -0.28125q-0.171875 -0.109375 -0.40625 -0.109375q-0.375 0 -0.640625 0.234375q-0.265625 0.234375 -0.265625 0.890625l0 1.890625l-0.59375 0zm3.1706238 1.328125l0 -0.421875l3.875 0l0 0.421875l-3.875 0zm4.2331543 -5.421875l0 -0.671875l0.59375 0l0 0.671875l-0.59375 0zm0 4.09375l0 -3.453125l0.59375 0l0 3.453125l-0.59375 0z" fill-rule="nonzero"/><path fill="#000000" fill-opacity="0.0" d="m352.0 104.0l13.291351 13.102364" fill-rule="evenodd"/><path stroke="#ff0000" stroke-width="1.0" stroke-linejoin="round" stroke-linecap="butt" d="m352.0 104.0l9.018402 8.890205" fill-rule="evenodd"/><path fill="#ff0000" stroke="#ff0000" stroke-width="1.0" stroke-linecap="butt" d="m359.8589 114.06649l4.3913574 2.009575l-2.0722656 -4.3621445z" fill-rule="evenodd"/><path fill="#000000" fill-opacity="0.0" d="m336.0 88.0l56.0 0l0 16.0l-56.0 0z" fill-rule="evenodd"/><path fill="#ff0000" d="m338.79688 97.29063l0.609375 0.078125q-0.140625 0.53125 -0.53125 0.828125q-0.390625 0.28125 -0.984375 0.28125q-0.765625 0 -1.203125 -0.46875q-0.4375 -0.46875 -0.4375 -1.3125q0 -0.859375 0.4375 -1.34375q0.453125 -0.484375 1.171875 -0.484375q0.6875 0 1.125 0.46875q0.4375 0.46875 0.4375 1.328125q0 0.046875 0 0.15625l-2.578125 0q0.03125 0.578125 0.3125 0.875q0.296875 0.296875 0.734375 0.296875q0.328125 0 0.546875 -0.15625q0.234375 -0.171875 0.359375 -0.546875zm-1.921875 -0.953125l1.9375 0q-0.046875 -0.4375 -0.21875 -0.640625q-0.28125 -0.34375 -0.734375 -0.34375q-0.40625 0 -0.6875 0.265625q-0.265625 0.265625 -0.296875 0.71875zm3.0300293 1.03125l0.578125 -0.09375q0.046875 0.34375 0.265625 0.53125q0.234375 0.1875 0.625 0.1875q0.40625 0 0.59375 -0.15625q0.203125 -0.171875 0.203125 -0.390625q0 -0.203125 -0.171875 -0.3125q-0.125 -0.078125 -0.59375 -0.203125q-0.640625 -0.15625 -0.890625 -0.265625q-0.25 -0.125 -0.390625 -0.328125q-0.125 -0.21875 -0.125 -0.46875q0 -0.234375 0.109375 -0.421875q0.109375 -0.203125 0.296875 -0.34375q0.125 -0.09375 0.359375 -0.15625q0.234375 -0.078125 0.515625 -0.078125q0.40625 0 0.703125 0.125q0.3125 0.109375 0.453125 0.3125q0.15625 0.203125 0.203125 0.53125l-0.5625 0.078125q-0.046875 -0.265625 -0.234375 -0.40625q-0.1875 -0.15625 -0.53125 -0.15625q-0.390625 0 -0.5625 0.140625q-0.171875 0.125 -0.171875 0.296875q0 0.125 0.0625 0.203125q0.078125 0.109375 0.21875 0.15625q0.09375 0.046875 0.53125 0.15625q0.609375 0.171875 0.859375 0.28125q0.25 0.09375 0.390625 0.296875q0.140625 0.203125 0.140625 0.5q0 0.296875 -0.171875 0.5625q-0.171875 0.25 -0.5 0.390625q-0.3125 0.140625 -0.71875 0.140625q-0.6875 0 -1.046875 -0.28125q-0.34375 -0.28125 -0.4375 -0.828125zm5.8125 -0.234375l0.578125 0.078125q-0.09375 0.59375 -0.484375 0.9375q-0.390625 0.328125 -0.953125 0.328125q-0.703125 0 -1.140625 -0.453125q-0.421875 -0.46875 -0.421875 -1.34375q0 -0.546875 0.171875 -0.96875q0.1875 -0.421875 0.5625 -0.625q0.390625 -0.21875 0.828125 -0.21875q0.5625 0 0.921875 0.296875q0.359375 0.28125 0.46875 0.796875l-0.578125 0.09375q-0.078125 -0.359375 -0.296875 -0.53125q-0.203125 -0.171875 -0.484375 -0.171875q-0.453125 0 -0.734375 0.3125q-0.265625 0.3125 -0.265625 1.0q0 0.703125 0.265625 1.015625q0.265625 0.3125 0.703125 0.3125q0.34375 0 0.5625 -0.203125q0.234375 -0.21875 0.296875 -0.65625zm3.328125 0.84375q-0.328125 0.265625 -0.625 0.390625q-0.296875 0.109375 -0.640625 0.109375q-0.578125 0 -0.890625 -0.28125q-0.296875 -0.28125 -0.296875 -0.703125q0 -0.25 0.109375 -0.453125q0.125 -0.21875 0.3125 -0.34375q0.1875 -0.140625 0.421875 -0.203125q0.171875 -0.046875 0.515625 -0.078125q0.71875 -0.09375 1.046875 -0.203125q0 -0.125 0 -0.15625q0 -0.359375 -0.15625 -0.5q-0.234375 -0.203125 -0.671875 -0.203125q-0.40625 0 -0.609375 0.15625q-0.203125 0.140625 -0.296875 0.5l-0.5625 -0.078125q0.078125 -0.359375 0.25 -0.578125q0.1875 -0.234375 0.515625 -0.359375q0.34375 -0.125 0.78125 -0.125q0.453125 0 0.71875 0.109375q0.28125 0.09375 0.40625 0.265625q0.140625 0.15625 0.1875 0.390625q0.03125 0.15625 0.03125 0.546875l0 0.765625q0 0.828125 0.03125 1.046875q0.046875 0.203125 0.15625 0.40625l-0.609375 0q-0.09375 -0.1875 -0.125 -0.421875zm-0.046875 -1.3125q-0.3125 0.125 -0.953125 0.21875q-0.359375 0.0625 -0.515625 0.125q-0.140625 0.0625 -0.234375 0.1875q-0.078125 0.125 -0.078125 0.28125q0 0.234375 0.171875 0.390625q0.1875 0.15625 0.53125 0.15625q0.328125 0 0.59375 -0.140625q0.265625 -0.15625 0.390625 -0.421875q0.09375 -0.1875 0.09375 -0.578125l0 -0.21875zm1.4831238 1.734375l0 -4.765625l0.59375 0l0 4.765625l-0.59375 0zm3.7444153 -0.421875q-0.328125 0.265625 -0.625 0.390625q-0.296875 0.109375 -0.640625 0.109375q-0.578125 0 -0.890625 -0.28125q-0.296875 -0.28125 -0.296875 -0.703125q0 -0.25 0.109375 -0.453125q0.125 -0.21875 0.3125 -0.34375q0.1875 -0.140625 0.421875 -0.203125q0.171875 -0.046875 0.515625 -0.078125q0.71875 -0.09375 1.046875 -0.203125q0 -0.125 0 -0.15625q0 -0.359375 -0.15625 -0.5q-0.234375 -0.203125 -0.671875 -0.203125q-0.40625 0 -0.609375 0.15625q-0.203125 0.140625 -0.296875 0.5l-0.5625 -0.078125q0.078125 -0.359375 0.25 -0.578125q0.1875 -0.234375 0.515625 -0.359375q0.34375 -0.125 0.78125 -0.125q0.453125 0 0.71875 0.109375q0.28125 0.09375 0.40625 0.265625q0.140625 0.15625 0.1875 0.390625q0.03125 0.15625 0.03125 0.546875l0 0.765625q0 0.828125 0.03125 1.046875q0.046875 0.203125 0.15625 0.40625l-0.609375 0q-0.09375 -0.1875 -0.125 -0.421875zm-0.046875 -1.3125q-0.3125 0.125 -0.953125 0.21875q-0.359375 0.0625 -0.515625 0.125q-0.140625 0.0625 -0.234375 0.1875q-0.078125 0.125 -0.078125 0.28125q0 0.234375 0.171875 0.390625q0.1875 0.15625 0.53125 0.15625q0.328125 0 0.59375 -0.140625q0.265625 -0.15625 0.390625 -0.421875q0.09375 -0.1875 0.09375 -0.578125l0 -0.21875zm2.7800293 1.21875l0.078125 0.515625q-0.25 0.046875 -0.4375 0.046875q-0.3125 0 -0.5 -0.09375q-0.171875 -0.109375 -0.25 -0.265625q-0.0625 -0.171875 -0.0625 -0.703125l0 -1.984375l-0.4375 0l0 -0.453125l0.4375 0l0 -0.859375l0.578125 -0.34375l0 1.203125l0.59375 0l0 0.453125l-0.59375 0l0 2.015625q0 0.25 0.03125 0.328125q0.03125 0.078125 0.09375 0.125q0.078125 0.03125 0.203125 0.03125q0.109375 0 0.265625 -0.015625zm2.9274292 -0.59375l0.609375 0.078125q-0.140625 0.53125 -0.53125 0.828125q-0.390625 0.28125 -0.984375 0.28125q-0.765625 0 -1.203125 -0.46875q-0.4375 -0.46875 -0.4375 -1.3125q0 -0.859375 0.4375 -1.34375q0.453125 -0.484375 1.171875 -0.484375q0.6875 0 1.125 0.46875q0.4375 0.46875 0.4375 1.328125q0 0.046875 0 0.15625l-2.578125 0q0.03125 0.578125 0.3125 0.875q0.296875 0.296875 0.734375 0.296875q0.328125 0 0.546875 -0.15625q0.234375 -0.171875 0.359375 -0.546875zm-1.921875 -0.953125l1.9375 0q-0.046875 -0.4375 -0.21875 -0.640625q-0.28125 -0.34375 -0.734375 -0.34375q-0.40625 0 -0.6875 0.265625q-0.265625 0.265625 -0.296875 0.71875zm2.7331543 3.390625l0 -0.421875l3.875 0l0 0.421875l-3.875 0zm4.2331543 -5.421875l0 -0.671875l0.59375 0l0 0.671875l-0.59375 0zm0 4.09375l0 -3.453125l0.59375 0l0 3.453125l-0.59375 0z" fill-rule="nonzero"/></g></svg>