<?xml version="1.0" encoding="UTF-8" standalone="no"?>
<!DOCTYPE svg PUBLIC "-//W3C//DTD SVG 1.1//EN" "http://www.w3.org/Graphics/SVG/1.1/DTD/svg11.dtd">
<!-- Generated by Microsoft Visio, SVG Export csrng_blk_diag.svg Page-1 -->
<svg xmlns="http://www.w3.org/2000/svg" xmlns:xlink="http://www.w3.org/1999/xlink" xmlns:ev="http://www.w3.org/2001/xml-events"
		xmlns:v="http://schemas.microsoft.com/visio/2003/SVGExtensions/" width="11in" height="8.5in" viewBox="0 0 792 612"
		xml:space="preserve" color-interpolation-filters="sRGB" class="st13">
	<v:documentProperties v:langID="1033" v:viewMarkup="false">
		<v:userDefs>
			<v:ud v:nameU="msvSubprocessMaster" v:prompt="" v:val="VT4(Rectangle)"/>
			<v:ud v:nameU="msvNoAutoConnect" v:val="VT0(1):26"/>
		</v:userDefs>
	</v:documentProperties>

	<style type="text/css">
	<![CDATA[
		.st1 {fill:#ffffff;stroke:#000000;stroke-width:0.75}
		.st2 {fill:#000000;font-family:Arial;font-size:0.833336em}
		.st3 {font-size:1em}
		.st4 {fill:none;stroke:none;stroke-width:0.75}
		.st5 {marker-end:url(#mrkr13-21);marker-start:url(#mrkr13-19);stroke:#000000;stroke-linecap:round;stroke-linejoin:round;stroke-width:2.25}
		.st6 {fill:#000000;fill-opacity:1;stroke:#000000;stroke-opacity:1;stroke-width:0.47169811320755}
		.st7 {fill:none;stroke:none;stroke-width:0.25}
		.st8 {stroke:#000000;stroke-linecap:round;stroke-linejoin:round;stroke-width:0.75}
		.st9 {marker-end:url(#mrkr5-59);stroke:#000000;stroke-width:0.75}
		.st10 {fill:#000000;fill-opacity:1;stroke:#000000;stroke-opacity:1;stroke-width:0.22935779816514}
		.st11 {marker-end:url(#mrkr5-59);stroke:#000000;stroke-linecap:round;stroke-linejoin:round;stroke-width:0.75}
		.st12 {font-size:1em;text-decoration:underline}
		.st13 {fill:none;fill-rule:evenodd;font-size:12px;overflow:visible;stroke-linecap:square;stroke-miterlimit:3}
	]]>
	</style>

	<defs id="Markers">
		<g id="lend13">
			<path d="M 3 1 L 0 0 L 3 -1 L 3 1 " style="stroke:none"/>
		</g>
		<marker id="mrkr13-19" class="st6" v:arrowType="13" v:arrowSize="2" v:setback="6.2" refX="6.2" orient="auto"
				markerUnits="strokeWidth" overflow="visible">
			<use xlink:href="#lend13" transform="scale(2.12) "/>
		</marker>
		<marker id="mrkr13-21" class="st6" v:arrowType="13" v:arrowSize="2" v:setback="6.36" refX="-6.36" orient="auto"
				markerUnits="strokeWidth" overflow="visible">
			<use xlink:href="#lend13" transform="scale(-2.12,-2.12) "/>
		</marker>
		<g id="lend5">
			<path d="M 2 1 L 0 0 L 1.98117 -0.993387 C 1.67173 -0.364515 1.67301 0.372641 1.98465 1.00043 " style="stroke:none"/>
		</g>
		<marker id="mrkr5-59" class="st10" v:arrowType="5" v:arrowSize="2" v:setback="7.63" refX="-7.63" orient="auto"
				markerUnits="strokeWidth" overflow="visible">
			<use xlink:href="#lend5" transform="scale(-4.36,-4.36) "/>
		</marker>
	</defs>
	<g v:mID="0" v:index="1" v:groupContext="foregroundPage">
		<v:userDefs>
			<v:ud v:nameU="msvThemeOrder" v:val="VT0(0):26"/>
		</v:userDefs>
		<title>Page-1</title>
		<v:pageProperties v:drawingScale="1" v:pageScale="1" v:drawingUnits="0" v:shadowOffsetX="9" v:shadowOffsetY="-9"/>
		<v:layer v:name="Flowchart" v:index="0"/>
		<v:layer v:name="Connector" v:index="1"/>
		<g id="shape480-1" v:mID="480" v:groupContext="shape" transform="translate(73.8258,-297)">
			<title>Sheet.480</title>
			<desc>CSRNG Registers</desc>
			<v:textBlock v:margins="rect(4,4,4,4)" v:verticalAlign="0"/>
			<v:textRect cx="71.7998" cy="490.5" width="143.6" height="243"/>
			<rect x="0" y="369" width="143.6" height="243" class="st1"/>
			<text x="53.74" y="382" class="st2" v:langID="1033"><v:paragraph v:horizAlign="1"/><v:tabList/>CSRNG<v:newlineChar/><tspan
						x="50.68" dy="1.2em" class="st3">Registers</tspan></text>		</g>
		<g id="shape484-5" v:mID="484" v:groupContext="shape" transform="translate(118.18,-291.255)">
			<title>Sheet.484</title>
			<v:textBlock v:margins="rect(4,4,4,4)" v:verticalAlign="0"/>
			<rect x="0" y="551.545" width="99.2459" height="60.4551" class="st4"/>
		</g>
		<g id="shape490-7" v:mID="490" v:groupContext="shape" transform="translate(118.18,-438.75)">
			<title>Sheet.490</title>
			<desc>cs_cntl.q cs_cmd_req.q</desc>
			<v:textBlock v:margins="rect(4,4,4,4)" v:verticalAlign="0"/>
			<v:textRect cx="49.6229" cy="561.375" width="99.25" height="101.25"/>
			<rect x="0" y="510.75" width="99.2459" height="101.25" class="st4"/>
			<text x="55.78" y="571.75" class="st2" v:langID="1033"><v:paragraph v:horizAlign="2"/><v:tabList/><v:space/><v:newlineChar/><v:newlineChar/><v:newlineChar/><v:space/><v:space/><v:newlineChar/>cs_cntl.q<tspan
						x="29.66" dy="1.2em" class="st3"> </tspan>cs_cmd_req.q<tspan dy="1.2em" class="st3"> </tspan><tspan
						x="95.25" dy="1.2em" class="st3"> </tspan><v:newlineChar/> <v:newlineChar/> </text>		</g>
		<g id="shape491-13" v:mID="491" v:groupContext="shape" transform="translate(18,-441)">
			<title>Sheet.491</title>
			<path d="M13.95 612 L14.31 612 L41.52 612" class="st5"/>
		</g>
		<g id="shape492-22" v:mID="492" v:groupContext="shape" transform="translate(73.8258,-392.772)">
			<title>Sheet.492</title>
			<desc>TLUL Interface</desc>
			<v:textBlock v:margins="rect(4,4,4,4)" v:verticalAlign="0"/>
			<v:textRect cx="49.6229" cy="581.772" width="99.25" height="60.4551"/>
			<rect x="0" y="551.545" width="99.2459" height="60.4551" class="st4"/>
			<text x="6.78" y="564.55" class="st2" v:langID="1033"><v:paragraph/><v:tabList/>TLUL Interface<v:newlineChar/></text>		</g>
		<g id="shape589-25" v:mID="589" v:groupContext="shape" transform="translate(118.18,-330.75)">
			<title>Sheet.589</title>
			<desc>cs_cmd_status.d cs_genbits.d</desc>
			<v:textBlock v:margins="rect(4,4,4,4)" v:verticalAlign="0"/>
			<v:textRect cx="49.6229" cy="561.375" width="99.25" height="101.25"/>
			<rect x="0" y="510.75" width="99.2459" height="101.25" class="st4"/>
			<text x="20.21" y="571.75" class="st2" v:langID="1033"><v:paragraph v:horizAlign="2"/><v:tabList/><v:space/><v:newlineChar/><v:newlineChar/><v:newlineChar/><v:space/><v:newlineChar/>cs_cmd_status.d<tspan
						x="36.32" dy="1.2em" class="st3"> </tspan>cs_genbits.d<tspan dy="1.2em" class="st3"> </tspan><tspan
						x="95.25" dy="1.2em" class="st3"> </tspan><v:newlineChar/> <v:newlineChar/> </text>		</g>
		<g id="shape591-31" v:mID="591" v:groupContext="shape" transform="translate(230.625,-477)">
			<title>Sheet.591</title>
		</g>
		<g id="shape769-32" v:mID="769" v:groupContext="shape" transform="translate(69.2254,-235.36)">
			<title>Sheet.769</title>
			<desc>CSRNG application interface SW</desc>
			<v:textBlock v:margins="rect(4,4,4,4)" v:verticalAlign="0"/>
			<v:textRect cx="71.7998" cy="599.18" width="143.6" height="25.6401"/>
			<rect x="0" y="586.36" width="143.6" height="25.6401" class="st7"/>
			<text x="11.76" y="599.36" class="st2" v:langID="1033"><v:paragraph v:horizAlign="2"/><v:tabList/>CSRNG application interface <tspan
						x="123.49" dy="1.2em" class="st3">SW</tspan></text>		</g>
		<g id="shape957-36" v:mID="957" v:groupContext="shape" transform="translate(260.574,-333)">
			<title>Sheet.957</title>
			<rect x="0" y="551.545" width="13.2734" height="60.4551" class="st1"/>
		</g>
		<g id="shape958-38" v:mID="958" v:groupContext="shape" transform="translate(243,-395.573)">
			<title>Sheet.958</title>
			<desc>128 to 32 unpacker</desc>
			<v:textBlock v:margins="rect(4,4,4,4)"/>
			<v:textRect cx="30.3325" cy="599.18" width="60.67" height="25.6401"/>
			<rect x="0" y="586.36" width="60.665" height="25.6401" class="st4"/>
			<text x="9.48" y="596.18" class="st2" v:langID="1033"><v:paragraph v:horizAlign="1"/><v:tabList/>128 to 32 <v:newlineChar/><tspan
						x="9.76" dy="1.2em" class="st3">unpacker</tspan></text>		</g>
		<g id="shape974-42" v:mID="974" v:groupContext="shape" transform="translate(252,-243)">
			<title>Sheet.974</title>
			<desc>Cmd Stage</desc>
			<v:textBlock v:margins="rect(4,4,4,4)"/>
			<v:textRect cx="26.0234" cy="594.75" width="52.05" height="34.5"/>
			<rect x="0" y="577.5" width="52.0468" height="34.5" class="st1"/>
			<text x="15.47" y="591.75" class="st2" v:langID="1033"><v:paragraph v:horizAlign="1"/><v:tabList/>Cmd <v:newlineChar/><tspan
						x="12.96" dy="1.2em" class="st3">Stage</tspan></text>		</g>
		<g id="shape995-46" v:mID="995" v:groupContext="shape" transform="translate(797.036,611.871) rotate(120.964)">
			<title>Sheet.995</title>
			<path d="M0 612 L13.12 612" class="st8"/>
		</g>
		<g id="shape996-49" v:mID="996" v:groupContext="shape" transform="translate(220.5,-70.09)">
			<title>Sheet.996</title>
			<v:textBlock v:margins="rect(4,4,4,4)"/>
			<rect x="0" y="590.18" width="48.3116" height="21.82" class="st4"/>
		</g>
		<g id="shape998-51" v:mID="998" v:groupContext="shape" transform="translate(247.5,-308.59)">
			<title>Sheet.998</title>
			<desc>128 bit</desc>
			<v:textBlock v:margins="rect(4,4,4,4)"/>
			<v:textRect cx="24.1558" cy="601.09" width="48.32" height="21.82"/>
			<rect x="0" y="590.18" width="48.3116" height="21.82" class="st4"/>
			<text x="9.14" y="604.09" class="st2" v:langID="1033"><v:paragraph v:horizAlign="1"/><v:tabList/>128 bit</text>		</g>
		<g id="shape1000-54" v:mID="1000" v:groupContext="shape" transform="translate(217.425,-252)">
			<title>Sheet.1000</title>
			<path d="M0 396 L15.82 396 L15.82 612 L28.85 612" class="st9"/>
		</g>
		<g id="shape1001-60" v:mID="1001" v:groupContext="shape" transform="translate(260.574,864) rotate(180)">
			<title>Sheet.1001</title>
			<path d="M0 612 L37.43 612" class="st11"/>
		</g>
		<g id="shape1002-65" v:mID="1002" v:groupContext="shape" transform="translate(242.25,-270)">
			<title>Sheet.1002</title>
			<path d="M9.75 612 L0 612 L0 571.5 L54.75 571.5 L54.75 522 L37.32 522" class="st9"/>
		</g>
		<g id="shape1003-70" v:mID="1003" v:groupContext="shape" transform="translate(251.703,-174)">
			<title>Sheet.1003</title>
			<desc>Cmd Stage</desc>
			<v:textBlock v:margins="rect(4,4,4,4)"/>
			<v:textRect cx="26.0234" cy="594.75" width="52.05" height="34.5"/>
			<rect x="0" y="577.5" width="52.0468" height="34.5" class="st1"/>
			<text x="15.47" y="591.75" class="st2" v:langID="1033"><v:paragraph v:horizAlign="1"/><v:tabList/>Cmd <v:newlineChar/><tspan
						x="12.96" dy="1.2em" class="st3">Stage</tspan></text>		</g>
		<g id="shape1004-74" v:mID="1004" v:groupContext="shape" transform="translate(252,-108)">
			<title>Sheet.1004</title>
			<desc>Cmd Stage</desc>
			<v:textBlock v:margins="rect(4,4,4,4)"/>
			<v:textRect cx="26.0234" cy="594.75" width="52.05" height="34.5"/>
			<rect x="0" y="577.5" width="52.0468" height="34.5" class="st1"/>
			<text x="15.47" y="591.75" class="st2" v:langID="1033"><v:paragraph v:horizAlign="1"/><v:tabList/>Cmd <v:newlineChar/><tspan
						x="12.96" dy="1.2em" class="st3">Stage</tspan></text>		</g>
		<g id="shape1005-78" v:mID="1005" v:groupContext="shape" transform="translate(63,-180)">
			<title>Sheet.1005</title>
			<desc>CSRNG application interface HW1</desc>
			<v:textBlock v:margins="rect(4,4,4,4)" v:verticalAlign="0"/>
			<v:textRect cx="74.9125" cy="599.18" width="149.83" height="25.6401"/>
			<rect x="0" y="586.36" width="149.825" height="25.6401" class="st7"/>
			<text x="17.99" y="599.36" class="st2" v:langID="1033"><v:paragraph v:horizAlign="2"/><v:tabList/>CSRNG application interface <tspan
						x="123.6" dy="1.2em" class="st3">HW1</tspan></text>		</g>
		<g id="shape1006-82" v:mID="1006" v:groupContext="shape" transform="translate(63,-117)">
			<title>Sheet.1006</title>
			<desc>CSRNG application interface HW0</desc>
			<v:textBlock v:margins="rect(4,4,4,4)" v:verticalAlign="0"/>
			<v:textRect cx="74.9125" cy="599.18" width="149.83" height="25.6401"/>
			<rect x="0" y="586.36" width="149.825" height="25.6401" class="st7"/>
			<text x="17.99" y="599.36" class="st2" v:langID="1033"><v:paragraph v:horizAlign="2"/><v:tabList/>CSRNG application interface <tspan
						x="123.6" dy="1.2em" class="st3">HW0</tspan></text>		</g>
		<g id="shape1007-86" v:mID="1007" v:groupContext="shape" transform="translate(251.703,1026) rotate(180)">
			<title>Sheet.1007</title>
			<path d="M0 612 L29.98 612" class="st11"/>
		</g>
		<g id="shape1008-91" v:mID="1008" v:groupContext="shape" transform="translate(216,-180)">
			<title>Sheet.1008</title>
			<path d="M0 612 L29.98 612" class="st11"/>
		</g>
		<g id="shape1009-96" v:mID="1009" v:groupContext="shape" transform="translate(252,1089) rotate(180)">
			<title>Sheet.1009</title>
			<path d="M0 612 L30.28 612" class="st11"/>
		</g>
		<g id="shape1011-101" v:mID="1011" v:groupContext="shape" transform="translate(216,-117)">
			<title>Sheet.1011</title>
			<path d="M0 612 L30.28 612" class="st11"/>
		</g>
		<g id="shape1012-106" v:mID="1012" v:groupContext="shape" transform="translate(215.175,-109.36)">
			<title>Sheet.1012</title>
			<desc>cmd</desc>
			<v:textBlock v:margins="rect(4,4,4,4)"/>
			<v:textRect cx="17.2873" cy="599.18" width="34.58" height="25.6401"/>
			<rect x="0" y="586.36" width="34.5746" height="25.6401" class="st4"/>
			<text x="7.84" y="602.18" class="st2" v:langID="1033"><v:paragraph v:horizAlign="1"/><v:tabList/>cmd</text>		</g>
		<g id="shape1013-109" v:mID="1013" v:groupContext="shape" transform="translate(215.175,-173.18)">
			<title>Sheet.1013</title>
			<desc>cmd</desc>
			<v:textBlock v:margins="rect(4,4,4,4)"/>
			<v:textRect cx="17.2873" cy="599.18" width="34.58" height="25.6401"/>
			<rect x="0" y="586.36" width="34.5746" height="25.6401" class="st4"/>
			<text x="7.84" y="602.18" class="st2" v:langID="1033"><v:paragraph v:horizAlign="1"/><v:tabList/>cmd</text>		</g>
		<g id="shape1014-112" v:mID="1014" v:groupContext="shape" transform="translate(215.175,-232.43)">
			<title>Sheet.1014</title>
			<desc>cmd</desc>
			<v:textBlock v:margins="rect(4,4,4,4)"/>
			<v:textRect cx="17.2873" cy="599.18" width="34.58" height="25.6401"/>
			<rect x="0" y="586.36" width="34.5746" height="25.6401" class="st4"/>
			<text x="7.84" y="602.18" class="st2" v:langID="1033"><v:paragraph v:horizAlign="1"/><v:tabList/>cmd</text>		</g>
		<g id="shape1015-115" v:mID="1015" v:groupContext="shape" transform="translate(210.346,-135)">
			<title>Sheet.1015</title>
			<desc>genbits</desc>
			<v:textBlock v:margins="rect(4,4,4,4)"/>
			<v:textRect cx="20.8268" cy="599.18" width="41.66" height="25.6401"/>
			<rect x="0" y="586.36" width="41.6536" height="25.6401" class="st4"/>
			<text x="4.7" y="602.18" class="st2" v:langID="1033"><v:paragraph v:horizAlign="1"/><v:tabList/>genbits</text>		</g>
		<g id="shape1016-118" v:mID="1016" v:groupContext="shape" transform="translate(208.307,-194.18)">
			<title>Sheet.1016</title>
			<desc>genbits</desc>
			<v:textBlock v:margins="rect(4,4,4,4)"/>
			<v:textRect cx="24.1558" cy="599.18" width="48.32" height="25.6401"/>
			<rect x="0" y="586.36" width="48.3116" height="25.6401" class="st4"/>
			<text x="8.03" y="602.18" class="st2" v:langID="1033"><v:paragraph v:horizAlign="1"/><v:tabList/>genbits</text>		</g>
		<g id="shape1017-121" v:mID="1017" v:groupContext="shape" transform="translate(270,-288.68)">
			<title>Sheet.1017</title>
			<desc>genbits</desc>
			<v:textBlock v:margins="rect(4,4,4,4)"/>
			<v:textRect cx="24.1558" cy="599.18" width="48.32" height="25.6401"/>
			<rect x="0" y="586.36" width="48.3116" height="25.6401" class="st4"/>
			<text x="8.03" y="602.18" class="st2" v:langID="1033"><v:paragraph v:horizAlign="1"/><v:tabList/>genbits</text>		</g>
		<g id="shape1018-124" v:mID="1018" v:groupContext="shape" transform="translate(63.4004,-554.18)">
			<title>Sheet.1018</title>
			<desc>Entropy Bus</desc>
			<v:textBlock v:margins="rect(4,4,4,4)" v:verticalAlign="0"/>
			<v:textRect cx="71.7998" cy="599.18" width="143.6" height="25.6401"/>
			<rect x="0" y="586.36" width="143.6" height="25.6401" class="st7"/>
			<text x="85.13" y="599.36" class="st2" v:langID="1033"><v:paragraph v:horizAlign="2"/><v:tabList/>Entropy Bus</text>		</g>
		<g id="shape1019-127" v:mID="1019" v:groupContext="shape" transform="translate(365.262,-225.894)">
			<title>Sheet.1019</title>
			<rect x="0" y="551.545" width="13.2734" height="60.4551" class="st1"/>
		</g>
		<g id="shape1020-129" v:mID="1020" v:groupContext="shape" transform="translate(347.688,-288.466)">
			<title>Sheet.1020</title>
			<desc>Cmd arb</desc>
			<v:textBlock v:margins="rect(4,4,4,4)"/>
			<v:textRect cx="24.1558" cy="599.18" width="48.32" height="25.6401"/>
			<rect x="0" y="586.36" width="48.3116" height="25.6401" class="st4"/>
			<text x="13.6" y="596.18" class="st2" v:langID="1033"><v:paragraph v:horizAlign="1"/><v:tabList/>Cmd <v:newlineChar/><tspan
						x="16.93" dy="1.2em" class="st3">arb</tspan></text>		</g>
		<g id="shape1021-133" v:mID="1021" v:groupContext="shape" transform="translate(431.574,-344.697)">
			<title>Sheet.1021</title>
			<rect x="0" y="551.545" width="13.2734" height="60.4551" class="st1"/>
		</g>
		<g id="shape1022-135" v:mID="1022" v:groupContext="shape" transform="translate(414,-407.269)">
			<title>Sheet.1022</title>
			<desc>32 to 384 packer</desc>
			<v:textBlock v:margins="rect(4,4,4,4)"/>
			<v:textRect cx="30.3325" cy="599.18" width="60.67" height="25.6401"/>
			<rect x="0" y="586.36" width="60.665" height="25.6401" class="st4"/>
			<text x="9.48" y="596.18" class="st2" v:langID="1033"><v:paragraph v:horizAlign="1"/><v:tabList/>32 to 384 <v:newlineChar/><tspan
						x="15.33" dy="1.2em" class="st3">packer</tspan></text>		</g>
		<g id="shape1023-139" v:mID="1023" v:groupContext="shape" transform="translate(497.335,-497.25)">
			<title>Sheet.1023</title>
			<desc>Main Cmd Disp SM</desc>
			<v:textBlock v:margins="rect(4,4,4,4)"/>
			<v:textRect cx="30.3325" cy="587.25" width="60.67" height="49.5"/>
			<rect x="0" y="562.5" width="60.665" height="49.5" class="st1"/>
			<text x="7.55" y="578.25" class="st2" v:langID="1033"><v:paragraph v:horizAlign="1"/><v:tabList/>Main Cmd<v:newlineChar/><tspan
						x="11.44" dy="1.2em" class="st3">Disp SM</tspan><v:newlineChar/></text>		</g>
		<g id="shape1025-143" v:mID="1025" v:groupContext="shape" transform="translate(420.189,-465.303)">
			<title>Sheet.1025</title>
			<desc>cmd</desc>
			<v:textBlock v:margins="rect(4,4,4,4)"/>
			<v:textRect cx="17.2873" cy="603" width="34.58" height="18"/>
			<rect x="0" y="594" width="34.5746" height="18" class="st1"/>
			<text x="7.84" y="606" class="st2" v:langID="1033"><v:paragraph v:horizAlign="1"/><v:tabList/>cmd</text>		</g>
		<g id="shape1026-146" v:mID="1026" v:groupContext="shape" transform="translate(420.189,-438.633)">
			<title>Sheet.1026</title>
			<desc>shid</desc>
			<v:textBlock v:margins="rect(4,4,4,4)"/>
			<v:textRect cx="17.2873" cy="603" width="34.58" height="18"/>
			<rect x="0" y="594" width="34.5746" height="18" class="st1"/>
			<text x="8.11" y="606" class="st2" v:langID="1033"><v:paragraph v:horizAlign="1"/><v:tabList/>shid</text>		</g>
		<g id="shape1027-149" v:mID="1027" v:groupContext="shape" transform="translate(553.173,-261)">
			<title>Sheet.1027</title>
			<desc>Ctr_drbg cmd</desc>
			<v:textBlock v:margins="rect(4,4,4,4)"/>
			<v:textRect cx="30.3325" cy="587.25" width="60.67" height="49.5"/>
			<rect x="0" y="562.5" width="60.665" height="49.5" class="st1"/>
			<text x="10.88" y="584.25" class="st2" v:langID="1033"><v:paragraph v:horizAlign="1"/><v:tabList/>Ctr_drbg <tspan
						x="20.89" dy="1.2em" class="st3">cmd</tspan></text>		</g>
		<g id="shape1028-153" v:mID="1028" v:groupContext="shape" transform="translate(553.173,-128.25)">
			<title>Sheet.1028</title>
			<desc>Ctr_drbg gen</desc>
			<v:textBlock v:margins="rect(4,4,4,4)"/>
			<v:textRect cx="30.3325" cy="587.25" width="60.67" height="49.5"/>
			<rect x="0" y="562.5" width="60.665" height="49.5" class="st1"/>
			<text x="10.88" y="584.25" class="st2" v:langID="1033"><v:paragraph v:horizAlign="1"/><v:tabList/>Ctr_drbg <tspan
						x="21.99" dy="1.2em" class="st3">gen</tspan></text>		</g>
		<g id="shape1029-157" v:mID="1029" v:groupContext="shape" transform="translate(713.335,-261)">
			<title>Sheet.1029</title>
			<desc>Ctr_drbg update</desc>
			<v:textBlock v:margins="rect(4,4,4,4)"/>
			<v:textRect cx="30.3325" cy="587.25" width="60.67" height="49.5"/>
			<rect x="0" y="562.5" width="60.665" height="49.5" class="st1"/>
			<text x="10.88" y="584.25" class="st2" v:langID="1033"><v:paragraph v:horizAlign="1"/><v:tabList/>Ctr_drbg <tspan
						x="15.04" dy="1.2em" class="st3">update</tspan></text>		</g>
		<g id="shape1030-161" v:mID="1030" v:groupContext="shape" transform="translate(713.335,-128.25)">
			<title>Sheet.1030</title>
			<desc>Block Encrypt</desc>
			<v:textBlock v:margins="rect(4,4,4,4)"/>
			<v:textRect cx="30.3325" cy="587.25" width="60.67" height="49.5"/>
			<rect x="0" y="562.5" width="60.665" height="49.5" class="st1"/>
			<text x="18.11" y="584.25" class="st2" v:langID="1033"><v:paragraph v:horizAlign="1"/><v:tabList/>Block <tspan
						x="13.38" dy="1.2em" class="st3">Encrypt</tspan></text>		</g>
		<g id="shape1031-165" v:mID="1031" v:groupContext="shape" transform="translate(423,-184.875)">
			<title>Sheet.1031</title>
			<desc>State DB: - Key,V, Status, Reseed Counter - Per Instance</desc>
			<v:textBlock v:margins="rect(4,4,4,4)"/>
			<v:textRect cx="45" cy="568.125" width="90" height="87.75"/>
			<rect x="0" y="524.25" width="90" height="87.75" class="st1"/>
			<text x="4" y="553.13" class="st2" v:langID="1033"><v:paragraph/><v:tabList/><tspan class="st12">State DB</tspan>:<v:newlineChar/><tspan
						x="4" dy="1.2em" class="st3">-</tspan> Key,V, Status,<v:newlineChar/><tspan x="4" dy="1.2em" class="st3">Reseed Counter<v:newlineChar/></tspan><tspan
						x="4" dy="1.2em" class="st3">-</tspan> Per Instance</text>		</g>
		<g id="shape1032-172" v:mID="1032" v:groupContext="shape" transform="translate(656.418,-276.709)">
			<title>Sheet.1032</title>
			<rect x="0" y="586.36" width="13.2734" height="25.6401" class="st1"/>
		</g>
		<g id="shape1033-174" v:mID="1033" v:groupContext="shape" transform="translate(638.844,-304.466)">
			<title>Sheet.1033</title>
			<desc>Update Arb</desc>
			<v:textBlock v:margins="rect(4,4,4,4)"/>
			<v:textRect cx="24.1558" cy="599.18" width="48.32" height="25.6401"/>
			<rect x="0" y="586.36" width="48.3116" height="25.6401" class="st4"/>
			<text x="8.03" y="596.18" class="st2" v:langID="1033"><v:paragraph v:horizAlign="1"/><v:tabList/>Update<v:newlineChar/><tspan
						x="16.38" dy="1.2em" class="st3">Arb</tspan></text>		</g>
		<g id="shape1034-178" v:mID="1034" v:groupContext="shape" transform="translate(657.762,-144.602)">
			<title>Sheet.1034</title>
			<rect x="0" y="586.36" width="13.2734" height="25.6401" class="st1"/>
		</g>
		<g id="shape1035-180" v:mID="1035" v:groupContext="shape" transform="translate(640.188,-172.36)">
			<title>Sheet.1035</title>
			<desc>Blk Enc Arb</desc>
			<v:textBlock v:margins="rect(4,4,4,4)"/>
			<v:textRect cx="24.1558" cy="599.18" width="48.32" height="25.6401"/>
			<rect x="0" y="586.36" width="48.3116" height="25.6401" class="st4"/>
			<text x="7.2" y="596.18" class="st2" v:langID="1033"><v:paragraph v:horizAlign="1"/><v:tabList/>Blk Enc<v:newlineChar/><tspan
						x="16.38" dy="1.2em" class="st3">Arb</tspan></text>		</g>
		<g id="shape1036-184" v:mID="1036" v:groupContext="shape" transform="translate(455.262,-117)">
			<title>Sheet.1036</title>
			<rect x="0" y="586.36" width="13.2734" height="25.6401" class="st1"/>
		</g>
		<g id="shape1037-186" v:mID="1037" v:groupContext="shape" transform="translate(437.688,-144.758)">
			<title>Sheet.1037</title>
			<desc>Time Slice Arb</desc>
			<v:textBlock v:margins="rect(4,4,4,4)"/>
			<v:textRect cx="24.1558" cy="599.18" width="48.32" height="25.6401"/>
			<rect x="0" y="586.36" width="48.3116" height="25.6401" class="st4"/>
			<text x="13.04" y="596.18" class="st2" v:langID="1033"><v:paragraph v:horizAlign="1"/><v:tabList/>Time <tspan x="4.15"
						dy="1.2em" class="st3">Slice Arb</tspan></text>		</g>
		<g id="shape1038-190" v:mID="1038" v:groupContext="shape" transform="translate(1197,351) rotate(90)">
			<title>Sheet.1038</title>
			<path d="M0 612 L77.53 612" class="st11"/>
		</g>
		<g id="shape1039-195" v:mID="1039" v:groupContext="shape" transform="translate(468.536,-135)">
			<title>Sheet.1039</title>
			<path d="M116.46 524.25 L53.46 524.25 L53.46 612 L5.72 612" class="st9"/>
		</g>
		<g id="shape1040-200" v:mID="1040" v:groupContext="shape" transform="translate(468.536,-99)">
			<title>Sheet.1040</title>
			<path d="M102.96 582.75 L102.96 612 L53.46 612 L53.46 585 L5.72 585" class="st9"/>
		</g>
		<g id="shape1041-205" v:mID="1041" v:groupContext="shape" transform="translate(378.536,-256.5)">
			<title>Sheet.1041</title>
			<path d="M0 612 L17.46 612 L17.46 391.5 L35.93 391.5" class="st9"/>
		</g>
		<g id="shape1042-210" v:mID="1042" v:groupContext="shape" transform="translate(396,-450)">
			<title>Sheet.1042</title>
			<path d="M0 612 L18.47 612" class="st11"/>
		</g>
		<g id="shape1043-215" v:mID="1043" v:groupContext="shape" transform="translate(396,-378)">
			<title>Sheet.1043</title>
			<path d="M0 612 L29.85 612" class="st11"/>
		</g>
		<g id="shape1044-220" v:mID="1044" v:groupContext="shape" transform="translate(444.847,-310.5)">
			<title>Sheet.1044</title>
			<path d="M0 544.5 L122.15 544.5 L122.15 606.28" class="st9"/>
		</g>
		<g id="shape1045-225" v:mID="1045" v:groupContext="shape" transform="translate(436.5,-483.303)">
			<title>Sheet.1045</title>
			<path d="M0 612 L0 573.3 L55.11 573.3" class="st9"/>
		</g>
		<g id="shape1046-230" v:mID="1046" v:groupContext="shape" transform="translate(454.764,-310.5)">
			<title>Sheet.1046</title>
			<path d="M0 472.5 L121.24 472.5 L121.24 606.28" class="st9"/>
		</g>
		<g id="shape1048-235" v:mID="1048" v:groupContext="shape" transform="translate(558,-310.5)">
			<title>Sheet.1048</title>
			<path d="M0 400.5 L36 400.5 L36 606.28" class="st9"/>
		</g>
		<g id="shape1049-240" v:mID="1049" v:groupContext="shape" transform="translate(217.425,-310.5)">
			<title>Sheet.1049</title>
			<path d="M0 355.5 L385.57 355.5 L385.57 606.28" class="st9"/>
		</g>
		<g id="shape1051-245" v:mID="1051" v:groupContext="shape" transform="translate(454.764,-310.5)">
			<title>Sheet.1051</title>
			<path d="M0 445.5 L130.24 445.5 L130.24 606.28" class="st9"/>
		</g>
		<g id="shape1052-250" v:mID="1052" v:groupContext="shape" transform="translate(585,-310.5)">
			<title>Sheet.1052</title>
		</g>
		<g id="shape1058-251" v:mID="1058" v:groupContext="shape" transform="translate(554.688,-519.75)">
			<title>Sheet.1058</title>
			<desc>request</desc>
			<v:textBlock v:margins="rect(4,4,4,4)"/>
			<v:textRect cx="24.1558" cy="603" width="48.32" height="18"/>
			<rect x="0" y="594" width="48.3116" height="18" class="st4"/>
			<text x="7.48" y="606" class="st2" v:langID="1033"><v:paragraph v:horizAlign="1"/><v:tabList/>request</text>		</g>
		<g id="shape1059-254" v:mID="1059" v:groupContext="shape" transform="translate(496.168,-474.75)">
			<title>Sheet.1059</title>
			<desc>command</desc>
			<v:textBlock v:margins="rect(4,4,4,4)"/>
			<v:textRect cx="30.3325" cy="603" width="60.67" height="18"/>
			<rect x="0" y="594" width="60.665" height="18" class="st4"/>
			<text x="8.38" y="606" class="st2" v:langID="1033"><v:paragraph v:horizAlign="1"/><v:tabList/>command</text>		</g>
		<g id="shape1060-257" v:mID="1060" v:groupContext="shape" transform="translate(490.5,-447.303)">
			<title>Sheet.1060</title>
			<desc>state handle id</desc>
			<v:textBlock v:margins="rect(4,4,4,4)"/>
			<v:textRect cx="45" cy="603" width="90" height="18"/>
			<rect x="0" y="594" width="90" height="18" class="st4"/>
			<text x="12.48" y="606" class="st2" v:langID="1033"><v:paragraph v:horizAlign="1"/><v:tabList/>state handle id</text>		</g>
		<g id="shape1061-260" v:mID="1061" v:groupContext="shape" transform="translate(490.5,-375.75)">
			<title>Sheet.1061</title>
			<desc>additional data</desc>
			<v:textBlock v:margins="rect(4,4,4,4)"/>
			<v:textRect cx="42.75" cy="603" width="85.51" height="18"/>
			<rect x="0" y="594" width="85.5" height="18" class="st4"/>
			<text x="10.22" y="606" class="st2" v:langID="1033"><v:paragraph v:horizAlign="1"/><v:tabList/>additional data</text>		</g>
		<g id="shape1062-263" v:mID="1062" v:groupContext="shape" transform="translate(304.047,-270)">
			<title>Sheet.1062</title>
			<path d="M0 612 L55.49 612" class="st11"/>
		</g>
		<g id="shape1063-268" v:mID="1063" v:groupContext="shape" transform="translate(304.047,-207)">
			<title>Sheet.1063</title>
			<path d="M118.95 612 L37.95 612 L37.95 553.5 L5.72 553.5" class="st9"/>
		</g>
		<g id="shape1064-273" v:mID="1064" v:groupContext="shape" transform="translate(303.75,-202.5)">
			<title>Sheet.1064</title>
			<path d="M0 612 L13.5 612 L13.5 553.5 L55.79 553.5" class="st9"/>
		</g>
		<g id="shape1065-278" v:mID="1065" v:groupContext="shape" transform="translate(304.047,-135)">
			<title>Sheet.1065</title>
			<path d="M0 612 L19.95 612 L19.95 495 L55.49 495" class="st9"/>
		</g>
		<g id="shape1066-283" v:mID="1066" v:groupContext="shape" transform="translate(303.75,-198)">
			<title>Sheet.1066</title>
			<path d="M38.25 603 L38.25 612 L5.72 612" class="st9"/>
		</g>
		<g id="shape1067-288" v:mID="1067" v:groupContext="shape" transform="translate(304.047,-130.5)">
			<title>Sheet.1067</title>
			<path d="M37.95 544.5 L37.95 612 L5.72 612" class="st9"/>
		</g>
		<g id="shape1068-293" v:mID="1068" v:groupContext="shape" transform="translate(306,-271.044)">
			<title>Sheet.1068</title>
			<desc>cmd, req</desc>
			<v:textBlock v:margins="rect(4,4,4,4)"/>
			<v:textRect cx="25.5925" cy="604.348" width="51.19" height="15.305"/>
			<rect x="0" y="596.695" width="51.1849" height="15.305" class="st4"/>
			<text x="6.14" y="607.35" class="st2" v:langID="1033"><v:paragraph v:horizAlign="1"/><v:tabList/>cmd, req</text>		</g>
		<g id="shape1069-296" v:mID="1069" v:groupContext="shape" transform="translate(374.688,-202.5)">
			<title>Sheet.1069</title>
			<desc>cmd ack</desc>
			<v:textBlock v:margins="rect(4,4,4,4)"/>
			<v:textRect cx="24.1558" cy="601.424" width="48.32" height="21.1525"/>
			<rect x="0" y="590.848" width="48.3116" height="21.1525" class="st4"/>
			<text x="5.54" y="604.42" class="st2" v:langID="1033"><v:paragraph v:horizAlign="1"/><v:tabList/>cmd ack</text>		</g>
		<g id="shape1070-299" v:mID="1070" v:groupContext="shape" transform="translate(436.5,-130.5)">
			<title>Sheet.1070</title>
			<path d="M18.76 612 L0 612 L0 563.35" class="st9"/>
		</g>
		<g id="shape1071-304" v:mID="1071" v:groupContext="shape" transform="translate(465.75,-105.973)">
			<title>Sheet.1071</title>
			<desc>K,V,RC,S</desc>
			<v:textBlock v:margins="rect(4,4,4,4)"/>
			<v:textRect cx="30.7562" cy="604.348" width="61.52" height="15.305"/>
			<rect x="0" y="596.695" width="61.5123" height="15.305" class="st4"/>
			<text x="9.36" y="607.35" class="st2" v:langID="1033"><v:paragraph v:horizAlign="1"/><v:tabList/>K,V,RC,S</text>		</g>
		<g id="shape1072-307" v:mID="1072" v:groupContext="shape" transform="translate(304.047,-72)">
			<title>Sheet.1072</title>
			<path d="M289.95 555.75 L289.95 612 L46.95 612 L46.95 427.5 L5.72 427.5" class="st9"/>
		</g>
		<g id="shape1073-312" v:mID="1073" v:groupContext="shape" transform="translate(351,1037.25) rotate(180)">
			<title>Sheet.1073</title>
			<path d="M0 612 L41.53 612" class="st11"/>
		</g>
		<g id="shape1074-317" v:mID="1074" v:groupContext="shape" transform="translate(351,1102.5) rotate(180)">
			<title>Sheet.1074</title>
			<path d="M0 612 L41.23 612" class="st11"/>
		</g>
		<g id="shape1076-322" v:mID="1076" v:groupContext="shape" transform="translate(969.283,848.801) rotate(120.964)">
			<title>Sheet.1076</title>
			<path d="M0 612 L13.12 612" class="st8"/>
		</g>
		<g id="shape1077-325" v:mID="1077" v:groupContext="shape" transform="translate(418.267,-70.09)">
			<title>Sheet.1077</title>
			<desc>128 bit</desc>
			<v:textBlock v:margins="rect(4,4,4,4)"/>
			<v:textRect cx="30.7562" cy="601.09" width="61.52" height="21.82"/>
			<rect x="0" y="590.18" width="61.5123" height="21.82" class="st4"/>
			<text x="15.74" y="604.09" class="st2" v:langID="1033"><v:paragraph v:horizAlign="1"/><v:tabList/>128 bit</text>		</g>
		<g id="shape1078-328" v:mID="1078" v:groupContext="shape" transform="translate(442.247,-51.75)">
			<title>Sheet.1078</title>
			<desc>genbits</desc>
			<v:textBlock v:margins="rect(4,4,4,4)"/>
			<v:textRect cx="24.1558" cy="599.18" width="48.32" height="25.6401"/>
			<rect x="0" y="586.36" width="48.3116" height="25.6401" class="st4"/>
			<text x="8.03" y="602.18" class="st2" v:langID="1033"><v:paragraph v:horizAlign="1"/><v:tabList/>genbits</text>		</g>
		<g id="shape1079-331" v:mID="1079" v:groupContext="shape" transform="translate(520.344,-229.498)">
			<title>Sheet.1079</title>
			<desc>id != GEN</desc>
			<v:textBlock v:margins="rect(4,4,4,4)"/>
			<v:textRect cx="30.3325" cy="604.348" width="60.67" height="15.305"/>
			<rect x="0" y="596.695" width="60.665" height="15.305" class="st4"/>
			<text x="8.52" y="607.35" class="st2" v:langID="1033"><v:paragraph v:horizAlign="1"/><v:tabList/>id != GEN</text>		</g>
		<g id="shape1080-334" v:mID="1080" v:groupContext="shape" transform="translate(613.838,-297)">
			<title>Sheet.1080</title>
			<path d="M0 612 L36.86 612" class="st11"/>
		</g>
		<g id="shape1082-339" v:mID="1082" v:groupContext="shape" transform="translate(613.838,-166.5)">
			<title>Sheet.1082</title>
			<path d="M0 612 L4.45 612 L19.15 612 L19.15 495 L37.44 495" class="st9"/>
		</g>
		<g id="shape1083-344" v:mID="1083" v:groupContext="shape" transform="translate(669.692,-292.5)">
			<title>Sheet.1083</title>
			<path d="M0 612 L37.92 612" class="st11"/>
		</g>
		<g id="shape1084-349" v:mID="1084" v:groupContext="shape" transform="translate(613.838,-148.5)">
			<title>Sheet.1084</title>
			<path d="M0 612 L38.2 612" class="st11"/>
		</g>
		<g id="shape1086-354" v:mID="1086" v:groupContext="shape" transform="translate(671.036,-162)">
			<title>Sheet.1086</title>
			<path d="M0 612 L36.58 612" class="st11"/>
		</g>
		<g id="shape1088-359" v:mID="1088" v:groupContext="shape" transform="translate(148.5,434.25) rotate(-90)">
			<title>Sheet.1088</title>
			<path d="M0 612 L77.53 612" class="st11"/>
		</g>
		<g id="shape1089-364" v:mID="1089" v:groupContext="shape" transform="translate(713.335,958.5) rotate(180)">
			<title>Sheet.1089</title>
			<path d="M0 612 L93.77 612" class="st11"/>
		</g>
		<g id="shape1090-369" v:mID="1090" v:groupContext="shape" transform="translate(613.838,-135)">
			<title>Sheet.1090</title>
			<path d="M146.66 558 L79.16 558 L79.16 612 L5.72 612" class="st9"/>
		</g>
		<g id="shape1091-374" v:mID="1091" v:groupContext="shape" transform="translate(613.838,-157.5)">
			<title>Sheet.1091</title>
			<path d="M11.66 504 L11.66 612 L5.72 612" class="st9"/>
		</g>
		<g id="shape1092-379" v:mID="1092" v:groupContext="shape" transform="translate(13.5,427.5) rotate(-90)">
			<title>Sheet.1092</title>
			<desc>id == GENG</desc>
			<v:textBlock v:margins="rect(4,4,4,4)"/>
			<v:textRect cx="33.75" cy="604.348" width="67.5" height="15.305"/>
			<rect x="0" y="596.695" width="67.5" height="15.305" class="st4"/>
			<text x="6.52" y="607.35" class="st2" v:langID="1033"><v:paragraph v:horizAlign="1"/><v:tabList/>id == GENG</text>		</g>
		<g id="shape1093-382" v:mID="1093" v:groupContext="shape" transform="translate(627.118,-117.448)">
			<title>Sheet.1093</title>
			<desc>id == GENG</desc>
			<v:textBlock v:margins="rect(4,4,4,4)"/>
			<v:textRect cx="36" cy="604.348" width="72" height="15.305"/>
			<rect x="0" y="596.695" width="72" height="15.305" class="st4"/>
			<text x="8.77" y="607.35" class="st2" v:langID="1033"><v:paragraph v:horizAlign="1"/><v:tabList/>id == GENG</text>		</g>
		<g id="shape1094-385" v:mID="1094" v:groupContext="shape" transform="translate(641.25,-164.25)">
			<title>Sheet.1094</title>
			<path d="M90 515.25 L90 564.75 L0 564.75 L0 612 L10.79 612" class="st9"/>
		</g>
		<g id="shape1095-390" v:mID="1095" v:groupContext="shape" transform="translate(867.029,354.416) rotate(120.964)">
			<title>Sheet.1095</title>
			<path d="M0 612 L13.12 612" class="st8"/>
		</g>
		<g id="shape1096-393" v:mID="1096" v:groupContext="shape" transform="translate(317.494,-566.045)">
			<title>Sheet.1096</title>
			<desc>384 bit</desc>
			<v:textBlock v:margins="rect(4,4,4,4)"/>
			<v:textRect cx="24.1558" cy="601.09" width="48.32" height="21.82"/>
			<rect x="0" y="590.18" width="48.3116" height="21.82" class="st4"/>
			<text x="9.14" y="604.09" class="st2" v:langID="1033"><v:paragraph v:horizAlign="1"/><v:tabList/>384 bit</text>		</g>
		<g id="shape1097-396" v:mID="1097" v:groupContext="shape" transform="translate(339.994,-546.135)">
			<title>Sheet.1097</title>
			<desc>entropy</desc>
			<v:textBlock v:margins="rect(4,4,4,4)"/>
			<v:textRect cx="20.8268" cy="599.18" width="41.66" height="25.6401"/>
			<rect x="0" y="586.36" width="41.6536" height="25.6401" class="st4"/>
			<text x="4.15" y="602.18" class="st2" v:langID="1033"><v:paragraph v:horizAlign="1"/><v:tabList/>entropy</text>		</g>
		<g id="shape1098-399" v:mID="1098" v:groupContext="shape" transform="translate(990.536,544.031) rotate(120.964)">
			<title>Sheet.1098</title>
			<path d="M0 612 L13.12 612" class="st8"/>
		</g>
		<g id="shape1099-402" v:mID="1099" v:groupContext="shape" transform="translate(441,-376.43)">
			<title>Sheet.1099</title>
			<desc>384 bit</desc>
			<v:textBlock v:margins="rect(4,4,4,4)"/>
			<v:textRect cx="24.1558" cy="601.09" width="48.32" height="21.82"/>
			<rect x="0" y="590.18" width="48.3116" height="21.82" class="st4"/>
			<text x="9.14" y="604.09" class="st2" v:langID="1033"><v:paragraph v:horizAlign="1"/><v:tabList/>384 bit</text>		</g>
		<g id="shape1100-405" v:mID="1100" v:groupContext="shape" transform="translate(463.5,-356.52)">
			<title>Sheet.1100</title>
			<v:textBlock v:margins="rect(4,4,4,4)"/>
			<rect x="0" y="586.36" width="38.0063" height="25.6401" class="st4"/>
		</g>
	</g>
</svg>
