<?xml version="1.0" encoding="UTF-8"?>
<!DOCTYPE svg PUBLIC "-//W3C//DTD SVG 1.1//EN" "http://www.w3.org/Graphics/SVG/1.1/DTD/svg11.dtd">
<svg xmlns="http://www.w3.org/2000/svg" xmlns:xlink="http://www.w3.org/1999/xlink" version="1.1" width="1002px" height="690px" viewBox="-0.5 -0.5 1002 690" style="background-color: rgb(255, 255, 255);"><defs/><rect fill="#ffffff" width="100%" height="100%" x="0" y="0"/><g><path d="M 423 281 L 423.78 553.08" fill="none" stroke="rgb(0, 0, 0)" stroke-width="2" stroke-miterlimit="10" pointer-events="stroke"/><path d="M 423.79 559.08 L 419.77 551.1 L 423.78 553.08 L 427.77 551.07 Z" fill="rgb(0, 0, 0)" stroke="rgb(0, 0, 0)" stroke-width="2" stroke-miterlimit="10" pointer-events="all"/><g fill="rgb(0, 0, 0)" font-family="Courier New" text-anchor="middle" font-size="12px"><rect fill="rgb(255, 255, 255)" stroke="none" x="367" y="295" width="117" height="15" stroke-width="0"/><text x="424.11" y="306">ControllerEvents</text></g><path d="M 703 122.04 L 703 401 L 551.24 401" fill="none" stroke="rgb(0, 0, 0)" stroke-width="2" stroke-miterlimit="10" pointer-events="stroke"/><path d="M 545.24 401 L 553.24 397 L 551.24 401 L 553.24 405 Z" fill="rgb(0, 0, 0)" stroke="rgb(0, 0, 0)" stroke-width="2" stroke-miterlimit="10" pointer-events="all"/><g fill="rgb(0, 0, 0)" font-family="Courier New" font-size="12px"><rect fill="rgb(255, 255, 255)" stroke="none" x="564" y="395" width="110" height="15" stroke-width="0"/><text x="564.46" y="406">ArbitrationLost</text></g><path d="M 223 161 L 243 161 L 254.76 161" fill="none" stroke="rgb(0, 0, 0)" stroke-width="2" stroke-miterlimit="10" pointer-events="stroke"/><path d="M 260.76 161 L 252.76 165 L 254.76 161 L 252.76 157 Z" fill="rgb(0, 0, 0)" stroke="rgb(0, 0, 0)" stroke-width="2" stroke-miterlimit="10" pointer-events="all"/><rect x="103" y="1" width="120" height="640" fill="rgb(255, 255, 255)" stroke="rgb(0, 0, 0)" stroke-width="2" pointer-events="all"/><g fill="rgb(0, 0, 0)" font-family="Courier New" text-anchor="middle" font-size="12px"><text x="162.5" y="28.5">register file</text></g><path d="M 323 261 L 263 261 L 263 221 L 323 221" fill="none" stroke="rgb(0, 0, 0)" stroke-width="2" stroke-miterlimit="10" pointer-events="stroke"/><path d="M 273 221 L 273 261" fill="none" stroke="rgb(0, 0, 0)" stroke-width="2" stroke-miterlimit="10" pointer-events="stroke"/><path d="M 283 221 L 283 261" fill="none" stroke="rgb(0, 0, 0)" stroke-width="2" stroke-miterlimit="10" pointer-events="stroke"/><path d="M 293 221 L 293 261" fill="none" stroke="rgb(0, 0, 0)" stroke-width="2" stroke-miterlimit="10" pointer-events="stroke"/><path d="M 303 221 L 303 261" fill="none" stroke="rgb(0, 0, 0)" stroke-width="2" stroke-miterlimit="10" pointer-events="stroke"/><path d="M 323 421 L 263 421 L 263 381 L 323 381" fill="none" stroke="rgb(0, 0, 0)" stroke-width="2" stroke-miterlimit="10" pointer-events="stroke"/><path d="M 273 381 L 273 421" fill="none" stroke="rgb(0, 0, 0)" stroke-width="2" stroke-miterlimit="10" pointer-events="stroke"/><path d="M 283 381 L 283 421" fill="none" stroke="rgb(0, 0, 0)" stroke-width="2" stroke-miterlimit="10" pointer-events="stroke"/><path d="M 293 381 L 293 421" fill="none" stroke="rgb(0, 0, 0)" stroke-width="2" stroke-miterlimit="10" pointer-events="stroke"/><path d="M 303 381 L 303 421" fill="none" stroke="rgb(0, 0, 0)" stroke-width="2" stroke-miterlimit="10" pointer-events="stroke"/><path d="M 263 461 L 323 461 L 323 501 L 263 501" fill="none" stroke="rgb(0, 0, 0)" stroke-width="2" stroke-miterlimit="10" pointer-events="stroke"/><path d="M 313 501 L 313 461" fill="none" stroke="rgb(0, 0, 0)" stroke-width="2" stroke-miterlimit="10" pointer-events="stroke"/><path d="M 303 501 L 303 461" fill="none" stroke="rgb(0, 0, 0)" stroke-width="2" stroke-miterlimit="10" pointer-events="stroke"/><path d="M 293 501 L 293 461" fill="none" stroke="rgb(0, 0, 0)" stroke-width="2" stroke-miterlimit="10" pointer-events="stroke"/><path d="M 283 501 L 283 461" fill="none" stroke="rgb(0, 0, 0)" stroke-width="2" stroke-miterlimit="10" pointer-events="stroke"/><path d="M 263 141 L 323 141 L 323 181 L 263 181" fill="none" stroke="rgb(0, 0, 0)" stroke-width="2" stroke-miterlimit="10" pointer-events="stroke"/><path d="M 313 181 L 313 141" fill="none" stroke="rgb(0, 0, 0)" stroke-width="2" stroke-miterlimit="10" pointer-events="stroke"/><path d="M 303 181 L 303 141" fill="none" stroke="rgb(0, 0, 0)" stroke-width="2" stroke-miterlimit="10" pointer-events="stroke"/><path d="M 293 181 L 293 141" fill="none" stroke="rgb(0, 0, 0)" stroke-width="2" stroke-miterlimit="10" pointer-events="stroke"/><path d="M 283 181 L 283 141" fill="none" stroke="rgb(0, 0, 0)" stroke-width="2" stroke-miterlimit="10" pointer-events="stroke"/><rect x="383" y="121" width="160" height="160" fill="rgb(255, 255, 255)" stroke="rgb(0, 0, 0)" stroke-width="2" pointer-events="all"/><g fill="rgb(0, 0, 0)" font-family="Courier New" text-anchor="middle" font-size="12px"><text x="462.5" y="205.5">Controller FSM</text></g><rect x="383" y="361" width="160" height="160" fill="rgb(255, 255, 255)" stroke="rgb(0, 0, 0)" stroke-width="2" pointer-events="all"/><g fill="rgb(0, 0, 0)" font-family="Courier New" text-anchor="middle" font-size="12px"><text x="462.5" y="445.5">Target FSM</text></g><path d="M 223 481 L 243 481 L 254.76 481" fill="none" stroke="rgb(0, 0, 0)" stroke-width="2" stroke-miterlimit="10" pointer-events="stroke"/><path d="M 260.76 481 L 252.76 485 L 254.76 481 L 252.76 477 Z" fill="rgb(0, 0, 0)" stroke="rgb(0, 0, 0)" stroke-width="2" stroke-miterlimit="10" pointer-events="all"/><path d="M 263 401 L 231.24 401" fill="none" stroke="rgb(0, 0, 0)" stroke-width="2" stroke-miterlimit="10" pointer-events="stroke"/><path d="M 225.24 401 L 233.24 397 L 231.24 401 L 233.24 405 Z" fill="rgb(0, 0, 0)" stroke="rgb(0, 0, 0)" stroke-width="2" stroke-miterlimit="10" pointer-events="all"/><path d="M 263 241 L 231.24 241" fill="none" stroke="rgb(0, 0, 0)" stroke-width="2" stroke-miterlimit="10" pointer-events="stroke"/><path d="M 225.24 241 L 233.24 237 L 231.24 241 L 233.24 245 Z" fill="rgb(0, 0, 0)" stroke="rgb(0, 0, 0)" stroke-width="2" stroke-miterlimit="10" pointer-events="all"/><path d="M 323 161 L 374.76 161" fill="none" stroke="rgb(0, 0, 0)" stroke-width="2" stroke-miterlimit="10" pointer-events="stroke"/><path d="M 380.76 161 L 372.76 165 L 374.76 161 L 372.76 157 Z" fill="rgb(0, 0, 0)" stroke="rgb(0, 0, 0)" stroke-width="2" stroke-miterlimit="10" pointer-events="all"/><path d="M 323 481 L 374.76 481" fill="none" stroke="rgb(0, 0, 0)" stroke-width="2" stroke-miterlimit="10" pointer-events="stroke"/><path d="M 380.76 481 L 372.76 485 L 374.76 481 L 372.76 477 Z" fill="rgb(0, 0, 0)" stroke="rgb(0, 0, 0)" stroke-width="2" stroke-miterlimit="10" pointer-events="all"/><path d="M 383 241 L 331.24 241" fill="none" stroke="rgb(0, 0, 0)" stroke-width="2" stroke-miterlimit="10" pointer-events="stroke"/><path d="M 325.24 241 L 333.24 237 L 331.24 241 L 333.24 245 Z" fill="rgb(0, 0, 0)" stroke="rgb(0, 0, 0)" stroke-width="2" stroke-miterlimit="10" pointer-events="all"/><path d="M 383 401 L 331.24 401" fill="none" stroke="rgb(0, 0, 0)" stroke-width="2" stroke-miterlimit="10" pointer-events="stroke"/><path d="M 325.24 401 L 333.24 397 L 331.24 401 L 333.24 405 Z" fill="rgb(0, 0, 0)" stroke="rgb(0, 0, 0)" stroke-width="2" stroke-miterlimit="10" pointer-events="all"/><rect x="583" y="41" width="200" height="80" fill="rgb(255, 255, 255)" stroke="rgb(0, 0, 0)" stroke-width="2" pointer-events="all"/><g fill="rgb(0, 0, 0)" font-family="Courier New" text-anchor="middle" font-size="12px"><text x="682.5" y="85.5">Bus Monitor</text></g><rect x="263" y="561" width="400" height="80" fill="rgb(255, 255, 255)" stroke="rgb(0, 0, 0)" stroke-width="2" pointer-events="all"/><g fill="rgb(0, 0, 0)" font-family="Courier New" text-anchor="middle" font-size="12px"><text x="462.5" y="605.5">Error Checking and Status</text></g><rect x="823" y="161" width="80" height="80" fill="rgb(255, 255, 255)" stroke="rgb(0, 0, 0)" stroke-width="2" pointer-events="all"/><path d="M 863 241 L 863 161" fill="none" stroke="rgb(0, 0, 0)" stroke-width="2" stroke-miterlimit="10" pointer-events="stroke"/><g fill="rgb(0, 0, 0)" font-family="Courier New" text-anchor="middle" font-size="14px"><rect fill="rgb(255, 255, 255)" stroke="none" x="846" y="194" width="36" height="18" stroke-width="0"/><text x="863" y="207">sync</text></g><path d="M 853 229 L 863 234 L 853 239 Z" fill="rgb(255, 255, 255)" stroke="rgb(0, 0, 0)" stroke-width="2" stroke-miterlimit="10" transform="translate(858,0)scale(-1,1)translate(-858,0)" pointer-events="all"/><path d="M 893 229 L 903 234 L 893 239 Z" fill="rgb(255, 255, 255)" stroke="rgb(0, 0, 0)" stroke-width="2" stroke-miterlimit="10" transform="translate(898,0)scale(-1,1)translate(-898,0)" pointer-events="all"/><path d="M 803 501 L 823 461 L 863 461 L 883 501 Z" fill="rgb(255, 255, 255)" stroke="rgb(0, 0, 0)" stroke-width="2" stroke-miterlimit="10" transform="rotate(90,843,481)" pointer-events="all"/><path d="M 543 461.32 L 723 461 L 723 224" fill="none" stroke="rgb(0, 0, 0)" stroke-width="2" stroke-miterlimit="10" pointer-events="stroke"/><ellipse cx="723" cy="221" rx="3" ry="3" fill="rgb(0, 0, 0)" stroke="rgb(0, 0, 0)" stroke-width="2" pointer-events="all"/><g fill="rgb(0, 0, 0)" font-family="Courier New" font-size="12px"><rect fill="rgb(255, 255, 255)" stroke="none" x="565" y="455" width="88" height="15" stroke-width="0"/><text x="565.5" y="466.22">Transmitting</text></g><path d="M 543 481 L 740 481" fill="none" stroke="rgb(0, 0, 0)" stroke-width="2" stroke-miterlimit="10" pointer-events="stroke"/><ellipse cx="743" cy="481" rx="3" ry="3" fill="rgb(0, 0, 0)" stroke="rgb(0, 0, 0)" stroke-width="2" pointer-events="all"/><g fill="rgb(0, 0, 0)" font-family="Courier New" font-size="12px"><rect fill="rgb(255, 255, 255)" stroke="none" x="565" y="475" width="52" height="15" stroke-width="0"/><text x="564.5" y="486">SDA Out</text></g><path d="M 543 221 L 697 221 C 697 213.2 709 213.2 709 221 L 709 221 L 723 221 L 723 129.24" fill="none" stroke="rgb(0, 0, 0)" stroke-width="2" stroke-miterlimit="10" pointer-events="stroke"/><path d="M 723 123.24 L 727 131.24 L 723 129.24 L 719 131.24 Z" fill="rgb(0, 0, 0)" stroke="rgb(0, 0, 0)" stroke-width="2" stroke-miterlimit="10" pointer-events="all"/><g fill="rgb(0, 0, 0)" font-family="Courier New" font-size="12px"><rect fill="rgb(255, 255, 255)" stroke="none" x="564" y="215" width="88" height="15" stroke-width="0"/><text x="563.5" y="226">Transmitting</text></g><path d="M 743 238 L 743 129.24" fill="none" stroke="rgb(0, 0, 0)" stroke-width="2" stroke-miterlimit="10" pointer-events="stroke"/><ellipse cx="743" cy="241" rx="3" ry="3" fill="rgb(0, 0, 0)" stroke="rgb(0, 0, 0)" stroke-width="2" pointer-events="all"/><path d="M 743 123.24 L 747 131.24 L 743 129.24 L 739 131.24 Z" fill="rgb(0, 0, 0)" stroke="rgb(0, 0, 0)" stroke-width="2" stroke-miterlimit="10" pointer-events="all"/><path d="M 623 121 L 623 141 L 551.24 141" fill="none" stroke="rgb(0, 0, 0)" stroke-width="2" stroke-miterlimit="10" pointer-events="stroke"/><path d="M 545.24 141 L 553.24 137 L 551.24 141 L 553.24 145 Z" fill="rgb(0, 0, 0)" stroke="rgb(0, 0, 0)" stroke-width="2" stroke-miterlimit="10" pointer-events="all"/><g fill="rgb(0, 0, 0)" font-family="Courier New" font-size="12px"><rect fill="rgb(255, 255, 255)" stroke="none" x="565" y="135" width="52" height="15" stroke-width="0"/><text x="564.5" y="146">BusIdle</text></g><path d="M 543 241 L 697 241 C 697 233.2 709 233.2 709 241 L 709 241 L 717 241 C 717 233.2 729 233.2 729 241 L 729 241 L 740 241" fill="none" stroke="rgb(0, 0, 0)" stroke-width="2" stroke-miterlimit="10" pointer-events="stroke"/><ellipse cx="743" cy="241" rx="3" ry="3" fill="rgb(0, 0, 0)" stroke="rgb(0, 0, 0)" stroke-width="2" pointer-events="all"/><g fill="rgb(0, 0, 0)" font-family="Courier New" font-size="12px"><rect fill="rgb(255, 255, 255)" stroke="none" x="565" y="235" width="96" height="15" stroke-width="0"/><text x="564.5" y="246">SCL / SDA Out</text></g><path d="M 743 241 L 743 481 L 814.76 481" fill="none" stroke="rgb(0, 0, 0)" stroke-width="2" stroke-miterlimit="10" pointer-events="stroke"/><path d="M 820.76 481 L 812.76 485 L 814.76 481 L 812.76 477 Z" fill="rgb(0, 0, 0)" stroke="rgb(0, 0, 0)" stroke-width="2" stroke-miterlimit="10" pointer-events="all"/><path d="M 763 204 L 763 421 L 749 421 C 749 413.2 737 413.2 737 421 L 737 421 L 729 421 C 729 413.2 717 413.2 717 421 L 717 421 L 551.24 421" fill="none" stroke="rgb(0, 0, 0)" stroke-width="2" stroke-miterlimit="10" pointer-events="stroke"/><ellipse cx="763" cy="201" rx="3" ry="3" fill="rgb(0, 0, 0)" stroke="rgb(0, 0, 0)" stroke-width="2" pointer-events="all"/><path d="M 545.24 421 L 553.24 417 L 551.24 421 L 553.24 425 Z" fill="rgb(0, 0, 0)" stroke="rgb(0, 0, 0)" stroke-width="2" stroke-miterlimit="10" pointer-events="all"/><g fill="rgb(0, 0, 0)" font-family="Courier New" font-size="12px"><rect fill="rgb(255, 255, 255)" stroke="none" x="565" y="415" width="74" height="15" stroke-width="0"/><text x="564.5" y="426">SCL/SDA in</text></g><path d="M 503 521 L 503 553.08" fill="none" stroke="rgb(0, 0, 0)" stroke-width="2" stroke-miterlimit="10" pointer-events="stroke"/><path d="M 503 559.08 L 499 551.08 L 503 553.08 L 507 551.08 Z" fill="rgb(0, 0, 0)" stroke="rgb(0, 0, 0)" stroke-width="2" stroke-miterlimit="10" pointer-events="all"/><g fill="rgb(0, 0, 0)" font-family="Courier New" text-anchor="middle" font-size="12px"><rect fill="rgb(255, 255, 255)" stroke="none" x="458" y="530" width="88" height="15" stroke-width="0"/><text x="501" y="541">TargetEvents</text></g><path d="M 223 101 L 343 101 L 375.63 117.32" fill="none" stroke="rgb(0, 0, 0)" stroke-width="2" stroke-miterlimit="10" pointer-events="stroke"/><path d="M 381 120 L 372.06 120 L 375.63 117.32 L 375.63 112.84 Z" fill="rgb(0, 0, 0)" stroke="rgb(0, 0, 0)" stroke-width="2" stroke-miterlimit="10" pointer-events="all"/><g fill="rgb(0, 0, 0)" font-family="Courier New" font-size="12px"><rect fill="rgb(255, 255, 255)" stroke="none" x="235" y="93" width="103" height="15" stroke-width="0"/><text x="234.5" y="104">Control/Config</text></g><path d="M 223 541 L 343 541 L 375.63 524.68" fill="none" stroke="rgb(0, 0, 0)" stroke-width="2" stroke-miterlimit="10" pointer-events="stroke"/><path d="M 381 522 L 375.63 529.16 L 375.63 524.68 L 372.06 522 Z" fill="rgb(0, 0, 0)" stroke="rgb(0, 0, 0)" stroke-width="2" stroke-miterlimit="10" pointer-events="all"/><g fill="rgb(0, 0, 0)" font-family="Courier New" font-size="12px"><rect fill="rgb(255, 255, 255)" stroke="none" x="235" y="533" width="103" height="15" stroke-width="0"/><text x="234.5" y="544">Control/Config</text></g><path d="M 263 601 L 230.04 600.74" fill="none" stroke="rgb(0, 0, 0)" stroke-width="2" stroke-miterlimit="10" pointer-events="stroke"/><path d="M 224.04 600.7 L 232.07 596.76 L 230.04 600.74 L 232 604.76 Z" fill="rgb(0, 0, 0)" stroke="rgb(0, 0, 0)" stroke-width="2" stroke-miterlimit="10" pointer-events="all"/><path d="M 993 201 L 911.24 201" fill="none" stroke="rgb(0, 0, 0)" stroke-width="2" stroke-miterlimit="10" pointer-events="stroke"/><path d="M 905.24 201 L 913.24 197 L 911.24 201 L 913.24 205 Z" fill="rgb(0, 0, 0)" stroke="rgb(0, 0, 0)" stroke-width="2" stroke-miterlimit="10" pointer-events="all"/><g fill="rgb(0, 0, 0)" font-family="Courier New" font-size="12px"><rect fill="rgb(255, 255, 255)" stroke="none" x="923" y="184" width="67" height="15" stroke-width="0"/><text x="922.5" y="194.5">cio_scl_i</text></g><g fill="rgb(0, 0, 0)" font-family="Courier New" font-size="12px"><rect fill="rgb(255, 255, 255)" stroke="none" x="923" y="207" width="67" height="15" stroke-width="0"/><text x="922.5" y="216.5">cio_sda_i</text></g><path d="M 863 481 L 974.76 481" fill="none" stroke="rgb(0, 0, 0)" stroke-width="2" stroke-miterlimit="10" pointer-events="stroke"/><path d="M 980.76 481 L 972.76 485 L 974.76 481 L 972.76 477 Z" fill="rgb(0, 0, 0)" stroke="rgb(0, 0, 0)" stroke-width="2" stroke-miterlimit="10" pointer-events="all"/><g fill="rgb(0, 0, 0)" font-family="Courier New" font-size="12px"><rect fill="rgb(255, 255, 255)" stroke="none" x="873" y="464" width="67" height="15" stroke-width="0"/><text x="872.5" y="474.5">cio_scl_o</text></g><g fill="rgb(0, 0, 0)" font-family="Courier New" font-size="12px"><rect fill="rgb(255, 255, 255)" stroke="none" x="873" y="487" width="88" height="15" stroke-width="0"/><text x="872.5" y="496.5">cio_sda_en_o</text></g><g fill="rgb(0, 0, 0)" font-family="Courier New" font-size="12px"><rect fill="rgb(255, 255, 255)" stroke="none" x="873" y="449" width="88" height="15" stroke-width="0"/><text x="872.5" y="459.5">cio_scl_en_o</text></g><g fill="rgb(0, 0, 0)" font-family="Courier New" font-size="12px"><rect fill="rgb(255, 255, 255)" stroke="none" x="873" y="503" width="67" height="15" stroke-width="0"/><text x="872.5" y="512.5">cio_sda_o</text></g><path d="M 52.5 326 L 52.5 336.5 L 33.5 321 L 52.5 305.5 L 52.5 316 L 83.5 316 L 83.5 305.5 L 102.5 321 L 83.5 336.5 L 83.5 326 Z" fill="none" stroke="rgb(0, 0, 0)" stroke-miterlimit="10" pointer-events="all"/><g fill="rgb(0, 0, 0)" font-family="Courier New" text-anchor="end" font-size="12px"><rect fill="rgb(255, 255, 255)" stroke="none" x="1" y="315" width="31" height="15" stroke-width="0"/><text x="29.5" y="326">TLUL</text></g><path d="M 463 641 L 463 681 L 51.24 681" fill="none" stroke="rgb(0, 0, 0)" stroke-width="2" stroke-miterlimit="10" pointer-events="stroke"/><path d="M 45.24 681 L 53.24 677 L 51.24 681 L 53.24 685 Z" fill="rgb(0, 0, 0)" stroke="rgb(0, 0, 0)" stroke-width="2" stroke-miterlimit="10" pointer-events="all"/><g fill="rgb(0, 0, 0)" font-family="Courier New" text-anchor="middle" font-size="12px"><rect fill="rgb(255, 255, 255)" stroke="none" x="67" y="674" width="74" height="15" stroke-width="0"/><text x="103" y="685">Interrupts</text></g><rect x="263" y="441" width="60" height="20" fill="none" stroke="none" pointer-events="all"/><g fill="rgb(0, 0, 0)" font-family="Courier New" text-anchor="middle" font-size="12px"><text x="292.5" y="455.5">TX_FIFO</text></g><rect x="263" y="361" width="60" height="20" fill="none" stroke="none" pointer-events="all"/><g fill="rgb(0, 0, 0)" font-family="Courier New" text-anchor="middle" font-size="12px"><text x="292.5" y="375.5">ACQ_FIFO</text></g><rect x="263" y="199" width="60" height="20" fill="none" stroke="none" pointer-events="all"/><g fill="rgb(0, 0, 0)" font-family="Courier New" text-anchor="middle" font-size="12px"><text x="292.5" y="213.5">RX_FIFO</text></g><rect x="263" y="121" width="60" height="20" fill="none" stroke="none" pointer-events="all"/><g fill="rgb(0, 0, 0)" font-family="Courier New" text-anchor="middle" font-size="12px"><text x="292.5" y="135.5">FMT_FIFO</text></g><path d="M 823 201 L 763 201 L 763 129.24" fill="none" stroke="rgb(0, 0, 0)" stroke-width="2" stroke-miterlimit="10" pointer-events="stroke"/><path d="M 763 123.24 L 767 131.24 L 763 129.24 L 759 131.24 Z" fill="rgb(0, 0, 0)" stroke="rgb(0, 0, 0)" stroke-width="2" stroke-miterlimit="10" pointer-events="all"/><path d="M 760 201 L 749 201 C 749 193.2 737 193.2 737 201 L 737 201 L 729 201 C 729 193.2 717 193.2 717 201 L 717 201 L 709 201 C 709 193.2 697 193.2 697 201 L 697 201 L 551.24 201" fill="none" stroke="rgb(0, 0, 0)" stroke-width="2" stroke-miterlimit="10" pointer-events="stroke"/><ellipse cx="763" cy="201" rx="3" ry="3" fill="rgb(0, 0, 0)" stroke="rgb(0, 0, 0)" stroke-width="2" pointer-events="all"/><path d="M 545.24 201 L 553.24 197 L 551.24 201 L 553.24 205 Z" fill="rgb(0, 0, 0)" stroke="rgb(0, 0, 0)" stroke-width="2" stroke-miterlimit="10" pointer-events="all"/><g fill="rgb(0, 0, 0)" font-family="Courier New" font-size="12px"><rect fill="rgb(255, 255, 255)" stroke="none" x="565" y="195" width="74" height="15" stroke-width="0"/><text x="564.5" y="206">SCL/SDA in</text></g><path d="M 683 381 L 683 121" fill="none" stroke="rgb(0, 0, 0)" stroke-width="2" stroke-miterlimit="10" pointer-events="stroke"/><path d="M 680 160 L 551.24 160" fill="none" stroke="rgb(0, 0, 0)" stroke-width="2" stroke-miterlimit="10" pointer-events="stroke"/><ellipse cx="683" cy="160" rx="3" ry="3" fill="rgb(0, 0, 0)" stroke="rgb(0, 0, 0)" stroke-width="2" pointer-events="all"/><path d="M 545.24 160 L 553.24 156 L 551.24 160 L 553.24 164 Z" fill="rgb(0, 0, 0)" stroke="rgb(0, 0, 0)" stroke-width="2" stroke-miterlimit="10" pointer-events="all"/><g fill="rgb(0, 0, 0)" font-family="Courier New" font-size="12px"><rect fill="rgb(255, 255, 255)" stroke="none" x="565" y="155" width="74" height="15" stroke-width="0"/><text x="564.5" y="166">BusTimeout</text></g><path d="M 680 379.04 L 551.24 380.88" fill="none" stroke="rgb(0, 0, 0)" stroke-width="2" stroke-miterlimit="10" pointer-events="stroke"/><ellipse cx="683" cy="379" rx="3" ry="3" fill="rgb(0, 0, 0)" stroke="rgb(0, 0, 0)" stroke-width="2" pointer-events="all"/><path d="M 545.24 380.97 L 553.18 376.85 L 551.24 380.88 L 553.29 384.85 Z" fill="rgb(0, 0, 0)" stroke="rgb(0, 0, 0)" stroke-width="2" stroke-miterlimit="10" pointer-events="all"/><g fill="rgb(0, 0, 0)" font-family="Courier New" font-size="12px"><rect fill="rgb(255, 255, 255)" stroke="none" x="565" y="375" width="74" height="15" stroke-width="0"/><text x="564.53" y="385.66">BusTimeout</text></g><path d="M 700 180 L 689 180 C 689 172.2 677 172.2 677 180 L 677 180 L 551.24 180" fill="none" stroke="rgb(0, 0, 0)" stroke-width="2" stroke-miterlimit="10" pointer-events="stroke"/><ellipse cx="703" cy="180" rx="3" ry="3" fill="rgb(0, 0, 0)" stroke="rgb(0, 0, 0)" stroke-width="2" pointer-events="all"/><path d="M 545.24 180 L 553.24 176 L 551.24 180 L 553.24 184 Z" fill="rgb(0, 0, 0)" stroke="rgb(0, 0, 0)" stroke-width="2" stroke-miterlimit="10" pointer-events="all"/><g fill="rgb(0, 0, 0)" font-family="Courier New" font-size="12px"><rect fill="rgb(255, 255, 255)" stroke="none" x="565" y="175" width="110" height="15" stroke-width="0"/><text x="564.5" y="186">ArbitrationLost</text></g></g></svg>