<?xml version="1.0" encoding="UTF-8" standalone="no"?>
<!DOCTYPE svg PUBLIC "-//W3C//DTD SVG 1.1//EN"
 "http://www.w3.org/Graphics/SVG/1.1/DTD/svg11.dtd">
<!-- Generated by graphviz version 2.43.0 (0)
 -->
<!-- Title: %3 Pages: 1 -->
<svg width="856pt" height="819pt"
 viewBox="0.00 0.00 856.00 819.00" xmlns="http://www.w3.org/2000/svg" xmlns:xlink="http://www.w3.org/1999/xlink">
<g id="graph0" class="graph" transform="scale(1 1) rotate(0) translate(4 815)">
<title>%3</title>
<polygon fill="white" stroke="transparent" points="-4,4 -4,-815 852,-815 852,4 -4,4"/>
<!-- Idle -->
<g id="node1" class="node">
<title>Idle</title>
<ellipse fill="lightgreen" stroke="black" cx="611" cy="-765" rx="43" ry="43"/>
<text text-anchor="middle" x="611" y="-761.3" font-family="Times,serif" font-size="14.00">IDLE</text>
</g>
<!-- Idle&#45;&gt;Idle -->
<g id="edge1" class="edge">
<title>Idle:w&#45;&gt;Idle:nw</title>
<path fill="none" stroke="black" d="M568,-765C562,-743.5 550,-743.5 550,-780.5 550,-812.59 559.02,-816.85 573.16,-803.39"/>
<polygon fill="black" stroke="black" points="575.78,-805.72 580,-796 570.64,-800.96 575.78,-805.72"/>
<text text-anchor="middle" x="497" y="-761.3" font-family="Times,serif" font-size="14.00">fmt_fifo_empty</text>
</g>
<!-- Active -->
<g id="node2" class="node">
<title>Active</title>
<ellipse fill="lightblue" stroke="black" cx="464" cy="-592" rx="43" ry="43"/>
<text text-anchor="middle" x="464" y="-588.3" font-family="Times,serif" font-size="14.00">ACTIVE</text>
</g>
<!-- Idle&#45;&gt;Active -->
<g id="edge2" class="edge">
<title>Idle&#45;&gt;Active</title>
<path fill="none" stroke="black" d="M583.35,-731.84C559.3,-703.86 524.35,-663.2 498.48,-633.11"/>
<polygon fill="black" stroke="black" points="500.95,-630.61 491.78,-625.31 495.64,-635.17 500.95,-630.61"/>
<text text-anchor="middle" x="600" y="-674.8" font-family="Times,serif" font-size="14.00">~fmt_fifo_empty</text>
</g>
<!-- Start -->
<g id="node3" class="node">
<title>Start</title>
<ellipse fill="lightblue" stroke="black" cx="53" cy="-404" rx="43" ry="43"/>
<text text-anchor="middle" x="53" y="-400.3" font-family="Times,serif" font-size="14.00">[Issue Start]</text>
</g>
<!-- Active&#45;&gt;Start -->
<g id="edge4" class="edge">
<title>Active&#45;&gt;Start</title>
<path fill="none" stroke="black" d="M422.64,-579.39C376.6,-565.86 300.43,-541.66 238,-513 187.78,-489.94 133.53,-457.27 96.85,-433.91"/>
<polygon fill="black" stroke="black" points="98.69,-430.93 88.38,-428.48 94.91,-436.82 98.69,-430.93"/>
<text text-anchor="middle" x="284.5" y="-501.8" font-family="Times,serif" font-size="14.00">(~READB) &amp;</text>
<text text-anchor="middle" x="284.5" y="-486.8" font-family="Times,serif" font-size="14.00">START</text>
</g>
<!-- Transmit -->
<g id="node4" class="node">
<title>Transmit</title>
<ellipse fill="lightblue" stroke="black" cx="252" cy="-404" rx="43" ry="43"/>
<text text-anchor="middle" x="252" y="-407.8" font-family="Times,serif" font-size="14.00">[Transmit</text>
<text text-anchor="middle" x="252" y="-392.8" font-family="Times,serif" font-size="14.00">Byte]</text>
</g>
<!-- Active&#45;&gt;Transmit -->
<g id="edge5" class="edge">
<title>Active&#45;&gt;Transmit</title>
<path fill="none" stroke="black" d="M430.26,-564.91C411.37,-550.04 387.55,-530.86 367,-513 340.63,-490.07 311.98,-463.18 289.88,-441.96"/>
<polygon fill="black" stroke="black" points="292.27,-439.41 282.64,-435 287.42,-444.45 292.27,-439.41"/>
<text text-anchor="middle" x="413.5" y="-501.8" font-family="Times,serif" font-size="14.00">(~READB) &amp;</text>
<text text-anchor="middle" x="413.5" y="-486.8" font-family="Times,serif" font-size="14.00">(~START)</text>
</g>
<!-- Read -->
<g id="node5" class="node">
<title>Read</title>
<ellipse fill="lightblue" stroke="black" cx="464" cy="-404" rx="43" ry="43"/>
<text text-anchor="middle" x="464" y="-407.8" font-family="Times,serif" font-size="14.00">[Read R</text>
<text text-anchor="middle" x="464" y="-392.8" font-family="Times,serif" font-size="14.00">Bytes]</text>
</g>
<!-- Active&#45;&gt;Read -->
<g id="edge3" class="edge">
<title>Active&#45;&gt;Read</title>
<path fill="none" stroke="black" d="M464,-548.79C464,-521.68 464,-486.27 464,-457.36"/>
<polygon fill="black" stroke="black" points="467.5,-457.04 464,-447.04 460.5,-457.04 467.5,-457.04"/>
<text text-anchor="middle" x="490.5" y="-494.3" font-family="Times,serif" font-size="14.00">READB</text>
</g>
<!-- Start&#45;&gt;Transmit -->
<g id="edge8" class="edge">
<title>Start&#45;&gt;Transmit</title>
<path fill="none" stroke="black" d="M96.18,-404C126.3,-404 166.68,-404 198.79,-404"/>
<polygon fill="black" stroke="black" points="198.9,-407.5 208.9,-404 198.9,-400.5 198.9,-407.5"/>
<text text-anchor="middle" x="157.5" y="-410.8" font-family="Times,serif" font-size="14.00">[completed]</text>
</g>
<!-- Stop -->
<g id="node6" class="node">
<title>Stop</title>
<ellipse fill="lightblue" stroke="black" cx="375" cy="-216" rx="43" ry="43"/>
<text text-anchor="middle" x="375" y="-212.3" font-family="Times,serif" font-size="14.00">[Issue Stop]</text>
</g>
<!-- Transmit&#45;&gt;Stop -->
<g id="edge10" class="edge">
<title>Transmit&#45;&gt;Stop</title>
<path fill="none" stroke="black" d="M241.74,-362.09C238.65,-340.79 238.64,-315.07 250,-295 265.32,-267.94 283.6,-275.44 310,-259 316.74,-254.8 323.82,-250.31 330.74,-245.88"/>
<polygon fill="black" stroke="black" points="332.86,-248.68 339.38,-240.32 329.07,-242.79 332.86,-248.68"/>
<text text-anchor="middle" x="301.5" y="-313.8" font-family="Times,serif" font-size="14.00">[completed] &amp;</text>
<text text-anchor="middle" x="301.5" y="-298.8" font-family="Times,serif" font-size="14.00">STOP</text>
</g>
<!-- PopFifo -->
<g id="node7" class="node">
<title>PopFifo</title>
<ellipse fill="lightblue" stroke="black" cx="478" cy="-43" rx="43" ry="43"/>
<text text-anchor="middle" x="478" y="-46.8" font-family="Times,serif" font-size="14.00">POP_FMT_</text>
<text text-anchor="middle" x="478" y="-31.8" font-family="Times,serif" font-size="14.00">FIFO</text>
</g>
<!-- Transmit&#45;&gt;PopFifo -->
<g id="edge9" class="edge">
<title>Transmit&#45;&gt;PopFifo</title>
<path fill="none" stroke="black" d="M231,-366.13C206.68,-318.03 174.45,-232.94 212,-173 258.72,-98.43 362.17,-65.88 425.41,-52.51"/>
<polygon fill="black" stroke="black" points="426.48,-55.87 435.58,-50.46 425.09,-49.01 426.48,-55.87"/>
<text text-anchor="middle" x="263.5" y="-219.8" font-family="Times,serif" font-size="14.00">[completed] &amp;</text>
<text text-anchor="middle" x="263.5" y="-204.8" font-family="Times,serif" font-size="14.00">~STOP</text>
</g>
<!-- Read&#45;&gt;Stop -->
<g id="edge7" class="edge">
<title>Read&#45;&gt;Stop</title>
<path fill="none" stroke="black" d="M425.45,-384.6C402.75,-371.47 375.99,-351.45 363,-325 354.22,-307.13 354.72,-285.64 358.34,-266.55"/>
<polygon fill="black" stroke="black" points="361.81,-267.05 360.56,-256.53 354.98,-265.53 361.81,-267.05"/>
<text text-anchor="middle" x="414.5" y="-313.8" font-family="Times,serif" font-size="14.00">[completed] &amp;</text>
<text text-anchor="middle" x="414.5" y="-298.8" font-family="Times,serif" font-size="14.00">STOP</text>
</g>
<!-- Read&#45;&gt;PopFifo -->
<g id="edge6" class="edge">
<title>Read&#45;&gt;PopFifo</title>
<path fill="none" stroke="black" d="M465.65,-360.76C468.22,-294.87 473.17,-167.76 475.96,-96.22"/>
<polygon fill="black" stroke="black" points="479.47,-96.21 476.36,-86.08 472.47,-95.93 479.47,-96.21"/>
<text text-anchor="middle" x="523.5" y="-219.8" font-family="Times,serif" font-size="14.00">[completed] &amp;</text>
<text text-anchor="middle" x="523.5" y="-204.8" font-family="Times,serif" font-size="14.00">(~STOP)</text>
</g>
<!-- Stop&#45;&gt;PopFifo -->
<g id="edge11" class="edge">
<title>Stop&#45;&gt;PopFifo</title>
<path fill="none" stroke="black" d="M369.49,-173.27C369.09,-156.51 371.05,-137.54 379,-122 390.42,-99.69 411.45,-81.73 431.19,-68.69"/>
<polygon fill="black" stroke="black" points="433.25,-71.53 439.83,-63.23 429.51,-65.61 433.25,-71.53"/>
<text text-anchor="middle" x="421.5" y="-125.8" font-family="Times,serif" font-size="14.00">[completed]</text>
</g>
<!-- PopFifo&#45;&gt;Idle -->
<g id="edge12" class="edge">
<title>PopFifo:e&#45;&gt;Idle</title>
<path fill="none" stroke="black" d="M522,-43C646.11,-43 742,-90.89 742,-215 742,-593 742,-593 742,-593 742,-652.01 692.24,-703.23 654.06,-733.86"/>
<polygon fill="black" stroke="black" points="651.83,-731.16 646.11,-740.07 656.14,-736.67 651.83,-731.16"/>
<text text-anchor="middle" x="795" y="-400.3" font-family="Times,serif" font-size="14.00">fmt_fifo_empty</text>
</g>
<!-- PopFifo&#45;&gt;Active -->
<g id="edge13" class="edge">
<title>PopFifo:ne&#45;&gt;Active</title>
<path fill="none" stroke="black" d="M509,-75C546.85,-112.85 562.67,-122.03 579,-173 590.66,-209.4 583.28,-221.02 579,-259 566.03,-374.07 569.04,-407.64 521,-513 515.01,-526.14 506.6,-539.26 498.08,-550.9"/>
<polygon fill="black" stroke="black" points="495.13,-549 491.88,-559.08 500.71,-553.22 495.13,-549"/>
<text text-anchor="middle" x="634" y="-306.3" font-family="Times,serif" font-size="14.00">~fmt_fifo_empty</text>
</g>
</g>
</svg>
