<?xml version="1.0" encoding="UTF-8"?>
<!DOCTYPE svg PUBLIC "-//W3C//DTD SVG 1.1//EN" "http://www.w3.org/Graphics/SVG/1.1/DTD/svg11.dtd">
<svg xmlns="http://www.w3.org/2000/svg" xmlns:xlink="http://www.w3.org/1999/xlink" version="1.1" width="1160px" height="520px" viewBox="-0.5 -0.5 1160 520" style="background-color: rgb(255, 255, 255);"><defs/><rect fill="#ffffff" width="100%" height="100%" x="0" y="0"/><g><rect x="0" y="0" width="1160" height="520" fill="none" stroke="none" pointer-events="all"/><rect x="880" y="160" width="80" height="320" fill="rgb(255, 255, 255)" stroke="rgb(0, 0, 0)" stroke-width="2" pointer-events="all"/><rect x="880" y="40" width="80" height="120" fill="rgb(255, 255, 255)" stroke="rgb(0, 0, 0)" stroke-width="2" pointer-events="all"/><g fill="rgb(0, 0, 0)" font-family="Helvetica" font-weight="bold" font-size="18px"><text x="963.5" y="127.5">START / RESTART</text></g><path d="M 880 122.8 L 960 122.8" fill="none" stroke="rgb(0, 0, 0)" stroke-miterlimit="10" stroke-dasharray="3 3" pointer-events="stroke"/><g fill="rgb(0, 0, 0)" font-family="Helvetica" font-weight="bold" text-anchor="middle" font-size="18px"><rect fill="rgb(255, 255, 255)" stroke="none" x="915" y="132" width="12" height="23" stroke-width="0"/><text x="920" y="148.3">1</text></g><path d="M 880 83.2 L 960 83.2" fill="none" stroke="rgb(0, 0, 0)" stroke-width="2" stroke-miterlimit="10" stroke-dasharray="6 6" pointer-events="stroke"/><g fill="rgb(0, 0, 0)" font-family="Helvetica" font-weight="bold" text-anchor="middle" font-size="18px"><rect fill="rgb(255, 255, 255)" stroke="none" x="915" y="50" width="12" height="23" stroke-width="0"/><text x="920" y="68.7">0</text></g><g fill="rgb(0, 0, 0)" font-family="Helvetica" font-weight="bold" text-anchor="middle" font-size="18px"><rect fill="rgb(255, 255, 255)" stroke="none" x="903" y="93" width="37" height="23" stroke-width="0"/><text x="920" y="108.7">0 / 1</text></g><rect x="640" y="160" width="80" height="320" fill="rgb(255, 255, 255)" stroke="rgb(0, 0, 0)" stroke-width="2" pointer-events="all"/><rect x="640" y="40" width="80" height="120" fill="rgb(255, 255, 255)" stroke="rgb(0, 0, 0)" stroke-width="2" pointer-events="all"/><g fill="rgb(0, 0, 0)" font-family="Helvetica" font-weight="bold" font-size="18px"><text x="723.5" y="127.5">STOP</text></g><path d="M 640 122.8 L 720 122.8" fill="none" stroke="rgb(0, 0, 0)" stroke-miterlimit="10" stroke-dasharray="3 3" pointer-events="stroke"/><g fill="rgb(0, 0, 0)" font-family="Helvetica" font-weight="bold" text-anchor="middle" font-size="18px"><rect fill="rgb(255, 255, 255)" stroke="none" x="675" y="132" width="12" height="23" stroke-width="0"/><text x="680" y="148.3">0</text></g><path d="M 640 83.2 L 720 83.2" fill="none" stroke="rgb(0, 0, 0)" stroke-width="2" stroke-miterlimit="10" stroke-dasharray="6 6" pointer-events="stroke"/><g fill="rgb(0, 0, 0)" font-family="Helvetica" font-weight="bold" text-anchor="middle" font-size="18px"><rect fill="rgb(255, 255, 255)" stroke="none" x="663" y="50" width="37" height="23" stroke-width="0"/><text x="680" y="68.7">0 / 1</text></g><g fill="rgb(0, 0, 0)" font-family="Helvetica" font-weight="bold" text-anchor="middle" font-size="18px"><rect fill="rgb(255, 255, 255)" stroke="none" x="675" y="93" width="12" height="23" stroke-width="0"/><text x="680" y="108.7">1</text></g><rect x="720" y="40" width="150" height="40" fill="none" stroke="none" pointer-events="all"/><g fill="rgb(0, 0, 0)" font-family="Helvetica" font-weight="bold" font-size="18px"><text x="723.5" y="67.5">EXCEPTION</text></g><path d="M 480.5 320 L 480.5 280 L 570 280 L 572.49 280 L 572.49 258.5 L 599.5 300 L 572.49 341.5 L 572.49 320 L 570 320 Z" fill="none" stroke="rgb(0, 0, 0)" stroke-miterlimit="1.42" pointer-events="all"/><path d="M 572.49 280 L 572.49 258.5 L 599.5 300 L 572.49 341.5 L 572.49 320" fill="none" stroke="rgb(0, 0, 0)" stroke-miterlimit="4" pointer-events="all"/><path d="M 740 473.63 L 740 280 L 740 166.37" fill="none" stroke="rgb(0, 0, 0)" stroke-miterlimit="10" pointer-events="stroke"/><path d="M 740 478.88 L 736.5 471.88 L 740 473.63 L 743.5 471.88 Z" fill="rgb(0, 0, 0)" stroke="rgb(0, 0, 0)" stroke-miterlimit="10" pointer-events="all"/><path d="M 740 161.12 L 743.5 168.12 L 740 166.37 L 736.5 168.12 Z" fill="rgb(0, 0, 0)" stroke="rgb(0, 0, 0)" stroke-miterlimit="10" pointer-events="all"/><g fill="rgb(0, 0, 0)" font-family="Helvetica" font-weight="bold" font-size="18px"><rect fill="rgb(255, 255, 255)" stroke="none" x="744" y="310" width="44" height="23" stroke-width="0"/><text x="743.5" y="328">Junk</text></g><path d="M 980 433.63 L 980 280 L 980 166.37" fill="none" stroke="rgb(0, 0, 0)" stroke-miterlimit="10" pointer-events="stroke"/><path d="M 980 438.88 L 976.5 431.88 L 980 433.63 L 983.5 431.88 Z" fill="rgb(0, 0, 0)" stroke="rgb(0, 0, 0)" stroke-miterlimit="10" pointer-events="all"/><path d="M 980 161.12 L 983.5 168.12 L 980 166.37 L 976.5 168.12 Z" fill="rgb(0, 0, 0)" stroke="rgb(0, 0, 0)" stroke-miterlimit="10" pointer-events="all"/><g fill="rgb(0, 0, 0)" font-family="Helvetica" font-weight="bold" font-size="18px"><rect fill="rgb(255, 255, 255)" stroke="none" x="984" y="290" width="132" height="23" stroke-width="0"/><text x="983.5" y="308">Target Address</text></g><path d="M 880 440 L 960 440" fill="none" stroke="rgb(0, 0, 0)" stroke-miterlimit="10" stroke-dasharray="3 3" pointer-events="stroke"/><g fill="rgb(0, 0, 0)" font-family="Helvetica" font-weight="bold" text-anchor="middle" font-size="18px"><rect fill="rgb(255, 255, 255)" stroke="none" x="915" y="450" width="12" height="23" stroke-width="0"/><text x="920" y="465.5">1</text></g><path d="M 980 473.63 L 980 446.37" fill="none" stroke="rgb(0, 0, 0)" stroke-miterlimit="10" pointer-events="stroke"/><path d="M 980 478.88 L 976.5 471.88 L 980 473.63 L 983.5 471.88 Z" fill="rgb(0, 0, 0)" stroke="rgb(0, 0, 0)" stroke-miterlimit="10" pointer-events="all"/><path d="M 980 441.12 L 983.5 448.12 L 980 446.37 L 976.5 448.12 Z" fill="rgb(0, 0, 0)" stroke="rgb(0, 0, 0)" stroke-miterlimit="10" pointer-events="all"/><g fill="rgb(0, 0, 0)" font-family="Helvetica" font-weight="bold" font-size="18px"><rect fill="rgb(255, 255, 255)" stroke="none" x="984" y="450" width="64" height="23" stroke-width="0"/><text x="983.5" y="468">R/W bit</text></g></g></svg>