<?xml version="1.0" encoding="utf-8"?>
<svg width="349.77917mm" height="194.34589mm" viewBox="0 0 349.77917 194.34589" version="1.1" id="svg1398" xmlns="http://www.w3.org/2000/svg">
  <defs id="defs1392">
    <marker style="overflow:visible" id="marker3689" refX="0" refY="0" orient="auto">
      <path transform="scale(-0.6)" d="M 8.7185878,4.0337352 -2.2072895,0.01601326 8.7185884,-4.0017078 c -1.7454984,2.3720609 -1.7354408,5.6174519 -6e-7,8.035443 z" style="fill:#000000;fill-opacity:1;fill-rule:evenodd;stroke:#000000;stroke-width:0.625;stroke-linejoin:round;stroke-opacity:1" id="path3687"/>
    </marker>
    <marker style="overflow:visible" id="marker3549" refX="0" refY="0" orient="auto">
      <path transform="scale(-0.6)" d="M 8.7185878,4.0337352 -2.2072895,0.01601326 8.7185884,-4.0017078 c -1.7454984,2.3720609 -1.7354408,5.6174519 -6e-7,8.035443 z" style="fill:#000000;fill-opacity:1;fill-rule:evenodd;stroke:#000000;stroke-width:0.625;stroke-linejoin:round;stroke-opacity:1" id="path3547"/>
    </marker>
    <marker style="overflow:visible" id="marker3325" refX="0" refY="0" orient="auto">
      <path transform="scale(-0.6)" d="M 8.7185878,4.0337352 -2.2072895,0.01601326 8.7185884,-4.0017078 c -1.7454984,2.3720609 -1.7354408,5.6174519 -6e-7,8.035443 z" style="fill:#000000;fill-opacity:1;fill-rule:evenodd;stroke:#000000;stroke-width:0.625;stroke-linejoin:round;stroke-opacity:1" id="path3323"/>
    </marker>
    <marker style="overflow:visible" id="marker3315" refX="0" refY="0" orient="auto">
      <path transform="scale(-0.6)" d="M 8.7185878,4.0337352 -2.2072895,0.01601326 8.7185884,-4.0017078 c -1.7454984,2.3720609 -1.7354408,5.6174519 -6e-7,8.035443 z" style="fill:#000000;fill-opacity:1;fill-rule:evenodd;stroke:#000000;stroke-width:0.625;stroke-linejoin:round;stroke-opacity:1" id="path3313"/>
    </marker>
    <marker style="overflow:visible" id="marker2999" refX="0" refY="0" orient="auto">
      <path transform="scale(-0.6)" d="M 8.7185878,4.0337352 -2.2072895,0.01601326 8.7185884,-4.0017078 c -1.7454984,2.3720609 -1.7354408,5.6174519 -6e-7,8.035443 z" style="fill:#000000;fill-opacity:1;fill-rule:evenodd;stroke:#000000;stroke-width:0.625;stroke-linejoin:round;stroke-opacity:1" id="path2997"/>
    </marker>
    <marker style="overflow:visible" id="marker2901" refX="0" refY="0" orient="auto">
      <path transform="scale(-0.6)" d="M 8.7185878,4.0337352 -2.2072895,0.01601326 8.7185884,-4.0017078 c -1.7454984,2.3720609 -1.7354408,5.6174519 -6e-7,8.035443 z" style="fill:#000000;fill-opacity:1;fill-rule:evenodd;stroke:#000000;stroke-width:0.625;stroke-linejoin:round;stroke-opacity:1" id="path2899"/>
    </marker>
    <marker style="overflow:visible" id="marker2805" refX="0" refY="0" orient="auto">
      <path transform="scale(-0.6)" d="M 8.7185878,4.0337352 -2.2072895,0.01601326 8.7185884,-4.0017078 c -1.7454984,2.3720609 -1.7354408,5.6174519 -6e-7,8.035443 z" style="fill:#000000;fill-opacity:1;fill-rule:evenodd;stroke:#000000;stroke-width:0.625;stroke-linejoin:round;stroke-opacity:1" id="path2803"/>
    </marker>
    <marker style="overflow:visible" id="marker2639" refX="0" refY="0" orient="auto">
      <path transform="scale(-0.6)" d="M 8.7185878,4.0337352 -2.2072895,0.01601326 8.7185884,-4.0017078 c -1.7454984,2.3720609 -1.7354408,5.6174519 -6e-7,8.035443 z" style="fill:#000000;fill-opacity:1;fill-rule:evenodd;stroke:#000000;stroke-width:0.625;stroke-linejoin:round;stroke-opacity:1" id="path2637"/>
    </marker>
    <marker style="overflow:visible" id="marker2563" refX="0" refY="0" orient="auto">
      <path transform="scale(-0.6)" d="M 8.7185878,4.0337352 -2.2072895,0.01601326 8.7185884,-4.0017078 c -1.7454984,2.3720609 -1.7354408,5.6174519 -6e-7,8.035443 z" style="fill:#000000;fill-opacity:1;fill-rule:evenodd;stroke:#000000;stroke-width:0.625;stroke-linejoin:round;stroke-opacity:1" id="path2561"/>
    </marker>
    <marker style="overflow:visible" id="marker2521" refX="0" refY="0" orient="auto">
      <path transform="scale(-0.6)" d="M 8.7185878,4.0337352 -2.2072895,0.01601326 8.7185884,-4.0017078 c -1.7454984,2.3720609 -1.7354408,5.6174519 -6e-7,8.035443 z" style="fill:#000000;fill-opacity:1;fill-rule:evenodd;stroke:#000000;stroke-width:0.625;stroke-linejoin:round;stroke-opacity:1" id="path2519"/>
    </marker>
    <marker style="overflow:visible" id="Arrow2Mend" refX="0" refY="0" orient="auto">
      <path transform="scale(-0.6)" d="M 8.7185878,4.0337352 -2.2072895,0.01601326 8.7185884,-4.0017078 c -1.7454984,2.3720609 -1.7354408,5.6174519 -6e-7,8.035443 z" style="fill:#000000;fill-opacity:1;fill-rule:evenodd;stroke:#000000;stroke-width:0.625;stroke-linejoin:round;stroke-opacity:1" id="path2160"/>
    </marker>
    <rect x="18.520832" y="82.020836" width="18.520832" height="42.333332" id="rect1999"/>
    <clipPath id="clipEmfPath1-1" clipPathUnits="userSpaceOnUse">
      <path id="path6104" d="M 0.894959,2.68488 H 532.501 V 447.48 H 0.894959 Z"/>
    </clipPath>
    <filter style="color-interpolation-filters:sRGB" id="filter5630" x="-0.33535595" width="1.6707119" y="-0.10479873" height="1.2095975">
      <feGaussianBlur stdDeviation="3.6970663" id="feGaussianBlur5632"/>
    </filter>
  </defs>
  <g id="layer1" transform="translate(153.72293,-33.460373)">
    <path style="font-variation-settings:normal;opacity:1;vector-effect:none;fill:#f3fcfc;fill-opacity:1;fill-rule:evenodd;stroke:#000000;stroke-width:0.529167;stroke-linecap:butt;stroke-linejoin:miter;stroke-miterlimit:4;stroke-dasharray:0.529167, 1.5875;stroke-dashoffset:0;stroke-opacity:1;stop-color:#000000;stop-opacity:1" d="m 105.83333,37.041666 0.42241,139.087514 -89.956136,0.59269 -0.424604,50.8198 H 195.79167 V 37.041667 Z" id="path5559"/>
    <rect style="color:#000000;overflow:visible;fill:#e7edfe;fill-opacity:1;fill-rule:evenodd;stroke:#000000;stroke-width:0.529167;stroke-miterlimit:4;stroke-dasharray:0.529167, 1.5875;stroke-dashoffset:0;stop-color:#000000" id="rect5531" width="216.95834" height="31.75" x="-153.45834" y="37.041668"/>
    <rect style="color:#000000;overflow:visible;fill:#feebe7;fill-opacity:1;fill-rule:evenodd;stroke:#000000;stroke-width:0.529167;stroke-miterlimit:4;stroke-dasharray:0.529167, 1.5875;stroke-dashoffset:0;stop-color:#000000" id="rect5525" width="215.86562" height="97.557648" x="-153.45834" y="74.083336"/>
    <rect style="color:#000000;overflow:visible;fill:#c5e4c3;fill-opacity:1;fill-rule:evenodd;stroke:#000000;stroke-width:0.529167;stroke-miterlimit:4;stroke-dasharray:none;stroke-opacity:1;stop-color:#000000" id="rect1981" width="58.208332" height="58.208332" x="129.64584" y="79.375008"/>
    <text style="font-size: 9.56714px; line-height: 8.96922px; font-family: &quot;Liberation Sans&quot;; text-align: center; text-decoration: none rgb(0, 0, 0); letter-spacing: 0px; word-spacing: 0px; text-anchor: middle; fill: rgb(0, 0, 0); stroke: none; stroke-width: 0.264583px; stroke-linecap: butt; stroke-linejoin: miter; stroke-miterlimit: 10; stroke-opacity: 1; stop-color: rgb(0, 0, 0); white-space: pre;" x="158.54311" y="107.60367" id="text1993" transform="scale(1.0017478,0.99825524)"><tspan id="tspan1991" x="158.54311" y="107.60367" style="stroke:none;stroke-width:0.264583px">AON Timer</tspan><tspan x="158.54311" y="116.57289" style="stroke:none;stroke-width:0.264583px" id="tspan1995">Core</tspan></text>
    <text id="text1997" style="font-size:14.1111px;line-height:5.29167px;font-family:'Liberation Sans';-inkscape-font-specification:'Liberation Sans, Normal';text-align:center;text-decoration:none;text-decoration-line:none;text-decoration-color:#000000;letter-spacing:0px;word-spacing:0px;white-space:pre;shape-inside:url(#rect1999);fill:#000000;stroke:#000000;stroke-width:0.264583px;stroke-linecap:butt;stroke-linejoin:miter;stroke-miterlimit:10;stroke-opacity:1;stop-color:#000000"/>
    <rect style="color:#000000;overflow:visible;fill:#c5e4c3;fill-opacity:1;fill-rule:evenodd;stroke:#000000;stroke-width:0.529167;stroke-miterlimit:4;stroke-dasharray:none;stroke-opacity:1;stop-color:#000000" id="rect2003" width="47.624996" height="29.10417" x="-2.645833" y="79.375"/>
    <text style="font-style: normal; font-variant: normal; font-weight: normal; font-stretch: normal; font-size: 36.1593px; line-height: 33.8994px; font-family: &quot;Liberation Sans&quot;; font-feature-settings: normal; font-variation-settings: normal; text-indent: 0px; text-align: center; text-decoration: none solid rgb(0, 0, 0); letter-spacing: 0px; word-spacing: 0px; text-transform: none; writing-mode: lr-tb; direction: ltr; text-orientation: mixed; dominant-baseline: auto; baseline-shift: baseline; text-anchor: middle; white-space: pre; shape-margin: 0px; inline-size: 0px; vector-effect: none; fill: rgb(0, 0, 0); fill-opacity: 1; stroke: none; stroke-width: 0.999999px; stroke-linecap: butt; stroke-linejoin: miter; stroke-miterlimit: 10; stroke-dasharray: none; stroke-dashoffset: 0; stroke-opacity: 1; stop-color: rgb(0, 0, 0);" x="80" y="400" id="text2026" transform="matrix(0.26458333,0,0,0.26458333,-0.228903,-13.146526)"><tspan id="tspan2024" x="80" y="400">TL</tspan><tspan x="80" y="433.89941" id="tspan2028">Interface</tspan></text>
    <path style="fill:none;fill-rule:evenodd;stroke:#000000;stroke-width:0.529167;stroke-linecap:butt;stroke-linejoin:miter;stroke-miterlimit:4;stroke-dasharray:none;stroke-opacity:1;marker-end:url(#Arrow2Mend)" d="M 128.32918,126.47092 H 114.30001" id="path2131"/>
    <path style="fill:none;fill-rule:evenodd;stroke:#000000;stroke-width:0.529167;stroke-linecap:butt;stroke-linejoin:miter;stroke-miterlimit:4;stroke-dasharray:none;stroke-opacity:1;marker-end:url(#marker2999)" d="m 114.3,121.17925 h 13.22917" id="path2995"/>
    <g id="g6280" transform="matrix(0.93372544,0,0,1.1403145,-302.3557,-592.3682)" style="opacity:1">
      <path style="fill:#fdf2cf;fill-opacity:1;fill-rule:evenodd;stroke:none" d="m 392.23458,627.40671 c -4.81471,0.64714 -8.20872,5.00408 -7.57739,9.75586 0.63162,4.75149 5.0515,8.08228 9.85069,7.45095 4.81471,-0.64714 8.19291,-5.00408 7.56129,-9.75586 -0.63133,-4.75149 -5.03569,-8.08256 -9.83459,-7.45095 z" id="path6175"/>
      <path style="fill:none;stroke:#000000;stroke-width:0.67880201px;stroke-linecap:butt;stroke-linejoin:round;stroke-miterlimit:4;stroke-dasharray:none;stroke-opacity:1" d="m 392.23458,627.40671 c -4.81471,0.64714 -8.20872,5.00408 -7.57739,9.75586 0.63162,4.75149 5.0515,8.08228 9.85069,7.45095 4.81471,-0.64714 8.19291,-5.00408 7.56129,-9.75586 -0.63133,-4.75149 -5.03569,-8.08256 -9.83459,-7.45095" id="path6177"/>
      <path style="fill:#fdf2cf;fill-opacity:1;fill-rule:evenodd;stroke:none" d="m 408.54166,633.05821 c -6.89864,0.93133 -12.02916,5.17765 -11.46076,9.50299 0.5842,4.32562 6.64605,7.10381 13.54441,6.17248 6.89864,-0.91553 12.02915,-5.16213 11.46076,-9.48747 -0.5842,-4.32533 -6.64605,-7.10381 -13.54441,-6.188 z" id="path6179"/>
      <path style="fill:none;stroke:#000000;stroke-width:0.67880201px;stroke-linecap:butt;stroke-linejoin:round;stroke-miterlimit:4;stroke-dasharray:none;stroke-opacity:1" d="m 408.54166,633.05821 c -6.89864,0.93133 -12.02916,5.17765 -11.46076,9.50299 0.5842,4.32562 6.64605,7.10381 13.54441,6.17248 6.89864,-0.91553 12.02915,-5.16213 11.46076,-9.48747 -0.5842,-4.32533 -6.64605,-7.10381 -13.54441,-6.188" id="path6181"/>
      <path style="fill:#fdf2cf;fill-opacity:1;fill-rule:evenodd;stroke:none" d="m 425.82721,631.00589 c -5.90381,0.78938 -10.29237,4.38856 -9.80299,8.06676 0.48937,3.6782 5.66702,6.01444 11.5553,5.24087 5.90409,-0.78938 10.29265,-4.40436 9.80327,-8.08257 -0.48937,-3.66211 -5.6673,-6.01443 -11.55558,-5.22506 z" id="path6183"/>
      <path style="fill:none;stroke:#000000;stroke-width:0.67880201px;stroke-linecap:butt;stroke-linejoin:round;stroke-miterlimit:4;stroke-dasharray:none;stroke-opacity:1" d="m 425.82721,631.00589 c -5.90381,0.78938 -10.29237,4.38856 -9.80299,8.06676 0.48937,3.6782 5.66702,6.01444 11.5553,5.24087 5.90409,-0.78938 10.29265,-4.40436 9.80327,-8.08257 -0.48937,-3.66211 -5.6673,-6.01443 -11.55558,-5.22506" id="path6185"/>
      <path style="fill:#fdf2cf;fill-opacity:1;fill-rule:evenodd;stroke:none" d="m 427.13756,615.64595 c -6.53542,0 -11.8395,3.1098 -11.8395,6.93024 0,3.83597 5.30408,6.92997 11.8395,6.92997 6.53542,0 11.83951,-3.094 11.83951,-6.92997 0,-3.82044 -5.30409,-6.93024 -11.83951,-6.93024 z" id="path6187"/>
      <path style="fill:none;stroke:#000000;stroke-width:0.67880201px;stroke-linecap:butt;stroke-linejoin:round;stroke-miterlimit:4;stroke-dasharray:none;stroke-opacity:1" d="m 427.13756,615.64595 c -6.53542,0 -11.8395,3.1098 -11.8395,6.93024 0,3.83597 5.30408,6.92997 11.8395,6.92997 6.53542,0 11.83951,-3.094 11.83951,-6.92997 0,-3.82044 -5.30409,-6.93024 -11.83951,-6.93024" id="path6189"/>
      <path style="fill:#d9d9d9;fill-opacity:1;fill-rule:evenodd;stroke:none" d="m 431.55773,619.38737 c -5.90409,0.78937 -10.1346,5.55667 -9.45586,10.65558 0.67875,5.11471 6.01444,8.60326 11.90272,7.82997 5.90381,-0.78937 10.1346,-5.55667 9.45586,-10.65558 -0.67874,-5.09891 -6.01444,-8.60354 -11.90272,-7.82997 z" id="path6191"/>
      <path style="fill:#fdf2cf;fill-opacity:1;stroke:#000000;stroke-width:2.4052px;stroke-linecap:butt;stroke-linejoin:round;stroke-miterlimit:4;stroke-dasharray:none;stroke-opacity:1" clip-path="url(#clipEmfPath1-1)" d="m 486.746,143.697 c -20.92,2.797 -35.91,19.689 -33.505,37.756 2.405,18.123 21.311,30.484 42.175,27.744 20.919,-2.797 35.91,-19.689 33.505,-37.756 -2.405,-18.067 -21.311,-30.485 -42.175,-27.744" id="path6193" transform="matrix(0.28222222,0,0,0.28222222,294.18719,578.83288)"/>
      <path style="fill:#fdf2cf;fill-opacity:1;fill-rule:evenodd;stroke:none" d="m 405.95255,616.05658 c -5.9038,0.78909 -10.16621,5.27247 -9.53459,10.02397 0.63133,4.73597 5.91961,7.95613 11.8237,7.16703 5.88828,-0.77357 10.16621,-5.25695 9.53487,-10.00845 -0.63161,-4.75149 -5.93569,-7.97193 -11.82398,-7.18255 z" id="path6195"/>
      <path style="fill:none;stroke:#000000;stroke-width:0.67880201px;stroke-linecap:butt;stroke-linejoin:round;stroke-miterlimit:4;stroke-dasharray:none;stroke-opacity:1" d="m 405.95255,616.05658 c -5.9038,0.78909 -10.16621,5.27247 -9.53459,10.02397 0.63133,4.73597 5.91961,7.95613 11.8237,7.16703 5.88828,-0.77357 10.16621,-5.25695 9.53487,-10.00845 -0.63161,-4.75149 -5.93569,-7.97193 -11.82398,-7.18255" id="path6197"/>
      <path style="fill:#fdf2cf;fill-opacity:1;fill-rule:evenodd;stroke:none" d="m 395.97571,621.59745 c -5.52506,0 -9.99236,3.0782 -9.99236,6.89836 0,3.82044 4.4673,6.89864 9.99236,6.89864 5.50955,0 9.99265,-3.0782 9.99265,-6.89864 0,-3.82016 -4.4831,-6.89836 -9.99265,-6.89836 z" id="path6199"/>
      <path style="fill:none;stroke:#000000;stroke-width:0.67880201px;stroke-linecap:butt;stroke-linejoin:round;stroke-miterlimit:4;stroke-dasharray:none;stroke-opacity:1" d="m 395.97571,621.59745 c -5.52506,0 -9.99236,3.0782 -9.99236,6.89836 0,3.82044 4.4673,6.89864 9.99236,6.89864 5.50955,0 9.99265,-3.0782 9.99265,-6.89864 0,-3.82016 -4.4831,-6.89836 -9.99265,-6.89836" id="path6201"/>
      <path style="fill:#fdf2cf;fill-opacity:1;fill-rule:evenodd;stroke:none" d="m 412.17245,621.92878 c -14.11281,2.8575 -24.61063,9.88229 -23.44251,15.70736 1.18392,5.80926 13.57602,8.22452 27.70463,5.3673 14.12861,-2.8417 24.62643,-9.88229 23.4425,-15.69156 -1.1684,-5.82506 -13.5763,-8.22452 -27.70462,-5.3831 z" id="path6203"/>
    </g>
    <path style="font-variation-settings:normal;opacity:1;vector-effect:none;fill:none;fill-opacity:1;fill-rule:evenodd;stroke:#000000;stroke-width:0.529167;stroke-linecap:butt;stroke-linejoin:miter;stroke-miterlimit:4;stroke-dasharray:none;stroke-dashoffset:0;stroke-opacity:1;marker-end:url(#marker2521);stop-color:#000000;stop-opacity:1" d="M -21.166666,89.958332 H -7.9374999" id="path2470"/>
    <path style="font-variation-settings:normal;opacity:1;vector-effect:none;fill:none;fill-opacity:1;fill-rule:evenodd;stroke:#000000;stroke-width:0.529167;stroke-linecap:butt;stroke-linejoin:miter;stroke-miterlimit:4;stroke-dasharray:none;stroke-dashoffset:0;stroke-opacity:1;marker-end:url(#marker2563);stop-color:#000000;stop-opacity:1" d="M -7.1374851,100.54167 H -20.366651" id="path2559"/>
    <path style="font-variation-settings:normal;opacity:1;vector-effect:none;fill:none;fill-opacity:1;fill-rule:evenodd;stroke:#000000;stroke-width:0.529167;stroke-linecap:butt;stroke-linejoin:miter;stroke-miterlimit:4;stroke-dasharray:none;stroke-dashoffset:0;stroke-opacity:1;marker-end:url(#marker2639);stop-color:#000000;stop-opacity:1" d="M -20.556 154.717 L 53.461 155.119" id="path2635"/>
    <text style="font-size: 9.56715px; line-height: 8.96922px; font-family: Inconsolata; text-align: end; text-decoration: none rgb(0, 0, 0); letter-spacing: 0px; word-spacing: 0px; text-anchor: end; fill: rgb(0, 0, 0); stroke: none; stroke-width: 0.264583px; stroke-linecap: butt; stroke-linejoin: miter; stroke-miterlimit: 10; stroke-opacity: 1; stop-color: rgb(0, 0, 0); white-space: pre;" x="-25.656269" y="92.742073" id="text2733"><tspan id="tspan2731" x="-25.656269" y="92.742073" style="text-align:end;text-anchor:end;stroke:none;stroke-width:0.264583px">tl_i</tspan></text>
    <text style="font-size: 9.56715px; line-height: 8.96922px; font-family: Inconsolata; text-align: end; text-decoration: none rgb(0, 0, 0); letter-spacing: 0px; word-spacing: 0px; text-anchor: end; fill: rgb(0, 0, 0); stroke: none; stroke-width: 0.264583px; stroke-linecap: butt; stroke-linejoin: miter; stroke-miterlimit: 10; stroke-opacity: 1; stop-color: rgb(0, 0, 0); white-space: pre;" x="-25.656269" y="103.33558" id="text2755"><tspan id="tspan2753" x="-25.656269" y="103.33558" style="text-align:end;text-anchor:end;stroke:none;stroke-width:0.264583px">tl_o</tspan></text>
    <text style="font-size: 9.56715px; line-height: 8.96922px; font-family: Inconsolata; text-align: end; text-decoration: none rgb(0, 0, 0); letter-spacing: 0px; word-spacing: 0px; text-anchor: end; fill: rgb(0, 0, 0); stroke: none; stroke-width: 0.264583px; stroke-linecap: butt; stroke-linejoin: miter; stroke-miterlimit: 10; stroke-opacity: 1; white-space: pre;" x="-24.597935" y="118.78903" id="text2771"><tspan id="tspan2769" x="-24.597939" y="118.78903" style="font-size:8.46667px;text-align:end;text-anchor:end;stroke:none;stroke-width:0.264583px">lc_escalate_en_i</tspan></text>
    <path style="font-variation-settings:normal;opacity:1;vector-effect:none;fill:none;fill-opacity:1;fill-rule:evenodd;stroke:#000000;stroke-width:0.529167;stroke-linecap:butt;stroke-linejoin:miter;stroke-miterlimit:4;stroke-dasharray:none;stroke-dashoffset:0;stroke-opacity:1;marker-end:url(#marker2805);stop-color:#000000;stop-opacity:1" d="M 53.716683,127.00002 H -20.366651" id="path2797"/>
    <text style="font-size: 9.56715px; line-height: 8.96922px; font-family: Inconsolata; text-align: end; text-decoration: none rgb(0, 0, 0); letter-spacing: 0px; word-spacing: 0px; text-anchor: end; fill: rgb(0, 0, 0); stroke: none; stroke-width: 0.264583px; stroke-linecap: butt; stroke-linejoin: miter; stroke-miterlimit: 10; stroke-opacity: 1; white-space: pre;" x="-24.597935" y="129.37238" id="text2801"><tspan id="tspan2799" x="-24.597937" y="129.37238" style="font-size:8.46667px;text-align:end;text-anchor:end;stroke:none;stroke-width:0.264583px">intr_wkup_timer_expired_o</tspan></text>
    <path style="font-variation-settings:normal;opacity:1;vector-effect:none;fill:none;fill-opacity:1;fill-rule:evenodd;stroke:#000000;stroke-width:0.529167;stroke-linecap:butt;stroke-linejoin:miter;stroke-miterlimit:4;stroke-dasharray:none;stroke-dashoffset:0;stroke-opacity:1;marker-end:url(#marker2901);stop-color:#000000;stop-opacity:1" d="M 53.716683,137.58336 H -20.366651" id="path2893"/>
    <text style="font-size: 9.56715px; line-height: 8.96922px; font-family: Inconsolata; text-align: end; text-decoration: none rgb(0, 0, 0); letter-spacing: 0px; word-spacing: 0px; text-anchor: end; fill: rgb(0, 0, 0); stroke: none; stroke-width: 0.264583px; stroke-linecap: butt; stroke-linejoin: miter; stroke-miterlimit: 10; stroke-opacity: 1; white-space: pre;" x="-24.597935" y="139.95572" id="text2897"><tspan x="-24.597942" y="139.95572" style="font-size:8.46667px;text-align:end;text-anchor:end;stroke:none;stroke-width:0.264583px" id="tspan2985">intr_wdog_timer_bark_o</tspan></text>
    <path style="font-variation-settings:normal;opacity:1;vector-effect:none;fill:none;fill-opacity:1;fill-rule:evenodd;stroke:#000000;stroke-width:0.529167;stroke-linecap:butt;stroke-linejoin:miter;stroke-miterlimit:4;stroke-dasharray:none;stroke-dashoffset:0;stroke-opacity:1;marker-end:url(#marker3325);stop-color:#000000;stop-opacity:1" d="m 150.8125,142.875 1e-5,44.97921 -29.10418,-5e-5" id="path3301"/>
    <text style="font-size: 8.46667px; line-height: 8.96922px; font-family: Inconsolata; text-align: end; text-decoration: none rgb(0, 0, 0); letter-spacing: 0px; word-spacing: 0px; text-anchor: end; fill: rgb(0, 0, 0); stroke: none; stroke-width: 0.264583px; stroke-linecap: butt; stroke-linejoin: miter; stroke-miterlimit: 10; stroke-opacity: 1; white-space: pre;" x="118.93328" y="189.76598" id="text3305"><tspan id="tspan3303" x="118.93328" y="189.76598" style="font-size:8.46667px;text-align:end;text-anchor:end;stroke:none;stroke-width:0.264583px">wkup_req_o</tspan></text>
    <path style="font-variation-settings:normal;opacity:1;vector-effect:none;fill:none;fill-opacity:1;fill-rule:evenodd;stroke:#000000;stroke-width:0.529167;stroke-linecap:butt;stroke-linejoin:miter;stroke-miterlimit:4;stroke-dasharray:none;stroke-dashoffset:0;stroke-opacity:1;marker-end:url(#marker3315);stop-color:#000000;stop-opacity:1" d="m 161.39583,142.875 v 55.5625 h -39.6875" id="path3307"/>
    <text style="font-size: 8.46667px; line-height: 8.96922px; font-family: Inconsolata; text-align: end; text-decoration: none rgb(0, 0, 0); letter-spacing: 0px; word-spacing: 0px; text-anchor: end; fill: rgb(0, 0, 0); stroke: none; stroke-width: 0.264583px; stroke-linecap: butt; stroke-linejoin: miter; stroke-miterlimit: 10; stroke-opacity: 1; white-space: pre;" x="118.93328" y="200.34932" id="text3311"><tspan x="118.93327" y="200.34932" style="font-size:8.46667px;text-align:end;text-anchor:end;stroke:none;stroke-width:0.264583px" id="tspan3309">aon_timer_rst_req_o</tspan></text>
    <text style="font-style: normal; font-variant: normal; font-weight: normal; font-stretch: normal; font-size: 9.56715px; line-height: 8.96922px; font-family: Inconsolata; font-feature-settings: normal; font-variation-settings: normal; text-indent: 0px; text-align: end; text-decoration: none solid rgb(0, 0, 0); letter-spacing: 0px; word-spacing: 0px; text-transform: none; writing-mode: lr-tb; direction: ltr; text-orientation: mixed; dominant-baseline: auto; baseline-shift: baseline; text-anchor: end; white-space: pre; shape-margin: 0px; inline-size: 0px; opacity: 1; vector-effect: none; fill: rgb(0, 0, 0); fill-opacity: 1; stroke: none; stroke-width: 0.264583px; stroke-linecap: butt; stroke-linejoin: miter; stroke-miterlimit: 10; stroke-dasharray: none; stroke-dashoffset: 0; stroke-opacity: 1; stop-color: rgb(0, 0, 0); stop-opacity: 1;" x="63.5" y="44.979168" id="text3423" transform="translate(-29.016318,10.0521)"><tspan id="tspan3421" x="63.5" y="44.979168" style="font-style:normal;font-variant:normal;font-weight:normal;font-stretch:normal;font-size:9.56715px;line-height:8.96922px;font-family:Inconsolata;-inkscape-font-specification:Inconsolata;font-variant-ligatures:normal;font-variant-position:normal;font-variant-caps:normal;font-variant-numeric:normal;font-variant-alternates:normal;font-variant-east-asian:normal;font-feature-settings:normal;font-variation-settings:normal;text-indent:0;text-align:end;text-decoration:none;text-decoration-line:none;text-decoration-style:solid;text-decoration-color:#000000;letter-spacing:0px;word-spacing:0px;text-transform:none;writing-mode:lr-tb;direction:ltr;text-orientation:mixed;dominant-baseline:auto;baseline-shift:baseline;text-anchor:end;white-space:normal;shape-padding:0;shape-margin:0;inline-size:0;vector-effect:none;fill:#000000;fill-opacity:1;stroke:none;stroke-width:0.264583px;stroke-linecap:butt;stroke-linejoin:miter;stroke-miterlimit:10;stroke-dasharray:none;stroke-dashoffset:0;stroke-opacity:1;stop-color:#000000;stop-opacity:1">sleep_mode_i</tspan></text>
    <path style="font-variation-settings:normal;opacity:1;vector-effect:none;fill:none;fill-opacity:1;fill-rule:evenodd;stroke:#000000;stroke-width:0.529167;stroke-linecap:butt;stroke-linejoin:miter;stroke-miterlimit:4;stroke-dasharray:none;stroke-dashoffset:0;stroke-opacity:1;marker-end:url(#marker3549);stop-color:#000000;stop-opacity:1" d="m 113.77083,52.916667 37.04167,-10e-7 v 21.166668" id="path3444"/>
    <g id="g3671" transform="matrix(0.93372544,0,0,1.1403145,-302.3557,-663.45532)" style="opacity:1">
      <path style="fill:#fdf2cf;fill-opacity:1;fill-rule:evenodd;stroke:none" d="m 392.23458,627.40671 c -4.81471,0.64714 -8.20872,5.00408 -7.57739,9.75586 0.63162,4.75149 5.0515,8.08228 9.85069,7.45095 4.81471,-0.64714 8.19291,-5.00408 7.56129,-9.75586 -0.63133,-4.75149 -5.03569,-8.08256 -9.83459,-7.45095 z" id="path3641"/>
      <path style="fill:none;stroke:#000000;stroke-width:0.67880201px;stroke-linecap:butt;stroke-linejoin:round;stroke-miterlimit:4;stroke-dasharray:none;stroke-opacity:1" d="m 392.23458,627.40671 c -4.81471,0.64714 -8.20872,5.00408 -7.57739,9.75586 0.63162,4.75149 5.0515,8.08228 9.85069,7.45095 4.81471,-0.64714 8.19291,-5.00408 7.56129,-9.75586 -0.63133,-4.75149 -5.03569,-8.08256 -9.83459,-7.45095" id="path3643"/>
      <path style="fill:#fdf2cf;fill-opacity:1;fill-rule:evenodd;stroke:none" d="m 408.54166,633.05821 c -6.89864,0.93133 -12.02916,5.17765 -11.46076,9.50299 0.5842,4.32562 6.64605,7.10381 13.54441,6.17248 6.89864,-0.91553 12.02915,-5.16213 11.46076,-9.48747 -0.5842,-4.32533 -6.64605,-7.10381 -13.54441,-6.188 z" id="path3645"/>
      <path style="fill:none;stroke:#000000;stroke-width:0.67880201px;stroke-linecap:butt;stroke-linejoin:round;stroke-miterlimit:4;stroke-dasharray:none;stroke-opacity:1" d="m 408.54166,633.05821 c -6.89864,0.93133 -12.02916,5.17765 -11.46076,9.50299 0.5842,4.32562 6.64605,7.10381 13.54441,6.17248 6.89864,-0.91553 12.02915,-5.16213 11.46076,-9.48747 -0.5842,-4.32533 -6.64605,-7.10381 -13.54441,-6.188" id="path3647"/>
      <path style="fill:#fdf2cf;fill-opacity:1;fill-rule:evenodd;stroke:none" d="m 425.82721,631.00589 c -5.90381,0.78938 -10.29237,4.38856 -9.80299,8.06676 0.48937,3.6782 5.66702,6.01444 11.5553,5.24087 5.90409,-0.78938 10.29265,-4.40436 9.80327,-8.08257 -0.48937,-3.66211 -5.6673,-6.01443 -11.55558,-5.22506 z" id="path3649"/>
      <path style="fill:none;stroke:#000000;stroke-width:0.67880201px;stroke-linecap:butt;stroke-linejoin:round;stroke-miterlimit:4;stroke-dasharray:none;stroke-opacity:1" d="m 425.82721,631.00589 c -5.90381,0.78938 -10.29237,4.38856 -9.80299,8.06676 0.48937,3.6782 5.66702,6.01444 11.5553,5.24087 5.90409,-0.78938 10.29265,-4.40436 9.80327,-8.08257 -0.48937,-3.66211 -5.6673,-6.01443 -11.55558,-5.22506" id="path3651"/>
      <path style="fill:#fdf2cf;fill-opacity:1;fill-rule:evenodd;stroke:none" d="m 427.13756,615.64595 c -6.53542,0 -11.8395,3.1098 -11.8395,6.93024 0,3.83597 5.30408,6.92997 11.8395,6.92997 6.53542,0 11.83951,-3.094 11.83951,-6.92997 0,-3.82044 -5.30409,-6.93024 -11.83951,-6.93024 z" id="path3653"/>
      <path style="fill:none;stroke:#000000;stroke-width:0.67880201px;stroke-linecap:butt;stroke-linejoin:round;stroke-miterlimit:4;stroke-dasharray:none;stroke-opacity:1" d="m 427.13756,615.64595 c -6.53542,0 -11.8395,3.1098 -11.8395,6.93024 0,3.83597 5.30408,6.92997 11.8395,6.92997 6.53542,0 11.83951,-3.094 11.83951,-6.92997 0,-3.82044 -5.30409,-6.93024 -11.83951,-6.93024" id="path3655"/>
      <path style="fill:#d9d9d9;fill-opacity:1;fill-rule:evenodd;stroke:none" d="m 431.55773,619.38737 c -5.90409,0.78937 -10.1346,5.55667 -9.45586,10.65558 0.67875,5.11471 6.01444,8.60326 11.90272,7.82997 5.90381,-0.78937 10.1346,-5.55667 9.45586,-10.65558 -0.67874,-5.09891 -6.01444,-8.60354 -11.90272,-7.82997 z" id="path3657"/>
      <path style="fill:#fdf2cf;fill-opacity:1;stroke:#000000;stroke-width:2.4052px;stroke-linecap:butt;stroke-linejoin:round;stroke-miterlimit:4;stroke-dasharray:none;stroke-opacity:1" clip-path="url(#clipEmfPath1-1)" d="m 486.746,143.697 c -20.92,2.797 -35.91,19.689 -33.505,37.756 2.405,18.123 21.311,30.484 42.175,27.744 20.919,-2.797 35.91,-19.689 33.505,-37.756 -2.405,-18.067 -21.311,-30.485 -42.175,-27.744" id="path3659" transform="matrix(0.28222222,0,0,0.28222222,294.18719,578.83288)"/>
      <path style="fill:#fdf2cf;fill-opacity:1;fill-rule:evenodd;stroke:none" d="m 405.95255,616.05658 c -5.9038,0.78909 -10.16621,5.27247 -9.53459,10.02397 0.63133,4.73597 5.91961,7.95613 11.8237,7.16703 5.88828,-0.77357 10.16621,-5.25695 9.53487,-10.00845 -0.63161,-4.75149 -5.93569,-7.97193 -11.82398,-7.18255 z" id="path3661"/>
      <path style="fill:none;stroke:#000000;stroke-width:0.67880201px;stroke-linecap:butt;stroke-linejoin:round;stroke-miterlimit:4;stroke-dasharray:none;stroke-opacity:1" d="m 405.95255,616.05658 c -5.9038,0.78909 -10.16621,5.27247 -9.53459,10.02397 0.63133,4.73597 5.91961,7.95613 11.8237,7.16703 5.88828,-0.77357 10.16621,-5.25695 9.53487,-10.00845 -0.63161,-4.75149 -5.93569,-7.97193 -11.82398,-7.18255" id="path3663"/>
      <path style="fill:#fdf2cf;fill-opacity:1;fill-rule:evenodd;stroke:none" d="m 395.97571,621.59745 c -5.52506,0 -9.99236,3.0782 -9.99236,6.89836 0,3.82044 4.4673,6.89864 9.99236,6.89864 5.50955,0 9.99265,-3.0782 9.99265,-6.89864 0,-3.82016 -4.4831,-6.89836 -9.99265,-6.89836 z" id="path3665"/>
      <path style="fill:none;stroke:#000000;stroke-width:0.67880201px;stroke-linecap:butt;stroke-linejoin:round;stroke-miterlimit:4;stroke-dasharray:none;stroke-opacity:1" d="m 395.97571,621.59745 c -5.52506,0 -9.99236,3.0782 -9.99236,6.89836 0,3.82044 4.4673,6.89864 9.99236,6.89864 5.50955,0 9.99265,-3.0782 9.99265,-6.89864 0,-3.82016 -4.4831,-6.89836 -9.99265,-6.89836" id="path3667"/>
      <path style="fill:#fdf2cf;fill-opacity:1;fill-rule:evenodd;stroke:none" d="m 412.17245,621.92878 c -14.11281,2.8575 -24.61063,9.88229 -23.44251,15.70736 1.18392,5.80926 13.57602,8.22452 27.70463,5.3673 14.12861,-2.8417 24.62643,-9.88229 23.4425,-15.69156 -1.1684,-5.82506 -13.5763,-8.22452 -27.70462,-5.3831 z" id="path3669"/>
    </g>
    <path style="font-variation-settings:normal;opacity:1;vector-effect:none;fill:none;fill-opacity:1;fill-rule:evenodd;stroke:#000000;stroke-width:0.529167;stroke-linecap:butt;stroke-linejoin:miter;stroke-miterlimit:4;stroke-dasharray:none;stroke-dashoffset:0;stroke-opacity:1;marker-end:url(#marker3689);stop-color:#000000;stop-opacity:1" d="M 37.041667,52.916667 H 50.270833" id="path3685"/>
    <text style="font-size: 14.2436px; line-height: 13.3534px; font-family: Inconsolata; text-align: center; text-decoration: none rgb(0, 0, 0); letter-spacing: 0px; word-spacing: 0px; text-anchor: middle; fill: rgb(0, 0, 0); stroke: none; stroke-width: 0.264583px; stroke-linecap: butt; stroke-linejoin: miter; stroke-miterlimit: 10; stroke-opacity: 1; stop-color: rgb(0, 0, 0); white-space: pre;" x="-150.7202" y="88.836349" id="text5529"><tspan id="tspan5527" x="-150.7202" y="88.836349" style="font-style:normal;font-variant:normal;font-weight:normal;font-stretch:normal;font-family:'Liberation Sans';-inkscape-font-specification:'Liberation Sans';text-align:start;text-anchor:start;stroke:none;stroke-width:0.264583px">Fast clock</tspan></text>
    <text style="font-size: 9.56715px; line-height: 8.96922px; font-family: Inconsolata; text-align: center; text-decoration: none rgb(0, 0, 0); letter-spacing: 0px; word-spacing: 0px; text-anchor: middle; fill: rgb(0, 0, 0); stroke: rgb(0, 0, 0); stroke-width: 0.264583px; stroke-linecap: butt; stroke-linejoin: miter; stroke-miterlimit: 10; stroke-opacity: 1; stop-color: rgb(0, 0, 0); white-space: pre;" x="-142.875" y="52.916664" id="text5535"/>
    <text style="font-size: 14.2436px; line-height: 13.3534px; font-family: Inconsolata; text-align: center; text-decoration: none rgb(0, 0, 0); letter-spacing: 0px; word-spacing: 0px; text-anchor: middle; fill: rgb(0, 0, 0); stroke: none; stroke-width: 0.264583px; stroke-linecap: butt; stroke-linejoin: miter; stroke-miterlimit: 10; stroke-opacity: 1; stop-color: rgb(0, 0, 0); white-space: pre;" x="-150.7202" y="51.794689" id="text5539"><tspan id="tspan5537" x="-150.7202" y="51.794689" style="font-style:normal;font-variant:normal;font-weight:normal;font-stretch:normal;font-family:'Liberation Sans';-inkscape-font-specification:'Liberation Sans';text-align:start;text-anchor:start;stroke:none;stroke-width:0.264583px">Async</tspan></text>
    <text style="font-size: 14.2436px; line-height: 13.3534px; font-family: Inconsolata; text-align: center; text-decoration: none rgb(0, 0, 0); letter-spacing: 0px; word-spacing: 0px; text-anchor: middle; fill: rgb(0, 0, 0); stroke: none; stroke-width: 0.264583px; stroke-linecap: butt; stroke-linejoin: miter; stroke-miterlimit: 10; stroke-opacity: 1; stop-color: rgb(0, 0, 0); white-space: pre;" x="190.61548" y="221.20451" id="text5584"><tspan id="tspan5582" x="190.61548" y="221.20451" style="font-style:normal;font-variant:normal;font-weight:normal;font-stretch:normal;font-family:'Liberation Sans';-inkscape-font-specification:'Liberation Sans';text-align:end;text-anchor:end;stroke:none;stroke-width:0.264583px">Slow clock</tspan></text>
    <rect style="color:#000000;overflow:visible;opacity:1;vector-effect:none;fill:#ffffff;fill-opacity:1;fill-rule:evenodd;stroke:none;stroke-width:0.529167;stroke-linecap:butt;stroke-linejoin:miter;stroke-miterlimit:4;stroke-dasharray:0.529167, 1.58751;stroke-dashoffset:0;stroke-opacity:1;filter:url(#filter5630)" id="rect5608" width="26.458332" height="84.666664" x="71.4375" y="42.333332" transform="matrix(1,0,0,1.2212524,0,-8.5347387)"/>
    <text style="font-size: 15.6112px; line-height: 14.6356px; font-family: Inconsolata; text-align: center; text-decoration: none rgb(0, 0, 0); letter-spacing: 0px; word-spacing: 0px; text-anchor: middle; fill: rgb(0, 0, 0); stroke: rgb(0, 0, 0); stroke-width: 0.264583px; stroke-linecap: butt; stroke-linejoin: miter; stroke-miterlimit: 10; stroke-opacity: 1; stop-color: rgb(0, 0, 0); white-space: pre;" x="-85.831535" y="88.318329" id="text5588" transform="matrix(0,-0.99545822,1.0045625,0,0,0)"><tspan id="tspan5586" x="-85.831535" y="88.318329" style="font-style:normal;font-variant:normal;font-weight:normal;font-stretch:normal;font-family:'Liberation Sans';-inkscape-font-specification:'Liberation Sans';stroke:none;stroke-width:0.264583px">Sync Logic</tspan></text>
    <path style="font-variation-settings:normal;opacity:1;vector-effect:none;fill:none;fill-opacity:1;fill-rule:evenodd;stroke:#000000;stroke-width:0.529167;stroke-linecap:butt;stroke-linejoin:miter;stroke-miterlimit:4;stroke-dasharray:none;stroke-dashoffset:0;stroke-opacity:1;marker-end:url(#marker2901);stop-color:#000000;stop-opacity:1" d="M 53.716683,147.63753 H -20.366651" id="path2231"/>
    <path style="font-variation-settings:normal;opacity:1;vector-effect:none;fill:none;fill-opacity:1;fill-rule:evenodd;stroke:#000000;stroke-width:0.529167;stroke-linecap:butt;stroke-linejoin:miter;stroke-miterlimit:4;stroke-dasharray:none;stroke-dashoffset:0;stroke-opacity:1;marker-end:url(#marker2639);stop-color:#000000;stop-opacity:1" d="M -21.166666,116.41668 H 52.916668" id="path2503"/>
    <text style="font-size:9.56715px;line-height:8.96922px;font-family:Inconsolata;-inkscape-font-specification:Inconsolata;text-align:end;text-decoration:none;text-decoration-line:none;text-decoration-color:#000000;letter-spacing:0px;word-spacing:0px;text-anchor:end;white-space:pre;inline-size:82.0419;fill:#000000;stroke:none;stroke-width:0.264583px;stroke-linecap:butt;stroke-linejoin:miter;stroke-miterlimit:10;stroke-opacity:1" x="-24.597935" y="118.78903" id="text3001"><tspan x="-24.597935" y="118.78903" id="tspan4635"><tspan style="font-size:8.46667px" id="tspan4633">lc_escalate_en_i</tspan></tspan></text>
    <text style="font-size:9.56715px;line-height:8.96922px;font-family:Inconsolata;-inkscape-font-specification:Inconsolata;text-align:end;text-decoration:none;text-decoration-line:none;text-decoration-color:#000000;letter-spacing:0px;word-spacing:0px;text-anchor:end;white-space:pre;inline-size:116.979;fill:#000000;stroke:none;stroke-width:0.264583px;stroke-linecap:butt;stroke-linejoin:miter;stroke-miterlimit:10;stroke-opacity:1" x="-24.597935" y="139.95572" id="text2463"><tspan x="-24.597935" y="139.95572" id="tspan4639"><tspan style="font-size:8.46667px" id="tspan4637">intr_wdog_timer_bark_o</tspan></tspan></text>
    <path style="font-variation-settings:normal;opacity:1;vector-effect:none;fill:none;fill-opacity:1;fill-rule:evenodd;stroke:#000000;stroke-width:0.529167;stroke-linecap:butt;stroke-linejoin:miter;stroke-miterlimit:4;stroke-dasharray:none;stroke-dashoffset:0;stroke-opacity:1;marker-end:url(#marker2901);stop-color:#000000;stop-opacity:1" d="M 53.641 161.511 L -19.724 161.671" id="path4442"/>
    <text style="font-size:9.56715px;line-height:8.96922px;font-family:Inconsolata;-inkscape-font-specification:Inconsolata;text-align:end;text-decoration:none;text-decoration-line:none;text-decoration-color:#000000;letter-spacing:0px;word-spacing:0px;text-anchor:end;white-space:pre;inline-size:116.979;fill:#000000;stroke:none;stroke-width:0.264583px;stroke-linecap:butt;stroke-linejoin:miter;stroke-miterlimit:10;stroke-opacity:1" x="-24.171" y="148.332" id="text-1"><tspan x="-24.171" y="148.332" id="tspan-1" style="font-size: 9.6px; word-spacing: 0px;"><tspan style="font-size: 8.5px; word-spacing: 0px;" id="tspan-2">nmi_wdog_timer_bark_o</tspan></tspan></text>
    <text style="font-size:9.56715px;line-height:8.96922px;font-family:Inconsolata;-inkscape-font-specification:Inconsolata;text-align:end;text-decoration:none;text-decoration-line:none;text-decoration-color:#000000;letter-spacing:0px;word-spacing:0px;text-anchor:end;white-space:pre;inline-size:116.979;fill:#000000;stroke:none;stroke-width:0.264583px;stroke-linecap:butt;stroke-linejoin:miter;stroke-miterlimit:10;stroke-opacity:1" x="-23.987" y="156.896" id="text-2"><tspan x="-23.987" y="156.896" id="tspan-3" style="font-size: 9.6px; word-spacing: 0px;"><tspan style="font-size: 8.5px; word-spacing: 0px;" id="tspan-4">alert_rx_i</tspan></tspan></text>
    <text style="font-size:9.56715px;line-height:8.96922px;font-family:Inconsolata;-inkscape-font-specification:Inconsolata;text-align:end;text-decoration:none;text-decoration-line:none;text-decoration-color:#000000;letter-spacing:0px;word-spacing:0px;text-anchor:end;white-space:pre;inline-size:116.979;fill:#000000;stroke:none;stroke-width:0.264583px;stroke-linecap:butt;stroke-linejoin:miter;stroke-miterlimit:10;stroke-opacity:1" x="-23.707" y="164.661" id="text-3"><tspan x="-23.707" y="164.661" id="tspan-5" style="font-size: 9.6px; word-spacing: 0px;"><tspan style="font-size: 8.5px; word-spacing: 0px;" id="tspan-6">alert_tx_o</tspan></tspan></text>
  </g>
</svg>