<svg version="1.1" viewBox="0.0 0.0 1280.0 960.0" fill="none" stroke="none" stroke-linecap="square" stroke-miterlimit="10" xmlns:xlink="http://www.w3.org/1999/xlink" xmlns="http://www.w3.org/2000/svg"><clipPath id="p.0"><path d="m0 0l1280.0 0l0 960.0l-1280.0 0l0 -960.0z" clip-rule="nonzero"/></clipPath><g clip-path="url(#p.0)"><path fill="#000000" fill-opacity="0.0" d="m0 0l1280.0 0l0 960.0l-1280.0 0z" fill-rule="evenodd"/><path fill="#cfe2f3" d="m86.54855 176.11548l735.0237 0l0 64.12599l-735.0237 0z" fill-rule="evenodd"/><path stroke="#000000" stroke-width="1.0" stroke-linejoin="round" stroke-linecap="butt" d="m86.54855 176.11548l735.0237 0l0 64.12599l-735.0237 0z" fill-rule="evenodd"/><path fill="#000000" d="m425.5213 203.18723l-6.515625 0l0 4.96875l6.171875 0l0 1.734375l-6.171875 0l0 6.828125l-2.125 0l0 -15.3125l8.640625 0l0 1.78125zm11.5859375 13.53125l-0.046875 -1.578125q-0.96875 0.9375 -1.953125 1.375q-0.984375 0.421875 -2.078125 0.421875q-1.015625 0 -1.734375 -0.265625q-0.703125 -0.265625 -1.171875 -0.703125q-0.453125 -0.453125 -0.671875 -1.0625q-0.21875 -0.609375 -0.21875 -1.328125q0 -1.765625 1.3125 -2.765625q1.328125 -1.015625 3.90625 -1.015625l2.4375 0l0 -1.03125q0 -1.03125 -0.671875 -1.65625q-0.671875 -0.640625 -2.046875 -0.640625q-0.984375 0 -1.953125 0.234375q-0.96875 0.21875 -2.0 0.625l0 -1.84375q0.390625 -0.140625 0.859375 -0.265625q0.46875 -0.140625 1.0 -0.234375q0.53125 -0.109375 1.09375 -0.171875q0.578125 -0.078125 1.171875 -0.078125q1.0625 0 1.921875 0.234375q0.859375 0.234375 1.4375 0.71875q0.59375 0.484375 0.90625 1.21875q0.328125 0.71875 0.328125 1.703125l0 8.109375l-1.828125 0zm-0.21875 -5.359375l-2.59375 0q-0.765625 0 -1.3125 0.15625q-0.546875 0.15625 -0.90625 0.4375q-0.34375 0.28125 -0.515625 0.671875q-0.171875 0.390625 -0.171875 0.875q0 0.34375 0.09375 0.65625q0.109375 0.3125 0.34375 0.5625q0.234375 0.234375 0.609375 0.375q0.375 0.140625 0.921875 0.140625q0.703125 0 1.609375 -0.421875q0.90625 -0.4375 1.921875 -1.359375l0 -2.09375zm15.9140625 -0.734375q0 1.46875 -0.40625 2.625q-0.40625 1.140625 -1.15625 1.953125q-0.734375 0.796875 -1.8125 1.234375q-1.0625 0.421875 -2.390625 0.421875q-1.046875 0 -2.140625 -0.203125q-1.09375 -0.203125 -2.15625 -0.625l0 -15.875l2.046875 0l0 4.5625l-0.09375 2.171875q0.875 -1.171875 1.875 -1.65625q1.0 -0.5 2.15625 -0.5q1.0 0 1.765625 0.421875q0.765625 0.421875 1.28125 1.203125q0.515625 0.765625 0.765625 1.84375q0.265625 1.078125 0.265625 2.421875zm-2.09375 0.09375q0 -0.921875 -0.140625 -1.6875q-0.125 -0.78125 -0.421875 -1.328125q-0.296875 -0.5625 -0.75 -0.875q-0.453125 -0.3125 -1.09375 -0.3125q-0.375 0 -0.78125 0.125q-0.390625 0.125 -0.828125 0.421875q-0.421875 0.28125 -0.90625 0.765625q-0.46875 0.46875 -1.0 1.171875l0 5.703125q0.59375 0.234375 1.203125 0.375q0.625 0.125 1.1875 0.125q0.703125 0 1.34375 -0.21875q0.640625 -0.21875 1.125 -0.734375q0.484375 -0.53125 0.765625 -1.390625q0.296875 -0.859375 0.296875 -2.140625zm5.7109375 -5.765625l1.859375 0l0.0625 2.171875q1.046875 -1.265625 2.046875 -1.828125q1.015625 -0.5625 2.046875 -0.5625q1.828125 0 2.765625 1.1875q0.953125 1.1875 0.890625 3.515625l-2.0625 0q0.03125 -1.546875 -0.453125 -2.234375q-0.484375 -0.703125 -1.421875 -0.703125q-0.421875 0 -0.84375 0.15625q-0.40625 0.140625 -0.84375 0.46875q-0.4375 0.3125 -0.9375 0.8125q-0.484375 0.5 -1.046875 1.21875l0 7.5625l-2.0625 0l0 -11.765625zm16.726562 1.6875l-3.484375 0l0 -1.6875l5.546875 0l0 10.0625l3.5 0l0 1.703125l-9.4375 0l0 -1.703125l3.875 0l0 -8.375zm0.703125 -6.625q0.34375 0 0.640625 0.125q0.296875 0.125 0.5 0.34375q0.21875 0.21875 0.34375 0.515625q0.125 0.28125 0.125 0.625q0 0.328125 -0.125 0.625q-0.125 0.28125 -0.34375 0.515625q-0.203125 0.21875 -0.5 0.34375q-0.296875 0.125 -0.640625 0.125q-0.328125 0 -0.625 -0.125q-0.296875 -0.125 -0.515625 -0.34375q-0.21875 -0.234375 -0.34375 -0.515625q-0.109375 -0.296875 -0.109375 -0.625q0 -0.34375 0.109375 -0.625q0.125 -0.296875 0.34375 -0.515625q0.21875 -0.21875 0.515625 -0.34375q0.296875 -0.125 0.625 -0.125zm17.617188 16.265625q-0.796875 0.3125 -1.640625 0.453125q-0.828125 0.15625 -1.71875 0.15625q-2.796875 0 -4.296875 -1.515625q-1.5 -1.515625 -1.5 -4.421875q0 -1.390625 0.421875 -2.53125q0.4375 -1.140625 1.21875 -1.9375q0.796875 -0.8125 1.875 -1.25q1.09375 -0.453125 2.40625 -0.453125q0.921875 0 1.71875 0.140625q0.796875 0.125 1.515625 0.421875l0 1.9375q-0.765625 -0.390625 -1.5625 -0.578125q-0.78125 -0.1875 -1.625 -0.1875q-0.78125 0 -1.484375 0.3125q-0.6875 0.296875 -1.21875 0.859375q-0.53125 0.5625 -0.84375 1.375q-0.296875 0.796875 -0.296875 1.8125q0 2.140625 1.03125 3.203125q1.046875 1.0625 2.890625 1.0625q0.828125 0 1.609375 -0.1875q0.78125 -0.1875 1.5 -0.5625l0 1.890625z" fill-rule="nonzero"/><path fill="#cfe2f3" d="m86.54855 272.66666l302.3622 0l0 408.25198l-302.3622 0z" fill-rule="evenodd"/><path stroke="#000000" stroke-width="1.0" stroke-linejoin="round" stroke-linecap="butt" d="m86.54855 272.66666l302.3622 0l0 408.25198l-302.3622 0z" fill-rule="evenodd"/><path fill="#000000" d="m116.82341 652.4274l-6.515625 0l0 4.96875l6.171875 0l0 1.734375l-6.171875 0l0 6.828125l-2.125 0l0 -15.3125l8.640625 0l0 1.78125zm8.0390625 -1.359375l-3.484375 0l0 -1.671875l5.546875 0l0 14.859375l3.5 0l0 1.703125l-9.4375 0l0 -1.703125l3.875 0l0 -13.1875zm16.742188 14.890625l-0.046875 -1.578125q-0.96875 0.9375 -1.953125 1.375q-0.984375 0.421875 -2.078125 0.421875q-1.015625 0 -1.734375 -0.265625q-0.703125 -0.265625 -1.171875 -0.703125q-0.453125 -0.453125 -0.671875 -1.0625q-0.21875 -0.609375 -0.21875 -1.328125q0 -1.765625 1.3125 -2.765625q1.328125 -1.015625 3.90625 -1.015625l2.4375 0l0 -1.03125q0 -1.03125 -0.671875 -1.65625q-0.671875 -0.640625 -2.046875 -0.640625q-0.984375 0 -1.953125 0.234375q-0.96875 0.21875 -2.0 0.625l0 -1.84375q0.390625 -0.140625 0.859375 -0.265625q0.46875 -0.140625 1.0 -0.234375q0.53125 -0.109375 1.09375 -0.171875q0.578125 -0.078125 1.171875 -0.078125q1.0625 0 1.921875 0.234375q0.859375 0.234375 1.4375 0.71875q0.59375 0.484375 0.90625 1.21875q0.328125 0.71875 0.328125 1.703125l0 8.109375l-1.828125 0zm-0.21875 -5.359375l-2.59375 0q-0.765625 0 -1.3125 0.15625q-0.546875 0.15625 -0.90625 0.4375q-0.34375 0.28125 -0.515625 0.671875q-0.171875 0.390625 -0.171875 0.875q0 0.34375 0.09375 0.65625q0.109375 0.3125 0.34375 0.5625q0.234375 0.234375 0.609375 0.375q0.375 0.140625 0.921875 0.140625q0.703125 0 1.609375 -0.421875q0.90625 -0.4375 1.921875 -1.359375l0 -2.09375zm15.1640625 2.140625q0 0.625 -0.21875 1.125q-0.203125 0.484375 -0.5625 0.875q-0.359375 0.375 -0.84375 0.640625q-0.484375 0.265625 -1.03125 0.453125q-0.53125 0.171875 -1.109375 0.25q-0.578125 0.09375 -1.125 0.09375q-1.203125 0 -2.203125 -0.109375q-1.0 -0.109375 -1.953125 -0.34375l0 -1.875q1.03125 0.296875 2.046875 0.453125q1.015625 0.140625 2.03125 0.140625q1.453125 0 2.15625 -0.390625q0.703125 -0.40625 0.703125 -1.140625q0 -0.3125 -0.109375 -0.5625q-0.109375 -0.265625 -0.40625 -0.484375q-0.28125 -0.234375 -0.90625 -0.46875q-0.609375 -0.25 -1.671875 -0.578125q-0.796875 -0.234375 -1.484375 -0.53125q-0.671875 -0.296875 -1.171875 -0.703125q-0.484375 -0.40625 -0.765625 -0.953125q-0.28125 -0.5625 -0.28125 -1.3125q0 -0.484375 0.234375 -1.0625q0.234375 -0.59375 0.78125 -1.09375q0.546875 -0.515625 1.484375 -0.84375q0.9375 -0.34375 2.34375 -0.34375q0.6875 0 1.53125 0.078125q0.84375 0.078125 1.765625 0.265625l0 1.8125q-0.96875 -0.234375 -1.828125 -0.34375q-0.859375 -0.109375 -1.484375 -0.109375q-0.765625 0 -1.296875 0.125q-0.515625 0.109375 -0.84375 0.3125q-0.3125 0.203125 -0.453125 0.484375q-0.140625 0.28125 -0.140625 0.59375q0 0.3125 0.125 0.578125q0.125 0.25 0.453125 0.5q0.328125 0.234375 0.921875 0.484375q0.609375 0.234375 1.5625 0.515625q1.046875 0.296875 1.765625 0.640625q0.71875 0.328125 1.15625 0.734375q0.453125 0.40625 0.640625 0.921875q0.1875 0.515625 0.1875 1.171875zm13.3359375 3.21875l-2.03125 0l0 -7.515625q0 -1.359375 -0.515625 -2.03125q-0.5 -0.671875 -1.453125 -0.671875q-0.40625 0 -0.765625 0.109375q-0.359375 0.109375 -0.75 0.390625q-0.390625 0.265625 -0.84375 0.734375q-0.453125 0.46875 -1.046875 1.171875l0 7.8125l-2.046875 0l0 -16.5625l2.046875 0l0 4.796875l-0.078125 1.84375q0.484375 -0.5625 0.9375 -0.953125q0.46875 -0.40625 0.921875 -0.640625q0.46875 -0.25 0.953125 -0.359375q0.484375 -0.109375 1.0 -0.109375q1.75 0 2.703125 1.078125q0.96875 1.078125 0.96875 3.234375l0 7.671875zm26.96875 -10.625q0 0.9375 -0.359375 1.859375q-0.34375 0.90625 -1.078125 1.640625q-0.734375 0.71875 -1.890625 1.171875q-1.140625 0.453125 -2.734375 0.453125l-1.90625 0l0 5.5l-2.078125 0l0 -15.3125l4.3125 0q1.125 0 2.171875 0.25q1.046875 0.25 1.828125 0.8125q0.796875 0.5625 1.265625 1.453125q0.46875 0.890625 0.46875 2.171875zm-2.171875 0.09375q0 -1.484375 -0.96875 -2.265625q-0.953125 -0.78125 -2.6875 -0.78125l-2.140625 0l0 6.296875l1.953125 0q1.84375 0 2.84375 -0.796875q1.0 -0.8125 1.0 -2.453125zm14.7890625 10.53125l-2.03125 0l0 -7.515625q0 -1.359375 -0.515625 -2.03125q-0.5 -0.671875 -1.453125 -0.671875q-0.40625 0 -0.765625 0.109375q-0.359375 0.109375 -0.75 0.390625q-0.390625 0.265625 -0.84375 0.734375q-0.453125 0.46875 -1.046875 1.171875l0 7.8125l-2.046875 0l0 -16.5625l2.046875 0l0 4.796875l-0.078125 1.84375q0.484375 -0.5625 0.9375 -0.953125q0.46875 -0.40625 0.921875 -0.640625q0.46875 -0.25 0.953125 -0.359375q0.484375 -0.109375 1.0 -0.109375q1.75 0 2.703125 1.078125q0.96875 1.078125 0.96875 3.234375l0 7.671875zm14.2109375 -11.765625l-4.015625 10.515625q-0.609375 1.609375 -1.28125 2.765625q-0.65625 1.171875 -1.453125 1.90625q-0.78125 0.75 -1.71875 1.09375q-0.9375 0.359375 -2.09375 0.359375q-0.296875 0 -0.546875 -0.015625q-0.25 0 -0.546875 -0.03125l0 -1.84375q0.265625 0.03125 0.5625 0.0625q0.3125 0.03125 0.65625 0.03125q0.5625 0 1.046875 -0.171875q0.484375 -0.15625 0.90625 -0.53125q0.4375 -0.375 0.828125 -0.96875q0.40625 -0.578125 0.78125 -1.40625l-4.6875 -11.765625l2.3125 0l2.984375 7.78125l0.59375 1.828125l0.671875 -1.875l2.765625 -7.734375l2.234375 0zm25.703125 11.1875q-1.828125 0.765625 -3.84375 0.765625q-3.25 0 -5.0 -1.9375q-1.734375 -1.9375 -1.734375 -5.734375q0 -1.84375 0.484375 -3.328125q0.484375 -1.5 1.375 -2.53125q0.890625 -1.03125 2.15625 -1.59375q1.265625 -0.5625 2.828125 -0.5625q1.0625 0 1.96875 0.1875q0.921875 0.171875 1.765625 0.546875l0 2.046875q-0.828125 -0.453125 -1.71875 -0.6875q-0.890625 -0.25 -1.9375 -0.25q-1.078125 0 -1.953125 0.40625q-0.875 0.40625 -1.484375 1.171875q-0.609375 0.765625 -0.9375 1.875q-0.328125 1.109375 -0.328125 2.53125q0 2.96875 1.203125 4.484375q1.203125 1.515625 3.546875 1.515625q0.984375 0 1.875 -0.234375q0.90625 -0.234375 1.734375 -0.640625l0 1.96875zm13.664078 -5.40625q0 1.375 -0.390625 2.515625q-0.390625 1.140625 -1.125 1.96875q-0.71875 0.8125 -1.765625 1.265625q-1.03125 0.453125 -2.359375 0.453125q-1.265625 0 -2.2656403 -0.390625q-1.0 -0.40625 -1.703125 -1.15625q-0.703125 -0.765625 -1.078125 -1.890625q-0.359375 -1.125 -0.359375 -2.59375q0 -1.375 0.390625 -2.5q0.390625 -1.140625 1.109375 -1.953125q0.734375 -0.8125 1.765625 -1.265625q1.0468903 -0.453125 2.3750153 -0.453125q1.265625 0 2.265625 0.40625q1.0 0.390625 1.6875 1.140625q0.703125 0.75 1.078125 1.875q0.375 1.125 0.375 2.578125zm-2.09375 0.09375q0 -1.078125 -0.25 -1.890625q-0.234375 -0.828125 -0.6875 -1.359375q-0.4375 -0.546875 -1.078125 -0.828125q-0.625 -0.28125 -1.421875 -0.28125q-0.90625 0 -1.5625153 0.359375q-0.640625 0.359375 -1.0625 0.96875q-0.421875 0.59375 -0.609375 1.390625q-0.1875 0.78125 -0.1875 1.640625q0 1.09375 0.234375 1.921875q0.234375 0.8125 0.671875 1.359375q0.453125 0.546875 1.0781403 0.828125q0.640625 0.265625 1.4375 0.265625q0.921875 0 1.5625 -0.359375q0.65625 -0.359375 1.0625 -0.953125q0.421875 -0.59375 0.609375 -1.375q0.203125 -0.796875 0.203125 -1.6875zm5.0390625 -5.875l1.8125 0l0.09375 1.890625q0.515625 -0.609375 0.984375 -1.0q0.484375 -0.40625 0.9375 -0.65625q0.46875 -0.25 0.953125 -0.34375q0.484375 -0.109375 1.0 -0.109375q1.8125 0 2.734375 1.078125q0.9375 1.078125 0.9375 3.234375l0 7.671875l-2.03125 0l0 -7.515625q0 -1.375 -0.515625 -2.03125q-0.515625 -0.671875 -1.53125 -0.671875q-0.375 0 -0.734375 0.109375q-0.359375 0.109375 -0.75 0.390625q-0.390625 0.265625 -0.84375 0.734375q-0.4375 0.46875 -1.0 1.171875l0 7.8125l-2.046875 0l0 -11.765625zm22.679688 11.59375q-0.6875 0.1875 -1.4375 0.265625q-0.734375 0.078125 -1.5 0.078125q-2.203125 0 -3.296875 -1.0q-1.09375 -1.015625 -1.09375 -3.09375l0 -6.140625l-3.296875 0l0 -1.703125l3.296875 0l0 -3.234375l2.046875 -0.53125l0 3.765625l5.28125 0l0 1.703125l-5.28125 0l0 5.984375q0 1.265625 0.671875 1.890625q0.671875 0.625 1.984375 0.625q0.5625 0 1.21875 -0.078125q0.671875 -0.09375 1.40625 -0.28125l0 1.75zm4.1953125 -11.59375l1.859375 0l0.0625 2.171875q1.046875 -1.265625 2.046875 -1.828125q1.015625 -0.5625 2.046875 -0.5625q1.828125 0 2.765625 1.1875q0.953125 1.1875 0.890625 3.515625l-2.0625 0q0.03125 -1.546875 -0.453125 -2.234375q-0.484375 -0.703125 -1.421875 -0.703125q-0.421875 0 -0.84375 0.15625q-0.40625 0.140625 -0.84375 0.46875q-0.4375 0.3125 -0.9375 0.8125q-0.484375 0.5 -1.046875 1.21875l0 7.5625l-2.0625 0l0 -11.765625zm22.960938 5.78125q0 1.375 -0.390625 2.515625q-0.390625 1.140625 -1.125 1.96875q-0.71875 0.8125 -1.765625 1.265625q-1.03125 0.453125 -2.359375 0.453125q-1.265625 0 -2.265625 -0.390625q-1.0 -0.40625 -1.703125 -1.15625q-0.703125 -0.765625 -1.078125 -1.890625q-0.359375 -1.125 -0.359375 -2.59375q0 -1.375 0.390625 -2.5q0.390625 -1.140625 1.109375 -1.953125q0.734375 -0.8125 1.765625 -1.265625q1.046875 -0.453125 2.375 -0.453125q1.265625 0 2.265625 0.40625q1.0 0.390625 1.6875 1.140625q0.703125 0.75 1.078125 1.875q0.375 1.125 0.375 2.578125zm-2.09375 0.09375q0 -1.078125 -0.25 -1.890625q-0.234375 -0.828125 -0.6875 -1.359375q-0.4375 -0.546875 -1.078125 -0.828125q-0.625 -0.28125 -1.421875 -0.28125q-0.90625 0 -1.5625 0.359375q-0.640625 0.359375 -1.0625 0.96875q-0.421875 0.59375 -0.609375 1.390625q-0.1875 0.78125 -0.1875 1.640625q0 1.09375 0.234375 1.921875q0.234375 0.8125 0.671875 1.359375q0.453125 0.546875 1.078125 0.828125q0.640625 0.265625 1.4375 0.265625q0.921875 0 1.5625 -0.359375q0.65625 -0.359375 1.0625 -0.953125q0.421875 -0.59375 0.609375 -1.375q0.203125 -0.796875 0.203125 -1.6875zm9.0546875 -9.0l-3.484375 0l0 -1.671875l5.546875 0l0 14.859375l3.5 0l0 1.703125l-9.4375 0l0 -1.703125l3.875 0l0 -13.1875zm13.1953125 0l-3.484375 0l0 -1.671875l5.546875 0l0 14.859375l3.5 0l0 1.703125l-9.4375 0l0 -1.703125l3.875 0l0 -13.1875zm19.117157 8.390625q0 0.421875 -0.015625 0.71875q0 0.296875 -0.03125 0.546875l-8.265625 0q0 1.8125 1.0 2.78125q1.015625 0.96875 2.921875 0.96875q0.515625 0 1.03125 -0.046875q0.515625 -0.046875 0.984375 -0.109375q0.484375 -0.078125 0.921875 -0.15625q0.453125 -0.09375 0.828125 -0.203125l0 1.6875q-0.84375 0.234375 -1.890625 0.375q-1.046875 0.15625 -2.171875 0.15625q-1.515625 0 -2.609375 -0.40625q-1.078125 -0.421875 -1.78125 -1.203125q-0.6875 -0.78125 -1.03125 -1.90625q-0.328125 -1.140625 -0.328125 -2.5625q0 -1.25 0.359375 -2.34375q0.359375 -1.109375 1.03125 -1.953125q0.6875 -0.84375 1.6875 -1.328125q1.0 -0.5 2.265625 -0.5q1.234375 0 2.171875 0.390625q0.953125 0.390625 1.59375 1.109375q0.65625 0.703125 0.984375 1.71875q0.34375 1.0 0.34375 2.265625zm-2.125 -0.296875q0.046875 -0.78125 -0.140625 -1.4375q-0.1875 -0.65625 -0.59375 -1.125q-0.390625 -0.46875 -0.984375 -0.71875q-0.578125 -0.265625 -1.34375 -0.265625q-0.671875 0 -1.21875 0.265625q-0.546875 0.25 -0.953125 0.71875q-0.390625 0.46875 -0.640625 1.125q-0.25 0.65625 -0.3125 1.4375l6.1875 0zm5.8671875 -4.96875l1.859375 0l0.0625 2.171875q1.046875 -1.265625 2.046875 -1.828125q1.015625 -0.5625 2.046875 -0.5625q1.828125 0 2.765625 1.1875q0.953125 1.1875 0.890625 3.515625l-2.0625 0q0.03125 -1.546875 -0.453125 -2.234375q-0.484375 -0.703125 -1.421875 -0.703125q-0.421875 0 -0.84375 0.15625q-0.40625 0.140625 -0.84375 0.46875q-0.4375 0.3125 -0.9375 0.8125q-0.484375 0.5 -1.046875 1.21875l0 7.5625l-2.0625 0l0 -11.765625z" fill-rule="nonzero"/><path fill="#cfe2f3" d="m520.22833 271.49606l302.36224 0l0 137.44882l-302.36224 0z" fill-rule="evenodd"/><path stroke="#000000" stroke-width="1.0" stroke-linejoin="round" stroke-linecap="butt" d="m520.22833 271.49606l302.36224 0l0 137.44882l-302.36224 0z" fill-rule="evenodd"/><path fill="#000000" d="m576.8938 380.45364l-6.515625 0l0 4.96875l6.171875 0l0 1.734375l-6.171875 0l0 6.828125l-2.125 0l0 -15.3125l8.640625 0l0 1.78125zm8.0390625 -1.359375l-3.484375 0l0 -1.671875l5.546875 0l0 14.859375l3.5 0l0 1.703125l-9.4375 0l0 -1.703125l3.875 0l0 -13.1875zm16.742188 14.890625l-0.046875 -1.578125q-0.96875 0.9375 -1.953125 1.375q-0.984375 0.421875 -2.078125 0.421875q-1.015625 0 -1.734375 -0.265625q-0.703125 -0.265625 -1.171875 -0.703125q-0.453125 -0.453125 -0.671875 -1.0625q-0.21875 -0.609375 -0.21875 -1.328125q0 -1.765625 1.3125 -2.765625q1.328125 -1.015625 3.90625 -1.015625l2.4375 0l0 -1.03125q0 -1.03125 -0.671875 -1.65625q-0.671875 -0.640625 -2.046875 -0.640625q-0.984375 0 -1.953125 0.234375q-0.96875 0.21875 -2.0 0.625l0 -1.84375q0.390625 -0.140625 0.859375 -0.265625q0.46875 -0.140625 1.0 -0.234375q0.53125 -0.109375 1.09375 -0.171875q0.578125 -0.078125 1.171875 -0.078125q1.0625 0 1.921875 0.234375q0.859375 0.234375 1.4375 0.71875q0.59375 0.484375 0.90625 1.21875q0.328125 0.71875 0.328125 1.703125l0 8.109375l-1.828125 0zm-0.21875 -5.359375l-2.59375 0q-0.765625 0 -1.3125 0.15625q-0.546875 0.15625 -0.90625 0.4375q-0.34375 0.28125 -0.515625 0.671875q-0.171875 0.390625 -0.171875 0.875q0 0.34375 0.09375 0.65625q0.109375 0.3125 0.34375 0.5625q0.234375 0.234375 0.609375 0.375q0.375 0.140625 0.921875 0.140625q0.703125 0 1.609375 -0.421875q0.90625 -0.4375 1.921875 -1.359375l0 -2.09375zm15.1640625 2.140625q0 0.625 -0.21875 1.125q-0.203125 0.484375 -0.5625 0.875q-0.359375 0.375 -0.84375 0.640625q-0.484375 0.265625 -1.03125 0.453125q-0.53125 0.171875 -1.109375 0.25q-0.578125 0.09375 -1.125 0.09375q-1.203125 0 -2.203125 -0.109375q-1.0 -0.109375 -1.953125 -0.34375l0 -1.875q1.03125 0.296875 2.046875 0.453125q1.015625 0.140625 2.03125 0.140625q1.453125 0 2.15625 -0.390625q0.703125 -0.40625 0.703125 -1.140625q0 -0.3125 -0.109375 -0.5625q-0.109375 -0.265625 -0.40625 -0.484375q-0.28125 -0.234375 -0.90625 -0.46875q-0.609375 -0.25 -1.671875 -0.578125q-0.796875 -0.234375 -1.484375 -0.53125q-0.671875 -0.296875 -1.171875 -0.703125q-0.484375 -0.40625 -0.765625 -0.953125q-0.28125 -0.5625 -0.28125 -1.3125q0 -0.484375 0.234375 -1.0625q0.234375 -0.59375 0.78125 -1.09375q0.546875 -0.515625 1.484375 -0.84375q0.9375 -0.34375 2.34375 -0.34375q0.6875 0 1.53125 0.078125q0.84375 0.078125 1.765625 0.265625l0 1.8125q-0.96875 -0.234375 -1.828125 -0.34375q-0.859375 -0.109375 -1.484375 -0.109375q-0.765625 0 -1.296875 0.125q-0.515625 0.109375 -0.84375 0.3125q-0.3125 0.203125 -0.453125 0.484375q-0.140625 0.28125 -0.140625 0.59375q0 0.3125 0.125 0.578125q0.125 0.25 0.453125 0.5q0.328125 0.234375 0.921875 0.484375q0.609375 0.234375 1.5625 0.515625q1.046875 0.296875 1.765625 0.640625q0.71875 0.328125 1.15625 0.734375q0.453125 0.40625 0.640625 0.921875q0.1875 0.515625 0.1875 1.171875zm13.3359375 3.21875l-2.03125 0l0 -7.515625q0 -1.359375 -0.515625 -2.03125q-0.5 -0.671875 -1.453125 -0.671875q-0.40625 0 -0.765625 0.109375q-0.359375 0.109375 -0.75 0.390625q-0.390625 0.265625 -0.84375 0.734375q-0.453125 0.46875 -1.046875 1.171875l0 7.8125l-2.046875 0l0 -16.5625l2.046875 0l0 4.796875l-0.078125 1.84375q0.484375 -0.5625 0.9375 -0.953125q0.46875 -0.40625 0.921875 -0.640625q0.46875 -0.25 0.953125 -0.359375q0.484375 -0.109375 1.0 -0.109375q1.75 0 2.703125 1.078125q0.96875 1.078125 0.96875 3.234375l0 7.671875zm26.71875 -0.578125q-1.828125 0.765625 -3.84375 0.765625q-3.25 0 -5.0 -1.9375q-1.734375 -1.9375 -1.734375 -5.734375q0 -1.84375 0.484375 -3.328125q0.484375 -1.5 1.375 -2.53125q0.890625 -1.03125 2.15625 -1.59375q1.265625 -0.5625 2.828125 -0.5625q1.0625 0 1.96875 0.1875q0.921875 0.171875 1.765625 0.546875l0 2.046875q-0.828125 -0.453125 -1.71875 -0.6875q-0.890625 -0.25 -1.9375 -0.25q-1.078125 0 -1.953125 0.40625q-0.875 0.40625 -1.484375 1.171875q-0.609375 0.765625 -0.9375 1.875q-0.328125 1.109375 -0.328125 2.53125q0 2.96875 1.203125 4.484375q1.203125 1.515625 3.546875 1.515625q0.984375 0 1.875 -0.234375q0.90625 -0.234375 1.734375 -0.640625l0 1.96875zm13.6640625 -5.40625q0 1.375 -0.390625 2.515625q-0.390625 1.140625 -1.125 1.96875q-0.71875 0.8125 -1.765625 1.265625q-1.03125 0.453125 -2.359375 0.453125q-1.265625 0 -2.265625 -0.390625q-1.0 -0.40625 -1.703125 -1.15625q-0.703125 -0.765625 -1.078125 -1.890625q-0.359375 -1.125 -0.359375 -2.59375q0 -1.375 0.390625 -2.5q0.390625 -1.140625 1.109375 -1.953125q0.734375 -0.8125 1.765625 -1.265625q1.046875 -0.453125 2.375 -0.453125q1.265625 0 2.265625 0.40625q1.0 0.390625 1.6875 1.140625q0.703125 0.75 1.078125 1.875q0.375 1.125 0.375 2.578125zm-2.09375 0.09375q0 -1.078125 -0.25 -1.890625q-0.234375 -0.828125 -0.6875 -1.359375q-0.4375 -0.546875 -1.078125 -0.828125q-0.625 -0.28125 -1.421875 -0.28125q-0.90625 0 -1.5625 0.359375q-0.640625 0.359375 -1.0625 0.96875q-0.421875 0.59375 -0.609375 1.390625q-0.1875 0.78125 -0.1875 1.640625q0 1.09375 0.234375 1.921875q0.234375 0.8125 0.671875 1.359375q0.453125 0.546875 1.078125 0.828125q0.640625 0.265625 1.4375 0.265625q0.921875 0 1.5625 -0.359375q0.65625 -0.359375 1.0625 -0.953125q0.421875 -0.59375 0.609375 -1.375q0.203125 -0.796875 0.203125 -1.6875zm5.0390625 -5.875l1.8125 0l0.09375 1.890625q0.515625 -0.609375 0.984375 -1.0q0.484375 -0.40625 0.9375 -0.65625q0.46875 -0.25 0.953125 -0.34375q0.484375 -0.109375 1.0 -0.109375q1.8125 0 2.734375 1.078125q0.9375 1.078125 0.9375 3.234375l0 7.671875l-2.03125 0l0 -7.515625q0 -1.375 -0.515625 -2.03125q-0.515625 -0.671875 -1.53125 -0.671875q-0.375 0 -0.734375 0.109375q-0.359375 0.109375 -0.75 0.390625q-0.390625 0.265625 -0.84375 0.734375q-0.4375 0.46875 -1.0 1.171875l0 7.8125l-2.046875 0l0 -11.765625zm22.679688 11.59375q-0.6875 0.1875 -1.4375 0.265625q-0.734375 0.078125 -1.5 0.078125q-2.203125 0 -3.296875 -1.0q-1.09375 -1.015625 -1.09375 -3.09375l0 -6.140625l-3.296875 0l0 -1.703125l3.296875 0l0 -3.234375l2.046875 -0.53125l0 3.765625l5.28125 0l0 1.703125l-5.28125 0l0 5.984375q0 1.265625 0.671875 1.890625q0.671875 0.625 1.984375 0.625q0.5625 0 1.21875 -0.078125q0.671875 -0.09375 1.40625 -0.28125l0 1.75zm4.1953125 -11.59375l1.859375 0l0.0625 2.171875q1.046875 -1.265625 2.046875 -1.828125q1.015625 -0.5625 2.046875 -0.5625q1.828125 0 2.765625 1.1875q0.953125 1.1875 0.890625 3.515625l-2.0625 0q0.03125 -1.546875 -0.453125 -2.234375q-0.484375 -0.703125 -1.421875 -0.703125q-0.421875 0 -0.84375 0.15625q-0.40625 0.140625 -0.84375 0.46875q-0.4375 0.3125 -0.9375 0.8125q-0.484375 0.5 -1.046875 1.21875l0 7.5625l-2.0625 0l0 -11.765625zm22.960938 5.78125q0 1.375 -0.390625 2.515625q-0.390625 1.140625 -1.125 1.96875q-0.71875 0.8125 -1.765625 1.265625q-1.03125 0.453125 -2.359375 0.453125q-1.265625 0 -2.265625 -0.390625q-1.0 -0.40625 -1.703125 -1.15625q-0.703125 -0.765625 -1.078125 -1.890625q-0.359375 -1.125 -0.359375 -2.59375q0 -1.375 0.390625 -2.5q0.390625 -1.140625 1.109375 -1.953125q0.734375 -0.8125 1.765625 -1.265625q1.046875 -0.453125 2.375 -0.453125q1.265625 0 2.265625 0.40625q1.0 0.390625 1.6875 1.140625q0.703125 0.75 1.078125 1.875q0.375 1.125 0.375 2.578125zm-2.09375 0.09375q0 -1.078125 -0.25 -1.890625q-0.234375 -0.828125 -0.6875 -1.359375q-0.4375 -0.546875 -1.078125 -0.828125q-0.625 -0.28125 -1.421875 -0.28125q-0.90625 0 -1.5625 0.359375q-0.640625 0.359375 -1.0625 0.96875q-0.421875 0.59375 -0.609375 1.390625q-0.1875 0.78125 -0.1875 1.640625q0 1.09375 0.234375 1.921875q0.234375 0.8125 0.671875 1.359375q0.453125 0.546875 1.078125 0.828125q0.640625 0.265625 1.4375 0.265625q0.921875 0 1.5625 -0.359375q0.65625 -0.359375 1.0625 -0.953125q0.421875 -0.59375 0.609375 -1.375q0.203125 -0.796875 0.203125 -1.6875zm9.0546875 -9.0l-3.484375 0l0 -1.671875l5.546875 0l0 14.859375l3.5 0l0 1.703125l-9.4375 0l0 -1.703125l3.875 0l0 -13.1875zm13.1953125 0l-3.484375 0l0 -1.671875l5.546875 0l0 14.859375l3.5 0l0 1.703125l-9.4375 0l0 -1.703125l3.875 0l0 -13.1875zm19.117188 8.390625q0 0.421875 -0.015625 0.71875q0 0.296875 -0.03125 0.546875l-8.265625 0q0 1.8125 1.0 2.78125q1.015625 0.96875 2.921875 0.96875q0.515625 0 1.03125 -0.046875q0.515625 -0.046875 0.984375 -0.109375q0.484375 -0.078125 0.921875 -0.15625q0.453125 -0.09375 0.828125 -0.203125l0 1.6875q-0.84375 0.234375 -1.890625 0.375q-1.046875 0.15625 -2.171875 0.15625q-1.515625 0 -2.609375 -0.40625q-1.078125 -0.421875 -1.78125 -1.203125q-0.6875 -0.78125 -1.03125 -1.90625q-0.328125 -1.140625 -0.328125 -2.5625q0 -1.25 0.359375 -2.34375q0.359375 -1.109375 1.03125 -1.953125q0.6875 -0.84375 1.6875 -1.328125q1.0 -0.5 2.265625 -0.5q1.234375 0 2.171875 0.390625q0.953125 0.390625 1.59375 1.109375q0.65625 0.703125 0.984375 1.71875q0.34375 1.0 0.34375 2.265625zm-2.125 -0.296875q0.046875 -0.78125 -0.140625 -1.4375q-0.1875 -0.65625 -0.59375 -1.125q-0.390625 -0.46875 -0.984375 -0.71875q-0.578125 -0.265625 -1.34375 -0.265625q-0.671875 0 -1.21875 0.265625q-0.546875 0.25 -0.953125 0.71875q-0.390625 0.46875 -0.640625 1.125q-0.25 0.65625 -0.3125 1.4375l6.1875 0zm5.8671875 -4.96875l1.859375 0l0.0625 2.171875q1.046875 -1.265625 2.046875 -1.828125q1.015625 -0.5625 2.046875 -0.5625q1.828125 0 2.765625 1.1875q0.953125 1.1875 0.890625 3.515625l-2.0625 0q0.03125 -1.546875 -0.453125 -2.234375q-0.484375 -0.703125 -1.421875 -0.703125q-0.421875 0 -0.84375 0.15625q-0.40625 0.140625 -0.84375 0.46875q-0.4375 0.3125 -0.9375 0.8125q-0.484375 0.5 -1.046875 1.21875l0 7.5625l-2.0625 0l0 -11.765625z" fill-rule="nonzero"/><path fill="#cfe2f3" d="m107.92913 357.4919l257.5433 0l0 50.897644l-257.5433 0z" fill-rule="evenodd"/><path stroke="#000000" stroke-width="1.0" stroke-linejoin="round" stroke-linecap="butt" d="m107.92913 357.4919l257.5433 0l0 50.897644l-257.5433 0z" fill-rule="evenodd"/><path fill="#000000" d="m153.63515 381.5951q0 0.734375 -0.28125 1.453125q-0.265625 0.703125 -0.84375 1.28125q-0.5625 0.5625 -1.453125 0.921875q-0.890625 0.34375 -2.140625 0.34375l-1.46875 0l0 4.265625l-1.625 0l0 -11.90625l3.359375 0q0.875 0 1.6875 0.203125q0.8125 0.1875 1.421875 0.625q0.625 0.4375 0.984375 1.140625q0.359375 0.6875 0.359375 1.671875zm-1.6875 0.078125q0 -1.15625 -0.75 -1.765625q-0.75 -0.609375 -2.09375 -0.609375l-1.65625 0l0 4.90625l1.515625 0q1.4375 0 2.203125 -0.625q0.78125 -0.640625 0.78125 -1.90625zm4.5229187 -0.953125l1.453125 0l0.046875 1.6875q0.8125 -0.984375 1.59375 -1.421875q0.796875 -0.4375 1.59375 -0.4375q1.421875 0 2.15625 0.921875q0.734375 0.921875 0.671875 2.734375l-1.59375 0q0.015625 -1.203125 -0.359375 -1.734375q-0.375 -0.546875 -1.109375 -0.546875q-0.3125 0 -0.640625 0.109375q-0.328125 0.109375 -0.671875 0.359375q-0.328125 0.25 -0.71875 0.640625q-0.375 0.390625 -0.8125 0.953125l0 5.875l-1.609375 0l0 -9.140625zm17.851044 4.5q0 1.0625 -0.3125 1.953125q-0.296875 0.890625 -0.859375 1.53125q-0.5625 0.625 -1.375 0.96875q-0.8125 0.34375 -1.84375 0.34375q-0.984375 0 -1.765625 -0.296875q-0.765625 -0.3125 -1.3125 -0.890625q-0.546875 -0.59375 -0.828125 -1.46875q-0.28125 -0.875 -0.28125 -2.015625q0 -1.0625 0.296875 -1.9375q0.296875 -0.890625 0.859375 -1.515625q0.5625 -0.640625 1.375 -0.984375q0.8125 -0.359375 1.84375 -0.359375q0.984375 0 1.765625 0.3125q0.78125 0.296875 1.3125 0.890625q0.546875 0.578125 0.828125 1.453125q0.296875 0.875 0.296875 2.015625zm-1.625 0.0625q0 -0.84375 -0.1875 -1.46875q-0.1875 -0.640625 -0.53125 -1.0625q-0.34375 -0.421875 -0.84375 -0.640625q-0.5 -0.21875 -1.109375 -0.21875q-0.703125 0 -1.21875 0.28125q-0.5 0.28125 -0.828125 0.75q-0.3125 0.453125 -0.46875 1.078125q-0.15625 0.609375 -0.15625 1.28125q0 0.859375 0.1875 1.5q0.1875 0.625 0.53125 1.046875q0.359375 0.421875 0.84375 0.640625q0.5 0.21875 1.109375 0.21875q0.71875 0 1.21875 -0.28125q0.5 -0.28125 0.828125 -0.734375q0.328125 -0.46875 0.46875 -1.078125q0.15625 -0.625 0.15625 -1.3125zm11.288544 4.453125q-0.53125 0.140625 -1.109375 0.1875q-0.578125 0.0625 -1.171875 0.0625q-1.71875 0 -2.5625 -0.78125q-0.84375 -0.78125 -0.84375 -2.390625l0 -4.765625l-2.5625 0l0 -1.328125l2.5625 0l0 -2.515625l1.578125 -0.40625l0 2.921875l4.109375 0l0 1.328125l-4.109375 0l0 4.640625q0 0.984375 0.515625 1.46875q0.53125 0.484375 1.546875 0.484375q0.4375 0 0.953125 -0.0625q0.53125 -0.0625 1.09375 -0.21875l0 1.375zm10.851044 -4.515625q0 1.0625 -0.3125 1.953125q-0.296875 0.890625 -0.859375 1.53125q-0.5625 0.625 -1.375 0.96875q-0.8125 0.34375 -1.84375 0.34375q-0.984375 0 -1.765625 -0.296875q-0.765625 -0.3125 -1.3125 -0.890625q-0.546875 -0.59375 -0.828125 -1.46875q-0.28125 -0.875 -0.28125 -2.015625q0 -1.0625 0.296875 -1.9375q0.296875 -0.890625 0.859375 -1.515625q0.5625 -0.640625 1.375 -0.984375q0.8125 -0.359375 1.84375 -0.359375q0.984375 0 1.765625 0.3125q0.78125 0.296875 1.3125 0.890625q0.546875 0.578125 0.828125 1.453125q0.296875 0.875 0.296875 2.015625zm-1.625 0.0625q0 -0.84375 -0.1875 -1.46875q-0.1875 -0.640625 -0.53125 -1.0625q-0.34375 -0.421875 -0.84375 -0.640625q-0.5 -0.21875 -1.109375 -0.21875q-0.703125 0 -1.21875 0.28125q-0.5 0.28125 -0.828125 0.75q-0.3125 0.453125 -0.46875 1.078125q-0.15625 0.609375 -0.15625 1.28125q0 0.859375 0.1875 1.5q0.1875 0.625 0.53125 1.046875q0.359375 0.421875 0.84375 0.640625q0.5 0.21875 1.109375 0.21875q0.71875 0 1.21875 -0.28125q0.5 -0.28125 0.828125 -0.734375q0.328125 -0.46875 0.46875 -1.078125q0.15625 -0.625 0.15625 -1.3125zm11.022919 4.234375q-0.625 0.25 -1.28125 0.359375q-0.640625 0.109375 -1.328125 0.109375q-2.171875 0 -3.34375 -1.171875q-1.171875 -1.171875 -1.171875 -3.4375q0 -1.078125 0.328125 -1.953125q0.34375 -0.890625 0.953125 -1.515625q0.609375 -0.640625 1.453125 -0.984375q0.859375 -0.34375 1.875 -0.34375q0.71875 0 1.328125 0.109375q0.625 0.09375 1.1875 0.328125l0 1.515625q-0.59375 -0.3125 -1.21875 -0.453125q-0.609375 -0.140625 -1.265625 -0.140625q-0.609375 0 -1.15625 0.234375q-0.53125 0.234375 -0.9375 0.671875q-0.40625 0.421875 -0.65625 1.0625q-0.234375 0.625 -0.234375 1.421875q0 1.65625 0.796875 2.484375q0.8125 0.8125 2.25 0.8125q0.640625 0 1.25 -0.140625q0.609375 -0.140625 1.171875 -0.4375l0 1.46875zm11.116669 -4.296875q0 1.0625 -0.3125 1.953125q-0.296875 0.890625 -0.859375 1.53125q-0.5625 0.625 -1.375 0.96875q-0.8125 0.34375 -1.84375 0.34375q-0.984375 0 -1.765625 -0.296875q-0.765625 -0.3125 -1.3125 -0.890625q-0.546875 -0.59375 -0.828125 -1.46875q-0.28125 -0.875 -0.28125 -2.015625q0 -1.0625 0.296875 -1.9375q0.296875 -0.890625 0.859375 -1.515625q0.5625 -0.640625 1.375 -0.984375q0.8125 -0.359375 1.84375 -0.359375q0.984375 0 1.765625 0.3125q0.78125 0.296875 1.3125 0.890625q0.546875 0.578125 0.828125 1.453125q0.296875 0.875 0.296875 2.015625zm-1.625 0.0625q0 -0.84375 -0.1875 -1.46875q-0.1875 -0.640625 -0.53125 -1.0625q-0.34375 -0.421875 -0.84375 -0.640625q-0.5 -0.21875 -1.109375 -0.21875q-0.703125 0 -1.21875 0.28125q-0.5 0.28125 -0.828125 0.75q-0.3125 0.453125 -0.46875 1.078125q-0.15625 0.609375 -0.15625 1.28125q0 0.859375 0.1875 1.5q0.1875 0.625 0.53125 1.046875q0.359375 0.421875 0.84375 0.640625q0.5 0.21875 1.109375 0.21875q0.71875 0 1.21875 -0.28125q0.5 -0.28125 0.828125 -0.734375q0.328125 -0.46875 0.46875 -1.078125q0.15625 -0.625 0.15625 -1.3125zm7.0385437 -6.984375l-2.703125 0l0 -1.3125l4.296875 0l0 11.546875l2.734375 0l0 1.328125l-7.34375 0l0 -1.328125l3.015625 0l0 -10.234375zm24.998962 11.109375q-1.421875 0.59375 -3.0 0.59375q-2.515625 0 -3.875 -1.5q-1.34375 -1.515625 -1.34375 -4.46875q0 -1.421875 0.359375 -2.578125q0.375 -1.15625 1.0625 -1.953125q0.703125 -0.8125 1.6875 -1.25q0.984375 -0.4375 2.203125 -0.4375q0.828125 0 1.53125 0.140625q0.71875 0.140625 1.375 0.421875l0 1.59375q-0.640625 -0.34375 -1.34375 -0.53125q-0.6875 -0.1875 -1.5 -0.1875q-0.84375 0 -1.53125 0.3125q-0.671875 0.3125 -1.15625 0.90625q-0.46875 0.59375 -0.71875 1.46875q-0.25 0.859375 -0.25 1.953125q0 2.3125 0.9375 3.5q0.9375 1.171875 2.75 1.171875q0.765625 0 1.46875 -0.171875q0.703125 -0.1875 1.34375 -0.515625l0 1.53125zm10.616653 -4.1875q0 1.0625 -0.3125 1.953125q-0.29685974 0.890625 -0.85935974 1.53125q-0.5625 0.625 -1.375 0.96875q-0.8125 0.34375 -1.84375 0.34375q-0.984375 0 -1.765625 -0.296875q-0.765625 -0.3125 -1.3125 -0.890625q-0.546875 -0.59375 -0.828125 -1.46875q-0.28125 -0.875 -0.28125 -2.015625q0 -1.0625 0.296875 -1.9375q0.296875 -0.890625 0.859375 -1.515625q0.5625 -0.640625 1.375 -0.984375q0.8125 -0.359375 1.84375 -0.359375q0.984375 0 1.765625 0.3125q0.78125 0.296875 1.3125 0.890625q0.546875 0.578125 0.82810974 1.453125q0.296875 0.875 0.296875 2.015625zm-1.6249847 0.0625q0 -0.84375 -0.1875 -1.46875q-0.1875 -0.640625 -0.53125 -1.0625q-0.34375 -0.421875 -0.84375 -0.640625q-0.5 -0.21875 -1.109375 -0.21875q-0.703125 0 -1.21875 0.28125q-0.5 0.28125 -0.828125 0.75q-0.3125 0.453125 -0.46875 1.078125q-0.15625 0.609375 -0.15625 1.28125q0 0.859375 0.1875 1.5q0.1875 0.625 0.53125 1.046875q0.359375 0.421875 0.84375 0.640625q0.5 0.21875 1.109375 0.21875q0.71875 0 1.21875 -0.28125q0.5 -0.28125 0.828125 -0.734375q0.328125 -0.46875 0.46875 -1.078125q0.15625 -0.625 0.15625 -1.3125zm3.9135284 -4.5625l1.421875 0l0.0625 1.46875q0.390625 -0.46875 0.765625 -0.78125q0.375 -0.3125 0.734375 -0.5q0.359375 -0.203125 0.734375 -0.28125q0.375 -0.078125 0.78125 -0.078125q1.40625 0 2.125 0.84375q0.734375 0.828125 0.734375 2.5l0 5.96875l-1.59375 0l0 -5.84375q0 -1.078125 -0.40625 -1.578125q-0.390625 -0.515625 -1.1875 -0.515625q-0.28125 0 -0.5625 0.09375q-0.28125 0.078125 -0.578125 0.296875q-0.296875 0.203125 -0.65625 0.578125q-0.34375 0.359375 -0.78125 0.90625l0 6.0625l-1.59375 0l0 -9.140625zm9.397919 0l1.8125 0l2.234375 6.046875l0.484375 1.46875l0.5 -1.515625l2.234375 -6.0l1.734375 0l-3.59375 9.140625l-1.8125 0l-3.59375 -9.140625zm18.851044 4.078125q0 0.34375 -0.015625 0.578125q0 0.21875 -0.03125 0.421875l-6.421875 0q0 1.40625 0.78125 2.15625q0.796875 0.75 2.265625 0.75q0.40625 0 0.796875 -0.03125q0.40625 -0.03125 0.78125 -0.078125q0.375 -0.0625 0.71875 -0.125q0.34375 -0.078125 0.625 -0.15625l0 1.296875q-0.640625 0.1875 -1.46875 0.296875q-0.8125 0.109375 -1.6875 0.109375q-1.171875 0 -2.015625 -0.3125q-0.84375 -0.3125 -1.390625 -0.921875q-0.546875 -0.609375 -0.8125 -1.484375q-0.25 -0.875 -0.25 -2.0q0 -0.953125 0.28125 -1.8125q0.28125 -0.859375 0.8125 -1.515625q0.53125 -0.65625 1.296875 -1.03125q0.78125 -0.390625 1.765625 -0.390625q0.953125 0 1.6875 0.3125q0.75 0.296875 1.25 0.84375q0.5 0.546875 0.765625 1.34375q0.265625 0.78125 0.265625 1.75zm-1.65625 -0.21875q0.03125 -0.609375 -0.125 -1.109375q-0.140625 -0.515625 -0.453125 -0.875q-0.296875 -0.375 -0.75 -0.578125q-0.453125 -0.203125 -1.0625 -0.203125q-0.515625 0 -0.953125 0.203125q-0.421875 0.203125 -0.734375 0.5625q-0.296875 0.359375 -0.5 0.875q-0.1875 0.515625 -0.234375 1.125l4.8125 0zm4.5541687 -3.859375l1.453125 0l0.046875 1.6875q0.8125 -0.984375 1.59375 -1.421875q0.796875 -0.4375 1.59375 -0.4375q1.421875 0 2.15625 0.921875q0.734375 0.921875 0.671875 2.734375l-1.59375 0q0.015625 -1.203125 -0.359375 -1.734375q-0.375 -0.546875 -1.109375 -0.546875q-0.3125 0 -0.640625 0.109375q-0.328125 0.109375 -0.671875 0.359375q-0.328125 0.25 -0.71875 0.640625q-0.375 0.390625 -0.8125 0.953125l0 5.875l-1.609375 0l0 -9.140625zm17.257294 9.015625q-0.53125 0.140625 -1.109375 0.1875q-0.578125 0.0625 -1.171875 0.0625q-1.71875 0 -2.5625 -0.78125q-0.84375 -0.78125 -0.84375 -2.390625l0 -4.765625l-2.5625 0l0 -1.328125l2.5625 0l0 -2.515625l1.578125 -0.40625l0 2.921875l4.109375 0l0 1.328125l-4.109375 0l0 4.640625q0 0.984375 0.515625 1.46875q0.53125 0.484375 1.546875 0.484375q0.4375 0 0.953125 -0.0625q0.53125 -0.0625 1.09375 -0.21875l0 1.375zm10.616669 -4.9375q0 0.34375 -0.015625 0.578125q0 0.21875 -0.03125 0.421875l-6.421875 0q0 1.40625 0.78125 2.15625q0.796875 0.75 2.265625 0.75q0.40625 0 0.796875 -0.03125q0.40625 -0.03125 0.78125 -0.078125q0.375 -0.0625 0.71875 -0.125q0.34375 -0.078125 0.625 -0.15625l0 1.296875q-0.640625 0.1875 -1.46875 0.296875q-0.8125 0.109375 -1.6875 0.109375q-1.171875 0 -2.015625 -0.3125q-0.84375 -0.3125 -1.390625 -0.921875q-0.546875 -0.609375 -0.8125 -1.484375q-0.25 -0.875 -0.25 -2.0q0 -0.953125 0.28125 -1.8125q0.28125 -0.859375 0.8125 -1.515625q0.53125 -0.65625 1.296875 -1.03125q0.78125 -0.390625 1.765625 -0.390625q0.953125 0 1.6875 0.3125q0.75 0.296875 1.25 0.84375q0.5 0.546875 0.765625 1.34375q0.265625 0.78125 0.265625 1.75zm-1.65625 -0.21875q0.03125 -0.609375 -0.125 -1.109375q-0.140625 -0.515625 -0.453125 -0.875q-0.296875 -0.375 -0.75 -0.578125q-0.453125 -0.203125 -1.0625 -0.203125q-0.515625 0 -0.953125 0.203125q-0.421875 0.203125 -0.734375 0.5625q-0.296875 0.359375 -0.5 0.875q-0.1875 0.515625 -0.234375 1.125l4.8125 0zm4.5541687 -3.859375l1.453125 0l0.046875 1.6875q0.8125 -0.984375 1.59375 -1.421875q0.796875 -0.4375 1.59375 -0.4375q1.421875 0 2.15625 0.921875q0.734375 0.921875 0.671875 2.734375l-1.59375 0q0.015625 -1.203125 -0.359375 -1.734375q-0.375 -0.546875 -1.109375 -0.546875q-0.3125 0 -0.640625 0.109375q-0.328125 0.109375 -0.671875 0.359375q-0.328125 0.25 -0.71875 0.640625q-0.375 0.390625 -0.8125 0.953125l0 5.875l-1.609375 0l0 -9.140625z" fill-rule="nonzero"/><path fill="#cfe2f3" d="m107.92913 492.54645l257.5433 0l0 50.897644l-257.5433 0z" fill-rule="evenodd"/><path stroke="#000000" stroke-width="1.0" stroke-linejoin="round" stroke-linecap="butt" stroke-dasharray="4.0,3.0" d="m107.92913 492.54645l257.5433 0l0 50.897644l-257.5433 0z" fill-rule="evenodd"/><path fill="#000000" d="m225.4362 521.3528q0 0.859375 -0.328125 1.515625q-0.328125 0.65625 -0.953125 1.125q-0.609375 0.453125 -1.484375 0.6875q-0.859375 0.234375 -1.921875 0.234375l-3.125 0l0 -11.90625l3.40625 0q3.984375 0 3.984375 2.890625q0 0.96875 -0.46875 1.671875q-0.453125 0.6875 -1.484375 1.015625q0.46875 0.09375 0.90625 0.3125q0.4375 0.21875 0.765625 0.578125q0.328125 0.34375 0.515625 0.8125q0.1875 0.46875 0.1875 1.0625zm-2.109375 -5.234375q0 -0.359375 -0.109375 -0.671875q-0.109375 -0.328125 -0.390625 -0.5625q-0.265625 -0.234375 -0.734375 -0.375q-0.453125 -0.140625 -1.171875 -0.140625l-1.671875 0l0 3.734375l1.625 0q0.546875 0 1.0 -0.109375q0.453125 -0.125 0.765625 -0.375q0.328125 -0.25 0.5 -0.609375q0.1875 -0.375 0.1875 -0.890625zm0.390625 5.296875q0 -0.46875 -0.1875 -0.828125q-0.1875 -0.359375 -0.5625 -0.609375q-0.359375 -0.25 -0.890625 -0.390625q-0.515625 -0.140625 -1.171875 -0.140625l-1.65625 0l0 4.109375l1.703125 0q1.40625 0 2.078125 -0.515625q0.6875 -0.53125 0.6875 -1.625zm7.0385437 -7.046875l-2.75 0l0 -1.359375l7.125 0l0 1.359375l-2.734375 0l0 9.15625l2.734375 0l0 1.390625l-7.125 0l0 -1.390625l2.75 0l0 -9.15625zm15.022919 7.328125q0 0.84375 -0.34375 1.484375q-0.34375 0.625 -0.96875 1.0625q-0.609375 0.421875 -1.484375 0.625q-0.875 0.203125 -1.921875 0.203125q-0.46875 0 -0.9375 -0.03125q-0.46875 -0.03125 -0.90625 -0.09375q-0.421875 -0.046875 -0.8125 -0.109375q-0.375 -0.078125 -0.6875 -0.171875l0 -1.5625q0.671875 0.25 1.515625 0.40625q0.859375 0.140625 1.953125 0.140625q0.78125 0 1.328125 -0.125q0.5625 -0.125 0.90625 -0.359375q0.34375 -0.25 0.5 -0.59375q0.171875 -0.34375 0.171875 -0.796875q0 -0.46875 -0.28125 -0.8125q-0.265625 -0.34375 -0.703125 -0.609375q-0.4375 -0.28125 -1.0 -0.5q-0.546875 -0.21875 -1.140625 -0.453125q-0.578125 -0.234375 -1.140625 -0.515625q-0.5625 -0.28125 -1.0 -0.65625q-0.4375 -0.375 -0.703125 -0.890625q-0.265625 -0.515625 -0.265625 -1.21875q0 -0.609375 0.25 -1.1875q0.265625 -0.59375 0.796875 -1.046875q0.53125 -0.46875 1.375 -0.75q0.84375 -0.28125 2.015625 -0.28125q0.296875 0 0.640625 0.03125q0.359375 0.015625 0.71875 0.0625q0.359375 0.046875 0.703125 0.125q0.359375 0.0625 0.65625 0.125l0 1.46875q-0.703125 -0.203125 -1.40625 -0.3125q-0.6875 -0.109375 -1.34375 -0.109375q-1.40625 0 -2.0625 0.46875q-0.65625 0.46875 -0.65625 1.25q0 0.484375 0.265625 0.828125q0.28125 0.34375 0.71875 0.625q0.4375 0.265625 1.0 0.5q0.5625 0.21875 1.140625 0.453125q0.578125 0.234375 1.140625 0.515625q0.5625 0.28125 1.0 0.671875q0.4375 0.390625 0.703125 0.90625q0.265625 0.515625 0.265625 1.234375zm10.647903 -7.296875l-3.5156097 0l0 10.515625l-1.640625 0l0 -10.515625l-3.53125 0l0 -1.390625l8.687485 0l0 1.390625z" fill-rule="nonzero"/><path fill="#cfe2f3" d="m107.92913 425.01917l257.5433 0l0 50.897644l-257.5433 0z" fill-rule="evenodd"/><path stroke="#000000" stroke-width="1.0" stroke-linejoin="round" stroke-linecap="butt" stroke-dasharray="4.0,3.0" d="m107.92913 425.01917l257.5433 0l0 50.897644l-257.5433 0z" fill-rule="evenodd"/><path fill="#000000" d="m148.83463 457.388l-1.828125 0l-1.78125 -3.8125q-0.203125 -0.4375 -0.421875 -0.71875q-0.203125 -0.28125 -0.453125 -0.453125q-0.234375 -0.171875 -0.515625 -0.234375q-0.28125 -0.078125 -0.640625 -0.078125l-0.765625 0l0 5.296875l-1.625 0l0 -11.90625l3.1875 0q1.046875 0 1.78125 0.234375q0.75 0.21875 1.21875 0.640625q0.484375 0.40625 0.703125 0.984375q0.234375 0.578125 0.234375 1.28125q0 0.546875 -0.171875 1.046875q-0.15625 0.5 -0.484375 0.90625q-0.3125 0.40625 -0.796875 0.703125q-0.484375 0.28125 -1.09375 0.4375q0.5 0.171875 0.84375 0.609375q0.359375 0.421875 0.71875 1.140625l1.890625 3.921875zm-2.59375 -8.640625q0 -0.953125 -0.609375 -1.421875q-0.59375 -0.484375 -1.671875 -0.484375l-1.53125 0l0 3.9375l1.3125 0q0.578125 0 1.03125 -0.125q0.453125 -0.140625 0.78125 -0.390625q0.328125 -0.265625 0.5 -0.640625q0.1875 -0.375 0.1875 -0.875zm12.460419 3.578125q0 0.34375 -0.015625 0.578125q0 0.21875 -0.03125 0.421875l-6.421875 0q0 1.40625 0.78125 2.15625q0.796875 0.75 2.265625 0.75q0.40625 0 0.796875 -0.03125q0.40625 -0.03125 0.78125 -0.078125q0.375 -0.0625 0.71875 -0.125q0.34375 -0.078125 0.625 -0.15625l0 1.296875q-0.640625 0.1875 -1.46875 0.296875q-0.8125 0.109375 -1.6875 0.109375q-1.171875 0 -2.015625 -0.3125q-0.84375 -0.3125 -1.390625 -0.921875q-0.546875 -0.609375 -0.8125 -1.484375q-0.25 -0.875 -0.25 -2.0q0 -0.953125 0.28125 -1.8125q0.28125 -0.859375 0.8125 -1.515625q0.53125 -0.65625 1.296875 -1.03125q0.78125 -0.390625 1.765625 -0.390625q0.953125 0 1.6875 0.3125q0.75 0.296875 1.25 0.84375q0.5 0.546875 0.765625 1.34375q0.265625 0.78125 0.265625 1.75zm-1.65625 -0.21875q0.03125 -0.609375 -0.125 -1.109375q-0.140625 -0.515625 -0.453125 -0.875q-0.296875 -0.375 -0.75 -0.578125q-0.453125 -0.203125 -1.0625 -0.203125q-0.515625 0 -0.953125 0.203125q-0.421875 0.203125 -0.734375 0.5625q-0.296875 0.359375 -0.5 0.875q-0.1875 0.515625 -0.234375 1.125l4.8125 0zm3.7260437 0.90625q0 -1.171875 0.3125 -2.078125q0.3125 -0.90625 0.90625 -1.53125q0.59375 -0.625 1.40625 -0.9375q0.828125 -0.328125 1.84375 -0.328125q0.4375 0 0.859375 0.0625q0.421875 0.046875 0.828125 0.15625l0 -3.84375l1.59375 0l0 12.875l-1.421875 0l-0.046875 -1.734375q-0.671875 0.96875 -1.453125 1.4375q-0.765625 0.453125 -1.671875 0.453125q-0.78125 0 -1.375 -0.3125q-0.59375 -0.328125 -1.0 -0.921875q-0.390625 -0.609375 -0.59375 -1.4375q-0.1875 -0.84375 -0.1875 -1.859375zm1.609375 -0.109375q0 1.65625 0.484375 2.484375q0.5 0.8125 1.390625 0.8125q0.59375 0 1.265625 -0.53125q0.671875 -0.546875 1.40625 -1.609375l0 -4.234375q-0.390625 -0.1875 -0.859375 -0.28125q-0.46875 -0.09375 -0.9375 -0.09375q-1.296875 0 -2.03125 0.84375q-0.71875 0.828125 -0.71875 2.609375zm16.460419 4.484375l-1.421875 0l-0.0625 -1.46875q-0.40625 0.46875 -0.78125 0.78125q-0.359375 0.3125 -0.734375 0.515625q-0.359375 0.1875 -0.734375 0.25q-0.359375 0.078125 -0.765625 0.078125q-1.421875 0 -2.140625 -0.828125q-0.71875 -0.828125 -0.71875 -2.5l0 -5.96875l1.59375 0l0 5.84375q0 2.109375 1.578125 2.109375q0.296875 0 0.5625 -0.078125q0.28125 -0.09375 0.578125 -0.3125q0.3125 -0.21875 0.65625 -0.578125q0.359375 -0.359375 0.796875 -0.921875l0 -6.0625l1.59375 0l0 9.140625zm2.8979187 -9.140625l1.421875 0l0.0625 1.46875q0.390625 -0.46875 0.765625 -0.78125q0.375 -0.3125 0.734375 -0.5q0.359375 -0.203125 0.734375 -0.28125q0.375 -0.078125 0.78125 -0.078125q1.40625 0 2.125 0.84375q0.734375 0.828125 0.734375 2.5l0 5.96875l-1.59375 0l0 -5.84375q0 -1.078125 -0.40625 -1.578125q-0.390625 -0.515625 -1.1875 -0.515625q-0.28125 0 -0.5625 0.09375q-0.28125 0.078125 -0.578125 0.296875q-0.296875 0.203125 -0.65625 0.578125q-0.34375 0.359375 -0.78125 0.90625l0 6.0625l-1.59375 0l0 -9.140625zm9.804169 4.765625q0 -1.171875 0.3125 -2.078125q0.3125 -0.90625 0.90625 -1.53125q0.59375 -0.625 1.40625 -0.9375q0.828125 -0.328125 1.84375 -0.328125q0.4375 0 0.859375 0.0625q0.421875 0.046875 0.828125 0.15625l0 -3.84375l1.59375 0l0 12.875l-1.421875 0l-0.046875 -1.734375q-0.671875 0.96875 -1.453125 1.4375q-0.765625 0.453125 -1.671875 0.453125q-0.78125 0 -1.375 -0.3125q-0.59375 -0.328125 -1.0 -0.921875q-0.390625 -0.609375 -0.59375 -1.4375q-0.1875 -0.84375 -0.1875 -1.859375zm1.609375 -0.109375q0 1.65625 0.484375 2.484375q0.5 0.8125 1.390625 0.8125q0.59375 0 1.265625 -0.53125q0.671875 -0.546875 1.40625 -1.609375l0 -4.234375q-0.390625 -0.1875 -0.859375 -0.28125q-0.46875 -0.09375 -0.9375 -0.09375q-1.296875 0 -2.03125 0.84375q-0.71875 0.828125 -0.71875 2.609375zm14.976044 4.484375l-0.03125 -1.234375q-0.75 0.75 -1.515625 1.078125q-0.765625 0.3125 -1.625 0.3125q-0.78125 0 -1.34375 -0.1875q-0.546875 -0.203125 -0.90625 -0.546875q-0.359375 -0.359375 -0.53125 -0.828125q-0.15625 -0.484375 -0.15625 -1.03125q0 -1.375 1.015625 -2.15625q1.03125 -0.78125 3.03125 -0.78125l1.890625 0l0 -0.796875q0 -0.8125 -0.515625 -1.296875q-0.515625 -0.5 -1.578125 -0.5q-0.78125 0 -1.53125 0.1875q-0.75 0.171875 -1.546875 0.484375l0 -1.4375q0.296875 -0.109375 0.65625 -0.203125q0.375 -0.109375 0.78125 -0.1875q0.40625 -0.078125 0.859375 -0.125q0.453125 -0.0625 0.90625 -0.0625q0.828125 0 1.484375 0.1875q0.671875 0.171875 1.125 0.546875q0.46875 0.375 0.703125 0.953125q0.25 0.5625 0.25 1.328125l0 6.296875l-1.421875 0zm-0.171875 -4.15625l-2.015625 0q-0.578125 0 -1.015625 0.125q-0.421875 0.109375 -0.703125 0.328125q-0.265625 0.21875 -0.40625 0.53125q-0.125 0.296875 -0.125 0.671875q0 0.265625 0.078125 0.515625q0.078125 0.234375 0.265625 0.421875q0.1875 0.1875 0.46875 0.296875q0.296875 0.109375 0.71875 0.109375q0.546875 0 1.25 -0.328125q0.703125 -0.34375 1.484375 -1.0625l0 -1.609375zm4.5541687 -4.984375l1.421875 0l0.0625 1.46875q0.390625 -0.46875 0.765625 -0.78125q0.375 -0.3125 0.734375 -0.5q0.359375 -0.203125 0.734375 -0.28125q0.375 -0.078125 0.78125 -0.078125q1.40625 0 2.125 0.84375q0.734375 0.828125 0.734375 2.5l0 5.96875l-1.59375 0l0 -5.84375q0 -1.078125 -0.40625 -1.578125q-0.390625 -0.515625 -1.1875 -0.515625q-0.28125 0 -0.5625 0.09375q-0.28125 0.078125 -0.578125 0.296875q-0.296875 0.203125 -0.65625 0.578125q-0.34375 0.359375 -0.78125 0.90625l0 6.0625l-1.59375 0l0 -9.140625zm17.366669 8.796875q-0.625 0.25 -1.28125 0.359375q-0.640625 0.109375 -1.328125 0.109375q-2.171875 0 -3.34375 -1.171875q-1.171875 -1.171875 -1.171875 -3.4375q0 -1.078125 0.328125 -1.953125q0.34375 -0.890625 0.953125 -1.515625q0.609375 -0.640625 1.453125 -0.984375q0.859375 -0.34375 1.875 -0.34375q0.71875 0 1.328125 0.109375q0.625 0.09375 1.1875 0.328125l0 1.515625q-0.59375 -0.3125 -1.21875 -0.453125q-0.609375 -0.140625 -1.265625 -0.140625q-0.609375 0 -1.15625 0.234375q-0.53125 0.234375 -0.9375 0.671875q-0.40625 0.421875 -0.65625 1.0625q-0.234375 0.625 -0.234375 1.421875q0 1.65625 0.796875 2.484375q0.8125 0.8125 2.25 0.8125q0.640625 0 1.25 -0.140625q0.609375 -0.140625 1.171875 -0.4375l0 1.46875zm11.288544 -8.796875l-3.109375 8.171875q-0.484375 1.25 -1.0 2.15625q-0.515625 0.90625 -1.125 1.484375q-0.609375 0.578125 -1.34375 0.84375q-0.734375 0.28125 -1.625 0.28125q-0.25 0 -0.4375 -0.015625q-0.1875 -0.015625 -0.421875 -0.03125l0 -1.4375q0.203125 0.03125 0.4375 0.046875q0.25 0.03125 0.5 0.03125q0.4375 0 0.8125 -0.140625q0.390625 -0.125 0.71875 -0.40625q0.34375 -0.28125 0.65625 -0.75q0.3125 -0.453125 0.59375 -1.09375l-3.65625 -9.140625l1.8125 0l2.3125 6.046875l0.46875 1.421875l0.53125 -1.46875l2.140625 -6.0l1.734375 0zm20.170837 9.140625l-1.609375 0l0 -5.46875l-5.015625 0l0 5.46875l-1.609375 0l0 -11.90625l1.609375 0l0 5.03125l5.015625 0l0 -5.03125l1.609375 0l0 11.90625zm8.335419 0l-0.03125 -1.234375q-0.75 0.75 -1.515625 1.078125q-0.765625 0.3125 -1.625 0.3125q-0.78125 0 -1.34375 -0.1875q-0.546875 -0.203125 -0.90625 -0.546875q-0.359375 -0.359375 -0.53125 -0.828125q-0.15625 -0.484375 -0.15625 -1.03125q0 -1.375 1.015625 -2.15625q1.03125 -0.78125 3.03125 -0.78125l1.890625 0l0 -0.796875q0 -0.8125 -0.515625 -1.296875q-0.515625 -0.5 -1.578125 -0.5q-0.78125 0 -1.53125 0.1875q-0.75 0.171875 -1.546875 0.484375l0 -1.4375q0.296875 -0.109375 0.65625 -0.203125q0.375 -0.109375 0.78125 -0.1875q0.40625 -0.078125 0.859375 -0.125q0.453125 -0.0625 0.90625 -0.0625q0.828125 0 1.484375 0.1875q0.671875 0.171875 1.125 0.546875q0.46875 0.375 0.703125 0.953125q0.25 0.5625 0.25 1.328125l0 6.296875l-1.421875 0zm-0.171875 -4.15625l-2.015625 0q-0.578125 0 -1.015625 0.125q-0.421875 0.109375 -0.703125 0.328125q-0.265625 0.21875 -0.40625 0.53125q-0.125 0.296875 -0.125 0.671875q0 0.265625 0.078125 0.515625q0.078125 0.234375 0.265625 0.421875q0.1875 0.1875 0.46875 0.296875q0.296875 0.109375 0.71875 0.109375q0.546875 0 1.25 -0.328125q0.703125 -0.34375 1.484375 -1.0625l0 -1.609375zm4.5541687 -4.984375l1.421875 0l0.0625 1.46875q0.390625 -0.46875 0.765625 -0.78125q0.375 -0.3125 0.734375 -0.5q0.359375 -0.203125 0.734375 -0.28125q0.375 -0.078125 0.78125 -0.078125q1.40625 0 2.125 0.84375q0.734375 0.828125 0.734375 2.5l0 5.96875l-1.59375 0l0 -5.84375q0 -1.078125 -0.40625 -1.578125q-0.390625 -0.515625 -1.1875 -0.515625q-0.28125 0 -0.5625 0.09375q-0.28125 0.078125 -0.578125 0.296875q-0.296875 0.203125 -0.65625 0.578125q-0.34375 0.359375 -0.78125 0.90625l0 6.0625l-1.59375 0l0 -9.140625zm9.804169 4.765625q0 -1.171875 0.3125 -2.078125q0.3125 -0.90625 0.90625 -1.53125q0.59375 -0.625 1.40625 -0.9375q0.828125 -0.328125 1.84375 -0.328125q0.4375 0 0.859375 0.0625q0.421875 0.046875 0.828125 0.15625l0 -3.84375l1.59375 0l0 12.875l-1.421875 0l-0.046875 -1.734375q-0.671875 0.96875 -1.453125 1.4375q-0.765625 0.453125 -1.671875 0.453125q-0.78125 0 -1.375 -0.3125q-0.59375 -0.328125 -1.0 -0.921875q-0.390625 -0.609375 -0.59375 -1.4375q-0.1875 -0.84375 -0.1875 -1.859375zm1.609375 -0.109375q0 1.65625 0.484375 2.484375q0.5 0.8125 1.390625 0.8125q0.59375 0 1.265625 -0.53125q0.671875 -0.546875 1.40625 -1.609375l0 -4.234375q-0.390625 -0.1875 -0.859375 -0.28125q-0.46875 -0.09375 -0.9375 -0.09375q-1.296875 0 -2.03125 0.84375q-0.71875 0.828125 -0.71875 2.609375zm12.226044 -7.078125l-2.703125 0l0 -1.3125l4.296875 0l0 11.546875l2.734375 0l0 1.328125l-7.34375 0l0 -1.328125l3.015625 0l0 -10.234375zm10.257294 3.734375l-2.703125 0l0 -1.3125l4.296875 0l0 7.8125l2.734375 0l0 1.328125l-7.34375 0l0 -1.328125l3.015625 0l0 -6.5zm0.546875 -5.15625q0.265625 0 0.484375 0.09375q0.234375 0.09375 0.40625 0.28125q0.171875 0.171875 0.265625 0.390625q0.09375 0.21875 0.09375 0.484375q0 0.25 -0.09375 0.484375q-0.09375 0.234375 -0.265625 0.40625q-0.171875 0.171875 -0.40625 0.265625q-0.21875 0.09375 -0.484375 0.09375q-0.265625 0 -0.5 -0.09375q-0.21875 -0.09375 -0.390625 -0.265625q-0.15625 -0.171875 -0.265625 -0.40625q-0.09375 -0.234375 -0.09375 -0.484375q0 -0.265625 0.09375 -0.484375q0.109375 -0.21875 0.265625 -0.390625q0.171875 -0.1875 0.390625 -0.28125q0.234375 -0.09375 0.5 -0.09375zm6.5854187 3.84375l1.421875 0l0.0625 1.46875q0.390625 -0.46875 0.765625 -0.78125q0.375 -0.3125 0.734375 -0.5q0.359375 -0.203125 0.734375 -0.28125q0.375 -0.078125 0.78125 -0.078125q1.40625 0 2.125 0.84375q0.734375 0.828125 0.734375 2.5l0 5.96875l-1.59375 0l0 -5.84375q0 -1.078125 -0.40625 -1.578125q-0.390625 -0.515625 -1.1875 -0.515625q-0.28125 0 -0.5625 0.09375q-0.28125 0.078125 -0.578125 0.296875q-0.296875 0.203125 -0.65625 0.578125q-0.34375 0.359375 -0.78125 0.90625l0 6.0625l-1.59375 0l0 -9.140625zm16.851044 1.28125q0.25 0.328125 0.390625 0.75q0.140625 0.421875 0.140625 0.921875q0 0.703125 -0.265625 1.296875q-0.25 0.578125 -0.734375 1.0q-0.46875 0.421875 -1.125 0.65625q-0.65625 0.234375 -1.453125 0.234375q-0.578125 0 -1.078125 -0.125q-0.5 -0.125 -0.78125 -0.3125q-0.1875 0.265625 -0.3125 0.5q-0.109375 0.21875 -0.109375 0.5q0 0.34375 0.328125 0.578125q0.34375 0.21875 0.890625 0.234375l2.40625 0.09375q0.671875 0.015625 1.25 0.171875q0.59375 0.15625 1.0 0.453125q0.421875 0.28125 0.640625 0.71875q0.234375 0.421875 0.234375 0.984375q0 0.609375 -0.265625 1.15625q-0.25 0.546875 -0.8125 0.953125q-0.546875 0.421875 -1.390625 0.671875q-0.84375 0.25 -2.015625 0.25q-1.109375 0 -1.890625 -0.1875q-0.78125 -0.171875 -1.28125 -0.484375q-0.5 -0.3125 -0.734375 -0.75q-0.21875 -0.421875 -0.21875 -0.953125q0 -0.65625 0.296875 -1.15625q0.3125 -0.5 0.96875 -0.96875q-0.234375 -0.109375 -0.40625 -0.265625q-0.171875 -0.171875 -0.28125 -0.359375q-0.109375 -0.203125 -0.171875 -0.421875q-0.046875 -0.21875 -0.046875 -0.4375q0 -0.578125 0.265625 -1.0625q0.28125 -0.5 0.671875 -0.9375q-0.171875 -0.21875 -0.3125 -0.40625q-0.125 -0.203125 -0.234375 -0.4375q-0.09375 -0.234375 -0.140625 -0.5q-0.046875 -0.28125 -0.046875 -0.625q0 -0.703125 0.25 -1.28125q0.265625 -0.59375 0.734375 -1.015625q0.46875 -0.421875 1.125 -0.65625q0.671875 -0.234375 1.46875 -0.234375q0.34375 0 0.640625 0.046875q0.3125 0.046875 0.546875 0.125l3.328125 0l0 1.28125l-1.46875 0zm-5.5 9.1875q0 0.640625 0.671875 0.9375q0.671875 0.296875 1.875 0.296875q0.75 0 1.265625 -0.140625q0.515625 -0.140625 0.828125 -0.359375q0.3125 -0.21875 0.453125 -0.515625q0.140625 -0.28125 0.140625 -0.578125q0 -0.5625 -0.453125 -0.828125q-0.453125 -0.265625 -1.390625 -0.296875l-2.390625 -0.09375q-0.296875 0.203125 -0.5 0.390625q-0.203125 0.203125 -0.3125 0.390625q-0.109375 0.203125 -0.15625 0.390625q-0.03125 0.203125 -0.03125 0.40625zm0.484375 -7.484375q0 0.4375 0.140625 0.8125q0.140625 0.359375 0.40625 0.609375q0.265625 0.25 0.625 0.390625q0.359375 0.140625 0.796875 0.140625q0.46875 0 0.84375 -0.15625q0.375 -0.15625 0.625 -0.421875q0.25 -0.28125 0.375 -0.640625q0.140625 -0.359375 0.140625 -0.734375q0 -0.4375 -0.15625 -0.796875q-0.140625 -0.375 -0.40625 -0.625q-0.265625 -0.25 -0.625 -0.390625q-0.359375 -0.140625 -0.796875 -0.140625q-0.46875 0 -0.84375 0.171875q-0.359375 0.15625 -0.625 0.421875q-0.25 0.265625 -0.375 0.625q-0.125 0.34375 -0.125 0.734375z" fill-rule="nonzero"/><path fill="#cfe2f3" d="m107.92913 560.0737l257.5433 0l0 64.12598l-257.5433 0z" fill-rule="evenodd"/><path stroke="#000000" stroke-width="1.0" stroke-linejoin="round" stroke-linecap="butt" d="m107.92913 560.0737l257.5433 0l0 64.12598l-257.5433 0z" fill-rule="evenodd"/><path fill="#000000" d="m143.31535 599.0567l-2.125 0l-3.46875 -7.421875l-1.0 -2.390625l0 6.0l0 3.8125l-1.515625 0l0 -11.90625l2.09375 0l3.3125 7.03125l1.1875 2.71875l0 -6.375l0 -3.375l1.515625 0l0 11.90625zm10.491669 -4.640625q0 1.0625 -0.3125 1.953125q-0.296875 0.890625 -0.859375 1.53125q-0.5625 0.625 -1.375 0.96875q-0.8125 0.34375 -1.84375 0.34375q-0.984375 0 -1.765625 -0.296875q-0.765625 -0.3125 -1.3125 -0.890625q-0.546875 -0.59375 -0.828125 -1.46875q-0.28125 -0.875 -0.28125 -2.015625q0 -1.0625 0.296875 -1.9375q0.296875 -0.890625 0.859375 -1.515625q0.5625 -0.640625 1.375 -0.984375q0.8125 -0.359375 1.84375 -0.359375q0.984375 0 1.765625 0.3125q0.78125 0.296875 1.3125 0.890625q0.546875 0.578125 0.828125 1.453125q0.296875 0.875 0.296875 2.015625zm-1.625 0.0625q0 -0.84375 -0.1875 -1.46875q-0.1875 -0.640625 -0.53125 -1.0625q-0.34375 -0.421875 -0.84375 -0.640625q-0.5 -0.21875 -1.109375 -0.21875q-0.703125 0 -1.21875 0.28125q-0.5 0.28125 -0.828125 0.75q-0.3125 0.453125 -0.46875 1.078125q-0.15625 0.609375 -0.15625 1.28125q0 0.859375 0.1875 1.5q0.1875 0.625 0.53125 1.046875q0.359375 0.421875 0.84375 0.640625q0.5 0.21875 1.109375 0.21875q0.71875 0 1.21875 -0.28125q0.5 -0.28125 0.828125 -0.734375q0.328125 -0.46875 0.46875 -1.078125q0.15625 -0.625 0.15625 -1.3125zm3.9135437 -4.5625l1.421875 0l0.0625 1.46875q0.390625 -0.46875 0.765625 -0.78125q0.375 -0.3125 0.734375 -0.5q0.359375 -0.203125 0.734375 -0.28125q0.375 -0.078125 0.78125 -0.078125q1.40625 0 2.125 0.84375q0.734375 0.828125 0.734375 2.5l0 5.96875l-1.59375 0l0 -5.84375q0 -1.078125 -0.40625 -1.578125q-0.390625 -0.515625 -1.1875 -0.515625q-0.28125 0 -0.5625 0.09375q-0.28125 0.078125 -0.578125 0.296875q-0.296875 0.203125 -0.65625 0.578125q-0.34375 0.359375 -0.78125 0.90625l0 6.0625l-1.59375 0l0 -9.140625zm16.663544 4.921875l-5.453125 0l0 -1.5l5.453125 0l0 1.5zm2.9916687 -4.921875l1.8125 0l2.234375 6.046875l0.484375 1.46875l0.5 -1.515625l2.234375 -6.0l1.734375 0l-3.59375 9.140625l-1.8125 0l-3.59375 -9.140625zm19.085419 4.5q0 1.0625 -0.3125 1.953125q-0.296875 0.890625 -0.859375 1.53125q-0.5625 0.625 -1.375 0.96875q-0.8125 0.34375 -1.84375 0.34375q-0.984375 0 -1.765625 -0.296875q-0.765625 -0.3125 -1.3125 -0.890625q-0.546875 -0.59375 -0.828125 -1.46875q-0.28125 -0.875 -0.28125 -2.015625q0 -1.0625 0.296875 -1.9375q0.296875 -0.890625 0.859375 -1.515625q0.5625 -0.640625 1.375 -0.984375q0.8125 -0.359375 1.84375 -0.359375q0.984375 0 1.765625 0.3125q0.78125 0.296875 1.3125 0.890625q0.546875 0.578125 0.828125 1.453125q0.296875 0.875 0.296875 2.015625zm-1.625 0.0625q0 -0.84375 -0.1875 -1.46875q-0.1875 -0.640625 -0.53125 -1.0625q-0.34375 -0.421875 -0.84375 -0.640625q-0.5 -0.21875 -1.109375 -0.21875q-0.703125 0 -1.21875 0.28125q-0.5 0.28125 -0.828125 0.75q-0.3125 0.453125 -0.46875 1.078125q-0.15625 0.609375 -0.15625 1.28125q0 0.859375 0.1875 1.5q0.1875 0.625 0.53125 1.046875q0.359375 0.421875 0.84375 0.640625q0.5 0.21875 1.109375 0.21875q0.71875 0 1.21875 -0.28125q0.5 -0.28125 0.828125 -0.734375q0.328125 -0.46875 0.46875 -1.078125q0.15625 -0.625 0.15625 -1.3125zm7.0385437 -6.984375l-2.703125 0l0 -1.3125l4.296875 0l0 11.546875l2.734375 0l0 1.328125l-7.34375 0l0 -1.328125l3.015625 0l0 -10.234375zm13.007294 11.5625l-0.03125 -1.234375q-0.75 0.75 -1.515625 1.078125q-0.765625 0.3125 -1.625 0.3125q-0.78125 0 -1.34375 -0.1875q-0.546875 -0.203125 -0.90625 -0.546875q-0.359375 -0.359375 -0.53125 -0.828125q-0.15625 -0.484375 -0.15625 -1.03125q0 -1.375 1.015625 -2.15625q1.03125 -0.78125 3.03125 -0.78125l1.890625 0l0 -0.796875q0 -0.8125 -0.515625 -1.296875q-0.515625 -0.5 -1.578125 -0.5q-0.78125 0 -1.53125 0.1875q-0.75 0.171875 -1.546875 0.484375l0 -1.4375q0.296875 -0.109375 0.65625 -0.203125q0.375 -0.109375 0.78125 -0.1875q0.40625 -0.078125 0.859375 -0.125q0.453125 -0.0625 0.90625 -0.0625q0.828125 0 1.484375 0.1875q0.671875 0.171875 1.125 0.546875q0.46875 0.375 0.703125 0.953125q0.25 0.5625 0.25 1.328125l0 6.296875l-1.421875 0zm-0.171875 -4.15625l-2.015625 0q-0.578125 0 -1.015625 0.125q-0.421875 0.109375 -0.703125 0.328125q-0.265625 0.21875 -0.40625 0.53125q-0.125 0.296875 -0.125 0.671875q0 0.265625 0.078125 0.515625q0.078125 0.234375 0.265625 0.421875q0.1875 0.1875 0.46875 0.296875q0.296875 0.109375 0.71875 0.109375q0.546875 0 1.25 -0.328125q0.703125 -0.34375 1.484375 -1.0625l0 -1.609375zm11.929169 4.03125q-0.53125 0.140625 -1.109375 0.1875q-0.578125 0.0625 -1.171875 0.0625q-1.71875 0 -2.5625 -0.78125q-0.84375 -0.78125 -0.84375 -2.390625l0 -4.765625l-2.5625 0l0 -1.328125l2.5625 0l0 -2.515625l1.578125 -0.40625l0 2.921875l4.109375 0l0 1.328125l-4.109375 0l0 4.640625q0 0.984375 0.515625 1.46875q0.53125 0.484375 1.546875 0.484375q0.4375 0 0.953125 -0.0625q0.53125 -0.0625 1.09375 -0.21875l0 1.375zm6.0072937 -7.703125l-2.703125 0l0 -1.3125l4.296875 0l0 7.8125l2.734375 0l0 1.328125l-7.34375 0l0 -1.328125l3.015625 0l0 -6.5zm0.546875 -5.15625q0.265625 0 0.484375 0.09375q0.234375 0.09375 0.40625 0.28125q0.171875 0.171875 0.265625 0.390625q0.09375 0.21875 0.09375 0.484375q0 0.25 -0.09375 0.484375q-0.09375 0.234375 -0.265625 0.40625q-0.171875 0.171875 -0.40625 0.265625q-0.21875 0.09375 -0.484375 0.09375q-0.265625 0 -0.5 -0.09375q-0.21875 -0.09375 -0.390625 -0.265625q-0.15625 -0.171875 -0.265625 -0.40625q-0.09375 -0.234375 -0.09375 -0.484375q0 -0.265625 0.09375 -0.484375q0.109375 -0.21875 0.265625 -0.390625q0.171875 -0.1875 0.390625 -0.28125q0.234375 -0.09375 0.5 -0.09375zm9.710419 1.421875l-2.703125 0l0 -1.3125l4.296875 0l0 11.546875l2.734375 0l0 1.328125l-7.34375 0l0 -1.328125l3.015625 0l0 -10.234375zm14.866653 6.5q0 0.34375 -0.015625 0.578125q0 0.21875 -0.03125 0.421875l-6.4218597 0q0 1.40625 0.78125 2.15625q0.796875 0.75 2.265625 0.75q0.40625 0 0.796875 -0.03125q0.40625 -0.03125 0.78125 -0.078125q0.375 -0.0625 0.71875 -0.125q0.34375 -0.078125 0.625 -0.15625l0 1.296875q-0.640625 0.1875 -1.46875 0.296875q-0.8125 0.109375 -1.6875 0.109375q-1.171875 0 -2.015625 -0.3125q-0.84375 -0.3125 -1.390625 -0.921875q-0.546875 -0.609375 -0.8125 -1.484375q-0.25 -0.875 -0.25 -2.0q0 -0.953125 0.28125 -1.8125q0.28125 -0.859375 0.8125 -1.515625q0.53125 -0.65625 1.296875 -1.03125q0.78125 -0.390625 1.765625 -0.390625q0.953125 0 1.6875 0.3125q0.75 0.296875 1.25 0.84375q0.5 0.546875 0.765625 1.34375q0.26560974 0.78125 0.26560974 1.75zm-1.6562347 -0.21875q0.03125 -0.609375 -0.125 -1.109375q-0.140625 -0.515625 -0.453125 -0.875q-0.296875 -0.375 -0.75 -0.578125q-0.453125 -0.203125 -1.0625 -0.203125q-0.515625 0 -0.953125 0.203125q-0.421875 0.203125 -0.734375 0.5625q-0.296875 0.359375 -0.5 0.875q-0.1875 0.515625 -0.234375 1.125l4.8125 0zm22.061447 2.0625q0 0.84375 -0.34375 1.484375q-0.34375 0.625 -0.96875 1.0625q-0.609375 0.421875 -1.484375 0.625q-0.875 0.203125 -1.921875 0.203125q-0.46875 0 -0.9375 -0.03125q-0.46875 -0.03125 -0.90625 -0.09375q-0.421875 -0.046875 -0.8125 -0.109375q-0.375 -0.078125 -0.6875 -0.171875l0 -1.5625q0.671875 0.25 1.515625 0.40625q0.859375 0.140625 1.953125 0.140625q0.78125 0 1.328125 -0.125q0.5625 -0.125 0.90625 -0.359375q0.34375 -0.25 0.5 -0.59375q0.171875 -0.34375 0.171875 -0.796875q0 -0.46875 -0.28125 -0.8125q-0.265625 -0.34375 -0.703125 -0.609375q-0.4375 -0.28125 -1.0 -0.5q-0.546875 -0.21875 -1.140625 -0.453125q-0.578125 -0.234375 -1.140625 -0.515625q-0.5625 -0.28125 -1.0 -0.65625q-0.4375 -0.375 -0.703125 -0.890625q-0.265625 -0.515625 -0.265625 -1.21875q0 -0.609375 0.25 -1.1875q0.265625 -0.59375 0.796875 -1.046875q0.53125 -0.46875 1.375 -0.75q0.84375 -0.28125 2.015625 -0.28125q0.296875 0 0.640625 0.03125q0.359375 0.015625 0.71875 0.0625q0.359375 0.046875 0.703125 0.125q0.359375 0.0625 0.65625 0.125l0 1.46875q-0.703125 -0.203125 -1.40625 -0.3125q-0.6875 -0.109375 -1.34375 -0.109375q-1.40625 0 -2.0625 0.46875q-0.65625 0.46875 -0.65625 1.25q0 0.484375 0.265625 0.828125q0.28125 0.34375 0.71875 0.625q0.4375 0.265625 1.0 0.5q0.5625 0.21875 1.140625 0.453125q0.578125 0.234375 1.140625 0.515625q0.5625 0.28125 1.0 0.671875q0.4375 0.390625 0.703125 0.90625q0.265625 0.515625 0.265625 1.234375zm10.007294 3.09375q-0.53125 0.140625 -1.109375 0.1875q-0.578125 0.0625 -1.171875 0.0625q-1.71875 0 -2.5625 -0.78125q-0.84375 -0.78125 -0.84375 -2.390625l0 -4.765625l-2.5625 0l0 -1.328125l2.5625 0l0 -2.515625l1.578125 -0.40625l0 2.921875l4.109375 0l0 1.328125l-4.109375 0l0 4.640625q0 0.984375 0.515625 1.46875q0.53125 0.484375 1.546875 0.484375q0.4375 0 0.953125 -0.0625q0.53125 -0.0625 1.09375 -0.21875l0 1.375zm10.851044 -4.515625q0 1.0625 -0.3125 1.953125q-0.296875 0.890625 -0.859375 1.53125q-0.5625 0.625 -1.375 0.96875q-0.8125 0.34375 -1.84375 0.34375q-0.984375 0 -1.765625 -0.296875q-0.765625 -0.3125 -1.3125 -0.890625q-0.546875 -0.59375 -0.828125 -1.46875q-0.28125 -0.875 -0.28125 -2.015625q0 -1.0625 0.296875 -1.9375q0.296875 -0.890625 0.859375 -1.515625q0.5625 -0.640625 1.375 -0.984375q0.8125 -0.359375 1.84375 -0.359375q0.984375 0 1.765625 0.3125q0.78125 0.296875 1.3125 0.890625q0.546875 0.578125 0.828125 1.453125q0.296875 0.875 0.296875 2.015625zm-1.625 0.0625q0 -0.84375 -0.1875 -1.46875q-0.1875 -0.640625 -0.53125 -1.0625q-0.34375 -0.421875 -0.84375 -0.640625q-0.5 -0.21875 -1.109375 -0.21875q-0.703125 0 -1.21875 0.28125q-0.5 0.28125 -0.828125 0.75q-0.3125 0.453125 -0.46875 1.078125q-0.15625 0.609375 -0.15625 1.28125q0 0.859375 0.1875 1.5q0.1875 0.625 0.53125 1.046875q0.359375 0.421875 0.84375 0.640625q0.5 0.21875 1.109375 0.21875q0.71875 0 1.21875 -0.28125q0.5 -0.28125 0.828125 -0.734375q0.328125 -0.46875 0.46875 -1.078125q0.15625 -0.625 0.15625 -1.3125zm4.2885437 -4.5625l1.453125 0l0.046875 1.6875q0.8125 -0.984375 1.59375 -1.421875q0.796875 -0.4375 1.59375 -0.4375q1.421875 0 2.15625 0.921875q0.734375 0.921875 0.671875 2.734375l-1.59375 0q0.015625 -1.203125 -0.359375 -1.734375q-0.375 -0.546875 -1.109375 -0.546875q-0.3125 0 -0.640625 0.109375q-0.328125 0.109375 -0.671875 0.359375q-0.328125 0.25 -0.71875 0.640625q-0.375 0.390625 -0.8125 0.953125l0 5.875l-1.609375 0l0 -9.140625zm15.757294 9.140625l-0.03125 -1.234375q-0.75 0.75 -1.515625 1.078125q-0.765625 0.3125 -1.625 0.3125q-0.78125 0 -1.34375 -0.1875q-0.546875 -0.203125 -0.90625 -0.546875q-0.359375 -0.359375 -0.53125 -0.828125q-0.15625 -0.484375 -0.15625 -1.03125q0 -1.375 1.015625 -2.15625q1.03125 -0.78125 3.03125 -0.78125l1.890625 0l0 -0.796875q0 -0.8125 -0.515625 -1.296875q-0.515625 -0.5 -1.578125 -0.5q-0.78125 0 -1.53125 0.1875q-0.75 0.171875 -1.546875 0.484375l0 -1.4375q0.296875 -0.109375 0.65625 -0.203125q0.375 -0.109375 0.78125 -0.1875q0.40625 -0.078125 0.859375 -0.125q0.453125 -0.0625 0.90625 -0.0625q0.828125 0 1.484375 0.1875q0.671875 0.171875 1.125 0.546875q0.46875 0.375 0.703125 0.953125q0.25 0.5625 0.25 1.328125l0 6.296875l-1.421875 0zm-0.171875 -4.15625l-2.015625 0q-0.578125 0 -1.015625 0.125q-0.421875 0.109375 -0.703125 0.328125q-0.265625 0.21875 -0.40625 0.53125q-0.125 0.296875 -0.125 0.671875q0 0.265625 0.078125 0.515625q0.078125 0.234375 0.265625 0.421875q0.1875 0.1875 0.46875 0.296875q0.296875 0.109375 0.71875 0.109375q0.546875 0 1.25 -0.328125q0.703125 -0.34375 1.484375 -1.0625l0 -1.609375zm11.147919 -3.703125q0.25 0.328125 0.390625 0.75q0.140625 0.421875 0.140625 0.921875q0 0.703125 -0.265625 1.296875q-0.25 0.578125 -0.734375 1.0q-0.46875 0.421875 -1.125 0.65625q-0.65625 0.234375 -1.453125 0.234375q-0.578125 0 -1.078125 -0.125q-0.5 -0.125 -0.78125 -0.3125q-0.1875 0.265625 -0.3125 0.5q-0.109375 0.21875 -0.109375 0.5q0 0.34375 0.328125 0.578125q0.34375 0.21875 0.890625 0.234375l2.40625 0.09375q0.671875 0.015625 1.25 0.171875q0.59375 0.15625 1.0 0.453125q0.421875 0.28125 0.640625 0.71875q0.234375 0.421875 0.234375 0.984375q0 0.609375 -0.265625 1.15625q-0.25 0.546875 -0.8125 0.953125q-0.546875 0.421875 -1.390625 0.671875q-0.84375 0.25 -2.015625 0.25q-1.109375 0 -1.890625 -0.1875q-0.78125 -0.171875 -1.28125 -0.484375q-0.5 -0.3125 -0.734375 -0.75q-0.21875 -0.421875 -0.21875 -0.953125q0 -0.65625 0.296875 -1.15625q0.3125 -0.5 0.96875 -0.96875q-0.234375 -0.109375 -0.40625 -0.265625q-0.171875 -0.171875 -0.28125 -0.359375q-0.109375 -0.203125 -0.171875 -0.421875q-0.046875 -0.21875 -0.046875 -0.4375q0 -0.578125 0.265625 -1.0625q0.28125 -0.5 0.671875 -0.9375q-0.171875 -0.21875 -0.3125 -0.40625q-0.125 -0.203125 -0.234375 -0.4375q-0.09375 -0.234375 -0.140625 -0.5q-0.046875 -0.28125 -0.046875 -0.625q0 -0.703125 0.25 -1.28125q0.265625 -0.59375 0.734375 -1.015625q0.46875 -0.421875 1.125 -0.65625q0.671875 -0.234375 1.46875 -0.234375q0.34375 0 0.640625 0.046875q0.3125 0.046875 0.546875 0.125l3.328125 0l0 1.28125l-1.46875 0zm-5.5 9.1875q0 0.640625 0.671875 0.9375q0.671875 0.296875 1.875 0.296875q0.75 0 1.265625 -0.140625q0.515625 -0.140625 0.828125 -0.359375q0.3125 -0.21875 0.453125 -0.515625q0.140625 -0.28125 0.140625 -0.578125q0 -0.5625 -0.453125 -0.828125q-0.453125 -0.265625 -1.390625 -0.296875l-2.390625 -0.09375q-0.296875 0.203125 -0.5 0.390625q-0.203125 0.203125 -0.3125 0.390625q-0.109375 0.203125 -0.15625 0.390625q-0.03125 0.203125 -0.03125 0.40625zm0.484375 -7.484375q0 0.4375 0.140625 0.8125q0.140625 0.359375 0.40625 0.609375q0.265625 0.25 0.625 0.390625q0.359375 0.140625 0.796875 0.140625q0.46875 0 0.84375 -0.15625q0.375 -0.15625 0.625 -0.421875q0.25 -0.28125 0.375 -0.640625q0.140625 -0.359375 0.140625 -0.734375q0 -0.4375 -0.15625 -0.796875q-0.140625 -0.375 -0.40625 -0.625q-0.265625 -0.25 -0.625 -0.390625q-0.359375 -0.140625 -0.796875 -0.140625q-0.46875 0 -0.84375 0.171875q-0.359375 0.15625 -0.625 0.421875q-0.25 0.265625 -0.375 0.625q-0.125 0.34375 -0.125 0.734375zm16.413544 1.09375q0 0.34375 -0.015625 0.578125q0 0.21875 -0.03125 0.421875l-6.421875 0q0 1.40625 0.78125 2.15625q0.796875 0.75 2.265625 0.75q0.40625 0 0.796875 -0.03125q0.40625 -0.03125 0.78125 -0.078125q0.375 -0.0625 0.71875 -0.125q0.34375 -0.078125 0.625 -0.15625l0 1.296875q-0.640625 0.1875 -1.46875 0.296875q-0.8125 0.109375 -1.6875 0.109375q-1.171875 0 -2.015625 -0.3125q-0.84375 -0.3125 -1.390625 -0.921875q-0.546875 -0.609375 -0.8125 -1.484375q-0.25 -0.875 -0.25 -2.0q0 -0.953125 0.28125 -1.8125q0.28125 -0.859375 0.8125 -1.515625q0.53125 -0.65625 1.296875 -1.03125q0.78125 -0.390625 1.765625 -0.390625q0.953125 0 1.6875 0.3125q0.75 0.296875 1.25 0.84375q0.5 0.546875 0.765625 1.34375q0.265625 0.78125 0.265625 1.75zm-1.65625 -0.21875q0.03125 -0.609375 -0.125 -1.109375q-0.140625 -0.515625 -0.453125 -0.875q-0.296875 -0.375 -0.75 -0.578125q-0.453125 -0.203125 -1.0625 -0.203125q-0.515625 0 -0.953125 0.203125q-0.421875 0.203125 -0.734375 0.5625q-0.296875 0.359375 -0.5 0.875q-0.1875 0.515625 -0.234375 1.125l4.8125 0z" fill-rule="nonzero"/><path fill="#cfe2f3" d="m107.92913 289.96463l257.5433 0l0 50.897644l-257.5433 0z" fill-rule="evenodd"/><path stroke="#000000" stroke-width="1.0" stroke-linejoin="round" stroke-linecap="butt" d="m107.92913 289.96463l257.5433 0l0 50.897644l-257.5433 0z" fill-rule="evenodd"/><path fill="#000000" d="m190.45755 322.33347l-1.765625 0l-0.84375 -2.59375l-4.953125 0l-0.828125 2.59375l-1.6875 0l3.953125 -11.90625l2.21875 0l3.90625 11.90625zm-3.0625 -4.046875l-2.015625 -6.359375l-2.015625 6.359375l4.03125 0zm4.9760437 -5.09375l1.453125 0l0.046875 1.6875q0.8125 -0.984375 1.59375 -1.421875q0.796875 -0.4375 1.59375 -0.4375q1.421875 0 2.15625 0.921875q0.734375 0.921875 0.671875 2.734375l-1.59375 0q0.015625 -1.203125 -0.359375 -1.734375q-0.375 -0.546875 -1.109375 -0.546875q-0.3125 0 -0.640625 0.109375q-0.328125 0.109375 -0.671875 0.359375q-0.328125 0.25 -0.71875 0.640625q-0.375 0.390625 -0.8125 0.953125l0 5.875l-1.609375 0l0 -9.140625zm17.710419 4.40625q0 1.140625 -0.328125 2.046875q-0.3125 0.890625 -0.890625 1.515625q-0.578125 0.609375 -1.40625 0.953125q-0.828125 0.328125 -1.859375 0.328125q-0.8125 0 -1.671875 -0.15625q-0.84375 -0.15625 -1.671875 -0.484375l0 -12.34375l1.59375 0l0 3.546875l-0.078125 1.6875q0.6875 -0.90625 1.453125 -1.28125q0.78125 -0.390625 1.6875 -0.390625q0.78125 0 1.375 0.328125q0.59375 0.328125 0.984375 0.9375q0.40625 0.59375 0.609375 1.4375q0.203125 0.828125 0.203125 1.875zm-1.625 0.0625q0 -0.71875 -0.109375 -1.3125q-0.109375 -0.609375 -0.34375 -1.03125q-0.21875 -0.421875 -0.578125 -0.65625q-0.34375 -0.25 -0.84375 -0.25q-0.296875 0 -0.609375 0.09375q-0.3125 0.09375 -0.640625 0.328125q-0.328125 0.21875 -0.703125 0.59375q-0.359375 0.359375 -0.78125 0.90625l0 4.4375q0.453125 0.171875 0.9375 0.28125q0.484375 0.109375 0.921875 0.109375q0.546875 0 1.046875 -0.171875q0.5 -0.171875 0.875 -0.578125q0.375 -0.40625 0.59375 -1.078125q0.234375 -0.671875 0.234375 -1.671875zm7.1791687 -3.15625l-2.703125 0l0 -1.3125l4.296875 0l0 7.8125l2.734375 0l0 1.328125l-7.34375 0l0 -1.328125l3.015625 0l0 -6.5zm0.546875 -5.15625q0.265625 0 0.484375 0.09375q0.234375 0.09375 0.40625 0.28125q0.171875 0.171875 0.265625 0.390625q0.09375 0.21875 0.09375 0.484375q0 0.25 -0.09375 0.484375q-0.09375 0.234375 -0.265625 0.40625q-0.171875 0.171875 -0.40625 0.265625q-0.21875 0.09375 -0.484375 0.09375q-0.265625 0 -0.5 -0.09375q-0.21875 -0.09375 -0.390625 -0.265625q-0.15625 -0.171875 -0.265625 -0.40625q-0.09375 -0.234375 -0.09375 -0.484375q0 -0.265625 0.09375 -0.484375q0.109375 -0.21875 0.265625 -0.390625q0.171875 -0.1875 0.390625 -0.28125q0.234375 -0.09375 0.5 -0.09375zm13.960419 12.859375q-0.53125 0.140625 -1.109375 0.1875q-0.578125 0.0625 -1.171875 0.0625q-1.71875 0 -2.5625 -0.78125q-0.84375 -0.78125 -0.84375 -2.390625l0 -4.765625l-2.5625 0l0 -1.328125l2.5625 0l0 -2.515625l1.578125 -0.40625l0 2.921875l4.109375 0l0 1.328125l-4.109375 0l0 4.640625q0 0.984375 0.515625 1.46875q0.53125 0.484375 1.546875 0.484375q0.4375 0 0.953125 -0.0625q0.53125 -0.0625 1.09375 -0.21875l0 1.375zm3.2572937 -9.015625l1.453125 0l0.046875 1.6875q0.8125 -0.984375 1.59375 -1.421875q0.796875 -0.4375 1.59375 -0.4375q1.421875 0 2.15625 0.921875q0.734375 0.921875 0.671875 2.734375l-1.59375 0q0.015625 -1.203125 -0.359375 -1.734375q-0.375 -0.546875 -1.109375 -0.546875q-0.3125 0 -0.640625 0.109375q-0.328125 0.109375 -0.671875 0.359375q-0.328125 0.25 -0.71875 0.640625q-0.375 0.390625 -0.8125 0.953125l0 5.875l-1.609375 0l0 -9.140625zm15.757294 9.140625l-0.03125 -1.234375q-0.75 0.75 -1.515625 1.078125q-0.765625 0.3125 -1.625 0.3125q-0.78125 0 -1.34375 -0.1875q-0.546875 -0.203125 -0.90625 -0.546875q-0.359375 -0.359375 -0.53125 -0.828125q-0.15625 -0.484375 -0.15625 -1.03125q0 -1.375 1.015625 -2.15625q1.03125 -0.78125 3.03125 -0.78125l1.890625 0l0 -0.796875q0 -0.8125 -0.515625 -1.296875q-0.515625 -0.5 -1.578125 -0.5q-0.78125 0 -1.53125 0.1875q-0.75 0.171875 -1.546875 0.484375l0 -1.4375q0.296875 -0.109375 0.65625 -0.203125q0.375 -0.109375 0.78125 -0.1875q0.40625 -0.078125 0.859375 -0.125q0.453125 -0.0625 0.90625 -0.0625q0.828125 0 1.484375 0.1875q0.671875 0.171875 1.125 0.546875q0.46875 0.375 0.703125 0.953125q0.25 0.5625 0.25 1.328125l0 6.296875l-1.421875 0zm-0.171875 -4.15625l-2.015625 0q-0.578125 0 -1.015625 0.125q-0.421875 0.109375 -0.703125 0.328125q-0.265625 0.21875 -0.40625 0.53125q-0.125 0.296875 -0.125 0.671875q0 0.265625 0.078125 0.515625q0.078125 0.234375 0.265625 0.421875q0.1875 0.1875 0.46875 0.296875q0.296875 0.109375 0.71875 0.109375q0.546875 0 1.25 -0.328125q0.703125 -0.34375 1.484375 -1.0625l0 -1.609375zm11.929169 4.03125q-0.53125 0.140625 -1.109375 0.1875q-0.578125 0.0625 -1.171875 0.0625q-1.71875 0 -2.5625 -0.78125q-0.84375 -0.78125 -0.84375 -2.390625l0 -4.765625l-2.5625 0l0 -1.328125l2.5625 0l0 -2.515625l1.578125 -0.40625l0 2.921875l4.109375 0l0 1.328125l-4.109375 0l0 4.640625q0 0.984375 0.515625 1.46875q0.53125 0.484375 1.546875 0.484375q0.4375 0 0.953125 -0.0625q0.53125 -0.0625 1.09375 -0.21875l0 1.375zm6.0072937 -7.703125l-2.703125 0l0 -1.3125l4.296875 0l0 7.8125l2.734375 0l0 1.328125l-7.34375 0l0 -1.328125l3.015625 0l0 -6.5zm0.546875 -5.15625q0.265625 0 0.484375 0.09375q0.234375 0.09375 0.40625 0.28125q0.171875 0.171875 0.265625 0.390625q0.09375 0.21875 0.09375 0.484375q0 0.25 -0.09375 0.484375q-0.09375 0.234375 -0.265625 0.40625q-0.171875 0.171875 -0.40625 0.265625q-0.21875 0.09375 -0.484375 0.09375q-0.265625 0 -0.5 -0.09375q-0.21875 -0.09375 -0.390625 -0.265625q-0.15625 -0.171875 -0.265625 -0.40625q-0.09375 -0.234375 -0.09375 -0.484375q0 -0.265625 0.09375 -0.484375q0.109375 -0.21875 0.265625 -0.390625q0.171875 -0.1875 0.390625 -0.28125q0.234375 -0.09375 0.5 -0.09375zm14.554169 8.34375q0 1.0625 -0.3125 1.953125q-0.296875 0.890625 -0.859375 1.53125q-0.5625 0.625 -1.375 0.96875q-0.8125 0.34375 -1.84375 0.34375q-0.984375 0 -1.765625 -0.296875q-0.765625 -0.3125 -1.3125 -0.890625q-0.546875 -0.59375 -0.828125 -1.46875q-0.28125 -0.875 -0.28125 -2.015625q0 -1.0625 0.296875 -1.9375q0.296875 -0.890625 0.859375 -1.515625q0.5625 -0.640625 1.375 -0.984375q0.8125 -0.359375 1.84375 -0.359375q0.984375 0 1.765625 0.3125q0.78125 0.296875 1.3125 0.890625q0.546875 0.578125 0.828125 1.453125q0.296875 0.875 0.296875 2.015625zm-1.625 0.0625q0 -0.84375 -0.1875 -1.46875q-0.1875 -0.640625 -0.53125 -1.0625q-0.34375 -0.421875 -0.84375 -0.640625q-0.5 -0.21875 -1.109375 -0.21875q-0.703125 0 -1.21875 0.28125q-0.5 0.28125 -0.828125 0.75q-0.3125 0.453125 -0.46875 1.078125q-0.15625 0.609375 -0.15625 1.28125q0 0.859375 0.1875 1.5q0.1875 0.625 0.53125 1.046875q0.359375 0.421875 0.84375 0.640625q0.5 0.21875 1.109375 0.21875q0.71875 0 1.21875 -0.28125q0.5 -0.28125 0.828125 -0.734375q0.328125 -0.46875 0.46875 -1.078125q0.15625 -0.625 0.15625 -1.3125zm3.9135437 -4.5625l1.421875 0l0.0625 1.46875q0.390625 -0.46875 0.765625 -0.78125q0.375 -0.3125 0.734375 -0.5q0.359375 -0.203125 0.734375 -0.28125q0.375 -0.078125 0.78125 -0.078125q1.40625 0 2.125 0.84375q0.734375 0.828125 0.734375 2.5l0 5.96875l-1.59375 0l0 -5.84375q0 -1.078125 -0.40625 -1.578125q-0.390625 -0.515625 -1.1875 -0.515625q-0.28125 0 -0.5625 0.09375q-0.28125 0.078125 -0.578125 0.296875q-0.296875 0.203125 -0.65625 0.578125q-0.34375 0.359375 -0.78125 0.90625l0 6.0625l-1.59375 0l0 -9.140625z" fill-rule="nonzero"/><path fill="#cfe2f3" d="m544.87506 289.96463l257.54327 0l0 50.897644l-257.54327 0z" fill-rule="evenodd"/><path stroke="#000000" stroke-width="1.0" stroke-linejoin="round" stroke-linecap="butt" d="m544.87506 289.96463l257.54327 0l0 50.897644l-257.54327 0z" fill-rule="evenodd"/><path fill="#000000" d="m585.7805 311.33347l-1.828125 0l-1.78125 -3.8125q-0.203125 -0.4375 -0.421875 -0.71875q-0.203125 -0.28125 -0.453125 -0.453125q-0.234375 -0.171875 -0.515625 -0.234375q-0.28125 -0.078125 -0.640625 -0.078125l-0.765625 0l0 5.296875l-1.625 0l0 -11.90625l3.1875 0q1.046875 0 1.78125 0.234375q0.75 0.21875 1.21875 0.640625q0.484375 0.40625 0.703125 0.984375q0.234375 0.578125 0.234375 1.28125q0 0.546875 -0.171875 1.046875q-0.15625 0.5 -0.484375 0.90625q-0.3125 0.40625 -0.796875 0.703125q-0.484375 0.28125 -1.09375 0.4375q0.5 0.171875 0.84375 0.609375q0.359375 0.421875 0.71875 1.140625l1.890625 3.921875zm-2.59375 -8.640625q0 -0.953125 -0.609375 -1.421875q-0.59375 -0.484375 -1.671875 -0.484375l-1.53125 0l0 3.9375l1.3125 0q0.578125 0 1.03125 -0.125q0.453125 -0.140625 0.78125 -0.390625q0.328125 -0.265625 0.5 -0.640625q0.1875 -0.375 0.1875 -0.875zm12.460449 3.578125q0 0.34375 -0.015625 0.578125q0 0.21875 -0.03125 0.421875l-6.421875 0q0 1.40625 0.78125 2.15625q0.796875 0.75 2.265625 0.75q0.40625 0 0.796875 -0.03125q0.40625 -0.03125 0.78125 -0.078125q0.375 -0.0625 0.71875 -0.125q0.34375 -0.078125 0.625 -0.15625l0 1.296875q-0.640625 0.1875 -1.46875 0.296875q-0.8125 0.109375 -1.6875 0.109375q-1.171875 0 -2.015625 -0.3125q-0.84375 -0.3125 -1.390625 -0.921875q-0.546875 -0.609375 -0.8125 -1.484375q-0.25 -0.875 -0.25 -2.0q0 -0.953125 0.28125 -1.8125q0.28125 -0.859375 0.8125 -1.515625q0.53125 -0.65625 1.296875 -1.03125q0.78125 -0.390625 1.765625 -0.390625q0.953125 0 1.6875 0.3125q0.75 0.296875 1.25 0.84375q0.5 0.546875 0.765625 1.34375q0.265625 0.78125 0.265625 1.75zm-1.65625 -0.21875q0.03125 -0.609375 -0.125 -1.109375q-0.140625 -0.515625 -0.453125 -0.875q-0.296875 -0.375 -0.75 -0.578125q-0.453125 -0.203125 -1.0625 -0.203125q-0.515625 0 -0.953125 0.203125q-0.421875 0.203125 -0.734375 0.5625q-0.296875 0.359375 -0.5 0.875q-0.1875 0.515625 -0.234375 1.125l4.8125 0zm10.054138 5.28125l-0.03125 -1.234375q-0.75 0.75 -1.515625 1.078125q-0.765625 0.3125 -1.625 0.3125q-0.78125 0 -1.34375 -0.1875q-0.546875 -0.203125 -0.90625 -0.546875q-0.359375 -0.359375 -0.53125 -0.828125q-0.15625 -0.484375 -0.15625 -1.03125q0 -1.375 1.015625 -2.15625q1.03125 -0.78125 3.03125 -0.78125l1.890625 0l0 -0.796875q0 -0.8125 -0.515625 -1.296875q-0.515625 -0.5 -1.578125 -0.5q-0.78125 0 -1.53125 0.1875q-0.75 0.171875 -1.546875 0.484375l0 -1.4375q0.296875 -0.109375 0.65625 -0.203125q0.375 -0.109375 0.78125 -0.1875q0.40625 -0.078125 0.859375 -0.125q0.453125 -0.0625 0.90625 -0.0625q0.828125 0 1.484375 0.1875q0.671875 0.171875 1.125 0.546875q0.46875 0.375 0.703125 0.953125q0.25 0.5625 0.25 1.328125l0 6.296875l-1.421875 0zm-0.171875 -4.15625l-2.015625 0q-0.578125 0 -1.015625 0.125q-0.421875 0.109375 -0.703125 0.328125q-0.265625 0.21875 -0.40625 0.53125q-0.125 0.296875 -0.125 0.671875q0 0.265625 0.078125 0.515625q0.078125 0.234375 0.265625 0.421875q0.1875 0.1875 0.46875 0.296875q0.296875 0.109375 0.71875 0.109375q0.546875 0 1.25 -0.328125q0.703125 -0.34375 1.484375 -1.0625l0 -1.609375zm4.101074 -0.21875q0 -1.171875 0.3125 -2.078125q0.3125 -0.90625 0.90625 -1.53125q0.59375 -0.625 1.40625 -0.9375q0.828125 -0.328125 1.84375 -0.328125q0.4375 0 0.859375 0.0625q0.421875 0.046875 0.828125 0.15625l0 -3.84375l1.59375 0l0 12.875l-1.421875 0l-0.046875 -1.734375q-0.671875 0.96875 -1.453125 1.4375q-0.765625 0.453125 -1.671875 0.453125q-0.78125 0 -1.375 -0.3125q-0.59375 -0.328125 -1.0 -0.921875q-0.390625 -0.609375 -0.59375 -1.4375q-0.1875 -0.84375 -0.1875 -1.859375zm1.609375 -0.109375q0 1.65625 0.484375 2.484375q0.5 0.8125 1.390625 0.8125q0.59375 0 1.265625 -0.53125q0.671875 -0.546875 1.40625 -1.609375l0 -4.234375q-0.390625 -0.1875 -0.859375 -0.28125q-0.46875 -0.09375 -0.9375 -0.09375q-1.296875 0 -2.03125 0.84375q-0.71875 0.828125 -0.71875 2.609375zm26.717712 -8.390625l-6.25 14.828125l-1.515625 0l6.25 -14.828125l1.515625 0zm20.952087 4.609375q0 0.734375 -0.28125 1.453125q-0.265625 0.703125 -0.84375 1.28125q-0.5625 0.5625 -1.453125 0.921875q-0.890625 0.34375 -2.140625 0.34375l-1.46875 0l0 4.265625l-1.625 0l0 -11.90625l3.359375 0q0.875 0 1.6875 0.203125q0.8125 0.1875 1.421875 0.625q0.625 0.4375 0.984375 1.140625q0.359375 0.6875 0.359375 1.671875zm-1.6875 0.078125q0 -1.15625 -0.75 -1.765625q-0.75 -0.609375 -2.09375 -0.609375l-1.65625 0l0 4.90625l1.515625 0q1.4375 0 2.203125 -0.625q0.78125 -0.640625 0.78125 -1.90625zm4.522888 -0.953125l1.453125 0l0.046875 1.6875q0.8125 -0.984375 1.59375 -1.421875q0.796875 -0.4375 1.59375 -0.4375q1.421875 0 2.15625 0.921875q0.734375 0.921875 0.671875 2.734375l-1.59375 0q0.015625 -1.203125 -0.359375 -1.734375q-0.375 -0.546875 -1.109375 -0.546875q-0.3125 0 -0.640625 0.109375q-0.328125 0.109375 -0.671875 0.359375q-0.328125 0.25 -0.71875 0.640625q-0.375 0.390625 -0.8125 0.953125l0 5.875l-1.609375 0l0 -9.140625zm17.851074 4.5q0 1.0625 -0.3125 1.953125q-0.296875 0.890625 -0.859375 1.53125q-0.5625 0.625 -1.375 0.96875q-0.8125 0.34375 -1.84375 0.34375q-0.984375 0 -1.765625 -0.296875q-0.765625 -0.3125 -1.3125 -0.890625q-0.546875 -0.59375 -0.828125 -1.46875q-0.28125 -0.875 -0.28125 -2.015625q0 -1.0625 0.296875 -1.9375q0.296875 -0.890625 0.859375 -1.515625q0.5625 -0.640625 1.375 -0.984375q0.8125 -0.359375 1.84375 -0.359375q0.984375 0 1.765625 0.3125q0.78125 0.296875 1.3125 0.890625q0.546875 0.578125 0.828125 1.453125q0.296875 0.875 0.296875 2.015625zm-1.625 0.0625q0 -0.84375 -0.1875 -1.46875q-0.1875 -0.640625 -0.53125 -1.0625q-0.34375 -0.421875 -0.84375 -0.640625q-0.5 -0.21875 -1.109375 -0.21875q-0.703125 0 -1.21875 0.28125q-0.5 0.28125 -0.828125 0.75q-0.3125 0.453125 -0.46875 1.078125q-0.15625 0.609375 -0.15625 1.28125q0 0.859375 0.1875 1.5q0.1875 0.625 0.53125 1.046875q0.359375 0.421875 0.84375 0.640625q0.5 0.21875 1.109375 0.21875q0.71875 0 1.21875 -0.28125q0.5 -0.28125 0.828125 -0.734375q0.328125 -0.46875 0.46875 -1.078125q0.15625 -0.625 0.15625 -1.3125zm10.507263 -3.28125q0.25 0.328125 0.390625 0.75q0.140625 0.421875 0.140625 0.921875q0 0.703125 -0.265625 1.296875q-0.25 0.578125 -0.734375 1.0q-0.46875 0.421875 -1.125 0.65625q-0.65625 0.234375 -1.453125 0.234375q-0.578125 0 -1.078125 -0.125q-0.5 -0.125 -0.78125 -0.3125q-0.1875 0.265625 -0.3125 0.5q-0.109375 0.21875 -0.109375 0.5q0 0.34375 0.328125 0.578125q0.34375 0.21875 0.890625 0.234375l2.40625 0.09375q0.671875 0.015625 1.25 0.171875q0.59375 0.15625 1.0 0.453125q0.421875 0.28125 0.640625 0.71875q0.234375 0.421875 0.234375 0.984375q0 0.609375 -0.265625 1.15625q-0.25 0.546875 -0.8125 0.953125q-0.546875 0.421875 -1.390625 0.671875q-0.84375 0.25 -2.015625 0.25q-1.109375 0 -1.890625 -0.1875q-0.78125 -0.171875 -1.28125 -0.484375q-0.5 -0.3125 -0.734375 -0.75q-0.21875 -0.421875 -0.21875 -0.953125q0 -0.65625 0.296875 -1.15625q0.3125 -0.5 0.96875 -0.96875q-0.234375 -0.109375 -0.40625 -0.265625q-0.171875 -0.171875 -0.28125 -0.359375q-0.109375 -0.203125 -0.171875 -0.421875q-0.046875 -0.21875 -0.046875 -0.4375q0 -0.578125 0.265625 -1.0625q0.28125 -0.5 0.671875 -0.9375q-0.171875 -0.21875 -0.3125 -0.40625q-0.125 -0.203125 -0.234375 -0.4375q-0.09375 -0.234375 -0.140625 -0.5q-0.046875 -0.28125 -0.046875 -0.625q0 -0.703125 0.25 -1.28125q0.265625 -0.59375 0.734375 -1.015625q0.46875 -0.421875 1.125 -0.65625q0.671875 -0.234375 1.46875 -0.234375q0.34375 0 0.640625 0.046875q0.3125 0.046875 0.546875 0.125l3.328125 0l0 1.28125l-1.46875 0zm-5.5 9.1875q0 0.640625 0.671875 0.9375q0.671875 0.296875 1.875 0.296875q0.75 0 1.265625 -0.140625q0.515625 -0.140625 0.828125 -0.359375q0.3125 -0.21875 0.453125 -0.515625q0.140625 -0.28125 0.140625 -0.578125q0 -0.5625 -0.453125 -0.828125q-0.453125 -0.265625 -1.390625 -0.296875l-2.390625 -0.09375q-0.296875 0.203125 -0.5 0.390625q-0.203125 0.203125 -0.3125 0.390625q-0.109375 0.203125 -0.15625 0.390625q-0.03125 0.203125 -0.03125 0.40625zm0.484375 -7.484375q0 0.4375 0.140625 0.8125q0.140625 0.359375 0.40625 0.609375q0.265625 0.25 0.625 0.390625q0.359375 0.140625 0.796875 0.140625q0.46875 0 0.84375 -0.15625q0.375 -0.15625 0.625 -0.421875q0.25 -0.28125 0.375 -0.640625q0.140625 -0.359375 0.140625 -0.734375q0 -0.4375 -0.15625 -0.796875q-0.140625 -0.375 -0.40625 -0.625q-0.265625 -0.25 -0.625 -0.390625q-0.359375 -0.140625 -0.796875 -0.140625q-0.46875 0 -0.84375 0.171875q-0.359375 0.15625 -0.625 0.421875q-0.25 0.265625 -0.375 0.625q-0.125 0.34375 -0.125 0.734375zm26.295837 -6.71875l-6.25 14.828125l-1.515625 0l6.25 -14.828125l1.515625 0zm20.295837 12.875l-6.765625 0l0 -11.90625l6.765625 0l0 1.359375l-5.140625 0l0 3.703125l4.953125 0l0 1.359375l-4.953125 0l0 4.09375l5.140625 0l0 1.390625zm3.4916992 -9.140625l1.453125 0l0.046875 1.6875q0.8125 -0.984375 1.59375 -1.421875q0.796875 -0.4375 1.59375 -0.4375q1.421875 0 2.15625 0.921875q0.734375 0.921875 0.671875 2.734375l-1.59375 0q0.015625 -1.203125 -0.359375 -1.734375q-0.375 -0.546875 -1.109375 -0.546875q-0.3125 0 -0.640625 0.109375q-0.328125 0.109375 -0.671875 0.359375q-0.328125 0.25 -0.71875 0.640625q-0.375 0.390625 -0.8125 0.953125l0 5.875l-1.609375 0l0 -9.140625zm15.757263 9.140625l-0.03125 -1.234375q-0.75 0.75 -1.515625 1.078125q-0.765625 0.3125 -1.625 0.3125q-0.78125 0 -1.34375 -0.1875q-0.546875 -0.203125 -0.90625 -0.546875q-0.359375 -0.359375 -0.53125 -0.828125q-0.15625 -0.484375 -0.15625 -1.03125q0 -1.375 1.015625 -2.15625q1.03125 -0.78125 3.03125 -0.78125l1.890625 0l0 -0.796875q0 -0.8125 -0.515625 -1.296875q-0.515625 -0.5 -1.578125 -0.5q-0.78125 0 -1.53125 0.1875q-0.75 0.171875 -1.546875 0.484375l0 -1.4375q0.296875 -0.109375 0.65625 -0.203125q0.375 -0.109375 0.78125 -0.1875q0.40625 -0.078125 0.859375 -0.125q0.453125 -0.0625 0.90625 -0.0625q0.828125 0 1.484375 0.1875q0.671875 0.171875 1.125 0.546875q0.46875 0.375 0.703125 0.953125q0.25 0.5625 0.25 1.328125l0 6.296875l-1.421875 0zm-0.171875 -4.15625l-2.015625 0q-0.578125 0 -1.015625 0.125q-0.421875 0.109375 -0.703125 0.328125q-0.265625 0.21875 -0.40625 0.53125q-0.125 0.296875 -0.125 0.671875q0 0.265625 0.078125 0.515625q0.078125 0.234375 0.265625 0.421875q0.1875 0.1875 0.46875 0.296875q0.296875 0.109375 0.71875 0.109375q0.546875 0 1.25 -0.328125q0.703125 -0.34375 1.484375 -1.0625l0 -1.609375zm11.804199 1.65625q0 0.484375 -0.171875 0.875q-0.15625 0.375 -0.4375 0.671875q-0.28125 0.296875 -0.65625 0.515625q-0.375 0.203125 -0.796875 0.34375q-0.421875 0.125 -0.875 0.1875q-0.453125 0.0625 -0.875 0.0625q-0.921875 0 -1.703125 -0.078125q-0.78125 -0.078125 -1.53125 -0.265625l0 -1.453125q0.796875 0.234375 1.59375 0.359375q0.796875 0.109375 1.578125 0.109375q1.140625 0 1.6875 -0.3125q0.546875 -0.3125 0.546875 -0.890625q0 -0.234375 -0.09375 -0.421875q-0.078125 -0.203125 -0.3125 -0.375q-0.21875 -0.1875 -0.703125 -0.375q-0.484375 -0.203125 -1.3125 -0.4375q-0.609375 -0.1875 -1.140625 -0.421875q-0.515625 -0.234375 -0.90625 -0.546875q-0.375 -0.328125 -0.59375 -0.75q-0.21875 -0.421875 -0.21875 -1.015625q0 -0.375 0.171875 -0.828125q0.171875 -0.453125 0.59375 -0.84375q0.4375 -0.40625 1.171875 -0.65625q0.734375 -0.265625 1.8125 -0.265625q0.546875 0 1.203125 0.0625q0.65625 0.0625 1.359375 0.203125l0 1.40625q-0.75 -0.171875 -1.421875 -0.25q-0.65625 -0.09375 -1.15625 -0.09375q-0.59375 0 -1.0 0.09375q-0.390625 0.078125 -0.65625 0.25q-0.25 0.15625 -0.359375 0.375q-0.109375 0.203125 -0.109375 0.453125q0 0.25 0.09375 0.453125q0.109375 0.1875 0.359375 0.375q0.265625 0.1875 0.71875 0.375q0.46875 0.1875 1.21875 0.40625q0.8125 0.234375 1.359375 0.5q0.5625 0.25 0.90625 0.578125q0.359375 0.3125 0.5 0.71875q0.15625 0.40625 0.15625 0.90625zm10.741638 -2.5625q0 0.34375 -0.015625 0.578125q0 0.21875 -0.03125 0.421875l-6.421875 0q0 1.40625 0.78125 2.15625q0.796875 0.75 2.265625 0.75q0.40625 0 0.796875 -0.03125q0.40625 -0.03125 0.78125 -0.078125q0.375 -0.0625 0.71875 -0.125q0.34375 -0.078125 0.625 -0.15625l0 1.296875q-0.640625 0.1875 -1.46875 0.296875q-0.8125 0.109375 -1.6875 0.109375q-1.171875 0 -2.015625 -0.3125q-0.84375 -0.3125 -1.390625 -0.921875q-0.546875 -0.609375 -0.8125 -1.484375q-0.25 -0.875 -0.25 -2.0q0 -0.953125 0.28125 -1.8125q0.28125 -0.859375 0.8125 -1.515625q0.53125 -0.65625 1.296875 -1.03125q0.78125 -0.390625 1.765625 -0.390625q0.953125 0 1.6875 0.3125q0.75 0.296875 1.25 0.84375q0.5 0.546875 0.765625 1.34375q0.265625 0.78125 0.265625 1.75zm-1.65625 -0.21875q0.03125 -0.609375 -0.125 -1.109375q-0.140625 -0.515625 -0.453125 -0.875q-0.296875 -0.375 -0.75 -0.578125q-0.453125 -0.203125 -1.0625 -0.203125q-0.515625 0 -0.953125 0.203125q-0.421875 0.203125 -0.734375 0.5625q-0.296875 0.359375 -0.5 0.875q-0.1875 0.515625 -0.234375 1.125l4.8125 0z" fill-rule="nonzero"/><path fill="#000000" d="m646.80865 332.88034q-1.421875 0.59375 -3.0 0.59375q-2.515625 0 -3.875 -1.5q-1.34375 -1.515625 -1.34375 -4.46875q0 -1.421875 0.359375 -2.578125q0.375 -1.15625 1.0625 -1.953125q0.703125 -0.8125 1.6875 -1.25q0.984375 -0.4375 2.203125 -0.4375q0.828125 0 1.53125 0.140625q0.71875 0.140625 1.375 0.421875l0 1.59375q-0.640625 -0.34375 -1.34375 -0.53125q-0.6875 -0.1875 -1.5 -0.1875q-0.84375 0 -1.53125 0.3125q-0.671875 0.3125 -1.15625 0.90625q-0.46875 0.59375 -0.71875 1.46875q-0.25 0.859375 -0.25 1.953125q0 2.3125 0.9375 3.5q0.9375 1.171875 2.75 1.171875q0.765625 0 1.46875 -0.171875q0.703125 -0.1875 1.34375 -0.515625l0 1.53125zm10.616699 -4.1875q0 1.0625 -0.3125 1.953125q-0.296875 0.890625 -0.859375 1.53125q-0.5625 0.625 -1.375 0.96875q-0.8125 0.34375 -1.84375 0.34375q-0.984375 0 -1.765625 -0.296875q-0.765625 -0.3125 -1.3125 -0.890625q-0.546875 -0.59375 -0.828125 -1.46875q-0.28125 -0.875 -0.28125 -2.015625q0 -1.0625 0.296875 -1.9375q0.296875 -0.890625 0.859375 -1.515625q0.5625 -0.640625 1.375 -0.984375q0.8125 -0.359375 1.84375 -0.359375q0.984375 0 1.765625 0.3125q0.78125 0.296875 1.3125 0.890625q0.546875 0.578125 0.828125 1.453125q0.296875 0.875 0.296875 2.015625zm-1.625 0.0625q0 -0.84375 -0.1875 -1.46875q-0.1875 -0.640625 -0.53125 -1.0625q-0.34375 -0.421875 -0.84375 -0.640625q-0.5 -0.21875 -1.109375 -0.21875q-0.703125 0 -1.21875 0.28125q-0.5 0.28125 -0.828125 0.75q-0.3125 0.453125 -0.46875 1.078125q-0.15625 0.609375 -0.15625 1.28125q0 0.859375 0.1875 1.5q0.1875 0.625 0.53125 1.046875q0.359375 0.421875 0.84375 0.640625q0.5 0.21875 1.109375 0.21875q0.71875 0 1.21875 -0.28125q0.5 -0.28125 0.828125 -0.734375q0.328125 -0.46875 0.46875 -1.078125q0.15625 -0.625 0.15625 -1.3125zm3.9135132 -4.5625l1.421875 0l0.0625 1.46875q0.390625 -0.46875 0.765625 -0.78125q0.375 -0.3125 0.734375 -0.5q0.359375 -0.203125 0.734375 -0.28125q0.375 -0.078125 0.78125 -0.078125q1.40625 0 2.125 0.84375q0.734375 0.828125 0.734375 2.5l0 5.96875l-1.59375 0l0 -5.84375q0 -1.078125 -0.40625 -1.578125q-0.390625 -0.515625 -1.1875 -0.515625q-0.28125 0 -0.5625 0.09375q-0.28125 0.078125 -0.578125 0.296875q-0.296875 0.203125 -0.65625 0.578125q-0.34375 0.359375 -0.78125 0.90625l0 6.0625l-1.59375 0l0 -9.140625zm17.632324 9.015625q-0.53125 0.140625 -1.109375 0.1875q-0.578125 0.0625 -1.171875 0.0625q-1.71875 0 -2.5625 -0.78125q-0.84375 -0.78125 -0.84375 -2.390625l0 -4.765625l-2.5625 0l0 -1.328125l2.5625 0l0 -2.515625l1.578125 -0.40625l0 2.921875l4.109375 0l0 1.328125l-4.109375 0l0 4.640625q0 0.984375 0.515625 1.46875q0.53125 0.484375 1.546875 0.484375q0.4375 0 0.953125 -0.0625q0.53125 -0.0625 1.09375 -0.21875l0 1.375zm3.2572632 -9.015625l1.453125 0l0.046875 1.6875q0.8125 -0.984375 1.59375 -1.421875q0.796875 -0.4375 1.59375 -0.4375q1.421875 0 2.15625 0.921875q0.734375 0.921875 0.671875 2.734375l-1.59375 0q0.015625 -1.203125 -0.359375 -1.734375q-0.375 -0.546875 -1.109375 -0.546875q-0.3125 0 -0.640625 0.109375q-0.328125 0.109375 -0.671875 0.359375q-0.328125 0.25 -0.71875 0.640625q-0.375 0.390625 -0.8125 0.953125l0 5.875l-1.609375 0l0 -9.140625zm17.851074 4.5q0 1.0625 -0.3125 1.953125q-0.296875 0.890625 -0.859375 1.53125q-0.5625 0.625 -1.375 0.96875q-0.8125 0.34375 -1.84375 0.34375q-0.984375 0 -1.765625 -0.296875q-0.765625 -0.3125 -1.3125 -0.890625q-0.546875 -0.59375 -0.828125 -1.46875q-0.28125 -0.875 -0.28125 -2.015625q0 -1.0625 0.296875 -1.9375q0.296875 -0.890625 0.859375 -1.515625q0.5625 -0.640625 1.375 -0.984375q0.8125 -0.359375 1.84375 -0.359375q0.984375 0 1.765625 0.3125q0.78125 0.296875 1.3125 0.890625q0.546875 0.578125 0.828125 1.453125q0.296875 0.875 0.296875 2.015625zm-1.625 0.0625q0 -0.84375 -0.1875 -1.46875q-0.1875 -0.640625 -0.53125 -1.0625q-0.34375 -0.421875 -0.84375 -0.640625q-0.5 -0.21875 -1.109375 -0.21875q-0.703125 0 -1.21875 0.28125q-0.5 0.28125 -0.828125 0.75q-0.3125 0.453125 -0.46875 1.078125q-0.15625 0.609375 -0.15625 1.28125q0 0.859375 0.1875 1.5q0.1875 0.625 0.53125 1.046875q0.359375 0.421875 0.84375 0.640625q0.5 0.21875 1.109375 0.21875q0.71875 0 1.21875 -0.28125q0.5 -0.28125 0.828125 -0.734375q0.328125 -0.46875 0.46875 -1.078125q0.15625 -0.625 0.15625 -1.3125zm7.038513 -6.984375l-2.703125 0l0 -1.3125l4.296875 0l0 11.546875l2.734375 0l0 1.328125l-7.34375 0l0 -1.328125l3.015625 0l0 -10.234375z" fill-rule="nonzero"/><path fill="#cfe2f3" d="m545.1811 320.80054l-168.94489 0l0 5.385803l-10.771637 -10.771637l10.771637 -10.7716675l0 5.3858337l168.94489 0z" fill-rule="evenodd"/><path stroke="#000000" stroke-width="1.0" stroke-linejoin="round" stroke-linecap="butt" d="m545.1811 320.80054l-168.94489 0l0 5.385803l-10.771637 -10.771637l10.771637 -10.7716675l0 5.3858337l168.94489 0z" fill-rule="evenodd"/><path fill="#cfe2f3" d="m239.07086 240.3202l0 38.866135l5.3858337 0l-10.771652 10.7716675l-10.771652 -10.7716675l5.3858185 0l0 -38.866135z" fill-rule="evenodd"/><path stroke="#000000" stroke-width="1.0" stroke-linejoin="round" stroke-linecap="butt" d="m239.07086 240.3202l0 38.866135l5.3858337 0l-10.771652 10.7716675l-10.771652 -10.7716675l5.3858185 0l0 -38.866135z" fill-rule="evenodd"/><path fill="#cfe2f3" d="m679.07086 240.3202l0 38.866135l5.385803 0l-10.771606 10.7716675l-10.7716675 -10.7716675l5.385803 0l0 -38.866135z" fill-rule="evenodd"/><path stroke="#000000" stroke-width="1.0" stroke-linejoin="round" stroke-linecap="butt" d="m679.07086 240.3202l0 38.866135l5.385803 0l-10.771606 10.7716675l-10.7716675 -10.7716675l5.385803 0l0 -38.866135z" fill-rule="evenodd"/><path fill="#cfe2f3" d="m455.07086 133.61685l0 32.44095l5.3858337 0l-10.7716675 10.771652l-10.771637 -10.771652l5.3858337 0l0 -32.44095z" fill-rule="evenodd"/><path stroke="#000000" stroke-width="1.0" stroke-linejoin="round" stroke-linecap="butt" d="m455.07086 133.61685l0 32.44095l5.3858337 0l-10.7716675 10.771652l-10.771637 -10.771652l5.3858337 0l0 -32.44095z" fill-rule="evenodd"/><path fill="#cfe2f3" d="m86.54855 72.115486l735.0237 0l0 64.125984l-735.0237 0z" fill-rule="evenodd"/><path stroke="#000000" stroke-width="1.0" stroke-linejoin="round" stroke-linecap="butt" d="m86.54855 72.115486l735.0237 0l0 64.125984l-735.0237 0z" fill-rule="evenodd"/><path fill="#000000" d="m439.576 112.718475l-2.078125 0l0 -7.03125l-6.4375 0l0 7.03125l-2.09375 0l0 -15.3125l2.09375 0l0 6.46875l6.4375 0l0 -6.46875l2.078125 0l0 15.3125zm13.4140625 -5.984375q0 1.375 -0.390625 2.515625q-0.390625 1.140625 -1.125 1.96875q-0.71875 0.8125 -1.765625 1.265625q-1.03125 0.453125 -2.359375 0.453125q-1.265625 0 -2.265625 -0.390625q-1.0 -0.40625 -1.703125 -1.15625q-0.703125 -0.765625 -1.078125 -1.890625q-0.359375 -1.125 -0.359375 -2.59375q0 -1.375 0.390625 -2.5q0.390625 -1.140625 1.109375 -1.953125q0.734375 -0.8125 1.765625 -1.265625q1.046875 -0.453125 2.375 -0.453125q1.265625 0 2.265625 0.40625q1.0 0.390625 1.6875 1.140625q0.703125 0.75 1.078125 1.875q0.375 1.125 0.375 2.578125zm-2.09375 0.09375q0 -1.078125 -0.25 -1.890625q-0.234375 -0.828125 -0.6875 -1.359375q-0.4375 -0.546875 -1.078125 -0.828125q-0.625 -0.28125 -1.421875 -0.28125q-0.90625 0 -1.5625 0.359375q-0.640625 0.359375 -1.0625 0.96875q-0.421875 0.59375 -0.609375 1.390625q-0.1875 0.78125 -0.1875 1.640625q0 1.09375 0.234375 1.921875q0.234375 0.8125 0.671875 1.359375q0.453125 0.546875 1.078125 0.828125q0.640625 0.265625 1.4375 0.265625q0.921875 0 1.5625 -0.359375q0.65625 -0.359375 1.0625 -0.953125q0.421875 -0.59375 0.609375 -1.375q0.203125 -0.796875 0.203125 -1.6875zm14.3515625 2.671875q0 0.625 -0.21875 1.125q-0.203125 0.484375 -0.5625 0.875q-0.359375 0.375 -0.84375 0.640625q-0.484375 0.265625 -1.03125 0.453125q-0.53125 0.171875 -1.109375 0.25q-0.578125 0.09375 -1.125 0.09375q-1.203125 0 -2.203125 -0.109375q-1.0 -0.109375 -1.953125 -0.34375l0 -1.875q1.03125 0.296875 2.046875 0.453125q1.015625 0.140625 2.03125 0.140625q1.453125 0 2.15625 -0.390625q0.703125 -0.40625 0.703125 -1.140625q0 -0.3125 -0.109375 -0.5625q-0.109375 -0.265625 -0.40625 -0.484375q-0.28125 -0.234375 -0.90625 -0.46875q-0.609375 -0.25 -1.671875 -0.578125q-0.796875 -0.234375 -1.484375 -0.53125q-0.671875 -0.296875 -1.171875 -0.703125q-0.484375 -0.40625 -0.765625 -0.953125q-0.28125 -0.5625 -0.28125 -1.3125q0 -0.484375 0.234375 -1.0625q0.234375 -0.59375 0.78125 -1.09375q0.546875 -0.515625 1.484375 -0.84375q0.9375 -0.34375 2.34375 -0.34375q0.6875 0 1.53125 0.078125q0.84375 0.078125 1.765625 0.265625l0 1.8125q-0.96875 -0.234375 -1.828125 -0.34375q-0.859375 -0.109375 -1.484375 -0.109375q-0.765625 0 -1.296875 0.125q-0.515625 0.109375 -0.84375 0.3125q-0.3125 0.203125 -0.453125 0.484375q-0.140625 0.28125 -0.140625 0.59375q0 0.3125 0.125 0.578125q0.125 0.25 0.453125 0.5q0.328125 0.234375 0.921875 0.484375q0.609375 0.234375 1.5625 0.515625q1.046875 0.296875 1.765625 0.640625q0.71875 0.328125 1.15625 0.734375q0.453125 0.40625 0.640625 0.921875q0.1875 0.515625 0.1875 1.171875zm13.3671875 3.046875q-0.6875 0.1875 -1.4375 0.265625q-0.734375 0.078125 -1.5 0.078125q-2.203125 0 -3.296875 -1.0q-1.09375 -1.015625 -1.09375 -3.09375l0 -6.140625l-3.296875 0l0 -1.703125l3.296875 0l0 -3.234375l2.046875 -0.53125l0 3.765625l5.28125 0l0 1.703125l-5.28125 0l0 5.984375q0 1.265625 0.671875 1.890625q0.671875 0.625 1.984375 0.625q0.5625 0 1.21875 -0.078125q0.671875 -0.09375 1.40625 -0.28125l0 1.75z" fill-rule="nonzero"/></g></svg>