<?xml version="1.0" encoding="UTF-8" standalone="no"?>
<svg
   version="1.1"
   viewBox="0 0 194 400"
   fill="none"
   stroke="none"
   stroke-linecap="square"
   stroke-miterlimit="10"
   id="svg27"
   sodipodi:docname="debug_security_framework (1).svg"
   width="194"
   height="400"
   inkscape:version="1.3.2 (091e20e, 2023-11-25)"
   xmlns:inkscape="http://www.inkscape.org/namespaces/inkscape"
   xmlns:sodipodi="http://sodipodi.sourceforge.net/DTD/sodipodi-0.dtd"
   xmlns="http://www.w3.org/2000/svg"
   xmlns:svg="http://www.w3.org/2000/svg">
  <defs
     id="defs27" />
  <sodipodi:namedview
     id="namedview27"
     pagecolor="#ffffff"
     bordercolor="#000000"
     borderopacity="0.25"
     inkscape:showpageshadow="2"
     inkscape:pageopacity="0.0"
     inkscape:pagecheckerboard="true"
     inkscape:deskcolor="#d1d1d1"
     inkscape:zoom="1"
     inkscape:cx="576"
     inkscape:cy="430"
     inkscape:window-width="5120"
     inkscape:window-height="2037"
     inkscape:window-x="0"
     inkscape:window-y="25"
     inkscape:window-maximized="1"
     inkscape:current-layer="svg27" />
  <clipPath
     id="p.0">
    <path
       d="M 0,0 H 1152 V 864 H 0 Z"
       clip-rule="nonzero"
       id="path1" />
  </clipPath>
  <g
     clip-path="url(#p.0)"
     id="g27">
    <path
       fill="#000000"
       fill-opacity="0"
       d="M 0,0 H 1152 V 864 H 0 Z"
       fill-rule="evenodd"
       id="path2" />
    <path
       fill="#000000"
       fill-opacity="0"
       d="M 34.87139,21.393702 H 179.06035 V 225.80314 H 34.87139 Z"
       fill-rule="evenodd"
       id="path3" />
    <path
       stroke="#000000"
       stroke-width="1"
       stroke-linejoin="round"
       stroke-linecap="butt"
       d="M 34.87139,21.393702 H 179.06035 V 225.80314 H 34.87139 Z"
       fill-rule="evenodd"
       id="path4" />
    <path
       fill="#000000"
       d="M 45.02764,44.4737 V 33.989325 h 4.640625 q 1.40625,0 2.140625,0.28125 0.734375,0.28125 1.171875,1 0.4375,0.703125 0.4375,1.578125 0,1.109375 -0.734375,1.875 -0.71875,0.765625 -2.234375,0.984375 0.5625,0.25 0.84375,0.515625 0.609375,0.5625 1.15625,1.390625 l 1.8125,2.859375 H 52.52764 l -1.390625,-2.1875 q -0.609375,-0.9375 -1,-1.4375 -0.390625,-0.5 -0.703125,-0.703125 -0.3125,-0.203125 -0.640625,-0.28125 -0.234375,-0.04687 -0.765625,-0.04687 h -1.609375 v 4.65625 z m 1.390625,-5.859375 h 2.984375 q 0.9375,0 1.46875,-0.1875 0.546875,-0.203125 0.828125,-0.640625 0.28125,-0.4375 0.28125,-0.9375 0,-0.75 -0.546875,-1.21875 -0.53125,-0.484375 -1.703125,-0.484375 h -3.3125 z m 8.740524,0.75 q 0,-2.609375 1.40625,-4.078125 1.40625,-1.484375 3.625,-1.484375 1.453125,0 2.609375,0.703125 1.171875,0.6875 1.78125,1.921875 0.609375,1.234375 0.609375,2.8125 0,1.59375 -0.640625,2.859375 -0.640625,1.265625 -1.828125,1.90625 -1.171875,0.640625 -2.546875,0.640625 -1.46875,0 -2.640625,-0.703125 -1.171875,-0.71875 -1.78125,-1.953125 -0.59375,-1.25 -0.59375,-2.625 z m 1.4375,0.01563 q 0,1.90625 1.015625,3 1.015625,1.078125 2.5625,1.078125 1.5625,0 2.578125,-1.09375 1.015625,-1.109375 1.015625,-3.125 0,-1.28125 -0.4375,-2.234375 -0.4375,-0.96875 -1.265625,-1.484375 -0.828125,-0.53125 -1.875,-0.53125 -1.46875,0 -2.53125,1.015625 -1.0625,1.015625 -1.0625,3.375 z M 69.65264,44.4737 v -9.25 h -3.453125 v -1.234375 h 8.3125 V 35.2237 h -3.46875 v 9.25 z m 10.165878,0 V 33.989325 h 7.078125 V 35.2237 h -5.6875 v 3.25 h 4.921875 v 1.234375 H 81.209143 V 44.4737 Z m 10.718246,0 -2.796875,-10.484375 h 1.4375 l 1.59375,6.875 q 0.25,1.078125 0.4375,2.140625 0.40625,-1.6875 0.46875,-1.9375 l 2,-7.078125 h 1.671875 l 1.5,5.296875 q 0.578125,1.984375 0.828125,3.71875 0.203125,-1 0.515625,-2.28125 l 1.640625,-6.734375 h 1.406251 L 98.364889,44.4737 h -1.34375 l -2.203125,-8 q -0.28125,-1 -0.34375,-1.21875 -0.15625,0.71875 -0.296875,1.21875 l -2.234375,8 z"
       fill-rule="nonzero"
       id="path5" />
    <path
       fill="#000000"
       fill-opacity="0"
       d="M 48.829395,274.86877 H 162.68767 V 368.9475 H 48.829395 Z"
       fill-rule="evenodd"
       id="path6" />
    <path
       stroke="#000000"
       stroke-width="1"
       stroke-linejoin="round"
       stroke-linecap="butt"
       d="M 48.829395,274.86877 H 162.68767 V 368.9475 H 48.829395 Z"
       fill-rule="evenodd"
       id="path7" />
    <path
       fill="#000000"
       d="m 61.62627,299.98813 v -9.25 h -3.453125 v -1.23438 h 8.312504 v 1.23438 h -3.468754 v 9.25 z m 4.051578,0 4.015625,-10.48438 h 1.5 l 4.296875,10.48438 h -1.578125 l -1.234375,-3.17188 h -4.375 l -1.15625,3.17188 z m 3.015625,-4.3125 h 3.5625 l -1.09375,-2.90625 q -0.5,-1.3125 -0.75,-2.17188 -0.203125,1.01563 -0.5625,2 z m 7.900605,4.3125 v -10.48438 h 3.96875 q 1.046875,0 1.59375,0.0937 0.765625,0.125 1.28125,0.48438 0.53125,0.35937 0.84375,1.01562 0.328125,0.65625 0.328125,1.4375 0,1.32813 -0.859375,2.26563 -0.84375,0.92187 -3.078125,0.92187 h -2.6875 v 4.26563 z m 1.390625,-5.5 h 2.71875 q 1.34375,0 1.90625,-0.5 0.5625,-0.5 0.5625,-1.40625 0,-0.67188 -0.328125,-1.14063 -0.328125,-0.46875 -0.875,-0.60937 -0.359375,-0.0937 -1.296875,-0.0937 h -2.6875 z m 12.035736,-3.51563 v -1.46875 h 1.296875 v 1.46875 z m 0,9.01563 v -7.59375 h 1.296875 v 7.59375 z m 3.256149,0 v -7.59375 h 1.15625 v 1.07812 q 0.84375,-1.25 2.421875,-1.25 0.6875,0 1.265625,0.25 0.578125,0.23438 0.859375,0.64063 0.28125,0.40625 0.40625,0.95312 0.0625,0.35938 0.0625,1.25 v 4.67188 h -1.28125 v -4.625 q 0,-0.78125 -0.15625,-1.17188 -0.15625,-0.39062 -0.546875,-0.625 -0.375,-0.23437 -0.890625,-0.23437 -0.8125,0 -1.421875,0.53125 -0.59375,0.51562 -0.59375,1.96875 v 4.15625 z m 12.332462,0 v -10.48438 h 1.39062 v 9.25 h 5.15625 v 1.23438 z m 7.55735,-3.79688 q 0,-2.10937 1.17188,-3.125 0.98437,-0.84375 2.39062,-0.84375 1.57813,0 2.5625,1.03125 1,1.01563 1,2.82813 0,1.46875 -0.4375,2.3125 -0.4375,0.82812 -1.28125,1.29687 -0.84375,0.46875 -1.84375,0.46875 -1.59375,0 -2.57812,-1.01562 -0.98438,-1.03125 -0.98438,-2.95313 z m 1.32813,0 q 0,1.45313 0.625,2.1875 0.64062,0.71875 1.60937,0.71875 0.96875,0 1.59375,-0.71875 0.64063,-0.73437 0.64063,-2.23437 0,-1.40625 -0.64063,-2.125 -0.64062,-0.73438 -1.59375,-0.73438 -0.96875,0 -1.60937,0.71875 -0.625,0.71875 -0.625,2.1875 z m 12.26048,1.01563 1.26562,0.15625 q -0.20312,1.3125 -1.06249,2.0625 -0.84375,0.73437 -2.09375,0.73437 -1.5625,0 -2.51563,-1.01562 -0.9375,-1.03125 -0.9375,-2.92188 0,-1.23437 0.40625,-2.15625 0.40625,-0.92187 1.23438,-1.375 0.84375,-0.46875 1.8125,-0.46875 1.25,0 2.03125,0.625 0.78125,0.625 1.01562,1.76563 l -1.26562,0.20312 q -0.17188,-0.76562 -0.625,-1.15625 -0.45313,-0.39062 -1.09375,-0.39062 -0.98438,0 -1.59375,0.70312 -0.60938,0.70313 -0.60938,2.20313 0,1.53125 0.57813,2.23437 0.59375,0.6875 1.54687,0.6875 0.75,0 1.26563,-0.45312 0.51562,-0.46875 0.64062,-1.4375 z m 7.32812,1.84375 q -0.71875,0.60937 -1.375,0.85937 -0.65625,0.25 -1.42188,0.25 -1.25,0 -1.92187,-0.60937 -0.67188,-0.60938 -0.67188,-1.5625 0,-0.5625 0.25,-1.01563 0.25,-0.46875 0.65625,-0.75 0.42188,-0.28125 0.9375,-0.42187 0.375,-0.0937 1.14063,-0.1875 1.5625,-0.1875 2.29687,-0.45313 0.0156,-0.26562 0.0156,-0.32812 0,-0.79688 -0.375,-1.10938 -0.48438,-0.4375 -1.45313,-0.4375 -0.92187,0 -1.35937,0.32813 -0.42188,0.3125 -0.625,1.10937 l -1.26563,-0.17187 q 0.17188,-0.79688 0.5625,-1.29688 0.39063,-0.5 1.14063,-0.76562 0.75,-0.26563 1.71875,-0.26563 0.98437,0 1.59375,0.23438 0.60937,0.21875 0.89062,0.5625 0.28125,0.34375 0.40625,0.875 0.0625,0.32812 0.0625,1.1875 v 1.71875 q 0,1.79687 0.0781,2.28125 0.0781,0.46875 0.32812,0.90625 h -1.34375 q -0.20312,-0.40625 -0.26562,-0.9375 z m -0.10938,-2.875 q -0.70312,0.28125 -2.09375,0.48437 -0.79687,0.10938 -1.125,0.26563 -0.32812,0.14062 -0.51562,0.42187 -0.17188,0.26563 -0.17188,0.59375 0,0.51563 0.39063,0.85938 0.39062,0.34375 1.14062,0.34375 0.73438,0 1.3125,-0.3125 0.59375,-0.32813 0.85938,-0.89063 0.20312,-0.4375 0.20312,-1.29687 z m 3.27611,3.8125 v -10.48438 h 1.28125 v 10.48438 z"
       fill-rule="nonzero"
       id="path8" />
    <path
       fill="#000000"
       d="m 58.28252,315.7225 1.265625,-0.20312 q 0.109375,0.76562 0.59375,1.17187 0.5,0.40625 1.375,0.40625 0.890625,0 1.3125,-0.35937 0.4375,-0.35938 0.4375,-0.84375 0,-0.4375 -0.375,-0.6875 -0.265625,-0.17188 -1.3125,-0.4375 Q 60.15752,314.41 59.610645,314.16 59.06377,313.89438 58.78252,313.42563 58.50127,312.95688 58.50127,312.41 q 0,-0.51562 0.21875,-0.9375 0.234375,-0.4375 0.640625,-0.73437 0.296875,-0.21875 0.8125,-0.35938 0.53125,-0.15625 1.125,-0.15625 0.890625,0 1.5625,0.26563 0.671875,0.25 1,0.6875 0.328129,0.4375 0.437504,1.17187 l -1.250004,0.17188 q -0.09375,-0.57813 -0.5,-0.90625 -0.40625,-0.34375 -1.15625,-0.34375 -0.890625,0 -1.28125,0.29687 -0.375,0.29688 -0.375,0.6875 0,0.25 0.15625,0.45313 0.15625,0.20312 0.5,0.34375 0.1875,0.0781 1.140625,0.32812 1.359375,0.35938 1.890625,0.59375 0.546875,0.23438 0.859379,0.6875 0.3125,0.4375 0.3125,1.09375 0,0.64063 -0.375,1.21875 -0.375004,0.5625 -1.093754,0.875 -0.703125,0.3125 -1.59375,0.3125 -1.484375,0 -2.265625,-0.60937 -0.765625,-0.625 -0.984375,-1.82813 z m 7.781254,5.1875 -0.140625,-1.20312 q 0.421875,0.10937 0.734375,0.10937 0.4375,0 0.6875,-0.14062 0.265625,-0.14063 0.421875,-0.40625 0.125,-0.1875 0.390625,-0.95313 0.04687,-0.10937 0.125,-0.3125 l -2.890625,-7.60937 h 1.390625 l 1.578125,4.39062 q 0.3125,0.84375 0.546875,1.76563 0.234375,-0.89063 0.53125,-1.73438 l 1.625,-4.42187 h 1.296875 l -2.890625,7.71875 q -0.46875,1.25 -0.734375,1.73437 -0.34375,0.625 -0.78125,0.92188 -0.4375,0.29687 -1.0625,0.29687 -0.375,0 -0.828125,-0.15625 z m 6.875,-5.1875 1.265625,-0.20312 q 0.109375,0.76562 0.59375,1.17187 0.5,0.40625 1.375,0.40625 0.890625,0 1.3125,-0.35937 0.4375,-0.35938 0.4375,-0.84375 0,-0.4375 -0.375,-0.6875 -0.265625,-0.17188 -1.3125,-0.4375 -1.421875,-0.35938 -1.96875,-0.60938 -0.546875,-0.26562 -0.828125,-0.73437 -0.28125,-0.46875 -0.28125,-1.01563 0,-0.51562 0.21875,-0.9375 0.234375,-0.4375 0.640625,-0.73437 0.296875,-0.21875 0.8125,-0.35938 0.53125,-0.15625 1.125,-0.15625 0.890625,0 1.5625,0.26563 0.671875,0.25 1,0.6875 0.328125,0.4375 0.4375,1.17187 l -1.25,0.17188 q -0.09375,-0.57813 -0.5,-0.90625 -0.40625,-0.34375 -1.15625,-0.34375 -0.890625,0 -1.28125,0.29687 -0.375,0.29688 -0.375,0.6875 0,0.25 0.15625,0.45313 0.15625,0.20312 0.5,0.34375 0.1875,0.0781 1.140625,0.32812 1.359375,0.35938 1.890625,0.59375 0.546875,0.23438 0.859375,0.6875 0.3125,0.4375 0.3125,1.09375 0,0.64063 -0.375,1.21875 -0.375,0.5625 -1.09375,0.875 -0.703125,0.3125 -1.59375,0.3125 -1.484375,0 -2.265625,-0.60937 -0.765625,-0.625 -0.984375,-1.82813 z m 10.65625,1.10938 0.1875,1.14062 q -0.546875,0.10938 -0.984375,0.10938 -0.6875,0 -1.078125,-0.21875 -0.390625,-0.21875 -0.546875,-0.57813 -0.15625,-0.35937 -0.15625,-1.51562 v -4.375 h -0.953125 v -1 h 0.953125 v -1.89063 l 1.28125,-0.76562 v 2.65625 h 1.296875 v 1 h -1.296875 v 4.4375 q 0,0.54687 0.0625,0.71875 0.07813,0.15625 0.21875,0.25 0.15625,0.0781 0.453125,0.0781 0.203125,0 0.5625,-0.0469 z m 6.462601,-1.29688 1.328125,0.17188 q -0.3125,1.17187 -1.171875,1.8125 -0.84375,0.64062 -2.171875,0.64062 -1.671875,0 -2.65625,-1.01562 -0.96875,-1.03125 -0.96875,-2.89063 0,-1.92187 0.984375,-2.96875 1,-1.0625 2.578125,-1.0625 1.515625,0 2.484375,1.03125 0.96875,1.03125 0.96875,2.92188 0,0.10937 -0.01563,0.34375 h -5.65625 q 0.0625,1.25 0.703125,1.92187 0.640625,0.65625 1.59375,0.65625 0.703125,0 1.203125,-0.35937 0.5,-0.375 0.796875,-1.20313 z m -4.234375,-2.07812 h 4.25 q -0.09375,-0.95313 -0.484375,-1.4375 -0.625,-0.75 -1.609375,-0.75 -0.875,0 -1.484375,0.59375 -0.609375,0.59375 -0.671875,1.59375 z m 7.182358,4.53125 v -7.59375 h 1.15625 v 1.0625 q 0.34375,-0.5625 0.9375,-0.89063 0.609375,-0.34375 1.359375,-0.34375 0.84375,0 1.375,0.34375 0.546875,0.34375 0.765625,0.98438 0.90625,-1.32813 2.359372,-1.32813 1.125,0 1.73438,0.625 0.60937,0.625 0.60937,1.92188 v 5.21875 h -1.28125 v -4.78125 q 0,-0.78125 -0.125,-1.10938 -0.125,-0.34375 -0.45312,-0.54687 -0.32813,-0.21875 -0.78125,-0.21875 -0.796877,0 -1.328127,0.53125 -0.53125,0.53125 -0.53125,1.70312 v 4.42188 h -1.28125 v -4.9375 q 0,-0.85938 -0.3125,-1.28125 -0.3125,-0.4375 -1.03125,-0.4375 -0.546875,0 -1.015625,0.29687 -0.453125,0.28125 -0.671875,0.82813 -0.203125,0.54687 -0.203125,1.59375 v 3.9375 z"
       fill-rule="nonzero"
       id="path9" />
    <path
       fill="#000000"
       d="m 59.00127,335.98813 v -10.48438 h 1.390625 v 4.29688 h 5.453129 v -4.29688 h 1.390625 v 10.48438 h -1.390625 v -4.9375 h -5.453129 v 4.9375 z m 9.396778,0 4.015625,-10.48438 h 1.5 l 4.296875,10.48438 h -1.578125 l -1.234375,-3.17188 h -4.375 l -1.15625,3.17188 z m 3.015625,-4.3125 h 3.5625 l -1.09375,-2.90625 q -0.5,-1.3125 -0.75,-2.17188 -0.203125,1.01563 -0.5625,2 z m 7.931854,4.3125 v -10.48438 h 4.640625 q 1.40625,0 2.140625,0.28125 0.734375,0.28125 1.171875,1 0.4375,0.70313 0.4375,1.57813 0,1.10937 -0.734375,1.875 -0.71875,0.76562 -2.234375,0.98437 0.5625,0.25 0.84375,0.51563 0.609375,0.5625 1.15625,1.39062 l 1.8125,2.85938 h -1.734375 l -1.390625,-2.1875 q -0.609375,-0.9375 -1,-1.4375 -0.390625,-0.5 -0.703125,-0.70313 -0.3125,-0.20312 -0.640625,-0.28125 -0.234375,-0.0469 -0.765625,-0.0469 h -1.609375 v 4.65625 z m 1.390625,-5.85938 h 2.984375 q 0.9375,0 1.46875,-0.1875 0.546875,-0.20312 0.828125,-0.64062 0.28125,-0.4375 0.28125,-0.9375 0,-0.75 -0.546875,-1.21875 Q 85.220527,326.66 84.048652,326.66 h -3.3125 z m 11.569305,5.85938 v -9.25 h -3.453125 v -1.23438 h 8.3125 v 1.23438 h -3.46875 v 9.25 z m 3.983216,-2.26563 1.265625,-0.20312 q 0.109375,0.76562 0.59375,1.17187 0.5,0.40625 1.375,0.40625 0.890622,0 1.312502,-0.35937 0.4375,-0.35938 0.4375,-0.84375 0,-0.4375 -0.375,-0.6875 -0.26563,-0.17188 -1.312502,-0.4375 -1.421875,-0.35938 -1.96875,-0.60938 -0.546875,-0.26562 -0.828125,-0.73437 -0.28125,-0.46875 -0.28125,-1.01563 0,-0.51562 0.21875,-0.9375 0.234375,-0.4375 0.640625,-0.73437 0.296875,-0.21875 0.8125,-0.35938 0.53125,-0.15625 1.125,-0.15625 0.890622,0 1.562502,0.26563 0.67187,0.25 1,0.6875 0.32812,0.4375 0.4375,1.17187 l -1.25,0.17188 q -0.0937,-0.57813 -0.5,-0.90625 -0.40625,-0.34375 -1.156252,-0.34375 -0.890625,0 -1.28125,0.29687 -0.375,0.29688 -0.375,0.6875 0,0.25 0.15625,0.45313 0.15625,0.20312 0.5,0.34375 0.1875,0.0781 1.140625,0.32812 1.359377,0.35938 1.890627,0.59375 0.54687,0.23438 0.85937,0.6875 0.3125,0.4375 0.3125,1.09375 0,0.64063 -0.375,1.21875 -0.375,0.5625 -1.09375,0.875 -0.70312,0.3125 -1.593747,0.3125 -1.484375,0 -2.265625,-0.60937 -0.765625,-0.625 -0.984375,-1.82813 z m 8.171877,2.26563 v -1.46875 h 1.46875 v 1.46875 q 0,0.8125 -0.28125,1.29687 -0.28125,0.5 -0.90625,0.78125 l -0.35938,-0.54687 q 0.40625,-0.1875 0.59375,-0.53125 0.20313,-0.34375 0.21875,-1 z m 7.97207,0 v -10.48438 h 3.96875 q 1.04688,0 1.59375,0.0937 0.76563,0.125 1.28125,0.48438 0.53125,0.35937 0.84375,1.01562 0.32813,0.65625 0.32813,1.4375 0,1.32813 -0.85938,2.26563 -0.84375,0.92187 -3.07812,0.92187 h -2.6875 v 4.26563 z m 1.39063,-5.5 h 2.71875 q 1.34375,0 1.90625,-0.5 0.5625,-0.5 0.5625,-1.40625 0,-0.67188 -0.32813,-1.14063 -0.32812,-0.46875 -0.875,-0.60937 -0.35937,-0.0937 -1.29687,-0.0937 h -2.6875 z m 15.86935,1.82812 1.39062,0.34375 q -0.4375,1.70313 -1.57812,2.60938 -1.125,0.89062 -2.76562,0.89062 -1.6875,0 -2.75,-0.6875 -1.0625,-0.6875 -1.625,-2 -0.54688,-1.3125 -0.54688,-2.8125 0,-1.64062 0.625,-2.85937 0.625,-1.21875 1.78125,-1.84375 1.15625,-0.64063 2.54688,-0.64063 1.56249,0 2.64062,0.8125 1.07812,0.79688 1.5,2.25 l -1.375,0.3125 q -0.35938,-1.14062 -1.0625,-1.65625 -0.6875,-0.53125 -1.73437,-0.53125 -1.21875,0 -2.03125,0.57813 -0.8125,0.57812 -1.14063,1.5625 -0.32812,0.96875 -0.32812,2.01562 0,1.32813 0.39062,2.32813 0.39063,1 1.21875,1.5 0.82813,0.48437 1.78125,0.48437 1.17188,0 1.96875,-0.67187 0.8125,-0.67188 1.09375,-1.98438 z m 3.33427,3.67188 v -10.48438 h 1.39063 v 10.48438 z m 8.88448,-2.45313 1.32812,0.17188 q -0.3125,1.17187 -1.17187,1.8125 -0.84375,0.64062 -2.17188,0.64062 -1.67187,0 -2.65625,-1.01562 -0.96875,-1.03125 -0.96875,-2.89063 0,-1.92187 0.98438,-2.96875 1,-1.0625 2.57812,-1.0625 1.51563,0 2.48438,1.03125 0.96875,1.03125 0.96875,2.92188 0,0.10937 -0.0156,0.34375 h -5.65625 q 0.0625,1.25 0.70313,1.92187 0.64062,0.65625 1.59375,0.65625 0.70312,0 1.20312,-0.35937 0.5,-0.375 0.79688,-1.20313 z m -4.23438,-2.07812 h 4.25 q -0.0937,-0.95313 -0.48437,-1.4375 -0.625,-0.75 -1.60938,-0.75 -0.875,0 -1.48437,0.59375 -0.60938,0.59375 -0.67188,1.59375 z m 7.51048,4.53125 v -1.46875 h 1.46875 v 1.46875 q 0,0.8125 -0.28125,1.29687 -0.28125,0.5 -0.90625,0.78125 l -0.35937,-0.54687 q 0.40625,-0.1875 0.59375,-0.53125 0.20312,-0.34375 0.21875,-1 z"
       fill-rule="nonzero"
       id="path10" />
    <path
       fill="#000000"
       d="m 59.03252,353.98813 v -10.48438 h 7.078129 v 1.23438 h -5.687504 v 3.25 h 4.921879 v 1.23437 h -4.921879 v 4.76563 z m 13.671375,-0.9375 q -0.71875,0.60937 -1.375,0.85937 -0.65625,0.25 -1.421875,0.25 -1.25,0 -1.921875,-0.60937 -0.671875,-0.60938 -0.671875,-1.5625 0,-0.5625 0.25,-1.01563 0.25,-0.46875 0.65625,-0.75 0.421875,-0.28125 0.9375,-0.42187 0.375,-0.0937 1.140625,-0.1875 1.5625,-0.1875 2.296875,-0.45313 0.01563,-0.26562 0.01563,-0.32812 0,-0.79688 -0.375,-1.10938 -0.484375,-0.4375 -1.453125,-0.4375 -0.921875,0 -1.359375,0.32813 -0.421875,0.3125 -0.625,1.10937 l -1.265625,-0.17187 q 0.171875,-0.79688 0.5625,-1.29688 0.390625,-0.5 1.140625,-0.76562 0.75,-0.26563 1.71875,-0.26563 0.984375,0 1.59375,0.23438 0.609375,0.21875 0.890625,0.5625 0.28125,0.34375 0.40625,0.875 0.0625,0.32812 0.0625,1.1875 v 1.71875 q 0,1.79687 0.07813,2.28125 0.07813,0.46875 0.328125,0.90625 h -1.34375 q -0.203125,-0.40625 -0.265625,-0.9375 z m -0.109375,-2.875 q -0.703125,0.28125 -2.09375,0.48437 -0.796875,0.10938 -1.125,0.26563 -0.328125,0.14062 -0.515625,0.42187 -0.171875,0.26563 -0.171875,0.59375 0,0.51563 0.390625,0.85938 0.390625,0.34375 1.140625,0.34375 0.734375,0 1.3125,-0.3125 0.59375,-0.32813 0.859375,-0.89063 0.203125,-0.4375 0.203125,-1.29687 z m 4.494858,3.8125 h -1.203125 v -10.48438 h 1.296875 v 3.73438 q 0.8125,-1.01563 2.078125,-1.01563 0.703125,0 1.328125,0.28125 0.625,0.28125 1.03125,0.79688 0.40625,0.5 0.625,1.23437 0.234375,0.71875 0.234375,1.53125 0,1.96875 -0.96875,3.03125 -0.953125,1.0625 -2.3125,1.0625 -1.34375,0 -2.109375,-1.125 z m -0.01563,-3.85938 q 0,1.375 0.375,1.98438 0.609375,0.98437 1.640625,0.98437 0.84375,0 1.453125,-0.73437 0.625,-0.73438 0.625,-2.1875 0,-1.48438 -0.59375,-2.1875 -0.59375,-0.71875 -1.421875,-0.71875 -0.84375,0 -1.46875,0.73437 -0.609375,0.73438 -0.609375,2.125 z m 6.963608,3.85938 v -7.59375 h 1.15625 v 1.14062 q 0.453125,-0.79687 0.828125,-1.04687 0.375,-0.26563 0.8125,-0.26563 0.65625,0 1.328125,0.40625 l -0.4375,1.20313 q -0.46875,-0.28125 -0.953125,-0.28125 -0.421875,0 -0.765625,0.25 -0.328125,0.25 -0.46875,0.70312 -0.21875,0.6875 -0.21875,1.5 v 3.98438 z m 4.896271,-9.01563 v -1.46875 h 1.296875 v 1.46875 z m 0,9.01563 v -7.59375 h 1.296875 v 7.59375 z m 8.209274,-2.78125 1.265625,0.15625 q -0.203125,1.3125 -1.0625,2.0625 -0.84375,0.73437 -2.09375,0.73437 -1.5625,0 -2.515625,-1.01562 -0.9375,-1.03125 -0.9375,-2.92188 0,-1.23437 0.40625,-2.15625 0.40625,-0.92187 1.234375,-1.375 0.84375,-0.46875 1.8125,-0.46875 1.25,0 2.03125,0.625 0.78125,0.625 1.015625,1.76563 l -1.265625,0.20312 q -0.171875,-0.76562 -0.625,-1.15625 -0.453125,-0.39062 -1.09375,-0.39062 -0.984375,0 -1.59375,0.70312 -0.609375,0.70313 -0.609375,2.20313 0,1.53125 0.578125,2.23437 0.59375,0.6875 1.546875,0.6875 0.75,0 1.265625,-0.45312 0.515625,-0.46875 0.640625,-1.4375 z m 2.703125,2.78125 v -1.46875 h 1.468744 v 1.46875 q 0,0.8125 -0.28125,1.29687 -0.28125,0.5 -0.90625,0.78125 l -0.359369,-0.54687 q 0.406259,-0.1875 0.593759,-0.53125 0.20311,-0.34375 0.21875,-1 z m 13.018944,-2.45313 1.32813,0.17188 q -0.3125,1.17187 -1.17188,1.8125 -0.84375,0.64062 -2.17187,0.64062 -1.67188,0 -2.65625,-1.01562 -0.96875,-1.03125 -0.96875,-2.89063 0,-1.92187 0.98437,-2.96875 1,-1.0625 2.57813,-1.0625 1.51562,0 2.48437,1.03125 0.96875,1.03125 0.96875,2.92188 0,0.10937 -0.0156,0.34375 h -5.65625 q 0.0625,1.25 0.70312,1.92187 0.64063,0.65625 1.59375,0.65625 0.70313,0 1.20313,-0.35937 0.5,-0.375 0.79687,-1.20313 z m -4.23437,-2.07812 h 4.25 q -0.0937,-0.95313 -0.48438,-1.4375 -0.625,-0.75 -1.60937,-0.75 -0.875,0 -1.48438,0.59375 -0.60937,0.59375 -0.67187,1.59375 z m 9.99485,3.375 0.1875,1.14062 q -0.54687,0.10938 -0.98437,0.10938 -0.6875,0 -1.07813,-0.21875 -0.39062,-0.21875 -0.54687,-0.57813 -0.15625,-0.35937 -0.15625,-1.51562 v -4.375 h -0.95313 v -1 h 0.95313 v -1.89063 l 1.28125,-0.76562 v 2.65625 h 1.29687 v 1 h -1.29687 v 4.4375 q 0,0.54687 0.0625,0.71875 0.0781,0.15625 0.21875,0.25 0.15625,0.0781 0.45312,0.0781 0.20313,0 0.5625,-0.0469 z m 6.21261,-1.625 1.26562,0.15625 q -0.20312,1.3125 -1.0625,2.0625 -0.84375,0.73437 -2.09375,0.73437 -1.5625,0 -2.51562,-1.01562 -0.9375,-1.03125 -0.9375,-2.92188 0,-1.23437 0.40625,-2.15625 0.40625,-0.92187 1.23437,-1.375 0.84375,-0.46875 1.8125,-0.46875 1.25,0 2.03125,0.625 0.78125,0.625 1.01563,1.76563 l -1.26563,0.20312 q -0.17187,-0.76562 -0.625,-1.15625 -0.45312,-0.39062 -1.09375,-0.39062 -0.98437,0 -1.59375,0.70312 -0.60937,0.70313 -0.60937,2.20313 0,1.53125 0.57812,2.23437 0.59375,0.6875 1.54688,0.6875 0.75,0 1.26562,-0.45312 0.51563,-0.46875 0.64063,-1.4375 z m 2.73437,2.78125 v -1.46875 h 1.46874 v 1.46875 z"
       fill-rule="nonzero"
       id="path11" />
    <path
       fill="#000000"
       fill-opacity="0"
       d="m 105.75853,208.43176 v 66.4252"
       fill-rule="evenodd"
       id="path12" />
    <path
       stroke="#000000"
       stroke-width="1"
       stroke-linejoin="round"
       stroke-linecap="butt"
       d="m 105.75853,208.43176 v 60.4252"
       fill-rule="evenodd"
       id="path13" />
    <path
       fill="#000000"
       stroke="#000000"
       stroke-width="1"
       stroke-linecap="butt"
       d="m 104.1068,268.85696 1.65173,4.53809 1.65174,-4.53809 z"
       fill-rule="evenodd"
       id="path14" />
    <path
       fill="#000000"
       fill-opacity="0"
       d="M -8.068241,233.52493 H 109.34909 v 33.92126 H -8.068241 Z"
       fill-rule="evenodd"
       id="path15" />
    <path
       fill="#000000"
       d="m 1.8536335,254.04494 v -8.59375 h 2.96875 q 1,0 1.53125,0.125 0.734375,0.17187 1.25,0.60937 0.6875005,0.57813 1.0156255,1.48438 0.34375,0.89062 0.34375,2.03125 0,0.98437 -0.234375,1.73437 -0.21875,0.75 -0.578125,1.25 -0.3593755,0.5 -0.7968755,0.78125 -0.421875,0.28125 -1.015625,0.4375 -0.59375,0.14063 -1.375,0.14063 z m 1.1406251,-1.01563 h 1.8281248 q 0.859375,0 1.34375,-0.15625 0.484375,-0.15625 0.765625,-0.45312 0.40625,-0.39063 0.625,-1.07813 0.234375,-0.6875 0.234375,-1.65625 0,-1.34375 -0.453125,-2.0625 -0.4375,-0.73437 -1.0625,-0.98437 -0.46875,-0.17188 -1.46875,-0.17188 H 2.9942586 Z m 11.6503914,-0.98437 1.09375,0.125 q -0.25,0.95312 -0.953125,1.48437 -0.703125,0.53125 -1.78125,0.53125 -1.359375,0 -2.171875,-0.84375 -0.796875,-0.84375 -0.796875,-2.35937 0,-1.5625 0.8125,-2.42188 0.8125,-0.875 2.09375,-0.875 1.25,0 2.03125,0.84375 0.796875,0.84375 0.796875,2.39063 0,0.0937 0,0.28125 h -4.640625 q 0.0625,1.03125 0.578125,1.57812 0.515625,0.53125 1.296875,0.53125 0.578125,0 0.984375,-0.29687 0.421875,-0.3125 0.65625,-0.96875 z m -3.453125,-1.70313 h 3.46875 q -0.0625,-0.79687 -0.390625,-1.1875 -0.515625,-0.60937 -1.3125,-0.60937 -0.734375,0 -1.234375,0.48437 -0.484375,0.48438 -0.53125,1.3125 z m 6.845703,3.70313 h -0.984375 v -8.59375 h 1.0625 v 3.0625 q 0.671875,-0.82813 1.703125,-0.82813 0.578125,0 1.078125,0.23438 0.515625,0.21875 0.84375,0.64062 0.34375,0.42188 0.53125,1.01563 0.1875,0.59375 0.1875,1.26562 0,1.59375 -0.796875,2.46875 -0.796875,0.875 -1.890625,0.875 -1.109375,0 -1.734375,-0.92187 z m -0.01563,-3.15625 q 0,1.10937 0.3125,1.60937 0.5,0.8125 1.34375,0.8125 0.6875,0 1.1875,-0.59375 0.515625,-0.59375 0.515625,-1.79687 0,-1.21875 -0.484375,-1.79688 -0.484375,-0.57812 -1.171875,-0.57812 -0.6875,0 -1.203125,0.60937 -0.5,0.59375 -0.5,1.73438 z m 9.798828,3.15625 v -0.92188 q -0.734375,1.0625 -1.984375,1.0625 -0.546875,0 -1.03125,-0.20312 -0.46875,-0.21875 -0.703125,-0.53125 -0.234375,-0.32813 -0.328125,-0.79688 -0.0625,-0.29687 -0.0625,-0.98437 v -3.84375 h 1.0625 v 3.45312 q 0,0.8125 0.0625,1.10938 0.09375,0.40625 0.40625,0.65625 0.328125,0.23437 0.8125,0.23437 0.46875,0 0.875,-0.23437 0.421875,-0.25 0.59375,-0.67188 0.1875,-0.42187 0.1875,-1.21875 v -3.32812 h 1.046875 v 6.21875 z m 2.392578,0.51562 1.03125,0.15625 q 0.0625,0.46875 0.359375,0.6875 0.390625,0.29688 1.0625,0.29688 0.734375,0 1.125,-0.29688 0.40625,-0.29687 0.546875,-0.8125 0.09375,-0.32812 0.07813,-1.35937 -0.6875,0.8125 -1.71875,0.8125 -1.28125,0 -1.984375,-0.92188 -0.703125,-0.9375 -0.703125,-2.21875 0,-0.89062 0.3125,-1.64062 0.328125,-0.76563 0.9375,-1.17188 0.609375,-0.40625 1.4375,-0.40625 1.109375,0 1.828125,0.89063 v -0.75 h 0.96875 v 5.375 q 0,1.45312 -0.296875,2.0625 -0.296875,0.60937 -0.9375,0.95311 -0.640625,0.35937 -1.578125,0.35937 -1.109375,0 -1.796875,-0.5 -0.6875,-0.49998 -0.671875,-1.51561 z m 0.875,-3.73437 q 0,1.21875 0.484375,1.78125 0.484375,0.5625 1.21875,0.5625 0.734375,0 1.21875,-0.5625 0.5,-0.5625 0.5,-1.75 0,-1.14063 -0.515625,-1.71875 -0.5,-0.57813 -1.21875,-0.57813 -0.703125,0 -1.203125,0.57813 -0.484375,0.5625 -0.484375,1.6875 z m 9.460937,3.21875 v -8.59375 h 3.25 q 0.84375,0 1.296875,0.0781 0.640625,0.10938 1.0625,0.40625 0.4375,0.29688 0.6875,0.82813 0.265625,0.53125 0.265625,1.17187 0,1.09375 -0.703125,1.85938 -0.6875,0.75 -2.515625,0.75 h -2.203125 v 3.5 z m 1.140625,-4.5 h 2.21875 q 1.109375,0 1.5625,-0.40625 0.46875,-0.42188 0.46875,-1.17188 0,-0.53125 -0.28125,-0.90625 -0.265625,-0.39062 -0.703125,-0.51562 -0.296875,-0.0781 -1.0625,-0.0781 h -2.203125 z m 6.347656,1.39062 q 0,-1.73437 0.953125,-2.5625 0.796875,-0.6875 1.953125,-0.6875 1.28125,0 2.09375,0.84375 0.828125,0.82813 0.828125,2.3125 0,1.20313 -0.359375,1.89063 -0.359375,0.6875 -1.0625,1.07812 -0.6875,0.375 -1.5,0.375 -1.296875,0 -2.109375,-0.82812 -0.796875,-0.84375 -0.796875,-2.42188 z m 1.078125,0 q 0,1.1875 0.515625,1.78125 0.53125,0.59375 1.3125,0.59375 0.796875,0 1.3125,-0.59375 0.515625,-0.59375 0.515625,-1.8125 0,-1.15625 -0.53125,-1.75 -0.515625,-0.59375 -1.296875,-0.59375 -0.78125,0 -1.3125,0.59375 -0.515625,0.57813 -0.515625,1.78125 z m 5.955078,3.10938 v -8.59375 h 1.0625 v 8.59375 z m 2.697266,-7.375 v -1.21875 h 1.0625 v 1.21875 z m 0,7.375 v -6.21875 h 1.0625 v 6.21875 z m 6.728512,-2.28125 1.03125,0.14062 q -0.171875,1.0625 -0.875,1.67188 -0.703121,0.60937 -1.718746,0.60937 -1.28125,0 -2.0625,-0.82812 -0.765625,-0.84375 -0.765625,-2.40625 0,-1 0.328125,-1.75 0.34375,-0.76563 1.015625,-1.14063 0.6875,-0.375 1.5,-0.375 1,0 1.640621,0.51563 0.65625,0.5 0.84375,1.45312 l -1.03125,0.15625 q -0.140625,-0.625 -0.515621,-0.9375 -0.375,-0.32812 -0.90625,-0.32812 -0.796875,0 -1.296875,0.57812 -0.5,0.5625 -0.5,1.79688 0,1.26562 0.484375,1.82812 0.484375,0.5625 1.25,0.5625 0.625,0 1.03125,-0.375 0.421871,-0.375 0.546871,-1.17187 z m 1.890625,4.67186 -0.125,-0.98436 q 0.34375,0.0937 0.609375,0.0937 0.34375,0 0.546875,-0.125 0.21875,-0.10938 0.359375,-0.3125 0.09375,-0.17188 0.328125,-0.79688 0.01563,-0.0781 0.09375,-0.25 l -2.375,-6.23437 h 1.140625 l 1.296875,3.59375 q 0.25,0.6875 0.453125,1.45312 0.1875,-0.73437 0.4375,-1.42187 l 1.328125,-3.625 h 1.046875 l -2.359375,6.32812 q -0.390625,1.01563 -0.59375,1.40625 -0.28125,0.53124 -0.65625,0.76561 -0.359375,0.25 -0.859375,0.25 -0.296875,0 -0.671875,-0.14062 z m 9.458984,-2.39061 v -8.59375 h 3.234375 q 0.984375,0 1.578125,0.26563 0.59375,0.26562 0.921875,0.8125 0.34375,0.53125 0.34375,1.125 0,0.54687 -0.296875,1.03125 -0.296875,0.48437 -0.90625,0.78125 0.78125,0.23437 1.1875,0.79687 0.421875,0.54688 0.421875,1.29688 0,0.59375 -0.25,1.125 -0.25,0.51562 -0.625,0.79687 -0.375,0.28125 -0.953125,0.42188 -0.5625,0.14062 -1.375,0.14062 z m 1.140625,-4.98437 h 1.859375 q 0.75,0 1.078125,-0.0937 0.4375,-0.125 0.65625,-0.42188 0.21875,-0.3125 0.21875,-0.76562 0,-0.42188 -0.203125,-0.75 -0.203125,-0.32813 -0.59375,-0.4375 -0.375,-0.125 -1.296875,-0.125 h -1.71875 z m 0,3.96875 h 2.140625 q 0.546875,0 0.765625,-0.0469 0.40625,-0.0625 0.65625,-0.21875 0.265625,-0.17187 0.4375,-0.48437 0.171875,-0.3125 0.171875,-0.71875 0,-0.48438 -0.25,-0.84375 -0.234375,-0.35938 -0.671875,-0.5 -0.4375,-0.14063 -1.265625,-0.14063 h -1.984375 z m 10.863281,1.01562 v -0.92187 q -0.734375,1.0625 -1.984375,1.0625 -0.546875,0 -1.03125,-0.20313 -0.46875,-0.21875 -0.703125,-0.53125 -0.234375,-0.32812 -0.328125,-0.79687 -0.0625,-0.29688 -0.0625,-0.98438 v -3.84375 h 1.0625 v 3.45313 q 0,0.8125 0.0625,1.10937 0.09375,0.40625 0.40625,0.65625 0.328125,0.23438 0.8125,0.23438 0.46875,0 0.875,-0.23438 0.421875,-0.25 0.59375,-0.67187 0.1875,-0.42188 0.1875,-1.21875 v -3.32813 h 1.046875 v 6.21875 z m 2.173828,-1.85937 1.03125,-0.15625 q 0.09375,0.625 0.484375,0.95312 0.40625,0.32813 1.140625,0.32813 0.71875,0 1.0625,-0.28125 0.359375,-0.29688 0.359375,-0.70313 0,-0.35937 -0.3125,-0.5625 -0.21875,-0.14062 -1.078125,-0.35937 -1.15625,-0.29688 -1.609375,-0.5 -0.4375,-0.21875 -0.671875,-0.59375 -0.234375,-0.375 -0.234375,-0.84375 0,-0.40625 0.1875,-0.76563 0.1875,-0.35937 0.515625,-0.59375 0.25,-0.17187 0.671875,-0.29687 0.421875,-0.125 0.921875,-0.125 0.71875,0 1.265625,0.21875 0.5625,0.20312 0.828125,0.5625 0.265625,0.35937 0.359375,0.95312 l -1.03125,0.14063 q -0.0625,-0.46875 -0.40625,-0.73438 -0.328125,-0.28125 -0.953125,-0.28125 -0.71875,0 -1.03125,0.25 -0.3125,0.23438 -0.3125,0.5625 0,0.20313 0.125,0.35938 0.140625,0.17187 0.40625,0.28125 0.15625,0.0625 0.9375,0.26562 1.125,0.3125 1.5625,0.5 0.4375,0.1875 0.6875,0.54688 0.25,0.35937 0.25,0.90625 0,0.53125 -0.3125,1 -0.296875,0.45312 -0.875,0.71875 -0.578125,0.25 -1.3125,0.25 -1.21875,0 -1.859375,-0.5 -0.625,-0.51563 -0.796875,-1.5 z"
       fill-rule="nonzero"
       id="path16" />
    <path
       fill="#000000"
       fill-opacity="0"
       d="M 58.719162,86.96719 H 152.7979 v 29.66929 H 58.719162 Z"
       fill-rule="evenodd"
       id="path17" />
    <path
       stroke="#000000"
       stroke-width="1"
       stroke-linejoin="round"
       stroke-linecap="butt"
       d="M 58.719162,86.96719 H 152.7979 v 29.66929 H 58.719162 Z"
       fill-rule="evenodd"
       id="path18" />
    <path
       fill="#000000"
       d="m 68.54729,99.04184 v -7.625 h 2.625 q 0.890625,0 1.359375,0.109375 0.65625,0.140625 1.109375,0.546875 0.609375,0.5 0.90625,1.296875 0.296875,0.796875 0.296875,1.8125 0,0.875 -0.203125,1.546875 -0.203125,0.671875 -0.515625,1.109375 -0.3125,0.4375 -0.703125,0.6875 -0.375,0.25 -0.90625,0.390625 -0.53125,0.125 -1.21875,0.125 z m 1,-0.90625 h 1.625 q 0.765625,0 1.1875,-0.140625 0.4375,-0.140625 0.6875,-0.390625 0.359375,-0.359375 0.5625,-0.953125 0.203125,-0.609375 0.203125,-1.484375 0,-1.1875 -0.40625,-1.828125 -0.390625,-0.65625 -0.953125,-0.875 -0.40625,-0.15625 -1.296875,-0.15625 H 69.54729 Z m 10.351852,-0.875 0.96875,0.125 q -0.234375,0.84375 -0.859375,1.3125 -0.609375,0.46875 -1.578125,0.46875 -1.203125,0 -1.921875,-0.75 -0.703125,-0.75 -0.703125,-2.09375 0,-1.390625 0.71875,-2.15625 0.71875,-0.78125 1.859375,-0.78125 1.109375,0 1.8125,0.765625 0.703125,0.75 0.703125,2.125 0,0.07813 0,0.234375 h -4.125 q 0.04687,0.921875 0.515625,1.40625 0.46875,0.484375 1.15625,0.484375 0.515625,0 0.875,-0.265625 0.359375,-0.28125 0.578125,-0.875 z m -3.078125,-1.515625 h 3.09375 q -0.0625,-0.6875 -0.359375,-1.046875 -0.453125,-0.53125 -1.15625,-0.53125 -0.640625,0 -1.09375,0.4375 -0.4375,0.421875 -0.484375,1.140625 z m 7.270248,2.453125 0.125,0.828125 q -0.390625,0.09375 -0.703125,0.09375 -0.5,0 -0.78125,-0.15625 -0.28125,-0.171875 -0.40625,-0.4375 -0.109375,-0.265625 -0.109375,-1.109375 v -3.171875 h -0.6875 V 93.51059 h 0.6875 v -1.359375 l 0.9375,-0.5625 v 1.921875 h 0.9375 v 0.734375 h -0.9375 v 3.234375 q 0,0.390625 0.04687,0.515625 0.04687,0.109375 0.15625,0.1875 0.109375,0.0625 0.328125,0.0625 0.15625,0 0.40625,-0.04687 z m 4.695023,-0.9375 0.96875,0.125 q -0.234375,0.84375 -0.859375,1.3125 -0.609375,0.46875 -1.578125,0.46875 -1.203125,0 -1.921875,-0.75 -0.703125,-0.75 -0.703125,-2.09375 0,-1.390625 0.71875,-2.15625 0.71875,-0.78125 1.859375,-0.78125 1.109375,0 1.8125,0.765625 0.703125,0.75 0.703125,2.125 0,0.07813 0,0.234375 h -4.125 q 0.04687,0.921875 0.515625,1.40625 0.46875,0.484375 1.15625,0.484375 0.515625,0 0.875,-0.265625 0.359375,-0.28125 0.578125,-0.875 z m -3.078125,-1.515625 h 3.09375 q -0.0625,-0.6875 -0.359375,-1.046875 -0.453125,-0.53125 -1.15625,-0.53125 -0.640625,0 -1.09375,0.4375 -0.4375,0.421875 -0.484375,1.140625 z m 5.207748,3.296875 v -5.53125 h 0.84375 v 0.84375 q 0.328125,-0.59375 0.59375,-0.78125 0.28125,-0.1875 0.609375,-0.1875 0.46875,0 0.953125,0.3125 l -0.3125,0.859375 q -0.34375,-0.203125 -0.6875,-0.203125 -0.3125,0 -0.5625,0.1875 -0.234375,0.1875 -0.34375,0.515625 -0.15625,0.5 -0.15625,1.09375 v 2.890625 z m 3.56424,0 v -5.53125 h 0.84375 v 0.78125 q 0.25,-0.40625 0.6875,-0.65625 0.4375,-0.25 0.984375,-0.25 0.609375,0 1,0.265625 0.390625,0.25 0.5625,0.703125 0.65625,-0.96875 1.703124,-0.96875 0.82813,0 1.26563,0.46875 0.4375,0.453125 0.4375,1.390625 v 3.796875 h -0.92188 v -3.484375 q 0,-0.5625 -0.0937,-0.796875 -0.0937,-0.25 -0.34375,-0.40625 -0.23437,-0.15625 -0.54687,-0.15625 -0.593754,0 -0.984379,0.390625 -0.375,0.390625 -0.375,1.25 v 3.203125 h -0.9375 v -3.59375 q 0,-0.625 -0.234375,-0.9375 -0.21875,-0.3125 -0.75,-0.3125 -0.390625,0 -0.734375,0.21875 -0.328125,0.203125 -0.484375,0.609375 -0.140625,0.390625 -0.140625,1.15625 v 2.859375 z m 8.876739,-6.546875 V 91.41684 h 0.9375 v 1.078125 z m 0,6.546875 v -5.53125 h 0.9375 v 5.53125 z m 2.36748,0 v -5.53125 h 0.84375 v 0.796875 q 0.60937,-0.921875 1.75,-0.921875 0.5,0 0.92187,0.1875 0.42188,0.171875 0.625,0.46875 0.21875,0.296875 0.29688,0.6875 0.0469,0.265625 0.0469,0.921875 v 3.390625 h -0.9375 v -3.359375 q 0,-0.578125 -0.10937,-0.859375 -0.10938,-0.28125 -0.39063,-0.453125 -0.26562,-0.171875 -0.64062,-0.171875 -0.59375,0 -1.03125,0.390625 -0.4375,0.375 -0.4375,1.4375 v 3.015625 z m 9.70775,-1.78125 0.96875,0.125 q -0.23438,0.84375 -0.85938,1.3125 -0.60937,0.46875 -1.57812,0.46875 -1.20313,0 -1.92188,-0.75 -0.70312,-0.75 -0.70312,-2.09375 0,-1.390625 0.71875,-2.15625 0.71875,-0.78125 1.85937,-0.78125 1.10938,0 1.8125,0.765625 0.70313,0.75 0.70313,2.125 0,0.07813 0,0.234375 h -4.125 q 0.0469,0.921875 0.51562,1.40625 0.46875,0.484375 1.15625,0.484375 0.51563,0 0.875,-0.265625 0.35938,-0.28125 0.57813,-0.875 z m -3.07813,-1.515625 h 3.09375 q -0.0625,-0.6875 -0.35937,-1.046875 -0.45313,-0.53125 -1.15625,-0.53125 -0.64063,0 -1.09375,0.4375 -0.4375,0.421875 -0.48438,1.140625 z"
       fill-rule="nonzero"
       id="path19" />
    <path
       fill="#000000"
       d="m 68.54729,112.04184 v -7.625 h 2.625 q 0.890625,0 1.359375,0.10937 0.65625,0.14063 1.109375,0.54688 0.609375,0.5 0.90625,1.29687 0.296875,0.79688 0.296875,1.8125 0,0.875 -0.203125,1.54688 -0.203125,0.67187 -0.515625,1.10937 -0.3125,0.4375 -0.703125,0.6875 -0.375,0.25 -0.90625,0.39063 -0.53125,0.125 -1.21875,0.125 z m 1,-0.90625 h 1.625 q 0.765625,0 1.1875,-0.14063 0.4375,-0.14062 0.6875,-0.39062 0.359375,-0.35938 0.5625,-0.95313 0.203125,-0.60937 0.203125,-1.48437 0,-1.1875 -0.40625,-1.82813 -0.390625,-0.65625 -0.953125,-0.875 -0.40625,-0.15625 -1.296875,-0.15625 H 69.54729 Z m 10.351852,-0.875 0.96875,0.125 q -0.234375,0.84375 -0.859375,1.3125 -0.609375,0.46875 -1.578125,0.46875 -1.203125,0 -1.921875,-0.75 -0.703125,-0.75 -0.703125,-2.09375 0,-1.39063 0.71875,-2.15625 0.71875,-0.78125 1.859375,-0.78125 1.109375,0 1.8125,0.76562 0.703125,0.75 0.703125,2.125 0,0.0781 0,0.23438 h -4.125 q 0.04687,0.92187 0.515625,1.40625 0.46875,0.48437 1.15625,0.48437 0.515625,0 0.875,-0.26562 0.359375,-0.28125 0.578125,-0.875 z m -3.078125,-1.51563 h 3.09375 q -0.0625,-0.6875 -0.359375,-1.04687 -0.453125,-0.53125 -1.15625,-0.53125 -0.640625,0 -1.09375,0.4375 -0.4375,0.42187 -0.484375,1.14062 z m 6.082748,3.29688 H 82.04439 v -7.625 h 0.9375 v 2.71875 q 0.59375,-0.75 1.5,-0.75 0.515625,0 0.96875,0.21875 0.453125,0.20312 0.75,0.57812 0.296875,0.35938 0.453125,0.89063 0.171875,0.53125 0.171875,1.125 0,1.42187 -0.703125,2.20312 -0.703125,0.76563 -1.6875,0.76563 -0.96875,0 -1.53125,-0.8125 z m 0,-2.79688 q 0,0.98438 0.265625,1.42188 0.4375,0.73437 1.1875,0.73437 0.625,0 1.0625,-0.53125 0.453125,-0.54687 0.453125,-1.59375 0,-1.07812 -0.4375,-1.59375 -0.421875,-0.51562 -1.03125,-0.51562 -0.609375,0 -1.0625,0.53125 -0.4375,0.53125 -0.4375,1.54687 z m 8.692123,2.79688 v -0.8125 q -0.65625,0.9375 -1.75,0.9375 -0.5,0 -0.921875,-0.1875 -0.421875,-0.1875 -0.625,-0.46875 -0.203125,-0.28125 -0.296875,-0.70313 -0.04687,-0.26562 -0.04687,-0.875 v -3.42187 h 0.9375 v 3.0625 q 0,0.73437 0.04687,1 0.09375,0.35937 0.375,0.57812 0.296875,0.20313 0.703125,0.20313 0.421875,0 0.796875,-0.20313 0.375,-0.21875 0.515625,-0.59375 0.15625,-0.375 0.15625,-1.07812 v -2.96875 h 0.9375 v 5.53125 z m 2.129624,0.45312 0.90625,0.14063 q 0.0625,0.42187 0.328125,0.60937 0.34375,0.26563 0.9375,0.26563 0.65625,0 1,-0.26563 0.359375,-0.25 0.484375,-0.71875 0.07813,-0.29687 0.07813,-1.20312 -0.625,0.71875 -1.53125,0.71875 -1.140625,0 -1.765625,-0.8125 -0.625,-0.82813 -0.625,-1.98438 0,-0.78125 0.28125,-1.45312 0.296875,-0.67188 0.828125,-1.03125 0.546875,-0.375 1.28125,-0.375 0.984375,0 1.609375,0.79687 v -0.67187 h 0.875 v 4.78125 q 0,1.29687 -0.265625,1.82812 -0.265625,0.54688 -0.84375,0.85938 -0.5625,0.3125 -1.390625,0.3125 -0.984375,0 -1.59375,-0.45313 -0.609375,-0.4375 -0.59375,-1.34375 z m 0.78125,-3.3125 q 0,1.07813 0.421875,1.57813 0.4375,0.5 1.078125,0.5 0.65625,0 1.09375,-0.48438 0.4375,-0.5 0.4375,-1.5625 0,-1.01562 -0.453125,-1.53125 -0.453125,-0.51562 -1.09375,-0.51562 -0.609375,0 -1.046875,0.51562 -0.4375,0.5 -0.4375,1.5 z m 8.402768,2.85938 v -7.625 h 2.875 q 0.75,0 1.15625,0.0625 0.5625,0.0937 0.9375,0.35937 0.39063,0.26563 0.60938,0.75 0.23437,0.46875 0.23437,1.03125 0,0.96875 -0.625,1.65625 -0.60937,0.67188 -2.23437,0.67188 h -1.95313 v 3.09375 z m 1,-4 h 1.96875 q 0.98438,0 1.39063,-0.35938 0.42187,-0.375 0.42187,-1.03125 0,-0.48437 -0.25,-0.8125 -0.23437,-0.34375 -0.64062,-0.45312 -0.25,-0.0781 -0.9375,-0.0781 h -1.95313 z m 5.63889,1.23437 q 0,-1.53125 0.84375,-2.26562 0.71875,-0.625 1.73437,-0.625 1.14063,0 1.85938,0.75 0.73437,0.75 0.73437,2.0625 0,1.0625 -0.32812,1.6875 -0.3125,0.60937 -0.92188,0.95312 -0.60937,0.32813 -1.34375,0.32813 -1.15625,0 -1.875,-0.73438 -0.70312,-0.75 -0.70312,-2.15625 z m 0.95312,0 q 0,1.0625 0.46875,1.59375 0.46875,0.53125 1.15625,0.53125 0.70313,0 1.15625,-0.53125 0.46875,-0.53125 0.46875,-1.625 0,-1.01562 -0.46875,-1.54687 -0.45312,-0.53125 -1.15625,-0.53125 -0.6875,0 -1.15625,0.53125 -0.46875,0.51562 -0.46875,1.57812 z m 5.3015,2.76563 v -7.625 h 0.9375 v 7.625 z m 2.3831,-6.54688 v -1.07812 h 0.9375 v 1.07812 z m 0,6.54688 v -5.53125 h 0.9375 v 5.53125 z m 5.97686,-2.03125 0.92187,0.125 q -0.15625,0.95312 -0.78125,1.5 -0.625,0.53125 -1.53125,0.53125 -1.125,0 -1.8125,-0.73438 -0.6875,-0.75 -0.6875,-2.125 0,-0.90625 0.29688,-1.57812 0.29687,-0.67188 0.89062,-1 0.60938,-0.34375 1.32813,-0.34375 0.89062,0 1.46875,0.46875 0.57812,0.45312 0.73437,1.28125 l -0.90625,0.14062 q -0.14062,-0.54687 -0.46875,-0.82812 -0.32812,-0.28125 -0.79687,-0.28125 -0.70313,0 -1.15625,0.51562 -0.4375,0.5 -0.4375,1.59375 0,1.10938 0.42187,1.625 0.4375,0.5 1.125,0.5 0.54688,0 0.90625,-0.34375 0.375,-0.34375 0.48438,-1.04687 z m 1.67187,4.15625 -0.0937,-0.875 q 0.29688,0.0781 0.53125,0.0781 0.3125,0 0.5,-0.10937 0.1875,-0.0937 0.3125,-0.28125 0.0781,-0.14063 0.28125,-0.70313 0.0312,-0.0781 0.0781,-0.21875 l -2.09375,-5.54687 h 1.01562 l 1.14063,3.20312 q 0.23437,0.60938 0.40625,1.28125 0.15625,-0.64062 0.375,-1.26562 l 1.1875,-3.21875 h 0.9375 l -2.10938,5.625 q -0.32812,0.90625 -0.51562,1.25 -0.25,0.46875 -0.57813,0.6875 -0.3125,0.21875 -0.76562,0.21875 -0.26563,0 -0.60938,-0.125 z"
       fill-rule="nonzero"
       id="path20" />
    <path
       fill="#000000"
       fill-opacity="0"
       d="M 58.719162,178.76247 H 152.7979 v 29.6693 H 58.719162 Z"
       fill-rule="evenodd"
       id="path21" />
    <path
       stroke="#000000"
       stroke-width="1"
       stroke-linejoin="round"
       stroke-linecap="butt"
       d="M 58.719162,178.76247 H 152.7979 v 29.6693 H 58.719162 Z"
       fill-rule="evenodd"
       id="path22" />
    <path
       fill="#000000"
       d="m 75.19286,190.83711 v -7.625 h 2.625 q 0.890625,0 1.359375,0.10937 0.65625,0.14063 1.109375,0.54688 0.609375,0.5 0.90625,1.29687 0.296875,0.79688 0.296875,1.8125 0,0.875 -0.203125,1.54688 -0.203125,0.67187 -0.515625,1.10937 -0.3125,0.4375 -0.703125,0.6875 -0.375,0.25 -0.90625,0.39063 -0.53125,0.125 -1.21875,0.125 z m 1,-0.90625 h 1.625 q 0.765625,0 1.1875,-0.14063 0.4375,-0.14062 0.6875,-0.39062 0.359375,-0.35938 0.5625,-0.95313 0.203125,-0.60937 0.203125,-1.48437 0,-1.1875 -0.40625,-1.82813 -0.390625,-0.65625 -0.953125,-0.875 -0.40625,-0.15625 -1.296875,-0.15625 H 76.19286 Z m 10.351852,-0.875 0.96875,0.125 q -0.234375,0.84375 -0.859375,1.3125 -0.609375,0.46875 -1.578125,0.46875 -1.203125,0 -1.921875,-0.75 -0.703125,-0.75 -0.703125,-2.09375 0,-1.39063 0.71875,-2.15625 0.71875,-0.78125 1.859375,-0.78125 1.109375,0 1.8125,0.76562 0.703125,0.75 0.703125,2.125 0,0.0781 0,0.23438 h -4.125 q 0.04687,0.92187 0.515625,1.40625 0.46875,0.48437 1.15625,0.48437 0.515625,0 0.875,-0.26562 0.359375,-0.28125 0.578125,-0.875 z m -3.078125,-1.51563 h 3.09375 q -0.0625,-0.6875 -0.359375,-1.04687 -0.453125,-0.53125 -1.15625,-0.53125 -0.640625,0 -1.09375,0.4375 -0.4375,0.42187 -0.484375,1.14062 z m 6.082748,3.29688 H 88.68996 v -7.625 h 0.9375 v 2.71875 q 0.59375,-0.75 1.5,-0.75 0.515625,0 0.96875,0.21875 0.453125,0.20312 0.75,0.57812 0.296875,0.35938 0.453125,0.89063 0.171875,0.53125 0.171875,1.125 0,1.42187 -0.703125,2.20312 -0.703125,0.76563 -1.6875,0.76563 -0.96875,0 -1.53125,-0.8125 z m 0,-2.79688 q 0,0.98438 0.265625,1.42188 0.4375,0.73437 1.1875,0.73437 0.625,0 1.0625,-0.53125 0.453125,-0.54687 0.453125,-1.59375 0,-1.07812 -0.4375,-1.59375 -0.421875,-0.51562 -1.03125,-0.51562 -0.609375,0 -1.0625,0.53125 -0.4375,0.53125 -0.4375,1.54687 z m 8.692123,2.79688 v -0.8125 q -0.65625,0.9375 -1.75,0.9375 -0.5,0 -0.921875,-0.1875 -0.421875,-0.1875 -0.625,-0.46875 -0.203125,-0.28125 -0.296875,-0.70313 -0.04687,-0.26562 -0.04687,-0.875 v -3.42187 h 0.9375 v 3.0625 q 0,0.73437 0.04687,1 0.09375,0.35937 0.375,0.57812 0.296875,0.20313 0.703125,0.20313 0.421875,0 0.796875,-0.20313 0.375,-0.21875 0.515625,-0.59375 0.15625,-0.375 0.15625,-1.07812 v -2.96875 h 0.9375 v 5.53125 z m 2.129622,0.45312 0.90625,0.14063 q 0.0625,0.42187 0.32813,0.60937 0.34375,0.26563 0.9375,0.26563 0.65625,0 1,-0.26563 0.35937,-0.25 0.48437,-0.71875 0.0781,-0.29687 0.0781,-1.20312 -0.625,0.71875 -1.53125,0.71875 -1.14063,0 -1.76563,-0.8125 -0.625,-0.82813 -0.625,-1.98438 0,-0.78125 0.28125,-1.45312 0.29688,-0.67188 0.82813,-1.03125 0.54687,-0.375 1.28125,-0.375 0.98437,0 1.60937,0.79687 v -0.67187 h 0.875 v 4.78125 q 0,1.29687 -0.26562,1.82812 -0.26563,0.54688 -0.84375,0.85938 -0.5625,0.3125 -1.39063,0.3125 -0.98437,0 -1.59375,-0.45313 -0.60937,-0.4375 -0.59375,-1.34375 z m 0.78125,-3.3125 q 0,1.07813 0.42188,1.57813 0.4375,0.5 1.07812,0.5 0.65625,0 1.09375,-0.48438 0.4375,-0.5 0.4375,-1.5625 0,-1.01562 -0.45312,-1.53125 -0.45313,-0.51562 -1.09375,-0.51562 -0.60938,0 -1.04688,0.51562 -0.4375,0.5 -0.4375,1.5 z m 8.40277,2.85938 v -7.625 h 2.875 q 0.75,0 1.15625,0.0625 0.5625,0.0937 0.9375,0.35937 0.39063,0.26563 0.60938,0.75 0.23437,0.46875 0.23437,1.03125 0,0.96875 -0.625,1.65625 -0.60937,0.67188 -2.23437,0.67188 h -1.95313 v 3.09375 z m 1,-4 h 1.96875 q 0.98438,0 1.39063,-0.35938 0.42187,-0.375 0.42187,-1.03125 0,-0.48437 -0.25,-0.8125 -0.23437,-0.34375 -0.64062,-0.45312 -0.25,-0.0781 -0.9375,-0.0781 h -1.95313 z m 5.63889,1.23437 q 0,-1.53125 0.84375,-2.26562 0.71875,-0.625 1.73437,-0.625 1.14063,0 1.85938,0.75 0.73437,0.75 0.73437,2.0625 0,1.0625 -0.32812,1.6875 -0.3125,0.60937 -0.92188,0.95312 -0.60937,0.32813 -1.34375,0.32813 -1.15625,0 -1.875,-0.73438 -0.70312,-0.75 -0.70312,-2.15625 z m 0.95312,0 q 0,1.0625 0.46875,1.59375 0.46875,0.53125 1.15625,0.53125 0.70313,0 1.15625,-0.53125 0.46875,-0.53125 0.46875,-1.625 0,-1.01562 -0.46875,-1.54687 -0.45312,-0.53125 -1.15625,-0.53125 -0.6875,0 -1.15625,0.53125 -0.46875,0.51562 -0.46875,1.57812 z m 5.3015,2.76563 v -7.625 h 0.93751 v 7.625 z m 2.38311,-6.54688 v -1.07812 h 0.9375 v 1.07812 z m 0,6.54688 v -5.53125 h 0.9375 v 5.53125 z m 5.97685,-2.03125 0.92188,0.125 q -0.15625,0.95312 -0.78125,1.5 -0.625,0.53125 -1.53125,0.53125 -1.125,0 -1.8125,-0.73438 -0.6875,-0.75 -0.6875,-2.125 0,-0.90625 0.29687,-1.57812 0.29688,-0.67188 0.89063,-1 0.60937,-0.34375 1.32812,-0.34375 0.89063,0 1.46875,0.46875 0.57813,0.45312 0.73438,1.28125 l -0.90625,0.14062 q -0.14063,-0.54687 -0.46875,-0.82812 -0.32813,-0.28125 -0.79688,-0.28125 -0.70312,0 -1.15625,0.51562 -0.4375,0.5 -0.4375,1.59375 0,1.10938 0.42188,1.625 0.4375,0.5 1.125,0.5 0.54687,0 0.90625,-0.34375 0.375,-0.34375 0.48437,-1.04687 z m 1.67188,4.15625 -0.0937,-0.875 q 0.29687,0.0781 0.53125,0.0781 0.3125,0 0.5,-0.10937 0.1875,-0.0937 0.3125,-0.28125 0.0781,-0.14063 0.28125,-0.70313 0.0312,-0.0781 0.0781,-0.21875 l -2.09375,-5.54687 h 1.01563 l 1.14062,3.20312 q 0.23438,0.60938 0.40625,1.28125 0.15625,-0.64062 0.375,-1.26562 l 1.1875,-3.21875 h 0.9375 l -2.10937,5.625 q -0.32813,0.90625 -0.51563,1.25 -0.25,0.46875 -0.57812,0.6875 -0.3125,0.21875 -0.76563,0.21875 -0.26562,0 -0.60937,-0.125 z"
       fill-rule="nonzero"
       id="path23" />
    <path
       fill="#000000"
       d="m 88.67954,203.83711 v -5.53125 h 0.84375 v 0.84375 q 0.328125,-0.59375 0.59375,-0.78125 0.28125,-0.1875 0.609375,-0.1875 0.46875,0 0.953125,0.3125 l -0.3125,0.85937 q -0.34375,-0.20312 -0.6875,-0.20312 -0.3125,0 -0.5625,0.1875 -0.234375,0.1875 -0.34375,0.51562 -0.15625,0.5 -0.15625,1.09375 v 2.89063 z m 7.34549,-1.78125 0.96875,0.125 q -0.234375,0.84375 -0.859375,1.3125 -0.609375,0.46875 -1.578125,0.46875 -1.203125,0 -1.921875,-0.75 -0.703125,-0.75 -0.703125,-2.09375 0,-1.39063 0.71875,-2.15625 0.71875,-0.78125 1.859375,-0.78125 1.109375,0 1.8125,0.76562 0.703125,0.75 0.703125,2.125 0,0.0781 0,0.23438 h -4.125 q 0.04687,0.92187 0.515625,1.40625 0.46875,0.48437 1.15625,0.48437 0.515625,0 0.875,-0.26562 0.359375,-0.28125 0.578125,-0.875 z m -3.078125,-1.51563 h 3.09375 q -0.0625,-0.6875 -0.359375,-1.04687 -0.453125,-0.53125 -1.15625,-0.53125 -0.640625,0 -1.09375,0.4375 -0.4375,0.42187 -0.484375,1.14062 z m 5.051498,3.75 0.90625,0.14063 q 0.0625,0.42187 0.328125,0.60937 0.34375,0.26563 0.937502,0.26563 0.65625,0 1,-0.26563 0.35937,-0.25 0.48437,-0.71875 0.0781,-0.29687 0.0781,-1.20312 -0.625,0.71875 -1.53125,0.71875 -1.140627,0 -1.765627,-0.8125 -0.625,-0.82813 -0.625,-1.98438 0,-0.78125 0.28125,-1.45312 0.296875,-0.67188 0.828125,-1.03125 0.546875,-0.375 1.281252,-0.375 0.98437,0 1.60937,0.79687 v -0.67187 h 0.875 v 4.78125 q 0,1.29687 -0.26562,1.82812 -0.26563,0.54688 -0.84375,0.85938 -0.5625,0.3125 -1.39063,0.3125 -0.984372,0 -1.593747,-0.45313 -0.609375,-0.4375 -0.59375,-1.34375 z m 0.78125,-3.3125 q 0,1.07813 0.421875,1.57813 0.4375,0.5 1.078122,0.5 0.65625,0 1.09375,-0.48438 0.4375,-0.5 0.4375,-1.5625 0,-1.01562 -0.45312,-1.53125 -0.45313,-0.51562 -1.09375,-0.51562 -0.609377,0 -1.046877,0.51562 -0.4375,0.5 -0.4375,1.5 z m 5.317127,-3.6875 v -1.07812 h 0.9375 v 1.07812 z m 0,6.54688 v -5.53125 h 0.9375 v 5.53125 z m 1.99247,-1.65625 0.92188,-0.14063 q 0.0781,0.5625 0.4375,0.85938 0.35937,0.29687 1,0.29687 0.64062,0 0.95312,-0.26562 0.3125,-0.26563 0.3125,-0.625 0,-0.3125 -0.28125,-0.5 -0.1875,-0.125 -0.95312,-0.3125 -1.03125,-0.26563 -1.4375,-0.45313 -0.39063,-0.1875 -0.59375,-0.51562 -0.20313,-0.34375 -0.20313,-0.75 0,-0.35938 0.17188,-0.67188 0.17187,-0.32812 0.45312,-0.53125 0.21875,-0.15625 0.59375,-0.26562 0.39063,-0.125 0.8125,-0.125 0.65625,0 1.14063,0.1875 0.5,0.1875 0.73437,0.51562 0.23438,0.3125 0.3125,0.85938 l -0.90625,0.125 q -0.0625,-0.4375 -0.375,-0.67188 -0.29687,-0.23437 -0.82812,-0.23437 -0.65625,0 -0.9375,0.21875 -0.26563,0.20312 -0.26563,0.48437 0,0.1875 0.10938,0.32813 0.125,0.15625 0.35937,0.25 0.14063,0.0625 0.82813,0.25 1,0.26562 1.39062,0.4375 0.39063,0.15625 0.60938,0.48437 0.23437,0.3125 0.23437,0.79688 0,0.46875 -0.28125,0.89062 -0.26562,0.40625 -0.78125,0.64063 -0.51562,0.21875 -1.17187,0.21875 -1.07813,0 -1.64063,-0.4375 -0.5625,-0.45313 -0.71875,-1.34375 z m 7.75,0.8125 0.125,0.82812 q -0.39062,0.0937 -0.70312,0.0937 -0.5,0 -0.78125,-0.15625 -0.28125,-0.17187 -0.40625,-0.4375 -0.10938,-0.26562 -0.10938,-1.10937 v -3.17188 h -0.6875 v -0.73437 h 0.6875 v -1.35938 l 0.9375,-0.5625 v 1.92188 h 0.9375 v 0.73437 h -0.9375 v 3.23438 q 0,0.39062 0.0469,0.51562 0.0469,0.10938 0.15625,0.1875 0.10937,0.0625 0.32812,0.0625 0.15625,0 0.40625,-0.0469 z m 4.69503,-0.9375 0.96875,0.125 q -0.23438,0.84375 -0.85938,1.3125 -0.60937,0.46875 -1.57812,0.46875 -1.20313,0 -1.92188,-0.75 -0.70312,-0.75 -0.70312,-2.09375 0,-1.39063 0.71875,-2.15625 0.71875,-0.78125 1.85937,-0.78125 1.10938,0 1.8125,0.76562 0.70313,0.75 0.70313,2.125 0,0.0781 0,0.23438 h -4.125 q 0.0469,0.92187 0.51562,1.40625 0.46875,0.48437 1.15625,0.48437 0.51563,0 0.875,-0.26562 0.35938,-0.28125 0.57813,-0.875 z m -3.07813,-1.51563 h 3.09375 q -0.0625,-0.6875 -0.35937,-1.04687 -0.45313,-0.53125 -1.15625,-0.53125 -0.64063,0 -1.09375,0.4375 -0.4375,0.42187 -0.48438,1.14062 z m 5.20775,3.29688 v -5.53125 h 0.84375 v 0.84375 q 0.32812,-0.59375 0.59375,-0.78125 0.28125,-0.1875 0.60937,-0.1875 0.46876,0 0.95314,0.3125 l -0.3125,0.85937 q -0.34375,-0.20312 -0.68751,-0.20312 -0.3125,0 -0.5625,0.1875 -0.23438,0.1875 -0.34375,0.51562 -0.15625,0.5 -0.15625,1.09375 v 2.89063 z"
       fill-rule="nonzero"
       id="path24" />
    <path
       fill="#000000"
       fill-opacity="0"
       d="m 105.75853,116.63648 v 63.21259"
       fill-rule="evenodd"
       id="path25" />
    <path
       stroke="#ff0000"
       stroke-width="1"
       stroke-linejoin="round"
       stroke-linecap="butt"
       d="m 105.75853,116.63648 v 57.21259"
       fill-rule="evenodd"
       id="path26" />
    <path
       fill="#ff0000"
       stroke="#ff0000"
       stroke-width="1"
       stroke-linecap="butt"
       d="m 104.1068,173.84908 1.65173,4.5381 1.65174,-4.5381 z"
       fill-rule="evenodd"
       id="path27" />
  </g>
</svg>
