<svg version="1.1" viewBox="0.0 0.0 339.8608923884514 135.23622047244095" fill="none" stroke="none" stroke-linecap="square" stroke-miterlimit="10" xmlns:xlink="http://www.w3.org/1999/xlink" xmlns="http://www.w3.org/2000/svg"><clipPath id="p.0"><path d="m0 0l339.8609 0l0 135.23622l-339.8609 0l0 -135.23622z" clip-rule="nonzero"/></clipPath><g clip-path="url(#p.0)"><path fill="#000000" fill-opacity="0.0" d="m0 0l339.8609 0l0 135.23622l-339.8609 0z" fill-rule="evenodd"/><path fill="#ffffff" d="m2.0314906 12.401575l333.5433 0l0 37.574806l-333.5433 0z" fill-rule="evenodd"/><path stroke="#000000" stroke-width="1.0" stroke-linejoin="round" stroke-linecap="butt" d="m2.0314906 12.401575l333.5433 0l0 37.574806l-333.5433 0z" fill-rule="evenodd"/><path fill="#000000" fill-opacity="0.0" d="m-0.21260446 -3.4540682l30.834646 0l0 15.84252l-30.834646 0z" fill-rule="evenodd"/><path fill="#000000" d="m10.8498955 2.0390663q0.296875 0 0.546875 0.09375q0.265625 0.078125 0.453125 0.25q0.1875 0.15625 0.28125 0.390625q0.109375 0.21875 0.109375 0.5q0 0.21875 -0.0625 0.40625q-0.046875 0.171875 -0.15625 0.3125q-0.109375 0.125 -0.265625 0.21875q-0.15625 0.09375 -0.34375 0.15625q0.46875 0.109375 0.703125 0.40625q0.234375 0.296875 0.234375 0.71875q0 0.34375 -0.125 0.609375q-0.125 0.25 -0.34375 0.4375q-0.21875 0.1875 -0.515625 0.28125q-0.28125 0.09375 -0.609375 0.09375q-0.375 0 -0.640625 -0.09375q-0.265625 -0.09375 -0.453125 -0.25q-0.1875 -0.171875 -0.3125 -0.390625q-0.125 -0.234375 -0.203125 -0.5l0.25 -0.109375q0.078125 -0.03125 0.140625 -0.03125q0.0625 0 0.109375 0.03125q0.0625 0.03125 0.09375 0.078125q0 0.015625 0 0.03125q0.015625 0.015625 0.015625 0.03125q0.046875 0.09375 0.109375 0.21875q0.078125 0.125 0.1875 0.234375q0.109375 0.109375 0.28125 0.1875q0.171875 0.0625 0.421875 0.0625q0.25 0 0.4375 -0.078125q0.1875 -0.078125 0.3125 -0.203125q0.125 -0.140625 0.1875 -0.296875q0.0625 -0.15625 0.0625 -0.3125q0 -0.203125 -0.0625 -0.359375q-0.046875 -0.15625 -0.1875 -0.265625q-0.125 -0.125 -0.359375 -0.1875q-0.234375 -0.078125 -0.609375 -0.078125l0 -0.421875q0.296875 0 0.515625 -0.0625q0.21875 -0.0625 0.34375 -0.171875q0.140625 -0.125 0.203125 -0.265625q0.0625 -0.15625 0.0625 -0.34375q0 -0.203125 -0.0625 -0.359375q-0.0625 -0.15625 -0.1875 -0.25q-0.109375 -0.109375 -0.265625 -0.15625q-0.15625 -0.046875 -0.328125 -0.046875q-0.1875 0 -0.34375 0.0625q-0.140625 0.046875 -0.265625 0.140625q-0.109375 0.09375 -0.203125 0.234375q-0.078125 0.125 -0.109375 0.28125q-0.03125 0.09375 -0.09375 0.140625q-0.046875 0.03125 -0.125 0.03125q-0.015625 0 -0.03125 0q-0.015625 0 -0.046875 0l-0.3125 -0.0625q0.046875 -0.3125 0.171875 -0.5625q0.140625 -0.265625 0.34375 -0.421875q0.21875 -0.171875 0.46875 -0.265625q0.265625 -0.09375 0.578125 -0.09375zm2.7512054 4.375l1.03125 0l0 -3.25q0 -0.140625 0 -0.296875l-0.84375 0.734375q-0.03125 0.015625 -0.078125 0.03125q-0.03125 0.015625 -0.046875 0.015625q-0.0625 0 -0.109375 -0.015625q-0.03125 -0.03125 -0.046875 -0.0625l-0.1875 -0.25l1.421875 -1.234375l0.484375 0l0 4.328125l0.9375 0l0 0.453125l-2.5625 0l0 -0.453125z" fill-rule="nonzero"/><path fill="#ffffff" d="m2.0305586 12.400992l28.598427 0l0 37.574802l-28.598427 0z" fill-rule="evenodd"/><path stroke="#000000" stroke-width="1.0" stroke-linejoin="round" stroke-linecap="butt" d="m2.0305586 12.400992l28.598427 0l0 37.574802l-28.598427 0z" fill-rule="evenodd"/><path fill="#000000" d="m15.538755 33.087143l0 -4.906248l-0.9375 0l0 5.687498l3.65625 0l0 -0.78125l-2.71875 0z" fill-rule="nonzero"/><path fill="#000000" fill-opacity="0.0" d="m22.346752 -3.4514437l28.598427 0l0 15.84252l-28.598427 0z" fill-rule="evenodd"/><path fill="#000000" d="m33.409252 2.0416908q0.296875 0 0.546875 0.09375q0.265625 0.078125 0.453125 0.25q0.1875 0.15625 0.28125 0.390625q0.109375 0.21875 0.109375 0.5q0 0.21875 -0.0625 0.40625q-0.046875 0.171875 -0.15625 0.3125q-0.109375 0.125 -0.265625 0.21875q-0.15625 0.09375 -0.34375 0.15625q0.46875 0.109375 0.703125 0.40625q0.234375 0.296875 0.234375 0.71875q0 0.34375 -0.125 0.609375q-0.125 0.25 -0.34375 0.4375q-0.21875 0.1875 -0.515625 0.28125q-0.28125 0.09375 -0.609375 0.09375q-0.375 0 -0.640625 -0.09375q-0.265625 -0.09375 -0.453125 -0.25q-0.1875 -0.171875 -0.3125 -0.390625q-0.125 -0.234375 -0.203125 -0.5l0.25 -0.109375q0.078125 -0.03125 0.140625 -0.03125q0.0625 0 0.109375 0.03125q0.0625 0.03125 0.09375 0.078125q0 0.015625 0 0.03125q0.015625 0.015625 0.015625 0.03125q0.046875 0.09375 0.109375 0.21875q0.078125 0.125 0.1875 0.234375q0.109375 0.109375 0.28125 0.1875q0.171875 0.0625 0.421875 0.0625q0.25 0 0.4375 -0.078125q0.1875 -0.078125 0.3125 -0.203125q0.125 -0.140625 0.1875 -0.296875q0.0625 -0.15625 0.0625 -0.3125q0 -0.203125 -0.0625 -0.359375q-0.046875 -0.15625 -0.1875 -0.265625q-0.125 -0.125 -0.359375 -0.1875q-0.234375 -0.078125 -0.609375 -0.078125l0 -0.421875q0.296875 0 0.515625 -0.0625q0.21875 -0.0625 0.34375 -0.171875q0.140625 -0.125 0.203125 -0.265625q0.0625 -0.15625 0.0625 -0.34375q0 -0.203125 -0.0625 -0.359375q-0.0625 -0.15625 -0.1875 -0.25q-0.109375 -0.109375 -0.265625 -0.15625q-0.15625 -0.046875 -0.328125 -0.046875q-0.1875 0 -0.34375 0.0625q-0.140625 0.046875 -0.265625 0.140625q-0.109375 0.09375 -0.203125 0.234375q-0.078125 0.125 -0.109375 0.28125q-0.03125 0.09375 -0.09375 0.140625q-0.046875 0.03125 -0.125 0.03125q-0.015625 0 -0.03125 0q-0.015625 0 -0.046875 0l-0.3125 -0.0625q0.046875 -0.3125 0.171875 -0.5625q0.140625 -0.265625 0.34375 -0.421875q0.21875 -0.171875 0.46875 -0.265625q0.265625 -0.09375 0.578125 -0.09375zm5.4543304 2.4375q0 0.640625 -0.140625 1.09375q-0.125 0.453125 -0.359375 0.75q-0.234375 0.296875 -0.546875 0.453125q-0.3125 0.140625 -0.6875 0.140625q-0.359375 0 -0.671875 -0.140625q-0.3125 -0.15625 -0.546875 -0.453125q-0.234375 -0.296875 -0.375 -0.75q-0.125 -0.453125 -0.125 -1.09375q0 -0.625 0.125 -1.078125q0.140625 -0.453125 0.375 -0.75q0.234375 -0.3125 0.546875 -0.453125q0.3125 -0.15625 0.671875 -0.15625q0.375 0 0.6875 0.15625q0.3125 0.140625 0.546875 0.453125q0.234375 0.296875 0.359375 0.75q0.140625 0.453125 0.140625 1.078125zm-0.609375 0q0 -0.53125 -0.09375 -0.90625q-0.09375 -0.375 -0.25 -0.59375q-0.15625 -0.234375 -0.359375 -0.328125q-0.203125 -0.09375 -0.421875 -0.09375q-0.21875 0 -0.421875 0.09375q-0.203125 0.09375 -0.359375 0.328125q-0.140625 0.21875 -0.234375 0.59375q-0.09375 0.375 -0.09375 0.90625q0 0.546875 0.09375 0.921875q0.09375 0.375 0.234375 0.609375q0.15625 0.21875 0.359375 0.3125q0.203125 0.09375 0.421875 0.09375q0.21875 0 0.421875 -0.09375q0.203125 -0.09375 0.359375 -0.3125q0.15625 -0.234375 0.25 -0.609375q0.09375 -0.375 0.09375 -0.921875z" fill-rule="nonzero"/><path fill="#000000" fill-opacity="0.0" d="m68.889755 -3.4514437l28.598427 0l0 15.84252l-28.598427 0z" fill-rule="evenodd"/><path fill="#000000" d="m82.76702 2.0416908q0.296875 0 0.5625 0.09375q0.265625 0.09375 0.453125 0.265625q0.203125 0.171875 0.3125 0.421875q0.109375 0.234375 0.109375 0.546875q0 0.265625 -0.09375 0.5q-0.078125 0.21875 -0.21875 0.4375q-0.125 0.203125 -0.3125 0.40625q-0.171875 0.1875 -0.375 0.390625l-1.25 1.28125q0.140625 -0.03125 0.265625 -0.046875q0.140625 -0.03125 0.265625 -0.03125l1.59375 0q0.109375 0 0.15625 0.0625q0.0625 0.046875 0.0625 0.140625l0 0.359375l-3.1875 0l0 -0.203125q0 -0.0625 0.015625 -0.125q0.03125 -0.078125 0.09375 -0.125l1.53125 -1.53125q0.1875 -0.203125 0.34375 -0.375q0.15625 -0.1875 0.265625 -0.359375q0.109375 -0.1875 0.171875 -0.359375q0.0625 -0.1875 0.0625 -0.40625q0 -0.203125 -0.078125 -0.359375q-0.0625 -0.15625 -0.1875 -0.25q-0.109375 -0.109375 -0.265625 -0.15625q-0.15625 -0.0625 -0.328125 -0.0625q-0.1875 0 -0.34375 0.0625q-0.140625 0.046875 -0.265625 0.140625q-0.109375 0.09375 -0.203125 0.234375q-0.078125 0.125 -0.109375 0.28125q-0.03125 0.09375 -0.078125 0.140625q-0.046875 0.03125 -0.140625 0.03125q-0.015625 0 -0.03125 0q-0.015625 0 -0.046875 0l-0.3125 -0.0625q0.046875 -0.3125 0.171875 -0.5625q0.140625 -0.265625 0.34375 -0.421875q0.21875 -0.171875 0.46875 -0.265625q0.265625 -0.09375 0.578125 -0.09375zm5.4699554 0.0625l0 0.265625q0 0.109375 -0.03125 0.1875q-0.015625 0.0625 -0.046875 0.125l-1.96875 3.984375q-0.046875 0.078125 -0.125 0.140625q-0.078125 0.0625 -0.203125 0.0625l-0.421875 0l2.0 -3.9375q0.046875 -0.078125 0.09375 -0.140625q0.046875 -0.078125 0.09375 -0.140625l-2.484375 0q-0.0625 0 -0.109375 -0.046875q-0.046875 -0.046875 -0.046875 -0.09375l0 -0.40625l3.25 0z" fill-rule="nonzero"/><path fill="#000000" fill-opacity="0.0" d="m87.61432 -3.4540682l30.83464 0l0 15.84252l-30.83464 0z" fill-rule="evenodd"/><path fill="#000000" d="m98.61432 2.0390663q0.296875 0 0.5625 0.09375q0.265625 0.09375 0.453125 0.265625q0.203125 0.171875 0.3125 0.421875q0.109375 0.234375 0.109375 0.546875q0 0.265625 -0.09375 0.5q-0.078125 0.21875 -0.21875 0.4375q-0.125 0.203125 -0.3125 0.40625q-0.171875 0.1875 -0.375 0.390625l-1.25 1.28125q0.140625 -0.03125 0.265625 -0.046875q0.140625 -0.03125 0.265625 -0.03125l1.59375 0q0.109375 0 0.15625 0.0625q0.0625 0.046875 0.0625 0.140625l0 0.359375l-3.1875 0l0 -0.203125q0 -0.0625 0.015625 -0.125q0.03125 -0.078125 0.09375 -0.125l1.53125 -1.53125q0.1875 -0.203125 0.34375 -0.375q0.15625 -0.1875 0.265625 -0.359375q0.109375 -0.1875 0.171875 -0.359375q0.0625 -0.1875 0.0625 -0.40625q0 -0.203125 -0.078125 -0.359375q-0.0625 -0.15625 -0.1875 -0.25q-0.109375 -0.109375 -0.265625 -0.15625q-0.15625 -0.0625 -0.328125 -0.0625q-0.1875 0 -0.34375 0.0625q-0.140625 0.046875 -0.265625 0.140625q-0.109375 0.09375 -0.203125 0.234375q-0.078125 0.125 -0.109375 0.28125q-0.03125 0.09375 -0.078125 0.140625q-0.046875 0.03125 -0.140625 0.03125q-0.015625 0 -0.03125 0q-0.015625 0 -0.046875 0l-0.3125 -0.0625q0.046875 -0.3125 0.171875 -0.5625q0.140625 -0.265625 0.34375 -0.421875q0.21875 -0.171875 0.46875 -0.265625q0.265625 -0.09375 0.578125 -0.09375zm4.0168304 1.90625q0.296875 0 0.546875 0.09375q0.265625 0.09375 0.453125 0.28125q0.1875 0.171875 0.296875 0.4375q0.125 0.265625 0.125 0.609375q0 0.328125 -0.125 0.609375q-0.125 0.28125 -0.34375 0.5q-0.203125 0.203125 -0.515625 0.328125q-0.296875 0.109375 -0.65625 0.109375q-0.359375 0 -0.65625 -0.109375q-0.28125 -0.109375 -0.5 -0.3125q-0.203125 -0.21875 -0.3125 -0.515625q-0.109375 -0.3125 -0.109375 -0.6875q0 -0.3125 0.140625 -0.65625q0.140625 -0.359375 0.4375 -0.765625l1.21875 -1.625q0.046875 -0.0625 0.125 -0.09375q0.078125 -0.046875 0.1875 -0.046875l0.53125 0l-1.65625 2.09375q0.171875 -0.125 0.375 -0.1875q0.203125 -0.0625 0.4375 -0.0625zm-1.21875 1.453125q0 0.234375 0.0625 0.421875q0.0625 0.1875 0.1875 0.328125q0.140625 0.125 0.3125 0.203125q0.1875 0.078125 0.421875 0.078125q0.25 0 0.4375 -0.078125q0.1875 -0.078125 0.328125 -0.203125q0.140625 -0.140625 0.21875 -0.328125q0.078125 -0.1875 0.078125 -0.40625q0 -0.234375 -0.078125 -0.421875q-0.078125 -0.1875 -0.21875 -0.3125q-0.125 -0.140625 -0.3125 -0.203125q-0.1875 -0.078125 -0.40625 -0.078125q-0.234375 0 -0.4375 0.078125q-0.1875 0.078125 -0.328125 0.21875q-0.125 0.140625 -0.203125 0.328125q-0.0625 0.171875 -0.0625 0.375z" fill-rule="nonzero"/><path fill="#000000" fill-opacity="0.0" d="m6.2311287 49.9875l20.188976 0l0 15.842518l-20.188976 0z" fill-rule="evenodd"/><path fill="#000000" d="m16.168629 60.070007l1.171875 0l0.4375 -3.53125l0.078125 -0.328125l-0.984375 0.734375q-0.046875 0.046875 -0.109375 0.0625q-0.046875 0.015625 -0.09375 0.015625q-0.078125 0 -0.140625 -0.03125q-0.0625 -0.03125 -0.078125 -0.078125l-0.25 -0.421875l1.9375 -1.5l0.78125 0l-0.625 5.078125l1.0625 0l-0.09375 0.71875l-3.1875 0l0.09375 -0.71875z" fill-rule="nonzero"/><path fill="#000000" fill-opacity="0.0" d="m319.88535 -3.4540682l20.188965 0l0 15.84252l-20.188965 0z" fill-rule="evenodd"/><path fill="#000000" d="m332.5416 4.4765663q0 0.640625 -0.140625 1.09375q-0.125 0.453125 -0.359375 0.75q-0.234375 0.296875 -0.546875 0.453125q-0.3125 0.140625 -0.6875 0.140625q-0.359375 0 -0.671875 -0.140625q-0.3125 -0.15625 -0.546875 -0.453125q-0.234375 -0.296875 -0.375 -0.75q-0.125 -0.453125 -0.125 -1.09375q0 -0.625 0.125 -1.078125q0.140625 -0.453125 0.375 -0.75q0.234375 -0.3125 0.546875 -0.453125q0.3125 -0.15625 0.671875 -0.15625q0.375 0 0.6875 0.15625q0.3125 0.140625 0.546875 0.453125q0.234375 0.296875 0.359375 0.75q0.140625 0.453125 0.140625 1.078125zm-0.609375 0q0 -0.53125 -0.09375 -0.90625q-0.09375 -0.375 -0.25 -0.59375q-0.15625 -0.234375 -0.359375 -0.328125q-0.203125 -0.09375 -0.421875 -0.09375q-0.21875 0 -0.421875 0.09375q-0.203125 0.09375 -0.359375 0.328125q-0.140625 0.21875 -0.234375 0.59375q-0.09375 0.375 -0.09375 0.90625q0 0.546875 0.09375 0.921875q0.09375 0.375 0.234375 0.609375q0.15625 0.21875 0.359375 0.3125q0.203125 0.09375 0.421875 0.09375q0.21875 0 0.421875 -0.09375q0.203125 -0.09375 0.359375 -0.3125q0.15625 -0.234375 0.25 -0.609375q0.09375 -0.375 0.09375 -0.921875z" fill-rule="nonzero"/><path fill="#ffffff" d="m30.622381 12.400992l60.850395 0l0 37.574802l-60.850395 0z" fill-rule="evenodd"/><path stroke="#000000" stroke-width="1.0" stroke-linejoin="round" stroke-linecap="butt" d="m30.622381 12.400992l60.850395 0l0 37.574802l-60.850395 0z" fill-rule="evenodd"/><path fill="#000000" d="m48.238983 31.69652l0.96875 0q0.421875 0 0.78125 -0.125q0.359375 -0.125 0.625 -0.359375q0.265625 -0.21875 0.40625 -0.53125q0.140625 -0.328125 0.140625 -0.71875q0 -0.40625 -0.140625 -0.734375q-0.140625 -0.328125 -0.40625 -0.5625q-0.265625 -0.234375 -0.625 -0.359375q-0.359375 -0.125 -0.78125 -0.125l-1.90625 0l0 5.687498l0.9375 0l0 -2.171873zm0 -0.765625l0 -1.984375l0.96875 0q0.234375 0 0.421875 0.078125q0.1875 0.078125 0.328125 0.203125q0.125 0.140625 0.1875 0.328125q0.078125 0.1875 0.078125 0.40625q0 0.21875 -0.078125 0.390625q-0.0625 0.171875 -0.1875 0.296875q-0.140625 0.140625 -0.328125 0.21875q-0.1875 0.0625 -0.421875 0.0625l-0.96875 0zm7.3632812 3.671873l0 -0.734375l-3.5625 0l0 0.734375l3.5625 0zm4.1914062 -2.203125q0 0.1875 -0.078125 0.34375q-0.078125 0.140625 -0.21875 0.234375q-0.125 0.09375 -0.3125 0.15625q-0.1875 0.046875 -0.40625 0.046875q-0.25 0 -0.46875 -0.0625q-0.203125 -0.0625 -0.359375 -0.1875q-0.171875 -0.125 -0.265625 -0.3125q-0.078125 -0.203125 -0.109375 -0.46875l-0.9375 0q0.015625 0.40625 0.171875 0.734375q0.15625 0.3125 0.4375 0.546875q0.296875 0.25 0.703125 0.390625q0.40625 0.125 0.828125 0.125q0.390625 0 0.75 -0.09375q0.359375 -0.109375 0.625 -0.3125q0.265625 -0.1875 0.421875 -0.46875q0.15625 -0.296875 0.15625 -0.671875q0 -0.4218731 -0.1875 -0.7343731q-0.171875 -0.3125 -0.46875 -0.53125q-0.25 -0.1875 -0.53125 -0.3125q-0.28125 -0.125 -0.59375 -0.21875q-0.234375 -0.0625 -0.453125 -0.140625q-0.21875 -0.09375 -0.375 -0.203125q-0.171875 -0.109375 -0.265625 -0.25q-0.09375 -0.140625 -0.109375 -0.34375q0 -0.1875 0.078125 -0.328125q0.078125 -0.15625 0.203125 -0.25q0.140625 -0.109375 0.3125 -0.15625q0.1875 -0.0625 0.40625 -0.0625q0.25 0 0.4375 0.078125q0.1875 0.0625 0.3125 0.1875q0.140625 0.125 0.203125 0.3125q0.078125 0.171875 0.09375 0.390625l0.9375 0q0 -0.390625 -0.15625 -0.703125q-0.15625 -0.328125 -0.421875 -0.546875q-0.265625 -0.234375 -0.625 -0.359375q-0.359375 -0.125 -0.765625 -0.125q-0.390625 0 -0.75 0.109375q-0.359375 0.109375 -0.625 0.3125q-0.265625 0.203125 -0.421875 0.5q-0.15625 0.28125 -0.15625 0.640625q0 0.34375 0.140625 0.609375q0.140625 0.265625 0.375 0.484375q0.234375 0.203125 0.5625 0.375q0.34375 0.15625 0.75 0.265625q0.265625 0.078125 0.46875 0.171875q0.21875 0.09375 0.375 0.203125q0.15625 0.125 0.234375 0.2812481q0.078125 0.140625 0.078125 0.34375zm1.9726562 -4.218748l0 0.78125l1.1875 0l0 4.124998l-1.1875 0l0 0.78125l3.359375 0l0 -0.78125l-1.21875 0l0 -4.124998l1.21875 0l0 -0.78125l-3.359375 0zm5.5976562 4.906248l2.78125 -4.296873l0 -0.609375l-3.875 0l0 0.78125l2.75 0l-2.78125 4.281248l0 0.625l4.0 0l0 -0.78125l-2.875 0zm7.2070312 -1.7656231l0 -0.765625l-2.34375 0l0 -1.59375l2.71875 0l0 -0.78125l-3.65625 0l0 5.687498l3.6875 0l0 -0.78125l-2.75 0l0 -1.7656231l2.34375 0z" fill-rule="nonzero"/><path fill="#ffffff" d="m91.47268 12.401575l244.09448 0l0 37.574806l-244.09448 0z" fill-rule="evenodd"/><path stroke="#000000" stroke-width="1.0" stroke-linejoin="round" stroke-linecap="butt" d="m91.47268 12.401575l244.09448 0l0 37.574806l-244.09448 0z" fill-rule="evenodd"/><path fill="#000000" d="m200.8207 28.181477l-1.171875 0l0 5.6875l0.875 0l0 -1.9375l-0.046875 -2.4375l0.796875 2.625l0.484375 0l0.875 -2.71875l-0.046875 2.53125l0 1.9375l0.875 0l0 -5.6875l-1.171875 0l-0.765625 2.4375l-0.703125 -2.4375zm7.2539062 6.421875l0 -0.734375l-3.5625 0l0 0.734375l3.5625 0zm1.2226562 -0.734375l1.96875 0q0.421875 0 0.78125 -0.109375q0.359375 -0.109375 0.625 -0.3125q0.265625 -0.21875 0.40625 -0.515625q0.15625 -0.3125 0.140625 -0.71875q0 -0.234375 -0.0625 -0.4375q-0.0625 -0.21875 -0.1875 -0.390625q-0.125 -0.15625 -0.3125 -0.28125q-0.171875 -0.125 -0.421875 -0.1875l0 -0.015625q0.171875 -0.0625 0.296875 -0.15625q0.140625 -0.09375 0.25 -0.203125q0.140625 -0.15625 0.21875 -0.359375q0.078125 -0.21875 0.09375 -0.46875q0 -0.390625 -0.15625 -0.671875q-0.15625 -0.296875 -0.421875 -0.484375q-0.265625 -0.1875 -0.625 -0.28125q-0.359375 -0.09375 -0.78125 -0.09375l-1.8125 0l0 5.6875zm0.9375 -2.578125l1.078125 0q0.234375 0.015625 0.40625 0.078125q0.1875 0.0625 0.3125 0.171875q0.125 0.125 0.1875 0.296875q0.0625 0.15625 0.0625 0.375q0 0.203125 -0.078125 0.375q-0.078125 0.15625 -0.21875 0.265625q-0.125 0.109375 -0.3125 0.171875q-0.171875 0.0625 -0.40625 0.0625l-1.03125 0l0 -1.796875zm0 -0.703125l0 -1.625l0.890625 0q0.25 0 0.4375 0.0625q0.203125 0.046875 0.34375 0.15625q0.109375 0.09375 0.171875 0.25q0.0625 0.140625 0.0625 0.34375q0 0.1875 -0.078125 0.328125q-0.0625 0.140625 -0.171875 0.25q-0.140625 0.109375 -0.34375 0.171875q-0.1875 0.046875 -0.40625 0.0625l-0.90625 0zm6.6289062 1.96875l0.390625 1.3125l0.96875 0l-1.828125 -5.6875l-0.828125 0l-1.84375 5.6875l0.96875 0l0.390625 -1.3125l1.78125 0zm-1.546875 -0.796875l0.671875 -2.25l0.640625 2.25l-1.3125 0zm6.5507812 0.640625q0 0.1875 -0.078125 0.34375q-0.078125 0.140625 -0.21875 0.234375q-0.125 0.09375 -0.3125 0.15625q-0.1875 0.046875 -0.40625 0.046875q-0.25 0 -0.46875 -0.0625q-0.203125 -0.0625 -0.359375 -0.1875q-0.171875 -0.125 -0.265625 -0.3125q-0.078125 -0.203125 -0.109375 -0.46875l-0.9375 0q0.015625 0.40625 0.171875 0.734375q0.15625 0.3125 0.4375 0.546875q0.296875 0.25 0.703125 0.390625q0.40625 0.125 0.828125 0.125q0.390625 0 0.75 -0.09375q0.359375 -0.109375 0.625 -0.3125q0.265625 -0.1875 0.421875 -0.46875q0.15625 -0.296875 0.15625 -0.671875q0 -0.421875 -0.1875 -0.734375q-0.171875 -0.3125 -0.46875 -0.53125q-0.25 -0.1875 -0.53125 -0.3125q-0.28125 -0.125 -0.59375 -0.21875q-0.234375 -0.0625 -0.453125 -0.140625q-0.21875 -0.09375 -0.375 -0.203125q-0.171875 -0.109375 -0.265625 -0.25q-0.09375 -0.140625 -0.109375 -0.34375q0 -0.1875 0.078125 -0.328125q0.078125 -0.15625 0.203125 -0.25q0.140625 -0.109375 0.3125 -0.15625q0.1875 -0.0625 0.40625 -0.0625q0.25 0 0.4375 0.078125q0.1875 0.0625 0.3125 0.1875q0.140625 0.125 0.203125 0.3125q0.078125 0.171875 0.09375 0.390625l0.9375 0q0 -0.390625 -0.15625 -0.703125q-0.15625 -0.328125 -0.421875 -0.546875q-0.265625 -0.234375 -0.625 -0.359375q-0.359375 -0.125 -0.765625 -0.125q-0.390625 0 -0.75 0.109375q-0.359375 0.109375 -0.625 0.3125q-0.265625 0.203125 -0.421875 0.5q-0.15625 0.28125 -0.15625 0.640625q0 0.34375 0.140625 0.609375q0.140625 0.265625 0.375 0.484375q0.234375 0.203125 0.5625 0.375q0.34375 0.15625 0.75 0.265625q0.265625 0.078125 0.46875 0.171875q0.21875 0.09375 0.375 0.203125q0.15625 0.125 0.234375 0.28125q0.078125 0.140625 0.078125 0.34375zm5.1757812 -1.078125l0 -0.765625l-2.34375 0l0 -1.59375l2.71875 0l0 -0.78125l-3.65625 0l0 5.6875l3.6875 0l0 -0.78125l-2.75 0l0 -1.765625l2.34375 0z" fill-rule="nonzero"/><path fill="#000000" fill-opacity="0.0" d="m50.944057 49.9875l20.188976 0l0 15.842518l-20.188976 0z" fill-rule="evenodd"/><path fill="#000000" d="m63.740932 58.632507l0.7343788 0l-0.078125 0.546875q-0.015625 0.0625 -0.078125 0.125q-0.046875 0.0625 -0.140625 0.0625l-0.5156288 0l-0.171875 1.421875l-0.875 0l0.171875 -1.421875l-2.390625 0q-0.109375 0 -0.203125 -0.0625q-0.078125 -0.0625 -0.09375 -0.140625l-0.03125 -0.484375l3.1875 -3.671875l0.9375038 0l-0.4531288 3.625zm-0.609375 -1.96875q0.03125 -0.234375 0.09375 -0.515625l-2.125 2.484375l1.78125 0l0.25 -1.96875z" fill-rule="nonzero"/><path fill="#000000" fill-opacity="0.0" d="m197.06303 49.986877l32.91339 0l0 15.842522l-32.91339 0z" fill-rule="evenodd"/><path fill="#000000" d="m211.73917 54.944386q0.359375 0 0.65625 0.109375q0.296875 0.09375 0.5 0.28125q0.21875 0.1875 0.328125 0.46875q0.109375 0.265625 0.109375 0.578125q0 0.359375 -0.109375 0.671875q-0.109375 0.296875 -0.296875 0.5625q-0.1875 0.265625 -0.453125 0.515625q-0.25 0.25 -0.53125 0.515625l-1.5 1.359375q0.1875 -0.046875 0.375 -0.078125q0.1875 -0.03125 0.359375 -0.03125l1.53125 0q0.140625 0 0.21875 0.078125q0.078125 0.078125 0.078125 0.203125q0 0 0 0.015625q0 0.015625 -0.015625 0.078125q0 0.0625 -0.015625 0.1875q-0.015625 0.109375 -0.03125 0.328125l-3.953125 0l0.03125 -0.3125q0.015625 -0.09375 0.0625 -0.203125q0.0625 -0.109375 0.15625 -0.203125l1.984375 -1.765625q0.296875 -0.25 0.5 -0.46875q0.21875 -0.234375 0.359375 -0.453125q0.140625 -0.21875 0.203125 -0.4375q0.0625 -0.21875 0.0625 -0.453125q0 -0.359375 -0.203125 -0.546875q-0.203125 -0.203125 -0.5625 -0.203125q-0.1875 0 -0.34375 0.0625q-0.15625 0.046875 -0.28125 0.140625q-0.125 0.09375 -0.234375 0.21875q-0.09375 0.125 -0.15625 0.28125q-0.0625 0.140625 -0.15625 0.203125q-0.09375 0.0625 -0.21875 0.0625q-0.0625 0 -0.125 0l-0.5 -0.09375q0.109375 -0.40625 0.3125 -0.71875q0.21875 -0.328125 0.5 -0.53125q0.28125 -0.203125 0.625 -0.3125q0.34375 -0.109375 0.734375 -0.109375zm6.6399384 0.0625l-0.046875 0.375q-0.015625 0.125 -0.0625 0.25q-0.03125 0.109375 -0.0625 0.1875l-2.90625 4.75q-0.046875 0.09375 -0.15625 0.15625q-0.109375 0.0625 -0.21875 0.0625l-0.796875 0l2.8125 -4.46875q0.078125 -0.140625 0.15625 -0.234375q0.09375 -0.109375 0.203125 -0.21875l-2.796875 0q-0.09375 0 -0.15625 -0.046875q-0.046875 -0.0625 -0.046875 -0.140625l0.078125 -0.671875l4.0 0z" fill-rule="nonzero"/><path fill="#ffffff" d="m2.0305586 85.2705l333.5433 0l0 37.5748l-333.5433 0z" fill-rule="evenodd"/><path stroke="#000000" stroke-width="1.0" stroke-linejoin="round" stroke-linecap="butt" d="m2.0305586 85.2705l333.5433 0l0 37.5748l-333.5433 0z" fill-rule="evenodd"/><path fill="#000000" fill-opacity="0.0" d="m-0.21268426 69.41207l28.062992 0l0 15.842522l-28.062992 0z" fill-rule="evenodd"/><path fill="#000000" d="m10.849815 74.905205q0.296875 0 0.546875 0.09375q0.265625 0.078125 0.453125 0.25q0.1875 0.15625 0.28125 0.390625q0.109375 0.21875 0.109375 0.5q0 0.21875 -0.0625 0.40625q-0.046875 0.171875 -0.15625 0.3125q-0.109375 0.125 -0.265625 0.21875q-0.15625 0.09375 -0.34375 0.15625q0.46875 0.109375 0.703125 0.40625q0.234375 0.296875 0.234375 0.71875q0 0.34375 -0.125 0.609375q-0.125 0.25 -0.34375 0.4375q-0.21875 0.1875 -0.515625 0.28125q-0.28125 0.09375 -0.609375 0.09375q-0.375 0 -0.640625 -0.09375q-0.265625 -0.09375 -0.453125 -0.25q-0.1875 -0.171875 -0.3125 -0.390625q-0.125 -0.234375 -0.203125 -0.5l0.25 -0.109375q0.078125 -0.03125 0.140625 -0.03125q0.0625 0 0.109375 0.03125q0.0625 0.03125 0.09375 0.078125q0 0.015625 0 0.03125q0.015625 0.015625 0.015625 0.03125q0.046875 0.09375 0.109375 0.21875q0.078125 0.125 0.1875 0.234375q0.109375 0.109375 0.28125 0.1875q0.171875 0.0625 0.421875 0.0625q0.25 0 0.4375 -0.078125q0.1875 -0.078125 0.3125 -0.203125q0.125 -0.140625 0.1875 -0.296875q0.0625 -0.15625 0.0625 -0.3125q0 -0.203125 -0.0625 -0.359375q-0.046875 -0.15625 -0.1875 -0.265625q-0.125 -0.125 -0.359375 -0.1875q-0.234375 -0.078125 -0.609375 -0.078125l0 -0.421875q0.296875 0 0.515625 -0.0625q0.21875 -0.0625 0.34375 -0.171875q0.140625 -0.125 0.203125 -0.265625q0.0625 -0.15625 0.0625 -0.34375q0 -0.203125 -0.0625 -0.359375q-0.0625 -0.15625 -0.1875 -0.25q-0.109375 -0.109375 -0.265625 -0.15625q-0.15625 -0.046875 -0.328125 -0.046875q-0.1875 0 -0.34375 0.0625q-0.140625 0.046875 -0.265625 0.140625q-0.109375 0.09375 -0.203125 0.234375q-0.078125 0.125 -0.109375 0.28125q-0.03125 0.09375 -0.09375 0.140625q-0.046875 0.03125 -0.125 0.03125q-0.015625 0 -0.03125 0q-0.015625 0 -0.046875 0l-0.3125 -0.0625q0.046875 -0.3125 0.171875 -0.5625q0.140625 -0.265625 0.34375 -0.421875q0.21875 -0.171875 0.46875 -0.265625q0.265625 -0.09375 0.578125 -0.09375zm2.7512054 4.375l1.03125 0l0 -3.25q0 -0.140625 0 -0.296875l-0.84375 0.734375q-0.03125 0.015625 -0.078125 0.03125q-0.03125 0.015625 -0.046875 0.015625q-0.0625 0 -0.109375 -0.015625q-0.03125 -0.03125 -0.046875 -0.0625l-0.1875 -0.25l1.421875 -1.234375l0.484375 0l0 4.328125l0.9375 0l0 0.453125l-2.5625 0l0 -0.453125z" fill-rule="nonzero"/><path fill="#000000" fill-opacity="0.0" d="m319.88388 69.41281l20.188965 0l0 15.842522l-20.188965 0z" fill-rule="evenodd"/><path fill="#000000" d="m332.54013 77.343445q0 0.640625 -0.140625 1.09375q-0.125 0.453125 -0.359375 0.75q-0.234375 0.296875 -0.546875 0.453125q-0.3125 0.140625 -0.6875 0.140625q-0.359375 0 -0.671875 -0.140625q-0.3125 -0.15625 -0.546875 -0.453125q-0.234375 -0.296875 -0.375 -0.75q-0.125 -0.453125 -0.125 -1.09375q0 -0.625 0.125 -1.078125q0.140625 -0.453125 0.375 -0.75q0.234375 -0.3125 0.546875 -0.453125q0.3125 -0.15625 0.671875 -0.15625q0.375 0 0.6875 0.15625q0.3125 0.140625 0.546875 0.453125q0.234375 0.296875 0.359375 0.75q0.140625 0.453125 0.140625 1.078125zm-0.609375 0q0 -0.53125 -0.09375 -0.90625q-0.09375 -0.375 -0.25 -0.59375q-0.15625 -0.234375 -0.359375 -0.328125q-0.203125 -0.09375 -0.421875 -0.09375q-0.21875 0 -0.421875 0.09375q-0.203125 0.09375 -0.359375 0.328125q-0.140625 0.21875 -0.234375 0.59375q-0.09375 0.375 -0.09375 0.90625q0 0.546875 0.09375 0.921875q0.09375 0.375 0.234375 0.609375q0.15625 0.21875 0.359375 0.3125q0.203125 0.09375 0.421875 0.09375q0.21875 0 0.421875 -0.09375q0.203125 -0.09375 0.359375 -0.3125q0.15625 -0.234375 0.25 -0.609375q0.09375 -0.375 0.09375 -0.921875z" fill-rule="nonzero"/><path fill="#ffffff" d="m2.033801 85.27034l333.5433 0l0 37.574806l-333.5433 0z" fill-rule="evenodd"/><path stroke="#000000" stroke-width="1.0" stroke-linejoin="round" stroke-linecap="butt" d="m2.033801 85.27034l333.5433 0l0 37.574806l-333.5433 0z" fill-rule="evenodd"/><path fill="#000000" d="m156.9031 104.534615l1.078125 2.203125l1.015625 0l0 -0.046875l-1.21875 -2.390625q0.234375 -0.09375 0.421875 -0.234375q0.1875 -0.15625 0.328125 -0.34375q0.140625 -0.1875 0.21875 -0.421875q0.078125 -0.25 0.078125 -0.546875q0 -0.421875 -0.15625 -0.734375q-0.140625 -0.328125 -0.40625 -0.53125q-0.28125 -0.21875 -0.65625 -0.328125q-0.359375 -0.109375 -0.796875 -0.109375l-1.8125 0l0 5.6875l0.9375 0l0 -2.203125l0.96875 0zm-0.96875 -0.765625l0 -1.953125l0.875 0q0.234375 0 0.421875 0.0625q0.203125 0.0625 0.34375 0.171875q0.140625 0.125 0.21875 0.3125q0.078125 0.1875 0.078125 0.4375q0 0.21875 -0.078125 0.390625q-0.0625 0.171875 -0.1875 0.28125q-0.140625 0.140625 -0.34375 0.21875q-0.203125 0.0625 -0.453125 0.078125l-0.875 0zm7.4257812 3.703125l0 -0.734375l-3.5625 0l0 0.734375l3.5625 0zm1.2226562 -0.734375l1.96875 0q0.421875 0 0.78125 -0.109375q0.359375 -0.109375 0.625 -0.3125q0.265625 -0.21875 0.40625 -0.515625q0.15625 -0.3125 0.140625 -0.71875q0 -0.234375 -0.0625 -0.4375q-0.0625 -0.21875 -0.1875 -0.390625q-0.125 -0.15625 -0.3125 -0.28125q-0.171875 -0.125 -0.421875 -0.1875l0 -0.015625q0.171875 -0.0625 0.296875 -0.15625q0.140625 -0.09375 0.25 -0.203125q0.140625 -0.15625 0.21875 -0.359375q0.078125 -0.21875 0.09375 -0.46875q0 -0.390625 -0.15625 -0.671875q-0.15625 -0.296875 -0.421875 -0.484375q-0.265625 -0.1875 -0.625 -0.28125q-0.359375 -0.09375 -0.78125 -0.09375l-1.8125 0l0 5.6875zm0.9375 -2.578125l1.078125 0q0.234375 0.015625 0.40625 0.078125q0.1875 0.0625 0.3125 0.171875q0.125 0.125 0.1875 0.296875q0.0625 0.15625 0.0625 0.375q0 0.203125 -0.078125 0.375q-0.078125 0.15625 -0.21875 0.265625q-0.125 0.109375 -0.3125 0.171875q-0.171875 0.0625 -0.40625 0.0625l-1.03125 0l0 -1.796875zm0 -0.703125l0 -1.625l0.890625 0q0.25 0 0.4375 0.0625q0.203125 0.046875 0.34375 0.15625q0.109375 0.09375 0.171875 0.25q0.0625 0.140625 0.0625 0.34375q0 0.1875 -0.078125 0.328125q-0.0625 0.140625 -0.171875 0.25q-0.140625 0.109375 -0.34375 0.171875q-0.1875 0.046875 -0.40625 0.0625l-0.90625 0zm6.6289062 1.96875l0.390625 1.3125l0.96875 0l-1.828125 -5.6875l-0.828125 0l-1.84375 5.6875l0.96875 0l0.390625 -1.3125l1.78125 0zm-1.546875 -0.796875l0.671875 -2.25l0.640625 2.25l-1.3125 0zm6.5507812 0.640625q0 0.1875 -0.078125 0.34375q-0.078125 0.140625 -0.21875 0.234375q-0.125 0.09375 -0.3125 0.15625q-0.1875 0.046875 -0.40625 0.046875q-0.25 0 -0.46875 -0.0625q-0.203125 -0.0625 -0.359375 -0.1875q-0.171875 -0.125 -0.265625 -0.3125q-0.078125 -0.203125 -0.109375 -0.46875l-0.9375 0q0.015625 0.40625 0.171875 0.734375q0.15625 0.3125 0.4375 0.546875q0.296875 0.25 0.703125 0.390625q0.40625 0.125 0.828125 0.125q0.390625 0 0.75 -0.09375q0.359375 -0.109375 0.625 -0.3125q0.265625 -0.1875 0.421875 -0.46875q0.15625 -0.296875 0.15625 -0.671875q0 -0.421875 -0.1875 -0.734375q-0.171875 -0.3125 -0.46875 -0.53125q-0.25 -0.1875 -0.53125 -0.3125q-0.28125 -0.125 -0.59375 -0.21875q-0.234375 -0.0625 -0.453125 -0.140625q-0.21875 -0.09375 -0.375 -0.203125q-0.171875 -0.109375 -0.265625 -0.25q-0.09375 -0.140625 -0.109375 -0.34375q0 -0.1875 0.078125 -0.328125q0.078125 -0.15625 0.203125 -0.25q0.140625 -0.109375 0.3125 -0.15625q0.1875 -0.0625 0.40625 -0.0625q0.25 0 0.4375 0.078125q0.1875 0.0625 0.3125 0.1875q0.140625 0.125 0.203125 0.3125q0.078125 0.171875 0.09375 0.390625l0.9375 0q0 -0.390625 -0.15625 -0.703125q-0.15625 -0.328125 -0.421875 -0.546875q-0.265625 -0.234375 -0.625 -0.359375q-0.359375 -0.125 -0.765625 -0.125q-0.390625 0 -0.75 0.109375q-0.359375 0.109375 -0.625 0.3125q-0.265625 0.203125 -0.421875 0.5q-0.15625 0.28125 -0.15625 0.640625q0 0.34375 0.140625 0.609375q0.140625 0.265625 0.375 0.484375q0.234375 0.203125 0.5625 0.375q0.34375 0.15625 0.75 0.265625q0.265625 0.078125 0.46875 0.171875q0.21875 0.09375 0.375 0.203125q0.15625 0.125 0.234375 0.28125q0.078125 0.140625 0.078125 0.34375zm5.1757812 -1.078125l0 -0.765625l-2.34375 0l0 -1.59375l2.71875 0l0 -0.78125l-3.65625 0l0 5.6875l3.6875 0l0 -0.78125l-2.75 0l0 -1.765625l2.34375 0z" fill-rule="nonzero"/><path fill="#000000" fill-opacity="0.0" d="m153.38855 122.845146l30.83464 0l0 15.842522l-30.83464 0z" fill-rule="evenodd"/><path fill="#000000" d="m167.13467 127.80266q0.375 0 0.65625 0.109375q0.296875 0.09375 0.5 0.28125q0.203125 0.171875 0.3125 0.421875q0.109375 0.234375 0.109375 0.515625q0 0.328125 -0.078125 0.5625q-0.078125 0.234375 -0.21875 0.40625q-0.140625 0.171875 -0.34375 0.296875q-0.203125 0.109375 -0.46875 0.1875q0.453125 0.140625 0.671875 0.453125q0.21875 0.296875 0.21875 0.71875q0 0.46875 -0.1875 0.84375q-0.171875 0.359375 -0.484375 0.609375q-0.296875 0.234375 -0.703125 0.375q-0.390625 0.125 -0.828125 0.125q-0.40625 0 -0.71875 -0.078125q-0.296875 -0.09375 -0.53125 -0.28125q-0.21875 -0.1875 -0.359375 -0.46875q-0.125 -0.296875 -0.203125 -0.6875l0.4375 -0.171875q0.125 -0.0625 0.234375 -0.0625q0.09375 0 0.15625 0.046875q0.078125 0.046875 0.109375 0.125q0.0625 0.203125 0.140625 0.34375q0.09375 0.140625 0.203125 0.25q0.125 0.09375 0.265625 0.140625q0.15625 0.046875 0.359375 0.046875q0.28125 0 0.484375 -0.09375q0.21875 -0.09375 0.359375 -0.25q0.15625 -0.171875 0.234375 -0.375q0.078125 -0.203125 0.078125 -0.421875q0 -0.15625 -0.046875 -0.296875q-0.046875 -0.140625 -0.1875 -0.234375q-0.140625 -0.09375 -0.390625 -0.15625q-0.234375 -0.0625 -0.625 -0.0625l0.09375 -0.671875q0.375 0 0.625 -0.0625q0.265625 -0.078125 0.421875 -0.203125q0.171875 -0.140625 0.25 -0.328125q0.078125 -0.1875 0.078125 -0.421875q0 -0.359375 -0.21875 -0.546875q-0.203125 -0.1875 -0.546875 -0.1875q-0.375 0 -0.640625 0.203125q-0.25 0.1875 -0.390625 0.5q-0.046875 0.140625 -0.140625 0.203125q-0.09375 0.0625 -0.21875 0.0625q-0.0625 0 -0.140625 0l-0.484375 -0.09375q0.109375 -0.40625 0.3125 -0.71875q0.21875 -0.328125 0.5 -0.53125q0.28125 -0.203125 0.625 -0.3125q0.34375 -0.109375 0.71875 -0.109375zm4.5305634 0q0.359375 0 0.65625 0.109375q0.296875 0.09375 0.5 0.28125q0.21875 0.1875 0.328125 0.46875q0.109375 0.265625 0.109375 0.578125q0 0.359375 -0.109375 0.671875q-0.109375 0.296875 -0.296875 0.5625q-0.1875 0.265625 -0.453125 0.515625q-0.25 0.25 -0.53125 0.515625l-1.5 1.359375q0.1875 -0.046875 0.375 -0.078125q0.1875 -0.03125 0.359375 -0.03125l1.53125 0q0.140625 0 0.21875 0.078125q0.078125 0.078125 0.078125 0.203125q0 0 0 0.015625q0 0.015625 -0.015625 0.078125q0 0.0625 -0.015625 0.1875q-0.015625 0.109375 -0.03125 0.328125l-3.953125 0l0.03125 -0.3125q0.015625 -0.09375 0.0625 -0.203125q0.0625 -0.109375 0.15625 -0.203125l1.984375 -1.765625q0.296875 -0.25 0.5 -0.46875q0.21875 -0.234375 0.359375 -0.453125q0.140625 -0.21875 0.203125 -0.4375q0.0625 -0.21875 0.0625 -0.453125q0 -0.359375 -0.203125 -0.546875q-0.203125 -0.203125 -0.5625 -0.203125q-0.1875 0 -0.34375 0.0625q-0.15625 0.046875 -0.28125 0.140625q-0.125 0.09375 -0.234375 0.21875q-0.09375 0.125 -0.15625 0.28125q-0.0625 0.140625 -0.15625 0.203125q-0.09375 0.0625 -0.21875 0.0625q-0.0625 0 -0.125 0l-0.5 -0.09375q0.109375 -0.40625 0.3125 -0.71875q0.21875 -0.328125 0.5 -0.53125q0.28125 -0.203125 0.625 -0.3125q0.34375 -0.109375 0.734375 -0.109375z" fill-rule="nonzero"/></g></svg>