<svg version="1.1" viewBox="0.0 0.0 518.0 590.0" fill="none" stroke="none" stroke-linecap="square" stroke-miterlimit="10" xmlns:xlink="http://www.w3.org/1999/xlink" xmlns="http://www.w3.org/2000/svg"><clipPath id="p.0"><path d="m0 0l518.0 0l0 590.0l-518.0 0l0 -590.0z" clip-rule="nonzero"/></clipPath><g clip-path="url(#p.0)"><path fill="#000000" fill-opacity="0.0" d="m0 0l518.0 0l0 590.0l-518.0 0z" fill-rule="evenodd"/><path fill="#c9daf8" d="m19.238846 492.2152l420.34644 0l0 70.86615l-420.34644 0z" fill-rule="evenodd"/><path stroke="#000000" stroke-width="1.0" stroke-linejoin="round" stroke-linecap="butt" d="m19.238846 492.2152l420.34644 0l0 70.86615l-420.34644 0z" fill-rule="evenodd"/><path fill="#000000" d="m224.43552 533.5083l-1.578125 0l-1.515625 -3.265625q-0.171875 -0.375 -0.359375 -0.625q-0.171875 -0.25 -0.390625 -0.390625q-0.203125 -0.140625 -0.453125 -0.203125q-0.234375 -0.0625 -0.546875 -0.0625l-0.65625 0l0 4.546875l-1.390625 0l0 -10.21875l2.734375 0q0.890625 0 1.53125 0.203125q0.640625 0.1875 1.046875 0.546875q0.421875 0.34375 0.609375 0.84375q0.1875 0.5 0.1875 1.09375q0 0.484375 -0.140625 0.90625q-0.140625 0.421875 -0.421875 0.78125q-0.265625 0.34375 -0.6875 0.59375q-0.40625 0.25 -0.9375 0.375q0.4375 0.15625 0.734375 0.53125q0.296875 0.359375 0.609375 0.984375l1.625 3.359375zm-2.234375 -7.40625q0 -0.828125 -0.515625 -1.234375q-0.5 -0.40625 -1.4375 -0.40625l-1.3125 0l0 3.375l1.125 0q0.5 0 0.890625 -0.109375q0.390625 -0.109375 0.671875 -0.328125q0.28125 -0.234375 0.421875 -0.546875q0.15625 -0.328125 0.15625 -0.75zm11.1875 2.234375q0 1.375 -0.328125 2.375q-0.328125 1.0 -0.875 1.65625q-0.546875 0.640625 -1.296875 0.96875q-0.734375 0.3125 -1.546875 0.3125q-0.984375 0 -1.71875 -0.359375q-0.734375 -0.359375 -1.21875 -1.03125q-0.46875 -0.671875 -0.703125 -1.625q-0.234375 -0.96875 -0.234375 -2.1875q0 -1.359375 0.3125 -2.359375q0.328125 -1.0 0.875 -1.640625q0.546875 -0.65625 1.28125 -0.96875q0.734375 -0.328125 1.5625 -0.328125q0.984375 0 1.703125 0.359375q0.734375 0.359375 1.21875 1.03125q0.484375 0.671875 0.71875 1.640625q0.25 0.953125 0.25 2.15625zm-1.453125 0.09375q0 -0.890625 -0.140625 -1.640625q-0.125 -0.75 -0.4375 -1.28125q-0.296875 -0.546875 -0.78125 -0.84375q-0.484375 -0.296875 -1.15625 -0.296875q-0.65625 0 -1.140625 0.328125q-0.46875 0.3125 -0.78125 0.859375q-0.296875 0.53125 -0.453125 1.265625q-0.140625 0.734375 -0.140625 1.546875q0 0.90625 0.140625 1.65625q0.140625 0.75 0.4375 1.28125q0.3125 0.53125 0.78125 0.828125q0.484375 0.296875 1.15625 0.296875q0.65625 0 1.125 -0.3125q0.484375 -0.3125 0.78125 -0.859375q0.3125 -0.546875 0.453125 -1.265625q0.15625 -0.734375 0.15625 -1.5625zm10.296875 5.078125l-1.359375 0l-0.203125 -6.375l-0.09375 -2.4375l-0.46875 1.421875l-1.515625 4.0625l-0.953125 0l-1.4375 -3.90625l-0.484375 -1.578125l-0.03125 2.546875l-0.171875 6.265625l-1.3125 0l0.5 -10.21875l1.640625 0l1.375 3.84375l0.453125 1.296875l0.421875 -1.296875l1.453125 -3.84375l1.6875 0l0.5 10.21875z" fill-rule="nonzero"/><path fill="#f4cccc" d="m19.238846 89.60105l420.34644 0l0 64.94488l-420.34644 0z" fill-rule="evenodd"/><path stroke="#000000" stroke-width="1.0" stroke-linejoin="round" stroke-linecap="butt" d="m19.238846 89.60105l420.34644 0l0 64.94488l-420.34644 0z" fill-rule="evenodd"/><path fill="#000000" d="m206.56052 124.87099q0 0.734375 -0.28125 1.3125q-0.28125 0.5625 -0.8125 0.953125q-0.53125 0.390625 -1.28125 0.59375q-0.734375 0.203125 -1.65625 0.203125l-2.671875 0l0 -10.21875l2.921875 0q3.421875 0 3.421875 2.484375q0 0.828125 -0.40625 1.421875q-0.390625 0.59375 -1.28125 0.890625q0.421875 0.078125 0.78125 0.265625q0.375 0.1875 0.65625 0.484375q0.28125 0.296875 0.4375 0.703125q0.171875 0.40625 0.171875 0.90625zm-1.8125 -4.484375q0 -0.3125 -0.09375 -0.578125q-0.09375 -0.28125 -0.328125 -0.484375q-0.234375 -0.203125 -0.640625 -0.3125q-0.390625 -0.125 -1.0 -0.125l-1.4375 0l0 3.203125l1.390625 0q0.484375 0 0.859375 -0.09375q0.390625 -0.109375 0.671875 -0.3125q0.28125 -0.21875 0.421875 -0.53125q0.15625 -0.328125 0.15625 -0.765625zm0.34375 4.53125q0 -0.390625 -0.171875 -0.703125q-0.15625 -0.3125 -0.46875 -0.515625q-0.3125 -0.21875 -0.765625 -0.328125q-0.453125 -0.125 -1.015625 -0.125l-1.421875 0l0 3.515625l1.46875 0q1.203125 0 1.78125 -0.4375q0.59375 -0.453125 0.59375 -1.40625zm10.03125 3.015625l-5.875 0l0 -10.21875l1.40625 0l0 9.03125l4.46875 0l0 1.1875zm8.109375 3.203125l-0.578125 0q-1.515625 0 -2.25 -0.703125q-0.734375 -0.703125 -0.734375 -2.140625l0 -2.703125q0 -0.375 -0.09375 -0.671875q-0.078125 -0.3125 -0.296875 -0.515625q-0.203125 -0.203125 -0.5625 -0.3125q-0.359375 -0.109375 -0.890625 -0.109375l-0.34375 0l0 -1.09375l0.34375 0q0.5625 0 0.921875 -0.09375q0.359375 -0.09375 0.5625 -0.28125q0.203125 -0.1875 0.28125 -0.484375q0.078125 -0.296875 0.078125 -0.703125l0 -1.859375q0 -0.65625 0.15625 -1.171875q0.15625 -0.53125 0.515625 -0.90625q0.359375 -0.375 0.921875 -0.5625q0.5625 -0.203125 1.390625 -0.203125l0.578125 0l0 1.09375l-0.46875 0q-1.8125 0 -1.8125 1.75l0 1.828125q0 1.90625 -1.640625 2.140625q1.65625 0.171875 1.65625 2.140625l0 2.6875q0 1.78125 1.796875 1.78125l0.46875 0l0 1.09375zm9.890625 -8.3125q0 1.171875 -0.234375 2.140625q-0.234375 0.96875 -0.71875 1.65625q-0.46875 0.6875 -1.171875 1.078125q-0.703125 0.375 -1.65625 0.375q-0.828125 0 -1.5 -0.3125q-0.671875 -0.3125 -1.15625 -0.953125q-0.46875 -0.640625 -0.734375 -1.625q-0.25 -1.0 -0.25 -2.359375q0 -1.171875 0.234375 -2.140625q0.25 -0.96875 0.71875 -1.65625q0.46875 -0.6875 1.171875 -1.0625q0.71875 -0.390625 1.671875 -0.390625q0.8125 0 1.484375 0.3125q0.671875 0.3125 1.140625 0.953125q0.484375 0.640625 0.734375 1.640625q0.265625 0.984375 0.265625 2.34375zm-1.375 0.046875q0 -0.265625 -0.015625 -0.515625q-0.015625 -0.265625 -0.046875 -0.515625l-4.3125 3.203125q0.109375 0.40625 0.28125 0.75q0.1875 0.34375 0.4375 0.59375q0.265625 0.25 0.578125 0.390625q0.328125 0.125 0.75 0.125q0.53125 0 0.953125 -0.25q0.4375 -0.265625 0.734375 -0.765625q0.3125 -0.515625 0.46875 -1.265625q0.171875 -0.75 0.171875 -1.75zm-4.671875 -0.09375q0 0.25 0 0.5q0.015625 0.234375 0.03125 0.453125l4.328125 -3.1875q-0.125 -0.40625 -0.3125 -0.734375q-0.171875 -0.328125 -0.421875 -0.5625q-0.25 -0.234375 -0.578125 -0.359375q-0.3125 -0.140625 -0.703125 -0.140625q-0.53125 0 -0.96875 0.265625q-0.4375 0.25 -0.75 0.765625q-0.296875 0.5 -0.46875 1.265625q-0.15625 0.75 -0.15625 1.734375zm15.53125 8.359375l-8.796875 0l0 -1.125l8.796875 0l0 1.125zm7.875 -3.203125l-1.8125 0l-2.96875 -6.375l-0.859375 -2.046875l0 5.15625l0 3.265625l-1.296875 0l0 -10.21875l1.78125 0l2.84375 6.03125l1.015625 2.34375l0 -5.46875l0 -2.90625l1.296875 0l0 10.21875zm2.71875 -11.3125l0.578125 0q1.5 0 2.234375 0.703125q0.734375 0.703125 0.734375 2.140625l0 1.8125q0 0.375 0.078125 0.6875q0.09375 0.296875 0.3125 0.5q0.21875 0.203125 0.578125 0.3125q0.359375 0.109375 0.890625 0.109375l0.34375 0l0 1.09375l-0.34375 0q-0.5625 0 -0.9375 0.09375q-0.359375 0.09375 -0.5625 0.28125q-0.203125 0.1875 -0.28125 0.484375q-0.078125 0.296875 -0.078125 0.703125l0 2.75q0 0.65625 -0.15625 1.171875q-0.15625 0.53125 -0.515625 0.90625q-0.34375 0.375 -0.921875 0.5625q-0.5625 0.203125 -1.375 0.203125l-0.578125 0l0 -1.09375l0.46875 0q1.796875 0 1.796875 -1.75l0 -2.71875q0 -1.90625 1.65625 -2.140625q-1.671875 -0.171875 -1.671875 -2.140625l0 -1.796875q0 -1.78125 -1.78125 -1.78125l-0.46875 0l0 -1.09375z" fill-rule="nonzero"/><path fill="#f4cccc" d="m19.238846 18.73491l420.34644 0l0 70.86614l-420.34644 0z" fill-rule="evenodd"/><path stroke="#000000" stroke-width="1.0" stroke-linejoin="round" stroke-linecap="butt" d="m19.238846 18.73491l420.34644 0l0 70.86614l-420.34644 0z" fill-rule="evenodd"/><path fill="#000000" d="m180.41989 60.02798l-1.75 0l-3.828125 -5.015625l0 5.015625l-1.390625 0l0 -10.21875l1.390625 0l0 4.75l3.75 -4.75l1.640625 0l-4.03125 4.859375l4.21875 5.359375zm8.484375 -4.34375q0 0.296875 -0.015625 0.5q0 0.1875 -0.015625 0.359375l-5.5 0q0 1.203125 0.671875 1.84375q0.671875 0.640625 1.9375 0.640625q0.34375 0 0.6875 -0.015625q0.34375 -0.03125 0.65625 -0.078125q0.328125 -0.046875 0.609375 -0.109375q0.296875 -0.0625 0.546875 -0.125l0 1.109375q-0.546875 0.15625 -1.25 0.25q-0.703125 0.109375 -1.453125 0.109375q-1.0 0 -1.734375 -0.265625q-0.71875 -0.28125 -1.1875 -0.796875q-0.46875 -0.53125 -0.6875 -1.28125q-0.21875 -0.75 -0.21875 -1.703125q0 -0.828125 0.234375 -1.5625q0.234375 -0.75 0.6875 -1.296875q0.46875 -0.5625 1.125 -0.890625q0.671875 -0.328125 1.515625 -0.328125q0.8125 0 1.4375 0.265625q0.640625 0.25 1.078125 0.71875q0.4375 0.46875 0.65625 1.15625q0.21875 0.671875 0.21875 1.5zm-1.40625 -0.1875q0.015625 -0.53125 -0.109375 -0.953125q-0.125 -0.4375 -0.390625 -0.75q-0.25 -0.3125 -0.640625 -0.484375q-0.390625 -0.1875 -0.90625 -0.1875q-0.453125 0 -0.828125 0.171875q-0.359375 0.171875 -0.625 0.484375q-0.265625 0.3125 -0.4375 0.75q-0.15625 0.4375 -0.1875 0.96875l4.125 0zm3.90625 -3.3125l1.234375 0l0.046875 1.4375q0.6875 -0.828125 1.359375 -1.203125q0.6875 -0.375 1.375 -0.375q1.21875 0 1.84375 0.796875q0.625 0.78125 0.578125 2.328125l-1.375 0q0.03125 -1.03125 -0.296875 -1.484375q-0.328125 -0.46875 -0.953125 -0.46875q-0.265625 0 -0.546875 0.09375q-0.28125 0.09375 -0.578125 0.3125q-0.28125 0.21875 -0.609375 0.5625q-0.328125 0.328125 -0.703125 0.796875l0 5.046875l-1.375 0l0 -7.84375zm8.46875 0l1.21875 0l0.046875 1.265625q0.34375 -0.40625 0.65625 -0.671875q0.328125 -0.28125 0.640625 -0.4375q0.3125 -0.171875 0.625 -0.234375q0.328125 -0.0625 0.671875 -0.0625q1.203125 0 1.828125 0.71875q0.625 0.703125 0.625 2.140625l0 5.125l-1.359375 0l0 -5.015625q0 -0.921875 -0.34375 -1.359375q-0.34375 -0.4375 -1.03125 -0.4375q-0.25 0 -0.484375 0.078125q-0.234375 0.0625 -0.5 0.25q-0.25 0.1875 -0.5625 0.5q-0.296875 0.3125 -0.671875 0.78125l0 5.203125l-1.359375 0l0 -7.84375zm15.421875 3.5q0 0.296875 -0.015625 0.5q0 0.1875 -0.015625 0.359375l-5.5 0q0 1.203125 0.671875 1.84375q0.671875 0.640625 1.9375 0.640625q0.34375 0 0.6875 -0.015625q0.34375 -0.03125 0.65625 -0.078125q0.328125 -0.046875 0.609375 -0.109375q0.296875 -0.0625 0.546875 -0.125l0 1.109375q-0.546875 0.15625 -1.25 0.25q-0.703125 0.109375 -1.453125 0.109375q-1.0 0 -1.734375 -0.265625q-0.71875 -0.28125 -1.1875 -0.796875q-0.46875 -0.53125 -0.6875 -1.28125q-0.21875 -0.75 -0.21875 -1.703125q0 -0.828125 0.234375 -1.5625q0.234375 -0.75 0.6875 -1.296875q0.46875 -0.5625 1.125 -0.890625q0.671875 -0.328125 1.515625 -0.328125q0.8125 0 1.4375 0.265625q0.640625 0.25 1.078125 0.71875q0.4375 0.46875 0.65625 1.15625q0.21875 0.671875 0.21875 1.5zm-1.40625 -0.1875q0.015625 -0.53125 -0.109375 -0.953125q-0.125 -0.4375 -0.390625 -0.75q-0.25 -0.3125 -0.640625 -0.484375q-0.390625 -0.1875 -0.90625 -0.1875q-0.453125 0 -0.828125 0.171875q-0.359375 0.171875 -0.625 0.484375q-0.265625 0.3125 -0.4375 0.75q-0.15625 0.4375 -0.1875 0.96875l4.125 0zm6.25 -5.390625l-2.3125 0l0 -1.125l3.6875 0l0 9.90625l2.34375 0l0 1.140625l-6.296875 0l0 -1.140625l2.578125 0l0 -8.78125zm21.8125 6.25l-3.0625 0l0 3.1875l-1.34375 0l0 -3.1875l-3.078125 0l0 -1.1875l3.078125 0l0 -3.15625l1.34375 0l0 3.15625l3.0625 0l0 1.1875zm18.171875 3.671875l-1.515625 0l-0.703125 -2.234375l-4.25 0l-0.71875 2.234375l-1.453125 0l3.390625 -10.21875l1.90625 0l3.34375 10.21875zm-2.625 -3.46875l-1.71875 -5.46875l-1.734375 5.46875l3.453125 0zm10.640625 -3.625q0 0.625 -0.234375 1.25q-0.234375 0.609375 -0.734375 1.09375q-0.484375 0.484375 -1.25 0.78125q-0.765625 0.296875 -1.828125 0.296875l-1.265625 0l0 3.671875l-1.390625 0l0 -10.21875l2.875 0q0.765625 0 1.453125 0.171875q0.703125 0.171875 1.21875 0.546875q0.53125 0.375 0.84375 0.96875q0.3125 0.59375 0.3125 1.4375zm-1.4375 0.0625q0 -0.984375 -0.65625 -1.5q-0.640625 -0.53125 -1.796875 -0.53125l-1.421875 0l0 4.203125l1.296875 0q1.234375 0 1.90625 -0.53125q0.671875 -0.546875 0.671875 -1.640625zm10.2343445 -0.0625q0 0.625 -0.234375 1.25q-0.234375 0.609375 -0.734375 1.09375q-0.484375 0.484375 -1.2499695 0.78125q-0.765625 0.296875 -1.828125 0.296875l-1.265625 0l0 3.671875l-1.390625 0l0 -10.21875l2.875 0q0.765625 0 1.453125 0.171875q0.7030945 0.171875 1.2187195 0.546875q0.53125 0.375 0.84375 0.96875q0.3125 0.59375 0.3125 1.4375zm-1.4375 0.0625q0 -0.984375 -0.6562195 -1.5q-0.640625 -0.53125 -1.796875 -0.53125l-1.421875 0l0 4.203125l1.296875 0q1.234375 0 1.90625 -0.53125q0.6718445 -0.546875 0.6718445 -1.640625zm10.09375 4.265625q0 0.71875 -0.296875 1.265625q-0.296875 0.546875 -0.828125 0.921875q-0.53125 0.359375 -1.28125 0.546875q-0.75 0.171875 -1.640625 0.171875q-0.40625 0 -0.8125 -0.03125q-0.40625 -0.03125 -0.78125 -0.078125q-0.359375 -0.046875 -0.6875 -0.109375q-0.328125 -0.0625 -0.59375 -0.140625l0 -1.34375q0.578125 0.21875 1.3125 0.34375q0.734375 0.125 1.65625 0.125q0.671875 0 1.140625 -0.09375q0.484375 -0.109375 0.78125 -0.3125q0.296875 -0.21875 0.4375 -0.515625q0.140625 -0.296875 0.140625 -0.671875q0 -0.421875 -0.234375 -0.703125q-0.234375 -0.296875 -0.609375 -0.53125q-0.375 -0.234375 -0.859375 -0.421875q-0.46875 -0.1875 -0.96875 -0.390625q-0.5 -0.203125 -0.984375 -0.4375q-0.484375 -0.25 -0.859375 -0.5625q-0.375 -0.328125 -0.609375 -0.765625q-0.21875 -0.4375 -0.21875 -1.046875q0 -0.515625 0.21875 -1.015625q0.21875 -0.515625 0.671875 -0.90625q0.46875 -0.40625 1.1875 -0.640625q0.71875 -0.25 1.71875 -0.25q0.265625 0 0.5625 0.03125q0.296875 0.015625 0.609375 0.0625q0.3125 0.046875 0.609375 0.109375q0.296875 0.046875 0.5625 0.109375l0 1.25q-0.609375 -0.171875 -1.21875 -0.265625q-0.59375 -0.09375 -1.15625 -0.09375q-1.1875 0 -1.75 0.40625q-0.5625 0.390625 -0.5625 1.0625q0 0.421875 0.21875 0.71875q0.234375 0.296875 0.609375 0.53125q0.375 0.234375 0.859375 0.421875q0.484375 0.1875 0.984375 0.390625q0.5 0.203125 0.96875 0.453125q0.484375 0.234375 0.859375 0.578125q0.375 0.328125 0.609375 0.78125q0.234375 0.4375 0.234375 1.046875z" fill-rule="nonzero"/><path fill="#000000" fill-opacity="0.0" d="m456.16534 18.734903l0 0c5.731598 0 10.37796 0.7743645 10.37796 1.7295895l0 110.71405c0 0.9552307 4.6463623 1.7295837 10.37796 1.7295837l0 0c-5.731598 0 -10.37796 0.7743683 -10.37796 1.729599l0 110.71405c0 0.95521545 -4.6463623 1.7295837 -10.37796 1.7295837z" fill-rule="evenodd"/><path fill="#000000" fill-opacity="0.0" d="m456.16534 18.734903l0 0c5.731598 0 10.37796 0.7743645 10.37796 1.7295895l0 110.71405c0 0.9552307 4.6463623 1.7295837 10.37796 1.7295837l0 0c-5.731598 0 -10.37796 0.7743683 -10.37796 1.729599l0 110.71405c0 0.95521545 -4.6463623 1.7295837 -10.37796 1.7295837" fill-rule="evenodd"/><path stroke="#000000" stroke-width="1.0" stroke-linejoin="round" stroke-linecap="butt" d="m456.16534 18.734903l0 0c5.731598 0 10.37796 0.7743645 10.37796 1.7295895l0 110.71405c0 0.9552307 4.6463623 1.7295837 10.37796 1.7295837l0 0c-5.731598 0 -10.37796 0.7743683 -10.37796 1.729599l0 110.71405c0 0.95521545 -4.6463623 1.7295837 -10.37796 1.7295837" fill-rule="evenodd"/><path fill="#000000" fill-opacity="0.0" d="m511.34384 9.524743l0 206.39369l-26.771667 0l0 -206.39369z" fill-rule="evenodd"/><path fill="#000000" d="m496.01508 67.29972l0 -4.328125l-3.3125 0l0 4.109375l-1.171875 0l0 -4.109375l-4.546875 0l0 -1.421875l10.21875 0l0 5.75l-1.1875 0zm0.890625 5.359375l0 -2.3125l1.125 0l0 3.6875l-9.90625 0l0 2.34375l-1.140625 0l0 -6.296875l1.140625 0l0 2.578125l8.78125 0zm-9.921875 11.171875l1.0625 -0.03125q-0.640625 -0.640625 -0.921875 -1.3125q-0.28125 -0.65625 -0.28125 -1.375q0 -0.671875 0.171875 -1.15625q0.171875 -0.46875 0.46875 -0.78125q0.3125 -0.3125 0.71875 -0.453125q0.40625 -0.140625 0.875 -0.140625q1.1875 0 1.84375 0.875q0.671875 0.875 0.671875 2.59375l0 1.625l0.6875 0q0.703125 0 1.109375 -0.453125q0.421875 -0.4375 0.421875 -1.34375q0 -0.671875 -0.15625 -1.3125q-0.140625 -0.640625 -0.40625 -1.328125l1.21875 0q0.09375 0.25 0.1875 0.5625q0.09375 0.328125 0.15625 0.671875q0.078125 0.359375 0.109375 0.734375q0.046875 0.390625 0.046875 0.78125q0 0.703125 -0.15625 1.265625q-0.15625 0.578125 -0.484375 0.96875q-0.3125 0.40625 -0.796875 0.609375q-0.484375 0.21875 -1.140625 0.21875l-5.40625 0l0 -1.21875zm3.578125 -0.15625l0 -1.71875q0 -0.515625 -0.109375 -0.890625q-0.09375 -0.359375 -0.28125 -0.59375q-0.1875 -0.234375 -0.453125 -0.34375q-0.265625 -0.109375 -0.59375 -0.109375q-0.21875 0 -0.4375 0.0625q-0.203125 0.078125 -0.359375 0.234375q-0.15625 0.15625 -0.25 0.40625q-0.09375 0.25 -0.09375 0.609375q0 0.46875 0.28125 1.0625q0.28125 0.609375 0.90625 1.28125l1.390625 0zm-1.4375 10.125q-0.40625 0 -0.734375 -0.140625q-0.328125 -0.140625 -0.59375 -0.390625q-0.25 -0.234375 -0.4375 -0.5625q-0.171875 -0.3125 -0.296875 -0.6875q-0.109375 -0.359375 -0.15625 -0.75q-0.0625 -0.375 -0.0625 -0.734375q0 -0.796875 0.078125 -1.46875q0.0625 -0.671875 0.21875 -1.3125l1.25 0q-0.1875 0.6875 -0.296875 1.359375q-0.09375 0.6875 -0.09375 1.359375q0 0.984375 0.265625 1.453125q0.265625 0.46875 0.75 0.46875q0.21875 0 0.375 -0.078125q0.171875 -0.078125 0.328125 -0.28125q0.15625 -0.1875 0.3125 -0.59375q0.171875 -0.40625 0.375 -1.125q0.15625 -0.53125 0.359375 -0.984375q0.203125 -0.4375 0.46875 -0.765625q0.28125 -0.328125 0.640625 -0.515625q0.375 -0.1875 0.875 -0.1875q0.328125 0 0.71875 0.140625q0.390625 0.15625 0.71875 0.515625q0.34375 0.375 0.5625 1.0q0.21875 0.625 0.21875 1.5625q0 0.46875 -0.046875 1.03125q-0.046875 0.5625 -0.171875 1.171875l-1.21875 0q0.15625 -0.640625 0.234375 -1.21875q0.078125 -0.578125 0.078125 -1.0q0 -0.5 -0.078125 -0.859375q-0.078125 -0.34375 -0.21875 -0.5625q-0.140625 -0.203125 -0.328125 -0.296875q-0.171875 -0.09375 -0.390625 -0.09375q-0.203125 0 -0.375 0.078125q-0.171875 0.078125 -0.34375 0.296875q-0.15625 0.234375 -0.3125 0.625q-0.15625 0.40625 -0.34375 1.046875q-0.203125 0.6875 -0.4375 1.15625q-0.21875 0.484375 -0.5 0.78125q-0.265625 0.296875 -0.609375 0.421875q-0.34375 0.140625 -0.78125 0.140625zm-2.140625 8.890625l0 -1.359375l5.015625 0q0.90625 0 1.34375 -0.34375q0.453125 -0.34375 0.453125 -0.96875q0 -0.28125 -0.078125 -0.515625q-0.0625 -0.234375 -0.25 -0.5q-0.1875 -0.25 -0.5 -0.5625q-0.3125 -0.296875 -0.78125 -0.703125l-5.203125 0l0 -1.359375l11.046875 0l0 1.359375l-3.203125 0l-1.234375 -0.046875q0.390625 0.328125 0.640625 0.625q0.265625 0.3125 0.421875 0.625q0.171875 0.3125 0.234375 0.625q0.078125 0.328125 0.078125 0.671875q0 1.171875 -0.71875 1.8125q-0.703125 0.640625 -2.140625 0.640625l-5.125 0zm3.0625 17.96875q-0.734375 0 -1.3125 -0.28125q-0.5625 -0.28125 -0.953125 -0.8125q-0.390625 -0.53125 -0.59375 -1.28125q-0.203125 -0.734375 -0.203125 -1.65625l0 -2.671875l10.21875 0l0 2.921875q0 3.421875 -2.484375 3.421875q-0.828125 0 -1.421875 -0.40625q-0.59375 -0.390625 -0.890625 -1.28125q-0.078125 0.421875 -0.265625 0.78125q-0.1875 0.375 -0.484375 0.65625q-0.296875 0.28125 -0.703125 0.4375q-0.40625 0.171875 -0.90625 0.171875zm4.484375 -1.8125q0.3125 0 0.578125 -0.09375q0.28125 -0.09375 0.484375 -0.328125q0.203125 -0.234375 0.3125 -0.640625q0.125 -0.390625 0.125 -1.0l0 -1.4375l-3.203125 0l0 1.390625q0 0.484375 0.09375 0.859375q0.109375 0.390625 0.3125 0.671875q0.21875 0.28125 0.53125 0.421875q0.328125 0.15625 0.765625 0.15625zm-4.53125 0.34375q0.390625 0 0.703125 -0.171875q0.3125 -0.15625 0.515625 -0.46875q0.21875 -0.3125 0.328125 -0.765625q0.125 -0.453125 0.125 -1.015625l0 -1.421875l-3.515625 0l0 1.46875q0 1.203125 0.4375 1.78125q0.453125 0.59375 1.40625 0.59375zm-3.015625 8.625l1.0625 -0.03125q-0.640625 -0.640625 -0.921875 -1.3125q-0.28125 -0.65625 -0.28125 -1.375q0 -0.671875 0.171875 -1.15625q0.171875 -0.46875 0.46875 -0.78125q0.3125 -0.3125 0.71875 -0.453125q0.40625 -0.140625 0.875 -0.140625q1.1875 0 1.84375 0.875q0.671875 0.875 0.671875 2.59375l0 1.625l0.6875 0q0.703125 0 1.109375 -0.453125q0.421875 -0.4375 0.421875 -1.34375q0 -0.671875 -0.15625 -1.3125q-0.140625 -0.640625 -0.40625 -1.328125l1.21875 0q0.09375 0.25 0.1875 0.5625q0.09375 0.328125 0.15625 0.671875q0.078125 0.359375 0.109375 0.734375q0.046875 0.390625 0.046875 0.78125q0 0.703125 -0.15625 1.265625q-0.15625 0.578125 -0.484375 0.9687576q-0.3125 0.40625 -0.796875 0.609375q-0.484375 0.21875 -1.140625 0.21875l-5.40625 0l0 -1.2187576zm3.578125 -0.15625l0 -1.71875q0 -0.515625 -0.109375 -0.890625q-0.09375 -0.359375 -0.28125 -0.59375q-0.1875 -0.234375 -0.453125 -0.34375q-0.265625 -0.109375 -0.59375 -0.109375q-0.21875 0 -0.4375 0.0625q-0.203125 0.078125 -0.359375 0.234375q-0.15625 0.15625 -0.25 0.40625q-0.09375 0.25 -0.09375 0.609375q0 0.46875 0.28125 1.0625q0.28125 0.609375 0.90625 1.28125l1.390625 0zm4.265625 3.9062576l0 1.21875l-1.265625 0.046875q0.40625 0.34375 0.671875 0.65625q0.28125 0.328125 0.4375 0.640625q0.171875 0.3125 0.234375 0.625q0.0625 0.328125 0.0625 0.671875q0 1.203125 -0.71875 1.828125q-0.703125 0.625 -2.140625 0.625l-5.125 0l0 -1.359375l5.015625 0q0.921875 0 1.359375 -0.34375q0.4375 -0.34375 0.4375 -1.03125q0 -0.25 -0.078125 -0.484375q-0.0625 -0.234375 -0.25 -0.5q-0.1875 -0.25 -0.5 -0.5625q-0.3125 -0.296875 -0.78125 -0.671875l-5.203125 0l0 -1.359375l7.84375 0zm-7.84375 15.859375l0 -1.875l4.203125 -3.65625l-4.203125 0l0 -1.359375l11.046875 0l0 1.359375l-6.78125 0l3.578125 3.53125l0 1.796875l-3.609375 -3.6875l-4.234375 3.890625zm0 17.078125l0 -6.421875l1.265625 0l0 2.625l7.453125 0l-1.328125 -2.4375l1.15625 -0.5l1.71875 3.25l0 1.203125l-9.0 0l0 2.28125l-1.265625 0z" fill-rule="nonzero"/><path fill="#f4cccc" d="m19.238846 154.54593l420.34644 0l0 64.944885l-420.34644 0z" fill-rule="evenodd"/><path stroke="#000000" stroke-width="1.0" stroke-linejoin="round" stroke-linecap="butt" d="m19.238846 154.54593l420.34644 0l0 64.944885l-420.34644 0z" fill-rule="evenodd"/><path fill="#000000" d="m206.84177 192.87837l-1.578125 0l-1.515625 -3.265625q-0.171875 -0.375 -0.359375 -0.625q-0.171875 -0.25 -0.390625 -0.390625q-0.203125 -0.140625 -0.453125 -0.203125q-0.234375 -0.0625 -0.546875 -0.0625l-0.65625 0l0 4.546875l-1.390625 0l0 -10.21875l2.734375 0q0.890625 0 1.53125 0.203125q0.640625 0.1875 1.046875 0.546875q0.421875 0.34375 0.609375 0.84375q0.1875 0.5 0.1875 1.09375q0 0.484375 -0.140625 0.90625q-0.140625 0.421875 -0.421875 0.78125q-0.265625 0.34375 -0.6875 0.59375q-0.40625 0.25 -0.9375 0.375q0.4375 0.15625 0.734375 0.53125q0.296875 0.359375 0.609375 0.984375l1.625 3.359375zm-2.234375 -7.40625q0 -0.828125 -0.515625 -1.234375q-0.5 -0.40625 -1.4375 -0.40625l-1.3125 0l0 3.375l1.125 0q0.5 0 0.890625 -0.109375q0.390625 -0.109375 0.671875 -0.328125q0.28125 -0.234375 0.421875 -0.546875q0.15625 -0.328125 0.15625 -0.75zm11.1875 2.234375q0 1.375 -0.328125 2.375q-0.328125 1.0 -0.875 1.65625q-0.546875 0.640625 -1.296875 0.96875q-0.734375 0.3125 -1.546875 0.3125q-0.984375 0 -1.71875 -0.359375q-0.734375 -0.359375 -1.21875 -1.03125q-0.46875 -0.671875 -0.703125 -1.625q-0.234375 -0.96875 -0.234375 -2.1875q0 -1.359375 0.3125 -2.359375q0.328125 -1.0 0.875 -1.640625q0.546875 -0.65625 1.28125 -0.96875q0.734375 -0.328125 1.5625 -0.328125q0.984375 0 1.703125 0.359375q0.734375 0.359375 1.21875 1.03125q0.484375 0.671875 0.71875 1.640625q0.25 0.953125 0.25 2.15625zm-1.453125 0.09375q0 -0.890625 -0.140625 -1.640625q-0.125 -0.75 -0.4375 -1.28125q-0.296875 -0.546875 -0.78125 -0.84375q-0.484375 -0.296875 -1.15625 -0.296875q-0.65625 0 -1.140625 0.328125q-0.46875 0.3125 -0.78125 0.859375q-0.296875 0.53125 -0.453125 1.265625q-0.140625 0.734375 -0.140625 1.546875q0 0.90625 0.140625 1.65625q0.140625 0.75 0.4375 1.28125q0.3125 0.53125 0.78125 0.828125q0.484375 0.296875 1.15625 0.296875q0.65625 0 1.125 -0.3125q0.484375 -0.3125 0.78125 -0.859375q0.3125 -0.546875 0.453125 -1.265625q0.15625 -0.734375 0.15625 -1.5625zm10.296875 5.078125l-1.359375 0l-0.203125 -6.375l-0.09375 -2.4375l-0.46875 1.421875l-1.515625 4.0625l-0.953125 0l-1.4375 -3.90625l-0.484375 -1.578125l-0.03125 2.546875l-0.171875 6.265625l-1.3125 0l0.5 -10.21875l1.640625 0l1.375 3.84375l0.453125 1.296875l0.421875 -1.296875l1.453125 -3.84375l1.6875 0l0.5 10.21875zm9.171875 3.203125l-8.796875 0l0 -1.125l8.796875 0l0 1.125zm7.875 -7.546875q0 0.296875 -0.015625 0.5q0 0.1875 -0.015625 0.359375l-5.5 0q0 1.203125 0.671875 1.84375q0.671875 0.640625 1.9375 0.640625q0.34375 0 0.6875 -0.015625q0.34375 -0.03125 0.65625 -0.078125q0.328125 -0.046875 0.609375 -0.109375q0.296875 -0.0625 0.546875 -0.125l0 1.109375q-0.546875 0.15625 -1.25 0.25q-0.703125 0.109375 -1.453125 0.109375q-1.0 0 -1.734375 -0.265625q-0.71875 -0.28125 -1.1875 -0.796875q-0.46875 -0.53125 -0.6875 -1.28125q-0.21875 -0.75 -0.21875 -1.703125q0 -0.828125 0.234375 -1.5625q0.234375 -0.75 0.6875 -1.296875q0.46875 -0.5625 1.125 -0.890625q0.671875 -0.328125 1.515625 -0.328125q0.8125 0 1.4375 0.265625q0.640625 0.25 1.078125 0.71875q0.4375 0.46875 0.65625 1.15625q0.21875 0.671875 0.21875 1.5zm-1.40625 -0.1875q0.015625 -0.53125 -0.109375 -0.953125q-0.125 -0.4375 -0.390625 -0.75q-0.25 -0.3125 -0.640625 -0.484375q-0.390625 -0.1875 -0.90625 -0.1875q-0.453125 0 -0.828125 0.171875q-0.359375 0.171875 -0.625 0.484375q-0.265625 0.3125 -0.4375 0.75q-0.15625 0.4375 -0.1875 0.96875l4.125 0zm10.65625 4.53125l-1.8125 0l-2.109375 -3.0l-2.09375 3.0l-1.765625 0l3.046875 -3.9375l-2.90625 -3.90625l1.75 0l2.0625 3.015625l2.015625 -3.015625l1.6875 0l-2.953125 3.9375l3.078125 3.90625zm8.046875 -0.109375q-0.46875 0.125 -0.96875 0.171875q-0.484375 0.046875 -0.984375 0.046875q-1.484375 0 -2.21875 -0.671875q-0.71875 -0.671875 -0.71875 -2.046875l0 -4.09375l-2.1875 0l0 -1.140625l2.1875 0l0 -2.15625l1.359375 -0.359375l0 2.515625l3.53125 0l0 1.140625l-3.53125 0l0 3.984375q0 0.84375 0.453125 1.265625q0.453125 0.40625 1.328125 0.40625q0.375 0 0.8125 -0.046875q0.453125 -0.0625 0.9375 -0.1875l0 1.171875z" fill-rule="nonzero"/><path fill="#f4cccc" d="m19.238846 326.34122l420.34644 0l0 64.944885l-420.34644 0z" fill-rule="evenodd"/><path stroke="#000000" stroke-width="1.0" stroke-linejoin="round" stroke-linecap="butt" d="m19.238846 326.34122l420.34644 0l0 64.944885l-420.34644 0z" fill-rule="evenodd"/><path fill="#000000" d="m206.56052 361.61115q0 0.734375 -0.28125 1.3125q-0.28125 0.5625 -0.8125 0.953125q-0.53125 0.390625 -1.28125 0.59375q-0.734375 0.203125 -1.65625 0.203125l-2.671875 0l0 -10.21875l2.921875 0q3.421875 0 3.421875 2.484375q0 0.828125 -0.40625 1.421875q-0.390625 0.59375 -1.28125 0.890625q0.421875 0.078125 0.78125 0.265625q0.375 0.1875 0.65625 0.484375q0.28125 0.296875 0.4375 0.703125q0.171875 0.40625 0.171875 0.90625zm-1.8125 -4.484375q0 -0.3125 -0.09375 -0.578125q-0.09375 -0.28125 -0.328125 -0.484375q-0.234375 -0.203125 -0.640625 -0.3125q-0.390625 -0.125 -1.0 -0.125l-1.4375 0l0 3.203125l1.390625 0q0.484375 0 0.859375 -0.09375q0.390625 -0.109375 0.671875 -0.3125q0.28125 -0.21875 0.421875 -0.53125q0.15625 -0.328125 0.15625 -0.765625zm0.34375 4.53125q0 -0.390625 -0.171875 -0.703125q-0.15625 -0.3125 -0.46875 -0.515625q-0.3125 -0.21875 -0.765625 -0.328125q-0.453125 -0.125 -1.015625 -0.125l-1.421875 0l0 3.515625l1.46875 0q1.203125 0 1.78125 -0.4375q0.59375 -0.453125 0.59375 -1.40625zm10.03125 3.015625l-5.875 0l0 -10.21875l1.40625 0l0 9.03125l4.46875 0l0 1.1875zm8.109375 3.203125l-0.578125 0q-1.515625 0 -2.25 -0.703125q-0.734375 -0.703125 -0.734375 -2.140625l0 -2.703125q0 -0.375 -0.09375 -0.671875q-0.078125 -0.3125 -0.296875 -0.515625q-0.203125 -0.203125 -0.5625 -0.3125q-0.359375 -0.109375 -0.890625 -0.109375l-0.34375 0l0 -1.09375l0.34375 0q0.5625 0 0.921875 -0.09375q0.359375 -0.09375 0.5625 -0.28125q0.203125 -0.1875 0.28125 -0.484375q0.078125 -0.296875 0.078125 -0.703125l0 -1.859375q0 -0.65625 0.15625 -1.171875q0.15625 -0.53125 0.515625 -0.90625q0.359375 -0.375 0.921875 -0.5625q0.5625 -0.203125 1.390625 -0.203125l0.578125 0l0 1.09375l-0.46875 0q-1.8125 0 -1.8125 1.75l0 1.828125q0 1.90625 -1.640625 2.140625q1.65625 0.171875 1.65625 2.140625l0 2.6875q0 1.78125 1.796875 1.78125l0.46875 0l0 1.09375zm9.890625 -8.3125q0 1.171875 -0.234375 2.140625q-0.234375 0.96875 -0.71875 1.65625q-0.46875 0.6875 -1.171875 1.078125q-0.703125 0.375 -1.65625 0.375q-0.828125 0 -1.5 -0.3125q-0.671875 -0.3125 -1.15625 -0.953125q-0.46875 -0.640625 -0.734375 -1.625q-0.25 -1.0 -0.25 -2.359375q0 -1.171875 0.234375 -2.140625q0.25 -0.96875 0.71875 -1.65625q0.46875 -0.6875 1.171875 -1.0625q0.71875 -0.390625 1.671875 -0.390625q0.8125 0 1.484375 0.3125q0.671875 0.3125 1.140625 0.953125q0.484375 0.640625 0.734375 1.640625q0.265625 0.984375 0.265625 2.34375zm-1.375 0.046875q0 -0.265625 -0.015625 -0.515625q-0.015625 -0.265625 -0.046875 -0.515625l-4.3125 3.203125q0.109375 0.40625 0.28125 0.75q0.1875 0.34375 0.4375 0.59375q0.265625 0.25 0.578125 0.390625q0.328125 0.125 0.75 0.125q0.53125 0 0.953125 -0.25q0.4375 -0.265625 0.734375 -0.765625q0.3125 -0.515625 0.46875 -1.265625q0.171875 -0.75 0.171875 -1.75zm-4.671875 -0.09375q0 0.25 0 0.5q0.015625 0.234375 0.03125 0.453125l4.328125 -3.1875q-0.125 -0.40625 -0.3125 -0.734375q-0.171875 -0.328125 -0.421875 -0.5625q-0.25 -0.234375 -0.578125 -0.359375q-0.3125 -0.140625 -0.703125 -0.140625q-0.53125 0 -0.96875 0.265625q-0.4375 0.25 -0.75 0.765625q-0.296875 0.5 -0.46875 1.265625q-0.15625 0.75 -0.15625 1.734375zm15.53125 8.359375l-8.796875 0l0 -1.125l8.796875 0l0 1.125zm7.875 -3.203125l-1.8125 0l-2.96875 -6.375l-0.859375 -2.046875l0 5.15625l0 3.265625l-1.296875 0l0 -10.21875l1.78125 0l2.84375 6.03125l1.015625 2.34375l0 -5.46875l0 -2.90625l1.296875 0l0 10.21875zm2.71875 -11.3125l0.578125 0q1.5 0 2.234375 0.703125q0.734375 0.703125 0.734375 2.140625l0 1.8125q0 0.375 0.078125 0.6875q0.09375 0.296875 0.3125 0.5q0.21875 0.203125 0.578125 0.3125q0.359375 0.109375 0.890625 0.109375l0.34375 0l0 1.09375l-0.34375 0q-0.5625 0 -0.9375 0.09375q-0.359375 0.09375 -0.5625 0.28125q-0.203125 0.1875 -0.28125 0.484375q-0.078125 0.296875 -0.078125 0.703125l0 2.75q0 0.65625 -0.15625 1.171875q-0.15625 0.53125 -0.515625 0.90625q-0.34375 0.375 -0.921875 0.5625q-0.5625 0.203125 -1.375 0.203125l-0.578125 0l0 -1.09375l0.46875 0q1.796875 0 1.796875 -1.75l0 -2.71875q0 -1.90625 1.65625 -2.140625q-1.671875 -0.171875 -1.671875 -2.140625l0 -1.796875q0 -1.78125 -1.78125 -1.78125l-0.46875 0l0 -1.09375z" fill-rule="nonzero"/><path fill="#f4cccc" d="m19.238846 255.47507l420.34644 0l0 70.86615l-420.34644 0z" fill-rule="evenodd"/><path stroke="#000000" stroke-width="1.0" stroke-linejoin="round" stroke-linecap="butt" d="m19.238846 255.47507l420.34644 0l0 70.86615l-420.34644 0z" fill-rule="evenodd"/><path fill="#000000" d="m180.41989 296.76813l-1.75 0l-3.828125 -5.015625l0 5.015625l-1.390625 0l0 -10.21875l1.390625 0l0 4.75l3.75 -4.75l1.640625 0l-4.03125 4.859375l4.21875 5.359375zm8.484375 -4.34375q0 0.296875 -0.015625 0.5q0 0.1875 -0.015625 0.359375l-5.5 0q0 1.203125 0.671875 1.84375q0.671875 0.640625 1.9375 0.640625q0.34375 0 0.6875 -0.015625q0.34375 -0.03125 0.65625 -0.078125q0.328125 -0.046875 0.609375 -0.109375q0.296875 -0.0625 0.546875 -0.125l0 1.109375q-0.546875 0.15625 -1.25 0.25q-0.703125 0.109375 -1.453125 0.109375q-1.0 0 -1.734375 -0.265625q-0.71875 -0.28125 -1.1875 -0.796875q-0.46875 -0.53125 -0.6875 -1.28125q-0.21875 -0.75 -0.21875 -1.703125q0 -0.828125 0.234375 -1.5625q0.234375 -0.75 0.6875 -1.296875q0.46875 -0.5625 1.125 -0.890625q0.671875 -0.328125 1.515625 -0.328125q0.8125 0 1.4375 0.265625q0.640625 0.25 1.078125 0.71875q0.4375 0.46875 0.65625 1.15625q0.21875 0.671875 0.21875 1.5zm-1.40625 -0.1875q0.015625 -0.53125 -0.109375 -0.953125q-0.125 -0.4375 -0.390625 -0.75q-0.25 -0.3125 -0.640625 -0.484375q-0.390625 -0.1875 -0.90625 -0.1875q-0.453125 0 -0.828125 0.171875q-0.359375 0.171875 -0.625 0.484375q-0.265625 0.3125 -0.4375 0.75q-0.15625 0.4375 -0.1875 0.96875l4.125 0zm3.90625 -3.3125l1.234375 0l0.046875 1.4375q0.6875 -0.828125 1.359375 -1.203125q0.6875 -0.375 1.375 -0.375q1.21875 0 1.84375 0.796875q0.625 0.78125 0.578125 2.328125l-1.375 0q0.03125 -1.03125 -0.296875 -1.484375q-0.328125 -0.46875 -0.953125 -0.46875q-0.265625 0 -0.546875 0.09375q-0.28125 0.09375 -0.578125 0.3125q-0.28125 0.21875 -0.609375 0.5625q-0.328125 0.328125 -0.703125 0.796875l0 5.046875l-1.375 0l0 -7.84375zm8.46875 0l1.21875 0l0.046875 1.265625q0.34375 -0.40625 0.65625 -0.671875q0.328125 -0.28125 0.640625 -0.4375q0.3125 -0.171875 0.625 -0.234375q0.328125 -0.0625 0.671875 -0.0625q1.203125 0 1.828125 0.71875q0.625 0.703125 0.625 2.140625l0 5.125l-1.359375 0l0 -5.015625q0 -0.921875 -0.34375 -1.359375q-0.34375 -0.4375 -1.03125 -0.4375q-0.25 0 -0.484375 0.078125q-0.234375 0.0625 -0.5 0.25q-0.25 0.1875 -0.5625 0.5q-0.296875 0.3125 -0.671875 0.78125l0 5.203125l-1.359375 0l0 -7.84375zm15.421875 3.5q0 0.296875 -0.015625 0.5q0 0.1875 -0.015625 0.359375l-5.5 0q0 1.203125 0.671875 1.84375q0.671875 0.640625 1.9375 0.640625q0.34375 0 0.6875 -0.015625q0.34375 -0.03125 0.65625 -0.078125q0.328125 -0.046875 0.609375 -0.109375q0.296875 -0.0625 0.546875 -0.125l0 1.109375q-0.546875 0.15625 -1.25 0.25q-0.703125 0.109375 -1.453125 0.109375q-1.0 0 -1.734375 -0.265625q-0.71875 -0.28125 -1.1875 -0.796875q-0.46875 -0.53125 -0.6875 -1.28125q-0.21875 -0.75 -0.21875 -1.703125q0 -0.828125 0.234375 -1.5625q0.234375 -0.75 0.6875 -1.296875q0.46875 -0.5625 1.125 -0.890625q0.671875 -0.328125 1.515625 -0.328125q0.8125 0 1.4375 0.265625q0.640625 0.25 1.078125 0.71875q0.4375 0.46875 0.65625 1.15625q0.21875 0.671875 0.21875 1.5zm-1.40625 -0.1875q0.015625 -0.53125 -0.109375 -0.953125q-0.125 -0.4375 -0.390625 -0.75q-0.25 -0.3125 -0.640625 -0.484375q-0.390625 -0.1875 -0.90625 -0.1875q-0.453125 0 -0.828125 0.171875q-0.359375 0.171875 -0.625 0.484375q-0.265625 0.3125 -0.4375 0.75q-0.15625 0.4375 -0.1875 0.96875l4.125 0zm6.25 -5.390625l-2.3125 0l0 -1.125l3.6875 0l0 9.90625l2.34375 0l0 1.140625l-6.296875 0l0 -1.140625l2.578125 0l0 -8.78125zm21.8125 6.25l-3.0625 0l0 3.1875l-1.34375 0l0 -3.1875l-3.078125 0l0 -1.1875l3.078125 0l0 -3.15625l1.34375 0l0 3.15625l3.0625 0l0 1.1875zm18.171875 3.671875l-1.515625 0l-0.703125 -2.234375l-4.25 0l-0.71875 2.234375l-1.453125 0l3.390625 -10.21875l1.90625 0l3.34375 10.21875zm-2.625 -3.46875l-1.71875 -5.46875l-1.734375 5.46875l3.453125 0zm10.640625 -3.625q0 0.625 -0.234375 1.25q-0.234375 0.609375 -0.734375 1.09375q-0.484375 0.484375 -1.25 0.78125q-0.765625 0.296875 -1.828125 0.296875l-1.265625 0l0 3.671875l-1.390625 0l0 -10.21875l2.875 0q0.765625 0 1.453125 0.171875q0.703125 0.171875 1.21875 0.546875q0.53125 0.375 0.84375 0.96875q0.3125 0.59375 0.3125 1.4375zm-1.4375 0.0625q0 -0.984375 -0.65625 -1.5q-0.640625 -0.53125 -1.796875 -0.53125l-1.421875 0l0 4.203125l1.296875 0q1.234375 0 1.90625 -0.53125q0.671875 -0.546875 0.671875 -1.640625zm10.2343445 -0.0625q0 0.625 -0.234375 1.25q-0.234375 0.609375 -0.734375 1.09375q-0.484375 0.484375 -1.2499695 0.78125q-0.765625 0.296875 -1.828125 0.296875l-1.265625 0l0 3.671875l-1.390625 0l0 -10.21875l2.875 0q0.765625 0 1.453125 0.171875q0.7030945 0.171875 1.2187195 0.546875q0.53125 0.375 0.84375 0.96875q0.3125 0.59375 0.3125 1.4375zm-1.4375 0.0625q0 -0.984375 -0.6562195 -1.5q-0.640625 -0.53125 -1.796875 -0.53125l-1.421875 0l0 4.203125l1.296875 0q1.234375 0 1.90625 -0.53125q0.6718445 -0.546875 0.6718445 -1.640625zm10.09375 4.265625q0 0.71875 -0.296875 1.265625q-0.296875 0.546875 -0.828125 0.921875q-0.53125 0.359375 -1.28125 0.546875q-0.75 0.171875 -1.640625 0.171875q-0.40625 0 -0.8125 -0.03125q-0.40625 -0.03125 -0.78125 -0.078125q-0.359375 -0.046875 -0.6875 -0.109375q-0.328125 -0.0625 -0.59375 -0.140625l0 -1.34375q0.578125 0.21875 1.3125 0.34375q0.734375 0.125 1.65625 0.125q0.671875 0 1.140625 -0.09375q0.484375 -0.109375 0.78125 -0.3125q0.296875 -0.21875 0.4375 -0.515625q0.140625 -0.296875 0.140625 -0.671875q0 -0.421875 -0.234375 -0.703125q-0.234375 -0.296875 -0.609375 -0.53125q-0.375 -0.234375 -0.859375 -0.421875q-0.46875 -0.1875 -0.96875 -0.390625q-0.5 -0.203125 -0.984375 -0.4375q-0.484375 -0.25 -0.859375 -0.5625q-0.375 -0.328125 -0.609375 -0.765625q-0.21875 -0.4375 -0.21875 -1.046875q0 -0.515625 0.21875 -1.015625q0.21875 -0.515625 0.671875 -0.90625q0.46875 -0.40625 1.1875 -0.640625q0.71875 -0.25 1.71875 -0.25q0.265625 0 0.5625 0.03125q0.296875 0.015625 0.609375 0.0625q0.3125 0.046875 0.609375 0.109375q0.296875 0.046875 0.5625 0.109375l0 1.25q-0.609375 -0.171875 -1.21875 -0.265625q-0.59375 -0.09375 -1.15625 -0.09375q-1.1875 0 -1.75 0.40625q-0.5625 0.390625 -0.5625 1.0625q0 0.421875 0.21875 0.71875q0.234375 0.296875 0.609375 0.53125q0.375 0.234375 0.859375 0.421875q0.484375 0.1875 0.984375 0.390625q0.5 0.203125 0.96875 0.453125q0.484375 0.234375 0.859375 0.578125q0.375 0.328125 0.609375 0.78125q0.234375 0.4375 0.234375 1.046875z" fill-rule="nonzero"/><path fill="#000000" fill-opacity="0.0" d="m456.16534 255.47507l0 0c5.731598 0 10.37796 0.774353 10.37796 1.7295837l0 110.71405c0 0.9552307 4.6463623 1.7295837 10.37796 1.7295837l0 0c-5.731598 0 -10.37796 0.774353 -10.37796 1.7295837l0 110.71405c0 0.9552307 -4.6463623 1.7295837 -10.37796 1.7295837z" fill-rule="evenodd"/><path fill="#000000" fill-opacity="0.0" d="m456.16534 255.47507l0 0c5.731598 0 10.37796 0.774353 10.37796 1.7295837l0 110.71405c0 0.9552307 4.6463623 1.7295837 10.37796 1.7295837l0 0c-5.731598 0 -10.37796 0.774353 -10.37796 1.7295837l0 110.71405c0 0.9552307 -4.6463623 1.7295837 -10.37796 1.7295837" fill-rule="evenodd"/><path stroke="#000000" stroke-width="1.0" stroke-linejoin="round" stroke-linecap="butt" d="m456.16534 255.47507l0 0c5.731598 0 10.37796 0.774353 10.37796 1.7295837l0 110.71405c0 0.9552307 4.6463623 1.7295837 10.37796 1.7295837l0 0c-5.731598 0 -10.37796 0.774353 -10.37796 1.7295837l0 110.71405c0 0.9552307 -4.6463623 1.7295837 -10.37796 1.7295837" fill-rule="evenodd"/><path fill="#000000" fill-opacity="0.0" d="m511.34384 255.61661l0 206.3937l-26.771667 0l0 -206.3937z" fill-rule="evenodd"/><path fill="#000000" d="m496.01508 313.39157l0 -4.328125l-3.3125 0l0 4.109375l-1.171875 0l0 -4.109375l-4.546875 0l0 -1.421875l10.21875 0l0 5.75l-1.1875 0zm0.890625 5.359375l0 -2.3125l1.125 0l0 3.6875l-9.90625 0l0 2.34375l-1.140625 0l0 -6.296875l1.140625 0l0 2.578125l8.78125 0zm-9.921875 11.171875l1.0625 -0.03125q-0.640625 -0.640625 -0.921875 -1.3125q-0.28125 -0.65625 -0.28125 -1.375q0 -0.671875 0.171875 -1.15625q0.171875 -0.46875 0.46875 -0.78125q0.3125 -0.3125 0.71875 -0.453125q0.40625 -0.140625 0.875 -0.140625q1.1875 0 1.84375 0.875q0.671875 0.875 0.671875 2.59375l0 1.625l0.6875 0q0.703125 0 1.109375 -0.453125q0.421875 -0.4375 0.421875 -1.34375q0 -0.671875 -0.15625 -1.3125q-0.140625 -0.640625 -0.40625 -1.328125l1.21875 0q0.09375 0.25 0.1875 0.5625q0.09375 0.328125 0.15625 0.671875q0.078125 0.359375 0.109375 0.734375q0.046875 0.390625 0.046875 0.78125q0 0.703125 -0.15625 1.265625q-0.15625 0.578125 -0.484375 0.96875q-0.3125 0.40625 -0.796875 0.609375q-0.484375 0.21875 -1.140625 0.21875l-5.40625 0l0 -1.21875zm3.578125 -0.15625l0 -1.71875q0 -0.515625 -0.109375 -0.890625q-0.09375 -0.359375 -0.28125 -0.59375q-0.1875 -0.234375 -0.453125 -0.34375q-0.265625 -0.109375 -0.59375 -0.109375q-0.21875 0 -0.4375 0.0625q-0.203125 0.078125 -0.359375 0.234375q-0.15625 0.15625 -0.25 0.40625q-0.09375 0.25 -0.09375 0.609375q0 0.46875 0.28125 1.0625q0.28125 0.609375 0.90625 1.28125l1.390625 0zm-1.4375 10.125q-0.40625 0 -0.734375 -0.140625q-0.328125 -0.140625 -0.59375 -0.390625q-0.25 -0.234375 -0.4375 -0.5625q-0.171875 -0.3125 -0.296875 -0.6875q-0.109375 -0.359375 -0.15625 -0.75q-0.0625 -0.375 -0.0625 -0.734375q0 -0.796875 0.078125 -1.46875q0.0625 -0.671875 0.21875 -1.3125l1.25 0q-0.1875 0.6875 -0.296875 1.359375q-0.09375 0.6875 -0.09375 1.359375q0 0.984375 0.265625 1.453125q0.265625 0.46875 0.75 0.46875q0.21875 0 0.375 -0.078125q0.171875 -0.078125 0.328125 -0.28125q0.15625 -0.1875 0.3125 -0.59375q0.171875 -0.40625 0.375 -1.125q0.15625 -0.53125 0.359375 -0.984375q0.203125 -0.4375 0.46875 -0.765625q0.28125 -0.328125 0.640625 -0.515625q0.375 -0.1875 0.875 -0.1875q0.328125 0 0.71875 0.140625q0.390625 0.15625 0.71875 0.515625q0.34375 0.375 0.5625 1.0q0.21875 0.625 0.21875 1.5625q0 0.46875 -0.046875 1.03125q-0.046875 0.5625 -0.171875 1.171875l-1.21875 0q0.15625 -0.640625 0.234375 -1.21875q0.078125 -0.578125 0.078125 -1.0q0 -0.5 -0.078125 -0.859375q-0.078125 -0.34375 -0.21875 -0.5625q-0.140625 -0.203125 -0.328125 -0.296875q-0.171875 -0.09375 -0.390625 -0.09375q-0.203125 0 -0.375 0.078125q-0.171875 0.078125 -0.34375 0.296875q-0.15625 0.234375 -0.3125 0.625q-0.15625 0.40625 -0.34375 1.046875q-0.203125 0.6875 -0.4375 1.15625q-0.21875 0.484375 -0.5 0.78125q-0.265625 0.296875 -0.609375 0.421875q-0.34375 0.140625 -0.78125 0.140625zm-2.140625 8.890625l0 -1.359375l5.015625 0q0.90625 0 1.34375 -0.34375q0.453125 -0.34375 0.453125 -0.96875q0 -0.28125 -0.078125 -0.515625q-0.0625 -0.234375 -0.25 -0.5q-0.1875 -0.25 -0.5 -0.5625q-0.3125 -0.296875 -0.78125 -0.703125l-5.203125 0l0 -1.359375l11.046875 0l0 1.359375l-3.203125 0l-1.234375 -0.046875q0.390625 0.328125 0.640625 0.625q0.265625 0.3125 0.421875 0.625q0.171875 0.3125 0.234375 0.625q0.078125 0.328125 0.078125 0.671875q0 1.171875 -0.71875 1.8125q-0.703125 0.640625 -2.140625 0.640625l-5.125 0zm3.0625 17.96875q-0.734375 0 -1.3125 -0.28125q-0.5625 -0.28125 -0.953125 -0.8125q-0.390625 -0.53125 -0.59375 -1.28125q-0.203125 -0.734375 -0.203125 -1.65625l0 -2.671875l10.21875 0l0 2.921875q0 3.421875 -2.484375 3.421875q-0.828125 0 -1.421875 -0.40625q-0.59375 -0.390625 -0.890625 -1.28125q-0.078125 0.421875 -0.265625 0.78125q-0.1875 0.375 -0.484375 0.65625q-0.296875 0.28125 -0.703125 0.4375q-0.40625 0.171875 -0.90625 0.171875zm4.484375 -1.8125q0.3125 0 0.578125 -0.09375q0.28125 -0.09375 0.484375 -0.328125q0.203125 -0.234375 0.3125 -0.640625q0.125 -0.390625 0.125 -1.0l0 -1.4375l-3.203125 0l0 1.390625q0 0.484375 0.09375 0.859375q0.109375 0.390625 0.3125 0.671875q0.21875 0.28125 0.53125 0.421875q0.328125 0.15625 0.765625 0.15625zm-4.53125 0.34375q0.390625 0 0.703125 -0.171875q0.3125 -0.15625 0.515625 -0.46875q0.21875 -0.3125 0.328125 -0.765625q0.125 -0.453125 0.125 -1.015625l0 -1.421875l-3.515625 0l0 1.46875q0 1.203125 0.4375 1.78125q0.453125 0.59375 1.40625 0.59375zm-3.015625 8.625l1.0625 -0.03125q-0.640625 -0.640625 -0.921875 -1.3125q-0.28125 -0.65625 -0.28125 -1.375q0 -0.671875 0.171875 -1.15625q0.171875 -0.46875 0.46875 -0.78125q0.3125 -0.3125 0.71875 -0.453125q0.40625 -0.140625 0.875 -0.140625q1.1875 0 1.84375 0.875q0.671875 0.875 0.671875 2.59375l0 1.625l0.6875 0q0.703125 0 1.109375 -0.453125q0.421875 -0.4375 0.421875 -1.34375q0 -0.671875 -0.15625 -1.3125q-0.140625 -0.640625 -0.40625 -1.328125l1.21875 0q0.09375 0.25 0.1875 0.5625q0.09375 0.328125 0.15625 0.671875q0.078125 0.359375 0.109375 0.734375q0.046875 0.390625 0.046875 0.78125q0 0.703125 -0.15625 1.265625q-0.15625 0.578125 -0.484375 0.96875q-0.3125 0.40625 -0.796875 0.609375q-0.484375 0.21875 -1.140625 0.21875l-5.40625 0l0 -1.21875zm3.578125 -0.15625l0 -1.71875q0 -0.515625 -0.109375 -0.890625q-0.09375 -0.359375 -0.28125 -0.59375q-0.1875 -0.234375 -0.453125 -0.34375q-0.265625 -0.109375 -0.59375 -0.109375q-0.21875 0 -0.4375 0.0625q-0.203125 0.078125 -0.359375 0.234375q-0.15625 0.15625 -0.25 0.40625q-0.09375 0.25 -0.09375 0.609375q0 0.46875 0.28125 1.0625q0.28125 0.609375 0.90625 1.28125l1.390625 0zm4.265625 3.90625l0 1.21875l-1.265625 0.046875q0.40625 0.34375 0.671875 0.65625q0.28125 0.328125 0.4375 0.640625q0.171875 0.3125 0.234375 0.625q0.0625 0.328125 0.0625 0.671875q0 1.203125 -0.71875 1.828125q-0.703125 0.625 -2.140625 0.625l-5.125 0l0 -1.359375l5.015625 0q0.921875 0 1.359375 -0.34375q0.4375 -0.34375 0.4375 -1.03125q0 -0.25 -0.078125 -0.484375q-0.0625 -0.234375 -0.25 -0.5q-0.1875 -0.25 -0.5 -0.5625q-0.3125 -0.296875 -0.78125 -0.671875l-5.203125 0l0 -1.359375l7.84375 0zm-7.84375 15.859375l0 -1.875l4.203125 -3.65625l-4.203125 0l0 -1.359375l11.046875 0l0 1.359375l-6.78125 0l3.578125 3.53125l0 1.796875l-3.609375 -3.6875l-4.234375 3.890625zm5.109375 17.390625q-1.171875 0 -2.140625 -0.234375q-0.96875 -0.234375 -1.65625 -0.71875q-0.6875 -0.46875 -1.078125 -1.171875q-0.375 -0.703125 -0.375 -1.65625q0 -0.828125 0.3125 -1.5q0.3125 -0.671875 0.953125 -1.15625q0.640625 -0.46875 1.625 -0.734375q1.0 -0.25 2.359375 -0.25q1.171875 0 2.140625 0.234375q0.96875 0.25 1.65625 0.71875q0.6875 0.46875 1.0625 1.171875q0.390625 0.71875 0.390625 1.671875q0 0.8125 -0.3125 1.484375q-0.3125 0.671875 -0.953125 1.140625q-0.640625 0.484375 -1.640625 0.734375q-0.984375 0.265625 -2.34375 0.265625zm-0.046875 -1.375q0.265625 0 0.515625 -0.015625q0.265625 -0.015625 0.515625 -0.046875l-3.203125 -4.3125q-0.40625 0.109375 -0.75 0.28125q-0.34375 0.1875 -0.59375 0.4375q-0.25 0.265625 -0.390625 0.578125q-0.125 0.328125 -0.125 0.75q0 0.53125 0.25 0.953125q0.265625 0.4375 0.765625 0.734375q0.515625 0.3125 1.265625 0.46875q0.75 0.171875 1.75 0.171875zm0.09375 -4.671875q-0.25 0 -0.5 0q-0.234375 0.015625 -0.453125 0.03125l3.1875 4.328125q0.40625 -0.125 0.734375 -0.3125q0.328125 -0.171875 0.5625 -0.421875q0.234375 -0.25 0.359375 -0.578125q0.140625 -0.3125 0.140625 -0.703125q0 -0.53125 -0.265625 -0.96875q-0.25 -0.4375 -0.765625 -0.75q-0.5 -0.296875 -1.265625 -0.46875q-0.75 -0.15625 -1.734375 -0.15625z" fill-rule="nonzero"/><path fill="#f4cccc" d="m19.238846 391.2861l420.34644 0l0 64.944855l-420.34644 0z" fill-rule="evenodd"/><path stroke="#000000" stroke-width="1.0" stroke-linejoin="round" stroke-linecap="butt" d="m19.238846 391.2861l420.34644 0l0 64.944855l-420.34644 0z" fill-rule="evenodd"/><path fill="#000000" d="m206.84177 429.61853l-1.578125 0l-1.515625 -3.265625q-0.171875 -0.375 -0.359375 -0.625q-0.171875 -0.25 -0.390625 -0.390625q-0.203125 -0.140625 -0.453125 -0.203125q-0.234375 -0.0625 -0.546875 -0.0625l-0.65625 0l0 4.546875l-1.390625 0l0 -10.21875l2.734375 0q0.890625 0 1.53125 0.203125q0.640625 0.1875 1.046875 0.546875q0.421875 0.34375 0.609375 0.84375q0.1875 0.5 0.1875 1.09375q0 0.484375 -0.140625 0.90625q-0.140625 0.421875 -0.421875 0.78125q-0.265625 0.34375 -0.6875 0.59375q-0.40625 0.25 -0.9375 0.375q0.4375 0.15625 0.734375 0.53125q0.296875 0.359375 0.609375 0.984375l1.625 3.359375zm-2.234375 -7.40625q0 -0.828125 -0.515625 -1.234375q-0.5 -0.40625 -1.4375 -0.40625l-1.3125 0l0 3.375l1.125 0q0.5 0 0.890625 -0.109375q0.390625 -0.109375 0.671875 -0.328125q0.28125 -0.234375 0.421875 -0.546875q0.15625 -0.328125 0.15625 -0.75zm11.1875 2.234375q0 1.375 -0.328125 2.375q-0.328125 1.0 -0.875 1.65625q-0.546875 0.640625 -1.296875 0.96875q-0.734375 0.3125 -1.546875 0.3125q-0.984375 0 -1.71875 -0.359375q-0.734375 -0.359375 -1.21875 -1.03125q-0.46875 -0.671875 -0.703125 -1.625q-0.234375 -0.96875 -0.234375 -2.1875q0 -1.359375 0.3125 -2.359375q0.328125 -1.0 0.875 -1.640625q0.546875 -0.65625 1.28125 -0.96875q0.734375 -0.328125 1.5625 -0.328125q0.984375 0 1.703125 0.359375q0.734375 0.359375 1.21875 1.03125q0.484375 0.671875 0.71875 1.640625q0.25 0.953125 0.25 2.15625zm-1.453125 0.09375q0 -0.890625 -0.140625 -1.640625q-0.125 -0.75 -0.4375 -1.28125q-0.296875 -0.546875 -0.78125 -0.84375q-0.484375 -0.296875 -1.15625 -0.296875q-0.65625 0 -1.140625 0.328125q-0.46875 0.3125 -0.78125 0.859375q-0.296875 0.53125 -0.453125 1.265625q-0.140625 0.734375 -0.140625 1.546875q0 0.90625 0.140625 1.65625q0.140625 0.75 0.4375 1.28125q0.3125 0.53125 0.78125 0.828125q0.484375 0.296875 1.15625 0.296875q0.65625 0 1.125 -0.3125q0.484375 -0.3125 0.78125 -0.859375q0.3125 -0.546875 0.453125 -1.265625q0.15625 -0.734375 0.15625 -1.5625zm10.296875 5.078125l-1.359375 0l-0.203125 -6.375l-0.09375 -2.4375l-0.46875 1.421875l-1.515625 4.0625l-0.953125 0l-1.4375 -3.90625l-0.484375 -1.578125l-0.03125 2.546875l-0.171875 6.265625l-1.3125 0l0.5 -10.21875l1.640625 0l1.375 3.84375l0.453125 1.296875l0.421875 -1.296875l1.453125 -3.84375l1.6875 0l0.5 10.21875zm9.171875 3.203125l-8.796875 0l0 -1.125l8.796875 0l0 1.125zm7.875 -7.546875q0 0.296875 -0.015625 0.5q0 0.1875 -0.015625 0.359375l-5.5 0q0 1.203125 0.671875 1.84375q0.671875 0.640625 1.9375 0.640625q0.34375 0 0.6875 -0.015625q0.34375 -0.03125 0.65625 -0.078125q0.328125 -0.046875 0.609375 -0.109375q0.296875 -0.0625 0.546875 -0.125l0 1.109375q-0.546875 0.15625 -1.25 0.25q-0.703125 0.109375 -1.453125 0.109375q-1.0 0 -1.734375 -0.265625q-0.71875 -0.28125 -1.1875 -0.796875q-0.46875 -0.53125 -0.6875 -1.28125q-0.21875 -0.75 -0.21875 -1.703125q0 -0.828125 0.234375 -1.5625q0.234375 -0.75 0.6875 -1.296875q0.46875 -0.5625 1.125 -0.890625q0.671875 -0.328125 1.515625 -0.328125q0.8125 0 1.4375 0.265625q0.640625 0.25 1.078125 0.71875q0.4375 0.46875 0.65625 1.15625q0.21875 0.671875 0.21875 1.5zm-1.40625 -0.1875q0.015625 -0.53125 -0.109375 -0.953125q-0.125 -0.4375 -0.390625 -0.75q-0.25 -0.3125 -0.640625 -0.484375q-0.390625 -0.1875 -0.90625 -0.1875q-0.453125 0 -0.828125 0.171875q-0.359375 0.171875 -0.625 0.484375q-0.265625 0.3125 -0.4375 0.75q-0.15625 0.4375 -0.1875 0.96875l4.125 0zm10.65625 4.53125l-1.8125 0l-2.109375 -3.0l-2.09375 3.0l-1.765625 0l3.046875 -3.9375l-2.90625 -3.90625l1.75 0l2.0625 3.015625l2.015625 -3.015625l1.6875 0l-2.953125 3.9375l3.078125 3.90625zm8.046875 -0.109375q-0.46875 0.125 -0.96875 0.171875q-0.484375 0.046875 -0.984375 0.046875q-1.484375 0 -2.21875 -0.671875q-0.71875 -0.671875 -0.71875 -2.046875l0 -4.09375l-2.1875 0l0 -1.140625l2.1875 0l0 -2.15625l1.359375 -0.359375l0 2.515625l3.53125 0l0 1.140625l-3.53125 0l0 3.984375q0 0.84375 0.453125 1.265625q0.453125 0.40625 1.328125 0.40625q0.375 0 0.8125 -0.046875q0.453125 -0.0625 0.9375 -0.1875l0 1.171875z" fill-rule="nonzero"/><path fill="#b6d7a8" d="m19.238846 219.21391l420.34644 0l0 27.874008l-420.34644 0z" fill-rule="evenodd"/><path stroke="#000000" stroke-width="1.0" stroke-linejoin="round" stroke-linecap="butt" d="m19.238846 219.21391l420.34644 0l0 27.874008l-420.34644 0z" fill-rule="evenodd"/><path fill="#000000" d="m135.60739 229.97968l-4.328125 0l0 3.3125l4.109375 0l0 1.171875l-4.109375 0l0 4.546875l-1.421875 0l0 -10.21875l5.75 0l0 1.1875zm9.140625 9.03125l-5.875 0l0 -10.21875l1.40625 0l0 9.03125l4.46875 0l0 1.1875zm7.390625 0l-0.03125 -1.0625q-0.640625 0.640625 -1.3125 0.921875q-0.65625 0.28125 -1.375 0.28125q-0.671875 0 -1.15625 -0.171875q-0.46875 -0.171875 -0.78125 -0.46875q-0.3125 -0.3125 -0.453125 -0.71875q-0.140625 -0.40625 -0.140625 -0.875q0 -1.1875 0.875 -1.84375q0.875 -0.671875 2.59375 -0.671875l1.625 0l0 -0.6875q0 -0.703125 -0.453125 -1.109375q-0.4375 -0.421875 -1.34375 -0.421875q-0.671875 0 -1.3125 0.15625q-0.640625 0.140625 -1.328125 0.40625l0 -1.21875q0.25 -0.09375 0.5625 -0.1875q0.328125 -0.09375 0.671875 -0.15625q0.359375 -0.078125 0.734375 -0.109375q0.390625 -0.046875 0.78125 -0.046875q0.703125 0 1.265625 0.15625q0.578125 0.15625 0.96875 0.484375q0.40625 0.3125 0.609375 0.796875q0.21875 0.484375 0.21875 1.140625l0 5.40625l-1.21875 0zm-0.15625 -3.578125l-1.71875 0q-0.515625 0 -0.890625 0.109375q-0.359375 0.09375 -0.59375 0.28125q-0.234375 0.1875 -0.34375 0.453125q-0.109375 0.265625 -0.109375 0.59375q0 0.21875 0.0625 0.4375q0.078125 0.203125 0.234375 0.359375q0.15625 0.15625 0.40625 0.25q0.25 0.09375 0.609375 0.09375q0.46875 0 1.0625 -0.28125q0.609375 -0.28125 1.28125 -0.90625l0 -1.390625zm10.125 1.4375q0 0.40625 -0.140625 0.734375q-0.140625 0.328125 -0.390625 0.59375q-0.234375 0.25 -0.5625 0.4375q-0.3125 0.171875 -0.6875 0.296875q-0.359375 0.109375 -0.75 0.15625q-0.375 0.0625 -0.734375 0.0625q-0.796875 0 -1.46875 -0.078125q-0.671875 -0.0625 -1.3125 -0.21875l0 -1.25q0.6875 0.1875 1.359375 0.296875q0.6875 0.09375 1.359375 0.09375q0.984375 0 1.453125 -0.265625q0.46875 -0.265625 0.46875 -0.75q0 -0.21875 -0.078125 -0.375q-0.078125 -0.171875 -0.28125 -0.328125q-0.1875 -0.15625 -0.59375 -0.3125q-0.40625 -0.171875 -1.125 -0.375q-0.53125 -0.15625 -0.984375 -0.359375q-0.4375 -0.203125 -0.765625 -0.46875q-0.328125 -0.28125 -0.515625 -0.640625q-0.1875 -0.375 -0.1875 -0.875q0 -0.328125 0.140625 -0.71875q0.15625 -0.390625 0.515625 -0.71875q0.375 -0.34375 1.0 -0.5625q0.625 -0.21875 1.5625 -0.21875q0.46875 0 1.03125 0.046875q0.5625 0.046875 1.171875 0.171875l0 1.21875q-0.640625 -0.15625 -1.21875 -0.234375q-0.578125 -0.078125 -1.0 -0.078125q-0.5 0 -0.859375 0.078125q-0.34375 0.078125 -0.5625 0.21875q-0.203125 0.140625 -0.296875 0.328125q-0.09375 0.171875 -0.09375 0.390625q0 0.203125 0.078125 0.375q0.078125 0.171875 0.296875 0.34375q0.234375 0.15625 0.625 0.3125q0.40625 0.15625 1.046875 0.34375q0.6875 0.203125 1.15625 0.4375q0.484375 0.21875 0.78125 0.5q0.296875 0.265625 0.421875 0.609375q0.140625 0.34375 0.140625 0.78125zm8.890625 2.140625l-1.359375 0l0 -5.015625q0 -0.90625 -0.34375 -1.34375q-0.34375 -0.453125 -0.96875 -0.453125q-0.28125 0 -0.515625 0.078125q-0.234375 0.0625 -0.5 0.25q-0.25 0.1875 -0.5625 0.5q-0.296875 0.3125 -0.703125 0.78125l0 5.203125l-1.359375 0l0 -11.046875l1.359375 0l0 3.203125l-0.046875 1.234375q0.328125 -0.390625 0.625 -0.640625q0.3125 -0.265625 0.625 -0.421875q0.3125 -0.171875 0.625 -0.234375q0.328125 -0.078125 0.671875 -0.078125q1.171875 0 1.8125 0.71875q0.640625 0.703125 0.640625 2.140625l0 5.125zm17.96875 -3.0625q0 0.734375 -0.28125 1.3125q-0.28125 0.5625 -0.8125 0.953125q-0.53125 0.390625 -1.28125 0.59375q-0.734375 0.203125 -1.65625 0.203125l-2.671875 0l0 -10.21875l2.921875 0q3.421875 0 3.421875 2.484375q0 0.828125 -0.40625 1.421875q-0.390625 0.59375 -1.28125 0.890625q0.421875 0.078125 0.78125 0.265625q0.375 0.1875 0.65625 0.484375q0.28125 0.296875 0.4375 0.703125q0.171875 0.40625 0.171875 0.90625zm-1.8125 -4.484375q0 -0.3125 -0.09375 -0.578125q-0.09375 -0.28125 -0.328125 -0.484375q-0.234375 -0.203125 -0.640625 -0.3125q-0.390625 -0.125 -1.0 -0.125l-1.4375 0l0 3.203125l1.390625 0q0.484375 0 0.859375 -0.09375q0.390625 -0.109375 0.671875 -0.3125q0.28125 -0.21875 0.421875 -0.53125q0.15625 -0.328125 0.15625 -0.765625zm0.34375 4.53125q0 -0.390625 -0.171875 -0.703125q-0.15625 -0.3125 -0.46875 -0.515625q-0.3125 -0.21875 -0.765625 -0.328125q-0.453125 -0.125 -1.015625 -0.125l-1.421875 0l0 3.515625l1.46875 0q1.203125 0 1.78125 -0.4375q0.59375 -0.453125 0.59375 -1.40625zm8.625 3.015625l-0.03125 -1.0625q-0.640625 0.640625 -1.3125 0.921875q-0.65625 0.28125 -1.375 0.28125q-0.671875 0 -1.15625 -0.171875q-0.46875 -0.171875 -0.78125 -0.46875q-0.3125 -0.3125 -0.453125 -0.71875q-0.140625 -0.40625 -0.140625 -0.875q0 -1.1875 0.875 -1.84375q0.875 -0.671875 2.59375 -0.671875l1.625 0l0 -0.6875q0 -0.703125 -0.453125 -1.109375q-0.4375 -0.421875 -1.34375 -0.421875q-0.671875 0 -1.3125 0.15625q-0.640625 0.140625 -1.328125 0.40625l0 -1.21875q0.25 -0.09375 0.5625 -0.1875q0.328125 -0.09375 0.671875 -0.15625q0.359375 -0.078125 0.734375 -0.109375q0.390625 -0.046875 0.78125 -0.046875q0.703125 0 1.265625 0.15625q0.578125 0.15625 0.96875 0.484375q0.40625 0.3125 0.609375 0.796875q0.21875 0.484375 0.21875 1.140625l0 5.40625l-1.21875 0zm-0.15625 -3.578125l-1.71875 0q-0.515625 0 -0.890625 0.109375q-0.359375 0.09375 -0.59375 0.28125q-0.234375 0.1875 -0.34375 0.453125q-0.109375 0.265625 -0.109375 0.59375q0 0.21875 0.0625 0.4375q0.078125 0.203125 0.234375 0.359375q0.15625 0.15625 0.40625 0.25q0.25 0.09375 0.609375 0.09375q0.46875 0 1.0625 -0.28125q0.609375 -0.28125 1.28125 -0.90625l0 -1.390625zm3.90625 -4.265625l1.21875 0l0.046875 1.265625q0.34375 -0.40625 0.65625 -0.671875q0.328125 -0.28125 0.640625 -0.4375q0.3125 -0.171875 0.625 -0.234375q0.328125 -0.0625 0.671875 -0.0625q1.203125 0 1.828125 0.71875q0.625 0.703125 0.625 2.140625l0 5.125l-1.359375 0l0 -5.015625q0 -0.921875 -0.34375 -1.359375q-0.34375 -0.4375 -1.03125 -0.4375q-0.25 0 -0.484375 0.078125q-0.234375 0.0625 -0.5 0.25q-0.25 0.1875 -0.5625 0.5q-0.296875 0.3125 -0.671875 0.78125l0 5.203125l-1.359375 0l0 -7.84375zm15.859375 7.84375l-1.875 0l-3.65625 -4.203125l0 4.203125l-1.359375 0l0 -11.046875l1.359375 0l0 6.78125l3.53125 -3.578125l1.796875 0l-3.6875 3.609375l3.890625 4.234375zm16.984375 0l-5.875 0l0 -10.21875l1.40625 0l0 9.03125l4.46875 0l0 1.1875zm9.171875 -3.984375q0 0.90625 -0.265625 1.671875q-0.25 0.765625 -0.734375 1.3125q-0.484375 0.53125 -1.1875 0.84375q-0.6875 0.296875 -1.5625 0.296875q-0.84375 0 -1.515625 -0.265625q-0.671875 -0.265625 -1.140625 -0.765625q-0.453125 -0.515625 -0.703125 -1.265625q-0.25 -0.75 -0.25 -1.71875q0 -0.921875 0.25 -1.671875q0.265625 -0.75 0.75 -1.296875q0.484375 -0.546875 1.171875 -0.84375q0.703125 -0.296875 1.59375 -0.296875q0.84375 0 1.5 0.265625q0.671875 0.25 1.140625 0.765625q0.46875 0.5 0.703125 1.25q0.25 0.75 0.25 1.71875zm-1.390625 0.0625q0 -0.734375 -0.15625 -1.265625q-0.15625 -0.546875 -0.453125 -0.90625q-0.296875 -0.375 -0.734375 -0.546875q-0.421875 -0.1875 -0.9375 -0.1875q-0.609375 0 -1.046875 0.234375q-0.4375 0.234375 -0.71875 0.640625q-0.265625 0.390625 -0.40625 0.921875q-0.125 0.53125 -0.125 1.109375q0 0.71875 0.15625 1.265625q0.171875 0.546875 0.46875 0.921875q0.296875 0.359375 0.71875 0.546875q0.421875 0.171875 0.953125 0.171875q0.609375 0 1.03125 -0.234375q0.4375 -0.234375 0.71875 -0.625q0.28125 -0.40625 0.40625 -0.9375q0.125 -0.53125 0.125 -1.109375zm10.1875 -0.0625q0 0.90625 -0.265625 1.671875q-0.25 0.765625 -0.734375 1.3125q-0.484375 0.53125 -1.1875 0.84375q-0.6875 0.296875 -1.5625 0.296875q-0.84375 0 -1.515625 -0.265625q-0.671875 -0.265625 -1.140625 -0.765625q-0.453125 -0.515625 -0.703125 -1.265625q-0.25 -0.75 -0.25 -1.71875q0 -0.921875 0.25 -1.671875q0.265625 -0.75 0.75 -1.296875q0.484375 -0.546875 1.171875 -0.84375q0.703125 -0.296875 1.59375 -0.296875q0.84375 0 1.5 0.265625q0.671875 0.25 1.140625 0.765625q0.46875 0.5 0.703125 1.25q0.25 0.75 0.25 1.71875zm-1.390625 0.0625q0 -0.734375 -0.15625 -1.265625q-0.15625 -0.546875 -0.453125 -0.90625q-0.296875 -0.375 -0.734375 -0.546875q-0.421875 -0.1875 -0.9375 -0.1875q-0.609375 0 -1.046875 0.234375q-0.4375 0.234375 -0.71875 0.640625q-0.265625 0.390625 -0.40625 0.921875q-0.125 0.53125 -0.125 1.109375q0 0.71875 0.15625 1.265625q0.171875 0.546875 0.46875 0.921875q0.296875 0.359375 0.71875 0.546875q0.421875 0.171875 0.953125 0.171875q0.609375 0 1.03125 -0.234375q0.4375 -0.234375 0.71875 -0.625q0.28125 -0.40625 0.40625 -0.9375q0.125 -0.53125 0.125 -1.109375zm10.421875 3.921875l-1.875 0l-3.65625 -4.203125l0 4.203125l-1.359375 0l0 -11.046875l1.359375 0l0 6.78125l3.53125 -3.578125l1.796875 0l-3.6875 3.609375l3.890625 4.234375zm8.046875 0l-1.21875 0l-0.046875 -1.265625q-0.359375 0.40625 -0.671875 0.671875q-0.3125 0.265625 -0.625 0.4375q-0.3125 0.171875 -0.640625 0.234375q-0.3125 0.0625 -0.65625 0.0625q-1.21875 0 -1.84375 -0.703125q-0.609375 -0.71875 -0.609375 -2.15625l0 -5.125l1.359375 0l0 5.015625q0 1.796875 1.359375 1.796875q0.25 0 0.484375 -0.0625q0.25 -0.078125 0.5 -0.265625q0.265625 -0.1875 0.5625 -0.5q0.3125 -0.3125 0.6875 -0.78125l0 -5.203125l1.359375 0l0 7.84375zm9.1874695 -4.0625q0 1.046875 -0.296875 1.828125q-0.28125 0.78125 -0.796875 1.296875q-0.515625 0.515625 -1.2187195 0.78125q-0.703125 0.25 -1.53125 0.25q-0.375 0 -0.75 -0.046875q-0.359375 -0.03125 -0.75 -0.125l0 3.28125l-1.359375 0l0 -11.046875l1.21875 0l0.078125 1.3125q0.59375 -0.8125 1.25 -1.125q0.671875 -0.328125 1.4375 -0.328125q0.671875 0 1.1718445 0.28125q0.515625 0.28125 0.859375 0.796875q0.34375 0.5 0.515625 1.234375q0.171875 0.71875 0.171875 1.609375zm-1.390625 0.0625q0 -0.625 -0.09375 -1.140625q-0.078125 -0.515625 -0.28121948 -0.875q-0.1875 -0.375 -0.5 -0.578125q-0.296875 -0.203125 -0.71875 -0.203125q-0.265625 0 -0.53125 0.078125q-0.265625 0.078125 -0.546875 0.28125q-0.28125 0.1875 -0.609375 0.5q-0.3125 0.3125 -0.671875 0.78125l0 3.8125q0.375 0.15625 0.78125 0.25q0.421875 0.078125 0.828125 0.078125q1.09375 0 1.71875 -0.734375q0.6249695 -0.75 0.6249695 -2.25zm19.15625 -5.03125l-3.015625 0l0 9.03125l-1.40625 0l0 -9.03125l-3.03125 0l0 -1.1875l7.453125 0l0 1.1875zm6.96875 9.03125l-0.03125 -1.0625q-0.640625 0.640625 -1.3125 0.921875q-0.65625 0.28125 -1.375 0.28125q-0.671875 0 -1.15625 -0.171875q-0.46875 -0.171875 -0.78125 -0.46875q-0.3125 -0.3125 -0.453125 -0.71875q-0.140625 -0.40625 -0.140625 -0.875q0 -1.1875 0.875 -1.84375q0.875 -0.671875 2.59375 -0.671875l1.625 0l0 -0.6875q0 -0.703125 -0.453125 -1.109375q-0.4375 -0.421875 -1.34375 -0.421875q-0.671875 0 -1.3125 0.15625q-0.640625 0.140625 -1.328125 0.40625l0 -1.21875q0.25 -0.09375 0.5625 -0.1875q0.328125 -0.09375 0.671875 -0.15625q0.359375 -0.078125 0.734375 -0.109375q0.390625 -0.046875 0.78125 -0.046875q0.703125 0 1.265625 0.15625q0.578125 0.15625 0.96875 0.484375q0.40625 0.3125 0.609375 0.796875q0.21875 0.484375 0.21875 1.140625l0 5.40625l-1.21875 0zm-0.15625 -3.578125l-1.71875 0q-0.515625 0 -0.890625 0.109375q-0.359375 0.09375 -0.59375 0.28125q-0.234375 0.1875 -0.34375 0.453125q-0.109375 0.265625 -0.109375 0.59375q0 0.21875 0.0625 0.4375q0.078125 0.203125 0.234375 0.359375q0.15625 0.15625 0.40625 0.25q0.25 0.09375 0.609375 0.09375q0.46875 0 1.0625 -0.28125q0.609375 -0.28125 1.28125 -0.90625l0 -1.390625zm10.609375 -0.484375q0 0.96875 -0.265625 1.75q-0.265625 0.765625 -0.765625 1.296875q-0.5 0.53125 -1.21875 0.828125q-0.703125 0.28125 -1.59375 0.28125q-0.6875 0 -1.421875 -0.125q-0.71875 -0.140625 -1.4375 -0.4375l0 -10.578125l1.359375 0l0 3.046875l-0.0625 1.453125q0.59375 -0.796875 1.25 -1.109375q0.671875 -0.328125 1.4375 -0.328125q0.671875 0 1.171875 0.28125q0.515625 0.28125 0.859375 0.796875q0.34375 0.5 0.515625 1.234375q0.171875 0.71875 0.171875 1.609375zm-1.390625 0.0625q0 -0.625 -0.09375 -1.140625q-0.078125 -0.515625 -0.28125 -0.875q-0.1875 -0.375 -0.5 -0.578125q-0.296875 -0.203125 -0.71875 -0.203125q-0.265625 0 -0.53125 0.078125q-0.265625 0.078125 -0.546875 0.28125q-0.28125 0.1875 -0.609375 0.5q-0.3125 0.3125 -0.671875 0.78125l0 3.8125q0.40625 0.15625 0.8125 0.25q0.421875 0.078125 0.796875 0.078125q0.46875 0 0.890625 -0.140625q0.421875 -0.15625 0.75 -0.5q0.328125 -0.34375 0.515625 -0.921875q0.1875 -0.578125 0.1875 -1.421875zm6.15625 -5.921875l-2.3125 0l0 -1.125l3.6875 0l0 9.90625l2.34375 0l0 1.140625l-6.296875 0l0 -1.140625l2.578125 0l0 -8.78125zm12.75 5.578125q0 0.296875 -0.015625 0.5q0 0.1875 -0.015625 0.359375l-5.5 0q0 1.203125 0.671875 1.84375q0.671875 0.640625 1.9375 0.640625q0.34375 0 0.6875 -0.015625q0.34375 -0.03125 0.65625 -0.078125q0.328125 -0.046875 0.609375 -0.109375q0.296875 -0.0625 0.546875 -0.125l0 1.109375q-0.546875 0.15625 -1.25 0.25q-0.703125 0.109375 -1.453125 0.109375q-1.0 0 -1.734375 -0.265625q-0.71875 -0.28125 -1.1875 -0.796875q-0.46875 -0.53125 -0.6875 -1.28125q-0.21875 -0.75 -0.21875 -1.703125q0 -0.828125 0.234375 -1.5625q0.234375 -0.75 0.6875 -1.296875q0.46875 -0.5625 1.125 -0.890625q0.671875 -0.328125 1.515625 -0.328125q0.8125 0 1.4375 0.265625q0.640625 0.25 1.078125 0.71875q0.4375 0.46875 0.65625 1.15625q0.21875 0.671875 0.21875 1.5zm-1.40625 -0.1875q0.015625 -0.53125 -0.109375 -0.953125q-0.125 -0.4375 -0.390625 -0.75q-0.25 -0.3125 -0.640625 -0.484375q-0.390625 -0.1875 -0.90625 -0.1875q-0.453125 0 -0.828125 0.171875q-0.359375 0.171875 -0.625 0.484375q-0.265625 0.3125 -0.4375 0.75q-0.15625 0.4375 -0.1875 0.96875l4.125 0z" fill-rule="nonzero"/><path fill="#b6d7a8" d="m19.238846 456.22964l420.34644 0l0 27.874023l-420.34644 0z" fill-rule="evenodd"/><path stroke="#000000" stroke-width="1.0" stroke-linejoin="round" stroke-linecap="butt" d="m19.238846 456.22964l420.34644 0l0 27.874023l-420.34644 0z" fill-rule="evenodd"/><path fill="#000000" d="m135.60739 466.99542l-4.328125 0l0 3.3125l4.109375 0l0 1.171875l-4.109375 0l0 4.546875l-1.421875 0l0 -10.21875l5.75 0l0 1.1875zm9.140625 9.03125l-5.875 0l0 -10.21875l1.40625 0l0 9.03125l4.46875 0l0 1.1875zm7.390625 0l-0.03125 -1.0625q-0.640625 0.640625 -1.3125 0.921875q-0.65625 0.28125 -1.375 0.28125q-0.671875 0 -1.15625 -0.171875q-0.46875 -0.171875 -0.78125 -0.46875q-0.3125 -0.3125 -0.453125 -0.71875q-0.140625 -0.40625 -0.140625 -0.875q0 -1.1875 0.875 -1.84375q0.875 -0.671875 2.59375 -0.671875l1.625 0l0 -0.6875q0 -0.703125 -0.453125 -1.109375q-0.4375 -0.421875 -1.34375 -0.421875q-0.671875 0 -1.3125 0.15625q-0.640625 0.140625 -1.328125 0.40625l0 -1.21875q0.25 -0.09375 0.5625 -0.1875q0.328125 -0.09375 0.671875 -0.15625q0.359375 -0.078125 0.734375 -0.109375q0.390625 -0.046875 0.78125 -0.046875q0.703125 0 1.265625 0.15625q0.578125 0.15625 0.96875 0.484375q0.40625 0.3125 0.609375 0.796875q0.21875 0.484375 0.21875 1.140625l0 5.40625l-1.21875 0zm-0.15625 -3.578125l-1.71875 0q-0.515625 0 -0.890625 0.109375q-0.359375 0.09375 -0.59375 0.28125q-0.234375 0.1875 -0.34375 0.453125q-0.109375 0.265625 -0.109375 0.59375q0 0.21875 0.0625 0.4375q0.078125 0.203125 0.234375 0.359375q0.15625 0.15625 0.40625 0.25q0.25 0.09375 0.609375 0.09375q0.46875 0 1.0625 -0.28125q0.609375 -0.28125 1.28125 -0.90625l0 -1.390625zm10.125 1.4375q0 0.40625 -0.140625 0.734375q-0.140625 0.328125 -0.390625 0.59375q-0.234375 0.25 -0.5625 0.4375q-0.3125 0.171875 -0.6875 0.296875q-0.359375 0.109375 -0.75 0.15625q-0.375 0.0625 -0.734375 0.0625q-0.796875 0 -1.46875 -0.078125q-0.671875 -0.0625 -1.3125 -0.21875l0 -1.25q0.6875 0.1875 1.359375 0.296875q0.6875 0.09375 1.359375 0.09375q0.984375 0 1.453125 -0.265625q0.46875 -0.265625 0.46875 -0.75q0 -0.21875 -0.078125 -0.375q-0.078125 -0.171875 -0.28125 -0.328125q-0.1875 -0.15625 -0.59375 -0.3125q-0.40625 -0.171875 -1.125 -0.375q-0.53125 -0.15625 -0.984375 -0.359375q-0.4375 -0.203125 -0.765625 -0.46875q-0.328125 -0.28125 -0.515625 -0.640625q-0.1875 -0.375 -0.1875 -0.875q0 -0.328125 0.140625 -0.71875q0.15625 -0.390625 0.515625 -0.71875q0.375 -0.34375 1.0 -0.5625q0.625 -0.21875 1.5625 -0.21875q0.46875 0 1.03125 0.046875q0.5625 0.046875 1.171875 0.171875l0 1.21875q-0.640625 -0.15625 -1.21875 -0.234375q-0.578125 -0.078125 -1.0 -0.078125q-0.5 0 -0.859375 0.078125q-0.34375 0.078125 -0.5625 0.21875q-0.203125 0.140625 -0.296875 0.328125q-0.09375 0.171875 -0.09375 0.390625q0 0.203125 0.078125 0.375q0.078125 0.171875 0.296875 0.34375q0.234375 0.15625 0.625 0.3125q0.40625 0.15625 1.046875 0.34375q0.6875 0.203125 1.15625 0.4375q0.484375 0.21875 0.78125 0.5q0.296875 0.265625 0.421875 0.609375q0.140625 0.34375 0.140625 0.78125zm8.890625 2.140625l-1.359375 0l0 -5.015625q0 -0.90625 -0.34375 -1.34375q-0.34375 -0.453125 -0.96875 -0.453125q-0.28125 0 -0.515625 0.078125q-0.234375 0.0625 -0.5 0.25q-0.25 0.1875 -0.5625 0.5q-0.296875 0.3125 -0.703125 0.78125l0 5.203125l-1.359375 0l0 -11.046875l1.359375 0l0 3.203125l-0.046875 1.234375q0.328125 -0.390625 0.625 -0.640625q0.3125 -0.265625 0.625 -0.421875q0.3125 -0.171875 0.625 -0.234375q0.328125 -0.078125 0.671875 -0.078125q1.171875 0 1.8125 0.71875q0.640625 0.703125 0.640625 2.140625l0 5.125zm17.96875 -3.0625q0 0.734375 -0.28125 1.3125q-0.28125 0.5625 -0.8125 0.953125q-0.53125 0.390625 -1.28125 0.59375q-0.734375 0.203125 -1.65625 0.203125l-2.671875 0l0 -10.21875l2.921875 0q3.421875 0 3.421875 2.484375q0 0.828125 -0.40625 1.421875q-0.390625 0.59375 -1.28125 0.890625q0.421875 0.078125 0.78125 0.265625q0.375 0.1875 0.65625 0.484375q0.28125 0.296875 0.4375 0.703125q0.171875 0.40625 0.171875 0.90625zm-1.8125 -4.484375q0 -0.3125 -0.09375 -0.578125q-0.09375 -0.28125 -0.328125 -0.484375q-0.234375 -0.203125 -0.640625 -0.3125q-0.390625 -0.125 -1.0 -0.125l-1.4375 0l0 3.203125l1.390625 0q0.484375 0 0.859375 -0.09375q0.390625 -0.109375 0.671875 -0.3125q0.28125 -0.21875 0.421875 -0.53125q0.15625 -0.328125 0.15625 -0.765625zm0.34375 4.53125q0 -0.390625 -0.171875 -0.703125q-0.15625 -0.3125 -0.46875 -0.515625q-0.3125 -0.21875 -0.765625 -0.328125q-0.453125 -0.125 -1.015625 -0.125l-1.421875 0l0 3.515625l1.46875 0q1.203125 0 1.78125 -0.4375q0.59375 -0.453125 0.59375 -1.40625zm8.625 3.015625l-0.03125 -1.0625q-0.640625 0.640625 -1.3125 0.921875q-0.65625 0.28125 -1.375 0.28125q-0.671875 0 -1.15625 -0.171875q-0.46875 -0.171875 -0.78125 -0.46875q-0.3125 -0.3125 -0.453125 -0.71875q-0.140625 -0.40625 -0.140625 -0.875q0 -1.1875 0.875 -1.84375q0.875 -0.671875 2.59375 -0.671875l1.625 0l0 -0.6875q0 -0.703125 -0.453125 -1.109375q-0.4375 -0.421875 -1.34375 -0.421875q-0.671875 0 -1.3125 0.15625q-0.640625 0.140625 -1.328125 0.40625l0 -1.21875q0.25 -0.09375 0.5625 -0.1875q0.328125 -0.09375 0.671875 -0.15625q0.359375 -0.078125 0.734375 -0.109375q0.390625 -0.046875 0.78125 -0.046875q0.703125 0 1.265625 0.15625q0.578125 0.15625 0.96875 0.484375q0.40625 0.3125 0.609375 0.796875q0.21875 0.484375 0.21875 1.140625l0 5.40625l-1.21875 0zm-0.15625 -3.578125l-1.71875 0q-0.515625 0 -0.890625 0.109375q-0.359375 0.09375 -0.59375 0.28125q-0.234375 0.1875 -0.34375 0.453125q-0.109375 0.265625 -0.109375 0.59375q0 0.21875 0.0625 0.4375q0.078125 0.203125 0.234375 0.359375q0.15625 0.15625 0.40625 0.25q0.25 0.09375 0.609375 0.09375q0.46875 0 1.0625 -0.28125q0.609375 -0.28125 1.28125 -0.90625l0 -1.390625zm3.90625 -4.265625l1.21875 0l0.046875 1.265625q0.34375 -0.40625 0.65625 -0.671875q0.328125 -0.28125 0.640625 -0.4375q0.3125 -0.171875 0.625 -0.234375q0.328125 -0.0625 0.671875 -0.0625q1.203125 0 1.828125 0.71875q0.625 0.703125 0.625 2.140625l0 5.125l-1.359375 0l0 -5.015625q0 -0.921875 -0.34375 -1.359375q-0.34375 -0.4375 -1.03125 -0.4375q-0.25 0 -0.484375 0.078125q-0.234375 0.0625 -0.5 0.25q-0.25 0.1875 -0.5625 0.5q-0.296875 0.3125 -0.671875 0.78125l0 5.203125l-1.359375 0l0 -7.84375zm15.859375 7.84375l-1.875 0l-3.65625 -4.203125l0 4.203125l-1.359375 0l0 -11.046875l1.359375 0l0 6.78125l3.53125 -3.578125l1.796875 0l-3.6875 3.609375l3.890625 4.234375zm16.984375 0l-5.875 0l0 -10.21875l1.40625 0l0 9.03125l4.46875 0l0 1.1875zm9.171875 -3.984375q0 0.90625 -0.265625 1.671875q-0.25 0.765625 -0.734375 1.3125q-0.484375 0.53125 -1.1875 0.84375q-0.6875 0.296875 -1.5625 0.296875q-0.84375 0 -1.515625 -0.265625q-0.671875 -0.265625 -1.140625 -0.765625q-0.453125 -0.515625 -0.703125 -1.265625q-0.25 -0.75 -0.25 -1.71875q0 -0.921875 0.25 -1.671875q0.265625 -0.75 0.75 -1.296875q0.484375 -0.546875 1.171875 -0.84375q0.703125 -0.296875 1.59375 -0.296875q0.84375 0 1.5 0.265625q0.671875 0.25 1.140625 0.765625q0.46875 0.5 0.703125 1.25q0.25 0.75 0.25 1.71875zm-1.390625 0.0625q0 -0.734375 -0.15625 -1.265625q-0.15625 -0.546875 -0.453125 -0.90625q-0.296875 -0.375 -0.734375 -0.546875q-0.421875 -0.1875 -0.9375 -0.1875q-0.609375 0 -1.046875 0.234375q-0.4375 0.234375 -0.71875 0.640625q-0.265625 0.390625 -0.40625 0.921875q-0.125 0.53125 -0.125 1.109375q0 0.71875 0.15625 1.265625q0.171875 0.546875 0.46875 0.921875q0.296875 0.359375 0.71875 0.546875q0.421875 0.171875 0.953125 0.171875q0.609375 0 1.03125 -0.234375q0.4375 -0.234375 0.71875 -0.625q0.28125 -0.40625 0.40625 -0.9375q0.125 -0.53125 0.125 -1.109375zm10.1875 -0.0625q0 0.90625 -0.265625 1.671875q-0.25 0.765625 -0.734375 1.3125q-0.484375 0.53125 -1.1875 0.84375q-0.6875 0.296875 -1.5625 0.296875q-0.84375 0 -1.515625 -0.265625q-0.671875 -0.265625 -1.140625 -0.765625q-0.453125 -0.515625 -0.703125 -1.265625q-0.25 -0.75 -0.25 -1.71875q0 -0.921875 0.25 -1.671875q0.265625 -0.75 0.75 -1.296875q0.484375 -0.546875 1.171875 -0.84375q0.703125 -0.296875 1.59375 -0.296875q0.84375 0 1.5 0.265625q0.671875 0.25 1.140625 0.765625q0.46875 0.5 0.703125 1.25q0.25 0.75 0.25 1.71875zm-1.390625 0.0625q0 -0.734375 -0.15625 -1.265625q-0.15625 -0.546875 -0.453125 -0.90625q-0.296875 -0.375 -0.734375 -0.546875q-0.421875 -0.1875 -0.9375 -0.1875q-0.609375 0 -1.046875 0.234375q-0.4375 0.234375 -0.71875 0.640625q-0.265625 0.390625 -0.40625 0.921875q-0.125 0.53125 -0.125 1.109375q0 0.71875 0.15625 1.265625q0.171875 0.546875 0.46875 0.921875q0.296875 0.359375 0.71875 0.546875q0.421875 0.171875 0.953125 0.171875q0.609375 0 1.03125 -0.234375q0.4375 -0.234375 0.71875 -0.625q0.28125 -0.40625 0.40625 -0.9375q0.125 -0.53125 0.125 -1.109375zm10.421875 3.921875l-1.875 0l-3.65625 -4.203125l0 4.203125l-1.359375 0l0 -11.046875l1.359375 0l0 6.78125l3.53125 -3.578125l1.796875 0l-3.6875 3.609375l3.890625 4.234375zm8.046875 0l-1.21875 0l-0.046875 -1.265625q-0.359375 0.40625 -0.671875 0.671875q-0.3125 0.265625 -0.625 0.4375q-0.3125 0.171875 -0.640625 0.234375q-0.3125 0.0625 -0.65625 0.0625q-1.21875 0 -1.84375 -0.703125q-0.609375 -0.71875 -0.609375 -2.15625l0 -5.125l1.359375 0l0 5.015625q0 1.796875 1.359375 1.796875q0.25 0 0.484375 -0.0625q0.25 -0.078125 0.5 -0.265625q0.265625 -0.1875 0.5625 -0.5q0.3125 -0.3125 0.6875 -0.78125l0 -5.203125l1.359375 0l0 7.84375zm9.1874695 -4.0625q0 1.046875 -0.296875 1.828125q-0.28125 0.78125 -0.796875 1.296875q-0.515625 0.515625 -1.2187195 0.78125q-0.703125 0.25 -1.53125 0.25q-0.375 0 -0.75 -0.046875q-0.359375 -0.03125 -0.75 -0.125l0 3.28125l-1.359375 0l0 -11.046875l1.21875 0l0.078125 1.3125q0.59375 -0.8125 1.25 -1.125q0.671875 -0.328125 1.4375 -0.328125q0.671875 0 1.1718445 0.28125q0.515625 0.28125 0.859375 0.796875q0.34375 0.5 0.515625 1.234375q0.171875 0.71875 0.171875 1.609375zm-1.390625 0.0625q0 -0.625 -0.09375 -1.140625q-0.078125 -0.515625 -0.28121948 -0.875q-0.1875 -0.375 -0.5 -0.578125q-0.296875 -0.203125 -0.71875 -0.203125q-0.265625 0 -0.53125 0.078125q-0.265625 0.078125 -0.546875 0.28125q-0.28125 0.1875 -0.609375 0.5q-0.3125 0.3125 -0.671875 0.78125l0 3.8125q0.375 0.15625 0.78125 0.25q0.421875 0.078125 0.828125 0.078125q1.09375 0 1.71875 -0.734375q0.6249695 -0.75 0.6249695 -2.25zm19.15625 -5.03125l-3.015625 0l0 9.03125l-1.40625 0l0 -9.03125l-3.03125 0l0 -1.1875l7.453125 0l0 1.1875zm6.96875 9.03125l-0.03125 -1.0625q-0.640625 0.640625 -1.3125 0.921875q-0.65625 0.28125 -1.375 0.28125q-0.671875 0 -1.15625 -0.171875q-0.46875 -0.171875 -0.78125 -0.46875q-0.3125 -0.3125 -0.453125 -0.71875q-0.140625 -0.40625 -0.140625 -0.875q0 -1.1875 0.875 -1.84375q0.875 -0.671875 2.59375 -0.671875l1.625 0l0 -0.6875q0 -0.703125 -0.453125 -1.109375q-0.4375 -0.421875 -1.34375 -0.421875q-0.671875 0 -1.3125 0.15625q-0.640625 0.140625 -1.328125 0.40625l0 -1.21875q0.25 -0.09375 0.5625 -0.1875q0.328125 -0.09375 0.671875 -0.15625q0.359375 -0.078125 0.734375 -0.109375q0.390625 -0.046875 0.78125 -0.046875q0.703125 0 1.265625 0.15625q0.578125 0.15625 0.96875 0.484375q0.40625 0.3125 0.609375 0.796875q0.21875 0.484375 0.21875 1.140625l0 5.40625l-1.21875 0zm-0.15625 -3.578125l-1.71875 0q-0.515625 0 -0.890625 0.109375q-0.359375 0.09375 -0.59375 0.28125q-0.234375 0.1875 -0.34375 0.453125q-0.109375 0.265625 -0.109375 0.59375q0 0.21875 0.0625 0.4375q0.078125 0.203125 0.234375 0.359375q0.15625 0.15625 0.40625 0.25q0.25 0.09375 0.609375 0.09375q0.46875 0 1.0625 -0.28125q0.609375 -0.28125 1.28125 -0.90625l0 -1.390625zm10.609375 -0.484375q0 0.96875 -0.265625 1.75q-0.265625 0.765625 -0.765625 1.296875q-0.5 0.53125 -1.21875 0.828125q-0.703125 0.28125 -1.59375 0.28125q-0.6875 0 -1.421875 -0.125q-0.71875 -0.140625 -1.4375 -0.4375l0 -10.578125l1.359375 0l0 3.046875l-0.0625 1.453125q0.59375 -0.796875 1.25 -1.109375q0.671875 -0.328125 1.4375 -0.328125q0.671875 0 1.171875 0.28125q0.515625 0.28125 0.859375 0.796875q0.34375 0.5 0.515625 1.234375q0.171875 0.71875 0.171875 1.609375zm-1.390625 0.0625q0 -0.625 -0.09375 -1.140625q-0.078125 -0.515625 -0.28125 -0.875q-0.1875 -0.375 -0.5 -0.578125q-0.296875 -0.203125 -0.71875 -0.203125q-0.265625 0 -0.53125 0.078125q-0.265625 0.078125 -0.546875 0.28125q-0.28125 0.1875 -0.609375 0.5q-0.3125 0.3125 -0.671875 0.78125l0 3.8125q0.40625 0.15625 0.8125 0.25q0.421875 0.078125 0.796875 0.078125q0.46875 0 0.890625 -0.140625q0.421875 -0.15625 0.75 -0.5q0.328125 -0.34375 0.515625 -0.921875q0.1875 -0.578125 0.1875 -1.421875zm6.15625 -5.921875l-2.3125 0l0 -1.125l3.6875 0l0 9.90625l2.34375 0l0 1.140625l-6.296875 0l0 -1.140625l2.578125 0l0 -8.78125zm12.75 5.578125q0 0.296875 -0.015625 0.5q0 0.1875 -0.015625 0.359375l-5.5 0q0 1.203125 0.671875 1.84375q0.671875 0.640625 1.9375 0.640625q0.34375 0 0.6875 -0.015625q0.34375 -0.03125 0.65625 -0.078125q0.328125 -0.046875 0.609375 -0.109375q0.296875 -0.0625 0.546875 -0.125l0 1.109375q-0.546875 0.15625 -1.25 0.25q-0.703125 0.109375 -1.453125 0.109375q-1.0 0 -1.734375 -0.265625q-0.71875 -0.28125 -1.1875 -0.796875q-0.46875 -0.53125 -0.6875 -1.28125q-0.21875 -0.75 -0.21875 -1.703125q0 -0.828125 0.234375 -1.5625q0.234375 -0.75 0.6875 -1.296875q0.46875 -0.5625 1.125 -0.890625q0.671875 -0.328125 1.515625 -0.328125q0.8125 0 1.4375 0.265625q0.640625 0.25 1.078125 0.71875q0.4375 0.46875 0.65625 1.15625q0.21875 0.671875 0.21875 1.5zm-1.40625 -0.1875q0.015625 -0.53125 -0.109375 -0.953125q-0.125 -0.4375 -0.390625 -0.75q-0.25 -0.3125 -0.640625 -0.484375q-0.390625 -0.1875 -0.90625 -0.1875q-0.453125 0 -0.828125 0.171875q-0.359375 0.171875 -0.625 0.484375q-0.265625 0.3125 -0.4375 0.75q-0.15625 0.4375 -0.1875 0.96875l4.125 0z" fill-rule="nonzero"/><path fill="#000000" fill-opacity="0.0" d="m456.16534 492.2152l0 0c5.731598 0 10.37796 0.77438354 10.37796 1.7296143l0 29.013245c0 0.95526123 4.6463623 1.7296143 10.37796 1.7296143l0 0c-5.731598 0 -10.37796 0.774353 -10.37796 1.7295532l0 29.013306c0 0.9552002 -4.6463623 1.7295532 -10.37796 1.7295532z" fill-rule="evenodd"/><path fill="#000000" fill-opacity="0.0" d="m456.16534 492.2152l0 0c5.731598 0 10.37796 0.77438354 10.37796 1.7296143l0 29.013245c0 0.95526123 4.6463623 1.7296143 10.37796 1.7296143l0 0c-5.731598 0 -10.37796 0.774353 -10.37796 1.7295532l0 29.013306c0 0.9552002 -4.6463623 1.7295532 -10.37796 1.7295532" fill-rule="evenodd"/><path stroke="#000000" stroke-width="1.0" stroke-linejoin="round" stroke-linecap="butt" d="m456.16534 492.2152l0 0c5.731598 0 10.37796 0.77438354 10.37796 1.7296143l0 29.013245c0 0.95526123 4.6463623 1.7296143 10.37796 1.7296143l0 0c-5.731598 0 -10.37796 0.774353 -10.37796 1.7295532l0 29.013306c0 0.9552002 -4.6463623 1.7295532 -10.37796 1.7295532" fill-rule="evenodd"/><path fill="#000000" fill-opacity="0.0" d="m534.33594 492.34122l0 70.61417l-49.763763 0l0 -70.61417z" fill-rule="evenodd"/><path fill="#000000" d="m490.97595 522.67175l0 -1.578125l3.265625 -1.515625q0.375 -0.171875 0.625 -0.359375q0.25 -0.171875 0.390625 -0.390625q0.140625 -0.203125 0.203125 -0.453125q0.0625 -0.234375 0.0625 -0.546875l0 -0.65625l-4.546875 0l0 -1.390625l10.21875 0l0 2.734375q0 0.890625 -0.203125 1.53125q-0.1875 0.640625 -0.546875 1.046875q-0.34375 0.421875 -0.84375 0.609375q-0.5 0.1875 -1.09375 0.1875q-0.484375 0 -0.90625 -0.140625q-0.421875 -0.140625 -0.78125 -0.421875q-0.34375 -0.265625 -0.59375 -0.6875q-0.25 -0.40625 -0.375 -0.9375q-0.15625 0.4375 -0.53125 0.734375q-0.359375 0.296875 -0.984375 0.609375l-3.359375 1.625zm7.40625 -2.234375q0.828125 0 1.234375 -0.515625q0.40625 -0.5 0.40625 -1.4375l0 -1.3125l-3.375 0l0 1.125q0 0.5 0.109375 0.890625q0.109375 0.390625 0.328125 0.671875q0.234375 0.28125 0.546875 0.421875q0.328125 0.15625 0.75 0.15625zm-2.234375 11.1875q-1.375 0 -2.375 -0.328125q-1.0 -0.328125 -1.65625 -0.875q-0.640625 -0.546875 -0.96875 -1.296875q-0.3125 -0.734375 -0.3125 -1.546875q0 -0.984375 0.359375 -1.71875q0.359375 -0.734375 1.03125 -1.21875q0.671875 -0.46875 1.625 -0.703125q0.96875 -0.234375 2.1875 -0.234375q1.359375 0 2.359375 0.3125q1.0 0.328125 1.640625 0.875q0.65625 0.546875 0.96875 1.28125q0.328125 0.734375 0.328125 1.5625q0 0.984375 -0.359375 1.703125q-0.359375 0.734375 -1.03125 1.21875q-0.671875 0.484375 -1.640625 0.71875q-0.953125 0.25 -2.15625 0.25zm-0.09375 -1.453125q0.890625 0 1.640625 -0.140625q0.75 -0.125 1.28125 -0.4375q0.546875 -0.296875 0.84375 -0.78125q0.296875 -0.484375 0.296875 -1.15625q0 -0.65625 -0.328125 -1.140625q-0.3125 -0.46875 -0.859375 -0.78125q-0.53125 -0.296875 -1.265625 -0.453125q-0.734375 -0.140625 -1.546875 -0.140625q-0.90625 0 -1.65625 0.140625q-0.75 0.140625 -1.28125 0.4375q-0.53125 0.3125 -0.828125 0.78125q-0.296875 0.484375 -0.296875 1.15625q0 0.65625 0.3125 1.125q0.3125 0.484375 0.859375 0.78125q0.546875 0.3125 1.265625 0.453125q0.734375 0.15625 1.5625 0.15625zm-5.078125 10.296875l0 -1.359375l6.375 -0.203125l2.4375 -0.09375l-1.421875 -0.46875l-4.0625 -1.515625l0 -0.953125l3.90625 -1.4375l1.578125 -0.484375l-2.546875 -0.03125l-6.265625 -0.171875l0 -1.3125l10.21875 0.5l0 1.640625l-3.84375 1.375l-1.296875 0.453125l1.296875 0.421875l3.84375 1.453125l0 1.6875l-10.21875 0.5z" fill-rule="nonzero"/></g></svg>