<svg version="1.1" viewBox="0.0 0.0 686.4225721784777 454.8530183727034" fill="none" stroke="none" stroke-linecap="square" stroke-miterlimit="10" xmlns:xlink="http://www.w3.org/1999/xlink" xmlns="http://www.w3.org/2000/svg"><clipPath id="p.0"><path d="m0 0l686.42255 0l0 454.85303l-686.42255 0l0 -454.85303z" clip-rule="nonzero"/></clipPath><g clip-path="url(#p.0)"><path fill="#000000" fill-opacity="0.0" d="m0 0l686.42255 0l0 454.85303l-686.42255 0z" fill-rule="evenodd"/><path fill="#bf9000" d="m131.23885 362.37796l420.3465 0l0 70.86612l-420.3465 0z" fill-rule="evenodd"/><path stroke="#000000" stroke-width="1.0" stroke-linejoin="round" stroke-linecap="butt" d="m131.23885 362.37796l420.3465 0l0 70.86612l-420.3465 0z" fill-rule="evenodd"/><path fill="#000000" d="m336.43552 403.67102l-1.578125 0l-1.515625 -3.265625q-0.171875 -0.375 -0.359375 -0.625q-0.171875 -0.25 -0.390625 -0.390625q-0.203125 -0.140625 -0.453125 -0.203125q-0.234375 -0.0625 -0.546875 -0.0625l-0.65625 0l0 4.546875l-1.390625 0l0 -10.21875l2.734375 0q0.890625 0 1.53125 0.203125q0.640625 0.1875 1.046875 0.546875q0.421875 0.34375 0.609375 0.84375q0.1875 0.5 0.1875 1.09375q0 0.484375 -0.140625 0.90625q-0.140625 0.421875 -0.421875 0.78125q-0.265625 0.34375 -0.6875 0.59375q-0.40625 0.25 -0.9375 0.375q0.4375 0.15625 0.734375 0.53125q0.296875 0.359375 0.609375 0.984375l1.625 3.359375zm-2.234375 -7.40625q0 -0.828125 -0.515625 -1.234375q-0.5 -0.40625 -1.4375 -0.40625l-1.3125 0l0 3.375l1.125 0q0.5 0 0.890625 -0.109375q0.390625 -0.109375 0.671875 -0.328125q0.28125 -0.234375 0.421875 -0.546875q0.15625 -0.328125 0.15625 -0.75zm11.1875 2.234375q0 1.375 -0.328125 2.375q-0.328125 1.0 -0.875 1.65625q-0.546875 0.640625 -1.296875 0.96875q-0.734375 0.3125 -1.546875 0.3125q-0.984375 0 -1.71875 -0.359375q-0.734375 -0.359375 -1.21875 -1.03125q-0.46875 -0.671875 -0.703125 -1.625q-0.234375 -0.96875 -0.234375 -2.1875q0 -1.359375 0.3125 -2.359375q0.328125 -1.0 0.875 -1.640625q0.546875 -0.65625 1.28125 -0.96875q0.734375 -0.328125 1.5625 -0.328125q0.984375 0 1.703125 0.359375q0.734375 0.359375 1.21875 1.03125q0.484375 0.671875 0.71875 1.640625q0.25 0.953125 0.25 2.15625zm-1.453125 0.09375q0 -0.890625 -0.140625 -1.640625q-0.125 -0.75 -0.4375 -1.28125q-0.296875 -0.546875 -0.78125 -0.84375q-0.484375 -0.296875 -1.15625 -0.296875q-0.65625 0 -1.140625 0.328125q-0.46875 0.3125 -0.78125 0.859375q-0.296875 0.53125 -0.453125 1.265625q-0.140625 0.734375 -0.140625 1.546875q0 0.90625 0.140625 1.65625q0.140625 0.75 0.4375 1.28125q0.3125 0.53125 0.78125 0.828125q0.484375 0.296875 1.15625 0.296875q0.65625 0 1.125 -0.3125q0.484375 -0.3125 0.78125 -0.859375q0.3125 -0.546875 0.453125 -1.265625q0.15625 -0.734375 0.15625 -1.5625zm10.296875 5.078125l-1.359375 0l-0.203125 -6.375l-0.09375 -2.4375l-0.46875 1.421875l-1.515625 4.0625l-0.953125 0l-1.4375 -3.90625l-0.484375 -1.578125l-0.03125 2.546875l-0.171875 6.265625l-1.3125 0l0.5 -10.21875l1.640625 0l1.375 3.84375l0.453125 1.296875l0.421875 -1.296875l1.453125 -3.84375l1.6875 0l0.5 10.21875z" fill-rule="nonzero"/><path fill="#f1c232" d="m131.23885 269.9895l420.3465 0l0 70.86615l-420.3465 0z" fill-rule="evenodd"/><path stroke="#000000" stroke-width="1.0" stroke-linejoin="round" stroke-linecap="butt" d="m131.23885 269.9895l420.3465 0l0 70.86615l-420.3465 0z" fill-rule="evenodd"/><path fill="#000000" d="m318.84177 311.28256l-1.578125 0l-1.515625 -3.265625q-0.171875 -0.375 -0.359375 -0.625q-0.171875 -0.25 -0.390625 -0.390625q-0.203125 -0.140625 -0.453125 -0.203125q-0.234375 -0.0625 -0.546875 -0.0625l-0.65625 0l0 4.546875l-1.390625 0l0 -10.21875l2.734375 0q0.890625 0 1.53125 0.203125q0.640625 0.1875 1.046875 0.546875q0.421875 0.34375 0.609375 0.84375q0.1875 0.5 0.1875 1.09375q0 0.484375 -0.140625 0.90625q-0.140625 0.421875 -0.421875 0.78125q-0.265625 0.34375 -0.6875 0.59375q-0.40625 0.25 -0.9375 0.375q0.4375 0.15625 0.734375 0.53125q0.296875 0.359375 0.609375 0.984375l1.625 3.359375zm-2.234375 -7.40625q0 -0.828125 -0.515625 -1.234375q-0.5 -0.40625 -1.4375 -0.40625l-1.3125 0l0 3.375l1.125 0q0.5 0 0.890625 -0.109375q0.390625 -0.109375 0.671875 -0.328125q0.28125 -0.234375 0.421875 -0.546875q0.15625 -0.328125 0.15625 -0.75zm11.1875 2.234375q0 1.375 -0.328125 2.375q-0.328125 1.0 -0.875 1.65625q-0.546875 0.640625 -1.296875 0.96875q-0.734375 0.3125 -1.546875 0.3125q-0.984375 0 -1.71875 -0.359375q-0.734375 -0.359375 -1.21875 -1.03125q-0.46875 -0.671875 -0.703125 -1.625q-0.234375 -0.96875 -0.234375 -2.1875q0 -1.359375 0.3125 -2.359375q0.328125 -1.0 0.875 -1.640625q0.546875 -0.65625 1.28125 -0.96875q0.734375 -0.328125 1.5625 -0.328125q0.984375 0 1.703125 0.359375q0.734375 0.359375 1.21875 1.03125q0.484375 0.671875 0.71875 1.640625q0.25 0.953125 0.25 2.15625zm-1.453125 0.09375q0 -0.890625 -0.140625 -1.640625q-0.125 -0.75 -0.4375 -1.28125q-0.296875 -0.546875 -0.78125 -0.84375q-0.484375 -0.296875 -1.15625 -0.296875q-0.65625 0 -1.140625 0.328125q-0.46875 0.3125 -0.78125 0.859375q-0.296875 0.53125 -0.453125 1.265625q-0.140625 0.734375 -0.140625 1.546875q0 0.90625 0.140625 1.65625q0.140625 0.75 0.4375 1.28125q0.3125 0.53125 0.78125 0.828125q0.484375 0.296875 1.15625 0.296875q0.65625 0 1.125 -0.3125q0.484375 -0.3125 0.78125 -0.859375q0.3125 -0.546875 0.453125 -1.265625q0.15625 -0.734375 0.15625 -1.5625zm10.296875 5.078125l-1.359375 0l-0.203125 -6.375l-0.09375 -2.4375l-0.46875 1.421875l-1.515625 4.0625l-0.953125 0l-1.4375 -3.90625l-0.484375 -1.578125l-0.03125 2.546875l-0.171875 6.265625l-1.3125 0l0.5 -10.21875l1.640625 0l1.375 3.84375l0.453125 1.296875l0.421875 -1.296875l1.453125 -3.84375l1.6875 0l0.5 10.21875zm9.171875 3.203125l-8.796875 0l0 -1.125l8.796875 0l0 1.125zm7.875 -7.546875q0 0.296875 -0.015625 0.5q0 0.1875 -0.015625 0.359375l-5.5 0q0 1.203125 0.671875 1.84375q0.671875 0.640625 1.9375 0.640625q0.34375 0 0.6875 -0.015625q0.34375 -0.03125 0.65625 -0.078125q0.328125 -0.046875 0.609375 -0.109375q0.296875 -0.0625 0.546875 -0.125l0 1.109375q-0.546875 0.15625 -1.25 0.25q-0.703125 0.109375 -1.453125 0.109375q-1.0 0 -1.734375 -0.265625q-0.71875 -0.28125 -1.1875 -0.796875q-0.46875 -0.53125 -0.6875 -1.28125q-0.21875 -0.75 -0.21875 -1.703125q0 -0.828125 0.234375 -1.5625q0.234375 -0.75 0.6875 -1.296875q0.46875 -0.5625 1.125 -0.890625q0.671875 -0.328125 1.515625 -0.328125q0.8125 0 1.4375 0.265625q0.640625 0.25 1.078125 0.71875q0.4375 0.46875 0.65625 1.15625q0.21875 0.671875 0.21875 1.5zm-1.40625 -0.1875q0.015625 -0.53125 -0.109375 -0.953125q-0.125 -0.4375 -0.390625 -0.75q-0.25 -0.3125 -0.640625 -0.484375q-0.390625 -0.1875 -0.90625 -0.1875q-0.453125 0 -0.828125 0.171875q-0.359375 0.171875 -0.625 0.484375q-0.265625 0.3125 -0.4375 0.75q-0.15625 0.4375 -0.1875 0.96875l4.125 0zm10.65625 4.53125l-1.8125 0l-2.109375 -3.0l-2.09375 3.0l-1.765625 0l3.046875 -3.9375l-2.90625 -3.90625l1.75 0l2.0625 3.015625l2.015625 -3.015625l1.6875 0l-2.953125 3.9375l3.078125 3.90625zm8.046875 -0.109375q-0.46875 0.125 -0.96875 0.171875q-0.484375 0.046875 -0.984375 0.046875q-1.484375 0 -2.21875 -0.671875q-0.71875 -0.671875 -0.71875 -2.046875l0 -4.09375l-2.1875 0l0 -1.140625l2.1875 0l0 -2.15625l1.359375 -0.359375l0 2.515625l3.53125 0l0 1.140625l-3.53125 0l0 3.984375q0 0.84375 0.453125 1.265625q0.453125 0.40625 1.328125 0.40625q0.375 0 0.8125 -0.046875q0.453125 -0.0625 0.9375 -0.1875l0 1.171875z" fill-rule="nonzero"/><path fill="#ea9999" d="m131.23885 177.60104l420.3465 0l0 70.86615l-420.3465 0z" fill-rule="evenodd"/><path stroke="#000000" stroke-width="1.0" stroke-linejoin="round" stroke-linecap="butt" d="m131.23885 177.60104l420.3465 0l0 70.86615l-420.3465 0z" fill-rule="evenodd"/><path fill="#000000" d="m318.56052 215.83162q0 0.734375 -0.28125 1.3125q-0.28125 0.5625 -0.8125 0.953125q-0.53125 0.390625 -1.28125 0.59375q-0.734375 0.203125 -1.65625 0.203125l-2.671875 0l0 -10.21875l2.921875 0q3.421875 0 3.421875 2.484375q0 0.828125 -0.40625 1.421875q-0.390625 0.59375 -1.28125 0.890625q0.421875 0.078125 0.78125 0.265625q0.375 0.1875 0.65625 0.484375q0.28125 0.296875 0.4375 0.703125q0.171875 0.40625 0.171875 0.90625zm-1.8125 -4.484375q0 -0.3125 -0.09375 -0.578125q-0.09375 -0.28125 -0.328125 -0.484375q-0.234375 -0.203125 -0.640625 -0.3125q-0.390625 -0.125 -1.0 -0.125l-1.4375 0l0 3.203125l1.390625 0q0.484375 0 0.859375 -0.09375q0.390625 -0.109375 0.671875 -0.3125q0.28125 -0.21875 0.421875 -0.53125q0.15625 -0.328125 0.15625 -0.765625zm0.34375 4.53125q0 -0.390625 -0.171875 -0.703125q-0.15625 -0.3125 -0.46875 -0.515625q-0.3125 -0.21875 -0.765625 -0.328125q-0.453125 -0.125 -1.015625 -0.125l-1.421875 0l0 3.515625l1.46875 0q1.203125 0 1.78125 -0.4375q0.59375 -0.453125 0.59375 -1.40625zm10.03125 3.015625l-5.875 0l0 -10.21875l1.40625 0l0 9.03125l4.46875 0l0 1.1875zm8.109375 3.203125l-0.578125 0q-1.515625 0 -2.25 -0.703125q-0.734375 -0.703125 -0.734375 -2.140625l0 -2.703125q0 -0.375 -0.09375 -0.671875q-0.078125 -0.3125 -0.296875 -0.515625q-0.203125 -0.203125 -0.5625 -0.3125q-0.359375 -0.109375 -0.890625 -0.109375l-0.34375 0l0 -1.09375l0.34375 0q0.5625 0 0.921875 -0.09375q0.359375 -0.09375 0.5625 -0.28125q0.203125 -0.1875 0.28125 -0.484375q0.078125 -0.296875 0.078125 -0.703125l0 -1.859375q0 -0.65625 0.15625 -1.171875q0.15625 -0.53125 0.515625 -0.90625q0.359375 -0.375 0.921875 -0.5625q0.5625 -0.203125 1.390625 -0.203125l0.578125 0l0 1.09375l-0.46875 0q-1.8125 0 -1.8125 1.75l0 1.828125q0 1.90625 -1.640625 2.140625q1.65625 0.171875 1.65625 2.140625l0 2.6875q0 1.78125 1.796875 1.78125l0.46875 0l0 1.09375zm9.890625 -8.3125q0 1.171875 -0.234375 2.140625q-0.234375 0.96875 -0.71875 1.65625q-0.46875 0.6875 -1.171875 1.078125q-0.703125 0.375 -1.65625 0.375q-0.828125 0 -1.5 -0.3125q-0.671875 -0.3125 -1.15625 -0.953125q-0.46875 -0.640625 -0.734375 -1.625q-0.25 -1.0 -0.25 -2.359375q0 -1.171875 0.234375 -2.140625q0.25 -0.96875 0.71875 -1.65625q0.46875 -0.6875 1.171875 -1.0625q0.71875 -0.390625 1.671875 -0.390625q0.8125 0 1.484375 0.3125q0.671875 0.3125 1.140625 0.953125q0.484375 0.640625 0.734375 1.640625q0.265625 0.984375 0.265625 2.34375zm-1.375 0.046875q0 -0.265625 -0.015625 -0.515625q-0.015625 -0.265625 -0.046875 -0.515625l-4.3125 3.203125q0.109375 0.40625 0.28125 0.75q0.1875 0.34375 0.4375 0.59375q0.265625 0.25 0.578125 0.390625q0.328125 0.125 0.75 0.125q0.53125 0 0.953125 -0.25q0.4375 -0.265625 0.734375 -0.765625q0.3125 -0.515625 0.46875 -1.265625q0.171875 -0.75 0.171875 -1.75zm-4.671875 -0.09375q0 0.25 0 0.5q0.015625 0.234375 0.03125 0.453125l4.328125 -3.1875q-0.125 -0.40625 -0.3125 -0.734375q-0.171875 -0.328125 -0.421875 -0.5625q-0.25 -0.234375 -0.578125 -0.359375q-0.3125 -0.140625 -0.703125 -0.140625q-0.53125 0 -0.96875 0.265625q-0.4375 0.25 -0.75 0.765625q-0.296875 0.5 -0.46875 1.265625q-0.15625 0.75 -0.15625 1.734375zm15.53125 8.359375l-8.796875 0l0 -1.125l8.796875 0l0 1.125zm7.875 -3.203125l-1.8125 0l-2.96875 -6.375l-0.859375 -2.046875l0 5.15625l0 3.265625l-1.296875 0l0 -10.21875l1.78125 0l2.84375 6.03125l1.015625 2.34375l0 -5.46875l0 -2.90625l1.296875 0l0 10.21875zm2.71875 -11.3125l0.578125 0q1.5 0 2.234375 0.703125q0.734375 0.703125 0.734375 2.140625l0 1.8125q0 0.375 0.078125 0.6875q0.09375 0.296875 0.3125 0.5q0.21875 0.203125 0.578125 0.3125q0.359375 0.109375 0.890625 0.109375l0.34375 0l0 1.09375l-0.34375 0q-0.5625 0 -0.9375 0.09375q-0.359375 0.09375 -0.5625 0.28125q-0.203125 0.1875 -0.28125 0.484375q-0.078125 0.296875 -0.078125 0.703125l0 2.75q0 0.65625 -0.15625 1.171875q-0.15625 0.53125 -0.515625 0.90625q-0.34375 0.375 -0.921875 0.5625q-0.5625 0.203125 -1.375 0.203125l-0.578125 0l0 -1.09375l0.46875 0q1.796875 0 1.796875 -1.75l0 -2.71875q0 -1.90625 1.65625 -2.140625q-1.671875 -0.171875 -1.671875 -2.140625l0 -1.796875q0 -1.78125 -1.78125 -1.78125l-0.46875 0l0 -1.09375z" fill-rule="nonzero"/><path fill="#f4cccc" d="m131.23885 85.2126l420.3465 0l0 70.866135l-420.3465 0z" fill-rule="evenodd"/><path stroke="#000000" stroke-width="1.0" stroke-linejoin="round" stroke-linecap="butt" d="m131.23885 85.2126l420.3465 0l0 70.866135l-420.3465 0z" fill-rule="evenodd"/><path fill="#000000" d="m323.20895 126.50567l-1.75 0l-3.828125 -5.015625l0 5.015625l-1.390625 0l0 -10.21875l1.390625 0l0 4.75l3.75 -4.75l1.640625 0l-4.03125 4.859375l4.21875 5.359375zm8.484375 -4.34375q0 0.296875 -0.015625 0.5q0 0.1875 -0.015625 0.359375l-5.5 0q0 1.203125 0.671875 1.84375q0.671875 0.640625 1.9375 0.640625q0.34375 0 0.6875 -0.015625q0.34375 -0.03125 0.65625 -0.078125q0.328125 -0.046875 0.609375 -0.109375q0.296875 -0.0625 0.546875 -0.125l0 1.109375q-0.546875 0.15625 -1.25 0.25q-0.703125 0.109375 -1.453125 0.109375q-1.0 0 -1.734375 -0.265625q-0.71875 -0.28125 -1.1875 -0.796875q-0.46875 -0.53125 -0.6875 -1.28125q-0.21875 -0.75 -0.21875 -1.703125q0 -0.828125 0.234375 -1.5625q0.234375 -0.75 0.6875 -1.296875q0.46875 -0.5625 1.125 -0.890625q0.671875 -0.328125 1.515625 -0.328125q0.8125 0 1.4375 0.265625q0.640625 0.25 1.078125 0.71875q0.4375 0.46875 0.65625 1.15625q0.21875 0.671875 0.21875 1.5zm-1.40625 -0.1875q0.015625 -0.53125 -0.109375 -0.953125q-0.125 -0.4375 -0.390625 -0.75q-0.25 -0.3125 -0.640625 -0.484375q-0.390625 -0.1875 -0.90625 -0.1875q-0.453125 0 -0.828125 0.171875q-0.359375 0.171875 -0.625 0.484375q-0.265625 0.3125 -0.4375 0.75q-0.15625 0.4375 -0.1875 0.96875l4.125 0zm3.90625 -3.3125l1.234375 0l0.046875 1.4375q0.6875 -0.828125 1.359375 -1.203125q0.6875 -0.375 1.375 -0.375q1.21875 0 1.84375 0.796875q0.625 0.78125 0.578125 2.328125l-1.375 0q0.03125 -1.03125 -0.296875 -1.484375q-0.328125 -0.46875 -0.953125 -0.46875q-0.265625 0 -0.546875 0.09375q-0.28125 0.09375 -0.578125 0.3125q-0.28125 0.21875 -0.609375 0.5625q-0.328125 0.328125 -0.703125 0.796875l0 5.046875l-1.375 0l0 -7.84375zm8.46875 0l1.21875 0l0.046875 1.265625q0.34375 -0.40625 0.65625 -0.671875q0.328125 -0.28125 0.640625 -0.4375q0.3125 -0.171875 0.625 -0.234375q0.328125 -0.0625 0.671875 -0.0625q1.203125 0 1.828125 0.71875q0.625 0.703125 0.625 2.140625l0 5.125l-1.359375 0l0 -5.015625q0 -0.921875 -0.34375 -1.359375q-0.34375 -0.4375 -1.03125 -0.4375q-0.25 0 -0.484375 0.078125q-0.234375 0.0625 -0.5 0.25q-0.25 0.1875 -0.5625 0.5q-0.296875 0.3125 -0.671875 0.78125l0 5.203125l-1.359375 0l0 -7.84375zm15.421875 3.5q0 0.296875 -0.015625 0.5q0 0.1875 -0.015625 0.359375l-5.5 0q0 1.203125 0.671875 1.84375q0.671875 0.640625 1.9375 0.640625q0.34375 0 0.6875 -0.015625q0.34375 -0.03125 0.65625 -0.078125q0.328125 -0.046875 0.609375 -0.109375q0.296875 -0.0625 0.546875 -0.125l0 1.109375q-0.546875 0.15625 -1.25 0.25q-0.703125 0.109375 -1.453125 0.109375q-1.0 0 -1.734375 -0.265625q-0.71875 -0.28125 -1.1875 -0.796875q-0.46875 -0.53125 -0.6875 -1.28125q-0.21875 -0.75 -0.21875 -1.703125q0 -0.828125 0.234375 -1.5625q0.234375 -0.75 0.6875 -1.296875q0.46875 -0.5625 1.125 -0.890625q0.671875 -0.328125 1.515625 -0.328125q0.8125 0 1.4375 0.265625q0.640625 0.25 1.078125 0.71875q0.4375 0.46875 0.65625 1.15625q0.21875 0.671875 0.21875 1.5zm-1.40625 -0.1875q0.015625 -0.53125 -0.109375 -0.953125q-0.125 -0.4375 -0.390625 -0.75q-0.25 -0.3125 -0.640625 -0.484375q-0.390625 -0.1875 -0.90625 -0.1875q-0.453125 0 -0.828125 0.171875q-0.359375 0.171875 -0.625 0.484375q-0.265625 0.3125 -0.4375 0.75q-0.15625 0.4375 -0.1875 0.96875l4.125 0zm6.25 -5.390625l-2.3125 0l0 -1.125l3.6875 0l0 9.90625l2.34375 0l0 1.140625l-6.296875 0l0 -1.140625l2.578125 0l0 -8.78125z" fill-rule="nonzero"/><path fill="#d9ead3" d="m131.23885 31.065533l93.19685 0l0 44.85039l-93.19685 0z" fill-rule="evenodd"/><path stroke="#000000" stroke-width="1.0" stroke-linejoin="round" stroke-linecap="butt" d="m131.23885 31.065533l93.19685 0l0 44.85039l-93.19685 0z" fill-rule="evenodd"/><path fill="#000000" d="m168.96227 59.35073l-1.515625 0l-0.703125 -2.234375l-4.25 0l-0.71875 2.234375l-1.453125 0l3.390625 -10.21875l1.90625 0l3.34375 10.21875zm-2.625 -3.46875l-1.71875 -5.46875l-1.734375 5.46875l3.453125 0zm10.65625 -0.59375q0 1.046875 -0.296875 1.828125q-0.28125 0.78125 -0.796875 1.296875q-0.515625 0.515625 -1.21875 0.78125q-0.703125 0.25 -1.53125 0.25q-0.375 0 -0.75 -0.046875q-0.359375 -0.03125 -0.75 -0.125l0 3.28125l-1.359375 0l0 -11.046875l1.21875 0l0.078125 1.3125q0.59375 -0.8125 1.25 -1.125q0.671875 -0.328125 1.4375 -0.328125q0.671875 0 1.171875 0.28125q0.515625 0.28125 0.859375 0.796875q0.34375 0.5 0.515625 1.234375q0.171875 0.71875 0.171875 1.609375zm-1.390625 0.0625q0 -0.625 -0.09375 -1.140625q-0.078125 -0.515625 -0.28125 -0.875q-0.1875 -0.375 -0.5 -0.578125q-0.296875 -0.203125 -0.71875 -0.203125q-0.265625 0 -0.53125 0.078125q-0.265625 0.078125 -0.546875 0.28125q-0.28125 0.1875 -0.609375 0.5q-0.3125 0.3125 -0.671875 0.78125l0 3.8125q0.375 0.15625 0.78125 0.25q0.421875 0.078125 0.828125 0.078125q1.09375 0 1.71875 -0.734375q0.625 -0.75 0.625 -2.25zm10.1875 -0.0625q0 1.046875 -0.296875 1.828125q-0.28125 0.78125 -0.796875 1.296875q-0.515625 0.515625 -1.21875 0.78125q-0.703125 0.25 -1.53125 0.25q-0.375 0 -0.75 -0.046875q-0.359375 -0.03125 -0.75 -0.125l0 3.28125l-1.359375 0l0 -11.046875l1.21875 0l0.078125 1.3125q0.59375 -0.8125 1.25 -1.125q0.671875 -0.328125 1.4375 -0.328125q0.671875 0 1.171875 0.28125q0.515625 0.28125 0.859375 0.796875q0.34375 0.5 0.515625 1.234375q0.171875 0.71875 0.171875 1.609375zm-1.390625 0.0625q0 -0.625 -0.09375 -1.140625q-0.078125 -0.515625 -0.28125 -0.875q-0.1875 -0.375 -0.5 -0.578125q-0.296875 -0.203125 -0.71875 -0.203125q-0.265625 0 -0.53125 0.078125q-0.265625 0.078125 -0.546875 0.28125q-0.28125 0.1875 -0.609375 0.5q-0.3125 0.3125 -0.671875 0.78125l0 3.8125q0.375 0.15625 0.78125 0.25q0.421875 0.078125 0.828125 0.078125q1.09375 0 1.71875 -0.734375q0.625 -0.75 0.625 -2.25zm10.34375 -1.109375q0 1.171875 -0.234375 2.140625q-0.234375 0.96875 -0.71875 1.65625q-0.46875 0.6875 -1.171875 1.078125q-0.703125 0.375 -1.65625 0.375q-0.828125 0 -1.5 -0.3125q-0.671875 -0.3125 -1.15625 -0.953125q-0.46875 -0.640625 -0.734375 -1.625q-0.25 -1.0 -0.25 -2.359375q0 -1.171875 0.234375 -2.140625q0.25 -0.96875 0.71875 -1.65625q0.46875 -0.6875 1.171875 -1.0625q0.71875 -0.390625 1.671875 -0.390625q0.8125 0 1.484375 0.3125q0.671875 0.3125 1.140625 0.953125q0.484375 0.640625 0.734375 1.640625q0.265625 0.984375 0.265625 2.34375zm-1.375 0.046875q0 -0.265625 -0.015625 -0.515625q-0.015625 -0.265625 -0.046875 -0.515625l-4.3125 3.203125q0.109375 0.40625 0.28125 0.75q0.1875 0.34375 0.4375 0.59375q0.265625 0.25 0.578125 0.390625q0.328125 0.125 0.75 0.125q0.53125 0 0.953125 -0.25q0.4375 -0.265625 0.734375 -0.765625q0.3125 -0.515625 0.46875 -1.265625q0.171875 -0.75 0.171875 -1.75zm-4.671875 -0.09375q0 0.25 0 0.5q0.015625 0.234375 0.03125 0.453125l4.328125 -3.1875q-0.125 -0.40625 -0.3125 -0.734375q-0.171875 -0.328125 -0.421875 -0.5625q-0.25 -0.234375 -0.578125 -0.359375q-0.3125 -0.140625 -0.703125 -0.140625q-0.53125 0 -0.96875 0.265625q-0.4375 0.25 -0.75 0.765625q-0.296875 0.5 -0.46875 1.265625q-0.15625 0.75 -0.15625 1.734375z" fill-rule="nonzero"/><path fill="#cfe2f3" d="m241.04819 63.76438l0 0c0 -4.122566 3.3419952 -7.4645653 7.464554 -7.4645653l0 0c1.9797363 0 3.8783722 0.7864418 5.2782593 2.1863213c1.3998718 1.3998756 2.1863098 3.2985191 2.1863098 5.278244l0 0c0 4.122566 -3.3419952 7.464569 -7.464569 7.464569l0 0c-4.1225586 0 -7.464554 -3.3420029 -7.464554 -7.464569z" fill-rule="evenodd"/><path stroke="#000000" stroke-width="1.0" stroke-linejoin="round" stroke-linecap="butt" d="m241.04819 63.76438l0 0c0 -4.122566 3.3419952 -7.4645653 7.464554 -7.4645653l0 0c1.9797363 0 3.8783722 0.7864418 5.2782593 2.1863213c1.3998718 1.3998756 2.1863098 3.2985191 2.1863098 5.278244l0 0c0 4.122566 -3.3419952 7.464569 -7.464569 7.464569l0 0c-4.1225586 0 -7.464554 -3.3420029 -7.464554 -7.464569z" fill-rule="evenodd"/><path fill="#cfe2f3" d="m289.0482 63.76438l0 0c0 -4.122566 3.34198 -7.4645653 7.464569 -7.4645653l0 0c1.9797058 0 3.878357 0.7864418 5.2782288 2.1863213c1.3998718 1.3998756 2.1863403 3.2985191 2.1863403 5.278244l0 0c0 4.122566 -3.3420105 7.464569 -7.464569 7.464569l0 0c-4.122589 0 -7.464569 -3.3420029 -7.464569 -7.464569z" fill-rule="evenodd"/><path stroke="#000000" stroke-width="1.0" stroke-linejoin="round" stroke-linecap="butt" d="m289.0482 63.76438l0 0c0 -4.122566 3.34198 -7.4645653 7.464569 -7.4645653l0 0c1.9797058 0 3.878357 0.7864418 5.2782288 2.1863213c1.3998718 1.3998756 2.1863403 3.2985191 2.1863403 5.278244l0 0c0 4.122566 -3.3420105 7.464569 -7.464569 7.464569l0 0c-4.122589 0 -7.464569 -3.3420029 -7.464569 -7.464569z" fill-rule="evenodd"/><path fill="#cfe2f3" d="m337.0482 63.76438l0 0c0 -4.122566 3.34198 -7.4645653 7.464569 -7.4645653l0 0c1.9797058 0 3.878357 0.7864418 5.2782288 2.1863213c1.3998718 1.3998756 2.1863403 3.2985191 2.1863403 5.278244l0 0c0 4.122566 -3.3420105 7.464569 -7.464569 7.464569l0 0c-4.122589 0 -7.464569 -3.3420029 -7.464569 -7.464569z" fill-rule="evenodd"/><path stroke="#000000" stroke-width="1.0" stroke-linejoin="round" stroke-linecap="butt" d="m337.0482 63.76438l0 0c0 -4.122566 3.34198 -7.4645653 7.464569 -7.4645653l0 0c1.9797058 0 3.878357 0.7864418 5.2782288 2.1863213c1.3998718 1.3998756 2.1863403 3.2985191 2.1863403 5.278244l0 0c0 4.122566 -3.3420105 7.464569 -7.464569 7.464569l0 0c-4.122589 0 -7.464569 -3.3420029 -7.464569 -7.464569z" fill-rule="evenodd"/><path fill="#cfe2f3" d="m385.0482 63.76438l0 0c0 -4.122566 3.34198 -7.4645653 7.464569 -7.4645653l0 0c1.9797058 0 3.878357 0.7864418 5.2782288 2.1863213c1.3998718 1.3998756 2.1863403 3.2985191 2.1863403 5.278244l0 0c0 4.122566 -3.3420105 7.464569 -7.464569 7.464569l0 0c-4.122589 0 -7.464569 -3.3420029 -7.464569 -7.464569z" fill-rule="evenodd"/><path stroke="#000000" stroke-width="1.0" stroke-linejoin="round" stroke-linecap="butt" d="m385.0482 63.76438l0 0c0 -4.122566 3.34198 -7.4645653 7.464569 -7.4645653l0 0c1.9797058 0 3.878357 0.7864418 5.2782288 2.1863213c1.3998718 1.3998756 2.1863403 3.2985191 2.1863403 5.278244l0 0c0 4.122566 -3.3420105 7.464569 -7.464569 7.464569l0 0c-4.122589 0 -7.464569 -3.3420029 -7.464569 -7.464569z" fill-rule="evenodd"/><path fill="#cfe2f3" d="m433.0482 63.76438l0 0c0 -4.122566 3.34198 -7.4645653 7.464569 -7.4645653l0 0c1.9797058 0 3.878357 0.7864418 5.2782288 2.1863213c1.3998718 1.3998756 2.1863403 3.2985191 2.1863403 5.278244l0 0c0 4.122566 -3.3420105 7.464569 -7.464569 7.464569l0 0c-4.122589 0 -7.464569 -3.3420029 -7.464569 -7.464569z" fill-rule="evenodd"/><path stroke="#000000" stroke-width="1.0" stroke-linejoin="round" stroke-linecap="butt" d="m433.0482 63.76438l0 0c0 -4.122566 3.34198 -7.4645653 7.464569 -7.4645653l0 0c1.9797058 0 3.878357 0.7864418 5.2782288 2.1863213c1.3998718 1.3998756 2.1863403 3.2985191 2.1863403 5.278244l0 0c0 4.122566 -3.3420105 7.464569 -7.464569 7.464569l0 0c-4.122589 0 -7.464569 -3.3420029 -7.464569 -7.464569z" fill-rule="evenodd"/><path fill="#000000" fill-opacity="0.0" d="m568.16534 32.147354l0 0c5.7315674 0 10.377991 0.7743645 10.377991 1.7295914l0 195.64319c0 0.9552307 4.6463623 1.7295837 10.37793 1.7295837l0 0c-5.7315674 0 -10.37793 0.7743683 -10.37793 1.729599l0 195.64319c0 0.9552307 -4.6464233 1.7295837 -10.377991 1.7295837z" fill-rule="evenodd"/><path fill="#000000" fill-opacity="0.0" d="m568.16534 32.147354l0 0c5.7315674 0 10.377991 0.7743645 10.377991 1.7295914l0 195.64319c0 0.9552307 4.6463623 1.7295837 10.37793 1.7295837l0 0c-5.7315674 0 -10.37793 0.7743683 -10.37793 1.729599l0 195.64319c0 0.9552307 -4.6464233 1.7295837 -10.377991 1.7295837" fill-rule="evenodd"/><path stroke="#000000" stroke-width="1.0" stroke-linejoin="round" stroke-linecap="butt" d="m568.16534 32.147354l0 0c5.7315674 0 10.377991 0.7743645 10.377991 1.7295914l0 195.64319c0 0.9552307 4.6463623 1.7295837 10.37793 1.7295837l0 0c-5.7315674 0 -10.37793 0.7743683 -10.37793 1.729599l0 195.64319c0 0.9552307 -4.6464233 1.7295837 -10.377991 1.7295837" fill-rule="evenodd"/><path fill="#000000" fill-opacity="0.0" d="m623.3439 97.524124l0 270.5197l-26.771667 0l0 -270.5197z" fill-rule="evenodd"/><path fill="#000000" d="m601.7495 174.60428q-0.71875 0 -1.265625 -0.296875q-0.546875 -0.296875 -0.921875 -0.828125q-0.359375 -0.53125 -0.546875 -1.28125q-0.171875 -0.75 -0.171875 -1.640625q0 -0.40625 0.03125 -0.8125q0.03125 -0.40625 0.078125 -0.78125q0.046875 -0.359375 0.109375 -0.6875q0.0625 -0.328125 0.140625 -0.59375l1.34375 0q-0.21875 0.578125 -0.34375 1.3125q-0.125 0.734375 -0.125 1.65625q0 0.671875 0.09375 1.140625q0.109375 0.484375 0.3125 0.78125q0.21875 0.296875 0.515625 0.4375q0.296875 0.140625 0.671875 0.140625q0.421875 0 0.703125 -0.234375q0.296875 -0.234375 0.53125 -0.609375q0.234375 -0.375 0.421875 -0.859375q0.1875 -0.46875 0.390625 -0.96875q0.203125 -0.5 0.4375 -0.984375q0.25 -0.484375 0.5625 -0.859375q0.328125 -0.375 0.765625 -0.609375q0.4375 -0.21875 1.046875 -0.21875q0.515625 0 1.015625 0.21875q0.515625 0.21875 0.90625 0.671875q0.40625 0.46875 0.640625 1.1875q0.25 0.71875 0.25 1.71875q0 0.265625 -0.03125 0.5625q-0.015625 0.296875 -0.0625 0.609375q-0.046875 0.3125 -0.109375 0.609375q-0.046875 0.296875 -0.109375 0.5625l-1.25 0q0.171875 -0.609375 0.265625 -1.21875q0.09375 -0.59375 0.09375 -1.15625q0 -1.1875 -0.40625 -1.75q-0.390625 -0.5625 -1.0625 -0.5625q-0.421875 0 -0.71875 0.21875q-0.296875 0.234375 -0.53125 0.609375q-0.234375 0.375 -0.421875 0.859375q-0.1875 0.484375 -0.390625 0.984375q-0.203125 0.5 -0.453125 0.96875q-0.234375 0.484375 -0.578125 0.859375q-0.328125 0.375 -0.78125 0.609375q-0.4375 0.234375 -1.046875 0.234375zm1.21875 9.078125q-0.90625 0 -1.671875 -0.265625q-0.765625 -0.25 -1.3125 -0.734375q-0.53125 -0.484375 -0.84375 -1.1875q-0.296875 -0.6875 -0.296875 -1.5625q0 -0.84375 0.265625 -1.515625q0.265625 -0.671875 0.765625 -1.140625q0.515625 -0.453125 1.265625 -0.703125q0.75 -0.25 1.71875 -0.25q0.921875 0 1.671875 0.25q0.75 0.265625 1.296875 0.75q0.546875 0.484375 0.84375 1.171875q0.296875 0.703125 0.296875 1.59375q0 0.84375 -0.265625 1.5q-0.25 0.671875 -0.765625 1.140625q-0.5 0.46875 -1.25 0.703125q-0.75 0.25 -1.71875 0.25zm-0.0625 -1.390625q0.734375 0 1.265625 -0.15625q0.546875 -0.15625 0.90625 -0.453125q0.375 -0.296875 0.546875 -0.734375q0.1875 -0.421875 0.1875 -0.9375q0 -0.609375 -0.234375 -1.046875q-0.234375 -0.4375 -0.640625 -0.71875q-0.390625 -0.265625 -0.921875 -0.40625q-0.53125 -0.125 -1.109375 -0.125q-0.71875 0 -1.265625 0.15625q-0.546875 0.171875 -0.921875 0.46875q-0.359375 0.296875 -0.546875 0.71875q-0.171875 0.421875 -0.171875 0.953125q0 0.609375 0.234375 1.03125q0.234375 0.4375 0.625 0.71875q0.40625 0.28125 0.9375 0.40625q0.53125 0.125 1.109375 0.125zm5.859375 10.328125q0.21875 -1.078125 0.21875 -1.84375q0 -1.84375 -1.921875 -1.84375l-1.375 0l0 3.4375l-1.125 0l0 -3.4375l-5.578125 0l0 -1.375l5.578125 0l0 -2.53125l1.125 0l0 2.53125l1.296875 0q3.140625 0 3.140625 3.265625q0 0.8125 -0.1875 1.796875l-1.171875 0zm-1.9375 -8.21875l0 0zm-7.734375 16.375q-0.125 -0.46875 -0.171875 -0.96875q-0.046875 -0.484375 -0.046875 -0.984375q0 -1.484375 0.671875 -2.21875q0.671875 -0.71875 2.046875 -0.71875l4.09375 0l0 -2.1875l1.140625 0l0 2.1875l2.15625 0l0.359375 1.359375l-2.515625 0l0 3.53125l-1.140625 0l0 -3.53125l-3.984375 0q-0.84375 0 -1.265625 0.453125q-0.40625 0.453125 -0.40625 1.328125q0 0.375 0.046875 0.8125q0.0625 0.453125 0.1875 0.9375l-1.171875 0zm7.734375 9.734375l-7.84375 -1.140625l0 -1.640625l3.28125 -1.140625l0.796875 -0.21875l-0.84375 -0.265625l-3.234375 -1.078125l0 -1.609375l7.84375 -1.125l0 1.328125l-5.328125 0.65625l-1.1875 0.140625l1.046875 0.328125l3.515625 1.140625l0 0.984375l-3.46875 1.21875l-1.046875 0.359375l1.109375 0.109375l5.359375 0.609375l0 1.34375zm-7.84375 6.578125l1.0625 -0.03125q-0.640625 -0.640625 -0.921875 -1.3125q-0.28125 -0.65625 -0.28125 -1.375q0 -0.671875 0.171875 -1.15625q0.171875 -0.46875 0.46875 -0.78125q0.3125 -0.3125 0.71875 -0.453125q0.40625 -0.140625 0.875 -0.140625q1.1875 0 1.84375 0.875q0.671875 0.875 0.671875 2.59375l0 1.625l0.6875 0q0.703125 0 1.109375 -0.453125q0.421875 -0.4375 0.421875 -1.34375q0 -0.671875 -0.15625 -1.3125q-0.140625 -0.640625 -0.40625 -1.328125l1.21875 0q0.09375 0.25 0.1875 0.5625q0.09375 0.328125 0.15625 0.671875q0.078125 0.359375 0.109375 0.734375q0.046875 0.390625 0.046875 0.78125q0 0.703125 -0.15625 1.265625q-0.15625 0.578125 -0.484375 0.96875q-0.3125 0.40625 -0.796875 0.609375q-0.484375 0.21875 -1.140625 0.21875l-5.40625 0l0 -1.21875zm3.578125 -0.15625l0 -1.71875q0 -0.515625 -0.109375 -0.890625q-0.09375 -0.359375 -0.28125 -0.59375q-0.1875 -0.234375 -0.453125 -0.34375q-0.265625 -0.109375 -0.59375 -0.109375q-0.21875 0 -0.4375 0.0625q-0.203125 0.078125 -0.359375 0.234375q-0.15625 0.15625 -0.25 0.40625q-0.09375 0.25 -0.09375 0.609375q0 0.46875 0.28125 1.0625q0.28125 0.609375 0.90625 1.28125l1.390625 0zm4.265625 4.234375l0 1.234375l-1.4375 0.046875q0.828125 0.6875 1.203125 1.359375q0.375 0.6875 0.375 1.375q0 1.21875 -0.796875 1.84375q-0.78125 0.625 -2.328125 0.578125l0 -1.375q1.03125 0.03125 1.484375 -0.296875q0.46875 -0.328125 0.46875 -0.953125q0 -0.265625 -0.09375 -0.546875q-0.09375 -0.28125 -0.3125 -0.578125q-0.21875 -0.28125 -0.5625 -0.609375q-0.328125 -0.328125 -0.796875 -0.703125l-5.046875 0l0 -1.375l7.84375 0zm-3.5 15.09375q-0.296875 0 -0.5 -0.015625q-0.1875 0 -0.359375 -0.015625l0 -5.5q-1.203125 0 -1.84375 0.671875q-0.640625 0.671875 -0.640625 1.9375q0 0.34375 0.015625 0.6875q0.03125 0.34375 0.078125 0.65625q0.046875 0.328125 0.109375 0.609375q0.0625 0.296875 0.125 0.546875l-1.109375 0q-0.15625 -0.546875 -0.25 -1.25q-0.109375 -0.703125 -0.109375 -1.453125q0 -1.0 0.265625 -1.734375q0.28125 -0.71875 0.796875 -1.1875q0.53125 -0.46875 1.28125 -0.6875q0.75 -0.21875 1.703125 -0.21875q0.828125 0 1.5625 0.234375q0.75 0.234375 1.296875 0.6875q0.5625 0.46875 0.890625 1.125q0.328125 0.671875 0.328125 1.515625q0 0.8125 -0.265625 1.4375q-0.25 0.640625 -0.71875 1.078125q-0.46875 0.4375 -1.15625 0.65625q-0.671875 0.21875 -1.5 0.21875zm0.1875 -1.40625q0.53125 0.015625 0.953125 -0.109375q0.4375 -0.125 0.75 -0.390625q0.3125 -0.25 0.484375 -0.640625q0.1875 -0.390625 0.1875 -0.90625q0 -0.453125 -0.171875 -0.828125q-0.171875 -0.359375 -0.484375 -0.625q-0.3125 -0.265625 -0.75 -0.4375q-0.4375 -0.15625 -0.96875 -0.1875l0 4.125zm-1.765625 18.921875q-0.71875 0 -1.265625 -0.296875q-0.546875 -0.296875 -0.921875 -0.828125q-0.359375 -0.53125 -0.546875 -1.28125q-0.171875 -0.75 -0.171875 -1.640625q0 -0.40625 0.03125 -0.8125q0.03125 -0.40625 0.078125 -0.78125q0.046875 -0.359375 0.109375 -0.6875q0.0625 -0.328125 0.140625 -0.59375l1.34375 0q-0.21875 0.578125 -0.34375 1.3125q-0.125 0.734375 -0.125 1.65625q0 0.671875 0.09375 1.140625q0.109375 0.484375 0.3125 0.78125q0.21875 0.296875 0.515625 0.4375q0.296875 0.140625 0.671875 0.140625q0.421875 0 0.703125 -0.234375q0.296875 -0.234375 0.53125 -0.609375q0.234375 -0.375 0.421875 -0.859375q0.1875 -0.46875 0.390625 -0.96875q0.203125 -0.5 0.4375 -0.984375q0.25 -0.484375 0.5625 -0.859375q0.328125 -0.375 0.765625 -0.609375q0.4375 -0.21875 1.046875 -0.21875q0.515625 0 1.015625 0.21875q0.515625 0.21875 0.90625 0.671875q0.40625 0.46875 0.640625 1.1875q0.25 0.71875 0.25 1.71875q0 0.265625 -0.03125 0.5625q-0.015625 0.296875 -0.0625 0.609375q-0.046875 0.3125 -0.109375 0.609375q-0.046875 0.296875 -0.109375 0.5625l-1.25 0q0.171875 -0.609375 0.265625 -1.21875q0.09375 -0.59375 0.09375 -1.15625q0 -1.1875 -0.40625 -1.75q-0.390625 -0.5625 -1.0625 -0.5625q-0.421875 0 -0.71875 0.21875q-0.296875 0.234375 -0.53125 0.609375q-0.234375 0.375 -0.421875 0.859375q-0.1875 0.484375 -0.390625 0.984375q-0.203125 0.5 -0.453125 0.96875q-0.234375 0.484375 -0.578125 0.859375q-0.328125 0.375 -0.78125 0.609375q-0.4375 0.234375 -1.046875 0.234375zm-2.65625 8.578125q-0.125 -0.46875 -0.171875 -0.96875q-0.046875 -0.484375 -0.046875 -0.984375q0 -1.484375 0.671875 -2.21875q0.671875 -0.71875 2.046875 -0.71875l4.09375 0l0 -2.1875l1.140625 0l0 2.1875l2.15625 0l0.359375 1.359375l-2.515625 0l0 3.53125l-1.140625 0l0 -3.53125l-3.984375 0q-0.84375 0 -1.265625 0.453125q-0.40625 0.453125 -0.40625 1.328125q0 0.375 0.046875 0.8125q0.0625 0.453125 0.1875 0.9375l-1.171875 0zm-0.109375 7.515625l1.0625 -0.03125q-0.640625 -0.640625 -0.921875 -1.3125q-0.28125 -0.65625 -0.28125 -1.375q0 -0.671875 0.171875 -1.15625q0.171875 -0.46875 0.46875 -0.78125q0.3125 -0.3125 0.71875 -0.453125q0.40625 -0.140625 0.875 -0.140625q1.1875 0 1.84375 0.875q0.671875 0.875 0.671875 2.59375l0 1.625l0.6875 0q0.703125 0 1.109375 -0.453125q0.421875 -0.4375 0.421875 -1.34375q0 -0.671875 -0.15625 -1.3125q-0.140625 -0.640625 -0.40625 -1.328125l1.21875 0q0.09375 0.25 0.1875 0.5625q0.09375 0.328125 0.15625 0.671875q0.078125 0.359375 0.109375 0.734375q0.046875 0.390625 0.046875 0.78125q0 0.703125 -0.15625 1.265625q-0.15625 0.578125 -0.484375 0.96875q-0.3125 0.40625 -0.796875 0.609375q-0.484375 0.21875 -1.140625 0.21875l-5.40625 0l0 -1.21875zm3.578125 -0.15625l0 -1.71875q0 -0.515625 -0.109375 -0.890625q-0.09375 -0.359375 -0.28125 -0.59375q-0.1875 -0.234375 -0.453125 -0.34375q-0.265625 -0.109375 -0.59375 -0.109375q-0.21875 0 -0.4375 0.0625q-0.203125 0.078125 -0.359375 0.234375q-0.15625 0.15625 -0.25 0.40625q-0.09375 0.25 -0.09375 0.609375q0 0.46875 0.28125 1.0625q0.28125 0.609375 0.90625 1.28125l1.390625 0zm3.15625 9.5625q-0.265625 0.21875 -0.640625 0.328125q-0.359375 0.125 -0.78125 0.125q-0.609375 0 -1.109375 -0.21875q-0.5 -0.21875 -0.859375 -0.625q-0.359375 -0.40625 -0.5625 -0.984375q-0.203125 -0.5625 -0.203125 -1.234375q0 -0.5 0.109375 -0.9375q0.109375 -0.421875 0.265625 -0.671875q-0.21875 -0.140625 -0.421875 -0.25q-0.1875 -0.09375 -0.4375 -0.09375q-0.296875 0 -0.5 0.28125q-0.1875 0.28125 -0.203125 0.75l-0.078125 2.0625q-0.015625 0.59375 -0.15625 1.078125q-0.125 0.5 -0.375 0.859375q-0.25 0.359375 -0.625 0.546875q-0.359375 0.203125 -0.84375 0.203125q-0.53125 0 -1.0 -0.234375q-0.46875 -0.21875 -0.8125 -0.6875q-0.359375 -0.46875 -0.5625 -1.203125q-0.21875 -0.71875 -0.21875 -1.71875q0 -0.953125 0.15625 -1.625q0.140625 -0.671875 0.421875 -1.109375q0.265625 -0.421875 0.640625 -0.625q0.359375 -0.1875 0.8125 -0.1875q0.5625 0 1.0 0.265625q0.4375 0.265625 0.828125 0.828125q0.09375 -0.203125 0.234375 -0.359375q0.140625 -0.140625 0.3125 -0.234375q0.171875 -0.09375 0.359375 -0.140625q0.1875 -0.046875 0.359375 -0.046875q0.515625 0 0.9375 0.234375q0.421875 0.234375 0.796875 0.5625q0.171875 -0.140625 0.34375 -0.265625q0.171875 -0.109375 0.375 -0.1875q0.203125 -0.078125 0.421875 -0.125q0.234375 -0.046875 0.53125 -0.046875q0.609375 0 1.109375 0.21875q0.515625 0.234375 0.875 0.625q0.359375 0.40625 0.546875 0.96875q0.203125 0.578125 0.203125 1.265625q0 0.28125 -0.046875 0.546875q-0.03125 0.265625 -0.09375 0.46875l0 2.84375l-1.109375 0l0 -1.25zm-7.875 -4.71875q-0.546875 0 -0.796875 0.578125q-0.265625 0.578125 -0.265625 1.609375q0 0.640625 0.125 1.078125q0.109375 0.453125 0.3125 0.71875q0.1875 0.265625 0.4375 0.375q0.234375 0.125 0.5 0.125q0.46875 0 0.703125 -0.390625q0.234375 -0.390625 0.265625 -1.1875l0.078125 -2.046875q-0.171875 -0.265625 -0.34375 -0.4375q-0.171875 -0.15625 -0.328125 -0.25q-0.171875 -0.09375 -0.34375 -0.140625q-0.171875 -0.03125 -0.34375 -0.03125zm6.421875 0.40625q-0.375 0 -0.6875 0.125q-0.3125 0.125 -0.53125 0.34375q-0.21875 0.234375 -0.34375 0.546875q-0.109375 0.3125 -0.109375 0.6875q0 0.40625 0.125 0.71875q0.140625 0.3125 0.375 0.53125q0.234375 0.21875 0.53125 0.328125q0.3125 0.109375 0.640625 0.109375q0.375 0 0.6875 -0.125q0.3125 -0.125 0.53125 -0.359375q0.21875 -0.21875 0.34375 -0.53125q0.125 -0.296875 0.125 -0.671875q0 -0.40625 -0.140625 -0.734375q-0.140625 -0.3125 -0.375 -0.53125q-0.234375 -0.203125 -0.546875 -0.328125q-0.296875 -0.109375 -0.625 -0.109375zm-0.9375 14.078125q-0.296875 0 -0.5 -0.015625q-0.1875 0 -0.359375 -0.015625l0 -5.5q-1.203125 0 -1.84375 0.671875q-0.640625 0.671875 -0.640625 1.9375q0 0.34375 0.015625 0.6875q0.03125 0.34375 0.078125 0.65625q0.046875 0.328125 0.109375 0.609375q0.0625 0.296875 0.125 0.546875l-1.109375 0q-0.15625 -0.546875 -0.25 -1.25q-0.109375 -0.703125 -0.109375 -1.453125q0 -1.0 0.265625 -1.734375q0.28125 -0.71875 0.796875 -1.1875q0.53125 -0.46875 1.28125 -0.6875q0.75 -0.21875 1.703125 -0.21875q0.828125 0 1.5625 0.234375q0.75 0.234375 1.296875 0.6875q0.5625 0.46875 0.890625 1.125q0.328125 0.671875 0.328125 1.515625q0 0.8125 -0.265625 1.4375q-0.25 0.640625 -0.71875 1.078125q-0.46875 0.4375 -1.15625 0.65625q-0.671875 0.21875 -1.5 0.21875zm0.1875 -1.40625q0.53125 0.015625 0.953125 -0.109375q0.4375 -0.125 0.75 -0.390625q0.3125 -0.25 0.484375 -0.640625q0.1875 -0.390625 0.1875 -0.90625q0 -0.453125 -0.171875 -0.828125q-0.171875 -0.359375 -0.484375 -0.625q-0.3125 -0.265625 -0.75 -0.4375q-0.4375 -0.15625 -0.96875 -0.1875l0 4.125zm-2.390625 9.796875q-0.40625 0 -0.734375 -0.140625q-0.328125 -0.140625 -0.59375 -0.390625q-0.25 -0.234375 -0.4375 -0.5625q-0.171875 -0.3125 -0.296875 -0.6875q-0.109375 -0.359375 -0.15625 -0.75q-0.0625 -0.375 -0.0625 -0.734375q0 -0.796875 0.078125 -1.46875q0.0625 -0.671875 0.21875 -1.3125l1.25 0q-0.1875 0.6875 -0.296875 1.359375q-0.09375 0.6875 -0.09375 1.359375q0 0.984375 0.265625 1.453125q0.265625 0.46875 0.75 0.46875q0.21875 0 0.375 -0.078125q0.171875 -0.078125 0.328125 -0.28125q0.15625 -0.1875 0.3125 -0.59375q0.171875 -0.40625 0.375 -1.125q0.15625 -0.53125 0.359375 -0.984375q0.203125 -0.4375 0.46875 -0.765625q0.28125 -0.328125 0.640625 -0.515625q0.375 -0.1875 0.875 -0.1875q0.328125 0 0.71875 0.140625q0.390625 0.15625 0.71875 0.515625q0.34375 0.375 0.5625 1.0q0.21875 0.625 0.21875 1.5625q0 0.46875 -0.046875 1.03125q-0.046875 0.5625 -0.171875 1.171875l-1.21875 0q0.15625 -0.640625 0.234375 -1.21875q0.078125 -0.578125 0.078125 -1.0q0 -0.5 -0.078125 -0.859375q-0.078125 -0.34375 -0.21875 -0.5625q-0.140625 -0.203125 -0.328125 -0.296875q-0.171875 -0.09375 -0.390625 -0.09375q-0.203125 0 -0.375 0.078125q-0.171875 0.078125 -0.34375 0.296875q-0.15625 0.234375 -0.3125 0.625q-0.15625 0.40625 -0.34375 1.046875q-0.203125 0.6875 -0.4375 1.15625q-0.21875 0.484375 -0.5 0.78125q-0.265625 0.296875 -0.609375 0.421875q-0.34375 0.140625 -0.78125 0.140625z" fill-rule="nonzero"/><path fill="#000000" fill-opacity="0.0" d="m622.3018 273.18414l0 0c7.3928223 0 13.385864 0.9988098 13.385864 2.230896l0 75.56973c0 1.2320862 5.993042 2.2308655 13.385803 2.2308655l0 0c-7.392761 0 -13.385803 0.9988098 -13.385803 2.230896l0 75.56973c0 1.2320862 -5.993042 2.2308655 -13.385864 2.2308655z" fill-rule="evenodd"/><path fill="#000000" fill-opacity="0.0" d="m622.3018 273.18414l0 0c7.3928223 0 13.385864 0.9988098 13.385864 2.230896l0 75.56973c0 1.2320862 5.993042 2.2308655 13.385803 2.2308655l0 0c-7.392761 0 -13.385803 0.9988098 -13.385803 2.230896l0 75.56973c0 1.2320862 -5.993042 2.2308655 -13.385864 2.2308655" fill-rule="evenodd"/><path stroke="#000000" stroke-width="1.0" stroke-linejoin="round" stroke-linecap="butt" d="m622.3018 273.18414l0 0c7.3928223 0 13.385864 0.9988098 13.385864 2.230896l0 75.56973c0 1.2320862 5.993042 2.2308655 13.385803 2.2308655l0 0c-7.392761 0 -13.385803 0.9988098 -13.385803 2.230896l0 75.56973c0 1.2320862 -5.993042 2.2308655 -13.385864 2.2308655" fill-rule="evenodd"/><path fill="#000000" fill-opacity="0.0" d="m623.3438 85.21223l0 0c7.3928223 0 13.385864 0.99879456 13.385864 2.2308807l0 77.160286c0 1.2320709 5.993042 2.2308807 13.385803 2.2308807l0 0c-7.392761 0 -13.385803 0.99879456 -13.385803 2.2308807l0 77.16028c0 1.2320862 -5.993042 2.2308807 -13.385864 2.2308807z" fill-rule="evenodd"/><path fill="#000000" fill-opacity="0.0" d="m623.3438 85.21223l0 0c7.3928223 0 13.385864 0.99879456 13.385864 2.2308807l0 77.160286c0 1.2320709 5.993042 2.2308807 13.385803 2.2308807l0 0c-7.392761 0 -13.385803 0.99879456 -13.385803 2.2308807l0 77.16028c0 1.2320862 -5.993042 2.2308807 -13.385864 2.2308807" fill-rule="evenodd"/><path stroke="#000000" stroke-width="1.0" stroke-linejoin="round" stroke-linecap="butt" d="m623.3438 85.21223l0 0c7.3928223 0 13.385864 0.99879456 13.385864 2.2308807l0 77.160286c0 1.2320709 5.993042 2.2308807 13.385803 2.2308807l0 0c-7.392761 0 -13.385803 0.99879456 -13.385803 2.2308807l0 77.16028c0 1.2320862 -5.993042 2.2308807 -13.385864 2.2308807" fill-rule="evenodd"/><path fill="#000000" fill-opacity="0.0" d="m681.41876 279.81897l0 148.09448l-26.771667 0l0 -148.09448z" fill-rule="evenodd"/><path fill="#000000" d="m657.4494 330.8584q-0.515625 -1.234375 -0.515625 -2.578125q0 -2.15625 1.296875 -3.328125q1.296875 -1.15625 3.828125 -1.15625q1.21875 0 2.203125 0.3125q1.0 0.328125 1.6875 0.921875q0.703125 0.59375 1.078125 1.4375q0.375 0.84375 0.375 1.890625q0 0.71875 -0.125 1.328125q-0.125 0.609375 -0.375 1.171875l-1.359375 0q0.296875 -0.5625 0.453125 -1.15625q0.171875 -0.59375 0.171875 -1.296875q0 -0.71875 -0.28125 -1.296875q-0.265625 -0.578125 -0.78125 -0.984375q-0.5 -0.40625 -1.25 -0.625q-0.734375 -0.21875 -1.671875 -0.21875q-1.984375 0 -3.0 0.796875q-1.0 0.8125 -1.0 2.359375q0 0.65625 0.140625 1.25q0.15625 0.609375 0.4375 1.171875l-1.3125 0zm7.453125 2.59375l0 1.234375l-1.4375 0.046875q0.828125 0.6875 1.203125 1.359375q0.375 0.6875 0.375 1.375q0 1.21875 -0.796875 1.84375q-0.78125 0.625 -2.328125 0.578125l0 -1.375q1.03125 0.03125 1.484375 -0.296875q0.46875 -0.328125 0.46875 -0.953125q0 -0.265625 -0.09375 -0.546875q-0.09375 -0.28125 -0.3125 -0.578125q-0.21875 -0.28125 -0.5625 -0.609375q-0.328125 -0.328125 -0.796875 -0.703125l-5.046875 0l0 -1.375l7.84375 0zm-3.5 15.09375q-0.296875 0 -0.5 -0.015625q-0.1875 0 -0.359375 -0.015625l0 -5.5q-1.203125 0 -1.84375 0.671875q-0.640625 0.671875 -0.640625 1.9375q0 0.34375 0.015625 0.6875q0.03125 0.34375 0.078125 0.65625q0.046875 0.328125 0.109375 0.609375q0.0625 0.296875 0.125 0.546875l-1.109375 0q-0.15625 -0.546875 -0.25 -1.25q-0.109375 -0.703125 -0.109375 -1.453125q0 -1.0 0.265625 -1.734375q0.28125 -0.71875 0.796875 -1.1875q0.53125 -0.46875 1.28125 -0.6875q0.75 -0.21875 1.703125 -0.21875q0.828125 0 1.5625 0.234375q0.75 0.234375 1.296875 0.6875q0.5625 0.46875 0.890625 1.125q0.328125 0.671875 0.328125 1.515625q0 0.8125 -0.265625 1.4375q-0.25 0.640625 -0.71875 1.078125q-0.46875 0.4375 -1.15625 0.65625q-0.671875 0.21875 -1.5 0.21875zm0.1875 -1.40625q0.53125 0.015625 0.953125 -0.109375q0.4375 -0.125 0.75 -0.390625q0.3125 -0.25 0.484375 -0.640625q0.1875 -0.390625 0.1875 -0.90625q0 -0.453125 -0.171875 -0.828125q-0.171875 -0.359375 -0.484375 -0.625q-0.3125 -0.265625 -0.75 -0.4375q-0.4375 -0.15625 -0.96875 -0.1875l0 4.125zm-4.53125 8.625l1.0625 -0.03125q-0.640625 -0.640625 -0.921875 -1.3125q-0.28125 -0.65625 -0.28125 -1.375q0 -0.671875 0.171875 -1.15625q0.171875 -0.46875 0.46875 -0.78125q0.3125 -0.3125 0.71875 -0.453125q0.40625 -0.140625 0.875 -0.140625q1.1875 0 1.84375 0.875q0.671875 0.875 0.671875 2.59375l0 1.625l0.6875 0q0.703125 0 1.109375 -0.453125q0.421875 -0.4375 0.421875 -1.34375q0 -0.671875 -0.15625 -1.3125q-0.140625 -0.640625 -0.40625 -1.328125l1.21875 0q0.09375 0.25 0.1875 0.5625q0.09375 0.328125 0.15625 0.671875q0.078125 0.359375 0.109375 0.734375q0.046875 0.390625 0.046875 0.78125q0 0.703125 -0.15625 1.265625q-0.15625 0.578125 -0.484375 0.96875q-0.3125 0.40625 -0.796875 0.609375q-0.484375 0.21875 -1.140625 0.21875l-5.40625 0l0 -1.21875zm3.578125 -0.15625l0 -1.71875q0 -0.515625 -0.109375 -0.890625q-0.09375 -0.359375 -0.28125 -0.59375q-0.1875 -0.234375 -0.453125 -0.34375q-0.265625 -0.109375 -0.59375 -0.109375q-0.21875 0 -0.4375 0.0625q-0.203125 0.078125 -0.359375 0.234375q-0.15625 0.15625 -0.25 0.40625q-0.09375 0.25 -0.09375 0.609375q0 0.46875 0.28125 1.0625q0.28125 0.609375 0.90625 1.28125l1.390625 0zm-3.46875 10.234375q-0.125 -0.46875 -0.171875 -0.96875q-0.046875 -0.484375 -0.046875 -0.984375q0 -1.484375 0.671875 -2.21875q0.671875 -0.71875 2.046875 -0.71875l4.09375 0l0 -2.1875l1.140625 0l0 2.1875l2.15625 0l0.359375 1.359375l-2.515625 0l0 3.53125l-1.140625 0l0 -3.53125l-3.984375 0q-0.84375 0 -1.265625 0.453125q-0.40625 0.453125 -0.40625 1.328125q0 0.375 0.046875 0.8125q0.0625 0.453125 0.1875 0.9375l-1.171875 0zm3.875 9.296875q-0.90625 0 -1.671875 -0.265625q-0.765625 -0.25 -1.3125 -0.734375q-0.53125 -0.484375 -0.84375 -1.1875q-0.296875 -0.6875 -0.296875 -1.5625q0 -0.84375 0.265625 -1.515625q0.265625 -0.671875 0.765625 -1.140625q0.515625 -0.453125 1.265625 -0.703125q0.75 -0.25 1.71875 -0.25q0.921875 0 1.671875 0.25q0.75 0.265625 1.296875 0.75q0.546875 0.484375 0.84375 1.171875q0.296875 0.703125 0.296875 1.59375q0 0.84375 -0.265625 1.5q-0.25 0.671875 -0.765625 1.140625q-0.5 0.46875 -1.25 0.703125q-0.75 0.25 -1.71875 0.25zm-0.0625 -1.390625q0.734375 0 1.265625 -0.15625q0.546875 -0.15625 0.90625 -0.453125q0.375 -0.296875 0.546875 -0.734375q0.1875 -0.421875 0.1875 -0.9375q0 -0.609375 -0.234375 -1.046875q-0.234375 -0.4375 -0.640625 -0.71875q-0.390625 -0.265625 -0.921875 -0.40625q-0.53125 -0.125 -1.109375 -0.125q-0.71875 0 -1.265625 0.15625q-0.546875 0.171875 -0.921875 0.46875q-0.359375 0.296875 -0.546875 0.71875q-0.171875 0.421875 -0.171875 0.953125q0 0.609375 0.234375 1.03125q0.234375 0.4375 0.625 0.71875q0.40625 0.28125 0.9375 0.40625q0.53125 0.125 1.109375 0.125zm3.921875 3.6875l0 1.234375l-1.4375 0.046875q0.828125 0.6875 1.203125 1.359375q0.375 0.6875 0.375 1.375q0 1.21875 -0.796875 1.84375q-0.78125 0.625 -2.328125 0.578125l0 -1.375q1.03125 0.03125 1.484375 -0.296875q0.46875 -0.328125 0.46875 -0.953125q0 -0.265625 -0.09375 -0.546875q-0.09375 -0.28125 -0.3125 -0.578125q-0.21875 -0.28125 -0.5625 -0.609375q-0.328125 -0.328125 -0.796875 -0.703125l-5.046875 0l0 -1.375l7.84375 0z" fill-rule="nonzero"/><path fill="#000000" fill-opacity="0.0" d="m680.7271 99.09969l0 148.09448l-26.771667 0l0 -148.09448z" fill-rule="evenodd"/><path fill="#000000" d="m661.539 159.52975q-1.375 0 -2.375 -0.328125q-1.0 -0.328125 -1.65625 -0.875q-0.640625 -0.546875 -0.96875 -1.296875q-0.3125 -0.734375 -0.3125 -1.546875q0 -0.984375 0.359375 -1.71875q0.359375 -0.734375 1.03125 -1.21875q0.671875 -0.46875 1.625 -0.703125q0.96875 -0.234375 2.1875 -0.234375q1.359375 0 2.359375 0.3125q1.0 0.328125 1.640625 0.875q0.65625 0.546875 0.96875 1.28125q0.328125 0.734375 0.328125 1.5625q0 0.984375 -0.359375 1.703125q-0.359375 0.734375 -1.03125 1.21875q-0.671875 0.484375 -1.640625 0.71875q-0.953125 0.25 -2.15625 0.25zm-0.09375 -1.453125q0.890625 0 1.640625 -0.140625q0.75 -0.125 1.28125 -0.4375q0.546875 -0.296875 0.84375 -0.78125q0.296875 -0.484375 0.296875 -1.15625q0 -0.65625 -0.328125 -1.140625q-0.3125 -0.46875 -0.859375 -0.78125q-0.53125 -0.296875 -1.265625 -0.453125q-0.734375 -0.140625 -1.546875 -0.140625q-0.90625 0 -1.65625 0.140625q-0.75 0.140625 -1.28125 0.4375q-0.53125 0.3125 -0.828125 0.78125q-0.296875 0.484375 -0.296875 1.15625q0 0.65625 0.3125 1.125q0.3125 0.484375 0.859375 0.78125q0.546875 0.3125 1.265625 0.453125q0.734375 0.15625 1.5625 0.15625zm2.765625 10.390625l-7.84375 -1.140625l0 -1.640625l3.28125 -1.140625l0.796875 -0.21875l-0.84375 -0.265625l-3.234375 -1.078125l0 -1.609375l7.84375 -1.125l0 1.328125l-5.328125 0.65625l-1.1875 0.140625l1.046875 0.328125l3.515625 1.140625l0 0.984375l-3.46875 1.21875l-1.046875 0.359375l1.109375 0.109375l5.359375 0.609375l0 1.34375zm0 1.53125l0 1.21875l-1.265625 0.046875q0.40625 0.34375 0.671875 0.65625q0.28125 0.328125 0.4375 0.640625q0.171875 0.3125 0.234375 0.625q0.0625 0.328125 0.0625 0.671875q0 1.203125 -0.71875 1.828125q-0.703125 0.625 -2.140625 0.625l-5.125 0l0 -1.359375l5.015625 0q0.921875 0 1.359375 -0.34375q0.4375 -0.34375 0.4375 -1.03125q0 -0.25 -0.078125 -0.484375q-0.0625 -0.234375 -0.25 -0.5q-0.1875 -0.25 -0.5 -0.5625q-0.3125 -0.296875 -0.78125 -0.671875l-5.203125 0l0 -1.359375l7.84375 0zm-3.5 15.421875q-0.296875 0 -0.5 -0.015625q-0.1875 0 -0.359375 -0.015625l0 -5.5q-1.203125 0 -1.84375 0.671875q-0.640625 0.671875 -0.640625 1.9375q0 0.34375 0.015625 0.6875q0.03125 0.34375 0.078125 0.65625q0.046875 0.328125 0.109375 0.609375q0.0625 0.296875 0.125 0.546875l-1.109375 0q-0.15625 -0.546875 -0.25 -1.25q-0.109375 -0.703125 -0.109375 -1.453125q0 -1.0 0.265625 -1.734375q0.28125 -0.71875 0.796875 -1.1875q0.53125 -0.46875 1.28125 -0.6875q0.75 -0.21875 1.703125 -0.21875q0.828125 0 1.5625 0.234375q0.75 0.234375 1.296875 0.6875q0.5625 0.46875 0.890625 1.125q0.328125 0.671875 0.328125 1.515625q0 0.8125 -0.265625 1.4375q-0.25 0.640625 -0.71875 1.078125q-0.46875 0.4375 -1.15625 0.65625q-0.671875 0.21875 -1.5 0.21875zm0.1875 -1.40625q0.53125 0.015625 0.953125 -0.109375q0.4375 -0.125 0.75 -0.390625q0.3125 -0.25 0.484375 -0.640625q0.1875 -0.390625 0.1875 -0.90625q0 -0.453125 -0.171875 -0.828125q-0.171875 -0.359375 -0.484375 -0.625q-0.3125 -0.265625 -0.75 -0.4375q-0.4375 -0.15625 -0.96875 -0.1875l0 4.125zm3.3125 3.90625l0 1.234375l-1.4375 0.046875q0.828125 0.6875 1.203125 1.359375q0.375 0.6875 0.375 1.375q0 1.21875 -0.796875 1.84375q-0.78125 0.625 -2.328125 0.578125l0 -1.375q1.03125 0.03125 1.484375 -0.296875q0.46875 -0.328125 0.46875 -0.953125q0 -0.265625 -0.09375 -0.546875q-0.09375 -0.28125 -0.3125 -0.578125q-0.21875 -0.28125 -0.5625 -0.609375q-0.328125 -0.328125 -0.796875 -0.703125l-5.046875 0l0 -1.375l7.84375 0z" fill-rule="nonzero"/><path fill="#d9ead3" d="m467.90814 31.065533l85.00787 0l0 44.85039l-85.00787 0z" fill-rule="evenodd"/><path stroke="#000000" stroke-width="1.0" stroke-linejoin="round" stroke-linecap="butt" d="m467.90814 31.065533l85.00787 0l0 44.85039l-85.00787 0z" fill-rule="evenodd"/><path fill="#000000" d="m501.53708 59.35073l-1.515625 0l-0.703125 -2.234375l-4.25 0l-0.71875 2.234375l-1.453125 0l3.390625 -10.21875l1.90625 0l3.34375 10.21875zm-2.625 -3.46875l-1.71875 -5.46875l-1.734375 5.46875l3.453125 0zm10.65625 -0.59375q0 1.046875 -0.296875 1.828125q-0.28125 0.78125 -0.796875 1.296875q-0.515625 0.515625 -1.21875 0.78125q-0.703125 0.25 -1.53125 0.25q-0.375 0 -0.75 -0.046875q-0.359375 -0.03125 -0.75 -0.125l0 3.28125l-1.359375 0l0 -11.046875l1.21875 0l0.078125 1.3125q0.59375 -0.8125 1.25 -1.125q0.671875 -0.328125 1.4375 -0.328125q0.671875 0 1.171875 0.28125q0.515625 0.28125 0.859375 0.796875q0.34375 0.5 0.515625 1.234375q0.171875 0.71875 0.171875 1.609375zm-1.390625 0.0625q0 -0.625 -0.09375 -1.140625q-0.078125 -0.515625 -0.28125 -0.875q-0.1875 -0.375 -0.5 -0.578125q-0.296875 -0.203125 -0.71875 -0.203125q-0.265625 0 -0.53125 0.078125q-0.265625 0.078125 -0.546875 0.28125q-0.28125 0.1875 -0.609375 0.5q-0.3125 0.3125 -0.671875 0.78125l0 3.8125q0.375 0.15625 0.78125 0.25q0.421875 0.078125 0.828125 0.078125q1.09375 0 1.71875 -0.734375q0.625 -0.75 0.625 -2.25zm10.1874695 -0.0625q0 1.046875 -0.296875 1.828125q-0.28125 0.78125 -0.796875 1.296875q-0.515625 0.515625 -1.21875 0.78125q-0.703125 0.25 -1.53125 0.25q-0.375 0 -0.75 -0.046875q-0.359375 -0.03125 -0.75 -0.125l0 3.28125l-1.3593445 0l0 -11.046875l1.2187195 0l0.078125 1.3125q0.59375 -0.8125 1.25 -1.125q0.671875 -0.328125 1.4375 -0.328125q0.671875 0 1.171875 0.28125q0.515625 0.28125 0.859375 0.796875q0.34375 0.5 0.515625 1.234375q0.171875 0.71875 0.171875 1.609375zm-1.390625 0.0625q0 -0.625 -0.09375 -1.140625q-0.078125 -0.515625 -0.28125 -0.875q-0.1875 -0.375 -0.5 -0.578125q-0.296875 -0.203125 -0.71875 -0.203125q-0.265625 0 -0.53125 0.078125q-0.265625 0.078125 -0.546875 0.28125q-0.28125 0.1875 -0.609375 0.5q-0.3125 0.3125 -0.671875 0.78125l0 3.8125q0.375 0.15625 0.78125 0.25q0.421875 0.078125 0.828125 0.078125q1.09375 0 1.71875 -0.734375q0.625 -0.75 0.625 -2.25zm10.03125 4.0l-6.421875 0l0 -1.265625l2.625 0l0 -7.453125l-2.4375 1.328125l-0.5 -1.15625l3.25 -1.71875l1.203125 0l0 9.0l2.28125 0l0 1.265625z" fill-rule="nonzero"/><path fill="#000000" fill-opacity="0.0" d="m623.3438 27.32018l0 0c7.3928223 0 13.385864 0.9988003 13.385864 2.2308826l0 17.963432c0 1.2320824 5.993042 2.2308807 13.385803 2.2308807l0 0c-7.392761 0 -13.385803 0.9988022 -13.385803 2.2308846l0 17.963428c0 1.2320862 -5.993042 2.2308884 -13.385864 2.2308884z" fill-rule="evenodd"/><path fill="#000000" fill-opacity="0.0" d="m623.3438 27.32018l0 0c7.3928223 0 13.385864 0.9988003 13.385864 2.2308826l0 17.963432c0 1.2320824 5.993042 2.2308807 13.385803 2.2308807l0 0c-7.392761 0 -13.385803 0.9988022 -13.385803 2.2308846l0 17.963428c0 1.2320862 -5.993042 2.2308884 -13.385864 2.2308884" fill-rule="evenodd"/><path stroke="#000000" stroke-width="1.0" stroke-linejoin="round" stroke-linecap="butt" d="m623.3438 27.32018l0 0c7.3928223 0 13.385864 0.9988003 13.385864 2.2308826l0 17.963432c0 1.2320824 5.993042 2.2308807 13.385803 2.2308807l0 0c-7.392761 0 -13.385803 0.9988022 -13.385803 2.2308846l0 17.963428c0 1.2320862 -5.993042 2.2308884 -13.385864 2.2308884" fill-rule="evenodd"/><path fill="#000000" fill-opacity="0.0" d="m680.72705 -1.0369848l0 112.062996l-26.771667 0l0 -112.062996z" fill-rule="evenodd"/><path fill="#000000" d="m663.46075 27.744513q-0.625 0 -1.25 -0.234375q-0.609375 -0.234375 -1.09375 -0.734375q-0.484375 -0.484375 -0.78125 -1.25q-0.296875 -0.765625 -0.296875 -1.828125l0 -1.265625l-3.671875 0l0 -1.390625l10.21875 0l0 2.875q0 0.765625 -0.171875 1.453125q-0.171875 0.703125 -0.546875 1.21875q-0.375 0.53125 -0.96875 0.84375q-0.59375 0.3125 -1.4375 0.3125zm-0.0625 -1.4375q0.984375 0 1.5 -0.65625q0.53125 -0.640625 0.53125 -1.796875l0 -1.421875l-4.203125 0l0 1.296875q0 1.234375 0.53125 1.90625q0.546875 0.671875 1.640625 0.671875zm0.8125 3.875l0 1.234375l-1.4375 0.046875q0.828125 0.6875019 1.203125 1.3593769q0.375 0.6875 0.375 1.375q0 1.21875 -0.796875 1.84375q-0.78125 0.625 -2.328125 0.578125l0 -1.375q1.03125 0.03125 1.484375 -0.296875q0.46875 -0.328125 0.46875 -0.953125q0 -0.265625 -0.09375 -0.546875q-0.09375 -0.28125 -0.3125 -0.578125q-0.21875 -0.28125 -0.5625 -0.609375q-0.328125 -0.3281269 -0.796875 -0.7031269l-5.046875 0l0 -1.375l7.84375 0zm-3.859375 15.296877q-0.90625 0 -1.671875 -0.265625q-0.765625 -0.25 -1.3125 -0.734375q-0.53125 -0.484375 -0.84375 -1.1875q-0.296875 -0.6875 -0.296875 -1.5625q0 -0.84375 0.265625 -1.515625q0.265625 -0.671875 0.765625 -1.140625q0.515625 -0.453125 1.265625 -0.703125q0.75 -0.25 1.71875 -0.25q0.921875 0 1.671875 0.25q0.75 0.265625 1.296875 0.75q0.546875 0.484375 0.84375 1.171875q0.296875 0.703125 0.296875 1.59375q0 0.84375 -0.265625 1.5q-0.25 0.671875 -0.765625 1.140625q-0.5 0.46875 -1.25 0.703125q-0.75 0.25 -1.71875 0.25zm-0.0625 -1.390625q0.734375 0 1.265625 -0.15625q0.546875 -0.15625 0.90625 -0.453125q0.375 -0.296875 0.546875 -0.734375q0.1875 -0.421875 0.1875 -0.9375q0 -0.609375 -0.234375 -1.046875q-0.234375 -0.4375 -0.640625 -0.71875q-0.390625 -0.265625 -0.921875 -0.40625q-0.53125 -0.125 -1.109375 -0.125q-0.71875 0 -1.265625 0.15625q-0.546875 0.171875 -0.921875 0.46875q-0.359375 0.296875 -0.546875 0.71875q-0.171875 0.421875 -0.171875 0.953125q0 0.609375 0.234375 1.03125q0.234375 0.4375 0.625 0.71875q0.40625 0.28125 0.9375 0.40625q0.53125 0.125 1.109375 0.125zm3.921875 2.625l0 1.546875l-5.1875 1.921875l-1.265625 0.421875l1.296875 0.421875l5.15625 1.90625l0 1.5l-7.84375 -3.078125l0 -1.5625l7.84375 -3.078125zm-1.125 12.203125l0 -2.3125l1.125 0l0 3.6875l-6.703125 0l0 2.34375l-1.140625 0l0 -6.296875l1.140625 0l0 2.578125l5.578125 0zm4.421875 0.484375q0 0.21875 -0.09375 0.40625q-0.078125 0.203125 -0.234375 0.34375q-0.140625 0.15625 -0.328125 0.234375q-0.1875 0.078125 -0.421875 0.078125q-0.21875 0 -0.421875 -0.078125q-0.1875 -0.078125 -0.34375 -0.234375q-0.140625 -0.140625 -0.21875 -0.34375q-0.078125 -0.1875 -0.078125 -0.40625q0 -0.234375 0.078125 -0.4375q0.078125 -0.1875 0.21875 -0.328125q0.15625 -0.140625 0.34375 -0.234375q0.203125 -0.078125 0.421875 -0.078125q0.234375 0 0.421875 0.078125q0.1875 0.09375 0.328125 0.234375q0.15625 0.140625 0.234375 0.328125q0.09375 0.203125 0.09375 0.4375zm-7.375 5.2499924q1.0 0 1.765625 0.265625q0.78125 0.28125 1.3125 0.78125q0.546875 0.5 0.8125 1.203125q0.28125 0.71875 0.28125 1.578125q0 0.375 -0.046875 0.734375q-0.046875 0.375 -0.140625 0.71875l3.296875 0l0 1.375l-11.046875 0l0 -1.21875l1.484375 -0.046875q-0.828125 -0.578125 -1.234375 -1.25q-0.390625 -0.65625 -0.390625 -1.421875q0 -0.671875 0.28125 -1.1875q0.28125 -0.515625 0.796875 -0.859375q0.515625 -0.328125 1.234375 -0.5q0.71875 -0.171875 1.59375 -0.171875zm0.078125 1.390625q-1.421875 0 -2.125 0.40625q-0.6875 0.421875 -0.6875 1.1875q0 0.515625 0.453125 1.09375q0.46875 0.578125 1.375 1.203125l3.640625 0q0.15625 -0.328125 0.234375 -0.734375q0.078125 -0.40625 0.078125 -0.8125q0 -1.109375 -0.71875 -1.734375q-0.71875 -0.609375 -2.25 -0.609375zm0.5 14.421875q-0.296875 0 -0.5 -0.015625q-0.1875 0 -0.359375 -0.015625l0 -5.5q-1.203125 0 -1.84375 0.671875q-0.640625 0.671875 -0.640625 1.9375q0 0.34375 0.015625 0.6875q0.03125 0.34375 0.078125 0.65625q0.046875 0.328125 0.109375 0.609375q0.0625 0.296875 0.125 0.546875l-1.109375 0q-0.15625 -0.546875 -0.25 -1.25q-0.109375 -0.703125 -0.109375 -1.453125q0 -1.0 0.265625 -1.734375q0.28125 -0.71875 0.796875 -1.1875q0.53125 -0.46875 1.28125 -0.6875q0.75 -0.21875 1.703125 -0.21875q0.828125 0 1.5625 0.234375q0.75 0.234375 1.296875 0.6875q0.5625 0.46875 0.890625 1.125q0.328125 0.671875 0.328125 1.515625q0 0.8125 -0.265625 1.4375q-0.25 0.640625 -0.71875 1.078125q-0.46875 0.4375 -1.15625 0.65625q-0.671875 0.21875 -1.5 0.21875zm0.1875 -1.40625q0.53125 0.015625 0.953125 -0.109375q0.4375 -0.125 0.75 -0.390625q0.3125 -0.25 0.484375 -0.640625q0.1875 -0.390625 0.1875 -0.90625q0 -0.453125 -0.171875 -0.828125q-0.171875 -0.359375 -0.484375 -0.625q-0.3125 -0.265625 -0.75 -0.4375q-0.4375 -0.15625 -0.96875 -0.1875l0 4.125zm3.3125 3.90625l0 1.234375l-1.4375 0.046875q0.828125 0.6875 1.203125 1.359375q0.375 0.6875 0.375 1.375q0 1.21875 -0.796875 1.84375q-0.78125 0.625 -2.328125 0.578125l0 -1.375q1.03125 0.03125 1.484375 -0.296875q0.46875 -0.328125 0.46875 -0.953125q0 -0.265625 -0.09375 -0.546875q-0.09375 -0.28125 -0.3125 -0.578125q-0.21875 -0.28125 -0.5625 -0.609375q-0.328125 -0.328125 -0.796875 -0.703125l-5.046875 0l0 -1.375l7.84375 0z" fill-rule="nonzero"/><path fill="#e06666" d="m60.27559 30.91076l60.377953 0l0 44.850395l-60.377953 0z" fill-rule="evenodd"/><path stroke="#000000" stroke-width="1.0" stroke-linejoin="round" stroke-linecap="butt" d="m60.27559 30.91076l60.377953 0l0 44.850395l-60.377953 0z" fill-rule="evenodd"/><path fill="#000000" d="m94.01926 46.133457q0 0.84375 -0.234375 1.53125q-0.234375 0.6875 -0.703125 1.171875q-0.453125 0.46875 -1.125 0.734375q-0.671875 0.265625 -1.53125 0.265625q-0.953125 0 -1.625 -0.25q-0.65625 -0.25 -1.078125 -0.703125q-0.421875 -0.46875 -0.609375 -1.109375q-0.1875 -0.640625 -0.1875 -1.421875l0 -6.875l1.390625 0l0 6.765625q0 0.59375 0.109375 1.046875q0.109375 0.453125 0.359375 0.765625q0.265625 0.296875 0.671875 0.453125q0.421875 0.15625 1.015625 0.15625q1.109375 0 1.625 -0.640625q0.53125 -0.640625 0.53125 -1.796875l0 -6.75l1.390625 0l0 6.65625z" fill-rule="nonzero"/><path fill="#000000" d="m81.292694 68.69596l-1.359375 0l-0.203125 -6.375l-0.09375 -2.4375l-0.46875 1.421875l-1.515625 4.0625l-0.953125 0l-1.4375 -3.90625l-0.484375 -1.578125l-0.03125 2.546875l-0.171875 6.265625l-1.3125 0l0.5 -10.21875l1.640625 0l1.375 3.84375l0.453125 1.296875l0.421875 -1.296875l1.453125 -3.84375l1.6875 0l0.5 10.21875zm8.453125 -3.984375q0 0.90625 -0.265625 1.671875q-0.25 0.765625 -0.734375 1.3125q-0.484375 0.53125 -1.1875 0.84375q-0.6875 0.296875 -1.5625 0.296875q-0.84375 0 -1.515625 -0.265625q-0.671875 -0.265625 -1.140625 -0.765625q-0.453125 -0.515625 -0.703125 -1.265625q-0.25 -0.75 -0.25 -1.71875q0 -0.921875 0.25 -1.671875q0.265625 -0.75 0.75 -1.296875q0.484375 -0.546875 1.171875 -0.84375q0.703125 -0.296875 1.59375 -0.296875q0.84375 0 1.5 0.265625q0.671875 0.25 1.140625 0.765625q0.46875 0.5 0.703125 1.25q0.25 0.75 0.25 1.71875zm-1.390625 0.0625q0 -0.734375 -0.15625 -1.265625q-0.15625 -0.546875 -0.453125 -0.90625q-0.296875 -0.375 -0.734375 -0.546875q-0.421875 -0.1875 -0.9375 -0.1875q-0.609375 0 -1.046875 0.234375q-0.4375 0.234375 -0.71875 0.640625q-0.265625 0.390625 -0.40625 0.921875q-0.125 0.53125 -0.125 1.109375q0 0.71875 0.15625 1.265625q0.171875 0.546875 0.46875 0.921875q0.296875 0.359375 0.71875 0.546875q0.421875 0.171875 0.953125 0.171875q0.609375 0 1.03125 -0.234375q0.4375 -0.234375 0.71875 -0.625q0.28125 -0.40625 0.40625 -0.9375q0.125 -0.53125 0.125 -1.109375zm2.96875 0.15625q0 -1.0 0.265625 -1.765625q0.28125 -0.78125 0.78125 -1.3125q0.5 -0.546875 1.203125 -0.8125q0.71875 -0.28125 1.578125 -0.28125q0.375 0 0.734375 0.046875q0.375 0.046875 0.71875 0.140625l0 -3.296875l1.375 0l0 11.046875l-1.21875 0l-0.046875 -1.484375q-0.578125 0.828125 -1.25 1.234375q-0.65625 0.390625 -1.421875 0.390625q-0.671875 0 -1.1875 -0.28125q-0.515625 -0.28125 -0.859375 -0.796875q-0.328125 -0.515625 -0.5 -1.234375q-0.171875 -0.71875 -0.171875 -1.59375zm1.390625 -0.078125q0 1.421875 0.40625 2.125q0.421875 0.6875 1.1875 0.6875q0.515625 0 1.09375 -0.453125q0.578125 -0.46875 1.203125 -1.375l0 -3.640625q-0.328125 -0.15625 -0.734375 -0.234375q-0.40625 -0.078125 -0.8125 -0.078125q-1.109375 0 -1.734375 0.71875q-0.609375 0.71875 -0.609375 2.25zm14.421875 -0.5q0 0.296875 -0.015625 0.5q0 0.1875 -0.015625 0.359375l-5.5 0q0 1.203125 0.671875 1.84375q0.671875 0.640625 1.9375 0.640625q0.34375 0 0.6875 -0.015625q0.34375 -0.03125 0.65625 -0.078125q0.328125 -0.046875 0.609375 -0.109375q0.296875 -0.0625 0.546875 -0.125l0 1.109375q-0.546875 0.15625 -1.25 0.25q-0.703125 0.109375 -1.453125 0.109375q-1.0 0 -1.734375 -0.265625q-0.71875 -0.28125 -1.1875 -0.796875q-0.46875 -0.53125 -0.6875 -1.28125q-0.21875 -0.75 -0.21875 -1.703125q0 -0.828125 0.234375 -1.5625q0.234375 -0.75 0.6875 -1.296875q0.46875 -0.5625 1.125 -0.890625q0.671875 -0.328125 1.515625 -0.328125q0.8125 0 1.4375 0.265625q0.640625 0.25 1.078125 0.71875q0.4375 0.46875 0.65625 1.15625q0.21875 0.671875 0.21875 1.5zm-1.40625 -0.1875q0.015625 -0.53125 -0.109375 -0.953125q-0.125 -0.4375 -0.390625 -0.75q-0.25 -0.3125 -0.640625 -0.484375q-0.390625 -0.1875 -0.90625 -0.1875q-0.453125 0 -0.828125 0.171875q-0.359375 0.171875 -0.625 0.484375q-0.265625 0.3125 -0.4375 0.75q-0.15625 0.4375 -0.1875 0.96875l4.125 0z" fill-rule="nonzero"/><path fill="#f9cb9c" d="m60.27559 85.2126l60.377953 0l0 348.0315l-60.377953 0z" fill-rule="evenodd"/><path stroke="#000000" stroke-width="1.0" stroke-linejoin="round" stroke-linecap="butt" d="m60.27559 85.2126l60.377953 0l0 348.0315l-60.377953 0z" fill-rule="evenodd"/><path fill="#000000" d="m94.48801 255.58835l-1.359375 0l-0.203125 -6.375l-0.09375 -2.4375l-0.46875 1.421875l-1.515625 4.0625l-0.953125 0l-1.4375 -3.90625l-0.484375 -1.578125l-0.03125 2.546875l-0.171875 6.265625l-1.3125 0l0.5 -10.21875l1.640625 0l1.375 3.84375l0.453125 1.296875l0.421875 -1.296875l1.453125 -3.84375l1.6875 0l0.5 10.21875z" fill-rule="nonzero"/><path fill="#000000" d="m81.292694 274.58835l-1.359375 0l-0.203125 -6.375l-0.09375 -2.4375l-0.46875 1.421875l-1.515625 4.0625l-0.953125 0l-1.4375 -3.90625l-0.484375 -1.578125l-0.03125 2.546875l-0.171875 6.265625l-1.3125 0l0.5 -10.21875l1.640625 0l1.375 3.84375l0.453125 1.296875l0.421875 -1.296875l1.453125 -3.84375l1.6875 0l0.5 10.21875zm8.453125 -3.984375q0 0.90625 -0.265625 1.671875q-0.25 0.765625 -0.734375 1.3125q-0.484375 0.53125 -1.1875 0.84375q-0.6875 0.296875 -1.5625 0.296875q-0.84375 0 -1.515625 -0.265625q-0.671875 -0.265625 -1.140625 -0.765625q-0.453125 -0.515625 -0.703125 -1.265625q-0.25 -0.75 -0.25 -1.71875q0 -0.921875 0.25 -1.671875q0.265625 -0.75 0.75 -1.296875q0.484375 -0.546875 1.171875 -0.84375q0.703125 -0.296875 1.59375 -0.296875q0.84375 0 1.5 0.265625q0.671875 0.25 1.140625 0.765625q0.46875 0.5 0.703125 1.25q0.25 0.75 0.25 1.71875zm-1.390625 0.0625q0 -0.734375 -0.15625 -1.265625q-0.15625 -0.546875 -0.453125 -0.90625q-0.296875 -0.375 -0.734375 -0.546875q-0.421875 -0.1875 -0.9375 -0.1875q-0.609375 0 -1.046875 0.234375q-0.4375 0.234375 -0.71875 0.640625q-0.265625 0.390625 -0.40625 0.921875q-0.125 0.53125 -0.125 1.109375q0 0.71875 0.15625 1.265625q0.171875 0.546875 0.46875 0.921875q0.296875 0.359375 0.71875 0.546875q0.421875 0.171875 0.953125 0.171875q0.609375 0 1.03125 -0.234375q0.4375 -0.234375 0.71875 -0.625q0.28125 -0.40625 0.40625 -0.9375q0.125 -0.53125 0.125 -1.109375zm2.96875 0.15625q0 -1.0 0.265625 -1.765625q0.28125 -0.78125 0.78125 -1.3125q0.5 -0.546875 1.203125 -0.8125q0.71875 -0.28125 1.578125 -0.28125q0.375 0 0.734375 0.046875q0.375 0.046875 0.71875 0.140625l0 -3.296875l1.375 0l0 11.046875l-1.21875 0l-0.046875 -1.484375q-0.578125 0.828125 -1.25 1.234375q-0.65625 0.390625 -1.421875 0.390625q-0.671875 0 -1.1875 -0.28125q-0.515625 -0.28125 -0.859375 -0.796875q-0.328125 -0.515625 -0.5 -1.234375q-0.171875 -0.71875 -0.171875 -1.59375zm1.390625 -0.078125q0 1.421875 0.40625 2.125q0.421875 0.6875 1.1875 0.6875q0.515625 0 1.09375 -0.453125q0.578125 -0.46875 1.203125 -1.375l0 -3.640625q-0.328125 -0.15625 -0.734375 -0.234375q-0.40625 -0.078125 -0.8125 -0.078125q-1.109375 0 -1.734375 0.71875q-0.609375 0.71875 -0.609375 2.25zm14.421875 -0.5q0 0.296875 -0.015625 0.5q0 0.1875 -0.015625 0.359375l-5.5 0q0 1.203125 0.671875 1.84375q0.671875 0.640625 1.9375 0.640625q0.34375 0 0.6875 -0.015625q0.34375 -0.03125 0.65625 -0.078125q0.328125 -0.046875 0.609375 -0.109375q0.296875 -0.0625 0.546875 -0.125l0 1.109375q-0.546875 0.15625 -1.25 0.25q-0.703125 0.109375 -1.453125 0.109375q-1.0 0 -1.734375 -0.265625q-0.71875 -0.28125 -1.1875 -0.796875q-0.46875 -0.53125 -0.6875 -1.28125q-0.21875 -0.75 -0.21875 -1.703125q0 -0.828125 0.234375 -1.5625q0.234375 -0.75 0.6875 -1.296875q0.46875 -0.5625 1.125 -0.890625q0.671875 -0.328125 1.515625 -0.328125q0.8125 0 1.4375 0.265625q0.640625 0.25 1.078125 0.71875q0.4375 0.46875 0.65625 1.15625q0.21875 0.671875 0.21875 1.5zm-1.40625 -0.1875q0.015625 -0.53125 -0.109375 -0.953125q-0.125 -0.4375 -0.390625 -0.75q-0.25 -0.3125 -0.640625 -0.484375q-0.390625 -0.1875 -0.90625 -0.1875q-0.453125 0 -0.828125 0.171875q-0.359375 0.171875 -0.625 0.484375q-0.265625 0.3125 -0.4375 0.75q-0.15625 0.4375 -0.1875 0.96875l4.125 0z" fill-rule="nonzero"/><path fill="#000000" fill-opacity="0.0" d="m52.27559 30.91098l0 0c-5.7315826 0 -10.377953 0.7743645 -10.377953 1.7295914l0 197.70618c0 0.9552307 -4.646366 1.729599 -10.377951 1.729599l0 0c5.7315845 0 10.377951 0.774353 10.377951 1.7295837l0 197.70616c0 0.9552307 4.64637 1.7296143 10.377953 1.7296143z" fill-rule="evenodd"/><path fill="#000000" fill-opacity="0.0" d="m52.27559 30.91098l0 0c-5.7315826 0 -10.377953 0.7743645 -10.377953 1.7295914l0 197.70618c0 0.9552307 -4.646366 1.729599 -10.377951 1.729599l0 0c5.7315845 0 10.377951 0.774353 10.377951 1.7295837l0 197.70616c0 0.9552307 4.64637 1.7296143 10.377953 1.7296143" fill-rule="evenodd"/><path stroke="#000000" stroke-width="1.0" stroke-linejoin="round" stroke-linecap="butt" d="m52.27559 30.91098l0 0c-5.7315826 0 -10.377953 0.7743645 -10.377953 1.7295914l0 197.70618c0 0.9552307 -4.646366 1.729599 -10.377951 1.729599l0 0c5.7315845 0 10.377951 0.774353 10.377951 1.7295837l0 197.70616c0 0.9552307 4.64637 1.7296143 10.377953 1.7296143" fill-rule="evenodd"/><path fill="#000000" fill-opacity="0.0" d="m41.09186 28.29165l0 402.70865l-26.771652 0l0 -402.70865z" fill-rule="evenodd"/><path fill="#000000" d="m23.825613 171.60692q-0.625 0 -1.25 -0.234375q-0.609375 -0.234375 -1.09375 -0.734375q-0.484375 -0.484375 -0.78125 -1.25q-0.296875 -0.765625 -0.296875 -1.828125l0 -1.265625l-3.671875 0l0 -1.390625l10.21875 0l0 2.875q0 0.765625 -0.171875 1.453125q-0.171875 0.703125 -0.546875 1.21875q-0.375 0.53125 -0.96875 0.84375q-0.59375 0.3125 -1.4375 0.3125zm-0.0625 -1.4375q0.984375 0 1.5 -0.65625q0.53125 -0.640625 0.53125 -1.796875l0 -1.421875l-4.203125 0l0 1.296875q0 1.234375 0.53125 1.90625q0.546875 0.671875 1.640625 0.671875zm0.8125 3.875l0 1.234375l-1.4375 0.046875q0.828125 0.6875 1.203125 1.359375q0.375 0.6875 0.375 1.375q0 1.21875 -0.796875 1.84375q-0.78125 0.625 -2.328125 0.578125l0 -1.375q1.03125 0.03125 1.484375 -0.296875q0.46875 -0.328125 0.46875 -0.953125q0 -0.265625 -0.09375 -0.546875q-0.09375 -0.28125 -0.3125 -0.578125q-0.21875 -0.28125 -0.5625 -0.609375q-0.328125 -0.328125 -0.796875 -0.703125l-5.046875 0l0 -1.375l7.84375 0zm-3.859375 15.296875q-0.90625 0 -1.671875 -0.265625q-0.765625 -0.25 -1.3125 -0.734375q-0.53125 -0.484375 -0.84375 -1.1875q-0.296875 -0.6875 -0.296875 -1.5625q0 -0.84375 0.265625 -1.515625q0.265625 -0.671875 0.765625 -1.140625q0.515625 -0.453125 1.265625 -0.703125q0.75 -0.25 1.71875 -0.25q0.921875 0 1.671875 0.25q0.75 0.265625 1.296875 0.75q0.546875 0.484375 0.84375 1.171875q0.296875 0.703125 0.296875 1.59375q0 0.84375 -0.265625 1.5q-0.25 0.671875 -0.765625 1.140625q-0.5 0.46875 -1.25 0.703125q-0.75 0.25 -1.71875 0.25zm-0.0625 -1.390625q0.734375 0 1.265625 -0.15625q0.546875 -0.15625 0.90625 -0.453125q0.375 -0.296875 0.546875 -0.734375q0.1875 -0.421875 0.1875 -0.9375q0 -0.609375 -0.234375 -1.046875q-0.234375 -0.4375 -0.640625 -0.71875q-0.390625 -0.265625 -0.921875 -0.40625q-0.53125 -0.125 -1.109375 -0.125q-0.71875 0 -1.265625 0.15625q-0.546875 0.171875 -0.921875 0.46875q-0.359375 0.296875 -0.546875 0.71875q-0.171875 0.421875 -0.171875 0.953125q0 0.609375 0.234375 1.03125q0.234375 0.4375 0.625 0.71875q0.40625 0.28125 0.9375 0.40625q0.53125 0.125 1.109375 0.125zm-3.625 9.453125q-0.203125 -0.53125 -0.296875 -1.09375q-0.109375 -0.546875 -0.109375 -1.140625q0 -1.859375 1.0 -2.875q1.015625 -1.0 2.953125 -1.0q0.9375 0 1.6875 0.28125q0.765625 0.296875 1.296875 0.8125q0.546875 0.53125 0.828125 1.25q0.296875 0.734375 0.296875 1.609375q0 0.609375 -0.09375 1.140625q-0.078125 0.53125 -0.265625 1.015625l-1.296875 0q0.265625 -0.5 0.375 -1.03125q0.125 -0.53125 0.125 -1.09375q0 -0.515625 -0.203125 -0.984375q-0.1875 -0.46875 -0.5625 -0.828125q-0.375 -0.34375 -0.921875 -0.546875q-0.53125 -0.203125 -1.21875 -0.203125q-1.421875 0 -2.125 0.6875q-0.703125 0.703125 -0.703125 1.921875q0 0.5625 0.125 1.078125q0.125 0.515625 0.375 1.0l-1.265625 0zm4.046875 9.328125q-0.296875 0 -0.5 -0.015625q-0.1875 0 -0.359375 -0.015625l0 -5.5q-1.203125 0 -1.84375 0.671875q-0.640625 0.671875 -0.640625 1.9375q0 0.34375 0.015625 0.6875q0.03125 0.34375 0.078125 0.65625q0.046875 0.328125 0.109375 0.609375q0.0625 0.296875 0.125 0.546875l-1.109375 0q-0.15625 -0.546875 -0.25 -1.25q-0.109375 -0.703125 -0.109375 -1.453125q0 -1.0 0.265625 -1.734375q0.28125 -0.71875 0.796875 -1.1875q0.53125 -0.46875 1.28125 -0.6875q0.75 -0.21875 1.703125 -0.21875q0.828125 0 1.5625 0.234375q0.75 0.234375 1.296875 0.6875q0.5625 0.46875 0.890625 1.125q0.328125 0.671875 0.328125 1.515625q0 0.8125 -0.265625 1.4375q-0.25 0.640625 -0.71875 1.078125q-0.46875 0.4375 -1.15625 0.65625q-0.671875 0.21875 -1.5 0.21875zm0.1875 -1.40625q0.53125 0.015625 0.953125 -0.109375q0.4375 -0.125 0.75 -0.390625q0.3125 -0.25 0.484375 -0.640625q0.1875 -0.390625 0.1875 -0.90625q0 -0.453125 -0.171875 -0.828125q-0.171875 -0.359375 -0.484375 -0.625q-0.3125 -0.265625 -0.75 -0.4375q-0.4375 -0.15625 -0.96875 -0.1875l0 4.125zm-2.390625 9.796875q-0.40625 0 -0.734375 -0.140625q-0.328125 -0.140625 -0.59375 -0.390625q-0.25 -0.234375 -0.4375 -0.5625q-0.171875 -0.3125 -0.296875 -0.6875q-0.109375 -0.359375 -0.15625 -0.75q-0.0625 -0.375 -0.0625 -0.734375q0 -0.796875 0.078125 -1.46875q0.0625 -0.671875 0.21875 -1.3125l1.25 0q-0.1875 0.6875 -0.296875 1.359375q-0.09375 0.6875 -0.09375 1.359375q0 0.984375 0.265625 1.453125q0.265625 0.46875 0.75 0.46875q0.21875 0 0.375 -0.078125q0.171875 -0.078125 0.328125 -0.28125q0.15625 -0.1875 0.3125 -0.59375q0.171875 -0.40625 0.375 -1.125q0.15625 -0.53125 0.359375 -0.984375q0.203125 -0.4375 0.46875 -0.765625q0.28125 -0.328125 0.640625 -0.515625q0.375 -0.1875 0.875 -0.1875q0.328125 0 0.71875 0.140625q0.390625 0.15625 0.71875 0.515625q0.34375 0.375 0.5625 1.0q0.21875 0.625 0.21875 1.5625q0 0.46875 -0.046875 1.03125q-0.046875 0.5625 -0.171875 1.171875l-1.21875 0q0.15625 -0.640625 0.234375 -1.21875q0.078125 -0.578125 0.078125 -1.0q0 -0.5 -0.078125 -0.859375q-0.078125 -0.34375 -0.21875 -0.5625q-0.140625 -0.203125 -0.328125 -0.296875q-0.171875 -0.09375 -0.390625 -0.09375q-0.203125 0 -0.375 0.078125q-0.171875 0.078125 -0.34375 0.296875q-0.15625 0.234375 -0.3125 0.625q-0.15625 0.40625 -0.34375 1.046875q-0.203125 0.6875 -0.4375 1.15625q-0.21875 0.484375 -0.5 0.78125q-0.265625 0.296875 -0.609375 0.421875q-0.34375 0.140625 -0.78125 0.140625zm0 8.796875q-0.40625 0 -0.734375 -0.140625q-0.328125 -0.140625 -0.59375 -0.390625q-0.25 -0.234375 -0.4375 -0.5625q-0.171875 -0.3125 -0.296875 -0.6875q-0.109375 -0.359375 -0.15625 -0.75q-0.0625 -0.375 -0.0625 -0.734375q0 -0.796875 0.078125 -1.46875q0.0625 -0.671875 0.21875 -1.3125l1.25 0q-0.1875 0.6875 -0.296875 1.359375q-0.09375 0.6875 -0.09375 1.359375q0 0.984375 0.265625 1.453125q0.265625 0.46875 0.75 0.46875q0.21875 0 0.375 -0.078125q0.171875 -0.078125 0.328125 -0.28125q0.15625 -0.1875 0.3125 -0.59375q0.171875 -0.40625 0.375 -1.125q0.15625 -0.53125 0.359375 -0.984375q0.203125 -0.4375 0.46875 -0.765625q0.28125 -0.328125 0.640625 -0.515625q0.375 -0.1875 0.875 -0.1875q0.328125 0 0.71875 0.140625q0.390625 0.15625 0.71875 0.515625q0.34375 0.375 0.5625 1.0q0.21875 0.625 0.21875 1.5625q0 0.46875 -0.046875 1.03125q-0.046875 0.5625 -0.171875 1.171875l-1.21875 0q0.15625 -0.640625 0.234375 -1.21875q0.078125 -0.578125 0.078125 -1.0q0 -0.5 -0.078125 -0.859375q-0.078125 -0.34375 -0.21875 -0.5625q-0.140625 -0.203125 -0.328125 -0.296875q-0.171875 -0.09375 -0.390625 -0.09375q-0.203125 0 -0.375 0.078125q-0.171875 0.078125 -0.34375 0.296875q-0.15625 0.234375 -0.3125 0.625q-0.15625 0.40625 -0.34375 1.046875q-0.203125 0.6875 -0.4375 1.15625q-0.21875 0.484375 -0.5 0.78125q-0.265625 0.296875 -0.609375 0.421875q-0.34375 0.140625 -0.78125 0.140625zm1.84375 9.40625q-0.90625 0 -1.671875 -0.265625q-0.765625 -0.25 -1.3125 -0.734375q-0.53125 -0.484375 -0.84375 -1.1875q-0.296875 -0.6875 -0.296875 -1.5625q0 -0.84375 0.265625 -1.515625q0.265625 -0.671875 0.765625 -1.140625q0.515625 -0.453125 1.265625 -0.703125q0.75 -0.25 1.71875 -0.25q0.921875 0 1.671875 0.25q0.75 0.265625 1.296875 0.75q0.546875 0.484375 0.84375 1.171875q0.296875 0.703125 0.296875 1.59375q0 0.84375 -0.265625 1.5q-0.25 0.671875 -0.765625 1.140625q-0.5 0.46875 -1.25 0.703125q-0.75 0.25 -1.71875 0.25zm-0.0625 -1.390625q0.734375 0 1.265625 -0.15625q0.546875 -0.15625 0.90625 -0.453125q0.375 -0.296875 0.546875 -0.734375q0.1875 -0.421875 0.1875 -0.9375q0 -0.609375 -0.234375 -1.046875q-0.234375 -0.4375 -0.640625 -0.71875q-0.390625 -0.265625 -0.921875 -0.40625q-0.53125 -0.125 -1.109375 -0.125q-0.71875 0 -1.265625 0.15625q-0.546875 0.171875 -0.921875 0.46875q-0.359375 0.296875 -0.546875 0.71875q-0.171875 0.421875 -0.171875 0.953125q0 0.609375 0.234375 1.03125q0.234375 0.4375 0.625 0.71875q0.40625 0.28125 0.9375 0.40625q0.53125 0.125 1.109375 0.125zm3.921875 3.6875l0 1.234375l-1.4375 0.046875q0.828125 0.6875 1.203125 1.359375q0.375 0.6875 0.375 1.375q0 1.21875 -0.796875 1.84375q-0.78125 0.625 -2.328125 0.578125l0 -1.375q1.03125 0.03125 1.484375 -0.296875q0.46875 -0.328125 0.46875 -0.953125q0 -0.265625 -0.09375 -0.546875q-0.09375 -0.28125 -0.3125 -0.578125q-0.21875 -0.28125 -0.5625 -0.609375q-0.328125 -0.328125 -0.796875 -0.703125l-5.046875 0l0 -1.375l7.84375 0zm-7.84375 24.437485l0 -1.359375l6.375 -0.203125l2.4375 -0.09375l-1.421875 -0.46875l-4.0625 -1.515625l0 -0.95310974l3.90625 -1.4375l1.578125 -0.484375l-2.546875 -0.03125l-6.265625 -0.171875l0 -1.3125l10.21875 0.5l0 1.640625l-3.84375 1.375l-1.296875 0.453125l1.296875 0.42185974l3.84375 1.453125l0 1.6875l-10.21875 0.5zm3.984375 8.453125q-0.90625 0 -1.671875 -0.265625q-0.765625 -0.25 -1.3125 -0.734375q-0.53125 -0.484375 -0.84375 -1.1875q-0.296875 -0.6875 -0.296875 -1.5625q0 -0.84375 0.265625 -1.515625q0.265625 -0.671875 0.765625 -1.140625q0.515625 -0.453125 1.265625 -0.703125q0.75 -0.25 1.71875 -0.25q0.921875 0 1.671875 0.25q0.75 0.265625 1.296875 0.75q0.546875 0.484375 0.84375 1.171875q0.296875 0.703125 0.296875 1.59375q0 0.84375 -0.265625 1.5q-0.25 0.671875 -0.765625 1.140625q-0.5 0.46875 -1.25 0.703125q-0.75 0.25 -1.71875 0.25zm-0.0625 -1.390625q0.734375 0 1.265625 -0.15625q0.546875 -0.15625 0.90625 -0.453125q0.375 -0.296875 0.546875 -0.734375q0.1875 -0.421875 0.1875 -0.9375q0 -0.609375 -0.234375 -1.046875q-0.234375 -0.4375 -0.640625 -0.71875q-0.390625 -0.265625 -0.921875 -0.40625q-0.53125 -0.125 -1.109375 -0.125q-0.71875 0 -1.265625 0.15625q-0.546875 0.171875 -0.921875 0.46875q-0.359375 0.296875 -0.546875 0.71875q-0.171875 0.421875 -0.171875 0.953125q0 0.609375 0.234375 1.03125q0.234375 0.4375 0.625 0.71875q0.40625 0.28125 0.9375 0.40625q0.53125 0.125 1.109375 0.125zm-0.15625 2.96875q1.0 0 1.765625 0.265625q0.78125 0.28125 1.3125 0.78125q0.546875 0.5 0.8125 1.203125q0.28125 0.71875 0.28125 1.578125q0 0.375 -0.046875 0.734375q-0.046875 0.375 -0.140625 0.71875l3.296875 0l0 1.375l-11.046875 0l0 -1.21875l1.484375 -0.046875q-0.828125 -0.578125 -1.234375 -1.25q-0.390625 -0.65625 -0.390625 -1.421875q0 -0.671875 0.28125 -1.1875q0.28125 -0.515625 0.796875 -0.859375q0.515625 -0.328125 1.234375 -0.5q0.71875 -0.171875 1.59375 -0.171875zm0.078125 1.390625q-1.421875 0 -2.125 0.40625q-0.6875 0.421875 -0.6875 1.1875q0 0.515625 0.453125 1.09375q0.46875 0.578125 1.375 1.203125l3.640625 0q0.15625 -0.328125 0.234375 -0.734375q0.078125 -0.40625 0.078125 -0.8125q0 -1.109375 -0.71875 -1.734375q-0.71875 -0.609375 -2.25 -0.609375zm0.5 14.421875q-0.296875 0 -0.5 -0.015625q-0.1875 0 -0.359375 -0.015625l0 -5.5q-1.203125 0 -1.84375 0.671875q-0.640625 0.671875 -0.640625 1.9375q0 0.34375 0.015625 0.6875q0.03125 0.34375 0.078125 0.65625q0.046875 0.328125 0.109375 0.609375q0.0625 0.296875 0.125 0.546875l-1.109375 0q-0.15625 -0.546875 -0.25 -1.25q-0.109375 -0.703125 -0.109375 -1.453125q0 -1.0 0.265625 -1.734375q0.28125 -0.71875 0.796875 -1.1875q0.53125 -0.46875 1.28125 -0.6875q0.75 -0.21875 1.703125 -0.21875q0.828125 0 1.5625 0.234375q0.75 0.234375 1.296875 0.6875q0.5625 0.46875 0.890625 1.125q0.328125 0.671875 0.328125 1.515625q0 0.8125 -0.265625 1.4375q-0.25 0.640625 -0.71875 1.078125q-0.46875 0.4375 -1.15625 0.65625q-0.671875 0.21875 -1.5 0.21875zm0.1875 -1.40625q0.53125 0.015625 0.953125 -0.109375q0.4375 -0.125 0.75 -0.390625q0.3125 -0.25 0.484375 -0.640625q0.1875 -0.390625 0.1875 -0.90625q0 -0.453125 -0.171875 -0.828125q-0.171875 -0.359375 -0.484375 -0.625q-0.3125 -0.265625 -0.75 -0.4375q-0.4375 -0.15625 -0.96875 -0.1875l0 4.125zm-2.390625 9.796875q-0.40625 0 -0.734375 -0.140625q-0.328125 -0.140625 -0.59375 -0.390625q-0.25 -0.234375 -0.4375 -0.5625q-0.171875 -0.3125 -0.296875 -0.6875q-0.109375 -0.359375 -0.15625 -0.75q-0.0625 -0.375 -0.0625 -0.734375q0 -0.796875 0.078125 -1.46875q0.0625 -0.671875 0.21875 -1.3125l1.25 0q-0.1875 0.6875 -0.296875 1.359375q-0.09375 0.6875 -0.09375 1.359375q0 0.984375 0.265625 1.453125q0.265625 0.46875 0.75 0.46875q0.21875 0 0.375 -0.078125q0.171875 -0.078125 0.328125 -0.28125q0.15625 -0.1875 0.3125 -0.59375q0.171875 -0.40625 0.375 -1.125q0.15625 -0.53125 0.359375 -0.984375q0.203125 -0.4375 0.46875 -0.765625q0.28125 -0.328125 0.640625 -0.515625q0.375 -0.1875 0.875 -0.1875q0.328125 0 0.71875 0.140625q0.390625 0.15625 0.71875 0.515625q0.34375 0.375 0.5625 1.0q0.21875 0.625 0.21875 1.5625q0 0.46875 -0.046875 1.03125q-0.046875 0.5625 -0.171875 1.171875l-1.21875 0q0.15625 -0.640625 0.234375 -1.21875q0.078125 -0.578125 0.078125 -1.0q0 -0.5 -0.078125 -0.859375q-0.078125 -0.34375 -0.21875 -0.5625q-0.140625 -0.203125 -0.328125 -0.296875q-0.171875 -0.09375 -0.390625 -0.09375q-0.203125 0 -0.375 0.078125q-0.171875 0.078125 -0.34375 0.296875q-0.15625 0.234375 -0.3125 0.625q-0.15625 0.40625 -0.34375 1.046875q-0.203125 0.6875 -0.4375 1.15625q-0.21875 0.484375 -0.5 0.78125q-0.265625 0.296875 -0.609375 0.421875q-0.34375 0.140625 -0.78125 0.140625z" fill-rule="nonzero"/></g></svg>