<svg version="1.1" viewBox="0.0 0.0 511.0 334.0" fill="none" stroke="none" stroke-linecap="square" stroke-miterlimit="10" xmlns:xlink="http://www.w3.org/1999/xlink" xmlns="http://www.w3.org/2000/svg"><clipPath id="p.0"><path d="m0 0l511.0 0l0 334.0l-511.0 0l0 -334.0z" clip-rule="nonzero"/></clipPath><g clip-path="url(#p.0)"><path fill="#000000" fill-opacity="0.0" d="m0 0l511.0 0l0 334.0l-511.0 0z" fill-rule="evenodd"/><path fill="#d9d2e9" d="m88.0 9.296588l166.01575 0l0 316.50394l-166.01575 0z" fill-rule="evenodd"/><path stroke="#000000" stroke-width="1.0" stroke-linejoin="round" stroke-linecap="butt" stroke-dasharray="4.0,3.0" d="m88.0 9.296588l166.01575 0l0 316.50394l-166.01575 0z" fill-rule="evenodd"/><path fill="#000000" d="m102.46875 314.04053l-1.046875 0l-1.015625 -2.171875q-0.109375 -0.25 -0.234375 -0.40625q-0.125 -0.171875 -0.265625 -0.265625q-0.125 -0.09375 -0.296875 -0.140625q-0.15625 -0.046875 -0.359375 -0.046875l-0.4375 0l0 3.03125l-0.921875 0l0 -6.796875l1.8125 0q0.59375 0 1.015625 0.125q0.4375 0.125 0.703125 0.359375q0.28125 0.234375 0.40625 0.578125q0.125 0.328125 0.125 0.71875q0 0.328125 -0.09375 0.609375q-0.09375 0.28125 -0.28125 0.515625q-0.1875 0.234375 -0.46875 0.40625q-0.265625 0.15625 -0.609375 0.25q0.28125 0.09375 0.484375 0.34375q0.203125 0.234375 0.40625 0.65625l1.078125 2.234375zm-1.484375 -4.9375q0 -0.546875 -0.34375 -0.8125q-0.34375 -0.265625 -0.953125 -0.265625l-0.875 0l0 2.25l0.75 0q0.328125 0 0.578125 -0.078125q0.265625 -0.078125 0.453125 -0.21875q0.1875 -0.15625 0.28125 -0.375q0.109375 -0.21875 0.109375 -0.5zm7.124481 2.046875q0 0.203125 -0.015625 0.328125q0 0.125 -0.015625 0.234375l-3.65625 0q0 0.8125 0.4375 1.25q0.453125 0.421875 1.296875 0.421875q0.21875 0 0.453125 -0.015625q0.234375 -0.03125 0.4375 -0.0625q0.21875 -0.03125 0.40625 -0.0625q0.203125 -0.046875 0.375 -0.09375l0 0.75q-0.375 0.109375 -0.84375 0.171875q-0.46875 0.0625 -0.96875 0.0625q-0.65625 0 -1.140625 -0.171875q-0.484375 -0.1875 -0.796875 -0.53125q-0.3125 -0.359375 -0.46875 -0.859375q-0.140625 -0.5 -0.140625 -1.140625q0 -0.546875 0.15625 -1.03125q0.15625 -0.5 0.453125 -0.859375q0.3125 -0.375 0.75 -0.59375q0.453125 -0.21875 1.015625 -0.21875q0.546875 0 0.96875 0.171875q0.421875 0.171875 0.703125 0.484375q0.296875 0.3125 0.4375 0.765625q0.15625 0.453125 0.15625 1.0zm-0.953125 -0.125q0.015625 -0.34375 -0.0625 -0.625q-0.078125 -0.296875 -0.265625 -0.5q-0.171875 -0.21875 -0.4375 -0.328125q-0.25 -0.125 -0.59375 -0.125q-0.296875 0 -0.546875 0.125q-0.234375 0.109375 -0.421875 0.3125q-0.171875 0.203125 -0.28125 0.5q-0.109375 0.296875 -0.125 0.640625l2.734375 0zm6.530731 1.59375q0 0.265625 -0.09375 0.484375q-0.09375 0.21875 -0.265625 0.390625q-0.15625 0.171875 -0.375 0.296875q-0.203125 0.109375 -0.453125 0.1875q-0.234375 0.078125 -0.5 0.109375q-0.25 0.046875 -0.484375 0.046875q-0.53125 0 -0.984375 -0.046875q-0.4375 -0.046875 -0.859375 -0.15625l0 -0.828125q0.453125 0.125 0.90625 0.203125q0.453125 0.0625 0.890625 0.0625q0.65625 0 0.96875 -0.171875q0.3125 -0.1875 0.3125 -0.515625q0 -0.140625 -0.046875 -0.25q-0.046875 -0.109375 -0.1875 -0.203125q-0.125 -0.109375 -0.40625 -0.21875q-0.265625 -0.109375 -0.734375 -0.25q-0.359375 -0.109375 -0.65625 -0.234375q-0.296875 -0.140625 -0.515625 -0.3125q-0.21875 -0.1875 -0.34375 -0.421875q-0.125 -0.25 -0.125 -0.578125q0 -0.21875 0.09375 -0.484375q0.109375 -0.265625 0.34375 -0.484375q0.25 -0.21875 0.671875 -0.359375q0.421875 -0.15625 1.03125 -0.15625q0.3125 0 0.6875 0.03125q0.375 0.03125 0.78125 0.109375l0 0.8125q-0.421875 -0.109375 -0.8125 -0.15625q-0.375 -0.046875 -0.65625 -0.046875q-0.34375 0 -0.578125 0.0625q-0.21875 0.046875 -0.375 0.140625q-0.140625 0.078125 -0.203125 0.203125q-0.0625 0.125 -0.0625 0.265625q0 0.140625 0.046875 0.265625q0.0625 0.109375 0.203125 0.21875q0.15625 0.09375 0.421875 0.203125q0.265625 0.109375 0.6875 0.234375q0.46875 0.140625 0.78125 0.28125q0.328125 0.140625 0.515625 0.328125q0.203125 0.1875 0.28125 0.421875q0.09375 0.21875 0.09375 0.515625zm6.140106 -1.46875q0 0.203125 -0.015625 0.328125q0 0.125 -0.015625 0.234375l-3.65625 0q0 0.8125 0.4375 1.25q0.453125 0.421875 1.296875 0.421875q0.21875 0 0.453125 -0.015625q0.234375 -0.03125 0.4375 -0.0625q0.21875 -0.03125 0.40625 -0.0625q0.203125 -0.046875 0.375 -0.09375l0 0.75q-0.375 0.109375 -0.84375 0.171875q-0.46875 0.0625 -0.96875 0.0625q-0.65625 0 -1.140625 -0.171875q-0.484375 -0.1875 -0.796875 -0.53125q-0.3125 -0.359375 -0.46875 -0.859375q-0.140625 -0.5 -0.140625 -1.140625q0 -0.546875 0.15625 -1.03125q0.15625 -0.5 0.453125 -0.859375q0.3125 -0.375 0.75 -0.59375q0.453125 -0.21875 1.015625 -0.21875q0.546875 0 0.96875 0.171875q0.421875 0.171875 0.703125 0.484375q0.296875 0.3125 0.4375 0.765625q0.15625 0.453125 0.15625 1.0zm-0.953125 -0.125q0.015625 -0.34375 -0.0625 -0.625q-0.078125 -0.296875 -0.265625 -0.5q-0.171875 -0.21875 -0.4375 -0.328125q-0.25 -0.125 -0.59375 -0.125q-0.296875 0 -0.546875 0.125q-0.234375 0.109375 -0.421875 0.3125q-0.171875 0.203125 -0.28125 0.5q-0.109375 0.296875 -0.125 0.640625l2.734375 0zm6.608856 2.9375q-0.3125 0.078125 -0.640625 0.109375q-0.328125 0.046875 -0.671875 0.046875q-0.984375 0 -1.46875 -0.4375q-0.46875 -0.453125 -0.46875 -1.375l0 -2.734375l-1.46875 0l0 -0.75l1.46875 0l0 -1.4375l0.890625 -0.234375l0 1.671875l2.359375 0l0 0.75l-2.359375 0l0 2.65625q0 0.5625 0.296875 0.84375q0.3125 0.28125 0.890625 0.28125q0.25 0 0.546875 -0.03125q0.296875 -0.046875 0.625 -0.140625l0 0.78125zm11.702087 -7.28125l-3.5625 8.484375l-0.875 0l3.578125 -8.484375l0.859375 0zm11.967712 2.640625q0 0.421875 -0.15625 0.828125q-0.15625 0.40625 -0.484375 0.734375q-0.328125 0.3125 -0.84375 0.515625q-0.5 0.203125 -1.203125 0.203125l-0.84375 0l0 2.4375l-0.921875 0l0 -6.796875l1.90625 0q0.5 0 0.96875 0.109375q0.46875 0.109375 0.8125 0.359375q0.359375 0.25 0.5625 0.65625q0.203125 0.390625 0.203125 0.953125zm-0.953125 0.046875q0 -0.65625 -0.4375 -1.0q-0.421875 -0.359375 -1.203125 -0.359375l-0.9375 0l0 2.796875l0.859375 0q0.828125 0 1.265625 -0.359375q0.453125 -0.359375 0.453125 -1.078125zm6.905731 2.015625q0 0.609375 -0.171875 1.125q-0.171875 0.5 -0.5 0.859375q-0.3125 0.359375 -0.78125 0.5625q-0.453125 0.203125 -1.046875 0.203125q-0.5625 0 -1.015625 -0.171875q-0.4375 -0.171875 -0.75 -0.515625q-0.296875 -0.34375 -0.46875 -0.84375q-0.15625 -0.5 -0.15625 -1.140625q0 -0.609375 0.171875 -1.109375q0.171875 -0.5 0.484375 -0.859375q0.328125 -0.375 0.78125 -0.5625q0.46875 -0.203125 1.0625 -0.203125q0.5625 0 1.0 0.171875q0.453125 0.171875 0.75 0.515625q0.3125 0.328125 0.46875 0.828125q0.171875 0.5 0.171875 1.140625zm-0.921875 0.046875q0 -0.484375 -0.109375 -0.84375q-0.109375 -0.359375 -0.3125 -0.59375q-0.1875 -0.25 -0.46875 -0.375q-0.28125 -0.125 -0.640625 -0.125q-0.390625 0 -0.6875 0.15625q-0.28125 0.15625 -0.46875 0.421875q-0.1875 0.265625 -0.28125 0.625q-0.078125 0.34375 -0.078125 0.734375q0 0.484375 0.109375 0.84375q0.109375 0.359375 0.296875 0.609375q0.203125 0.234375 0.484375 0.359375q0.28125 0.125 0.625 0.125q0.40625 0 0.6875 -0.15625q0.296875 -0.15625 0.484375 -0.421875q0.1875 -0.265625 0.265625 -0.609375q0.09375 -0.359375 0.09375 -0.75zm7.077606 -2.609375l-0.765625 5.21875l-1.09375 0l-0.75 -2.1875l-0.15625 -0.53125l-0.171875 0.5625l-0.71875 2.15625l-1.0625 0l-0.765625 -5.21875l0.890625 0l0.4375 3.546875l0.09375 0.78125l0.21875 -0.6875l0.765625 -2.34375l0.640625 0l0.828125 2.3125l0.234375 0.6875l0.078125 -0.734375l0.40625 -3.5625l0.890625 0zm5.436981 2.328125q0 0.203125 -0.015625 0.328125q0 0.125 -0.015625 0.234375l-3.65625 0q0 0.8125 0.4375 1.25q0.453125 0.421875 1.296875 0.421875q0.21875 0 0.453125 -0.015625q0.234375 -0.03125 0.4375 -0.0625q0.21875 -0.03125 0.40625 -0.0625q0.203125 -0.046875 0.375 -0.09375l0 0.75q-0.375 0.109375 -0.84375 0.171875q-0.46875 0.0625 -0.96875 0.0625q-0.65625 0 -1.140625 -0.171875q-0.484375 -0.1875 -0.796875 -0.53125q-0.3125 -0.359375 -0.46875 -0.859375q-0.140625 -0.5 -0.140625 -1.140625q0 -0.546875 0.15625 -1.03125q0.15625 -0.5 0.453125 -0.859375q0.3125 -0.375 0.75 -0.59375q0.453125 -0.21875 1.015625 -0.21875q0.546875 0 0.96875 0.171875q0.421875 0.171875 0.703125 0.484375q0.296875 0.3125 0.4375 0.765625q0.15625 0.453125 0.15625 1.0zm-0.953125 -0.125q0.015625 -0.34375 -0.0625 -0.625q-0.078125 -0.296875 -0.265625 -0.5q-0.171875 -0.21875 -0.4375 -0.328125q-0.25 -0.125 -0.59375 -0.125q-0.296875 0 -0.546875 0.125q-0.234375 0.109375 -0.421875 0.3125q-0.171875 0.203125 -0.28125 0.5q-0.109375 0.296875 -0.125 0.640625l2.734375 0zm2.6088562 -2.203125l0.828125 0l0.03125 0.953125q0.453125 -0.546875 0.90625 -0.796875q0.453125 -0.25 0.90625 -0.25q0.8125 0 1.234375 0.53125q0.421875 0.515625 0.390625 1.546875l-0.921875 0q0.015625 -0.6875 -0.203125 -0.984375q-0.21875 -0.3125 -0.625 -0.3125q-0.1875 0 -0.375 0.0625q-0.1875 0.0625 -0.375 0.203125q-0.1875 0.140625 -0.40625 0.375q-0.21875 0.21875 -0.46875 0.53125l0 3.359375l-0.921875 0l0 -5.21875zm15.842712 4.96875q-0.8125 0.328125 -1.703125 0.328125q-1.4375 0 -2.21875 -0.859375q-0.765625 -0.859375 -0.765625 -2.546875q0 -0.8125 0.203125 -1.46875q0.21875 -0.671875 0.609375 -1.125q0.40625 -0.46875 0.953125 -0.71875q0.5625 -0.25 1.265625 -0.25q0.46875 0 0.875 0.09375q0.40625 0.078125 0.78125 0.234375l0 0.921875q-0.359375 -0.203125 -0.765625 -0.3125q-0.390625 -0.109375 -0.859375 -0.109375q-0.484375 0 -0.875 0.1875q-0.375 0.171875 -0.65625 0.515625q-0.265625 0.34375 -0.40625 0.84375q-0.140625 0.484375 -0.140625 1.109375q0 1.3125 0.53125 1.984375q0.53125 0.671875 1.5625 0.671875q0.4375 0 0.84375 -0.09375q0.40625 -0.109375 0.765625 -0.28125l0 0.875zm6.061981 -2.40625q0 0.609375 -0.171875 1.125q-0.171875 0.5 -0.5 0.859375q-0.3125 0.359375 -0.78125 0.5625q-0.453125 0.203125 -1.046875 0.203125q-0.5625 0 -1.015625 -0.171875q-0.4375 -0.171875 -0.75 -0.515625q-0.296875 -0.34375 -0.46875 -0.84375q-0.15625 -0.5 -0.15625 -1.140625q0 -0.609375 0.171875 -1.109375q0.171875 -0.5 0.484375 -0.859375q0.328125 -0.375 0.78125 -0.5625q0.46875 -0.203125 1.0625 -0.203125q0.5625 0 1.0 0.171875q0.453125 0.171875 0.75 0.515625q0.3125 0.328125 0.46875 0.828125q0.171875 0.5 0.171875 1.140625zm-0.921875 0.046875q0 -0.484375 -0.109375 -0.84375q-0.109375 -0.359375 -0.3125 -0.59375q-0.1875 -0.25 -0.46875 -0.375q-0.28125 -0.125 -0.640625 -0.125q-0.390625 0 -0.6875 0.15625q-0.28125 0.15625 -0.46875 0.421875q-0.1875 0.265625 -0.28125 0.625q-0.078125 0.34375 -0.078125 0.734375q0 0.484375 0.109375 0.84375q0.109375 0.359375 0.296875 0.609375q0.203125 0.234375 0.484375 0.359375q0.28125 0.125 0.625 0.125q0.40625 0 0.6875 -0.15625q0.296875 -0.15625 0.484375 -0.421875q0.1875 -0.265625 0.265625 -0.609375q0.09375 -0.359375 0.09375 -0.75zm2.2338562 -2.609375l0.8125 0l0.03125 0.84375q0.234375 -0.28125 0.4375 -0.453125q0.21875 -0.1875 0.421875 -0.296875q0.203125 -0.109375 0.421875 -0.140625q0.21875 -0.046875 0.4375 -0.046875q0.8125 0 1.21875 0.484375q0.421875 0.46875 0.421875 1.421875l0 3.40625l-0.90625 0l0 -3.328125q0 -0.625 -0.234375 -0.90625q-0.21875 -0.296875 -0.671875 -0.296875q-0.171875 0 -0.328125 0.046875q-0.15625 0.046875 -0.328125 0.171875q-0.171875 0.125 -0.375 0.328125q-0.203125 0.203125 -0.453125 0.515625l0 3.46875l-0.90625 0l0 -5.21875zm10.077606 5.140625q-0.3125 0.078125 -0.640625 0.109375q-0.328125 0.046875 -0.671875 0.046875q-0.984375 0 -1.46875 -0.4375q-0.46875 -0.453125 -0.46875 -1.375l0 -2.734375l-1.46875 0l0 -0.75l1.46875 0l0 -1.4375l0.890625 -0.234375l0 1.671875l2.359375 0l0 0.75l-2.359375 0l0 2.65625q0 0.5625 0.296875 0.84375q0.3125 0.28125 0.890625 0.28125q0.25 0 0.546875 -0.03125q0.296875 -0.046875 0.625 -0.140625l0 0.78125zm1.8588562 -5.140625l0.828125 0l0.03125 0.953125q0.453125 -0.546875 0.90625 -0.796875q0.453125 -0.25 0.90625 -0.25q0.8125 0 1.234375 0.53125q0.421875 0.515625 0.390625 1.546875l-0.921875 0q0.015625 -0.6875 -0.203125 -0.984375q-0.21875 -0.3125 -0.625 -0.3125q-0.1875 0 -0.375 0.0625q-0.1875 0.0625 -0.375 0.203125q-0.1875 0.140625 -0.40625 0.375q-0.21875 0.21875 -0.46875 0.53125l0 3.359375l-0.921875 0l0 -5.21875zm10.186981 2.5625q0 0.609375 -0.171875 1.125q-0.171875 0.5 -0.5 0.859375q-0.3125 0.359375 -0.78125 0.5625q-0.453125 0.203125 -1.046875 0.203125q-0.5625 0 -1.015625 -0.171875q-0.4375 -0.171875 -0.75 -0.515625q-0.296875 -0.34375 -0.46875 -0.84375q-0.15625 -0.5 -0.15625 -1.140625q0 -0.609375 0.171875 -1.109375q0.171875 -0.5 0.484375 -0.859375q0.328125 -0.375 0.78125 -0.5625q0.46875 -0.203125 1.0625 -0.203125q0.5625 0 1.0 0.171875q0.453125 0.171875 0.75 0.515625q0.3125 0.328125 0.46875 0.828125q0.171875 0.5 0.171875 1.140625zm-0.921875 0.046875q0 -0.484375 -0.109375 -0.84375q-0.109375 -0.359375 -0.3125 -0.59375q-0.1875 -0.25 -0.46875 -0.375q-0.28125 -0.125 -0.640625 -0.125q-0.390625 0 -0.6875 0.15625q-0.28125 0.15625 -0.46875 0.421875q-0.1875 0.265625 -0.28125 0.625q-0.078125 0.34375 -0.078125 0.734375q0 0.484375 0.109375 0.84375q0.109375 0.359375 0.296875 0.609375q0.203125 0.234375 0.484375 0.359375q0.28125 0.125 0.625 0.125q0.40625 0 0.6875 -0.15625q0.296875 -0.15625 0.484375 -0.421875q0.1875 -0.265625 0.265625 -0.609375q0.09375 -0.359375 0.09375 -0.75zm4.015106 -4.0l-1.546875 0l0 -0.75l2.46875 0l0 6.609375l1.546875 0l0 0.75l-4.1875 0l0 -0.75l1.71875 0l0 -5.859375zm5.858856 0l-1.546875 0l0 -0.75l2.46875 0l0 6.609375l1.546875 0l0 0.75l-4.1875 0l0 -0.75l1.71875 0l0 -5.859375zm8.499481 3.71875q0 0.203125 -0.015625 0.328125q0 0.125 -0.015625 0.234375l-3.65625 0q0 0.8125 0.4375 1.25q0.453125 0.421875 1.296875 0.421875q0.21875 0 0.453125 -0.015625q0.234375 -0.03125 0.4375 -0.0625q0.21875 -0.03125 0.40625 -0.0625q0.203125 -0.046875 0.375 -0.09375l0 0.75q-0.375 0.109375 -0.84375 0.171875q-0.46875 0.0625 -0.96875 0.0625q-0.65625 0 -1.140625 -0.171875q-0.484375 -0.1875 -0.796875 -0.53125q-0.3125 -0.359375 -0.46875 -0.859375q-0.140625 -0.5 -0.140625 -1.140625q0 -0.546875 0.15625 -1.03125q0.15625 -0.5 0.453125 -0.859375q0.3125 -0.375 0.75 -0.59375q0.453125 -0.21875 1.015625 -0.21875q0.546875 0 0.96875 0.171875q0.421875 0.171875 0.703125 0.484375q0.296875 0.3125 0.4375 0.765625q0.15625 0.453125 0.15625 1.0zm-0.953125 -0.125q0.015625 -0.34375 -0.0625 -0.625q-0.078125 -0.296875 -0.265625 -0.5q-0.171875 -0.21875 -0.4375 -0.328125q-0.25 -0.125 -0.59375 -0.125q-0.296875 0 -0.546875 0.125q-0.234375 0.109375 -0.421875 0.3125q-0.171875 0.203125 -0.28125 0.5q-0.109375 0.296875 -0.125 0.640625l2.734375 0zm2.6088562 -2.203125l0.828125 0l0.03125 0.953125q0.453125 -0.546875 0.90625 -0.796875q0.453125 -0.25 0.90625 -0.25q0.8125 0 1.234375 0.53125q0.421875 0.515625 0.390625 1.546875l-0.921875 0q0.015625 -0.6875 -0.203125 -0.984375q-0.21875 -0.3125 -0.625 -0.3125q-0.1875 0 -0.375 0.0625q-0.1875 0.0625 -0.375 0.203125q-0.1875 0.140625 -0.40625 0.375q-0.21875 0.21875 -0.46875 0.53125l0 3.359375l-0.921875 0l0 -5.21875z" fill-rule="nonzero"/><path fill="#d0e0e3" d="m264.12335 168.0l164.94489 0l0 157.79529l-164.94489 0z" fill-rule="evenodd"/><path stroke="#000000" stroke-width="1.0" stroke-linejoin="round" stroke-linecap="butt" stroke-dasharray="4.0,3.0" d="m264.12335 168.0l164.94489 0l0 157.79529l-164.94489 0z" fill-rule="evenodd"/><path fill="#000000" d="m278.24835 314.03528l-3.90625 0l0 -6.796875l0.9375 0l0 6.0l2.96875 0l0 0.796875zm3.3432312 -4.46875l-1.546875 0l0 -0.75l2.46875 0l0 4.46875l1.546875 0l0 0.75l-4.1875 0l0 -0.75l1.71875 0l0 -3.71875zm0.3125 -2.953125q0.15625 0 0.28125 0.0625q0.140625 0.046875 0.234375 0.15625q0.09375 0.09375 0.140625 0.21875q0.0625 0.125 0.0625 0.28125q0 0.140625 -0.0625 0.28125q-0.046875 0.125 -0.140625 0.234375q-0.09375 0.09375 -0.234375 0.15625q-0.125 0.046875 -0.28125 0.046875q-0.140625 0 -0.28125 -0.046875q-0.125 -0.0625 -0.21875 -0.15625q-0.09375 -0.109375 -0.15625 -0.234375q-0.046875 -0.140625 -0.046875 -0.28125q0 -0.15625 0.046875 -0.28125q0.0625 -0.125 0.15625 -0.21875q0.09375 -0.109375 0.21875 -0.15625q0.140625 -0.0625 0.28125 -0.0625zm8.405731 0.90625q-0.71875 -0.140625 -1.234375 -0.140625q-1.21875 0 -1.21875 1.28125l0 0.90625l2.296875 0l0 0.765625l-2.296875 0l0 3.703125l-0.921875 0l0 -3.703125l-1.671875 0l0 -0.765625l1.671875 0l0 -0.859375q0 -2.09375 2.171875 -2.09375q0.546875 0 1.203125 0.125l0 0.78125zm-5.46875 1.296875l0 0zm11.108856 2.328125q0 0.203125 -0.015625 0.328125q0 0.125 -0.015625 0.234375l-3.65625 0q0 0.8125 0.4375 1.25q0.453125 0.421875 1.296875 0.421875q0.21875 0 0.453125 -0.015625q0.234375 -0.03125 0.4375 -0.0625q0.21875 -0.03125 0.40625 -0.0625q0.203125 -0.046875 0.375 -0.09375l0 0.75q-0.375 0.109375 -0.84375 0.171875q-0.46875 0.0625 -0.96875 0.0625q-0.65625 0 -1.140625 -0.171875q-0.484375 -0.1875 -0.796875 -0.53125q-0.3125 -0.359375 -0.46875 -0.859375q-0.140625 -0.5 -0.140625 -1.140625q0 -0.546875 0.15625 -1.03125q0.15625 -0.5 0.453125 -0.859375q0.3125 -0.375 0.75 -0.59375q0.453125 -0.21875 1.015625 -0.21875q0.546875 0 0.96875 0.171875q0.421875 0.171875 0.703125 0.484375q0.296875 0.3125 0.4375 0.765625q0.15625 0.453125 0.15625 1.0zm-0.953125 -0.125q0.015625 -0.34375 -0.0625 -0.625q-0.078125 -0.296875 -0.265625 -0.5q-0.171875 -0.21875 -0.4375 -0.328125q-0.25 -0.125 -0.59375 -0.125q-0.296875 0 -0.546875 0.125q-0.234375 0.109375 -0.421875 0.3125q-0.171875 0.203125 -0.28125 0.5q-0.109375 0.296875 -0.125 0.640625l2.734375 0zm12.592712 2.765625q-0.8125 0.328125 -1.703125 0.328125q-1.4375 0 -2.21875 -0.859375q-0.765625 -0.859375 -0.765625 -2.546875q0 -0.8125 0.203125 -1.46875q0.21875 -0.671875 0.609375 -1.125q0.40625 -0.46875 0.953125 -0.71875q0.5625 -0.25 1.265625 -0.25q0.46875 0 0.875 0.09375q0.40625 0.078125 0.78125 0.234375l0 0.921875q-0.359375 -0.203125 -0.765625 -0.3125q-0.390625 -0.109375 -0.859375 -0.109375q-0.484375 0 -0.875 0.1875q-0.375 0.171875 -0.65625 0.515625q-0.265625 0.34375 -0.40625 0.84375q-0.140625 0.484375 -0.140625 1.109375q0 1.3125 0.53125 1.984375q0.53125 0.671875 1.5625 0.671875q0.4375 0 0.84375 -0.09375q0.40625 -0.109375 0.765625 -0.28125l0 0.875zm6.171356 -4.96875l-1.78125 4.671875q-0.28125 0.703125 -0.578125 1.21875q-0.296875 0.515625 -0.640625 0.84375q-0.34375 0.34375 -0.765625 0.5q-0.40625 0.15625 -0.921875 0.15625q-0.140625 0 -0.25 -0.015625q-0.109375 0 -0.234375 -0.015625l0 -0.8125q0.109375 0.015625 0.234375 0.015625q0.140625 0.015625 0.296875 0.015625q0.25 0 0.46875 -0.078125q0.21875 -0.0625 0.40625 -0.234375q0.1875 -0.15625 0.359375 -0.421875q0.1875 -0.25 0.359375 -0.625l-2.09375 -5.21875l1.03125 0l1.3125 3.453125l0.265625 0.8125l0.3125 -0.84375l1.21875 -3.421875l1.0 0zm5.265106 5.03125q-0.359375 0.125 -0.734375 0.1875q-0.359375 0.078125 -0.765625 0.078125q-1.234375 0 -1.90625 -0.671875q-0.65625 -0.671875 -0.65625 -1.96875q0 -0.609375 0.1875 -1.109375q0.1875 -0.515625 0.53125 -0.875q0.359375 -0.359375 0.84375 -0.546875q0.484375 -0.203125 1.0625 -0.203125q0.40625 0 0.75 0.0625q0.359375 0.046875 0.6875 0.1875l0 0.859375q-0.34375 -0.171875 -0.703125 -0.25q-0.34375 -0.09375 -0.71875 -0.09375q-0.34375 0 -0.65625 0.140625q-0.296875 0.125 -0.53125 0.375q-0.234375 0.25 -0.375 0.609375q-0.140625 0.359375 -0.140625 0.8125q0 0.953125 0.453125 1.421875q0.46875 0.46875 1.28125 0.46875q0.375 0 0.71875 -0.078125q0.34375 -0.09375 0.671875 -0.25l0 0.84375zm3.5776062 -6.421875l-1.546875 0l0 -0.75l2.46875 0l0 6.609375l1.546875 0l0 0.75l-4.1875 0l0 -0.75l1.71875 0l0 -5.859375zm8.499481 3.71875q0 0.203125 -0.015625 0.328125q0 0.125 -0.015625 0.234375l-3.65625 0q0 0.8125 0.4375 1.25q0.453125 0.421875 1.296875 0.421875q0.21875 0 0.453125 -0.015625q0.234375 -0.03125 0.4375 -0.0625q0.21875 -0.03125 0.40625 -0.0625q0.203125 -0.046875 0.375 -0.09375l0 0.75q-0.375 0.109375 -0.84375 0.171875q-0.46875 0.0625 -0.96875 0.0625q-0.65625 0 -1.140625 -0.171875q-0.484375 -0.1875 -0.796875 -0.53125q-0.3125 -0.359375 -0.46875 -0.859375q-0.140625 -0.5 -0.140625 -1.140625q0 -0.546875 0.15625 -1.03125q0.15625 -0.5 0.453125 -0.859375q0.3125 -0.375 0.75 -0.59375q0.453125 -0.21875 1.015625 -0.21875q0.546875 0 0.96875 0.171875q0.421875 0.171875 0.703125 0.484375q0.296875 0.3125 0.4375 0.765625q0.15625 0.453125 0.15625 1.0zm-0.953125 -0.125q0.015625 -0.34375 -0.0625 -0.625q-0.078125 -0.296875 -0.265625 -0.5q-0.171875 -0.21875 -0.4375 -0.328125q-0.25 -0.125 -0.59375 -0.125q-0.296875 0 -0.546875 0.125q-0.234375 0.109375 -0.421875 0.3125q-0.171875 0.203125 -0.28125 0.5q-0.109375 0.296875 -0.125 0.640625l2.734375 0zm12.592712 2.765625q-0.8125 0.328125 -1.703125 0.328125q-1.4375 0 -2.21875 -0.859375q-0.765625 -0.859375 -0.765625 -2.546875q0 -0.8125 0.203125 -1.46875q0.21875 -0.671875 0.609375 -1.125q0.40625 -0.46875 0.953125 -0.71875q0.5625 -0.25 1.265625 -0.25q0.46875 0 0.875 0.09375q0.40625 0.078125 0.78125 0.234375l0 0.921875q-0.359375 -0.203125 -0.765625 -0.3125q-0.390625 -0.109375 -0.859375 -0.109375q-0.484375 0 -0.875 0.1875q-0.375 0.171875 -0.65625 0.515625q-0.265625 0.34375 -0.40625 0.84375q-0.140625 0.484375 -0.140625 1.109375q0 1.3125 0.53125 1.984375q0.53125 0.671875 1.5625 0.671875q0.4375 0 0.84375 -0.09375q0.40625 -0.109375 0.765625 -0.28125l0 0.875zm6.061981 -2.40625q0 0.609375 -0.171875 1.125q-0.171875 0.5 -0.5 0.859375q-0.3125 0.359375 -0.78125 0.5625q-0.453125 0.203125 -1.046875 0.203125q-0.5625 0 -1.015625 -0.171875q-0.4375 -0.171875 -0.75 -0.515625q-0.296875 -0.34375 -0.46875 -0.84375q-0.15625 -0.5 -0.15625 -1.140625q0 -0.609375 0.171875 -1.109375q0.171875 -0.5 0.484375 -0.859375q0.328125 -0.375 0.78125 -0.5625q0.46875 -0.203125 1.0625 -0.203125q0.5625 0 1.0 0.171875q0.453125 0.171875 0.75 0.515625q0.3125 0.328125 0.46875 0.828125q0.171875 0.5 0.171875 1.140625zm-0.921875 0.046875q0 -0.484375 -0.109375 -0.84375q-0.109375 -0.359375 -0.3125 -0.59375q-0.1875 -0.25 -0.46875 -0.375q-0.28125 -0.125 -0.640625 -0.125q-0.390625 0 -0.6875 0.15625q-0.28125 0.15625 -0.46875 0.421875q-0.1875 0.265625 -0.28125 0.625q-0.078125 0.34375 -0.078125 0.734375q0 0.484375 0.109375 0.84375q0.109375 0.359375 0.296875 0.609375q0.203125 0.234375 0.484375 0.359375q0.28125 0.125 0.625 0.125q0.40625 0 0.6875 -0.15625q0.296875 -0.15625 0.484375 -0.421875q0.1875 -0.265625 0.265625 -0.609375q0.09375 -0.359375 0.09375 -0.75zm2.2338562 -2.609375l0.8125 0l0.03125 0.84375q0.234375 -0.28125 0.4375 -0.453125q0.21875 -0.1875 0.421875 -0.296875q0.203125 -0.109375 0.421875 -0.140625q0.21875 -0.046875 0.4375 -0.046875q0.8125 0 1.21875 0.484375q0.421875 0.46875 0.421875 1.421875l0 3.40625l-0.90625 0l0 -3.328125q0 -0.625 -0.234375 -0.90625q-0.21875 -0.296875 -0.671875 -0.296875q-0.171875 0 -0.328125 0.046875q-0.15625 0.046875 -0.328125 0.171875q-0.171875 0.125 -0.375 0.328125q-0.203125 0.203125 -0.453125 0.515625l0 3.46875l-0.90625 0l0 -5.21875zm10.077606 5.140625q-0.3125 0.078125 -0.640625 0.109375q-0.328125 0.046875 -0.671875 0.046875q-0.984375 0 -1.46875 -0.4375q-0.46875 -0.453125 -0.46875 -1.375l0 -2.734375l-1.46875 0l0 -0.75l1.46875 0l0 -1.4375l0.890625 -0.234375l0 1.671875l2.359375 0l0 0.75l-2.359375 0l0 2.65625q0 0.5625 0.296875 0.84375q0.3125 0.28125 0.890625 0.28125q0.25 0 0.546875 -0.03125q0.296875 -0.046875 0.625 -0.140625l0 0.78125zm1.8588562 -5.140625l0.828125 0l0.03125 0.953125q0.453125 -0.546875 0.90625 -0.796875q0.453125 -0.25 0.90625 -0.25q0.8125 0 1.234375 0.53125q0.421875 0.515625 0.390625 1.546875l-0.921875 0q0.015625 -0.6875 -0.203125 -0.984375q-0.21875 -0.3125 -0.625 -0.3125q-0.1875 0 -0.375 0.0625q-0.1875 0.0625 -0.375 0.203125q-0.1875 0.140625 -0.40625 0.375q-0.21875 0.21875 -0.46875 0.53125l0 3.359375l-0.921875 0l0 -5.21875zm10.186981 2.5625q0 0.609375 -0.171875 1.125q-0.171875 0.5 -0.5 0.859375q-0.3125 0.359375 -0.78125 0.5625q-0.453125 0.203125 -1.046875 0.203125q-0.5625 0 -1.015625 -0.171875q-0.4375 -0.171875 -0.75 -0.515625q-0.296875 -0.34375 -0.46875 -0.84375q-0.15625 -0.5 -0.15625 -1.140625q0 -0.609375 0.171875 -1.109375q0.171875 -0.5 0.484375 -0.859375q0.328125 -0.375 0.78125 -0.5625q0.46875 -0.203125 1.0625 -0.203125q0.5625 0 1.0 0.171875q0.453125 0.171875 0.75 0.515625q0.3125 0.328125 0.46875 0.828125q0.171875 0.5 0.171875 1.140625zm-0.921875 0.046875q0 -0.484375 -0.109375 -0.84375q-0.109375 -0.359375 -0.3125 -0.59375q-0.1875 -0.25 -0.46875 -0.375q-0.28125 -0.125 -0.640625 -0.125q-0.390625 0 -0.6875 0.15625q-0.28125 0.15625 -0.46875 0.421875q-0.1875 0.265625 -0.28125 0.625q-0.078125 0.34375 -0.078125 0.734375q0 0.484375 0.109375 0.84375q0.109375 0.359375 0.296875 0.609375q0.203125 0.234375 0.484375 0.359375q0.28125 0.125 0.625 0.125q0.40625 0 0.6875 -0.15625q0.296875 -0.15625 0.484375 -0.421875q0.1875 -0.265625 0.265625 -0.609375q0.09375 -0.359375 0.09375 -0.75zm4.015106 -4.0l-1.546875 0l0 -0.75l2.46875 0l0 6.609375l1.546875 0l0 0.75l-4.1875 0l0 -0.75l1.71875 0l0 -5.859375zm5.858856 0l-1.546875 0l0 -0.75l2.46875 0l0 6.609375l1.546875 0l0 0.75l-4.1875 0l0 -0.75l1.71875 0l0 -5.859375zm8.499481 3.71875q0 0.203125 -0.015625 0.328125q0 0.125 -0.015625 0.234375l-3.65625 0q0 0.8125 0.4375 1.25q0.453125 0.421875 1.296875 0.421875q0.21875 0 0.453125 -0.015625q0.234375 -0.03125 0.4375 -0.0625q0.21875 -0.03125 0.40625 -0.0625q0.203125 -0.046875 0.375 -0.09375l0 0.75q-0.375 0.109375 -0.84375 0.171875q-0.46875 0.0625 -0.96875 0.0625q-0.65625 0 -1.140625 -0.171875q-0.484375 -0.1875 -0.796875 -0.53125q-0.3125 -0.359375 -0.46875 -0.859375q-0.140625 -0.5 -0.140625 -1.140625q0 -0.546875 0.15625 -1.03125q0.15625 -0.5 0.453125 -0.859375q0.3125 -0.375 0.75 -0.59375q0.453125 -0.21875 1.015625 -0.21875q0.546875 0 0.96875 0.171875q0.421875 0.171875 0.703125 0.484375q0.296875 0.3125 0.4375 0.765625q0.15625 0.453125 0.15625 1.0zm-0.953125 -0.125q0.015625 -0.34375 -0.0625 -0.625q-0.078125 -0.296875 -0.265625 -0.5q-0.171875 -0.21875 -0.4375 -0.328125q-0.25 -0.125 -0.59375 -0.125q-0.296875 0 -0.546875 0.125q-0.234375 0.109375 -0.421875 0.3125q-0.171875 0.203125 -0.28125 0.5q-0.109375 0.296875 -0.125 0.640625l2.734375 0zm2.6088562 -2.203125l0.828125 0l0.03125 0.953125q0.453125 -0.546875 0.90625 -0.796875q0.453125 -0.25 0.90625 -0.25q0.8125 0 1.234375 0.53125q0.421875 0.515625 0.390625 1.546875l-0.921875 0q0.015625 -0.6875 -0.203125 -0.984375q-0.21875 -0.3125 -0.625 -0.3125q-0.1875 0 -0.375 0.0625q-0.1875 0.0625 -0.375 0.203125q-0.1875 0.140625 -0.40625 0.375q-0.21875 0.21875 -0.46875 0.53125l0 3.359375l-0.921875 0l0 -5.21875z" fill-rule="nonzero"/><path fill="#fce5cd" d="m264.12335 8.0l164.94489 0l0 152.0l-164.94489 0z" fill-rule="evenodd"/><path stroke="#000000" stroke-width="1.0" stroke-linejoin="round" stroke-linecap="butt" stroke-dasharray="4.0,3.0" d="m264.12335 8.0l164.94489 0l0 152.0l-164.94489 0z" fill-rule="evenodd"/><path fill="#000000" d="m278.70148 23.8025q0 0.90625 -0.21875 1.578125q-0.21875 0.65625 -0.59375 1.09375q-0.359375 0.4375 -0.859375 0.65625q-0.484375 0.203125 -1.03125 0.203125q-0.65625 0 -1.140625 -0.234375q-0.484375 -0.234375 -0.8125 -0.6875q-0.3125 -0.453125 -0.46875 -1.09375q-0.15625 -0.640625 -0.15625 -1.4375q0 -0.90625 0.203125 -1.578125q0.21875 -0.671875 0.578125 -1.09375q0.375 -0.4375 0.859375 -0.640625q0.5 -0.21875 1.046875 -0.21875q0.65625 0 1.140625 0.234375q0.484375 0.234375 0.796875 0.6875q0.328125 0.4375 0.484375 1.078125q0.171875 0.640625 0.171875 1.453125zm-0.96875 0.0625q0 -0.59375 -0.09375 -1.09375q-0.09375 -0.5 -0.296875 -0.859375q-0.203125 -0.359375 -0.53125 -0.546875q-0.3125 -0.203125 -0.765625 -0.203125q-0.421875 0 -0.75 0.21875q-0.3125 0.203125 -0.515625 0.5625q-0.203125 0.359375 -0.296875 0.84375q-0.09375 0.484375 -0.09375 1.03125q0 0.609375 0.09375 1.109375q0.09375 0.484375 0.28125 0.84375q0.203125 0.359375 0.515625 0.5625q0.328125 0.1875 0.765625 0.1875q0.4375 0 0.75 -0.203125q0.328125 -0.21875 0.53125 -0.578125q0.203125 -0.359375 0.296875 -0.84375q0.109375 -0.484375 0.109375 -1.03125zm6.655731 -2.640625l-2.015625 0l0 6.015625l-0.921875 0l0 -6.015625l-2.015625 0l0 -0.78125l4.953125 0l0 0.78125zm5.733856 1.296875q0 0.421875 -0.15625 0.828125q-0.15625 0.40625 -0.484375 0.734375q-0.328125 0.3125 -0.84375 0.515625q-0.5 0.203125 -1.203125 0.203125l-0.84375 0l0 2.4375l-0.921875 0l0 -6.796875l1.90625 0q0.5 0 0.96875 0.109375q0.46875 0.109375 0.8125 0.359375q0.359375 0.25 0.5625 0.65625q0.203125 0.390625 0.203125 0.953125zm-0.953125 0.046875q0 -0.65625 -0.4375 -1.0q-0.421875 -0.359375 -1.203125 -0.359375l-0.9375 0l0 2.796875l0.859375 0q0.828125 0 1.265625 -0.359375q0.453125 -0.359375 0.453125 -1.078125zm12.561462 4.421875q-0.8125 0.328125 -1.703125 0.328125q-1.4375 0 -2.21875 -0.859375q-0.765625 -0.859375 -0.765625 -2.546875q0 -0.8125 0.203125 -1.46875q0.21875 -0.671875 0.609375 -1.125q0.40625 -0.46875 0.953125 -0.71875q0.5625 -0.25 1.265625 -0.25q0.46875 0 0.875 0.09375q0.40625 0.078125 0.78125 0.234375l0 0.921875q-0.359375 -0.203125 -0.765625 -0.3125q-0.390625 -0.109375 -0.859375 -0.109375q-0.484375 0 -0.875 0.1875q-0.375 0.171875 -0.65625 0.515625q-0.265625 0.34375 -0.40625 0.84375q-0.140625 0.484375 -0.140625 1.109375q0 1.3125 0.53125 1.984375q0.53125 0.671875 1.5625 0.671875q0.4375 0 0.84375 -0.09375q0.40625 -0.109375 0.765625 -0.28125l0 0.875zm6.061981 -2.40625q0 0.609375 -0.171875 1.125q-0.171875 0.5 -0.5 0.859375q-0.3125 0.359375 -0.78125 0.5625q-0.453125 0.203125 -1.046875 0.203125q-0.5625 0 -1.015625 -0.171875q-0.4375 -0.171875 -0.75 -0.515625q-0.296875 -0.34375 -0.46875 -0.84375q-0.15625 -0.5 -0.15625 -1.140625q0 -0.609375 0.171875 -1.109375q0.171875 -0.5 0.484375 -0.859375q0.328125 -0.375 0.78125 -0.5625q0.46875 -0.203125 1.0625 -0.203125q0.5625 0 1.0 0.171875q0.453125 0.171875 0.75 0.515625q0.3125 0.328125 0.46875 0.828125q0.171875 0.5 0.171875 1.140625zm-0.921875 0.046875q0 -0.484375 -0.109375 -0.84375q-0.109375 -0.359375 -0.3125 -0.59375q-0.1875 -0.25 -0.46875 -0.375q-0.28125 -0.125 -0.640625 -0.125q-0.390625 0 -0.6875 0.15625q-0.28125 0.15625 -0.46875 0.421875q-0.1875 0.265625 -0.28125 0.625q-0.078125 0.34375 -0.078125 0.734375q0 0.484375 0.109375 0.84375q0.109375 0.359375 0.296875 0.609375q0.203125 0.234375 0.484375 0.359375q0.28125 0.125 0.625 0.125q0.40625 0 0.6875 -0.15625q0.296875 -0.15625 0.484375 -0.421875q0.1875 -0.265625 0.265625 -0.609375q0.09375 -0.359375 0.09375 -0.75zm2.2338562 -2.609375l0.8125 0l0.03125 0.84375q0.234375 -0.28125 0.4375 -0.453125q0.21875 -0.1875 0.421875 -0.296875q0.203125 -0.109375 0.421875 -0.140625q0.21875 -0.046875 0.4375 -0.046875q0.8125 0 1.21875 0.484375q0.421875 0.46875 0.421875 1.421875l0 3.40625l-0.90625 0l0 -3.328125q0 -0.625 -0.234375 -0.90625q-0.21875 -0.296875 -0.671875 -0.296875q-0.171875 0 -0.328125 0.046875q-0.15625 0.046875 -0.328125 0.171875q-0.171875 0.125 -0.375 0.328125q-0.203125 0.203125 -0.453125 0.515625l0 3.46875l-0.90625 0l0 -5.21875zm10.077606 5.140625q-0.3125 0.078125 -0.640625 0.109375q-0.328125 0.046875 -0.671875 0.046875q-0.984375 0 -1.46875 -0.4375q-0.46875 -0.453125 -0.46875 -1.375l0 -2.734375l-1.46875 0l0 -0.75l1.46875 0l0 -1.4375l0.890625 -0.234375l0 1.671875l2.359375 0l0 0.75l-2.359375 0l0 2.65625q0 0.5625 0.296875 0.84375q0.3125 0.28125 0.890625 0.28125q0.25 0 0.546875 -0.03125q0.296875 -0.046875 0.625 -0.140625l0 0.78125zm1.8588562 -5.140625l0.828125 0l0.03125 0.953125q0.453125 -0.546875 0.90625 -0.796875q0.453125 -0.25 0.90625 -0.25q0.8125 0 1.234375 0.53125q0.421875 0.515625 0.390625 1.546875l-0.921875 0q0.015625 -0.6875 -0.203125 -0.984375q-0.21875 -0.3125 -0.625 -0.3125q-0.1875 0 -0.375 0.0625q-0.1875 0.0625 -0.375 0.203125q-0.1875 0.140625 -0.40625 0.375q-0.21875 0.21875 -0.46875 0.53125l0 3.359375l-0.921875 0l0 -5.21875zm10.186981 2.5625q0 0.609375 -0.171875 1.125q-0.171875 0.5 -0.5 0.859375q-0.3125 0.359375 -0.78125 0.5625q-0.453125 0.203125 -1.046875 0.203125q-0.5625 0 -1.015625 -0.171875q-0.4375 -0.171875 -0.75 -0.515625q-0.296875 -0.34375 -0.46875 -0.84375q-0.15625 -0.5 -0.15625 -1.140625q0 -0.609375 0.171875 -1.109375q0.171875 -0.5 0.484375 -0.859375q0.328125 -0.375 0.78125 -0.5625q0.46875 -0.203125 1.0625 -0.203125q0.5625 0 1.0 0.171875q0.453125 0.171875 0.75 0.515625q0.3125 0.328125 0.46875 0.828125q0.171875 0.5 0.171875 1.140625zm-0.921875 0.046875q0 -0.484375 -0.109375 -0.84375q-0.109375 -0.359375 -0.3125 -0.59375q-0.1875 -0.25 -0.46875 -0.375q-0.28125 -0.125 -0.640625 -0.125q-0.390625 0 -0.6875 0.15625q-0.28125 0.15625 -0.46875 0.421875q-0.1875 0.265625 -0.28125 0.625q-0.078125 0.34375 -0.078125 0.734375q0 0.484375 0.109375 0.84375q0.109375 0.359375 0.296875 0.609375q0.203125 0.234375 0.484375 0.359375q0.28125 0.125 0.625 0.125q0.40625 0 0.6875 -0.15625q0.296875 -0.15625 0.484375 -0.421875q0.1875 -0.265625 0.265625 -0.609375q0.09375 -0.359375 0.09375 -0.75zm4.015106 -4.0l-1.546875 0l0 -0.75l2.46875 0l0 6.609375l1.546875 0l0 0.75l-4.1875 0l0 -0.75l1.71875 0l0 -5.859375zm5.858856 0l-1.546875 0l0 -0.75l2.46875 0l0 6.609375l1.546875 0l0 0.75l-4.1875 0l0 -0.75l1.71875 0l0 -5.859375zm8.499481 3.71875q0 0.203125 -0.015625 0.328125q0 0.125 -0.015625 0.234375l-3.65625 0q0 0.8125 0.4375 1.25q0.453125 0.421875 1.296875 0.421875q0.21875 0 0.453125 -0.015625q0.234375 -0.03125 0.4375 -0.0625q0.21875 -0.03125 0.40625 -0.0625q0.203125 -0.046875 0.375 -0.09375l0 0.75q-0.375 0.109375 -0.84375 0.171875q-0.46875 0.0625 -0.96875 0.0625q-0.65625 0 -1.140625 -0.171875q-0.484375 -0.1875 -0.796875 -0.53125q-0.3125 -0.359375 -0.46875 -0.859375q-0.140625 -0.5 -0.140625 -1.140625q0 -0.546875 0.15625 -1.03125q0.15625 -0.5 0.453125 -0.859375q0.3125 -0.375 0.75 -0.59375q0.453125 -0.21875 1.015625 -0.21875q0.546875 0 0.96875 0.171875q0.421875 0.171875 0.703125 0.484375q0.296875 0.3125 0.4375 0.765625q0.15625 0.453125 0.15625 1.0zm-0.953125 -0.125q0.015625 -0.34375 -0.0625 -0.625q-0.078125 -0.296875 -0.265625 -0.5q-0.171875 -0.21875 -0.4375 -0.328125q-0.25 -0.125 -0.59375 -0.125q-0.296875 0 -0.546875 0.125q-0.234375 0.109375 -0.421875 0.3125q-0.171875 0.203125 -0.28125 0.5q-0.109375 0.296875 -0.125 0.640625l2.734375 0zm2.6088562 -2.203125l0.828125 0l0.03125 0.953125q0.453125 -0.546875 0.90625 -0.796875q0.453125 -0.25 0.90625 -0.25q0.8125 0 1.234375 0.53125q0.421875 0.515625 0.390625 1.546875l-0.921875 0q0.015625 -0.6875 -0.203125 -0.984375q-0.21875 -0.3125 -0.625 -0.3125q-0.1875 0 -0.375 0.0625q-0.1875 0.0625 -0.375 0.203125q-0.1875 0.140625 -0.40625 0.375q-0.21875 0.21875 -0.46875 0.53125l0 3.359375l-0.921875 0l0 -5.21875z" fill-rule="nonzero"/><path fill="#d9d9d9" d="m113.0 60.401573l0 0c0 -10.8282585 8.728683 -19.606297 19.496063 -19.606297l0 0c5.1706696 0 10.129578 2.0656586 13.785797 5.74255c3.6562195 3.6768951 5.710266 8.663834 5.710266 13.863747l0 0c0 10.828262 -8.728683 19.6063 -19.496063 19.6063l0 0c-10.76738 0 -19.496063 -8.778038 -19.496063 -19.6063z" fill-rule="evenodd"/><path stroke="#000000" stroke-width="1.0" stroke-linejoin="round" stroke-linecap="butt" d="m113.0 60.401573l0 0c0 -10.8282585 8.728683 -19.606297 19.496063 -19.606297l0 0c5.1706696 0 10.129578 2.0656586 13.785797 5.74255c3.6562195 3.6768951 5.710266 8.663834 5.710266 13.863747l0 0c0 10.828262 -8.728683 19.6063 -19.496063 19.6063l0 0c-10.76738 0 -19.496063 -8.778038 -19.496063 -19.6063z" fill-rule="evenodd"/><path fill="#000000" d="m125.52909 60.379074q0 -1.296875 0.6875 -2.03125q0.703125 -0.75 1.8124924 -0.75q0.734375 0 1.3125 0.359375q0.59375 0.34375 0.890625 0.96875q0.3125 0.609375 0.3125 1.40625q0 0.796875 -0.328125 1.421875q-0.3125 0.625 -0.90625 0.953125q-0.59375 0.328125 -1.28125 0.328125q-0.7343674 0 -1.3281174 -0.359375q-0.578125 -0.359375 -0.875 -0.96875q-0.296875 -0.625 -0.296875 -1.328125zm0.703125 0.015625q0 0.953125 0.515625 1.5q0.515625 0.546875 1.2812424 0.546875q0.78125 0 1.28125 -0.546875q0.515625 -0.5625 0.515625 -1.578125q0 -0.640625 -0.21875 -1.109375q-0.21875 -0.484375 -0.640625 -0.734375q-0.40625 -0.265625 -0.921875 -0.265625q-0.7499924 0 -1.2812424 0.5q-0.53125 0.5 -0.53125 1.6875zm5.2313004 2.546875l0 -5.25l3.546875 0l0 0.625l-2.84375 0l0 1.625l2.453125 0l0 0.609375l-2.453125 0l0 2.390625l-0.703125 0zm4.4763184 0l0 -5.25l3.546875 0l0 0.625l-2.84375 0l0 1.625l2.453125 0l0 0.609375l-2.453125 0l0 2.390625l-0.703125 0z" fill-rule="nonzero"/><path fill="#000000" fill-opacity="0.0" d="m109.50394 24.984251c11.496063 0 22.992126 7.905512 22.992126 15.811026" fill-rule="evenodd"/><path stroke="#000000" stroke-width="1.0" stroke-linejoin="round" stroke-linecap="butt" d="m113.28381 25.26113l0.5086975 0.07825279c1.4145508 0.23160744 2.806656 0.5712967 4.1538467 1.0036297c2.6943893 0.864666 5.209152 2.0999012 7.364662 3.5821857c2.1555176 1.4822826 3.9517822 3.2116127 5.209152 5.0644684l0.0753479 0.11457062" fill-rule="evenodd"/><path fill="#000000" stroke="#000000" stroke-width="1.0" stroke-linecap="butt" d="m110.0026 25.020779c0.0663681 -0.90608025 0.8546982 -1.5867996 1.7607803 -1.5204296c0.90608215 0.06637192 1.5867996 0.8547001 1.5204315 1.7607803c-0.06637573 0.90608025 -0.8547058 1.5867996 -1.7607803 1.5204296c-0.90608215 -0.06637192 -1.5867996 -0.8546982 -1.5204315 -1.7607803z" fill-rule="nonzero"/><path fill="#000000" stroke="#000000" stroke-width="1.0" stroke-linecap="butt" d="m129.02884 35.627434l3.0041504 3.7812195l0.12921143 -4.827614z" fill-rule="evenodd"/><path fill="#000000" fill-opacity="0.0" d="m132.49606 80.00787l0 32.472443" fill-rule="evenodd"/><path stroke="#000000" stroke-width="1.0" stroke-linejoin="round" stroke-linecap="butt" d="m132.49606 80.00787l0 26.472443" fill-rule="evenodd"/><path fill="#000000" stroke="#000000" stroke-width="1.0" stroke-linecap="butt" d="m130.84433 106.480316l1.6517334 4.5380936l1.6517334 -4.5380936z" fill-rule="evenodd"/><path fill="#d9d9d9" d="m113.0 132.22835l0 0c0 -10.915237 8.728683 -19.763779 19.496063 -19.763779l0 0c5.1706696 0 10.129578 2.0822449 13.785797 5.7886734c3.6562195 3.7064285 5.710266 8.733421 5.710266 13.975105l0 0c0 10.915237 -8.728683 19.763779 -19.496063 19.763779l0 0c-10.76738 0 -19.496063 -8.848541 -19.496063 -19.763779z" fill-rule="evenodd"/><path stroke="#000000" stroke-width="1.0" stroke-linejoin="round" stroke-linecap="butt" d="m113.0 132.22835l0 0c0 -10.915237 8.728683 -19.763779 19.496063 -19.763779l0 0c5.1706696 0 10.129578 2.0822449 13.785797 5.7886734c3.6562195 3.7064285 5.710266 8.733421 5.710266 13.975105l0 0c0 10.915237 -8.728683 19.763779 -19.496063 19.763779l0 0c-10.76738 0 -19.496063 -8.848541 -19.496063 -19.763779z" fill-rule="evenodd"/><path fill="#000000" d="m122.502655 130.26834l2.015625 -5.2499924l0.75 0l2.15625 5.2499924l-0.796875 0l-0.609375 -1.59375l-2.203125 0l-0.578125 1.59375l-0.734375 0zm1.515625 -2.15625l1.78125 0l-0.546875 -1.4531174q-0.25 -0.65625 -0.375 -1.078125q-0.09375 0.5 -0.28125 1.0l-0.578125 1.5312424zm3.7471771 -0.40624237q0 -1.296875 0.6875 -2.03125q0.703125 -0.75 1.8125 -0.75q0.734375 0 1.3125 0.359375q0.59375 0.34375 0.890625 0.96875q0.3125 0.609375 0.3125 1.40625q0 0.7968674 -0.328125 1.4218674q-0.3125 0.625 -0.90625 0.953125q-0.59375 0.328125 -1.28125 0.328125q-0.734375 0 -1.328125 -0.359375q-0.578125 -0.359375 -0.875 -0.96875q-0.296875 -0.625 -0.296875 -1.3281174zm0.703125 0.015625q0 0.9531174 0.515625 1.4999924q0.515625 0.546875 1.28125 0.546875q0.78125 0 1.28125 -0.546875q0.515625 -0.5625 0.515625 -1.5781174q0 -0.640625 -0.21875 -1.109375q-0.21875 -0.484375 -0.640625 -0.734375q-0.40625 -0.265625 -0.921875 -0.265625q-0.75 0 -1.28125 0.5q-0.53125 0.5 -0.53125 1.6875zm5.200058 2.5468674l0 -5.2499924l0.703125 0l2.765625 4.1249924l0 -4.1249924l0.65625 0l0 5.2499924l-0.703125 0l-2.765625 -4.1249924l0 4.1249924l-0.65625 0zm4.62027 1.453125l0 -0.46875l4.265625 0l0 0.46875l-4.265625 0z" fill-rule="nonzero"/><path fill="#000000" d="m127.35934 136.70584q0 -1.296875 0.6874924 -2.03125q0.703125 -0.75 1.8125 -0.75q0.734375 0 1.3125 0.359375q0.59375 0.34375 0.890625 0.96875q0.3125 0.609375 0.3125 1.40625q0 0.796875 -0.328125 1.421875q-0.3125 0.625 -0.90625 0.953125q-0.59375 0.328125 -1.28125 0.328125q-0.734375 0 -1.328125 -0.359375q-0.5781174 -0.359375 -0.8749924 -0.96875q-0.296875 -0.625 -0.296875 -1.328125zm0.7031174 0.015625q0 0.953125 0.515625 1.5q0.515625 0.546875 1.28125 0.546875q0.78125 0 1.28125 -0.546875q0.515625 -0.5625 0.515625 -1.578125q0 -0.640625 -0.21875 -1.109375q-0.21875 -0.484375 -0.640625 -0.734375q-0.40625 -0.265625 -0.921875 -0.265625q-0.75 0 -1.28125 0.5q-0.53125 0.5 -0.53125 1.6875zm5.200058 2.546875l0 -5.25l0.703125 0l2.765625 4.125l0 -4.125l0.65625 0l0 5.25l-0.703125 0l-2.765625 -4.125l0 4.125l-0.65625 0z" fill-rule="nonzero"/><path fill="#d9d9d9" d="m113.0 204.55905l0 0c0 -10.73259 8.728683 -19.43306 19.496063 -19.43306l0 0c5.1706696 0 10.129578 2.0473938 13.785797 5.691803c3.6562195 3.6444092 5.710266 8.587296 5.710266 13.741257l0 0c0 10.73259 -8.728683 19.433075 -19.496063 19.433075l0 0c-10.76738 0 -19.496063 -8.700485 -19.496063 -19.433075z" fill-rule="evenodd"/><path stroke="#000000" stroke-width="1.0" stroke-linejoin="round" stroke-linecap="butt" d="m113.0 204.55905l0 0c0 -10.73259 8.728683 -19.43306 19.496063 -19.43306l0 0c5.1706696 0 10.129578 2.0473938 13.785797 5.691803c3.6562195 3.6444092 5.710266 8.587296 5.710266 13.741257l0 0c0 10.73259 -8.728683 19.433075 -19.496063 19.433075l0 0c-10.76738 0 -19.496063 -8.700485 -19.496063 -19.433075z" fill-rule="evenodd"/><path fill="#000000" d="m122.87861 198.09906l0 -5.25l0.703125 0l2.765625 4.125l0 -4.125l0.65625 0l0 5.25l-0.703125 0l-2.765625 -4.125l0 4.125l-0.65625 0zm5.08902 -2.5625q0 -1.296875 0.6874924 -2.03125q0.703125 -0.75 1.8125 -0.75q0.734375 0 1.3125 0.359375q0.59375 0.34375 0.890625 0.96875q0.3125 0.609375 0.3125 1.40625q0 0.796875 -0.328125 1.421875q-0.3125 0.625 -0.90625 0.953125q-0.59375 0.328125 -1.28125 0.328125q-0.734375 0 -1.328125 -0.359375q-0.578125 -0.359375 -0.875 -0.96875q-0.29686737 -0.625 -0.29686737 -1.328125zm0.7031174 0.015625q0 0.953125 0.515625 1.5q0.515625 0.546875 1.28125 0.546875q0.78125 0 1.28125 -0.546875q0.515625 -0.5625 0.515625 -1.578125q0 -0.640625 -0.21875 -1.109375q-0.21875 -0.484375 -0.640625 -0.734375q-0.40625 -0.265625 -0.921875 -0.265625q-0.75 0 -1.28125 0.5q-0.53125 0.5 -0.53125 1.6875zm5.200058 2.546875l0 -5.25l0.703125 0l2.765625 4.125l0 -4.125l0.65625 0l0 5.25l-0.703125 0l-2.765625 -4.125l0 4.125l-0.65625 0zm4.62027 1.453125l0 -0.46875l4.265625 0l0 0.46875l-4.265625 0z" fill-rule="nonzero"/><path fill="#000000" d="m122.502655 207.09906l2.015625 -5.25l0.75 0l2.15625 5.25l-0.796875 0l-0.609375 -1.59375l-2.203125 0l-0.578125 1.59375l-0.734375 0zm1.515625 -2.15625l1.78125 0l-0.546875 -1.453125q-0.25 -0.65625 -0.375 -1.078125q-0.09375 0.5 -0.28125 1.0l-0.578125 1.53125zm3.7471771 -0.40625q0 -1.296875 0.6875 -2.03125q0.703125 -0.75 1.8125 -0.75q0.734375 0 1.3125 0.359375q0.59375 0.34375 0.890625 0.96875q0.3125 0.609375 0.3125 1.40625q0 0.796875 -0.328125 1.421875q-0.3125 0.625 -0.90625 0.953125q-0.59375 0.328125 -1.28125 0.328125q-0.734375 0 -1.328125 -0.359375q-0.578125 -0.359375 -0.875 -0.96875q-0.296875 -0.625 -0.296875 -1.328125zm0.703125 0.015625q0 0.953125 0.515625 1.5q0.515625 0.546875 1.28125 0.546875q0.78125 0 1.28125 -0.546875q0.515625 -0.5625 0.515625 -1.578125q0 -0.640625 -0.21875 -1.109375q-0.21875 -0.484375 -0.640625 -0.734375q-0.40625 -0.265625 -0.921875 -0.265625q-0.75 0 -1.28125 0.5q-0.53125 0.5 -0.53125 1.6875zm5.200058 2.546875l0 -5.25l0.703125 0l2.765625 4.125l0 -4.125l0.65625 0l0 5.25l-0.703125 0l-2.765625 -4.125l0 4.125l-0.65625 0zm4.62027 1.453125l0 -0.46875l4.265625 0l0 0.46875l-4.265625 0z" fill-rule="nonzero"/><path fill="#000000" d="m127.35934 213.53656q0 -1.296875 0.6874924 -2.03125q0.703125 -0.75 1.8125 -0.75q0.734375 0 1.3125 0.359375q0.59375 0.34375 0.890625 0.96875q0.3125 0.609375 0.3125 1.40625q0 0.796875 -0.328125 1.421875q-0.3125 0.625 -0.90625 0.953125q-0.59375 0.328125 -1.28125 0.328125q-0.734375 0 -1.328125 -0.359375q-0.5781174 -0.359375 -0.8749924 -0.96875q-0.296875 -0.625 -0.296875 -1.328125zm0.7031174 0.015625q0 0.953125 0.515625 1.5q0.515625 0.546875 1.28125 0.546875q0.78125 0 1.28125 -0.546875q0.515625 -0.5625 0.515625 -1.578125q0 -0.640625 -0.21875 -1.109375q-0.21875 -0.484375 -0.640625 -0.734375q-0.40625 -0.265625 -0.921875 -0.265625q-0.75 0 -1.28125 0.5q-0.53125 0.5 -0.53125 1.6875zm5.200058 2.546875l0 -5.25l0.703125 0l2.765625 4.125l0 -4.125l0.65625 0l0 5.25l-0.703125 0l-2.765625 -4.125l0 4.125l-0.65625 0z" fill-rule="nonzero"/><path fill="#000000" fill-opacity="0.0" d="m132.49606 151.99213l0 33.133865" fill-rule="evenodd"/><path stroke="#000000" stroke-width="1.0" stroke-linejoin="round" stroke-linecap="butt" d="m132.49606 151.99213l0 27.133865" fill-rule="evenodd"/><path fill="#000000" stroke="#000000" stroke-width="1.0" stroke-linecap="butt" d="m130.84433 179.12599l1.6517334 4.538086l1.6517334 -4.538086z" fill-rule="evenodd"/><path fill="#d9d9d9" d="m113.0 276.55905l0 0c0 -10.732574 8.728683 -19.433075 19.496063 -19.433075l0 0c5.1706696 0 10.129578 2.0474243 13.785797 5.6918335c3.6562195 3.6444092 5.710266 8.58728 5.710266 13.741241l0 0c0 10.732605 -8.728683 19.433075 -19.496063 19.433075l0 0c-10.76738 0 -19.496063 -8.70047 -19.496063 -19.433075z" fill-rule="evenodd"/><path stroke="#000000" stroke-width="1.0" stroke-linejoin="round" stroke-linecap="butt" d="m113.0 276.55905l0 0c0 -10.732574 8.728683 -19.433075 19.496063 -19.433075l0 0c5.1706696 0 10.129578 2.0474243 13.785797 5.6918335c3.6562195 3.6444092 5.710266 8.58728 5.710266 13.741241l0 0c0 10.732605 -8.728683 19.433075 -19.496063 19.433075l0 0c-10.76738 0 -19.496063 -8.70047 -19.496063 -19.433075z" fill-rule="evenodd"/><path fill="#000000" d="m125.19913 272.7553l0.6875 0.1875q-0.21875 0.84375 -0.78125 1.296875q-0.5625 0.453125 -1.390625 0.453125q-0.84375 0 -1.375 -0.34375q-0.53125 -0.34375 -0.8125 -1.0q-0.28125 -0.65625 -0.28125 -1.40625q0 -0.828125 0.3125 -1.4375q0.3125 -0.609375 0.890625 -0.921875q0.578125 -0.3125 1.28125 -0.3125q0.78125 0 1.3125 0.40625q0.546875 0.390625 0.75 1.109375l-0.671875 0.171875q-0.1875 -0.578125 -0.53125 -0.828125q-0.34375 -0.265625 -0.875 -0.265625q-0.609375 0 -1.015625 0.296875q-0.40625 0.28125 -0.578125 0.765625q-0.15625 0.484375 -0.15625 1.0q0 0.671875 0.1875 1.171875q0.203125 0.5 0.609375 0.75q0.421875 0.25 0.890625 0.25q0.59375 0 1.0 -0.328125q0.40625 -0.34375 0.546875 -1.015625zm1.5108948 1.84375l0 -5.25l0.703125 0l0 4.625l2.578125 0l0 0.625l-3.28125 0zm4.0755615 0l0 -5.25l0.703125 0l0 2.609375l2.59375 -2.609375l0.953125 0l-2.203125 2.125l2.296875 3.125l-0.921875 0l-1.859375 -2.65625l-0.859375 0.84375l0 1.8125l-0.703125 0zm4.684677 -1.6875l0.65625 -0.0625q0.046875 0.40625 0.21875 0.65625q0.171875 0.25 0.53125 0.40625q0.359375 0.15625 0.796875 0.15625q0.40625 0 0.703125 -0.109375q0.296875 -0.125 0.4375 -0.328125q0.15625 -0.21875 0.15625 -0.453125q0 -0.25 -0.140625 -0.4375q-0.140625 -0.1875 -0.46875 -0.3125q-0.203125 -0.078125 -0.9375 -0.25q-0.71875 -0.171875 -1.0 -0.328125q-0.390625 -0.1875 -0.578125 -0.484375q-0.171875 -0.296875 -0.171875 -0.65625q0 -0.390625 0.21875 -0.734375q0.234375 -0.359375 0.65625 -0.53125q0.4375 -0.171875 0.96875 -0.171875q0.578125 0 1.015625 0.1875q0.453125 0.1875 0.6875 0.546875q0.25 0.359375 0.265625 0.828125l-0.65625 0.046875q-0.0625 -0.5 -0.375 -0.75q-0.296875 -0.25 -0.90625 -0.25q-0.625 0 -0.921875 0.234375q-0.28125 0.21875 -0.28125 0.546875q0 0.28125 0.203125 0.46875q0.203125 0.1875 1.046875 0.375q0.84375 0.1875 1.15625 0.328125q0.453125 0.21875 0.671875 0.546875q0.21875 0.3125 0.21875 0.734375q0 0.421875 -0.234375 0.796875q-0.234375 0.359375 -0.6875 0.578125q-0.453125 0.203125 -1.015625 0.203125q-0.703125 0 -1.1875 -0.203125q-0.484375 -0.21875 -0.765625 -0.625q-0.265625 -0.421875 -0.28125 -0.953125zm4.450302 3.140625l0 -0.46875l4.265625 0l0 0.46875l-4.265625 0z" fill-rule="nonzero"/><path fill="#000000" d="m127.35934 281.03656q0 -1.296875 0.6874924 -2.03125q0.703125 -0.75 1.8125 -0.75q0.734375 0 1.3125 0.359375q0.59375 0.34375 0.890625 0.96875q0.3125 0.609375 0.3125 1.40625q0 0.796875 -0.328125 1.421875q-0.3125 0.625 -0.90625 0.953125q-0.59375 0.328125 -1.28125 0.328125q-0.734375 0 -1.328125 -0.359375q-0.5781174 -0.359375 -0.8749924 -0.96875q-0.296875 -0.625 -0.296875 -1.328125zm0.7031174 0.015625q0 0.953125 0.515625 1.5q0.515625 0.546875 1.28125 0.546875q0.78125 0 1.28125 -0.546875q0.515625 -0.5625 0.515625 -1.578125q0 -0.640625 -0.21875 -1.109375q-0.21875 -0.484375 -0.640625 -0.734375q-0.40625 -0.265625 -0.921875 -0.265625q-0.75 0 -1.28125 0.5q-0.53125 0.5 -0.53125 1.6875zm5.200058 2.546875l0 -5.25l0.703125 0l2.765625 4.125l0 -4.125l0.65625 0l0 5.25l-0.703125 0l-2.765625 -4.125l0 4.125l-0.65625 0z" fill-rule="nonzero"/><path fill="#000000" fill-opacity="0.0" d="m132.49606 223.99213l0 33.13385" fill-rule="evenodd"/><path stroke="#000000" stroke-width="1.0" stroke-linejoin="round" stroke-linecap="butt" d="m132.49606 223.99213l0 27.133865" fill-rule="evenodd"/><path fill="#000000" stroke="#000000" stroke-width="1.0" stroke-linecap="butt" d="m130.84433 251.12599l1.6517334 4.538086l1.6517334 -4.538086z" fill-rule="evenodd"/><path fill="#d9d9d9" d="m184.0 60.31496l0 0c0 -10.871746 8.9543 -19.68504 20.0 -19.68504l0 0c5.3043365 0 10.391403 2.0739555 14.142136 5.7656136c3.7507324 3.6916618 5.8578644 8.698627 5.8578644 13.919426l0 0c0 10.871746 -8.9543 19.68504 -20.0 19.68504l0 0c-11.0457 0 -20.0 -8.813293 -20.0 -19.68504z" fill-rule="evenodd"/><path stroke="#000000" stroke-width="1.0" stroke-linejoin="round" stroke-linecap="butt" d="m184.0 60.31496l0 0c0 -10.871746 8.9543 -19.68504 20.0 -19.68504l0 0c5.3043365 0 10.391403 2.0739555 14.142136 5.7656136c3.7507324 3.6916618 5.8578644 8.698627 5.8578644 13.919426l0 0c0 10.871746 -8.9543 19.68504 -20.0 19.68504l0 0c-11.0457 0 -20.0 -8.813293 -20.0 -19.68504z" fill-rule="evenodd"/><path fill="#000000" d="m194.7895 55.79246q0 -1.296875 0.6875 -2.03125q0.703125 -0.75 1.8125 -0.75q0.734375 0 1.3125 0.359375q0.59375 0.34375 0.890625 0.96875q0.3125 0.609375 0.3125 1.40625q0 0.796875 -0.328125 1.421875q-0.3125 0.625 -0.90625 0.953125q-0.59375 0.328125 -1.28125 0.328125q-0.734375 0 -1.328125 -0.359375q-0.578125 -0.359375 -0.875 -0.96875q-0.296875 -0.625 -0.296875 -1.328125zm0.703125 0.015625q0 0.953125 0.515625 1.5q0.515625 0.546875 1.28125 0.546875q0.78125 0 1.28125 -0.546875q0.515625 -0.5625 0.515625 -1.578125q0 -0.640625 -0.21875 -1.109375q-0.21875 -0.484375 -0.640625 -0.734375q-0.40625 -0.265625 -0.921875 -0.265625q-0.75 0 -1.28125 0.5q-0.53125 0.5 -0.53125 1.6875zm6.543808 2.546875l0 -4.625l-1.734375 0l0 -0.625l4.15625 0l0 0.625l-1.734375 0l0 4.625l-0.6875 0zm3.1325684 0l0 -5.25l1.984375 0q0.515625 0 0.796875 0.046875q0.390625 0.078125 0.640625 0.265625q0.265625 0.171875 0.421875 0.5q0.15625 0.3125 0.15625 0.703125q0 0.671875 -0.421875 1.140625q-0.421875 0.46875 -1.53125 0.46875l-1.34375 0l0 2.125l-0.703125 0zm0.703125 -2.75l1.34375 0q0.671875 0 0.953125 -0.25q0.296875 -0.25 0.296875 -0.703125q0 -0.328125 -0.171875 -0.5625q-0.171875 -0.234375 -0.4375 -0.3125q-0.171875 -0.046875 -0.65625 -0.046875l-1.328125 0l0 1.875zm3.5128021 4.203125l0 -0.46875l4.265625 0l0 0.46875l-4.265625 0z" fill-rule="nonzero"/><path fill="#000000" d="m197.76727 67.35496l0 -5.249996l0.6875 0l0 5.249996l-0.6875 0zm1.9109955 0l0 -5.249996l0.703125 0l2.765625 4.124996l0 -4.124996l0.65625 0l0 5.249996l-0.703125 0l-2.765625 -4.124996l0 4.124996l-0.65625 0zm5.417145 0l0 -5.249996l0.6875 0l0 5.249996l-0.6875 0zm3.2547455 0l0 -4.624996l-1.734375 0l0 -0.625l4.15625 0l0 0.625l-1.734375 0l0 4.624996l-0.6875 0z" fill-rule="nonzero"/><path fill="#d9d9d9" d="m184.0 132.14174l0 0c0 -10.958725 8.9543 -19.84253 20.0 -19.84253l0 0c5.3043365 0 10.391403 2.0905457 14.142136 5.8117447c3.7507324 3.7211914 5.8578644 8.768211 5.8578644 14.030785l0 0c0 10.95871 -8.9543 19.842514 -20.0 19.842514l0 0c-11.0457 0 -20.0 -8.883804 -20.0 -19.842514z" fill-rule="evenodd"/><path stroke="#000000" stroke-width="1.0" stroke-linejoin="round" stroke-linecap="butt" d="m184.0 132.14174l0 0c0 -10.958725 8.9543 -19.84253 20.0 -19.84253l0 0c5.3043365 0 10.391403 2.0905457 14.142136 5.8117447c3.7507324 3.7211914 5.8578644 8.768211 5.8578644 14.030785l0 0c0 10.95871 -8.9543 19.842514 -20.0 19.842514l0 0c-11.0457 0 -20.0 -8.883804 -20.0 -19.842514z" fill-rule="evenodd"/><path fill="#000000" d="m197.80962 130.18173l0 -5.25l0.703125 0l0 4.625l2.578125 0l0 0.625l-3.28125 0zm7.8568115 -1.84375l0.6875 0.1875q-0.21875 0.84375 -0.78125 1.296875q-0.5625 0.453125 -1.390625 0.453125q-0.84375 0 -1.375 -0.34375q-0.53125 -0.34375 -0.8125 -1.0q-0.28125 -0.65625 -0.28125 -1.40625q0 -0.828125 0.3125 -1.4375q0.3125 -0.609375 0.890625 -0.921875q0.578125 -0.3125 1.28125 -0.3125q0.78125 0 1.3125 0.40625q0.546875 0.390625 0.75 1.109375l-0.671875 0.171875q-0.1875 -0.578125 -0.53125 -0.828125q-0.34375 -0.265625 -0.875 -0.265625q-0.609375 0 -1.015625 0.296875q-0.40625 0.28125 -0.578125 0.765625q-0.15625 0.484375 -0.15625 1.0q0 0.671875 0.1875 1.171875q0.203125 0.5 0.609375 0.75q0.421875 0.25 0.890625 0.25q0.59375 0 1.0 -0.328125q0.40625 -0.34375 0.546875 -1.015625zm0.8702698 3.296875l0 -0.46875l4.265625 0l0 0.46875l-4.265625 0z" fill-rule="nonzero"/><path fill="#000000" d="m197.76727 139.18173l0 -5.25l0.6875 0l0 5.25l-0.6875 0zm1.9109955 0l0 -5.25l0.703125 0l2.765625 4.125l0 -4.125l0.65625 0l0 5.25l-0.703125 0l-2.765625 -4.125l0 4.125l-0.65625 0zm5.417145 0l0 -5.25l0.6875 0l0 5.25l-0.6875 0zm3.2547455 0l0 -4.625l-1.734375 0l0 -0.625l4.15625 0l0 0.625l-1.734375 0l0 4.625l-0.6875 0z" fill-rule="nonzero"/><path fill="#d9d9d9" d="m184.0 204.47244l0 0c0 -10.776077 8.9543 -19.51181 20.0 -19.51181l0 0c5.3043365 0 10.391403 2.0556946 14.142136 5.7148743c3.7507324 3.6591797 5.8578644 8.622086 5.8578644 13.796936l0 0c0 10.776077 -8.9543 19.51181 -20.0 19.51181l0 0c-11.0457 0 -20.0 -8.735733 -20.0 -19.51181z" fill-rule="evenodd"/><path stroke="#000000" stroke-width="1.0" stroke-linejoin="round" stroke-linecap="butt" d="m184.0 204.47244l0 0c0 -10.776077 8.9543 -19.51181 20.0 -19.51181l0 0c5.3043365 0 10.391403 2.0556946 14.142136 5.7148743c3.7507324 3.6591797 5.8578644 8.622086 5.8578644 13.796936l0 0c0 10.776077 -8.9543 19.51181 -20.0 19.51181l0 0c-11.0457 0 -20.0 -8.735733 -20.0 -19.51181z" fill-rule="evenodd"/><path fill="#000000" d="m194.95863 200.82494l0.65625 -0.0625q0.046875 0.40625 0.21875 0.65625q0.171875 0.25 0.53125 0.40625q0.359375 0.15625 0.796875 0.15625q0.40625 0 0.703125 -0.109375q0.296875 -0.125 0.4375 -0.328125q0.15625 -0.21875 0.15625 -0.453125q0 -0.25 -0.140625 -0.4375q-0.140625 -0.1875 -0.46875 -0.3125q-0.203125 -0.078125 -0.9375 -0.25q-0.71875 -0.171875 -1.0 -0.328125q-0.390625 -0.1875 -0.578125 -0.484375q-0.171875 -0.296875 -0.171875 -0.65625q0 -0.390625 0.21875 -0.734375q0.234375 -0.359375 0.65625 -0.53125q0.4375 -0.171875 0.96875 -0.171875q0.578125 0 1.015625 0.1875q0.453125 0.1875 0.6875 0.546875q0.25 0.359375 0.265625 0.828125l-0.65625 0.046875q-0.0625 -0.5 -0.375 -0.75q-0.296875 -0.25 -0.90625 -0.25q-0.625 0 -0.921875 0.234375q-0.28125 0.21875 -0.28125 0.546875q0 0.28125 0.203125 0.46875q0.203125 0.1875 1.046875 0.375q0.84375 0.1875 1.15625 0.328125q0.453125 0.21875 0.671875 0.546875q0.21875 0.3125 0.21875 0.734375q0 0.421875 -0.234375 0.796875q-0.234375 0.359375 -0.6875 0.578125q-0.453125 0.203125 -1.015625 0.203125q-0.703125 0 -1.1875 -0.203125q-0.484375 -0.21875 -0.765625 -0.625q-0.265625 -0.421875 -0.28125 -0.953125zm6.606552 1.6875l0 -2.21875l-2.03125 -3.03125l0.84375 0l1.046875 1.578125q0.28125 0.453125 0.53125 0.890625q0.234375 -0.40625 0.5625 -0.921875l1.015625 -1.546875l0.8125 0l-2.09375 3.03125l0 2.21875l-0.6875 0zm3.1690521 -1.6875l0.65625 -0.0625q0.046875 0.40625 0.21875 0.65625q0.171875 0.25 0.53125 0.40625q0.359375 0.15625 0.796875 0.15625q0.40625 0 0.703125 -0.109375q0.296875 -0.125 0.4375 -0.328125q0.15625 -0.21875 0.15625 -0.453125q0 -0.25 -0.140625 -0.4375q-0.140625 -0.1875 -0.46875 -0.3125q-0.203125 -0.078125 -0.9375 -0.25q-0.71875 -0.171875 -1.0 -0.328125q-0.390625 -0.1875 -0.578125 -0.484375q-0.171875 -0.296875 -0.171875 -0.65625q0 -0.390625 0.21875 -0.734375q0.234375 -0.359375 0.65625 -0.53125q0.4375 -0.171875 0.96875 -0.171875q0.578125 0 1.015625 0.1875q0.453125 0.1875 0.6875 0.546875q0.25 0.359375 0.265625 0.828125l-0.65625 0.046875q-0.0625 -0.5 -0.375 -0.75q-0.296875 -0.25 -0.90625 -0.25q-0.625 0 -0.921875 0.234375q-0.28125 0.21875 -0.28125 0.546875q0 0.28125 0.203125 0.46875q0.203125 0.1875 1.046875 0.375q0.84375 0.1875 1.15625 0.328125q0.453125 0.21875 0.671875 0.546875q0.21875 0.3125 0.21875 0.734375q0 0.421875 -0.234375 0.796875q-0.234375 0.359375 -0.6875 0.578125q-0.453125 0.203125 -1.015625 0.203125q-0.703125 0 -1.1875 -0.203125q-0.484375 -0.21875 -0.765625 -0.625q-0.265625 -0.421875 -0.28125 -0.953125zm4.450302 3.140625l0 -0.46875l4.265625 0l0 0.46875l-4.265625 0z" fill-rule="nonzero"/><path fill="#000000" d="m192.56613 211.51244l0 -5.25l2.328125 0q0.703125 0 1.0625 0.140625q0.359375 0.140625 0.578125 0.5q0.21875 0.359375 0.21875 0.796875q0 0.5625 -0.359375 0.953125q-0.359375 0.375 -1.109375 0.46875q0.265625 0.140625 0.40625 0.265625q0.3125 0.28125 0.578125 0.703125l0.921875 1.421875l-0.875 0l-0.703125 -1.09375q-0.296875 -0.46875 -0.5 -0.71875q-0.1875 -0.25 -0.34375 -0.34375q-0.15625 -0.109375 -0.3125 -0.140625q-0.125 -0.03125 -0.390625 -0.03125l-0.8125 0l0 2.328125l-0.6875 0zm0.6875 -2.9375l1.5 0q0.46875 0 0.734375 -0.09375q0.28125 -0.09375 0.40625 -0.3125q0.140625 -0.21875 0.140625 -0.46875q0 -0.375 -0.265625 -0.609375q-0.265625 -0.25 -0.84375 -0.25l-1.671875 0l0 1.734375zm4.354645 1.25l0.65625 -0.0625q0.046875 0.40625 0.21875 0.65625q0.171875 0.25 0.53125 0.40625q0.359375 0.15625 0.796875 0.15625q0.40625 0 0.703125 -0.109375q0.296875 -0.125 0.4375 -0.328125q0.15625 -0.21875 0.15625 -0.453125q0 -0.25 -0.140625 -0.4375q-0.140625 -0.1875 -0.46875 -0.3125q-0.203125 -0.078125 -0.9375 -0.25q-0.71875 -0.171875 -1.0 -0.328125q-0.390625 -0.1875 -0.578125 -0.484375q-0.171875 -0.296875 -0.171875 -0.65625q0 -0.390625 0.21875 -0.734375q0.234375 -0.359375 0.65625 -0.53125q0.4375 -0.171875 0.96875 -0.171875q0.578125 0 1.015625 0.1875q0.453125 0.1875 0.6875 0.546875q0.25 0.359375 0.265625 0.828125l-0.65625 0.046875q-0.0625 -0.5 -0.375 -0.75q-0.296875 -0.25 -0.90625 -0.25q-0.625 0 -0.921875 0.234375q-0.28125 0.21875 -0.28125 0.546875q0 0.28125 0.203125 0.46875q0.203125 0.1875 1.046875 0.375q0.84375 0.1875 1.15625 0.328125q0.453125 0.21875 0.671875 0.546875q0.21875 0.3125 0.21875 0.734375q0 0.421875 -0.234375 0.796875q-0.234375 0.359375 -0.6875 0.578125q-0.453125 0.203125 -1.015625 0.203125q-0.703125 0 -1.1875 -0.203125q-0.484375 -0.21875 -0.765625 -0.625q-0.265625 -0.421875 -0.28125 -0.953125zm6.465927 1.6875l0 -4.625l-1.734375 0l0 -0.625l4.15625 0l0 0.625l-1.734375 0l0 4.625l-0.6875 0zm2.4606934 1.453125l0 -0.46875l4.265625 0l0 0.46875l-4.265625 0zm4.7786865 -1.453125l0 -5.25l0.6875 0l0 2.15625l2.71875 0l0 -2.15625l0.703125 0l0 5.25l-0.703125 0l0 -2.46875l-2.71875 0l0 2.46875l-0.6875 0z" fill-rule="nonzero"/><path fill="#d9d9d9" d="m184.0 276.47244l0 0c0 -10.776093 8.9543 -19.51181 20.0 -19.51181l0 0c5.3043365 0 10.391403 2.0556946 14.142136 5.7148743c3.7507324 3.6591797 5.8578644 8.62207 5.8578644 13.796936l0 0c0 10.776062 -8.9543 19.51181 -20.0 19.51181l0 0c-11.0457 0 -20.0 -8.735748 -20.0 -19.51181z" fill-rule="evenodd"/><path stroke="#000000" stroke-width="1.0" stroke-linejoin="round" stroke-linecap="butt" d="m184.0 276.47244l0 0c0 -10.776093 8.9543 -19.51181 20.0 -19.51181l0 0c5.3043365 0 10.391403 2.0556946 14.142136 5.7148743c3.7507324 3.6591797 5.8578644 8.62207 5.8578644 13.796936l0 0c0 10.776062 -8.9543 19.51181 -20.0 19.51181l0 0c-11.0457 0 -20.0 -8.735748 -20.0 -19.51181z" fill-rule="evenodd"/><path fill="#000000" d="m196.54175 279.01245l0 -5.25l0.6875 0l0 5.25l-0.6875 0zm1.9109955 0l0 -5.25l1.8125 0q0.609375 0 0.9375 0.078125q0.4375 0.109375 0.765625 0.375q0.40625 0.359375 0.609375 0.90625q0.21875 0.53125 0.21875 1.234375q0 0.609375 -0.140625 1.078125q-0.140625 0.453125 -0.359375 0.75q-0.21875 0.296875 -0.484375 0.484375q-0.25 0.171875 -0.625 0.265625q-0.359375 0.078125 -0.84375 0.078125l-1.890625 0zm0.703125 -0.625l1.109375 0q0.515625 0 0.8125 -0.09375q0.296875 -0.09375 0.484375 -0.265625q0.234375 -0.25 0.375 -0.65625q0.140625 -0.421875 0.140625 -1.015625q0 -0.828125 -0.28125 -1.265625q-0.265625 -0.453125 -0.640625 -0.59375q-0.28125 -0.109375 -0.90625 -0.109375l-1.09375 0l0 4.0zm4.55777 0.625l0 -5.25l0.703125 0l0 4.625l2.578125 0l0 0.625l-3.28125 0zm4.1224365 0l0 -5.25l3.796875 0l0 0.625l-3.09375 0l0 1.609375l2.890625 0l0 0.609375l-2.890625 0l0 1.78125l3.21875 0l0 0.625l-3.921875 0z" fill-rule="nonzero"/><path fill="#d9d9d9" d="m280.0 60.31496l0 0c0 -10.871746 8.954315 -19.68504 20.0 -19.68504l0 0c5.3043213 0 10.391418 2.0739555 14.142151 5.7656136c3.750702 3.6916618 5.857849 8.698627 5.857849 13.919426l0 0c0 10.871746 -8.954315 19.68504 -20.0 19.68504l0 0c-11.045685 0 -20.0 -8.813293 -20.0 -19.68504z" fill-rule="evenodd"/><path stroke="#000000" stroke-width="1.0" stroke-linejoin="round" stroke-linecap="butt" d="m280.0 60.31496l0 0c0 -10.871746 8.954315 -19.68504 20.0 -19.68504l0 0c5.3043213 0 10.391418 2.0739555 14.142151 5.7656136c3.750702 3.6916618 5.857849 8.698627 5.857849 13.919426l0 0c0 10.871746 -8.954315 19.68504 -20.0 19.68504l0 0c-11.045685 0 -20.0 -8.813293 -20.0 -19.68504z" fill-rule="evenodd"/><path fill="#000000" d="m293.76727 62.85496l0 -5.25l0.6875 0l0 5.25l-0.6875 0zm1.9109802 0l0 -5.25l0.703125 0l2.765625 4.125l0 -4.125l0.65625 0l0 5.25l-0.703125 0l-2.765625 -4.125l0 4.125l-0.65625 0zm5.417145 0l0 -5.25l0.6875 0l0 5.25l-0.6875 0zm3.2547607 0l0 -4.625l-1.734375 0l0 -0.625l4.15625 0l0 0.625l-1.734375 0l0 4.625l-0.6875 0z" fill-rule="nonzero"/><path fill="#d9d9d9" d="m375.0 60.31496l0 0c0 -10.871746 9.179932 -19.68504 20.503937 -19.68504l0 0c5.4379883 0 10.653229 2.0739555 14.498474 5.7656136c3.8452454 3.6916618 6.0054626 8.698627 6.0054626 13.919426l0 0c0 10.871746 -9.179932 19.68504 -20.503937 19.68504l0 0c-11.324005 0 -20.503937 -8.813293 -20.503937 -19.68504z" fill-rule="evenodd"/><path stroke="#000000" stroke-width="1.0" stroke-linejoin="round" stroke-linecap="butt" d="m375.0 60.31496l0 0c0 -10.871746 9.179932 -19.68504 20.503937 -19.68504l0 0c5.4379883 0 10.653229 2.0739555 14.498474 5.7656136c3.8452454 3.6916618 6.0054626 8.698627 6.0054626 13.919426l0 0c0 10.871746 -9.179932 19.68504 -20.503937 19.68504l0 0c-11.324005 0 -20.503937 -8.813293 -20.503937 -19.68504z" fill-rule="evenodd"/><path fill="#000000" d="m383.86435 58.35496l0 -5.25l2.328125 0q0.703125 0 1.0625 0.140625q0.359375 0.140625 0.578125 0.5q0.21875 0.359375 0.21875 0.796875q0 0.5625 -0.359375 0.953125q-0.359375 0.375 -1.109375 0.46875q0.265625 0.140625 0.40625 0.265625q0.3125 0.28125 0.578125 0.703125l0.921875 1.421875l-0.875 0l-0.703125 -1.09375q-0.296875 -0.46875 -0.5 -0.71875q-0.1875 -0.25 -0.34375 -0.34375q-0.15625 -0.109375 -0.3125 -0.140625q-0.125 -0.03125 -0.390625 -0.03125l-0.8125 0l0 2.328125l-0.6875 0zm0.6875 -2.9375l1.5 0q0.46875 0 0.734375 -0.09375q0.28125 -0.09375 0.40625 -0.3125q0.140625 -0.21875 0.140625 -0.46875q0 -0.375 -0.265625 -0.609375q-0.265625 -0.25 -0.84375 -0.25l-1.671875 0l0 1.734375zm4.604645 2.9375l0 -5.25l3.796875 0l0 0.625l-3.09375 0l0 1.609375l2.890625 0l0 0.609375l-2.890625 0l0 1.78125l3.21875 0l0 0.625l-3.921875 0zm4.294037 0l2.015625 -5.25l0.75 0l2.15625 5.25l-0.796875 0l-0.609375 -1.59375l-2.203125 0l-0.578125 1.59375l-0.734375 0zm1.515625 -2.15625l1.78125 0l-0.546875 -1.453125q-0.25 -0.65625 -0.375 -1.078125q-0.09375 0.5 -0.28125 1.0l-0.578125 1.53125zm3.9503174 2.15625l0 -5.25l1.8125 0q0.609375 0 0.9375 0.078125q0.4375 0.109375 0.765625 0.375q0.40625 0.359375 0.609375 0.90625q0.21875 0.53125 0.21875 1.234375q0 0.609375 -0.140625 1.078125q-0.140625 0.453125 -0.359375 0.75q-0.21875 0.296875 -0.484375 0.484375q-0.25 0.171875 -0.625 0.265625q-0.359375 0.078125 -0.84375 0.078125l-1.890625 0zm0.703125 -0.625l1.109375 0q0.515625 0 0.8125 -0.09375q0.296875 -0.09375 0.484375 -0.265625q0.234375 -0.25 0.375 -0.65625q0.140625 -0.421875 0.140625 -1.015625q0 -0.828125 -0.28125 -1.265625q-0.265625 -0.453125 -0.640625 -0.59375q-0.28125 -0.109375 -0.90625 -0.109375l-1.09375 0l0 4.0zm3.9171448 2.078125l0 -0.46875l4.265625 0l0 0.46875l-4.265625 0z" fill-rule="nonzero"/><path fill="#000000" d="m386.32565 67.35496l0 -5.249996l3.546875 0l0 0.625l-2.84375 0l0 1.6249962l2.453125 0l0 0.609375l-2.453125 0l0 2.390625l-0.703125 0zm7.8825684 -5.249996l0.703125 0l0 3.0312462q0 0.796875 -0.1875 1.265625q-0.171875 0.453125 -0.640625 0.75q-0.46875 0.296875 -1.21875 0.296875q-0.734375 0 -1.203125 -0.25q-0.46875 -0.265625 -0.671875 -0.734375q-0.203125 -0.484375 -0.203125 -1.328125l0 -3.0312462l0.6875 0l0 3.0312462q0 0.6875 0.125 1.015625q0.140625 0.3125 0.4375 0.5q0.3125 0.171875 0.765625 0.171875q0.765625 0 1.078125 -0.34375q0.328125 -0.359375 0.328125 -1.34375l0 -3.0312462zm1.6202698 3.5624962l0.65625 -0.0625q0.046875 0.40625 0.21875 0.65625q0.171875 0.25 0.53125 0.40625q0.359375 0.15625 0.796875 0.15625q0.40625 0 0.703125 -0.109375q0.296875 -0.125 0.4375 -0.328125q0.15625 -0.21875 0.15625 -0.453125q0 -0.25 -0.140625 -0.4375q-0.140625 -0.1875 -0.46875 -0.3125q-0.203125 -0.078125 -0.9375 -0.25q-0.71875 -0.171875 -1.0 -0.328125q-0.390625 -0.1875 -0.578125 -0.484375q-0.171875 -0.2968712 -0.171875 -0.6562462q0 -0.390625 0.21875 -0.734375q0.234375 -0.359375 0.65625 -0.53125q0.4375 -0.171875 0.96875 -0.171875q0.578125 0 1.015625 0.1875q0.453125 0.1875 0.6875 0.546875q0.25 0.359375 0.265625 0.828125l-0.65625 0.046875q-0.0625 -0.5 -0.375 -0.75q-0.296875 -0.25 -0.90625 -0.25q-0.625 0 -0.921875 0.234375q-0.28125 0.21875 -0.28125 0.546875q0 0.28125 0.203125 0.46875q0.203125 0.18749619 1.046875 0.3749962q0.84375 0.1875 1.15625 0.328125q0.453125 0.21875 0.671875 0.546875q0.21875 0.3125 0.21875 0.734375q0 0.421875 -0.234375 0.796875q-0.234375 0.359375 -0.6875 0.578125q-0.453125 0.203125 -1.015625 0.203125q-0.703125 0 -1.1875 -0.203125q-0.484375 -0.21875 -0.765625 -0.625q-0.265625 -0.421875 -0.28125 -0.953125zm5.1378174 1.6875l0 -5.249996l3.796875 0l0 0.625l-3.09375 0l0 1.6093712l2.890625 0l0 0.609375l-2.890625 0l0 1.78125l3.21875 0l0 0.625l-3.921875 0z" fill-rule="nonzero"/><path fill="#d9d9d9" d="m375.0 132.22835l0 0c0 -10.94133 9.179932 -19.811028 20.503937 -19.811028l0 0c5.4379883 0 10.653229 2.0872269 14.498474 5.8025208c3.8452454 3.7152863 6.0054626 8.754295 6.0054626 14.008507l0 0c0 10.94133 -9.179932 19.81102 -20.503937 19.81102l0 0c-11.324005 0 -20.503937 -8.86969 -20.503937 -19.81102z" fill-rule="evenodd"/><path stroke="#000000" stroke-width="1.0" stroke-linejoin="round" stroke-linecap="butt" d="m375.0 132.22835l0 0c0 -10.94133 9.179932 -19.811028 20.503937 -19.811028l0 0c5.4379883 0 10.653229 2.0872269 14.498474 5.8025208c3.8452454 3.7152863 6.0054626 8.754295 6.0054626 14.008507l0 0c0 10.94133 -9.179932 19.81102 -20.503937 19.81102l0 0c-11.324005 0 -20.503937 -8.86969 -20.503937 -19.81102z" fill-rule="evenodd"/><path fill="#000000" d="m383.24042 125.76835l0 -5.25l1.8125 0q0.609375 0 0.9375 0.078125q0.4375 0.109375 0.765625 0.375q0.40625 0.359375 0.609375 0.90625q0.21875 0.53125 0.21875 1.234375q0 0.609375 -0.140625 1.078125q-0.140625 0.453125 -0.359375 0.75q-0.21875 0.296875 -0.484375 0.484375q-0.25 0.171875 -0.625 0.265625q-0.359375 0.078125 -0.84375 0.078125l-1.890625 0zm0.703125 -0.625l1.109375 0q0.515625 0 0.8125 -0.09375q0.296875 -0.09375 0.484375 -0.265625q0.234375 -0.25 0.375 -0.65625q0.140625 -0.421875 0.140625 -1.015625q0 -0.828125 -0.28125 -1.265625q-0.265625 -0.453125 -0.640625 -0.59375q-0.28125 -0.109375 -0.90625 -0.109375l-1.09375 0l0 4.0zm4.604645 0.625l0 -5.25l3.796875 0l0 0.625l-3.09375 0l0 1.609375l2.890625 0l0 0.609375l-2.890625 0l0 1.78125l3.21875 0l0 0.625l-3.921875 0zm4.6378174 -1.6875l0.65625 -0.0625q0.046875 0.40625 0.21875 0.65625q0.171875 0.25 0.53125 0.40625q0.359375 0.15625 0.796875 0.15625q0.40625 0 0.703125 -0.109375q0.296875 -0.125 0.4375 -0.328125q0.15625 -0.21875 0.15625 -0.453125q0 -0.25 -0.140625 -0.4375q-0.140625 -0.1875 -0.46875 -0.3125q-0.203125 -0.078125 -0.9375 -0.25q-0.71875 -0.171875 -1.0 -0.328125q-0.390625 -0.1875 -0.578125 -0.484375q-0.171875 -0.296875 -0.171875 -0.65625q0 -0.390625 0.21875 -0.734375q0.234375 -0.359375 0.65625 -0.53125q0.4375 -0.171875 0.96875 -0.171875q0.578125 0 1.015625 0.1875q0.453125 0.1875 0.6875 0.546875q0.25 0.359375 0.265625 0.828125l-0.65625 0.046875q-0.0625 -0.5 -0.375 -0.75q-0.296875 -0.25 -0.90625 -0.25q-0.625 0 -0.921875 0.234375q-0.28125 0.21875 -0.28125 0.546875q0 0.28125 0.203125 0.46875q0.203125 0.1875 1.046875 0.375q0.84375 0.1875 1.15625 0.328125q0.453125 0.21875 0.671875 0.546875q0.21875 0.3125 0.21875 0.734375q0 0.421875 -0.234375 0.796875q-0.234375 0.359375 -0.6875 0.578125q-0.453125 0.203125 -1.015625 0.203125q-0.703125 0 -1.1875 -0.203125q-0.484375 -0.21875 -0.765625 -0.625q-0.265625 -0.421875 -0.28125 -0.953125zm8.872162 -0.15625l0.6875 0.1875q-0.21875 0.84375 -0.78125 1.296875q-0.5625 0.453125 -1.390625 0.453125q-0.84375 0 -1.375 -0.34375q-0.53125 -0.34375 -0.8125 -1.0q-0.28125 -0.65625 -0.28125 -1.40625q0 -0.828125 0.3125 -1.4375q0.3125 -0.609375 0.890625 -0.921875q0.578125 -0.3125 1.28125 -0.3125q0.78125 0 1.3125 0.40625q0.546875 0.390625 0.75 1.109375l-0.671875 0.171875q-0.1875 -0.578125 -0.53125 -0.828125q-0.34375 -0.265625 -0.875 -0.265625q-0.609375 0 -1.015625 0.296875q-0.40625 0.28125 -0.578125 0.765625q-0.15625 0.484375 -0.15625 1.0q0 0.671875 0.1875 1.171875q0.203125 0.5 0.609375 0.75q0.421875 0.25 0.890625 0.25q0.59375 0 1.0 -0.328125q0.40625 -0.34375 0.546875 -1.015625zm1.5577698 1.84375l0 -5.25l2.328125 0q0.703125 0 1.0625 0.140625q0.359375 0.140625 0.578125 0.5q0.21875 0.359375 0.21875 0.796875q0 0.5625 -0.359375 0.953125q-0.359375 0.375 -1.109375 0.46875q0.265625 0.140625 0.40625 0.265625q0.3125 0.28125 0.578125 0.703125l0.921875 1.421875l-0.875 0l-0.703125 -1.09375q-0.296875 -0.46875 -0.5 -0.71875q-0.1875 -0.25 -0.34375 -0.34375q-0.15625 -0.109375 -0.3125 -0.140625q-0.125 -0.03125 -0.390625 -0.03125l-0.8125 0l0 2.328125l-0.6875 0zm0.6875 -2.9375l1.5 0q0.46875 0 0.734375 -0.09375q0.28125 -0.09375 0.40625 -0.3125q0.140625 -0.21875 0.140625 -0.46875q0 -0.375 -0.265625 -0.609375q-0.265625 -0.25 -0.84375 -0.25l-1.671875 0l0 1.734375z" fill-rule="nonzero"/><path fill="#000000" d="m381.03064 134.76834l2.015625 -5.25l0.75 0l2.15625 5.25l-0.796875 0l-0.609375 -1.59375l-2.203125 0l-0.578125 1.59375l-0.734375 0zm1.515625 -2.15625l1.78125 0l-0.546875 -1.453125q-0.25 -0.65625 -0.375 -1.078125q-0.09375 0.5 -0.28125 1.0l-0.578125 1.53125zm3.9346924 2.15625l0 -5.25l1.046875 0l1.234375 3.71875q0.171875 0.515625 0.25 0.78125q0.09375 -0.296875 0.28125 -0.84375l1.25 -3.65625l0.9375 0l0 5.25l-0.671875 0l0 -4.390625l-1.515625 4.390625l-0.625 0l-1.515625 -4.46875l0 4.46875l-0.671875 0zm6.088745 0l0 -5.25l1.96875 0q0.609375 0 0.96875 0.171875q0.359375 0.15625 0.5625 0.484375q0.21875 0.328125 0.21875 0.6875q0 0.34375 -0.1875 0.640625q-0.1875 0.296875 -0.546875 0.46875q0.46875 0.140625 0.71875 0.484375q0.265625 0.328125 0.265625 0.796875q0 0.359375 -0.15625 0.6875q-0.15625 0.3125 -0.390625 0.484375q-0.21875 0.171875 -0.578125 0.265625q-0.34375 0.078125 -0.84375 0.078125l-2.0 0zm0.703125 -3.046875l1.125 0q0.46875 0 0.671875 -0.0625q0.265625 -0.078125 0.390625 -0.25q0.140625 -0.1875 0.140625 -0.46875q0 -0.25 -0.125 -0.453125q-0.125 -0.203125 -0.359375 -0.265625q-0.234375 -0.078125 -0.796875 -0.078125l-1.046875 0l0 1.578125zm0 2.421875l1.296875 0q0.34375 0 0.484375 -0.015625q0.234375 -0.046875 0.390625 -0.140625q0.171875 -0.109375 0.265625 -0.296875q0.109375 -0.1875 0.109375 -0.4375q0 -0.296875 -0.15625 -0.515625q-0.140625 -0.21875 -0.421875 -0.296875q-0.265625 -0.09375 -0.765625 -0.09375l-1.203125 0l0 1.796875zm4.1846924 0.625l0 -5.25l0.703125 0l0 4.625l2.578125 0l0 0.625l-3.28125 0zm4.1224365 0l0 -5.25l3.796875 0l0 0.625l-3.09375 0l0 1.609375l2.890625 0l0 0.609375l-2.890625 0l0 1.78125l3.21875 0l0 0.625l-3.921875 0zm6.3456726 0.09375l1.515625 -5.421875l0.515625 0l-1.515625 5.421875l-0.515625 0z" fill-rule="nonzero"/><path fill="#000000" d="m386.99042 141.92459l0.6875 0.1875q-0.21875 0.84375 -0.78125 1.296875q-0.5625 0.453125 -1.390625 0.453125q-0.84375 0 -1.375 -0.34375q-0.53125 -0.34375 -0.8125 -1.0q-0.28125 -0.65625 -0.28125 -1.40625q0 -0.828125 0.3125 -1.4375q0.3125 -0.609375 0.890625 -0.921875q0.578125 -0.3125 1.28125 -0.3125q0.78125 0 1.3125 0.40625q0.546875 0.390625 0.75 1.109375l-0.671875 0.171875q-0.1875 -0.578125 -0.53125 -0.828125q-0.34375 -0.265625 -0.875 -0.265625q-0.609375 0 -1.015625 0.296875q-0.40625 0.28125 -0.578125 0.765625q-0.15625 0.484375 -0.15625 1.0q0 0.671875 0.1875 1.171875q0.203125 0.5 0.609375 0.75q0.421875 0.25 0.890625 0.25q0.59375 0 1.0 -0.328125q0.40625 -0.34375 0.546875 -1.015625zm1.5733948 1.84375l0 -5.25l0.6875 0l0 2.15625l2.71875 0l0 -2.15625l0.703125 0l0 5.25l-0.703125 0l0 -2.46875l-2.71875 0l0 2.46875l-0.6875 0zm5.27652 0l0 -5.25l3.796875 0l0 0.625l-3.09375 0l0 1.609375l2.890625 0l0 0.609375l-2.890625 0l0 1.78125l3.21875 0l0 0.625l-3.921875 0zm8.622192 -1.84375l0.6875 0.1875q-0.21875 0.84375 -0.78125 1.296875q-0.5625 0.453125 -1.390625 0.453125q-0.84375 0 -1.375 -0.34375q-0.53125 -0.34375 -0.8125 -1.0q-0.28125 -0.65625 -0.28125 -1.40625q0 -0.828125 0.3125 -1.4375q0.3125 -0.609375 0.890625 -0.921875q0.578125 -0.3125 1.28125 -0.3125q0.78125 0 1.3125 0.40625q0.546875 0.390625 0.75 1.109375l-0.671875 0.171875q-0.1875 -0.578125 -0.53125 -0.828125q-0.34375 -0.265625 -0.875 -0.265625q-0.609375 0 -1.015625 0.296875q-0.40625 0.28125 -0.578125 0.765625q-0.15625 0.484375 -0.15625 1.0q0 0.671875 0.1875 1.171875q0.203125 0.5 0.609375 0.75q0.421875 0.25 0.890625 0.25q0.59375 0 1.0 -0.328125q0.40625 -0.34375 0.546875 -1.015625zm1.5108948 1.84375l0 -5.25l0.703125 0l0 2.609375l2.59375 -2.609375l0.953125 0l-2.203125 2.125l2.296875 3.125l-0.921875 0l-1.859375 -2.65625l-0.859375 0.84375l0 1.8125l-0.703125 0z" fill-rule="nonzero"/><path fill="#d9d9d9" d="m280.0 132.27821l0 0c0 -10.897835 8.954315 -19.732285 20.0 -19.732285l0 0c5.3043213 0 10.391418 2.0789337 14.142151 5.779457c3.750702 3.7005157 5.857849 8.719505 5.857849 13.952827l0 0c0 10.897842 -8.954315 19.732285 -20.0 19.732285l0 0c-11.045685 0 -20.0 -8.834442 -20.0 -19.732285z" fill-rule="evenodd"/><path stroke="#000000" stroke-width="1.0" stroke-linejoin="round" stroke-linecap="butt" d="m280.0 132.27821l0 0c0 -10.897835 8.954315 -19.732285 20.0 -19.732285l0 0c5.3043213 0 10.391418 2.0789337 14.142151 5.779457c3.750702 3.7005157 5.857849 8.719505 5.857849 13.952827l0 0c0 10.897842 -8.954315 19.732285 -20.0 19.732285l0 0c-11.045685 0 -20.0 -8.834442 -20.0 -19.732285z" fill-rule="evenodd"/><path fill="#000000" d="m289.9764 134.81822l0 -5.25l1.8125 0q0.609375 0 0.9375 0.078125q0.4375 0.109375 0.765625 0.375q0.40625 0.359375 0.609375 0.90625q0.21875 0.53125 0.21875 1.234375q0 0.609375 -0.140625 1.078125q-0.140625 0.453125 -0.359375 0.75q-0.21875 0.296875 -0.484375 0.484375q-0.25 0.171875 -0.625 0.265625q-0.359375 0.078125 -0.84375 0.078125l-1.890625 0zm0.703125 -0.625l1.109375 0q0.515625 0 0.8125 -0.09375q0.296875 -0.09375 0.484375 -0.265625q0.234375 -0.25 0.375 -0.65625q0.140625 -0.421875 0.140625 -1.015625q0 -0.828125 -0.28125 -1.265625q-0.265625 -0.453125 -0.640625 -0.59375q-0.28125 -0.109375 -0.90625 -0.109375l-1.09375 0l0 4.0zm4.385895 -1.9375q0 -1.296875 0.6875 -2.03125q0.703125 -0.75 1.8125 -0.75q0.734375 0 1.3125 0.359375q0.59375 0.34375 0.890625 0.96875q0.3125 0.609375 0.3125 1.40625q0 0.796875 -0.328125 1.421875q-0.3125 0.625 -0.90625 0.953125q-0.59375 0.328125 -1.28125 0.328125q-0.734375 0 -1.328125 -0.359375q-0.578125 -0.359375 -0.875 -0.96875q-0.296875 -0.625 -0.296875 -1.328125zm0.703125 0.015625q0 0.953125 0.515625 1.5q0.515625 0.546875 1.28125 0.546875q0.78125 0 1.28125 -0.546875q0.515625 -0.5625 0.515625 -1.578125q0 -0.640625 -0.21875 -1.109375q-0.21875 -0.484375 -0.640625 -0.734375q-0.40625 -0.265625 -0.921875 -0.265625q-0.75 0 -1.28125 0.5q-0.53125 0.5 -0.53125 1.6875zm5.2000732 2.546875l0 -5.25l0.703125 0l2.765625 4.125l0 -4.125l0.65625 0l0 5.25l-0.703125 0l-2.765625 -4.125l0 4.125l-0.65625 0zm5.30777 0l0 -5.25l3.796875 0l0 0.625l-3.09375 0l0 1.609375l2.890625 0l0 0.609375l-2.890625 0l0 1.78125l3.21875 0l0 0.625l-3.921875 0z" fill-rule="nonzero"/><path fill="#000000" fill-opacity="0.0" d="m204.0 80.0l0 32.314964" fill-rule="evenodd"/><path stroke="#000000" stroke-width="1.0" stroke-linejoin="round" stroke-linecap="butt" d="m204.0 80.0l0 26.314964" fill-rule="evenodd"/><path fill="#000000" stroke="#000000" stroke-width="1.0" stroke-linecap="butt" d="m202.34827 106.314964l1.6517334 4.5380936l1.6517334 -4.5380936z" fill-rule="evenodd"/><path fill="#000000" fill-opacity="0.0" d="m204.0 151.98425l0 32.97638" fill-rule="evenodd"/><path stroke="#000000" stroke-width="1.0" stroke-linejoin="round" stroke-linecap="butt" d="m204.0 151.98425l0 26.97638" fill-rule="evenodd"/><path fill="#000000" stroke="#000000" stroke-width="1.0" stroke-linecap="butt" d="m202.34827 178.96063l1.6517334 4.538101l1.6517334 -4.538101z" fill-rule="evenodd"/><path fill="#000000" fill-opacity="0.0" d="m204.0 223.98425l0 32.97638" fill-rule="evenodd"/><path stroke="#000000" stroke-width="1.0" stroke-linejoin="round" stroke-linecap="butt" d="m204.0 223.98425l0 26.97638" fill-rule="evenodd"/><path fill="#000000" stroke="#000000" stroke-width="1.0" stroke-linecap="butt" d="m202.34827 250.96063l1.6517334 4.538101l1.6517334 -4.538101z" fill-rule="evenodd"/><path fill="#000000" fill-opacity="0.0" d="m151.99213 276.55905c8.001923 0 12.003845 -54.06299 16.003845 -108.12598c4.0 -54.062996 7.9980774 -108.12599 15.996155 -108.12599" fill-rule="evenodd"/><path stroke="#000000" stroke-width="1.0" stroke-linejoin="round" stroke-linecap="butt" d="m151.99213 276.55905c8.001923 0 12.003845 -54.06299 16.003845 -108.12598c4.0 -54.062996 7.9980774 -108.12599 15.996155 -108.12599" fill-rule="evenodd"/><path fill="#000000" fill-opacity="0.0" d="m224.0 60.31496l56.0 0" fill-rule="evenodd"/><path stroke="#000000" stroke-width="1.0" stroke-linejoin="round" stroke-linecap="butt" d="m224.0 60.31496l50.0 0" fill-rule="evenodd"/><path fill="#000000" stroke="#000000" stroke-width="1.0" stroke-linecap="butt" d="m274.0 61.966694l4.538086 -1.6517334l-4.538086 -1.6517334z" fill-rule="evenodd"/><path fill="#000000" fill-opacity="0.0" d="m320.0 60.31496l54.992126 0" fill-rule="evenodd"/><path stroke="#000000" stroke-width="1.0" stroke-linejoin="round" stroke-linecap="butt" d="m320.0 60.31496l48.992126 0" fill-rule="evenodd"/><path fill="#000000" stroke="#000000" stroke-width="1.0" stroke-linecap="butt" d="m368.99213 61.966694l4.538086 -1.6517334l-4.538086 -1.6517334z" fill-rule="evenodd"/><path fill="#000000" fill-opacity="0.0" d="m375.0 132.22835l-54.992126 0.06298828" fill-rule="evenodd"/><path stroke="#000000" stroke-width="1.0" stroke-linejoin="round" stroke-linecap="butt" d="m375.0 132.22835l-48.992126 0.056121826" fill-rule="evenodd"/><path fill="#000000" stroke="#000000" stroke-width="1.0" stroke-linecap="butt" d="m326.00598 130.63274l-4.536194 1.6569214l4.539978 1.6465454z" fill-rule="evenodd"/><path fill="#000000" fill-opacity="0.0" d="m395.50394 80.0l0 32.409447" fill-rule="evenodd"/><path stroke="#000000" stroke-width="1.0" stroke-linejoin="round" stroke-linecap="butt" d="m395.50394 80.0l0 26.409447" fill-rule="evenodd"/><path fill="#000000" stroke="#000000" stroke-width="1.0" stroke-linecap="butt" d="m393.8522 106.40945l1.6517334 4.538101l1.6517334 -4.538101z" fill-rule="evenodd"/><path fill="#d9d9d9" d="m280.0 204.22572l0 0c0 -10.915237 8.954315 -19.763779 20.0 -19.763779l0 0c5.3043213 0 10.391418 2.0822449 14.142151 5.788681c3.750702 3.706421 5.857849 8.733414 5.857849 13.975098l0 0c0 10.915237 -8.954315 19.763779 -20.0 19.763779l0 0c-11.045685 0 -20.0 -8.848541 -20.0 -19.763779z" fill-rule="evenodd"/><path stroke="#000000" stroke-width="1.0" stroke-linejoin="round" stroke-linecap="butt" d="m280.0 204.22572l0 0c0 -10.915237 8.954315 -19.763779 20.0 -19.763779l0 0c5.3043213 0 10.391418 2.0822449 14.142151 5.788681c3.750702 3.706421 5.857849 8.733414 5.857849 13.975098l0 0c0 10.915237 -8.954315 19.763779 -20.0 19.763779l0 0c-11.045685 0 -20.0 -8.848541 -20.0 -19.763779z" fill-rule="evenodd"/><path fill="#000000" d="m293.76727 206.76572l0 -5.25l0.6875 0l0 5.25l-0.6875 0zm1.9109802 0l0 -5.25l0.703125 0l2.765625 4.125l0 -4.125l0.65625 0l0 5.25l-0.703125 0l-2.765625 -4.125l0 4.125l-0.65625 0zm5.417145 0l0 -5.25l0.6875 0l0 5.25l-0.6875 0zm3.2547607 0l0 -4.625l-1.734375 0l0 -0.625l4.15625 0l0 0.625l-1.734375 0l0 4.625l-0.6875 0z" fill-rule="nonzero"/><path fill="#d9d9d9" d="m375.0 276.10236l0 0c0 -10.984802 9.179932 -19.88977 20.503937 -19.88977l0 0c5.4379883 0 10.653229 2.0955505 14.498474 5.825592c3.8452454 3.7300415 6.0054626 8.789093 6.0054626 14.064178l0 0c0 10.984833 -9.179932 19.88977 -20.503937 19.88977l0 0c-11.324005 0 -20.503937 -8.904938 -20.503937 -19.88977z" fill-rule="evenodd"/><path stroke="#000000" stroke-width="1.0" stroke-linejoin="round" stroke-linecap="butt" d="m375.0 276.10236l0 0c0 -10.984802 9.179932 -19.88977 20.503937 -19.88977l0 0c5.4379883 0 10.653229 2.0955505 14.498474 5.825592c3.8452454 3.7300415 6.0054626 8.789093 6.0054626 14.064178l0 0c0 10.984833 -9.179932 19.88977 -20.503937 19.88977l0 0c-11.324005 0 -20.503937 -8.904938 -20.503937 -19.88977z" fill-rule="evenodd"/><path fill="#000000" d="m381.5775 278.64236l0 -5.25l0.703125 0l0 4.625l2.578125 0l0 0.625l-3.28125 0zm7.8568115 -1.84375l0.6875 0.1875q-0.21875 0.84375 -0.78125 1.296875q-0.5625 0.453125 -1.390625 0.453125q-0.84375 0 -1.375 -0.34375q-0.53125 -0.34375 -0.8125 -1.0q-0.28125 -0.65625 -0.28125 -1.40625q0 -0.828125 0.3125 -1.4375q0.3125 -0.609375 0.890625 -0.921875q0.578125 -0.3125 1.28125 -0.3125q0.78125 0 1.3125 0.40625q0.546875 0.390625 0.75 1.109375l-0.671875 0.171875q-0.1875 -0.578125 -0.53125 -0.828125q-0.34375 -0.265625 -0.875 -0.265625q-0.609375 0 -1.015625 0.296875q-0.40625 0.28125 -0.578125 0.765625q-0.15625 0.484375 -0.15625 1.0q0 0.671875 0.1875 1.171875q0.203125 0.5 0.609375 0.75q0.421875 0.25 0.890625 0.25q0.59375 0 1.0 -0.328125q0.40625 -0.34375 0.546875 -1.015625zm0.8702698 3.296875l0 -0.46875l4.265625 0l0 0.46875l-4.265625 0zm8.497437 -3.296875l0.6875 0.1875q-0.21875 0.84375 -0.78125 1.296875q-0.5625 0.453125 -1.390625 0.453125q-0.84375 0 -1.375 -0.34375q-0.53125 -0.34375 -0.8125 -1.0q-0.28125 -0.65625 -0.28125 -1.40625q0 -0.828125 0.3125 -1.4375q0.3125 -0.609375 0.890625 -0.921875q0.578125 -0.3125 1.28125 -0.3125q0.78125 0 1.3125 0.40625q0.546875 0.390625 0.75 1.109375l-0.671875 0.171875q-0.1875 -0.578125 -0.53125 -0.828125q-0.34375 -0.265625 -0.875 -0.265625q-0.609375 0 -1.015625 0.296875q-0.40625 0.28125 -0.578125 0.765625q-0.15625 0.484375 -0.15625 1.0q0 0.671875 0.1875 1.171875q0.203125 0.5 0.609375 0.75q0.421875 0.25 0.890625 0.25q0.59375 0 1.0 -0.328125q0.40625 -0.34375 0.546875 -1.015625zm1.5733948 1.84375l0 -5.25l0.6875 0l0 2.15625l2.71875 0l0 -2.15625l0.703125 0l0 5.25l-0.703125 0l0 -2.46875l-2.71875 0l0 2.46875l-0.6875 0zm5.229645 0l0 -5.25l0.703125 0l0 2.609375l2.59375 -2.609375l0.953125 0l-2.203125 2.125l2.296875 3.125l-0.921875 0l-1.859375 -2.65625l-0.859375 0.84375l0 1.8125l-0.703125 0z" fill-rule="nonzero"/><path fill="#d9d9d9" d="m280.0 276.18896l0 0c0 -10.941315 8.954315 -19.811005 20.0 -19.811005l0 0c5.3043213 0 10.391418 2.0872192 14.142151 5.8025208c3.750702 3.715271 5.857849 8.754272 5.857849 14.008484l0 0c0 10.941345 -8.954315 19.811035 -20.0 19.811035l0 0c-11.045685 0 -20.0 -8.86969 -20.0 -19.811035z" fill-rule="evenodd"/><path stroke="#000000" stroke-width="1.0" stroke-linejoin="round" stroke-linecap="butt" d="m280.0 276.18896l0 0c0 -10.941315 8.954315 -19.811005 20.0 -19.811005l0 0c5.3043213 0 10.391418 2.0872192 14.142151 5.8025208c3.750702 3.715271 5.857849 8.754272 5.857849 14.008484l0 0c0 10.941345 -8.954315 19.811035 -20.0 19.811035l0 0c-11.045685 0 -20.0 -8.86969 -20.0 -19.811035z" fill-rule="evenodd"/><path fill="#000000" d="m289.9764 278.72897l0 -5.25l1.8125 0q0.609375 0 0.9375 0.078125q0.4375 0.109375 0.765625 0.375q0.40625 0.359375 0.609375 0.90625q0.21875 0.53125 0.21875 1.234375q0 0.609375 -0.140625 1.078125q-0.140625 0.453125 -0.359375 0.75q-0.21875 0.296875 -0.484375 0.484375q-0.25 0.171875 -0.625 0.265625q-0.359375 0.078125 -0.84375 0.078125l-1.890625 0zm0.703125 -0.625l1.109375 0q0.515625 0 0.8125 -0.09375q0.296875 -0.09375 0.484375 -0.265625q0.234375 -0.25 0.375 -0.65625q0.140625 -0.421875 0.140625 -1.015625q0 -0.828125 -0.28125 -1.265625q-0.265625 -0.453125 -0.640625 -0.59375q-0.28125 -0.109375 -0.90625 -0.109375l-1.09375 0l0 4.0zm4.385895 -1.9375q0 -1.296875 0.6875 -2.03125q0.703125 -0.75 1.8125 -0.75q0.734375 0 1.3125 0.359375q0.59375 0.34375 0.890625 0.96875q0.3125 0.609375 0.3125 1.40625q0 0.796875 -0.328125 1.421875q-0.3125 0.625 -0.90625 0.953125q-0.59375 0.328125 -1.28125 0.328125q-0.734375 0 -1.328125 -0.359375q-0.578125 -0.359375 -0.875 -0.96875q-0.296875 -0.625 -0.296875 -1.328125zm0.703125 0.015625q0 0.953125 0.515625 1.5q0.515625 0.546875 1.28125 0.546875q0.78125 0 1.28125 -0.546875q0.515625 -0.5625 0.515625 -1.578125q0 -0.640625 -0.21875 -1.109375q-0.21875 -0.484375 -0.640625 -0.734375q-0.40625 -0.265625 -0.921875 -0.265625q-0.75 0 -1.28125 0.5q-0.53125 0.5 -0.53125 1.6875zm5.2000732 2.546875l0 -5.25l0.703125 0l2.765625 4.125l0 -4.125l0.65625 0l0 5.25l-0.703125 0l-2.765625 -4.125l0 4.125l-0.65625 0zm5.30777 0l0 -5.25l3.796875 0l0 0.625l-3.09375 0l0 1.609375l2.890625 0l0 0.609375l-2.890625 0l0 1.78125l3.21875 0l0 0.625l-3.921875 0z" fill-rule="nonzero"/><path fill="#000000" fill-opacity="0.0" d="m375.0 276.10236l-54.992126 0.09448242" fill-rule="evenodd"/><path stroke="#000000" stroke-width="1.0" stroke-linejoin="round" stroke-linecap="butt" d="m375.0 276.10236l-48.992126 0.08416748" fill-rule="evenodd"/><path fill="#000000" stroke="#000000" stroke-width="1.0" stroke-linecap="butt" d="m326.00504 274.53482l-4.535248 1.6595154l4.540924 1.6439209z" fill-rule="evenodd"/><path fill="#000000" fill-opacity="0.0" d="m224.0 132.14174c38.0 0 76.0 26.15747 76.0 52.314957" fill-rule="evenodd"/><path stroke="#000000" stroke-width="1.0" stroke-linejoin="round" stroke-linecap="butt" d="m224.0 132.14174c19.0 0 38.0 6.5393677 52.25 16.34842c7.125 4.9045258 13.0625 10.62648 17.21875 16.757141c2.078125 3.0653229 3.7109375 6.232834 4.8242188 9.451431c0.2783203 0.804657 0.5241699 1.6124725 0.73638916 2.4227295c0.10610962 0.40512085 0.20379639 0.8108368 0.29296875 1.217041l0.031951904 0.15304565" fill-rule="evenodd"/><path fill="#000000" stroke="#000000" stroke-width="1.0" stroke-linecap="butt" d="m297.71213 178.6693l2.1305542 4.3339844l1.153717 -4.689499z" fill-rule="evenodd"/><path fill="#000000" fill-opacity="0.0" d="m285.85785 262.18048c0 -18.14647 -16.929108 -21.792938 -33.858246 -36.29294c-16.929138 -14.5 -33.858276 -39.85353 -33.858276 -79.70708" fill-rule="evenodd"/><path stroke="#000000" stroke-width="1.0" stroke-linejoin="round" stroke-linecap="butt" d="m285.85785 262.18048c0 -18.146484 -16.929138 -21.792938 -33.85826 -36.29294c-8.464569 -7.25 -16.929138 -17.213364 -23.277557 -30.345963c-3.1742096 -6.566284 -5.819397 -13.924881 -7.6710205 -22.13272c-0.92581177 -4.103943 -1.6532288 -8.420197 -2.1491852 -12.955887c-0.2480011 -2.2678375 -0.4381256 -4.5905457 -0.56625366 -6.968994c-0.016021729 -0.29730225 -0.031051636 -0.5954895 -0.045135498 -0.8945465l-0.01789856 -0.4104004" fill-rule="evenodd"/><path fill="#000000" stroke="#000000" stroke-width="1.0" stroke-linecap="butt" d="m219.92387 152.14291l-1.7505798 -4.5009003l-1.5520935 4.5731354z" fill-rule="evenodd"/><path fill="#000000" fill-opacity="0.0" d="m285.85785 118.325386c0 -11.026268 -16.929108 -16.540726 -33.858246 -22.052536c-16.929138 -5.5118103 -33.858276 -11.020981 -33.858276 -22.041954" fill-rule="evenodd"/><path stroke="#000000" stroke-width="1.0" stroke-linejoin="round" stroke-linecap="butt" d="m285.85785 118.325386c0 -11.026268 -16.929138 -16.540726 -33.85826 -22.052536c-8.464569 -2.7559052 -16.929138 -5.511154 -23.277557 -8.95504c-3.1742096 -1.7219391 -5.819397 -3.6160507 -7.6710205 -5.768486c-0.23146057 -0.2690506 -0.4505005 -0.5421448 -0.65663147 -0.8194351c-0.10308838 -0.13864899 -0.20292664 -0.27835083 -0.29945374 -0.41911316c-0.04827881 -0.07039642 -0.095718384 -0.14104462 -0.14234924 -0.21196747l-0.07929993 -0.12332153" fill-rule="evenodd"/><path fill="#000000" stroke="#000000" stroke-width="1.0" stroke-linecap="butt" d="m221.4547 79.4987l-2.891388 -3.8681335l-0.27145386 4.821701z" fill-rule="evenodd"/><path fill="#000000" fill-opacity="0.0" d="m320.0 204.22572c37.748016 0 75.49606 26.0 75.49606 51.999985" fill-rule="evenodd"/><path stroke="#000000" stroke-width="1.0" stroke-linejoin="round" stroke-linecap="butt" d="m320.0 204.22572c18.874023 0 37.748016 6.5 51.903534 16.25c7.077759 4.875 12.975891 10.5625 17.104584 16.65625c2.0643616 3.046875 3.6863403 6.1953125 4.7922363 9.394516c0.27645874 0.7998047 0.5206909 1.6027985 0.73150635 2.4081573c0.105407715 0.40267944 0.20248413 0.80596924 0.29101562 1.209732l0.02432251 0.11653137" fill-rule="evenodd"/><path fill="#000000" stroke="#000000" stroke-width="1.0" stroke-linecap="butt" d="m393.20514 250.43954l2.1328125 4.332855l1.1512756 -4.6901093z" fill-rule="evenodd"/></g></svg>