<svg version="1.1" viewBox="0.0 0.0 714.0 320.0" fill="none" stroke="none" stroke-linecap="square" stroke-miterlimit="10" xmlns:xlink="http://www.w3.org/1999/xlink" xmlns="http://www.w3.org/2000/svg"><clipPath id="p.0"><path d="m0 0l714.0 0l0 320.0l-714.0 0l0 -320.0z" clip-rule="nonzero"/></clipPath><g clip-path="url(#p.0)"><path fill="#000000" fill-opacity="0.0" d="m0 0l714.0 0l0 320.0l-714.0 0z" fill-rule="evenodd"/><path fill="#ffffff" d="m112.040955 184.0l72.7874 0l0 128.0l-72.7874 0z" fill-rule="evenodd"/><path stroke="#000000" stroke-width="1.0" stroke-linejoin="round" stroke-linecap="butt" d="m112.040955 184.0l72.7874 0l0 128.0l-72.7874 0z" fill-rule="evenodd"/><path fill="#000000" d="m140.24768 245.9875q-1.015625 0.421875 -2.140625 0.421875q-1.796875 0 -2.765625 -1.078125q-0.96875 -1.078125 -0.96875 -3.1875q0 -1.03125 0.265625 -1.84375q0.265625 -0.828125 0.765625 -1.40625q0.5 -0.578125 1.203125 -0.890625q0.703125 -0.3125 1.578125 -0.3125q0.578125 0 1.078125 0.109375q0.515625 0.09375 0.984375 0.296875l0 1.140625q-0.453125 -0.25 -0.953125 -0.375q-0.484375 -0.140625 -1.078125 -0.140625q-0.59375 0 -1.078125 0.234375q-0.484375 0.21875 -0.828125 0.640625q-0.34375 0.421875 -0.53125 1.046875q-0.171875 0.609375 -0.171875 1.390625q0 1.65625 0.671875 2.5q0.671875 0.828125 1.96875 0.828125q0.546875 0 1.046875 -0.125q0.5 -0.125 0.953125 -0.34375l0 1.09375zm7.3434906 -1.984375q0 0.59375 -0.25 1.0625q-0.234375 0.453125 -0.6875 0.75q-0.4375 0.296875 -1.0625 0.453125q-0.625 0.140625 -1.359375 0.140625q-0.34375 0 -0.6875 -0.03125q-0.328125 -0.015625 -0.640625 -0.0625q-0.3125 -0.03125 -0.59375 -0.078125q-0.265625 -0.046875 -0.484375 -0.109375l0 -1.125q0.484375 0.1875 1.09375 0.296875q0.609375 0.09375 1.390625 0.09375q0.5625 0 0.953125 -0.078125q0.390625 -0.09375 0.640625 -0.265625q0.25 -0.171875 0.359375 -0.421875q0.125 -0.25 0.125 -0.5625q0 -0.34375 -0.203125 -0.59375q-0.1875 -0.25 -0.5 -0.4375q-0.3125 -0.1875 -0.71875 -0.34375q-0.390625 -0.171875 -0.8125 -0.328125q-0.40625 -0.171875 -0.8125 -0.375q-0.40625 -0.203125 -0.71875 -0.46875q-0.3125 -0.265625 -0.5 -0.625q-0.1875 -0.375 -0.1875 -0.875q0 -0.4375 0.171875 -0.859375q0.1875 -0.421875 0.5625 -0.75q0.390625 -0.328125 0.984375 -0.53125q0.609375 -0.203125 1.453125 -0.203125q0.203125 0 0.453125 0.03125q0.265625 0.015625 0.515625 0.046875q0.25 0.03125 0.5 0.078125q0.265625 0.046875 0.46875 0.09375l0 1.046875q-0.5 -0.140625 -1.0 -0.21875q-0.5 -0.078125 -0.96875 -0.078125q-1.0 0 -1.46875 0.34375q-0.46875 0.328125 -0.46875 0.890625q0 0.34375 0.1875 0.59375q0.203125 0.234375 0.515625 0.4375q0.3125 0.1875 0.703125 0.359375q0.40625 0.15625 0.8125 0.328125q0.421875 0.15625 0.828125 0.359375q0.40625 0.203125 0.71875 0.484375q0.3125 0.28125 0.5 0.65625q0.1875 0.359375 0.1875 0.875zm7.6872406 2.296875l-1.3125 0l-1.265625 -2.71875q-0.140625 -0.3125 -0.296875 -0.515625q-0.15625 -0.203125 -0.328125 -0.328125q-0.171875 -0.125 -0.375 -0.171875q-0.203125 -0.046875 -0.453125 -0.046875l-0.546875 0l0 3.78125l-1.15625 0l0 -8.5l2.28125 0q0.734375 0 1.265625 0.15625q0.53125 0.15625 0.875 0.453125q0.34375 0.296875 0.5 0.71875q0.171875 0.40625 0.171875 0.90625q0 0.390625 -0.125 0.75q-0.109375 0.359375 -0.34375 0.65625q-0.234375 0.28125 -0.578125 0.5q-0.34375 0.203125 -0.78125 0.3125q0.359375 0.109375 0.609375 0.421875q0.25 0.3125 0.515625 0.828125l1.34375 2.796875zm-1.859375 -6.171875q0 -0.6875 -0.4375 -1.015625q-0.421875 -0.34375 -1.1875 -0.34375l-1.09375 0l0 2.8125l0.9375 0q0.40625 0 0.734375 -0.09375q0.328125 -0.09375 0.5625 -0.28125q0.234375 -0.1875 0.359375 -0.453125q0.125 -0.265625 0.125 -0.625zm8.562241 4.390625q0 0.34375 -0.125 0.625q-0.109375 0.265625 -0.3125 0.484375q-0.203125 0.203125 -0.46875 0.359375q-0.265625 0.140625 -0.578125 0.25q-0.296875 0.09375 -0.625 0.125q-0.3125 0.046875 -0.609375 0.046875q-0.671875 0 -1.234375 -0.0625q-0.546875 -0.046875 -1.078125 -0.171875l0 -1.046875q0.5625 0.15625 1.125 0.25q0.578125 0.078125 1.140625 0.078125q0.8125 0 1.203125 -0.21875q0.390625 -0.21875 0.390625 -0.625q0 -0.1875 -0.0625 -0.3125q-0.0625 -0.140625 -0.234375 -0.265625q-0.15625 -0.140625 -0.5 -0.265625q-0.34375 -0.140625 -0.9375 -0.3125q-0.4375 -0.140625 -0.8125 -0.296875q-0.375 -0.171875 -0.65625 -0.390625q-0.265625 -0.234375 -0.421875 -0.53125q-0.15625 -0.3125 -0.15625 -0.734375q0 -0.265625 0.125 -0.59375q0.125 -0.328125 0.4375 -0.609375q0.3125 -0.28125 0.828125 -0.46875q0.515625 -0.1875 1.296875 -0.1875q0.390625 0 0.859375 0.046875q0.46875 0.046875 0.96875 0.140625l0 1.015625q-0.53125 -0.125 -1.015625 -0.1875q-0.46875 -0.0625 -0.828125 -0.0625q-0.421875 0 -0.71875 0.0625q-0.28125 0.0625 -0.46875 0.1875q-0.171875 0.109375 -0.25 0.265625q-0.078125 0.140625 -0.078125 0.3125q0 0.1875 0.0625 0.328125q0.078125 0.140625 0.265625 0.28125q0.1875 0.125 0.515625 0.265625q0.328125 0.125 0.859375 0.28125q0.59375 0.171875 0.984375 0.359375q0.390625 0.1875 0.640625 0.421875q0.25 0.21875 0.359375 0.515625q0.109375 0.28125 0.109375 0.640625z" fill-rule="nonzero"/><path fill="#000000" d="m126.02293 261.9275q-2.390625 -2.21875 -2.390625 -4.90625q0 -0.640625 0.125 -1.265625q0.125 -0.625 0.40625 -1.25q0.296875 -0.640625 0.75 -1.265625q0.46875 -0.625 1.140625 -1.25l0.515625 0.53125q-2.015625 2.0 -2.015625 4.421875q0 1.203125 0.5 2.328125q0.515625 1.109375 1.515625 2.09375l-0.546875 0.5625zm2.9526138 -7.40625l0.828125 0l0.03125 0.953125q0.453125 -0.546875 0.90625 -0.796875q0.453125 -0.25 0.90625 -0.25q0.8125 0 1.234375 0.53125q0.421875 0.515625 0.390625 1.546875l-0.921875 0q0.015625 -0.6875 -0.203125 -0.984375q-0.21875 -0.3125 -0.625 -0.3125q-0.1875 0 -0.375 0.0625q-0.1875 0.0625 -0.375 0.203125q-0.1875 0.140625 -0.40625 0.375q-0.21875 0.21875 -0.46875 0.53125l0 3.359375l-0.921875 0l0 -5.21875zm10.061981 2.328125q0 0.203125 -0.015625 0.328125q0 0.125 -0.015625 0.234375l-3.65625 0q0 0.8125 0.4375 1.25q0.453125 0.421875 1.296875 0.421875q0.21875 0 0.453125 -0.015625q0.234375 -0.03125 0.4375 -0.0625q0.21875 -0.03125 0.40625 -0.0625q0.203125 -0.046875 0.375 -0.09375l0 0.75q-0.375 0.109375 -0.84375 0.171875q-0.46875 0.0625 -0.96875 0.0625q-0.65625 0 -1.140625 -0.171875q-0.484375 -0.1875 -0.796875 -0.53125q-0.3125 -0.359375 -0.46875 -0.859375q-0.140625 -0.5 -0.140625 -1.140625q0 -0.546875 0.15625 -1.03125q0.15625 -0.5 0.453125 -0.859375q0.3125 -0.375 0.75 -0.59375q0.453125 -0.21875 1.015625 -0.21875q0.546875 0 0.96875 0.171875q0.421875 0.171875 0.703125 0.484375q0.296875 0.3125 0.4375 0.765625q0.15625 0.453125 0.15625 1.0zm-0.953125 -0.125q0.015625 -0.34375 -0.0625 -0.625q-0.078125 -0.296875 -0.265625 -0.5q-0.171875 -0.21875 -0.4375 -0.328125q-0.25 -0.125 -0.59375 -0.125q-0.296875 0 -0.546875 0.125q-0.234375 0.109375 -0.421875 0.3125q-0.171875 0.203125 -0.28125 0.5q-0.109375 0.296875 -0.125 0.640625l2.734375 0zm6.155731 -1.46875q0.140625 0.1875 0.21875 0.4375q0.09375 0.234375 0.09375 0.515625q0 0.40625 -0.15625 0.734375q-0.140625 0.328125 -0.421875 0.578125q-0.265625 0.234375 -0.640625 0.375q-0.375 0.125 -0.828125 0.125q-0.328125 0 -0.625 -0.0625q-0.28125 -0.078125 -0.4375 -0.1875q-0.109375 0.15625 -0.171875 0.28125q-0.0625 0.125 -0.0625 0.296875q0 0.1875 0.1875 0.328125q0.1875 0.125 0.5 0.140625l1.375 0.046875q0.390625 0.015625 0.71875 0.109375q0.328125 0.078125 0.5625 0.25q0.234375 0.15625 0.359375 0.40625q0.140625 0.25 0.140625 0.5625q0 0.359375 -0.15625 0.671875q-0.140625 0.3125 -0.453125 0.546875q-0.3125 0.234375 -0.796875 0.375q-0.484375 0.140625 -1.15625 0.140625q-0.625 0 -1.078125 -0.109375q-0.4375 -0.09375 -0.734375 -0.28125q-0.28125 -0.171875 -0.421875 -0.421875q-0.125 -0.25 -0.125 -0.546875q0 -0.375 0.171875 -0.671875q0.1875 -0.28125 0.5625 -0.546875q-0.140625 -0.0625 -0.25 -0.15625q-0.09375 -0.09375 -0.15625 -0.203125q-0.0625 -0.109375 -0.09375 -0.234375q-0.03125 -0.125 -0.03125 -0.25q0 -0.328125 0.15625 -0.609375q0.171875 -0.28125 0.390625 -0.53125q-0.109375 -0.125 -0.1875 -0.234375q-0.0625 -0.109375 -0.125 -0.234375q-0.046875 -0.140625 -0.078125 -0.296875q-0.03125 -0.15625 -0.03125 -0.359375q0 -0.40625 0.140625 -0.734375q0.15625 -0.34375 0.421875 -0.578125q0.265625 -0.234375 0.640625 -0.359375q0.390625 -0.140625 0.84375 -0.140625q0.1875 0 0.359375 0.03125q0.1875 0.015625 0.3125 0.0625l1.90625 0l0 0.734375l-0.84375 0zm-3.140625 5.234375q0 0.375 0.375 0.546875q0.390625 0.171875 1.078125 0.171875q0.4375 0 0.71875 -0.078125q0.296875 -0.078125 0.46875 -0.21875q0.1875 -0.125 0.265625 -0.296875q0.078125 -0.15625 0.078125 -0.328125q0 -0.3125 -0.265625 -0.46875q-0.25 -0.140625 -0.78125 -0.171875l-1.359375 -0.046875q-0.171875 0.109375 -0.296875 0.21875q-0.109375 0.109375 -0.171875 0.21875q-0.0625 0.125 -0.09375 0.234375q-0.015625 0.109375 -0.015625 0.21875zm0.28125 -4.265625q0 0.25 0.078125 0.46875q0.078125 0.203125 0.234375 0.34375q0.15625 0.140625 0.359375 0.21875q0.203125 0.078125 0.453125 0.078125q0.265625 0 0.46875 -0.078125q0.21875 -0.09375 0.359375 -0.25q0.140625 -0.15625 0.21875 -0.359375q0.078125 -0.203125 0.078125 -0.421875q0 -0.25 -0.09375 -0.453125q-0.078125 -0.21875 -0.234375 -0.359375q-0.140625 -0.140625 -0.34375 -0.21875q-0.203125 -0.09375 -0.453125 -0.09375q-0.265625 0 -0.484375 0.09375q-0.203125 0.09375 -0.359375 0.25q-0.140625 0.15625 -0.21875 0.359375q-0.0625 0.203125 -0.0625 0.421875zm15.030212 3.4375q-0.3125 0.078125 -0.640625 0.109375q-0.328125 0.046875 -0.671875 0.046875q-0.984375 0 -1.46875 -0.4375q-0.46875 -0.453125 -0.46875 -1.375l0 -2.734375l-1.46875 0l0 -0.75l1.46875 0l0 -1.4375l0.890625 -0.234375l0 1.671875l2.359375 0l0 0.75l-2.359375 0l0 2.65625q0 0.5625 0.296875 0.84375q0.3125 0.28125 0.890625 0.28125q0.25 0 0.546875 -0.03125q0.296875 -0.046875 0.625 -0.140625l0 0.78125zm6.186981 -2.578125q0 0.609375 -0.171875 1.125q-0.171875 0.5 -0.5 0.859375q-0.3125 0.359375 -0.78125 0.5625q-0.453125 0.203125 -1.046875 0.203125q-0.5625 0 -1.015625 -0.171875q-0.4375 -0.171875 -0.75 -0.515625q-0.296875 -0.34375 -0.46875 -0.84375q-0.15625 -0.5 -0.15625 -1.140625q0 -0.609375 0.171875 -1.109375q0.171875 -0.5 0.484375 -0.859375q0.328125 -0.375 0.78125 -0.5625q0.46875 -0.203125 1.0625 -0.203125q0.5625 0 1.0 0.171875q0.453125 0.171875 0.75 0.515625q0.3125 0.328125 0.46875 0.828125q0.171875 0.5 0.171875 1.140625zm-0.921875 0.046875q0 -0.484375 -0.109375 -0.84375q-0.109375 -0.359375 -0.3125 -0.59375q-0.1875 -0.25 -0.46875 -0.375q-0.28125 -0.125 -0.640625 -0.125q-0.390625 0 -0.6875 0.15625q-0.28125 0.15625 -0.46875 0.421875q-0.1875 0.265625 -0.28125 0.625q-0.078125 0.34375 -0.078125 0.734375q0 0.484375 0.109375 0.84375q0.109375 0.359375 0.296875 0.609375q0.203125 0.234375 0.484375 0.359375q0.28125 0.125 0.625 0.125q0.40625 0 0.6875 -0.15625q0.296875 -0.15625 0.484375 -0.421875q0.1875 -0.265625 0.265625 -0.609375q0.09375 -0.359375 0.09375 -0.75zm6.702606 -0.09375q0 0.6875 -0.203125 1.21875q-0.1875 0.515625 -0.53125 0.859375q-0.34375 0.34375 -0.8125 0.515625q-0.46875 0.171875 -1.015625 0.171875q-0.25 0 -0.5 -0.03125q-0.234375 -0.015625 -0.5 -0.078125l0 2.1875l-0.90625 0l0 -7.359375l0.8125 0l0.0625 0.875q0.390625 -0.546875 0.828125 -0.75q0.4375 -0.21875 0.953125 -0.21875q0.453125 0 0.78125 0.1875q0.34375 0.1875 0.5625 0.53125q0.234375 0.328125 0.34375 0.8125q0.125 0.484375 0.125 1.078125zm-0.921875 0.03125q0 -0.40625 -0.0625 -0.75q-0.0625 -0.34375 -0.203125 -0.578125q-0.125 -0.25 -0.328125 -0.390625q-0.203125 -0.140625 -0.484375 -0.140625q-0.171875 0 -0.34375 0.0625q-0.171875 0.046875 -0.359375 0.1875q-0.1875 0.125 -0.40625 0.34375q-0.203125 0.203125 -0.453125 0.515625l0 2.53125q0.25 0.09375 0.53125 0.15625q0.28125 0.0625 0.53125 0.0625q0.734375 0 1.15625 -0.5q0.421875 -0.5 0.421875 -1.5zm3.3901062 -5.078125q2.390625 2.21875 2.390625 4.953125q0 0.546875 -0.125 1.15625q-0.109375 0.609375 -0.390625 1.25q-0.265625 0.625 -0.734375 1.265625q-0.453125 0.65625 -1.171875 1.3125l-0.515625 -0.53125q1.015625 -1.015625 1.5 -2.109375q0.5 -1.09375 0.5 -2.28125q0 -2.484375 -2.0 -4.453125l0.546875 -0.5625z" fill-rule="nonzero"/><path fill="#ffffff" d="m240.0 8.001251l160.0 0l0 123.93701l-160.0 0z" fill-rule="evenodd"/><path stroke="#000000" stroke-width="1.0" stroke-linejoin="round" stroke-linecap="butt" d="m240.0 8.001251l160.0 0l0 123.93701l-160.0 0z" fill-rule="evenodd"/><path fill="#000000" d="m275.31433 29.80125l-1.15625 0l0 -3.90625l-3.578125 0l0 3.90625l-1.15625 0l0 -8.5l1.15625 0l0 3.59375l3.578125 0l0 -3.59375l1.15625 0l0 8.5zm5.9528503 0l-0.015625 -0.875q-0.546875 0.53125 -1.09375 0.765625q-0.546875 0.21875 -1.15625 0.21875q-0.546875 0 -0.953125 -0.140625q-0.390625 -0.140625 -0.65625 -0.390625q-0.25 -0.25 -0.375 -0.578125q-0.125 -0.34375 -0.125 -0.75q0 -0.984375 0.734375 -1.53125q0.734375 -0.5625 2.171875 -0.5625l1.34375 0l0 -0.5625q0 -0.578125 -0.375 -0.921875q-0.359375 -0.359375 -1.125 -0.359375q-0.546875 0 -1.09375 0.125q-0.53125 0.125 -1.109375 0.34375l0 -1.015625q0.21875 -0.078125 0.484375 -0.15625q0.265625 -0.078125 0.546875 -0.125q0.296875 -0.0625 0.609375 -0.09375q0.328125 -0.046875 0.65625 -0.046875q0.59375 0 1.0625 0.140625q0.484375 0.125 0.8125 0.390625q0.328125 0.265625 0.5 0.671875q0.171875 0.40625 0.171875 0.953125l0 4.5l-1.015625 0zm-0.125 -2.96875l-1.4375 0q-0.421875 0 -0.734375 0.078125q-0.296875 0.078125 -0.5 0.234375q-0.1875 0.15625 -0.28125 0.375q-0.09375 0.21875 -0.09375 0.5q0 0.1875 0.0625 0.359375q0.0625 0.171875 0.1875 0.3125q0.125 0.125 0.328125 0.203125q0.21875 0.078125 0.515625 0.078125q0.390625 0 0.890625 -0.234375q0.515625 -0.234375 1.0625 -0.75l0 -1.15625zm3.5309753 -3.5625l1.03125 0l0.03125 1.203125q0.578125 -0.703125 1.140625 -1.015625q0.5625 -0.3125 1.140625 -0.3125q1.015625 0 1.53125 0.65625q0.53125 0.65625 0.484375 1.953125l-1.140625 0q0.015625 -0.859375 -0.25 -1.234375q-0.265625 -0.390625 -0.796875 -0.390625q-0.21875 0 -0.453125 0.078125q-0.234375 0.078125 -0.484375 0.265625q-0.234375 0.171875 -0.515625 0.453125q-0.265625 0.28125 -0.578125 0.671875l0 4.203125l-1.140625 0l0 -6.53125zm6.718506 3.40625q0 -0.84375 0.234375 -1.484375q0.234375 -0.65625 0.640625 -1.09375q0.421875 -0.453125 1.015625 -0.671875q0.59375 -0.234375 1.3125 -0.234375q0.3125 0 0.609375 0.046875q0.3125 0.03125 0.59375 0.109375l0 -2.75l1.140625 0l0 9.203125l-1.015625 0l-0.03125 -1.234375q-0.484375 0.6875 -1.03125 1.015625q-0.546875 0.328125 -1.203125 0.328125q-0.546875 0 -0.984375 -0.21875q-0.421875 -0.234375 -0.703125 -0.65625q-0.28125 -0.4375 -0.4375 -1.03125q-0.140625 -0.609375 -0.140625 -1.328125zm1.171875 -0.078125q0 1.1875 0.34375 1.765625q0.34375 0.578125 0.984375 0.578125q0.421875 0 0.90625 -0.375q0.484375 -0.390625 1.0 -1.140625l0 -3.03125q-0.28125 -0.125 -0.625 -0.1875q-0.328125 -0.078125 -0.65625 -0.078125q-0.921875 0 -1.4375 0.59375q-0.515625 0.59375 -0.515625 1.875zm12.546631 -3.328125l-0.953125 6.53125l-1.375 0l-0.9375 -2.734375l-0.1875 -0.65625l-0.21875 0.703125l-0.90625 2.6875l-1.328125 0l-0.953125 -6.53125l1.109375 0l0.546875 4.4375l0.125 0.984375l0.28125 -0.859375l0.9375 -2.9375l0.8125 0l1.03125 2.890625l0.296875 0.875l0.09375 -0.921875l0.5 -4.46875l1.125 0zm5.4684753 6.53125l-0.015625 -0.875q-0.546875 0.53125 -1.09375 0.765625q-0.546875 0.21875 -1.15625 0.21875q-0.546875 0 -0.953125 -0.140625q-0.390625 -0.140625 -0.65625 -0.390625q-0.25 -0.25 -0.375 -0.578125q-0.125 -0.34375 -0.125 -0.75q0 -0.984375 0.734375 -1.53125q0.734375 -0.5625 2.171875 -0.5625l1.34375 0l0 -0.5625q0 -0.578125 -0.375 -0.921875q-0.359375 -0.359375 -1.125 -0.359375q-0.546875 0 -1.09375 0.125q-0.53125 0.125 -1.109375 0.34375l0 -1.015625q0.21875 -0.078125 0.484375 -0.15625q0.265625 -0.078125 0.546875 -0.125q0.296875 -0.0625 0.609375 -0.09375q0.328125 -0.046875 0.65625 -0.046875q0.59375 0 1.0625 0.140625q0.484375 0.125 0.8125 0.390625q0.328125 0.265625 0.5 0.671875q0.171875 0.40625 0.171875 0.953125l0 4.5l-1.015625 0zm-0.125 -2.96875l-1.4375 0q-0.421875 0 -0.734375 0.078125q-0.296875 0.078125 -0.5 0.234375q-0.1875 0.15625 -0.28125 0.375q-0.09375 0.21875 -0.09375 0.5q0 0.1875 0.0625 0.359375q0.0625 0.171875 0.1875 0.3125q0.125 0.125 0.328125 0.203125q0.21875 0.078125 0.515625 0.078125q0.390625 0 0.890625 -0.234375q0.515625 -0.234375 1.0625 -0.75l0 -1.15625zm3.5309753 -3.5625l1.03125 0l0.03125 1.203125q0.578125 -0.703125 1.140625 -1.015625q0.5625 -0.3125 1.140625 -0.3125q1.015625 0 1.53125 0.65625q0.53125 0.65625 0.484375 1.953125l-1.140625 0q0.015625 -0.859375 -0.25 -1.234375q-0.265625 -0.390625 -0.796875 -0.390625q-0.21875 0 -0.453125 0.078125q-0.234375 0.078125 -0.484375 0.265625q-0.234375 0.171875 -0.515625 0.453125q-0.265625 0.28125 -0.578125 0.671875l0 4.203125l-1.140625 0l0 -6.53125zm12.577881 2.921875q0 0.234375 -0.015625 0.40625q0 0.15625 -0.015625 0.296875l-4.578125 0q0 1.0 0.546875 1.546875q0.5625 0.53125 1.625 0.53125q0.28125 0 0.5625 -0.015625q0.296875 -0.03125 0.5625 -0.0625q0.265625 -0.046875 0.5 -0.09375q0.25 -0.046875 0.453125 -0.109375l0 0.9375q-0.453125 0.125 -1.046875 0.203125q-0.578125 0.078125 -1.203125 0.078125q-0.828125 0 -1.4375 -0.21875q-0.609375 -0.234375 -1.0 -0.65625q-0.390625 -0.4375 -0.578125 -1.0625q-0.171875 -0.625 -0.171875 -1.421875q0 -0.6875 0.1875 -1.296875q0.203125 -0.625 0.578125 -1.09375q0.390625 -0.46875 0.9375 -0.734375q0.5625 -0.28125 1.265625 -0.28125q0.671875 0 1.203125 0.21875q0.53125 0.21875 0.890625 0.609375q0.359375 0.390625 0.546875 0.953125q0.1875 0.5625 0.1875 1.265625zm-1.1875 -0.171875q0.03125 -0.421875 -0.078125 -0.78125q-0.109375 -0.375 -0.328125 -0.625q-0.21875 -0.265625 -0.546875 -0.40625q-0.3125 -0.15625 -0.75 -0.15625q-0.359375 0 -0.671875 0.15625q-0.3125 0.140625 -0.53125 0.40625q-0.21875 0.25 -0.359375 0.625q-0.125 0.359375 -0.15625 0.78125l3.421875 0zm16.296356 3.78125l-1.140625 0l-0.171875 -5.296875l-0.0625 -2.046875l-0.40625 1.1875l-1.25 3.390625l-0.796875 0l-1.203125 -3.265625l-0.390625 -1.3125l-0.03125 2.125l-0.15625 5.21875l-1.09375 0l0.421875 -8.5l1.375 0l1.140625 3.203125l0.375 1.078125l0.359375 -1.078125l1.203125 -3.203125l1.40625 0l0.421875 8.5zm6.6091003 0l-1.015625 0l-0.046875 -1.046875q-0.28125 0.328125 -0.546875 0.5625q-0.265625 0.21875 -0.53125 0.359375q-0.265625 0.125 -0.53125 0.171875q-0.25 0.0625 -0.546875 0.0625q-1.015625 0 -1.53125 -0.578125q-0.5 -0.59375 -0.5 -1.796875l0 -4.265625l1.125 0l0 4.171875q0 1.5 1.140625 1.5q0.203125 0 0.390625 -0.046875q0.203125 -0.0625 0.421875 -0.21875q0.21875 -0.15625 0.46875 -0.40625q0.25 -0.265625 0.5625 -0.671875l0 -4.328125l1.140625 0l0 6.53125zm7.343506 -0.09375q-0.390625 0.09375 -0.796875 0.140625q-0.40625 0.046875 -0.84375 0.046875q-1.21875 0 -1.828125 -0.546875q-0.609375 -0.5625 -0.609375 -1.71875l0 -3.40625l-1.828125 0l0 -0.953125l1.828125 0l0 -1.796875l1.140625 -0.296875l0 2.09375l2.9375 0l0 0.953125l-2.9375 0l0 3.3125q0 0.703125 0.375 1.0625q0.375 0.34375 1.09375 0.34375q0.3125 0 0.6875 -0.046875q0.375 -0.0625 0.78125 -0.15625l0 0.96875zm7.577881 -3.515625q0 0.234375 -0.015625 0.40625q0 0.15625 -0.015625 0.296875l-4.578125 0q0 1.0 0.546875 1.546875q0.5625 0.53125 1.625 0.53125q0.28125 0 0.5625 -0.015625q0.296875 -0.03125 0.5625 -0.0625q0.265625 -0.046875 0.5 -0.09375q0.25 -0.046875 0.453125 -0.109375l0 0.9375q-0.453125 0.125 -1.046875 0.203125q-0.578125 0.078125 -1.203125 0.078125q-0.828125 0 -1.4375 -0.21875q-0.609375 -0.234375 -1.0 -0.65625q-0.390625 -0.4375 -0.578125 -1.0625q-0.171875 -0.625 -0.171875 -1.421875q0 -0.6875 0.1875 -1.296875q0.203125 -0.625 0.578125 -1.09375q0.390625 -0.46875 0.9375 -0.734375q0.5625 -0.28125 1.265625 -0.28125q0.671875 0 1.203125 0.21875q0.53125 0.21875 0.890625 0.609375q0.359375 0.390625 0.546875 0.953125q0.1875 0.5625 0.1875 1.265625zm-1.1875 -0.171875q0.03125 -0.421875 -0.078125 -0.78125q-0.109375 -0.375 -0.328125 -0.625q-0.21875 -0.265625 -0.546875 -0.40625q-0.3125 -0.15625 -0.75 -0.15625q-0.359375 0 -0.671875 0.15625q-0.3125 0.140625 -0.53125 0.40625q-0.21875 0.25 -0.359375 0.625q-0.125 0.359375 -0.15625 0.78125l3.421875 0zm8.89035 3.78125l-1.515625 0l-1.765625 -2.5l-1.734375 2.5l-1.46875 0l2.53125 -3.28125l-2.40625 -3.25l1.453125 0l1.703125 2.515625l1.6875 -2.515625l1.40625 0l-2.453125 3.28125l2.5625 3.25z" fill-rule="nonzero"/><path fill="#ffffff" d="m112.0 8.0l72.7874 0l0 123.93701l-72.7874 0z" fill-rule="evenodd"/><path stroke="#000000" stroke-width="1.0" stroke-linejoin="round" stroke-linecap="butt" d="m112.0 8.0l72.7874 0l0 123.93701l-72.7874 0z" fill-rule="evenodd"/><path fill="#000000" d="m144.16753 59.252876l-2.515625 0l0 7.515625l-1.171875 0l0 -7.515625l-2.515625 0l0 -0.984375l6.203125 0l0 0.984375zm7.8278656 7.515625l-1.265625 0l-0.59375 -1.859375l-3.53125 0l-0.609375 1.859375l-1.203125 0l2.828125 -8.5l1.59375 0l2.78125 8.5zm-2.1875 -2.890625l-1.4375 -4.546875l-1.4375 4.546875l2.875 0zm8.859116 -3.015625q0 0.53125 -0.203125 1.046875q-0.1875 0.5 -0.59375 0.90625q-0.40625 0.40625 -1.046875 0.65625q-0.640625 0.25 -1.53125 0.25l-1.046875 0l0 3.046875l-1.15625 0l0 -8.5l2.390625 0q0.625 0 1.203125 0.140625q0.59375 0.140625 1.03125 0.453125q0.4375 0.3125 0.6875 0.8125q0.265625 0.484375 0.265625 1.1875zm-1.203125 0.0625q0 -0.828125 -0.546875 -1.265625q-0.53125 -0.4375 -1.484375 -0.4375l-1.1875 0l0 3.5l1.078125 0q1.03125 0 1.578125 -0.4375q0.5625 -0.453125 0.5625 -1.359375z" fill-rule="nonzero"/><path fill="#000000" d="m144.14395 75.23725l-1.9531097 0l0 -0.96875l5.0781097 0l0 0.96875l-1.953125 0l0 6.546875l1.953125 0l0 0.984375l-5.0781097 0l0 -0.984375l1.9531097 0l0 -6.546875zm10.374756 0.015625l-3.609375 0l0 2.765625l3.421875 0l0 0.96875l-3.421875 0l0 3.78125l-1.1875 0l0 -8.5l4.796875 0l0 0.984375z" fill-rule="nonzero"/><path fill="#ffffff" d="m448.8189 8.0l159.18109 0l0 304.0l-159.18109 0z" fill-rule="evenodd"/><path stroke="#000000" stroke-width="1.0" stroke-linejoin="round" stroke-linecap="butt" d="m448.8189 8.0l159.18109 0l0 304.0l-159.18109 0z" fill-rule="evenodd"/><path fill="#000000" d="m472.96634 299.8l-1.3125 0l-1.265625 -2.71875q-0.140625 -0.3125 -0.296875 -0.515625q-0.15625 -0.203125 -0.328125 -0.328125q-0.171875 -0.125 -0.375 -0.171875q-0.203125 -0.046875 -0.453125 -0.046875l-0.546875 0l0 3.78125l-1.15625 0l0 -8.5l2.28125 0q0.734375 0 1.265625 0.15625q0.53125 0.15625 0.875 0.453125q0.34375 0.296875 0.5 0.71875q0.171875 0.40625 0.171875 0.90625q0 0.390625 -0.125 0.75q-0.109375 0.359375 -0.34375 0.65625q-0.234375 0.28125 -0.578125 0.5q-0.34375 0.203125 -0.78125 0.3125q0.359375 0.109375 0.609375 0.421875q0.25 0.3125 0.515625 0.828125l1.34375 2.796875zm-1.859375 -6.171875q0 -0.6875 -0.4375 -1.015625q-0.421875 -0.34375 -1.1875 -0.34375l-1.09375 0l0 2.8125l0.9375 0q0.40625 0 0.734375 -0.09375q0.328125 -0.09375 0.5625 -0.28125q0.234375 -0.1875 0.359375 -0.453125q0.125 -0.265625 0.125 -0.625zm8.906006 2.5625q0 0.234375 -0.015625 0.40625q0 0.15625 -0.015625 0.296875l-4.578125 0q0 1.0 0.546875 1.546875q0.5625 0.53125 1.625 0.53125q0.28125 0 0.5625 -0.015625q0.296875 -0.03125 0.5625 -0.0625q0.265625 -0.046875 0.5 -0.09375q0.25 -0.046875 0.453125 -0.109375l0 0.9375q-0.453125 0.125 -1.046875 0.203125q-0.578125 0.078125 -1.203125 0.078125q-0.828125 0 -1.4375 -0.21875q-0.609375 -0.234375 -1.0 -0.65625q-0.390625 -0.4375 -0.578125 -1.0625q-0.171875 -0.625 -0.171875 -1.421875q0 -0.6875 0.1875 -1.296875q0.203125 -0.625 0.578125 -1.09375q0.390625 -0.46875 0.9375 -0.734375q0.5625 -0.28125 1.265625 -0.28125q0.671875 0 1.203125 0.21875q0.53125 0.21875 0.890625 0.609375q0.359375 0.390625 0.546875 0.953125q0.1875 0.5625 0.1875 1.265625zm-1.1875 -0.171875q0.03125 -0.421875 -0.078125 -0.78125q-0.109375 -0.375 -0.328125 -0.625q-0.21875 -0.265625 -0.546875 -0.40625q-0.3125 -0.15625 -0.75 -0.15625q-0.359375 0 -0.671875 0.15625q-0.3125 0.140625 -0.53125 0.40625q-0.21875 0.25 -0.359375 0.625q-0.125 0.359375 -0.15625 0.78125l3.421875 0zm2.6559753 0.65625q0 -0.703125 0.1875 -1.328125q0.1875 -0.640625 0.578125 -1.109375q0.390625 -0.484375 0.984375 -0.765625q0.609375 -0.28125 1.453125 -0.28125q0.328125 0 0.65625 0.046875q0.328125 0.046875 0.6875 0.171875l1.0 -0.265625l0 9.328125l-1.140625 0l0 -2.46875l0.0625 -1.40625q-0.921875 1.3125 -2.203125 1.3125q-0.5625 0 -0.984375 -0.21875q-0.421875 -0.234375 -0.71875 -0.65625q-0.28125 -0.4375 -0.421875 -1.03125q-0.140625 -0.609375 -0.140625 -1.328125zm1.171875 -0.078125q0 0.546875 0.078125 0.984375q0.078125 0.4375 0.234375 0.75q0.171875 0.296875 0.421875 0.453125q0.25 0.15625 0.59375 0.15625q0.421875 0 0.90625 -0.375q0.484375 -0.390625 1.0 -1.140625l0 -3.03125q-0.25 -0.125 -0.578125 -0.203125q-0.328125 -0.078125 -0.703125 -0.078125q-0.953125 0 -1.453125 0.640625q-0.5 0.625 -0.5 1.84375zm11.749756 3.203125l-1.015625 0l-0.046875 -1.046875q-0.28125 0.328125 -0.546875 0.5625q-0.265625 0.21875 -0.53125 0.359375q-0.265625 0.125 -0.53125 0.171875q-0.25 0.0625 -0.546875 0.0625q-1.015625 0 -1.53125 -0.578125q-0.5 -0.59375 -0.5 -1.796875l0 -4.265625l1.125 0l0 4.171875q0 1.5 1.140625 1.5q0.203125 0 0.390625 -0.046875q0.203125 -0.0625 0.421875 -0.21875q0.21875 -0.15625 0.46875 -0.40625q0.25 -0.265625 0.5625 -0.671875l0 -4.328125l1.140625 0l0 6.53125zm7.5934753 -3.609375q0 0.234375 -0.015625 0.40625q0 0.15625 -0.015625 0.296875l-4.578125 0q0 1.0 0.546875 1.546875q0.5625 0.53125 1.625 0.53125q0.28125 0 0.5625 -0.015625q0.296875 -0.03125 0.5625 -0.0625q0.265625 -0.046875 0.5 -0.09375q0.25 -0.046875 0.453125 -0.109375l0 0.9375q-0.453125 0.125 -1.046875 0.203125q-0.578125 0.078125 -1.203125 0.078125q-0.828125 0 -1.4375 -0.21875q-0.609375 -0.234375 -1.0 -0.65625q-0.390625 -0.4375 -0.578125 -1.0625q-0.171875 -0.625 -0.171875 -1.421875q0 -0.6875 0.1875 -1.296875q0.203125 -0.625 0.578125 -1.09375q0.390625 -0.46875 0.9375 -0.734375q0.5625 -0.28125 1.265625 -0.28125q0.671875 0 1.203125 0.21875q0.53125 0.21875 0.890625 0.609375q0.359375 0.390625 0.546875 0.953125q0.1875 0.5625 0.1875 1.265625zm-1.1875 -0.171875q0.03125 -0.421875 -0.078125 -0.78125q-0.109375 -0.375 -0.328125 -0.625q-0.21875 -0.265625 -0.546875 -0.40625q-0.3125 -0.15625 -0.75 -0.15625q-0.359375 0 -0.671875 0.15625q-0.3125 0.140625 -0.53125 0.40625q-0.21875 0.25 -0.359375 0.625q-0.125 0.359375 -0.15625 0.78125l3.421875 0zm8.171631 2.0q0 0.34375 -0.125 0.625q-0.109375 0.265625 -0.3125 0.484375q-0.203125 0.203125 -0.46875 0.359375q-0.265625 0.140625 -0.578125 0.25q-0.296875 0.09375 -0.625 0.125q-0.3125 0.046875 -0.609375 0.046875q-0.671875 0 -1.234375 -0.0625q-0.546875 -0.046875 -1.078125 -0.171875l0 -1.046875q0.5625 0.15625 1.125 0.25q0.578125 0.078125 1.140625 0.078125q0.8125 0 1.203125 -0.21875q0.390625 -0.21875 0.390625 -0.625q0 -0.1875 -0.0625 -0.3125q-0.0625 -0.140625 -0.234375 -0.265625q-0.15625 -0.140625 -0.5 -0.265625q-0.34375 -0.140625 -0.9375 -0.3125q-0.4375 -0.140625 -0.8125 -0.296875q-0.375 -0.171875 -0.65625 -0.390625q-0.265625 -0.234375 -0.421875 -0.53125q-0.15625 -0.3125 -0.15625 -0.734375q0 -0.265625 0.125 -0.59375q0.125 -0.328125 0.4375 -0.609375q0.3125 -0.28125 0.828125 -0.46875q0.515625 -0.1875 1.296875 -0.1875q0.390625 0 0.859375 0.046875q0.46875 0.046875 0.96875 0.140625l0 1.015625q-0.53125 -0.125 -1.015625 -0.1875q-0.46875 -0.0625 -0.828125 -0.0625q-0.421875 0 -0.71875 0.0625q-0.28125 0.0625 -0.46875 0.1875q-0.171875 0.109375 -0.25 0.265625q-0.078125 0.140625 -0.078125 0.3125q0 0.1875 0.0625 0.328125q0.078125 0.140625 0.265625 0.28125q0.1875 0.125 0.515625 0.265625q0.328125 0.125 0.859375 0.28125q0.59375 0.171875 0.984375 0.359375q0.390625 0.1875 0.640625 0.421875q0.25 0.21875 0.359375 0.515625q0.109375 0.28125 0.109375 0.640625zm7.4216003 1.6875q-0.390625 0.09375 -0.796875 0.140625q-0.40625 0.046875 -0.84375 0.046875q-1.21875 0 -1.828125 -0.546875q-0.609375 -0.5625 -0.609375 -1.71875l0 -3.40625l-1.828125 0l0 -0.953125l1.828125 0l0 -1.796875l1.140625 -0.296875l0 2.09375l2.9375 0l0 0.953125l-2.9375 0l0 3.3125q0 0.703125 0.375 1.0625q0.375 0.34375 1.09375 0.34375q0.3125 0 0.6875 -0.046875q0.375 -0.0625 0.78125 -0.15625l0 0.96875zm11.421387 -7.4375l-1.953125 0l0 -0.96875l5.078125 0l0 0.96875l-1.953125 0l0 6.546875l1.953125 0l0 0.984375l-5.078125 0l0 -0.984375l1.953125 0l0 -6.546875zm5.29657 1.0l1.0 0l0.046875 1.046875q0.28125 -0.328125 0.546875 -0.546875q0.28125 -0.234375 0.53125 -0.375q0.25 -0.140625 0.515625 -0.1875q0.28125 -0.0625 0.5625 -0.0625q1.015625 0 1.53125 0.609375q0.515625 0.59375 0.515625 1.78125l0 4.265625l-1.140625 0l0 -4.171875q0 -0.765625 -0.28125 -1.125q-0.28125 -0.375 -0.859375 -0.375q-0.203125 0 -0.40625 0.0625q-0.1875 0.0625 -0.40625 0.21875q-0.21875 0.140625 -0.46875 0.40625q-0.25 0.265625 -0.5625 0.65625l0 4.328125l-1.125 0l0 -6.53125zm12.593506 6.4375q-0.390625 0.09375 -0.796875 0.140625q-0.40625 0.046875 -0.84375 0.046875q-1.21875 0 -1.828125 -0.546875q-0.609375 -0.5625 -0.609375 -1.71875l0 -3.40625l-1.828125 0l0 -0.953125l1.828125 0l0 -1.796875l1.140625 -0.296875l0 2.09375l2.9375 0l0 0.953125l-2.9375 0l0 3.3125q0 0.703125 0.375 1.0625q0.375 0.34375 1.09375 0.34375q0.3125 0 0.6875 -0.046875q0.375 -0.0625 0.78125 -0.15625l0 0.96875zm7.577881 -3.515625q0 0.234375 -0.015625 0.40625q0 0.15625 -0.015625 0.296875l-4.578125 0q0 1.0 0.546875 1.546875q0.5625 0.53125 1.625 0.53125q0.28125 0 0.5625 -0.015625q0.296875 -0.03125 0.5625 -0.0625q0.265625 -0.046875 0.5 -0.09375q0.25 -0.046875 0.453125 -0.109375l0 0.9375q-0.453125 0.125 -1.046875 0.203125q-0.578125 0.078125 -1.203125 0.078125q-0.828125 0 -1.4375 -0.21875q-0.609375 -0.234375 -1.0 -0.65625q-0.390625 -0.4375 -0.578125 -1.0625q-0.171875 -0.625 -0.171875 -1.421875q0 -0.6875 0.1875 -1.296875q0.203125 -0.625 0.578125 -1.09375q0.390625 -0.46875 0.9375 -0.734375q0.5625 -0.28125 1.265625 -0.28125q0.671875 0 1.203125 0.21875q0.53125 0.21875 0.890625 0.609375q0.359375 0.390625 0.546875 0.953125q0.1875 0.5625 0.1875 1.265625zm-1.1875 -0.171875q0.03125 -0.421875 -0.078125 -0.78125q-0.109375 -0.375 -0.328125 -0.625q-0.21875 -0.265625 -0.546875 -0.40625q-0.3125 -0.15625 -0.75 -0.15625q-0.359375 0 -0.671875 0.15625q-0.3125 0.140625 -0.53125 0.40625q-0.21875 0.25 -0.359375 0.625q-0.125 0.359375 -0.15625 0.78125l3.421875 0zm3.2653809 -2.75l1.03125 0l0.03125 1.203125q0.578125 -0.703125 1.140625 -1.015625q0.5625 -0.3125 1.140625 -0.3125q1.015625 0 1.53125 0.65625q0.53125 0.65625 0.484375 1.953125l-1.140625 0q0.015625 -0.859375 -0.25 -1.234375q-0.265625 -0.390625 -0.796875 -0.390625q-0.21875 0 -0.453125 0.078125q-0.234375 0.078125 -0.484375 0.265625q-0.234375 0.171875 -0.515625 0.453125q-0.265625 0.28125 -0.578125 0.671875l0 4.203125l-1.140625 0l0 -6.53125zm12.85907 -1.609375q-0.890625 -0.1875 -1.546875 -0.1875q-1.515625 0 -1.515625 1.59375l0 1.15625l2.859375 0l0 0.9375l-2.859375 0l0 4.640625l-1.15625 0l0 -4.640625l-2.109375 0l0 -0.9375l2.109375 0l0 -1.09375q0 -2.609375 2.71875 -2.609375q0.671875 0 1.5 0.15625l0 0.984375zm-6.84375 1.609375l0 0zm12.562256 6.53125l-0.015625 -0.875q-0.546875 0.53125 -1.09375 0.765625q-0.546875 0.21875 -1.15625 0.21875q-0.546875 0 -0.953125 -0.140625q-0.390625 -0.140625 -0.65625 -0.390625q-0.25 -0.25 -0.375 -0.578125q-0.125 -0.34375 -0.125 -0.75q0 -0.984375 0.734375 -1.53125q0.734375 -0.5625 2.171875 -0.5625l1.34375 0l0 -0.5625q0 -0.578125 -0.375 -0.921875q-0.359375 -0.359375 -1.125 -0.359375q-0.546875 0 -1.09375 0.125q-0.53125 0.125 -1.109375 0.34375l0 -1.015625q0.21875 -0.078125 0.484375 -0.15625q0.265625 -0.078125 0.546875 -0.125q0.296875 -0.0625 0.609375 -0.09375q0.328125 -0.046875 0.65625 -0.046875q0.59375 0 1.0625 0.140625q0.484375 0.125 0.8125 0.390625q0.328125 0.265625 0.5 0.671875q0.171875 0.40625 0.171875 0.953125l0 4.5l-1.015625 0zm-0.125 -2.96875l-1.4375 0q-0.421875 0 -0.734375 0.078125q-0.296875 0.078125 -0.5 0.234375q-0.1875 0.15625 -0.28125 0.375q-0.09375 0.21875 -0.09375 0.5q0 0.1875 0.0625 0.359375q0.0625 0.171875 0.1875 0.3125q0.125 0.125 0.328125 0.203125q0.21875 0.078125 0.515625 0.078125q0.390625 0 0.890625 -0.234375q0.515625 -0.234375 1.0625 -0.75l0 -1.15625zm8.343506 2.734375q-0.453125 0.15625 -0.921875 0.234375q-0.453125 0.09375 -0.953125 0.09375q-1.546875 0 -2.390625 -0.84375q-0.828125 -0.84375 -0.828125 -2.453125q0 -0.765625 0.234375 -1.390625q0.25 -0.640625 0.671875 -1.09375q0.4375 -0.453125 1.046875 -0.6875q0.609375 -0.25 1.34375 -0.25q0.5 0 0.9375 0.078125q0.453125 0.0625 0.859375 0.234375l0 1.078125q-0.4375 -0.21875 -0.875 -0.3125q-0.4375 -0.109375 -0.90625 -0.109375q-0.4375 0 -0.828125 0.171875q-0.375 0.15625 -0.671875 0.46875q-0.296875 0.3125 -0.46875 0.765625q-0.15625 0.4375 -0.15625 1.015625q0 1.171875 0.5625 1.765625q0.578125 0.59375 1.609375 0.59375q0.453125 0 0.890625 -0.109375q0.4375 -0.109375 0.84375 -0.3125l0 1.0625zm7.765381 -3.375q0 0.234375 -0.015625 0.40625q0 0.15625 -0.015625 0.296875l-4.578125 0q0 1.0 0.546875 1.546875q0.5625 0.53125 1.625 0.53125q0.28125 0 0.5625 -0.015625q0.296875 -0.03125 0.5625 -0.0625q0.265625 -0.046875 0.5 -0.09375q0.25 -0.046875 0.453125 -0.109375l0 0.9375q-0.453125 0.125 -1.046875 0.203125q-0.578125 0.078125 -1.203125 0.078125q-0.828125 0 -1.4375 -0.21875q-0.609375 -0.234375 -1.0 -0.65625q-0.390625 -0.4375 -0.578125 -1.0625q-0.171875 -0.625 -0.171875 -1.421875q0 -0.6875 0.1875 -1.296875q0.203125 -0.625 0.578125 -1.09375q0.390625 -0.46875 0.9375 -0.734375q0.5625 -0.28125 1.265625 -0.28125q0.671875 0 1.203125 0.21875q0.53125 0.21875 0.890625 0.609375q0.359375 0.390625 0.546875 0.953125q0.1875 0.5625 0.1875 1.265625zm-1.1875 -0.171875q0.03125 -0.421875 -0.078125 -0.78125q-0.109375 -0.375 -0.328125 -0.625q-0.21875 -0.265625 -0.546875 -0.40625q-0.3125 -0.15625 -0.75 -0.15625q-0.359375 0 -0.671875 0.15625q-0.3125 0.140625 -0.53125 0.40625q-0.21875 0.25 -0.359375 0.625q-0.125 0.359375 -0.15625 0.78125l3.421875 0z" fill-rule="nonzero"/><path fill="#cfe2f3" d="m463.57538 36.66142l130.5827 0l0 43.33858l-130.5827 0z" fill-rule="evenodd"/><path stroke="#000000" stroke-width="1.0" stroke-linejoin="round" stroke-linecap="butt" d="m463.57538 36.66142l130.5827 0l0 43.33858l-130.5827 0z" fill-rule="evenodd"/><path fill="#000000" d="m484.4727 49.555084l-2.015625 0l0 6.015625l-0.921875 0l0 -6.015625l-2.015625 0l0 -0.78125l4.953125 0l0 0.78125zm5.921356 6.015625l-1.046875 0l-1.015625 -2.171875q-0.109375 -0.25 -0.234375 -0.40625q-0.125 -0.171875 -0.265625 -0.265625q-0.125 -0.09375 -0.296875 -0.140625q-0.15625 -0.046875 -0.359375 -0.046875l-0.4375 0l0 3.03125l-0.921875 0l0 -6.796875l1.8125 0q0.59375 0 1.015625 0.125q0.4375 0.125 0.703125 0.359375q0.28125 0.234375 0.40625 0.578125q0.125 0.328125 0.125 0.71875q0 0.328125 -0.09375 0.609375q-0.09375 0.28125 -0.28125 0.515625q-0.1875 0.234375 -0.46875 0.40625q-0.265625 0.15625 -0.609375 0.25q0.28125 0.09375 0.484375 0.34375q0.203125 0.234375 0.40625 0.65625l1.078125 2.234375zm-1.484375 -4.9375q0 -0.546875 -0.34375 -0.8125q-0.34375 -0.265625 -0.953125 -0.265625l-0.875 0l0 2.25l0.75 0q0.328125 0 0.578125 -0.078125q0.265625 -0.078125 0.453125 -0.21875q0.1875 -0.15625 0.28125 -0.375q0.109375 -0.21875 0.109375 -0.5zm7.686981 4.9375l-1.015625 0l-0.46875 -1.484375l-2.828125 0l-0.484375 1.484375l-0.96875 0l2.265625 -6.796875l1.265625 0l2.234375 6.796875zm-1.75 -2.3125l-1.15625 -3.640625l-1.140625 3.640625l2.296875 0zm7.046356 2.3125l-1.21875 0l-1.96875 -4.234375l-0.578125 -1.375l0 3.4375l0 2.171875l-0.859375 0l0 -6.796875l1.1875 0l1.890625 4.015625l0.671875 1.546875l0 -3.640625l0 -1.921875l0.875 0l0 6.796875zm5.796356 -1.84375q0 0.484375 -0.203125 0.859375q-0.1875 0.359375 -0.546875 0.609375q-0.359375 0.234375 -0.859375 0.359375q-0.484375 0.109375 -1.078125 0.109375q-0.28125 0 -0.546875 -0.03125q-0.265625 -0.015625 -0.515625 -0.046875q-0.25 -0.03125 -0.46875 -0.0625q-0.21875 -0.046875 -0.390625 -0.09375l0 -0.890625q0.390625 0.140625 0.875 0.234375q0.484375 0.078125 1.109375 0.078125q0.4375 0 0.75 -0.0625q0.328125 -0.078125 0.515625 -0.21875q0.203125 -0.140625 0.296875 -0.328125q0.09375 -0.203125 0.09375 -0.46875q0 -0.265625 -0.15625 -0.453125q-0.15625 -0.203125 -0.40625 -0.359375q-0.25 -0.15625 -0.578125 -0.28125q-0.3125 -0.125 -0.640625 -0.25q-0.328125 -0.140625 -0.65625 -0.296875q-0.3125 -0.171875 -0.5625 -0.375q-0.25 -0.21875 -0.40625 -0.515625q-0.15625 -0.296875 -0.15625 -0.6875q0 -0.359375 0.140625 -0.6875q0.15625 -0.34375 0.453125 -0.609375q0.3125 -0.265625 0.796875 -0.421875q0.484375 -0.15625 1.140625 -0.15625q0.171875 0 0.375 0.015625q0.203125 0.015625 0.40625 0.046875q0.203125 0.015625 0.40625 0.0625q0.203125 0.03125 0.375 0.078125l0 0.828125q-0.40625 -0.109375 -0.8125 -0.171875q-0.390625 -0.0625 -0.765625 -0.0625q-0.796875 0 -1.171875 0.265625q-0.375 0.265625 -0.375 0.71875q0 0.265625 0.15625 0.46875q0.15625 0.203125 0.40625 0.359375q0.25 0.15625 0.5625 0.28125q0.328125 0.125 0.65625 0.265625q0.328125 0.125 0.640625 0.296875q0.328125 0.15625 0.578125 0.375q0.25 0.21875 0.40625 0.515625q0.15625 0.296875 0.15625 0.703125zm3.1401062 -4.171875l-1.578125 0l0 -0.78125l4.078125 0l0 0.78125l-1.578125 0l0 5.21875l1.578125 0l0 0.796875l-4.078125 0l0 -0.796875l1.578125 0l0 -5.21875zm8.796326 0l-2.015625 0l0 6.015625l-0.921875 0l0 -6.015625l-2.015625 0l0 -0.78125l4.953125 0l0 0.78125zm2.9213867 0l-1.578125 0l0 -0.78125l4.078125 0l0 0.78125l-1.578125 0l0 5.21875l1.578125 0l0 0.796875l-4.078125 0l0 -0.796875l1.578125 0l0 -5.21875zm8.968201 2.578125q0 0.90625 -0.21875 1.578125q-0.21875 0.65625 -0.59375 1.09375q-0.359375 0.4375 -0.859375 0.65625q-0.484375 0.203125 -1.03125 0.203125q-0.65625 0 -1.140625 -0.234375q-0.484375 -0.234375 -0.8125 -0.6875q-0.3125 -0.453125 -0.46875 -1.09375q-0.15625 -0.640625 -0.15625 -1.4375q0 -0.90625 0.203125 -1.578125q0.21875 -0.671875 0.578125 -1.09375q0.375 -0.4375 0.859375 -0.640625q0.5 -0.21875 1.046875 -0.21875q0.65625 0 1.140625 0.234375q0.484375 0.234375 0.796875 0.6875q0.328125 0.4375 0.484375 1.078125q0.171875 0.640625 0.171875 1.453125zm-0.96875 0.0625q0 -0.59375 -0.09375 -1.09375q-0.09375 -0.5 -0.296875 -0.859375q-0.203125 -0.359375 -0.53125 -0.546875q-0.3125 -0.203125 -0.765625 -0.203125q-0.421875 0 -0.75 0.21875q-0.3125 0.203125 -0.515625 0.5625q-0.203125 0.359375 -0.296875 0.84375q-0.09375 0.484375 -0.09375 1.03125q0 0.609375 0.09375 1.109375q0.09375 0.484375 0.28125 0.84375q0.203125 0.359375 0.515625 0.5625q0.328125 0.1875 0.765625 0.1875q0.4375 0 0.75 -0.203125q0.328125 -0.21875 0.53125 -0.578125q0.203125 -0.359375 0.296875 -0.84375q0.109375 -0.484375 0.109375 -1.03125zm6.4995117 3.375l-1.21875 0l-1.96875 -4.234375l-0.578125 -1.375l0 3.4375l0 2.171875l-0.859375 0l0 -6.796875l1.1875 0l1.890625 4.015625l0.671875 1.546875l0 -3.640625l0 -1.921875l0.875 0l0 6.796875zm6.4682007 2.140625l-5.859375 0l0 -0.75l5.859375 0l0 0.75zm5.4057617 -8.15625l-2.015625 0l0 6.015625l-0.921875 0l0 -6.015625l-2.015625 0l0 -0.78125l4.953125 0l0 0.78125zm6.2650757 6.015625l-1.015625 0l-0.46875 -1.484375l-2.828125 0l-0.484375 1.484375l-0.96875 0l2.265625 -6.796875l1.265625 0l2.234375 6.796875zm-1.75 -2.3125l-1.15625 -3.640625l-1.140625 3.640625l2.296875 0zm7.2651367 2.3125l-1.046875 0l-1.015625 -2.171875q-0.109375 -0.25 -0.234375 -0.40625q-0.125 -0.171875 -0.265625 -0.265625q-0.125 -0.09375 -0.296875 -0.140625q-0.15625 -0.046875 -0.359375 -0.046875l-0.4375 0l0 3.03125l-0.921875 0l0 -6.796875l1.8125 0q0.59375 0 1.015625 0.125q0.4375 0.125 0.703125 0.359375q0.28125 0.234375 0.40625 0.578125q0.125 0.328125 0.125 0.71875q0 0.328125 -0.09375 0.609375q-0.09375 0.28125 -0.28125 0.515625q-0.1875 0.234375 -0.46875 0.40625q-0.265625 0.15625 -0.609375 0.25q0.28125 0.09375 0.484375 0.34375q0.203125 0.234375 0.40625 0.65625l1.078125 2.234375zm-1.484375 -4.9375q0 -0.546875 -0.34375 -0.8125q-0.34375 -0.265625 -0.953125 -0.265625l-0.875 0l0 2.25l0.75 0q0.328125 0 0.578125 -0.078125q0.265625 -0.078125 0.453125 -0.21875q0.1875 -0.15625 0.28125 -0.375q0.109375 -0.21875 0.109375 -0.5zm7.1088257 -0.703125q-0.375 -0.203125 -0.78125 -0.3125q-0.40625 -0.109375 -0.875 -0.109375q-0.546875 0 -0.96875 0.203125q-0.40625 0.1875 -0.703125 0.546875q-0.28125 0.34375 -0.4375 0.84375q-0.15625 0.484375 -0.15625 1.078125q0 0.625 0.125 1.125q0.125 0.484375 0.390625 0.828125q0.265625 0.34375 0.671875 0.53125q0.421875 0.1875 1.0 0.1875q0.09375 0 0.203125 -0.015625q0.125 -0.015625 0.234375 -0.03125q0.109375 -0.015625 0.21875 -0.03125q0.109375 -0.03125 0.1875 -0.0625l0 -2.171875l-1.390625 0l0 -0.765625l2.3125 0l0 3.484375q-0.21875 0.09375 -0.453125 0.171875q-0.234375 0.078125 -0.484375 0.140625q-0.25 0.046875 -0.5 0.0625q-0.234375 0.03125 -0.46875 0.03125q-0.6875 0 -1.25 -0.21875q-0.5625 -0.21875 -0.953125 -0.640625q-0.390625 -0.4375 -0.609375 -1.078125q-0.203125 -0.640625 -0.203125 -1.484375q0 -0.828125 0.234375 -1.484375q0.234375 -0.671875 0.65625 -1.125q0.421875 -0.46875 1.015625 -0.703125q0.59375 -0.25 1.3125 -0.25q0.46875 0 0.875 0.078125q0.421875 0.078125 0.796875 0.25l0 0.921875zm5.5307617 5.640625l-3.859375 0l0 -6.796875l3.859375 0l0 0.78125l-2.9375 0l0 2.109375l2.828125 0l0 0.78125l-2.828125 0l0 2.328125l2.9375 0l0 0.796875zm6.3588257 -6.015625l-2.015625 0l0 6.015625l-0.921875 0l0 -6.015625l-2.015625 0l0 -0.78125l4.953125 0l0 0.78125z" fill-rule="nonzero"/><path fill="#000000" d="m528.586 67.07071l-1.15625 0l0 1.5l-0.921875 0l0 -1.5l-3.28125 0l0 -0.796875l2.90625 -4.5l1.296875 0l0 4.5l1.15625 0l0 0.796875zm-2.078125 -4.421875l-2.375 3.625l2.375 0l0 -3.625zm7.6557007 3.21875q0 0.640625 -0.1875 1.15625q-0.171875 0.515625 -0.5 0.875q-0.328125 0.359375 -0.8125 0.546875q-0.46875 0.1875 -1.0625 0.1875q-0.453125 0 -0.9375 -0.078125q-0.484375 -0.09375 -0.96875 -0.296875l0 -7.046875l0.90625 0l0 2.03125l-0.03125 0.96875q0.390625 -0.53125 0.828125 -0.734375q0.4375 -0.21875 0.953125 -0.21875q0.453125 0 0.78125 0.1875q0.34375 0.1875 0.5625 0.53125q0.234375 0.328125 0.34375 0.8125q0.125 0.484375 0.125 1.078125zm-0.921875 0.03125q0 -0.40625 -0.0625 -0.75q-0.0625 -0.34375 -0.203125 -0.578125q-0.125 -0.25 -0.328125 -0.390625q-0.203125 -0.140625 -0.484375 -0.140625q-0.171875 0 -0.34375 0.0625q-0.171875 0.046875 -0.359375 0.1875q-0.1875 0.125 -0.40625 0.34375q-0.203125 0.203125 -0.453125 0.515625l0 2.53125q0.265625 0.09375 0.546875 0.15625q0.28125 0.0625 0.515625 0.0625q0.3125 0 0.59375 -0.09375q0.296875 -0.109375 0.5 -0.328125q0.21875 -0.234375 0.34375 -0.609375q0.140625 -0.390625 0.140625 -0.96875z" fill-rule="nonzero"/><path fill="#cfe2f3" d="m463.57538 92.661415l130.5827 0l0 43.338585l-130.5827 0z" fill-rule="evenodd"/><path stroke="#000000" stroke-width="1.0" stroke-linejoin="round" stroke-linecap="butt" d="m463.57538 92.661415l130.5827 0l0 43.338585l-130.5827 0z" fill-rule="evenodd"/><path fill="#000000" d="m487.4021 105.555084l-2.015625 0l0 6.015625l-0.921875 0l0 -6.015625l-2.015625 0l0 -0.78125l4.953125 0l0 0.78125zm5.921356 6.015625l-1.046875 0l-1.015625 -2.171875q-0.109375 -0.25 -0.234375 -0.40625q-0.125 -0.171875 -0.265625 -0.265625q-0.125 -0.09375 -0.296875 -0.140625q-0.15625 -0.046875 -0.359375 -0.046875l-0.4375 0l0 3.03125l-0.921875 0l0 -6.796875l1.8125 0q0.59375 0 1.015625 0.125q0.4375 0.125 0.703125 0.359375q0.28125 0.234375 0.40625 0.578125q0.125 0.328125 0.125 0.71875q0 0.328125 -0.09375 0.609375q-0.09375 0.28125 -0.28125 0.515625q-0.1875 0.234375 -0.46875 0.40625q-0.265625 0.15625 -0.609375 0.25q0.28125 0.09375 0.484375 0.34375q0.203125 0.234375 0.40625 0.65625l1.078125 2.234375zm-1.484375 -4.9375q0 -0.546875 -0.34375 -0.8125q-0.34375 -0.265625 -0.953125 -0.265625l-0.875 0l0 2.25l0.75 0q0.328125 0 0.578125 -0.078125q0.265625 -0.078125 0.453125 -0.21875q0.1875 -0.15625 0.28125 -0.375q0.109375 -0.21875 0.109375 -0.5zm7.686981 4.9375l-1.015625 0l-0.46875 -1.484375l-2.828125 0l-0.484375 1.484375l-0.96875 0l2.265625 -6.796875l1.265625 0l2.234375 6.796875zm-1.75 -2.3125l-1.15625 -3.640625l-1.140625 3.640625l2.296875 0zm7.046356 2.3125l-1.21875 0l-1.96875 -4.234375l-0.578125 -1.375l0 3.4375l0 2.171875l-0.859375 0l0 -6.796875l1.1875 0l1.890625 4.015625l0.671875 1.546875l0 -3.640625l0 -1.921875l0.875 0l0 6.796875zm5.796356 -1.84375q0 0.484375 -0.203125 0.859375q-0.1875 0.359375 -0.546875 0.609375q-0.359375 0.234375 -0.859375 0.359375q-0.484375 0.109375 -1.078125 0.109375q-0.28125 0 -0.546875 -0.03125q-0.265625 -0.015625 -0.515625 -0.046875q-0.25 -0.03125 -0.46875 -0.0625q-0.21875 -0.046875 -0.390625 -0.09375l0 -0.890625q0.390625 0.140625 0.875 0.234375q0.484375 0.078125 1.109375 0.078125q0.4375 0 0.75 -0.0625q0.328125 -0.078125 0.515625 -0.21875q0.203125 -0.140625 0.296875 -0.328125q0.09375 -0.203125 0.09375 -0.46875q0 -0.265625 -0.15625 -0.453125q-0.15625 -0.203125 -0.40625 -0.359375q-0.25 -0.15625 -0.578125 -0.28125q-0.3125 -0.125 -0.640625 -0.25q-0.328125 -0.140625 -0.65625 -0.296875q-0.3125 -0.171875 -0.5625 -0.375q-0.25 -0.21875 -0.40625 -0.515625q-0.15625 -0.296875 -0.15625 -0.6875q0 -0.359375 0.140625 -0.6875q0.15625 -0.34375 0.453125 -0.609375q0.3125 -0.265625 0.796875 -0.421875q0.484375 -0.15625 1.140625 -0.15625q0.171875 0 0.375 0.015625q0.203125 0.015625 0.40625 0.046875q0.203125 0.015625 0.40625 0.0625q0.203125 0.03125 0.375 0.078125l0 0.828125q-0.40625 -0.109375 -0.8125 -0.171875q-0.390625 -0.0625 -0.765625 -0.0625q-0.796875 0 -1.171875 0.265625q-0.375 0.265625 -0.375 0.71875q0 0.265625 0.15625 0.46875q0.15625 0.203125 0.40625 0.359375q0.25 0.15625 0.5625 0.28125q0.328125 0.125 0.65625 0.265625q0.328125 0.125 0.640625 0.296875q0.328125 0.15625 0.578125 0.375q0.25 0.21875 0.40625 0.515625q0.15625 0.296875 0.15625 0.703125zm3.1401367 -4.171875l-1.578125 0l0 -0.78125l4.078125 0l0 0.78125l-1.578125 0l0 5.21875l1.578125 0l0 0.796875l-4.078125 0l0 -0.796875l1.578125 0l0 -5.21875zm8.796326 0l-2.015625 0l0 6.015625l-0.921875 0l0 -6.015625l-2.015625 0l0 -0.78125l4.953125 0l0 0.78125zm2.9213867 0l-1.578125 0l0 -0.78125l4.078125 0l0 0.78125l-1.578125 0l0 5.21875l1.578125 0l0 0.796875l-4.078125 0l0 -0.796875l1.578125 0l0 -5.21875zm8.968201 2.578125q0 0.90625 -0.21875 1.578125q-0.21875 0.65625 -0.59375 1.09375q-0.359375 0.4375 -0.859375 0.65625q-0.484375 0.203125 -1.03125 0.203125q-0.65625 0 -1.140625 -0.234375q-0.484375 -0.234375 -0.8125 -0.6875q-0.3125 -0.453125 -0.46875 -1.09375q-0.15625 -0.640625 -0.15625 -1.4375q0 -0.90625 0.203125 -1.578125q0.21875 -0.671875 0.578125 -1.09375q0.375 -0.4375 0.859375 -0.640625q0.5 -0.21875 1.046875 -0.21875q0.65625 0 1.140625 0.234375q0.484375 0.234375 0.796875 0.6875q0.328125 0.4375 0.484375 1.078125q0.171875 0.640625 0.171875 1.453125zm-0.96875 0.0625q0 -0.59375 -0.09375 -1.09375q-0.09375 -0.5 -0.296875 -0.859375q-0.203125 -0.359375 -0.53125 -0.546875q-0.3125 -0.203125 -0.765625 -0.203125q-0.421875 0 -0.75 0.21875q-0.3125 0.203125 -0.515625 0.5625q-0.203125 0.359375 -0.296875 0.84375q-0.09375 0.484375 -0.09375 1.03125q0 0.609375 0.09375 1.109375q0.09375 0.484375 0.28125 0.84375q0.203125 0.359375 0.515625 0.5625q0.328125 0.1875 0.765625 0.1875q0.4375 0 0.75 -0.203125q0.328125 -0.21875 0.53125 -0.578125q0.203125 -0.359375 0.296875 -0.84375q0.109375 -0.484375 0.109375 -1.03125zm6.4995117 3.375l-1.21875 0l-1.96875 -4.234375l-0.578125 -1.375l0 3.4375l0 2.171875l-0.859375 0l0 -6.796875l1.1875 0l1.890625 4.015625l0.671875 1.546875l0 -3.640625l0 -1.921875l0.875 0l0 6.796875zm6.4682007 2.140625l-5.859375 0l0 -0.75l5.859375 0l0 0.75zm5.4057617 -8.15625l-2.015625 0l0 6.015625l-0.921875 0l0 -6.015625l-2.015625 0l0 -0.78125l4.953125 0l0 0.78125zm6.0307007 2.578125q0 0.90625 -0.21875 1.578125q-0.21875 0.65625 -0.59375 1.09375q-0.359375 0.4375 -0.859375 0.65625q-0.484375 0.203125 -1.03125 0.203125q-0.65625 0 -1.140625 -0.234375q-0.484375 -0.234375 -0.8125 -0.6875q-0.3125 -0.453125 -0.46875 -1.09375q-0.15625 -0.640625 -0.15625 -1.4375q0 -0.90625 0.203125 -1.578125q0.21875 -0.671875 0.578125 -1.09375q0.375 -0.4375 0.859375 -0.640625q0.5 -0.21875 1.046875 -0.21875q0.65625 0 1.140625 0.234375q0.484375 0.234375 0.796875 0.6875q0.328125 0.4375 0.484375 1.078125q0.171875 0.640625 0.171875 1.453125zm-0.96875 0.0625q0 -0.59375 -0.09375 -1.09375q-0.09375 -0.5 -0.296875 -0.859375q-0.203125 -0.359375 -0.53125 -0.546875q-0.3125 -0.203125 -0.765625 -0.203125q-0.421875 0 -0.75 0.21875q-0.3125 0.203125 -0.515625 0.5625q-0.203125 0.359375 -0.296875 0.84375q-0.09375 0.484375 -0.09375 1.03125q0 0.609375 0.09375 1.109375q0.09375 0.484375 0.28125 0.84375q0.203125 0.359375 0.515625 0.5625q0.328125 0.1875 0.765625 0.1875q0.4375 0 0.75 -0.203125q0.328125 -0.21875 0.53125 -0.578125q0.203125 -0.359375 0.296875 -0.84375q0.109375 -0.484375 0.109375 -1.03125zm6.7026367 3.375l-1.171875 0l-2.546875 -3.328125l0 3.328125l-0.921875 0l0 -6.796875l0.921875 0l0 3.15625l2.5 -3.15625l1.09375 0l-2.6875 3.234375l2.8125 3.5625zm5.3119507 0l-3.859375 0l0 -6.796875l3.859375 0l0 0.78125l-2.9375 0l0 2.109375l2.828125 0l0 0.78125l-2.828125 0l0 2.328125l2.9375 0l0 0.796875zm6.2026367 0l-1.21875 0l-1.96875 -4.234375l-0.578125 -1.375l0 3.4375l0 2.171875l-0.859375 0l0 -6.796875l1.1875 0l1.890625 4.015625l0.671875 1.546875l0 -3.640625l0 -1.921875l0.875 0l0 6.796875z" fill-rule="nonzero"/><path fill="#000000" d="m522.3365 124.57071l-4.265625 0l0 -0.84375l1.75 0l0 -4.96875l-1.640625 0.890625l-0.328125 -0.765625l2.15625 -1.140625l0.8125 0l0 5.984375l1.515625 0l0 0.84375zm5.9213867 0l-4.484375 0l0 -0.8125l1.765625 -1.75q0.421875 -0.421875 0.6875 -0.734375q0.28125 -0.3125 0.421875 -0.5625q0.15625 -0.265625 0.203125 -0.484375q0.0625 -0.234375 0.0625 -0.5q0 -0.25 -0.078125 -0.46875q-0.0625 -0.234375 -0.203125 -0.40625q-0.140625 -0.171875 -0.375 -0.265625q-0.21875 -0.109375 -0.53125 -0.109375q-0.421875 0 -0.78125 0.203125q-0.34375 0.1875 -0.640625 0.484375l-0.5 -0.59375q0.375 -0.40625 0.875 -0.640625q0.515625 -0.25 1.171875 -0.25q0.453125 0 0.828125 0.140625q0.375 0.125 0.640625 0.390625q0.265625 0.25 0.40625 0.625q0.15625 0.359375 0.15625 0.828125q0 0.390625 -0.109375 0.71875q-0.09375 0.328125 -0.3125 0.671875q-0.203125 0.328125 -0.53125 0.6875q-0.3125 0.34375 -0.75 0.765625l-1.234375 1.203125l3.3125 0l0 0.859375zm5.8588257 -1.703125q0 0.421875 -0.1875 0.765625q-0.171875 0.328125 -0.5 0.5625q-0.3125 0.234375 -0.75 0.359375q-0.421875 0.109375 -0.921875 0.109375q-0.5625 0 -0.984375 -0.125q-0.421875 -0.125 -0.71875 -0.34375q-0.28125 -0.234375 -0.421875 -0.53125q-0.140625 -0.3125 -0.140625 -0.6875q0 -0.625 0.34375 -1.0625q0.34375 -0.453125 1.078125 -0.828125q-0.671875 -0.34375 -0.984375 -0.75q-0.296875 -0.421875 -0.296875 -0.953125q0 -0.328125 0.125 -0.625q0.140625 -0.3125 0.40625 -0.546875q0.28125 -0.25 0.6875 -0.390625q0.421875 -0.140625 0.96875 -0.140625q0.53125 0 0.921875 0.109375q0.40625 0.109375 0.671875 0.328125q0.28125 0.203125 0.40625 0.5q0.140625 0.296875 0.140625 0.65625q0 0.59375 -0.328125 1.015625q-0.328125 0.40625 -0.9375 0.71875q0.296875 0.15625 0.546875 0.34375q0.265625 0.171875 0.453125 0.40625q0.203125 0.21875 0.3125 0.5q0.109375 0.265625 0.109375 0.609375zm-1.078125 -3.515625q0 -0.46875 -0.328125 -0.6875q-0.328125 -0.234375 -0.921875 -0.234375q-0.578125 0 -0.90625 0.234375q-0.3125 0.21875 -0.3125 0.65625q0 0.203125 0.078125 0.375q0.078125 0.171875 0.234375 0.328125q0.171875 0.15625 0.40625 0.296875q0.25 0.140625 0.578125 0.296875q0.59375 -0.28125 0.875 -0.578125q0.296875 -0.296875 0.296875 -0.6875zm0.09375 3.578125q0 -0.1875 -0.0625 -0.375q-0.0625 -0.1875 -0.234375 -0.359375q-0.15625 -0.171875 -0.4375 -0.34375q-0.265625 -0.1875 -0.671875 -0.375q-0.359375 0.171875 -0.609375 0.34375q-0.234375 0.171875 -0.390625 0.34375q-0.140625 0.171875 -0.203125 0.359375q-0.0625 0.1875 -0.0625 0.390625q0 0.234375 0.09375 0.421875q0.109375 0.171875 0.28125 0.296875q0.1875 0.125 0.421875 0.1875q0.25 0.0625 0.53125 0.0625q0.28125 0 0.515625 -0.046875q0.25 -0.0625 0.421875 -0.171875q0.1875 -0.125 0.296875 -0.296875q0.109375 -0.1875 0.109375 -0.4375zm6.8901367 -1.0625q0 0.640625 -0.1875 1.15625q-0.171875 0.515625 -0.5 0.875q-0.328125 0.359375 -0.8125 0.546875q-0.46875 0.1875 -1.0625 0.1875q-0.453125 0 -0.9375 -0.078125q-0.484375 -0.09375 -0.96875 -0.296875l0 -7.046875l0.90625 0l0 2.03125l-0.03125 0.96875q0.390625 -0.53125 0.828125 -0.734375q0.4375 -0.21875 0.953125 -0.21875q0.453125 0 0.78125 0.1875q0.34375 0.1875 0.5625 0.53125q0.234375 0.328125 0.34375 0.8125q0.125 0.484375 0.125 1.078125zm-0.921875 0.03125q0 -0.40625 -0.0625 -0.75q-0.0625 -0.34375 -0.203125 -0.578125q-0.125 -0.25 -0.328125 -0.390625q-0.203125 -0.140625 -0.484375 -0.140625q-0.171875 0 -0.34375 0.0625q-0.171875 0.046875 -0.359375 0.1875q-0.1875 0.125 -0.40625 0.34375q-0.203125 0.203125 -0.453125 0.515625l0 2.53125q0.265625 0.09375 0.546875 0.15625q0.28125 0.0625 0.515625 0.0625q0.3125 0 0.59375 -0.09375q0.296875 -0.109375 0.5 -0.328125q0.21875 -0.234375 0.34375 -0.609375q0.140625 -0.390625 0.140625 -0.96875z" fill-rule="nonzero"/><path fill="#cfe2f3" d="m463.57538 148.66142l130.5827 0l0 43.338577l-130.5827 0z" fill-rule="evenodd"/><path stroke="#000000" stroke-width="1.0" stroke-linejoin="round" stroke-linecap="butt" d="m463.57538 148.66142l130.5827 0l0 43.338577l-130.5827 0z" fill-rule="evenodd"/><path fill="#000000" d="m493.26096 161.55508l-2.015625 0l0 6.015625l-0.921875 0l0 -6.015625l-2.015625 0l0 -0.78125l4.953125 0l0 0.78125zm5.921356 6.015625l-1.046875 0l-1.015625 -2.171875q-0.109375 -0.25 -0.234375 -0.40625q-0.125 -0.171875 -0.265625 -0.265625q-0.125 -0.09375 -0.296875 -0.140625q-0.15625 -0.046875 -0.359375 -0.046875l-0.4375 0l0 3.03125l-0.921875 0l0 -6.796875l1.8125 0q0.59375 0 1.015625 0.125q0.4375 0.125 0.703125 0.359375q0.28125 0.234375 0.40625 0.578125q0.125 0.328125 0.125 0.71875q0 0.328125 -0.09375 0.609375q-0.09375 0.28125 -0.28125 0.515625q-0.1875 0.234375 -0.46875 0.40625q-0.265625 0.15625 -0.609375 0.25q0.28125 0.09375 0.484375 0.34375q0.203125 0.234375 0.40625 0.65625l1.078125 2.234375zm-1.484375 -4.9375q0 -0.546875 -0.34375 -0.8125q-0.34375 -0.265625 -0.953125 -0.265625l-0.875 0l0 2.25l0.75 0q0.328125 0 0.578125 -0.078125q0.265625 -0.078125 0.453125 -0.21875q0.1875 -0.15625 0.28125 -0.375q0.109375 -0.21875 0.109375 -0.5zm7.686981 4.9375l-1.015625 0l-0.46875 -1.484375l-2.828125 0l-0.484375 1.484375l-0.96875 0l2.265625 -6.796875l1.265625 0l2.234375 6.796875zm-1.75 -2.3125l-1.15625 -3.640625l-1.140625 3.640625l2.296875 0zm7.046356 2.3125l-1.21875 0l-1.96875 -4.234375l-0.578125 -1.375l0 3.4375l0 2.171875l-0.859375 0l0 -6.796875l1.1875 0l1.890625 4.015625l0.671875 1.546875l0 -3.640625l0 -1.921875l0.875 0l0 6.796875zm5.7963867 -1.84375q0 0.484375 -0.203125 0.859375q-0.1875 0.359375 -0.546875 0.609375q-0.359375 0.234375 -0.859375 0.359375q-0.484375 0.109375 -1.078125 0.109375q-0.28125 0 -0.546875 -0.03125q-0.265625 -0.015625 -0.515625 -0.046875q-0.25 -0.03125 -0.46875 -0.0625q-0.21875 -0.046875 -0.39065552 -0.09375l0 -0.890625q0.39065552 0.140625 0.8750305 0.234375q0.484375 0.078125 1.109375 0.078125q0.4375 0 0.75 -0.0625q0.328125 -0.078125 0.515625 -0.21875q0.203125 -0.140625 0.296875 -0.328125q0.09375 -0.203125 0.09375 -0.46875q0 -0.265625 -0.15625 -0.453125q-0.15625 -0.203125 -0.40625 -0.359375q-0.25 -0.15625 -0.578125 -0.28125q-0.3125 -0.125 -0.640625 -0.25q-0.328125 -0.140625 -0.65625 -0.296875q-0.3125 -0.171875 -0.5625 -0.375q-0.25 -0.21875 -0.40625 -0.515625q-0.15628052 -0.296875 -0.15628052 -0.6875q0 -0.359375 0.14065552 -0.6875q0.15625 -0.34375 0.453125 -0.609375q0.3125 -0.265625 0.796875 -0.421875q0.484375 -0.15625 1.140625 -0.15625q0.171875 0 0.375 0.015625q0.203125 0.015625 0.40625 0.046875q0.203125 0.015625 0.40625 0.0625q0.203125 0.03125 0.375 0.078125l0 0.828125q-0.40625 -0.109375 -0.8125 -0.171875q-0.390625 -0.0625 -0.765625 -0.0625q-0.796875 0 -1.171875 0.265625q-0.375 0.265625 -0.375 0.71875q0 0.265625 0.15625 0.46875q0.15625 0.203125 0.40625 0.359375q0.25 0.15625 0.5625 0.28125q0.328125 0.125 0.65625 0.265625q0.328125 0.125 0.640625 0.296875q0.328125 0.15625 0.578125 0.375q0.25 0.21875 0.40625 0.515625q0.15625 0.296875 0.15625 0.703125zm3.1400757 -4.171875l-1.578125 0l0 -0.78125l4.078125 0l0 0.78125l-1.578125 0l0 5.21875l1.578125 0l0 0.796875l-4.078125 0l0 -0.796875l1.578125 0l0 -5.21875zm8.796387 0l-2.015625 0l0 6.015625l-0.921875 0l0 -6.015625l-2.015625 0l0 -0.78125l4.953125 0l0 0.78125zm2.9213257 0l-1.578125 0l0 -0.78125l4.078125 0l0 0.78125l-1.578125 0l0 5.21875l1.578125 0l0 0.796875l-4.078125 0l0 -0.796875l1.578125 0l0 -5.21875zm8.968262 2.578125q0 0.90625 -0.21875 1.578125q-0.21875 0.65625 -0.59375 1.09375q-0.359375 0.4375 -0.859375 0.65625q-0.484375 0.203125 -1.03125 0.203125q-0.65625 0 -1.140625 -0.234375q-0.484375 -0.234375 -0.8125 -0.6875q-0.3125 -0.453125 -0.46875 -1.09375q-0.15625 -0.640625 -0.15625 -1.4375q0 -0.90625 0.203125 -1.578125q0.21875 -0.671875 0.578125 -1.09375q0.375 -0.4375 0.859375 -0.640625q0.5 -0.21875 1.046875 -0.21875q0.65625 0 1.140625 0.234375q0.484375 0.234375 0.796875 0.6875q0.328125 0.4375 0.484375 1.078125q0.171875 0.640625 0.171875 1.453125zm-0.96875 0.0625q0 -0.59375 -0.09375 -1.09375q-0.09375 -0.5 -0.296875 -0.859375q-0.203125 -0.359375 -0.53125 -0.546875q-0.3125 -0.203125 -0.765625 -0.203125q-0.421875 0 -0.75 0.21875q-0.3125 0.203125 -0.515625 0.5625q-0.203125 0.359375 -0.296875 0.84375q-0.09375 0.484375 -0.09375 1.03125q0 0.609375 0.09375 1.109375q0.09375 0.484375 0.28125 0.84375q0.203125 0.359375 0.515625 0.5625q0.328125 0.1875 0.765625 0.1875q0.4375 0 0.75 -0.203125q0.328125 -0.21875 0.53125 -0.578125q0.203125 -0.359375 0.296875 -0.84375q0.109375 -0.484375 0.109375 -1.03125zm6.4994507 3.375l-1.21875 0l-1.96875 -4.234375l-0.578125 -1.375l0 3.4375l0 2.171875l-0.859375 0l0 -6.796875l1.1875 0l1.890625 4.015625l0.671875 1.546875l0 -3.640625l0 -1.921875l0.875 0l0 6.796875zm6.4682617 2.140625l-5.859375 0l0 -0.75l5.859375 0l0 0.75zm5.1713257 -2.390625q-0.8125 0.328125 -1.703125 0.328125q-1.4375 0 -2.21875 -0.859375q-0.765625 -0.859375 -0.765625 -2.546875q0 -0.8125 0.203125 -1.46875q0.21875 -0.671875 0.609375 -1.125q0.40625 -0.46875 0.953125 -0.71875q0.5625 -0.25 1.265625 -0.25q0.46875 0 0.875 0.09375q0.40625 0.078125 0.78125 0.234375l0 0.921875q-0.359375 -0.203125 -0.765625 -0.3125q-0.390625 -0.109375 -0.859375 -0.109375q-0.484375 0 -0.875 0.1875q-0.375 0.171875 -0.65625 0.515625q-0.265625 0.34375 -0.40625 0.84375q-0.140625 0.484375 -0.140625 1.109375q0 1.3125 0.53125 1.984375q0.53125 0.671875 1.5625 0.671875q0.4375 0 0.84375 -0.09375q0.40625 -0.109375 0.765625 -0.28125l0 0.875zm6.2963867 0.25l-0.90625 0l-0.140625 -4.234375l-0.0625 -1.640625l-0.3125 0.953125l-1.0 2.703125l-0.640625 0l-0.953125 -2.59375l-0.328125 -1.0625l-0.015625 1.703125l-0.125 4.171875l-0.875 0l0.34375 -6.796875l1.09375 0l0.921875 2.5625l0.28125 0.859375l0.296875 -0.859375l0.953125 -2.5625l1.140625 0l0.328125 6.796875zm5.7338257 -3.46875q0 0.484375 -0.078125 0.9375q-0.078125 0.4375 -0.25 0.828125q-0.15625 0.375 -0.421875 0.703125q-0.265625 0.3125 -0.65625 0.53125q-0.390625 0.21875 -0.90625 0.34375q-0.5 0.125 -1.140625 0.125l-1.46875 0l0 -6.796875l1.765625 0q1.578125 0 2.359375 0.828125q0.796875 0.8125 0.796875 2.5zm-0.984375 0.0625q0 -0.71875 -0.140625 -1.21875q-0.125 -0.5 -0.40625 -0.8125q-0.265625 -0.3125 -0.6875 -0.4375q-0.421875 -0.140625 -0.96875 -0.140625l-0.796875 0l0 5.21875l0.6875 0q2.3125 0 2.3125 -2.609375z" fill-rule="nonzero"/><path fill="#000000" d="m528.1954 180.57071l-4.265625 0l0 -0.84375l1.75 0l0 -4.96875l-1.640625 0.890625l-0.328125 -0.765625l2.15625 -1.140625l0.8125 0l0 5.984375l1.515625 0l0 0.84375zm5.9682007 -2.703125q0 0.640625 -0.1875 1.15625q-0.171875 0.515625 -0.5 0.875q-0.328125 0.359375 -0.8125 0.546875q-0.46875 0.1875 -1.0625 0.1875q-0.453125 0 -0.9375 -0.078125q-0.484375 -0.09375 -0.96875 -0.296875l0 -7.046875l0.90625 0l0 2.03125l-0.03125 0.96875q0.390625 -0.53125 0.828125 -0.734375q0.4375 -0.21875 0.953125 -0.21875q0.453125 0 0.78125 0.1875q0.34375 0.1875 0.5625 0.53125q0.234375 0.328125 0.34375 0.8125q0.125 0.484375 0.125 1.078125zm-0.921875 0.03125q0 -0.40625 -0.0625 -0.75q-0.0625 -0.34375 -0.203125 -0.578125q-0.125 -0.25 -0.328125 -0.390625q-0.203125 -0.140625 -0.484375 -0.140625q-0.171875 0 -0.34375 0.0625q-0.171875 0.046875 -0.359375 0.1875q-0.1875 0.125 -0.40625 0.34375q-0.203125 0.203125 -0.453125 0.515625l0 2.53125q0.265625 0.09375 0.546875 0.15625q0.28125 0.0625 0.515625 0.0625q0.3125 0 0.59375 -0.09375q0.296875 -0.109375 0.5 -0.328125q0.21875 -0.234375 0.34375 -0.609375q0.140625 -0.390625 0.140625 -0.96875z" fill-rule="nonzero"/><path fill="#cfe2f3" d="m463.57538 204.66142l130.5827 0l0 43.338577l-130.5827 0z" fill-rule="evenodd"/><path stroke="#000000" stroke-width="1.0" stroke-linejoin="round" stroke-linecap="butt" d="m463.57538 204.66142l130.5827 0l0 43.338577l-130.5827 0z" fill-rule="evenodd"/><path fill="#000000" d="m516.47766 221.72696q0 0.484375 -0.203125 0.859375q-0.1875 0.359375 -0.546875 0.609375q-0.359375 0.234375 -0.859375 0.359375q-0.484375 0.109375 -1.078125 0.109375q-0.28125 0 -0.546875 -0.03125q-0.265625 -0.015625 -0.515625 -0.046875q-0.25 -0.03125 -0.46875 -0.0625q-0.21875 -0.046875 -0.39065552 -0.09375l0 -0.890625q0.39065552 0.140625 0.8750305 0.234375q0.484375 0.078125 1.109375 0.078125q0.4375 0 0.75 -0.0625q0.328125 -0.078125 0.515625 -0.21875q0.203125 -0.140625 0.296875 -0.328125q0.09375 -0.203125 0.09375 -0.46875q0 -0.265625 -0.15625 -0.453125q-0.15625 -0.203125 -0.40625 -0.359375q-0.25 -0.15625 -0.578125 -0.28125q-0.3125 -0.125 -0.640625 -0.25q-0.328125 -0.140625 -0.65625 -0.296875q-0.3125 -0.171875 -0.5625 -0.375q-0.25 -0.21875 -0.40625 -0.515625q-0.15628052 -0.296875 -0.15628052 -0.6875q0 -0.359375 0.14065552 -0.6875q0.15625 -0.34375 0.453125 -0.609375q0.3125 -0.265625 0.796875 -0.421875q0.484375 -0.15625 1.140625 -0.15625q0.171875 0 0.375 0.015625q0.203125 0.015625 0.40625 0.046875q0.203125 0.015625 0.40625 0.0625q0.203125 0.03125 0.375 0.078125l0 0.828125q-0.40625 -0.109375 -0.8125 -0.171875q-0.390625 -0.0625 -0.765625 -0.0625q-0.796875 0 -1.171875 0.265625q-0.375 0.265625 -0.375 0.71875q0 0.265625 0.15625 0.46875q0.15625 0.203125 0.40625 0.359375q0.25 0.15625 0.5625 0.28125q0.328125 0.125 0.65625 0.265625q0.328125 0.125 0.640625 0.296875q0.328125 0.15625 0.578125 0.375q0.25 0.21875 0.40625 0.515625q0.15625 0.296875 0.15625 0.703125zm6.0775757 -4.171875l-2.015625 0l0 6.015625l-0.921875 0l0 -6.015625l-2.015625 0l0 -0.78125l4.953125 0l0 0.78125zm6.2651367 6.015625l-1.015625 0l-0.46875 -1.484375l-2.828125 0l-0.484375 1.484375l-0.96875 0l2.265625 -6.796875l1.265625 0l2.234375 6.796875zm-1.75 -2.3125l-1.15625 -3.640625l-1.140625 3.640625l2.296875 0zm7.2025757 -3.703125l-2.015625 0l0 6.015625l-0.921875 0l0 -6.015625l-2.015625 0l0 -0.78125l4.953125 0l0 0.78125zm5.7495117 3.640625q0 0.5625 -0.15625 1.03125q-0.15625 0.453125 -0.46875 0.78125q-0.3125 0.3125 -0.765625 0.484375q-0.4375 0.171875 -1.015625 0.171875q-0.625 0 -1.078125 -0.15625q-0.4375 -0.171875 -0.71875 -0.46875q-0.265625 -0.3125 -0.40625 -0.734375q-0.125 -0.4375 -0.125 -0.96875l0 -4.5625l0.9375 0l0 4.5q0 0.390625 0.0625 0.703125q0.078125 0.296875 0.25 0.5q0.171875 0.203125 0.4375 0.3125q0.28125 0.09375 0.671875 0.09375q0.75 0 1.09375 -0.421875q0.359375 -0.421875 0.359375 -1.203125l0 -4.484375l0.921875 0l0 4.421875zm5.7494507 0.53125q0 0.484375 -0.203125 0.859375q-0.1875 0.359375 -0.546875 0.609375q-0.359375 0.234375 -0.859375 0.359375q-0.484375 0.109375 -1.078125 0.109375q-0.28125 0 -0.546875 -0.03125q-0.265625 -0.015625 -0.515625 -0.046875q-0.25 -0.03125 -0.46875 -0.0625q-0.21875 -0.046875 -0.390625 -0.09375l0 -0.890625q0.390625 0.140625 0.875 0.234375q0.484375 0.078125 1.109375 0.078125q0.4375 0 0.75 -0.0625q0.328125 -0.078125 0.515625 -0.21875q0.203125 -0.140625 0.296875 -0.328125q0.09375 -0.203125 0.09375 -0.46875q0 -0.265625 -0.15625 -0.453125q-0.15625 -0.203125 -0.40625 -0.359375q-0.25 -0.15625 -0.578125 -0.28125q-0.3125 -0.125 -0.640625 -0.25q-0.328125 -0.140625 -0.65625 -0.296875q-0.3125 -0.171875 -0.5625 -0.375q-0.25 -0.21875 -0.40625 -0.515625q-0.15625 -0.296875 -0.15625 -0.6875q0 -0.359375 0.140625 -0.6875q0.15625 -0.34375 0.453125 -0.609375q0.3125 -0.265625 0.796875 -0.421875q0.484375 -0.15625 1.140625 -0.15625q0.171875 0 0.375 0.015625q0.203125 0.015625 0.40625 0.046875q0.203125 0.015625 0.40625 0.0625q0.203125 0.03125 0.375 0.078125l0 0.828125q-0.40625 -0.109375 -0.8125 -0.171875q-0.390625 -0.0625 -0.765625 -0.0625q-0.796875 0 -1.171875 0.265625q-0.375 0.265625 -0.375 0.71875q0 0.265625 0.15625 0.46875q0.15625 0.203125 0.40625 0.359375q0.25 0.15625 0.5625 0.28125q0.328125 0.125 0.65625 0.265625q0.328125 0.125 0.640625 0.296875q0.328125 0.15625 0.578125 0.375q0.25 0.21875 0.40625 0.515625q0.15625 0.296875 0.15625 0.703125z" fill-rule="nonzero"/><path fill="#000000" d="m528.336 234.41446q0 0.46875 -0.171875 0.890625q-0.171875 0.40625 -0.484375 0.71875q-0.3125 0.296875 -0.75 0.46875q-0.4375 0.171875 -0.96875 0.171875q-0.5625 0 -1.0 -0.171875q-0.421875 -0.1875 -0.71875 -0.5625q-0.296875 -0.375 -0.453125 -0.9375q-0.140625 -0.5625 -0.140625 -1.34375q0 -0.515625 0.0625 -1.0q0.078125 -0.5 0.234375 -0.921875q0.15625 -0.4375 0.40625 -0.796875q0.265625 -0.359375 0.65625 -0.609375q0.390625 -0.265625 0.90625 -0.40625q0.53125 -0.140625 1.21875 -0.140625l0.671875 0l0 0.78125l-0.734375 0q-0.609375 0 -1.0625 0.15625q-0.4375 0.140625 -0.734375 0.40625q-0.296875 0.265625 -0.46875 0.640625q-0.15625 0.375 -0.203125 0.84375l-0.015625 0.203125q0.328125 -0.1875 0.75 -0.296875q0.4375 -0.125 0.9375 -0.125q0.515625 0 0.890625 0.15625q0.390625 0.140625 0.640625 0.421875q0.265625 0.265625 0.390625 0.640625q0.140625 0.359375 0.140625 0.8125zm-0.953125 0.0625q0 -0.3125 -0.078125 -0.5625q-0.0625 -0.25 -0.234375 -0.421875q-0.15625 -0.1875 -0.40625 -0.28125q-0.25 -0.09375 -0.59375 -0.09375q-0.1875 0 -0.390625 0.046875q-0.203125 0.03125 -0.40625 0.09375q-0.1875 0.0625 -0.375 0.15625q-0.171875 0.078125 -0.3125 0.171875q0 0.65625 0.09375 1.109375q0.09375 0.453125 0.28125 0.734375q0.1875 0.265625 0.453125 0.375q0.265625 0.109375 0.625 0.109375q0.296875 0 0.53125 -0.09375q0.25 -0.09375 0.421875 -0.28125q0.1875 -0.1875 0.28125 -0.453125q0.109375 -0.265625 0.109375 -0.609375zm6.7807007 -0.609375q0 0.640625 -0.1875 1.15625q-0.171875 0.515625 -0.5 0.875q-0.328125 0.359375 -0.8125 0.546875q-0.46875 0.1875 -1.0625 0.1875q-0.453125 0 -0.9375 -0.078125q-0.484375 -0.09375 -0.96875 -0.296875l0 -7.046875l0.90625 0l0 2.03125l-0.03125 0.96875q0.390625 -0.53125 0.828125 -0.734375q0.4375 -0.21875 0.953125 -0.21875q0.453125 0 0.78125 0.1875q0.34375 0.1875 0.5625 0.53125q0.234375 0.328125 0.34375 0.8125q0.125 0.484375 0.125 1.078125zm-0.921875 0.03125q0 -0.40625 -0.0625 -0.75q-0.0625 -0.34375 -0.203125 -0.578125q-0.125 -0.25 -0.328125 -0.390625q-0.203125 -0.140625 -0.484375 -0.140625q-0.171875 0 -0.34375 0.0625q-0.171875 0.046875 -0.359375 0.1875q-0.1875 0.125 -0.40625 0.34375q-0.203125 0.203125 -0.453125 0.515625l0 2.53125q0.265625 0.09375 0.546875 0.15625q0.28125 0.0625 0.515625 0.0625q0.3125 0 0.59375 -0.09375q0.296875 -0.109375 0.5 -0.328125q0.21875 -0.234375 0.34375 -0.609375q0.140625 -0.390625 0.140625 -0.96875z" fill-rule="nonzero"/><path fill="#000000" fill-opacity="0.0" d="m184.7874 69.968506l35.76593 0l0 0.06298828l35.761642 0" fill-rule="evenodd"/><path stroke="#ff0000" stroke-width="1.0" stroke-linejoin="round" stroke-linecap="butt" d="m184.7874 69.968506l35.76593 0l0 0.06298828l29.761627 0" fill-rule="evenodd"/><path fill="#ff0000" stroke="#ff0000" stroke-width="1.0" stroke-linecap="butt" d="m250.31496 71.68323l4.538101 -1.6517334l-4.538101 -1.6517334z" fill-rule="evenodd"/><path fill="#000000" fill-opacity="0.0" d="m184.82835 248.0l41.751648 0l0 -142.77165l30.059372 0" fill-rule="evenodd"/><path stroke="#0000ff" stroke-width="1.0" stroke-linejoin="round" stroke-linecap="butt" d="m184.82835 248.0l41.751663 0l0 -142.77165l24.059357 0" fill-rule="evenodd"/><path fill="#0000ff" stroke="#0000ff" stroke-width="1.0" stroke-linecap="butt" d="m250.63937 106.88008l4.538101 -1.6517334l-4.538101 -1.6517334z" fill-rule="evenodd"/><path fill="#cfe2f3" d="m256.31964 56.724648l130.58267 0l0 26.48819l-130.58267 0z" fill-rule="evenodd"/><path stroke="#000000" stroke-width="1.0" stroke-linejoin="round" stroke-linecap="butt" d="m256.31964 56.724648l130.58267 0l0 26.48819l-130.58267 0z" fill-rule="evenodd"/><path fill="#000000" d="m300.293 73.630615q-0.3125 0.078125 -0.640625 0.109375q-0.328125 0.046875 -0.671875 0.046875q-0.984375 0 -1.46875 -0.4375q-0.46875 -0.453125 -0.46875 -1.375l0 -2.734375l-1.46875 0l0 -0.75l1.46875 0l0 -1.4375l0.890625 -0.234375l0 1.671875l2.359375 0l0 0.75l-2.359375 0l0 2.65625q0 0.5625 0.296875 0.84375q0.3125 0.28125 0.890625 0.28125q0.25 0 0.546875 -0.03125q0.296875 -0.046875 0.625 -0.140625l0 0.78125zm4.999481 0.078125l-0.015625 -0.703125q-0.4375 0.421875 -0.875 0.609375q-0.4375 0.1875 -0.921875 0.1875q-0.4375 0 -0.765625 -0.109375q-0.3125 -0.125 -0.515625 -0.3125q-0.203125 -0.203125 -0.3125 -0.46875q-0.09375 -0.28125 -0.09375 -0.59375q0 -0.796875 0.578125 -1.234375q0.59375 -0.4375 1.734375 -0.4375l1.09375 0l0 -0.46875q0 -0.453125 -0.296875 -0.734375q-0.296875 -0.28125 -0.90625 -0.28125q-0.4375 0 -0.875 0.109375q-0.421875 0.09375 -0.890625 0.265625l0 -0.8125q0.171875 -0.0625 0.375 -0.125q0.21875 -0.0625 0.453125 -0.109375q0.234375 -0.046875 0.484375 -0.0625q0.265625 -0.03125 0.515625 -0.03125q0.484375 0 0.859375 0.109375q0.375 0.09375 0.640625 0.3125q0.265625 0.203125 0.40625 0.53125q0.140625 0.328125 0.140625 0.765625l0 3.59375l-0.8125 0zm-0.09375 -2.375l-1.15625 0q-0.328125 0 -0.578125 0.0625q-0.25 0.0625 -0.40625 0.1875q-0.15625 0.125 -0.234375 0.3125q-0.0625 0.171875 -0.0625 0.390625q0 0.140625 0.046875 0.28125q0.046875 0.140625 0.140625 0.25q0.109375 0.109375 0.265625 0.171875q0.171875 0.0625 0.421875 0.0625q0.296875 0 0.703125 -0.1875q0.40625 -0.203125 0.859375 -0.609375l0 -0.921875zm7.061981 -0.328125q0 0.6875 -0.203125 1.21875q-0.1875 0.515625 -0.53125 0.859375q-0.34375 0.34375 -0.8125 0.515625q-0.46875 0.171875 -1.015625 0.171875q-0.25 0 -0.5 -0.03125q-0.234375 -0.015625 -0.5 -0.078125l0 2.1875l-0.90625 0l0 -7.359375l0.8125 0l0.0625 0.875q0.390625 -0.546875 0.828125 -0.75q0.4375 -0.21875 0.953125 -0.21875q0.453125 0 0.78125 0.1875q0.34375 0.1875 0.5625 0.53125q0.234375 0.328125 0.34375 0.8125q0.125 0.484375 0.125 1.078125zm-0.921875 0.03125q0 -0.40625 -0.0625 -0.75q-0.0625 -0.34375 -0.203125 -0.578125q-0.125 -0.25 -0.328125 -0.390625q-0.203125 -0.140625 -0.484375 -0.140625q-0.171875 0 -0.34375 0.0625q-0.171875 0.046875 -0.359375 0.1875q-0.1875 0.125 -0.40625 0.34375q-0.203125 0.203125 -0.453125 0.515625l0 2.53125q0.25 0.09375 0.53125 0.15625q0.28125 0.0625 0.53125 0.0625q0.734375 0 1.15625 -0.5q0.421875 -0.5 0.421875 -1.5zm7.343231 4.8125l-5.859375 0l0 -0.75l5.859375 0l0 0.75zm4.890106 -2.328125q-0.359375 0.125 -0.734375 0.1875q-0.359375 0.078125 -0.765625 0.078125q-1.234375 0 -1.90625 -0.671875q-0.65625 -0.671875 -0.65625 -1.96875q0 -0.609375 0.1875 -1.109375q0.1875 -0.515625 0.53125 -0.875q0.359375 -0.359375 0.84375 -0.546875q0.484375 -0.203125 1.0625 -0.203125q0.40625 0 0.75 0.0625q0.359375 0.046875 0.6875 0.1875l0 0.859375q-0.34375 -0.171875 -0.703125 -0.25q-0.34375 -0.09375 -0.71875 -0.09375q-0.34375 0 -0.65625 0.140625q-0.296875 0.125 -0.53125 0.375q-0.234375 0.25 -0.375 0.609375q-0.140625 0.359375 -0.140625 0.8125q0 0.953125 0.453125 1.421875q0.46875 0.46875 1.28125 0.46875q0.375 0 0.71875 -0.078125q0.34375 -0.09375 0.671875 -0.25l0 0.84375zm3.5776062 -6.421875l-1.546875 0l0 -0.75l2.46875 0l0 6.609375l1.546875 0l0 0.75l-4.1875 0l0 -0.75l1.71875 0l0 -5.859375zm7.436981 6.609375l-0.015625 -0.703125q-0.4375 0.421875 -0.875 0.609375q-0.4375 0.1875 -0.921875 0.1875q-0.4375 0 -0.765625 -0.109375q-0.3125 -0.125 -0.515625 -0.3125q-0.203125 -0.203125 -0.3125 -0.46875q-0.09375 -0.28125 -0.09375 -0.59375q0 -0.796875 0.578125 -1.234375q0.59375 -0.4375 1.734375 -0.4375l1.09375 0l0 -0.46875q0 -0.453125 -0.296875 -0.734375q-0.296875 -0.28125 -0.90625 -0.28125q-0.4375 0 -0.875 0.109375q-0.421875 0.09375 -0.890625 0.265625l0 -0.8125q0.171875 -0.0625 0.375 -0.125q0.21875 -0.0625 0.453125 -0.109375q0.234375 -0.046875 0.484375 -0.0625q0.265625 -0.03125 0.515625 -0.03125q0.484375 0 0.859375 0.109375q0.375 0.09375 0.640625 0.3125q0.265625 0.203125 0.40625 0.53125q0.140625 0.328125 0.140625 0.765625l0 3.59375l-0.8125 0zm-0.09375 -2.375l-1.15625 0q-0.328125 0 -0.578125 0.0625q-0.25 0.0625 -0.40625 0.1875q-0.15625 0.125 -0.234375 0.3125q-0.0625 0.171875 -0.0625 0.390625q0 0.140625 0.046875 0.28125q0.046875 0.140625 0.140625 0.25q0.109375 0.109375 0.265625 0.171875q0.171875 0.0625 0.421875 0.0625q0.296875 0 0.703125 -0.1875q0.40625 -0.203125 0.859375 -0.609375l0 -0.921875zm4.374481 -2.09375l-1.546875 0l0 -0.75l2.46875 0l0 4.46875l1.546875 0l0 0.75l-4.1875 0l0 -0.75l1.71875 0l0 -3.71875zm0.3125 -2.953125q0.15625 0 0.28125 0.0625q0.140625 0.046875 0.234375 0.15625q0.09375 0.09375 0.140625 0.21875q0.0625 0.125 0.0625 0.28125q0 0.140625 -0.0625 0.28125q-0.046875 0.125 -0.140625 0.234375q-0.09375 0.09375 -0.234375 0.15625q-0.125 0.046875 -0.28125 0.046875q-0.140625 0 -0.28125 -0.046875q-0.125 -0.0625 -0.21875 -0.15625q-0.09375 -0.109375 -0.15625 -0.234375q-0.046875 -0.140625 -0.046875 -0.28125q0 -0.15625 0.046875 -0.28125q0.0625 -0.125 0.15625 -0.21875q0.09375 -0.109375 0.21875 -0.15625q0.140625 -0.0625 0.28125 -0.0625zm7.499481 7.421875l0 -3.75q0 -0.25 -0.03125 -0.40625q-0.015625 -0.15625 -0.0625 -0.234375q-0.03125 -0.09375 -0.09375 -0.125q-0.046875 -0.046875 -0.140625 -0.046875q-0.109375 0 -0.203125 0.0625q-0.078125 0.0625 -0.1875 0.203125q-0.09375 0.140625 -0.21875 0.375q-0.125 0.234375 -0.28125 0.5625l0 3.359375l-0.828125 0l0 -3.65625q0 -0.28125 -0.015625 -0.453125q-0.015625 -0.1875 -0.0625 -0.28125q-0.03125 -0.09375 -0.09375 -0.125q-0.0625 -0.046875 -0.15625 -0.046875q-0.09375 0 -0.1875 0.0625q-0.078125 0.046875 -0.1875 0.1875q-0.09375 0.125 -0.21875 0.359375q-0.125 0.234375 -0.296875 0.59375l0 3.359375l-0.828125 0l0 -5.21875l0.6875 0l0.046875 0.984375q0.140625 -0.296875 0.265625 -0.5q0.125 -0.203125 0.25 -0.328125q0.140625 -0.140625 0.296875 -0.1875q0.15625 -0.0625 0.34375 -0.0625q0.421875 0 0.640625 0.28125q0.21875 0.265625 0.21875 0.84375q0.125 -0.265625 0.234375 -0.46875q0.125 -0.21875 0.265625 -0.359375q0.140625 -0.15625 0.296875 -0.21875q0.171875 -0.078125 0.390625 -0.078125q0.984375 0 0.984375 1.515625l0 3.796875l-0.828125 0z" fill-rule="nonzero"/><path fill="#cfe2f3" d="m256.6346 91.987114l130.58267 0l0 26.48819l-130.58267 0z" fill-rule="evenodd"/><path stroke="#000000" stroke-width="1.0" stroke-linejoin="round" stroke-linecap="butt" d="m256.6346 91.987114l130.58267 0l0 26.48819l-130.58267 0z" fill-rule="evenodd"/><path fill="#000000" d="m303.45926 107.54933q0 0.265625 -0.09375 0.484375q-0.09375 0.21875 -0.265625 0.390625q-0.15625 0.171875 -0.375 0.296875q-0.203125 0.109375 -0.453125 0.1875q-0.234375 0.078125 -0.5 0.109375q-0.25 0.046875 -0.484375 0.046875q-0.53125 0 -0.984375 -0.046875q-0.4375 -0.046875 -0.859375 -0.15625l0 -0.828125q0.453125 0.125 0.90625 0.203125q0.453125 0.0625 0.890625 0.0625q0.65625 0 0.96875 -0.171875q0.3125 -0.1875 0.3125 -0.515625q0 -0.140625 -0.046875 -0.25q-0.046875 -0.109375 -0.1875 -0.203125q-0.125 -0.109375 -0.40625 -0.21875q-0.265625 -0.109375 -0.734375 -0.25q-0.359375 -0.109375 -0.65625 -0.234375q-0.296875 -0.140625 -0.515625 -0.3125q-0.21875 -0.1875 -0.34375 -0.421875q-0.125 -0.25 -0.125 -0.578125q0 -0.21875 0.09375 -0.484375q0.109375 -0.265625 0.34375 -0.484375q0.25 -0.21875 0.671875 -0.359375q0.421875 -0.15625 1.03125 -0.15625q0.3125 0 0.6875 0.03125q0.375 0.03125 0.78125 0.109375l0 0.8125q-0.421875 -0.109375 -0.8125 -0.15625q-0.375 -0.046875 -0.65625 -0.046875q-0.34375 0 -0.578125 0.0625q-0.21875 0.046875 -0.375 0.140625q-0.140625 0.078125 -0.203125 0.203125q-0.0625 0.125 -0.0625 0.265625q0 0.140625 0.046875 0.265625q0.0625 0.109375 0.203125 0.21875q0.15625 0.09375 0.421875 0.203125q0.265625 0.109375 0.6875 0.234375q0.46875 0.140625 0.78125 0.28125q0.328125 0.140625 0.515625 0.328125q0.203125 0.1875 0.28125 0.421875q0.09375 0.21875 0.09375 0.515625zm6.561981 -3.796875l-0.765625 5.21875l-1.09375 0l-0.75 -2.1875l-0.15625 -0.53125l-0.171875 0.5625l-0.71875 2.15625l-1.0625 0l-0.765625 -5.21875l0.890625 0l0.4375 3.546875l0.09375 0.78125l0.21875 -0.6875l0.765625 -2.34375l0.640625 0l0.828125 2.3125l0.234375 0.6875l0.078125 -0.734375l0.40625 -3.5625l0.890625 0zm6.046356 7.359375l-5.859375 0l0 -0.75l5.859375 0l0 0.75zm4.890106 -2.328125q-0.359375 0.125 -0.734375 0.1875q-0.359375 0.078125 -0.765625 0.078125q-1.234375 0 -1.90625 -0.671875q-0.65625 -0.671875 -0.65625 -1.96875q0 -0.609375 0.1875 -1.109375q0.1875 -0.515625 0.53125 -0.875q0.359375 -0.359375 0.84375 -0.546875q0.484375 -0.203125 1.0625 -0.203125q0.40625 0 0.75 0.0625q0.359375 0.046875 0.6875 0.1875l0 0.859375q-0.34375 -0.171875 -0.703125 -0.25q-0.34375 -0.09375 -0.71875 -0.09375q-0.34375 0 -0.65625 0.140625q-0.296875 0.125 -0.53125 0.375q-0.234375 0.25 -0.375 0.609375q-0.140625 0.359375 -0.140625 0.8125q0 0.953125 0.453125 1.421875q0.46875 0.46875 1.28125 0.46875q0.375 0 0.71875 -0.078125q0.34375 -0.09375 0.671875 -0.25l0 0.84375zm3.5776062 -6.421875l-1.546875 0l0 -0.75l2.46875 0l0 6.609375l1.546875 0l0 0.75l-4.1875 0l0 -0.75l1.71875 0l0 -5.859375zm7.436981 6.609375l-0.015625 -0.703125q-0.4375 0.421875 -0.875 0.609375q-0.4375 0.1875 -0.921875 0.1875q-0.4375 0 -0.765625 -0.109375q-0.3125 -0.125 -0.515625 -0.3125q-0.203125 -0.203125 -0.3125 -0.46875q-0.09375 -0.28125 -0.09375 -0.59375q0 -0.796875 0.578125 -1.234375q0.59375 -0.4375 1.734375 -0.4375l1.09375 0l0 -0.46875q0 -0.453125 -0.296875 -0.734375q-0.296875 -0.28125 -0.90625 -0.28125q-0.4375 0 -0.875 0.109375q-0.421875 0.09375 -0.890625 0.265625l0 -0.8125q0.171875 -0.0625 0.375 -0.125q0.21875 -0.0625 0.453125 -0.109375q0.234375 -0.046875 0.484375 -0.0625q0.265625 -0.03125 0.515625 -0.03125q0.484375 0 0.859375 0.109375q0.375 0.09375 0.640625 0.3125q0.265625 0.203125 0.40625 0.53125q0.140625 0.328125 0.140625 0.765625l0 3.59375l-0.8125 0zm-0.09375 -2.375l-1.15625 0q-0.328125 0 -0.578125 0.0625q-0.25 0.0625 -0.40625 0.1875q-0.15625 0.125 -0.234375 0.3125q-0.0625 0.171875 -0.0625 0.390625q0 0.140625 0.046875 0.28125q0.046875 0.140625 0.140625 0.25q0.109375 0.109375 0.265625 0.171875q0.171875 0.0625 0.421875 0.0625q0.296875 0 0.703125 -0.1875q0.40625 -0.203125 0.859375 -0.609375l0 -0.921875zm4.374481 -2.09375l-1.546875 0l0 -0.75l2.46875 0l0 4.46875l1.546875 0l0 0.75l-4.1875 0l0 -0.75l1.71875 0l0 -3.71875zm0.3125 -2.953125q0.15625 0 0.28125 0.0625q0.140625 0.046875 0.234375 0.15625q0.09375 0.09375 0.140625 0.21875q0.0625 0.125 0.0625 0.28125q0 0.140625 -0.0625 0.28125q-0.046875 0.125 -0.140625 0.234375q-0.09375 0.09375 -0.234375 0.15625q-0.125 0.046875 -0.28125 0.046875q-0.140625 0 -0.28125 -0.046875q-0.125 -0.0625 -0.21875 -0.15625q-0.09375 -0.109375 -0.15625 -0.234375q-0.046875 -0.140625 -0.046875 -0.28125q0 -0.15625 0.046875 -0.28125q0.0625 -0.125 0.15625 -0.21875q0.09375 -0.109375 0.21875 -0.15625q0.140625 -0.0625 0.28125 -0.0625zm7.499481 7.421875l0 -3.75q0 -0.25 -0.03125 -0.40625q-0.015625 -0.15625 -0.0625 -0.234375q-0.03125 -0.09375 -0.09375 -0.125q-0.046875 -0.046875 -0.140625 -0.046875q-0.109375 0 -0.203125 0.0625q-0.078125 0.0625 -0.1875 0.203125q-0.09375 0.140625 -0.21875 0.375q-0.125 0.234375 -0.28125 0.5625l0 3.359375l-0.828125 0l0 -3.65625q0 -0.28125 -0.015625 -0.453125q-0.015625 -0.1875 -0.0625 -0.28125q-0.03125 -0.09375 -0.09375 -0.125q-0.0625 -0.046875 -0.15625 -0.046875q-0.09375 0 -0.1875 0.0625q-0.078125 0.046875 -0.1875 0.1875q-0.09375 0.125 -0.21875 0.359375q-0.125 0.234375 -0.296875 0.59375l0 3.359375l-0.828125 0l0 -5.21875l0.6875 0l0.046875 0.984375q0.140625 -0.296875 0.265625 -0.5q0.125 -0.203125 0.25 -0.328125q0.140625 -0.140625 0.296875 -0.1875q0.15625 -0.0625 0.34375 -0.0625q0.421875 0 0.640625 0.28125q0.21875 0.265625 0.21875 0.84375q0.125 -0.265625 0.234375 -0.46875q0.125 -0.21875 0.265625 -0.359375q0.140625 -0.15625 0.296875 -0.21875q0.171875 -0.078125 0.390625 -0.078125q0.984375 0 0.984375 1.515625l0 3.796875l-0.828125 0z" fill-rule="nonzero"/><path fill="#000000" fill-opacity="0.0" d="m320.0 131.93826l0 14.030716l0.06298828 0l0 22.599197" fill-rule="evenodd"/><path stroke="#ff9900" stroke-width="1.0" stroke-linejoin="round" stroke-linecap="butt" d="m320.0 131.93826l0 14.030716l0.06298828 0l0 16.599197" fill-rule="evenodd"/><path fill="#ff9900" stroke="#ff9900" stroke-width="1.0" stroke-linecap="butt" d="m318.41125 162.56818l1.6517334 4.538101l1.6517334 -4.538101z" fill-rule="evenodd"/><path fill="#000000" fill-opacity="0.0" d="m184.7874 69.968506l17.0784 0l0 114.04724l102.1342 0" fill-rule="evenodd"/><path stroke="#ff0000" stroke-width="1.0" stroke-linejoin="round" stroke-linecap="butt" d="m184.7874 69.968506l17.0784 0l0 114.04724l96.1342 0" fill-rule="evenodd"/><path fill="#ff0000" stroke="#ff0000" stroke-width="1.0" stroke-linecap="butt" d="m298.0 185.66748l4.538086 -1.6517334l-4.538086 -1.6517334z" fill-rule="evenodd"/><path fill="#000000" fill-opacity="0.0" d="m184.82835 248.0l59.585785 0l0 0.06298828l59.59532 0" fill-rule="evenodd"/><path stroke="#0000ff" stroke-width="1.0" stroke-linejoin="round" stroke-linecap="butt" d="m184.82835 248.0l59.585785 0l0 0.06298828l53.59532 0" fill-rule="evenodd"/><path fill="#0000ff" stroke="#0000ff" stroke-width="1.0" stroke-linecap="butt" d="m298.00946 249.71472l4.538086 -1.6517334l-4.538086 -1.6517334z" fill-rule="evenodd"/><path fill="#000000" fill-opacity="0.0" d="m336.0 216.0l56.409454 0l0 -56.0l56.409454 0" fill-rule="evenodd"/><path stroke="#ff9900" stroke-width="1.0" stroke-linejoin="round" stroke-linecap="butt" d="m336.0 216.0l56.409454 0l0 -56.0l50.409454 0" fill-rule="evenodd"/><path fill="#ff9900" stroke="#ff9900" stroke-width="1.0" stroke-linecap="butt" d="m442.8189 161.65173l4.538086 -1.6517334l-4.538086 -1.6517334z" fill-rule="evenodd"/><path fill="#cfe2f3" d="m304.0 160.0l32.0 17.117447l0 77.76511l-32.0 17.117447z" fill-rule="evenodd"/><path stroke="#000000" stroke-width="1.0" stroke-linejoin="round" stroke-linecap="butt" d="m304.0 160.0l32.0 17.117447l0 77.76511l-32.0 17.117447z" fill-rule="evenodd"/><path fill="#000000" fill-opacity="0.0" d="m304.0 176.0l16.0 0l0 16.0l-16.0 0z" fill-rule="evenodd"/><path fill="#000000" fill-opacity="0.0" d="m304.0 240.0l16.0 0l0 16.0l-16.0 0z" fill-rule="evenodd"/><path fill="#000000" fill-opacity="0.0" d="m253.95276 216.0l50.04724 0" fill-rule="evenodd"/><path stroke="#000000" stroke-width="1.0" stroke-linejoin="round" stroke-linecap="butt" d="m253.95276 216.0l44.04724 0" fill-rule="evenodd"/><path fill="#000000" stroke="#000000" stroke-width="1.0" stroke-linecap="butt" d="m298.0 217.65173l4.538086 -1.6517334l-4.538086 -1.6517334z" fill-rule="evenodd"/><path fill="#000000" fill-opacity="0.0" d="m232.8189 200.0l72.000015 0l0 32.0l-72.000015 0z" fill-rule="evenodd"/><path fill="#000000" d="m253.71915 207.22438l-2.015625 0l0 6.015625l-0.921875 0l0 -6.015625l-2.015625 0l0 -0.78125l4.953125 0l0 0.78125zm3.0619812 1.546875l-1.546875 0l0 -0.75l2.46875 0l0 4.46875l1.546875 0l0 0.75l-4.1875 0l0 -0.75l1.71875 0l0 -3.71875zm0.3125 -2.953125q0.15625 0 0.28125 0.0625q0.140625 0.046875 0.234375 0.15625q0.09375 0.09375 0.140625 0.21875q0.0625 0.125 0.0625 0.28125q0 0.140625 -0.0625 0.28125q-0.046875 0.125 -0.140625 0.234375q-0.09375 0.09375 -0.234375 0.15625q-0.125 0.046875 -0.28125 0.046875q-0.140625 0 -0.28125 -0.046875q-0.125 -0.0625 -0.21875 -0.15625q-0.09375 -0.109375 -0.15625 -0.234375q-0.046875 -0.140625 -0.046875 -0.28125q0 -0.15625 0.046875 -0.28125q0.0625 -0.125 0.15625 -0.21875q0.09375 -0.109375 0.21875 -0.15625q0.140625 -0.0625 0.28125 -0.0625zm8.186981 4.53125q0 0.203125 -0.015625 0.328125q0 0.125 -0.015625 0.234375l-3.65625 0q0 0.8125 0.4375 1.25q0.453125 0.421875 1.296875 0.421875q0.21875 0 0.453125 -0.015625q0.234375 -0.03125 0.4375 -0.0625q0.21875 -0.03125 0.40625 -0.0625q0.203125 -0.046875 0.375 -0.09375l0 0.75q-0.375 0.109375 -0.84375 0.171875q-0.46875 0.0625 -0.96875 0.0625q-0.65625 0 -1.140625 -0.171875q-0.484375 -0.1875 -0.796875 -0.53125q-0.3125 -0.359375 -0.46875 -0.859375q-0.140625 -0.5 -0.140625 -1.140625q0 -0.546875 0.15625 -1.03125q0.15625 -0.5 0.453125 -0.859375q0.3125 -0.375 0.75 -0.59375q0.453125 -0.21875 1.015625 -0.21875q0.546875 0 0.96875 0.171875q0.421875 0.171875 0.703125 0.484375q0.296875 0.3125 0.4375 0.765625q0.15625 0.453125 0.15625 1.0zm-0.953125 -0.125q0.015625 -0.34375 -0.0625 -0.625q-0.078125 -0.296875 -0.265625 -0.5q-0.171875 -0.21875 -0.4375 -0.328125q-0.25 -0.125 -0.59375 -0.125q-0.296875 0 -0.546875 0.125q-0.234375 0.109375 -0.421875 0.3125q-0.171875 0.203125 -0.28125 0.5q-0.109375 0.296875 -0.125 0.640625l2.734375 0zm6.046356 0.609375l-3.109375 0l0 -0.859375l3.109375 0l0 0.859375zm6.749481 -0.25q0 0.609375 -0.171875 1.125q-0.171875 0.5 -0.5 0.859375q-0.3125 0.359375 -0.78125 0.5625q-0.453125 0.203125 -1.046875 0.203125q-0.5625 0 -1.015625 -0.171875q-0.4375 -0.171875 -0.75 -0.515625q-0.296875 -0.34375 -0.46875 -0.84375q-0.15625 -0.5 -0.15625 -1.140625q0 -0.609375 0.171875 -1.109375q0.171875 -0.5 0.484375 -0.859375q0.328125 -0.375 0.78125 -0.5625q0.46875 -0.203125 1.0625 -0.203125q0.5625 0 1.0 0.171875q0.453125 0.171875 0.75 0.515625q0.3125 0.328125 0.46875 0.828125q0.171875 0.5 0.171875 1.140625zm-0.921875 0.046875q0 -0.484375 -0.109375 -0.84375q-0.109375 -0.359375 -0.3125 -0.59375q-0.1875 -0.25 -0.46875 -0.375q-0.28125 -0.125 -0.640625 -0.125q-0.390625 0 -0.6875 0.15625q-0.28125 0.15625 -0.46875 0.421875q-0.1875 0.265625 -0.28125 0.625q-0.078125 0.34375 -0.078125 0.734375q0 0.484375 0.109375 0.84375q0.109375 0.359375 0.296875 0.609375q0.203125 0.234375 0.484375 0.359375q0.28125 0.125 0.625 0.125q0.40625 0 0.6875 -0.15625q0.296875 -0.15625 0.484375 -0.421875q0.1875 -0.265625 0.265625 -0.609375q0.09375 -0.359375 0.09375 -0.75zm6.874481 -3.90625q-0.71875 -0.140625 -1.234375 -0.140625q-1.21875 0 -1.21875 1.28125l0 0.90625l2.296875 0l0 0.765625l-2.296875 0l0 3.703125l-0.921875 0l0 -3.703125l-1.671875 0l0 -0.765625l1.671875 0l0 -0.859375q0 -2.09375 2.171875 -2.09375q0.546875 0 1.203125 0.125l0 0.78125zm-5.46875 1.296875l0 0zm11.327606 -1.296875q-0.71875 -0.140625 -1.234375 -0.140625q-1.21875 0 -1.21875 1.28125l0 0.90625l2.296875 0l0 0.765625l-2.296875 0l0 3.703125l-0.921875 0l0 -3.703125l-1.671875 0l0 -0.765625l1.671875 0l0 -0.859375q0 -2.09375 2.171875 -2.09375q0.546875 0 1.203125 0.125l0 0.78125zm-5.46875 1.296875l0 0z" fill-rule="nonzero"/><path fill="#000000" d="m246.40717 228.4275q-2.390625 -2.21875 -2.390625 -4.90625q0 -0.640625 0.125 -1.265625q0.125 -0.625 0.40625 -1.25q0.296875 -0.640625 0.75 -1.265625q0.46875 -0.625 1.140625 -1.25l0.515625 0.53125q-2.015625 2.0 -2.015625 4.421875q0 1.203125 0.5 2.328125q0.515625 1.109375 1.515625 2.09375l-0.546875 0.5625zm2.4682312 -4.6875q0 -0.671875 0.1875 -1.1875q0.1875 -0.515625 0.515625 -0.875q0.34375 -0.359375 0.8125 -0.53125q0.46875 -0.1875 1.046875 -0.1875q0.25 0 0.484375 0.03125q0.25 0.03125 0.484375 0.09375l0 -2.203125l0.90625 0l0 7.359375l-0.8125 0l-0.03125 -0.984375q-0.375 0.546875 -0.828125 0.8125q-0.4375 0.265625 -0.953125 0.265625q-0.4375 0 -0.78125 -0.1875q-0.34375 -0.1875 -0.578125 -0.53125q-0.21875 -0.34375 -0.34375 -0.8125q-0.109375 -0.484375 -0.109375 -1.0625zm0.9375 -0.0625q0 0.953125 0.265625 1.421875q0.28125 0.453125 0.796875 0.453125q0.34375 0 0.71875 -0.296875q0.390625 -0.3125 0.8125 -0.921875l0 -2.421875q-0.234375 -0.09375 -0.5 -0.140625q-0.265625 -0.0625 -0.53125 -0.0625q-0.734375 0 -1.15625 0.484375q-0.40625 0.46875 -0.40625 1.484375zm9.608856 -0.328125q0 0.203125 -0.015625 0.328125q0 0.125 -0.015625 0.234375l-3.65625 0q0 0.8125 0.4375 1.25q0.453125 0.421875 1.296875 0.421875q0.21875 0 0.453125 -0.015625q0.234375 -0.03125 0.4375 -0.0625q0.21875 -0.03125 0.40625 -0.0625q0.203125 -0.046875 0.375 -0.09375l0 0.75q-0.375 0.109375 -0.84375 0.171875q-0.46875 0.0625 -0.96875 0.0625q-0.65625 0 -1.140625 -0.171875q-0.484375 -0.1875 -0.796875 -0.53125q-0.3125 -0.359375 -0.46875 -0.859375q-0.140625 -0.5 -0.140625 -1.140625q0 -0.546875 0.15625 -1.03125q0.15625 -0.5 0.453125 -0.859375q0.3125 -0.375 0.75 -0.59375q0.453125 -0.21875 1.015625 -0.21875q0.546875 0 0.96875 0.171875q0.421875 0.171875 0.703125 0.484375q0.296875 0.3125 0.4375 0.765625q0.15625 0.453125 0.15625 1.0zm-0.953125 -0.125q0.015625 -0.34375 -0.0625 -0.625q-0.078125 -0.296875 -0.265625 -0.5q-0.171875 -0.21875 -0.4375 -0.328125q-0.25 -0.125 -0.59375 -0.125q-0.296875 0 -0.546875 0.125q-0.234375 0.109375 -0.421875 0.3125q-0.171875 0.203125 -0.28125 0.5q-0.109375 0.296875 -0.125 0.640625l2.734375 0zm7.030731 -3.5q-0.71875 -0.140625 -1.234375 -0.140625q-1.21875 0 -1.21875 1.28125l0 0.90625l2.296875 0l0 0.765625l-2.296875 0l0 3.703125l-0.921875 0l0 -3.703125l-1.671875 0l0 -0.765625l1.671875 0l0 -0.859375q0 -2.09375 2.171875 -2.09375q0.546875 0 1.203125 0.125l0 0.78125zm-5.46875 1.296875l0 0zm10.046356 5.21875l-0.015625 -0.703125q-0.4375 0.421875 -0.875 0.609375q-0.4375 0.1875 -0.921875 0.1875q-0.4375 0 -0.765625 -0.109375q-0.3125 -0.125 -0.515625 -0.3125q-0.203125 -0.203125 -0.3125 -0.46875q-0.09375 -0.28125 -0.09375 -0.59375q0 -0.796875 0.578125 -1.234375q0.59375 -0.4375 1.734375 -0.4375l1.09375 0l0 -0.46875q0 -0.453125 -0.296875 -0.734375q-0.296875 -0.28125 -0.90625 -0.28125q-0.4375 0 -0.875 0.109375q-0.421875 0.09375 -0.890625 0.265625l0 -0.8125q0.171875 -0.0625 0.375 -0.125q0.21875 -0.0625 0.453125 -0.109375q0.234375 -0.046875 0.484375 -0.0625q0.265625 -0.03125 0.515625 -0.03125q0.484375 0 0.859375 0.109375q0.375 0.09375 0.640625 0.3125q0.265625 0.203125 0.40625 0.53125q0.140625 0.328125 0.140625 0.765625l0 3.59375l-0.8125 0zm-0.09375 -2.375l-1.15625 0q-0.328125 0 -0.578125 0.0625q-0.25 0.0625 -0.40625 0.1875q-0.15625 0.125 -0.234375 0.3125q-0.0625 0.171875 -0.0625 0.390625q0 0.140625 0.046875 0.28125q0.046875 0.140625 0.140625 0.25q0.109375 0.109375 0.265625 0.171875q0.171875 0.0625 0.421875 0.0625q0.296875 0 0.703125 -0.1875q0.40625 -0.203125 0.859375 -0.609375l0 -0.921875zm6.796356 2.375l-0.8125 0l-0.03125 -0.84375q-0.234375 0.265625 -0.453125 0.453125q-0.203125 0.171875 -0.421875 0.28125q-0.203125 0.109375 -0.421875 0.15625q-0.203125 0.046875 -0.421875 0.046875q-0.8125 0 -1.234375 -0.46875q-0.40625 -0.484375 -0.40625 -1.4375l0 -3.40625l0.90625 0l0 3.328125q0 1.203125 0.90625 1.203125q0.171875 0 0.328125 -0.046875q0.15625 -0.046875 0.328125 -0.171875q0.171875 -0.125 0.375 -0.328125q0.203125 -0.203125 0.453125 -0.53125l0 -3.453125l0.90625 0l0 5.21875zm3.4369812 -6.609375l-1.546875 0l0 -0.75l2.46875 0l0 6.609375l1.546875 0l0 0.75l-4.1875 0l0 -0.75l1.71875 0l0 -5.859375zm8.296356 6.53125q-0.3125 0.078125 -0.640625 0.109375q-0.328125 0.046875 -0.671875 0.046875q-0.984375 0 -1.46875 -0.4375q-0.46875 -0.453125 -0.46875 -1.375l0 -2.734375l-1.46875 0l0 -0.75l1.46875 0l0 -1.4375l0.890625 -0.234375l0 1.671875l2.359375 0l0 0.75l-2.359375 0l0 2.65625q0 0.5625 0.296875 0.84375q0.3125 0.28125 0.890625 0.28125q0.25 0 0.546875 -0.03125q0.296875 -0.046875 0.625 -0.140625l0 0.78125zm2.7182312 -7.671875q2.390625 2.21875 2.390625 4.953125q0 0.546875 -0.125 1.15625q-0.109375 0.609375 -0.390625 1.25q-0.265625 0.625 -0.734375 1.265625q-0.453125 0.65625 -1.171875 1.3125l-0.515625 -0.53125q1.015625 -1.015625 1.5 -2.109375q0.5 -1.09375 0.5 -2.28125q0 -2.484375 -2.0 -4.453125l0.546875 -0.5625z" fill-rule="nonzero"/></g></svg>