<?xml version="1.0" standalone="no"?>
<!DOCTYPE svg PUBLIC "-//W3C//DTD SVG 20010904//EN"
 "http://www.w3.org/TR/2001/REC-SVG-20010904/DTD/svg10.dtd">
<svg version="1.0" xmlns="http://www.w3.org/2000/svg"
 width="1024.000000pt" height="1024.000000pt" viewBox="0 0 1024.000000 1024.000000"
 preserveAspectRatio="xMidYMid meet">
<metadata>
Created by potrace 1.11, written by Peter Selinger 2001-2013
</metadata>
<g transform="translate(0.000000,1024.000000) scale(0.100000,-0.100000)"
fill="#000000" stroke="none">
<path d="M3040 10224 c-46 -20 -68 -41 -93 -89 -20 -39 -21 -52 -21 -689 l-1
-650 -741 0 -740 0 0 -734 c1 -478 -2 -736 -9 -741 -5 -4 -289 -7 -630 -6
-341 0 -638 -3 -660 -8 -54 -11 -104 -51 -126 -103 -19 -41 -19 -71 -17 -636
l3 -593 25 -38 c15 -22 45 -47 74 -62 l50 -25 643 0 c354 0 643 -3 644 -7 0
-5 1 -86 2 -181 l1 -173 671 3 c726 3 689 0 743 58 56 59 54 24 54 936 l0 842
842 0 c912 0 875 -2 937 54 60 53 59 39 59 757 l0 657 -171 0 c-94 -1 -175 1
-180 4 -4 3 -10 300 -11 660 l-3 655 -24 36 c-14 19 -41 46 -60 60 l-36 24
-595 2 c-514 2 -600 0 -630 -13z"/>
<path d="M5981 10233 c-36 -7 -116 -93 -124 -132 -4 -18 -7 -320 -7 -670 l0
-636 -177 0 -178 0 -3 -649 c-1 -411 2 -662 8 -686 5 -20 24 -52 41 -69 62
-65 17 -62 944 -62 l843 0 0 -845 c1 -838 1 -845 22 -888 12 -26 38 -56 62
-72 l41 -29 672 -3 672 -3 1 168 c0 92 1 174 1 181 1 9 136 12 640 12 450 0
648 3 672 11 45 16 87 55 110 104 17 37 19 77 19 618 0 634 1 620 -60 679 -17
16 -43 34 -58 40 -19 7 -227 11 -669 12 -353 0 -645 4 -649 9 -4 4 -8 337 -8
740 l-1 732 -735 2 c-404 0 -737 2 -740 2 -3 1 -5 284 -5 630 0 346 -4 647 -8
669 -10 53 -70 116 -122 131 -39 11 -1148 14 -1204 4z"/>
<path d="M3669 6555 c-3 -257 0 -2878 4 -2882 3 -3 661 -6 1461 -7 l1456 -1 1
25 c1 33 1 2825 0 2870 l-1 35 -1460 0 -1460 0 -1 -40z"/>
<path d="M1444 4579 c1 -94 -1 -175 -5 -180 -3 -5 -282 -9 -645 -9 -598 -1
-642 -2 -679 -19 -44 -20 -85 -61 -103 -104 -8 -20 -12 -187 -12 -613 0 -563
1 -587 20 -624 22 -43 69 -82 115 -96 17 -6 304 -9 667 -9 563 0 637 -1 640
-15 2 -8 3 -340 2 -737 0 -507 3 -723 10 -726 6 -2 337 -3 734 -3 473 1 726
-2 730 -9 4 -5 7 -298 8 -650 1 -725 -3 -689 82 -750 l44 -30 571 -3 c315 -2
591 0 615 3 53 8 108 54 133 111 17 38 18 86 19 679 0 362 4 641 9 644 5 4 86
6 180 5 l171 -1 0 657 c0 716 1 698 -57 756 -58 58 -22 56 -939 56 l-842 0 0
842 c0 922 2 885 -59 942 -59 55 -42 53 -752 54 l-658 0 1 -171z"/>
<path d="M7455 4739 c-42 -12 -100 -70 -115 -113 -8 -26 -12 -260 -13 -873
l-2 -838 -838 -2 c-604 -1 -848 -5 -874 -14 -42 -13 -89 -61 -109 -108 -12
-28 -14 -147 -14 -690 l0 -658 178 1 177 0 5 -654 c6 -738 1 -696 83 -755 l42
-30 592 -3 c578 -3 594 -2 637 18 54 24 92 71 103 125 5 22 8 322 8 668 0 345
2 627 5 628 3 0 336 2 740 2 l735 2 2 730 c0 402 2 735 2 740 1 7 209 10 630
10 346 0 648 4 670 8 55 11 115 68 130 124 8 30 11 214 9 625 l-3 583 -30 41
c-60 85 -7 79 -747 82 -615 2 -658 4 -659 20 0 9 -1 90 -2 180 l0 162 -656 -1
c-361 0 -670 -5 -686 -10z"/>
</g>
</svg>
