<?xml version="1.0" encoding="UTF-8" standalone="no"?>
<!DOCTYPE svg PUBLIC "-//W3C//DTD SVG 1.1//EN" "http://www.w3.org/Graphics/SVG/1.1/DTD/svg11.dtd">
<!-- Generated by Microsoft Visio, SVG Export entsrc_blk_diag.svg Page-1 -->
<svg xmlns="http://www.w3.org/2000/svg" xmlns:xlink="http://www.w3.org/1999/xlink" xmlns:ev="http://www.w3.org/2001/xml-events"
		xmlns:v="http://schemas.microsoft.com/visio/2003/SVGExtensions/" width="11in" height="8.5in" viewBox="0 0 792 612"
		xml:space="preserve" color-interpolation-filters="sRGB" class="st22">
	<v:documentProperties v:langID="1033" v:viewMarkup="false">
		<v:userDefs>
			<v:ud v:nameU="msvSubprocessMaster" v:prompt="" v:val="VT4(Rectangle)"/>
			<v:ud v:nameU="msvNoAutoConnect" v:val="VT0(1):26"/>
		</v:userDefs>
	</v:documentProperties>

	<style type="text/css">
	<![CDATA[
		.st1 {fill:#ffffff;stroke:#000000;stroke-width:0.25}
		.st2 {fill:#000000;font-family:Calibri;font-size:0.833336em}
		.st3 {fill:none;stroke:none;stroke-width:0.25}
		.st4 {font-size:1em}
		.st5 {marker-end:url(#mrkr13-21);marker-start:url(#mrkr13-19);stroke:#000000;stroke-linecap:round;stroke-linejoin:round;stroke-width:2.25}
		.st6 {fill:#000000;fill-opacity:1;stroke:#000000;stroke-opacity:1;stroke-width:0.47169811320755}
		.st7 {stroke:#000000;stroke-linecap:round;stroke-linejoin:round;stroke-width:0.25}
		.st8 {marker-end:url(#mrkr5-55);stroke:#e8ebf4;stroke-width:0.75}
		.st9 {fill:#e8ebf4;fill-opacity:1;stroke:#e8ebf4;stroke-opacity:1;stroke-width:0.22935779816514}
		.st10 {marker-end:url(#mrkr5-70);stroke:#000000;stroke-width:0.75}
		.st11 {fill:#000000;fill-opacity:1;stroke:#000000;stroke-opacity:1;stroke-width:0.22935779816514}
		.st12 {marker-end:url(#mrkr5-98);stroke:#000000;stroke-linecap:round;stroke-linejoin:round;stroke-width:1}
		.st13 {fill:#000000;fill-opacity:1;stroke:#000000;stroke-opacity:1;stroke-width:0.28409090909091}
		.st14 {fill:#ffffff;stroke:#000000;stroke-width:0.75}
		.st15 {stroke:#e8ebf4;stroke-width:0.75}
		.st16 {marker-end:url(#mrkr5-240);stroke:#e8ebf4;stroke-width:1}
		.st17 {fill:#e8ebf4;fill-opacity:1;stroke:#e8ebf4;stroke-opacity:1;stroke-width:0.28409090909091}
		.st18 {marker-end:url(#mrkr5-98);stroke:#000000;stroke-width:1}
		.st19 {stroke:#000000;stroke-linecap:round;stroke-linejoin:round;stroke-width:1}
		.st20 {stroke:#000000;stroke-width:1}
		.st21 {fill:#ffffff;marker-end:url(#mrkr5-98);stroke:#000000;stroke-width:1}
		.st22 {fill:none;fill-rule:evenodd;font-size:12px;overflow:visible;stroke-linecap:square;stroke-miterlimit:3}
	]]>
	</style>

	<defs id="Markers">
		<g id="lend13">
			<path d="M 3 1 L 0 0 L 3 -1 L 3 1 " style="stroke:none"/>
		</g>
		<marker id="mrkr13-19" class="st6" v:arrowType="13" v:arrowSize="2" v:setback="6.2" refX="6.2" orient="auto"
				markerUnits="strokeWidth" overflow="visible">
			<use xlink:href="#lend13" transform="scale(2.12) "/>
		</marker>
		<marker id="mrkr13-21" class="st6" v:arrowType="13" v:arrowSize="2" v:setback="6.36" refX="-6.36" orient="auto"
				markerUnits="strokeWidth" overflow="visible">
			<use xlink:href="#lend13" transform="scale(-2.12,-2.12) "/>
		</marker>
		<g id="lend5">
			<path d="M 2 1 L 0 0 L 1.98117 -0.993387 C 1.67173 -0.364515 1.67301 0.372641 1.98465 1.00043 " style="stroke:none"/>
		</g>
		<marker id="mrkr5-55" class="st9" v:arrowType="5" v:arrowSize="2" v:setback="7.63" refX="-7.63" orient="auto"
				markerUnits="strokeWidth" overflow="visible">
			<use xlink:href="#lend5" transform="scale(-4.36,-4.36) "/>
		</marker>
		<marker id="mrkr5-70" class="st11" v:arrowType="5" v:arrowSize="2" v:setback="7.63" refX="-7.63" orient="auto"
				markerUnits="strokeWidth" overflow="visible">
			<use xlink:href="#lend5" transform="scale(-4.36,-4.36) "/>
		</marker>
		<marker id="mrkr5-98" class="st13" v:arrowType="5" v:arrowSize="2" v:setback="6.16" refX="-6.16" orient="auto"
				markerUnits="strokeWidth" overflow="visible">
			<use xlink:href="#lend5" transform="scale(-3.52,-3.52) "/>
		</marker>
		<marker id="mrkr5-240" class="st17" v:arrowType="5" v:arrowSize="2" v:setback="6.16" refX="-6.16" orient="auto"
				markerUnits="strokeWidth" overflow="visible">
			<use xlink:href="#lend5" transform="scale(-3.52,-3.52) "/>
		</marker>
	</defs>
	<g v:mID="0" v:index="1" v:groupContext="foregroundPage">
		<v:userDefs>
			<v:ud v:nameU="msvThemeOrder" v:val="VT0(0):26"/>
		</v:userDefs>
		<title>Page-1</title>
		<v:pageProperties v:drawingScale="1" v:pageScale="1" v:drawingUnits="0" v:shadowOffsetX="9" v:shadowOffsetY="-9"/>
		<v:layer v:name="Flowchart" v:index="0"/>
		<g id="shape480-1" v:mID="480" v:groupContext="shape" transform="translate(73.8258,-135)">
			<title>Sheet.480</title>
			<desc>Registers</desc>
			<v:textBlock v:margins="rect(4,4,4,4)" v:verticalAlign="0"/>
			<v:textRect cx="71.7998" cy="396" width="143.6" height="432"/>
			<rect x="0" y="180" width="143.6" height="432" class="st1"/>
			<text x="53.28" y="193" class="st2" v:langID="1033"><v:paragraph v:horizAlign="1"/><v:tabList/>Registers</text>		</g>
		<g id="shape484-4" v:mID="484" v:groupContext="shape" transform="translate(118.18,-318.255)">
			<title>Sheet.484</title>
			<v:textBlock v:margins="rect(4,4,4,4)" v:verticalAlign="0"/>
			<rect x="0" y="551.545" width="99.2459" height="60.4551" class="st3"/>
		</g>
		<g id="shape490-6" v:mID="490" v:groupContext="shape" transform="translate(118.18,-465.75)">
			<title>Sheet.490</title>
			<desc>es_conf.q es_seed.q es_rate.q es_threshold.q</desc>
			<v:textBlock v:margins="rect(4,4,4,4)" v:verticalAlign="0"/>
			<v:textRect cx="49.6229" cy="561.375" width="99.25" height="101.25"/>
			<rect x="0" y="510.75" width="99.2459" height="101.25" class="st3"/>
			<text x="55.79" y="571.75" class="st2" v:langID="1033"><v:paragraph v:horizAlign="2"/><v:tabList/><v:space/><v:newlineChar/><v:newlineChar/><v:newlineChar/><v:space/><v:space/><v:newlineChar/>es_conf.q<tspan
						x="52.22" dy="1.2em" class="st4"> </tspan>es_seed.q<tspan x="54.74" dy="1.2em" class="st4"> </tspan>es_rate.q<tspan
						x="32.29" dy="1.2em" class="st4"> </tspan>es_threshold.q<tspan dy="1.2em" class="st4"> </tspan><v:newlineChar/> </text>		</g>
		<g id="shape491-13" v:mID="491" v:groupContext="shape" transform="translate(18,-468)">
			<title>Sheet.491</title>
			<path d="M13.95 612 L14.31 612 L41.52 612" class="st5"/>
		</g>
		<g id="shape492-22" v:mID="492" v:groupContext="shape" transform="translate(73.8258,-419.772)">
			<title>Sheet.492</title>
			<desc>TLUL Interface</desc>
			<v:textBlock v:margins="rect(4,4,4,4)" v:verticalAlign="0"/>
			<v:textRect cx="49.6229" cy="581.772" width="99.25" height="60.4551"/>
			<rect x="0" y="551.545" width="99.2459" height="60.4551" class="st3"/>
			<text x="6.26" y="564.55" class="st2" v:langID="1033"><v:paragraph/><v:tabList/>TLUL Interface<v:newlineChar/></text>		</g>
		<g id="group507-25" transform="translate(374.085,-471.61)" v:mID="507" v:groupContext="group">
			<title>Sheet.507</title>
			<g id="shape508-26" v:mID="508" v:groupContext="shape" transform="translate(10.4997,0)">
				<title>Sheet.508</title>
				<rect x="0" y="586.36" width="10.3868" height="25.6401" class="st1"/>
			</g>
			<g id="shape509-28" v:mID="509" v:groupContext="shape" transform="translate(20.8865,0)">
				<title>Sheet.509</title>
				<rect x="0" y="586.36" width="10.3868" height="25.6401" class="st1"/>
			</g>
			<g id="shape510-30" v:mID="510" v:groupContext="shape" transform="translate(31.2732,0)">
				<title>Sheet.510</title>
				<rect x="0" y="586.36" width="10.3868" height="25.6401" class="st1"/>
			</g>
			<g id="shape511-32" v:mID="511" v:groupContext="shape" transform="translate(41.66,0)">
				<title>Sheet.511</title>
				<rect x="0" y="586.36" width="10.3868" height="25.6401" class="st1"/>
			</g>
			<g id="shape512-34" v:mID="512" v:groupContext="shape" transform="translate(51.708,1198.36) rotate(180)">
				<title>Sheet.512</title>
				<path d="M0 612 L51.71 612" class="st7"/>
			</g>
			<g id="shape513-37" v:mID="513" v:groupContext="shape" transform="translate(51.708,1224) rotate(180)">
				<title>Sheet.513</title>
				<path d="M0 612 L51.71 612" class="st7"/>
			</g>
		</g>
		<g id="shape514-40" v:mID="514" v:groupContext="shape" transform="translate(368.472,-502.305)">
			<title>Sheet.514</title>
			<desc>Dig Src FIFO 8w x 4d</desc>
			<v:textBlock v:margins="rect(4,4,4,4)"/>
			<v:textRect cx="36" cy="599.18" width="72" height="25.6401"/>
			<rect x="0" y="586.36" width="72" height="25.6401" class="st3"/>
			<text x="11.84" y="596.18" class="st2" v:langID="1033"><v:paragraph v:horizAlign="1"/><v:tabList/>Dig Src FIFO <v:newlineChar/><tspan
						x="20.3" dy="1.2em" class="st4">8w x 4d</tspan></text>		</g>
		<g id="shape519-44" v:mID="519" v:groupContext="shape" transform="translate(261.977,-502.305)">
			<title>Sheet.519</title>
			<desc>LFSR</desc>
			<v:textBlock v:margins="rect(4,4,4,4)"/>
			<v:textRect cx="26.0234" cy="601.305" width="52.05" height="21.3904"/>
			<rect x="0" y="590.61" width="52.0468" height="21.3904" class="st1"/>
			<text x="16.61" y="604.3" class="st2" v:langID="1033"><v:paragraph v:horizAlign="1"/><v:tabList/>LFSR</text>		</g>
		<g id="shape575-47" v:mID="575" v:groupContext="shape" transform="translate(252,-471.61)">
			<title>LSFR block.519</title>
			<desc>Count Down</desc>
			<v:textBlock v:margins="rect(4,4,4,4)"/>
			<v:textRect cx="36" cy="601.305" width="72" height="21.3904"/>
			<rect x="0" y="590.61" width="72" height="21.3904" class="st1"/>
			<text x="10.72" y="604.3" class="st2" v:langID="1033"><v:paragraph v:horizAlign="1"/><v:tabList/>Count Down</text>		</g>
		<g id="shape578-50" v:mID="578" v:groupContext="shape" transform="translate(217.425,-238.5)">
			<title>Sheet.578</title>
			<path d="M300.82 553.5 L319.9 553.5 L319.9 612 L5.72 612" class="st8"/>
		</g>
		<g id="shape579-56" v:mID="579" v:groupContext="shape" transform="translate(218.576,-238.5)">
			<title>Sheet.579</title>
			<path d="M300.75 553.5 L318.75 553.5 L318.75 612 L5.72 612" class="st8"/>
		</g>
		<g id="shape581-61" v:mID="581" v:groupContext="shape" transform="translate(195.326,-252)">
			<title>Sheet.581</title>
		</g>
		<g id="shape582-62" v:mID="582" v:groupContext="shape" transform="translate(258.326,-257.055)">
			<title>LSFR block.582</title>
			<desc>Thresh &#62;= depth</desc>
			<v:textBlock v:margins="rect(4,4,4,4)"/>
			<v:textRect cx="40.5" cy="601.305" width="81" height="21.3904"/>
			<rect x="0" y="590.61" width="81" height="21.3904" class="st1"/>
			<text x="7.34" y="604.3" class="st2" v:langID="1033"><v:paragraph v:horizAlign="1"/><v:tabList/>Thresh &#62;= depth</text>		</g>
		<g id="shape588-65" v:mID="588" v:groupContext="shape" transform="translate(217.425,-252)">
			<title>Sheet.588</title>
			<path d="M40.9 594 L21.4 594 L21.4 612 L5.72 612" class="st10"/>
		</g>
		<g id="shape589-71" v:mID="589" v:groupContext="shape" transform="translate(111.203,-212.625)">
			<title>Sheet.589</title>
			<desc>es_status.d es_fdepthst.d es_entropy.d es_entropy_rd</desc>
			<v:textBlock v:margins="rect(4,4,4,4)" v:verticalAlign="0"/>
			<v:textRect cx="49.6229" cy="561.375" width="99.25" height="101.25"/>
			<rect x="0" y="510.75" width="99.2459" height="101.25" class="st3"/>
			<text x="49.03" y="571.75" class="st2" v:langID="1033"><v:paragraph v:horizAlign="2"/><v:tabList/><v:space/><v:newlineChar/><v:newlineChar/><v:newlineChar/><v:space/><v:newlineChar/>es_status.d<tspan
						x="36.94" dy="1.2em" class="st4"> </tspan>es_fdepthst.d<tspan x="39.22" dy="1.2em" class="st4"> </tspan>es_entropy.d<tspan
						x="33.28" dy="1.2em" class="st4"> </tspan>es_entropy_rd<tspan dy="1.2em" class="st4"> </tspan><v:newlineChar/> </text>		</g>
		<g id="shape590-78" v:mID="590" v:groupContext="shape" transform="translate(616.722,-547.155)">
			<title>LSFR block.590</title>
			<desc>Note: Quarantine FIFO depths are parameterized</desc>
			<v:textBlock v:margins="rect(4,4,4,4)" v:verticalAlign="0"/>
			<v:textRect cx="49.2779" cy="589.5" width="98.56" height="45"/>
			<rect x="0" y="567" width="98.5559" height="45" class="st3"/>
			<text x="4" y="580" class="st2" v:langID="1033"><v:paragraph/><v:tabList/>Note: Quarantine <tspan x="4" dy="1.2em"
						class="st4">FIFO depths are </tspan><tspan x="4" dy="1.2em" class="st4">parameterized</tspan></text>		</g>
		<g id="shape591-83" v:mID="591" v:groupContext="shape" transform="translate(230.625,-504)">
			<title>Sheet.591</title>
		</g>
		<g id="shape592-84" v:mID="592" v:groupContext="shape" transform="translate(85.5385,-70.035)">
			<title>Sheet.592</title>
			<desc>Analog entropy source</desc>
			<v:textBlock v:margins="rect(4,4,4,4)" v:verticalAlign="0"/>
			<v:textRect cx="60.0871" cy="589.5" width="120.18" height="45"/>
			<rect x="0" y="567" width="120.174" height="45" class="st3"/>
			<text x="24.3" y="592" class="st2" v:langID="1033"><v:paragraph v:horizAlign="2"/><v:tabList/><v:space/><v:newlineChar/>Analog entropy source<v:newlineChar/> </text>		</g>
		<g id="shape600-87" v:mID="600" v:groupContext="shape" transform="translate(270,-110.645)">
			<title>Sheet.600</title>
			<desc>Ana Src Async FIFO 8w x 4d</desc>
			<v:textBlock v:margins="rect(4,4,4,4)"/>
			<v:textRect cx="36" cy="589.5" width="72" height="45"/>
			<rect x="0" y="567" width="72" height="45" class="st3"/>
			<text x="20.8" y="580.5" class="st2" v:langID="1033"><v:paragraph v:horizAlign="1"/><v:tabList/>Ana Src<v:newlineChar/><tspan
						x="12.72" dy="1.2em" class="st4"> </tspan>Async FIFO <v:newlineChar/><tspan x="20.3" dy="1.2em" class="st4">8w x 4d</tspan></text>		</g>
		<g id="group629-92" transform="translate(432,-353.831)" v:mID="629" v:groupContext="group">
			<title>4:1 mux</title>
			<g id="shape631-93" v:mID="631" v:groupContext="shape" transform="translate(0.902948,-131.874)">
				<title>Sheet.631</title>
				<path d="M0 612 L28.49 612" class="st12"/>
			</g>
			<g id="shape636-99" v:mID="636" v:groupContext="shape" transform="translate(36.6571,-16.6788)">
				<title>Sheet.636</title>
				<path d="M0 595.65 L0 612 L17.34 595.65 L17.34 486.15 L0 469.8 L0 486.15 L0 595.65 Z" class="st14"/>
			</g>
		</g>
		<g id="shape662-101" v:mID="662" v:groupContext="shape" transform="translate(540,-388.36)">
			<title>LSFR block.662</title>
			<desc>3</desc>
			<v:textBlock v:margins="rect(4,4,4,4)"/>
			<v:textRect cx="12" cy="599.18" width="24.01" height="25.6401"/>
			<rect x="0" y="586.36" width="24" height="25.6401" class="st1"/>
			<text x="9.47" y="602.18" class="st2" v:langID="1033"><v:paragraph v:horizAlign="1"/><v:tabList/>3</text>		</g>
		<g id="shape663-104" v:mID="663" v:groupContext="shape" transform="translate(513,-522.532)">
			<title>Sheet.663</title>
			<desc>Byte Alignment</desc>
			<v:textBlock v:margins="rect(4,4,4,4)"/>
			<v:textRect cx="36" cy="599.18" width="72" height="25.6401"/>
			<rect x="0" y="586.36" width="72" height="25.6401" class="st3"/>
			<text x="26.85" y="596.18" class="st2" v:langID="1033"><v:paragraph v:horizAlign="1"/><v:tabList/>Byte<v:newlineChar/><tspan
						x="15.05" dy="1.2em" class="st4">Alignment</tspan></text>		</g>
		<g id="shape665-108" v:mID="665" v:groupContext="shape" transform="translate(540,-420.448)">
			<title>LSFR block.665</title>
			<desc>2</desc>
			<v:textBlock v:margins="rect(4,4,4,4)"/>
			<v:textRect cx="12" cy="599.18" width="24.01" height="25.6401"/>
			<rect x="0" y="586.36" width="24" height="25.6401" class="st1"/>
			<text x="9.47" y="602.18" class="st2" v:langID="1033"><v:paragraph v:horizAlign="1"/><v:tabList/>2</text>		</g>
		<g id="shape666-111" v:mID="666" v:groupContext="shape" transform="translate(540,-452.536)">
			<title>LSFR block.666</title>
			<desc>1</desc>
			<v:textBlock v:margins="rect(4,4,4,4)"/>
			<v:textRect cx="12" cy="599.18" width="24.01" height="25.6401"/>
			<rect x="0" y="586.36" width="24" height="25.6401" class="st1"/>
			<text x="9.47" y="602.18" class="st2" v:langID="1033"><v:paragraph v:horizAlign="1"/><v:tabList/>1</text>		</g>
		<g id="shape667-114" v:mID="667" v:groupContext="shape" transform="translate(540,-484.624)">
			<title>LSFR block.667</title>
			<desc>0</desc>
			<v:textBlock v:margins="rect(4,4,4,4)"/>
			<v:textRect cx="12" cy="599.18" width="24.01" height="25.6401"/>
			<rect x="0" y="586.36" width="24" height="25.6401" class="st1"/>
			<text x="9.47" y="602.18" class="st2" v:langID="1033"><v:paragraph v:horizAlign="1"/><v:tabList/>0</text>		</g>
		<g id="group676-117" transform="translate(626.084,-450)" v:mID="676" v:groupContext="group">
			<title>Sheet.676</title>
			<g id="shape677-118" v:mID="677" v:groupContext="shape" transform="translate(10.4997,0)">
				<title>Sheet.677</title>
				<rect x="0" y="551.545" width="10.3868" height="60.4551" class="st1"/>
			</g>
			<g id="shape678-120" v:mID="678" v:groupContext="shape" transform="translate(20.8865,0)">
				<title>Sheet.678</title>
				<rect x="0" y="551.545" width="10.3868" height="60.4551" class="st1"/>
			</g>
			<g id="shape679-122" v:mID="679" v:groupContext="shape" transform="translate(31.2732,0)">
				<title>Sheet.679</title>
				<rect x="0" y="551.545" width="10.3868" height="60.4551" class="st1"/>
			</g>
			<g id="shape680-124" v:mID="680" v:groupContext="shape" transform="translate(41.66,0)">
				<title>Sheet.680</title>
				<rect x="0" y="551.545" width="10.3868" height="60.4551" class="st1"/>
			</g>
			<g id="shape681-126" v:mID="681" v:groupContext="shape" transform="translate(51.708,1163.54) rotate(180)">
				<title>Sheet.681</title>
				<path d="M0 612 L51.71 612" class="st7"/>
			</g>
			<g id="shape682-129" v:mID="682" v:groupContext="shape" transform="translate(51.708,1224) rotate(180)">
				<title>Sheet.682</title>
				<path d="M0 612 L51.71 612" class="st7"/>
			</g>
		</g>
		<g id="shape683-132" v:mID="683" v:groupContext="shape" transform="translate(612,-512.11)">
			<title>Sheet.683</title>
			<desc>Quar0 FIFO 32w x Nd</desc>
			<v:textBlock v:margins="rect(4,4,4,4)"/>
			<v:textRect cx="36" cy="599.18" width="72" height="25.6401"/>
			<rect x="0" y="586.36" width="72" height="25.6401" class="st3"/>
			<text x="13.04" y="596.18" class="st2" v:langID="1033"><v:paragraph v:horizAlign="1"/><v:tabList/>Quar0 FIFO <v:newlineChar/><tspan
						x="17.08" dy="1.2em" class="st4">32w x Nd</tspan></text>		</g>
		<g id="group692-136" transform="translate(626.084,-342)" v:mID="692" v:groupContext="group">
			<title>Sheet.692</title>
			<g id="shape693-137" v:mID="693" v:groupContext="shape" transform="translate(10.4997,0)">
				<title>Sheet.693</title>
				<rect x="0" y="551.545" width="10.3868" height="60.4551" class="st1"/>
			</g>
			<g id="shape694-139" v:mID="694" v:groupContext="shape" transform="translate(20.8865,0)">
				<title>Sheet.694</title>
				<rect x="0" y="551.545" width="10.3868" height="60.4551" class="st1"/>
			</g>
			<g id="shape695-141" v:mID="695" v:groupContext="shape" transform="translate(31.2732,0)">
				<title>Sheet.695</title>
				<rect x="0" y="551.545" width="10.3868" height="60.4551" class="st1"/>
			</g>
			<g id="shape696-143" v:mID="696" v:groupContext="shape" transform="translate(41.66,0)">
				<title>Sheet.696</title>
				<rect x="0" y="551.545" width="10.3868" height="60.4551" class="st1"/>
			</g>
			<g id="shape697-145" v:mID="697" v:groupContext="shape" transform="translate(51.708,1163.54) rotate(180)">
				<title>Sheet.697</title>
				<path d="M0 612 L51.71 612" class="st7"/>
			</g>
			<g id="shape698-148" v:mID="698" v:groupContext="shape" transform="translate(51.708,1224) rotate(180)">
				<title>Sheet.698</title>
				<path d="M0 612 L51.71 612" class="st7"/>
			</g>
		</g>
		<g id="shape699-151" v:mID="699" v:groupContext="shape" transform="translate(612,-404.11)">
			<title>Sheet.699</title>
			<desc>Quar1 FIFO 32w x Nd</desc>
			<v:textBlock v:margins="rect(4,4,4,4)"/>
			<v:textRect cx="36" cy="599.18" width="72" height="25.6401"/>
			<rect x="0" y="586.36" width="72" height="25.6401" class="st3"/>
			<text x="13.04" y="596.18" class="st2" v:langID="1033"><v:paragraph v:horizAlign="1"/><v:tabList/>Quar1 FIFO <v:newlineChar/><tspan
						x="17.08" dy="1.2em" class="st4">32w x Nd</tspan></text>		</g>
		<g id="shape700-155" v:mID="700" v:groupContext="shape" transform="translate(530.033,-287.93)">
			<title>Sheet.700</title>
			<desc>Load SM</desc>
			<v:textBlock v:margins="rect(4,4,4,4)"/>
			<v:textRect cx="16.9837" cy="599.18" width="33.97" height="25.6401"/>
			<rect x="0" y="586.36" width="33.9675" height="25.6401" class="st1"/>
			<text x="7.22" y="596.18" class="st2" v:langID="1033"><v:paragraph v:horizAlign="1"/><v:tabList/>Load<v:newlineChar/><tspan
						x="10.41" dy="1.2em" class="st4">SM</tspan></text>		</g>
		<g id="group701-159" transform="translate(684.444,-352.563)" v:mID="701" v:groupContext="group">
			<title>4:1 mux.701</title>
			<g id="shape702-160" v:mID="702" v:groupContext="shape" transform="translate(0.902948,-131.874)">
				<title>Sheet.702</title>
				<path d="M0 612 L28.49 612" class="st12"/>
			</g>
			<g id="shape704-165" v:mID="704" v:groupContext="shape" transform="translate(2.00414,-25.4369)">
				<title>Sheet.704</title>
				<path d="M0 612 L28.49 612" class="st12"/>
			</g>
			<g id="shape705-170" v:mID="705" v:groupContext="shape" transform="translate(36.6571,10.5631)">
				<title>Sheet.705</title>
				<path d="M0 592.52 L0 612 L17.34 592.52 L17.34 462.04 L0 442.56 L0 462.04 L0 592.52 Z" class="st14"/>
			</g>
		</g>
		<g id="shape706-172" v:mID="706" v:groupContext="shape" transform="translate(623.516,-287.93)">
			<title>Sheet.706</title>
			<desc>Swap Bit</desc>
			<v:textBlock v:margins="rect(4,4,4,4)"/>
			<v:textRect cx="16.9837" cy="599.18" width="33.97" height="25.6401"/>
			<rect x="0" y="586.36" width="33.9675" height="25.6401" class="st1"/>
			<text x="6.09" y="596.18" class="st2" v:langID="1033"><v:paragraph v:horizAlign="1"/><v:tabList/>Swap <tspan x="11.44"
						dy="1.2em" class="st4">Bit</tspan></text>		</g>
		<g id="group707-176" transform="translate(272.914,-79.715)" v:mID="707" v:groupContext="group">
			<title>Sheet.707</title>
			<g id="shape708-177" v:mID="708" v:groupContext="shape" transform="translate(10.4997,0)">
				<title>Sheet.708</title>
				<rect x="0" y="586.36" width="10.3868" height="25.6401" class="st1"/>
			</g>
			<g id="shape709-179" v:mID="709" v:groupContext="shape" transform="translate(20.8865,0)">
				<title>Sheet.709</title>
				<rect x="0" y="586.36" width="10.3868" height="25.6401" class="st1"/>
			</g>
			<g id="shape710-181" v:mID="710" v:groupContext="shape" transform="translate(31.2732,0)">
				<title>Sheet.710</title>
				<rect x="0" y="586.36" width="10.3868" height="25.6401" class="st1"/>
			</g>
			<g id="shape711-183" v:mID="711" v:groupContext="shape" transform="translate(41.66,0)">
				<title>Sheet.711</title>
				<rect x="0" y="586.36" width="10.3868" height="25.6401" class="st1"/>
			</g>
			<g id="shape712-185" v:mID="712" v:groupContext="shape" transform="translate(51.708,1198.36) rotate(180)">
				<title>Sheet.712</title>
				<path d="M0 612 L51.71 612" class="st7"/>
			</g>
			<g id="shape713-188" v:mID="713" v:groupContext="shape" transform="translate(51.708,1224) rotate(180)">
				<title>Sheet.713</title>
				<path d="M0 612 L51.71 612" class="st7"/>
			</g>
		</g>
		<g id="group714-191" transform="translate(515.683,992.569) rotate(180)" v:mID="714" v:groupContext="group">
			<title>Sheet.714</title>
			<g id="shape715-192" v:mID="715" v:groupContext="shape" transform="translate(10.4997,0)">
				<title>Sheet.715</title>
				<rect x="0" y="551.545" width="10.3868" height="60.4551" class="st1"/>
			</g>
			<g id="shape716-194" v:mID="716" v:groupContext="shape" transform="translate(20.8865,0)">
				<title>Sheet.716</title>
				<rect x="0" y="551.545" width="10.3868" height="60.4551" class="st1"/>
			</g>
			<g id="shape717-196" v:mID="717" v:groupContext="shape" transform="translate(31.2732,0)">
				<title>Sheet.717</title>
				<rect x="0" y="551.545" width="10.3868" height="60.4551" class="st1"/>
			</g>
			<g id="shape718-198" v:mID="718" v:groupContext="shape" transform="translate(41.66,0)">
				<title>Sheet.718</title>
				<rect x="0" y="551.545" width="10.3868" height="60.4551" class="st1"/>
			</g>
			<g id="shape719-200" v:mID="719" v:groupContext="shape" transform="translate(51.708,1163.54) rotate(180)">
				<title>Sheet.719</title>
				<path d="M0 612 L51.71 612" class="st7"/>
			</g>
			<g id="shape720-203" v:mID="720" v:groupContext="shape" transform="translate(51.708,1224) rotate(180)">
				<title>Sheet.720</title>
				<path d="M0 612 L51.71 612" class="st7"/>
			</g>
		</g>
		<g id="shape721-206" v:mID="721" v:groupContext="shape" transform="translate(450,-235.384)">
			<title>Sheet.721</title>
			<desc>TLUL FIFO 32w x 4d</desc>
			<v:textBlock v:margins="rect(4,4,4,4)"/>
			<v:textRect cx="36" cy="599.18" width="72" height="25.6401"/>
			<rect x="0" y="586.36" width="72" height="25.6401" class="st3"/>
			<text x="15.86" y="596.18" class="st2" v:langID="1033"><v:paragraph v:horizAlign="1"/><v:tabList/>TLUL FIFO <v:newlineChar/><tspan
						x="17.77" dy="1.2em" class="st4">32w x 4d</tspan></text>		</g>
		<g id="group722-210" transform="translate(515.683,1109.54) rotate(180)" v:mID="722" v:groupContext="group">
			<title>Sheet.722</title>
			<g id="shape723-211" v:mID="723" v:groupContext="shape" transform="translate(10.4997,0)">
				<title>Sheet.723</title>
				<rect x="0" y="551.545" width="10.3868" height="60.4551" class="st1"/>
			</g>
			<g id="shape724-213" v:mID="724" v:groupContext="shape" transform="translate(20.8865,0)">
				<title>Sheet.724</title>
				<rect x="0" y="551.545" width="10.3868" height="60.4551" class="st1"/>
			</g>
			<g id="shape725-215" v:mID="725" v:groupContext="shape" transform="translate(31.2732,0)">
				<title>Sheet.725</title>
				<rect x="0" y="551.545" width="10.3868" height="60.4551" class="st1"/>
			</g>
			<g id="shape726-217" v:mID="726" v:groupContext="shape" transform="translate(41.66,0)">
				<title>Sheet.726</title>
				<rect x="0" y="551.545" width="10.3868" height="60.4551" class="st1"/>
			</g>
			<g id="shape727-219" v:mID="727" v:groupContext="shape" transform="translate(51.708,1163.54) rotate(180)">
				<title>Sheet.727</title>
				<path d="M0 612 L51.71 612" class="st7"/>
			</g>
			<g id="shape728-222" v:mID="728" v:groupContext="shape" transform="translate(51.708,1224) rotate(180)">
				<title>Sheet.728</title>
				<path d="M0 612 L51.71 612" class="st7"/>
			</g>
		</g>
		<g id="shape729-225" v:mID="729" v:groupContext="shape" transform="translate(450,-118.407)">
			<title>Sheet.729</title>
			<desc>HWIF FIFO 32w x 4d</desc>
			<v:textBlock v:margins="rect(4,4,4,4)"/>
			<v:textRect cx="36" cy="599.18" width="72" height="25.6401"/>
			<rect x="0" y="586.36" width="72" height="25.6401" class="st3"/>
			<text x="14.58" y="596.18" class="st2" v:langID="1033"><v:paragraph v:horizAlign="1"/><v:tabList/>HWIF FIFO <v:newlineChar/><tspan
						x="17.77" dy="1.2em" class="st4">32w x 4d</tspan></text>		</g>
		<g id="shape730-229" v:mID="730" v:groupContext="shape" transform="translate(217.425,-198)">
			<title>Sheet.730</title>
			<path d="M43.57 576 L43.57 612 L246.21 612 L196.57 612 L196.57 571.5 L0 571.5" class="st15"/>
		</g>
		<g id="shape731-232" v:mID="731" v:groupContext="shape" transform="translate(522,-90)">
			<title>Sheet.731</title>
			<path d="M234 274.5 L234 612 L0 612" class="st15"/>
		</g>
		<g id="shape740-235" v:mID="740" v:groupContext="shape" transform="translate(720,-207)">
			<title>Sheet.740</title>
			<path d="M9.44 387 L36 391.5 L0.99 605.92" class="st16"/>
		</g>
		<g id="shape743-241" v:mID="743" v:groupContext="shape" transform="translate(378,-90)">
			<title>Sheet.743</title>
			<path d="M0 612 L0 306 L84.5 306" class="st18"/>
		</g>
		<g id="shape745-246" v:mID="745" v:groupContext="shape" transform="translate(216,-90)">
			<title>Sheet.745</title>
			<path d="M0 612 L47.84 612" class="st12"/>
		</g>
		<g id="shape746-251" v:mID="746" v:groupContext="shape" transform="translate(324.961,-90)">
			<title>Sheet.746</title>
			<path d="M0 612 L53.04 612" class="st19"/>
		</g>
		<g id="shape747-254" v:mID="747" v:groupContext="shape" transform="translate(217.425,-513)">
			<title>Sheet.747</title>
			<path d="M0 612 L38.39 612" class="st12"/>
		</g>
		<g id="shape748-259" v:mID="748" v:groupContext="shape" transform="translate(207,-514.36)">
			<title>Sheet.748</title>
			<desc>Load seed</desc>
			<v:textBlock v:margins="rect(4,4,4,4)"/>
			<v:textRect cx="36" cy="599.18" width="72" height="25.6401"/>
			<rect x="0" y="586.36" width="72" height="25.6401" class="st3"/>
			<text x="15.55" y="602.18" class="st2" v:langID="1033"><v:paragraph v:horizAlign="1"/><v:tabList/>Load seed</text>		</g>
		<g id="shape749-262" v:mID="749" v:groupContext="shape" transform="translate(441,-540.266)">
			<title>Sheet.749</title>
			<desc>Mode Select</desc>
			<v:textBlock v:margins="rect(4,4,4,4)"/>
			<v:textRect cx="36" cy="599.18" width="72" height="25.6401"/>
			<rect x="0" y="586.36" width="72" height="25.6401" class="st3"/>
			<text x="10.63" y="602.18" class="st2" v:langID="1033"><v:paragraph v:horizAlign="1"/><v:tabList/>Mode Select</text>		</g>
		<g id="shape750-265" v:mID="750" v:groupContext="shape" transform="translate(1088.97,65.3339) rotate(89.4008)">
			<title>Sheet.750</title>
			<path d="M0 612 L29.62 612" class="st12"/>
		</g>
		<g id="shape751-270" v:mID="751" v:groupContext="shape" transform="translate(217.425,-486)">
			<title>Sheet.751</title>
			<path d="M0 612 L28.41 612" class="st12"/>
		</g>
		<g id="shape752-275" v:mID="752" v:groupContext="shape" transform="translate(314.023,-486)">
			<title>Sheet.752</title>
			<path d="M0 585 L27.98 585 L27.98 612 L57.82 612" class="st18"/>
		</g>
		<g id="shape754-280" v:mID="754" v:groupContext="shape" transform="translate(306,-455.18)">
			<title>Sheet.754</title>
			<desc>push</desc>
			<v:textBlock v:margins="rect(4,4,4,4)"/>
			<v:textRect cx="36" cy="599.18" width="72" height="25.6401"/>
			<rect x="0" y="586.36" width="72" height="25.6401" class="st3"/>
			<text x="26.16" y="602.18" class="st2" v:langID="1033"><v:paragraph v:horizAlign="1"/><v:tabList/>push</text>		</g>
		<g id="shape755-283" v:mID="755" v:groupContext="shape" transform="translate(486,-450)">
			<title>Sheet.755</title>
			<path d="M0 612 L27 612 L27 567 L47.84 567" class="st18"/>
		</g>
		<g id="shape757-288" v:mID="757" v:groupContext="shape" transform="translate(513,-468)">
			<title>Sheet.757</title>
			<path d="M0 612 L20.84 612" class="st12"/>
		</g>
		<g id="shape758-293" v:mID="758" v:groupContext="shape" transform="translate(513,-400.5)">
			<title>Sheet.758</title>
			<path d="M0 562.5 L0 612 L20.84 612" class="st18"/>
		</g>
		<g id="shape759-298" v:mID="759" v:groupContext="shape" transform="translate(513,-432)">
			<title>Sheet.759</title>
			<path d="M0 612 L20.84 612" class="st12"/>
		</g>
		<g id="shape760-303" v:mID="760" v:groupContext="shape" transform="translate(-63,298.43) rotate(-90)">
			<title>Sheet.760</title>
			<path d="M0 612 L58.27 612" class="st12"/>
		</g>
		<g id="shape761-308" v:mID="761" v:groupContext="shape" transform="translate(564,-301.5)">
			<title>Sheet.761</title>
			<path d="M0 612 L53.36 612" class="st12"/>
		</g>
		<g id="shape762-313" v:mID="762" v:groupContext="shape" transform="translate(657.484,-301.5)">
			<title>Sheet.762</title>
			<path d="M0 612 L71.97 612 L72 568.76" class="st18"/>
		</g>
		<g id="shape767-318" v:mID="767" v:groupContext="shape" transform="translate(614.171,-144)">
			<title>Sheet.767</title>
			<path d="M126.33 325.12 L141.83 325.12 L141.83 612 L6.16 612" class="st18"/>
		</g>
		<g id="shape769-323" v:mID="769" v:groupContext="shape" transform="translate(81,-24.43)">
			<title>Sheet.769</title>
			<desc>Hw entropy interface</desc>
			<v:textBlock v:margins="rect(4,4,4,4)" v:verticalAlign="0"/>
			<v:textRect cx="60.0871" cy="599.18" width="120.18" height="25.6401"/>
			<rect x="0" y="586.36" width="120.174" height="25.6401" class="st3"/>
			<text x="29.75" y="599.36" class="st2" v:langID="1033"><v:paragraph v:horizAlign="2"/><v:tabList/>Hw entropy interface</text>		</g>
		<g id="shape770-326" v:mID="770" v:groupContext="shape" transform="translate(217.425,-198)">
			<title>Sheet.770</title>
			<path d="M246.07 612 L214.57 612 L214.57 580.5 L6.16 580.5" class="st18"/>
		</g>
		<g id="shape771-331" v:mID="771" v:groupContext="shape" transform="translate(216,-40.5)">
			<title>Sheet.771</title>
			<path d="M247.64 562.5 L216 562.5 L216 612 L6.16 612" class="st18"/>
		</g>
		<g id="shape772-336" v:mID="772" v:groupContext="shape" transform="translate(339.326,-225)">
			<title>Sheet.772</title>
			<path d="M124.31 612 L110.67 612 L110.67 575.98 L6.16 576" class="st18"/>
		</g>
		<g id="shape773-341" v:mID="773" v:groupContext="shape" transform="translate(396.657,-253.36)">
			<title>Sheet.773</title>
			<desc>depth</desc>
			<v:textBlock v:margins="rect(4,4,4,4)"/>
			<v:textRect cx="36" cy="599.18" width="72" height="25.6401"/>
			<rect x="0" y="586.36" width="72" height="25.6401" class="st3"/>
			<text x="23.96" y="602.18" class="st2" v:langID="1033"><v:paragraph v:horizAlign="1"/><v:tabList/>depth</text>		</g>
		<g id="shape778-344" v:mID="778" v:groupContext="shape" transform="translate(217.425,-243)">
			<title>Sheet.778</title>
			<path d="M141.82 594 L141.83 612 L6.16 612" class="st18"/>
		</g>
		<g id="shape780-349" v:mID="780" v:groupContext="shape" transform="translate(217.425,-278.445)">
			<title>Sheet.780</title>
			<path d="M0 422.45 L16.57 422.45 L16.57 530.45 L70.57 530.45 L70.57 605.84" class="st18"/>
		</g>
		<g id="shape781-354" v:mID="781" v:groupContext="shape" transform="translate(475.5,-326.842)">
			<title>Sheet.781</title>
			<desc>Health Checks</desc>
			<v:textBlock v:margins="rect(4,4,4,4)"/>
			<v:textRect cx="20.25" cy="597.577" width="40.5" height="28.8451"/>
			<rect x="0" y="583.155" width="40.5" height="28.8451" class="st1"/>
			<text x="6.8" y="594.58" class="st2" v:langID="1033"><v:paragraph v:horizAlign="1"/><v:tabList/>Health <tspan x="6.13"
						dy="1.2em" class="st4">Checks</tspan></text>		</g>
		<g id="group782-358" transform="translate(558,-55.5631)" v:mID="782" v:groupContext="group">
			<title>4:1 mux.782</title>
			<g id="shape784-359" v:mID="784" v:groupContext="shape" transform="translate(36.6571,-16.6788)">
				<title>Sheet.784</title>
				<path d="M0 595.65 L0 612 L17.34 595.65 L17.34 486.15 L0 469.8 L0 486.15 L0 595.65 Z" class="st14"/>
			</g>
		</g>
		<g id="shape786-361" v:mID="786" v:groupContext="shape" transform="translate(594.657,1026) rotate(180)">
			<title>Sheet.786</title>
			<path d="M0 612 L66.5 612" class="st12"/>
		</g>
		<g id="shape787-366" v:mID="787" v:groupContext="shape" transform="translate(594,1134) rotate(180)">
			<title>Sheet.787</title>
			<path d="M0 612 L66.5 612" class="st12"/>
		</g>
		<g id="shape789-371" v:mID="789" v:groupContext="shape" transform="translate(513,-207.394)">
			<title>Sheet.789</title>
			<path d="M0 580.89 L0 565.89 L90 565.89 L89.25 605.84" class="st16"/>
		</g>
		<g id="shape793-376" v:mID="793" v:groupContext="shape" transform="translate(513,-235.384)">
			<title>Sheet.793</title>
			<path d="M0 612 L0 595.38 L89.97 595.38" class="st20"/>
		</g>
		<g id="shape794-379" v:mID="794" v:groupContext="shape" transform="translate(1214.99,357.226) rotate(89.7404)">
			<title>Sheet.794</title>
			<path d="M0 612 L39.46 612" class="st12"/>
		</g>
		<g id="shape795-384" v:mID="795" v:groupContext="shape" transform="translate(549,-252)">
			<title>Sheet.795</title>
			<desc>not empty &#38; fuse enabled</desc>
			<v:textBlock v:margins="rect(4,4,4,4)"/>
			<v:textRect cx="36" cy="599.18" width="72" height="25.6401"/>
			<rect x="0" y="586.36" width="72" height="25.6401" class="st3"/>
			<text x="10.34" y="596.18" class="st2" v:langID="1033"><v:paragraph v:horizAlign="1"/><v:tabList/>not empty &#38; <tspan
						x="9.87" dy="1.2em" class="st4">fuse enabled</tspan></text>		</g>
		<g id="group796-388" transform="translate(652.278,702) rotate(180)" v:mID="796" v:groupContext="group">
			<title>4:1 mux.796</title>
			<g id="shape797-389" v:mID="797" v:groupContext="shape" transform="translate(36.6571,-16.6788)">
				<title>Sheet.797</title>
				<path d="M0 595.65 L0 612 L17.34 595.65 L17.34 486.15 L0 469.8 L0 486.15 L0 595.65 Z" class="st14"/>
			</g>
		</g>
		<g id="shape798-391" v:mID="798" v:groupContext="shape" transform="translate(576,-441)">
			<title>Sheet.798</title>
		</g>
		<g id="shape799-392" v:mID="799" v:groupContext="shape" transform="translate(615.621,-486)">
			<title>Sheet.799</title>
			<path d="M0 612 L7.66 612" class="st12"/>
		</g>
		<g id="shape800-397" v:mID="800" v:groupContext="shape" transform="translate(615.621,-378)">
			<title>Sheet.800</title>
			<path d="M0 612 L5.41 612" class="st12"/>
		</g>
		<g id="shape801-402" v:mID="801" v:groupContext="shape" transform="translate(571.5,-441)">
			<title>Sheet.801</title>
			<path d="M0 612 L20.62 612" class="st12"/>
		</g>
		<g id="shape803-407" v:mID="803" v:groupContext="shape" transform="translate(657.484,-304.57)">
			<title>Sheet.803</title>
			<ellipse cx="2.57063" cy="609.035" rx="2.57063" ry="2.96498" class="st21"/>
		</g>
		<g id="shape804-410" v:mID="804" v:groupContext="shape" transform="translate(603,-307.506)">
			<title>Sheet.804</title>
			<path d="M59.62 612 L67.13 612 L67.13 591.01 L0 591.01 L0 550.64" class="st18"/>
		</g>
		<g id="shape806-415" v:mID="806" v:groupContext="shape" transform="translate(1107,162) rotate(90)">
			<title>Sheet.806</title>
			<path d="M0 612 L88.15 612" class="st12"/>
		</g>
		<g id="shape809-420" v:mID="809" v:groupContext="shape" transform="translate(324,-455.18)">
			<title>Sheet.809</title>
			<path d="M0 590.18 L36 590.18 L36 612 L63 612 L63 601.73" class="st18"/>
		</g>
		<g id="shape810-425" v:mID="810" v:groupContext="shape" transform="translate(864.749,639.749) rotate(135)">
			<title>Sheet.810</title>
			<path d="M0 612 L25.46 612" class="st19"/>
		</g>
		<g id="shape811-428" v:mID="811" v:groupContext="shape" transform="translate(416.033,-405)">
			<title>Sheet.811</title>
			<desc>8 bit</desc>
			<v:textBlock v:margins="rect(4,4,4,4)"/>
			<v:textRect cx="16.9837" cy="601.09" width="33.97" height="21.82"/>
			<rect x="0" y="590.18" width="33.9675" height="21.82" class="st3"/>
			<text x="7.87" y="604.09" class="st2" v:langID="1033"><v:paragraph v:horizAlign="1"/><v:tabList/>8 bit</text>		</g>
		<g id="shape814-431" v:mID="814" v:groupContext="shape" transform="translate(891.749,549.749) rotate(135)">
			<title>Sheet.814</title>
			<path d="M0 612 L25.46 612" class="st19"/>
		</g>
		<g id="shape815-434" v:mID="815" v:groupContext="shape" transform="translate(432,-490.885)">
			<title>Sheet.815</title>
			<desc>8 bit</desc>
			<v:textBlock v:margins="rect(4,4,4,4)"/>
			<v:textRect cx="16.9837" cy="601.09" width="33.97" height="21.82"/>
			<rect x="0" y="590.18" width="33.9675" height="21.82" class="st3"/>
			<text x="7.87" y="604.09" class="st2" v:langID="1033"><v:paragraph v:horizAlign="1"/><v:tabList/>8 bit</text>		</g>
		<g id="shape816-437" v:mID="816" v:groupContext="shape" transform="translate(1125.75,891.749) rotate(135)">
			<title>Sheet.816</title>
			<path d="M0 612 L25.46 612" class="st19"/>
		</g>
		<g id="shape817-440" v:mID="817" v:groupContext="shape" transform="translate(677.033,-153)">
			<title>Sheet.817</title>
			<desc>32 bit</desc>
			<v:textBlock v:margins="rect(4,4,4,4)"/>
			<v:textRect cx="16.9837" cy="601.09" width="33.97" height="21.82"/>
			<rect x="0" y="590.18" width="33.9675" height="21.82" class="st3"/>
			<text x="5.34" y="604.09" class="st2" v:langID="1033"><v:paragraph v:horizAlign="1"/><v:tabList/>32 bit</text>		</g>
	</g>
</svg>
