<?xml version="1.0" encoding="UTF-8" standalone="no"?>
<!DOCTYPE svg PUBLIC "-//W3C//DTD SVG 1.1//EN" "http://www.w3.org/Graphics/SVG/1.1/DTD/svg11.dtd">
<!-- Generated by Microsoft Visio, SVG Export entsrc_blk_diag.svg Page-1 -->
<svg xmlns="http://www.w3.org/2000/svg" xmlns:xlink="http://www.w3.org/1999/xlink" xmlns:ev="http://www.w3.org/2001/xml-events"
		xmlns:v="http://schemas.microsoft.com/visio/2003/SVGExtensions/" width="11in" height="8.5in" viewBox="0 0 792 612"
		xml:space="preserve" color-interpolation-filters="sRGB" class="st22">
	<v:documentProperties v:langID="1033" v:viewMarkup="false">
		<v:userDefs>
			<v:ud v:nameU="msvSubprocessMaster" v:prompt="" v:val="VT4(Rectangle)"/>
			<v:ud v:nameU="msvNoAutoConnect" v:val="VT0(1):26"/>
		</v:userDefs>
	</v:documentProperties>

	<style type="text/css">
	<![CDATA[
		.st1 {fill:#ffffff;stroke:#000000;stroke-width:0.25}
		.st2 {fill:#000000;font-family:Calibri;font-size:0.833336em}
		.st3 {fill:none;stroke:none;stroke-width:0.25}
		.st4 {font-size:1em}
		.st5 {marker-end:url(#mrkr13-21);marker-start:url(#mrkr13-19);stroke:#000000;stroke-linecap:round;stroke-linejoin:round;stroke-width:2.25}
		.st6 {fill:#000000;fill-opacity:1;stroke:#000000;stroke-opacity:1;stroke-width:0.47169811320755}
		.st7 {stroke:#000000;stroke-linecap:round;stroke-linejoin:round;stroke-width:0.25}
		.st8 {marker-end:url(#mrkr5-55);stroke:#e8ebf4;stroke-width:0.75}
		.st9 {fill:#e8ebf4;fill-opacity:1;stroke:#e8ebf4;stroke-opacity:1;stroke-width:0.22935779816514}
		.st10 {marker-end:url(#mrkr5-70);stroke:#000000;stroke-width:0.75}
		.st11 {fill:#000000;fill-opacity:1;stroke:#000000;stroke-opacity:1;stroke-width:0.22935779816514}
		.st12 {fill:#ffffff;stroke:#000000;stroke-width:0.75}
		.st13 {stroke:#e8ebf4;stroke-width:0.75}
		.st14 {marker-end:url(#mrkr5-157);stroke:#e8ebf4;stroke-width:1}
		.st15 {fill:#e8ebf4;fill-opacity:1;stroke:#e8ebf4;stroke-opacity:1;stroke-width:0.28409090909091}
		.st16 {marker-end:url(#mrkr5-163);stroke:#000000;stroke-linecap:round;stroke-linejoin:round;stroke-width:1}
		.st17 {fill:#000000;fill-opacity:1;stroke:#000000;stroke-opacity:1;stroke-width:0.28409090909091}
		.st18 {marker-end:url(#mrkr5-163);stroke:#000000;stroke-width:1}
		.st19 {stroke:#000000;stroke-width:1}
		.st20 {stroke:#000000;stroke-linecap:round;stroke-linejoin:round;stroke-width:1}
		.st21 {marker-end:url(#mrkr5-70);stroke:#000000;stroke-linecap:round;stroke-linejoin:round;stroke-width:0.75}
		.st22 {fill:none;fill-rule:evenodd;font-size:12px;overflow:visible;stroke-linecap:square;stroke-miterlimit:3}
	]]>
	</style>

	<defs id="Markers">
		<g id="lend13">
			<path d="M 3 1 L 0 0 L 3 -1 L 3 1 " style="stroke:none"/>
		</g>
		<marker id="mrkr13-19" class="st6" v:arrowType="13" v:arrowSize="2" v:setback="6.2" refX="6.2" orient="auto"
				markerUnits="strokeWidth" overflow="visible">
			<use xlink:href="#lend13" transform="scale(2.12) "/>
		</marker>
		<marker id="mrkr13-21" class="st6" v:arrowType="13" v:arrowSize="2" v:setback="6.36" refX="-6.36" orient="auto"
				markerUnits="strokeWidth" overflow="visible">
			<use xlink:href="#lend13" transform="scale(-2.12,-2.12) "/>
		</marker>
		<g id="lend5">
			<path d="M 2 1 L 0 0 L 1.98117 -0.993387 C 1.67173 -0.364515 1.67301 0.372641 1.98465 1.00043 " style="stroke:none"/>
		</g>
		<marker id="mrkr5-55" class="st9" v:arrowType="5" v:arrowSize="2" v:setback="7.63" refX="-7.63" orient="auto"
				markerUnits="strokeWidth" overflow="visible">
			<use xlink:href="#lend5" transform="scale(-4.36,-4.36) "/>
		</marker>
		<marker id="mrkr5-70" class="st11" v:arrowType="5" v:arrowSize="2" v:setback="7.63" refX="-7.63" orient="auto"
				markerUnits="strokeWidth" overflow="visible">
			<use xlink:href="#lend5" transform="scale(-4.36,-4.36) "/>
		</marker>
		<marker id="mrkr5-157" class="st15" v:arrowType="5" v:arrowSize="2" v:setback="6.16" refX="-6.16" orient="auto"
				markerUnits="strokeWidth" overflow="visible">
			<use xlink:href="#lend5" transform="scale(-3.52,-3.52) "/>
		</marker>
		<marker id="mrkr5-163" class="st17" v:arrowType="5" v:arrowSize="2" v:setback="6.16" refX="-6.16" orient="auto"
				markerUnits="strokeWidth" overflow="visible">
			<use xlink:href="#lend5" transform="scale(-3.52,-3.52) "/>
		</marker>
	</defs>
	<g v:mID="0" v:index="1" v:groupContext="foregroundPage">
		<v:userDefs>
			<v:ud v:nameU="msvThemeOrder" v:val="VT0(0):26"/>
		</v:userDefs>
		<title>Page-1</title>
		<v:pageProperties v:drawingScale="1" v:pageScale="1" v:drawingUnits="0" v:shadowOffsetX="9" v:shadowOffsetY="-9"/>
		<v:layer v:name="Flowchart" v:index="0"/>
		<g id="shape480-1" v:mID="480" v:groupContext="shape" transform="translate(73.8258,-135)">
			<title>Sheet.480</title>
			<desc>Registers</desc>
			<v:textBlock v:margins="rect(4,4,4,4)" v:verticalAlign="0"/>
			<v:textRect cx="71.7998" cy="396" width="143.6" height="432"/>
			<rect x="0" y="180" width="143.6" height="432" class="st1"/>
			<text x="53.28" y="193" class="st2" v:langID="1033"><v:paragraph v:horizAlign="1"/><v:tabList/>Registers</text>		</g>
		<g id="shape484-4" v:mID="484" v:groupContext="shape" transform="translate(118.18,-318.255)">
			<title>Sheet.484</title>
			<v:textBlock v:margins="rect(4,4,4,4)" v:verticalAlign="0"/>
			<rect x="0" y="551.545" width="99.2459" height="60.4551" class="st3"/>
		</g>
		<g id="shape490-6" v:mID="490" v:groupContext="shape" transform="translate(118.18,-465.75)">
			<title>Sheet.490</title>
			<desc>es_conf.q es_seed.q es_rate.q es_threshold.q</desc>
			<v:textBlock v:margins="rect(4,4,4,4)" v:verticalAlign="0"/>
			<v:textRect cx="49.6229" cy="561.375" width="99.25" height="101.25"/>
			<rect x="0" y="510.75" width="99.2459" height="101.25" class="st3"/>
			<text x="55.79" y="571.75" class="st2" v:langID="1033"><v:paragraph v:horizAlign="2"/><v:tabList/><v:space/><v:newlineChar/><v:newlineChar/><v:newlineChar/><v:space/><v:space/><v:newlineChar/>es_conf.q<tspan
						x="52.22" dy="1.2em" class="st4"> </tspan>es_seed.q<tspan x="54.74" dy="1.2em" class="st4"> </tspan>es_rate.q<tspan
						x="32.29" dy="1.2em" class="st4"> </tspan>es_threshold.q<tspan dy="1.2em" class="st4"> </tspan><v:newlineChar/> </text>		</g>
		<g id="shape491-13" v:mID="491" v:groupContext="shape" transform="translate(18,-468)">
			<title>Sheet.491</title>
			<path d="M13.95 612 L14.31 612 L41.52 612" class="st5"/>
		</g>
		<g id="shape492-22" v:mID="492" v:groupContext="shape" transform="translate(73.8258,-419.772)">
			<title>Sheet.492</title>
			<desc>TLUL Interface</desc>
			<v:textBlock v:margins="rect(4,4,4,4)" v:verticalAlign="0"/>
			<v:textRect cx="49.6229" cy="581.772" width="99.25" height="60.4551"/>
			<rect x="0" y="551.545" width="99.2459" height="60.4551" class="st3"/>
			<text x="6.26" y="564.55" class="st2" v:langID="1033"><v:paragraph/><v:tabList/>TLUL Interface<v:newlineChar/></text>		</g>
		<g id="group507-25" transform="translate(419.612,-474.665)" v:mID="507" v:groupContext="group">
			<title>Sheet.507</title>
			<g id="shape508-26" v:mID="508" v:groupContext="shape" transform="translate(10.4997,0)">
				<title>Sheet.508</title>
				<rect x="0" y="586.36" width="10.3868" height="25.6401" class="st1"/>
			</g>
			<g id="shape509-28" v:mID="509" v:groupContext="shape" transform="translate(20.8865,0)">
				<title>Sheet.509</title>
				<rect x="0" y="586.36" width="10.3868" height="25.6401" class="st1"/>
			</g>
			<g id="shape510-30" v:mID="510" v:groupContext="shape" transform="translate(31.2732,0)">
				<title>Sheet.510</title>
				<rect x="0" y="586.36" width="10.3868" height="25.6401" class="st1"/>
			</g>
			<g id="shape511-32" v:mID="511" v:groupContext="shape" transform="translate(41.66,0)">
				<title>Sheet.511</title>
				<rect x="0" y="586.36" width="10.3868" height="25.6401" class="st1"/>
			</g>
			<g id="shape512-34" v:mID="512" v:groupContext="shape" transform="translate(51.708,1198.36) rotate(180)">
				<title>Sheet.512</title>
				<path d="M0 612 L51.71 612" class="st7"/>
			</g>
			<g id="shape513-37" v:mID="513" v:groupContext="shape" transform="translate(51.708,1224) rotate(180)">
				<title>Sheet.513</title>
				<path d="M0 612 L51.71 612" class="st7"/>
			</g>
		</g>
		<g id="shape514-40" v:mID="514" v:groupContext="shape" transform="translate(414,-505.36)">
			<title>Sheet.514</title>
			<desc>Dig Src FIFO 4w x 4d</desc>
			<v:textBlock v:margins="rect(4,4,4,4)"/>
			<v:textRect cx="36" cy="599.18" width="72" height="25.6401"/>
			<rect x="0" y="586.36" width="72" height="25.6401" class="st3"/>
			<text x="11.84" y="596.18" class="st2" v:langID="1033"><v:paragraph v:horizAlign="1"/><v:tabList/>Dig Src FIFO <v:newlineChar/><tspan
						x="20.3" dy="1.2em" class="st4">4w x 4d</tspan></text>		</g>
		<g id="shape519-44" v:mID="519" v:groupContext="shape" transform="translate(261.977,-502.305)">
			<title>Sheet.519</title>
			<desc>LFSR</desc>
			<v:textBlock v:margins="rect(4,4,4,4)"/>
			<v:textRect cx="26.0234" cy="601.305" width="52.05" height="21.3904"/>
			<rect x="0" y="590.61" width="52.0468" height="21.3904" class="st1"/>
			<text x="16.61" y="604.3" class="st2" v:langID="1033"><v:paragraph v:horizAlign="1"/><v:tabList/>LFSR</text>		</g>
		<g id="shape575-47" v:mID="575" v:groupContext="shape" transform="translate(252,-471.61)">
			<title>LSFR block.519</title>
			<desc>Count Down</desc>
			<v:textBlock v:margins="rect(4,4,4,4)"/>
			<v:textRect cx="36" cy="601.305" width="72" height="21.3904"/>
			<rect x="0" y="590.61" width="72" height="21.3904" class="st1"/>
			<text x="10.72" y="604.3" class="st2" v:langID="1033"><v:paragraph v:horizAlign="1"/><v:tabList/>Count Down</text>		</g>
		<g id="shape578-50" v:mID="578" v:groupContext="shape" transform="translate(217.425,-238.5)">
			<title>Sheet.578</title>
			<path d="M300.82 553.5 L319.9 553.5 L319.9 612 L5.72 612" class="st8"/>
		</g>
		<g id="shape579-56" v:mID="579" v:groupContext="shape" transform="translate(218.576,-238.5)">
			<title>Sheet.579</title>
			<path d="M300.75 553.5 L318.75 553.5 L318.75 612 L5.72 612" class="st8"/>
		</g>
		<g id="shape581-61" v:mID="581" v:groupContext="shape" transform="translate(195.326,-252)">
			<title>Sheet.581</title>
		</g>
		<g id="shape582-62" v:mID="582" v:groupContext="shape" transform="translate(258.326,-257.055)">
			<title>LSFR block.582</title>
			<desc>Thresh &#62;= depth</desc>
			<v:textBlock v:margins="rect(4,4,4,4)"/>
			<v:textRect cx="40.5" cy="601.305" width="81" height="21.3904"/>
			<rect x="0" y="590.61" width="81" height="21.3904" class="st1"/>
			<text x="7.34" y="604.3" class="st2" v:langID="1033"><v:paragraph v:horizAlign="1"/><v:tabList/>Thresh &#62;= depth</text>		</g>
		<g id="shape588-65" v:mID="588" v:groupContext="shape" transform="translate(217.425,-252)">
			<title>Sheet.588</title>
			<path d="M40.9 594 L21.4 594 L21.4 612 L5.72 612" class="st10"/>
		</g>
		<g id="shape589-71" v:mID="589" v:groupContext="shape" transform="translate(111.203,-212.625)">
			<title>Sheet.589</title>
			<desc>es_status.d es_fdepthst.d es_entropy.d es_entropy_rd</desc>
			<v:textBlock v:margins="rect(4,4,4,4)" v:verticalAlign="0"/>
			<v:textRect cx="49.6229" cy="561.375" width="99.25" height="101.25"/>
			<rect x="0" y="510.75" width="99.2459" height="101.25" class="st3"/>
			<text x="49.03" y="571.75" class="st2" v:langID="1033"><v:paragraph v:horizAlign="2"/><v:tabList/><v:space/><v:newlineChar/><v:newlineChar/><v:newlineChar/><v:space/><v:newlineChar/>es_status.d<tspan
						x="36.94" dy="1.2em" class="st4"> </tspan>es_fdepthst.d<tspan x="39.22" dy="1.2em" class="st4"> </tspan>es_entropy.d<tspan
						x="33.28" dy="1.2em" class="st4"> </tspan>es_entropy_rd<tspan dy="1.2em" class="st4"> </tspan><v:newlineChar/> </text>		</g>
		<g id="shape590-78" v:mID="590" v:groupContext="shape" transform="translate(616.722,-547.155)">
			<title>LSFR block.590</title>
			<desc>Note: ES FIFO depth is parameterized</desc>
			<v:textBlock v:margins="rect(4,4,4,4)" v:verticalAlign="0"/>
			<v:textRect cx="49.2779" cy="589.5" width="98.56" height="45"/>
			<rect x="0" y="567" width="98.5559" height="45" class="st3"/>
			<text x="4" y="580" class="st2" v:langID="1033"><v:paragraph/><v:tabList/>Note: ES FIFO depth is <tspan x="4"
						dy="1.2em" class="st4">parameterized</tspan></text>		</g>
		<g id="shape591-82" v:mID="591" v:groupContext="shape" transform="translate(230.625,-504)">
			<title>Sheet.591</title>
		</g>
		<g id="shape592-83" v:mID="592" v:groupContext="shape" transform="translate(85.5385,-70.035)">
			<title>Sheet.592</title>
			<desc>Analog entropy source</desc>
			<v:textBlock v:margins="rect(4,4,4,4)" v:verticalAlign="0"/>
			<v:textRect cx="60.0871" cy="589.5" width="120.18" height="45"/>
			<rect x="0" y="567" width="120.174" height="45" class="st3"/>
			<text x="24.3" y="592" class="st2" v:langID="1033"><v:paragraph v:horizAlign="2"/><v:tabList/><v:space/><v:newlineChar/>Analog entropy source<v:newlineChar/> </text>		</g>
		<g id="group629-86" transform="translate(342.977,-482.772)" v:mID="629" v:groupContext="group">
			<title>4:1 mux</title>
			<g id="shape636-87" v:mID="636" v:groupContext="shape" transform="translate(19.3584,-6.34666)">
				<title>Sheet.636</title>
				<path d="M0 605.78 L0 612 L9.16 605.78 L9.16 564.11 L0 557.89 L0 564.11 L0 605.78 Z" class="st12"/>
			</g>
		</g>
		<g id="group676-89" transform="translate(680.085,-450)" v:mID="676" v:groupContext="group">
			<title>Sheet.676</title>
			<g id="shape677-90" v:mID="677" v:groupContext="shape" transform="translate(10.4997,0)">
				<title>Sheet.677</title>
				<rect x="0" y="551.545" width="10.3868" height="60.4551" class="st1"/>
			</g>
			<g id="shape678-92" v:mID="678" v:groupContext="shape" transform="translate(20.8865,0)">
				<title>Sheet.678</title>
				<rect x="0" y="551.545" width="10.3868" height="60.4551" class="st1"/>
			</g>
			<g id="shape679-94" v:mID="679" v:groupContext="shape" transform="translate(31.2732,0)">
				<title>Sheet.679</title>
				<rect x="0" y="551.545" width="10.3868" height="60.4551" class="st1"/>
			</g>
			<g id="shape680-96" v:mID="680" v:groupContext="shape" transform="translate(41.66,0)">
				<title>Sheet.680</title>
				<rect x="0" y="551.545" width="10.3868" height="60.4551" class="st1"/>
			</g>
			<g id="shape681-98" v:mID="681" v:groupContext="shape" transform="translate(51.708,1163.54) rotate(180)">
				<title>Sheet.681</title>
				<path d="M0 612 L51.71 612" class="st7"/>
			</g>
			<g id="shape682-101" v:mID="682" v:groupContext="shape" transform="translate(51.708,1224) rotate(180)">
				<title>Sheet.682</title>
				<path d="M0 612 L51.71 612" class="st7"/>
			</g>
		</g>
		<g id="shape683-104" v:mID="683" v:groupContext="shape" transform="translate(666,-512.11)">
			<title>Sheet.683</title>
			<desc>ES FIFO 32w x 16d</desc>
			<v:textBlock v:margins="rect(4,4,4,4)"/>
			<v:textRect cx="36" cy="599.18" width="72" height="25.6401"/>
			<rect x="0" y="586.36" width="72" height="25.6401" class="st3"/>
			<text x="20.97" y="596.18" class="st2" v:langID="1033"><v:paragraph v:horizAlign="1"/><v:tabList/>ES FIFO <v:newlineChar/><tspan
						x="15.24" dy="1.2em" class="st4">32w x 16d</tspan></text>		</g>
		<g id="group714-108" transform="translate(515.683,992.569) rotate(180)" v:mID="714" v:groupContext="group">
			<title>Sheet.714</title>
			<g id="shape715-109" v:mID="715" v:groupContext="shape" transform="translate(10.4997,0)">
				<title>Sheet.715</title>
				<rect x="0" y="551.545" width="10.3868" height="60.4551" class="st1"/>
			</g>
			<g id="shape716-111" v:mID="716" v:groupContext="shape" transform="translate(20.8865,0)">
				<title>Sheet.716</title>
				<rect x="0" y="551.545" width="10.3868" height="60.4551" class="st1"/>
			</g>
			<g id="shape717-113" v:mID="717" v:groupContext="shape" transform="translate(31.2732,0)">
				<title>Sheet.717</title>
				<rect x="0" y="551.545" width="10.3868" height="60.4551" class="st1"/>
			</g>
			<g id="shape718-115" v:mID="718" v:groupContext="shape" transform="translate(41.66,0)">
				<title>Sheet.718</title>
				<rect x="0" y="551.545" width="10.3868" height="60.4551" class="st1"/>
			</g>
			<g id="shape719-117" v:mID="719" v:groupContext="shape" transform="translate(51.708,1163.54) rotate(180)">
				<title>Sheet.719</title>
				<path d="M0 612 L51.71 612" class="st7"/>
			</g>
			<g id="shape720-120" v:mID="720" v:groupContext="shape" transform="translate(51.708,1224) rotate(180)">
				<title>Sheet.720</title>
				<path d="M0 612 L51.71 612" class="st7"/>
			</g>
		</g>
		<g id="shape721-123" v:mID="721" v:groupContext="shape" transform="translate(450,-235.384)">
			<title>Sheet.721</title>
			<desc>TLUL FIFO 32w x 4d</desc>
			<v:textBlock v:margins="rect(4,4,4,4)"/>
			<v:textRect cx="36" cy="599.18" width="72" height="25.6401"/>
			<rect x="0" y="586.36" width="72" height="25.6401" class="st3"/>
			<text x="15.86" y="596.18" class="st2" v:langID="1033"><v:paragraph v:horizAlign="1"/><v:tabList/>TLUL FIFO <v:newlineChar/><tspan
						x="17.77" dy="1.2em" class="st4">32w x 4d</tspan></text>		</g>
		<g id="group722-127" transform="translate(515.683,1109.54) rotate(180)" v:mID="722" v:groupContext="group">
			<title>Sheet.722</title>
			<g id="shape723-128" v:mID="723" v:groupContext="shape" transform="translate(10.4997,0)">
				<title>Sheet.723</title>
				<rect x="0" y="551.545" width="10.3868" height="60.4551" class="st1"/>
			</g>
			<g id="shape724-130" v:mID="724" v:groupContext="shape" transform="translate(20.8865,0)">
				<title>Sheet.724</title>
				<rect x="0" y="551.545" width="10.3868" height="60.4551" class="st1"/>
			</g>
			<g id="shape725-132" v:mID="725" v:groupContext="shape" transform="translate(31.2732,0)">
				<title>Sheet.725</title>
				<rect x="0" y="551.545" width="10.3868" height="60.4551" class="st1"/>
			</g>
			<g id="shape726-134" v:mID="726" v:groupContext="shape" transform="translate(41.66,0)">
				<title>Sheet.726</title>
				<rect x="0" y="551.545" width="10.3868" height="60.4551" class="st1"/>
			</g>
			<g id="shape727-136" v:mID="727" v:groupContext="shape" transform="translate(51.708,1163.54) rotate(180)">
				<title>Sheet.727</title>
				<path d="M0 612 L51.71 612" class="st7"/>
			</g>
			<g id="shape728-139" v:mID="728" v:groupContext="shape" transform="translate(51.708,1224) rotate(180)">
				<title>Sheet.728</title>
				<path d="M0 612 L51.71 612" class="st7"/>
			</g>
		</g>
		<g id="shape729-142" v:mID="729" v:groupContext="shape" transform="translate(450,-118.407)">
			<title>Sheet.729</title>
			<desc>HWIF FIFO 32w x 4d</desc>
			<v:textBlock v:margins="rect(4,4,4,4)"/>
			<v:textRect cx="36" cy="599.18" width="72" height="25.6401"/>
			<rect x="0" y="586.36" width="72" height="25.6401" class="st3"/>
			<text x="14.58" y="596.18" class="st2" v:langID="1033"><v:paragraph v:horizAlign="1"/><v:tabList/>HWIF FIFO <v:newlineChar/><tspan
						x="17.77" dy="1.2em" class="st4">32w x 4d</tspan></text>		</g>
		<g id="shape730-146" v:mID="730" v:groupContext="shape" transform="translate(217.425,-198)">
			<title>Sheet.730</title>
			<path d="M43.57 576 L43.57 612 L246.21 612 L196.57 612 L196.57 571.5 L0 571.5" class="st13"/>
		</g>
		<g id="shape731-149" v:mID="731" v:groupContext="shape" transform="translate(522,-90)">
			<title>Sheet.731</title>
			<path d="M234 274.5 L234 612 L0 612" class="st13"/>
		</g>
		<g id="shape740-152" v:mID="740" v:groupContext="shape" transform="translate(720,-207)">
			<title>Sheet.740</title>
			<path d="M9.44 387 L36 391.5 L0.99 605.92" class="st14"/>
		</g>
		<g id="shape747-158" v:mID="747" v:groupContext="shape" transform="translate(217.425,-513)">
			<title>Sheet.747</title>
			<path d="M0 612 L38.39 612" class="st16"/>
		</g>
		<g id="shape748-164" v:mID="748" v:groupContext="shape" transform="translate(207,-514.36)">
			<title>Sheet.748</title>
			<desc>Load seed</desc>
			<v:textBlock v:margins="rect(4,4,4,4)"/>
			<v:textRect cx="36" cy="599.18" width="72" height="25.6401"/>
			<rect x="0" y="586.36" width="72" height="25.6401" class="st3"/>
			<text x="15.55" y="602.18" class="st2" v:langID="1033"><v:paragraph v:horizAlign="1"/><v:tabList/>Load seed</text>		</g>
		<g id="shape749-167" v:mID="749" v:groupContext="shape" transform="translate(333,-568.36)">
			<title>Sheet.749</title>
			<desc>Mode Select</desc>
			<v:textBlock v:margins="rect(4,4,4,4)"/>
			<v:textRect cx="36" cy="599.18" width="72" height="25.6401"/>
			<rect x="0" y="586.36" width="72" height="25.6401" class="st3"/>
			<text x="10.63" y="602.18" class="st2" v:langID="1033"><v:paragraph v:horizAlign="1"/><v:tabList/>Mode Select</text>		</g>
		<g id="shape751-170" v:mID="751" v:groupContext="shape" transform="translate(217.425,-486)">
			<title>Sheet.751</title>
			<path d="M0 612 L28.41 612" class="st16"/>
		</g>
		<g id="shape754-175" v:mID="754" v:groupContext="shape" transform="translate(364.5,-435.742)">
			<title>Sheet.754</title>
			<desc>push</desc>
			<v:textBlock v:margins="rect(4,4,4,4)"/>
			<v:textRect cx="36" cy="599.18" width="72" height="25.6401"/>
			<rect x="0" y="586.36" width="72" height="25.6401" class="st3"/>
			<text x="26.16" y="602.18" class="st2" v:langID="1033"><v:paragraph v:horizAlign="1"/><v:tabList/>push</text>		</g>
		<g id="shape767-178" v:mID="767" v:groupContext="shape" transform="translate(614.171,-144)">
			<title>Sheet.767</title>
			<path d="M119.32 274.5 L144.3 274.5 L162 274.5 L162 612 L6.16 612" class="st18"/>
		</g>
		<g id="shape769-183" v:mID="769" v:groupContext="shape" transform="translate(81,-24.43)">
			<title>Sheet.769</title>
			<desc>Hw entropy interface</desc>
			<v:textBlock v:margins="rect(4,4,4,4)" v:verticalAlign="0"/>
			<v:textRect cx="60.0871" cy="599.18" width="120.18" height="25.6401"/>
			<rect x="0" y="586.36" width="120.174" height="25.6401" class="st3"/>
			<text x="29.75" y="599.36" class="st2" v:langID="1033"><v:paragraph v:horizAlign="2"/><v:tabList/>Hw entropy interface</text>		</g>
		<g id="shape770-186" v:mID="770" v:groupContext="shape" transform="translate(217.425,-198)">
			<title>Sheet.770</title>
			<path d="M246.07 612 L214.57 612 L214.57 580.5 L6.16 580.5" class="st18"/>
		</g>
		<g id="shape771-191" v:mID="771" v:groupContext="shape" transform="translate(216,-40.5)">
			<title>Sheet.771</title>
			<path d="M247.64 562.5 L216 562.5 L216 612 L6.16 612" class="st18"/>
		</g>
		<g id="shape772-196" v:mID="772" v:groupContext="shape" transform="translate(339.326,-225)">
			<title>Sheet.772</title>
			<path d="M124.31 612 L110.67 612 L110.67 575.98 L6.16 576" class="st18"/>
		</g>
		<g id="shape773-201" v:mID="773" v:groupContext="shape" transform="translate(396.657,-253.36)">
			<title>Sheet.773</title>
			<desc>depth</desc>
			<v:textBlock v:margins="rect(4,4,4,4)"/>
			<v:textRect cx="36" cy="599.18" width="72" height="25.6401"/>
			<rect x="0" y="586.36" width="72" height="25.6401" class="st3"/>
			<text x="23.96" y="602.18" class="st2" v:langID="1033"><v:paragraph v:horizAlign="1"/><v:tabList/>depth</text>		</g>
		<g id="shape778-204" v:mID="778" v:groupContext="shape" transform="translate(217.425,-243)">
			<title>Sheet.778</title>
			<path d="M141.82 594 L141.83 612 L6.16 612" class="st18"/>
		</g>
		<g id="shape780-209" v:mID="780" v:groupContext="shape" transform="translate(217.425,-278.445)">
			<title>Sheet.780</title>
			<path d="M0 422.45 L16.57 422.45 L16.57 530.45 L70.57 530.45 L70.57 605.84" class="st18"/>
		</g>
		<g id="shape781-214" v:mID="781" v:groupContext="shape" transform="translate(459,-345.577)">
			<title>Sheet.781</title>
			<desc>Health Tests 3</desc>
			<v:textBlock v:margins="rect(4,4,4,4)"/>
			<v:textRect cx="23.6675" cy="597.577" width="47.34" height="28.8451"/>
			<rect x="0" y="583.155" width="47.335" height="28.8451" class="st1"/>
			<text x="10.22" y="594.58" class="st2" v:langID="1033"><v:paragraph v:horizAlign="1"/><v:tabList/>Health <tspan
						x="9.49" dy="1.2em" class="st4">Tests 3</tspan></text>		</g>
		<g id="group782-218" transform="translate(558,-55.5631)" v:mID="782" v:groupContext="group">
			<title>4:1 mux.782</title>
			<g id="shape784-219" v:mID="784" v:groupContext="shape" transform="translate(36.6571,-16.6788)">
				<title>Sheet.784</title>
				<path d="M0 595.65 L0 612 L17.34 595.65 L17.34 486.15 L0 469.8 L0 486.15 L0 595.65 Z" class="st12"/>
			</g>
		</g>
		<g id="shape786-221" v:mID="786" v:groupContext="shape" transform="translate(594.657,1026) rotate(180)">
			<title>Sheet.786</title>
			<path d="M0 612 L66.5 612" class="st16"/>
		</g>
		<g id="shape787-226" v:mID="787" v:groupContext="shape" transform="translate(594,1134) rotate(180)">
			<title>Sheet.787</title>
			<path d="M0 612 L66.5 612" class="st16"/>
		</g>
		<g id="shape789-231" v:mID="789" v:groupContext="shape" transform="translate(513,-207.394)">
			<title>Sheet.789</title>
			<path d="M0 580.89 L0 565.89 L90 565.89 L89.25 605.84" class="st14"/>
		</g>
		<g id="shape793-236" v:mID="793" v:groupContext="shape" transform="translate(513,-235.384)">
			<title>Sheet.793</title>
			<path d="M0 612 L0 595.38 L89.97 595.38" class="st19"/>
		</g>
		<g id="shape794-239" v:mID="794" v:groupContext="shape" transform="translate(1214.99,357.226) rotate(89.7404)">
			<title>Sheet.794</title>
			<path d="M0 612 L39.46 612" class="st16"/>
		</g>
		<g id="shape795-244" v:mID="795" v:groupContext="shape" transform="translate(549,-252)">
			<title>Sheet.795</title>
			<desc>not full &#38; fuse enabled</desc>
			<v:textBlock v:margins="rect(4,4,4,4)"/>
			<v:textRect cx="36" cy="599.18" width="72" height="25.6401"/>
			<rect x="0" y="586.36" width="72" height="25.6401" class="st3"/>
			<text x="7.22" y="596.18" class="st2" v:langID="1033"><v:paragraph v:horizAlign="1"/><v:tabList/>not full &#38; fuse <tspan
						x="19.6" dy="1.2em" class="st4">enabled</tspan></text>		</g>
		<g id="group796-248" transform="translate(549,672.455) rotate(180)" v:mID="796" v:groupContext="group">
			<title>4:1 mux.796</title>
			<g id="shape797-249" v:mID="797" v:groupContext="shape" transform="translate(26.2497,-12.55)">
				<title>Sheet.797</title>
				<path d="M0 599.7 L0 612 L12.42 599.7 L12.42 517.31 L0 505.01 L0 517.31 L0 599.7 Z" class="st12"/>
			</g>
		</g>
		<g id="shape799-251" v:mID="799" v:groupContext="shape" transform="translate(661.094,-486)">
			<title>Sheet.799</title>
			<path d="M0 612 L12.9 612" class="st16"/>
		</g>
		<g id="shape801-256" v:mID="801" v:groupContext="shape" transform="translate(471.659,-486)">
			<title>Sheet.801</title>
			<path d="M0 612 L31.53 612" class="st16"/>
		</g>
		<g id="shape809-261" v:mID="809" v:groupContext="shape" transform="translate(324,-455.18)">
			<title>Sheet.809</title>
			<path d="M0 590.18 L56.71 590.18 L56.71 612 L99.25 612 L99.25 601.73" class="st18"/>
		</g>
		<g id="shape810-266" v:mID="810" v:groupContext="shape" transform="translate(824.249,523.342) rotate(135)">
			<title>Sheet.810</title>
			<path d="M0 612 L19.04 612" class="st20"/>
		</g>
		<g id="shape811-269" v:mID="811" v:groupContext="shape" transform="translate(372.458,-521.407)">
			<title>Sheet.811</title>
			<desc>4 bit</desc>
			<v:textBlock v:margins="rect(4,4,4,4)"/>
			<v:textRect cx="16.9837" cy="601.09" width="33.97" height="21.82"/>
			<rect x="0" y="590.18" width="33.9675" height="21.82" class="st3"/>
			<text x="7.87" y="604.09" class="st2" v:langID="1033"><v:paragraph v:horizAlign="1"/><v:tabList/>4 bit</text>		</g>
		<g id="shape814-272" v:mID="814" v:groupContext="shape" transform="translate(740.782,945.749) rotate(135)">
			<title>Sheet.814</title>
			<path d="M0 612 L25.46 612" class="st20"/>
		</g>
		<g id="shape815-275" v:mID="815" v:groupContext="shape" transform="translate(281.033,-94.885)">
			<title>Sheet.815</title>
			<desc>4 bit</desc>
			<v:textBlock v:margins="rect(4,4,4,4)"/>
			<v:textRect cx="16.9837" cy="601.09" width="33.97" height="21.82"/>
			<rect x="0" y="590.18" width="33.9675" height="21.82" class="st3"/>
			<text x="7.87" y="604.09" class="st2" v:langID="1033"><v:paragraph v:horizAlign="1"/><v:tabList/>4 bit</text>		</g>
		<g id="shape816-278" v:mID="816" v:groupContext="shape" transform="translate(1125.75,891.749) rotate(135)">
			<title>Sheet.816</title>
			<path d="M0 612 L25.46 612" class="st20"/>
		</g>
		<g id="shape817-281" v:mID="817" v:groupContext="shape" transform="translate(677.033,-153)">
			<title>Sheet.817</title>
			<desc>32 bit</desc>
			<v:textBlock v:margins="rect(4,4,4,4)"/>
			<v:textRect cx="16.9837" cy="601.09" width="33.97" height="21.82"/>
			<rect x="0" y="590.18" width="33.9675" height="21.82" class="st3"/>
			<text x="5.34" y="604.09" class="st2" v:langID="1033"><v:paragraph v:horizAlign="1"/><v:tabList/>32 bit</text>		</g>
		<g id="shape819-284" v:mID="819" v:groupContext="shape" transform="translate(205.713,-90)">
			<title>Sheet.819</title>
			<path d="M0 612 L172.29 612 L172.29 288 L136.29 288 L136.29 198 L156.62 198" class="st13"/>
		</g>
		<g id="shape820-287" v:mID="820" v:groupContext="shape" transform="translate(216,-90)">
			<title>Sheet.820</title>
			<path d="M0 612 L162 612 L162 297 L126 297 L126 198 L146.34 198" class="st13"/>
		</g>
		<g id="shape821-290" v:mID="821" v:groupContext="shape" transform="translate(214.875,-90)">
			<title>Sheet.821</title>
			<path d="M0 612 L163.12 612 L163.12 306 L127.12 306 L127.12 198 L156.62 198" class="st13"/>
		</g>
		<g id="shape822-293" v:mID="822" v:groupContext="shape" transform="translate(216,-90)">
			<title>Sheet.822</title>
			<path d="M0 612 L143.25 612 L162 612 L162 297 L126 297 L126 198 L142.03 198" class="st10"/>
		</g>
		<g id="shape823-298" v:mID="823" v:groupContext="shape" transform="translate(314.023,-513)">
			<title>Sheet.823</title>
			<path d="M0 612 L18.98 612 L18.98 594 L42.59 594" class="st8"/>
		</g>
		<g id="shape824-303" v:mID="824" v:groupContext="shape" transform="translate(315,-513)">
			<title>Sheet.824</title>
			<path d="M0 612 L18 612 L18 594 L41.61 594" class="st10"/>
		</g>
		<g id="shape825-308" v:mID="825" v:groupContext="shape" transform="translate(371.494,-486)">
			<title>Sheet.825</title>
			<path d="M0 580.5 L24.51 580.5 L24.51 612 L41.28 612" class="st10"/>
		</g>
		<g id="shape827-313" v:mID="827" v:groupContext="shape" transform="translate(561.332,-498.577)">
			<title>Sheet.827</title>
			<desc>1 bit Packer</desc>
			<v:textBlock v:margins="rect(4,4,4,4)"/>
			<v:textRect cx="23.6675" cy="597.577" width="47.34" height="28.8451"/>
			<rect x="0" y="583.155" width="47.335" height="28.8451" class="st1"/>
			<text x="14.55" y="594.58" class="st2" v:langID="1033"><v:paragraph v:horizAlign="1"/><v:tabList/>1 bit<v:newlineChar/><tspan
						x="10.07" dy="1.2em" class="st4">Packer</tspan></text>		</g>
		<g id="shape828-317" v:mID="828" v:groupContext="shape" transform="translate(561.332,-444.577)">
			<title>Sheet.828</title>
			<desc>4 bit Packer</desc>
			<v:textBlock v:margins="rect(4,4,4,4)"/>
			<v:textRect cx="23.6675" cy="597.577" width="47.34" height="28.8451"/>
			<rect x="0" y="583.155" width="47.335" height="28.8451" class="st1"/>
			<text x="14.55" y="594.58" class="st2" v:langID="1033"><v:paragraph v:horizAlign="1"/><v:tabList/>4 bit<v:newlineChar/><tspan
						x="10.07" dy="1.2em" class="st4">Packer</tspan></text>		</g>
		<g id="group830-321" transform="translate(622.425,-420.455)" v:mID="830" v:groupContext="group">
			<title>4:1 mux.830</title>
			<g id="shape831-322" v:mID="831" v:groupContext="shape" transform="translate(26.2497,-12.55)">
				<title>Sheet.831</title>
				<path d="M0 599.7 L0 612 L12.42 599.7 L12.42 517.31 L0 505.01 L0 517.31 L0 599.7 Z" class="st12"/>
			</g>
		</g>
		<g id="shape832-324" v:mID="832" v:groupContext="shape" transform="translate(522.75,-513)">
			<title>Sheet.832</title>
			<path d="M0 612 L32.86 612" class="st21"/>
		</g>
		<g id="shape833-329" v:mID="833" v:groupContext="shape" transform="translate(522.75,-459)">
			<title>Sheet.833</title>
			<path d="M0 612 L32.86 612" class="st21"/>
		</g>
		<g id="shape834-334" v:mID="834" v:groupContext="shape" transform="translate(537.75,-460.5)">
			<title>Sheet.834</title>
		</g>
		<g id="shape835-335" v:mID="835" v:groupContext="shape" transform="translate(608.668,-513)">
			<title>Sheet.835</title>
			<path d="M0 612 L34.29 612" class="st21"/>
		</g>
		<g id="shape836-340" v:mID="836" v:groupContext="shape" transform="translate(608.668,-459)">
			<title>Sheet.836</title>
			<path d="M0 612 L34.29 612" class="st21"/>
		</g>
		<g id="shape840-345" v:mID="840" v:groupContext="shape" transform="translate(478.425,-568.36)">
			<title>Sheet.840</title>
			<desc>Mode Select</desc>
			<v:textBlock v:margins="rect(4,4,4,4)"/>
			<v:textRect cx="36" cy="599.18" width="72" height="25.6401"/>
			<rect x="0" y="586.36" width="72" height="25.6401" class="st3"/>
			<text x="10.63" y="602.18" class="st2" v:langID="1033"><v:paragraph v:horizAlign="1"/><v:tabList/>Mode Select</text>		</g>
		<g id="shape842-348" v:mID="842" v:groupContext="shape" transform="translate(1125,42.4768) rotate(89.8911)">
			<title>Sheet.842</title>
			<path d="M0 612 L33.23 612" class="st21"/>
		</g>
		<g id="shape844-353" v:mID="844" v:groupContext="shape" transform="translate(513.034,-532.497)">
			<title>Sheet.844</title>
			<path d="M0 595.5 L143.97 595.5 L143.96 606.28" class="st10"/>
		</g>
		<g id="shape845-358" v:mID="845" v:groupContext="shape" transform="translate(980.997,45.5152) rotate(90.1756)">
			<title>Sheet.845</title>
			<path d="M0 612 L23.88 612" class="st21"/>
		</g>
		<g id="shape848-363" v:mID="848" v:groupContext="shape" transform="translate(513.746,-345.577)">
			<title>Sheet.848</title>
			<desc>Health Tests 2</desc>
			<v:textBlock v:margins="rect(4,4,4,4)"/>
			<v:textRect cx="23.6675" cy="597.577" width="47.34" height="28.8451"/>
			<rect x="0" y="583.155" width="47.335" height="28.8451" class="st1"/>
			<text x="10.22" y="594.58" class="st2" v:langID="1033"><v:paragraph v:horizAlign="1"/><v:tabList/>Health <tspan
						x="9.49" dy="1.2em" class="st4">Tests 2</tspan></text>		</g>
		<g id="shape849-367" v:mID="849" v:groupContext="shape" transform="translate(568.492,-345.577)">
			<title>Sheet.849</title>
			<desc>Health Tests 1</desc>
			<v:textBlock v:margins="rect(4,4,4,4)"/>
			<v:textRect cx="23.6675" cy="597.577" width="47.34" height="28.8451"/>
			<rect x="0" y="583.155" width="47.335" height="28.8451" class="st1"/>
			<text x="10.22" y="594.58" class="st2" v:langID="1033"><v:paragraph v:horizAlign="1"/><v:tabList/>Health <tspan
						x="9.49" dy="1.2em" class="st4">Tests 1</tspan></text>		</g>
		<g id="shape850-371" v:mID="850" v:groupContext="shape" transform="translate(623.238,-345.577)">
			<title>Sheet.850</title>
			<desc>Health Tests 0</desc>
			<v:textBlock v:margins="rect(4,4,4,4)"/>
			<v:textRect cx="23.6675" cy="597.577" width="47.34" height="28.8451"/>
			<rect x="0" y="583.155" width="47.335" height="28.8451" class="st1"/>
			<text x="10.22" y="594.58" class="st2" v:langID="1033"><v:paragraph v:horizAlign="1"/><v:tabList/>Health <tspan
						x="9.49" dy="1.2em" class="st4">Tests 0</tspan></text>		</g>
		<g id="shape854-375" v:mID="854" v:groupContext="shape" transform="translate(980.999,576.749) rotate(135)">
			<title>Sheet.854</title>
			<path d="M0 612 L25.46 612" class="st20"/>
		</g>
		<g id="shape855-378" v:mID="855" v:groupContext="shape" transform="translate(981.749,522.749) rotate(135)">
			<title>Sheet.855</title>
			<path d="M0 612 L25.46 612" class="st20"/>
		</g>
		<g id="shape856-381" v:mID="856" v:groupContext="shape" transform="translate(522.266,-522.34)">
			<title>Sheet.856</title>
			<desc>1 bit</desc>
			<v:textBlock v:margins="rect(4,4,4,4)"/>
			<v:textRect cx="16.9837" cy="601.09" width="33.97" height="21.82"/>
			<rect x="0" y="590.18" width="33.9675" height="21.82" class="st3"/>
			<text x="7.87" y="604.09" class="st2" v:langID="1033"><v:paragraph v:horizAlign="1"/><v:tabList/>1 bit</text>		</g>
		<g id="shape857-384" v:mID="857" v:groupContext="shape" transform="translate(520.766,-466.09)">
			<title>Sheet.857</title>
			<desc>4 bit</desc>
			<v:textBlock v:margins="rect(4,4,4,4)"/>
			<v:textRect cx="16.9837" cy="601.09" width="33.97" height="21.82"/>
			<rect x="0" y="590.18" width="33.9675" height="21.82" class="st3"/>
			<text x="7.87" y="604.09" class="st2" v:langID="1033"><v:paragraph v:horizAlign="1"/><v:tabList/>4 bit</text>		</g>
		<g id="shape860-387" v:mID="860" v:groupContext="shape" transform="translate(1067.25,522.749) rotate(135)">
			<title>Sheet.860</title>
			<path d="M0 612 L25.46 612" class="st20"/>
		</g>
		<g id="shape861-390" v:mID="861" v:groupContext="shape" transform="translate(613.766,-518.18)">
			<title>Sheet.861</title>
			<desc>32 bit</desc>
			<v:textBlock v:margins="rect(4,4,4,4)"/>
			<v:textRect cx="16.9837" cy="601.09" width="33.97" height="21.82"/>
			<rect x="0" y="590.18" width="33.9675" height="21.82" class="st3"/>
			<text x="5.34" y="604.09" class="st2" v:langID="1033"><v:paragraph v:horizAlign="1"/><v:tabList/>32 bit</text>		</g>
		<g id="shape863-393" v:mID="863" v:groupContext="shape" transform="translate(1069.5,576.749) rotate(135)">
			<title>Sheet.863</title>
			<path d="M0 612 L25.46 612" class="st20"/>
		</g>
		<g id="shape864-396" v:mID="864" v:groupContext="shape" transform="translate(615.266,-463.5)">
			<title>Sheet.864</title>
			<desc>32 bit</desc>
			<v:textBlock v:margins="rect(4,4,4,4)"/>
			<v:textRect cx="16.9837" cy="601.09" width="33.97" height="21.82"/>
			<rect x="0" y="590.18" width="33.9675" height="21.82" class="st3"/>
			<text x="5.34" y="604.09" class="st2" v:langID="1033"><v:paragraph v:horizAlign="1"/><v:tabList/>32 bit</text>		</g>
		<g id="shape866-399" v:mID="866" v:groupContext="shape" transform="translate(486,-374.423)">
			<title>Sheet.866</title>
			<path d="M0 500.42 L0 599.42 L54 599.42 L54 606.28" class="st10"/>
		</g>
		<g id="shape867-404" v:mID="867" v:groupContext="shape" transform="translate(490.5,-374.423)">
			<title>Sheet.867</title>
			<path d="M0 500.42 L0 590.42 L103.5 590.42 L103.5 606.28" class="st10"/>
		</g>
		<g id="shape868-409" v:mID="868" v:groupContext="shape" transform="translate(495,-374.423)">
			<title>Sheet.868</title>
			<path d="M0 500.42 L0 581.42 L153 581.42 L153 606.28" class="st10"/>
		</g>
		<g id="shape870-414" v:mID="870" v:groupContext="shape" transform="translate(1093.5,126) rotate(90)">
			<title>Sheet.870</title>
			<path d="M0 612 L105.85 612" class="st21"/>
		</g>
	</g>
</svg>
