<?xml version="1.0" encoding="UTF-8" standalone="no"?>
<svg
   version="1.1"
   viewBox="0 0 580.80702 253.57481"
   fill="none"
   stroke="none"
   stroke-linecap="square"
   stroke-miterlimit="10"
   id="svg103"
   sodipodi:docname="dedicated_memory.svg"
   width="522.72632"
   height="228.21733"
   inkscape:version="1.2.1 (9c6d41e410, 2022-07-14)"
   xmlns:inkscape="http://www.inkscape.org/namespaces/inkscape"
   xmlns:sodipodi="http://sodipodi.sourceforge.net/DTD/sodipodi-0.dtd"
   xmlns="http://www.w3.org/2000/svg"
   xmlns:svg="http://www.w3.org/2000/svg">
  <defs
     id="defs107" />
  <sodipodi:namedview
     id="namedview105"
     pagecolor="#505050"
     bordercolor="#ffffff"
     borderopacity="1"
     inkscape:showpageshadow="0"
     inkscape:pageopacity="0"
     inkscape:pagecheckerboard="1"
     inkscape:deskcolor="#505050"
     showgrid="false"
     inkscape:zoom="2.7812867"
     inkscape:cx="285.29961"
     inkscape:cy="129.61627"
     inkscape:window-width="2560"
     inkscape:window-height="1403"
     inkscape:window-x="0"
     inkscape:window-y="0"
     inkscape:window-maximized="1"
     inkscape:current-layer="svg103" />
  <clipPath
     id="p.0">
    <path
       d="M 0,0 H 1280 V 960 H 0 Z"
       clip-rule="nonzero"
       id="path2" />
  </clipPath>
  <g
     clip-path="url(#p.0)"
     id="g101"
     transform="translate(-268.1391,-109.72179)">
    <path
       fill="#000000"
       fill-opacity="0"
       d="m 394.75214,130.75887 h 99.62207 v 45.03937 h -99.62207 z"
       fill-rule="evenodd"
       id="path7" />
    <path
       stroke="#000000"
       stroke-width="2"
       stroke-linejoin="round"
       stroke-linecap="butt"
       d="m 394.75214,130.75887 h 99.62207 v 45.03937 h -99.62207 z"
       fill-rule="evenodd"
       id="path9" />
    <path
       fill="#000000"
       d="m 405.4865,160.19855 v -13.35938 h 1.76562 v 13.35938 z m 4.68332,0 v -9.67188 h 1.46875 v 1.375 q 1.0625,-1.59375 3.07812,-1.59375 0.875,0 1.60938,0.3125 0.73437,0.3125 1.09375,0.82813 0.375,0.5 0.51562,1.20312 0.0937,0.45313 0.0937,1.59375 v 5.95313 h -1.64062 v -5.89063 q 0,-1 -0.20313,-1.48437 -0.1875,-0.5 -0.67187,-0.79688 -0.48438,-0.29687 -1.14063,-0.29687 -1.04687,0 -1.8125,0.67187 -0.75,0.65625 -0.75,2.51563 v 5.28125 z m 11.8757,0 h -1.51562 v -13.35938 h 1.64062 v 4.76563 q 1.04688,-1.29688 2.65625,-1.29688 0.89063,0 1.6875,0.35938 0.79688,0.35937 1.3125,1.01562 0.51563,0.64063 0.79688,1.5625 0.29687,0.92188 0.29687,1.96875 0,2.48438 -1.23437,3.84375 -1.21875,1.35938 -2.95313,1.35938 -1.70312,0 -2.6875,-1.4375 z m -0.0156,-4.90625 q 0,1.73437 0.48437,2.51562 0.76563,1.26563 2.09375,1.26563 1.07813,0 1.85938,-0.9375 0.78125,-0.9375 0.78125,-2.78125 0,-1.89063 -0.75,-2.79688 -0.75,-0.90625 -1.82813,-0.90625 -1.0625,0 -1.85937,0.9375 -0.78125,0.9375 -0.78125,2.70313 z m 8.28198,0.0625 q 0,-2.6875 1.48437,-3.96875 1.25,-1.07813 3.04688,-1.07813 2,0 3.26562,1.3125 1.26563,1.29688 1.26563,3.60938 0,1.85937 -0.5625,2.9375 -0.5625,1.0625 -1.64063,1.65625 -1.0625,0.59375 -2.32812,0.59375 -2.03125,0 -3.28125,-1.29688 -1.25,-1.3125 -1.25,-3.76562 z m 1.6875,0 q 0,1.85937 0.79687,2.79687 0.8125,0.92188 2.04688,0.92188 1.21875,0 2.03125,-0.92188 0.8125,-0.9375 0.8125,-2.84375 0,-1.79687 -0.8125,-2.71875 -0.8125,-0.92187 -2.03125,-0.92187 -1.23438,0 -2.04688,0.92187 -0.79687,0.90625 -0.79687,2.76563 z m 8.20382,4.84375 3.53125,-5.03125 -3.26562,-4.64063 h 2.04687 l 1.48438,2.26563 q 0.42187,0.64062 0.67187,1.07812 0.40625,-0.59375 0.73438,-1.0625 l 1.64062,-2.28125 h 1.95313 l -3.34375,4.54688 3.59375,5.125 h -2.01563 l -1.98437,-3 -0.51563,-0.8125 -2.54687,3.8125 z m 15.15207,-6.59375 q 0,-2.35938 0.48438,-3.79688 0.48437,-1.45312 1.4375,-2.23437 0.96875,-0.78125 2.42187,-0.78125 1.07813,0 1.89063,0.4375 0.8125,0.42187 1.32812,1.25 0.53125,0.8125 0.82813,1.98437 0.3125,1.15625 0.3125,3.14063 0,2.35937 -0.48438,3.8125 -0.48437,1.4375 -1.45312,2.23437 -0.95313,0.78125 -2.42188,0.78125 -1.92187,0 -3.03125,-1.39062 -1.3125,-1.67188 -1.3125,-5.4375 z m 1.67188,0 q 0,3.29687 0.76562,4.39062 0.78125,1.07813 1.90625,1.07813 1.14063,0 1.90625,-1.09375 0.76563,-1.09375 0.76563,-4.375 0,-3.29688 -0.76563,-4.375 -0.76562,-1.07813 -1.92187,-1.07813 -1.125,0 -1.79688,0.95313 -0.85937,1.21875 -0.85937,4.5 z"
       fill-rule="nonzero"
       id="path11" />
    <path
       fill="#000000"
       fill-opacity="0"
       d="m 494.38608,130.75887 h 65.5748 v 45.03937 h -65.5748 z"
       fill-rule="evenodd"
       id="path13" />
    <path
       stroke="#000000"
       stroke-width="2"
       stroke-linejoin="round"
       stroke-linecap="butt"
       d="m 494.38608,130.75887 h 65.5748 v 45.03937 h -65.5748 z"
       fill-rule="evenodd"
       id="path15" />
    <path
       fill="#000000"
       d="m 505.87137,158.35855 v -10.48438 h 2.07813 l 2.48437,7.42188 q 0.34375,1.03125 0.5,1.54687 0.1875,-0.5625 0.5625,-1.67187 l 2.51566,-7.29688 h 1.85937 v 10.48438 h -1.32812 v -8.78125 l -3.04691,8.78125 h -1.26562 l -3.03125,-8.9375 v 8.9375 z m 17.2869,-2.45313 1.32812,0.17188 q -0.3125,1.17187 -1.17187,1.8125 -0.84375,0.64062 -2.17188,0.64062 -1.67187,0 -2.65625,-1.01562 -0.96875,-1.03125 -0.96875,-2.89063 0,-1.92187 0.98438,-2.96875 1,-1.0625 2.57812,-1.0625 1.51563,0 2.48438,1.03125 0.96875,1.03125 0.96875,2.92188 0,0.10937 -0.0156,0.34375 h -5.65625 q 0.0625,1.25 0.70313,1.92187 0.64062,0.65625 1.59375,0.65625 0.70312,0 1.20312,-0.35937 0.5,-0.375 0.79688,-1.20313 z m -4.23438,-2.07812 h 4.25 q -0.0937,-0.95313 -0.48437,-1.4375 -0.625,-0.75 -1.60938,-0.75 -0.875,0 -1.48437,0.59375 -0.60938,0.59375 -0.67188,1.59375 z m 7.18237,4.53125 v -7.59375 h 1.15625 v 1.0625 q 0.34375,-0.5625 0.9375,-0.89063 0.60938,-0.34375 1.35938,-0.34375 0.84375,0 1.375,0.34375 0.54687,0.34375 0.76562,0.98438 0.90625,-1.32813 2.35938,-1.32813 1.125,0 1.73437,0.625 0.60938,0.625 0.60938,1.92188 v 5.21875 h -1.28125 v -4.78125 q 0,-0.78125 -0.125,-1.10938 -0.125,-0.34375 -0.45313,-0.54687 -0.32812,-0.21875 -0.78125,-0.21875 -0.79687,0 -1.32812,0.53125 -0.53125,0.53125 -0.53125,1.70312 v 4.42188 h -1.28125 v -4.9375 q 0,-0.85938 -0.3125,-1.28125 -0.3125,-0.4375 -1.03125,-0.4375 -0.54688,0 -1.01563,0.29687 -0.45312,0.28125 -0.67187,0.82813 -0.20313,0.54687 -0.20313,1.59375 v 3.9375 z m 20.76514,0 h -1.28125 v -8.20313 q -0.46875,0.4375 -1.21875,0.89063 -0.75,0.4375 -1.35937,0.65625 v -1.25 q 1.07812,-0.5 1.89062,-1.21875 0.8125,-0.73438 1.14063,-1.40625 h 0.82812 z"
       fill-rule="nonzero"
       id="path17" />
    <path
       fill="#000000"
       fill-opacity="0"
       d="m 396.01236,206.28632 h 99.62207 v 45.03937 h -99.62207 z"
       fill-rule="evenodd"
       id="path19" />
    <path
       stroke="#000000"
       stroke-width="2"
       stroke-linejoin="round"
       stroke-linecap="butt"
       d="m 396.01236,206.28632 h 99.62207 v 45.03937 h -99.62207 z"
       fill-rule="evenodd"
       id="path21" />
    <path
       fill="#000000"
       d="m 406.74673,235.726 v -13.35938 h 1.76563 V 235.726 Z m 4.68332,0 v -9.67188 h 1.46875 v 1.375 q 1.0625,-1.59375 3.07812,-1.59375 0.875,0 1.60938,0.3125 0.73437,0.3125 1.09375,0.82813 0.375,0.5 0.51562,1.20312 0.0937,0.45313 0.0937,1.59375 v 5.95313 h -1.64062 v -5.89063 q 0,-1 -0.20313,-1.48437 -0.1875,-0.5 -0.67187,-0.79688 -0.48438,-0.29687 -1.14063,-0.29687 -1.04687,0 -1.8125,0.67187 -0.75,0.65625 -0.75,2.51563 v 5.28125 z m 11.8757,0 h -1.51562 v -13.35938 h 1.64062 v 4.76563 q 1.04688,-1.29688 2.65625,-1.29688 0.89063,0 1.6875,0.35938 0.79688,0.35937 1.3125,1.01562 0.51563,0.64063 0.79688,1.5625 0.29687,0.92188 0.29687,1.96875 0,2.48438 -1.23437,3.84375 -1.21875,1.35938 -2.95313,1.35938 -1.70312,0 -2.6875,-1.4375 z m -0.0156,-4.90625 q 0,1.73437 0.48437,2.51562 0.76563,1.26563 2.09375,1.26563 1.07813,0 1.85938,-0.9375 0.78125,-0.9375 0.78125,-2.78125 0,-1.89063 -0.75,-2.79688 -0.75,-0.90625 -1.82813,-0.90625 -1.0625,0 -1.85937,0.9375 -0.78125,0.9375 -0.78125,2.70313 z m 8.28198,0.0625 q 0,-2.6875 1.48437,-3.96875 1.25,-1.07813 3.04688,-1.07813 2,0 3.26562,1.3125 1.26563,1.29688 1.26563,3.60938 0,1.85937 -0.5625,2.9375 -0.5625,1.0625 -1.64063,1.65625 -1.0625,0.59375 -2.32812,0.59375 -2.03125,0 -3.28125,-1.29688 -1.25,-1.3125 -1.25,-3.76562 z m 1.6875,0 q 0,1.85937 0.79687,2.79687 0.8125,0.92188 2.04688,0.92188 1.21875,0 2.03125,-0.92188 0.8125,-0.9375 0.8125,-2.84375 0,-1.79687 -0.8125,-2.71875 -0.8125,-0.92187 -2.03125,-0.92187 -1.23438,0 -2.04688,0.92187 -0.79687,0.90625 -0.79687,2.76563 z m 8.20382,4.84375 3.53125,-5.03125 -3.26562,-4.64063 h 2.04687 l 1.48438,2.26563 q 0.42187,0.64062 0.67187,1.07812 0.40625,-0.59375 0.73438,-1.0625 l 1.64062,-2.28125 h 1.95313 l -3.34375,4.54688 3.59375,5.125 h -2.01563 l -1.98437,-3 -0.51563,-0.8125 -2.54687,3.8125 z m 21.32395,0 h -1.64063 v -10.45313 q -0.59375,0.5625 -1.5625,1.14063 -0.95312,0.5625 -1.71875,0.84375 v -1.59375 q 1.375,-0.64063 2.40625,-1.5625 1.03125,-0.92188 1.45313,-1.78125 h 1.0625 z"
       fill-rule="nonzero"
       id="path23" />
    <path
       fill="#000000"
       fill-opacity="0"
       d="m 495.6463,206.28632 h 65.57483 v 45.03937 H 495.6463 Z"
       fill-rule="evenodd"
       id="path25" />
    <path
       stroke="#000000"
       stroke-width="2"
       stroke-linejoin="round"
       stroke-linecap="butt"
       d="m 495.6463,206.28632 h 65.57483 v 45.03937 H 495.6463 Z"
       fill-rule="evenodd"
       id="path27" />
    <path
       fill="#000000"
       d="m 507.1316,233.886 v -10.48438 h 2.07812 l 2.48438,7.42188 q 0.34375,1.03125 0.5,1.54687 0.1875,-0.5625 0.5625,-1.67187 l 2.51562,-7.29688 h 1.85938 V 233.886 h -1.32813 v -8.78125 l -3.04687,8.78125 h -1.26563 l -3.03125,-8.9375 v 8.9375 z m 17.28693,-2.45313 1.32812,0.17188 q -0.3125,1.17187 -1.17187,1.8125 -0.84375,0.64062 -2.17188,0.64062 -1.67187,0 -2.65625,-1.01562 -0.96875,-1.03125 -0.96875,-2.89063 0,-1.92187 0.98438,-2.96875 1,-1.0625 2.57812,-1.0625 1.51563,0 2.48438,1.03125 0.96875,1.03125 0.96875,2.92188 0,0.10937 -0.0156,0.34375 h -5.65625 q 0.0625,1.25 0.70313,1.92187 0.64062,0.65625 1.59375,0.65625 0.70312,0 1.20312,-0.35937 0.5,-0.375 0.79688,-1.20313 z m -4.23438,-2.07812 h 4.25 q -0.0937,-0.95313 -0.48437,-1.4375 -0.625,-0.75 -1.60938,-0.75 -0.875,0 -1.48437,0.59375 -0.60938,0.59375 -0.67188,1.59375 z m 7.18231,4.53125 v -7.59375 h 1.15625 v 1.0625 q 0.34375,-0.5625 0.9375,-0.89063 0.60938,-0.34375 1.35938,-0.34375 0.84375,0 1.375,0.34375 0.54687,0.34375 0.76562,0.98438 0.90625,-1.32813 2.35938,-1.32813 1.125,0 1.73437,0.625 0.60938,0.625 0.60938,1.92188 v 5.21875 h -1.28125 v -4.78125 q 0,-0.78125 -0.125,-1.10938 -0.125,-0.34375 -0.45313,-0.54687 -0.32812,-0.21875 -0.78125,-0.21875 -0.79687,0 -1.32812,0.53125 -0.53125,0.53125 -0.53125,1.70312 v 4.42188 h -1.28125 v -4.9375 q 0,-0.85938 -0.3125,-1.28125 -0.3125,-0.4375 -1.03125,-0.4375 -0.54688,0 -1.01563,0.29687 -0.45312,0.28125 -0.67187,0.82813 -0.20313,0.54687 -0.20313,1.59375 v 3.9375 z m 22.68702,-1.23438 v 1.23438 h -6.9375 q -0.0156,-0.46875 0.15625,-0.89063 0.26562,-0.71875 0.84375,-1.40625 0.59375,-0.6875 1.6875,-1.57812 1.71875,-1.40625 2.3125,-2.21875 0.60937,-0.82813 0.60937,-1.5625 0,-0.76563 -0.5625,-1.28125 -0.54687,-0.53125 -1.42187,-0.53125 -0.92188,0 -1.48438,0.5625 -0.5625,0.5625 -0.5625,1.54687 l -1.32812,-0.14062 q 0.14062,-1.48438 1.01562,-2.25 0.89063,-0.78125 2.39063,-0.78125 1.51562,0 2.39062,0.84375 0.875,0.82812 0.875,2.0625 0,0.64062 -0.26562,1.25 -0.25,0.59375 -0.84375,1.26562 -0.59375,0.67188 -1.98438,1.85938 -1.15625,0.96875 -1.48437,1.3125 -0.32813,0.34375 -0.54688,0.70312 z"
       fill-rule="nonzero"
       id="path29" />
    <path
       fill="#000000"
       fill-opacity="0"
       d="m 394.75214,281.81375 h 99.62207 v 45.03937 h -99.62207 z"
       fill-rule="evenodd"
       id="path31" />
    <path
       stroke="#000000"
       stroke-width="2"
       stroke-linejoin="round"
       stroke-linecap="butt"
       d="m 394.75214,281.81375 h 99.62207 v 45.03937 h -99.62207 z"
       fill-rule="evenodd"
       id="path33" />
    <path
       fill="#000000"
       d="m 405.4865,311.25342 v -13.35938 h 1.76562 v 13.35938 z m 4.68332,0 v -9.67188 h 1.46875 v 1.375 q 1.0625,-1.59375 3.07812,-1.59375 0.875,0 1.60938,0.3125 0.73437,0.3125 1.09375,0.82813 0.375,0.5 0.51562,1.20312 0.0937,0.45313 0.0937,1.59375 v 5.95313 h -1.64062 v -5.89063 q 0,-1 -0.20313,-1.48437 -0.1875,-0.5 -0.67187,-0.79688 -0.48438,-0.29687 -1.14063,-0.29687 -1.04687,0 -1.8125,0.67187 -0.75,0.65625 -0.75,2.51563 v 5.28125 z m 11.8757,0 h -1.51562 v -13.35938 h 1.64062 v 4.76563 q 1.04688,-1.29688 2.65625,-1.29688 0.89063,0 1.6875,0.35938 0.79688,0.35937 1.3125,1.01562 0.51563,0.64063 0.79688,1.5625 0.29687,0.92188 0.29687,1.96875 0,2.48438 -1.23437,3.84375 -1.21875,1.35938 -2.95313,1.35938 -1.70312,0 -2.6875,-1.4375 z m -0.0156,-4.90625 q 0,1.73437 0.48437,2.51562 0.76563,1.26563 2.09375,1.26563 1.07813,0 1.85938,-0.9375 0.78125,-0.9375 0.78125,-2.78125 0,-1.89063 -0.75,-2.79688 -0.75,-0.90625 -1.82813,-0.90625 -1.0625,0 -1.85937,0.9375 -0.78125,0.9375 -0.78125,2.70313 z m 8.28198,0.0625 q 0,-2.6875 1.48437,-3.96875 1.25,-1.07813 3.04688,-1.07813 2,0 3.26562,1.3125 1.26563,1.29688 1.26563,3.60938 0,1.85937 -0.5625,2.9375 -0.5625,1.0625 -1.64063,1.65625 -1.0625,0.59375 -2.32812,0.59375 -2.03125,0 -3.28125,-1.29688 -1.25,-1.3125 -1.25,-3.76562 z m 1.6875,0 q 0,1.85937 0.79687,2.79687 0.8125,0.92188 2.04688,0.92188 1.21875,0 2.03125,-0.92188 0.8125,-0.9375 0.8125,-2.84375 0,-1.79687 -0.8125,-2.71875 -0.8125,-0.92187 -2.03125,-0.92187 -1.23438,0 -2.04688,0.92187 -0.79687,0.90625 -0.79687,2.76563 z m 8.20382,4.84375 3.53125,-5.03125 -3.26562,-4.64063 h 2.04687 l 1.48438,2.26563 q 0.42187,0.64062 0.67187,1.07812 0.40625,-0.59375 0.73438,-1.0625 l 1.64062,-2.28125 h 1.95313 l -3.34375,4.54688 3.59375,5.125 h -2.01563 l -1.98437,-3 -0.51563,-0.8125 -2.54687,3.8125 z m 23.76145,-1.57813 v 1.57813 h -8.82813 q -0.0156,-0.59375 0.1875,-1.14063 0.34375,-0.90625 1.07813,-1.78125 0.75,-0.875 2.15625,-2.01562 2.17187,-1.78125 2.9375,-2.82813 0.76562,-1.04687 0.76562,-1.96875 0,-0.98437 -0.70312,-1.64062 -0.6875,-0.67188 -1.8125,-0.67188 -1.1875,0 -1.90625,0.71875 -0.70313,0.70313 -0.70313,1.95313 l -1.6875,-0.17188 q 0.17188,-1.89062 1.29688,-2.875 1.14062,-0.98437 3.03125,-0.98437 1.92187,0 3.04687,1.0625 1.125,1.0625 1.125,2.64062 0,0.79688 -0.32812,1.57813 -0.32813,0.78125 -1.09375,1.64062 -0.75,0.84375 -2.53125,2.34375 -1.46875,1.23438 -1.89063,1.6875 -0.42187,0.4375 -0.6875,0.875 z"
       fill-rule="nonzero"
       id="path35" />
    <path
       fill="#000000"
       fill-opacity="0"
       d="m 494.38608,281.81375 h 65.5748 v 45.03937 h -65.5748 z"
       fill-rule="evenodd"
       id="path37" />
    <path
       stroke="#000000"
       stroke-width="2"
       stroke-linejoin="round"
       stroke-linecap="butt"
       d="m 494.38608,281.81375 h 65.5748 v 45.03937 h -65.5748 z"
       fill-rule="evenodd"
       id="path39" />
    <path
       fill="#000000"
       d="m 505.87137,309.41342 v -10.48438 h 2.07813 l 2.48437,7.42188 q 0.34375,1.03125 0.5,1.54687 0.1875,-0.5625 0.5625,-1.67187 l 2.51566,-7.29688 h 1.85937 v 10.48438 h -1.32812 v -8.78125 l -3.04691,8.78125 h -1.26562 l -3.03125,-8.9375 v 8.9375 z m 17.2869,-2.45313 1.32812,0.17188 q -0.3125,1.17187 -1.17187,1.8125 -0.84375,0.64062 -2.17188,0.64062 -1.67187,0 -2.65625,-1.01562 -0.96875,-1.03125 -0.96875,-2.89063 0,-1.92187 0.98438,-2.96875 1,-1.0625 2.57812,-1.0625 1.51563,0 2.48438,1.03125 0.96875,1.03125 0.96875,2.92188 0,0.10937 -0.0156,0.34375 h -5.65625 q 0.0625,1.25 0.70313,1.92187 0.64062,0.65625 1.59375,0.65625 0.70312,0 1.20312,-0.35937 0.5,-0.375 0.79688,-1.20313 z m -4.23438,-2.07812 h 4.25 q -0.0937,-0.95313 -0.48437,-1.4375 -0.625,-0.75 -1.60938,-0.75 -0.875,0 -1.48437,0.59375 -0.60938,0.59375 -0.67188,1.59375 z m 7.18237,4.53125 v -7.59375 h 1.15625 v 1.0625 q 0.34375,-0.5625 0.9375,-0.89063 0.60938,-0.34375 1.35938,-0.34375 0.84375,0 1.375,0.34375 0.54687,0.34375 0.76562,0.98438 0.90625,-1.32813 2.35938,-1.32813 1.125,0 1.73437,0.625 0.60938,0.625 0.60938,1.92188 v 5.21875 h -1.28125 v -4.78125 q 0,-0.78125 -0.125,-1.10938 -0.125,-0.34375 -0.45313,-0.54687 -0.32812,-0.21875 -0.78125,-0.21875 -0.79687,0 -1.32812,0.53125 -0.53125,0.53125 -0.53125,1.70312 v 4.42188 h -1.28125 v -4.9375 q 0,-0.85938 -0.3125,-1.28125 -0.3125,-0.4375 -1.03125,-0.4375 -0.54688,0 -1.01563,0.29687 -0.45312,0.28125 -0.67187,0.82813 -0.20313,0.54687 -0.20313,1.59375 v 3.9375 z m 15.92139,-2.76563 1.29688,-0.17187 q 0.21875,1.09375 0.75,1.57812 0.53125,0.48438 1.29687,0.48438 0.90625,0 1.53125,-0.625 0.64063,-0.64063 0.64063,-1.5625 0,-0.89063 -0.59375,-1.46875 -0.57813,-0.57813 -1.46875,-0.57813 -0.35938,0 -0.90625,0.14063 l 0.14062,-1.125 q 0.125,0.0156 0.20313,0.0156 0.82812,0 1.48437,-0.42187 0.65625,-0.4375 0.65625,-1.34375 0,-0.70313 -0.48437,-1.15625 -0.46875,-0.46875 -1.23438,-0.46875 -0.75,0 -1.25,0.46875 -0.5,0.46875 -0.64062,1.42187 l -1.28125,-0.23437 q 0.23437,-1.29688 1.0625,-2 0.84375,-0.71875 2.09375,-0.71875 0.85937,0 1.57812,0.375 0.71875,0.35937 1.09375,1 0.39063,0.64062 0.39063,1.34375 0,0.6875 -0.375,1.25 -0.35938,0.54687 -1.0625,0.875 0.92187,0.21875 1.4375,0.90625 0.51562,0.67187 0.51562,1.6875 0,1.375 -1,2.32812 -1,0.95313 -2.53125,0.95313 -1.39062,0 -2.29687,-0.8125 -0.90625,-0.82813 -1.04688,-2.14063 z"
       fill-rule="nonzero"
       id="path41" />
    <path
       fill="#cfe2f3"
       d="m 619.6263,328.97638 v 0 c -6.5,0 -11.76929,-5.26929 -11.76929,-11.76926 V 139.92674 c 0,-3.1214 1.23999,-6.11496 3.44715,-8.32212 2.20715,-2.20717 5.20074,-3.44713 8.32214,-3.44713 h 47.07562 c 6.5,0 11.76929,5.26927 11.76929,11.76925 v 177.28038 c 0,6.49997 -5.26929,11.76926 -11.76929,11.76926 z"
       fill-rule="evenodd"
       id="path43" />
    <path
       stroke="#000000"
       stroke-width="2"
       stroke-linejoin="round"
       stroke-linecap="butt"
       d="m 619.6263,328.97638 v 0 c -6.5,0 -11.76929,-5.26929 -11.76929,-11.76926 V 139.92674 c 0,-3.1214 1.23999,-6.11496 3.44715,-8.32212 2.20715,-2.20717 5.20074,-3.44713 8.32214,-3.44713 h 47.07562 c 6.5,0 11.76929,5.26927 11.76929,11.76925 v 177.28038 c 0,6.49997 -5.26929,11.76926 -11.76929,11.76926 z"
       fill-rule="evenodd"
       id="path45" />
    <path
       fill="#000000"
       d="m 650.0841,277.8015 h -11.78125 v 4.40625 h -1.57812 v -10.57813 h 1.57812 v 4.40625 h 11.78125 z m 0,-7.91162 h -13.35937 v -1.78125 h 11.78125 v -6.5625 h 1.57812 z m -4.01562,-9.61008 h -1.64063 v -5.03125 h 1.64063 z m -9.34375,-15.82205 v -1.76563 h 7.71875 q 2.01562,0 3.20312,0.45313 1.1875,0.45312 1.9375,1.64062 0.73438,1.1875 0.73438,3.125 0,1.875 -0.64063,3.07813 -0.65625,1.1875 -1.875,1.70312 -1.23437,0.5 -3.35937,0.5 h -7.71875 v -1.76562 h 7.71875 q 1.73437,0 2.5625,-0.3125 0.8125,-0.32813 1.26562,-1.10938 0.45313,-0.79687 0.45313,-1.9375 0,-1.95312 -0.89063,-2.78125 -0.89062,-0.82812 -3.39062,-0.82812 z m 13.35937,-4.6292 h -13.35937 v -1.78125 h 11.78125 v -6.5625 h 1.57812 z m 0,-15.03817 h -13.35937 v -9.01563 h 1.57812 v 7.25 h 4.14063 v -6.26562 h 1.57812 v 6.26562 h 6.0625 z m -1.1875,-17.41161 q 0.76563,0.92188 1.09375,1.76563 0.3125,0.82812 0.3125,1.79687 0,1.59375 -0.78125,2.45313 -0.78125,0.85937 -1.98437,0.85937 -0.71875,0 -1.29688,-0.32812 -0.59375,-0.32813 -0.9375,-0.84375 -0.35937,-0.53125 -0.54687,-1.1875 -0.125,-0.46875 -0.25,-1.45313 -0.23438,-1.98437 -0.5625,-2.92187 -0.34375,-0.0156 -0.42188,-0.0156 -1,0 -1.42187,0.46875 -0.54688,0.625 -0.54688,1.875 0,1.15625 0.40625,1.70313 0.40625,0.54687 1.42188,0.8125 l -0.21875,1.60937 q -1.01563,-0.21875 -1.64063,-0.71875 -0.64062,-0.5 -0.98437,-1.45312 -0.34375,-0.95313 -0.34375,-2.1875 0,-1.25 0.29687,-2.01563 0.28125,-0.78125 0.73438,-1.14062 0.4375,-0.375 1.10937,-0.51563 0.42188,-0.0781 1.51563,-0.0781 h 2.1875 q 2.28125,0 2.89062,-0.10938 0.59375,-0.10937 1.15625,-0.40625 v 1.70313 q -0.51562,0.26562 -1.1875,0.32812 z m -3.67187,0.14063 q 0.375,0.89062 0.625,2.67187 0.14062,1.01563 0.32812,1.4375 0.1875,0.42188 0.53125,0.65625 0.34375,0.21875 0.78125,0.21875 0.65625,0 1.09375,-0.5 0.4375,-0.5 0.4375,-1.45312 0,-0.9375 -0.40625,-1.67188 -0.42187,-0.75 -1.14062,-1.09375 -0.5625,-0.26562 -1.64063,-0.26562 z m 4.85937,-5.70385 v 1.51563 h -13.35937 v -1.64063 h 4.76562 q -1.29687,-1.04687 -1.29687,-2.65625 0,-0.89062 0.35937,-1.6875 0.35938,-0.79687 1.01563,-1.3125 0.64062,-0.51562 1.5625,-0.79687 0.92187,-0.29688 1.96875,-0.29688 2.48437,0 3.84375,1.23438 1.35937,1.21875 1.35937,2.95312 0,1.70313 -1.4375,2.6875 z m -4.90625,0.0156 q 1.73438,0 2.51563,-0.48438 1.26562,-0.76562 1.26562,-2.09375 0,-1.07812 -0.9375,-1.85937 -0.9375,-0.78125 -2.78125,-0.78125 -1.89062,0 -2.79687,0.75 -0.90625,0.75 -0.90625,1.82812 0,1.0625 0.9375,1.85938 0.9375,0.78125 2.70312,0.78125 z m 4.90625,-8.87572 h -9.67187 v -1.46875 h 1.46875 q -1.03125,-0.5625 -1.35938,-1.03125 -0.32812,-0.48437 -0.32812,-1.0625 0,-0.82812 0.53125,-1.6875 l 1.51562,0.5625 q -0.35937,0.60938 -0.35937,1.20313 0,0.54687 0.32812,0.96875 0.32813,0.42187 0.89063,0.60937 0.875,0.28125 1.92187,0.28125 h 5.0625 z m -11.46875,-6.2283 h -1.89062 v -1.64063 h 1.89062 z m 11.46875,0 h -9.67187 v -1.64063 h 9.67187 z m -3.54687,-10.45732 0.21875,-1.60938 q 1.65625,0.26563 2.60937,1.35938 0.9375,1.07812 0.9375,2.67187 0,1.98438 -1.29687,3.1875 -1.29688,1.20313 -3.71875,1.20313 -1.57813,0 -2.75,-0.51563 -1.17188,-0.51562 -1.75,-1.57812 -0.59375,-1.0625 -0.59375,-2.3125 0,-1.57813 0.79687,-2.57813 0.79688,-1 2.26563,-1.28125 l 0.23437,1.59375 q -0.96875,0.23438 -1.45312,0.8125 -0.5,0.57813 -0.5,1.39063 0,1.23437 0.89062,2.01562 0.89063,0.78125 2.8125,0.78125 1.95313,0 2.84375,-0.75 0.875,-0.75 0.875,-1.95312 0,-0.96875 -0.59375,-1.60938 -0.59375,-0.65625 -1.82812,-0.82812 z"
       fill-rule="nonzero"
       id="path47" />
    <path
       fill="#000000"
       fill-opacity="0"
       d="m 748.32404,205.17053 h 99.62207 v 45.03937 h -99.62207 z"
       fill-rule="evenodd"
       id="path49" />
    <path
       stroke="#000000"
       stroke-width="2"
       stroke-linejoin="round"
       stroke-linecap="butt"
       d="m 748.32404,205.17053 h 99.62207 v 45.03937 h -99.62207 z"
       fill-rule="evenodd"
       id="path51" />
    <path
       fill="#000000"
       d="m 778.6124,234.61021 v -13.35938 h 1.76562 v 13.35938 z m 4.80835,0 v -13.35938 h 5.01562 q 1.53125,0 2.45313,0.40625 0.92187,0.40625 1.4375,1.25 0.53125,0.84375 0.53125,1.76563 0,0.85937 -0.46875,1.625 -0.45313,0.75 -1.39063,1.20312 1.20313,0.35938 1.85938,1.21875 0.65625,0.85938 0.65625,2.01563 0,0.9375 -0.40625,1.75 -0.39063,0.79687 -0.98438,1.23437 -0.57812,0.4375 -1.45312,0.67188 -0.875,0.21875 -2.15625,0.21875 z m 1.78125,-7.75 h 2.875 q 1.1875,0 1.6875,-0.14063 0.67187,-0.20312 1.01562,-0.67187 0.34375,-0.46875 0.34375,-1.17188 0,-0.65625 -0.32812,-1.15625 -0.3125,-0.51562 -0.90625,-0.70312 -0.59375,-0.1875 -2.03125,-0.1875 H 785.202 Z m 0,6.17187 h 3.3125 q 0.85937,0 1.20312,-0.0625 0.60938,-0.10937 1.01563,-0.35937 0.42187,-0.26563 0.6875,-0.75 0.26562,-0.48438 0.26562,-1.125 0,-0.75 -0.39062,-1.29688 -0.375,-0.54687 -1.0625,-0.76562 -0.67188,-0.23438 -1.95313,-0.23438 H 785.202 Z m 10.77167,1.57813 v -13.35938 h 9.65625 v 1.57813 h -7.875 v 4.09375 h 7.375 v 1.5625 h -7.375 v 4.54687 h 8.1875 v 1.57813 z m 11.05298,0 5.17187,-6.95313 -4.5625,-6.40625 h 2.10938 l 2.42187,3.4375 q 0.75,1.0625 1.07813,1.625 0.4375,-0.71875 1.04687,-1.51562 l 2.6875,-3.54688 h 1.92188 l -4.6875,6.29688 5.0625,7.0625 h -2.1875 l -3.35938,-4.76563 q -0.28125,-0.40625 -0.59375,-0.89062 -0.4375,0.73437 -0.625,1 l -3.35937,4.65625 z"
       fill-rule="nonzero"
       id="path53" />
    <path
       fill="#000000"
       fill-opacity="0"
       d="m 748.32404,227.69022 -69.85822,0.88188"
       fill-rule="evenodd"
       id="path55" />
    <path
       stroke="#000000"
       stroke-width="2"
       stroke-linejoin="round"
       stroke-linecap="butt"
       d="m 748.32404,227.6902 -57.85925,0.73042"
       fill-rule="evenodd"
       id="path57" />
    <path
       fill="#000000"
       stroke="#000000"
       stroke-width="2"
       stroke-linecap="butt"
       d="m 690.42316,225.11742 -9.03381,3.41777 9.11718,3.18863 z"
       fill-rule="evenodd"
       id="path59" />
    <path
       fill="#000000"
       fill-opacity="0"
       d="M 607.857,228.56693 H 583.89802 V 153.29134 H 559.95148"
       fill-rule="evenodd"
       id="path61" />
    <path
       stroke="#000000"
       stroke-width="2"
       stroke-linejoin="round"
       stroke-linecap="butt"
       d="m 607.857,228.56693 h -23.95892 v -75.27559 h -11.9466"
       fill-rule="evenodd"
       id="path63" />
    <path
       fill="#000000"
       stroke="#000000"
       stroke-width="2"
       stroke-linecap="butt"
       d="m 571.9515,149.98787 -9.07617,3.30347 9.07617,3.30346 z"
       fill-rule="evenodd"
       id="path65" />
    <path
       fill="#000000"
       fill-opacity="0"
       d="m 607.857,228.56693 h -23.32935 v 0.25197 h -23.31628"
       fill-rule="evenodd"
       id="path67" />
    <path
       stroke="#000000"
       stroke-width="2"
       stroke-linejoin="round"
       stroke-linecap="butt"
       d="m 607.857,228.56693 h -23.32935 v 0.25197 h -11.31634"
       fill-rule="evenodd"
       id="path69" />
    <path
       fill="#000000"
       stroke="#000000"
       stroke-width="2"
       stroke-linecap="butt"
       d="m 573.2113,225.51543 -9.07617,3.30347 9.07617,3.30346 z"
       fill-rule="evenodd"
       id="path71" />
    <path
       fill="#000000"
       fill-opacity="0"
       d="m 607.857,228.56693 h -23.95898 v 75.77954 h -23.94654"
       fill-rule="evenodd"
       id="path73" />
    <path
       stroke="#000000"
       stroke-width="2"
       stroke-linejoin="round"
       stroke-linecap="butt"
       d="m 607.857,228.56693 h -23.95892 v 75.77954 h -11.9466"
       fill-rule="evenodd"
       id="path75" />
    <path
       fill="#000000"
       stroke="#000000"
       stroke-width="2"
       stroke-linecap="butt"
       d="m 571.9515,301.043 -9.07617,3.30347 9.07617,3.30346 z"
       fill-rule="evenodd"
       id="path77" />
    <path
       fill="#000000"
       fill-opacity="0"
       d="M 395.32166,153.27821 H 328.23505"
       fill-rule="evenodd"
       id="path79" />
    <path
       stroke="#000000"
       stroke-width="2"
       stroke-linejoin="round"
       stroke-linecap="butt"
       d="M 383.32166,153.27821 H 328.23505"
       fill-rule="evenodd"
       id="path81" />
    <path
       fill="#000000"
       stroke="#000000"
       stroke-width="2"
       stroke-linecap="butt"
       d="m 383.32166,156.58168 9.07617,-3.30347 -9.07617,-3.30346 z"
       fill-rule="evenodd"
       id="path83" />
    <path
       fill="#000000"
       fill-opacity="0"
       d="m 328.23404,229.53023 67.77954,-0.7244"
       fill-rule="evenodd"
       id="path85" />
    <path
       stroke="#000000"
       stroke-width="2"
       stroke-linejoin="round"
       stroke-linecap="butt"
       d="m 328.23404,229.53024 55.78024,-0.59616"
       fill-rule="evenodd"
       id="path87" />
    <path
       fill="#000000"
       stroke="#000000"
       stroke-width="2"
       stroke-linecap="butt"
       d="m 384.04956,232.23735 9.04037,-3.40027 -9.11099,-3.20628 z"
       fill-rule="evenodd"
       id="path89" />
    <path
       fill="#000000"
       fill-opacity="0"
       d="m 326.1545,304.01312 69.16537,0.31497"
       fill-rule="evenodd"
       id="path91" />
    <path
       stroke="#000000"
       stroke-width="2"
       stroke-linejoin="round"
       stroke-linecap="butt"
       d="m 326.15454,304.01312 57.16547,0.26031"
       fill-rule="evenodd"
       id="path93" />
    <path
       fill="#000000"
       stroke="#000000"
       stroke-width="2"
       stroke-linecap="butt"
       d="m 383.30496,307.57687 9.09116,-3.26212 -9.06107,-3.34475 z"
       fill-rule="evenodd"
       id="path95" />
    <path
       fill="#000000"
       fill-opacity="0"
       d="M 268.1391,363.2966 V 109.72179 h 42.01575 V 363.2966 Z"
       fill-rule="evenodd"
       id="path97" />
    <path
       fill="#000000"
       d="m 290.76224,341.24442 -0.14062,-1.65625 q 1,-0.125 1.64062,-0.54688 0.64063,-0.4375 1.04688,-1.34375 0.39062,-0.92187 0.39062,-2.0625 0,-1 -0.29687,-1.78125 -0.29688,-0.78125 -0.8125,-1.15625 -0.53125,-0.375 -1.15625,-0.375 -0.625,0 -1.09375,0.375 -0.46875,0.35938 -0.79688,1.1875 -0.20312,0.54688 -0.64062,2.39063 -0.45313,1.82812 -0.84375,2.5625 -0.5,0.96875 -1.23438,1.4375 -0.75,0.46875 -1.67187,0.46875 -1,0 -1.875,-0.57813 -0.89063,-0.57812 -1.34375,-1.67187 -0.45313,-1.10938 -0.45313,-2.45313 0,-1.48437 0.48438,-2.60937 0.46875,-1.14063 1.40625,-1.75 0.92187,-0.60938 2.09375,-0.65625 l 0.125,1.6875 q -1.26563,0.14062 -1.90625,0.9375 -0.65625,0.78125 -0.65625,2.3125 0,1.60937 0.59375,2.34375 0.59375,0.73437 1.42187,0.73437 0.71875,0 1.17188,-0.53125 0.46875,-0.5 0.96875,-2.65625 0.48437,-2.15625 0.84375,-2.95312 0.53125,-1.17188 1.35937,-1.71875 0.82813,-0.5625 1.90625,-0.5625 1.0625,0 2.01563,0.60937 0.9375,0.60938 1.46875,1.75 0.51562,1.14063 0.51562,2.57813 0,1.8125 -0.53125,3.04687 -0.53125,1.21875 -1.59375,1.92188 -1.0625,0.6875 -2.40625,0.71875 z m -0.54687,-12.22482 q -2.6875,0 -3.96875,-1.48438 -1.07813,-1.25 -1.07813,-3.04687 0,-2 1.3125,-3.26563 1.29688,-1.26562 3.60938,-1.26562 1.85937,0 2.9375,0.5625 1.0625,0.5625 1.65625,1.64062 0.59375,1.0625 0.59375,2.32813 0,2.03125 -1.29688,3.28125 -1.3125,1.25 -3.76562,1.25 z m 0,-1.6875 q 1.85937,0 2.79687,-0.79688 0.92188,-0.8125 0.92188,-2.04687 0,-1.21875 -0.92188,-2.03125 -0.9375,-0.8125 -2.84375,-0.8125 -1.79687,0 -2.71875,0.8125 -0.92187,0.8125 -0.92187,2.03125 0,1.23437 0.92187,2.04687 0.90625,0.79688 2.76563,0.79688 z m 0.15625,-19.03199 0.45312,-1.76562 q 2.17188,0.5625 3.32813,2 1.14062,1.4375 1.14062,3.53125 0,2.15625 -0.875,3.51562 -0.89062,1.34375 -2.54687,2.0625 -1.67188,0.70313 -3.59375,0.70313 -2.07813,0 -3.625,-0.79688 -1.5625,-0.79687 -2.35938,-2.26562 -0.8125,-1.48438 -0.8125,-3.25 0,-2 1.01563,-3.35938 1.01562,-1.375 2.875,-1.90625 l 0.40625,1.73438 q -1.45313,0.46875 -2.10938,1.35937 -0.67187,0.875 -0.67187,2.20313 0,1.54687 0.73437,2.57812 0.73438,1.03125 1.98438,1.45313 1.23437,0.42187 2.5625,0.42187 1.70312,0 2.96875,-0.5 1.26562,-0.5 1.90625,-1.54687 0.625,-1.04688 0.625,-2.26563 0,-1.48437 -0.85938,-2.51562 -0.85937,-1.03125 -2.54687,-1.39063 z m 4.6875,-9.15625 h -13.35938 v -5.92187 q 0,-1.78125 0.35938,-2.70313 0.35937,-0.9375 1.28125,-1.48437 0.90625,-0.5625 2.01562,-0.5625 1.40625,0 2.39063,0.92187 0.96875,0.92188 1.23437,2.84375 0.34375,-0.70312 0.67188,-1.07812 0.70312,-0.76563 1.76562,-1.45313 l 3.64063,-2.32812 v 2.21875 l -2.78125,1.76562 q -1.20313,0.78125 -1.82813,1.28125 -0.64062,0.5 -0.89062,0.90625 -0.26563,0.39063 -0.35938,0.79688 -0.0781,0.29687 -0.0781,0.98437 v 2.04688 h 5.9375 z m -7.45313,-1.76562 v -3.79688 q 0,-1.21875 -0.25,-1.89062 -0.26562,-0.6875 -0.8125,-1.04688 -0.54687,-0.35937 -1.1875,-0.35937 -0.95312,0 -1.5625,0.6875 -0.60937,0.6875 -0.60937,2.1875 v 4.21875 z m 4.34375,-18.09793 0.20313,-1.6875 q 1.48437,0.40625 2.3125,1.48437 0.8125,1.07813 0.8125,2.76563 0,2.125 -1.29688,3.375 -1.3125,1.23437 -3.67187,1.23437 -2.45313,0 -3.79688,-1.25 -1.34375,-1.26562 -1.34375,-3.26562 0,-1.9375 1.32813,-3.15625 1.3125,-1.23438 3.70312,-1.23438 0.15625,0 0.4375,0 v 7.21875 q 1.59375,-0.0937 2.45313,-0.90625 0.84375,-0.8125 0.84375,-2.01562 0,-0.90625 -0.46875,-1.54688 -0.48438,-0.64062 -1.51563,-1.01562 z m -2.65625,5.39062 v -5.40625 q -1.21875,0.10938 -1.82812,0.625 -0.95313,0.78125 -0.95313,2.03125 0,1.125 0.76563,1.90625 0.75,0.76563 2.01562,0.84375 z m 9.46875,-15.2976 h -4.73437 q 0.54687,0.375 0.90625,1.0625 0.34375,0.6875 0.34375,1.46875 0,1.71875 -1.375,2.96875 -1.375,1.23437 -3.76563,1.23437 -1.46875,0 -2.625,-0.5 -1.15625,-0.51562 -1.75,-1.46875 -0.59375,-0.96875 -0.59375,-2.10937 0,-1.79688 1.51563,-2.82813 h -1.29688 v -1.46875 h 13.375 z m -8.5625,5.04687 q 1.85938,0 2.79688,-0.78125 0.9375,-0.78125 0.9375,-1.875 0,-1.04687 -0.89063,-1.79687 -0.89062,-0.76563 -2.70312,-0.76563 -1.9375,0 -2.90625,0.79688 -0.96875,0.79687 -0.96875,1.875 0,1.0625 0.90625,1.8125 0.90625,0.73437 2.82812,0.73437 z m 4.85938,-15.59445 h -1.42188 q 1.64063,1.125 1.64063,3.0625 0,0.85938 -0.32813,1.60938 -0.32812,0.73437 -0.82812,1.09375 -0.5,0.35937 -1.21875,0.5 -0.46875,0.10937 -1.53125,0.10937 h -5.98438 v -1.64062 h 5.35938 q 1.28125,0 1.73437,-0.10938 0.64063,-0.15625 1.01563,-0.65625 0.375,-0.5 0.375,-1.23437 0,-0.73438 -0.375,-1.375 -0.39063,-0.65625 -1.03125,-0.92188 -0.65625,-0.26562 -1.89063,-0.26562 h -5.1875 V 257.357 h 9.67188 z m -3.10938,-10.67259 0.20313,-1.6875 q 1.48437,0.40625 2.3125,1.48437 0.8125,1.07813 0.8125,2.76563 0,2.125 -1.29688,3.375 -1.3125,1.23437 -3.67187,1.23437 -2.45313,0 -3.79688,-1.25 -1.34375,-1.26562 -1.34375,-3.26562 0,-1.9375 1.32813,-3.15625 1.3125,-1.23438 3.70312,-1.23438 0.15625,0 0.4375,0 v 7.21875 q 1.59375,-0.0937 2.45313,-0.90625 0.84375,-0.8125 0.84375,-2.01562 0,-0.90625 -0.46875,-1.54688 -0.48438,-0.64062 -1.51563,-1.01562 z m -2.65625,5.39062 v -5.40625 q -1.21875,0.10938 -1.82812,0.625 -0.95313,0.78125 -0.95313,2.03125 0,1.125 0.76563,1.90625 0.75,0.76563 2.01562,0.84375 z m 2.875,-8.48509 -0.25,-1.625 q 0.96875,-0.125 1.5,-0.75 0.51563,-0.625 0.51563,-1.75 0,-1.125 -0.45313,-1.67187 -0.46875,-0.54688 -1.09375,-0.54688 -0.54687,0 -0.875,0.48438 -0.21875,0.32812 -0.54687,1.67187 -0.46875,1.8125 -0.79688,2.51563 -0.32812,0.6875 -0.90625,1.04687 -0.59375,0.35938 -1.3125,0.35938 -0.64062,0 -1.1875,-0.29688 -0.5625,-0.29687 -0.92187,-0.8125 -0.28125,-0.375 -0.46875,-1.03125 -0.20313,-0.67187 -0.20313,-1.42187 0,-1.14063 0.32813,-2 0.32812,-0.85938 0.89062,-1.26563 0.5625,-0.42187 1.5,-0.57812 l 0.21875,1.60937 q -0.75,0.10938 -1.17187,0.64063 -0.42188,0.51562 -0.42188,1.46875 0,1.14062 0.375,1.625 0.375,0.46875 0.875,0.46875 0.3125,0 0.57813,-0.1875 0.26562,-0.20313 0.4375,-0.64063 0.0937,-0.23437 0.42187,-1.4375 0.45313,-1.75 0.75,-2.4375 0.29688,-0.6875 0.85938,-1.07812 0.5625,-0.39063 1.40625,-0.39063 0.82812,0 1.54687,0.48438 0.71875,0.46875 1.125,1.375 0.39063,0.90625 0.39063,2.04687 0,1.875 -0.78125,2.875 -0.78125,0.98438 -2.32813,1.25 z m 1.42188,-13.56251 1.45312,-0.23438 q 0.14063,0.6875 0.14063,1.23438 0,0.89062 -0.28125,1.39062 -0.28125,0.48438 -0.73438,0.6875 -0.46875,0.20313 -1.9375,0.20313 h -5.57812 v 1.20314 h -1.26563 v -1.20314 h -2.39062 l -0.98438,-1.625 h 3.375 v -1.65625 h 1.26563 v 1.65625 h 5.67187 q 0.6875,0 0.89063,-0.0781 0.20312,-0.0937 0.32812,-0.28125 0.10938,-0.20312 0.10938,-0.57812 0,-0.26563 -0.0625,-0.71875 z m -1.64063,-8.23017 0.20313,-1.6875 q 1.48437,0.40625 2.3125,1.48438 0.8125,1.07812 0.8125,2.76562 0,2.125 -1.29688,3.375 -1.3125,1.23438 -3.67187,1.23438 -2.45313,0 -3.79688,-1.25 -1.34375,-1.26563 -1.34375,-3.26563 0,-1.9375 1.32813,-3.15625 1.3125,-1.23437 3.70312,-1.23437 0.15625,0 0.4375,0 v 7.21875 q 1.59375,-0.0937 2.45313,-0.90625 0.84375,-0.8125 0.84375,-2.01563 0,-0.90625 -0.46875,-1.54687 -0.48438,-0.64063 -1.51563,-1.01563 z m -2.65625,5.39063 v -5.40625 q -1.21875,0.10937 -1.82812,0.625 -0.95313,0.78125 -0.95313,2.03125 0,1.125 0.76563,1.90625 0.75,0.76562 2.01562,0.84375 z m 5.76563,-9.12573 h -9.67188 v -1.46875 h 1.46875 q -1.03125,-0.5625 -1.35937,-1.03125 -0.32813,-0.48438 -0.32813,-1.0625 0,-0.82813 0.53125,-1.6875 l 1.51563,0.5625 q -0.35938,0.60937 -0.35938,1.20312 0,0.54688 0.32813,0.96875 0.32812,0.42188 0.89062,0.60938 0.875,0.28125 1.92188,0.28125 h 5.0625 z m -2.89063,-5.57206 -0.25,-1.625 q 0.96875,-0.125 1.5,-0.75 0.51563,-0.625 0.51563,-1.75 0,-1.125 -0.45313,-1.67187 -0.46875,-0.54688 -1.09375,-0.54688 -0.54687,0 -0.875,0.48438 -0.21875,0.32812 -0.54687,1.67187 -0.46875,1.8125 -0.79688,2.51563 -0.32812,0.6875 -0.90625,1.04687 -0.59375,0.35938 -1.3125,0.35938 -0.64062,0 -1.1875,-0.29688 -0.5625,-0.29687 -0.92187,-0.8125 -0.28125,-0.375 -0.46875,-1.03125 -0.20313,-0.67187 -0.20313,-1.42187 0,-1.14063 0.32813,-2 0.32812,-0.85938 0.89062,-1.26563 0.5625,-0.42187 1.5,-0.57812 l 0.21875,1.60937 q -0.75,0.10938 -1.17187,0.64063 -0.42188,0.51562 -0.42188,1.46875 0,1.14062 0.375,1.625 0.375,0.46875 0.875,0.46875 0.3125,0 0.57813,-0.1875 0.26562,-0.20313 0.4375,-0.64063 0.0937,-0.23437 0.42187,-1.4375 0.45313,-1.75 0.75,-2.4375 0.29688,-0.6875 0.85938,-1.07812 0.5625,-0.39063 1.40625,-0.39063 0.82812,0 1.54687,0.48438 0.71875,0.46875 1.125,1.375 0.39063,0.90625 0.39063,2.04687 0,1.875 -0.78125,2.875 -0.78125,0.98438 -2.32813,1.25 z m 3.125,-13.93329 -13.8125,-3.875 v -1.3125 l 13.8125,3.85938 z m -0.23437,-14.13223 -13.35938,3.53125 v -1.8125 l 8.76563,-2.03125 q 1.375,-0.32812 2.71875,-0.5625 -2.14063,-0.5 -2.46875,-0.59375 l -9.01563,-2.54687 v -2.125 l 6.76563,-1.92188 q 2.51562,-0.71875 4.71875,-1.03125 -1.26563,-0.26562 -2.89063,-0.67187 l -8.59375,-2.09375 v -1.78125 l 13.35938,3.67187 v 1.70313 l -10.17188,2.8125 q -1.28125,0.35937 -1.5625,0.42187 0.90625,0.20313 1.5625,0.39063 l 10.17188,2.82812 z m 0,-14.72455 h -9.67188 v -1.46875 h 1.46875 q -1.03125,-0.5625 -1.35937,-1.03125 -0.32813,-0.48437 -0.32813,-1.0625 0,-0.82812 0.53125,-1.6875 l 1.51563,0.5625 q -0.35938,0.60938 -0.35938,1.20313 0,0.54687 0.32813,0.96875 0.32812,0.42187 0.89062,0.60937 0.875,0.28125 1.92188,0.28125 h 5.0625 z m -11.46875,-6.2283 h -1.89063 v -1.64062 h 1.89063 z m 11.46875,0 h -9.67188 v -1.64062 h 9.67188 z m -1.46875,-7.72293 1.45312,-0.23437 q 0.14063,0.6875 0.14063,1.23437 0,0.89063 -0.28125,1.39063 -0.28125,0.48437 -0.73438,0.6875 -0.46875,0.20312 -1.9375,0.20312 h -5.57812 v 1.20313 h -1.26563 v -1.20313 h -2.39062 l -0.98438,-1.625 h 3.375 v -1.65625 h 1.26563 v 1.65625 h 5.67187 q 0.6875,0 0.89063,-0.0781 0.20312,-0.0937 0.32812,-0.28125 0.10938,-0.20313 0.10938,-0.57813 0,-0.26562 -0.0625,-0.71875 z m -1.64063,-8.23019 0.20313,-1.6875 q 1.48437,0.40625 2.3125,1.48437 0.8125,1.07813 0.8125,2.76563 0,2.125 -1.29688,3.375 -1.3125,1.23437 -3.67187,1.23437 -2.45313,0 -3.79688,-1.25 -1.34375,-1.26562 -1.34375,-3.26562 0,-1.9375 1.32813,-3.15625 1.3125,-1.23438 3.70312,-1.23438 0.15625,0 0.4375,0 v 7.21875 q 1.59375,-0.0937 2.45313,-0.90625 0.84375,-0.8125 0.84375,-2.01562 0,-0.90625 -0.46875,-1.54688 -0.48438,-0.64062 -1.51563,-1.01562 z m -2.65625,5.39062 v -5.40625 q -1.21875,0.10938 -1.82812,0.625 -0.95313,0.78125 -0.95313,2.03125 0,1.125 0.76563,1.90625 0.75,0.76563 2.01562,0.84375 z m 5.76563,-9.1257 h -9.67188 v -1.46875 h 1.46875 q -1.03125,-0.5625 -1.35937,-1.03125 -0.32813,-0.48438 -0.32813,-1.0625 0,-0.82813 0.53125,-1.6875 l 1.51563,0.5625 q -0.35938,0.60937 -0.35938,1.20312 0,0.54688 0.32813,0.96875 0.32812,0.42188 0.89062,0.60938 0.875,0.28125 1.92188,0.28125 h 5.0625 z m -2.89063,-5.57205 -0.25,-1.625 q 0.96875,-0.125 1.5,-0.75 0.51563,-0.625 0.51563,-1.75 0,-1.125 -0.45313,-1.67188 -0.46875,-0.54687 -1.09375,-0.54687 -0.54687,0 -0.875,0.48437 -0.21875,0.32813 -0.54687,1.67188 -0.46875,1.8125 -0.79688,2.51562 -0.32812,0.6875 -0.90625,1.04688 -0.59375,0.35937 -1.3125,0.35937 -0.64062,0 -1.1875,-0.29687 -0.5625,-0.29688 -0.92187,-0.8125 -0.28125,-0.375 -0.46875,-1.03125 -0.20313,-0.67188 -0.20313,-1.42188 0,-1.14062 0.32813,-2 0.32812,-0.85937 0.89062,-1.26562 0.5625,-0.42188 1.5,-0.57813 l 0.21875,1.60938 q -0.75,0.10937 -1.17187,0.64062 -0.42188,0.51563 -0.42188,1.46875 0,1.14063 0.375,1.625 0.375,0.46875 0.875,0.46875 0.3125,0 0.57813,-0.1875 0.26562,-0.20312 0.4375,-0.64062 0.0937,-0.23438 0.42187,-1.4375 0.45313,-1.75 0.75,-2.4375 0.29688,-0.6875 0.85938,-1.07813 0.5625,-0.39062 1.40625,-0.39062 0.82812,0 1.54687,0.48437 0.71875,0.46875 1.125,1.375 0.39063,0.90625 0.39063,2.04688 0,1.875 -0.78125,2.875 -0.78125,0.98437 -2.32813,1.25 z"
       fill-rule="nonzero"
       id="path99" />
  </g>
</svg>
