<?xml version="1.0" encoding="UTF-8" standalone="no"?>
<svg
   version="1.1"
   viewBox="0 0 685.02664 290.19691"
   fill="none"
   stroke="none"
   stroke-linecap="square"
   stroke-miterlimit="10"
   id="svg117"
   sodipodi:docname="local_shared_memory.svg"
   width="522.23212"
   height="221.23248"
   inkscape:version="1.2.1 (9c6d41e410, 2022-07-14)"
   xmlns:inkscape="http://www.inkscape.org/namespaces/inkscape"
   xmlns:sodipodi="http://sodipodi.sourceforge.net/DTD/sodipodi-0.dtd"
   xmlns="http://www.w3.org/2000/svg"
   xmlns:svg="http://www.w3.org/2000/svg">
  <defs
     id="defs121" />
  <sodipodi:namedview
     id="namedview119"
     pagecolor="#505050"
     bordercolor="#ffffff"
     borderopacity="1"
     inkscape:showpageshadow="0"
     inkscape:pageopacity="0"
     inkscape:pagecheckerboard="1"
     inkscape:deskcolor="#505050"
     showgrid="false"
     inkscape:zoom="1.9666666"
     inkscape:cx="304.83052"
     inkscape:cy="143.64407"
     inkscape:window-width="2560"
     inkscape:window-height="1403"
     inkscape:window-x="0"
     inkscape:window-y="0"
     inkscape:window-maximized="1"
     inkscape:current-layer="g115" />
  <clipPath
     id="p.0">
    <path
       d="M 0,0 H 1280 V 960 H 0 Z"
       clip-rule="nonzero"
       id="path2" />
  </clipPath>
  <g
     clip-path="url(#p.0)"
     id="g115"
     transform="translate(-216.99475,-115.19972)">
    <path
       fill="#000000"
       fill-opacity="0"
       d="m 446.8981,143.60579 v 0 c 0,-15.41209 12.49399,-27.90607 27.90607,-27.90607 h 111.62094 v 0 c 7.40112,0 14.49914,2.94009 19.73254,8.1735 5.2334,5.23339 8.17352,12.33142 8.17352,19.73257 v 233.38472 c 0,15.41208 -12.49395,27.90607 -27.90606,27.90607 H 474.80417 c -15.41208,0 -27.90607,-12.49399 -27.90607,-27.90607 z"
       fill-rule="evenodd"
       id="path7" />
    <path
       stroke="#000000"
       stroke-width="1"
       stroke-linejoin="round"
       stroke-linecap="butt"
       stroke-dasharray="1, 3"
       d="m 446.8981,143.60579 v 0 c 0,-15.41209 12.49399,-27.90607 27.90607,-27.90607 h 111.62094 v 0 c 7.40112,0 14.49914,2.94009 19.73254,8.1735 5.2334,5.23339 8.17352,12.33142 8.17352,19.73257 v 233.38472 c 0,15.41208 -12.49395,27.90607 -27.90606,27.90607 H 474.80417 c -15.41208,0 -27.90607,-12.49399 -27.90607,-27.90607 z"
       fill-rule="evenodd"
       id="path9" />
    <path
       fill="#000000"
       fill-opacity="0"
       d="m 344.81976,142.01529 h 81.38583 v 54.83466 h -81.38583 z"
       fill-rule="evenodd"
       id="path11" />
    <path
       stroke="#000000"
       stroke-width="2"
       stroke-linejoin="round"
       stroke-linecap="butt"
       d="m 344.81976,142.01529 h 81.38583 v 54.83466 h -81.38583 z"
       fill-rule="evenodd"
       id="path13" />
    <path
       fill="#000000"
       d="m 356.64825,176.35262 v -13.35938 h 1.76563 v 13.35938 z m 4.68329,0 v -9.67188 h 1.46875 v 1.375 q 1.0625,-1.59375 3.07812,-1.59375 0.875,0 1.60938,0.3125 0.73437,0.3125 1.09375,0.82813 0.375,0.5 0.51562,1.20312 0.0937,0.45313 0.0937,1.59375 v 5.95313 h -1.64062 v -5.89063 q 0,-1 -0.20313,-1.48437 -0.1875,-0.5 -0.67187,-0.79688 -0.48438,-0.29687 -1.14063,-0.29687 -1.04687,0 -1.8125,0.67187 -0.75,0.65625 -0.75,2.51563 v 5.28125 z m 11.87573,0 h -1.51562 v -13.35938 h 1.64062 v 4.76563 q 1.04688,-1.29688 2.65625,-1.29688 0.89063,0 1.6875,0.35938 0.79688,0.35937 1.3125,1.01562 0.51563,0.64063 0.79688,1.5625 0.29687,0.92188 0.29687,1.96875 0,2.48438 -1.23437,3.84375 -1.21875,1.35938 -2.95313,1.35938 -1.70312,0 -2.6875,-1.4375 z m -0.0156,-4.90625 q 0,1.73437 0.48437,2.51562 0.76563,1.26563 2.09375,1.26563 1.07813,0 1.85938,-0.9375 0.78125,-0.9375 0.78125,-2.78125 0,-1.89063 -0.75,-2.79688 -0.75,-0.90625 -1.82813,-0.90625 -1.0625,0 -1.85937,0.9375 -0.78125,0.9375 -0.78125,2.70313 z m 8.28195,0.0625 q 0,-2.6875 1.48437,-3.96875 1.25,-1.07813 3.04688,-1.07813 2,0 3.26562,1.3125 1.26563,1.29688 1.26563,3.60938 0,1.85937 -0.5625,2.9375 -0.5625,1.0625 -1.64063,1.65625 -1.0625,0.59375 -2.32812,0.59375 -2.03125,0 -3.28125,-1.29688 -1.25,-1.3125 -1.25,-3.76562 z m 1.6875,0 q 0,1.85937 0.79687,2.79687 0.8125,0.92188 2.04688,0.92188 1.21875,0 2.03125,-0.92188 0.8125,-0.9375 0.8125,-2.84375 0,-1.79687 -0.8125,-2.71875 -0.8125,-0.92187 -2.03125,-0.92187 -1.23438,0 -2.04688,0.92187 -0.79687,0.90625 -0.79687,2.76563 z m 8.20385,4.84375 3.53125,-5.03125 -3.26562,-4.64063 h 2.04687 l 1.48438,2.26563 q 0.42187,0.64062 0.67187,1.07812 0.40625,-0.59375 0.73438,-1.0625 l 1.64062,-2.28125 h 1.95313 l -3.34375,4.54688 3.59375,5.125 h -2.01563 l -1.98437,-3 -0.51563,-0.8125 -2.54687,3.8125 z m 15.15204,-6.59375 q 0,-2.35938 0.48438,-3.79688 0.48437,-1.45312 1.4375,-2.23437 0.96875,-0.78125 2.42187,-0.78125 1.07813,0 1.89063,0.4375 0.8125,0.42187 1.32812,1.25 0.53125,0.8125 0.82813,1.98437 0.3125,1.15625 0.3125,3.14063 0,2.35937 -0.48438,3.8125 -0.48437,1.4375 -1.45312,2.23437 -0.95313,0.78125 -2.42188,0.78125 -1.92187,0 -3.03125,-1.39062 -1.3125,-1.67188 -1.3125,-5.4375 z m 1.67188,0 q 0,3.29687 0.76562,4.39062 0.78125,1.07813 1.90625,1.07813 1.14063,0 1.90625,-1.09375 0.76563,-1.09375 0.76563,-4.375 0,-3.29688 -0.76563,-4.375 -0.76562,-1.07813 -1.92187,-1.07813 -1.125,0 -1.79688,0.95313 -0.85937,1.21875 -0.85937,4.5 z"
       fill-rule="nonzero"
       id="path15" />
    <path
       fill="#000000"
       fill-opacity="0"
       d="m 345.8493,233.98239 h 81.3858 v 54.83466 h -81.3858 z"
       fill-rule="evenodd"
       id="path17" />
    <path
       stroke="#000000"
       stroke-width="2"
       stroke-linejoin="round"
       stroke-linecap="butt"
       d="m 345.8493,233.98239 h 81.3858 v 54.83466 h -81.3858 z"
       fill-rule="evenodd"
       id="path19" />
    <path
       fill="#000000"
       d="m 357.6778,268.3197 v -13.35938 h 1.76562 v 13.35938 z m 4.68329,0 v -9.67188 h 1.46875 v 1.375 q 1.0625,-1.59375 3.07812,-1.59375 0.875,0 1.60938,0.3125 0.73437,0.3125 1.09375,0.82813 0.375,0.5 0.51562,1.20312 0.0937,0.45313 0.0937,1.59375 v 5.95313 h -1.64062 v -5.89063 q 0,-1 -0.20313,-1.48437 -0.1875,-0.5 -0.67187,-0.79688 -0.48438,-0.29687 -1.14063,-0.29687 -1.04687,0 -1.8125,0.67187 -0.75,0.65625 -0.75,2.51563 v 5.28125 z m 11.87573,0 h -1.51562 v -13.35938 h 1.64062 v 4.76563 q 1.04688,-1.29688 2.65625,-1.29688 0.89063,0 1.6875,0.35938 0.79688,0.35937 1.3125,1.01562 0.51563,0.64063 0.79688,1.5625 0.29687,0.92188 0.29687,1.96875 0,2.48438 -1.23437,3.84375 -1.21875,1.35938 -2.95313,1.35938 -1.70312,0 -2.6875,-1.4375 z m -0.0156,-4.90625 q 0,1.73437 0.48437,2.51562 0.76563,1.26563 2.09375,1.26563 1.07813,0 1.85938,-0.9375 0.78125,-0.9375 0.78125,-2.78125 0,-1.89063 -0.75,-2.79688 -0.75,-0.90625 -1.82813,-0.90625 -1.0625,0 -1.85937,0.9375 -0.78125,0.9375 -0.78125,2.70313 z m 8.28195,0.0625 q 0,-2.6875 1.48437,-3.96875 1.25,-1.07813 3.04688,-1.07813 2,0 3.26562,1.3125 1.26563,1.29688 1.26563,3.60938 0,1.85937 -0.5625,2.9375 -0.5625,1.0625 -1.64063,1.65625 -1.0625,0.59375 -2.32812,0.59375 -2.03125,0 -3.28125,-1.29688 -1.25,-1.3125 -1.25,-3.76562 z m 1.6875,0 q 0,1.85937 0.79687,2.79687 0.8125,0.92188 2.04688,0.92188 1.21875,0 2.03125,-0.92188 0.8125,-0.9375 0.8125,-2.84375 0,-1.79687 -0.8125,-2.71875 -0.8125,-0.92187 -2.03125,-0.92187 -1.23438,0 -2.04688,0.92187 -0.79687,0.90625 -0.79687,2.76563 z m 8.20385,4.84375 3.53125,-5.03125 -3.26562,-4.64063 h 2.04687 l 1.48438,2.26563 q 0.42187,0.64062 0.67187,1.07812 0.40625,-0.59375 0.73438,-1.0625 l 1.64062,-2.28125 h 1.95313 l -3.34375,4.54688 3.59375,5.125 h -2.01563 l -1.98437,-3 -0.51563,-0.8125 -2.54687,3.8125 z m 21.32392,0 h -1.64063 v -10.45313 q -0.59375,0.5625 -1.5625,1.14063 -0.95312,0.5625 -1.71875,0.84375 v -1.59375 q 1.375,-0.64063 2.40625,-1.5625 1.03125,-0.92188 1.45313,-1.78125 h 1.0625 z"
       fill-rule="nonzero"
       id="path21" />
    <path
       fill="#fff2cc"
       d="m 541.6388,141.48157 v 243.1181 h 50.61414 v -243.1181 z"
       fill-rule="evenodd"
       id="path23" />
    <path
       stroke="#000000"
       stroke-width="2"
       stroke-linejoin="round"
       stroke-linecap="butt"
       d="m 541.6388,141.48157 v 243.1181 h 50.61414 v -243.1181 z"
       fill-rule="evenodd"
       id="path25" />
    <path
       fill="#000000"
       d="m 573.86584,349.7844 h -13.35937 v -2.65625 l 9.45312,-3.15625 q 1.32813,-0.4375 1.98438,-0.64063 -0.73438,-0.23437 -2.14063,-0.70312 l -9.29687,-3.20313 v -2.375 h 13.35937 v 1.70313 h -11.17187 l 11.17187,3.875 v 1.59375 l -11.375,3.85937 h 11.375 z m -1.1875,-21.69705 q 0.76563,0.92187 1.09375,1.76562 0.3125,0.82813 0.3125,1.79688 0,1.59375 -0.78125,2.45312 -0.78125,0.85938 -1.98437,0.85938 -0.71875,0 -1.29688,-0.32813 -0.59375,-0.32812 -0.9375,-0.84375 -0.35937,-0.53125 -0.54687,-1.1875 -0.125,-0.46875 -0.25,-1.45312 -0.23438,-1.98438 -0.5625,-2.92188 -0.34375,-0.0156 -0.42188,-0.0156 -1,0 -1.42187,0.46875 -0.54688,0.625 -0.54688,1.875 0,1.15625 0.40625,1.70312 0.40625,0.54688 1.42188,0.8125 l -0.21875,1.60938 q -1.01563,-0.21875 -1.64063,-0.71875 -0.64062,-0.5 -0.98437,-1.45313 -0.34375,-0.95312 -0.34375,-2.1875 0,-1.25 0.29687,-2.01562 0.28125,-0.78125 0.73438,-1.14063 0.4375,-0.375 1.10937,-0.51562 0.42188,-0.0781 1.51563,-0.0781 h 2.1875 q 2.28125,0 2.89062,-0.10937 0.59375,-0.10938 1.15625,-0.40625 v 1.70312 q -0.51562,0.26563 -1.1875,0.32813 z m -3.67187,0.14062 q 0.375,0.89063 0.625,2.67188 0.14062,1.01562 0.32812,1.4375 0.1875,0.42187 0.53125,0.65625 0.34375,0.21875 0.78125,0.21875 0.65625,0 1.09375,-0.5 0.4375,-0.5 0.4375,-1.45313 0,-0.9375 -0.40625,-1.67187 -0.42187,-0.75 -1.14062,-1.09375 -0.5625,-0.26563 -1.64063,-0.26563 z m -6.60938,-4.20385 h -1.89062 v -1.64063 h 1.89062 z m 11.46875,0 h -9.67187 v -1.64063 h 9.67187 z m 0,-4.09794 h -13.35937 v -1.64062 h 13.35937 z m 0,-5.69171 v 1.51563 h -13.35937 v -1.64063 h 4.76562 q -1.29687,-1.04687 -1.29687,-2.65625 0,-0.89062 0.35937,-1.6875 0.35938,-0.79687 1.01563,-1.3125 0.64062,-0.51562 1.5625,-0.79687 0.92187,-0.29688 1.96875,-0.29688 2.48437,0 3.84375,1.23438 1.35937,1.21875 1.35937,2.95312 0,1.70313 -1.4375,2.6875 z m -4.90625,0.0156 q 1.73438,0 2.51563,-0.48438 1.26562,-0.76562 1.26562,-2.09375 0,-1.07812 -0.9375,-1.85937 -0.9375,-0.78125 -2.78125,-0.78125 -1.89062,0 -2.79687,0.75 -0.90625,0.75 -0.90625,1.82812 0,1.0625 0.9375,1.85938 0.9375,0.78125 2.70312,0.78125 z m 0.0625,-8.28195 q -2.6875,0 -3.96875,-1.48438 -1.07812,-1.25 -1.07812,-3.04687 0,-2 1.3125,-3.26563 1.29687,-1.26562 3.60937,-1.26562 1.85938,0 2.9375,0.5625 1.0625,0.5625 1.65625,1.64062 0.59375,1.0625 0.59375,2.32813 0,2.03125 -1.29687,3.28125 -1.3125,1.25 -3.76563,1.25 z m 0,-1.6875 q 1.85938,0 2.79688,-0.79688 0.92187,-0.8125 0.92187,-2.04687 0,-1.21875 -0.92187,-2.03125 -0.9375,-0.8125 -2.84375,-0.8125 -1.79688,0 -2.71875,0.8125 -0.92188,0.8125 -0.92188,2.03125 0,1.23437 0.92188,2.04687 0.90625,0.79688 2.76562,0.79688 z m 4.84375,-8.20386 -5.03125,-3.53125 -4.64062,3.26562 v -2.04687 l 2.26562,-1.48438 q 0.64063,-0.42187 1.07813,-0.67187 -0.59375,-0.40625 -1.0625,-0.73438 l -2.28125,-1.64062 v -1.95313 l 4.54687,3.34375 5.125,-3.59375 v 2.01563 l -3,1.98437 -0.8125,0.51563 3.8125,2.54687 z m -4.29687,-15.21454 -0.14063,-1.65625 q 1,-0.125 1.64063,-0.54687 0.64062,-0.4375 1.04687,-1.34375 0.39063,-0.92188 0.39063,-2.0625 0,-1 -0.29688,-1.78125 -0.29687,-0.78125 -0.8125,-1.15625 -0.53125,-0.375 -1.15625,-0.375 -0.625,0 -1.09375,0.375 -0.46875,0.35937 -0.79687,1.1875 -0.20313,0.54687 -0.64063,2.39062 -0.45312,1.82813 -0.84375,2.5625 -0.5,0.96875 -1.23437,1.4375 -0.75,0.46875 -1.67188,0.46875 -1,0 -1.875,-0.57812 -0.89062,-0.57813 -1.34375,-1.67188 -0.45312,-1.10937 -0.45312,-2.45312 0,-1.48438 0.48437,-2.60938 0.46875,-1.14062 1.40625,-1.75 0.92188,-0.60937 2.09375,-0.65625 l 0.125,1.6875 q -1.26562,0.14063 -1.90625,0.9375 -0.65625,0.78125 -0.65625,2.3125 0,1.60938 0.59375,2.34375 0.59375,0.73438 1.42188,0.73438 0.71875,0 1.17187,-0.53125 0.46875,-0.5 0.96875,-2.65625 0.48438,-2.15625 0.84375,-2.95313 0.53125,-1.17187 1.35938,-1.71875 0.82812,-0.5625 1.90625,-0.5625 1.0625,0 2.01562,0.60938 0.9375,0.60937 1.46875,1.75 0.51563,1.14062 0.51563,2.57812 0,1.8125 -0.53125,3.04688 -0.53125,1.21875 -1.59375,1.92187 -1.0625,0.6875 -2.40625,0.71875 z m 4.29687,-12.8342 h -13.35937 v -1.64062 h 4.79687 q -1.32812,-1.14063 -1.32812,-2.89063 0,-1.07812 0.42187,-1.85937 0.42188,-0.79688 1.17188,-1.14063 0.75,-0.34375 2.17187,-0.34375 h 6.125 v 1.64063 h -6.125 q -1.23437,0 -1.79687,0.53125 -0.5625,0.53125 -0.5625,1.51562 0,0.71875 0.39062,1.35938 0.375,0.64062 1.01563,0.92187 0.64062,0.26563 1.78125,0.26563 h 5.29687 z m -1.1875,-16.68823 q 0.76563,0.92188 1.09375,1.76563 0.3125,0.82812 0.3125,1.79687 0,1.59375 -0.78125,2.45313 -0.78125,0.85937 -1.98437,0.85937 -0.71875,0 -1.29688,-0.32812 -0.59375,-0.32813 -0.9375,-0.84375 -0.35937,-0.53125 -0.54687,-1.1875 -0.125,-0.46875 -0.25,-1.45313 -0.23438,-1.98437 -0.5625,-2.92187 -0.34375,-0.0156 -0.42188,-0.0156 -1,0 -1.42187,0.46875 -0.54688,0.625 -0.54688,1.875 0,1.15625 0.40625,1.70313 0.40625,0.54687 1.42188,0.8125 l -0.21875,1.60937 q -1.01563,-0.21875 -1.64063,-0.71875 -0.64062,-0.5 -0.98437,-1.45312 -0.34375,-0.95313 -0.34375,-2.1875 0,-1.25 0.29687,-2.01563 0.28125,-0.78125 0.73438,-1.14062 0.4375,-0.375 1.10937,-0.51563 0.42188,-0.0781 1.51563,-0.0781 h 2.1875 q 2.28125,0 2.89062,-0.10938 0.59375,-0.10937 1.15625,-0.40625 v 1.70313 q -0.51562,0.26562 -1.1875,0.32812 z m -3.67187,0.14063 q 0.375,0.89062 0.625,2.67187 0.14062,1.01563 0.32812,1.4375 0.1875,0.42188 0.53125,0.65625 0.34375,0.21875 0.78125,0.21875 0.65625,0 1.09375,-0.5 0.4375,-0.5 0.4375,-1.45312 0,-0.9375 -0.40625,-1.67188 -0.42187,-0.75 -1.14062,-1.09375 -0.5625,-0.26562 -1.64063,-0.26562 z m 4.85937,-4.18822 h -9.67187 v -1.46875 h 1.46875 q -1.03125,-0.5625 -1.35938,-1.03125 -0.32812,-0.48438 -0.32812,-1.0625 0,-0.82813 0.53125,-1.6875 l 1.51562,0.5625 q -0.35937,0.60937 -0.35937,1.20312 0,0.54688 0.32812,0.96875 0.32813,0.42188 0.89063,0.60938 0.875,0.28125 1.92187,0.28125 h 5.0625 z m -3.10937,-12.8533 0.20312,-1.6875 q 1.48438,0.40625 2.3125,1.48437 0.8125,1.07813 0.8125,2.76563 0,2.125 -1.29687,3.375 -1.3125,1.23437 -3.67188,1.23437 -2.45312,0 -3.79687,-1.25 -1.34375,-1.26562 -1.34375,-3.26562 0,-1.9375 1.32812,-3.15625 1.3125,-1.23438 3.70313,-1.23438 0.15625,0 0.4375,0 v 7.21875 q 1.59375,-0.0937 2.45312,-0.90625 0.84375,-0.8125 0.84375,-2.01562 0,-0.90625 -0.46875,-1.54688 -0.48437,-0.64062 -1.51562,-1.01562 z m -2.65625,5.39062 v -5.40625 q -1.21875,0.10938 -1.82813,0.625 -0.95312,0.78125 -0.95312,2.03125 0,1.125 0.76562,1.90625 0.75,0.76563 2.01563,0.84375 z m 5.76562,-15.40697 h -1.21875 q 1.4375,0.90625 1.4375,2.70313 0,1.15625 -0.64062,2.125 -0.64063,0.96875 -1.78125,1.5 -1.14063,0.53125 -2.625,0.53125 -1.45313,0 -2.625,-0.48438 -1.1875,-0.48437 -1.8125,-1.4375 -0.625,-0.96875 -0.625,-2.17187 0,-0.875 0.375,-1.54688 0.35937,-0.6875 0.95312,-1.10937 h -4.79687 v -1.64063 h 13.35937 z m -4.82812,5.17188 q 1.85937,0 2.78125,-0.78125 0.92187,-0.78125 0.92187,-1.84375 0,-1.07813 -0.875,-1.82813 -0.89062,-0.75 -2.6875,-0.75 -1.98437,0 -2.90625,0.76563 -0.9375,0.76562 -0.9375,1.89062 0,1.07813 0.89063,1.8125 0.89062,0.73438 2.8125,0.73438 z m 4.82812,-14.62152 h -13.35937 v -2.65625 l 9.45312,-3.15625 q 1.32813,-0.4375 1.98438,-0.64063 -0.73438,-0.23437 -2.14063,-0.70312 l -9.29687,-3.20313 v -2.375 h 13.35937 v 1.70313 h -11.17187 l 11.17187,3.875 v 1.59375 l -11.375,3.85937 h 11.375 z m -3.10937,-22.00955 0.20312,-1.6875 q 1.48438,0.40625 2.3125,1.48437 0.8125,1.07813 0.8125,2.76563 0,2.125 -1.29687,3.375 -1.3125,1.23437 -3.67188,1.23437 -2.45312,0 -3.79687,-1.25 -1.34375,-1.26562 -1.34375,-3.26562 0,-1.9375 1.32812,-3.15625 1.3125,-1.23438 3.70313,-1.23438 0.15625,0 0.4375,0 v 7.21875 q 1.59375,-0.0937 2.45312,-0.90625 0.84375,-0.8125 0.84375,-2.01562 0,-0.90625 -0.46875,-1.54688 -0.48437,-0.64062 -1.51562,-1.01562 z m -2.65625,5.39062 v -5.40625 q -1.21875,0.10938 -1.82813,0.625 -0.95312,0.78125 -0.95312,2.03125 0,1.125 0.76562,1.90625 0.75,0.76563 2.01563,0.84375 z m 5.76562,-9.14134 h -9.67187 v -1.46875 h 1.35937 q -0.71875,-0.45313 -1.14062,-1.20313 -0.4375,-0.76562 -0.4375,-1.71875 0,-1.07812 0.45312,-1.76562 0.4375,-0.6875 1.23438,-0.96875 -1.6875,-1.15625 -1.6875,-2.98438 0,-1.45312 0.79687,-2.21875 0.79688,-0.78125 2.45313,-0.78125 h 6.64062 v 1.64063 h -6.09375 q -0.98437,0 -1.40625,0.15625 -0.4375,0.15625 -0.70312,0.57812 -0.26563,0.42188 -0.26563,0.98438 0,1.01562 0.6875,1.6875 0.67188,0.67187 2.15625,0.67187 h 5.625 v 1.64063 h -6.28125 q -1.09375,0 -1.64062,0.40625 -0.54688,0.40625 -0.54688,1.3125 0,0.6875 0.35938,1.28125 0.35937,0.59375 1.0625,0.85937 0.70312,0.25 2.03125,0.25 h 5.01562 z"
       fill-rule="nonzero"
       id="path27" />
    <path
       fill="#000000"
       fill-opacity="0"
       d="m 344.81976,325.9495 h 81.38583 v 54.83463 h -81.38583 z"
       fill-rule="evenodd"
       id="path29" />
    <path
       stroke="#000000"
       stroke-width="2"
       stroke-linejoin="round"
       stroke-linecap="butt"
       d="m 344.81976,325.9495 h 81.38583 v 54.83463 h -81.38583 z"
       fill-rule="evenodd"
       id="path31" />
    <path
       fill="#000000"
       d="m 356.64825,360.2868 v -13.35937 h 1.76563 v 13.35937 z m 4.68329,0 v -9.67187 h 1.46875 v 1.375 q 1.0625,-1.59375 3.07812,-1.59375 0.875,0 1.60938,0.3125 0.73437,0.3125 1.09375,0.82812 0.375,0.5 0.51562,1.20313 0.0937,0.45312 0.0937,1.59375 v 5.95312 h -1.64062 v -5.89062 q 0,-1 -0.20313,-1.48438 -0.1875,-0.5 -0.67187,-0.79687 -0.48438,-0.29688 -1.14063,-0.29688 -1.04687,0 -1.8125,0.67188 -0.75,0.65625 -0.75,2.51562 v 5.28125 z m 11.87573,0 h -1.51562 v -13.35937 h 1.64062 v 4.76562 q 1.04688,-1.29687 2.65625,-1.29687 0.89063,0 1.6875,0.35937 0.79688,0.35938 1.3125,1.01563 0.51563,0.64062 0.79688,1.5625 0.29687,0.92187 0.29687,1.96875 0,2.48437 -1.23437,3.84375 -1.21875,1.35937 -2.95313,1.35937 -1.70312,0 -2.6875,-1.4375 z m -0.0156,-4.90625 q 0,1.73438 0.48437,2.51563 0.76563,1.26562 2.09375,1.26562 1.07813,0 1.85938,-0.9375 0.78125,-0.9375 0.78125,-2.78125 0,-1.89062 -0.75,-2.79687 -0.75,-0.90625 -1.82813,-0.90625 -1.0625,0 -1.85937,0.9375 -0.78125,0.9375 -0.78125,2.70312 z m 8.28195,0.0625 q 0,-2.6875 1.48437,-3.96875 1.25,-1.07812 3.04688,-1.07812 2,0 3.26562,1.3125 1.26563,1.29687 1.26563,3.60937 0,1.85938 -0.5625,2.9375 -0.5625,1.0625 -1.64063,1.65625 -1.0625,0.59375 -2.32812,0.59375 -2.03125,0 -3.28125,-1.29687 -1.25,-1.3125 -1.25,-3.76563 z m 1.6875,0 q 0,1.85938 0.79687,2.79688 0.8125,0.92187 2.04688,0.92187 1.21875,0 2.03125,-0.92187 0.8125,-0.9375 0.8125,-2.84375 0,-1.79688 -0.8125,-2.71875 -0.8125,-0.92188 -2.03125,-0.92188 -1.23438,0 -2.04688,0.92188 -0.79687,0.90625 -0.79687,2.76562 z m 8.20385,4.84375 3.53125,-5.03125 -3.26562,-4.64062 h 2.04687 l 1.48438,2.26562 q 0.42187,0.64063 0.67187,1.07813 0.40625,-0.59375 0.73438,-1.0625 l 1.64062,-2.28125 h 1.95313 l -3.34375,4.54687 3.59375,5.125 h -2.01563 l -1.98437,-3 -0.51563,-0.8125 -2.54687,3.8125 z m 23.76142,-1.57812 v 1.57812 h -8.82813 q -0.0156,-0.59375 0.1875,-1.14062 0.34375,-0.90625 1.07813,-1.78125 0.75,-0.875 2.15625,-2.01563 2.17187,-1.78125 2.9375,-2.82812 0.76562,-1.04688 0.76562,-1.96875 0,-0.98438 -0.70312,-1.64063 -0.6875,-0.67187 -1.8125,-0.67187 -1.1875,0 -1.90625,0.71875 -0.70313,0.70312 -0.70313,1.95312 l -1.6875,-0.17187 q 0.17188,-1.89063 1.29688,-2.875 1.14062,-0.98438 3.03125,-0.98438 1.92187,0 3.04687,1.0625 1.125,1.0625 1.125,2.64063 0,0.79687 -0.32812,1.57812 -0.32813,0.78125 -1.09375,1.64063 -0.75,0.84375 -2.53125,2.34375 -1.46875,1.23437 -1.89063,1.6875 -0.42187,0.4375 -0.6875,0.875 z"
       fill-rule="nonzero"
       id="path33" />
    <path
       fill="#cfe2f3"
       d="m 669.4127,383.37778 v 0 c -7.30304,0 -13.22333,-5.92029 -13.22333,-13.22336 V 154.49091 c 0,-3.50705 1.39313,-6.87047 3.87299,-9.35033 2.47986,-2.47985 5.84332,-3.87303 9.35034,-3.87303 h 52.89185 c 7.3031,0 13.22338,5.92031 13.22338,13.22336 v 215.66351 c 0,7.30307 -5.92028,13.22336 -13.22338,13.22336 z"
       fill-rule="evenodd"
       id="path35" />
    <path
       stroke="#000000"
       stroke-width="2"
       stroke-linejoin="round"
       stroke-linecap="butt"
       d="m 669.4127,383.37778 v 0 c -7.30304,0 -13.22333,-5.92029 -13.22333,-13.22336 V 154.49091 c 0,-3.50705 1.39313,-6.87047 3.87299,-9.35033 2.47986,-2.47985 5.84332,-3.87303 9.35034,-3.87303 h 52.89185 c 7.3031,0 13.22338,5.92031 13.22338,13.22336 v 215.66351 c 0,7.30307 -5.92028,13.22336 -13.22338,13.22336 z"
       fill-rule="evenodd"
       id="path37" />
    <path
       fill="#000000"
       d="m 702.7787,311.55725 h -11.78125 v 4.40625 h -1.57813 v -10.57813 h 1.57813 v 4.40625 h 11.78125 z m 0,-7.91162 h -13.35938 v -1.78125 h 11.78125 v -6.5625 h 1.57813 z m -4.01563,-9.61008 h -1.64062 v -5.03125 h 1.64062 z m -9.34375,-15.82205 v -1.76563 h 7.71875 q 2.01563,0 3.20313,0.45313 1.1875,0.45312 1.9375,1.64062 0.73437,1.1875 0.73437,3.125 0,1.875 -0.64062,3.07813 -0.65625,1.1875 -1.875,1.70312 -1.23438,0.5 -3.35938,0.5 h -7.71875 v -1.76562 h 7.71875 q 1.73438,0 2.5625,-0.3125 0.8125,-0.32813 1.26563,-1.10938 0.45312,-0.79687 0.45312,-1.9375 0,-1.95312 -0.89062,-2.78125 -0.89063,-0.82812 -3.39063,-0.82812 z m 13.35938,-4.62921 h -13.35938 v -1.78125 h 11.78125 v -6.5625 h 1.57813 z m 0,-15.03818 h -13.35938 v -9.01562 h 1.57813 v 7.25 h 4.14062 v -6.26563 h 1.57813 v 6.26563 h 6.0625 z m -1.1875,-17.41159 q 0.76562,0.92188 1.09375,1.76563 0.3125,0.82812 0.3125,1.79687 0,1.59375 -0.78125,2.45313 -0.78125,0.85937 -1.98438,0.85937 -0.71875,0 -1.29687,-0.32812 -0.59375,-0.32813 -0.9375,-0.84375 -0.35938,-0.53125 -0.54688,-1.1875 -0.125,-0.46875 -0.25,-1.45313 -0.23437,-1.98437 -0.5625,-2.92187 -0.34375,-0.0156 -0.42187,-0.0156 -1,0 -1.42188,0.46875 -0.54687,0.625 -0.54687,1.875 0,1.15625 0.40625,1.70313 0.40625,0.54687 1.42187,0.8125 l -0.21875,1.60937 q -1.01562,-0.21875 -1.64062,-0.71875 -0.64063,-0.5 -0.98438,-1.45312 -0.34375,-0.95313 -0.34375,-2.1875 0,-1.25 0.29688,-2.01563 0.28125,-0.78125 0.73437,-1.14062 0.4375,-0.375 1.10938,-0.51563 0.42187,-0.0781 1.51562,-0.0781 h 2.1875 q 2.28125,0 2.89063,-0.10938 0.59375,-0.10937 1.15625,-0.40625 v 1.70313 q -0.51563,0.26562 -1.1875,0.32812 z m -3.67188,0.14063 q 0.375,0.89062 0.625,2.67187 0.14063,1.01563 0.32813,1.4375 0.1875,0.42188 0.53125,0.65625 0.34375,0.21875 0.78125,0.21875 0.65625,0 1.09375,-0.5 0.4375,-0.5 0.4375,-1.45312 0,-0.9375 -0.40625,-1.67188 -0.42188,-0.75 -1.14063,-1.09375 -0.5625,-0.26562 -1.64062,-0.26562 z m 4.85938,-5.70386 v 1.51562 h -13.35938 v -1.64062 h 4.76563 q -1.29688,-1.04688 -1.29688,-2.65625 0,-0.89063 0.35938,-1.6875 0.35937,-0.79688 1.01562,-1.3125 0.64063,-0.51563 1.5625,-0.79688 0.92188,-0.29687 1.96875,-0.29687 2.48438,0 3.84375,1.23437 1.35938,1.21875 1.35938,2.95313 0,1.70312 -1.4375,2.6875 z m -4.90625,0.0156 q 1.73437,0 2.51562,-0.48437 1.26563,-0.76563 1.26563,-2.09375 0,-1.07813 -0.9375,-1.85938 -0.9375,-0.78125 -2.78125,-0.78125 -1.89063,0 -2.79688,0.75 -0.90625,0.75 -0.90625,1.82813 0,1.0625 0.9375,1.85937 0.9375,0.78125 2.70313,0.78125 z m 4.90625,-8.8757 h -9.67188 v -1.46875 h 1.46875 q -1.03125,-0.5625 -1.35937,-1.03125 -0.32813,-0.48437 -0.32813,-1.0625 0,-0.82812 0.53125,-1.6875 l 1.51563,0.5625 q -0.35938,0.60938 -0.35938,1.20313 0,0.54687 0.32813,0.96875 0.32812,0.42187 0.89062,0.60937 0.875,0.28125 1.92188,0.28125 h 5.0625 z m -11.46875,-6.2283 h -1.89063 v -1.64063 h 1.89063 z m 11.46875,0 h -9.67188 v -1.64063 h 9.67188 z m -3.54688,-10.45734 0.21875,-1.60937 q 1.65625,0.26562 2.60938,1.35937 0.9375,1.07813 0.9375,2.67188 0,1.98437 -1.29688,3.1875 -1.29687,1.20312 -3.71875,1.20312 -1.57812,0 -2.75,-0.51562 -1.17187,-0.51563 -1.75,-1.57813 -0.59375,-1.0625 -0.59375,-2.3125 0,-1.57812 0.79688,-2.57812 0.79687,-1 2.26562,-1.28125 l 0.23438,1.59375 q -0.96875,0.23437 -1.45313,0.8125 -0.5,0.57812 -0.5,1.39062 0,1.23438 0.89063,2.01563 0.89062,0.78125 2.8125,0.78125 1.95312,0 2.84375,-0.75 0.875,-0.75 0.875,-1.95313 0,-0.96875 -0.59375,-1.60937 -0.59375,-0.65625 -1.82813,-0.82813 z"
       fill-rule="nonzero"
       id="path39" />
    <path
       fill="#000000"
       fill-opacity="0"
       d="m 789.0844,234.44301 h 111.93701 v 54.83464 H 789.0844 Z"
       fill-rule="evenodd"
       id="path41" />
    <path
       stroke="#000000"
       stroke-width="2"
       stroke-linejoin="round"
       stroke-linecap="butt"
       d="m 789.0844,234.44301 h 111.93701 v 54.83464 H 789.0844 Z"
       fill-rule="evenodd"
       id="path43" />
    <path
       fill="#000000"
       d="m 825.5303,268.78033 v -13.35938 h 1.76562 v 13.35938 z m 4.80835,0 v -13.35938 h 5.01562 q 1.53125,0 2.45313,0.40625 0.92187,0.40625 1.4375,1.25 0.53125,0.84375 0.53125,1.76563 0,0.85937 -0.46875,1.625 -0.45313,0.75 -1.39063,1.20312 1.20313,0.35938 1.85938,1.21875 0.65625,0.85938 0.65625,2.01563 0,0.9375 -0.40625,1.75 -0.39063,0.79687 -0.98438,1.23437 -0.57812,0.4375 -1.45312,0.67188 -0.875,0.21875 -2.15625,0.21875 z m 1.78125,-7.75 h 2.875 q 1.1875,0 1.6875,-0.14063 0.67187,-0.20312 1.01562,-0.67187 0.34375,-0.46875 0.34375,-1.17188 0,-0.65625 -0.32812,-1.15625 -0.3125,-0.51562 -0.90625,-0.70312 -0.59375,-0.1875 -2.03125,-0.1875 h -2.65625 z m 0,6.17187 h 3.3125 q 0.85937,0 1.20312,-0.0625 0.60938,-0.10937 1.01563,-0.35937 0.42187,-0.26563 0.6875,-0.75 0.26562,-0.48438 0.26562,-1.125 0,-0.75 -0.39062,-1.29688 -0.375,-0.54687 -1.0625,-0.76562 -0.67188,-0.23438 -1.95313,-0.23438 h -3.07812 z m 10.77167,1.57813 v -13.35938 h 9.65625 v 1.57813 h -7.875 v 4.09375 h 7.375 v 1.5625 h -7.375 v 4.54687 h 8.1875 v 1.57813 z m 11.05298,0 5.17187,-6.95313 -4.5625,-6.40625 h 2.10938 l 2.42187,3.4375 q 0.75,1.0625 1.07813,1.625 0.4375,-0.71875 1.04687,-1.51562 l 2.6875,-3.54688 h 1.92188 l -4.6875,6.29688 5.0625,7.0625 h -2.1875 l -3.35938,-4.76563 q -0.28125,-0.40625 -0.59375,-0.89062 -0.4375,0.73437 -0.625,1 l -3.35937,4.65625 z"
       fill-rule="nonzero"
       id="path45" />
    <path
       fill="#000000"
       fill-opacity="0"
       d="m 789.0844,261.86032 -53.54327,0.47244"
       fill-rule="evenodd"
       id="path47" />
    <path
       stroke="#000000"
       stroke-width="2"
       stroke-linejoin="round"
       stroke-linecap="butt"
       d="m 789.0844,261.86035 -41.54382,0.36655"
       fill-rule="evenodd"
       id="path49" />
    <path
       fill="#000000"
       stroke="#000000"
       stroke-width="2"
       stroke-linecap="butt"
       d="m 747.5115,258.92355 -9.04669,3.38342 9.10498,3.22327 z"
       fill-rule="evenodd"
       id="path51" />
    <path
       fill="#000000"
       fill-opacity="0"
       d="m 656.1894,262.32266 -63.93701,0.72443"
       fill-rule="evenodd"
       id="path53" />
    <path
       stroke="#000000"
       stroke-width="2"
       stroke-linejoin="round"
       stroke-linecap="butt"
       d="m 656.1894,262.32266 -51.93781,0.58847"
       fill-rule="evenodd"
       id="path55" />
    <path
       fill="#000000"
       stroke="#000000"
       stroke-width="2"
       stroke-linecap="butt"
       d="m 604.2142,259.60788 -9.03815,3.40607 9.11304,3.20044 z"
       fill-rule="evenodd"
       id="path57" />
    <path
       fill="#000000"
       fill-opacity="0"
       d="M 345.17462,169.43668 H 277.11163"
       fill-rule="evenodd"
       id="path59" />
    <path
       stroke="#000000"
       stroke-width="2"
       stroke-linejoin="round"
       stroke-linecap="butt"
       d="M 333.17462,169.43668 H 277.11166"
       fill-rule="evenodd"
       id="path61" />
    <path
       fill="#000000"
       stroke="#000000"
       stroke-width="2"
       stroke-linecap="butt"
       d="m 333.17462,172.74014 9.0762,-3.30347 -9.0762,-3.30346 z"
       fill-rule="evenodd"
       id="path63" />
    <path
       fill="#000000"
       fill-opacity="0"
       d="m 277.02554,262.28586 68.7244,-0.8819"
       fill-rule="evenodd"
       id="path65" />
    <path
       stroke="#000000"
       stroke-width="2"
       stroke-linejoin="round"
       stroke-linecap="butt"
       d="m 277.02554,262.28586 56.7254,-0.72791"
       fill-rule="evenodd"
       id="path67" />
    <path
       fill="#000000"
       stroke="#000000"
       stroke-width="2"
       stroke-linecap="butt"
       d="m 333.79333,264.86115 9.03305,-3.41965 -9.11783,-3.18673 z"
       fill-rule="evenodd"
       id="path69" />
    <path
       fill="#000000"
       fill-opacity="0"
       d="m 274.97934,352.5367 70.17322,0.8504"
       fill-rule="evenodd"
       id="path71" />
    <path
       stroke="#000000"
       stroke-width="2"
       stroke-linejoin="round"
       stroke-linecap="butt"
       d="m 274.97934,352.5367 58.1741,0.70496"
       fill-rule="evenodd"
       id="path73" />
    <path
       fill="#000000"
       stroke="#000000"
       stroke-width="2"
       stroke-linecap="butt"
       d="m 333.1134,356.54492 9.11557,-3.19327 -9.03549,-3.41318 z"
       fill-rule="evenodd"
       id="path75" />
    <path
       fill="#000000"
       fill-opacity="0"
       d="M 466.00018,383.41934 V 140.30122 h 40.47244 v 243.11812 z"
       fill-rule="evenodd"
       id="path77" />
    <path
       stroke="#000000"
       stroke-width="2"
       stroke-linejoin="round"
       stroke-linecap="butt"
       d="M 466.00018,383.41934 V 140.30122 h 40.47244 v 243.11812 z"
       fill-rule="evenodd"
       id="path79" />
    <path
       fill="#000000"
       d="m 493.1564,346.56116 -13.35937,3.53125 v -1.8125 l 8.76562,-2.03125 q 1.375,-0.32813 2.71875,-0.5625 -2.14062,-0.5 -2.46875,-0.59375 l -9.01562,-2.54688 v -2.125 l 6.76562,-1.92187 q 2.51563,-0.71875 4.71875,-1.03125 -1.26562,-0.26563 -2.89062,-0.67188 l -8.59375,-2.09375 v -1.78125 l 13.35937,3.67188 v 1.70312 l -10.17187,2.8125 q -1.28125,0.35938 -1.5625,0.42188 0.90625,0.20312 1.5625,0.39062 l 10.17187,2.82813 z m 0,-14.72455 h -9.67187 v -1.46875 h 1.46875 q -1.03125,-0.5625 -1.35938,-1.03125 -0.32812,-0.48437 -0.32812,-1.0625 0,-0.82812 0.53125,-1.6875 l 1.51562,0.5625 q -0.35937,0.60938 -0.35937,1.20313 0,0.54687 0.32812,0.96875 0.32813,0.42187 0.89063,0.60937 0.875,0.28125 1.92187,0.28125 h 5.0625 z m -11.46875,-6.2283 h -1.89062 v -1.64063 h 1.89062 z m 11.46875,0 h -9.67187 v -1.64063 h 9.67187 z m -1.46875,-7.72293 1.45313,-0.23438 q 0.14062,0.6875 0.14062,1.23438 0,0.89062 -0.28125,1.39062 -0.28125,0.48438 -0.73437,0.6875 -0.46875,0.20313 -1.9375,0.20313 h -5.57813 v 1.20312 h -1.26562 v -1.20312 h -2.39063 l -0.98437,-1.625 h 3.375 v -1.65625 h 1.26562 v 1.65625 h 5.67188 q 0.6875,0 0.89062,-0.0781 0.20313,-0.0937 0.32813,-0.28125 0.10937,-0.20312 0.10937,-0.57812 0,-0.26563 -0.0625,-0.71875 z m -1.64062,-8.2302 0.20312,-1.6875 q 1.48438,0.40625 2.3125,1.48438 0.8125,1.07812 0.8125,2.76562 0,2.125 -1.29687,3.375 -1.3125,1.23438 -3.67188,1.23438 -2.45312,0 -3.79687,-1.25 -1.34375,-1.26563 -1.34375,-3.26563 0,-1.9375 1.32812,-3.15625 1.3125,-1.23437 3.70313,-1.23437 0.15625,0 0.4375,0 v 7.21875 q 1.59375,-0.0937 2.45312,-0.90625 0.84375,-0.8125 0.84375,-2.01563 0,-0.90625 -0.46875,-1.54687 -0.48437,-0.64063 -1.51562,-1.01563 z m -2.65625,5.39063 v -5.40625 q -1.21875,0.10937 -1.82813,0.625 -0.95312,0.78125 -0.95312,2.03125 0,1.125 0.76562,1.90625 0.75,0.76562 2.01563,0.84375 z m 5.76562,-12.02905 -13.35937,-5.125 v -1.90625 l 13.35937,-5.46875 v 2.01562 l -4.04687,1.54688 v 5.59375 l 4.04687,1.46875 z m -5.48437,-3.85938 v -4.53125 l -3.70313,1.40625 q -1.6875,0.625 -2.76562,0.9375 1.28125,0.26563 2.54687,0.71875 z m 5.48437,-9.8342 h -9.67187 v -1.46875 h 1.46875 q -1.03125,-0.5625 -1.35938,-1.03125 -0.32812,-0.48437 -0.32812,-1.0625 0,-0.82812 0.53125,-1.6875 l 1.51562,0.5625 q -0.35937,0.60938 -0.35937,1.20313 0,0.54687 0.32812,0.96875 0.32813,0.42187 0.89063,0.60937 0.875,0.28125 1.92187,0.28125 h 5.0625 z m 0,-7.7283 v 1.51563 h -13.35937 v -1.64063 h 4.76562 q -1.29687,-1.04687 -1.29687,-2.65625 0,-0.89062 0.35937,-1.6875 0.35938,-0.79687 1.01563,-1.3125 0.64062,-0.51562 1.5625,-0.79687 0.92187,-0.29688 1.96875,-0.29688 2.48437,0 3.84375,1.23438 1.35937,1.21875 1.35937,2.95312 0,1.70313 -1.4375,2.6875 z m -4.90625,0.0156 q 1.73438,0 2.51563,-0.48438 1.26562,-0.76562 1.26562,-2.09375 0,-1.07812 -0.9375,-1.85937 -0.9375,-0.78125 -2.78125,-0.78125 -1.89062,0 -2.79687,0.75 -0.90625,0.75 -0.90625,1.82812 0,1.0625 0.9375,1.85938 0.9375,0.78125 2.70312,0.78125 z m -6.5625,-8.89136 h -1.89062 v -1.64062 h 1.89062 z m 11.46875,0 h -9.67187 v -1.64062 h 9.67187 z m -1.46875,-7.72293 1.45313,-0.23438 q 0.14062,0.6875 0.14062,1.23438 0,0.89062 -0.28125,1.39062 -0.28125,0.48438 -0.73437,0.6875 -0.46875,0.20313 -1.9375,0.20313 h -5.57813 v 1.20312 h -1.26562 v -1.20312 h -2.39063 l -0.98437,-1.625 h 3.375 v -1.65625 h 1.26562 v 1.65625 h 5.67188 q 0.6875,0 0.89062,-0.0781 0.20313,-0.0937 0.32813,-0.28125 0.10937,-0.20312 0.10937,-0.57812 0,-0.26563 -0.0625,-0.71875 z m 1.46875,-1.58957 h -9.67187 v -1.46875 h 1.46875 q -1.03125,-0.5625 -1.35938,-1.03125 -0.32812,-0.48438 -0.32812,-1.0625 0,-0.82813 0.53125,-1.6875 l 1.51562,0.5625 q -0.35937,0.60937 -0.35937,1.20312 0,0.54688 0.32812,0.96875 0.32813,0.42188 0.89063,0.60938 0.875,0.28125 1.92187,0.28125 h 5.0625 z m -1.1875,-12.5408 q 0.76563,0.92187 1.09375,1.76562 0.3125,0.82813 0.3125,1.79688 0,1.59375 -0.78125,2.45312 -0.78125,0.85938 -1.98437,0.85938 -0.71875,0 -1.29688,-0.32813 -0.59375,-0.32812 -0.9375,-0.84375 -0.35937,-0.53125 -0.54687,-1.1875 -0.125,-0.46875 -0.25,-1.45312 -0.23438,-1.98438 -0.5625,-2.92188 -0.34375,-0.0156 -0.42188,-0.0156 -1,0 -1.42187,0.46875 -0.54688,0.625 -0.54688,1.875 0,1.15625 0.40625,1.70312 0.40625,0.54688 1.42188,0.8125 l -0.21875,1.60938 q -1.01563,-0.21875 -1.64063,-0.71875 -0.64062,-0.5 -0.98437,-1.45313 -0.34375,-0.95312 -0.34375,-2.1875 0,-1.25 0.29687,-2.01562 0.28125,-0.78125 0.73438,-1.14063 0.4375,-0.375 1.10937,-0.51562 0.42188,-0.0781 1.51563,-0.0781 h 2.1875 q 2.28125,0 2.89062,-0.10937 0.59375,-0.10938 1.15625,-0.40625 v 1.70312 q -0.51562,0.26563 -1.1875,0.32813 z m -3.67187,0.14062 q 0.375,0.89063 0.625,2.67188 0.14062,1.01562 0.32812,1.4375 0.1875,0.42187 0.53125,0.65625 0.34375,0.21875 0.78125,0.21875 0.65625,0 1.09375,-0.5 0.4375,-0.5 0.4375,-1.45313 0,-0.9375 -0.40625,-1.67187 -0.42187,-0.75 -1.14062,-1.09375 -0.5625,-0.26563 -1.64063,-0.26563 z m 3.39062,-7.78196 1.45313,-0.23438 q 0.14062,0.6875 0.14062,1.23438 0,0.89062 -0.28125,1.39062 -0.28125,0.48438 -0.73437,0.6875 -0.46875,0.20313 -1.9375,0.20313 h -5.57813 v 1.20312 h -1.26562 v -1.20312 h -2.39063 l -0.98437,-1.625 h 3.375 v -1.65625 h 1.26562 v 1.65625 h 5.67188 q 0.6875,0 0.89062,-0.0781 0.20313,-0.0937 0.32813,-0.28125 0.10937,-0.20312 0.10937,-0.57812 0,-0.26563 -0.0625,-0.71875 z m -10,-1.60518 h -1.89062 v -1.64063 h 1.89062 z m 11.46875,0 h -9.67187 v -1.64063 h 9.67187 z m -4.84375,-3.53545 q -2.6875,0 -3.96875,-1.48437 -1.07812,-1.25 -1.07812,-3.04688 0,-2 1.3125,-3.26562 1.29687,-1.26563 3.60937,-1.26563 1.85938,0 2.9375,0.5625 1.0625,0.5625 1.65625,1.64063 0.59375,1.0625 0.59375,2.32812 0,2.03125 -1.29687,3.28125 -1.3125,1.25 -3.76563,1.25 z m 0,-1.6875 q 1.85938,0 2.79688,-0.79687 0.92187,-0.8125 0.92187,-2.04688 0,-1.21875 -0.92187,-2.03125 -0.9375,-0.8125 -2.84375,-0.8125 -1.79688,0 -2.71875,0.8125 -0.92188,0.8125 -0.92188,2.03125 0,1.23438 0.92188,2.04688 0.90625,0.79687 2.76562,0.79687 z m 4.84375,-9.29759 h -9.67187 v -1.46875 h 1.375 q -1.59375,-1.0625 -1.59375,-3.07813 0,-0.875 0.3125,-1.60937 0.3125,-0.73438 0.82812,-1.09375 0.5,-0.375 1.20313,-0.51563 0.45312,-0.0937 1.59375,-0.0937 h 5.95312 v 1.64063 h -5.89062 q -1,0 -1.48438,0.20312 -0.5,0.1875 -0.79687,0.67188 -0.29688,0.48437 -0.29688,1.14062 0,1.04688 0.67188,1.8125 0.65625,0.75 2.51562,0.75 h 5.28125 z m 0,-15.8559 h -13.35937 v -9.01562 h 1.57812 v 7.25 h 4.14063 v -6.26563 h 1.57812 v 6.26563 h 6.0625 z m -4.29687,-10.70848 -0.14063,-1.65625 q 1,-0.125 1.64063,-0.54687 0.64062,-0.4375 1.04687,-1.34375 0.39063,-0.92188 0.39063,-2.0625 0,-1 -0.29688,-1.78125 -0.29687,-0.78125 -0.8125,-1.15625 -0.53125,-0.375 -1.15625,-0.375 -0.625,0 -1.09375,0.375 -0.46875,0.35937 -0.79687,1.1875 -0.20313,0.54687 -0.64063,2.39062 -0.45312,1.82813 -0.84375,2.5625 -0.5,0.96875 -1.23437,1.4375 -0.75,0.46875 -1.67188,0.46875 -1,0 -1.875,-0.57812 -0.89062,-0.57813 -1.34375,-1.67188 -0.45312,-1.10937 -0.45312,-2.45312 0,-1.48438 0.48437,-2.60938 0.46875,-1.14062 1.40625,-1.75 0.92188,-0.60937 2.09375,-0.65625 l 0.125,1.6875 q -1.26562,0.14063 -1.90625,0.9375 -0.65625,0.78125 -0.65625,2.3125 0,1.60938 0.59375,2.34375 0.59375,0.73438 1.42188,0.73438 0.71875,0 1.17187,-0.53125 0.46875,-0.5 0.96875,-2.65625 0.48438,-2.15625 0.84375,-2.95313 0.53125,-1.17187 1.35938,-1.71875 0.82812,-0.5625 1.90625,-0.5625 1.0625,0 2.01562,0.60938 0.9375,0.60937 1.46875,1.75 0.51563,1.14062 0.51563,2.57812 0,1.8125 -0.53125,3.04688 -0.53125,1.21875 -1.59375,1.92187 -1.0625,0.6875 -2.40625,0.71875 z m 4.29687,-12.99045 h -13.35937 v -2.65625 l 9.45312,-3.15625 q 1.32813,-0.4375 1.98438,-0.64062 -0.73438,-0.23438 -2.14063,-0.70313 l -9.29687,-3.20312 v -2.375 h 13.35937 v 1.70312 h -11.17187 l 11.17187,3.875 v 1.59375 l -11.375,3.85938 h 11.375 z"
       fill-rule="nonzero"
       id="path81" />
    <path
       fill="#000000"
       fill-opacity="0"
       d="m 541.6388,263.04062 -35.18112,-1.16534"
       fill-rule="evenodd"
       id="path83" />
    <path
       stroke="#000000"
       stroke-width="2"
       stroke-linejoin="round"
       stroke-linecap="butt"
       d="m 529.6453,262.64334 -23.18765,-0.76807"
       fill-rule="evenodd"
       id="path85" />
    <path
       fill="#000000"
       stroke="#000000"
       stroke-width="2"
       stroke-linecap="butt"
       d="m 529.536,265.945 9.18054,-3.00119 -8.96185,-3.60211 z"
       fill-rule="evenodd"
       id="path87" />
    <path
       fill="#000000"
       fill-opacity="0"
       d="M 466.33817,168.49706 H 427.40906"
       fill-rule="evenodd"
       id="path89" />
    <path
       stroke="#000000"
       stroke-width="2"
       stroke-linejoin="round"
       stroke-linecap="butt"
       d="M 454.33817,168.49706 H 427.40903"
       fill-rule="evenodd"
       id="path91" />
    <path
       fill="#000000"
       stroke="#000000"
       stroke-width="2"
       stroke-linecap="butt"
       d="m 454.33817,171.80052 9.0762,-3.30347 -9.0762,-3.30346 z"
       fill-rule="evenodd"
       id="path93" />
    <path
       fill="#000000"
       fill-opacity="0"
       d="m 427.35986,261.34625 39.33859,-0.8819"
       fill-rule="evenodd"
       id="path95" />
    <path
       stroke="#000000"
       stroke-width="2"
       stroke-linejoin="round"
       stroke-linecap="butt"
       d="m 427.35986,261.34625 27.34161,-0.61295"
       fill-rule="evenodd"
       id="path97" />
    <path
       fill="#000000"
       stroke="#000000"
       stroke-width="2"
       stroke-linecap="butt"
       d="m 454.7755,264.03595 8.99988,-3.50607 -9.14795,-3.09922 z"
       fill-rule="evenodd"
       id="path99" />
    <path
       fill="#000000"
       fill-opacity="0"
       d="m 426.21814,354.3105 39.77954,0.0315"
       fill-rule="evenodd"
       id="path101" />
    <path
       stroke="#000000"
       stroke-width="2"
       stroke-linejoin="round"
       stroke-linecap="butt"
       d="m 426.21814,354.3105 27.77951,0.022"
       fill-rule="evenodd"
       id="path103" />
    <path
       fill="#000000"
       stroke="#000000"
       stroke-width="2"
       stroke-linecap="butt"
       d="m 453.99506,357.63596 9.0788,-3.2963 -9.07358,-3.31063 z"
       fill-rule="evenodd"
       id="path105" />
    <path
       fill="#000000"
       fill-opacity="0"
       d="M 216.99475,394.7746 V 137.67224 H 259.0105 V 394.7746 Z"
       fill-rule="evenodd"
       id="path111" />
    <path
       fill="#000000"
       d="m 239.61787,370.95865 -0.14063,-1.65625 q 1,-0.125 1.64063,-0.54688 0.64062,-0.4375 1.04687,-1.34375 0.39063,-0.92187 0.39063,-2.0625 0,-1 -0.29688,-1.78125 -0.29687,-0.78125 -0.8125,-1.15625 -0.53125,-0.375 -1.15625,-0.375 -0.625,0 -1.09375,0.375 -0.46875,0.35938 -0.79687,1.1875 -0.20313,0.54688 -0.64063,2.39063 -0.45312,1.82812 -0.84375,2.5625 -0.5,0.96875 -1.23437,1.4375 -0.75,0.46875 -1.67188,0.46875 -1,0 -1.875,-0.57813 -0.89062,-0.57812 -1.34375,-1.67187 -0.45312,-1.10938 -0.45312,-2.45313 0,-1.48437 0.48437,-2.60937 0.46875,-1.14063 1.40625,-1.75 0.92188,-0.60938 2.09375,-0.65625 l 0.125,1.6875 q -1.26562,0.14062 -1.90625,0.9375 -0.65625,0.78125 -0.65625,2.3125 0,1.60937 0.59375,2.34375 0.59375,0.73437 1.42188,0.73437 0.71875,0 1.17187,-0.53125 0.46875,-0.5 0.96875,-2.65625 0.48438,-2.15625 0.84375,-2.95312 0.53125,-1.17188 1.35938,-1.71875 0.82812,-0.5625 1.90625,-0.5625 1.0625,0 2.01562,0.60937 0.9375,0.60938 1.46875,1.75 0.51563,1.14063 0.51563,2.57813 0,1.8125 -0.53125,3.04687 -0.53125,1.21875 -1.59375,1.92188 -1.0625,0.6875 -2.40625,0.71875 z m -0.54688,-12.22482 q -2.6875,0 -3.96875,-1.48438 -1.07812,-1.25 -1.07812,-3.04687 0,-2 1.3125,-3.26563 1.29687,-1.26562 3.60937,-1.26562 1.85938,0 2.9375,0.5625 1.0625,0.5625 1.65625,1.64062 0.59375,1.0625 0.59375,2.32813 0,2.03125 -1.29687,3.28125 -1.3125,1.25 -3.76563,1.25 z m 0,-1.6875 q 1.85938,0 2.79688,-0.79688 0.92187,-0.8125 0.92187,-2.04687 0,-1.21875 -0.92187,-2.03125 -0.9375,-0.8125 -2.84375,-0.8125 -1.79688,0 -2.71875,0.8125 -0.92188,0.8125 -0.92188,2.03125 0,1.23437 0.92188,2.04687 0.90625,0.79688 2.76562,0.79688 z m 0.15625,-19.03199 0.45313,-1.76562 q 2.17187,0.5625 3.32812,2 1.14063,1.4375 1.14063,3.53125 0,2.15625 -0.875,3.51562 -0.89063,1.34375 -2.54688,2.0625 -1.67187,0.70313 -3.59375,0.70313 -2.07812,0 -3.625,-0.79688 -1.5625,-0.79687 -2.35937,-2.26562 -0.8125,-1.48438 -0.8125,-3.25 0,-2 1.01562,-3.35938 1.01563,-1.375 2.875,-1.90625 l 0.40625,1.73438 q -1.45312,0.46875 -2.10937,1.35937 -0.67188,0.875 -0.67188,2.20313 0,1.54687 0.73438,2.57812 0.73437,1.03125 1.98437,1.45313 1.23438,0.42187 2.5625,0.42187 1.70313,0 2.96875,-0.5 1.26563,-0.5 1.90625,-1.54687 0.625,-1.04688 0.625,-2.26563 0,-1.48437 -0.85937,-2.51562 -0.85938,-1.03125 -2.54688,-1.39063 z m 4.6875,-9.15625 h -13.35937 v -5.92187 q 0,-1.78125 0.35937,-2.70313 0.35938,-0.9375 1.28125,-1.48437 0.90625,-0.5625 2.01563,-0.5625 1.40625,0 2.39062,0.92187 0.96875,0.92188 1.23438,2.84375 0.34375,-0.70312 0.67187,-1.07812 0.70313,-0.76563 1.76563,-1.45313 l 3.64062,-2.32812 v 2.21875 l -2.78125,1.76562 q -1.20312,0.78125 -1.82812,1.28125 -0.64063,0.5 -0.89063,0.90625 -0.26562,0.39063 -0.35937,0.79688 -0.0781,0.29687 -0.0781,0.98437 v 2.04688 h 5.9375 z m -7.45312,-1.76562 v -3.79688 q 0,-1.21875 -0.25,-1.89062 -0.26563,-0.6875 -0.8125,-1.04688 -0.54688,-0.35937 -1.1875,-0.35937 -0.95313,0 -1.5625,0.6875 -0.60938,0.6875 -0.60938,2.1875 v 4.21875 z m 4.34375,-18.09793 0.20312,-1.6875 q 1.48438,0.40625 2.3125,1.48437 0.8125,1.07813 0.8125,2.76563 0,2.125 -1.29687,3.375 -1.3125,1.23437 -3.67188,1.23437 -2.45312,0 -3.79687,-1.25 -1.34375,-1.26562 -1.34375,-3.26562 0,-1.9375 1.32812,-3.15625 1.3125,-1.23438 3.70313,-1.23438 0.15625,0 0.4375,0 v 7.21875 q 1.59375,-0.0937 2.45312,-0.90625 0.84375,-0.8125 0.84375,-2.01562 0,-0.90625 -0.46875,-1.54688 -0.48437,-0.64062 -1.51562,-1.01562 z m -2.65625,5.39062 v -5.40625 q -1.21875,0.10938 -1.82813,0.625 -0.95312,0.78125 -0.95312,2.03125 0,1.125 0.76562,1.90625 0.75,0.76563 2.01563,0.84375 z m 9.46875,-15.2976 h -4.73438 q 0.54688,0.375 0.90625,1.0625 0.34375,0.6875 0.34375,1.46875 0,1.71875 -1.375,2.96875 -1.375,1.23437 -3.76562,1.23437 -1.46875,0 -2.625,-0.5 -1.15625,-0.51562 -1.75,-1.46875 -0.59375,-0.96875 -0.59375,-2.10937 0,-1.79688 1.51562,-2.82813 h -1.29687 v -1.46875 h 13.375 z m -8.5625,5.04687 q 1.85937,0 2.79687,-0.78125 0.9375,-0.78125 0.9375,-1.875 0,-1.04687 -0.89062,-1.79687 -0.89063,-0.76563 -2.70313,-0.76563 -1.9375,0 -2.90625,0.79688 -0.96875,0.79687 -0.96875,1.875 0,1.0625 0.90625,1.8125 0.90625,0.73437 2.82813,0.73437 z m 4.85937,-15.59445 h -1.42187 q 1.64062,1.125 1.64062,3.0625 0,0.85938 -0.32812,1.60938 -0.32813,0.73437 -0.82813,1.09375 -0.5,0.35937 -1.21875,0.5 -0.46875,0.10937 -1.53125,0.10937 h -5.98437 v -1.64062 h 5.35937 q 1.28125,0 1.73438,-0.10938 0.64062,-0.15625 1.01562,-0.65625 0.375,-0.5 0.375,-1.23437 0,-0.73438 -0.375,-1.375 -0.39062,-0.65625 -1.03125,-0.92188 -0.65625,-0.26562 -1.89062,-0.26562 h -5.1875 v -1.64063 h 9.67187 z m -3.10937,-10.67261 0.20312,-1.6875 q 1.48438,0.40625 2.3125,1.48438 0.8125,1.07812 0.8125,2.76562 0,2.125 -1.29687,3.375 -1.3125,1.23438 -3.67188,1.23438 -2.45312,0 -3.79687,-1.25 -1.34375,-1.26563 -1.34375,-3.26563 0,-1.9375 1.32812,-3.15625 1.3125,-1.23437 3.70313,-1.23437 0.15625,0 0.4375,0 v 7.21875 q 1.59375,-0.0937 2.45312,-0.90625 0.84375,-0.8125 0.84375,-2.01563 0,-0.90625 -0.46875,-1.54687 -0.48437,-0.64063 -1.51562,-1.01563 z m -2.65625,5.39063 v -5.40625 q -1.21875,0.10937 -1.82813,0.625 -0.95312,0.78125 -0.95312,2.03125 0,1.125 0.76562,1.90625 0.75,0.76562 2.01563,0.84375 z m 2.875,-8.48508 -0.25,-1.625 q 0.96875,-0.125 1.5,-0.75 0.51562,-0.625 0.51562,-1.75 0,-1.125 -0.45312,-1.67187 -0.46875,-0.54688 -1.09375,-0.54688 -0.54688,0 -0.875,0.48438 -0.21875,0.32812 -0.54688,1.67187 -0.46875,1.8125 -0.79687,2.51563 -0.32813,0.6875 -0.90625,1.04687 -0.59375,0.35938 -1.3125,0.35938 -0.64063,0 -1.1875,-0.29688 -0.5625,-0.29687 -0.92188,-0.8125 -0.28125,-0.375 -0.46875,-1.03125 -0.20312,-0.67187 -0.20312,-1.42187 0,-1.14063 0.32812,-2 0.32813,-0.85938 0.89063,-1.26563 0.5625,-0.42187 1.5,-0.57812 l 0.21875,1.60937 q -0.75,0.10938 -1.17188,0.64063 -0.42187,0.51562 -0.42187,1.46875 0,1.14062 0.375,1.625 0.375,0.46875 0.875,0.46875 0.3125,0 0.57812,-0.1875 0.26563,-0.20313 0.4375,-0.64063 0.0937,-0.23437 0.42188,-1.4375 0.45312,-1.75 0.75,-2.4375 0.29687,-0.6875 0.85937,-1.07812 0.5625,-0.39063 1.40625,-0.39063 0.82813,0 1.54688,0.48438 0.71875,0.46875 1.125,1.375 0.39062,0.90625 0.39062,2.04687 0,1.875 -0.78125,2.875 -0.78125,0.98438 -2.32812,1.25 z m 1.42187,-13.5625 1.45313,-0.23437 q 0.14062,0.6875 0.14062,1.23437 0,0.89063 -0.28125,1.39063 -0.28125,0.48437 -0.73437,0.6875 -0.46875,0.20312 -1.9375,0.20312 h -5.57813 v 1.20313 h -1.26562 v -1.20313 h -2.39063 l -0.98437,-1.625 h 3.375 v -1.65625 h 1.26562 v 1.65625 h 5.67188 q 0.6875,0 0.89062,-0.0781 0.20313,-0.0937 0.32813,-0.28125 0.10937,-0.20313 0.10937,-0.57813 0,-0.26562 -0.0625,-0.71875 z m -1.64062,-8.23019 0.20312,-1.6875 q 1.48438,0.40625 2.3125,1.48437 0.8125,1.07813 0.8125,2.76563 0,2.125 -1.29687,3.375 -1.3125,1.23437 -3.67188,1.23437 -2.45312,0 -3.79687,-1.25 -1.34375,-1.26562 -1.34375,-3.26562 0,-1.9375 1.32812,-3.15625 1.3125,-1.23438 3.70313,-1.23438 0.15625,0 0.4375,0 v 7.21875 q 1.59375,-0.0937 2.45312,-0.90625 0.84375,-0.8125 0.84375,-2.01562 0,-0.90625 -0.46875,-1.54688 -0.48437,-0.64062 -1.51562,-1.01562 z m -2.65625,5.39062 v -5.40625 q -1.21875,0.10938 -1.82813,0.625 -0.95312,0.78125 -0.95312,2.03125 0,1.125 0.76562,1.90625 0.75,0.76563 2.01563,0.84375 z m 5.76562,-9.1257 h -9.67187 v -1.46875 h 1.46875 q -1.03125,-0.5625 -1.35938,-1.03125 -0.32812,-0.48437 -0.32812,-1.0625 0,-0.82812 0.53125,-1.6875 l 1.51562,0.5625 q -0.35937,0.60938 -0.35937,1.20313 0,0.54687 0.32812,0.96875 0.32813,0.42187 0.89063,0.60937 0.875,0.28125 1.92187,0.28125 h 5.0625 z m -2.89062,-5.57205 -0.25,-1.625 q 0.96875,-0.125 1.5,-0.75 0.51562,-0.625 0.51562,-1.75 0,-1.125 -0.45312,-1.67188 -0.46875,-0.54687 -1.09375,-0.54687 -0.54688,0 -0.875,0.48437 -0.21875,0.32813 -0.54688,1.67188 -0.46875,1.8125 -0.79687,2.51562 -0.32813,0.6875 -0.90625,1.04688 -0.59375,0.35937 -1.3125,0.35937 -0.64063,0 -1.1875,-0.29687 -0.5625,-0.29688 -0.92188,-0.8125 -0.28125,-0.375 -0.46875,-1.03125 -0.20312,-0.67188 -0.20312,-1.42188 0,-1.14062 0.32812,-2 0.32813,-0.85937 0.89063,-1.26562 0.5625,-0.42188 1.5,-0.57813 l 0.21875,1.60938 q -0.75,0.10937 -1.17188,0.64062 -0.42187,0.51563 -0.42187,1.46875 0,1.14063 0.375,1.625 0.375,0.46875 0.875,0.46875 0.3125,0 0.57812,-0.1875 0.26563,-0.20312 0.4375,-0.64062 0.0937,-0.23438 0.42188,-1.4375 0.45312,-1.75 0.75,-2.4375 0.29687,-0.6875 0.85937,-1.07813 0.5625,-0.39062 1.40625,-0.39062 0.82813,0 1.54688,0.48437 0.71875,0.46875 1.125,1.375 0.39062,0.90625 0.39062,2.04688 0,1.875 -0.78125,2.875 -0.78125,0.98437 -2.32812,1.25 z m 3.125,-13.93332 -13.8125,-3.875 v -1.3125 l 13.8125,3.85937 z m -0.23438,-14.13223 -13.35937,3.53125 v -1.8125 l 8.76562,-2.03125 q 1.375,-0.32813 2.71875,-0.5625 -2.14062,-0.5 -2.46875,-0.59375 l -9.01562,-2.54688 v -2.125 l 6.76562,-1.92187 q 2.51563,-0.71875 4.71875,-1.03125 -1.26562,-0.26563 -2.89062,-0.67188 l -8.59375,-2.09375 v -1.78125 l 13.35937,3.67188 v 1.70312 l -10.17187,2.8125 q -1.28125,0.35938 -1.5625,0.42188 0.90625,0.20312 1.5625,0.39062 l 10.17187,2.82813 z m 0,-14.72452 h -9.67187 v -1.46875 h 1.46875 q -1.03125,-0.5625 -1.35938,-1.03125 -0.32812,-0.48438 -0.32812,-1.0625 0,-0.82813 0.53125,-1.6875 l 1.51562,0.5625 q -0.35937,0.60937 -0.35937,1.20312 0,0.54688 0.32812,0.96875 0.32813,0.42188 0.89063,0.60938 0.875,0.28125 1.92187,0.28125 h 5.0625 z m -11.46875,-6.2283 h -1.89062 v -1.64063 h 1.89062 z m 11.46875,0 h -9.67187 v -1.64063 h 9.67187 z m -1.46875,-7.72296 1.45313,-0.23438 q 0.14062,0.6875 0.14062,1.23438 0,0.89062 -0.28125,1.39062 -0.28125,0.48438 -0.73437,0.6875 -0.46875,0.20313 -1.9375,0.20313 h -5.57813 v 1.20312 h -1.26562 v -1.20312 h -2.39063 l -0.98437,-1.625 h 3.375 v -1.65625 h 1.26562 v 1.65625 h 5.67188 q 0.6875,0 0.89062,-0.0781 0.20313,-0.0937 0.32813,-0.28125 0.10937,-0.20312 0.10937,-0.57812 0,-0.26563 -0.0625,-0.71875 z m -1.64062,-8.23017 0.20312,-1.6875 q 1.48438,0.40625 2.3125,1.48438 0.8125,1.07812 0.8125,2.76562 0,2.125 -1.29687,3.375 -1.3125,1.23438 -3.67188,1.23438 -2.45312,0 -3.79687,-1.25 -1.34375,-1.26563 -1.34375,-3.26563 0,-1.9375 1.32812,-3.15625 1.3125,-1.23437 3.70313,-1.23437 0.15625,0 0.4375,0 v 7.21875 q 1.59375,-0.0937 2.45312,-0.90625 0.84375,-0.8125 0.84375,-2.01563 0,-0.90625 -0.46875,-1.54687 -0.48437,-0.64063 -1.51562,-1.01563 z m -2.65625,5.39063 v -5.40625 q -1.21875,0.10937 -1.82813,0.625 -0.95312,0.78125 -0.95312,2.03125 0,1.125 0.76562,1.90625 0.75,0.76562 2.01563,0.84375 z m 5.76562,-9.12574 h -9.67187 v -1.46875 h 1.46875 q -1.03125,-0.5625 -1.35938,-1.03125 -0.32812,-0.48437 -0.32812,-1.0625 0,-0.82812 0.53125,-1.6875 l 1.51562,0.5625 q -0.35937,0.60938 -0.35937,1.20313 0,0.54687 0.32812,0.96875 0.32813,0.42187 0.89063,0.60937 0.875,0.28125 1.92187,0.28125 h 5.0625 z m -2.89062,-5.57205 -0.25,-1.625 q 0.96875,-0.125 1.5,-0.75 0.51562,-0.625 0.51562,-1.75 0,-1.125 -0.45312,-1.67187 -0.46875,-0.54688 -1.09375,-0.54688 -0.54688,0 -0.875,0.48438 -0.21875,0.32812 -0.54688,1.67187 -0.46875,1.8125 -0.79687,2.51563 -0.32813,0.6875 -0.90625,1.04687 -0.59375,0.35938 -1.3125,0.35938 -0.64063,0 -1.1875,-0.29688 -0.5625,-0.29687 -0.92188,-0.8125 -0.28125,-0.375 -0.46875,-1.03125 -0.20312,-0.67187 -0.20312,-1.42187 0,-1.14063 0.32812,-2 0.32813,-0.85938 0.89063,-1.26563 0.5625,-0.42187 1.5,-0.57812 l 0.21875,1.60937 q -0.75,0.10938 -1.17188,0.64063 -0.42187,0.51562 -0.42187,1.46875 0,1.14062 0.375,1.625 0.375,0.46875 0.875,0.46875 0.3125,0 0.57812,-0.1875 0.26563,-0.20313 0.4375,-0.64063 0.0937,-0.23437 0.42188,-1.4375 0.45312,-1.75 0.75,-2.4375 0.29687,-0.6875 0.85937,-1.07812 0.5625,-0.39063 1.40625,-0.39063 0.82813,0 1.54688,0.48438 0.71875,0.46875 1.125,1.375 0.39062,0.90625 0.39062,2.04687 0,1.875 -0.78125,2.875 -0.78125,0.98438 -2.32812,1.25 z"
       fill-rule="nonzero"
       id="path113" />
  </g>
</svg>
