<?xml version="1.0" encoding="UTF-8" standalone="no"?>
<svg
   version="1.1"
   viewBox="0 0 526.78479 233.937"
   fill="none"
   stroke="none"
   stroke-linecap="square"
   stroke-miterlimit="10"
   id="svg155"
   sodipodi:docname="separate_shared_memory.svg"
   width="526.78479"
   height="233.937"
   inkscape:version="1.2.1 (9c6d41e410, 2022-07-14)"
   xmlns:inkscape="http://www.inkscape.org/namespaces/inkscape"
   xmlns:sodipodi="http://sodipodi.sourceforge.net/DTD/sodipodi-0.dtd"
   xmlns="http://www.w3.org/2000/svg"
   xmlns:svg="http://www.w3.org/2000/svg">
  <defs
     id="defs159" />
  <sodipodi:namedview
     id="namedview157"
     pagecolor="#505050"
     bordercolor="#ffffff"
     borderopacity="1"
     inkscape:showpageshadow="0"
     inkscape:pageopacity="0"
     inkscape:pagecheckerboard="1"
     inkscape:deskcolor="#505050"
     showgrid="false"
     inkscape:zoom="0.24583333"
     inkscape:cx="400.67797"
     inkscape:cy="368.13559"
     inkscape:window-width="2560"
     inkscape:window-height="1403"
     inkscape:window-x="0"
     inkscape:window-y="0"
     inkscape:window-maximized="1"
     inkscape:current-layer="svg155" />
  <clipPath
     id="p.0">
    <path
       d="M 0,0 H 1280 V 960 H 0 Z"
       clip-rule="nonzero"
       id="path2" />
  </clipPath>
  <g
     clip-path="url(#p.0)"
     id="g153"
     transform="translate(-216.99475,-113.71917)">
    <path
       fill="#000000"
       fill-opacity="0"
       d="m 330.75327,130.75853 h 72.44095 v 45.03937 h -72.44095 z"
       fill-rule="evenodd"
       id="path7" />
    <path
       stroke="#000000"
       stroke-width="2"
       stroke-linejoin="round"
       stroke-linecap="butt"
       d="m 330.75327,130.75853 h 72.44095 v 45.03937 h -72.44095 z"
       fill-rule="evenodd"
       id="path9" />
    <path
       fill="#000000"
       d="m 345.88882,149.19821 v -13.35938 h 1.76562 v 13.35938 z m 4.68332,0 v -9.67188 h 1.46875 v 1.375 q 1.0625,-1.59375 3.07812,-1.59375 0.875,0 1.60938,0.3125 0.73437,0.3125 1.09375,0.82813 0.375,0.5 0.51562,1.20312 0.0937,0.45313 0.0937,1.59375 v 5.95313 h -1.64062 v -5.89063 q 0,-1 -0.20313,-1.48437 -0.1875,-0.5 -0.67187,-0.79688 -0.48438,-0.29687 -1.14063,-0.29687 -1.04687,0 -1.8125,0.67187 -0.75,0.65625 -0.75,2.51563 v 5.28125 z m 11.8757,0 h -1.51562 v -13.35938 h 1.64062 v 4.76563 q 1.04688,-1.29688 2.65625,-1.29688 0.89063,0 1.6875,0.35938 0.79688,0.35937 1.3125,1.01562 0.51563,0.64063 0.79688,1.5625 0.29687,0.92188 0.29687,1.96875 0,2.48438 -1.23437,3.84375 -1.21875,1.35938 -2.95313,1.35938 -1.70312,0 -2.6875,-1.4375 z m -0.0156,-4.90625 q 0,1.73437 0.48437,2.51562 0.76563,1.26563 2.09375,1.26563 1.07813,0 1.85938,-0.9375 0.78125,-0.9375 0.78125,-2.78125 0,-1.89063 -0.75,-2.79688 -0.75,-0.90625 -1.82813,-0.90625 -1.0625,0 -1.85937,0.9375 -0.78125,0.9375 -0.78125,2.70313 z m 8.28198,0.0625 q 0,-2.6875 1.48437,-3.96875 1.25,-1.07813 3.04688,-1.07813 2,0 3.26562,1.3125 1.26563,1.29688 1.26563,3.60938 0,1.85937 -0.5625,2.9375 -0.5625,1.0625 -1.64063,1.65625 -1.0625,0.59375 -2.32812,0.59375 -2.03125,0 -3.28125,-1.29688 -1.25,-1.3125 -1.25,-3.76562 z m 1.6875,0 q 0,1.85937 0.79687,2.79687 0.8125,0.92188 2.04688,0.92188 1.21875,0 2.03125,-0.92188 0.8125,-0.9375 0.8125,-2.84375 0,-1.79687 -0.8125,-2.71875 -0.8125,-0.92187 -2.03125,-0.92187 -1.23438,0 -2.04688,0.92187 -0.79687,0.90625 -0.79687,2.76563 z m 8.20382,4.84375 3.53125,-5.03125 -3.26562,-4.64063 h 2.04687 l 1.48438,2.26563 q 0.42187,0.64062 0.67187,1.07812 0.40625,-0.59375 0.73438,-1.0625 l 1.64062,-2.28125 h 1.95313 l -3.34375,4.54688 3.59375,5.125 h -2.01563 l -1.98437,-3 -0.51563,-0.8125 -2.54687,3.8125 z"
       fill-rule="nonzero"
       id="path11" />
    <path
       fill="#000000"
       d="m 362.56714,164.60446 q 0,-2.35938 0.48437,-3.79688 0.48438,-1.45312 1.4375,-2.23437 0.96875,-0.78125 2.42188,-0.78125 1.07812,0 1.89062,0.4375 0.8125,0.42187 1.32813,1.25 0.53125,0.8125 0.82812,1.98437 0.3125,1.15625 0.3125,3.14063 0,2.35937 -0.48437,3.8125 -0.48438,1.4375 -1.45313,2.23437 -0.95312,0.78125 -2.42187,0.78125 -1.92188,0 -3.03125,-1.39062 -1.3125,-1.67188 -1.3125,-5.4375 z m 1.67187,0 q 0,3.29687 0.76563,4.39062 0.78125,1.07813 1.90625,1.07813 1.14062,0 1.90625,-1.09375 0.76562,-1.09375 0.76562,-4.375 0,-3.29688 -0.76562,-4.375 -0.76563,-1.07813 -1.92188,-1.07813 -1.125,0 -1.79687,0.95313 -0.85938,1.21875 -0.85938,4.5 z"
       fill-rule="nonzero"
       id="path13" />
    <path
       fill="#000000"
       fill-opacity="0"
       d="m 331.66953,206.28609 h 72.44095 v 45.03937 h -72.44095 z"
       fill-rule="evenodd"
       id="path15" />
    <path
       stroke="#000000"
       stroke-width="2"
       stroke-linejoin="round"
       stroke-linecap="butt"
       d="m 331.66953,206.28609 h 72.44095 v 45.03937 h -72.44095 z"
       fill-rule="evenodd"
       id="path17" />
    <path
       fill="#000000"
       d="m 346.80508,224.72577 v -13.35938 h 1.76562 v 13.35938 z m 4.68329,0 v -9.67188 h 1.46875 v 1.375 q 1.0625,-1.59375 3.07812,-1.59375 0.875,0 1.60938,0.3125 0.73437,0.3125 1.09375,0.82813 0.375,0.5 0.51562,1.20312 0.0937,0.45313 0.0937,1.59375 v 5.95313 h -1.64062 v -5.89063 q 0,-1 -0.20313,-1.48437 -0.1875,-0.5 -0.67187,-0.79688 -0.48438,-0.29687 -1.14063,-0.29687 -1.04687,0 -1.8125,0.67187 -0.75,0.65625 -0.75,2.51563 v 5.28125 z m 11.87573,0 h -1.51562 v -13.35938 h 1.64062 v 4.76563 q 1.04688,-1.29688 2.65625,-1.29688 0.89063,0 1.6875,0.35938 0.79688,0.35937 1.3125,1.01562 0.51563,0.64063 0.79688,1.5625 0.29687,0.92188 0.29687,1.96875 0,2.48438 -1.23437,3.84375 -1.21875,1.35938 -2.95313,1.35938 -1.70312,0 -2.6875,-1.4375 z m -0.0156,-4.90625 q 0,1.73437 0.48437,2.51562 0.76563,1.26563 2.09375,1.26563 1.07813,0 1.85938,-0.9375 0.78125,-0.9375 0.78125,-2.78125 0,-1.89063 -0.75,-2.79688 -0.75,-0.90625 -1.82813,-0.90625 -1.0625,0 -1.85937,0.9375 -0.78125,0.9375 -0.78125,2.70313 z m 8.28195,0.0625 q 0,-2.6875 1.48437,-3.96875 1.25,-1.07813 3.04688,-1.07813 2,0 3.26562,1.3125 1.26563,1.29688 1.26563,3.60938 0,1.85937 -0.5625,2.9375 -0.5625,1.0625 -1.64063,1.65625 -1.0625,0.59375 -2.32812,0.59375 -2.03125,0 -3.28125,-1.29688 -1.25,-1.3125 -1.25,-3.76562 z m 1.6875,0 q 0,1.85937 0.79687,2.79687 0.8125,0.92188 2.04688,0.92188 1.21875,0 2.03125,-0.92188 0.8125,-0.9375 0.8125,-2.84375 0,-1.79687 -0.8125,-2.71875 -0.8125,-0.92187 -2.03125,-0.92187 -1.23438,0 -2.04688,0.92187 -0.79687,0.90625 -0.79687,2.76563 z m 8.20385,4.84375 3.53125,-5.03125 -3.26562,-4.64063 h 2.04687 l 1.48438,2.26563 q 0.42187,0.64062 0.67187,1.07812 0.40625,-0.59375 0.73438,-1.0625 l 1.64062,-2.28125 h 1.95313 l -3.34375,4.54688 3.59375,5.125 h -2.01563 l -1.98437,-3 -0.51563,-0.8125 -2.54687,3.8125 z"
       fill-rule="nonzero"
       id="path19" />
    <path
       fill="#000000"
       d="m 369.65524,246.72577 h -1.64063 v -10.45313 q -0.59375,0.5625 -1.5625,1.14063 -0.95312,0.5625 -1.71875,0.84375 v -1.59375 q 1.375,-0.64063 2.40625,-1.5625 1.03125,-0.92188 1.45313,-1.78125 h 1.0625 z"
       fill-rule="nonzero"
       id="path21" />
    <path
       fill="#000000"
       fill-opacity="0"
       d="m 330.75327,281.81366 h 72.44095 v 45.03937 h -72.44095 z"
       fill-rule="evenodd"
       id="path23" />
    <path
       stroke="#000000"
       stroke-width="2"
       stroke-linejoin="round"
       stroke-linecap="butt"
       d="m 330.75327,281.81366 h 72.44095 v 45.03937 h -72.44095 z"
       fill-rule="evenodd"
       id="path25" />
    <path
       fill="#000000"
       d="m 345.88882,300.25333 v -13.35938 h 1.76562 v 13.35938 z m 4.68332,0 v -9.67188 h 1.46875 v 1.375 q 1.0625,-1.59375 3.07812,-1.59375 0.875,0 1.60938,0.3125 0.73437,0.3125 1.09375,0.82813 0.375,0.5 0.51562,1.20312 0.0937,0.45313 0.0937,1.59375 v 5.95313 h -1.64062 v -5.89063 q 0,-1 -0.20313,-1.48437 -0.1875,-0.5 -0.67187,-0.79688 -0.48438,-0.29687 -1.14063,-0.29687 -1.04687,0 -1.8125,0.67187 -0.75,0.65625 -0.75,2.51563 v 5.28125 z m 11.8757,0 h -1.51562 v -13.35938 h 1.64062 v 4.76563 q 1.04688,-1.29688 2.65625,-1.29688 0.89063,0 1.6875,0.35938 0.79688,0.35937 1.3125,1.01562 0.51563,0.64063 0.79688,1.5625 0.29687,0.92188 0.29687,1.96875 0,2.48438 -1.23437,3.84375 -1.21875,1.35938 -2.95313,1.35938 -1.70312,0 -2.6875,-1.4375 z m -0.0156,-4.90625 q 0,1.73437 0.48437,2.51562 0.76563,1.26563 2.09375,1.26563 1.07813,0 1.85938,-0.9375 0.78125,-0.9375 0.78125,-2.78125 0,-1.89063 -0.75,-2.79688 -0.75,-0.90625 -1.82813,-0.90625 -1.0625,0 -1.85937,0.9375 -0.78125,0.9375 -0.78125,2.70313 z m 8.28198,0.0625 q 0,-2.6875 1.48437,-3.96875 1.25,-1.07813 3.04688,-1.07813 2,0 3.26562,1.3125 1.26563,1.29688 1.26563,3.60938 0,1.85937 -0.5625,2.9375 -0.5625,1.0625 -1.64063,1.65625 -1.0625,0.59375 -2.32812,0.59375 -2.03125,0 -3.28125,-1.29688 -1.25,-1.3125 -1.25,-3.76562 z m 1.6875,0 q 0,1.85937 0.79687,2.79687 0.8125,0.92188 2.04688,0.92188 1.21875,0 2.03125,-0.92188 0.8125,-0.9375 0.8125,-2.84375 0,-1.79687 -0.8125,-2.71875 -0.8125,-0.92187 -2.03125,-0.92187 -1.23438,0 -2.04688,0.92187 -0.79687,0.90625 -0.79687,2.76563 z m 8.20382,4.84375 3.53125,-5.03125 -3.26562,-4.64063 h 2.04687 l 1.48438,2.26563 q 0.42187,0.64062 0.67187,1.07812 0.40625,-0.59375 0.73438,-1.0625 l 1.64062,-2.28125 h 1.95313 l -3.34375,4.54688 3.59375,5.125 h -2.01563 l -1.98437,-3 -0.51563,-0.8125 -2.54687,3.8125 z"
       fill-rule="nonzero"
       id="path27" />
    <path
       fill="#000000"
       d="m 371.1765,320.6752 v 1.57813 h -8.82813 q -0.0156,-0.59375 0.1875,-1.14063 0.34375,-0.90625 1.07813,-1.78125 0.75,-0.875 2.15625,-2.01562 2.17187,-1.78125 2.9375,-2.82813 0.76562,-1.04687 0.76562,-1.96875 0,-0.98437 -0.70312,-1.64062 -0.6875,-0.67188 -1.8125,-0.67188 -1.1875,0 -1.90625,0.71875 -0.70313,0.70313 -0.70313,1.95313 l -1.6875,-0.17188 q 0.17188,-1.89062 1.29688,-2.875 1.14062,-0.98437 3.03125,-0.98437 1.92187,0 3.04687,1.0625 1.125,1.0625 1.125,2.64062 0,0.79688 -0.32812,1.57813 -0.32813,0.78125 -1.09375,1.64062 -0.75,0.84375 -2.53125,2.34375 -1.46875,1.23438 -1.89063,1.6875 -0.42187,0.4375 -0.6875,0.875 z"
       fill-rule="nonzero"
       id="path29" />
    <path
       fill="#cfe2f3"
       d="m 518.3545,346.65616 v 0 c -4.43286,0 -8.0264,-3.59354 -8.0264,-8.0264 V 122.74557 c 0,-2.12874 0.84561,-4.17028 2.35086,-5.67553 1.50525,-1.50524 3.54682,-2.35087 5.67554,-2.35087 h 32.10467 c 4.43287,0 8.02637,3.59354 8.02637,8.0264 v 215.88419 0 c 0,4.43286 -3.5935,8.0264 -8.02637,8.0264 z"
       fill-rule="evenodd"
       id="path31" />
    <path
       stroke="#000000"
       stroke-width="2"
       stroke-linejoin="round"
       stroke-linecap="butt"
       d="m 518.3545,346.65616 v 0 c -4.43286,0 -8.0264,-3.59354 -8.0264,-8.0264 V 122.74557 c 0,-2.12874 0.84561,-4.17028 2.35086,-5.67553 1.50525,-1.50524 3.54682,-2.35087 5.67554,-2.35087 h 32.10467 c 4.43287,0 8.02637,3.59354 8.02637,8.0264 v 215.88419 0 c 0,4.43286 -3.5935,8.0264 -8.02637,8.0264 z"
       fill-rule="evenodd"
       id="path33" />
    <path
       fill="#000000"
       d="m 541.32684,279.92224 h -11.78125 v 4.40625 h -1.57813 v -10.57813 h 1.57813 v 4.40625 h 11.78125 z m 0,-7.91159 h -13.35938 v -1.78125 h 11.78125 v -6.5625 h 1.57813 z m -4.01563,-9.61011 h -1.64062 v -5.03125 h 1.64062 z m -9.34375,-15.82205 v -1.76562 h 7.71875 q 2.01563,0 3.20313,0.45312 1.1875,0.45313 1.9375,1.64063 0.73437,1.1875 0.73437,3.125 0,1.875 -0.64062,3.07812 -0.65625,1.1875 -1.875,1.70313 -1.23438,0.5 -3.35938,0.5 h -7.71875 v -1.76563 h 7.71875 q 1.73438,0 2.5625,-0.3125 0.8125,-0.32812 1.26563,-1.10937 0.45312,-0.79688 0.45312,-1.9375 0,-1.95313 -0.89062,-2.78125 -0.89063,-0.82813 -3.39063,-0.82813 z m 13.35938,-4.6292 h -13.35938 v -1.78125 h 11.78125 v -6.5625 h 1.57813 z m 0,-15.03817 h -13.35938 v -9.01563 h 1.57813 v 7.25 h 4.14062 v -6.26562 h 1.57813 v 6.26562 h 6.0625 z m -1.1875,-17.41161 q 0.76562,0.92188 1.09375,1.76563 0.3125,0.82812 0.3125,1.79687 0,1.59375 -0.78125,2.45313 -0.78125,0.85937 -1.98438,0.85937 -0.71875,0 -1.29687,-0.32812 -0.59375,-0.32813 -0.9375,-0.84375 -0.35938,-0.53125 -0.54688,-1.1875 -0.125,-0.46875 -0.25,-1.45313 -0.23437,-1.98437 -0.5625,-2.92187 -0.34375,-0.0156 -0.42187,-0.0156 -1,0 -1.42188,0.46875 -0.54687,0.625 -0.54687,1.875 0,1.15625 0.40625,1.70313 0.40625,0.54687 1.42187,0.8125 l -0.21875,1.60937 q -1.01562,-0.21875 -1.64062,-0.71875 -0.64063,-0.5 -0.98438,-1.45312 -0.34375,-0.95313 -0.34375,-2.1875 0,-1.25 0.29688,-2.01563 0.28125,-0.78125 0.73437,-1.14062 0.4375,-0.375 1.10938,-0.51563 0.42187,-0.0781 1.51562,-0.0781 h 2.1875 q 2.28125,0 2.89063,-0.10938 0.59375,-0.10937 1.15625,-0.40625 v 1.70313 q -0.51563,0.26562 -1.1875,0.32812 z m -3.67188,0.14063 q 0.375,0.89062 0.625,2.67187 0.14063,1.01563 0.32813,1.4375 0.1875,0.42188 0.53125,0.65625 0.34375,0.21875 0.78125,0.21875 0.65625,0 1.09375,-0.5 0.4375,-0.5 0.4375,-1.45312 0,-0.9375 -0.40625,-1.67188 -0.42188,-0.75 -1.14063,-1.09375 -0.5625,-0.26562 -1.64062,-0.26562 z m 4.85938,-5.70385 v 1.51563 h -13.35938 v -1.64063 h 4.76563 q -1.29688,-1.04687 -1.29688,-2.65625 0,-0.89062 0.35938,-1.6875 0.35937,-0.79687 1.01562,-1.3125 0.64063,-0.51562 1.5625,-0.79687 0.92188,-0.29688 1.96875,-0.29688 2.48438,0 3.84375,1.23438 1.35938,1.21875 1.35938,2.95312 0,1.70313 -1.4375,2.6875 z m -4.90625,0.0156 q 1.73437,0 2.51562,-0.48438 1.26563,-0.76562 1.26563,-2.09375 0,-1.07812 -0.9375,-1.85937 -0.9375,-0.78125 -2.78125,-0.78125 -1.89063,0 -2.79688,0.75 -0.90625,0.75 -0.90625,1.82812 0,1.0625 0.9375,1.85938 0.9375,0.78125 2.70313,0.78125 z m 4.90625,-8.87572 h -9.67188 v -1.46875 h 1.46875 q -1.03125,-0.5625 -1.35937,-1.03125 -0.32813,-0.48437 -0.32813,-1.0625 0,-0.82812 0.53125,-1.6875 l 1.51563,0.5625 q -0.35938,0.60938 -0.35938,1.20313 0,0.54687 0.32813,0.96875 0.32812,0.42187 0.89062,0.60937 0.875,0.28125 1.92188,0.28125 h 5.0625 z m -11.46875,-6.2283 h -1.89063 v -1.64063 h 1.89063 z m 11.46875,0 h -9.67188 v -1.64063 h 9.67188 z m -3.54688,-10.45732 0.21875,-1.60938 q 1.65625,0.26563 2.60938,1.35938 0.9375,1.07812 0.9375,2.67187 0,1.98438 -1.29688,3.1875 -1.29687,1.20313 -3.71875,1.20313 -1.57812,0 -2.75,-0.51563 -1.17187,-0.51562 -1.75,-1.57812 -0.59375,-1.0625 -0.59375,-2.3125 0,-1.57813 0.79688,-2.57813 0.79687,-1 2.26562,-1.28125 l 0.23438,1.59375 q -0.96875,0.23438 -1.45313,0.8125 -0.5,0.57813 -0.5,1.39063 0,1.23437 0.89063,2.01562 0.89062,0.78125 2.8125,0.78125 1.95312,0 2.84375,-0.75 0.875,-0.75 0.875,-1.95312 0,-0.96875 -0.59375,-1.60938 -0.59375,-0.65625 -1.82813,-0.82812 z"
       fill-rule="nonzero"
       id="path35" />
    <path
       fill="#000000"
       fill-opacity="0"
       d="m 612.3228,207.64305 h 130.45673 v 45.03937 H 612.3228 Z"
       fill-rule="evenodd"
       id="path37" />
    <path
       stroke="#000000"
       stroke-width="2"
       stroke-linejoin="round"
       stroke-linecap="butt"
       d="m 612.3228,207.64305 h 130.45673 v 45.03937 H 612.3228 Z"
       fill-rule="evenodd"
       id="path39" />
    <path
       fill="#000000"
       d="m 658.02856,237.08273 v -13.35938 h 1.76562 v 13.35938 z m 4.80829,0 v -13.35938 h 5.01562 q 1.53125,0 2.45313,0.40625 0.92187,0.40625 1.4375,1.25 0.53125,0.84375 0.53125,1.76563 0,0.85937 -0.46875,1.625 -0.45313,0.75 -1.39063,1.20312 1.20313,0.35938 1.85938,1.21875 0.65625,0.85938 0.65625,2.01563 0,0.9375 -0.40625,1.75 -0.39063,0.79687 -0.98438,1.23437 -0.57812,0.4375 -1.45312,0.67188 -0.875,0.21875 -2.15625,0.21875 z m 1.78125,-7.75 h 2.875 q 1.1875,0 1.6875,-0.14063 0.67187,-0.20312 1.01562,-0.67187 0.34375,-0.46875 0.34375,-1.17188 0,-0.65625 -0.32812,-1.15625 -0.3125,-0.51562 -0.90625,-0.70312 -0.59375,-0.1875 -2.03125,-0.1875 h -2.65625 z m 0,6.17187 h 3.3125 q 0.85937,0 1.20312,-0.0625 0.60938,-0.10937 1.01563,-0.35937 0.42187,-0.26563 0.6875,-0.75 0.26562,-0.48438 0.26562,-1.125 0,-0.75 -0.39062,-1.29688 -0.375,-0.54687 -1.0625,-0.76562 -0.67188,-0.23438 -1.95313,-0.23438 h -3.07812 z m 10.77167,1.57813 v -13.35938 h 9.65625 v 1.57813 h -7.875 v 4.09375 h 7.375 v 1.5625 h -7.375 v 4.54687 h 8.1875 v 1.57813 z m 11.05297,0 5.17188,-6.95313 -4.5625,-6.40625 h 2.10937 l 2.42188,3.4375 q 0.75,1.0625 1.07812,1.625 0.4375,-0.71875 1.04688,-1.51562 l 2.6875,-3.54688 h 1.92187 l -4.6875,6.29688 5.0625,7.0625 h -2.1875 l -3.35937,-4.76563 q -0.28125,-0.40625 -0.59375,-0.89062 -0.4375,0.73437 -0.625,1 l -3.35938,4.65625 z"
       fill-rule="nonzero"
       id="path41" />
    <path
       fill="#000000"
       fill-opacity="0"
       d="m 612.3228,230.16273 -53.82678,0.53543"
       fill-rule="evenodd"
       id="path43" />
    <path
       stroke="#000000"
       stroke-width="2"
       stroke-linejoin="round"
       stroke-linecap="butt"
       d="m 612.3228,230.16273 -41.82733,0.41606"
       fill-rule="evenodd"
       id="path45" />
    <path
       fill="#000000"
       stroke="#000000"
       stroke-width="2"
       stroke-linecap="butt"
       d="m 570.4626,227.2755 -9.04285,3.39359 9.10858,3.21301 z"
       fill-rule="evenodd"
       id="path47" />
    <path
       fill="#000000"
       fill-opacity="0"
       d="M 331.0691,153.27821 H 270.50217"
       fill-rule="evenodd"
       id="path49" />
    <path
       stroke="#000000"
       stroke-width="2"
       stroke-linejoin="round"
       stroke-linecap="butt"
       d="M 319.0691,153.27821 H 270.50217"
       fill-rule="evenodd"
       id="path51" />
    <path
       fill="#000000"
       stroke="#000000"
       stroke-width="2"
       stroke-linecap="butt"
       d="m 319.0691,156.58168 9.0762,-3.30347 -9.0762,-3.30346 z"
       fill-rule="evenodd"
       id="path53" />
    <path
       fill="#000000"
       fill-opacity="0"
       d="m 270.41946,229.53018 61.16534,-0.72441"
       fill-rule="evenodd"
       id="path55" />
    <path
       stroke="#000000"
       stroke-width="2"
       stroke-linejoin="round"
       stroke-linecap="butt"
       d="m 270.41946,229.53018 49.1662,-0.58231"
       fill-rule="evenodd"
       id="path57" />
    <path
       fill="#000000"
       stroke="#000000"
       stroke-width="2"
       stroke-linecap="butt"
       d="m 319.6248,232.25111 9.03644,-3.41072 -9.11469,-3.19574 z"
       fill-rule="evenodd"
       id="path59" />
    <path
       fill="#000000"
       fill-opacity="0"
       d="m 268.59842,303.6483 62.4567,0.69293"
       fill-rule="evenodd"
       id="path61" />
    <path
       stroke="#000000"
       stroke-width="2"
       stroke-linejoin="round"
       stroke-linecap="butt"
       d="m 268.59842,303.6483 50.45743,0.55981"
       fill-rule="evenodd"
       id="path63" />
    <path
       fill="#000000"
       stroke="#000000"
       stroke-width="2"
       stroke-linecap="butt"
       d="m 319.0192,307.51135 9.1123,-3.20258 -9.039,-3.40396 z"
       fill-rule="evenodd"
       id="path65" />
    <path
       fill="#000000"
       fill-opacity="0"
       d="m 441.96585,152.16011 -38.17322,0.34645"
       fill-rule="evenodd"
       id="path67" />
    <path
       stroke="#000000"
       stroke-width="2"
       stroke-linejoin="round"
       stroke-linecap="butt"
       d="m 429.96637,152.26901 -26.17371,0.23755"
       fill-rule="evenodd"
       id="path69" />
    <path
       fill="#000000"
       stroke="#000000"
       stroke-width="2"
       stroke-linecap="butt"
       d="m 429.99637,155.57234 9.04584,-3.3857 -9.10581,-3.22096 z"
       fill-rule="evenodd"
       id="path71" />
    <path
       fill="#000000"
       fill-opacity="0"
       d="m 404.11047,228.80577 38.20471,0.31496"
       fill-rule="evenodd"
       id="path73" />
    <path
       stroke="#000000"
       stroke-width="2"
       stroke-linejoin="round"
       stroke-linecap="butt"
       d="m 404.11044,228.80577 26.20514,0.21605"
       fill-rule="evenodd"
       id="path75" />
    <path
       fill="#000000"
       stroke="#000000"
       stroke-width="2"
       stroke-linecap="butt"
       d="m 430.28833,232.32516 9.10312,-3.22853 -9.04865,-3.37817 z"
       fill-rule="evenodd"
       id="path77" />
    <path
       fill="#000000"
       fill-opacity="0"
       d="m 403.1942,305.10498 38.20471,-0.063"
       fill-rule="evenodd"
       id="path79" />
    <path
       stroke="#000000"
       stroke-width="2"
       stroke-linejoin="round"
       stroke-linecap="butt"
       d="m 403.1942,305.10498 26.20474,-0.0432"
       fill-rule="evenodd"
       id="path81" />
    <path
       fill="#000000"
       stroke="#000000"
       stroke-width="2"
       stroke-linecap="butt"
       d="m 429.40442,308.36523 9.07074,-3.31842 -9.08163,-3.28848 z"
       fill-rule="evenodd"
       id="path83" />
    <path
       fill="#000000"
       fill-opacity="0"
       d="M 216.99475,338.33597 V 127.18634 h 38.77165 v 211.14963 z"
       fill-rule="evenodd"
       id="path85" />
    <path
       fill="#000000"
       d="m 237.66725,322.58926 -0.125,-1.4375 q 0.85937,-0.0937 1.42187,-0.46875 0.54688,-0.375 0.89063,-1.15625 0.32812,-0.78125 0.32812,-1.75 0,-0.875 -0.25,-1.53125 -0.26562,-0.67187 -0.70312,-0.98437 -0.45313,-0.32813 -0.98438,-0.32813 -0.54687,0 -0.9375,0.3125 -0.40625,0.3125 -0.6875,1.03125 -0.17187,0.45313 -0.54687,2.03125 -0.39063,1.57813 -0.71875,2.21875 -0.4375,0.8125 -1.0625,1.21875 -0.64063,0.40625 -1.4375,0.40625 -0.85938,0 -1.60938,-0.48437 -0.76562,-0.5 -1.15625,-1.4375 -0.39062,-0.95313 -0.39062,-2.10938 0,-1.28125 0.42187,-2.25 0.40625,-0.96875 1.20313,-1.48437 0.79687,-0.53125 1.79687,-0.57813 l 0.10938,1.45313 q -1.07813,0.125 -1.625,0.79687 -0.5625,0.67188 -0.5625,2 0,1.375 0.5,2 0.5,0.625 1.21875,0.625 0.60937,0 1.01562,-0.4375 0.39063,-0.4375 0.8125,-2.28125 0.42188,-1.85937 0.73438,-2.54687 0.45312,-1 1.17187,-1.46875 0.70313,-0.48438 1.625,-0.48438 0.90625,0 1.71875,0.53125 0.8125,0.51563 1.26563,1.5 0.45312,0.98438 0.45312,2.20313 0,1.5625 -0.45312,2.60937 -0.46875,1.04688 -1.375,1.65625 -0.90625,0.59375 -2.0625,0.625 z m -0.46875,-10.48437 q -2.29688,0 -3.40625,-1.28125 -0.92188,-1.07813 -0.92188,-2.60938 0,-1.71875 1.125,-2.79687 1.10938,-1.09375 3.09375,-1.09375 1.59375,0 2.51563,0.48437 0.92187,0.48438 1.4375,1.40625 0.5,0.90625 0.5,2 0,1.73438 -1.10938,2.8125 -1.125,1.07813 -3.23437,1.07813 z m 0,-1.45313 q 1.59375,0 2.39062,-0.6875 0.79688,-0.70312 0.79688,-1.75 0,-1.04687 -0.79688,-1.73437 -0.79687,-0.70313 -2.4375,-0.70313 -1.53125,0 -2.32812,0.70313 -0.79688,0.6875 -0.79688,1.73437 0,1.04688 0.79688,1.75 0.78125,0.6875 2.375,0.6875 z m 0.14062,-16.32031 0.375,-1.51563 q 1.875,0.46875 2.85938,1.71875 0.98437,1.23438 0.98437,3.01563 0,1.85937 -0.75,3.01562 -0.76562,1.15625 -2.1875,1.76563 -1.4375,0.60937 -3.07812,0.60937 -1.79688,0 -3.125,-0.6875 -1.32813,-0.6875 -2.01563,-1.9375 -0.70312,-1.26562 -0.70312,-2.78125 0,-1.71875 0.875,-2.89062 0.875,-1.17188 2.46875,-1.64063 l 0.34375,1.5 q -1.25,0.39063 -1.8125,1.15625 -0.57813,0.75 -0.57813,1.90625 0,1.3125 0.64063,2.20313 0.625,0.89062 1.70312,1.25 1.0625,0.35937 2.1875,0.35937 1.46875,0 2.5625,-0.42187 1.07813,-0.4375 1.625,-1.32813 0.53125,-0.90625 0.53125,-1.95312 0,-1.26563 -0.73437,-2.14063 -0.73438,-0.89062 -2.17188,-1.20312 z m 4.01563,-7.85938 h -11.45313 v -5.07812 q 0,-1.53125 0.3125,-2.32813 0.29688,-0.79687 1.07813,-1.26562 0.78125,-0.48438 1.73437,-0.48438 1.21875,0 2.0625,0.79688 0.82813,0.78125 1.04688,2.4375 0.29687,-0.60938 0.57812,-0.92188 0.60938,-0.65625 1.51563,-1.25 l 3.125,-2 v 1.90625 l -2.39063,1.51563 q -1.03125,0.67187 -1.57812,1.10937 -0.54688,0.42188 -0.76563,0.76563 -0.21875,0.32812 -0.29687,0.6875 -0.0625,0.25 -0.0625,0.84375 v 1.75 h 5.09375 z m -6.40625,-1.51562 v -3.25 q 0,-1.04688 -0.20313,-1.625 -0.21875,-0.59375 -0.6875,-0.89063 -0.48437,-0.3125 -1.03125,-0.3125 -0.8125,0 -1.32812,0.59375 -0.53125,0.59375 -0.53125,1.85938 v 3.625 z m 3.73437,-15.50781 0.17188,-1.45313 q 1.28125,0.34375 1.98437,1.28125 0.70313,0.92188 0.70313,2.35938 0,1.82812 -1.125,2.89062 -1.125,1.0625 -3.14063,1.0625 -2.09375,0 -3.25,-1.07812 -1.15625,-1.07813 -1.15625,-2.79688 0,-1.65625 1.14063,-2.70312 1.125,-1.0625 3.17187,-1.0625 0.125,0 0.375,0 v 6.1875 q 1.375,-0.0781 2.10938,-0.76563 0.71875,-0.70312 0.71875,-1.73437 0,-0.78125 -0.40625,-1.32813 -0.40625,-0.54687 -1.29688,-0.85937 z m -2.28125,4.60937 v -4.625 q -1.04687,0.0937 -1.5625,0.53125 -0.8125,0.67188 -0.8125,1.73438 0,0.96875 0.65625,1.64062 0.64063,0.65625 1.71875,0.71875 z m 8.14063,-13.11719 h -4.07813 q 0.46875,0.32813 0.78125,0.92188 0.29688,0.57812 0.29688,1.25 0,1.46875 -1.17188,2.54687 -1.1875,1.0625 -3.25,1.0625 -1.25,0 -2.23437,-0.4375 -1,-0.4375 -1.5,-1.25 -0.51563,-0.82812 -0.51563,-1.8125 0,-1.54687 1.29688,-2.42187 h -1.10938 v -1.26563 h 11.48438 z m -7.35938,4.32813 q 1.59375,0 2.40625,-0.67188 0.79688,-0.67187 0.79688,-1.60937 0,-0.89063 -0.76563,-1.53125 -0.76562,-0.65625 -2.3125,-0.65625 -1.65625,0 -2.48437,0.6875 -0.84375,0.67187 -0.84375,1.59375 0,0.92187 0.78125,1.5625 0.76562,0.625 2.42187,0.625 z m 4.17188,-13.3828 H 240.136 q 1.40625,0.96875 1.40625,2.64063 0,0.73437 -0.28125,1.375 -0.28125,0.62498 -0.70313,0.93748 -0.4375,0.3125 -1.04687,0.4375 -0.42188,0.0781 -1.3125,0.0781 h -5.14063 v -1.40624 h 4.59375 q 1.10938,0 1.48438,-0.0781 0.5625,-0.14063 0.875,-0.5625 0.3125,-0.4375 0.3125,-1.0625 0,-0.64063 -0.3125,-1.1875 -0.32813,-0.5625 -0.89063,-0.78125 -0.5625,-0.23438 -1.625,-0.23438 h -4.4375 v -1.40625 h 8.29688 z m -2.67188,-9.13281 0.17188,-1.45313 q 1.28125,0.34375 1.98437,1.28125 0.70313,0.92188 0.70313,2.35938 0,1.82812 -1.125,2.89062 -1.125,1.0625 -3.14063,1.0625 -2.09375,0 -3.25,-1.07812 -1.15625,-1.07813 -1.15625,-2.79688 0,-1.65625 1.14063,-2.70312 1.125,-1.0625 3.17187,-1.0625 0.125,0 0.375,0 v 6.1875 q 1.375,-0.0781 2.10938,-0.76563 0.71875,-0.70312 0.71875,-1.73437 0,-0.78125 -0.40625,-1.32813 -0.40625,-0.54687 -1.29688,-0.85937 z m -2.28125,4.60937 v -4.625 q -1.04687,0.0937 -1.5625,0.53125 -0.8125,0.67188 -0.8125,1.73438 0,0.96875 0.65625,1.64062 0.64063,0.65625 1.71875,0.71875 z m 2.46875,-7.27343 -0.21875,-1.39063 q 0.84375,-0.10937 1.29688,-0.64062 0.4375,-0.54688 0.4375,-1.5 0,-0.96875 -0.39063,-1.4375 -0.40625,-0.46875 -0.9375,-0.46875 -0.46875,0 -0.75,0.40625 -0.1875,0.29687 -0.46875,1.4375 -0.39062,1.54687 -0.67187,2.15625 -0.29688,0.59375 -0.79688,0.90625 -0.5,0.29687 -1.10937,0.29687 -0.5625,0 -1.03125,-0.25 -0.46875,-0.25 -0.78125,-0.6875 -0.25,-0.32812 -0.40625,-0.89062 -0.17188,-0.57813 -0.17188,-1.21875 0,-0.98438 0.28125,-1.71875 0.28125,-0.73438 0.76563,-1.07813 0.46875,-0.35937 1.28125,-0.5 l 0.1875,1.375 q -0.64063,0.0937 -1,0.54688 -0.35938,0.45312 -0.35938,1.26562 0,0.96875 0.32813,1.39063 0.3125,0.40625 0.73437,0.40625 0.28125,0 0.5,-0.17188 0.21875,-0.17187 0.375,-0.53125 0.0781,-0.21875 0.35938,-1.25 0.39062,-1.48437 0.65625,-2.07812 0.25,-0.59375 0.73437,-0.92188 0.48438,-0.34375 1.20313,-0.34375 0.70312,0 1.32812,0.42188 0.60938,0.40625 0.95313,1.1875 0.34375,0.76562 0.34375,1.73437 0,1.625 -0.67188,2.46875 -0.67187,0.84375 -2,1.07813 z m 1.21875,-11.625 1.25,-0.20313 q 0.125,0.59375 0.125,1.0625 0,0.76563 -0.23437,1.1875 -0.25,0.42188 -0.64063,0.59375 -0.40625,0.17188 -1.67187,0.17188 h -4.76563 v 1.03125 h -1.09375 v -1.03125 h -2.0625 l -0.84375,-1.40625 h 2.90625 v -1.40625 h 1.09375 v 1.40625 h 4.84375 q 0.60938,0 0.78125,-0.0625 0.17188,-0.0781 0.28125,-0.25 0.0937,-0.17188 0.0937,-0.48438 0,-0.23437 -0.0625,-0.60937 z m -1.40625,-7.05469 0.17188,-1.45313 q 1.28125,0.34375 1.98437,1.28125 0.70313,0.92188 0.70313,2.35938 0,1.82812 -1.125,2.89062 -1.125,1.0625 -3.14063,1.0625 -2.09375,0 -3.25,-1.07812 -1.15625,-1.07813 -1.15625,-2.79688 0,-1.65625 1.14063,-2.70312 1.125,-1.0625 3.17187,-1.0625 0.125,0 0.375,0 v 6.1875 q 1.375,-0.0781 2.10938,-0.76563 0.71875,-0.70312 0.71875,-1.73437 0,-0.78125 -0.40625,-1.32813 -0.40625,-0.54687 -1.29688,-0.85937 z m -2.28125,4.60937 v -4.625 q -1.04687,0.0937 -1.5625,0.53125 -0.8125,0.67188 -0.8125,1.73438 0,0.96875 0.65625,1.64062 0.64063,0.65625 1.71875,0.71875 z m 4.95313,-7.82031 h -8.29688 v -1.26562 h 1.25 q -0.875,-0.48438 -1.15625,-0.89063 -0.28125,-0.40625 -0.28125,-0.90625 0,-0.70312 0.45313,-1.4375 l 1.29687,0.48438 q -0.29687,0.51562 -0.29687,1.03125 0,0.45312 0.28125,0.82812 0.26562,0.35938 0.76562,0.51563 0.75,0.23437 1.64063,0.23437 h 4.34375 z m -2.48438,-4.78125 -0.21875,-1.39062 q 0.84375,-0.10938 1.29688,-0.64063 0.4375,-0.54687 0.4375,-1.5 0,-0.96875 -0.39063,-1.4375 -0.40625,-0.46875 -0.9375,-0.46875 -0.46875,0 -0.75,0.40625 -0.1875,0.29688 -0.46875,1.4375 -0.39062,1.54688 -0.67187,2.15625 -0.29688,0.59375 -0.79688,0.90625 -0.5,0.29688 -1.10937,0.29688 -0.5625,0 -1.03125,-0.25 -0.46875,-0.25 -0.78125,-0.6875 -0.25,-0.32813 -0.40625,-0.89063 -0.17188,-0.57812 -0.17188,-1.21875 0,-0.98437 0.28125,-1.71875 0.28125,-0.73437 0.76563,-1.07812 0.46875,-0.35938 1.28125,-0.5 l 0.1875,1.375 q -0.64063,0.0937 -1,0.54687 -0.35938,0.45313 -0.35938,1.26563 0,0.96875 0.32813,1.39062 0.3125,0.40625 0.73437,0.40625 0.28125,0 0.5,-0.17187 0.21875,-0.17188 0.375,-0.53125 0.0781,-0.21875 0.35938,-1.25 0.39062,-1.48438 0.65625,-2.07813 0.25,-0.59375 0.73437,-0.92187 0.48438,-0.34375 1.20313,-0.34375 0.70312,0 1.32812,0.42187 0.60938,0.40625 0.95313,1.1875 0.34375,0.76563 0.34375,1.73438 0,1.625 -0.67188,2.46875 -0.67187,0.84375 -2,1.07812 z m 2.6875,-11.94531 -11.85937,-3.32813 v -1.125 l 11.85937,3.3125 z m -0.20312,-12.125 -11.45313,3.03125 v -1.54688 l 7.5,-1.75 q 1.1875,-0.28125 2.34375,-0.48437 -1.82812,-0.4375 -2.10937,-0.51563 l -7.73438,-2.17187 v -1.82813 l 5.79688,-1.64062 q 2.15625,-0.625 4.04687,-0.89063 -1.07812,-0.21875 -2.48437,-0.57812 l -7.35938,-1.79688 v -1.51562 l 11.45313,3.14062 v 1.45313 l -8.73438,2.42187 q -1.09375,0.29688 -1.34375,0.35938 0.79688,0.17187 1.34375,0.32812 l 8.73438,2.4375 z m 0,-12.625 h -8.29688 v -1.26563 h 1.25 q -0.875,-0.48437 -1.15625,-0.89062 -0.28125,-0.40625 -0.28125,-0.90625 0,-0.70313 0.45313,-1.4375 l 1.29687,0.48437 q -0.29687,0.51563 -0.29687,1.03125 0,0.45313 0.28125,0.82813 0.26562,0.35937 0.76562,0.51562 0.75,0.23438 1.64063,0.23438 h 4.34375 z m -9.84375,-5.34375 h -1.60938 v -1.40625 h 1.60938 z m 9.84375,0 h -8.29688 v -1.40625 h 8.29688 z m -1.26563,-6.61719 1.25,-0.20312 q 0.125,0.59375 0.125,1.0625 0,0.76562 -0.23437,1.1875 -0.25,0.42187 -0.64063,0.59375 -0.40625,0.17187 -1.67187,0.17187 h -4.76563 v 1.03125 h -1.09375 v -1.03125 h -2.0625 l -0.84375,-1.40625 h 2.90625 v -1.40625 h 1.09375 v 1.40625 h 4.84375 q 0.60938,0 0.78125,-0.0625 0.17188,-0.0781 0.28125,-0.25 0.0937,-0.17187 0.0937,-0.48437 0,-0.23438 -0.0625,-0.60938 z m -1.40625,-7.05469 0.17188,-1.45312 q 1.28125,0.34375 1.98437,1.28125 0.70313,0.92187 0.70313,2.35937 0,1.82813 -1.125,2.89063 -1.125,1.0625 -3.14063,1.0625 -2.09375,0 -3.25,-1.07813 -1.15625,-1.07812 -1.15625,-2.79687 0,-1.65625 1.14063,-2.70313 1.125,-1.0625 3.17187,-1.0625 0.125,0 0.375,0 v 6.1875 q 1.375,-0.0781 2.10938,-0.76562 0.71875,-0.70313 0.71875,-1.73438 0,-0.78125 -0.40625,-1.32812 -0.40625,-0.54688 -1.29688,-0.85938 z m -2.28125,4.60938 v -4.625 q -1.04687,0.0937 -1.5625,0.53125 -0.8125,0.67187 -0.8125,1.73437 0,0.96875 0.65625,1.64063 0.64063,0.65625 1.71875,0.71875 z m 4.95313,-7.82031 h -8.29688 v -1.26563 h 1.25 q -0.875,-0.48437 -1.15625,-0.89062 -0.28125,-0.40625 -0.28125,-0.90625 0,-0.70313 0.45313,-1.4375 l 1.29687,0.48437 q -0.29687,0.51563 -0.29687,1.03125 0,0.45313 0.28125,0.82813 0.26562,0.35937 0.76562,0.51562 0.75,0.23438 1.64063,0.23438 h 4.34375 z m -2.48438,-4.78125 -0.21875,-1.39063 q 0.84375,-0.10937 1.29688,-0.64062 0.4375,-0.54688 0.4375,-1.5 0,-0.96875 -0.39063,-1.4375 -0.40625,-0.46875 -0.9375,-0.46875 -0.46875,0 -0.75,0.40625 -0.1875,0.29687 -0.46875,1.4375 -0.39062,1.54687 -0.67187,2.15625 -0.29688,0.59375 -0.79688,0.90625 -0.5,0.29687 -1.10937,0.29687 -0.5625,0 -1.03125,-0.25 -0.46875,-0.25 -0.78125,-0.6875 -0.25,-0.32812 -0.40625,-0.89062 -0.17188,-0.57813 -0.17188,-1.21875 0,-0.98438 0.28125,-1.71875 0.28125,-0.73438 0.76563,-1.07813 0.46875,-0.35937 1.28125,-0.5 l 0.1875,1.375 q -0.64063,0.0937 -1,0.54688 -0.35938,0.45312 -0.35938,1.26562 0,0.96875 0.32813,1.39063 0.3125,0.40625 0.73437,0.40625 0.28125,0 0.5,-0.17188 0.21875,-0.17187 0.375,-0.53125 0.0781,-0.21875 0.35938,-1.25 0.39062,-1.48437 0.65625,-2.07812 0.25,-0.59375 0.73437,-0.92188 0.48438,-0.34375 1.20313,-0.34375 0.70312,0 1.32812,0.42188 0.60938,0.40625 0.95313,1.1875 0.34375,0.76562 0.34375,1.73437 0,1.625 -0.67188,2.46875 -0.67187,0.84375 -2,1.07813 z"
       fill-rule="nonzero"
       id="path87" />
    <path
       fill="#fff2cc"
       d="M 742.77954,127.18635 H 612.32281 v 59.30709 h 130.45673 z"
       fill-rule="evenodd"
       id="path89" />
    <path
       stroke="#000000"
       stroke-width="2"
       stroke-linejoin="round"
       stroke-linecap="butt"
       d="M 742.77954,127.18635 H 612.32281 v 59.30709 h 130.45673 z"
       fill-rule="evenodd"
       id="path91" />
    <path
       fill="#000000"
       d="m 646.79895,152.75989 v -13.35937 h 2.65625 l 3.15625,9.45312 q 0.4375,1.32813 0.64062,1.98438 0.23438,-0.73438 0.70313,-2.14063 l 3.20312,-9.29687 h 2.375 v 13.35937 h -1.70312 v -11.17187 l -3.875,11.17187 h -1.59375 l -3.85938,-11.375 v 11.375 z m 21.69702,-1.1875 q -0.92187,0.76563 -1.76562,1.09375 -0.82813,0.3125 -1.79688,0.3125 -1.59375,0 -2.45312,-0.78125 -0.85938,-0.78125 -0.85938,-1.98437 0,-0.71875 0.32813,-1.29688 0.32812,-0.59375 0.84375,-0.9375 0.53125,-0.35937 1.1875,-0.54687 0.46875,-0.125 1.45312,-0.25 1.98438,-0.23438 2.92188,-0.5625 0.0156,-0.34375 0.0156,-0.42188 0,-1 -0.46875,-1.42187 -0.625,-0.54688 -1.875,-0.54688 -1.15625,0 -1.70312,0.40625 -0.54688,0.40625 -0.8125,1.42188 l -1.60938,-0.21875 q 0.21875,-1.01563 0.71875,-1.64063 0.5,-0.64062 1.45313,-0.98437 0.95312,-0.34375 2.1875,-0.34375 1.25,0 2.01562,0.29687 0.78125,0.28125 1.14063,0.73438 0.375,0.4375 0.51562,1.10937 0.0781,0.42188 0.0781,1.51563 v 2.1875 q 0,2.28125 0.10937,2.89062 0.10938,0.59375 0.40625,1.15625 h -1.70312 q -0.26563,-0.51562 -0.32813,-1.1875 z m -0.14062,-3.67187 q -0.89063,0.375 -2.67188,0.625 -1.01562,0.14062 -1.4375,0.32812 -0.42187,0.1875 -0.65625,0.53125 -0.21875,0.34375 -0.21875,0.78125 0,0.65625 0.5,1.09375 0.5,0.4375 1.45313,0.4375 0.9375,0 1.67187,-0.40625 0.75,-0.42187 1.09375,-1.14062 0.26563,-0.5625 0.26563,-1.64063 z m 4.20385,-6.60938 v -1.89062 h 1.64063 v 1.89062 z m 0,11.46875 v -9.67187 h 1.64063 v 9.67187 z m 4.09796,0 v -13.35937 h 1.64063 v 13.35937 z m 5.69172,0 h -1.51563 v -13.35937 h 1.64063 v 4.76562 q 1.04687,-1.29687 2.65625,-1.29687 0.89062,0 1.6875,0.35937 0.79687,0.35938 1.3125,1.01563 0.51562,0.64062 0.79687,1.5625 0.29688,0.92187 0.29688,1.96875 0,2.48437 -1.23438,3.84375 -1.21875,1.35937 -2.95312,1.35937 -1.70313,0 -2.6875,-1.4375 z m -0.0156,-4.90625 q 0,1.73438 0.48438,2.51563 0.76562,1.26562 2.09375,1.26562 1.07812,0 1.85937,-0.9375 0.78125,-0.9375 0.78125,-2.78125 0,-1.89062 -0.75,-2.79687 -0.75,-0.90625 -1.82812,-0.90625 -1.0625,0 -1.85938,0.9375 -0.78125,0.9375 -0.78125,2.70312 z m 8.28192,0.0625 q 0,-2.6875 1.48438,-3.96875 1.25,-1.07812 3.04687,-1.07812 2,0 3.26563,1.3125 1.26562,1.29687 1.26562,3.60937 0,1.85938 -0.5625,2.9375 -0.5625,1.0625 -1.64062,1.65625 -1.0625,0.59375 -2.32813,0.59375 -2.03125,0 -3.28125,-1.29687 -1.25,-1.3125 -1.25,-3.76563 z m 1.6875,0 q 0,1.85938 0.79688,2.79688 0.8125,0.92187 2.04687,0.92187 1.21875,0 2.03125,-0.92187 0.8125,-0.9375 0.8125,-2.84375 0,-1.79688 -0.8125,-2.71875 -0.8125,-0.92188 -2.03125,-0.92188 -1.23437,0 -2.04687,0.92188 -0.79688,0.90625 -0.79688,2.76562 z m 8.20386,4.84375 3.53125,-5.03125 -3.26563,-4.64062 h 2.04688 l 1.48437,2.26562 q 0.42188,0.64063 0.67188,1.07813 0.40625,-0.59375 0.73437,-1.0625 l 1.64063,-2.28125 h 1.95312 l -3.34375,4.54687 3.59375,5.125 h -2.01562 l -1.98438,-3 -0.51562,-0.8125 -2.54688,3.8125 z"
       fill-rule="nonzero"
       id="path93" />
    <path
       fill="#000000"
       d="m 624.99506,170.46301 1.65625,-0.14063 q 0.125,1 0.54687,1.64063 0.4375,0.64062 1.34375,1.04687 0.92188,0.39063 2.0625,0.39063 1,0 1.78125,-0.29688 0.78125,-0.29687 1.15625,-0.8125 0.375,-0.53125 0.375,-1.15625 0,-0.625 -0.375,-1.09375 -0.35937,-0.46875 -1.1875,-0.79687 -0.54687,-0.20313 -2.39062,-0.64063 -1.82813,-0.45312 -2.5625,-0.84375 -0.96875,-0.5 -1.4375,-1.23437 -0.46875,-0.75 -0.46875,-1.67188 0,-1 0.57812,-1.875 0.57813,-0.89062 1.67188,-1.34375 1.10937,-0.45312 2.45312,-0.45312 1.48438,0 2.60938,0.48437 1.14062,0.46875 1.75,1.40625 0.60937,0.92188 0.65625,2.09375 l -1.6875,0.125 q -0.14063,-1.26562 -0.9375,-1.90625 -0.78125,-0.65625 -2.3125,-0.65625 -1.60938,0 -2.34375,0.59375 -0.73438,0.59375 -0.73438,1.42188 0,0.71875 0.53125,1.17187 0.5,0.46875 2.65625,0.96875 2.15625,0.48438 2.95313,0.84375 1.17187,0.53125 1.71875,1.35938 0.5625,0.82812 0.5625,1.90625 0,1.0625 -0.60938,2.01562 -0.60937,0.9375 -1.75,1.46875 -1.14062,0.51563 -2.57812,0.51563 -1.8125,0 -3.04688,-0.53125 -1.21875,-0.53125 -1.92187,-1.59375 -0.6875,-1.0625 -0.71875,-2.40625 z m 12.83423,4.29687 v -13.35937 h 1.64062 v 4.79687 q 1.14063,-1.32812 2.89063,-1.32812 1.07812,0 1.85937,0.42187 0.79688,0.42188 1.14063,1.17188 0.34375,0.75 0.34375,2.17187 v 6.125 h -1.64063 v -6.125 q 0,-1.23437 -0.53125,-1.79687 -0.53125,-0.5625 -1.51562,-0.5625 -0.71875,0 -1.35938,0.39062 -0.64062,0.375 -0.92187,1.01563 -0.26563,0.64062 -0.26563,1.78125 v 5.29687 z m 16.68817,-1.1875 q -0.92188,0.76563 -1.76563,1.09375 -0.82812,0.3125 -1.79687,0.3125 -1.59375,0 -2.45313,-0.78125 -0.85937,-0.78125 -0.85937,-1.98437 0,-0.71875 0.32812,-1.29688 0.32813,-0.59375 0.84375,-0.9375 0.53125,-0.35937 1.1875,-0.54687 0.46875,-0.125 1.45313,-0.25 1.98437,-0.23438 2.92187,-0.5625 0.0156,-0.34375 0.0156,-0.42188 0,-1 -0.46875,-1.42187 -0.625,-0.54688 -1.875,-0.54688 -1.15625,0 -1.70313,0.40625 -0.54687,0.40625 -0.8125,1.42188 l -1.60937,-0.21875 q 0.21875,-1.01563 0.71875,-1.64063 0.5,-0.64062 1.45312,-0.98437 0.95313,-0.34375 2.1875,-0.34375 1.25,0 2.01563,0.29687 0.78125,0.28125 1.14062,0.73438 0.375,0.4375 0.51563,1.10937 0.0781,0.42188 0.0781,1.51563 v 2.1875 q 0,2.28125 0.10938,2.89062 0.10937,0.59375 0.40625,1.15625 h -1.70313 q -0.26562,-0.51562 -0.32812,-1.1875 z m -0.14063,-3.67187 q -0.89062,0.375 -2.67187,0.625 -1.01563,0.14062 -1.4375,0.32812 -0.42188,0.1875 -0.65625,0.53125 -0.21875,0.34375 -0.21875,0.78125 0,0.65625 0.5,1.09375 0.5,0.4375 1.45312,0.4375 0.9375,0 1.67188,-0.40625 0.75,-0.42187 1.09375,-1.14062 0.26562,-0.5625 0.26562,-1.64063 z m 4.18824,4.85937 v -9.67187 h 1.46875 v 1.46875 q 0.5625,-1.03125 1.03125,-1.35938 0.48437,-0.32812 1.0625,-0.32812 0.82812,0 1.6875,0.53125 l -0.5625,1.51562 q -0.60938,-0.35937 -1.20313,-0.35937 -0.54687,0 -0.96875,0.32812 -0.42187,0.32813 -0.60937,0.89063 -0.28125,0.875 -0.28125,1.92187 v 5.0625 z m 12.85333,-3.10937 1.6875,0.20312 q -0.40625,1.48438 -1.48438,2.3125 -1.07812,0.8125 -2.76562,0.8125 -2.125,0 -3.375,-1.29687 -1.23438,-1.3125 -1.23438,-3.67188 0,-2.45312 1.25,-3.79687 1.26563,-1.34375 3.26563,-1.34375 1.9375,0 3.15625,1.32812 1.23437,1.3125 1.23437,3.70313 0,0.15625 0,0.4375 h -7.21875 q 0.0937,1.59375 0.90625,2.45312 0.8125,0.84375 2.01563,0.84375 0.90625,0 1.54687,-0.46875 0.64063,-0.48437 1.01563,-1.51562 z m -5.39063,-2.65625 h 5.40625 q -0.10937,-1.21875 -0.625,-1.82813 -0.78125,-0.95312 -2.03125,-0.95312 -1.125,0 -1.90625,0.76562 -0.76562,0.75 -0.84375,2.01563 z m 15.40693,5.76562 v -1.21875 q -0.90625,1.4375 -2.70313,1.4375 -1.15625,0 -2.125,-0.64062 -0.96875,-0.64063 -1.5,-1.78125 -0.53125,-1.14063 -0.53125,-2.625 0,-1.45313 0.48438,-2.625 0.48437,-1.1875 1.4375,-1.8125 0.96875,-0.625 2.17187,-0.625 0.875,0 1.54688,0.375 0.6875,0.35937 1.10937,0.95312 v -4.79687 h 1.64063 v 13.35937 z m -5.17188,-4.82812 q 0,1.85937 0.78125,2.78125 0.78125,0.92187 1.84375,0.92187 1.07813,0 1.82813,-0.875 0.75,-0.89062 0.75,-2.6875 0,-1.98437 -0.76563,-2.90625 -0.76562,-0.9375 -1.89062,-0.9375 -1.07813,0 -1.8125,0.89063 -0.73438,0.89062 -0.73438,2.8125 z m 14.62152,4.82812 v -13.35937 h 2.65625 l 3.15625,9.45312 q 0.4375,1.32813 0.64063,1.98438 0.23437,-0.73438 0.70312,-2.14063 l 3.20313,-9.29687 h 2.375 v 13.35937 h -1.70313 v -11.17187 l -3.875,11.17187 h -1.59375 l -3.85937,-11.375 v 11.375 z m 22.00958,-3.10937 1.6875,0.20312 q -0.40625,1.48438 -1.48437,2.3125 -1.07813,0.8125 -2.76563,0.8125 -2.125,0 -3.375,-1.29687 -1.23437,-1.3125 -1.23437,-3.67188 0,-2.45312 1.25,-3.79687 1.26562,-1.34375 3.26562,-1.34375 1.9375,0 3.15625,1.32812 1.23438,1.3125 1.23438,3.70313 0,0.15625 0,0.4375 h -7.21875 q 0.0937,1.59375 0.90625,2.45312 0.8125,0.84375 2.01562,0.84375 0.90625,0 1.54688,-0.46875 0.64062,-0.48437 1.01562,-1.51562 z m -5.39062,-2.65625 h 5.40625 q -0.10938,-1.21875 -0.625,-1.82813 -0.78125,-0.95312 -2.03125,-0.95312 -1.125,0 -1.90625,0.76562 -0.76563,0.75 -0.84375,2.01563 z m 9.14136,5.76562 v -9.67187 h 1.46875 v 1.35937 q 0.45312,-0.71875 1.20312,-1.14062 0.76563,-0.4375 1.71875,-0.4375 1.07813,0 1.76563,0.45312 0.6875,0.4375 0.96875,1.23438 1.15625,-1.6875 2.98437,-1.6875 1.45313,0 2.21875,0.79687 0.78125,0.79688 0.78125,2.45313 v 6.64062 h -1.64062 v -6.09375 q 0,-0.98437 -0.15625,-1.40625 -0.15625,-0.4375 -0.57813,-0.70312 -0.42187,-0.26563 -0.98437,-0.26563 -1.01563,0 -1.6875,0.6875 -0.67188,0.67188 -0.67188,2.15625 v 5.625 h -1.64062 v -6.28125 q 0,-1.09375 -0.40625,-1.64062 -0.40625,-0.54688 -1.3125,-0.54688 -0.6875,0 -1.28125,0.35938 -0.59375,0.35937 -0.85938,1.0625 -0.25,0.70312 -0.25,2.03125 v 5.01562 z"
       fill-rule="nonzero"
       id="path95" />
    <path
       fill="#000000"
       fill-opacity="0"
       d="M 742.77954,281.81366 H 612.32281 v 59.30707 h 130.45673 z"
       fill-rule="evenodd"
       id="path97" />
    <path
       stroke="#000000"
       stroke-width="2"
       stroke-linejoin="round"
       stroke-linecap="butt"
       d="M 742.77954,281.81366 H 612.32281 v 59.30707 h 130.45673 z"
       fill-rule="evenodd"
       id="path99" />
    <path
       fill="#000000"
       d="m 634.0487,300.88718 q 0,-3.32813 1.78125,-5.20313 1.78125,-1.89062 4.60938,-1.89062 1.84375,0 3.32812,0.89062 1.48438,0.875 2.26563,2.46875 0.78125,1.57813 0.78125,3.57813 0,2.03125 -0.82813,3.64062 -0.8125,1.59375 -2.3125,2.42188 -1.5,0.82812 -3.25,0.82812 -1.875,0 -3.35937,-0.90625 -1.48438,-0.92187 -2.25,-2.5 -0.76563,-1.57812 -0.76563,-3.32812 z m 1.8125,0.0156 q 0,2.42188 1.29688,3.8125 1.29687,1.39063 3.26562,1.39063 2,0 3.28125,-1.40625 1.28125,-1.40625 1.28125,-3.98438 0,-1.625 -0.54687,-2.84375 -0.54688,-1.21875 -1.60938,-1.875 -1.0625,-0.67187 -2.375,-0.67187 -1.89062,0 -3.25,1.29687 -1.34375,1.28125 -1.34375,4.28125 z m 16.63648,6.48438 v -11.78125 h -4.40625 v -1.57813 h 10.57812 v 1.57813 h -4.40625 v 11.78125 z m 12.83575,0 V 294.0278 h 5.04687 q 1.32813,0 2.03125,0.125 0.96875,0.17188 1.64063,0.64063 0.67187,0.45312 1.07812,1.28125 0.40625,0.82812 0.40625,1.82812 0,1.70313 -1.09375,2.89063 -1.07812,1.17187 -3.92187,1.17187 h -3.42188 v 5.42188 z m 1.76562,-7 h 3.45313 q 1.71875,0 2.4375,-0.64063 0.71875,-0.64062 0.71875,-1.79687 0,-0.84375 -0.42188,-1.4375 -0.42187,-0.59375 -1.125,-0.78125 -0.4375,-0.125 -1.64062,-0.125 h -3.42188 z m 10.45923,7 v -9.67188 h 1.46875 v 1.46875 q 0.5625,-1.03125 1.03125,-1.35937 0.48438,-0.32813 1.0625,-0.32813 0.82813,0 1.6875,0.53125 l -0.5625,1.51563 q -0.60937,-0.35938 -1.20312,-0.35938 -0.54688,0 -0.96875,0.32813 -0.42188,0.32812 -0.60938,0.89062 -0.28125,0.875 -0.28125,1.92188 v 5.0625 z m 6.22827,-11.46875 v -1.89063 h 1.64063 v 1.89063 z m 0,11.46875 v -9.67188 h 1.64063 v 9.67188 z m 6.83234,0 -3.6875,-9.67188 h 1.73438 l 2.07812,5.79688 q 0.32813,0.9375 0.625,1.9375 0.20313,-0.76563 0.60938,-1.82813 l 2.14062,-5.90625 h 1.6875 l -3.65625,9.67188 z m 12.95313,-1.1875 q -0.92188,0.76562 -1.76563,1.09375 -0.82812,0.3125 -1.79687,0.3125 -1.59375,0 -2.45313,-0.78125 -0.85937,-0.78125 -0.85937,-1.98438 0,-0.71875 0.32812,-1.29687 0.32813,-0.59375 0.84375,-0.9375 0.53125,-0.35938 1.1875,-0.54688 0.46875,-0.125 1.45313,-0.25 1.98437,-0.23437 2.92187,-0.5625 0.0156,-0.34375 0.0156,-0.42187 0,-1 -0.46875,-1.42188 -0.625,-0.54687 -1.875,-0.54687 -1.15625,0 -1.70313,0.40625 -0.54687,0.40625 -0.8125,1.42187 l -1.60937,-0.21875 q 0.21875,-1.01562 0.71875,-1.64062 0.5,-0.64063 1.45312,-0.98438 0.95313,-0.34375 2.1875,-0.34375 1.25,0 2.01563,0.29688 0.78125,0.28125 1.14062,0.73437 0.375,0.4375 0.51563,1.10938 0.0781,0.42187 0.0781,1.51562 v 2.1875 q 0,2.28125 0.10938,2.89063 0.10937,0.59375 0.40625,1.15625 h -1.70313 q -0.26562,-0.51563 -0.32812,-1.1875 z m -0.14063,-3.67188 q -0.89062,0.375 -2.67187,0.625 -1.01563,0.14063 -1.4375,0.32813 -0.42188,0.1875 -0.65625,0.53125 -0.21875,0.34375 -0.21875,0.78125 0,0.65625 0.5,1.09375 0.5,0.4375 1.45312,0.4375 0.9375,0 1.67188,-0.40625 0.75,-0.42188 1.09375,-1.14063 0.26562,-0.5625 0.26562,-1.64062 z m 7.78198,3.39063 0.23438,1.45312 q -0.6875,0.14063 -1.23438,0.14063 -0.89062,0 -1.39062,-0.28125 -0.48438,-0.28125 -0.6875,-0.73438 -0.20313,-0.46875 -0.20313,-1.9375 v -5.57812 H 706.729 v -1.26563 h 1.20312 v -2.39062 l 1.625,-0.98438 v 3.375 h 1.65625 v 1.26563 h -1.65625 v 5.67187 q 0,0.6875 0.0781,0.89063 0.0937,0.20312 0.28125,0.32812 0.20312,0.10938 0.57812,0.10938 0.26563,0 0.71875,-0.0625 z m 8.23017,-1.64063 1.6875,0.20313 q -0.40625,1.48437 -1.48438,2.3125 -1.07812,0.8125 -2.76562,0.8125 -2.125,0 -3.375,-1.29688 -1.23438,-1.3125 -1.23438,-3.67187 0,-2.45313 1.25,-3.79688 1.26563,-1.34375 3.26563,-1.34375 1.9375,0 3.15625,1.32813 1.23437,1.3125 1.23437,3.70312 0,0.15625 0,0.4375 h -7.21875 q 0.0937,1.59375 0.90625,2.45313 0.8125,0.84375 2.01563,0.84375 0.90625,0 1.54687,-0.46875 0.64063,-0.48438 1.01563,-1.51563 z m -5.39063,-2.65625 h 5.40625 q -0.10937,-1.21875 -0.625,-1.82812 -0.78125,-0.95313 -2.03125,-0.95313 -1.125,0 -1.90625,0.76563 -0.76562,0.75 -0.84375,2.01562 z"
       fill-rule="nonzero"
       id="path101" />
    <path
       fill="#000000"
       d="m 651.44446,325.0903 1.65625,-0.14062 q 0.125,1 0.54688,1.64062 0.4375,0.64063 1.34375,1.04688 0.92187,0.39062 2.0625,0.39062 1,0 1.78125,-0.29687 0.78125,-0.29688 1.15625,-0.8125 0.375,-0.53125 0.375,-1.15625 0,-0.625 -0.375,-1.09375 -0.35938,-0.46875 -1.1875,-0.79688 -0.54688,-0.20312 -2.39063,-0.64062 -1.82812,-0.45313 -2.5625,-0.84375 -0.96875,-0.5 -1.4375,-1.23438 -0.46875,-0.75 -0.46875,-1.67187 0,-1 0.57813,-1.875 0.57812,-0.89063 1.67187,-1.34375 1.10938,-0.45313 2.45313,-0.45313 1.48437,0 2.60937,0.48438 1.14063,0.46875 1.75,1.40625 0.60938,0.92187 0.65625,2.09375 l -1.6875,0.125 q -0.14062,-1.26563 -0.9375,-1.90625 -0.78125,-0.65625 -2.3125,-0.65625 -1.60937,0 -2.34375,0.59375 -0.73437,0.59375 -0.73437,1.42187 0,0.71875 0.53125,1.17188 0.5,0.46875 2.65625,0.96875 2.15625,0.48437 2.95312,0.84375 1.17188,0.53125 1.71875,1.35937 0.5625,0.82813 0.5625,1.90625 0,1.0625 -0.60937,2.01563 -0.60938,0.9375 -1.75,1.46875 -1.14063,0.51562 -2.57813,0.51562 -1.8125,0 -3.04687,-0.53125 -1.21875,-0.53125 -1.92188,-1.59375 -0.6875,-1.0625 -0.71875,-2.40625 z m 13.0686,4.29688 V 316.0278 h 5.92188 q 1.78125,0 2.70312,0.35938 0.9375,0.35937 1.48438,1.28125 0.5625,0.90625 0.5625,2.01562 0,1.40625 -0.92188,2.39063 -0.92187,0.96875 -2.84375,1.23437 0.70313,0.34375 1.07813,0.67188 0.76562,0.70312 1.45312,1.76562 l 2.32813,3.64063 h -2.21875 l -1.76563,-2.78125 q -0.78125,-1.20313 -1.28125,-1.82813 -0.5,-0.64062 -0.90625,-0.89062 -0.39062,-0.26563 -0.79687,-0.35938 -0.29688,-0.0781 -0.98438,-0.0781 h -2.04687 v 5.9375 z m 1.76563,-7.45313 h 3.79687 q 1.21875,0 1.89063,-0.25 0.6875,-0.26562 1.04687,-0.8125 0.35938,-0.54687 0.35938,-1.1875 0,-0.95312 -0.6875,-1.5625 -0.6875,-0.60937 -2.1875,-0.60937 h -4.21875 z m 10.20733,7.45313 5.125,-13.35938 h 1.90625 l 5.46875,13.35938 h -2.01562 l -1.54688,-4.04688 h -5.59375 l -1.46875,4.04688 z m 3.85938,-5.48438 h 4.53125 l -1.40625,-3.70312 q -0.625,-1.6875 -0.9375,-2.76563 -0.26563,1.28125 -0.71875,2.54688 z m 10.00604,5.48438 V 316.0278 h 2.65625 l 3.15625,9.45313 q 0.4375,1.32812 0.64063,1.98437 0.23437,-0.73437 0.70312,-2.14062 l 3.20313,-9.29688 h 2.375 v 13.35938 h -1.70313 V 318.2153 l -3.875,11.17188 h -1.59375 l -3.85937,-11.375 v 11.375 z"
       fill-rule="nonzero"
       id="path103" />
    <path
       fill="#000000"
       fill-opacity="0"
       d="m 611.5058,153.10498 -53.00787,0.34647"
       fill-rule="evenodd"
       id="path105" />
    <path
       stroke="#000000"
       stroke-width="2"
       stroke-linejoin="round"
       stroke-linecap="butt"
       d="m 599.50604,153.18343 -41.00812,0.26802"
       fill-rule="evenodd"
       id="path107" />
    <path
       fill="#000000"
       stroke="#000000"
       stroke-width="2"
       stroke-linecap="butt"
       d="m 599.52765,156.48682 9.05438,-3.36272 -9.09759,-3.24408 z"
       fill-rule="evenodd"
       id="path109" />
    <path
       fill="#000000"
       fill-opacity="0"
       d="m 611.50885,311.29398 -53.00787,0.34644"
       fill-rule="evenodd"
       id="path111" />
    <path
       stroke="#000000"
       stroke-width="2"
       stroke-linejoin="round"
       stroke-linecap="butt"
       d="m 599.5091,311.3724 -41.00812,0.26801"
       fill-rule="evenodd"
       id="path113" />
    <path
       fill="#000000"
       stroke="#000000"
       stroke-width="2"
       stroke-linecap="butt"
       d="m 599.5307,314.67578 9.05444,-3.3627 -9.09759,-3.24408 z"
       fill-rule="evenodd"
       id="path115" />
    <path
       fill="#000000"
       fill-opacity="0"
       d="m 463.3517,120.5538 v 63.55905 H 442.56428 V 120.5538 Z"
       fill-rule="evenodd"
       id="path117" />
    <path
       stroke="#000000"
       stroke-width="2"
       stroke-linejoin="round"
       stroke-linecap="butt"
       d="m 463.3517,120.5538 v 63.55905 H 442.56428 V 120.5538 Z"
       fill-rule="evenodd"
       id="path119" />
    <path
       fill="#000000"
       d="m 448.15802,132.10735 h 9.54688 v 1.25 h -9.54688 z m 4.64063,3.09361 q 2.375,0 3.71875,1.28125 1.34375,1.28125 1.34375,3.29688 0,1.3125 -0.625,2.375 -0.625,1.0625 -1.76563,1.60937 -1.125,0.5625 -2.5625,0.5625 -1.4375,0 -2.59375,-0.59375 -1.14062,-0.57812 -1.73437,-1.65625 -0.57813,-1.0625 -0.57813,-2.3125 0,-1.34375 0.64063,-2.40625 0.65625,-1.0625 1.78125,-1.60937 1.125,-0.54688 2.375,-0.54688 z m -0.0156,1.3125 q -1.71875,0 -2.71875,0.92188 -0.98437,0.92187 -0.98437,2.32812 0,1.42188 1,2.34375 1,0.92188 2.84375,0.92188 1.15625,0 2.03125,-0.40625 0.875,-0.39063 1.34375,-1.15625 0.48437,-0.75 0.48437,-1.6875 0,-1.34375 -0.92187,-2.3125 -0.92188,-0.95313 -3.07813,-0.95313 z m -4.625,9.44518 h 9.54688 v 3.59375 q 0,0.95312 -0.0937,1.45312 -0.125,0.70313 -0.45313,1.17188 -0.32812,0.48437 -0.92187,0.76562 -0.59375,0.29688 -1.29688,0.29688 -1.21875,0 -2.0625,-0.78125 -0.84375,-0.76563 -0.84375,-2.79688 v -2.4375 h -3.875 z m 5,1.26562 v 2.45313 q 0,1.23437 0.45313,1.75 0.46875,0.51562 1.28125,0.51562 0.60937,0 1.03125,-0.3125 0.42187,-0.29687 0.5625,-0.79687 0.0937,-0.3125 0.0937,-1.17188 v -2.4375 z m -5,7.57726 h 9.54688 v 1.90625 l -6.76563,2.25 q -0.9375,0.3125 -1.40625,0.46875 0.51563,0.15625 1.53125,0.5 l 6.64063,2.28125 v 1.70312 h -9.54688 v -1.21875 h 7.98438 l -7.98438,-2.76562 v -1.14063 l 8.125,-2.76562 h -8.125 z m 0,11.1493 h 9.54688 v 3.59375 q 0,0.95313 -0.0937,1.45313 -0.125,0.70312 -0.45313,1.17187 -0.32812,0.48438 -0.92187,0.76563 -0.59375,0.29687 -1.29688,0.29687 -1.21875,0 -2.0625,-0.78125 -0.84375,-0.76562 -0.84375,-2.79687 v -2.4375 h -3.875 z m 5,1.26563 v 2.45312 q 0,1.23438 0.45313,1.75 0.46875,0.51563 1.28125,0.51563 0.60937,0 1.03125,-0.3125 0.42187,-0.29688 0.5625,-0.79688 0.0937,-0.3125 0.0937,-1.17187 v -2.4375 z"
       fill-rule="nonzero"
       id="path121" />
    <path
       fill="#000000"
       fill-opacity="0"
       d="M 463.3517,197.02625 V 260.5853 H 442.56428 V 197.02625 Z"
       fill-rule="evenodd"
       id="path123" />
    <path
       stroke="#000000"
       stroke-width="2"
       stroke-linejoin="round"
       stroke-linecap="butt"
       d="M 463.3517,197.02625 V 260.5853 H 442.56428 V 197.02625 Z"
       fill-rule="evenodd"
       id="path125" />
    <path
       fill="#000000"
       d="m 448.15802,208.57979 h 9.54688 v 1.25 h -9.54688 z m 4.64063,3.09361 q 2.375,0 3.71875,1.28125 1.34375,1.28125 1.34375,3.29688 0,1.3125 -0.625,2.375 -0.625,1.0625 -1.76563,1.60937 -1.125,0.5625 -2.5625,0.5625 -1.4375,0 -2.59375,-0.59375 -1.14062,-0.57812 -1.73437,-1.65625 -0.57813,-1.0625 -0.57813,-2.3125 0,-1.34375 0.64063,-2.40625 0.65625,-1.0625 1.78125,-1.60937 1.125,-0.54688 2.375,-0.54688 z m -0.0156,1.3125 q -1.71875,0 -2.71875,0.92188 -0.98437,0.92187 -0.98437,2.32812 0,1.42188 1,2.34375 1,0.92188 2.84375,0.92188 1.15625,0 2.03125,-0.40625 0.875,-0.39063 1.34375,-1.15625 0.48437,-0.75 0.48437,-1.6875 0,-1.34375 -0.92187,-2.3125 -0.92188,-0.95313 -3.07813,-0.95313 z m -4.625,9.44518 h 9.54688 v 3.59375 q 0,0.95312 -0.0937,1.45312 -0.125,0.70313 -0.45313,1.17188 -0.32812,0.48437 -0.92187,0.76562 -0.59375,0.29688 -1.29688,0.29688 -1.21875,0 -2.0625,-0.78125 -0.84375,-0.76563 -0.84375,-2.79688 v -2.4375 h -3.875 z m 5,1.26562 v 2.45313 q 0,1.23437 0.45313,1.75 0.46875,0.51562 1.28125,0.51562 0.60937,0 1.03125,-0.3125 0.42187,-0.29687 0.5625,-0.79687 0.0937,-0.3125 0.0937,-1.17188 v -2.4375 z m -5,7.57726 h 9.54688 v 1.90625 l -6.76563,2.25 q -0.9375,0.3125 -1.40625,0.46875 0.51563,0.15625 1.53125,0.5 l 6.64063,2.28125 v 1.70312 h -9.54688 v -1.21875 h 7.98438 l -7.98438,-2.76562 v -1.14063 l 8.125,-2.76562 h -8.125 z m 0,11.1493 h 9.54688 v 3.59375 q 0,0.95313 -0.0937,1.45313 -0.125,0.70312 -0.45313,1.17187 -0.32812,0.48438 -0.92187,0.76563 -0.59375,0.29687 -1.29688,0.29687 -1.21875,0 -2.0625,-0.78125 -0.84375,-0.76562 -0.84375,-2.79687 v -2.4375 h -3.875 z m 5,1.26563 v 2.45312 q 0,1.23438 0.45313,1.75 0.46875,0.51563 1.28125,0.51563 0.60937,0 1.03125,-0.3125 0.42187,-0.29688 0.5625,-0.79688 0.0937,-0.3125 0.0937,-1.17187 v -2.4375 z"
       fill-rule="nonzero"
       id="path127" />
    <path
       fill="#000000"
       fill-opacity="0"
       d="m 463.3517,273.4987 v 63.55905 H 442.56428 V 273.4987 Z"
       fill-rule="evenodd"
       id="path129" />
    <path
       stroke="#000000"
       stroke-width="2"
       stroke-linejoin="round"
       stroke-linecap="butt"
       d="m 463.3517,273.4987 v 63.55905 H 442.56428 V 273.4987 Z"
       fill-rule="evenodd"
       id="path131" />
    <path
       fill="#000000"
       d="m 448.15802,285.05222 h 9.54688 v 1.25 h -9.54688 z m 4.64063,3.09363 q 2.375,0 3.71875,1.28125 1.34375,1.28125 1.34375,3.29687 0,1.3125 -0.625,2.375 -0.625,1.0625 -1.76563,1.60938 -1.125,0.5625 -2.5625,0.5625 -1.4375,0 -2.59375,-0.59375 -1.14062,-0.57813 -1.73437,-1.65625 -0.57813,-1.0625 -0.57813,-2.3125 0,-1.34375 0.64063,-2.40625 0.65625,-1.0625 1.78125,-1.60938 1.125,-0.54687 2.375,-0.54687 z m -0.0156,1.3125 q -1.71875,0 -2.71875,0.92187 -0.98437,0.92188 -0.98437,2.32813 0,1.42187 1,2.34375 1,0.92187 2.84375,0.92187 1.15625,0 2.03125,-0.40625 0.875,-0.39062 1.34375,-1.15625 0.48437,-0.75 0.48437,-1.6875 0,-1.34375 -0.92187,-2.3125 -0.92188,-0.95312 -3.07813,-0.95312 z m -4.625,9.44516 h 9.54688 v 3.59375 q 0,0.95312 -0.0937,1.45312 -0.125,0.70313 -0.45313,1.17188 -0.32812,0.48437 -0.92187,0.76562 -0.59375,0.29688 -1.29688,0.29688 -1.21875,0 -2.0625,-0.78125 -0.84375,-0.76563 -0.84375,-2.79688 v -2.4375 h -3.875 z m 5,1.26562 v 2.45313 q 0,1.23437 0.45313,1.75 0.46875,0.51562 1.28125,0.51562 0.60937,0 1.03125,-0.3125 0.42187,-0.29687 0.5625,-0.79687 0.0937,-0.3125 0.0937,-1.17188 v -2.4375 z m -5,7.57727 h 9.54688 v 1.90625 l -6.76563,2.25 q -0.9375,0.3125 -1.40625,0.46875 0.51563,0.15625 1.53125,0.5 l 6.64063,2.28125 v 1.70313 h -9.54688 v -1.21875 h 7.98438 l -7.98438,-2.76563 v -1.14062 l 8.125,-2.76563 h -8.125 z m 0,11.1493 h 9.54688 v 3.59375 q 0,0.95312 -0.0937,1.45312 -0.125,0.70313 -0.45313,1.17188 -0.32812,0.48437 -0.92187,0.76562 -0.59375,0.29688 -1.29688,0.29688 -1.21875,0 -2.0625,-0.78125 -0.84375,-0.76563 -0.84375,-2.79688 v -2.4375 h -3.875 z m 5,1.26562 v 2.45313 q 0,1.23437 0.45313,1.75 0.46875,0.51562 1.28125,0.51562 0.60937,0 1.03125,-0.3125 0.42187,-0.29687 0.5625,-0.79687 0.0937,-0.3125 0.0937,-1.17188 v -2.4375 z"
       fill-rule="nonzero"
       id="path133" />
    <path
       fill="#000000"
       fill-opacity="0"
       d="m 509.91397,152.33333 -45.25986,0.34647"
       fill-rule="evenodd"
       id="path135" />
    <path
       stroke="#000000"
       stroke-width="2"
       stroke-linejoin="round"
       stroke-linecap="butt"
       d="m 497.91434,152.42519 -33.26022,0.25461"
       fill-rule="evenodd"
       id="path137" />
    <path
       fill="#000000"
       stroke="#000000"
       stroke-width="2"
       stroke-linecap="butt"
       d="m 497.9396,155.72856 9.05063,-3.37285 -9.1012,-3.23389 z"
       fill-rule="evenodd"
       id="path139" />
    <path
       fill="#000000"
       fill-opacity="0"
       d="m 465.03635,228.979 45.29135,0.31496"
       fill-rule="evenodd"
       id="path141" />
    <path
       stroke="#000000"
       stroke-width="2"
       stroke-linejoin="round"
       stroke-linecap="butt"
       d="m 465.03635,228.979 33.29163,0.23151"
       fill-rule="evenodd"
       id="path143" />
    <path
       fill="#000000"
       stroke="#000000"
       stroke-width="2"
       stroke-linecap="butt"
       d="m 498.305,232.5139 9.09894,-3.24026 -9.05301,-3.36651 z"
       fill-rule="evenodd"
       id="path145" />
    <path
       fill="#000000"
       fill-opacity="0"
       d="m 463.95013,305.27823 45.29135,-0.063"
       fill-rule="evenodd"
       id="path147" />
    <path
       stroke="#000000"
       stroke-width="2"
       stroke-linejoin="round"
       stroke-linecap="butt"
       d="m 463.95013,305.27823 33.29132,-0.0463"
       fill-rule="evenodd"
       id="path149" />
    <path
       fill="#000000"
       stroke="#000000"
       stroke-width="2"
       stroke-linecap="butt"
       d="m 497.24606,308.53537 9.07159,-3.31607 -9.08078,-3.29086 z"
       fill-rule="evenodd"
       id="path151" />
  </g>
</svg>
