<svg version="1.1" viewBox="0.0 0.0 1024.0 768.0" fill="none" stroke="none" stroke-linecap="square" stroke-miterlimit="10" xmlns:xlink="http://www.w3.org/1999/xlink" xmlns="http://www.w3.org/2000/svg"><clipPath id="p.0"><path d="m0 0l1024.0 0l0 768.0l-1024.0 0l0 -768.0z" clip-rule="nonzero"/></clipPath><g clip-path="url(#p.0)"><path fill="#000000" fill-opacity="0.0" d="m0 0l1024.0 0l0 768.0l-1024.0 0z" fill-rule="evenodd"/><path fill="#cfe2f3" d="m215.37534 168.09973l79.8425 0l0 251.08661l-79.8425 0z" fill-rule="evenodd"/><path stroke="#000000" stroke-width="1.0" stroke-linejoin="round" stroke-linecap="butt" d="m215.37534 168.09973l79.8425 0l0 251.08661l-79.8425 0z" fill-rule="evenodd"/><path fill="#000000" d="m240.13658 300.56305l0 -13.359375l5.046875 0q1.328125 0 2.03125 0.125q0.96875 0.171875 1.640625 0.640625q0.671875 0.453125 1.078125 1.28125q0.40625 0.828125 0.40625 1.828125q0 1.703125 -1.09375 2.890625q-1.078125 1.171875 -3.921875 1.171875l-3.421875 0l0 5.421875l-1.765625 0zm1.765625 -7.0l3.453125 0q1.71875 0 2.4375 -0.640625q0.71875 -0.640625 0.71875 -1.796875q0 -0.84375 -0.421875 -1.4375q-0.421875 -0.59375 -1.125 -0.78125q-0.4375 -0.125 -1.640625 -0.125l-3.421875 0l0 4.78125zm16.193588 7.0l-1.640625 0l0 -10.453125q-0.59376526 0.5625 -1.5625153 1.140625q-0.953125 0.5625 -1.71875 0.84375l0 -1.59375q1.375 -0.640625 2.40625 -1.5625q1.0312653 -0.921875 1.4531403 -1.78125l1.0625 0l0 13.40625zm12.813202 -1.578125l0 1.578125l-8.828125 0q-0.015625 -0.59375 0.1875 -1.140625q0.34375 -0.90625 1.078125 -1.78125q0.75 -0.875 2.15625 -2.015625q2.171875 -1.78125 2.9375 -2.828125q0.765625 -1.046875 0.765625 -1.96875q0 -0.984375 -0.703125 -1.640625q-0.6875 -0.671875 -1.8125 -0.671875q-1.1875 0 -1.90625 0.71875q-0.703125 0.703125 -0.703125 1.953125l-1.6875 -0.171875q0.171875 -1.890625 1.296875 -2.875q1.140625 -0.984375 3.03125 -0.984375q1.921875 0 3.046875 1.0625q1.125 1.0625 1.125 2.640625q0 0.796875 -0.328125 1.578125q-0.328125 0.78125 -1.09375 1.640625q-0.75 0.84375 -2.53125 2.34375q-1.46875 1.234375 -1.890625 1.6875q-0.421875 0.4375 -0.6875 0.875l6.546875 0z" fill-rule="nonzero"/><path fill="#cfe2f3" d="m345.8924 168.09973l79.8425 0l0 251.08661l-79.8425 0z" fill-rule="evenodd"/><path stroke="#000000" stroke-width="1.0" stroke-linejoin="round" stroke-linecap="butt" d="m345.8924 168.09973l79.8425 0l0 251.08661l-79.8425 0z" fill-rule="evenodd"/><path fill="#000000" d="m377.92303 300.56305l0 -13.359375l5.046875 0q1.328125 0 2.03125 0.125q0.96875 0.171875 1.640625 0.640625q0.671875 0.453125 1.078125 1.28125q0.40625 0.828125 0.40625 1.828125q0 1.703125 -1.09375 2.890625q-1.078125 1.171875 -3.921875 1.171875l-3.421875 0l0 5.421875l-1.765625 0zm1.765625 -7.0l3.453125 0q1.71875 0 2.4375 -0.640625q0.71875 -0.640625 0.71875 -1.796875q0 -0.84375 -0.421875 -1.4375q-0.421875 -0.59375 -1.125 -0.78125q-0.4375 -0.125 -1.640625 -0.125l-3.421875 0l0 4.78125zm10.459198 7.0l0 -9.671875l1.46875 0l0 1.46875q0.5625 -1.03125 1.03125 -1.359375q0.484375 -0.328125 1.0625 -0.328125q0.828125 0 1.6875 0.53125l-0.5625 1.515625q-0.609375 -0.359375 -1.203125 -0.359375q-0.546875 0 -0.96875 0.328125q-0.421875 0.328125 -0.609375 0.890625q-0.28125 0.875 -0.28125 1.921875l0 5.0625l-1.625 0z" fill-rule="nonzero"/><path fill="#cfe2f3" d="m476.40945 168.09973l79.8425 0l0 251.08661l-79.8425 0z" fill-rule="evenodd"/><path stroke="#000000" stroke-width="1.0" stroke-linejoin="round" stroke-linecap="butt" d="m476.40945 168.09973l79.8425 0l0 251.08661l-79.8425 0z" fill-rule="evenodd"/><path fill="#000000" d="m508.4401 300.56305l0 -13.359375l5.0468445 0q1.328125 0 2.03125 0.125q0.96875 0.171875 1.640625 0.640625q0.671875 0.453125 1.078125 1.28125q0.40625 0.828125 0.40625 1.828125q0 1.703125 -1.09375 2.890625q-1.078125 1.171875 -3.921875 1.171875l-3.4218445 0l0 5.421875l-1.765625 0zm1.765625 -7.0l3.4530945 0q1.71875 0 2.4375 -0.640625q0.71875 -0.640625 0.71875 -1.796875q0 -0.84375 -0.421875 -1.4375q-0.421875 -0.59375 -1.125 -0.78125q-0.4375 -0.125 -1.640625 -0.125l-3.4218445 0l0 4.78125zm10.459198 7.0l0 -9.671875l1.46875 0l0 1.46875q0.5625 -1.03125 1.03125 -1.359375q0.484375 -0.328125 1.0625 -0.328125q0.828125 0 1.6875 0.53125l-0.5625 1.515625q-0.609375 -0.359375 -1.203125 -0.359375q-0.546875 0 -0.96875 0.328125q-0.421875 0.328125 -0.609375 0.890625q-0.28125 0.875 -0.28125 1.921875l0 5.0625l-1.625 0z" fill-rule="nonzero"/><path fill="#cfe2f3" d="m606.9265 168.09973l79.84253 0l0 251.08661l-79.84253 0z" fill-rule="evenodd"/><path stroke="#000000" stroke-width="1.0" stroke-linejoin="round" stroke-linecap="butt" d="m606.9265 168.09973l79.84253 0l0 251.08661l-79.84253 0z" fill-rule="evenodd"/><path fill="#000000" d="m638.95715 300.56305l0 -13.359375l5.046875 0q1.328125 0 2.03125 0.125q0.96875 0.171875 1.640625 0.640625q0.671875 0.453125 1.078125 1.28125q0.40625 0.828125 0.40625 1.828125q0 1.703125 -1.09375 2.890625q-1.078125 1.171875 -3.921875 1.171875l-3.421875 0l0 5.421875l-1.765625 0zm1.765625 -7.0l3.453125 0q1.71875 0 2.4375 -0.640625q0.71875 -0.640625 0.71875 -1.796875q0 -0.84375 -0.421875 -1.4375q-0.421875 -0.59375 -1.125 -0.78125q-0.4375 -0.125 -1.640625 -0.125l-3.421875 0l0 4.78125zm10.4591675 7.0l0 -9.671875l1.46875 0l0 1.46875q0.5625 -1.03125 1.03125 -1.359375q0.484375 -0.328125 1.0625 -0.328125q0.828125 0 1.6875 0.53125l-0.5625 1.515625q-0.609375 -0.359375 -1.203125 -0.359375q-0.546875 0 -0.96875 0.328125q-0.421875 0.328125 -0.609375 0.890625q-0.28125 0.875 -0.28125 1.921875l0 5.0625l-1.625 0z" fill-rule="nonzero"/><path fill="#cfe2f3" d="m737.44354 168.09973l79.84253 0l0 251.08661l-79.84253 0z" fill-rule="evenodd"/><path stroke="#000000" stroke-width="1.0" stroke-linejoin="round" stroke-linecap="butt" d="m737.44354 168.09973l79.84253 0l0 251.08661l-79.84253 0z" fill-rule="evenodd"/><path fill="#000000" d="m769.4742 300.56305l0 -13.359375l5.046875 0q1.328125 0 2.03125 0.125q0.96875 0.171875 1.640625 0.640625q0.671875 0.453125 1.078125 1.28125q0.40625 0.828125 0.40625 1.828125q0 1.703125 -1.09375 2.890625q-1.078125 1.171875 -3.921875 1.171875l-3.421875 0l0 5.421875l-1.765625 0zm1.765625 -7.0l3.453125 0q1.71875 0 2.4375 -0.640625q0.71875 -0.640625 0.71875 -1.796875q0 -0.84375 -0.421875 -1.4375q-0.421875 -0.59375 -1.125 -0.78125q-0.4375 -0.125 -1.640625 -0.125l-3.421875 0l0 4.78125zm10.4592285 7.0l0 -9.671875l1.46875 0l0 1.46875q0.5625 -1.03125 1.03125 -1.359375q0.484375 -0.328125 1.0625 -0.328125q0.828125 0 1.6875 0.53125l-0.5625 1.515625q-0.609375 -0.359375 -1.203125 -0.359375q-0.546875 0 -0.96875 0.328125q-0.421875 0.328125 -0.609375 0.890625q-0.28125 0.875 -0.28125 1.921875l0 5.0625l-1.625 0z" fill-rule="nonzero"/><path fill="#cfe2f3" d="m867.96063 168.09973l79.84253 0l0 251.08661l-79.84253 0z" fill-rule="evenodd"/><path stroke="#000000" stroke-width="1.0" stroke-linejoin="round" stroke-linecap="butt" d="m867.96063 168.09973l79.84253 0l0 251.08661l-79.84253 0z" fill-rule="evenodd"/><path fill="#000000" d="m892.72186 300.56305l0 -13.359375l5.046875 0q1.328125 0 2.03125 0.125q0.96875 0.171875 1.640625 0.640625q0.671875 0.453125 1.078125 1.28125q0.40625 0.828125 0.40625 1.828125q0 1.703125 -1.09375 2.890625q-1.078125 1.171875 -3.921875 1.171875l-3.421875 0l0 5.421875l-1.765625 0zm1.765625 -7.0l3.453125 0q1.71875 0 2.4375 -0.640625q0.71875 -0.640625 0.71875 -1.796875q0 -0.84375 -0.421875 -1.4375q-0.421875 -0.59375 -1.125 -0.78125q-0.4375 -0.125 -1.640625 -0.125l-3.421875 0l0 4.78125zm16.193604 7.0l-1.640625 0l0 -10.453125q-0.59375 0.5625 -1.5625 1.140625q-0.953125 0.5625 -1.71875 0.84375l0 -1.59375q1.375 -0.640625 2.40625 -1.5625q1.03125 -0.921875 1.453125 -1.78125l1.0625 0l0 13.40625zm12.813232 -1.578125l0 1.578125l-8.828125 0q-0.015625 -0.59375 0.1875 -1.140625q0.34375 -0.90625 1.078125 -1.78125q0.75 -0.875 2.15625 -2.015625q2.171875 -1.78125 2.9375 -2.828125q0.765625 -1.046875 0.765625 -1.96875q0 -0.984375 -0.703125 -1.640625q-0.6875 -0.671875 -1.8125 -0.671875q-1.1875 0 -1.90625 0.71875q-0.703125 0.703125 -0.703125 1.953125l-1.6875 -0.171875q0.171875 -1.890625 1.296875 -2.875q1.140625 -0.984375 3.03125 -0.984375q1.921875 0 3.046875 1.0625q1.125 1.0625 1.125 2.640625q0 0.796875 -0.328125 1.578125q-0.328125 0.78125 -1.09375 1.640625q-0.75 0.84375 -2.53125 2.34375q-1.46875 1.234375 -1.890625 1.6875q-0.421875 0.4375 -0.6875 0.875l6.546875 0z" fill-rule="nonzero"/><path fill="#000000" fill-opacity="0.0" d="m114.51706 193.31496l38.86615 0l0 38.86615l-38.86615 0z" fill-rule="evenodd"/><path fill="#000000" d="m125.251434 220.23495l0 -13.359375l1.765625 0l0 13.359375l-1.765625 0zm8.698929 0l-5.171875 -13.359375l1.921875 0l3.46875 9.703125q0.421875 1.171875 0.703125 2.1875q0.3125 -1.09375 0.71875 -2.1875l3.609375 -9.703125l1.796875 0l-5.234375 13.359375l-1.8125 0z" fill-rule="nonzero"/><path fill="#000000" fill-opacity="0.0" d="m114.51706 274.20996l38.86615 0l0 38.86615l-38.86615 0z" fill-rule="evenodd"/><path fill="#000000" d="m124.876434 301.12997l0 -13.359375l1.78125 0l0 6.625l6.625 -6.625l2.390625 0l-5.59375 5.421875l5.84375 7.9375l-2.328125 0l-4.765625 -6.765625l-2.171875 2.140625l0 4.625l-1.78125 0z" fill-rule="nonzero"/><path fill="#000000" fill-opacity="0.0" d="m114.51706 355.10498l38.86615 0l0 38.86615l-38.86615 0z" fill-rule="evenodd"/><path fill="#000000" d="m124.938934 382.025l0 -13.359375l1.8125 0l7.015625 10.484375l0 -10.484375l1.6875 0l0 13.359375l-1.8125 0l-7.015625 -10.5l0 10.5l-1.6875 0z" fill-rule="nonzero"/><path fill="#000000" fill-opacity="0.0" d="m153.38321 212.74803l62.614166 0" fill-rule="evenodd"/><path stroke="#000000" stroke-width="1.0" stroke-linejoin="round" stroke-linecap="butt" d="m153.38321 212.74803l56.614166 0" fill-rule="evenodd"/><path fill="#000000" stroke="#000000" stroke-width="1.0" stroke-linecap="butt" d="m209.99738 214.39977l4.538101 -1.6517334l-4.538101 -1.6517334z" fill-rule="evenodd"/><path fill="#000000" fill-opacity="0.0" d="m153.39108 293.2651l61.984253 0.3779297" fill-rule="evenodd"/><path stroke="#000000" stroke-width="1.0" stroke-linejoin="round" stroke-linecap="butt" d="m153.39108 293.2651l55.984344 0.34136963" fill-rule="evenodd"/><path fill="#000000" stroke="#000000" stroke-width="1.0" stroke-linecap="butt" d="m209.36537 295.25815l4.5480804 -1.6240234l-4.527939 -1.6793518z" fill-rule="evenodd"/><path fill="#000000" fill-opacity="0.0" d="m153.38321 373.78217l62.11023 0" fill-rule="evenodd"/><path stroke="#000000" stroke-width="1.0" stroke-linejoin="round" stroke-linecap="butt" d="m153.38321 373.78217l56.11023 0" fill-rule="evenodd"/><path fill="#000000" stroke="#000000" stroke-width="1.0" stroke-linecap="butt" d="m209.49344 375.4339l4.538101 -1.6517334l-4.538101 -1.6517334z" fill-rule="evenodd"/><path fill="#000000" fill-opacity="0.0" d="m295.5013 215.50131l50.992126 0" fill-rule="evenodd"/><path stroke="#000000" stroke-width="1.0" stroke-linejoin="round" stroke-linecap="butt" d="m295.5013 215.50131l44.992126 0" fill-rule="evenodd"/><path fill="#000000" stroke="#000000" stroke-width="1.0" stroke-linecap="butt" d="m340.49344 217.15305l4.538086 -1.6517334l-4.538086 -1.6517334z" fill-rule="evenodd"/><path fill="#000000" fill-opacity="0.0" d="m296.0 360.0l50.48819 0" fill-rule="evenodd"/><path stroke="#000000" stroke-width="1.0" stroke-linejoin="round" stroke-linecap="butt" d="m296.0 360.0l44.48819 0" fill-rule="evenodd"/><path fill="#000000" stroke="#000000" stroke-width="1.0" stroke-linecap="butt" d="m340.4882 361.65173l4.538086 -1.6517334l-4.538086 -1.6517334z" fill-rule="evenodd"/><path fill="#000000" fill-opacity="0.0" d="m426.5013 214.50131l50.48819 0" fill-rule="evenodd"/><path stroke="#000000" stroke-width="1.0" stroke-linejoin="round" stroke-linecap="butt" d="m426.5013 214.50131l44.48819 0" fill-rule="evenodd"/><path fill="#000000" stroke="#000000" stroke-width="1.0" stroke-linecap="butt" d="m470.9895 216.15305l4.538086 -1.6517334l-4.538086 -1.6517334z" fill-rule="evenodd"/><path fill="#000000" fill-opacity="0.0" d="m425.4987 360.0l50.48819 0" fill-rule="evenodd"/><path stroke="#000000" stroke-width="1.0" stroke-linejoin="round" stroke-linecap="butt" d="m425.4987 360.0l44.48819 0" fill-rule="evenodd"/><path fill="#000000" stroke="#000000" stroke-width="1.0" stroke-linecap="butt" d="m469.98688 361.65173l4.538086 -1.6517334l-4.538086 -1.6517334z" fill-rule="evenodd"/><path fill="#000000" fill-opacity="0.0" d="m556.84644 214.50131l50.48822 0" fill-rule="evenodd"/><path stroke="#000000" stroke-width="1.0" stroke-linejoin="round" stroke-linecap="butt" d="m556.84644 214.50131l44.48822 0" fill-rule="evenodd"/><path fill="#000000" stroke="#000000" stroke-width="1.0" stroke-linecap="butt" d="m601.33466 216.15305l4.538086 -1.6517334l-4.538086 -1.6517334z" fill-rule="evenodd"/><path fill="#000000" fill-opacity="0.0" d="m555.8438 360.0l50.48822 0" fill-rule="evenodd"/><path stroke="#000000" stroke-width="1.0" stroke-linejoin="round" stroke-linecap="butt" d="m555.8438 360.0l44.48822 0" fill-rule="evenodd"/><path fill="#000000" stroke="#000000" stroke-width="1.0" stroke-linecap="butt" d="m600.33203 361.65173l4.538086 -1.6517334l-4.538086 -1.6517334z" fill-rule="evenodd"/><path fill="#000000" fill-opacity="0.0" d="m687.69684 213.50394l50.48822 0" fill-rule="evenodd"/><path stroke="#000000" stroke-width="1.0" stroke-linejoin="round" stroke-linecap="butt" d="m687.69684 213.50394l44.48822 0" fill-rule="evenodd"/><path fill="#000000" stroke="#000000" stroke-width="1.0" stroke-linecap="butt" d="m732.18506 215.15567l4.538086 -1.6517334l-4.538086 -1.6517334z" fill-rule="evenodd"/><path fill="#000000" fill-opacity="0.0" d="m687.1942 359.00262l50.48822 0" fill-rule="evenodd"/><path stroke="#000000" stroke-width="1.0" stroke-linejoin="round" stroke-linecap="butt" d="m687.1942 359.00262l44.48822 0" fill-rule="evenodd"/><path fill="#000000" stroke="#000000" stroke-width="1.0" stroke-linecap="butt" d="m731.68243 360.65436l4.538086 -1.6517334l-4.538086 -1.6517334z" fill-rule="evenodd"/><path fill="#000000" fill-opacity="0.0" d="m818.2887 213.50394l50.48822 0" fill-rule="evenodd"/><path stroke="#000000" stroke-width="1.0" stroke-linejoin="round" stroke-linecap="butt" d="m818.2887 213.50394l44.48822 0" fill-rule="evenodd"/><path fill="#000000" stroke="#000000" stroke-width="1.0" stroke-linecap="butt" d="m862.7769 215.15567l4.538086 -1.6517334l-4.538086 -1.6517334z" fill-rule="evenodd"/><path fill="#000000" fill-opacity="0.0" d="m817.2861 359.00262l50.48822 0" fill-rule="evenodd"/><path stroke="#000000" stroke-width="1.0" stroke-linejoin="round" stroke-linecap="butt" d="m817.2861 359.00262l44.48822 0" fill-rule="evenodd"/><path fill="#000000" stroke="#000000" stroke-width="1.0" stroke-linecap="butt" d="m861.7743 360.65436l4.538086 -1.6517334l-4.538086 -1.6517334z" fill-rule="evenodd"/><path fill="#cfe2f3" d="m310.0 215.50131l0 0c0 -4.557434 3.694519 -8.251968 8.251984 -8.251968l0 0c2.1885376 0 4.2874756 0.8694 5.835022 2.4169464c1.5475159 1.5475464 2.4169312 3.646469 2.4169312 5.835022l0 0c0 4.557434 -3.694519 8.251968 -8.251953 8.251968l0 0c-4.5574646 0 -8.251984 -3.6945343 -8.251984 -8.251968z" fill-rule="evenodd"/><path stroke="#000000" stroke-width="1.0" stroke-linejoin="round" stroke-linecap="butt" d="m310.0 215.50131l0 0c0 -4.557434 3.694519 -8.251968 8.251984 -8.251968l0 0c2.1885376 0 4.2874756 0.8694 5.835022 2.4169464c1.5475159 1.5475464 2.4169312 3.646469 2.4169312 5.835022l0 0c0 4.557434 -3.694519 8.251968 -8.251953 8.251968l0 0c-4.5574646 0 -8.251984 -3.6945343 -8.251984 -8.251968z" fill-rule="evenodd"/><path fill="#000000" fill-opacity="0.0" d="m318.25198 207.24934l0 16.503937" fill-rule="evenodd"/><path stroke="#000000" stroke-width="1.0" stroke-linejoin="round" stroke-linecap="butt" d="m318.25198 207.24934l0 16.503937" fill-rule="evenodd"/><path fill="#000000" fill-opacity="0.0" d="m310.0 215.50131l16.503937 0" fill-rule="evenodd"/><path stroke="#000000" stroke-width="1.0" stroke-linejoin="round" stroke-linecap="butt" d="m310.0 215.50131l16.503937 0" fill-rule="evenodd"/><path fill="#cfe2f3" d="m310.0 360.0l0 0c0 -4.557434 3.694519 -8.251984 8.251984 -8.251984l0 0c2.1885376 0 4.2874756 0.8694153 5.835022 2.4169617c1.5475159 1.5475464 2.4169312 3.6464539 2.4169312 5.835022l0 0c0 4.557434 -3.694519 8.251984 -8.251953 8.251984l0 0c-4.5574646 0 -8.251984 -3.6945496 -8.251984 -8.251984z" fill-rule="evenodd"/><path stroke="#000000" stroke-width="1.0" stroke-linejoin="round" stroke-linecap="butt" d="m310.0 360.0l0 0c0 -4.557434 3.694519 -8.251984 8.251984 -8.251984l0 0c2.1885376 0 4.2874756 0.8694153 5.835022 2.4169617c1.5475159 1.5475464 2.4169312 3.6464539 2.4169312 5.835022l0 0c0 4.557434 -3.694519 8.251984 -8.251953 8.251984l0 0c-4.5574646 0 -8.251984 -3.6945496 -8.251984 -8.251984z" fill-rule="evenodd"/><path fill="#000000" fill-opacity="0.0" d="m318.25198 351.74802l0 16.503967" fill-rule="evenodd"/><path stroke="#000000" stroke-width="1.0" stroke-linejoin="round" stroke-linecap="butt" d="m318.25198 351.74802l0 16.503967" fill-rule="evenodd"/><path fill="#000000" fill-opacity="0.0" d="m310.0 360.0l16.503937 0" fill-rule="evenodd"/><path stroke="#000000" stroke-width="1.0" stroke-linejoin="round" stroke-linecap="butt" d="m310.0 360.0l16.503937 0" fill-rule="evenodd"/><path fill="#cfe2f3" d="m429.2979 214.50131l0 0c0 -4.557434 3.694519 -8.251968 8.251953 -8.251968l0 0c2.188568 0 4.2874756 0.8694 5.835022 2.4169464c1.5475464 1.5475464 2.4169617 3.646469 2.4169617 5.835022l0 0c0 4.557434 -3.6945496 8.251968 -8.251984 8.251968l0 0c-4.557434 0 -8.251953 -3.6945343 -8.251953 -8.251968z" fill-rule="evenodd"/><path stroke="#000000" stroke-width="1.0" stroke-linejoin="round" stroke-linecap="butt" d="m429.2979 214.50131l0 0c0 -4.557434 3.694519 -8.251968 8.251953 -8.251968l0 0c2.188568 0 4.2874756 0.8694 5.835022 2.4169464c1.5475464 1.5475464 2.4169617 3.646469 2.4169617 5.835022l0 0c0 4.557434 -3.6945496 8.251968 -8.251984 8.251968l0 0c-4.557434 0 -8.251953 -3.6945343 -8.251953 -8.251968z" fill-rule="evenodd"/><path fill="#000000" fill-opacity="0.0" d="m437.54987 206.24934l0 16.503937" fill-rule="evenodd"/><path stroke="#000000" stroke-width="1.0" stroke-linejoin="round" stroke-linecap="butt" d="m437.54987 206.24934l0 16.503937" fill-rule="evenodd"/><path fill="#000000" fill-opacity="0.0" d="m429.2979 214.50131l16.503937 0" fill-rule="evenodd"/><path stroke="#000000" stroke-width="1.0" stroke-linejoin="round" stroke-linecap="butt" d="m429.2979 214.50131l16.503937 0" fill-rule="evenodd"/><path fill="#cfe2f3" d="m559.5171 360.0l0 0c0 -4.557434 3.694519 -8.251984 8.251953 -8.251984l0 0c2.1885376 0 4.2874756 0.8694153 5.835022 2.4169617c1.5475464 1.5475464 2.4169312 3.6464539 2.4169312 5.835022l0 0c0 4.557434 -3.694519 8.251984 -8.251953 8.251984l0 0c-4.557434 0 -8.251953 -3.6945496 -8.251953 -8.251984z" fill-rule="evenodd"/><path stroke="#000000" stroke-width="1.0" stroke-linejoin="round" stroke-linecap="butt" d="m559.5171 360.0l0 0c0 -4.557434 3.694519 -8.251984 8.251953 -8.251984l0 0c2.1885376 0 4.2874756 0.8694153 5.835022 2.4169617c1.5475464 1.5475464 2.4169312 3.6464539 2.4169312 5.835022l0 0c0 4.557434 -3.694519 8.251984 -8.251953 8.251984l0 0c-4.557434 0 -8.251953 -3.6945496 -8.251953 -8.251984z" fill-rule="evenodd"/><path fill="#000000" fill-opacity="0.0" d="m567.76904 351.74802l0 16.503967" fill-rule="evenodd"/><path stroke="#000000" stroke-width="1.0" stroke-linejoin="round" stroke-linecap="butt" d="m567.76904 351.74802l0 16.503967" fill-rule="evenodd"/><path fill="#000000" fill-opacity="0.0" d="m559.5171 360.0l16.503906 0" fill-rule="evenodd"/><path stroke="#000000" stroke-width="1.0" stroke-linejoin="round" stroke-linecap="butt" d="m559.5171 360.0l16.503906 0" fill-rule="evenodd"/><path fill="#cfe2f3" d="m559.99866 214.50394l0 0c0 -4.557434 3.69458 -8.251968 8.252014 -8.251968l0 0c2.1885376 0 4.2874756 0.8694 5.835022 2.4169464c1.5475464 1.5475464 2.4169312 3.646469 2.4169312 5.835022l0 0c0 4.557434 -3.694519 8.251968 -8.251953 8.251968l0 0c-4.557434 0 -8.252014 -3.6945343 -8.252014 -8.251968z" fill-rule="evenodd"/><path stroke="#000000" stroke-width="1.0" stroke-linejoin="round" stroke-linecap="butt" d="m559.99866 214.50394l0 0c0 -4.557434 3.69458 -8.251968 8.252014 -8.251968l0 0c2.1885376 0 4.2874756 0.8694 5.835022 2.4169464c1.5475464 1.5475464 2.4169312 3.646469 2.4169312 5.835022l0 0c0 4.557434 -3.694519 8.251968 -8.251953 8.251968l0 0c-4.557434 0 -8.252014 -3.6945343 -8.252014 -8.251968z" fill-rule="evenodd"/><path fill="#000000" fill-opacity="0.0" d="m568.2507 206.25197l0 16.503937" fill-rule="evenodd"/><path stroke="#000000" stroke-width="1.0" stroke-linejoin="round" stroke-linecap="butt" d="m568.2507 206.25197l0 16.503937" fill-rule="evenodd"/><path fill="#000000" fill-opacity="0.0" d="m559.99866 214.50394l16.503967 0" fill-rule="evenodd"/><path stroke="#000000" stroke-width="1.0" stroke-linejoin="round" stroke-linecap="butt" d="m559.99866 214.50394l16.503967 0" fill-rule="evenodd"/><path fill="#000000" fill-opacity="0.0" d="m300.0 159.50131l36.503937 0l0 24.59842l-36.503937 0z" fill-rule="evenodd"/><path fill="#000000" d="m308.98438 177.46132l2.5625 -6.671875l0.953125 0l2.734375 6.671875l-1.0 0l-0.78125 -2.015625l-2.796875 0l-0.734375 2.015625l-0.9375 0zm1.921875 -2.734375l2.265625 0l-0.6875 -1.859375q-0.328125 -0.84375 -0.484375 -1.375q-0.125 0.640625 -0.359375 1.265625l-0.734375 1.96875zm7.7843018 2.734375l-0.8125 0l0 -5.21875q-0.296875 0.28125 -0.78125 0.5625q-0.484375 0.28125 -0.859375 0.421875l0 -0.796875q0.6875 -0.328125 1.203125 -0.78125q0.515625 -0.453125 0.734375 -0.890625l0.515625 0l0 6.703125z" fill-rule="nonzero"/><path fill="#000000" fill-opacity="0.0" d="m318.25198 184.09973l0 23.149612" fill-rule="evenodd"/><path stroke="#000000" stroke-width="1.0" stroke-linejoin="round" stroke-linecap="butt" d="m318.25198 184.09973l0 17.149612" fill-rule="evenodd"/><path fill="#000000" stroke="#000000" stroke-width="1.0" stroke-linecap="butt" d="m316.60025 201.24934l1.6517334 4.538101l1.6517029 -4.538101z" fill-rule="evenodd"/><path fill="#000000" fill-opacity="0.0" d="m419.29922 159.50131l36.503937 0l0 24.59842l-36.503937 0z" fill-rule="evenodd"/><path fill="#000000" d="m428.2836 177.46132l2.5625 -6.671875l0.953125 0l2.734375 6.671875l-1.0 0l-0.78125 -2.015625l-2.796875 0l-0.734375 2.015625l-0.9375 0zm1.921875 -2.734375l2.265625 0l-0.6875 -1.859375q-0.328125 -0.84375 -0.484375 -1.375q-0.125 0.640625 -0.359375 1.265625l-0.734375 1.96875zm9.018646 1.953125l0 0.78125l-4.421875 0q-0.015625 -0.296875 0.09375 -0.5625q0.171875 -0.453125 0.53125 -0.890625q0.375 -0.4375 1.078125 -1.015625q1.09375 -0.890625 1.46875 -1.40625q0.390625 -0.53125 0.390625 -1.0q0 -0.484375 -0.359375 -0.8125q-0.34375 -0.34375 -0.890625 -0.34375q-0.59375 0 -0.953125 0.359375q-0.359375 0.359375 -0.359375 0.984375l-0.84375 -0.078125q0.09375 -0.953125 0.65625 -1.4375q0.5625 -0.5 1.515625 -0.5q0.953125 0 1.515625 0.53125q0.5625 0.53125 0.5625 1.328125q0 0.390625 -0.171875 0.78125q-0.15625 0.390625 -0.546875 0.828125q-0.375 0.421875 -1.25 1.15625q-0.734375 0.625 -0.953125 0.84375q-0.203125 0.21875 -0.34375 0.453125l3.28125 0z" fill-rule="nonzero"/><path fill="#000000" fill-opacity="0.0" d="m437.55118 184.09973l0 22.141739" fill-rule="evenodd"/><path stroke="#000000" stroke-width="1.0" stroke-linejoin="round" stroke-linecap="butt" d="m437.55118 184.09973l0 16.141739" fill-rule="evenodd"/><path fill="#000000" stroke="#000000" stroke-width="1.0" stroke-linecap="butt" d="m435.89944 200.24147l1.6517334 4.538101l1.6517334 -4.538101z" fill-rule="evenodd"/><path fill="#000000" fill-opacity="0.0" d="m550.0 159.50131l36.503967 0l0 24.59842l-36.503967 0z" fill-rule="evenodd"/><path fill="#000000" d="m559.71875 177.46132l0 -6.671875l2.515625 0q0.671875 0 1.015625 0.0625q0.5 0.078125 0.828125 0.3125q0.328125 0.21875 0.53125 0.640625q0.203125 0.40625 0.203125 0.90625q0 0.859375 -0.546875 1.453125q-0.53125 0.578125 -1.953125 0.578125l-1.703125 0l0 2.71875l-0.890625 0zm0.890625 -3.5l1.71875 0q0.859375 0 1.21875 -0.3125q0.359375 -0.328125 0.359375 -0.90625q0 -0.421875 -0.21875 -0.71875q-0.203125 -0.296875 -0.546875 -0.390625q-0.234375 -0.0625 -0.828125 -0.0625l-1.703125 0l0 2.390625zm8.081177 3.5l-0.8125 0l0 -5.21875q-0.296875 0.28125 -0.78125 0.5625q-0.484375 0.28125 -0.859375 0.421875l0 -0.796875q0.6875 -0.328125 1.203125 -0.78125q0.515625 -0.453125 0.734375 -0.890625l0.515625 0l0 6.703125z" fill-rule="nonzero"/><path fill="#000000" fill-opacity="0.0" d="m568.25195 184.09973l0 22.141739" fill-rule="evenodd"/><path stroke="#000000" stroke-width="1.0" stroke-linejoin="round" stroke-linecap="butt" d="m568.25195 184.09973l0 16.141739" fill-rule="evenodd"/><path fill="#000000" stroke="#000000" stroke-width="1.0" stroke-linecap="butt" d="m566.6002 200.24147l1.6517334 4.538101l1.6517334 -4.538101z" fill-rule="evenodd"/><path fill="#000000" fill-opacity="0.0" d="m568.25195 129.50131l36.503967 0l0 24.59842l-36.503967 0z" fill-rule="evenodd"/><path fill="#000000" d="m582.7363 145.11757l0.890625 0.21875q-0.28125 1.09375 -1.015625 1.671875q-0.71875 0.5625 -1.75 0.5625q-1.09375 0 -1.765625 -0.4375q-0.671875 -0.4375 -1.03125 -1.265625q-0.34375 -0.84375 -0.34375 -1.796875q0 -1.046875 0.390625 -1.8125q0.40625 -0.78125 1.140625 -1.1875q0.734375 -0.40625 1.609375 -0.40625q1.015625 0 1.6875 0.515625q0.6875 0.515625 0.953125 1.4375l-0.859375 0.203125q-0.234375 -0.734375 -0.6875 -1.0625q-0.4375 -0.328125 -1.109375 -0.328125q-0.765625 0 -1.28125 0.375q-0.515625 0.359375 -0.734375 0.984375q-0.203125 0.625 -0.203125 1.28125q0 0.84375 0.25 1.484375q0.25 0.640625 0.765625 0.953125q0.53125 0.3125 1.140625 0.3125q0.734375 0 1.25 -0.421875q0.515625 -0.4375 0.703125 -1.28125zm4.720886 2.34375l-0.8125 0l0 -5.21875q-0.296875 0.28125 -0.78125 0.5625q-0.484375 0.28125 -0.859375 0.421875l0 -0.796875q0.6875 -0.328125 1.203125 -0.78125q0.515625 -0.453125 0.734375 -0.890625l0.515625 0l0 6.703125z" fill-rule="nonzero"/><path fill="#000000" fill-opacity="0.0" d="m586.50397 153.09973l0 61.417328" fill-rule="evenodd"/><path stroke="#000000" stroke-width="1.0" stroke-linejoin="round" stroke-linecap="butt" d="m586.50397 156.52682l0 57.990234" fill-rule="evenodd"/><path fill="#000000" stroke="#000000" stroke-width="1.0" stroke-linecap="butt" d="m586.50397 156.52682l1.1245728 1.124588l-1.1245728 -3.0897675l-1.1246338 3.0897675z" fill-rule="evenodd"/><path fill="#000000" fill-opacity="0.0" d="m680.69684 157.979l36.503967 0l0 24.59842l-36.503967 0z" fill-rule="evenodd"/><path fill="#000000" d="m690.4156 175.939l0 -6.671875l2.515625 0q0.671875 0 1.015625 0.0625q0.5 0.078125 0.828125 0.3125q0.328125 0.21875 0.53125 0.640625q0.203125 0.40625 0.203125 0.90625q0 0.859375 -0.546875 1.453125q-0.53125 0.578125 -1.953125 0.578125l-1.703125 0l0 2.71875l-0.890625 0zm0.890625 -3.5l1.71875 0q0.859375 0 1.21875 -0.3125q0.359375 -0.328125 0.359375 -0.90625q0 -0.421875 -0.21875 -0.71875q-0.203125 -0.296875 -0.546875 -0.390625q-0.234375 -0.0625 -0.828125 -0.0625l-1.703125 0l0 2.390625zm9.315552 2.71875l0 0.78125l-4.421875 0q-0.015625 -0.296875 0.09375 -0.5625q0.171875 -0.453125 0.53125 -0.890625q0.375 -0.4375 1.078125 -1.015625q1.09375 -0.890625 1.46875 -1.40625q0.390625 -0.53125 0.390625 -1.0q0 -0.484375 -0.359375 -0.8125q-0.34375 -0.34375 -0.890625 -0.34375q-0.59375 0 -0.953125 0.359375q-0.359375 0.359375 -0.359375 0.984375l-0.84375 -0.078125q0.09375 -0.953125 0.65625 -1.4375q0.5625 -0.5 1.515625 -0.5q0.953125 0 1.515625 0.53125q0.5625 0.53125 0.5625 1.328125q0 0.390625 -0.171875 0.78125q-0.15625 0.390625 -0.546875 0.828125q-0.375 0.421875 -1.25 1.15625q-0.734375 0.625 -0.953125 0.84375q-0.203125 0.21875 -0.34375 0.453125l3.28125 0z" fill-rule="nonzero"/><path fill="#000000" fill-opacity="0.0" d="m698.9488 182.57742l0 22.141739" fill-rule="evenodd"/><path stroke="#000000" stroke-width="1.0" stroke-linejoin="round" stroke-linecap="butt" d="m698.9488 182.57742l0 16.141739" fill-rule="evenodd"/><path fill="#000000" stroke="#000000" stroke-width="1.0" stroke-linecap="butt" d="m697.29706 198.71916l1.6517334 4.538101l1.6517334 -4.538101z" fill-rule="evenodd"/><path fill="#000000" fill-opacity="0.0" d="m698.9488 127.979004l36.503967 0l0 24.59842l-36.503967 0z" fill-rule="evenodd"/><path fill="#000000" d="m713.43317 143.59525l0.890625 0.21875q-0.28125 1.09375 -1.015625 1.671875q-0.71875 0.5625 -1.75 0.5625q-1.09375 0 -1.765625 -0.4375q-0.671875 -0.4375 -1.03125 -1.265625q-0.34375 -0.84375 -0.34375 -1.796875q0 -1.046875 0.390625 -1.8125q0.40625 -0.78125 1.140625 -1.1875q0.734375 -0.40625 1.609375 -0.40625q1.015625 0 1.6875 0.515625q0.6875 0.515625 0.953125 1.4375l-0.859375 0.203125q-0.234375 -0.734375 -0.6875 -1.0625q-0.4375 -0.328125 -1.109375 -0.328125q-0.765625 0 -1.28125 0.375q-0.515625 0.359375 -0.734375 0.984375q-0.203125 0.625 -0.203125 1.28125q0 0.84375 0.25 1.484375q0.25 0.640625 0.765625 0.953125q0.53125 0.3125 1.140625 0.3125q0.734375 0 1.25 -0.421875q0.515625 -0.4375 0.703125 -1.28125zm5.955261 1.5625l0 0.78125l-4.421875 0q-0.015625 -0.296875 0.09375 -0.5625q0.171875 -0.453125 0.53125 -0.890625q0.375 -0.4375 1.078125 -1.015625q1.09375 -0.890625 1.46875 -1.40625q0.390625 -0.53125 0.390625 -1.0q0 -0.484375 -0.359375 -0.8125q-0.34375 -0.34375 -0.890625 -0.34375q-0.59375 0 -0.953125 0.359375q-0.359375 0.359375 -0.359375 0.984375l-0.84375 -0.078125q0.09375 -0.953125 0.65625 -1.4375q0.5625 -0.5 1.515625 -0.5q0.953125 0 1.515625 0.53125q0.5625 0.53125 0.5625 1.328125q0 0.390625 -0.171875 0.78125q-0.15625 0.390625 -0.546875 0.828125q-0.375 0.421875 -1.25 1.15625q-0.734375 0.625 -0.953125 0.84375q-0.203125 0.21875 -0.34375 0.453125l3.28125 0z" fill-rule="nonzero"/><path fill="#000000" fill-opacity="0.0" d="m717.2008 152.57742l0 61.417328" fill-rule="evenodd"/><path stroke="#000000" stroke-width="1.0" stroke-linejoin="round" stroke-linecap="butt" d="m717.2008 156.00452l0 57.990234" fill-rule="evenodd"/><path fill="#000000" stroke="#000000" stroke-width="1.0" stroke-linecap="butt" d="m717.2008 156.00452l1.1245728 1.124588l-1.1245728 -3.0897675l-1.1245728 3.0897675z" fill-rule="evenodd"/><path fill="#cfe2f3" d="m690.69946 213.24803l0 0c0 -4.557434 3.694519 -8.251968 8.251953 -8.251968l0 0c2.1885986 0 4.2875366 0.8694 5.835022 2.4169464c1.5475464 1.5475464 2.4169922 3.646469 2.4169922 5.835022l0 0c0 4.557434 -3.69458 8.251968 -8.252014 8.251968l0 0c-4.557434 0 -8.251953 -3.6945343 -8.251953 -8.251968z" fill-rule="evenodd"/><path stroke="#000000" stroke-width="1.0" stroke-linejoin="round" stroke-linecap="butt" d="m690.69946 213.24803l0 0c0 -4.557434 3.694519 -8.251968 8.251953 -8.251968l0 0c2.1885986 0 4.2875366 0.8694 5.835022 2.4169464c1.5475464 1.5475464 2.4169922 3.646469 2.4169922 5.835022l0 0c0 4.557434 -3.69458 8.251968 -8.252014 8.251968l0 0c-4.557434 0 -8.251953 -3.6945343 -8.251953 -8.251968z" fill-rule="evenodd"/><path fill="#000000" fill-opacity="0.0" d="m698.9514 204.99606l0 16.503937" fill-rule="evenodd"/><path stroke="#000000" stroke-width="1.0" stroke-linejoin="round" stroke-linecap="butt" d="m698.9514 204.99606l0 16.503937" fill-rule="evenodd"/><path fill="#000000" fill-opacity="0.0" d="m690.69946 213.24803l16.503967 0" fill-rule="evenodd"/><path stroke="#000000" stroke-width="1.0" stroke-linejoin="round" stroke-linecap="butt" d="m690.69946 213.24803l16.503967 0" fill-rule="evenodd"/><path fill="#000000" fill-opacity="0.0" d="m812.2047 158.00131l36.503967 0l0 24.59842l-36.503967 0z" fill-rule="evenodd"/><path fill="#000000" d="m821.92346 175.96132l0 -6.671875l2.515625 0q0.671875 0 1.015625 0.0625q0.5 0.078125 0.828125 0.3125q0.328125 0.21875 0.53125 0.640625q0.203125 0.40625 0.203125 0.90625q0 0.859375 -0.546875 1.453125q-0.53125 0.578125 -1.953125 0.578125l-1.703125 0l0 2.71875l-0.890625 0zm0.890625 -3.5l1.71875 0q0.859375 0 1.21875 -0.3125q0.359375 -0.328125 0.359375 -0.90625q0 -0.421875 -0.21875 -0.71875q-0.203125 -0.296875 -0.546875 -0.390625q-0.234375 -0.0625 -0.828125 -0.0625l-1.703125 0l0 2.390625zm5.0030518 1.734375l0.828125 -0.109375q0.140625 0.703125 0.46875 1.015625q0.34375 0.296875 0.828125 0.296875q0.578125 0 0.96875 -0.390625q0.40625 -0.40625 0.40625 -1.0q0 -0.5625 -0.375 -0.921875q-0.359375 -0.375 -0.921875 -0.375q-0.234375 0 -0.578125 0.09375l0.078125 -0.71875q0.09375 0 0.140625 0q0.515625 0 0.9375 -0.265625q0.421875 -0.28125 0.421875 -0.84375q0 -0.453125 -0.3125 -0.75q-0.296875 -0.296875 -0.78125 -0.296875q-0.484375 0 -0.796875 0.3125q-0.3125 0.296875 -0.40625 0.890625l-0.828125 -0.140625q0.15625 -0.828125 0.6875 -1.28125q0.53125 -0.453125 1.328125 -0.453125q0.546875 0 1.0 0.234375q0.46875 0.234375 0.703125 0.640625q0.25 0.40625 0.25 0.859375q0 0.4375 -0.234375 0.796875q-0.234375 0.34375 -0.6875 0.5625q0.59375 0.125 0.921875 0.5625q0.328125 0.421875 0.328125 1.078125q0 0.875 -0.640625 1.484375q-0.640625 0.609375 -1.609375 0.609375q-0.875 0 -1.46875 -0.515625q-0.578125 -0.53125 -0.65625 -1.375z" fill-rule="nonzero"/><path fill="#000000" fill-opacity="0.0" d="m830.45667 182.59973l0 22.141739" fill-rule="evenodd"/><path stroke="#000000" stroke-width="1.0" stroke-linejoin="round" stroke-linecap="butt" d="m830.45667 182.59973l0 16.141739" fill-rule="evenodd"/><path fill="#000000" stroke="#000000" stroke-width="1.0" stroke-linecap="butt" d="m828.80493 198.74147l1.6517334 4.538101l1.6517334 -4.538101z" fill-rule="evenodd"/><path fill="#000000" fill-opacity="0.0" d="m830.45667 128.00131l36.503967 0l0 24.59842l-36.503967 0z" fill-rule="evenodd"/><path fill="#000000" d="m844.94104 143.61757l0.890625 0.21875q-0.28125 1.09375 -1.015625 1.671875q-0.71875 0.5625 -1.75 0.5625q-1.09375 0 -1.765625 -0.4375q-0.671875 -0.4375 -1.03125 -1.265625q-0.34375 -0.84375 -0.34375 -1.796875q0 -1.046875 0.390625 -1.8125q0.40625 -0.78125 1.140625 -1.1875q0.734375 -0.40625 1.609375 -0.40625q1.015625 0 1.6875 0.515625q0.6875 0.515625 0.953125 1.4375l-0.859375 0.203125q-0.234375 -0.734375 -0.6875 -1.0625q-0.4375 -0.328125 -1.109375 -0.328125q-0.765625 0 -1.28125 0.375q-0.515625 0.359375 -0.734375 0.984375q-0.203125 0.625 -0.203125 1.28125q0 0.84375 0.25 1.484375q0.25 0.640625 0.765625 0.953125q0.53125 0.3125 1.140625 0.3125q0.734375 0 1.25 -0.421875q0.515625 -0.4375 0.703125 -1.28125zm1.6427612 0.578125l0.828125 -0.109375q0.140625 0.703125 0.46875 1.015625q0.34375 0.296875 0.828125 0.296875q0.578125 0 0.96875 -0.390625q0.40625 -0.40625 0.40625 -1.0q0 -0.5625 -0.375 -0.921875q-0.359375 -0.375 -0.921875 -0.375q-0.234375 0 -0.578125 0.09375l0.078125 -0.71875q0.09375 0 0.140625 0q0.515625 0 0.9375 -0.265625q0.421875 -0.28125 0.421875 -0.84375q0 -0.453125 -0.3125 -0.75q-0.296875 -0.296875 -0.78125 -0.296875q-0.484375 0 -0.796875 0.3125q-0.3125 0.296875 -0.40625 0.890625l-0.828125 -0.140625q0.15625 -0.828125 0.6875 -1.28125q0.53125 -0.453125 1.328125 -0.453125q0.546875 0 1.0 0.234375q0.46875 0.234375 0.703125 0.640625q0.25 0.40625 0.25 0.859375q0 0.4375 -0.234375 0.796875q-0.234375 0.34375 -0.6875 0.5625q0.59375 0.125 0.921875 0.5625q0.328125 0.421875 0.328125 1.078125q0 0.875 -0.640625 1.484375q-0.640625 0.609375 -1.609375 0.609375q-0.875 0 -1.46875 -0.515625q-0.578125 -0.53125 -0.65625 -1.375z" fill-rule="nonzero"/><path fill="#000000" fill-opacity="0.0" d="m848.7087 152.59973l0 61.417328" fill-rule="evenodd"/><path stroke="#000000" stroke-width="1.0" stroke-linejoin="round" stroke-linecap="butt" d="m848.7087 156.02682l0 57.990234" fill-rule="evenodd"/><path fill="#000000" stroke="#000000" stroke-width="1.0" stroke-linecap="butt" d="m848.7087 156.02682l1.1245728 1.124588l-1.1245728 -3.0897675l-1.1245728 3.0897675z" fill-rule="evenodd"/><path fill="#cfe2f3" d="m822.20734 213.27034l0 0c0 -4.557434 3.694519 -8.251968 8.251953 -8.251968l0 0c2.1885986 0 4.2875366 0.8694 5.835022 2.4169464c1.5475464 1.5475464 2.4169922 3.646469 2.4169922 5.835022l0 0c0 4.557434 -3.69458 8.251968 -8.252014 8.251968l0 0c-4.557434 0 -8.251953 -3.6945343 -8.251953 -8.251968z" fill-rule="evenodd"/><path stroke="#000000" stroke-width="1.0" stroke-linejoin="round" stroke-linecap="butt" d="m822.20734 213.27034l0 0c0 -4.557434 3.694519 -8.251968 8.251953 -8.251968l0 0c2.1885986 0 4.2875366 0.8694 5.835022 2.4169464c1.5475464 1.5475464 2.4169922 3.646469 2.4169922 5.835022l0 0c0 4.557434 -3.69458 8.251968 -8.252014 8.251968l0 0c-4.557434 0 -8.251953 -3.6945343 -8.251953 -8.251968z" fill-rule="evenodd"/><path fill="#000000" fill-opacity="0.0" d="m830.4593 205.01837l0 16.503937" fill-rule="evenodd"/><path stroke="#000000" stroke-width="1.0" stroke-linejoin="round" stroke-linecap="butt" d="m830.4593 205.01837l0 16.503937" fill-rule="evenodd"/><path fill="#000000" fill-opacity="0.0" d="m822.20734 213.27034l16.503967 0" fill-rule="evenodd"/><path stroke="#000000" stroke-width="1.0" stroke-linejoin="round" stroke-linecap="butt" d="m822.20734 213.27034l16.503967 0" fill-rule="evenodd"/><path fill="#000000" fill-opacity="0.0" d="m300.0 386.0l36.503937 0l0 24.59842l-36.503937 0z" fill-rule="evenodd"/><path fill="#000000" d="m309.39062 400.66312q0 -1.1875 0.234375 -1.90625q0.25 -0.71875 0.71875 -1.109375q0.484375 -0.390625 1.21875 -0.390625q0.546875 0 0.9375 0.21875q0.40625 0.21875 0.671875 0.625q0.265625 0.40625 0.40625 1.0q0.15625 0.578125 0.15625 1.5625q0 1.171875 -0.234375 1.90625q-0.234375 0.71875 -0.71875 1.109375q-0.484375 0.390625 -1.21875 0.390625q-0.96875 0 -1.515625 -0.6875q-0.65625 -0.828125 -0.65625 -2.71875zm0.84375 0q0 1.640625 0.375 2.1875q0.390625 0.546875 0.953125 0.546875q0.5625 0 0.953125 -0.546875q0.390625 -0.546875 0.390625 -2.1875q0 -1.640625 -0.390625 -2.1875q-0.390625 -0.546875 -0.953125 -0.546875q-0.578125 0 -0.90625 0.484375q-0.421875 0.609375 -0.421875 2.25zm4.812866 5.265625l0 -8.765625l0.71875 0l0 8.765625l-0.71875 0zm2.4231262 0l0 -8.765625l0.71875 0l0 8.765625l-0.71875 0zm2.2512512 -1.96875l0 -6.671875l0.875 0l0 3.3125l3.3125 -3.3125l1.203125 0l-2.796875 2.703125l2.921875 3.96875l-1.171875 0l-2.375 -3.375l-1.09375 1.0625l0 2.3125l-0.875 0z" fill-rule="nonzero"/><path fill="#000000" fill-opacity="0.0" d="m318.25198 386.0l0 -17.73227" fill-rule="evenodd"/><path stroke="#000000" stroke-width="1.0" stroke-linejoin="round" stroke-linecap="butt" d="m318.25198 386.0l0 -11.732269" fill-rule="evenodd"/><path fill="#000000" stroke="#000000" stroke-width="1.0" stroke-linecap="butt" d="m319.9037 374.26773l-1.6517029 -4.5381165l-1.6517334 4.5381165z" fill-rule="evenodd"/><path fill="#000000" fill-opacity="0.0" d="m550.0 386.0l36.503967 0l0 24.59842l-36.503967 0z" fill-rule="evenodd"/><path fill="#000000" d="m559.3906 400.66312q0 -1.1875 0.234375 -1.90625q0.25 -0.71875 0.71875 -1.109375q0.484375 -0.390625 1.21875 -0.390625q0.546875 0 0.9375 0.21875q0.40625 0.21875 0.671875 0.625q0.265625 0.40625 0.40625 1.0q0.15625 0.578125 0.15625 1.5625q0 1.171875 -0.234375 1.90625q-0.234375 0.71875 -0.71875 1.109375q-0.484375 0.390625 -1.21875 0.390625q-0.96875 0 -1.515625 -0.6875q-0.65625 -0.828125 -0.65625 -2.71875zm0.84375 0q0 1.640625 0.375 2.1875q0.390625 0.546875 0.953125 0.546875q0.5625 0 0.953125 -0.546875q0.390625 -0.546875 0.390625 -2.1875q0 -1.640625 -0.390625 -2.1875q-0.390625 -0.546875 -0.953125 -0.546875q-0.578125 0 -0.90625 0.484375q-0.421875 0.609375 -0.421875 2.25zm4.812866 5.265625l0 -8.765625l0.71875 0l0 8.765625l-0.71875 0zm2.4230957 0l0 -8.765625l0.71875 0l0 8.765625l-0.71875 0zm5.0325317 -1.96875l-0.8125 0l0 -5.21875q-0.296875 0.28125 -0.78125 0.5625q-0.484375 0.28125 -0.859375 0.421875l0 -0.796875q0.6875 -0.328125 1.203125 -0.78125q0.515625 -0.453125 0.734375 -0.890625l0.515625 0l0 6.703125z" fill-rule="nonzero"/><path fill="#000000" fill-opacity="0.0" d="m568.25195 386.0l-0.4724121 -17.73227" fill-rule="evenodd"/><path stroke="#000000" stroke-width="1.0" stroke-linejoin="round" stroke-linecap="butt" d="m568.25195 386.0l-0.31262207 -11.7344055" fill-rule="evenodd"/><path fill="#000000" stroke="#000000" stroke-width="1.0" stroke-linecap="butt" d="m569.59045 374.2216l-1.7719727 -4.4924927l-1.5302734 4.580475z" fill-rule="evenodd"/><path fill="#cfe2f3" d="m828.3884 358.96063l0 0c0 -4.557434 3.69458 -8.251984 8.252014 -8.251984l0 0c2.1885376 0 4.2874756 0.8694153 5.835022 2.4169617c1.5475464 1.5475464 2.4169312 3.6464539 2.4169312 5.835022l0 0c0 4.557434 -3.694519 8.251953 -8.251953 8.251953l0 0c-4.557434 0 -8.252014 -3.694519 -8.252014 -8.251953z" fill-rule="evenodd"/><path stroke="#000000" stroke-width="1.0" stroke-linejoin="round" stroke-linecap="butt" d="m828.3884 358.96063l0 0c0 -4.557434 3.69458 -8.251984 8.252014 -8.251984l0 0c2.1885376 0 4.2874756 0.8694153 5.835022 2.4169617c1.5475464 1.5475464 2.4169312 3.6464539 2.4169312 5.835022l0 0c0 4.557434 -3.694519 8.251953 -8.251953 8.251953l0 0c-4.557434 0 -8.252014 -3.694519 -8.252014 -8.251953z" fill-rule="evenodd"/><path fill="#000000" fill-opacity="0.0" d="m836.64044 350.70865l0 16.503937" fill-rule="evenodd"/><path stroke="#000000" stroke-width="1.0" stroke-linejoin="round" stroke-linecap="butt" d="m836.64044 350.70865l0 16.503937" fill-rule="evenodd"/><path fill="#000000" fill-opacity="0.0" d="m828.3884 358.96063l16.503967 0" fill-rule="evenodd"/><path stroke="#000000" stroke-width="1.0" stroke-linejoin="round" stroke-linecap="butt" d="m828.3884 358.96063l16.503967 0" fill-rule="evenodd"/><path fill="#000000" fill-opacity="0.0" d="m818.8714 384.96063l36.503906 0l0 24.59842l-36.503906 0z" fill-rule="evenodd"/><path fill="#000000" d="m828.5589 402.92062l0 -6.671875l0.875 0l0 3.3125l3.3125 -3.3125l1.203125 0l-2.796875 2.703125l2.921875 3.96875l-1.171875 0l-2.375 -3.375l-1.09375 1.0625l0 2.3125l-0.875 0zm6.3936768 1.96875l0 -8.765625l0.71875 0l0 8.765625l-0.71875 0zm2.4230957 0l0 -8.765625l0.71875 0l0 8.765625l-0.71875 0zm1.9544067 -5.265625q0 -1.1875 0.234375 -1.90625q0.25 -0.71875 0.71875 -1.109375q0.484375 -0.390625 1.21875 -0.390625q0.546875 0 0.9375 0.21875q0.40625 0.21875 0.671875 0.625q0.265625 0.40625 0.40625 1.0q0.15625 0.578125 0.15625 1.5625q0 1.171875 -0.234375 1.90625q-0.234375 0.71875 -0.71875 1.109375q-0.484375 0.390625 -1.21875 0.390625q-0.96875 0 -1.515625 -0.6875q-0.65625 -0.828125 -0.65625 -2.71875zm0.84375 0q0 1.640625 0.375 2.1875q0.390625 0.546875 0.953125 0.546875q0.5625 0 0.953125 -0.546875q0.390625 -0.546875 0.390625 -2.1875q0 -1.640625 -0.390625 -2.1875q-0.390625 -0.546875 -0.953125 -0.546875q-0.578125 0 -0.90625 0.484375q-0.421875 0.609375 -0.421875 2.25z" fill-rule="nonzero"/><path fill="#000000" fill-opacity="0.0" d="m837.12335 384.96063l-0.4724121 -17.7323" fill-rule="evenodd"/><path stroke="#000000" stroke-width="1.0" stroke-linejoin="round" stroke-linecap="butt" d="m837.12335 384.96063l-0.3126831 -11.7344055" fill-rule="evenodd"/><path fill="#000000" stroke="#000000" stroke-width="1.0" stroke-linecap="butt" d="m838.46185 373.18222l-1.7719727 -4.4924927l-1.5303345 4.580475z" fill-rule="evenodd"/><path fill="#000000" fill-opacity="0.0" d="m947.3779 357.6509l50.48822 0" fill-rule="evenodd"/><path stroke="#000000" stroke-width="1.0" stroke-linejoin="round" stroke-linecap="butt" d="m947.3779 357.6509l44.48822 0" fill-rule="evenodd"/><path fill="#000000" stroke="#000000" stroke-width="1.0" stroke-linecap="butt" d="m991.86615 359.30264l4.538086 -1.6517334l-4.538086 -1.6517334z" fill-rule="evenodd"/><path fill="#cfe2f3" d="m958.4803 357.60892l0 0c0 -4.557434 3.69458 -8.251953 8.252014 -8.251953l0 0c2.1885376 0 4.2874756 0.86938477 5.835022 2.4169312c1.5475464 1.5475464 2.4169312 3.6464844 2.4169312 5.835022l0 0c0 4.557434 -3.694519 8.251984 -8.251953 8.251984l0 0c-4.557434 0 -8.252014 -3.6945496 -8.252014 -8.251984z" fill-rule="evenodd"/><path stroke="#000000" stroke-width="1.0" stroke-linejoin="round" stroke-linecap="butt" d="m958.4803 357.60892l0 0c0 -4.557434 3.69458 -8.251953 8.252014 -8.251953l0 0c2.1885376 0 4.2874756 0.86938477 5.835022 2.4169312c1.5475464 1.5475464 2.4169312 3.6464844 2.4169312 5.835022l0 0c0 4.557434 -3.694519 8.251984 -8.251953 8.251984l0 0c-4.557434 0 -8.252014 -3.6945496 -8.252014 -8.251984z" fill-rule="evenodd"/><path fill="#000000" fill-opacity="0.0" d="m966.7323 349.35696l0 16.503937" fill-rule="evenodd"/><path stroke="#000000" stroke-width="1.0" stroke-linejoin="round" stroke-linecap="butt" d="m966.7323 349.35696l0 16.503937" fill-rule="evenodd"/><path fill="#000000" fill-opacity="0.0" d="m958.4803 357.60892l16.503967 0" fill-rule="evenodd"/><path stroke="#000000" stroke-width="1.0" stroke-linejoin="round" stroke-linecap="butt" d="m958.4803 357.60892l16.503967 0" fill-rule="evenodd"/><path fill="#000000" fill-opacity="0.0" d="m948.96326 383.60892l36.503906 0l0 24.59842l-36.503906 0z" fill-rule="evenodd"/><path fill="#000000" d="m958.65076 401.5689l0 -6.671875l0.875 0l0 3.3125l3.3125 -3.3125l1.203125 0l-2.796875 2.703125l2.921875 3.96875l-1.171875 0l-2.375 -3.375l-1.09375 1.0625l0 2.3125l-0.875 0z" fill-rule="nonzero"/><path fill="#000000" fill-opacity="0.0" d="m967.2152 383.60892l-0.4724121 -17.73227" fill-rule="evenodd"/><path stroke="#000000" stroke-width="1.0" stroke-linejoin="round" stroke-linecap="butt" d="m967.2152 383.60892l-0.31262207 -11.7344055" fill-rule="evenodd"/><path fill="#000000" stroke="#000000" stroke-width="1.0" stroke-linecap="butt" d="m968.5537 371.8305l-1.7719727 -4.4924927l-1.5302734 4.5805054z" fill-rule="evenodd"/><path fill="#000000" fill-opacity="0.0" d="m992.50134 340.5l18.992065 0l0 24.59842l-18.992065 0z" fill-rule="evenodd"/><path fill="#000000" d="m1003.9232 358.46l0 -5.890625l-2.203125 0l0 -0.78125l5.296875 0l0 0.78125l-2.21875 0l0 5.890625l-0.875 0z" fill-rule="nonzero"/></g></svg>