<?xml version="1.0" encoding="UTF-8" standalone="no"?>
<svg
   xmlns:dc="http://purl.org/dc/elements/1.1/"
   xmlns:cc="http://creativecommons.org/ns#"
   xmlns:rdf="http://www.w3.org/1999/02/22-rdf-syntax-ns#"
   xmlns:svg="http://www.w3.org/2000/svg"
   xmlns="http://www.w3.org/2000/svg"
   xmlns:sodipodi="http://sodipodi.sourceforge.net/DTD/sodipodi-0.dtd"
   xmlns:inkscape="http://www.inkscape.org/namespaces/inkscape"
   version="1.1"
   viewBox="0 0 898.97632 293.70734"
   stroke-miterlimit="10"
   id="svg373"
   sodipodi:docname="aead.svg"
   width="898.97632"
   height="293.70734"
   style="fill:none;stroke:none;stroke-linecap:square;stroke-miterlimit:10"
   inkscape:version="0.92.5 (2060ec1f9f, 2020-04-08)">
  <metadata
     id="metadata379">
    <rdf:RDF>
      <cc:Work
         rdf:about="">
        <dc:format>image/svg+xml</dc:format>
        <dc:type
           rdf:resource="http://purl.org/dc/dcmitype/StillImage" />
        <dc:title></dc:title>
      </cc:Work>
    </rdf:RDF>
  </metadata>
  <defs
     id="defs377" />
  <sodipodi:namedview
     pagecolor="#ffffff"
     bordercolor="#666666"
     borderopacity="1"
     objecttolerance="10"
     gridtolerance="10"
     guidetolerance="10"
     inkscape:pageopacity="0"
     inkscape:pageshadow="2"
     inkscape:window-width="2488"
     inkscape:window-height="1376"
     id="namedview375"
     showgrid="false"
     fit-margin-left="1"
     fit-margin-top="1"
     fit-margin-right="1"
     fit-margin-bottom="1"
     inkscape:zoom="1.2291667"
     inkscape:cx="299.87367"
     inkscape:cy="-50.219226"
     inkscape:window-x="1992"
     inkscape:window-y="27"
     inkscape:window-maximized="1"
     inkscape:current-layer="svg373" />
  <clipPath
     id="p.0">
    <path
       d="M 0,0 H 1024 V 768 H 0 Z"
       id="path2"
       inkscape:connector-curvature="0"
       style="clip-rule:nonzero" />
  </clipPath>
  <g
     id="g4633">
    <path
       d="m 101.85828,41.12073 h 79.8425 v 251.08661 h -79.8425 z"
       id="path7"
       inkscape:connector-curvature="0"
       style="fill:#cfe2f3;fill-rule:evenodd" />
    <path
       d="m 101.85828,41.12073 h 79.8425 v 251.08661 h -79.8425 z"
       id="path9"
       inkscape:connector-curvature="0"
       style="fill-rule:evenodd;stroke:#000000;stroke-width:1;stroke-linecap:butt;stroke-linejoin:round" />
    <path
       d="m 126.61952,173.58405 v -13.35938 h 5.04687 q 1.32813,0 2.03125,0.125 0.96875,0.17188 1.64063,0.64063 0.67187,0.45312 1.07812,1.28125 0.40625,0.82812 0.40625,1.82812 0,1.70313 -1.09375,2.89063 -1.07812,1.17187 -3.92187,1.17187 h -3.42188 v 5.42188 z m 1.76562,-7 h 3.45313 q 1.71875,0 2.4375,-0.64063 0.71875,-0.64062 0.71875,-1.79687 0,-0.84375 -0.42188,-1.4375 -0.42187,-0.59375 -1.125,-0.78125 -0.4375,-0.125 -1.64062,-0.125 h -3.42188 z m 16.19359,7 h -1.64062 v -10.45313 q -0.59377,0.5625 -1.56252,1.14063 -0.95312,0.5625 -1.71875,0.84375 v -1.59375 q 1.375,-0.64063 2.40625,-1.5625 1.03127,-0.92188 1.45314,-1.78125 h 1.0625 z m 12.8132,-1.57813 v 1.57813 h -8.82812 q -0.0156,-0.59375 0.1875,-1.14063 0.34375,-0.90625 1.07812,-1.78125 0.75,-0.875 2.15625,-2.01562 2.17188,-1.78125 2.9375,-2.82813 0.76563,-1.04687 0.76563,-1.96875 0,-0.98437 -0.70313,-1.64062 -0.6875,-0.67188 -1.8125,-0.67188 -1.1875,0 -1.90625,0.71875 -0.70312,0.70313 -0.70312,1.95313 l -1.6875,-0.17188 q 0.17187,-1.89062 1.29687,-2.875 1.14063,-0.98437 3.03125,-0.98437 1.92188,0 3.04688,1.0625 1.125,1.0625 1.125,2.64062 0,0.79688 -0.32813,1.57813 -0.32812,0.78125 -1.09375,1.64062 -0.75,0.84375 -2.53125,2.34375 -1.46875,1.23438 -1.89062,1.6875 -0.42188,0.4375 -0.6875,0.875 z"
       id="path11"
       inkscape:connector-curvature="0"
       style="fill:#000000;fill-rule:nonzero" />
    <path
       d="m 232.37534,41.12073 h 79.8425 v 251.08661 h -79.8425 z"
       id="path13"
       inkscape:connector-curvature="0"
       style="fill:#cfe2f3;fill-rule:evenodd" />
    <path
       d="m 232.37534,41.12073 h 79.8425 v 251.08661 h -79.8425 z"
       id="path15"
       inkscape:connector-curvature="0"
       style="fill-rule:evenodd;stroke:#000000;stroke-width:1;stroke-linecap:butt;stroke-linejoin:round" />
    <path
       d="m 264.40597,173.58405 v -13.35938 h 5.04687 q 1.32813,0 2.03125,0.125 0.96875,0.17188 1.64063,0.64063 0.67187,0.45312 1.07812,1.28125 0.40625,0.82812 0.40625,1.82812 0,1.70313 -1.09375,2.89063 -1.07812,1.17187 -3.92187,1.17187 h -3.42188 v 5.42188 z m 1.76562,-7 h 3.45313 q 1.71875,0 2.4375,-0.64063 0.71875,-0.64062 0.71875,-1.79687 0,-0.84375 -0.42188,-1.4375 -0.42187,-0.59375 -1.125,-0.78125 -0.4375,-0.125 -1.64062,-0.125 h -3.42188 z m 10.4592,7 v -9.67188 h 1.46875 v 1.46875 q 0.5625,-1.03125 1.03125,-1.35937 0.48438,-0.32813 1.0625,-0.32813 0.82813,0 1.6875,0.53125 l -0.5625,1.51563 q -0.60937,-0.35938 -1.20312,-0.35938 -0.54688,0 -0.96875,0.32813 -0.42188,0.32812 -0.60938,0.89062 -0.28125,0.875 -0.28125,1.92188 v 5.0625 z"
       id="path17"
       inkscape:connector-curvature="0"
       style="fill:#000000;fill-rule:nonzero" />
    <path
       d="m 362.89239,41.12073 h 79.8425 v 251.08661 h -79.8425 z"
       id="path19"
       inkscape:connector-curvature="0"
       style="fill:#cfe2f3;fill-rule:evenodd" />
    <path
       d="m 362.89239,41.12073 h 79.8425 v 251.08661 h -79.8425 z"
       id="path21"
       inkscape:connector-curvature="0"
       style="fill-rule:evenodd;stroke:#000000;stroke-width:1;stroke-linecap:butt;stroke-linejoin:round" />
    <path
       d="m 394.92304,173.58405 v -13.35938 h 5.04684 q 1.32813,0 2.03125,0.125 0.96875,0.17188 1.64063,0.64063 0.67187,0.45312 1.07812,1.28125 0.40625,0.82812 0.40625,1.82812 0,1.70313 -1.09375,2.89063 -1.07812,1.17187 -3.92187,1.17187 h -3.42185 v 5.42188 z m 1.76562,-7 h 3.4531 q 1.71875,0 2.4375,-0.64063 0.71875,-0.64062 0.71875,-1.79687 0,-0.84375 -0.42188,-1.4375 -0.42187,-0.59375 -1.125,-0.78125 -0.4375,-0.125 -1.64062,-0.125 h -3.42185 z m 10.4592,7 v -9.67188 h 1.46875 v 1.46875 q 0.5625,-1.03125 1.03125,-1.35937 0.48438,-0.32813 1.0625,-0.32813 0.82813,0 1.6875,0.53125 l -0.5625,1.51563 q -0.60937,-0.35938 -1.20312,-0.35938 -0.54688,0 -0.96875,0.32813 -0.42188,0.32812 -0.60938,0.89062 -0.28125,0.875 -0.28125,1.92188 v 5.0625 z"
       id="path23"
       inkscape:connector-curvature="0"
       style="fill:#000000;fill-rule:nonzero" />
    <path
       d="m 493.40944,41.12073 h 79.84253 v 251.08661 h -79.84253 z"
       id="path25"
       inkscape:connector-curvature="0"
       style="fill:#cfe2f3;fill-rule:evenodd" />
    <path
       d="m 493.40944,41.12073 h 79.84253 v 251.08661 h -79.84253 z"
       id="path27"
       inkscape:connector-curvature="0"
       style="fill-rule:evenodd;stroke:#000000;stroke-width:1;stroke-linecap:butt;stroke-linejoin:round" />
    <path
       d="m 525.44009,173.58405 v -13.35938 h 5.04687 q 1.32813,0 2.03125,0.125 0.96875,0.17188 1.64063,0.64063 0.67187,0.45312 1.07812,1.28125 0.40625,0.82812 0.40625,1.82812 0,1.70313 -1.09375,2.89063 -1.07812,1.17187 -3.92187,1.17187 h -3.42188 v 5.42188 z m 1.76562,-7 h 3.45313 q 1.71875,0 2.4375,-0.64063 0.71875,-0.64062 0.71875,-1.79687 0,-0.84375 -0.42188,-1.4375 -0.42187,-0.59375 -1.125,-0.78125 -0.4375,-0.125 -1.64062,-0.125 h -3.42188 z m 10.45917,7 v -9.67188 h 1.46875 v 1.46875 q 0.5625,-1.03125 1.03125,-1.35937 0.48438,-0.32813 1.0625,-0.32813 0.82813,0 1.6875,0.53125 l -0.5625,1.51563 q -0.60937,-0.35938 -1.20312,-0.35938 -0.54688,0 -0.96875,0.32813 -0.42188,0.32812 -0.60938,0.89062 -0.28125,0.875 -0.28125,1.92188 v 5.0625 z"
       id="path29"
       inkscape:connector-curvature="0"
       style="fill:#000000;fill-rule:nonzero" />
    <path
       d="m 623.92648,41.12073 h 79.84253 v 251.08661 h -79.84253 z"
       id="path31"
       inkscape:connector-curvature="0"
       style="fill:#cfe2f3;fill-rule:evenodd" />
    <path
       d="m 623.92648,41.12073 h 79.84253 v 251.08661 h -79.84253 z"
       id="path33"
       inkscape:connector-curvature="0"
       style="fill-rule:evenodd;stroke:#000000;stroke-width:1;stroke-linecap:butt;stroke-linejoin:round" />
    <path
       d="m 655.95714,173.58405 v -13.35938 h 5.04687 q 1.32813,0 2.03125,0.125 0.96875,0.17188 1.64063,0.64063 0.67187,0.45312 1.07812,1.28125 0.40625,0.82812 0.40625,1.82812 0,1.70313 -1.09375,2.89063 -1.07812,1.17187 -3.92187,1.17187 h -3.42188 v 5.42188 z m 1.76562,-7 h 3.45313 q 1.71875,0 2.4375,-0.64063 0.71875,-0.64062 0.71875,-1.79687 0,-0.84375 -0.42188,-1.4375 -0.42187,-0.59375 -1.125,-0.78125 -0.4375,-0.125 -1.64062,-0.125 h -3.42188 z m 10.45923,7 v -9.67188 h 1.46875 v 1.46875 q 0.5625,-1.03125 1.03125,-1.35937 0.48438,-0.32813 1.0625,-0.32813 0.82813,0 1.6875,0.53125 l -0.5625,1.51563 q -0.60937,-0.35938 -1.20312,-0.35938 -0.54688,0 -0.96875,0.32813 -0.42188,0.32812 -0.60938,0.89062 -0.28125,0.875 -0.28125,1.92188 v 5.0625 z"
       id="path35"
       inkscape:connector-curvature="0"
       style="fill:#000000;fill-rule:nonzero" />
    <path
       d="M 754.44357,41.12073 H 834.2861 V 292.20734 H 754.44357 Z"
       id="path37"
       inkscape:connector-curvature="0"
       style="fill:#cfe2f3;fill-rule:evenodd" />
    <path
       d="M 754.44357,41.12073 H 834.2861 V 292.20734 H 754.44357 Z"
       id="path39"
       inkscape:connector-curvature="0"
       style="fill-rule:evenodd;stroke:#000000;stroke-width:1;stroke-linecap:butt;stroke-linejoin:round" />
    <path
       d="m 779.2048,173.58405 v -13.35938 h 5.04687 q 1.32813,0 2.03125,0.125 0.96875,0.17188 1.64063,0.64063 0.67187,0.45312 1.07812,1.28125 0.40625,0.82812 0.40625,1.82812 0,1.70313 -1.09375,2.89063 -1.07812,1.17187 -3.92187,1.17187 h -3.42188 v 5.42188 z m 1.76562,-7 h 3.45313 q 1.71875,0 2.4375,-0.64063 0.71875,-0.64062 0.71875,-1.79687 0,-0.84375 -0.42188,-1.4375 -0.42187,-0.59375 -1.125,-0.78125 -0.4375,-0.125 -1.64062,-0.125 h -3.42188 z m 16.19361,7 h -1.64063 v -10.45313 q -0.59375,0.5625 -1.5625,1.14063 -0.95312,0.5625 -1.71875,0.84375 v -1.59375 q 1.375,-0.64063 2.40625,-1.5625 1.03125,-0.92188 1.45313,-1.78125 h 1.0625 z m 12.81323,-1.57813 v 1.57813 h -8.82812 q -0.0156,-0.59375 0.1875,-1.14063 0.34375,-0.90625 1.07812,-1.78125 0.75,-0.875 2.15625,-2.01562 2.17188,-1.78125 2.9375,-2.82813 0.76563,-1.04687 0.76563,-1.96875 0,-0.98437 -0.70313,-1.64062 -0.6875,-0.67188 -1.8125,-0.67188 -1.1875,0 -1.90625,0.71875 -0.70312,0.70313 -0.70312,1.95313 l -1.6875,-0.17188 q 0.17187,-1.89062 1.29687,-2.875 1.14063,-0.98437 3.03125,-0.98437 1.92188,0 3.04688,1.0625 1.125,1.0625 1.125,2.64062 0,0.79688 -0.32813,1.57813 -0.32812,0.78125 -1.09375,1.64062 -0.75,0.84375 -2.53125,2.34375 -1.46875,1.23438 -1.89062,1.6875 -0.42188,0.4375 -0.6875,0.875 z"
       id="path41"
       inkscape:connector-curvature="0"
       style="fill:#000000;fill-rule:nonzero" />
    <path
       d="m 1,66.33596 h 38.86615 v 38.86615 H 1 Z"
       id="path43"
       inkscape:connector-curvature="0"
       style="fill:#000000;fill-opacity:0;fill-rule:evenodd" />
    <path
       d="M 11.73437,93.25595 V 79.89657 H 13.5 v 13.35938 z m 8.69893,0 -5.17187,-13.35938 h 1.92187 l 3.46875,9.70313 q 0.42188,1.17187 0.70313,2.1875 0.3125,-1.09375 0.71875,-2.1875 l 3.60937,-9.70313 h 1.79688 L 22.2458,93.25595 Z"
       id="path45"
       inkscape:connector-curvature="0"
       style="fill:#000000;fill-rule:nonzero" />
    <path
       d="m 1,147.23096 h 38.86615 v 38.86615 H 1 Z"
       id="path47"
       inkscape:connector-curvature="0"
       style="fill:#000000;fill-opacity:0;fill-rule:evenodd" />
    <path
       d="M 11.35937,174.15097 V 160.7916 h 1.78125 v 6.625 l 6.625,-6.625 h 2.39063 l -5.59375,5.42187 5.84375,7.9375 h -2.32813 l -4.76562,-6.76562 -2.17188,2.14062 v 4.625 z"
       id="path49"
       inkscape:connector-curvature="0"
       style="fill:#000000;fill-rule:nonzero" />
    <path
       d="m 1,228.12598 h 38.86615 v 38.86615 H 1 Z"
       id="path51"
       inkscape:connector-curvature="0"
       style="fill:#000000;fill-opacity:0;fill-rule:evenodd" />
    <path
       d="m 11.42187,255.046 v -13.35938 h 1.8125 L 20.25,252.171 v -10.48438 h 1.6875 V 255.046 H 20.125 l -7.01563,-10.5 v 10.5 z"
       id="path53"
       inkscape:connector-curvature="0"
       style="fill:#000000;fill-rule:nonzero" />
    <path
       d="m 39.86615,85.76903 h 62.61417"
       id="path55"
       inkscape:connector-curvature="0"
       style="fill:#000000;fill-opacity:0;fill-rule:evenodd" />
    <path
       d="M 39.86615,85.76903 H 96.48032"
       id="path57"
       inkscape:connector-curvature="0"
       style="fill-rule:evenodd;stroke:#000000;stroke-width:1;stroke-linecap:butt;stroke-linejoin:round" />
    <path
       d="m 96.48032,87.42077 4.5381,-1.65173 -4.5381,-1.65174 z"
       id="path59"
       inkscape:connector-curvature="0"
       style="fill:#000000;fill-rule:evenodd;stroke:#000000;stroke-width:1;stroke-linecap:butt" />
    <path
       d="m 39.87402,166.2861 61.98425,0.37793"
       id="path61"
       inkscape:connector-curvature="0"
       style="fill:#000000;fill-opacity:0;fill-rule:evenodd" />
    <path
       d="m 39.87402,166.2861 55.98434,0.34137"
       id="path63"
       inkscape:connector-curvature="0"
       style="fill-rule:evenodd;stroke:#000000;stroke-width:1;stroke-linecap:butt;stroke-linejoin:round" />
    <path
       d="m 95.84831,168.27915 4.54808,-1.62402 -4.52794,-1.67936 z"
       id="path65"
       inkscape:connector-curvature="0"
       style="fill:#000000;fill-rule:evenodd;stroke:#000000;stroke-width:1;stroke-linecap:butt" />
    <path
       d="m 39.86615,246.80317 h 62.11023"
       id="path67"
       inkscape:connector-curvature="0"
       style="fill:#000000;fill-opacity:0;fill-rule:evenodd" />
    <path
       d="M 39.86615,246.80317 H 95.97638"
       id="path69"
       inkscape:connector-curvature="0"
       style="fill-rule:evenodd;stroke:#000000;stroke-width:1;stroke-linecap:butt;stroke-linejoin:round" />
    <path
       d="m 95.97638,248.4549 4.5381,-1.65173 -4.5381,-1.65174 z"
       id="path71"
       inkscape:connector-curvature="0"
       style="fill:#000000;fill-rule:evenodd;stroke:#000000;stroke-width:1;stroke-linecap:butt" />
    <path
       d="m 181.98424,88.52231 h 50.99213"
       id="path73"
       inkscape:connector-curvature="0"
       style="fill:#000000;fill-opacity:0;fill-rule:evenodd" />
    <path
       d="m 181.98424,88.52231 h 44.99213"
       id="path75"
       inkscape:connector-curvature="0"
       style="fill-rule:evenodd;stroke:#000000;stroke-width:1;stroke-linecap:butt;stroke-linejoin:round" />
    <path
       d="m 226.97638,90.17405 4.53809,-1.65173 -4.53809,-1.65174 z"
       id="path77"
       inkscape:connector-curvature="0"
       style="fill:#000000;fill-rule:evenodd;stroke:#000000;stroke-width:1;stroke-linecap:butt" />
    <path
       d="m 182.48294,233.021 h 50.48819"
       id="path79"
       inkscape:connector-curvature="0"
       style="fill:#000000;fill-opacity:0;fill-rule:evenodd" />
    <path
       d="m 182.48294,233.021 h 44.48819"
       id="path81"
       inkscape:connector-curvature="0"
       style="fill-rule:evenodd;stroke:#000000;stroke-width:1;stroke-linecap:butt;stroke-linejoin:round" />
    <path
       d="m 226.97114,234.67273 4.53809,-1.65173 -4.53809,-1.65174 z"
       id="path83"
       inkscape:connector-curvature="0"
       style="fill:#000000;fill-rule:evenodd;stroke:#000000;stroke-width:1;stroke-linecap:butt" />
    <path
       d="m 312.98424,87.52231 h 50.48819"
       id="path85"
       inkscape:connector-curvature="0"
       style="fill:#000000;fill-opacity:0;fill-rule:evenodd" />
    <path
       d="m 312.98424,87.52231 h 44.48819"
       id="path87"
       inkscape:connector-curvature="0"
       style="fill-rule:evenodd;stroke:#000000;stroke-width:1;stroke-linecap:butt;stroke-linejoin:round" />
    <path
       d="m 357.47244,89.17405 4.53809,-1.65173 -4.53809,-1.65174 z"
       id="path89"
       inkscape:connector-curvature="0"
       style="fill:#000000;fill-rule:evenodd;stroke:#000000;stroke-width:1;stroke-linecap:butt" />
    <path
       d="m 311.98164,233.021 h 50.48819"
       id="path91"
       inkscape:connector-curvature="0"
       style="fill:#000000;fill-opacity:0;fill-rule:evenodd" />
    <path
       d="m 311.98164,233.021 h 44.48819"
       id="path93"
       inkscape:connector-curvature="0"
       style="fill-rule:evenodd;stroke:#000000;stroke-width:1;stroke-linecap:butt;stroke-linejoin:round" />
    <path
       d="m 356.46982,234.67273 4.53809,-1.65173 -4.53809,-1.65174 z"
       id="path95"
       inkscape:connector-curvature="0"
       style="fill:#000000;fill-rule:evenodd;stroke:#000000;stroke-width:1;stroke-linecap:butt" />
    <path
       d="M 443.32938,87.52231 H 493.8176"
       id="path97"
       inkscape:connector-curvature="0"
       style="fill:#000000;fill-opacity:0;fill-rule:evenodd" />
    <path
       d="M 443.32938,87.52231 H 487.8176"
       id="path99"
       inkscape:connector-curvature="0"
       style="fill-rule:evenodd;stroke:#000000;stroke-width:1;stroke-linecap:butt;stroke-linejoin:round" />
    <path
       d="m 487.8176,89.17405 4.53809,-1.65173 -4.53809,-1.65174 z"
       id="path101"
       inkscape:connector-curvature="0"
       style="fill:#000000;fill-rule:evenodd;stroke:#000000;stroke-width:1;stroke-linecap:butt" />
    <path
       d="m 442.32674,233.021 h 50.48822"
       id="path103"
       inkscape:connector-curvature="0"
       style="fill:#000000;fill-opacity:0;fill-rule:evenodd" />
    <path
       d="m 442.32674,233.021 h 44.48822"
       id="path105"
       inkscape:connector-curvature="0"
       style="fill-rule:evenodd;stroke:#000000;stroke-width:1;stroke-linecap:butt;stroke-linejoin:round" />
    <path
       d="m 486.81497,234.67273 4.53809,-1.65173 -4.53809,-1.65174 z"
       id="path107"
       inkscape:connector-curvature="0"
       style="fill:#000000;fill-rule:evenodd;stroke:#000000;stroke-width:1;stroke-linecap:butt" />
    <path
       d="M 574.17978,86.52494 H 624.668"
       id="path109"
       inkscape:connector-curvature="0"
       style="fill:#000000;fill-opacity:0;fill-rule:evenodd" />
    <path
       d="M 574.17978,86.52494 H 618.668"
       id="path111"
       inkscape:connector-curvature="0"
       style="fill-rule:evenodd;stroke:#000000;stroke-width:1;stroke-linecap:butt;stroke-linejoin:round" />
    <path
       d="M 618.668,88.17667 623.20609,86.52494 618.668,84.8732 Z"
       id="path113"
       inkscape:connector-curvature="0"
       style="fill:#000000;fill-rule:evenodd;stroke:#000000;stroke-width:1;stroke-linecap:butt" />
    <path
       d="m 573.67714,232.02362 h 50.48822"
       id="path115"
       inkscape:connector-curvature="0"
       style="fill:#000000;fill-opacity:0;fill-rule:evenodd" />
    <path
       d="m 573.67714,232.02362 h 44.48822"
       id="path117"
       inkscape:connector-curvature="0"
       style="fill-rule:evenodd;stroke:#000000;stroke-width:1;stroke-linecap:butt;stroke-linejoin:round" />
    <path
       d="m 618.16537,233.67536 4.53809,-1.65173 -4.53809,-1.65174 z"
       id="path119"
       inkscape:connector-curvature="0"
       style="fill:#000000;fill-rule:evenodd;stroke:#000000;stroke-width:1;stroke-linecap:butt" />
    <path
       d="m 704.77164,86.52494 h 50.48822"
       id="path121"
       inkscape:connector-curvature="0"
       style="fill:#000000;fill-opacity:0;fill-rule:evenodd" />
    <path
       d="m 704.77164,86.52494 h 44.48822"
       id="path123"
       inkscape:connector-curvature="0"
       style="fill-rule:evenodd;stroke:#000000;stroke-width:1;stroke-linecap:butt;stroke-linejoin:round" />
    <path
       d="m 749.25984,88.17667 4.53809,-1.65173 -4.53809,-1.65174 z"
       id="path125"
       inkscape:connector-curvature="0"
       style="fill:#000000;fill-rule:evenodd;stroke:#000000;stroke-width:1;stroke-linecap:butt" />
    <path
       d="m 703.76904,232.02362 h 50.48822"
       id="path127"
       inkscape:connector-curvature="0"
       style="fill:#000000;fill-opacity:0;fill-rule:evenodd" />
    <path
       d="m 703.76904,232.02362 h 44.48822"
       id="path129"
       inkscape:connector-curvature="0"
       style="fill-rule:evenodd;stroke:#000000;stroke-width:1;stroke-linecap:butt;stroke-linejoin:round" />
    <path
       d="m 748.25724,233.67536 4.53809,-1.65173 -4.53809,-1.65174 z"
       id="path131"
       inkscape:connector-curvature="0"
       style="fill:#000000;fill-rule:evenodd;stroke:#000000;stroke-width:1;stroke-linecap:butt" />
    <path
       d="m 196.48294,88.52231 v 0 c 0,-4.55743 3.69452,-8.25197 8.25198,-8.25197 v 0 c 2.18854,0 4.28748,0.8694 5.83503,2.41695 1.54751,1.54754 2.41693,3.64647 2.41693,5.83502 v 0 c 0,4.55743 -3.69452,8.25197 -8.25196,8.25197 v 0 c -4.55746,0 -8.25198,-3.69454 -8.25198,-8.25197 z"
       id="path133"
       inkscape:connector-curvature="0"
       style="fill:#cfe2f3;fill-rule:evenodd" />
    <path
       d="m 196.48294,88.52231 v 0 c 0,-4.55743 3.69452,-8.25197 8.25198,-8.25197 v 0 c 2.18854,0 4.28748,0.8694 5.83503,2.41695 1.54751,1.54754 2.41693,3.64647 2.41693,5.83502 v 0 c 0,4.55743 -3.69452,8.25197 -8.25196,8.25197 v 0 c -4.55746,0 -8.25198,-3.69454 -8.25198,-8.25197 z"
       id="path135"
       inkscape:connector-curvature="0"
       style="fill-rule:evenodd;stroke:#000000;stroke-width:1;stroke-linecap:butt;stroke-linejoin:round" />
    <path
       d="M 204.73492,80.27034 V 96.77428"
       id="path137"
       inkscape:connector-curvature="0"
       style="fill:#000000;fill-opacity:0;fill-rule:evenodd" />
    <path
       d="M 204.73492,80.27034 V 96.77428"
       id="path139"
       inkscape:connector-curvature="0"
       style="fill-rule:evenodd;stroke:#000000;stroke-width:1;stroke-linecap:butt;stroke-linejoin:round" />
    <path
       d="m 196.48294,88.52231 h 16.50394"
       id="path141"
       inkscape:connector-curvature="0"
       style="fill:#000000;fill-opacity:0;fill-rule:evenodd" />
    <path
       d="m 196.48294,88.52231 h 16.50394"
       id="path143"
       inkscape:connector-curvature="0"
       style="fill-rule:evenodd;stroke:#000000;stroke-width:1;stroke-linecap:butt;stroke-linejoin:round" />
    <path
       d="m 196.48294,233.021 v 0 c 0,-4.55743 3.69452,-8.25198 8.25198,-8.25198 v 0 c 2.18854,0 4.28748,0.86941 5.83503,2.41696 1.54751,1.54754 2.41693,3.64645 2.41693,5.83502 v 0 c 0,4.55743 -3.69452,8.25198 -8.25196,8.25198 v 0 c -4.55746,0 -8.25198,-3.69455 -8.25198,-8.25198 z"
       id="path145"
       inkscape:connector-curvature="0"
       style="fill:#cfe2f3;fill-rule:evenodd" />
    <path
       d="m 196.48294,233.021 v 0 c 0,-4.55743 3.69452,-8.25198 8.25198,-8.25198 v 0 c 2.18854,0 4.28748,0.86941 5.83503,2.41696 1.54751,1.54754 2.41693,3.64645 2.41693,5.83502 v 0 c 0,4.55743 -3.69452,8.25198 -8.25196,8.25198 v 0 c -4.55746,0 -8.25198,-3.69455 -8.25198,-8.25198 z"
       id="path147"
       inkscape:connector-curvature="0"
       style="fill-rule:evenodd;stroke:#000000;stroke-width:1;stroke-linecap:butt;stroke-linejoin:round" />
    <path
       d="m 204.73492,224.76902 v 16.50397"
       id="path149"
       inkscape:connector-curvature="0"
       style="fill:#000000;fill-opacity:0;fill-rule:evenodd" />
    <path
       d="m 204.73492,224.76902 v 16.50397"
       id="path151"
       inkscape:connector-curvature="0"
       style="fill-rule:evenodd;stroke:#000000;stroke-width:1;stroke-linecap:butt;stroke-linejoin:round" />
    <path
       d="m 196.48294,233.021 h 16.50394"
       id="path153"
       inkscape:connector-curvature="0"
       style="fill:#000000;fill-opacity:0;fill-rule:evenodd" />
    <path
       d="m 196.48294,233.021 h 16.50394"
       id="path155"
       inkscape:connector-curvature="0"
       style="fill-rule:evenodd;stroke:#000000;stroke-width:1;stroke-linecap:butt;stroke-linejoin:round" />
    <path
       d="m 315.78084,87.52231 v 0 c 0,-4.55743 3.69452,-8.25197 8.25195,-8.25197 v 0 c 2.18857,0 4.28748,0.8694 5.83503,2.41695 1.54754,1.54754 2.41696,3.64647 2.41696,5.83502 v 0 c 0,4.55743 -3.69455,8.25197 -8.25199,8.25197 v 0 c -4.55743,0 -8.25195,-3.69454 -8.25195,-8.25197 z"
       id="path157"
       inkscape:connector-curvature="0"
       style="fill:#cfe2f3;fill-rule:evenodd" />
    <path
       d="m 315.78084,87.52231 v 0 c 0,-4.55743 3.69452,-8.25197 8.25195,-8.25197 v 0 c 2.18857,0 4.28748,0.8694 5.83503,2.41695 1.54754,1.54754 2.41696,3.64647 2.41696,5.83502 v 0 c 0,4.55743 -3.69455,8.25197 -8.25199,8.25197 v 0 c -4.55743,0 -8.25195,-3.69454 -8.25195,-8.25197 z"
       id="path159"
       inkscape:connector-curvature="0"
       style="fill-rule:evenodd;stroke:#000000;stroke-width:1;stroke-linecap:butt;stroke-linejoin:round" />
    <path
       d="M 324.03281,79.27034 V 95.77428"
       id="path161"
       inkscape:connector-curvature="0"
       style="fill:#000000;fill-opacity:0;fill-rule:evenodd" />
    <path
       d="M 324.03281,79.27034 V 95.77428"
       id="path163"
       inkscape:connector-curvature="0"
       style="fill-rule:evenodd;stroke:#000000;stroke-width:1;stroke-linecap:butt;stroke-linejoin:round" />
    <path
       d="m 315.78084,87.52231 h 16.50394"
       id="path165"
       inkscape:connector-curvature="0"
       style="fill:#000000;fill-opacity:0;fill-rule:evenodd" />
    <path
       d="m 315.78084,87.52231 h 16.50394"
       id="path167"
       inkscape:connector-curvature="0"
       style="fill-rule:evenodd;stroke:#000000;stroke-width:1;stroke-linecap:butt;stroke-linejoin:round" />
    <path
       d="m 446.00004,233.021 v 0 c 0,-4.55743 3.69452,-8.25198 8.25195,-8.25198 v 0 c 2.18854,0 4.28748,0.86941 5.83502,2.41696 1.54755,1.54754 2.41694,3.64645 2.41694,5.83502 v 0 c 0,4.55743 -3.69452,8.25198 -8.25196,8.25198 v 0 c -4.55743,0 -8.25195,-3.69455 -8.25195,-8.25198 z"
       id="path169"
       inkscape:connector-curvature="0"
       style="fill:#cfe2f3;fill-rule:evenodd" />
    <path
       d="m 446.00004,233.021 v 0 c 0,-4.55743 3.69452,-8.25198 8.25195,-8.25198 v 0 c 2.18854,0 4.28748,0.86941 5.83502,2.41696 1.54755,1.54754 2.41694,3.64645 2.41694,5.83502 v 0 c 0,4.55743 -3.69452,8.25198 -8.25196,8.25198 v 0 c -4.55743,0 -8.25195,-3.69455 -8.25195,-8.25198 z"
       id="path171"
       inkscape:connector-curvature="0"
       style="fill-rule:evenodd;stroke:#000000;stroke-width:1;stroke-linecap:butt;stroke-linejoin:round" />
    <path
       d="m 454.25198,224.76902 v 16.50397"
       id="path173"
       inkscape:connector-curvature="0"
       style="fill:#000000;fill-opacity:0;fill-rule:evenodd" />
    <path
       d="m 454.25198,224.76902 v 16.50397"
       id="path175"
       inkscape:connector-curvature="0"
       style="fill-rule:evenodd;stroke:#000000;stroke-width:1;stroke-linecap:butt;stroke-linejoin:round" />
    <path
       d="m 446.00004,233.021 h 16.50391"
       id="path177"
       inkscape:connector-curvature="0"
       style="fill:#000000;fill-opacity:0;fill-rule:evenodd" />
    <path
       d="m 446.00004,233.021 h 16.50391"
       id="path179"
       inkscape:connector-curvature="0"
       style="fill-rule:evenodd;stroke:#000000;stroke-width:1;stroke-linecap:butt;stroke-linejoin:round" />
    <path
       d="m 446.4816,87.52494 v 0 c 0,-4.55743 3.69458,-8.25197 8.25201,-8.25197 v 0 c 2.18854,0 4.28748,0.8694 5.83503,2.41695 1.54754,1.54754 2.41693,3.64647 2.41693,5.83502 v 0 c 0,4.55743 -3.69452,8.25197 -8.25196,8.25197 v 0 c -4.55743,0 -8.25201,-3.69454 -8.25201,-8.25197 z"
       id="path181"
       inkscape:connector-curvature="0"
       style="fill:#cfe2f3;fill-rule:evenodd" />
    <path
       d="m 446.4816,87.52494 v 0 c 0,-4.55743 3.69458,-8.25197 8.25201,-8.25197 v 0 c 2.18854,0 4.28748,0.8694 5.83503,2.41695 1.54754,1.54754 2.41693,3.64647 2.41693,5.83502 v 0 c 0,4.55743 -3.69452,8.25197 -8.25196,8.25197 v 0 c -4.55743,0 -8.25201,-3.69454 -8.25201,-8.25197 z"
       id="path183"
       inkscape:connector-curvature="0"
       style="fill-rule:evenodd;stroke:#000000;stroke-width:1;stroke-linecap:butt;stroke-linejoin:round" />
    <path
       d="M 454.73364,79.27297 V 95.77691"
       id="path185"
       inkscape:connector-curvature="0"
       style="fill:#000000;fill-opacity:0;fill-rule:evenodd" />
    <path
       d="M 454.73364,79.27297 V 95.77691"
       id="path187"
       inkscape:connector-curvature="0"
       style="fill-rule:evenodd;stroke:#000000;stroke-width:1;stroke-linecap:butt;stroke-linejoin:round" />
    <path
       d="m 446.4816,87.52494 h 16.50397"
       id="path189"
       inkscape:connector-curvature="0"
       style="fill:#000000;fill-opacity:0;fill-rule:evenodd" />
    <path
       d="m 446.4816,87.52494 h 16.50397"
       id="path191"
       inkscape:connector-curvature="0"
       style="fill-rule:evenodd;stroke:#000000;stroke-width:1;stroke-linecap:butt;stroke-linejoin:round" />
    <path
       d="m 186.48294,32.52231 h 36.50394 v 24.59842 h -36.50394 z"
       id="path193"
       inkscape:connector-curvature="0"
       style="fill:#000000;fill-opacity:0;fill-rule:evenodd" />
    <path
       d="m 195.46732,50.48232 2.5625,-6.67188 h 0.95312 l 2.73438,6.67188 h -1 l -0.78125,-2.01563 h -2.79688 l -0.73437,2.01563 z m 1.92187,-2.73438 h 2.26563 l -0.6875,-1.85937 q -0.32813,-0.84375 -0.48438,-1.375 -0.125,0.64062 -0.35937,1.26562 z m 7.78431,2.73438 h -0.8125 v -5.21875 q -0.29688,0.28125 -0.78125,0.5625 -0.48438,0.28125 -0.85938,0.42187 v -0.79687 q 0.6875,-0.32813 1.20313,-0.78125 0.51562,-0.45313 0.73437,-0.89063 h 0.51563 z"
       id="path195"
       inkscape:connector-curvature="0"
       style="fill:#000000;fill-rule:nonzero" />
    <path
       d="M 204.73492,57.12073 V 80.27034"
       id="path197"
       inkscape:connector-curvature="0"
       style="fill:#000000;fill-opacity:0;fill-rule:evenodd" />
    <path
       d="M 204.73492,57.12073 V 74.27034"
       id="path199"
       inkscape:connector-curvature="0"
       style="fill-rule:evenodd;stroke:#000000;stroke-width:1;stroke-linecap:butt;stroke-linejoin:round" />
    <path
       d="m 203.08319,74.27034 1.65173,4.5381 1.65171,-4.5381 z"
       id="path201"
       inkscape:connector-curvature="0"
       style="fill:#000000;fill-rule:evenodd;stroke:#000000;stroke-width:1;stroke-linecap:butt" />
    <path
       d="M 305.78216,32.52231 H 342.2861 V 57.12073 H 305.78216 Z"
       id="path203"
       inkscape:connector-curvature="0"
       style="fill:#000000;fill-opacity:0;fill-rule:evenodd" />
    <path
       d="m 314.76654,50.48232 2.5625,-6.67188 h 0.95312 l 2.73438,6.67188 h -1 l -0.78125,-2.01563 h -2.79688 l -0.73437,2.01563 z m 1.92187,-2.73438 h 2.26563 l -0.6875,-1.85937 q -0.32813,-0.84375 -0.48438,-1.375 -0.125,0.64062 -0.35937,1.26562 z m 9.01865,1.95313 v 0.78125 h -4.42187 q -0.0156,-0.29688 0.0937,-0.5625 0.17187,-0.45313 0.53125,-0.89063 0.375,-0.4375 1.07812,-1.01562 1.09375,-0.89063 1.46875,-1.40625 0.39063,-0.53125 0.39063,-1 0,-0.48438 -0.35938,-0.8125 -0.34375,-0.34375 -0.89062,-0.34375 -0.59375,0 -0.95313,0.35937 -0.35937,0.35938 -0.35937,0.98438 l -0.84375,-0.0781 q 0.0937,-0.95312 0.65625,-1.4375 0.5625,-0.5 1.51562,-0.5 0.95313,0 1.51563,0.53125 0.5625,0.53125 0.5625,1.32813 0,0.39062 -0.17188,0.78125 -0.15625,0.39062 -0.54687,0.82812 -0.375,0.42188 -1.25,1.15625 -0.73438,0.625 -0.95313,0.84375 -0.20312,0.21875 -0.34375,0.45313 z"
       id="path205"
       inkscape:connector-curvature="0"
       style="fill:#000000;fill-rule:nonzero" />
    <path
       d="M 324.03412,57.12073 V 79.26247"
       id="path207"
       inkscape:connector-curvature="0"
       style="fill:#000000;fill-opacity:0;fill-rule:evenodd" />
    <path
       d="M 324.03412,57.12073 V 73.26247"
       id="path209"
       inkscape:connector-curvature="0"
       style="fill-rule:evenodd;stroke:#000000;stroke-width:1;stroke-linecap:butt;stroke-linejoin:round" />
    <path
       d="m 322.38238,73.26247 1.65173,4.5381 1.65174,-4.5381 z"
       id="path211"
       inkscape:connector-curvature="0"
       style="fill:#000000;fill-rule:evenodd;stroke:#000000;stroke-width:1;stroke-linecap:butt" />
    <path
       d="m 436.48294,32.52231 h 36.50397 v 24.59842 h -36.50397 z"
       id="path213"
       inkscape:connector-curvature="0"
       style="fill:#000000;fill-opacity:0;fill-rule:evenodd" />
    <path
       d="m 446.20169,50.48232 v -6.67188 h 2.51562 q 0.67188,0 1.01563,0.0625 0.5,0.0781 0.82812,0.3125 0.32813,0.21875 0.53125,0.64063 0.20313,0.40625 0.20313,0.90625 0,0.85937 -0.54688,1.45312 -0.53125,0.57813 -1.95312,0.57813 h -1.70313 v 2.71875 z m 0.89062,-3.5 h 1.71875 q 0.85938,0 1.21875,-0.3125 0.35938,-0.32813 0.35938,-0.90625 0,-0.42188 -0.21875,-0.71875 -0.20313,-0.29688 -0.54688,-0.39063 -0.23437,-0.0625 -0.82812,-0.0625 h -1.70313 z m 8.08118,3.5 h -0.8125 v -5.21875 q -0.29687,0.28125 -0.78125,0.5625 -0.48437,0.28125 -0.85937,0.42187 v -0.79687 q 0.6875,-0.32813 1.20312,-0.78125 0.51563,-0.45313 0.73438,-0.89063 h 0.51562 z"
       id="path215"
       inkscape:connector-curvature="0"
       style="fill:#000000;fill-rule:nonzero" />
    <path
       d="M 454.73489,57.12073 V 79.26247"
       id="path217"
       inkscape:connector-curvature="0"
       style="fill:#000000;fill-opacity:0;fill-rule:evenodd" />
    <path
       d="M 454.73489,57.12073 V 73.26247"
       id="path219"
       inkscape:connector-curvature="0"
       style="fill-rule:evenodd;stroke:#000000;stroke-width:1;stroke-linecap:butt;stroke-linejoin:round" />
    <path
       d="m 453.08314,73.26247 1.65173,4.5381 1.65174,-4.5381 z"
       id="path221"
       inkscape:connector-curvature="0"
       style="fill:#000000;fill-rule:evenodd;stroke:#000000;stroke-width:1;stroke-linecap:butt" />
    <path
       d="m 454.73489,2.52231 h 36.50397 v 24.59842 h -36.50397 z"
       id="path223"
       inkscape:connector-curvature="0"
       style="fill:#000000;fill-opacity:0;fill-rule:evenodd" />
    <path
       d="m 469.21924,18.13857 0.89063,0.21875 q -0.28125,1.09375 -1.01563,1.67187 -0.71875,0.5625 -1.75,0.5625 -1.09375,0 -1.76562,-0.4375 -0.67188,-0.4375 -1.03125,-1.26562 -0.34375,-0.84375 -0.34375,-1.79688 0,-1.04687 0.39062,-1.8125 0.40625,-0.78125 1.14063,-1.1875 0.73437,-0.40625 1.60937,-0.40625 1.01563,0 1.6875,0.51563 0.6875,0.51562 0.95313,1.4375 l -0.85938,0.20312 q -0.23437,-0.73437 -0.6875,-1.0625 -0.4375,-0.32812 -1.10937,-0.32812 -0.76563,0 -1.28125,0.375 -0.51563,0.35937 -0.73438,0.98437 -0.20312,0.625 -0.20312,1.28125 0,0.84375 0.25,1.48438 0.25,0.64062 0.76562,0.95312 0.53125,0.3125 1.14063,0.3125 0.73437,0 1.25,-0.42187 0.51562,-0.4375 0.70312,-1.28125 z m 4.72089,2.34375 h -0.8125 v -5.21875 q -0.29688,0.28125 -0.78125,0.5625 -0.48438,0.28125 -0.85938,0.42187 v -0.79687 q 0.6875,-0.32813 1.20313,-0.78125 0.51562,-0.45313 0.73437,-0.89063 h 0.51563 z"
       id="path225"
       inkscape:connector-curvature="0"
       style="fill:#000000;fill-rule:nonzero" />
    <path
       d="M 472.98691,26.12073 V 87.53806"
       id="path227"
       inkscape:connector-curvature="0"
       style="fill:#000000;fill-opacity:0;fill-rule:evenodd" />
    <path
       d="M 472.98691,29.54782 V 87.53805"
       id="path229"
       inkscape:connector-curvature="0"
       style="fill-rule:evenodd;stroke:#000000;stroke-width:1;stroke-linecap:butt;stroke-linejoin:round" />
    <path
       d="m 472.98691,29.54782 1.12457,1.12459 -1.12457,-3.08977 -1.12463,3.08977 z"
       id="path231"
       inkscape:connector-curvature="0"
       style="fill:#000000;fill-rule:evenodd;stroke:#000000;stroke-width:1;stroke-linecap:butt" />
    <path
       d="m 567.17978,31 h 36.50397 v 24.59842 h -36.50397 z"
       id="path233"
       inkscape:connector-curvature="0"
       style="fill:#000000;fill-opacity:0;fill-rule:evenodd" />
    <path
       d="m 576.89854,48.96 v -6.67188 h 2.51563 q 0.67187,0 1.01562,0.0625 0.5,0.0781 0.82813,0.3125 0.32812,0.21875 0.53125,0.64063 0.20312,0.40625 0.20312,0.90625 0,0.85937 -0.54687,1.45312 -0.53125,0.57813 -1.95313,0.57813 h -1.70312 V 48.96 Z m 0.89063,-3.5 h 1.71875 q 0.85937,0 1.21875,-0.3125 0.35937,-0.32813 0.35937,-0.90625 0,-0.42188 -0.21875,-0.71875 -0.20312,-0.29688 -0.54687,-0.39063 -0.23438,-0.0625 -0.82813,-0.0625 h -1.70312 z m 9.31555,2.71875 V 48.96 h -4.42188 q -0.0156,-0.29688 0.0937,-0.5625 0.17188,-0.45313 0.53125,-0.89063 0.375,-0.4375 1.07813,-1.01562 1.09375,-0.89063 1.46875,-1.40625 0.39062,-0.53125 0.39062,-1 0,-0.48438 -0.35937,-0.8125 -0.34375,-0.34375 -0.89063,-0.34375 -0.59375,0 -0.95312,0.35937 -0.35938,0.35938 -0.35938,0.98438 l -0.84375,-0.0781 q 0.0937,-0.95312 0.65625,-1.4375 0.5625,-0.5 1.51563,-0.5 0.95312,0 1.51562,0.53125 0.5625,0.53125 0.5625,1.32813 0,0.39062 -0.17187,0.78125 -0.15625,0.39062 -0.54688,0.82812 -0.375,0.42188 -1.25,1.15625 -0.73437,0.625 -0.95312,0.84375 -0.20313,0.21875 -0.34375,0.45313 z"
       id="path235"
       inkscape:connector-curvature="0"
       style="fill:#000000;fill-rule:nonzero" />
    <path
       d="M 585.43174,55.59842 V 77.74016"
       id="path237"
       inkscape:connector-curvature="0"
       style="fill:#000000;fill-opacity:0;fill-rule:evenodd" />
    <path
       d="M 585.43174,55.59842 V 71.74016"
       id="path239"
       inkscape:connector-curvature="0"
       style="fill-rule:evenodd;stroke:#000000;stroke-width:1;stroke-linecap:butt;stroke-linejoin:round" />
    <path
       d="m 583.78,71.74016 1.65173,4.5381 1.65174,-4.5381 z"
       id="path241"
       inkscape:connector-curvature="0"
       style="fill:#000000;fill-rule:evenodd;stroke:#000000;stroke-width:1;stroke-linecap:butt" />
    <path
       d="m 585.43174,1 h 36.50397 v 24.59842 h -36.50397 z"
       id="path243"
       inkscape:connector-curvature="0"
       style="fill:#000000;fill-opacity:0;fill-rule:evenodd" />
    <path
       d="m 599.91611,16.61625 0.89063,0.21875 q -0.28125,1.09375 -1.01563,1.67187 -0.71875,0.5625 -1.75,0.5625 -1.09375,0 -1.76562,-0.4375 -0.67188,-0.4375 -1.03125,-1.26562 -0.34375,-0.84375 -0.34375,-1.79688 0,-1.04687 0.39062,-1.8125 0.40625,-0.78125 1.14063,-1.1875 0.73437,-0.40625 1.60937,-0.40625 1.01563,0 1.6875,0.51563 0.6875,0.51562 0.95313,1.4375 l -0.85938,0.20312 q -0.23437,-0.73437 -0.6875,-1.0625 -0.4375,-0.32812 -1.10937,-0.32812 -0.76563,0 -1.28125,0.375 -0.51563,0.35937 -0.73438,0.98437 -0.20312,0.625 -0.20312,1.28125 0,0.84375 0.25,1.48438 0.25,0.64062 0.76562,0.95312 0.53125,0.3125 1.14063,0.3125 0.73437,0 1.25,-0.42187 0.51562,-0.4375 0.70312,-1.28125 z m 5.95526,1.5625 V 18.96 h -4.42187 q -0.0156,-0.29688 0.0937,-0.5625 0.17187,-0.45313 0.53125,-0.89063 0.375,-0.4375 1.07812,-1.01562 1.09375,-0.89063 1.46875,-1.40625 0.39063,-0.53125 0.39063,-1 0,-0.48438 -0.35938,-0.8125 -0.34375,-0.34375 -0.89062,-0.34375 -0.59375,0 -0.95313,0.35937 -0.35937,0.35938 -0.35937,0.98438 l -0.84375,-0.0781 q 0.0937,-0.95312 0.65625,-1.4375 0.5625,-0.5 1.51562,-0.5 0.95313,0 1.51563,0.53125 0.5625,0.53125 0.5625,1.32813 0,0.39062 -0.17188,0.78125 -0.15625,0.39062 -0.54687,0.82812 -0.375,0.42188 -1.25,1.15625 -0.73438,0.625 -0.95313,0.84375 -0.20312,0.21875 -0.34375,0.45313 z"
       id="path245"
       inkscape:connector-curvature="0"
       style="fill:#000000;fill-rule:nonzero" />
    <path
       d="M 603.68374,25.59842 V 87.01575"
       id="path247"
       inkscape:connector-curvature="0"
       style="fill:#000000;fill-opacity:0;fill-rule:evenodd" />
    <path
       d="M 603.68374,29.02552 V 87.01575"
       id="path249"
       inkscape:connector-curvature="0"
       style="fill-rule:evenodd;stroke:#000000;stroke-width:1;stroke-linecap:butt;stroke-linejoin:round" />
    <path
       d="m 603.68374,29.02552 1.12457,1.12459 -1.12457,-3.08977 -1.12457,3.08977 z"
       id="path251"
       inkscape:connector-curvature="0"
       style="fill:#000000;fill-rule:evenodd;stroke:#000000;stroke-width:1;stroke-linecap:butt" />
    <path
       d="m 577.1824,86.26903 v 0 c 0,-4.55743 3.69452,-8.25197 8.25195,-8.25197 v 0 c 2.1886,0 4.28754,0.8694 5.83502,2.41695 1.54755,1.54754 2.417,3.64647 2.417,5.83502 v 0 c 0,4.55743 -3.69458,8.25197 -8.25202,8.25197 v 0 c -4.55743,0 -8.25195,-3.69454 -8.25195,-8.25197 z"
       id="path253"
       inkscape:connector-curvature="0"
       style="fill:#cfe2f3;fill-rule:evenodd" />
    <path
       d="m 577.1824,86.26903 v 0 c 0,-4.55743 3.69452,-8.25197 8.25195,-8.25197 v 0 c 2.1886,0 4.28754,0.8694 5.83502,2.41695 1.54755,1.54754 2.417,3.64647 2.417,5.83502 v 0 c 0,4.55743 -3.69458,8.25197 -8.25202,8.25197 v 0 c -4.55743,0 -8.25195,-3.69454 -8.25195,-8.25197 z"
       id="path255"
       inkscape:connector-curvature="0"
       style="fill-rule:evenodd;stroke:#000000;stroke-width:1;stroke-linecap:butt;stroke-linejoin:round" />
    <path
       d="M 585.43434,78.01706 V 94.521"
       id="path257"
       inkscape:connector-curvature="0"
       style="fill:#000000;fill-opacity:0;fill-rule:evenodd" />
    <path
       d="M 585.43434,78.01706 V 94.521"
       id="path259"
       inkscape:connector-curvature="0"
       style="fill-rule:evenodd;stroke:#000000;stroke-width:1;stroke-linecap:butt;stroke-linejoin:round" />
    <path
       d="m 577.1824,86.26903 h 16.50397"
       id="path261"
       inkscape:connector-curvature="0"
       style="fill:#000000;fill-opacity:0;fill-rule:evenodd" />
    <path
       d="m 577.1824,86.26903 h 16.50397"
       id="path263"
       inkscape:connector-curvature="0"
       style="fill-rule:evenodd;stroke:#000000;stroke-width:1;stroke-linecap:butt;stroke-linejoin:round" />
    <path
       d="m 698.68764,31.02231 h 36.50397 v 24.59842 h -36.50397 z"
       id="path265"
       inkscape:connector-curvature="0"
       style="fill:#000000;fill-opacity:0;fill-rule:evenodd" />
    <path
       d="m 708.4064,48.98232 v -6.67188 h 2.51562 q 0.67188,0 1.01563,0.0625 0.5,0.0781 0.82812,0.3125 0.32813,0.21875 0.53125,0.64063 0.20313,0.40625 0.20313,0.90625 0,0.85937 -0.54688,1.45312 -0.53125,0.57813 -1.95312,0.57813 h -1.70313 v 2.71875 z m 0.89062,-3.5 h 1.71875 q 0.85938,0 1.21875,-0.3125 0.35938,-0.32813 0.35938,-0.90625 0,-0.42188 -0.21875,-0.71875 -0.20313,-0.29688 -0.54688,-0.39063 -0.23437,-0.0625 -0.82812,-0.0625 h -1.70313 z m 5.00306,1.73437 0.82812,-0.10937 q 0.14063,0.70312 0.46875,1.01562 0.34375,0.29688 0.82813,0.29688 0.57812,0 0.96875,-0.39063 0.40625,-0.40625 0.40625,-1 0,-0.5625 -0.375,-0.92187 -0.35938,-0.375 -0.92188,-0.375 -0.23437,0 -0.57812,0.0937 l 0.0781,-0.71875 q 0.0937,0 0.14063,0 0.51562,0 0.9375,-0.26563 0.42187,-0.28125 0.42187,-0.84375 0,-0.45312 -0.3125,-0.75 -0.29687,-0.29687 -0.78125,-0.29687 -0.48437,0 -0.79687,0.3125 -0.3125,0.29687 -0.40625,0.89062 l -0.82813,-0.14062 q 0.15625,-0.82813 0.6875,-1.28125 0.53125,-0.45313 1.32813,-0.45313 0.54687,0 1,0.23438 0.46875,0.23437 0.70312,0.64062 0.25,0.40625 0.25,0.85938 0,0.4375 -0.23437,0.79687 -0.23438,0.34375 -0.6875,0.5625 0.59375,0.125 0.92187,0.5625 0.32813,0.42188 0.32813,1.07813 0,0.875 -0.64063,1.48437 -0.64062,0.60938 -1.60937,0.60938 -0.875,0 -1.46875,-0.51563 -0.57813,-0.53125 -0.65625,-1.375 z"
       id="path267"
       inkscape:connector-curvature="0"
       style="fill:#000000;fill-rule:nonzero" />
    <path
       d="M 716.93961,55.62073 V 77.76247"
       id="path269"
       inkscape:connector-curvature="0"
       style="fill:#000000;fill-opacity:0;fill-rule:evenodd" />
    <path
       d="M 716.93961,55.62073 V 71.76247"
       id="path271"
       inkscape:connector-curvature="0"
       style="fill-rule:evenodd;stroke:#000000;stroke-width:1;stroke-linecap:butt;stroke-linejoin:round" />
    <path
       d="m 715.28787,71.76247 1.65173,4.5381 1.65174,-4.5381 z"
       id="path273"
       inkscape:connector-curvature="0"
       style="fill:#000000;fill-rule:evenodd;stroke:#000000;stroke-width:1;stroke-linecap:butt" />
    <path
       d="m 716.93961,1.02231 h 36.50397 v 24.59842 h -36.50397 z"
       id="path275"
       inkscape:connector-curvature="0"
       style="fill:#000000;fill-opacity:0;fill-rule:evenodd" />
    <path
       d="m 731.42398,16.63857 0.89063,0.21875 q -0.28125,1.09375 -1.01563,1.67187 -0.71875,0.5625 -1.75,0.5625 -1.09375,0 -1.76562,-0.4375 -0.67188,-0.4375 -1.03125,-1.26562 -0.34375,-0.84375 -0.34375,-1.79688 0,-1.04687 0.39062,-1.8125 0.40625,-0.78125 1.14063,-1.1875 0.73437,-0.40625 1.60937,-0.40625 1.01563,0 1.6875,0.51563 0.6875,0.51562 0.95313,1.4375 l -0.85938,0.20312 q -0.23437,-0.73437 -0.6875,-1.0625 -0.4375,-0.32812 -1.10937,-0.32812 -0.76563,0 -1.28125,0.375 -0.51563,0.35937 -0.73438,0.98437 -0.20312,0.625 -0.20312,1.28125 0,0.84375 0.25,1.48438 0.25,0.64062 0.76562,0.95312 0.53125,0.3125 1.14063,0.3125 0.73437,0 1.25,-0.42187 0.51562,-0.4375 0.70312,-1.28125 z m 1.64276,0.57812 0.82813,-0.10937 q 0.14062,0.70312 0.46875,1.01562 0.34375,0.29688 0.82812,0.29688 0.57813,0 0.96875,-0.39063 0.40625,-0.40625 0.40625,-1 0,-0.5625 -0.375,-0.92187 -0.35937,-0.375 -0.92187,-0.375 -0.23438,0 -0.57813,0.0937 l 0.0781,-0.71875 q 0.0937,0 0.14062,0 0.51563,0 0.9375,-0.26563 0.42188,-0.28125 0.42188,-0.84375 0,-0.45312 -0.3125,-0.75 -0.29688,-0.29687 -0.78125,-0.29687 -0.48438,0 -0.79688,0.3125 -0.3125,0.29687 -0.40625,0.89062 l -0.82812,-0.14062 q 0.15625,-0.82813 0.6875,-1.28125 0.53125,-0.45313 1.32812,-0.45313 0.54688,0 1,0.23438 0.46875,0.23437 0.70313,0.64062 0.25,0.40625 0.25,0.85938 0,0.4375 -0.23438,0.79687 -0.23437,0.34375 -0.6875,0.5625 0.59375,0.125 0.92188,0.5625 0.32812,0.42188 0.32812,1.07813 0,0.875 -0.64062,1.48437 -0.64063,0.60938 -1.60938,0.60938 -0.875,0 -1.46875,-0.51563 -0.57812,-0.53125 -0.65625,-1.375 z"
       id="path277"
       inkscape:connector-curvature="0"
       style="fill:#000000;fill-rule:nonzero" />
    <path
       d="M 735.19164,25.62073 V 87.03806"
       id="path279"
       inkscape:connector-curvature="0"
       style="fill:#000000;fill-opacity:0;fill-rule:evenodd" />
    <path
       d="M 735.19164,29.04782 V 87.03805"
       id="path281"
       inkscape:connector-curvature="0"
       style="fill-rule:evenodd;stroke:#000000;stroke-width:1;stroke-linecap:butt;stroke-linejoin:round" />
    <path
       d="m 735.19164,29.04782 1.12457,1.12459 -1.12457,-3.08977 -1.12457,3.08977 z"
       id="path283"
       inkscape:connector-curvature="0"
       style="fill:#000000;fill-rule:evenodd;stroke:#000000;stroke-width:1;stroke-linecap:butt" />
    <path
       d="m 708.69028,86.29134 v 0 c 0,-4.55743 3.69452,-8.25197 8.25195,-8.25197 v 0 c 2.1886,0 4.28754,0.8694 5.83502,2.41695 1.54755,1.54754 2.417,3.64647 2.417,5.83502 v 0 c 0,4.55743 -3.69458,8.25197 -8.25202,8.25197 v 0 c -4.55743,0 -8.25195,-3.69454 -8.25195,-8.25197 z"
       id="path285"
       inkscape:connector-curvature="0"
       style="fill:#cfe2f3;fill-rule:evenodd" />
    <path
       d="m 708.69028,86.29134 v 0 c 0,-4.55743 3.69452,-8.25197 8.25195,-8.25197 v 0 c 2.1886,0 4.28754,0.8694 5.83502,2.41695 1.54755,1.54754 2.417,3.64647 2.417,5.83502 v 0 c 0,4.55743 -3.69458,8.25197 -8.25202,8.25197 v 0 c -4.55743,0 -8.25195,-3.69454 -8.25195,-8.25197 z"
       id="path287"
       inkscape:connector-curvature="0"
       style="fill-rule:evenodd;stroke:#000000;stroke-width:1;stroke-linecap:butt;stroke-linejoin:round" />
    <path
       d="M 716.94224,78.03937 V 94.54331"
       id="path289"
       inkscape:connector-curvature="0"
       style="fill:#000000;fill-opacity:0;fill-rule:evenodd" />
    <path
       d="M 716.94224,78.03937 V 94.54331"
       id="path291"
       inkscape:connector-curvature="0"
       style="fill-rule:evenodd;stroke:#000000;stroke-width:1;stroke-linecap:butt;stroke-linejoin:round" />
    <path
       d="m 708.69028,86.29134 h 16.50397"
       id="path293"
       inkscape:connector-curvature="0"
       style="fill:#000000;fill-opacity:0;fill-rule:evenodd" />
    <path
       d="m 708.69028,86.29134 h 16.50397"
       id="path295"
       inkscape:connector-curvature="0"
       style="fill-rule:evenodd;stroke:#000000;stroke-width:1;stroke-linecap:butt;stroke-linejoin:round" />
    <path
       d="m 186.48294,259.021 h 36.50394 v 24.59842 h -36.50394 z"
       id="path297"
       inkscape:connector-curvature="0"
       style="fill:#000000;fill-opacity:0;fill-rule:evenodd" />
    <path
       d="m 195.87356,273.68412 q 0,-1.1875 0.23438,-1.90625 0.25,-0.71875 0.71875,-1.10938 0.48437,-0.39062 1.21875,-0.39062 0.54687,0 0.9375,0.21875 0.40625,0.21875 0.67187,0.625 0.26563,0.40625 0.40625,1 0.15625,0.57812 0.15625,1.5625 0,1.17187 -0.23437,1.90625 -0.23438,0.71875 -0.71875,1.10937 -0.48438,0.39063 -1.21875,0.39063 -0.96875,0 -1.51563,-0.6875 -0.65625,-0.82813 -0.65625,-2.71875 z m 0.84375,0 q 0,1.64062 0.375,2.1875 0.39063,0.54687 0.95313,0.54687 0.5625,0 0.95312,-0.54687 0.39063,-0.54688 0.39063,-2.1875 0,-1.64063 -0.39063,-2.1875 -0.39062,-0.54688 -0.95312,-0.54688 -0.57813,0 -0.90625,0.48438 -0.42188,0.60937 -0.42188,2.25 z m 4.81287,5.26562 v -8.76562 h 0.71875 v 8.76562 z m 2.42312,0 v -8.76562 h 0.71875 v 8.76562 z m 2.25125,-1.96875 v -6.67187 h 0.875 v 3.3125 l 3.3125,-3.3125 h 1.20313 l -2.79688,2.70312 2.92188,3.96875 h -1.17188 l -2.375,-3.375 -1.09375,1.0625 v 2.3125 z"
       id="path299"
       inkscape:connector-curvature="0"
       style="fill:#000000;fill-rule:nonzero" />
    <path
       d="M 204.73492,259.021 V 241.28873"
       id="path301"
       inkscape:connector-curvature="0"
       style="fill:#000000;fill-opacity:0;fill-rule:evenodd" />
    <path
       d="M 204.73492,259.021 V 247.28873"
       id="path303"
       inkscape:connector-curvature="0"
       style="fill-rule:evenodd;stroke:#000000;stroke-width:1;stroke-linecap:butt;stroke-linejoin:round" />
    <path
       d="m 206.38664,247.28873 -1.6517,-4.53812 -1.65174,4.53812 z"
       id="path305"
       inkscape:connector-curvature="0"
       style="fill:#000000;fill-rule:evenodd;stroke:#000000;stroke-width:1;stroke-linecap:butt" />
    <path
       d="m 436.48294,259.021 h 36.50397 v 24.59842 h -36.50397 z"
       id="path307"
       inkscape:connector-curvature="0"
       style="fill:#000000;fill-opacity:0;fill-rule:evenodd" />
    <path
       d="m 445.87354,273.68412 q 0,-1.1875 0.23437,-1.90625 0.25,-0.71875 0.71875,-1.10938 0.48438,-0.39062 1.21875,-0.39062 0.54688,0 0.9375,0.21875 0.40625,0.21875 0.67188,0.625 0.26562,0.40625 0.40625,1 0.15625,0.57812 0.15625,1.5625 0,1.17187 -0.23438,1.90625 -0.23437,0.71875 -0.71875,1.10937 -0.48437,0.39063 -1.21875,0.39063 -0.96875,0 -1.51562,-0.6875 -0.65625,-0.82813 -0.65625,-2.71875 z m 0.84375,0 q 0,1.64062 0.375,2.1875 0.39062,0.54687 0.95312,0.54687 0.5625,0 0.95313,-0.54687 0.39062,-0.54688 0.39062,-2.1875 0,-1.64063 -0.39062,-2.1875 -0.39063,-0.54688 -0.95313,-0.54688 -0.57812,0 -0.90625,0.48438 -0.42187,0.60937 -0.42187,2.25 z m 4.81287,5.26562 v -8.76562 h 0.71875 v 8.76562 z m 2.42309,0 v -8.76562 h 0.71875 v 8.76562 z m 5.03253,-1.96875 h -0.8125 v -5.21875 q -0.29687,0.28125 -0.78125,0.5625 -0.48437,0.28125 -0.85937,0.42188 v -0.79688 q 0.6875,-0.32812 1.20312,-0.78125 0.51563,-0.45312 0.73438,-0.89062 h 0.51562 z"
       id="path309"
       inkscape:connector-curvature="0"
       style="fill:#000000;fill-rule:nonzero" />
    <path
       d="m 454.73489,259.021 -0.47241,-17.73227"
       id="path311"
       inkscape:connector-curvature="0"
       style="fill:#000000;fill-opacity:0;fill-rule:evenodd" />
    <path
       d="m 454.73489,259.021 -0.31262,-11.73441"
       id="path313"
       inkscape:connector-curvature="0"
       style="fill-rule:evenodd;stroke:#000000;stroke-width:1;stroke-linecap:butt;stroke-linejoin:round" />
    <path
       d="m 456.07339,247.2426 -1.77197,-4.49249 -1.53028,4.58047 z"
       id="path315"
       inkscape:connector-curvature="0"
       style="fill:#000000;fill-rule:evenodd;stroke:#000000;stroke-width:1;stroke-linecap:butt" />
    <path
       d="m 714.87134,231.98163 v 0 c 0,-4.55743 3.69458,-8.25198 8.25201,-8.25198 v 0 c 2.18854,0 4.28748,0.86941 5.83503,2.41696 1.54754,1.54754 2.41693,3.64645 2.41693,5.83502 v 0 c 0,4.55743 -3.69452,8.25195 -8.25196,8.25195 v 0 c -4.55743,0 -8.25201,-3.69452 -8.25201,-8.25195 z"
       id="path317"
       inkscape:connector-curvature="0"
       style="fill:#cfe2f3;fill-rule:evenodd" />
    <path
       d="m 714.87134,231.98163 v 0 c 0,-4.55743 3.69458,-8.25198 8.25201,-8.25198 v 0 c 2.18854,0 4.28748,0.86941 5.83503,2.41696 1.54754,1.54754 2.41693,3.64645 2.41693,5.83502 v 0 c 0,4.55743 -3.69452,8.25195 -8.25196,8.25195 v 0 c -4.55743,0 -8.25201,-3.69452 -8.25201,-8.25195 z"
       id="path319"
       inkscape:connector-curvature="0"
       style="fill-rule:evenodd;stroke:#000000;stroke-width:1;stroke-linecap:butt;stroke-linejoin:round" />
    <path
       d="m 723.12338,223.72965 v 16.50394"
       id="path321"
       inkscape:connector-curvature="0"
       style="fill:#000000;fill-opacity:0;fill-rule:evenodd" />
    <path
       d="m 723.12338,223.72965 v 16.50394"
       id="path323"
       inkscape:connector-curvature="0"
       style="fill-rule:evenodd;stroke:#000000;stroke-width:1;stroke-linecap:butt;stroke-linejoin:round" />
    <path
       d="m 714.87134,231.98163 h 16.50397"
       id="path325"
       inkscape:connector-curvature="0"
       style="fill:#000000;fill-opacity:0;fill-rule:evenodd" />
    <path
       d="m 714.87134,231.98163 h 16.50397"
       id="path327"
       inkscape:connector-curvature="0"
       style="fill-rule:evenodd;stroke:#000000;stroke-width:1;stroke-linecap:butt;stroke-linejoin:round" />
    <path
       d="m 705.35434,257.98163 h 36.50391 v 24.59842 h -36.50391 z"
       id="path329"
       inkscape:connector-curvature="0"
       style="fill:#000000;fill-opacity:0;fill-rule:evenodd" />
    <path
       d="m 715.04184,275.94162 v -6.67188 h 0.875 v 3.3125 l 3.3125,-3.3125 h 1.20312 l -2.79687,2.70313 2.92187,3.96875 h -1.17187 l -2.375,-3.375 -1.09375,1.0625 v 2.3125 z m 6.39368,1.96875 v -8.76563 h 0.71875 v 8.76563 z m 2.42309,0 v -8.76563 h 0.71875 v 8.76563 z m 1.95441,-5.26563 q 0,-1.1875 0.23437,-1.90625 0.25,-0.71875 0.71875,-1.10937 0.48438,-0.39063 1.21875,-0.39063 0.54688,0 0.9375,0.21875 0.40625,0.21875 0.67188,0.625 0.26562,0.40625 0.40625,1 0.15625,0.57813 0.15625,1.5625 0,1.17188 -0.23438,1.90625 -0.23437,0.71875 -0.71875,1.10938 -0.48437,0.39062 -1.21875,0.39062 -0.96875,0 -1.51562,-0.6875 -0.65625,-0.82812 -0.65625,-2.71875 z m 0.84375,0 q 0,1.64063 0.375,2.1875 0.39062,0.54688 0.95312,0.54688 0.5625,0 0.95313,-0.54688 0.39062,-0.54687 0.39062,-2.1875 0,-1.64062 -0.39062,-2.1875 -0.39063,-0.54687 -0.95313,-0.54687 -0.57812,0 -0.90625,0.48437 -0.42187,0.60938 -0.42187,2.25 z"
       id="path331"
       inkscape:connector-curvature="0"
       style="fill:#000000;fill-rule:nonzero" />
    <path
       d="m 723.60629,257.98163 -0.47241,-17.7323"
       id="path333"
       inkscape:connector-curvature="0"
       style="fill:#000000;fill-opacity:0;fill-rule:evenodd" />
    <path
       d="m 723.60629,257.98163 -0.31268,-11.73441"
       id="path335"
       inkscape:connector-curvature="0"
       style="fill-rule:evenodd;stroke:#000000;stroke-width:1;stroke-linecap:butt;stroke-linejoin:round" />
    <path
       d="m 724.94479,246.20322 -1.77197,-4.49249 -1.53034,4.58047 z"
       id="path337"
       inkscape:connector-curvature="0"
       style="fill:#000000;fill-rule:evenodd;stroke:#000000;stroke-width:1;stroke-linecap:butt" />
    <path
       d="m 833.86084,230.6719 h 50.48822"
       id="path339"
       inkscape:connector-curvature="0"
       style="fill:#000000;fill-opacity:0;fill-rule:evenodd" />
    <path
       d="m 833.86084,230.6719 h 44.48822"
       id="path341"
       inkscape:connector-curvature="0"
       style="fill-rule:evenodd;stroke:#000000;stroke-width:1;stroke-linecap:butt;stroke-linejoin:round" />
    <path
       d="m 878.34909,232.32364 4.53809,-1.65173 -4.53809,-1.65174 z"
       id="path343"
       inkscape:connector-curvature="0"
       style="fill:#000000;fill-rule:evenodd;stroke:#000000;stroke-width:1;stroke-linecap:butt" />
    <path
       d="m 844.96324,230.62992 v 0 c 0,-4.55743 3.69458,-8.25195 8.25201,-8.25195 v 0 c 2.18854,0 4.28748,0.86938 5.83503,2.41693 1.54754,1.54754 2.41693,3.64648 2.41693,5.83502 v 0 c 0,4.55743 -3.69452,8.25198 -8.25196,8.25198 v 0 c -4.55743,0 -8.25201,-3.69455 -8.25201,-8.25198 z"
       id="path345"
       inkscape:connector-curvature="0"
       style="fill:#cfe2f3;fill-rule:evenodd" />
    <path
       d="m 844.96324,230.62992 v 0 c 0,-4.55743 3.69458,-8.25195 8.25201,-8.25195 v 0 c 2.18854,0 4.28748,0.86938 5.83503,2.41693 1.54754,1.54754 2.41693,3.64648 2.41693,5.83502 v 0 c 0,4.55743 -3.69452,8.25198 -8.25196,8.25198 v 0 c -4.55743,0 -8.25201,-3.69455 -8.25201,-8.25198 z"
       id="path347"
       inkscape:connector-curvature="0"
       style="fill-rule:evenodd;stroke:#000000;stroke-width:1;stroke-linecap:butt;stroke-linejoin:round" />
    <path
       d="M 853.21524,222.37796 V 238.8819"
       id="path349"
       inkscape:connector-curvature="0"
       style="fill:#000000;fill-opacity:0;fill-rule:evenodd" />
    <path
       d="M 853.21524,222.37796 V 238.8819"
       id="path351"
       inkscape:connector-curvature="0"
       style="fill-rule:evenodd;stroke:#000000;stroke-width:1;stroke-linecap:butt;stroke-linejoin:round" />
    <path
       d="m 844.96324,230.62992 h 16.50397"
       id="path353"
       inkscape:connector-curvature="0"
       style="fill:#000000;fill-opacity:0;fill-rule:evenodd" />
    <path
       d="m 844.96324,230.62992 h 16.50397"
       id="path355"
       inkscape:connector-curvature="0"
       style="fill-rule:evenodd;stroke:#000000;stroke-width:1;stroke-linecap:butt;stroke-linejoin:round" />
    <path
       d="m 835.4462,256.62992 h 36.50391 v 24.59842 H 835.4462 Z"
       id="path357"
       inkscape:connector-curvature="0"
       style="fill:#000000;fill-opacity:0;fill-rule:evenodd" />
    <path
       d="m 845.1337,274.5899 v -6.67188 h 0.875 v 3.3125 l 3.3125,-3.3125 h 1.20312 l -2.79687,2.70313 2.92187,3.96875 h -1.17187 l -2.375,-3.375 -1.09375,1.0625 v 2.3125 z"
       id="path359"
       inkscape:connector-curvature="0"
       style="fill:#000000;fill-rule:nonzero" />
    <path
       d="m 853.69814,256.62992 -0.47241,-17.73227"
       id="path361"
       inkscape:connector-curvature="0"
       style="fill:#000000;fill-opacity:0;fill-rule:evenodd" />
    <path
       d="m 853.69814,256.62992 -0.31262,-11.73441"
       id="path363"
       inkscape:connector-curvature="0"
       style="fill-rule:evenodd;stroke:#000000;stroke-width:1;stroke-linecap:butt;stroke-linejoin:round" />
    <path
       d="m 855.03664,244.8515 -1.77197,-4.49249 -1.53028,4.5805 z"
       id="path365"
       inkscape:connector-curvature="0"
       style="fill:#000000;fill-rule:evenodd;stroke:#000000;stroke-width:1;stroke-linecap:butt" />
    <path
       d="m 878.98428,213.521 h 18.99206 v 24.59842 h -18.99206 z"
       id="path367"
       inkscape:connector-curvature="0"
       style="fill:#000000;fill-opacity:0;fill-rule:evenodd" />
    <path
       d="m 890.40614,231.481 v -5.89063 h -2.2031 v -0.78125 h 5.2968 v 0.78125 h -2.2187 v 5.89063 z"
       id="path369"
       inkscape:connector-curvature="0"
       style="fill:#000000;fill-rule:nonzero" />
  </g>
</svg>
