<?xml version="1.0" encoding="UTF-8" standalone="no"?>
<svg
   xmlns:dc="http://purl.org/dc/elements/1.1/"
   xmlns:cc="http://creativecommons.org/ns#"
   xmlns:rdf="http://www.w3.org/1999/02/22-rdf-syntax-ns#"
   xmlns:svg="http://www.w3.org/2000/svg"
   xmlns="http://www.w3.org/2000/svg"
   xmlns:sodipodi="http://sodipodi.sourceforge.net/DTD/sodipodi-0.dtd"
   xmlns:inkscape="http://www.inkscape.org/namespaces/inkscape"
   version="1.1"
   viewBox="0 0 778.90814 514.479"
   stroke-miterlimit="10"
   id="svg331"
   sodipodi:docname="duplex.svg"
   width="778.90814"
   height="514.479"
   style="fill:none;stroke:none;stroke-linecap:square;stroke-miterlimit:10"
   inkscape:version="0.92.5 (2060ec1f9f, 2020-04-08)">
  <metadata
     id="metadata337">
    <rdf:RDF>
      <cc:Work
         rdf:about="">
        <dc:format>image/svg+xml</dc:format>
        <dc:type
           rdf:resource="http://purl.org/dc/dcmitype/StillImage" />
        <dc:title></dc:title>
      </cc:Work>
    </rdf:RDF>
  </metadata>
  <defs
     id="defs335" />
  <sodipodi:namedview
     pagecolor="#ffffff"
     bordercolor="#666666"
     borderopacity="1"
     objecttolerance="10"
     gridtolerance="10"
     guidetolerance="10"
     inkscape:pageopacity="0"
     inkscape:pageshadow="2"
     inkscape:window-width="2488"
     inkscape:window-height="1376"
     id="namedview333"
     showgrid="false"
     fit-margin-top="1"
     fit-margin-right="1"
     fit-margin-bottom="1"
     fit-margin-left="1"
     inkscape:zoom="0.92709556"
     inkscape:cx="796.82786"
     inkscape:cy="207.19875"
     inkscape:window-x="1992"
     inkscape:window-y="27"
     inkscape:window-maximized="1"
     inkscape:current-layer="svg331" />
  <clipPath
     id="p.0">
    <path
       d="M 0,0 H 960 V 720 H 0 Z"
       id="path2"
       inkscape:connector-curvature="0"
       style="clip-rule:nonzero" />
  </clipPath>
  <g
     id="g662">
    <path
       d="M 88.978998,16.06299 H 191.30972 V 249.48032 H 88.978998 Z"
       id="path7"
       inkscape:connector-curvature="0"
       style="fill:#cfe2f3;fill-rule:evenodd" />
    <path
       d="M 88.978998,16.06299 H 191.30972 V 249.48032 H 88.978998 Z"
       id="path9"
       inkscape:connector-curvature="0"
       style="fill-rule:evenodd;stroke:#000000;stroke-width:1;stroke-linecap:butt;stroke-linejoin:round" />
    <path
       d="m 134.71945,139.69165 2.79687,-13.35938 h 5.57813 q 1.45312,0 2.17187,0.34375 0.71875,0.32813 1.1875,1.14063 0.48438,0.79687 0.48438,1.79687 0,0.82813 -0.34375,1.6875 -0.32813,0.85938 -0.84375,1.42188 -0.51563,0.54687 -1.04688,0.82812 -0.53125,0.28125 -1.125,0.42188 -1.28125,0.29687 -2.59375,0.29687 h -3.34375 l -1.125,5.42188 z m 3.23437,-6.9375 h 2.95313 q 1.70312,0 2.5,-0.35938 0.8125,-0.375 1.29687,-1.125 0.48438,-0.76562 0.48438,-1.60937 0,-0.65625 -0.26563,-1.0625 -0.25,-0.42188 -0.71875,-0.60938 -0.46875,-0.20312 -1.78125,-0.20312 h -3.42187 z"
       id="path11"
       inkscape:connector-curvature="0"
       style="fill:#000000;fill-rule:nonzero" />
    <path
       d="M 289.01837,16.06299 H 391.34906 V 249.48032 H 289.01837 Z"
       id="path13"
       inkscape:connector-curvature="0"
       style="fill:#cfe2f3;fill-rule:evenodd" />
    <path
       d="M 289.01837,16.06299 H 391.34906 V 249.48032 H 289.01837 Z"
       id="path15"
       inkscape:connector-curvature="0"
       style="fill-rule:evenodd;stroke:#000000;stroke-width:1;stroke-linecap:butt;stroke-linejoin:round" />
    <path
       d="m 334.75883,139.69165 2.79687,-13.35938 h 5.57813 q 1.45312,0 2.17187,0.34375 0.71875,0.32813 1.1875,1.14063 0.48438,0.79687 0.48438,1.79687 0,0.82813 -0.34375,1.6875 -0.32813,0.85938 -0.84375,1.42188 -0.51563,0.54687 -1.04688,0.82812 -0.53125,0.28125 -1.125,0.42188 -1.28125,0.29687 -2.59375,0.29687 h -3.34375 l -1.125,5.42188 z m 3.23437,-6.9375 h 2.95313 q 1.70312,0 2.5,-0.35938 0.8125,-0.375 1.29687,-1.125 0.48438,-0.76562 0.48438,-1.60937 0,-0.65625 -0.26563,-1.0625 -0.25,-0.42188 -0.71875,-0.60938 -0.46875,-0.20312 -1.78125,-0.20312 h -3.42187 z"
       id="path17"
       inkscape:connector-curvature="0"
       style="fill:#000000;fill-rule:nonzero" />
    <path
       d="M 489.05772,16.06299 H 591.38847 V 249.48032 H 489.05772 Z"
       id="path19"
       inkscape:connector-curvature="0"
       style="fill:#cfe2f3;fill-rule:evenodd" />
    <path
       d="M 489.05772,16.06299 H 591.38847 V 249.48032 H 489.05772 Z"
       id="path21"
       inkscape:connector-curvature="0"
       style="fill-rule:evenodd;stroke:#000000;stroke-width:1;stroke-linecap:butt;stroke-linejoin:round" />
    <path
       d="m 534.79817,139.69165 2.79688,-13.35938 h 5.57812 q 1.45313,0 2.17188,0.34375 0.71875,0.32813 1.1875,1.14063 0.48437,0.79687 0.48437,1.79687 0,0.82813 -0.34375,1.6875 -0.32812,0.85938 -0.84375,1.42188 -0.51562,0.54687 -1.04687,0.82812 -0.53125,0.28125 -1.125,0.42188 -1.28125,0.29687 -2.59375,0.29687 h -3.34375 l -1.125,5.42188 z m 3.23438,-6.9375 h 2.95312 q 1.70313,0 2.5,-0.35938 0.8125,-0.375 1.29688,-1.125 0.48437,-0.76562 0.48437,-1.60937 0,-0.65625 -0.26562,-1.0625 -0.25,-0.42188 -0.71875,-0.60938 -0.46875,-0.20312 -1.78125,-0.20312 h -3.42188 z"
       id="path23"
       inkscape:connector-curvature="0"
       style="fill:#000000;fill-rule:nonzero" />
    <path
       d="M 1,55.5643 H 38.700783 V 97.58005 H 1 Z"
       id="path25"
       inkscape:connector-curvature="0"
       style="fill:#000000;fill-opacity:0;fill-rule:evenodd" />
    <path
       d="M 11.359378,82.4843 V 69.12492 h 1.78125 v 6.625 l 6.625,-6.625 h 2.390625 l -5.59375,5.42188 5.84375,7.9375 h -2.328125 l -4.765625,-6.76563 -2.171875,2.14063 v 4.625 z"
       id="path27"
       inkscape:connector-curvature="0"
       style="fill:#000000;fill-rule:nonzero" />
    <path
       d="M 1,158.98425 H 38.700783 V 201 H 1 Z"
       id="path29"
       inkscape:connector-curvature="0"
       style="fill:#000000;fill-opacity:0;fill-rule:evenodd" />
    <path
       d="m 11.421878,185.90424 v -13.35937 h 1.8125 l 7.015625,10.48437 v -10.48437 h 1.6875 v 13.35937 h -1.8125 l -7.015625,-10.5 v 10.5 z"
       id="path31"
       inkscape:connector-curvature="0"
       style="fill:#000000;fill-rule:nonzero" />
    <path
       d="M 38.700783,76.57217 89.881888,77.1076"
       id="path33"
       inkscape:connector-curvature="0"
       style="fill:#000000;fill-opacity:0;fill-rule:evenodd" />
    <path
       d="m 38.700783,76.57217 45.181425,0.47267"
       id="path35"
       inkscape:connector-curvature="0"
       style="fill-rule:evenodd;stroke:#000000;stroke-width:1;stroke-linecap:butt;stroke-linejoin:round" />
    <path
       d="m 83.864938,78.69649 4.55513,-1.60417 -4.52057,-1.69911 z"
       id="path37"
       inkscape:connector-curvature="0"
       style="fill:#000000;fill-rule:evenodd;stroke:#000000;stroke-width:1;stroke-linecap:butt" />
    <path
       d="m 38.700783,179.99213 50.456695,0.25195"
       id="path39"
       inkscape:connector-curvature="0"
       style="fill:#000000;fill-opacity:0;fill-rule:evenodd" />
    <path
       d="m 38.700783,179.99213 44.456765,0.22202"
       id="path41"
       inkscape:connector-curvature="0"
       style="fill-rule:evenodd;stroke:#000000;stroke-width:1;stroke-linecap:butt;stroke-linejoin:round" />
    <path
       d="m 83.149298,181.86584 4.54629,-1.62906 -4.52978,-1.67438 z"
       id="path43"
       inkscape:connector-curvature="0"
       style="fill:#000000;fill-rule:evenodd;stroke:#000000;stroke-width:1;stroke-linecap:butt" />
    <path
       d="m 226.14829,76.83989 v 0 c 0,-7.74068 6.27505,-14.01575 14.01575,-14.01575 v 0 c 3.71719,0 7.28216,1.47666 9.91064,4.10512 2.62845,2.62846 4.1051,6.19342 4.1051,9.91063 v 0 c 0,7.74069 -6.27505,14.01575 -14.01574,14.01575 v 0 c -7.74069,0 -14.01575,-6.27506 -14.01575,-14.01575 z"
       id="path45"
       inkscape:connector-curvature="0"
       style="fill:#cfe2f3;fill-rule:evenodd" />
    <path
       d="M 240.16404,62.82414 V 90.85563 M 226.14829,76.83989 h 28.0315"
       id="path47"
       inkscape:connector-curvature="0"
       style="fill:#000000;fill-opacity:0;fill-rule:evenodd" />
    <path
       d="m 226.14829,76.83989 v 0 c 0,-7.74068 6.27505,-14.01575 14.01575,-14.01575 v 0 c 3.71719,0 7.28216,1.47666 9.91064,4.10512 2.62845,2.62846 4.1051,6.19342 4.1051,9.91063 v 0 c 0,7.74069 -6.27505,14.01575 -14.01574,14.01575 v 0 c -7.74069,0 -14.01575,-6.27506 -14.01575,-14.01575 z"
       id="path49"
       inkscape:connector-curvature="0"
       style="fill:#000000;fill-opacity:0;fill-rule:evenodd" />
    <path
       d="M 240.16404,62.82414 V 90.85563 M 226.14829,76.83989 h 28.0315"
       id="path51"
       inkscape:connector-curvature="0"
       style="fill-rule:evenodd;stroke:#000000;stroke-width:1;stroke-linecap:butt;stroke-linejoin:round" />
    <path
       d="m 226.14829,76.83989 v 0 c 0,-7.74068 6.27505,-14.01575 14.01575,-14.01575 v 0 c 3.71719,0 7.28216,1.47666 9.91064,4.10512 2.62845,2.62846 4.1051,6.19342 4.1051,9.91063 v 0 c 0,7.74069 -6.27505,14.01575 -14.01574,14.01575 v 0 c -7.74069,0 -14.01575,-6.27506 -14.01575,-14.01575 z"
       id="path53"
       inkscape:connector-curvature="0"
       style="fill-rule:evenodd;stroke:#000000;stroke-width:1;stroke-linecap:butt;stroke-linejoin:round" />
    <path
       d="m 191.62861,76.99738 34.51968,-0.15749"
       id="path55"
       inkscape:connector-curvature="0"
       style="fill:#000000;fill-opacity:0;fill-rule:evenodd" />
    <path
       d="m 191.62861,76.99738 28.51975,-0.13011"
       id="path57"
       inkscape:connector-curvature="0"
       style="fill-rule:evenodd;stroke:#000000;stroke-width:1;stroke-linecap:butt;stroke-linejoin:round" />
    <path
       d="m 220.15589,78.51898 4.53052,-1.67242 -4.5456,-1.63102 z"
       id="path59"
       inkscape:connector-curvature="0"
       style="fill:#000000;fill-rule:evenodd;stroke:#000000;stroke-width:1;stroke-linecap:butt" />
    <path
       d="m 254.17979,76.83989 34.96063,0.15749"
       id="path61"
       inkscape:connector-curvature="0"
       style="fill:#000000;fill-opacity:0;fill-rule:evenodd" />
    <path
       d="m 254.17979,76.83989 28.96069,0.13046"
       id="path63"
       inkscape:connector-curvature="0"
       style="fill-rule:evenodd;stroke:#000000;stroke-width:1;stroke-linecap:butt;stroke-linejoin:round" />
    <path
       d="m 283.13304,78.62207 4.5455,-1.63129 -4.53061,-1.67215 z"
       id="path65"
       inkscape:connector-curvature="0"
       style="fill:#000000;fill-rule:evenodd;stroke:#000000;stroke-width:1;stroke-linecap:butt" />
    <path
       d="m 209.97497,1 h 60.37796 v 42.01575 h -60.37796 z"
       id="path67"
       inkscape:connector-curvature="0"
       style="fill:#000000;fill-opacity:0;fill-rule:evenodd" />
    <path
       d="m 223.53974,27.92 5.125,-13.35938 h 1.90625 L 236.03974,27.92 h -2.01563 l -1.54687,-4.04688 h -5.59375 L 225.41474,27.92 Z m 3.85937,-5.48438 h 4.53125 l -1.40625,-3.70312 q -0.625,-1.6875 -0.9375,-2.76563 -0.26562,1.28125 -0.71875,2.54688 z m 9.88108,9.1875 v -17.0625 h 3.60937 V 15.92 h -1.96875 v 14.34375 h 1.96875 v 1.35937 z m 4.69894,-10.29687 q 0,-2.35938 0.48438,-3.79688 0.48437,-1.45312 1.4375,-2.23437 0.96875,-0.78125 2.42187,-0.78125 1.07813,0 1.89063,0.4375 0.8125,0.42187 1.32812,1.25 0.53125,0.8125 0.82813,1.98437 0.3125,1.15625 0.3125,3.14063 0,2.35937 -0.48438,3.8125 -0.48437,1.4375 -1.45312,2.23437 -0.95313,0.78125 -2.42188,0.78125 -1.92187,0 -3.03125,-1.39062 -1.3125,-1.67188 -1.3125,-5.4375 z m 1.67188,0 q 0,3.29687 0.76562,4.39062 0.78125,1.07813 1.90625,1.07813 1.14063,0 1.90625,-1.09375 0.76563,-1.09375 0.76563,-4.375 0,-3.29688 -0.76563,-4.375 -0.76562,-1.07813 -1.92187,-1.07813 -1.125,0 -1.79688,0.95313 -0.85937,1.21875 -0.85937,4.5 z m 11.89132,10.29687 h -3.60937 v -1.35937 h 1.96875 V 15.92 h -1.96875 v -1.35938 h 3.60937 z"
       id="path69"
       inkscape:connector-curvature="0"
       style="fill:#000000;fill-rule:nonzero" />
    <path
       d="M 240.16395,43.01575 V 62.82677"
       id="path71"
       inkscape:connector-curvature="0"
       style="fill:#000000;fill-opacity:0;fill-rule:evenodd" />
    <path
       d="M 240.16395,43.01575 V 56.82677"
       id="path73"
       inkscape:connector-curvature="0"
       style="fill-rule:evenodd;stroke:#000000;stroke-width:1;stroke-linecap:butt;stroke-linejoin:round" />
    <path
       d="m 238.51222,56.82677 1.65173,4.5381 1.65174,-4.5381 z"
       id="path75"
       inkscape:connector-curvature="0"
       style="fill:#000000;fill-rule:evenodd;stroke:#000000;stroke-width:1;stroke-linecap:butt" />
    <path
       d="m 192.14698,181.5013 97.51181,-0.50394"
       id="path77"
       inkscape:connector-curvature="0"
       style="fill:#000000;fill-opacity:0;fill-rule:evenodd" />
    <path
       d="m 192.14698,181.5013 91.5119,-0.47293"
       id="path79"
       inkscape:connector-curvature="0"
       style="fill-rule:evenodd;stroke:#000000;stroke-width:1;stroke-linecap:butt;stroke-linejoin:round" />
    <path
       d="m 283.6674,182.68008 4.52951,-1.67514 -4.54657,-1.62827 z"
       id="path81"
       inkscape:connector-curvature="0"
       style="fill:#000000;fill-rule:evenodd;stroke:#000000;stroke-width:1;stroke-linecap:butt" />
    <path
       d="m 424.9672,76.83989 v 0 c 0,-7.74068 6.27505,-14.01575 14.01575,-14.01575 v 0 c 3.71719,0 7.28216,1.47666 9.91061,4.10512 2.62848,2.62846 4.10513,6.19342 4.10513,9.91063 v 0 c 0,7.74069 -6.27508,14.01575 -14.01574,14.01575 v 0 c -7.7407,0 -14.01575,-6.27506 -14.01575,-14.01575 z"
       id="path83"
       inkscape:connector-curvature="0"
       style="fill:#cfe2f3;fill-rule:evenodd" />
    <path
       d="M 438.98295,62.82414 V 90.85563 M 424.9672,76.83989 h 28.0315"
       id="path85"
       inkscape:connector-curvature="0"
       style="fill:#000000;fill-opacity:0;fill-rule:evenodd" />
    <path
       d="m 424.9672,76.83989 v 0 c 0,-7.74068 6.27505,-14.01575 14.01575,-14.01575 v 0 c 3.71719,0 7.28216,1.47666 9.91061,4.10512 2.62848,2.62846 4.10513,6.19342 4.10513,9.91063 v 0 c 0,7.74069 -6.27508,14.01575 -14.01574,14.01575 v 0 c -7.7407,0 -14.01575,-6.27506 -14.01575,-14.01575 z"
       id="path87"
       inkscape:connector-curvature="0"
       style="fill:#000000;fill-opacity:0;fill-rule:evenodd" />
    <path
       d="M 438.98295,62.82414 V 90.85563 M 424.9672,76.83989 h 28.0315"
       id="path89"
       inkscape:connector-curvature="0"
       style="fill-rule:evenodd;stroke:#000000;stroke-width:1;stroke-linecap:butt;stroke-linejoin:round" />
    <path
       d="m 424.9672,76.83989 v 0 c 0,-7.74068 6.27505,-14.01575 14.01575,-14.01575 v 0 c 3.71719,0 7.28216,1.47666 9.91061,4.10512 2.62848,2.62846 4.10513,6.19342 4.10513,9.91063 v 0 c 0,7.74069 -6.27508,14.01575 -14.01574,14.01575 v 0 c -7.7407,0 -14.01575,-6.27506 -14.01575,-14.01575 z"
       id="path91"
       inkscape:connector-curvature="0"
       style="fill-rule:evenodd;stroke:#000000;stroke-width:1;stroke-linecap:butt;stroke-linejoin:round" />
    <path
       d="M 390.44752,76.99738 424.9672,76.83989"
       id="path93"
       inkscape:connector-curvature="0"
       style="fill:#000000;fill-opacity:0;fill-rule:evenodd" />
    <path
       d="m 390.44752,76.99738 28.51974,-0.13011"
       id="path95"
       inkscape:connector-curvature="0"
       style="fill-rule:evenodd;stroke:#000000;stroke-width:1;stroke-linecap:butt;stroke-linejoin:round" />
    <path
       d="m 418.9748,78.51898 4.53052,-1.67242 -4.5456,-1.63102 z"
       id="path97"
       inkscape:connector-curvature="0"
       style="fill:#000000;fill-rule:evenodd;stroke:#000000;stroke-width:1;stroke-linecap:butt" />
    <path
       d="m 452.9987,76.83989 34.96063,0.15749"
       id="path99"
       inkscape:connector-curvature="0"
       style="fill:#000000;fill-opacity:0;fill-rule:evenodd" />
    <path
       d="m 452.9987,76.83989 28.96063,0.13046"
       id="path101"
       inkscape:connector-curvature="0"
       style="fill-rule:evenodd;stroke:#000000;stroke-width:1;stroke-linecap:butt;stroke-linejoin:round" />
    <path
       d="m 481.95197,78.62207 4.54547,-1.63129 -4.53058,-1.67215 z"
       id="path103"
       inkscape:connector-curvature="0"
       style="fill:#000000;fill-rule:evenodd;stroke:#000000;stroke-width:1;stroke-linecap:butt" />
    <path
       d="m 408.57497,1 h 60.37796 v 42.01575 h -60.37796 z"
       id="path105"
       inkscape:connector-curvature="0"
       style="fill:#000000;fill-opacity:0;fill-rule:evenodd" />
    <path
       d="m 422.13975,27.92 5.125,-13.35938 H 429.171 L 434.63975,27.92 h -2.01563 l -1.54687,-4.04688 H 425.4835 L 424.01475,27.92 Z m 3.85937,-5.48438 h 4.53125 l -1.40625,-3.70312 q -0.625,-1.6875 -0.9375,-2.76563 -0.26562,1.28125 -0.71875,2.54688 z m 9.88108,9.1875 v -17.0625 h 3.60937 V 15.92 h -1.96875 v 14.34375 h 1.96875 v 1.35937 z M 446.75099,27.92 h -1.64063 V 17.46687 q -0.59375,0.5625 -1.5625,1.14063 -0.95312,0.5625 -1.71875,0.84375 V 17.8575 q 1.375,-0.64063 2.40625,-1.5625 1.03125,-0.92188 1.45313,-1.78125 h 1.0625 z m 7.39135,3.70312 h -3.60937 v -1.35937 h 1.96875 V 15.92 h -1.96875 v -1.35938 h 3.60937 z"
       id="path107"
       inkscape:connector-curvature="0"
       style="fill:#000000;fill-rule:nonzero" />
    <path
       d="m 438.76397,43.01575 0.22046,19.81102"
       id="path109"
       inkscape:connector-curvature="0"
       style="fill:#000000;fill-opacity:0;fill-rule:evenodd" />
    <path
       d="m 438.76397,43.01575 0.15369,13.81139"
       id="path111"
       inkscape:connector-curvature="0"
       style="fill-rule:evenodd;stroke:#000000;stroke-width:1;stroke-linecap:butt;stroke-linejoin:round" />
    <path
       d="m 437.26603,56.84552 1.70212,4.51944 1.60113,-4.5562 z"
       id="path113"
       inkscape:connector-curvature="0"
       style="fill:#000000;fill-rule:evenodd;stroke:#000000;stroke-width:1;stroke-linecap:butt" />
    <path
       d="m 424.74671,178.98425 v 0 c 0,-7.74069 6.27509,-14.01575 14.01575,-14.01575 v 0 c 3.71722,0 7.28216,1.47666 9.91064,4.10511 2.62845,2.62847 4.1051,6.19345 4.1051,9.91064 v 0 c 0,7.74069 -6.27505,14.01575 -14.01574,14.01575 v 0 c -7.74066,0 -14.01575,-6.27506 -14.01575,-14.01575 z"
       id="path115"
       inkscape:connector-curvature="0"
       style="fill:#cfe2f3;fill-rule:evenodd" />
    <path
       d="m 438.76247,164.9685 v 28.03149 m -14.01575,-14.01574 h 28.0315"
       id="path117"
       inkscape:connector-curvature="0"
       style="fill:#000000;fill-opacity:0;fill-rule:evenodd" />
    <path
       d="m 424.74671,178.98425 v 0 c 0,-7.74069 6.27509,-14.01575 14.01575,-14.01575 v 0 c 3.71722,0 7.28216,1.47666 9.91064,4.10511 2.62845,2.62847 4.1051,6.19345 4.1051,9.91064 v 0 c 0,7.74069 -6.27505,14.01575 -14.01574,14.01575 v 0 c -7.74066,0 -14.01575,-6.27506 -14.01575,-14.01575 z"
       id="path119"
       inkscape:connector-curvature="0"
       style="fill:#000000;fill-opacity:0;fill-rule:evenodd" />
    <path
       d="m 438.76247,164.9685 v 28.03149 m -14.01575,-14.01574 h 28.0315"
       id="path121"
       inkscape:connector-curvature="0"
       style="fill-rule:evenodd;stroke:#000000;stroke-width:1;stroke-linecap:butt;stroke-linejoin:round" />
    <path
       d="m 424.74671,178.98425 v 0 c 0,-7.74069 6.27509,-14.01575 14.01575,-14.01575 v 0 c 3.71722,0 7.28216,1.47666 9.91064,4.10511 2.62845,2.62847 4.1051,6.19345 4.1051,9.91064 v 0 c 0,7.74069 -6.27505,14.01575 -14.01574,14.01575 v 0 c -7.74066,0 -14.01575,-6.27506 -14.01575,-14.01575 z"
       id="path123"
       inkscape:connector-curvature="0"
       style="fill-rule:evenodd;stroke:#000000;stroke-width:1;stroke-linecap:butt;stroke-linejoin:round" />
    <path
       d="m 390.22703,179.14172 34.51968,-0.15747"
       id="path125"
       inkscape:connector-curvature="0"
       style="fill:#000000;fill-opacity:0;fill-rule:evenodd" />
    <path
       d="m 390.22703,179.14172 28.51977,-0.1301"
       id="path127"
       inkscape:connector-curvature="0"
       style="fill-rule:evenodd;stroke:#000000;stroke-width:1;stroke-linecap:butt;stroke-linejoin:round" />
    <path
       d="m 418.75431,180.66333 4.53052,-1.67239 -4.5456,-1.63105 z"
       id="path129"
       inkscape:connector-curvature="0"
       style="fill:#000000;fill-rule:evenodd;stroke:#000000;stroke-width:1;stroke-linecap:butt" />
    <path
       d="m 452.77821,178.98425 34.96066,0.15747"
       id="path131"
       inkscape:connector-curvature="0"
       style="fill:#000000;fill-opacity:0;fill-rule:evenodd" />
    <path
       d="m 452.77821,178.98425 28.96066,0.13046"
       id="path133"
       inkscape:connector-curvature="0"
       style="fill-rule:evenodd;stroke:#000000;stroke-width:1;stroke-linecap:butt;stroke-linejoin:round" />
    <path
       d="m 481.73147,180.76642 4.54547,-1.63126 -4.53064,-1.67218 z"
       id="path135"
       inkscape:connector-curvature="0"
       style="fill:#000000;fill-rule:evenodd;stroke:#000000;stroke-width:1;stroke-linecap:butt" />
    <path
       d="m 422.511,103.14435 h 32.50394 V 145.1601 H 422.511 Z"
       id="path137"
       inkscape:connector-curvature="0"
       style="fill:#000000;fill-opacity:0;fill-rule:evenodd" />
    <path
       d="m 441.12199,128.87686 q -0.92188,0.76563 -1.76563,1.09375 -0.82812,0.3125 -1.79687,0.3125 -1.59375,0 -2.45313,-0.78125 -0.85937,-0.78125 -0.85937,-1.98437 0,-0.71875 0.32812,-1.29688 0.32813,-0.59375 0.84375,-0.9375 0.53125,-0.35937 1.1875,-0.54687 0.46875,-0.125 1.45313,-0.25 1.98437,-0.23438 2.92187,-0.5625 0.0156,-0.34375 0.0156,-0.42188 0,-1 -0.46875,-1.42187 -0.625,-0.54688 -1.875,-0.54688 -1.15625,0 -1.70313,0.40625 -0.54687,0.40625 -0.8125,1.42188 l -1.60937,-0.21875 q 0.21875,-1.01563 0.71875,-1.64063 0.5,-0.64062 1.45312,-0.98437 0.95313,-0.34375 2.1875,-0.34375 1.25,0 2.01563,0.29687 0.78125,0.28125 1.14062,0.73438 0.375,0.4375 0.51563,1.10937 0.0781,0.42188 0.0781,1.51563 v 2.1875 q 0,2.28125 0.10938,2.89062 0.10937,0.59375 0.40625,1.15625 h -1.70313 q -0.26562,-0.51562 -0.32812,-1.1875 z m -0.14063,-3.67187 q -0.89062,0.375 -2.67187,0.625 -1.01563,0.14062 -1.4375,0.32812 -0.42188,0.1875 -0.65625,0.53125 -0.21875,0.34375 -0.21875,0.78125 0,0.65625 0.5,1.09375 0.5,0.4375 1.45312,0.4375 0.9375,0 1.67188,-0.40625 0.75,-0.42187 1.09375,-1.14062 0.26562,-0.5625 0.26562,-1.64063 z"
       id="path139"
       inkscape:connector-curvature="0"
       style="fill:#000000;fill-rule:nonzero" />
    <path
       d="m 438.76297,145.1601 v 19.81103"
       id="path141"
       inkscape:connector-curvature="0"
       style="fill:#000000;fill-opacity:0;fill-rule:evenodd" />
    <path
       d="m 438.76295,145.1601 v 13.81103"
       id="path143"
       inkscape:connector-curvature="0"
       style="fill-rule:evenodd;stroke:#000000;stroke-width:1;stroke-linecap:butt;stroke-linejoin:round" />
    <path
       d="m 437.11122,158.97113 1.65173,4.53809 1.65174,-4.53809 z"
       id="path145"
       inkscape:connector-curvature="0"
       style="fill:#000000;fill-rule:evenodd;stroke:#000000;stroke-width:1;stroke-linecap:butt" />
    <path
       d="M 286.51707,279.56168 H 388.84776 V 512.97901 H 286.51707 Z"
       id="path147"
       inkscape:connector-curvature="0"
       style="fill:#cfe2f3;fill-rule:evenodd" />
    <path
       d="M 286.51707,279.56168 H 388.84776 V 512.97901 H 286.51707 Z"
       id="path149"
       inkscape:connector-curvature="0"
       style="fill-rule:evenodd;stroke:#000000;stroke-width:1;stroke-linecap:butt;stroke-linejoin:round" />
    <path
       d="m 332.25752,403.19037 2.79687,-13.35937 h 5.57813 q 1.45312,0 2.17187,0.34375 0.71875,0.32812 1.1875,1.14062 0.48438,0.79688 0.48438,1.79688 0,0.82812 -0.34375,1.6875 -0.32813,0.85937 -0.84375,1.42187 -0.51563,0.54688 -1.04688,0.82813 -0.53125,0.28125 -1.125,0.42187 -1.28125,0.29688 -2.59375,0.29688 h -3.34375 l -1.125,5.42187 z m 3.23437,-6.9375 h 2.95313 q 1.70312,0 2.5,-0.35937 0.8125,-0.375 1.29687,-1.125 0.48438,-0.76563 0.48438,-1.60938 0,-0.65625 -0.26563,-1.0625 -0.25,-0.42187 -0.71875,-0.60937 -0.46875,-0.20313 -1.78125,-0.20313 h -3.42187 z"
       id="path151"
       inkscape:connector-curvature="0"
       style="fill:#000000;fill-rule:nonzero" />
    <path
       d="M 486.55644,279.56168 H 588.88713 V 512.97901 H 486.55644 Z"
       id="path153"
       inkscape:connector-curvature="0"
       style="fill:#cfe2f3;fill-rule:evenodd" />
    <path
       d="M 486.55644,279.56168 H 588.88713 V 512.97901 H 486.55644 Z"
       id="path155"
       inkscape:connector-curvature="0"
       style="fill-rule:evenodd;stroke:#000000;stroke-width:1;stroke-linecap:butt;stroke-linejoin:round" />
    <path
       d="m 532.29687,403.19037 2.79688,-13.35937 h 5.57812 q 1.45313,0 2.17188,0.34375 0.71875,0.32812 1.1875,1.14062 0.48437,0.79688 0.48437,1.79688 0,0.82812 -0.34375,1.6875 -0.32812,0.85937 -0.84375,1.42187 -0.51562,0.54688 -1.04687,0.82813 -0.53125,0.28125 -1.125,0.42187 -1.28125,0.29688 -2.59375,0.29688 h -3.34375 l -1.125,5.42187 z m 3.23438,-6.9375 h 2.95312 q 1.70313,0 2.5,-0.35937 0.8125,-0.375 1.29688,-1.125 0.48437,-0.76563 0.48437,-1.60938 0,-0.65625 -0.26562,-1.0625 -0.25,-0.42187 -0.71875,-0.60937 Q 541.3125,391.28412 540,391.28412 h -3.42188 z"
       id="path157"
       inkscape:connector-curvature="0"
       style="fill:#000000;fill-rule:nonzero" />
    <path
       d="m 223.64697,340.3386 v 0 c 0,-7.74069 6.27506,-14.01575 14.01575,-14.01575 v 0 c 3.71719,0 7.28216,1.47666 9.91064,4.10511 2.62845,2.62847 4.1051,6.19342 4.1051,9.91064 v 0 c 0,7.74066 -6.27505,14.01572 -14.01574,14.01572 v 0 c -7.74069,0 -14.01575,-6.27506 -14.01575,-14.01572 z"
       id="path159"
       inkscape:connector-curvature="0"
       style="fill:#cfe2f3;fill-rule:evenodd" />
    <path
       d="m 237.66273,326.32285 v 28.03146 M 223.64698,340.3386 h 28.0315"
       id="path161"
       inkscape:connector-curvature="0"
       style="fill:#000000;fill-opacity:0;fill-rule:evenodd" />
    <path
       d="m 223.64697,340.3386 v 0 c 0,-7.74069 6.27506,-14.01575 14.01575,-14.01575 v 0 c 3.71719,0 7.28216,1.47666 9.91064,4.10511 2.62845,2.62847 4.1051,6.19342 4.1051,9.91064 v 0 c 0,7.74066 -6.27505,14.01572 -14.01574,14.01572 v 0 c -7.74069,0 -14.01575,-6.27506 -14.01575,-14.01572 z"
       id="path163"
       inkscape:connector-curvature="0"
       style="fill:#000000;fill-opacity:0;fill-rule:evenodd" />
    <path
       d="m 237.66273,326.32285 v 28.03146 M 223.64698,340.3386 h 28.0315"
       id="path165"
       inkscape:connector-curvature="0"
       style="fill-rule:evenodd;stroke:#000000;stroke-width:1;stroke-linecap:butt;stroke-linejoin:round" />
    <path
       d="m 223.64697,340.3386 v 0 c 0,-7.74069 6.27506,-14.01575 14.01575,-14.01575 v 0 c 3.71719,0 7.28216,1.47666 9.91064,4.10511 2.62845,2.62847 4.1051,6.19342 4.1051,9.91064 v 0 c 0,7.74066 -6.27505,14.01572 -14.01574,14.01572 v 0 c -7.74069,0 -14.01575,-6.27506 -14.01575,-14.01572 z"
       id="path167"
       inkscape:connector-curvature="0"
       style="fill-rule:evenodd;stroke:#000000;stroke-width:1;stroke-linecap:butt;stroke-linejoin:round" />
    <path
       d="m 189.1273,340.49606 34.51968,-0.15747"
       id="path169"
       inkscape:connector-curvature="0"
       style="fill:#000000;fill-opacity:0;fill-rule:evenodd" />
    <path
       d="m 189.1273,340.49606 28.51974,-0.13013"
       id="path171"
       inkscape:connector-curvature="0"
       style="fill-rule:evenodd;stroke:#000000;stroke-width:1;stroke-linecap:butt;stroke-linejoin:round" />
    <path
       d="m 217.65457,342.01767 4.53052,-1.67242 -4.5456,-1.63102 z"
       id="path173"
       inkscape:connector-curvature="0"
       style="fill:#000000;fill-rule:evenodd;stroke:#000000;stroke-width:1;stroke-linecap:butt" />
    <path
       d="m 251.67847,340.3386 34.96063,0.15747"
       id="path175"
       inkscape:connector-curvature="0"
       style="fill:#000000;fill-opacity:0;fill-rule:evenodd" />
    <path
       d="m 251.67847,340.3386 28.96069,0.13043"
       id="path177"
       inkscape:connector-curvature="0"
       style="fill-rule:evenodd;stroke:#000000;stroke-width:1;stroke-linecap:butt;stroke-linejoin:round" />
    <path
       d="m 280.63172,342.12076 4.5455,-1.63129 -4.53061,-1.67215 z"
       id="path179"
       inkscape:connector-curvature="0"
       style="fill:#000000;fill-rule:evenodd;stroke:#000000;stroke-width:1;stroke-linecap:butt" />
    <path
       d="m 207.47367,264.4987 h 60.37796 v 42.01575 h -60.37796 z"
       id="path181"
       inkscape:connector-curvature="0"
       style="fill:#000000;fill-opacity:0;fill-rule:evenodd" />
    <path
       d="M 220.91169,291.41867 V 278.0593 h 2.65625 l 3.15625,9.45312 q 0.4375,1.32813 0.64063,1.98438 0.23437,-0.73438 0.70312,-2.14063 l 3.20313,-9.29687 h 2.375 v 13.35937 h -1.70313 V 280.2468 l -3.875,11.17187 h -1.59375 l -3.85937,-11.375 v 11.375 z m 15.4158,3.70313 v -17.0625 h 3.60938 v 1.35937 h -1.96875 v 14.34375 h 1.96875 v 1.35938 z m 4.69895,-10.29688 q 0,-2.35937 0.48437,-3.79687 0.48438,-1.45313 1.4375,-2.23438 0.96875,-0.78125 2.42188,-0.78125 1.07812,0 1.89062,0.4375 0.8125,0.42188 1.32813,1.25 0.53125,0.8125 0.82812,1.98438 0.3125,1.15625 0.3125,3.14062 0,2.35938 -0.48437,3.8125 -0.48438,1.4375 -1.45313,2.23438 -0.95312,0.78125 -2.42187,0.78125 -1.92188,0 -3.03125,-1.39063 -1.3125,-1.67187 -1.3125,-5.4375 z m 1.67187,0 q 0,3.29688 0.76563,4.39063 0.78125,1.07812 1.90625,1.07812 1.14062,0 1.90625,-1.09375 0.76562,-1.09375 0.76562,-4.375 0,-3.29687 -0.76562,-4.375 -0.76563,-1.07812 -1.92188,-1.07812 -1.125,0 -1.79687,0.95312 -0.85938,1.21875 -0.85938,4.5 z m 11.89133,10.29688 h -3.60938 v -1.35938 h 1.96875 v -14.34375 h -1.96875 v -1.35937 h 3.60938 z"
       id="path183"
       inkscape:connector-curvature="0"
       style="fill:#000000;fill-rule:nonzero" />
    <path
       d="m 237.66264,306.51443 v 19.81103"
       id="path185"
       inkscape:connector-curvature="0"
       style="fill:#000000;fill-opacity:0;fill-rule:evenodd" />
    <path
       d="m 237.66264,306.51443 v 13.81103"
       id="path187"
       inkscape:connector-curvature="0"
       style="fill-rule:evenodd;stroke:#000000;stroke-width:1;stroke-linecap:butt;stroke-linejoin:round" />
    <path
       d="m 236.0109,320.32547 1.65173,4.53809 1.65174,-4.53809 z"
       id="path189"
       inkscape:connector-curvature="0"
       style="fill:#000000;fill-rule:evenodd;stroke:#000000;stroke-width:1;stroke-linecap:butt" />
    <path
       d="m 188.8084,444.74805 98.3622,-0.25201"
       id="path191"
       inkscape:connector-curvature="0"
       style="fill:#000000;fill-opacity:0;fill-rule:evenodd" />
    <path
       d="m 188.8084,444.74805 92.36223,-0.23663"
       id="path193"
       inkscape:connector-curvature="0"
       style="fill-rule:evenodd;stroke:#000000;stroke-width:1;stroke-linecap:butt;stroke-linejoin:round" />
    <path
       d="m 281.17484,446.16315 4.53387,-1.66333 -4.54232,-1.64014 z"
       id="path195"
       inkscape:connector-curvature="0"
       style="fill:#000000;fill-rule:evenodd;stroke:#000000;stroke-width:1;stroke-linecap:butt" />
    <path
       d="m 422.46589,340.3386 v 0 c 0,-7.74069 6.27506,-14.01575 14.01575,-14.01575 v 0 c 3.71719,0 7.28216,1.47666 9.91061,4.10511 2.62848,2.62847 4.10513,6.19342 4.10513,9.91064 v 0 c 0,7.74066 -6.27508,14.01572 -14.01574,14.01572 v 0 c -7.74069,0 -14.01575,-6.27506 -14.01575,-14.01572 z"
       id="path197"
       inkscape:connector-curvature="0"
       style="fill:#cfe2f3;fill-rule:evenodd" />
    <path
       d="m 436.48164,326.32285 v 28.03146 M 422.46589,340.3386 h 28.0315"
       id="path199"
       inkscape:connector-curvature="0"
       style="fill:#000000;fill-opacity:0;fill-rule:evenodd" />
    <path
       d="m 422.46589,340.3386 v 0 c 0,-7.74069 6.27506,-14.01575 14.01575,-14.01575 v 0 c 3.71719,0 7.28216,1.47666 9.91061,4.10511 2.62848,2.62847 4.10513,6.19342 4.10513,9.91064 v 0 c 0,7.74066 -6.27508,14.01572 -14.01574,14.01572 v 0 c -7.74069,0 -14.01575,-6.27506 -14.01575,-14.01572 z"
       id="path201"
       inkscape:connector-curvature="0"
       style="fill:#000000;fill-opacity:0;fill-rule:evenodd" />
    <path
       d="m 436.48164,326.32285 v 28.03146 M 422.46589,340.3386 h 28.0315"
       id="path203"
       inkscape:connector-curvature="0"
       style="fill-rule:evenodd;stroke:#000000;stroke-width:1;stroke-linecap:butt;stroke-linejoin:round" />
    <path
       d="m 422.46589,340.3386 v 0 c 0,-7.74069 6.27506,-14.01575 14.01575,-14.01575 v 0 c 3.71719,0 7.28216,1.47666 9.91061,4.10511 2.62848,2.62847 4.10513,6.19342 4.10513,9.91064 v 0 c 0,7.74066 -6.27508,14.01572 -14.01574,14.01572 v 0 c -7.74069,0 -14.01575,-6.27506 -14.01575,-14.01572 z"
       id="path205"
       inkscape:connector-curvature="0"
       style="fill-rule:evenodd;stroke:#000000;stroke-width:1;stroke-linecap:butt;stroke-linejoin:round" />
    <path
       d="m 387.94621,340.49606 34.51968,-0.15747"
       id="path207"
       inkscape:connector-curvature="0"
       style="fill:#000000;fill-opacity:0;fill-rule:evenodd" />
    <path
       d="m 387.94621,340.49606 28.51974,-0.13013"
       id="path209"
       inkscape:connector-curvature="0"
       style="fill-rule:evenodd;stroke:#000000;stroke-width:1;stroke-linecap:butt;stroke-linejoin:round" />
    <path
       d="m 416.47349,342.01767 4.53052,-1.67242 -4.5456,-1.63102 z"
       id="path211"
       inkscape:connector-curvature="0"
       style="fill:#000000;fill-rule:evenodd;stroke:#000000;stroke-width:1;stroke-linecap:butt" />
    <path
       d="m 450.49737,340.3386 34.9606,0.15747"
       id="path213"
       inkscape:connector-curvature="0"
       style="fill:#000000;fill-opacity:0;fill-rule:evenodd" />
    <path
       d="m 450.49737,340.3386 28.96066,0.13043"
       id="path215"
       inkscape:connector-curvature="0"
       style="fill-rule:evenodd;stroke:#000000;stroke-width:1;stroke-linecap:butt;stroke-linejoin:round" />
    <path
       d="m 479.4506,342.12076 4.54553,-1.63129 -4.53064,-1.67215 z"
       id="path217"
       inkscape:connector-curvature="0"
       style="fill:#000000;fill-rule:evenodd;stroke:#000000;stroke-width:1;stroke-linecap:butt" />
    <path
       d="m 406.07365,264.4987 h 60.37793 v 42.01575 h -60.37793 z"
       id="path219"
       inkscape:connector-curvature="0"
       style="fill:#000000;fill-opacity:0;fill-rule:evenodd" />
    <path
       d="M 419.5117,291.41867 V 278.0593 h 2.65625 l 3.15625,9.45312 q 0.4375,1.32813 0.64063,1.98438 0.23437,-0.73438 0.70312,-2.14063 l 3.20313,-9.29687 h 2.375 v 13.35937 h -1.70313 V 280.2468 l -3.875,11.17187 h -1.59375 l -3.85937,-11.375 v 11.375 z m 15.4158,3.70313 v -17.0625 h 3.60938 v 1.35937 h -1.96875 v 14.34375 h 1.96875 v 1.35938 z m 10.87079,-3.70313 h -1.64062 v -10.45312 q -0.59375,0.5625 -1.5625,1.14062 -0.95313,0.5625 -1.71875,0.84375 v -1.59375 q 1.375,-0.64062 2.40625,-1.5625 1.03125,-0.92187 1.45312,-1.78125 h 1.0625 z m 7.39136,3.70313 h -3.60938 v -1.35938 h 1.96875 v -14.34375 h -1.96875 v -1.35937 h 3.60938 z"
       id="path221"
       inkscape:connector-curvature="0"
       style="fill:#000000;fill-rule:nonzero" />
    <path
       d="m 436.26264,306.51443 0.22046,19.81103"
       id="path223"
       inkscape:connector-curvature="0"
       style="fill:#000000;fill-opacity:0;fill-rule:evenodd" />
    <path
       d="m 436.26264,306.51443 0.15369,13.8114"
       id="path225"
       inkscape:connector-curvature="0"
       style="fill-rule:evenodd;stroke:#000000;stroke-width:1;stroke-linecap:butt;stroke-linejoin:round" />
    <path
       d="m 434.76472,320.3442 1.70212,4.51944 1.60113,-4.55618 z"
       id="path227"
       inkscape:connector-curvature="0"
       style="fill:#000000;fill-rule:evenodd;stroke:#000000;stroke-width:1;stroke-linecap:butt" />
    <path
       d="m 422.2454,442.4829 v 0 c 0,-7.74066 6.27509,-14.01575 14.01575,-14.01575 v 0 c 3.71722,0 7.28216,1.47669 9.91064,4.10517 2.62845,2.62841 4.1051,6.19342 4.1051,9.91058 v 0 c 0,7.74072 -6.27505,14.01575 -14.01574,14.01575 v 0 c -7.74066,0 -14.01575,-6.27503 -14.01575,-14.01575 z"
       id="path229"
       inkscape:connector-curvature="0"
       style="fill:#cfe2f3;fill-rule:evenodd" />
    <path
       d="m 436.26115,428.46716 v 28.03149 M 422.2454,442.48291 h 28.0315"
       id="path231"
       inkscape:connector-curvature="0"
       style="fill:#000000;fill-opacity:0;fill-rule:evenodd" />
    <path
       d="m 422.2454,442.4829 v 0 c 0,-7.74066 6.27509,-14.01575 14.01575,-14.01575 v 0 c 3.71722,0 7.28216,1.47669 9.91064,4.10517 2.62845,2.62841 4.1051,6.19342 4.1051,9.91058 v 0 c 0,7.74072 -6.27505,14.01575 -14.01574,14.01575 v 0 c -7.74066,0 -14.01575,-6.27503 -14.01575,-14.01575 z"
       id="path233"
       inkscape:connector-curvature="0"
       style="fill:#000000;fill-opacity:0;fill-rule:evenodd" />
    <path
       d="m 436.26115,428.46716 v 28.03149 M 422.2454,442.48291 h 28.0315"
       id="path235"
       inkscape:connector-curvature="0"
       style="fill-rule:evenodd;stroke:#000000;stroke-width:1;stroke-linecap:butt;stroke-linejoin:round" />
    <path
       d="m 422.2454,442.4829 v 0 c 0,-7.74066 6.27509,-14.01575 14.01575,-14.01575 v 0 c 3.71722,0 7.28216,1.47669 9.91064,4.10517 2.62845,2.62841 4.1051,6.19342 4.1051,9.91058 v 0 c 0,7.74072 -6.27505,14.01575 -14.01574,14.01575 v 0 c -7.74066,0 -14.01575,-6.27503 -14.01575,-14.01575 z"
       id="path237"
       inkscape:connector-curvature="0"
       style="fill-rule:evenodd;stroke:#000000;stroke-width:1;stroke-linecap:butt;stroke-linejoin:round" />
    <path
       d="m 387.72572,442.64044 34.51968,-0.15753"
       id="path239"
       inkscape:connector-curvature="0"
       style="fill:#000000;fill-opacity:0;fill-rule:evenodd" />
    <path
       d="m 387.72572,442.64044 28.51977,-0.13013"
       id="path241"
       inkscape:connector-curvature="0"
       style="fill-rule:evenodd;stroke:#000000;stroke-width:1;stroke-linecap:butt;stroke-linejoin:round" />
    <path
       d="m 416.253,444.16205 4.53052,-1.67242 -4.5456,-1.63105 z"
       id="path243"
       inkscape:connector-curvature="0"
       style="fill:#000000;fill-rule:evenodd;stroke:#000000;stroke-width:1;stroke-linecap:butt" />
    <path
       d="m 450.2769,442.4829 34.96063,0.15753"
       id="path245"
       inkscape:connector-curvature="0"
       style="fill:#000000;fill-opacity:0;fill-rule:evenodd" />
    <path
       d="m 450.2769,442.4829 28.96069,0.13049"
       id="path247"
       inkscape:connector-curvature="0"
       style="fill-rule:evenodd;stroke:#000000;stroke-width:1;stroke-linecap:butt;stroke-linejoin:round" />
    <path
       d="m 479.23017,444.26514 4.54553,-1.63129 -4.53064,-1.67218 z"
       id="path249"
       inkscape:connector-curvature="0"
       style="fill:#000000;fill-rule:evenodd;stroke:#000000;stroke-width:1;stroke-linecap:butt" />
    <path
       d="m 420.00967,366.64307 h 32.50394 v 42.01575 h -32.50394 z"
       id="path251"
       inkscape:connector-curvature="0"
       style="fill:#000000;fill-opacity:0;fill-rule:evenodd" />
    <path
       d="m 430.24407,393.56305 v -9.67188 h 1.46875 v 1.35938 q 0.45313,-0.71875 1.20313,-1.14063 0.76562,-0.4375 1.71875,-0.4375 1.07812,0 1.76562,0.45313 0.6875,0.4375 0.96875,1.23437 1.15625,-1.6875 2.98438,-1.6875 1.45312,0 2.21875,0.79688 0.78125,0.79687 0.78125,2.45312 v 6.64063 h -1.64063 v -6.09375 q 0,-0.98438 -0.15625,-1.40625 -0.15625,-0.4375 -0.57812,-0.70313 -0.42188,-0.26562 -0.98438,-0.26562 -1.01562,0 -1.6875,0.6875 -0.67187,0.67187 -0.67187,2.15625 v 5.625 h -1.64063 v -6.28125 q 0,-1.09375 -0.40625,-1.64063 -0.40625,-0.54687 -1.3125,-0.54687 -0.6875,0 -1.28125,0.35937 -0.59375,0.35938 -0.85937,1.0625 -0.25,0.70313 -0.25,2.03125 v 5.01563 z"
       id="path253"
       inkscape:connector-curvature="0"
       style="fill:#000000;fill-rule:nonzero" />
    <path
       d="m 436.26167,408.6588 v 19.81097"
       id="path255"
       inkscape:connector-curvature="0"
       style="fill:#000000;fill-opacity:0;fill-rule:evenodd" />
    <path
       d="m 436.26164,408.6588 v 13.81097"
       id="path257"
       inkscape:connector-curvature="0"
       style="fill-rule:evenodd;stroke:#000000;stroke-width:1;stroke-linecap:butt;stroke-linejoin:round" />
    <path
       d="m 434.6099,422.4698 1.65173,4.53815 1.65174,-4.53815 z"
       id="path259"
       inkscape:connector-curvature="0"
       style="fill:#000000;fill-rule:evenodd;stroke:#000000;stroke-width:1;stroke-linecap:butt" />
    <path
       d="m 591.31497,76.57217 51.18109,0.53543"
       id="path261"
       inkscape:connector-curvature="0"
       style="fill:#000000;fill-opacity:0;fill-rule:evenodd" />
    <path
       d="m 591.31497,76.57217 45.1814,0.47267"
       id="path263"
       inkscape:connector-curvature="0"
       style="fill-rule:evenodd;stroke:#000000;stroke-width:1;stroke-linecap:butt;stroke-linejoin:round" />
    <path
       d="m 636.47911,78.69649 4.55511,-1.60417 -4.52056,-1.69911 z"
       id="path265"
       inkscape:connector-curvature="0"
       style="fill:#000000;fill-rule:evenodd;stroke:#000000;stroke-width:1;stroke-linecap:butt" />
    <path
       d="m 591.31497,179.99213 51.43304,0.50394"
       id="path267"
       inkscape:connector-curvature="0"
       style="fill:#000000;fill-opacity:0;fill-rule:evenodd" />
    <path
       d="m 591.31497,179.99213 45.43335,0.44516"
       id="path269"
       inkscape:connector-curvature="0"
       style="fill-rule:evenodd;stroke:#000000;stroke-width:1;stroke-linecap:butt;stroke-linejoin:round" />
    <path
       d="m 636.73217,182.08893 4.55402,-1.60718 -4.52167,-1.69613 z"
       id="path271"
       inkscape:connector-curvature="0"
       style="fill:#000000;fill-rule:evenodd;stroke:#000000;stroke-width:1;stroke-linecap:butt" />
    <path
       d="m 642.74803,55.5643 h 37.70081 v 42.01575 h -37.70081 z"
       id="path273"
       inkscape:connector-curvature="0"
       style="fill:#000000;fill-opacity:0;fill-rule:evenodd" />
    <path
       d="M 653.21677,82.4843 V 69.12492 h 5.92187 q 1.78125,0 2.70313,0.35938 0.9375,0.35937 1.48437,1.28125 0.5625,0.90625 0.5625,2.01562 0,1.40625 -0.92187,2.39063 -0.92188,0.96875 -2.84375,1.23437 0.70312,0.34375 1.07812,0.67188 0.76563,0.70312 1.45313,1.76562 l 2.32812,3.64063 h -2.21875 l -1.76562,-2.78125 q -0.78125,-1.20313 -1.28125,-1.82813 -0.5,-0.64062 -0.90625,-0.89062 -0.39063,-0.26563 -0.79688,-0.35938 -0.29687,-0.0781 -0.98437,-0.0781 h -2.04688 v 5.9375 z m 1.76562,-7.45313 h 3.79688 q 1.21875,0 1.89062,-0.25 0.6875,-0.26562 1.04688,-0.8125 0.35937,-0.54687 0.35937,-1.1875 0,-0.95312 -0.6875,-1.5625 -0.6875,-0.60937 -2.1875,-0.60937 h -4.21875 z"
       id="path275"
       inkscape:connector-curvature="0"
       style="fill:#000000;fill-rule:nonzero" />
    <path
       d="m 642.74803,158.98425 h 37.70081 V 201 h -37.70081 z"
       id="path277"
       inkscape:connector-curvature="0"
       style="fill:#000000;fill-opacity:0;fill-rule:evenodd" />
    <path
       d="m 662.71677,181.21674 1.76562,0.45313 q -0.5625,2.17187 -2,3.32812 -1.4375,1.14063 -3.53125,1.14063 -2.15625,0 -3.51562,-0.875 -1.34375,-0.89063 -2.0625,-2.54688 -0.70313,-1.67187 -0.70313,-3.59375 0,-2.07812 0.79688,-3.625 0.79687,-1.5625 2.26562,-2.35937 1.48438,-0.8125 3.25,-0.8125 2,0 3.35938,1.01562 1.375,1.01563 1.90625,2.875 l -1.73438,0.40625 q -0.46875,-1.45312 -1.35937,-2.10937 -0.875,-0.67188 -2.20313,-0.67188 -1.54687,0 -2.57812,0.73438 -1.03125,0.73437 -1.45313,1.98437 -0.42187,1.23438 -0.42187,2.5625 0,1.70313 0.5,2.96875 0.5,1.26563 1.54687,1.90625 1.04688,0.625 2.26563,0.625 1.48437,0 2.51562,-0.85937 1.03125,-0.85938 1.39063,-2.54688 z"
       id="path279"
       inkscape:connector-curvature="0"
       style="fill:#000000;fill-rule:nonzero" />
    <path
       d="m 151.11024,319.40945 h 37.70079 v 42.01572 h -37.70079 z"
       id="path281"
       inkscape:connector-curvature="0"
       style="fill:#000000;fill-opacity:0;fill-rule:evenodd" />
    <path
       d="m 161.57899,346.32944 v -13.35938 h 5.92187 q 1.78125,0 2.70313,0.35938 0.9375,0.35937 1.48437,1.28125 0.5625,0.90625 0.5625,2.01562 0,1.40625 -0.92187,2.39063 -0.92188,0.96875 -2.84375,1.23437 0.70312,0.34375 1.07812,0.67188 0.76563,0.70312 1.45313,1.76562 l 2.32812,3.64063 h -2.21875 l -1.76562,-2.78125 q -0.78125,-1.20313 -1.28125,-1.82813 -0.5,-0.64062 -0.90625,-0.89062 -0.39063,-0.26563 -0.79688,-0.35938 -0.29687,-0.0781 -0.98437,-0.0781 h -2.04688 v 5.9375 z m 1.76562,-7.45313 h 3.79688 q 1.21875,0 1.89062,-0.25 0.6875,-0.26562 1.04688,-0.8125 0.35937,-0.54687 0.35937,-1.1875 0,-0.95312 -0.6875,-1.5625 -0.6875,-0.60937 -2.1875,-0.60937 h -4.21875 z"
       id="path283"
       inkscape:connector-curvature="0"
       style="fill:#000000;fill-rule:nonzero" />
    <path
       d="m 151.10761,423.7402 h 37.70079 v 42.01575 h -37.70079 z"
       id="path285"
       inkscape:connector-curvature="0"
       style="fill:#000000;fill-opacity:0;fill-rule:evenodd" />
    <path
       d="m 171.07637,445.97266 1.76562,0.45313 q -0.5625,2.17187 -2,3.32812 -1.4375,1.14063 -3.53125,1.14063 -2.15625,0 -3.51562,-0.875 -1.34375,-0.89063 -2.0625,-2.54688 -0.70313,-1.67187 -0.70313,-3.59375 0,-2.07812 0.79688,-3.625 0.79687,-1.5625 2.26562,-2.35937 1.48438,-0.8125 3.25,-0.8125 2,0 3.35938,1.01562 1.375,1.01563 1.90625,2.875 l -1.73438,0.40625 q -0.46875,-1.45312 -1.35937,-2.10937 -0.875,-0.67188 -2.20313,-0.67188 -1.54687,0 -2.57812,0.73438 -1.03125,0.73437 -1.45313,1.98437 -0.42187,1.23438 -0.42187,2.5625 0,1.70313 0.5,2.96875 0.5,1.26563 1.54687,1.90625 1.04688,0.625 2.26563,0.625 1.48437,0 2.51562,-0.85937 1.03125,-0.85938 1.39063,-2.54688 z"
       id="path287"
       inkscape:connector-curvature="0"
       style="fill:#000000;fill-rule:nonzero" />
    <path
       d="m 588.88713,337.5013 97.51184,-0.50394"
       id="path289"
       inkscape:connector-curvature="0"
       style="fill:#000000;fill-opacity:0;fill-rule:evenodd" />
    <path
       d="m 588.88713,337.5013 91.5119,-0.47293"
       id="path291"
       inkscape:connector-curvature="0"
       style="fill-rule:evenodd;stroke:#000000;stroke-width:1;stroke-linecap:butt;stroke-linejoin:round" />
    <path
       d="m 680.40757,338.68008 4.52948,-1.67514 -4.54657,-1.62827 z"
       id="path293"
       inkscape:connector-curvature="0"
       style="fill:#000000;fill-rule:evenodd;stroke:#000000;stroke-width:1;stroke-linecap:butt" />
    <path
       d="m 588.46197,444.74805 98.36218,-0.25201"
       id="path295"
       inkscape:connector-curvature="0"
       style="fill:#000000;fill-opacity:0;fill-rule:evenodd" />
    <path
       d="m 588.46197,444.74805 92.36218,-0.23663"
       id="path297"
       inkscape:connector-curvature="0"
       style="fill-rule:evenodd;stroke:#000000;stroke-width:1;stroke-linecap:butt;stroke-linejoin:round" />
    <path
       d="m 680.82841,446.16315 4.53381,-1.66333 -4.54229,-1.64014 z"
       id="path299"
       inkscape:connector-curvature="0"
       style="fill:#000000;fill-rule:evenodd;stroke:#000000;stroke-width:1;stroke-linecap:butt" />
    <path
       d="m 688.39637,429.50134 h 89.51178 v 42.01575 h -89.51178 z"
       id="path301"
       inkscape:connector-curvature="0"
       style="fill:#000000;fill-opacity:0;fill-rule:evenodd" />
    <path
       d="m 704.89637,456.4213 v -1.21875 q -0.90625,1.4375 -2.70312,1.4375 -1.15625,0 -2.125,-0.64063 -0.96875,-0.64062 -1.5,-1.78125 -0.53125,-1.14062 -0.53125,-2.625 0,-1.45312 0.48437,-2.625 0.48438,-1.1875 1.4375,-1.8125 0.96875,-0.625 2.17188,-0.625 0.875,0 1.54687,0.375 0.6875,0.35938 1.10938,0.95313 v -4.79688 h 1.64062 v 13.35938 z m -5.17187,-4.82813 q 0,1.85938 0.78125,2.78125 0.78125,0.92188 1.84375,0.92188 1.07812,0 1.82812,-0.875 0.75,-0.89063 0.75,-2.6875 0,-1.98438 -0.76562,-2.90625 -0.76563,-0.9375 -1.89063,-0.9375 -1.07812,0 -1.8125,0.89062 -0.73437,0.89063 -0.73437,2.8125 z m 9.28198,-6.64062 v -1.89063 h 1.64062 v 1.89063 z m 0,11.46875 v -9.67188 h 1.64062 v 9.67188 z m 3.48852,-2.89063 1.625,-0.25 q 0.125,0.96875 0.75,1.5 0.625,0.51563 1.75,0.51563 1.125,0 1.67188,-0.45313 0.54687,-0.46875 0.54687,-1.09375 0,-0.54687 -0.48437,-0.875 -0.32813,-0.21875 -1.67188,-0.54687 -1.8125,-0.46875 -2.51562,-0.79688 -0.6875,-0.32812 -1.04688,-0.90625 -0.35937,-0.59375 -0.35937,-1.3125 0,-0.64062 0.29687,-1.1875 0.29688,-0.5625 0.8125,-0.92187 0.375,-0.28125 1.03125,-0.46875 0.67188,-0.20313 1.42188,-0.20313 1.14062,0 2,0.32813 0.85937,0.32812 1.26562,0.89062 0.42188,0.5625 0.57813,1.5 l -1.60938,0.21875 q -0.10937,-0.75 -0.64062,-1.17187 -0.51563,-0.42188 -1.46875,-0.42188 -1.14063,0 -1.625,0.375 -0.46875,0.375 -0.46875,0.875 0,0.3125 0.1875,0.57813 0.20312,0.26562 0.64062,0.4375 0.23438,0.0937 1.4375,0.42187 1.75,0.45313 2.4375,0.75 0.6875,0.29688 1.07813,0.85938 0.39062,0.5625 0.39062,1.40625 0,0.82812 -0.48437,1.54687 -0.46875,0.71875 -1.375,1.125 -0.90625,0.39063 -2.04688,0.39063 -1.875,0 -2.875,-0.78125 -0.98437,-0.78125 -1.25,-2.32813 z m 16.29688,-0.65625 1.60937,0.21875 q -0.26562,1.65625 -1.35937,2.60938 -1.07813,0.9375 -2.67188,0.9375 -1.98437,0 -3.1875,-1.29688 -1.20312,-1.29687 -1.20312,-3.71875 0,-1.57812 0.51562,-2.75 0.51563,-1.17187 1.57813,-1.75 1.0625,-0.59375 2.3125,-0.59375 1.57812,0 2.57812,0.79688 1,0.79687 1.28125,2.26562 l -1.59375,0.23438 q -0.23437,-0.96875 -0.8125,-1.45313 -0.57812,-0.5 -1.39062,-0.5 -1.23438,0 -2.01563,0.89063 -0.78125,0.89062 -0.78125,2.8125 0,1.95312 0.75,2.84375 0.75,0.875 1.95313,0.875 0.96875,0 1.60937,-0.59375 0.65625,-0.59375 0.82813,-1.82813 z m 9.32812,2.35938 q -0.92187,0.76562 -1.76562,1.09375 -0.82813,0.3125 -1.79688,0.3125 -1.59375,0 -2.45312,-0.78125 -0.85938,-0.78125 -0.85938,-1.98438 0,-0.71875 0.32813,-1.29687 0.32812,-0.59375 0.84375,-0.9375 0.53125,-0.35938 1.1875,-0.54688 0.46875,-0.125 1.45312,-0.25 1.98438,-0.23437 2.92188,-0.5625 0.0156,-0.34375 0.0156,-0.42187 0,-1 -0.46875,-1.42188 -0.625,-0.54687 -1.875,-0.54687 -1.15625,0 -1.70312,0.40625 -0.54688,0.40625 -0.8125,1.42187 l -1.60938,-0.21875 q 0.21875,-1.01562 0.71875,-1.64062 0.5,-0.64063 1.45313,-0.98438 0.95312,-0.34375 2.1875,-0.34375 1.25,0 2.01562,0.29688 0.78125,0.28125 1.14063,0.73437 0.375,0.4375 0.51562,1.10938 0.0781,0.42187 0.0781,1.51562 v 2.1875 q 0,2.28125 0.10937,2.89063 0.10938,0.59375 0.40625,1.15625 h -1.70312 q -0.26563,-0.51563 -0.32813,-1.1875 z m -0.14062,-3.67188 q -0.89063,0.375 -2.67188,0.625 -1.01562,0.14063 -1.4375,0.32813 -0.42187,0.1875 -0.65625,0.53125 -0.21875,0.34375 -0.21875,0.78125 0,0.65625 0.5,1.09375 0.5,0.4375 1.45313,0.4375 0.9375,0 1.67187,-0.40625 0.75,-0.42188 1.09375,-1.14063 0.26563,-0.5625 0.26563,-1.64062 z m 4.18823,4.85938 v -9.67188 h 1.46875 v 1.46875 q 0.5625,-1.03125 1.03125,-1.35937 0.48437,-0.32813 1.0625,-0.32813 0.82812,0 1.6875,0.53125 l -0.5625,1.51563 q -0.60938,-0.35938 -1.20313,-0.35938 -0.54687,0 -0.96875,0.32813 -0.42187,0.32812 -0.60937,0.89062 -0.28125,0.875 -0.28125,1.92188 v 5.0625 z m 12.49396,0 v -1.21875 q -0.90625,1.4375 -2.70313,1.4375 -1.15625,0 -2.125,-0.64063 -0.96875,-0.64062 -1.5,-1.78125 -0.53125,-1.14062 -0.53125,-2.625 0,-1.45312 0.48438,-2.625 0.48437,-1.1875 1.4375,-1.8125 0.96875,-0.625 2.17187,-0.625 0.875,0 1.54688,0.375 0.6875,0.35938 1.10937,0.95313 v -4.79688 h 1.64063 v 13.35938 z m -5.17188,-4.82813 q 0,1.85938 0.78125,2.78125 0.78125,0.92188 1.84375,0.92188 1.07813,0 1.82813,-0.875 0.75,-0.89063 0.75,-2.6875 0,-1.98438 -0.76563,-2.90625 -0.76562,-0.9375 -1.89062,-0.9375 -1.07813,0 -1.8125,0.89062 -0.73438,0.89063 -0.73438,2.8125 z"
       id="path303"
       inkscape:connector-curvature="0"
       style="fill:#000000;fill-rule:nonzero" />
    <path
       d="m 687.39637,322.75067 h 30.01575 v 42.01575 h -30.01575 z"
       id="path305"
       inkscape:connector-curvature="0"
       style="fill:#000000;fill-opacity:0;fill-rule:evenodd" />
    <path
       d="M 701.24007,349.67065 V 337.8894 h -4.40625 v -1.57812 h 10.57812 v 1.57812 h -4.40625 v 11.78125 z"
       id="path307"
       inkscape:connector-curvature="0"
       style="fill:#000000;fill-rule:nonzero" />
    <path
       d="M 271.66142,340.49606 V 261.25198"
       id="path309"
       inkscape:connector-curvature="0"
       style="fill:#000000;fill-opacity:0;fill-rule:evenodd" />
    <path
       d="M 271.66142,340.49606 V 267.25198"
       id="path311"
       inkscape:connector-curvature="0"
       style="fill-rule:evenodd;stroke:#000000;stroke-width:1;stroke-linecap:butt;stroke-linejoin:round" />
    <path
       d="m 273.31315,267.25195 -1.65173,-4.53809 -1.65174,4.53809 z"
       id="path313"
       inkscape:connector-curvature="0"
       style="fill:#000000;fill-rule:evenodd;stroke:#000000;stroke-width:1;stroke-linecap:butt" />
    <path
       d="m 232.97761,220.9239 h 60.37796 v 42.01575 h -60.37796 z"
       id="path315"
       inkscape:connector-curvature="0"
       style="fill:#000000;fill-opacity:0;fill-rule:evenodd" />
    <path
       d="m 257.02769,243.15637 1.76562,0.45312 q -0.5625,2.17188 -2,3.32813 -1.4375,1.14062 -3.53125,1.14062 -2.15625,0 -3.51562,-0.875 -1.34375,-0.89062 -2.0625,-2.54687 -0.70313,-1.67188 -0.70313,-3.59375 0,-2.07813 0.79688,-3.625 0.79687,-1.5625 2.26562,-2.35938 1.48438,-0.8125 3.25,-0.8125 2,0 3.35938,1.01563 1.375,1.01562 1.90625,2.875 l -1.73438,0.40625 q -0.46875,-1.45313 -1.35937,-2.10938 -0.875,-0.67187 -2.20313,-0.67187 -1.54687,0 -2.57812,0.73437 -1.03125,0.73438 -1.45313,1.98438 -0.42187,1.23437 -0.42187,2.5625 0,1.70312 0.5,2.96875 0.5,1.26562 1.54687,1.90625 1.04688,0.625 2.26563,0.625 1.48437,0 2.51562,-0.85938 1.03125,-0.85937 1.39063,-2.54687 z m 3.76984,8.39062 v -17.0625 h 3.60937 v 1.35938 h -1.96875 v 14.34375 h 1.96875 v 1.35937 z m 4.69891,-10.29687 q 0,-2.35938 0.48437,-3.79688 0.48438,-1.45312 1.4375,-2.23437 0.96875,-0.78125 2.42188,-0.78125 1.07812,0 1.89062,0.4375 0.8125,0.42187 1.32813,1.25 0.53125,0.8125 0.82812,1.98437 0.3125,1.15625 0.3125,3.14063 0,2.35937 -0.48437,3.8125 -0.48438,1.4375 -1.45313,2.23437 -0.95312,0.78125 -2.42187,0.78125 -1.92188,0 -3.03125,-1.39062 -1.3125,-1.67188 -1.3125,-5.4375 z m 1.67187,0 q 0,3.29687 0.76563,4.39062 0.78125,1.07813 1.90625,1.07813 1.14062,0 1.90625,-1.09375 0.76562,-1.09375 0.76562,-4.375 0,-3.29688 -0.76562,-4.375 -0.76563,-1.07813 -1.92188,-1.07813 -1.125,0 -1.79687,0.95313 -0.85938,1.21875 -0.85938,4.5 z m 11.89136,10.29687 h -3.60937 v -1.35937 h 1.96875 v -14.34375 h -1.96875 v -1.35938 h 3.60937 z"
       id="path317"
       inkscape:connector-curvature="0"
       style="fill:#000000;fill-rule:nonzero" />
    <path
       d="M 462.37007,340.49606 V 261.25198"
       id="path319"
       inkscape:connector-curvature="0"
       style="fill:#000000;fill-opacity:0;fill-rule:evenodd" />
    <path
       d="M 462.37007,340.49606 V 267.25198"
       id="path321"
       inkscape:connector-curvature="0"
       style="fill-rule:evenodd;stroke:#000000;stroke-width:1;stroke-linecap:butt;stroke-linejoin:round" />
    <path
       d="m 464.02183,267.25195 -1.65173,-4.53809 -1.65174,4.53809 z"
       id="path323"
       inkscape:connector-curvature="0"
       style="fill:#000000;fill-rule:evenodd;stroke:#000000;stroke-width:1;stroke-linecap:butt" />
    <path
       d="m 423.68627,220.9239 h 60.37799 v 42.01575 h -60.37799 z"
       id="path325"
       inkscape:connector-curvature="0"
       style="fill:#000000;fill-opacity:0;fill-rule:evenodd" />
    <path
       d="m 447.73637,243.15637 1.76563,0.45312 q -0.5625,2.17188 -2,3.32813 -1.4375,1.14062 -3.53125,1.14062 -2.15625,0 -3.51563,-0.875 -1.34375,-0.89062 -2.0625,-2.54687 -0.70312,-1.67188 -0.70312,-3.59375 0,-2.07813 0.79687,-3.625 0.79688,-1.5625 2.26563,-2.35938 1.48437,-0.8125 3.25,-0.8125 2,0 3.35937,1.01563 1.375,1.01562 1.90625,2.875 l -1.73437,0.40625 q -0.46875,-1.45313 -1.35938,-2.10938 -0.875,-0.67187 -2.20312,-0.67187 -1.54688,0 -2.57813,0.73437 -1.03125,0.73438 -1.45312,1.98438 -0.42188,1.23437 -0.42188,2.5625 0,1.70312 0.5,2.96875 0.5,1.26562 1.54688,1.90625 1.04687,0.625 2.26562,0.625 1.48438,0 2.51563,-0.85938 1.03125,-0.85937 1.39062,-2.54687 z m 3.76981,8.39062 v -17.0625 h 3.6094 v 1.35938 h -1.96878 v 14.34375 h 1.96878 v 1.35937 z m 10.87082,-3.70312 h -1.64063 v -10.45313 q -0.59375,0.5625 -1.5625,1.14063 -0.95312,0.5625 -1.71875,0.84375 v -1.59375 q 1.375,-0.64063 2.40625,-1.5625 1.03125,-0.92188 1.45313,-1.78125 h 1.0625 z m 7.39135,3.70312 h -3.60937 v -1.35937 h 1.96875 v -14.34375 h -1.96875 v -1.35938 h 3.60937 z"
       id="path327"
       inkscape:connector-curvature="0"
       style="fill:#000000;fill-rule:nonzero" />
  </g>
</svg>
