<svg version="1.1" viewBox="0.0 0.0 960.0 720.0" fill="none" stroke="none" stroke-linecap="square" stroke-miterlimit="10" xmlns:xlink="http://www.w3.org/1999/xlink" xmlns="http://www.w3.org/2000/svg"><clipPath id="p.0"><path d="m0 0l960.0 0l0 720.0l-960.0 0l0 -720.0z" clip-rule="nonzero"/></clipPath><g clip-path="url(#p.0)"><path fill="#000000" fill-opacity="0.0" d="m0 0l960.0 0l0 720.0l-960.0 0z" fill-rule="evenodd"/><path fill="#cfe2f3" d="m146.33333 175.06299l102.33072 0l0 233.41733l-102.33072 0z" fill-rule="evenodd"/><path stroke="#000000" stroke-width="1.0" stroke-linejoin="round" stroke-linecap="butt" d="m146.33333 175.06299l102.33072 0l0 233.41733l-102.33072 0z" fill-rule="evenodd"/><path fill="#000000" d="m192.07378 298.69165l2.796875 -13.359375l5.578125 0q1.453125 0 2.171875 0.34375q0.71875 0.328125 1.1875 1.140625q0.484375 0.796875 0.484375 1.796875q0 0.828125 -0.34375 1.6875q-0.328125 0.859375 -0.84375 1.421875q-0.515625 0.546875 -1.046875 0.828125q-0.53125 0.28125 -1.125 0.421875q-1.28125 0.296875 -2.59375 0.296875l-3.34375 0l-1.125 5.421875l-1.796875 0zm3.234375 -6.9375l2.953125 0q1.703125 0 2.5 -0.359375q0.8125 -0.375 1.296875 -1.125q0.484375 -0.765625 0.484375 -1.609375q0 -0.65625 -0.265625 -1.0625q-0.25 -0.421875 -0.71875 -0.609375q-0.46875 -0.203125 -1.78125 -0.203125l-3.421875 0l-1.046875 4.96875z" fill-rule="nonzero"/><path fill="#cfe2f3" d="m346.3727 175.06299l102.33069 0l0 233.41733l-102.33069 0z" fill-rule="evenodd"/><path stroke="#000000" stroke-width="1.0" stroke-linejoin="round" stroke-linecap="butt" d="m346.3727 175.06299l102.33069 0l0 233.41733l-102.33069 0z" fill-rule="evenodd"/><path fill="#000000" d="m392.11316 298.69165l2.796875 -13.359375l5.578125 0q1.453125 0 2.171875 0.34375q0.71875 0.328125 1.1875 1.140625q0.484375 0.796875 0.484375 1.796875q0 0.828125 -0.34375 1.6875q-0.328125 0.859375 -0.84375 1.421875q-0.515625 0.546875 -1.046875 0.828125q-0.53125 0.28125 -1.125 0.421875q-1.28125 0.296875 -2.59375 0.296875l-3.34375 0l-1.125 5.421875l-1.796875 0zm3.234375 -6.9375l2.953125 0q1.703125 0 2.5 -0.359375q0.8125 -0.375 1.296875 -1.125q0.484375 -0.765625 0.484375 -1.609375q0 -0.65625 -0.265625 -1.0625q-0.25 -0.421875 -0.71875 -0.609375q-0.46875 -0.203125 -1.78125 -0.203125l-3.421875 0l-1.046875 4.96875z" fill-rule="nonzero"/><path fill="#cfe2f3" d="m546.41205 175.06299l102.33075 0l0 233.41733l-102.33075 0z" fill-rule="evenodd"/><path stroke="#000000" stroke-width="1.0" stroke-linejoin="round" stroke-linecap="butt" d="m546.41205 175.06299l102.33075 0l0 233.41733l-102.33075 0z" fill-rule="evenodd"/><path fill="#000000" d="m592.1525 298.69165l2.796875 -13.359375l5.578125 0q1.453125 0 2.171875 0.34375q0.71875 0.328125 1.1875 1.140625q0.484375 0.796875 0.484375 1.796875q0 0.828125 -0.34375 1.6875q-0.328125 0.859375 -0.84375 1.421875q-0.515625 0.546875 -1.046875 0.828125q-0.53125 0.28125 -1.125 0.421875q-1.28125 0.296875 -2.59375 0.296875l-3.34375 0l-1.125 5.421875l-1.796875 0zm3.234375 -6.9375l2.953125 0q1.703125 0 2.5 -0.359375q0.8125 -0.375 1.296875 -1.125q0.484375 -0.765625 0.484375 -1.609375q0 -0.65625 -0.265625 -1.0625q-0.25 -0.421875 -0.71875 -0.609375q-0.46875 -0.203125 -1.78125 -0.203125l-3.421875 0l-1.046875 4.96875z" fill-rule="nonzero"/><path fill="#000000" fill-opacity="0.0" d="m58.354332 214.5643l37.700783 0l0 42.015747l-37.700783 0z" fill-rule="evenodd"/><path fill="#000000" d="m68.71371 241.4843l0 -13.359375l1.78125 0l0 6.625l6.625 -6.625l2.390625 0l-5.59375 5.421875l5.84375 7.9375l-2.328125 0l-4.765625 -6.765625l-2.171875 2.140625l0 4.625l-1.78125 0z" fill-rule="nonzero"/><path fill="#000000" fill-opacity="0.0" d="m58.354332 317.98425l37.700783 0l0 42.015747l-37.700783 0z" fill-rule="evenodd"/><path fill="#000000" d="m68.77621 344.90424l0 -13.359375l1.8125 0l7.015625 10.484375l0 -10.484375l1.6875 0l0 13.359375l-1.8125 0l-7.015625 -10.5l0 10.5l-1.6875 0z" fill-rule="nonzero"/><path fill="#000000" fill-opacity="0.0" d="m96.055115 235.57217l51.181107 0.5354309" fill-rule="evenodd"/><path stroke="#000000" stroke-width="1.0" stroke-linejoin="round" stroke-linecap="butt" d="m96.055115 235.57217l45.181427 0.4726715" fill-rule="evenodd"/><path fill="#000000" stroke="#000000" stroke-width="1.0" stroke-linecap="butt" d="m141.21927 237.69649l4.55513 -1.6041718l-4.520569 -1.6991119z" fill-rule="evenodd"/><path fill="#000000" fill-opacity="0.0" d="m96.055115 338.99213l50.456696 0.25195312" fill-rule="evenodd"/><path stroke="#000000" stroke-width="1.0" stroke-linejoin="round" stroke-linecap="butt" d="m96.055115 338.99213l44.45677 0.22201538" fill-rule="evenodd"/><path fill="#000000" stroke="#000000" stroke-width="1.0" stroke-linecap="butt" d="m140.50363 340.86584l4.546295 -1.6290588l-4.529785 -1.6743774z" fill-rule="evenodd"/><path fill="#cfe2f3" d="m283.50262 235.83989l0 0c0 -7.740677 6.275055 -14.015747 14.015747 -14.015747l0 0c3.7171936 0 7.2821655 1.476654 9.910645 4.105118c2.6284485 2.6284637 4.1051025 6.1934204 4.1051025 9.910629l0 0c0 7.740692 -6.275055 14.015747 -14.015747 14.015747l0 0c-7.740692 0 -14.015747 -6.275055 -14.015747 -14.015747z" fill-rule="evenodd"/><path fill="#000000" fill-opacity="0.0" d="m297.51837 221.82414l0 28.031494m-14.015747 -14.015747l28.031494 0" fill-rule="evenodd"/><path fill="#000000" fill-opacity="0.0" d="m283.50262 235.83989l0 0c0 -7.740677 6.275055 -14.015747 14.015747 -14.015747l0 0c3.7171936 0 7.2821655 1.476654 9.910645 4.105118c2.6284485 2.6284637 4.1051025 6.1934204 4.1051025 9.910629l0 0c0 7.740692 -6.275055 14.015747 -14.015747 14.015747l0 0c-7.740692 0 -14.015747 -6.275055 -14.015747 -14.015747z" fill-rule="evenodd"/><path stroke="#000000" stroke-width="1.0" stroke-linejoin="round" stroke-linecap="butt" d="m297.51837 221.82414l0 28.031494m-14.015747 -14.015747l28.031494 0" fill-rule="evenodd"/><path stroke="#000000" stroke-width="1.0" stroke-linejoin="round" stroke-linecap="butt" d="m283.50262 235.83989l0 0c0 -7.740677 6.275055 -14.015747 14.015747 -14.015747l0 0c3.7171936 0 7.2821655 1.476654 9.910645 4.105118c2.6284485 2.6284637 4.1051025 6.1934204 4.1051025 9.910629l0 0c0 7.740692 -6.275055 14.015747 -14.015747 14.015747l0 0c-7.740692 0 -14.015747 -6.275055 -14.015747 -14.015747z" fill-rule="evenodd"/><path fill="#000000" fill-opacity="0.0" d="m248.98294 235.99738l34.519684 -0.15748596" fill-rule="evenodd"/><path stroke="#000000" stroke-width="1.0" stroke-linejoin="round" stroke-linecap="butt" d="m248.98294 235.99738l28.519745 -0.1301117" fill-rule="evenodd"/><path fill="#000000" stroke="#000000" stroke-width="1.0" stroke-linecap="butt" d="m277.51022 237.51898l4.5305176 -1.6724243l-4.5455933 -1.631012z" fill-rule="evenodd"/><path fill="#000000" fill-opacity="0.0" d="m311.53412 235.83989l34.960632 0.15748596" fill-rule="evenodd"/><path stroke="#000000" stroke-width="1.0" stroke-linejoin="round" stroke-linecap="butt" d="m311.53412 235.83989l28.960693 0.13046265" fill-rule="evenodd"/><path fill="#000000" stroke="#000000" stroke-width="1.0" stroke-linecap="butt" d="m340.48737 237.62207l4.5455017 -1.6312866l-4.530609 -1.6721497z" fill-rule="evenodd"/><path fill="#000000" fill-opacity="0.0" d="m267.3293 160.0l60.37796 0l0 42.015747l-60.37796 0z" fill-rule="evenodd"/><path fill="#000000" d="m280.89407 186.92l5.125 -13.359375l1.90625 0l5.46875 13.359375l-2.015625 0l-1.546875 -4.046875l-5.59375 0l-1.46875 4.046875l-1.875 0zm3.859375 -5.484375l4.53125 0l-1.40625 -3.703125q-0.625 -1.6875 -0.9375 -2.765625q-0.265625 1.28125 -0.71875 2.546875l-1.46875 3.921875zm9.881073 9.1875l0 -17.0625l3.609375 0l0 1.359375l-1.96875 0l0 14.34375l1.96875 0l0 1.359375l-3.609375 0zm4.698944 -10.296875q0 -2.359375 0.484375 -3.796875q0.484375 -1.453125 1.4375 -2.234375q0.96875 -0.78125 2.421875 -0.78125q1.078125 0 1.890625 0.4375q0.8125 0.421875 1.328125 1.25q0.53125 0.8125 0.828125 1.984375q0.3125 1.15625 0.3125 3.140625q0 2.359375 -0.484375 3.8125q-0.484375 1.4375 -1.453125 2.234375q-0.953125 0.78125 -2.421875 0.78125q-1.921875 0 -3.03125 -1.390625q-1.3125 -1.671875 -1.3125 -5.4375zm1.671875 0q0 3.296875 0.765625 4.390625q0.78125 1.078125 1.90625 1.078125q1.140625 0 1.90625 -1.09375q0.765625 -1.09375 0.765625 -4.375q0 -3.296875 -0.765625 -4.375q-0.765625 -1.078125 -1.921875 -1.078125q-1.125 0 -1.796875 0.953125q-0.859375 1.21875 -0.859375 4.5zm11.891327 10.296875l-3.609375 0l0 -1.359375l1.96875 0l0 -14.34375l-1.96875 0l0 -1.359375l3.609375 0l0 17.0625z" fill-rule="nonzero"/><path fill="#000000" fill-opacity="0.0" d="m297.51828 202.01575l0 19.81102" fill-rule="evenodd"/><path stroke="#000000" stroke-width="1.0" stroke-linejoin="round" stroke-linecap="butt" d="m297.51828 202.01575l0 13.81102" fill-rule="evenodd"/><path fill="#000000" stroke="#000000" stroke-width="1.0" stroke-linecap="butt" d="m295.86655 215.82677l1.6517334 4.538101l1.6517334 -4.538101z" fill-rule="evenodd"/><path fill="#000000" fill-opacity="0.0" d="m249.50131 340.5013l97.51181 -0.50393677" fill-rule="evenodd"/><path stroke="#000000" stroke-width="1.0" stroke-linejoin="round" stroke-linecap="butt" d="m249.50131 340.5013l91.5119 -0.4729309" fill-rule="evenodd"/><path fill="#000000" stroke="#000000" stroke-width="1.0" stroke-linecap="butt" d="m341.02173 341.68008l4.5295105 -1.6751404l-4.54657 -1.6282654z" fill-rule="evenodd"/><path fill="#cfe2f3" d="m482.32153 235.83989l0 0c0 -7.740677 6.275055 -14.015747 14.015747 -14.015747l0 0c3.7171936 0 7.2821655 1.476654 9.910614 4.105118c2.628479 2.6284637 4.105133 6.1934204 4.105133 9.910629l0 0c0 7.740692 -6.2750854 14.015747 -14.015747 14.015747l0 0c-7.740692 0 -14.015747 -6.275055 -14.015747 -14.015747z" fill-rule="evenodd"/><path fill="#000000" fill-opacity="0.0" d="m496.33728 221.82414l0 28.031494m-14.015747 -14.015747l28.031494 0" fill-rule="evenodd"/><path fill="#000000" fill-opacity="0.0" d="m482.32153 235.83989l0 0c0 -7.740677 6.275055 -14.015747 14.015747 -14.015747l0 0c3.7171936 0 7.2821655 1.476654 9.910614 4.105118c2.628479 2.6284637 4.105133 6.1934204 4.105133 9.910629l0 0c0 7.740692 -6.2750854 14.015747 -14.015747 14.015747l0 0c-7.740692 0 -14.015747 -6.275055 -14.015747 -14.015747z" fill-rule="evenodd"/><path stroke="#000000" stroke-width="1.0" stroke-linejoin="round" stroke-linecap="butt" d="m496.33728 221.82414l0 28.031494m-14.015747 -14.015747l28.031494 0" fill-rule="evenodd"/><path stroke="#000000" stroke-width="1.0" stroke-linejoin="round" stroke-linecap="butt" d="m482.32153 235.83989l0 0c0 -7.740677 6.275055 -14.015747 14.015747 -14.015747l0 0c3.7171936 0 7.2821655 1.476654 9.910614 4.105118c2.628479 2.6284637 4.105133 6.1934204 4.105133 9.910629l0 0c0 7.740692 -6.2750854 14.015747 -14.015747 14.015747l0 0c-7.740692 0 -14.015747 -6.275055 -14.015747 -14.015747z" fill-rule="evenodd"/><path fill="#000000" fill-opacity="0.0" d="m447.80185 235.99738l34.519684 -0.15748596" fill-rule="evenodd"/><path stroke="#000000" stroke-width="1.0" stroke-linejoin="round" stroke-linecap="butt" d="m447.80185 235.99738l28.519745 -0.1301117" fill-rule="evenodd"/><path fill="#000000" stroke="#000000" stroke-width="1.0" stroke-linecap="butt" d="m476.32913 237.51898l4.5305176 -1.6724243l-4.5455933 -1.631012z" fill-rule="evenodd"/><path fill="#000000" fill-opacity="0.0" d="m510.35303 235.83989l34.960632 0.15748596" fill-rule="evenodd"/><path stroke="#000000" stroke-width="1.0" stroke-linejoin="round" stroke-linecap="butt" d="m510.35303 235.83989l28.960632 0.13046265" fill-rule="evenodd"/><path fill="#000000" stroke="#000000" stroke-width="1.0" stroke-linecap="butt" d="m539.3063 237.62207l4.545471 -1.6312866l-4.5305786 -1.6721497z" fill-rule="evenodd"/><path fill="#000000" fill-opacity="0.0" d="m465.9293 160.0l60.37796 0l0 42.015747l-60.37796 0z" fill-rule="evenodd"/><path fill="#000000" d="m479.49408 186.92l5.125 -13.359375l1.90625 0l5.46875 13.359375l-2.015625 0l-1.546875 -4.046875l-5.59375 0l-1.46875 4.046875l-1.875 0zm3.859375 -5.484375l4.53125 0l-1.40625 -3.703125q-0.625 -1.6875 -0.9375 -2.765625q-0.265625 1.28125 -0.71875 2.546875l-1.46875 3.921875zm9.881073 9.1875l0 -17.0625l3.609375 0l0 1.359375l-1.96875 0l0 14.34375l1.96875 0l0 1.359375l-3.609375 0zm10.870789 -3.703125l-1.640625 0l0 -10.453125q-0.59375 0.5625 -1.5625 1.140625q-0.953125 0.5625 -1.71875 0.84375l0 -1.59375q1.375 -0.640625 2.40625 -1.5625q1.03125 -0.921875 1.453125 -1.78125l1.0625 0l0 13.40625zm7.3913574 3.703125l-3.609375 0l0 -1.359375l1.96875 0l0 -14.34375l-1.96875 0l0 -1.359375l3.609375 0l0 17.0625z" fill-rule="nonzero"/><path fill="#000000" fill-opacity="0.0" d="m496.1183 202.01575l0.22045898 19.81102" fill-rule="evenodd"/><path stroke="#000000" stroke-width="1.0" stroke-linejoin="round" stroke-linecap="butt" d="m496.1183 202.01575l0.15368652 13.811386" fill-rule="evenodd"/><path fill="#000000" stroke="#000000" stroke-width="1.0" stroke-linecap="butt" d="m494.62036 215.84552l1.7021179 4.5194397l1.6011353 -4.556198z" fill-rule="evenodd"/><path fill="#cfe2f3" d="m482.10104 337.98425l0 0c0 -7.740692 6.2750854 -14.015747 14.015747 -14.015747l0 0c3.7172241 0 7.2821655 1.476654 9.910645 4.1051025c2.6284485 2.628479 4.1051025 6.193451 4.1051025 9.910645l0 0c0 7.740692 -6.275055 14.015747 -14.015747 14.015747l0 0c-7.7406616 0 -14.015747 -6.275055 -14.015747 -14.015747z" fill-rule="evenodd"/><path fill="#000000" fill-opacity="0.0" d="m496.1168 323.9685l0 28.031494m-14.015747 -14.015747l28.031494 0" fill-rule="evenodd"/><path fill="#000000" fill-opacity="0.0" d="m482.10104 337.98425l0 0c0 -7.740692 6.2750854 -14.015747 14.015747 -14.015747l0 0c3.7172241 0 7.2821655 1.476654 9.910645 4.1051025c2.6284485 2.628479 4.1051025 6.193451 4.1051025 9.910645l0 0c0 7.740692 -6.275055 14.015747 -14.015747 14.015747l0 0c-7.7406616 0 -14.015747 -6.275055 -14.015747 -14.015747z" fill-rule="evenodd"/><path stroke="#000000" stroke-width="1.0" stroke-linejoin="round" stroke-linecap="butt" d="m496.1168 323.9685l0 28.031494m-14.015747 -14.015747l28.031494 0" fill-rule="evenodd"/><path stroke="#000000" stroke-width="1.0" stroke-linejoin="round" stroke-linecap="butt" d="m482.10104 337.98425l0 0c0 -7.740692 6.2750854 -14.015747 14.015747 -14.015747l0 0c3.7172241 0 7.2821655 1.476654 9.910645 4.1051025c2.6284485 2.628479 4.1051025 6.193451 4.1051025 9.910645l0 0c0 7.740692 -6.275055 14.015747 -14.015747 14.015747l0 0c-7.7406616 0 -14.015747 -6.275055 -14.015747 -14.015747z" fill-rule="evenodd"/><path fill="#000000" fill-opacity="0.0" d="m447.58136 338.14172l34.519684 -0.1574707" fill-rule="evenodd"/><path stroke="#000000" stroke-width="1.0" stroke-linejoin="round" stroke-linecap="butt" d="m447.58136 338.14172l28.519775 -0.13009644" fill-rule="evenodd"/><path fill="#000000" stroke="#000000" stroke-width="1.0" stroke-linecap="butt" d="m476.10864 339.66333l4.5305176 -1.6723938l-4.5455933 -1.6310425z" fill-rule="evenodd"/><path fill="#000000" fill-opacity="0.0" d="m510.13254 337.98425l34.960663 0.1574707" fill-rule="evenodd"/><path stroke="#000000" stroke-width="1.0" stroke-linejoin="round" stroke-linecap="butt" d="m510.13254 337.98425l28.960663 0.13046265" fill-rule="evenodd"/><path fill="#000000" stroke="#000000" stroke-width="1.0" stroke-linecap="butt" d="m539.0858 339.76642l4.545471 -1.6312561l-4.5306396 -1.6721802z" fill-rule="evenodd"/><path fill="#000000" fill-opacity="0.0" d="m479.86533 262.14435l32.503937 0l0 42.015747l-32.503937 0z" fill-rule="evenodd"/><path fill="#000000" d="m498.47632 287.87686q-0.921875 0.765625 -1.765625 1.09375q-0.828125 0.3125 -1.796875 0.3125q-1.59375 0 -2.453125 -0.78125q-0.859375 -0.78125 -0.859375 -1.984375q0 -0.71875 0.328125 -1.296875q0.328125 -0.59375 0.84375 -0.9375q0.53125 -0.359375 1.1875 -0.546875q0.46875 -0.125 1.453125 -0.25q1.984375 -0.234375 2.921875 -0.5625q0.015625 -0.34375 0.015625 -0.421875q0 -1.0 -0.46875 -1.421875q-0.625 -0.546875 -1.875 -0.546875q-1.15625 0 -1.703125 0.40625q-0.546875 0.40625 -0.8125 1.421875l-1.609375 -0.21875q0.21875 -1.015625 0.71875 -1.640625q0.5 -0.640625 1.453125 -0.984375q0.953125 -0.34375 2.1875 -0.34375q1.25 0 2.015625 0.296875q0.78125 0.28125 1.140625 0.734375q0.375 0.4375 0.515625 1.109375q0.078125 0.421875 0.078125 1.515625l0 2.1875q0 2.28125 0.109375 2.890625q0.109375 0.59375 0.40625 1.15625l-1.703125 0q-0.265625 -0.515625 -0.328125 -1.1875zm-0.140625 -3.671875q-0.890625 0.375 -2.671875 0.625q-1.015625 0.140625 -1.4375 0.328125q-0.421875 0.1875 -0.65625 0.53125q-0.21875 0.34375 -0.21875 0.78125q0 0.65625 0.5 1.09375q0.5 0.4375 1.453125 0.4375q0.9375 0 1.671875 -0.40625q0.75 -0.421875 1.09375 -1.140625q0.265625 -0.5625 0.265625 -1.640625l0 -0.609375z" fill-rule="nonzero"/><path fill="#000000" fill-opacity="0.0" d="m496.1173 304.1601l0 19.811035" fill-rule="evenodd"/><path stroke="#000000" stroke-width="1.0" stroke-linejoin="round" stroke-linecap="butt" d="m496.11728 304.1601l0 13.811035" fill-rule="evenodd"/><path fill="#000000" stroke="#000000" stroke-width="1.0" stroke-linecap="butt" d="m494.46555 317.97113l1.6517334 4.538086l1.6517334 -4.538086z" fill-rule="evenodd"/><path fill="#cfe2f3" d="m343.8714 438.56168l102.33069 0l0 233.41733l-102.33069 0z" fill-rule="evenodd"/><path stroke="#000000" stroke-width="1.0" stroke-linejoin="round" stroke-linecap="butt" d="m343.8714 438.56168l102.33069 0l0 233.41733l-102.33069 0z" fill-rule="evenodd"/><path fill="#000000" d="m389.61185 562.19037l2.796875 -13.359375l5.578125 0q1.453125 0 2.171875 0.34375q0.71875 0.328125 1.1875 1.140625q0.484375 0.796875 0.484375 1.796875q0 0.828125 -0.34375 1.6875q-0.328125 0.859375 -0.84375 1.421875q-0.515625 0.546875 -1.046875 0.828125q-0.53125 0.28125 -1.125 0.421875q-1.28125 0.296875 -2.59375 0.296875l-3.34375 0l-1.125 5.421875l-1.796875 0zm3.234375 -6.9375l2.953125 0q1.703125 0 2.5 -0.359375q0.8125 -0.375 1.296875 -1.125q0.484375 -0.765625 0.484375 -1.609375q0 -0.65625 -0.265625 -1.0625q-0.25 -0.421875 -0.71875 -0.609375q-0.46875 -0.203125 -1.78125 -0.203125l-3.421875 0l-1.046875 4.96875z" fill-rule="nonzero"/><path fill="#cfe2f3" d="m543.91077 438.56168l102.33069 0l0 233.41733l-102.33069 0z" fill-rule="evenodd"/><path stroke="#000000" stroke-width="1.0" stroke-linejoin="round" stroke-linecap="butt" d="m543.91077 438.56168l102.33069 0l0 233.41733l-102.33069 0z" fill-rule="evenodd"/><path fill="#000000" d="m589.6512 562.19037l2.796875 -13.359375l5.578125 0q1.453125 0 2.171875 0.34375q0.71875 0.328125 1.1875 1.140625q0.484375 0.796875 0.484375 1.796875q0 0.828125 -0.34375 1.6875q-0.328125 0.859375 -0.84375 1.421875q-0.515625 0.546875 -1.046875 0.828125q-0.53125 0.28125 -1.125 0.421875q-1.28125 0.296875 -2.59375 0.296875l-3.34375 0l-1.125 5.421875l-1.796875 0zm3.234375 -6.9375l2.953125 0q1.703125 0 2.5 -0.359375q0.8125 -0.375 1.296875 -1.125q0.484375 -0.765625 0.484375 -1.609375q0 -0.65625 -0.265625 -1.0625q-0.25 -0.421875 -0.71875 -0.609375q-0.46875 -0.203125 -1.78125 -0.203125l-3.421875 0l-1.046875 4.96875z" fill-rule="nonzero"/><path fill="#cfe2f3" d="m281.0013 499.3386l0 0c0 -7.740692 6.275055 -14.015747 14.015747 -14.015747l0 0c3.7171936 0 7.2821655 1.476654 9.910645 4.1051025c2.6284485 2.628479 4.1051025 6.1934204 4.1051025 9.910645l0 0c0 7.7406616 -6.275055 14.015717 -14.015747 14.015717l0 0c-7.740692 0 -14.015747 -6.275055 -14.015747 -14.015717z" fill-rule="evenodd"/><path fill="#000000" fill-opacity="0.0" d="m295.01706 485.32285l0 28.031464m-14.015747 -14.015717l28.031494 0" fill-rule="evenodd"/><path fill="#000000" fill-opacity="0.0" d="m281.0013 499.3386l0 0c0 -7.740692 6.275055 -14.015747 14.015747 -14.015747l0 0c3.7171936 0 7.2821655 1.476654 9.910645 4.1051025c2.6284485 2.628479 4.1051025 6.1934204 4.1051025 9.910645l0 0c0 7.7406616 -6.275055 14.015717 -14.015747 14.015717l0 0c-7.740692 0 -14.015747 -6.275055 -14.015747 -14.015717z" fill-rule="evenodd"/><path stroke="#000000" stroke-width="1.0" stroke-linejoin="round" stroke-linecap="butt" d="m295.01706 485.32285l0 28.031464m-14.015747 -14.015717l28.031494 0" fill-rule="evenodd"/><path stroke="#000000" stroke-width="1.0" stroke-linejoin="round" stroke-linecap="butt" d="m281.0013 499.3386l0 0c0 -7.740692 6.275055 -14.015747 14.015747 -14.015747l0 0c3.7171936 0 7.2821655 1.476654 9.910645 4.1051025c2.6284485 2.628479 4.1051025 6.1934204 4.1051025 9.910645l0 0c0 7.7406616 -6.275055 14.015717 -14.015747 14.015717l0 0c-7.740692 0 -14.015747 -6.275055 -14.015747 -14.015717z" fill-rule="evenodd"/><path fill="#000000" fill-opacity="0.0" d="m246.48163 499.49606l34.519684 -0.1574707" fill-rule="evenodd"/><path stroke="#000000" stroke-width="1.0" stroke-linejoin="round" stroke-linecap="butt" d="m246.48163 499.49606l28.519745 -0.13012695" fill-rule="evenodd"/><path fill="#000000" stroke="#000000" stroke-width="1.0" stroke-linecap="butt" d="m275.0089 501.01767l4.5305176 -1.6724243l-4.5455933 -1.631012z" fill-rule="evenodd"/><path fill="#000000" fill-opacity="0.0" d="m309.0328 499.3386l34.960632 0.1574707" fill-rule="evenodd"/><path stroke="#000000" stroke-width="1.0" stroke-linejoin="round" stroke-linecap="butt" d="m309.0328 499.3386l28.960693 0.13043213" fill-rule="evenodd"/><path fill="#000000" stroke="#000000" stroke-width="1.0" stroke-linecap="butt" d="m337.98605 501.12076l4.5455017 -1.6312866l-4.530609 -1.6721497z" fill-rule="evenodd"/><path fill="#000000" fill-opacity="0.0" d="m264.828 423.4987l60.37796 0l0 42.015747l-60.37796 0z" fill-rule="evenodd"/><path fill="#000000" d="m278.26602 450.41867l0 -13.359375l2.65625 0l3.15625 9.453125q0.4375 1.328125 0.640625 1.984375q0.234375 -0.734375 0.703125 -2.140625l3.203125 -9.296875l2.375 0l0 13.359375l-1.703125 0l0 -11.171875l-3.875 11.171875l-1.59375 0l-3.859375 -11.375l0 11.375l-1.703125 0zm15.415802 3.703125l0 -17.0625l3.609375 0l0 1.359375l-1.96875 0l0 14.34375l1.96875 0l0 1.359375l-3.609375 0zm4.698944 -10.296875q0 -2.359375 0.484375 -3.796875q0.484375 -1.453125 1.4375 -2.234375q0.96875 -0.78125 2.421875 -0.78125q1.078125 0 1.890625 0.4375q0.8125 0.421875 1.328125 1.25q0.53125 0.8125 0.828125 1.984375q0.3125 1.15625 0.3125 3.140625q0 2.359375 -0.484375 3.8125q-0.484375 1.4375 -1.453125 2.234375q-0.953125 0.78125 -2.421875 0.78125q-1.921875 0 -3.03125 -1.390625q-1.3125 -1.671875 -1.3125 -5.4375zm1.671875 0q0 3.296875 0.765625 4.390625q0.78125 1.078125 1.90625 1.078125q1.140625 0 1.90625 -1.09375q0.765625 -1.09375 0.765625 -4.375q0 -3.296875 -0.765625 -4.375q-0.765625 -1.078125 -1.921875 -1.078125q-1.125 0 -1.796875 0.953125q-0.859375 1.21875 -0.859375 4.5zm11.891327 10.296875l-3.609375 0l0 -1.359375l1.96875 0l0 -14.34375l-1.96875 0l0 -1.359375l3.609375 0l0 17.0625z" fill-rule="nonzero"/><path fill="#000000" fill-opacity="0.0" d="m295.01697 465.51443l0 19.811035" fill-rule="evenodd"/><path stroke="#000000" stroke-width="1.0" stroke-linejoin="round" stroke-linecap="butt" d="m295.01697 465.51443l0 13.811035" fill-rule="evenodd"/><path fill="#000000" stroke="#000000" stroke-width="1.0" stroke-linecap="butt" d="m293.36523 479.32547l1.6517334 4.538086l1.6517334 -4.538086z" fill-rule="evenodd"/><path fill="#000000" fill-opacity="0.0" d="m246.16273 603.74805l98.3622 -0.25201416" fill-rule="evenodd"/><path stroke="#000000" stroke-width="1.0" stroke-linejoin="round" stroke-linecap="butt" d="m246.16273 603.74805l92.36223 -0.2366333" fill-rule="evenodd"/><path fill="#000000" stroke="#000000" stroke-width="1.0" stroke-linecap="butt" d="m338.52917 605.16315l4.5338745 -1.6633301l-4.542328 -1.6401367z" fill-rule="evenodd"/><path fill="#cfe2f3" d="m479.82022 499.3386l0 0c0 -7.740692 6.275055 -14.015747 14.015747 -14.015747l0 0c3.7171936 0 7.2821655 1.476654 9.910614 4.1051025c2.628479 2.628479 4.105133 6.1934204 4.105133 9.910645l0 0c0 7.7406616 -6.2750854 14.015717 -14.015747 14.015717l0 0c-7.740692 0 -14.015747 -6.275055 -14.015747 -14.015717z" fill-rule="evenodd"/><path fill="#000000" fill-opacity="0.0" d="m493.83597 485.32285l0 28.031464m-14.015747 -14.015717l28.031494 0" fill-rule="evenodd"/><path fill="#000000" fill-opacity="0.0" d="m479.82022 499.3386l0 0c0 -7.740692 6.275055 -14.015747 14.015747 -14.015747l0 0c3.7171936 0 7.2821655 1.476654 9.910614 4.1051025c2.628479 2.628479 4.105133 6.1934204 4.105133 9.910645l0 0c0 7.7406616 -6.2750854 14.015717 -14.015747 14.015717l0 0c-7.740692 0 -14.015747 -6.275055 -14.015747 -14.015717z" fill-rule="evenodd"/><path stroke="#000000" stroke-width="1.0" stroke-linejoin="round" stroke-linecap="butt" d="m493.83597 485.32285l0 28.031464m-14.015747 -14.015717l28.031494 0" fill-rule="evenodd"/><path stroke="#000000" stroke-width="1.0" stroke-linejoin="round" stroke-linecap="butt" d="m479.82022 499.3386l0 0c0 -7.740692 6.275055 -14.015747 14.015747 -14.015747l0 0c3.7171936 0 7.2821655 1.476654 9.910614 4.1051025c2.628479 2.628479 4.105133 6.1934204 4.105133 9.910645l0 0c0 7.7406616 -6.2750854 14.015717 -14.015747 14.015717l0 0c-7.740692 0 -14.015747 -6.275055 -14.015747 -14.015717z" fill-rule="evenodd"/><path fill="#000000" fill-opacity="0.0" d="m445.30054 499.49606l34.519684 -0.1574707" fill-rule="evenodd"/><path stroke="#000000" stroke-width="1.0" stroke-linejoin="round" stroke-linecap="butt" d="m445.30054 499.49606l28.519745 -0.13012695" fill-rule="evenodd"/><path fill="#000000" stroke="#000000" stroke-width="1.0" stroke-linecap="butt" d="m473.82782 501.01767l4.5305176 -1.6724243l-4.5455933 -1.631012z" fill-rule="evenodd"/><path fill="#000000" fill-opacity="0.0" d="m507.8517 499.3386l34.9606 0.1574707" fill-rule="evenodd"/><path stroke="#000000" stroke-width="1.0" stroke-linejoin="round" stroke-linecap="butt" d="m507.8517 499.3386l28.960663 0.13043213" fill-rule="evenodd"/><path fill="#000000" stroke="#000000" stroke-width="1.0" stroke-linecap="butt" d="m536.80493 501.12076l4.545532 -1.6312866l-4.5306396 -1.6721497z" fill-rule="evenodd"/><path fill="#000000" fill-opacity="0.0" d="m463.42798 423.4987l60.37793 0l0 42.015747l-60.37793 0z" fill-rule="evenodd"/><path fill="#000000" d="m476.86603 450.41867l0 -13.359375l2.65625 0l3.15625 9.453125q0.4375 1.328125 0.640625 1.984375q0.234375 -0.734375 0.703125 -2.140625l3.203125 -9.296875l2.375 0l0 13.359375l-1.703125 0l0 -11.171875l-3.875 11.171875l-1.59375 0l-3.859375 -11.375l0 11.375l-1.703125 0zm15.415802 3.703125l0 -17.0625l3.609375 0l0 1.359375l-1.96875 0l0 14.34375l1.96875 0l0 1.359375l-3.609375 0zm10.870789 -3.703125l-1.640625 0l0 -10.453125q-0.59375 0.5625 -1.5625 1.140625q-0.953125 0.5625 -1.71875 0.84375l0 -1.59375q1.375 -0.640625 2.40625 -1.5625q1.03125 -0.921875 1.453125 -1.78125l1.0625 0l0 13.40625zm7.3913574 3.703125l-3.609375 0l0 -1.359375l1.96875 0l0 -14.34375l-1.96875 0l0 -1.359375l3.609375 0l0 17.0625z" fill-rule="nonzero"/><path fill="#000000" fill-opacity="0.0" d="m493.61697 465.51443l0.22045898 19.811035" fill-rule="evenodd"/><path stroke="#000000" stroke-width="1.0" stroke-linejoin="round" stroke-linecap="butt" d="m493.61697 465.51443l0.15368652 13.811401" fill-rule="evenodd"/><path fill="#000000" stroke="#000000" stroke-width="1.0" stroke-linecap="butt" d="m492.11905 479.3442l1.7021179 4.5194397l1.6011353 -4.556183z" fill-rule="evenodd"/><path fill="#cfe2f3" d="m479.59973 601.4829l0 0c0 -7.7406616 6.2750854 -14.015747 14.015747 -14.015747l0 0c3.7172241 0 7.2821655 1.4766846 9.910645 4.1051636c2.6284485 2.628418 4.1051025 6.1934204 4.1051025 9.9105835l0 0c0 7.7407227 -6.275055 14.015747 -14.015747 14.015747l0 0c-7.7406616 0 -14.015747 -6.2750244 -14.015747 -14.015747z" fill-rule="evenodd"/><path fill="#000000" fill-opacity="0.0" d="m493.61548 587.46716l0 28.031494m-14.015747 -14.015747l28.031494 0" fill-rule="evenodd"/><path fill="#000000" fill-opacity="0.0" d="m479.59973 601.4829l0 0c0 -7.7406616 6.2750854 -14.015747 14.015747 -14.015747l0 0c3.7172241 0 7.2821655 1.4766846 9.910645 4.1051636c2.6284485 2.628418 4.1051025 6.1934204 4.1051025 9.9105835l0 0c0 7.7407227 -6.275055 14.015747 -14.015747 14.015747l0 0c-7.7406616 0 -14.015747 -6.2750244 -14.015747 -14.015747z" fill-rule="evenodd"/><path stroke="#000000" stroke-width="1.0" stroke-linejoin="round" stroke-linecap="butt" d="m493.61548 587.46716l0 28.031494m-14.015747 -14.015747l28.031494 0" fill-rule="evenodd"/><path stroke="#000000" stroke-width="1.0" stroke-linejoin="round" stroke-linecap="butt" d="m479.59973 601.4829l0 0c0 -7.7406616 6.2750854 -14.015747 14.015747 -14.015747l0 0c3.7172241 0 7.2821655 1.4766846 9.910645 4.1051636c2.6284485 2.628418 4.1051025 6.1934204 4.1051025 9.9105835l0 0c0 7.7407227 -6.275055 14.015747 -14.015747 14.015747l0 0c-7.7406616 0 -14.015747 -6.2750244 -14.015747 -14.015747z" fill-rule="evenodd"/><path fill="#000000" fill-opacity="0.0" d="m445.08005 601.64044l34.519684 -0.15753174" fill-rule="evenodd"/><path stroke="#000000" stroke-width="1.0" stroke-linejoin="round" stroke-linecap="butt" d="m445.08005 601.64044l28.519775 -0.13012695" fill-rule="evenodd"/><path fill="#000000" stroke="#000000" stroke-width="1.0" stroke-linecap="butt" d="m473.60733 603.16205l4.5305176 -1.6724243l-4.5455933 -1.6310425z" fill-rule="evenodd"/><path fill="#000000" fill-opacity="0.0" d="m507.63123 601.4829l34.960632 0.15753174" fill-rule="evenodd"/><path stroke="#000000" stroke-width="1.0" stroke-linejoin="round" stroke-linecap="butt" d="m507.63123 601.4829l28.960693 0.13049316" fill-rule="evenodd"/><path fill="#000000" stroke="#000000" stroke-width="1.0" stroke-linecap="butt" d="m536.5845 603.26514l4.545532 -1.6312866l-4.5306396 -1.6721802z" fill-rule="evenodd"/><path fill="#000000" fill-opacity="0.0" d="m477.364 525.64307l32.503937 0l0 42.015747l-32.503937 0z" fill-rule="evenodd"/><path fill="#000000" d="m487.5984 552.56305l0 -9.671875l1.46875 0l0 1.359375q0.453125 -0.71875 1.203125 -1.140625q0.765625 -0.4375 1.71875 -0.4375q1.078125 0 1.765625 0.453125q0.6875 0.4375 0.96875 1.234375q1.15625 -1.6875 2.984375 -1.6875q1.453125 0 2.21875 0.796875q0.78125 0.796875 0.78125 2.453125l0 6.640625l-1.640625 0l0 -6.09375q0 -0.984375 -0.15625 -1.40625q-0.15625 -0.4375 -0.578125 -0.703125q-0.421875 -0.265625 -0.984375 -0.265625q-1.015625 0 -1.6875 0.6875q-0.671875 0.671875 -0.671875 2.15625l0 5.625l-1.640625 0l0 -6.28125q0 -1.09375 -0.40625 -1.640625q-0.40625 -0.546875 -1.3125 -0.546875q-0.6875 0 -1.28125 0.359375q-0.59375 0.359375 -0.859375 1.0625q-0.25 0.703125 -0.25 2.03125l0 5.015625l-1.640625 0z" fill-rule="nonzero"/><path fill="#000000" fill-opacity="0.0" d="m493.616 567.6588l0 19.810974" fill-rule="evenodd"/><path stroke="#000000" stroke-width="1.0" stroke-linejoin="round" stroke-linecap="butt" d="m493.61597 567.6588l0 13.810974" fill-rule="evenodd"/><path fill="#000000" stroke="#000000" stroke-width="1.0" stroke-linecap="butt" d="m491.96423 581.4698l1.6517334 4.538147l1.6517334 -4.538147z" fill-rule="evenodd"/><path fill="#000000" fill-opacity="0.0" d="m648.6693 235.57217l51.18109 0.5354309" fill-rule="evenodd"/><path stroke="#000000" stroke-width="1.0" stroke-linejoin="round" stroke-linecap="butt" d="m648.6693 235.57217l45.181396 0.4726715" fill-rule="evenodd"/><path fill="#000000" stroke="#000000" stroke-width="1.0" stroke-linecap="butt" d="m693.83344 237.69649l4.5551147 -1.6041718l-4.520569 -1.6991119z" fill-rule="evenodd"/><path fill="#000000" fill-opacity="0.0" d="m648.6693 338.99213l51.433044 0.50393677" fill-rule="evenodd"/><path stroke="#000000" stroke-width="1.0" stroke-linejoin="round" stroke-linecap="butt" d="m648.6693 338.99213l45.43335 0.4451599" fill-rule="evenodd"/><path fill="#000000" stroke="#000000" stroke-width="1.0" stroke-linecap="butt" d="m694.0865 341.08893l4.554016 -1.6071777l-4.5216675 -1.6961365z" fill-rule="evenodd"/><path fill="#000000" fill-opacity="0.0" d="m700.10236 214.5643l37.700806 0l0 42.015747l-37.700806 0z" fill-rule="evenodd"/><path fill="#000000" d="m710.5711 241.4843l0 -13.359375l5.921875 0q1.78125 0 2.703125 0.359375q0.9375 0.359375 1.484375 1.28125q0.5625 0.90625 0.5625 2.015625q0 1.40625 -0.921875 2.390625q-0.921875 0.96875 -2.84375 1.234375q0.703125 0.34375 1.078125 0.671875q0.765625 0.703125 1.453125 1.765625l2.328125 3.640625l-2.21875 0l-1.765625 -2.78125q-0.78125 -1.203125 -1.28125 -1.828125q-0.5 -0.640625 -0.90625 -0.890625q-0.390625 -0.265625 -0.796875 -0.359375q-0.296875 -0.078125 -0.984375 -0.078125l-2.046875 0l0 5.9375l-1.765625 0zm1.765625 -7.453125l3.796875 0q1.21875 0 1.890625 -0.25q0.6875 -0.265625 1.046875 -0.8125q0.359375 -0.546875 0.359375 -1.1875q0 -0.953125 -0.6875 -1.5625q-0.6875 -0.609375 -2.1875 -0.609375l-4.21875 0l0 4.421875z" fill-rule="nonzero"/><path fill="#000000" fill-opacity="0.0" d="m700.10236 317.98425l37.700806 0l0 42.015747l-37.700806 0z" fill-rule="evenodd"/><path fill="#000000" d="m720.0711 340.21674l1.765625 0.453125q-0.5625 2.171875 -2.0 3.328125q-1.4375 1.140625 -3.53125 1.140625q-2.15625 0 -3.515625 -0.875q-1.34375 -0.890625 -2.0625 -2.546875q-0.703125 -1.671875 -0.703125 -3.59375q0 -2.078125 0.796875 -3.625q0.796875 -1.5625 2.265625 -2.359375q1.484375 -0.8125 3.25 -0.8125q2.0 0 3.359375 1.015625q1.375 1.015625 1.90625 2.875l-1.734375 0.40625q-0.46875 -1.453125 -1.359375 -2.109375q-0.875 -0.671875 -2.203125 -0.671875q-1.546875 0 -2.578125 0.734375q-1.03125 0.734375 -1.453125 1.984375q-0.421875 1.234375 -0.421875 2.5625q0 1.703125 0.5 2.96875q0.5 1.265625 1.546875 1.90625q1.046875 0.625 2.265625 0.625q1.484375 0 2.515625 -0.859375q1.03125 -0.859375 1.390625 -2.546875z" fill-rule="nonzero"/><path fill="#000000" fill-opacity="0.0" d="m208.46457 478.40945l37.70079 0l0 42.015717l-37.70079 0z" fill-rule="evenodd"/><path fill="#000000" d="m218.93332 505.32944l0 -13.359375l5.921875 0q1.78125 0 2.703125 0.359375q0.9375 0.359375 1.484375 1.28125q0.5625 0.90625 0.5625 2.015625q0 1.40625 -0.921875 2.390625q-0.921875 0.96875 -2.84375 1.234375q0.703125 0.34375 1.078125 0.671875q0.765625 0.703125 1.453125 1.765625l2.328125 3.640625l-2.21875 0l-1.765625 -2.78125q-0.78125 -1.203125 -1.28125 -1.828125q-0.5 -0.640625 -0.90625 -0.890625q-0.390625 -0.265625 -0.796875 -0.359375q-0.296875 -0.078125 -0.984375 -0.078125l-2.046875 0l0 5.9375l-1.765625 0zm1.765625 -7.453125l3.796875 0q1.21875 0 1.890625 -0.25q0.6875 -0.265625 1.046875 -0.8125q0.359375 -0.546875 0.359375 -1.1875q0 -0.953125 -0.6875 -1.5625q-0.6875 -0.609375 -2.1875 -0.609375l-4.21875 0l0 4.421875z" fill-rule="nonzero"/><path fill="#000000" fill-opacity="0.0" d="m208.46194 582.7402l37.70079 0l0 42.015747l-37.70079 0z" fill-rule="evenodd"/><path fill="#000000" d="m228.4307 604.97266l1.765625 0.453125q-0.5625 2.171875 -2.0 3.328125q-1.4375 1.140625 -3.53125 1.140625q-2.15625 0 -3.515625 -0.875q-1.34375 -0.890625 -2.0625 -2.546875q-0.703125 -1.671875 -0.703125 -3.59375q0 -2.078125 0.796875 -3.625q0.796875 -1.5625 2.265625 -2.359375q1.484375 -0.8125 3.25 -0.8125q2.0 0 3.359375 1.015625q1.375 1.015625 1.90625 2.875l-1.734375 0.40625q-0.46875 -1.453125 -1.359375 -2.109375q-0.875 -0.671875 -2.203125 -0.671875q-1.546875 0 -2.578125 0.734375q-1.03125 0.734375 -1.453125 1.984375q-0.421875 1.234375 -0.421875 2.5625q0 1.703125 0.5 2.96875q0.5 1.265625 1.546875 1.90625q1.046875 0.625 2.265625 0.625q1.484375 0 2.515625 -0.859375q1.03125 -0.859375 1.390625 -2.546875z" fill-rule="nonzero"/><path fill="#000000" fill-opacity="0.0" d="m646.24146 496.5013l97.51184 -0.50393677" fill-rule="evenodd"/><path stroke="#000000" stroke-width="1.0" stroke-linejoin="round" stroke-linecap="butt" d="m646.24146 496.5013l91.5119 -0.4729309" fill-rule="evenodd"/><path fill="#000000" stroke="#000000" stroke-width="1.0" stroke-linecap="butt" d="m737.7619 497.68008l4.52948 -1.6751404l-4.54657 -1.6282654z" fill-rule="evenodd"/><path fill="#000000" fill-opacity="0.0" d="m645.8163 603.74805l98.36218 -0.25201416" fill-rule="evenodd"/><path stroke="#000000" stroke-width="1.0" stroke-linejoin="round" stroke-linecap="butt" d="m645.8163 603.74805l92.36218 -0.2366333" fill-rule="evenodd"/><path fill="#000000" stroke="#000000" stroke-width="1.0" stroke-linecap="butt" d="m738.18274 605.16315l4.5338135 -1.6633301l-4.5422974 -1.6401367z" fill-rule="evenodd"/><path fill="#000000" fill-opacity="0.0" d="m745.7507 588.50134l89.51178 0l0 42.015747l-89.51178 0z" fill-rule="evenodd"/><path fill="#000000" d="m762.2507 615.4213l0 -1.21875q-0.90625 1.4375 -2.703125 1.4375q-1.15625 0 -2.125 -0.640625q-0.96875 -0.640625 -1.5 -1.78125q-0.53125 -1.140625 -0.53125 -2.625q0 -1.453125 0.484375 -2.625q0.484375 -1.1875 1.4375 -1.8125q0.96875 -0.625 2.171875 -0.625q0.875 0 1.546875 0.375q0.6875 0.359375 1.109375 0.953125l0 -4.796875l1.640625 0l0 13.359375l-1.53125 0zm-5.171875 -4.828125q0 1.859375 0.78125 2.78125q0.78125 0.921875 1.84375 0.921875q1.078125 0 1.828125 -0.875q0.75 -0.890625 0.75 -2.6875q0 -1.984375 -0.765625 -2.90625q-0.765625 -0.9375 -1.890625 -0.9375q-1.078125 0 -1.8125 0.890625q-0.734375 0.890625 -0.734375 2.8125zm9.281982 -6.640625l0 -1.890625l1.640625 0l0 1.890625l-1.640625 0zm0 11.46875l0 -9.671875l1.640625 0l0 9.671875l-1.640625 0zm3.4885254 -2.890625l1.625 -0.25q0.125 0.96875 0.75 1.5q0.625 0.515625 1.75 0.515625q1.125 0 1.671875 -0.453125q0.546875 -0.46875 0.546875 -1.09375q0 -0.546875 -0.484375 -0.875q-0.328125 -0.21875 -1.671875 -0.546875q-1.8125 -0.46875 -2.515625 -0.796875q-0.6875 -0.328125 -1.046875 -0.90625q-0.359375 -0.59375 -0.359375 -1.3125q0 -0.640625 0.296875 -1.1875q0.296875 -0.5625 0.8125 -0.921875q0.375 -0.28125 1.03125 -0.46875q0.671875 -0.203125 1.421875 -0.203125q1.140625 0 2.0 0.328125q0.859375 0.328125 1.265625 0.890625q0.421875 0.5625 0.578125 1.5l-1.609375 0.21875q-0.109375 -0.75 -0.640625 -1.171875q-0.515625 -0.421875 -1.46875 -0.421875q-1.140625 0 -1.625 0.375q-0.46875 0.375 -0.46875 0.875q0 0.3125 0.1875 0.578125q0.203125 0.265625 0.640625 0.4375q0.234375 0.09375 1.4375 0.421875q1.75 0.453125 2.4375 0.75q0.6875 0.296875 1.078125 0.859375q0.390625 0.5625 0.390625 1.40625q0 0.828125 -0.484375 1.546875q-0.46875 0.71875 -1.375 1.125q-0.90625 0.390625 -2.046875 0.390625q-1.875 0 -2.875 -0.78125q-0.984375 -0.78125 -1.25 -2.328125zm16.296875 -0.65625l1.609375 0.21875q-0.265625 1.65625 -1.359375 2.609375q-1.078125 0.9375 -2.671875 0.9375q-1.984375 0 -3.1875 -1.296875q-1.203125 -1.296875 -1.203125 -3.71875q0 -1.578125 0.515625 -2.75q0.515625 -1.171875 1.578125 -1.75q1.0625 -0.59375 2.3125 -0.59375q1.578125 0 2.578125 0.796875q1.0 0.796875 1.28125 2.265625l-1.59375 0.234375q-0.234375 -0.96875 -0.8125 -1.453125q-0.578125 -0.5 -1.390625 -0.5q-1.234375 0 -2.015625 0.890625q-0.78125 0.890625 -0.78125 2.8125q0 1.953125 0.75 2.84375q0.75 0.875 1.953125 0.875q0.96875 0 1.609375 -0.59375q0.65625 -0.59375 0.828125 -1.828125zm9.328125 2.359375q-0.921875 0.765625 -1.765625 1.09375q-0.828125 0.3125 -1.796875 0.3125q-1.59375 0 -2.453125 -0.78125q-0.859375 -0.78125 -0.859375 -1.984375q0 -0.71875 0.328125 -1.296875q0.328125 -0.59375 0.84375 -0.9375q0.53125 -0.359375 1.1875 -0.546875q0.46875 -0.125 1.453125 -0.25q1.984375 -0.234375 2.921875 -0.5625q0.015625 -0.34375 0.015625 -0.421875q0 -1.0 -0.46875 -1.421875q-0.625 -0.546875 -1.875 -0.546875q-1.15625 0 -1.703125 0.40625q-0.546875 0.40625 -0.8125 1.421875l-1.609375 -0.21875q0.21875 -1.015625 0.71875 -1.640625q0.5 -0.640625 1.453125 -0.984375q0.953125 -0.34375 2.1875 -0.34375q1.25 0 2.015625 0.296875q0.78125 0.28125 1.140625 0.734375q0.375 0.4375 0.515625 1.109375q0.078125 0.421875 0.078125 1.515625l0 2.1875q0 2.28125 0.109375 2.890625q0.109375 0.59375 0.40625 1.15625l-1.703125 0q-0.265625 -0.515625 -0.328125 -1.1875zm-0.140625 -3.671875q-0.890625 0.375 -2.671875 0.625q-1.015625 0.140625 -1.4375 0.328125q-0.421875 0.1875 -0.65625 0.53125q-0.21875 0.34375 -0.21875 0.78125q0 0.65625 0.5 1.09375q0.5 0.4375 1.453125 0.4375q0.9375 0 1.671875 -0.40625q0.75 -0.421875 1.09375 -1.140625q0.265625 -0.5625 0.265625 -1.640625l0 -0.609375zm4.1882324 4.859375l0 -9.671875l1.46875 0l0 1.46875q0.5625 -1.03125 1.03125 -1.359375q0.484375 -0.328125 1.0625 -0.328125q0.828125 0 1.6875 0.53125l-0.5625 1.515625q-0.609375 -0.359375 -1.203125 -0.359375q-0.546875 0 -0.96875 0.328125q-0.421875 0.328125 -0.609375 0.890625q-0.28125 0.875 -0.28125 1.921875l0 5.0625l-1.625 0zm12.4939575 0l0 -1.21875q-0.90625 1.4375 -2.703125 1.4375q-1.15625 0 -2.125 -0.640625q-0.96875 -0.640625 -1.5 -1.78125q-0.53125 -1.140625 -0.53125 -2.625q0 -1.453125 0.484375 -2.625q0.484375 -1.1875 1.4375 -1.8125q0.96875 -0.625 2.171875 -0.625q0.875 0 1.546875 0.375q0.6875 0.359375 1.109375 0.953125l0 -4.796875l1.640625 0l0 13.359375l-1.53125 0zm-5.171875 -4.828125q0 1.859375 0.78125 2.78125q0.78125 0.921875 1.84375 0.921875q1.078125 0 1.828125 -0.875q0.75 -0.890625 0.75 -2.6875q0 -1.984375 -0.765625 -2.90625q-0.765625 -0.9375 -1.890625 -0.9375q-1.078125 0 -1.8125 0.890625q-0.734375 0.890625 -0.734375 2.8125z" fill-rule="nonzero"/><path fill="#000000" fill-opacity="0.0" d="m744.7507 481.75067l30.015747 0l0 42.015747l-30.015747 0z" fill-rule="evenodd"/><path fill="#000000" d="m758.5944 508.67065l0 -11.78125l-4.40625 0l0 -1.578125l10.578125 0l0 1.578125l-4.40625 0l0 11.78125l-1.765625 0z" fill-rule="nonzero"/><path fill="#000000" fill-opacity="0.0" d="m329.01575 499.49606l0 -79.24408" fill-rule="evenodd"/><path stroke="#000000" stroke-width="1.0" stroke-linejoin="round" stroke-linecap="butt" d="m329.01575 499.49606l0 -73.24408" fill-rule="evenodd"/><path fill="#000000" stroke="#000000" stroke-width="1.0" stroke-linecap="butt" d="m330.66748 426.25195l-1.6517334 -4.538086l-1.6517334 4.538086z" fill-rule="evenodd"/><path fill="#000000" fill-opacity="0.0" d="m290.33194 379.9239l60.37796 0l0 42.015747l-60.37796 0z" fill-rule="evenodd"/><path fill="#000000" d="m314.38202 402.15637l1.765625 0.453125q-0.5625 2.171875 -2.0 3.328125q-1.4375 1.140625 -3.53125 1.140625q-2.15625 0 -3.515625 -0.875q-1.34375 -0.890625 -2.0625 -2.546875q-0.703125 -1.671875 -0.703125 -3.59375q0 -2.078125 0.796875 -3.625q0.796875 -1.5625 2.265625 -2.359375q1.484375 -0.8125 3.25 -0.8125q2.0 0 3.359375 1.015625q1.375 1.015625 1.90625 2.875l-1.734375 0.40625q-0.46875 -1.453125 -1.359375 -2.109375q-0.875 -0.671875 -2.203125 -0.671875q-1.546875 0 -2.578125 0.734375q-1.03125 0.734375 -1.453125 1.984375q-0.421875 1.234375 -0.421875 2.5625q0 1.703125 0.5 2.96875q0.5 1.265625 1.546875 1.90625q1.046875 0.625 2.265625 0.625q1.484375 0 2.515625 -0.859375q1.03125 -0.859375 1.390625 -2.546875zm3.7698364 8.390625l0 -17.0625l3.609375 0l0 1.359375l-1.96875 0l0 14.34375l1.96875 0l0 1.359375l-3.609375 0zm4.6989136 -10.296875q0 -2.359375 0.484375 -3.796875q0.484375 -1.453125 1.4375 -2.234375q0.96875 -0.78125 2.421875 -0.78125q1.078125 0 1.890625 0.4375q0.8125 0.421875 1.328125 1.25q0.53125 0.8125 0.828125 1.984375q0.3125 1.15625 0.3125 3.140625q0 2.359375 -0.484375 3.8125q-0.484375 1.4375 -1.453125 2.234375q-0.953125 0.78125 -2.421875 0.78125q-1.921875 0 -3.03125 -1.390625q-1.3125 -1.671875 -1.3125 -5.4375zm1.671875 0q0 3.296875 0.765625 4.390625q0.78125 1.078125 1.90625 1.078125q1.140625 0 1.90625 -1.09375q0.765625 -1.09375 0.765625 -4.375q0 -3.296875 -0.765625 -4.375q-0.765625 -1.078125 -1.921875 -1.078125q-1.125 0 -1.796875 0.953125q-0.859375 1.21875 -0.859375 4.5zm11.891357 10.296875l-3.609375 0l0 -1.359375l1.96875 0l0 -14.34375l-1.96875 0l0 -1.359375l3.609375 0l0 17.0625z" fill-rule="nonzero"/><path fill="#000000" fill-opacity="0.0" d="m519.7244 499.49606l0 -79.24408" fill-rule="evenodd"/><path stroke="#000000" stroke-width="1.0" stroke-linejoin="round" stroke-linecap="butt" d="m519.7244 499.49606l0 -73.24408" fill-rule="evenodd"/><path fill="#000000" stroke="#000000" stroke-width="1.0" stroke-linecap="butt" d="m521.37616 426.25195l-1.6517334 -4.538086l-1.6517334 4.538086z" fill-rule="evenodd"/><path fill="#000000" fill-opacity="0.0" d="m481.0406 379.9239l60.37799 0l0 42.015747l-60.37799 0z" fill-rule="evenodd"/><path fill="#000000" d="m505.0907 402.15637l1.765625 0.453125q-0.5625 2.171875 -2.0 3.328125q-1.4375 1.140625 -3.53125 1.140625q-2.15625 0 -3.515625 -0.875q-1.34375 -0.890625 -2.0625 -2.546875q-0.703125 -1.671875 -0.703125 -3.59375q0 -2.078125 0.796875 -3.625q0.796875 -1.5625 2.265625 -2.359375q1.484375 -0.8125 3.25 -0.8125q2.0 0 3.359375 1.015625q1.375 1.015625 1.90625 2.875l-1.734375 0.40625q-0.46875 -1.453125 -1.359375 -2.109375q-0.875 -0.671875 -2.203125 -0.671875q-1.546875 0 -2.578125 0.734375q-1.03125 0.734375 -1.453125 1.984375q-0.421875 1.234375 -0.421875 2.5625q0 1.703125 0.5 2.96875q0.5 1.265625 1.546875 1.90625q1.046875 0.625 2.265625 0.625q1.484375 0 2.515625 -0.859375q1.03125 -0.859375 1.390625 -2.546875zm3.769806 8.390625l0 -17.0625l3.6094055 0l0 1.359375l-1.9687805 0l0 14.34375l1.9687805 0l0 1.359375l-3.6094055 0zm10.870819 -3.703125l-1.640625 0l0 -10.453125q-0.59375 0.5625 -1.5625 1.140625q-0.953125 0.5625 -1.71875 0.84375l0 -1.59375q1.375 -0.640625 2.40625 -1.5625q1.03125 -0.921875 1.453125 -1.78125l1.0625 0l0 13.40625zm7.3913574 3.703125l-3.609375 0l0 -1.359375l1.96875 0l0 -14.34375l-1.96875 0l0 -1.359375l3.609375 0l0 17.0625z" fill-rule="nonzero"/></g></svg>