<svg version="1.1" viewBox="0.0 0.0 1024.0 768.0" fill="none" stroke="none" stroke-linecap="square" stroke-miterlimit="10" xmlns:xlink="http://www.w3.org/1999/xlink" xmlns="http://www.w3.org/2000/svg"><clipPath id="p.0"><path d="m0 0l1024.0 0l0 768.0l-1024.0 0l0 -768.0z" clip-rule="nonzero"/></clipPath><g clip-path="url(#p.0)"><path fill="#000000" fill-opacity="0.0" d="m0 0l1024.0 0l0 768.0l-1024.0 0z" fill-rule="evenodd"/><path fill="#cfe2f3" d="m210.12335 147.09973l0 0c0 -11.02829 8.940216 -19.968498 19.968506 -19.968498l0 0c5.2959747 0 10.375046 2.1038132 14.119873 5.8486404c3.744812 3.7448273 5.848633 8.823883 5.848633 14.119858l0 0c0 11.028305 -8.940201 19.968506 -19.968506 19.968506l0 0c-11.02829 0 -19.968506 -8.940201 -19.968506 -19.968506z" fill-rule="evenodd"/><path stroke="#000000" stroke-width="1.0" stroke-linejoin="round" stroke-linecap="butt" d="m210.12335 147.09973l0 0c0 -11.02829 8.940216 -19.968498 19.968506 -19.968498l0 0c5.2959747 0 10.375046 2.1038132 14.119873 5.8486404c3.744812 3.7448273 5.848633 8.823883 5.848633 14.119858l0 0c0 11.028305 -8.940201 19.968506 -19.968506 19.968506l0 0c-11.02829 0 -19.968506 -8.940201 -19.968506 -19.968506z" fill-rule="evenodd"/><path fill="#000000" fill-opacity="0.0" d="m210.12335 147.09973l39.93701 0" fill-rule="evenodd"/><path stroke="#000000" stroke-width="1.0" stroke-linejoin="round" stroke-linecap="butt" d="m210.12335 147.09973l39.93701 0" fill-rule="evenodd"/><path fill="#000000" fill-opacity="0.0" d="m230.09186 127.13123l0 39.937004" fill-rule="evenodd"/><path stroke="#000000" stroke-width="1.0" stroke-linejoin="round" stroke-linecap="butt" d="m230.09186 127.13123l0 39.937004" fill-rule="evenodd"/><path fill="#cfe2f3" d="m681.4593 147.09973l0 0c0 -11.02829 8.940247 -19.968498 19.968506 -19.968498l0 0c5.2960205 0 10.375061 2.1038132 14.119873 5.8486404c3.744812 3.7448273 5.848633 8.823883 5.848633 14.119858l0 0c0 11.028305 -8.940186 19.968506 -19.968506 19.968506l0 0c-11.028259 0 -19.968506 -8.940201 -19.968506 -19.968506z" fill-rule="evenodd"/><path stroke="#000000" stroke-width="1.0" stroke-linejoin="round" stroke-linecap="butt" d="m681.4593 147.09973l0 0c0 -11.02829 8.940247 -19.968498 19.968506 -19.968498l0 0c5.2960205 0 10.375061 2.1038132 14.119873 5.8486404c3.744812 3.7448273 5.848633 8.823883 5.848633 14.119858l0 0c0 11.028305 -8.940186 19.968506 -19.968506 19.968506l0 0c-11.028259 0 -19.968506 -8.940201 -19.968506 -19.968506z" fill-rule="evenodd"/><path fill="#000000" fill-opacity="0.0" d="m681.4593 147.09973l39.93701 0" fill-rule="evenodd"/><path stroke="#000000" stroke-width="1.0" stroke-linejoin="round" stroke-linecap="butt" d="m681.4593 147.09973l39.93701 0" fill-rule="evenodd"/><path fill="#000000" fill-opacity="0.0" d="m701.4278 127.13123l0 39.937004" fill-rule="evenodd"/><path stroke="#000000" stroke-width="1.0" stroke-linejoin="round" stroke-linecap="butt" d="m701.4278 127.13123l0 39.937004" fill-rule="evenodd"/><path fill="#cfe2f3" d="m681.4593 275.62204l0 0c0 -11.02829 8.940247 -19.96849 19.968506 -19.96849l0 0c5.2960205 0 10.375061 2.1038055 14.119873 5.848648c3.744812 3.744812 5.848633 8.823883 5.848633 14.119843l0 0c0 11.02832 -8.940186 19.968506 -19.968506 19.968506l0 0c-11.028259 0 -19.968506 -8.940186 -19.968506 -19.968506z" fill-rule="evenodd"/><path stroke="#000000" stroke-width="1.0" stroke-linejoin="round" stroke-linecap="butt" d="m681.4593 275.62204l0 0c0 -11.02829 8.940247 -19.96849 19.968506 -19.96849l0 0c5.2960205 0 10.375061 2.1038055 14.119873 5.848648c3.744812 3.744812 5.848633 8.823883 5.848633 14.119843l0 0c0 11.02832 -8.940186 19.968506 -19.968506 19.968506l0 0c-11.028259 0 -19.968506 -8.940186 -19.968506 -19.968506z" fill-rule="evenodd"/><path fill="#000000" fill-opacity="0.0" d="m681.4593 275.62204l39.93701 0" fill-rule="evenodd"/><path stroke="#000000" stroke-width="1.0" stroke-linejoin="round" stroke-linecap="butt" d="m681.4593 275.62204l39.93701 0" fill-rule="evenodd"/><path fill="#000000" fill-opacity="0.0" d="m701.4278 255.65355l0 39.936996" fill-rule="evenodd"/><path stroke="#000000" stroke-width="1.0" stroke-linejoin="round" stroke-linecap="butt" d="m701.4278 255.65355l0 39.936996" fill-rule="evenodd"/><path fill="#cfe2f3" d="m681.4593 405.3924l0 0c0 -11.02832 8.940247 -19.968506 19.968506 -19.968506l0 0c5.2960205 0 10.375061 2.1038208 14.119873 5.848633c3.744812 3.744812 5.848633 8.823883 5.848633 14.119873l0 0c0 11.02829 -8.940186 19.968506 -19.968506 19.968506l0 0c-11.028259 0 -19.968506 -8.940216 -19.968506 -19.968506z" fill-rule="evenodd"/><path stroke="#000000" stroke-width="1.0" stroke-linejoin="round" stroke-linecap="butt" d="m681.4593 405.3924l0 0c0 -11.02832 8.940247 -19.968506 19.968506 -19.968506l0 0c5.2960205 0 10.375061 2.1038208 14.119873 5.848633c3.744812 3.744812 5.848633 8.823883 5.848633 14.119873l0 0c0 11.02829 -8.940186 19.968506 -19.968506 19.968506l0 0c-11.028259 0 -19.968506 -8.940216 -19.968506 -19.968506z" fill-rule="evenodd"/><path fill="#000000" fill-opacity="0.0" d="m681.4593 405.3924l39.93701 0" fill-rule="evenodd"/><path stroke="#000000" stroke-width="1.0" stroke-linejoin="round" stroke-linecap="butt" d="m681.4593 405.3924l39.93701 0" fill-rule="evenodd"/><path fill="#000000" fill-opacity="0.0" d="m701.4278 385.4239l0 39.93701" fill-rule="evenodd"/><path stroke="#000000" stroke-width="1.0" stroke-linejoin="round" stroke-linecap="butt" d="m701.4278 385.4239l0 39.93701" fill-rule="evenodd"/><path fill="#cfe2f3" d="m681.4593 535.1627l0 0c0 -11.02832 8.940247 -19.968506 19.968506 -19.968506l0 0c5.2960205 0 10.375061 2.1038208 14.119873 5.848633c3.744812 3.744812 5.848633 8.823914 5.848633 14.119873l0 0c0 11.02832 -8.940186 19.968506 -19.968506 19.968506l0 0c-11.028259 0 -19.968506 -8.940186 -19.968506 -19.968506z" fill-rule="evenodd"/><path stroke="#000000" stroke-width="1.0" stroke-linejoin="round" stroke-linecap="butt" d="m681.4593 535.1627l0 0c0 -11.02832 8.940247 -19.968506 19.968506 -19.968506l0 0c5.2960205 0 10.375061 2.1038208 14.119873 5.848633c3.744812 3.744812 5.848633 8.823914 5.848633 14.119873l0 0c0 11.02832 -8.940186 19.968506 -19.968506 19.968506l0 0c-11.028259 0 -19.968506 -8.940186 -19.968506 -19.968506z" fill-rule="evenodd"/><path fill="#000000" fill-opacity="0.0" d="m681.4593 535.1627l39.93701 0" fill-rule="evenodd"/><path stroke="#000000" stroke-width="1.0" stroke-linejoin="round" stroke-linecap="butt" d="m681.4593 535.1627l39.93701 0" fill-rule="evenodd"/><path fill="#000000" fill-opacity="0.0" d="m701.4278 515.1942l0 39.93701" fill-rule="evenodd"/><path stroke="#000000" stroke-width="1.0" stroke-linejoin="round" stroke-linecap="butt" d="m701.4278 515.1942l0 39.93701" fill-rule="evenodd"/><path fill="#cfe2f3" d="m681.4593 666.1811l0 0c0 -11.028259 8.940247 -19.968506 19.968506 -19.968506l0 0c5.2960205 0 10.375061 2.1038208 14.119873 5.848633c3.744812 3.744812 5.848633 8.823914 5.848633 14.119873l0 0c0 11.02832 -8.940186 19.968506 -19.968506 19.968506l0 0c-11.028259 0 -19.968506 -8.940186 -19.968506 -19.968506z" fill-rule="evenodd"/><path stroke="#000000" stroke-width="1.0" stroke-linejoin="round" stroke-linecap="butt" d="m681.4593 666.1811l0 0c0 -11.028259 8.940247 -19.968506 19.968506 -19.968506l0 0c5.2960205 0 10.375061 2.1038208 14.119873 5.848633c3.744812 3.744812 5.848633 8.823914 5.848633 14.119873l0 0c0 11.02832 -8.940186 19.968506 -19.968506 19.968506l0 0c-11.028259 0 -19.968506 -8.940186 -19.968506 -19.968506z" fill-rule="evenodd"/><path fill="#000000" fill-opacity="0.0" d="m681.4593 666.1811l39.93701 0" fill-rule="evenodd"/><path stroke="#000000" stroke-width="1.0" stroke-linejoin="round" stroke-linecap="butt" d="m681.4593 666.1811l39.93701 0" fill-rule="evenodd"/><path fill="#000000" fill-opacity="0.0" d="m701.4278 646.2126l0 39.93701" fill-rule="evenodd"/><path stroke="#000000" stroke-width="1.0" stroke-linejoin="round" stroke-linecap="butt" d="m701.4278 646.2126l0 39.93701" fill-rule="evenodd"/><path fill="#cfe2f3" d="m320.91864 206.17323l0 0c0 -11.028305 8.940186 -19.968506 19.968506 -19.968506l0 0c5.2959595 0 10.3750305 2.1038208 14.119843 5.848633c3.7448425 3.7448273 5.8486633 8.823898 5.8486633 14.119873l0 0c0 11.02829 -8.940216 19.968506 -19.968506 19.968506l0 0c-11.02832 0 -19.968506 -8.940216 -19.968506 -19.968506z" fill-rule="evenodd"/><path stroke="#000000" stroke-width="1.0" stroke-linejoin="round" stroke-linecap="butt" d="m320.91864 206.17323l0 0c0 -11.028305 8.940186 -19.968506 19.968506 -19.968506l0 0c5.2959595 0 10.3750305 2.1038208 14.119843 5.848633c3.7448425 3.7448273 5.8486633 8.823898 5.8486633 14.119873l0 0c0 11.02829 -8.940216 19.968506 -19.968506 19.968506l0 0c-11.02832 0 -19.968506 -8.940216 -19.968506 -19.968506z" fill-rule="evenodd"/><path fill="#000000" fill-opacity="0.0" d="m320.91864 206.17323l39.93701 0" fill-rule="evenodd"/><path stroke="#000000" stroke-width="1.0" stroke-linejoin="round" stroke-linecap="butt" d="m320.91864 206.17323l39.93701 0" fill-rule="evenodd"/><path fill="#000000" fill-opacity="0.0" d="m340.88715 186.20473l0 39.93701" fill-rule="evenodd"/><path stroke="#000000" stroke-width="1.0" stroke-linejoin="round" stroke-linecap="butt" d="m340.88715 186.20473l0 39.93701" fill-rule="evenodd"/><path fill="#cfe2f3" d="m320.91864 334.69553l0 0c0 -11.02829 8.940186 -19.968506 19.968506 -19.968506l0 0c5.2959595 0 10.3750305 2.1038208 14.119843 5.8486633c3.7448425 3.744812 5.8486633 8.823883 5.8486633 14.119843l0 0c0 11.02832 -8.940216 19.968506 -19.968506 19.968506l0 0c-11.02832 0 -19.968506 -8.940186 -19.968506 -19.968506z" fill-rule="evenodd"/><path stroke="#000000" stroke-width="1.0" stroke-linejoin="round" stroke-linecap="butt" d="m320.91864 334.69553l0 0c0 -11.02829 8.940186 -19.968506 19.968506 -19.968506l0 0c5.2959595 0 10.3750305 2.1038208 14.119843 5.8486633c3.7448425 3.744812 5.8486633 8.823883 5.8486633 14.119843l0 0c0 11.02832 -8.940216 19.968506 -19.968506 19.968506l0 0c-11.02832 0 -19.968506 -8.940186 -19.968506 -19.968506z" fill-rule="evenodd"/><path fill="#000000" fill-opacity="0.0" d="m320.91864 334.69553l39.93701 0" fill-rule="evenodd"/><path stroke="#000000" stroke-width="1.0" stroke-linejoin="round" stroke-linecap="butt" d="m320.91864 334.69553l39.93701 0" fill-rule="evenodd"/><path fill="#000000" fill-opacity="0.0" d="m340.88715 314.72702l0 39.93701" fill-rule="evenodd"/><path stroke="#000000" stroke-width="1.0" stroke-linejoin="round" stroke-linecap="butt" d="m340.88715 314.72702l0 39.93701" fill-rule="evenodd"/><path fill="#cfe2f3" d="m320.91864 463.21783l0 0c0 -11.02829 8.940186 -19.968506 19.968506 -19.968506l0 0c5.2959595 0 10.3750305 2.1038208 14.119843 5.8486633c3.7448425 3.744812 5.8486633 8.823883 5.8486633 14.119843l0 0c0 11.02832 -8.940216 19.968506 -19.968506 19.968506l0 0c-11.02832 0 -19.968506 -8.940186 -19.968506 -19.968506z" fill-rule="evenodd"/><path stroke="#000000" stroke-width="1.0" stroke-linejoin="round" stroke-linecap="butt" d="m320.91864 463.21783l0 0c0 -11.02829 8.940186 -19.968506 19.968506 -19.968506l0 0c5.2959595 0 10.3750305 2.1038208 14.119843 5.8486633c3.7448425 3.744812 5.8486633 8.823883 5.8486633 14.119843l0 0c0 11.02832 -8.940216 19.968506 -19.968506 19.968506l0 0c-11.02832 0 -19.968506 -8.940186 -19.968506 -19.968506z" fill-rule="evenodd"/><path fill="#000000" fill-opacity="0.0" d="m320.91864 463.21783l39.93701 0" fill-rule="evenodd"/><path stroke="#000000" stroke-width="1.0" stroke-linejoin="round" stroke-linecap="butt" d="m320.91864 463.21783l39.93701 0" fill-rule="evenodd"/><path fill="#000000" fill-opacity="0.0" d="m340.88715 443.24933l0 39.93701" fill-rule="evenodd"/><path stroke="#000000" stroke-width="1.0" stroke-linejoin="round" stroke-linecap="butt" d="m340.88715 443.24933l0 39.93701" fill-rule="evenodd"/><path fill="#cfe2f3" d="m320.91864 594.2362l0 0c0 -11.028259 8.940186 -19.968506 19.968506 -19.968506l0 0c5.2959595 0 10.3750305 2.1038208 14.119843 5.848633c3.7448425 3.744873 5.8486633 8.823914 5.8486633 14.119873l0 0c0 11.02832 -8.940216 19.968506 -19.968506 19.968506l0 0c-11.02832 0 -19.968506 -8.940186 -19.968506 -19.968506z" fill-rule="evenodd"/><path stroke="#000000" stroke-width="1.0" stroke-linejoin="round" stroke-linecap="butt" d="m320.91864 594.2362l0 0c0 -11.028259 8.940186 -19.968506 19.968506 -19.968506l0 0c5.2959595 0 10.3750305 2.1038208 14.119843 5.848633c3.7448425 3.744873 5.8486633 8.823914 5.8486633 14.119873l0 0c0 11.02832 -8.940216 19.968506 -19.968506 19.968506l0 0c-11.02832 0 -19.968506 -8.940186 -19.968506 -19.968506z" fill-rule="evenodd"/><path fill="#000000" fill-opacity="0.0" d="m320.91864 594.2362l39.93701 0" fill-rule="evenodd"/><path stroke="#000000" stroke-width="1.0" stroke-linejoin="round" stroke-linecap="butt" d="m320.91864 594.2362l39.93701 0" fill-rule="evenodd"/><path fill="#000000" fill-opacity="0.0" d="m340.88715 574.2677l0 39.93701" fill-rule="evenodd"/><path stroke="#000000" stroke-width="1.0" stroke-linejoin="round" stroke-linecap="butt" d="m340.88715 574.2677l0 39.93701" fill-rule="evenodd"/><path fill="#cfe2f3" d="m320.91864 725.2546l0 0c0 -11.028259 8.940186 -19.968506 19.968506 -19.968506l0 0c5.2959595 0 10.3750305 2.1038208 14.119843 5.848633c3.7448425 3.744873 5.8486633 8.823914 5.8486633 14.119873l0 0c0 11.02832 -8.940216 19.968506 -19.968506 19.968506l0 0c-11.02832 0 -19.968506 -8.940186 -19.968506 -19.968506z" fill-rule="evenodd"/><path stroke="#000000" stroke-width="1.0" stroke-linejoin="round" stroke-linecap="butt" d="m320.91864 725.2546l0 0c0 -11.028259 8.940186 -19.968506 19.968506 -19.968506l0 0c5.2959595 0 10.3750305 2.1038208 14.119843 5.848633c3.7448425 3.744873 5.8486633 8.823914 5.8486633 14.119873l0 0c0 11.02832 -8.940216 19.968506 -19.968506 19.968506l0 0c-11.02832 0 -19.968506 -8.940186 -19.968506 -19.968506z" fill-rule="evenodd"/><path fill="#000000" fill-opacity="0.0" d="m320.91864 725.2546l39.93701 0" fill-rule="evenodd"/><path stroke="#000000" stroke-width="1.0" stroke-linejoin="round" stroke-linecap="butt" d="m320.91864 725.2546l39.93701 0" fill-rule="evenodd"/><path fill="#000000" fill-opacity="0.0" d="m340.88715 705.2861l0 39.93701" fill-rule="evenodd"/><path stroke="#000000" stroke-width="1.0" stroke-linejoin="round" stroke-linecap="butt" d="m340.88715 705.2861l0 39.93701" fill-rule="evenodd"/><path fill="#cfe2f3" d="m422.7047 206.17323l0 0c0 -11.028305 8.940216 -19.968506 19.968506 -19.968506l0 0c5.29599 0 10.375061 2.1038208 14.119873 5.848633c3.744812 3.7448273 5.848633 8.823898 5.848633 14.119873l0 0c0 11.02829 -8.940186 19.968506 -19.968506 19.968506l0 0c-11.02829 0 -19.968506 -8.940216 -19.968506 -19.968506z" fill-rule="evenodd"/><path stroke="#000000" stroke-width="1.0" stroke-linejoin="round" stroke-linecap="butt" d="m422.7047 206.17323l0 0c0 -11.028305 8.940216 -19.968506 19.968506 -19.968506l0 0c5.29599 0 10.375061 2.1038208 14.119873 5.848633c3.744812 3.7448273 5.848633 8.823898 5.848633 14.119873l0 0c0 11.02829 -8.940186 19.968506 -19.968506 19.968506l0 0c-11.02829 0 -19.968506 -8.940216 -19.968506 -19.968506z" fill-rule="evenodd"/><path fill="#000000" d="m434.80054 206.17323l0 0c0 -4.348709 3.525299 -7.8740234 7.873993 -7.8740234l0 0c2.0883179 0 4.0911255 0.82958984 5.5677795 2.306244c1.476654 1.4766693 2.306244 3.4794617 2.306244 5.5677795l0 0c0 4.348694 -3.525299 7.874008 -7.8740234 7.874008l0 0c-4.348694 0 -7.873993 -3.5253143 -7.873993 -7.874008z" fill-rule="evenodd"/><path stroke="#000000" stroke-width="1.0" stroke-linejoin="round" stroke-linecap="butt" d="m434.80054 206.17323l0 0c0 -4.348709 3.525299 -7.8740234 7.873993 -7.8740234l0 0c2.0883179 0 4.0911255 0.82958984 5.5677795 2.306244c1.476654 1.4766693 2.306244 3.4794617 2.306244 5.5677795l0 0c0 4.348694 -3.525299 7.874008 -7.8740234 7.874008l0 0c-4.348694 0 -7.873993 -3.5253143 -7.873993 -7.874008z" fill-rule="evenodd"/><path fill="#cfe2f3" d="m422.7047 334.69553l0 0c0 -11.02829 8.940216 -19.968506 19.968506 -19.968506l0 0c5.29599 0 10.375061 2.1038208 14.119873 5.8486633c3.744812 3.744812 5.848633 8.823883 5.848633 14.119843l0 0c0 11.02832 -8.940186 19.968506 -19.968506 19.968506l0 0c-11.02829 0 -19.968506 -8.940186 -19.968506 -19.968506z" fill-rule="evenodd"/><path stroke="#000000" stroke-width="1.0" stroke-linejoin="round" stroke-linecap="butt" d="m422.7047 334.69553l0 0c0 -11.02829 8.940216 -19.968506 19.968506 -19.968506l0 0c5.29599 0 10.375061 2.1038208 14.119873 5.8486633c3.744812 3.744812 5.848633 8.823883 5.848633 14.119843l0 0c0 11.02832 -8.940186 19.968506 -19.968506 19.968506l0 0c-11.02829 0 -19.968506 -8.940186 -19.968506 -19.968506z" fill-rule="evenodd"/><path fill="#000000" d="m434.80054 334.69553l0 0c0 -4.348694 3.525299 -7.873993 7.873993 -7.873993l0 0c2.0883179 0 4.0911255 0.8295593 5.5677795 2.306244c1.476654 1.476654 2.306244 3.4794312 2.306244 5.567749l0 0c0 4.3487244 -3.525299 7.8740234 -7.8740234 7.8740234l0 0c-4.348694 0 -7.873993 -3.525299 -7.873993 -7.8740234z" fill-rule="evenodd"/><path stroke="#000000" stroke-width="1.0" stroke-linejoin="round" stroke-linecap="butt" d="m434.80054 334.69553l0 0c0 -4.348694 3.525299 -7.873993 7.873993 -7.873993l0 0c2.0883179 0 4.0911255 0.8295593 5.5677795 2.306244c1.476654 1.476654 2.306244 3.4794312 2.306244 5.567749l0 0c0 4.3487244 -3.525299 7.8740234 -7.8740234 7.8740234l0 0c-4.348694 0 -7.873993 -3.525299 -7.873993 -7.8740234z" fill-rule="evenodd"/><path fill="#cfe2f3" d="m422.7047 463.21783l0 0c0 -11.02829 8.940216 -19.968506 19.968506 -19.968506l0 0c5.29599 0 10.375061 2.1038208 14.119873 5.8486633c3.744812 3.744812 5.848633 8.823883 5.848633 14.119843l0 0c0 11.02832 -8.940186 19.968506 -19.968506 19.968506l0 0c-11.02829 0 -19.968506 -8.940186 -19.968506 -19.968506z" fill-rule="evenodd"/><path stroke="#000000" stroke-width="1.0" stroke-linejoin="round" stroke-linecap="butt" d="m422.7047 463.21783l0 0c0 -11.02829 8.940216 -19.968506 19.968506 -19.968506l0 0c5.29599 0 10.375061 2.1038208 14.119873 5.8486633c3.744812 3.744812 5.848633 8.823883 5.848633 14.119843l0 0c0 11.02832 -8.940186 19.968506 -19.968506 19.968506l0 0c-11.02829 0 -19.968506 -8.940186 -19.968506 -19.968506z" fill-rule="evenodd"/><path fill="#000000" d="m434.80054 463.21783l0 0c0 -4.348694 3.525299 -7.873993 7.873993 -7.873993l0 0c2.0883179 0 4.0911255 0.8295593 5.5677795 2.306244c1.476654 1.476654 2.306244 3.4794312 2.306244 5.567749l0 0c0 4.3487244 -3.525299 7.8740234 -7.8740234 7.8740234l0 0c-4.348694 0 -7.873993 -3.525299 -7.873993 -7.8740234z" fill-rule="evenodd"/><path stroke="#000000" stroke-width="1.0" stroke-linejoin="round" stroke-linecap="butt" d="m434.80054 463.21783l0 0c0 -4.348694 3.525299 -7.873993 7.873993 -7.873993l0 0c2.0883179 0 4.0911255 0.8295593 5.5677795 2.306244c1.476654 1.476654 2.306244 3.4794312 2.306244 5.567749l0 0c0 4.3487244 -3.525299 7.8740234 -7.8740234 7.8740234l0 0c-4.348694 0 -7.873993 -3.525299 -7.873993 -7.8740234z" fill-rule="evenodd"/><path fill="#cfe2f3" d="m422.7047 593.8414l0 0c0 -11.028259 8.940216 -19.968506 19.968506 -19.968506l0 0c5.29599 0 10.375061 2.1038208 14.119873 5.848633c3.744812 3.744873 5.848633 8.823914 5.848633 14.119873l0 0c0 11.02832 -8.940186 19.968506 -19.968506 19.968506l0 0c-11.02829 0 -19.968506 -8.940186 -19.968506 -19.968506z" fill-rule="evenodd"/><path stroke="#000000" stroke-width="1.0" stroke-linejoin="round" stroke-linecap="butt" d="m422.7047 593.8414l0 0c0 -11.028259 8.940216 -19.968506 19.968506 -19.968506l0 0c5.29599 0 10.375061 2.1038208 14.119873 5.848633c3.744812 3.744873 5.848633 8.823914 5.848633 14.119873l0 0c0 11.02832 -8.940186 19.968506 -19.968506 19.968506l0 0c-11.02829 0 -19.968506 -8.940186 -19.968506 -19.968506z" fill-rule="evenodd"/><path fill="#000000" d="m434.80054 593.8414l0 0c0 -4.348694 3.525299 -7.8740234 7.873993 -7.8740234l0 0c2.0883179 0 4.0911255 0.82958984 5.5677795 2.3062744c1.476654 1.4766846 2.306244 3.4794312 2.306244 5.567749l0 0c0 4.348694 -3.525299 7.8740234 -7.8740234 7.8740234l0 0c-4.348694 0 -7.873993 -3.5253296 -7.873993 -7.8740234z" fill-rule="evenodd"/><path stroke="#000000" stroke-width="1.0" stroke-linejoin="round" stroke-linecap="butt" d="m434.80054 593.8414l0 0c0 -4.348694 3.525299 -7.8740234 7.873993 -7.8740234l0 0c2.0883179 0 4.0911255 0.82958984 5.5677795 2.3062744c1.476654 1.4766846 2.306244 3.4794312 2.306244 5.567749l0 0c0 4.348694 -3.525299 7.8740234 -7.8740234 7.8740234l0 0c-4.348694 0 -7.873993 -3.5253296 -7.873993 -7.8740234z" fill-rule="evenodd"/><path fill="#cfe2f3" d="m422.7047 725.2546l0 0c0 -11.028259 8.940216 -19.968506 19.968506 -19.968506l0 0c5.29599 0 10.375061 2.1038208 14.119873 5.848633c3.744812 3.744873 5.848633 8.823914 5.848633 14.119873l0 0c0 11.02832 -8.940186 19.968506 -19.968506 19.968506l0 0c-11.02829 0 -19.968506 -8.940186 -19.968506 -19.968506z" fill-rule="evenodd"/><path stroke="#000000" stroke-width="1.0" stroke-linejoin="round" stroke-linecap="butt" d="m422.7047 725.2546l0 0c0 -11.028259 8.940216 -19.968506 19.968506 -19.968506l0 0c5.29599 0 10.375061 2.1038208 14.119873 5.848633c3.744812 3.744873 5.848633 8.823914 5.848633 14.119873l0 0c0 11.02832 -8.940186 19.968506 -19.968506 19.968506l0 0c-11.02829 0 -19.968506 -8.940186 -19.968506 -19.968506z" fill-rule="evenodd"/><path fill="#000000" d="m434.80054 725.2546l0 0c0 -4.348694 3.525299 -7.8740234 7.873993 -7.8740234l0 0c2.0883179 0 4.0911255 0.82958984 5.5677795 2.3062744c1.476654 1.4766846 2.306244 3.4794312 2.306244 5.567749l0 0c0 4.348694 -3.525299 7.8740234 -7.8740234 7.8740234l0 0c-4.348694 0 -7.873993 -3.5253296 -7.873993 -7.8740234z" fill-rule="evenodd"/><path stroke="#000000" stroke-width="1.0" stroke-linejoin="round" stroke-linecap="butt" d="m434.80054 725.2546l0 0c0 -4.348694 3.525299 -7.8740234 7.873993 -7.8740234l0 0c2.0883179 0 4.0911255 0.82958984 5.5677795 2.3062744c1.476654 1.4766846 2.306244 3.4794312 2.306244 5.567749l0 0c0 4.348694 -3.525299 7.8740234 -7.8740234 7.8740234l0 0c-4.348694 0 -7.873993 -3.5253296 -7.873993 -7.8740234z" fill-rule="evenodd"/><path fill="#000000" fill-opacity="0.0" d="m360.85565 206.17323l61.858246 0" fill-rule="evenodd"/><path stroke="#000000" stroke-width="1.0" stroke-linejoin="round" stroke-linecap="butt" d="m360.85565 206.17323l55.858246 0" fill-rule="evenodd"/><path fill="#000000" stroke="#000000" stroke-width="1.0" stroke-linecap="butt" d="m416.7139 207.82497l4.5381165 -1.6517334l-4.5381165 -1.6517334z" fill-rule="evenodd"/><path fill="#000000" fill-opacity="0.0" d="m360.85565 334.69553l61.858246 0" fill-rule="evenodd"/><path stroke="#000000" stroke-width="1.0" stroke-linejoin="round" stroke-linecap="butt" d="m360.85565 334.69553l55.858246 0" fill-rule="evenodd"/><path fill="#000000" stroke="#000000" stroke-width="1.0" stroke-linecap="butt" d="m416.7139 336.34726l4.5381165 -1.6517334l-4.5381165 -1.6517334z" fill-rule="evenodd"/><path fill="#000000" fill-opacity="0.0" d="m360.85565 463.21783l61.858246 0" fill-rule="evenodd"/><path stroke="#000000" stroke-width="1.0" stroke-linejoin="round" stroke-linecap="butt" d="m360.85565 463.21783l55.858246 0" fill-rule="evenodd"/><path fill="#000000" stroke="#000000" stroke-width="1.0" stroke-linecap="butt" d="m416.7139 464.86957l4.5381165 -1.6517334l-4.5381165 -1.6517334z" fill-rule="evenodd"/><path fill="#000000" fill-opacity="0.0" d="m360.85565 594.2362l61.858246 -0.40942383" fill-rule="evenodd"/><path stroke="#000000" stroke-width="1.0" stroke-linejoin="round" stroke-linecap="butt" d="m360.85565 594.2362l55.858368 -0.36975098" fill-rule="evenodd"/><path fill="#000000" stroke="#000000" stroke-width="1.0" stroke-linecap="butt" d="m416.72498 595.5182l4.527069 -1.6817627l-4.54895 -1.6216431z" fill-rule="evenodd"/><path fill="#000000" fill-opacity="0.0" d="m360.85565 725.2546l61.858246 0" fill-rule="evenodd"/><path stroke="#000000" stroke-width="1.0" stroke-linejoin="round" stroke-linecap="butt" d="m360.85565 725.2546l55.858246 0" fill-rule="evenodd"/><path fill="#000000" stroke="#000000" stroke-width="1.0" stroke-linecap="butt" d="m416.7139 726.9063l4.5381165 -1.6517334l-4.5381165 -1.6517334z" fill-rule="evenodd"/><path fill="#000000" fill-opacity="0.0" d="m250.06036 147.09973l431.40155 0" fill-rule="evenodd"/><path stroke="#000000" stroke-width="1.0" stroke-linejoin="round" stroke-linecap="butt" d="m250.06036 147.09973l425.40155 0" fill-rule="evenodd"/><path fill="#000000" stroke="#000000" stroke-width="1.0" stroke-linecap="butt" d="m675.4619 148.75146l4.538147 -1.6517334l-4.538147 -1.6517334z" fill-rule="evenodd"/><path fill="#000000" fill-opacity="0.0" d="m109.26509 124.50131l61.85826 0l0 45.196854l-61.85826 0z" fill-rule="evenodd"/><path fill="#000000" d="m131.87001 152.85974l3.03125 -4.3125l-2.8125 -3.984375l1.765625 0l1.265625 1.9375q0.359375 0.5625 0.578125 0.9375q0.34375 -0.515625 0.640625 -0.921875l1.390625 -1.953125l1.6875 0l-2.875 3.90625l3.09375 4.390625l-1.734375 0l-1.703125 -2.578125l-0.453125 -0.703125l-2.171875 3.28125l-1.703125 0zm8.546875 -5.65625q0 -2.03125 0.40625 -3.265625q0.421875 -1.234375 1.25 -1.90625q0.828125 -0.671875 2.078125 -0.671875q0.921875 0 1.609375 0.375q0.703125 0.359375 1.15625 1.0625q0.453125 0.703125 0.703125 1.703125q0.265625 1.0 0.265625 2.703125q0 2.015625 -0.421875 3.265625q-0.40625 1.234375 -1.234375 1.921875q-0.828125 0.671875 -2.078125 0.671875q-1.65625 0 -2.609375 -1.203125q-1.125 -1.421875 -1.125 -4.65625zm1.4375 0q0 2.828125 0.65625 3.765625q0.671875 0.921875 1.640625 0.921875q0.96875 0 1.625 -0.9375q0.65625 -0.9375 0.65625 -3.75q0 -2.828125 -0.65625 -3.75q-0.65625 -0.9375 -1.640625 -0.9375q-0.96875 0 -1.546875 0.828125q-0.734375 1.046875 -0.734375 3.859375z" fill-rule="nonzero"/><path fill="#000000" fill-opacity="0.0" d="m109.26509 253.02257l61.85826 0l0 45.196854l-61.85826 0z" fill-rule="evenodd"/><path fill="#000000" d="m131.87001 281.381l3.03125 -4.3125l-2.8125 -3.984375l1.765625 0l1.265625 1.9375q0.359375 0.5625 0.578125 0.9375q0.34375 -0.515625 0.640625 -0.921875l1.390625 -1.953125l1.6875 0l-2.875 3.90625l3.09375 4.390625l-1.734375 0l-1.703125 -2.578125l-0.453125 -0.703125l-2.171875 3.28125l-1.703125 0zm13.84375 0l-1.40625 0l0 -8.96875q-0.515625 0.484375 -1.34375 0.96875q-0.8125 0.484375 -1.46875 0.734375l0 -1.359375q1.171875 -0.5625 2.046875 -1.34375q0.890625 -0.796875 1.265625 -1.53125l0.90625 0l0 11.5z" fill-rule="nonzero"/><path fill="#000000" fill-opacity="0.0" d="m109.26509 382.94095l61.85826 0l0 45.19684l-61.85826 0z" fill-rule="evenodd"/><path fill="#000000" d="m131.87001 411.29938l3.03125 -4.3125l-2.8125 -3.984375l1.765625 0l1.265625 1.9375q0.359375 0.5625 0.578125 0.9375q0.34375 -0.515625 0.640625 -0.921875l1.390625 -1.953125l1.6875 0l-2.875 3.90625l3.09375 4.390625l-1.734375 0l-1.703125 -2.578125l-0.453125 -0.703125l-2.171875 3.28125l-1.703125 0zm15.9375 -1.359375l0 1.359375l-7.578125 0q-0.015625 -0.515625 0.171875 -0.984375q0.28125 -0.765625 0.921875 -1.515625q0.640625 -0.75 1.84375 -1.734375q1.859375 -1.53125 2.515625 -2.421875q0.65625 -0.90625 0.65625 -1.703125q0 -0.828125 -0.59375 -1.40625q-0.59375 -0.578125 -1.5625 -0.578125q-1.015625 0 -1.625 0.609375q-0.609375 0.609375 -0.609375 1.6875l-1.453125 -0.140625q0.15625 -1.625 1.125 -2.46875q0.96875 -0.84375 2.59375 -0.84375q1.65625 0 2.609375 0.921875q0.96875 0.90625 0.96875 2.25q0 0.6875 -0.28125 1.359375q-0.28125 0.65625 -0.9375 1.390625q-0.65625 0.734375 -2.171875 2.015625q-1.265625 1.0625 -1.625 1.453125q-0.359375 0.375 -0.59375 0.75l5.625 0z" fill-rule="nonzero"/><path fill="#000000" fill-opacity="0.0" d="m109.26509 512.8591l61.85826 0l0 45.19684l-61.85826 0z" fill-rule="evenodd"/><path fill="#000000" d="m131.87001 541.21747l3.03125 -4.3125l-2.8125 -3.984375l1.765625 0l1.265625 1.9375q0.359375 0.5625 0.578125 0.9375q0.34375 -0.515625 0.640625 -0.921875l1.390625 -1.953125l1.6875 0l-2.875 3.90625l3.09375 4.390625l-1.734375 0l-1.703125 -2.578125l-0.453125 -0.703125l-2.171875 3.28125l-1.703125 0zm8.546875 -3.03125l1.40625 -0.1875q0.25 1.203125 0.828125 1.734375q0.578125 0.515625 1.421875 0.515625q0.984375 0 1.671875 -0.6875q0.6875 -0.6875 0.6875 -1.703125q0 -0.96875 -0.640625 -1.59375q-0.625 -0.625 -1.609375 -0.625q-0.390625 0 -0.984375 0.15625l0.15625 -1.234375q0.140625 0.015625 0.21875 0.015625q0.90625 0 1.625 -0.46875q0.71875 -0.46875 0.71875 -1.453125q0 -0.765625 -0.53125 -1.265625q-0.515625 -0.515625 -1.34375 -0.515625q-0.828125 0 -1.375 0.515625q-0.546875 0.515625 -0.703125 1.546875l-1.40625 -0.25q0.265625 -1.421875 1.171875 -2.1875q0.921875 -0.78125 2.28125 -0.78125q0.9375 0 1.71875 0.40625q0.796875 0.390625 1.203125 1.09375q0.421875 0.6875 0.421875 1.46875q0 0.75 -0.40625 1.359375q-0.390625 0.609375 -1.171875 0.96875q1.015625 0.234375 1.578125 0.96875q0.5625 0.734375 0.5625 1.84375q0 1.5 -1.09375 2.546875q-1.09375 1.046875 -2.765625 1.046875q-1.5 0 -2.5 -0.890625q-1.0 -0.90625 -1.140625 -2.34375z" fill-rule="nonzero"/><path fill="#000000" fill-opacity="0.0" d="m109.26509 643.5801l61.85826 0l0 45.19684l-61.85826 0z" fill-rule="evenodd"/><path fill="#000000" d="m131.87001 671.9385l3.03125 -4.3125l-2.8125 -3.984375l1.765625 0l1.265625 1.9375q0.359375 0.5625 0.578125 0.9375q0.34375 -0.515625 0.640625 -0.921875l1.390625 -1.953125l1.6875 0l-2.875 3.90625l3.09375 4.390625l-1.734375 0l-1.703125 -2.578125l-0.453125 -0.703125l-2.171875 3.28125l-1.703125 0zm13.046875 0l0 -2.75l-4.96875 0l0 -1.28125l5.234375 -7.421875l1.140625 0l0 7.421875l1.546875 0l0 1.28125l-1.546875 0l0 2.75l-1.40625 0zm0 -4.03125l0 -5.171875l-3.578125 5.171875l3.578125 0z" fill-rule="nonzero"/><path fill="#000000" fill-opacity="0.0" d="m171.12335 147.09973l38.992126 0" fill-rule="evenodd"/><path stroke="#000000" stroke-width="1.0" stroke-linejoin="round" stroke-linecap="butt" d="m171.12335 147.09973l32.992126 0" fill-rule="evenodd"/><path fill="#000000" stroke="#000000" stroke-width="1.0" stroke-linecap="butt" d="m204.11548 148.75146l4.538101 -1.6517334l-4.538101 -1.6517334z" fill-rule="evenodd"/><path fill="#000000" fill-opacity="0.0" d="m171.12335 275.621l510.3307 0" fill-rule="evenodd"/><path stroke="#000000" stroke-width="1.0" stroke-linejoin="round" stroke-linecap="butt" d="m171.12335 275.621l504.3307 0" fill-rule="evenodd"/><path fill="#000000" stroke="#000000" stroke-width="1.0" stroke-linecap="butt" d="m675.45404 277.27274l4.538147 -1.6517334l-4.538147 -1.6517334z" fill-rule="evenodd"/><path fill="#000000" fill-opacity="0.0" d="m171.12335 535.45746l510.3307 -0.28344727" fill-rule="evenodd"/><path stroke="#000000" stroke-width="1.0" stroke-linejoin="round" stroke-linecap="butt" d="m171.12335 535.45746l504.3307 -0.28015137" fill-rule="evenodd"/><path fill="#000000" stroke="#000000" stroke-width="1.0" stroke-linecap="butt" d="m675.455 536.8291l4.5371704 -1.6542969l-4.5390625 -1.6491699z" fill-rule="evenodd"/><path fill="#000000" fill-opacity="0.0" d="m250.06036 666.1811l431.40155 0" fill-rule="evenodd"/><path stroke="#000000" stroke-width="1.0" stroke-linejoin="round" stroke-linecap="butt" d="m250.06036 666.1811l425.40155 0" fill-rule="evenodd"/><path fill="#000000" stroke="#000000" stroke-width="1.0" stroke-linecap="butt" d="m675.4619 667.8328l4.538147 -1.6517334l-4.538147 -1.6517334z" fill-rule="evenodd"/><path fill="#000000" fill-opacity="0.0" d="m250.06036 405.70865l431.40155 -0.3149414" fill-rule="evenodd"/><path stroke="#000000" stroke-width="1.0" stroke-linejoin="round" stroke-linecap="butt" d="m250.06036 405.70865l425.40155 -0.31054688" fill-rule="evenodd"/><path fill="#000000" stroke="#000000" stroke-width="1.0" stroke-linecap="butt" d="m675.46313 407.0498l4.5369263 -1.6550293l-4.5393066 -1.6484375z" fill-rule="evenodd"/><path fill="#000000" fill-opacity="0.0" d="m340.88715 186.20473l0 -38.204727" fill-rule="evenodd"/><path stroke="#000000" stroke-width="1.0" stroke-linejoin="round" stroke-linecap="butt" d="m340.88715 180.20473l0 -32.204727" fill-rule="evenodd"/><path fill="#000000" stroke="#000000" stroke-width="1.0" stroke-linecap="butt" d="m339.2354 180.20473l1.6517334 4.538101l1.6517334 -4.538101z" fill-rule="evenodd"/><path fill="#000000" fill-opacity="0.0" d="m340.88715 314.72702l0 -37.921234" fill-rule="evenodd"/><path stroke="#000000" stroke-width="1.0" stroke-linejoin="round" stroke-linecap="butt" d="m340.88715 308.72702l0 -31.921234" fill-rule="evenodd"/><path fill="#000000" stroke="#000000" stroke-width="1.0" stroke-linecap="butt" d="m339.2354 308.72702l1.6517334 4.5381165l1.6517334 -4.5381165z" fill-rule="evenodd"/><path fill="#000000" fill-opacity="0.0" d="m340.88715 443.24933l0 -36.850372" fill-rule="evenodd"/><path stroke="#000000" stroke-width="1.0" stroke-linejoin="round" stroke-linecap="butt" d="m340.88715 437.24933l0 -30.850372" fill-rule="evenodd"/><path fill="#000000" stroke="#000000" stroke-width="1.0" stroke-linecap="butt" d="m339.2354 437.24936l1.6517334 4.538086l1.6517334 -4.538086z" fill-rule="evenodd"/><path fill="#000000" fill-opacity="0.0" d="m340.88715 574.2677l0 -38.2677" fill-rule="evenodd"/><path stroke="#000000" stroke-width="1.0" stroke-linejoin="round" stroke-linecap="butt" d="m340.88715 568.2677l0 -32.2677" fill-rule="evenodd"/><path fill="#000000" stroke="#000000" stroke-width="1.0" stroke-linecap="butt" d="m339.2354 568.2677l1.6517334 4.538086l1.6517334 -4.538086z" fill-rule="evenodd"/><path fill="#000000" fill-opacity="0.0" d="m340.88715 705.2861l0 -38.078735" fill-rule="evenodd"/><path stroke="#000000" stroke-width="1.0" stroke-linejoin="round" stroke-linecap="butt" d="m340.88715 699.2861l0 -32.078735" fill-rule="evenodd"/><path fill="#000000" stroke="#000000" stroke-width="1.0" stroke-linecap="butt" d="m339.2354 699.2861l1.6517334 4.538086l1.6517334 -4.538086z" fill-rule="evenodd"/><path fill="#000000" fill-opacity="0.0" d="m462.64172 725.2546c119.385864 0 238.77167 -85.055115 238.77167 -170.11023" fill-rule="evenodd"/><path stroke="#000000" stroke-width="1.0" stroke-linejoin="round" stroke-linecap="butt" d="m462.64172 725.2546c59.692932 0 119.385864 -21.263794 164.15552 -53.159424c22.384827 -15.947815 41.03888 -34.55365 54.09668 -54.488464c6.5289307 -9.967407 11.658813 -20.267029 15.156433 -30.732788c1.7487793 -5.232849 3.0895996 -10.507324 3.993103 -15.80249c0.45178223 -2.647583 0.7943115 -5.300354 1.0238037 -7.9557495c0.028686523 -0.33190918 0.055603027 -0.6638794 0.08081055 -0.9958496l0.068847656 -0.9786377" fill-rule="evenodd"/><path fill="#000000" stroke="#000000" stroke-width="1.0" stroke-linecap="butt" d="m702.8678 561.1952l-1.5022583 -4.5897217l-1.7994385 4.4815674z" fill-rule="evenodd"/><path fill="#000000" fill-opacity="0.0" d="m462.64172 593.8414c119.385864 0 238.77167 -84.236206 238.77167 -168.47241" fill-rule="evenodd"/><path stroke="#000000" stroke-width="1.0" stroke-linejoin="round" stroke-linecap="butt" d="m462.64172 593.8414c59.692932 0 119.385864 -21.059082 164.15552 -52.647644c22.384827 -15.794312 41.03888 -34.220947 54.09668 -53.963806c6.5289307 -9.87146 11.658813 -20.07196 15.156433 -30.43695c1.7487793 -5.182495 3.0895996 -10.406128 3.993103 -15.650299c0.45178223 -2.6221313 0.7943115 -5.2493286 1.0238037 -7.879181c0.028686523 -0.32870483 0.055603027 -0.6574707 0.08081055 -0.9862671l0.0647583 -0.9116516" fill-rule="evenodd"/><path fill="#000000" stroke="#000000" stroke-width="1.0" stroke-linecap="butt" d="m702.86365 431.42078l-1.4991455 -4.5907593l-1.8024292 4.4803467z" fill-rule="evenodd"/><path fill="#000000" fill-opacity="0.0" d="m462.64172 463.21783c119.385864 0 238.77167 -83.811005 238.77167 -167.62204" fill-rule="evenodd"/><path stroke="#000000" stroke-width="1.0" stroke-linejoin="round" stroke-linecap="butt" d="m462.64172 463.21783c59.692932 0 119.385864 -20.952728 164.15552 -52.381866c22.384827 -15.714569 41.03888 -34.04825 54.09668 -53.691437c6.5289307 -9.821625 11.658813 -19.970612 15.156433 -30.283295c1.7487793 -5.1563416 3.0895996 -10.353607 3.993103 -15.57132c0.45178223 -2.6088867 0.7943115 -5.2228394 1.0238037 -7.839386c0.028686523 -0.32705688 0.055603027 -0.6541748 0.08081055 -0.98132324l0.06262207 -0.87683105" fill-rule="evenodd"/><path fill="#000000" stroke="#000000" stroke-width="1.0" stroke-linecap="butt" d="m702.8615 301.64816l-1.4974976 -4.5913086l-1.8040771 4.4797363z" fill-rule="evenodd"/><path fill="#000000" fill-opacity="0.0" d="m462.64172 334.69553c119.385864 0 238.77167 -83.811005 238.77167 -167.62204" fill-rule="evenodd"/><path stroke="#000000" stroke-width="1.0" stroke-linejoin="round" stroke-linecap="butt" d="m462.64172 334.69553c59.692932 0 119.385864 -20.952759 164.15552 -52.381866c22.384827 -15.714569 41.03888 -34.048233 54.09668 -53.691452c6.5289307 -9.821594 11.658813 -19.970596 15.156433 -30.28328c1.7487793 -5.156357 3.0895996 -10.353607 3.993103 -15.571335c0.45178223 -2.6088562 0.7943115 -5.222824 1.0238037 -7.839386c0.028686523 -0.32705688 0.055603027 -0.65415955 0.08081055 -0.98132324l0.06262207 -0.8768158" fill-rule="evenodd"/><path fill="#000000" stroke="#000000" stroke-width="1.0" stroke-linecap="butt" d="m702.8615 173.12587l-1.4974976 -4.5913086l-1.8040771 4.479706z" fill-rule="evenodd"/><path fill="#000000" fill-opacity="0.0" d="m462.64172 206.17323c54.704956 0 86.197876 143.82512 109.40997 273.9132c23.212097 130.0881 38.143433 246.43918 64.68085 273.91324c26.537415 27.473999 64.68085 -33.929016 64.68085 -67.85797" fill-rule="evenodd"/><path stroke="#000000" stroke-width="1.0" stroke-linejoin="round" stroke-linecap="butt" d="m462.64172 206.17323c54.704956 0 86.197815 143.82512 109.40997 273.9132c23.212097 130.0881 38.143433 246.43924 64.68085 273.91324c13.268677 13.7369995 29.438904 5.2547607 42.29193 -10.902832c6.4265137 -8.078796 12.023743 -18.076538 16.014343 -28.175049c1.9953003 -5.0491943 3.5889893 -10.123657 4.683777 -14.996155c0.5474243 -2.4361572 0.9700928 -4.8218994 1.2559204 -7.128662l0.077941895 -0.6659546" fill-rule="evenodd"/><path fill="#000000" stroke="#000000" stroke-width="1.0" stroke-linecap="butt" d="m702.70526 692.2294l-1.3788452 -4.628296l-1.9187622 4.4317627z" fill-rule="evenodd"/><path fill="#cfe2f3" d="m210.12335 405.70865l0 0c0 -11.02829 8.940216 -19.968506 19.968506 -19.968506l0 0c5.2959747 0 10.375046 2.1038208 14.119873 5.8486633c3.744812 3.744812 5.848633 8.823883 5.848633 14.119843l0 0c0 11.02832 -8.940201 19.968506 -19.968506 19.968506l0 0c-11.02829 0 -19.968506 -8.940186 -19.968506 -19.968506z" fill-rule="evenodd"/><path stroke="#000000" stroke-width="1.0" stroke-linejoin="round" stroke-linecap="butt" d="m210.12335 405.70865l0 0c0 -11.02829 8.940216 -19.968506 19.968506 -19.968506l0 0c5.2959747 0 10.375046 2.1038208 14.119873 5.8486633c3.744812 3.744812 5.848633 8.823883 5.848633 14.119843l0 0c0 11.02832 -8.940201 19.968506 -19.968506 19.968506l0 0c-11.02829 0 -19.968506 -8.940186 -19.968506 -19.968506z" fill-rule="evenodd"/><path fill="#000000" fill-opacity="0.0" d="m210.12335 405.70865l39.93701 0" fill-rule="evenodd"/><path stroke="#000000" stroke-width="1.0" stroke-linejoin="round" stroke-linecap="butt" d="m210.12335 405.70865l39.93701 0" fill-rule="evenodd"/><path fill="#000000" fill-opacity="0.0" d="m230.09186 385.74014l0 39.93701" fill-rule="evenodd"/><path stroke="#000000" stroke-width="1.0" stroke-linejoin="round" stroke-linecap="butt" d="m230.09186 385.74014l0 39.93701" fill-rule="evenodd"/><path fill="#cfe2f3" d="m210.12335 666.1811l0 0c0 -11.028259 8.940216 -19.968506 19.968506 -19.968506l0 0c5.2959747 0 10.375046 2.1038208 14.119873 5.848633c3.744812 3.744812 5.848633 8.823914 5.848633 14.119873l0 0c0 11.02832 -8.940201 19.968506 -19.968506 19.968506l0 0c-11.02829 0 -19.968506 -8.940186 -19.968506 -19.968506z" fill-rule="evenodd"/><path stroke="#000000" stroke-width="1.0" stroke-linejoin="round" stroke-linecap="butt" d="m210.12335 666.1811l0 0c0 -11.028259 8.940216 -19.968506 19.968506 -19.968506l0 0c5.2959747 0 10.375046 2.1038208 14.119873 5.848633c3.744812 3.744812 5.848633 8.823914 5.848633 14.119873l0 0c0 11.02832 -8.940201 19.968506 -19.968506 19.968506l0 0c-11.02829 0 -19.968506 -8.940186 -19.968506 -19.968506z" fill-rule="evenodd"/><path fill="#000000" fill-opacity="0.0" d="m210.12335 666.1811l39.93701 0" fill-rule="evenodd"/><path stroke="#000000" stroke-width="1.0" stroke-linejoin="round" stroke-linecap="butt" d="m210.12335 666.1811l39.93701 0" fill-rule="evenodd"/><path fill="#000000" fill-opacity="0.0" d="m230.09186 646.2126l0 39.93701" fill-rule="evenodd"/><path stroke="#000000" stroke-width="1.0" stroke-linejoin="round" stroke-linecap="butt" d="m230.09186 646.2126l0 39.93701" fill-rule="evenodd"/><path fill="#000000" fill-opacity="0.0" d="m171.12335 405.53937l38.992126 0.1574707" fill-rule="evenodd"/><path stroke="#000000" stroke-width="1.0" stroke-linejoin="round" stroke-linecap="butt" d="m171.12335 405.53937l32.992172 0.13323975" fill-rule="evenodd"/><path fill="#000000" stroke="#000000" stroke-width="1.0" stroke-linecap="butt" d="m204.10886 407.32434l4.544739 -1.6333923l-4.5313873 -1.670044z" fill-rule="evenodd"/><path fill="#000000" fill-opacity="0.0" d="m171.12335 666.17847l38.992126 0" fill-rule="evenodd"/><path stroke="#000000" stroke-width="1.0" stroke-linejoin="round" stroke-linecap="butt" d="m171.12335 666.17847l32.992126 0" fill-rule="evenodd"/><path fill="#000000" stroke="#000000" stroke-width="1.0" stroke-linecap="butt" d="m204.11548 667.8302l4.538101 -1.6517334l-4.538101 -1.6517334z" fill-rule="evenodd"/><path fill="#000000" fill-opacity="0.0" d="m230.09186 167.06824l0 178.93097l-41.102356 0l0 319.99817" fill-rule="evenodd"/><path stroke="#000000" stroke-width="1.0" stroke-linejoin="round" stroke-linecap="butt" d="m230.09186 173.06824l0 172.93094l-41.102356 0l0 319.9982" fill-rule="evenodd"/><path fill="#000000" stroke="#000000" stroke-width="1.0" stroke-linecap="butt" d="m231.74359 173.06824l-1.6517334 -4.538086l-1.6517334 4.538086z" fill-rule="evenodd"/><path fill="#000000" fill-opacity="0.0" d="m230.09186 385.74014l0 -25.3443l52.094482 0l0 -84.16751" fill-rule="evenodd"/><path stroke="#000000" stroke-width="1.0" stroke-linejoin="round" stroke-linecap="butt" d="m230.09186 379.74014l0 -19.3443l52.094482 0l0 -84.16751" fill-rule="evenodd"/><path fill="#000000" stroke="#000000" stroke-width="1.0" stroke-linecap="butt" d="m228.44012 379.74014l1.6517334 4.5381165l1.6517334 -4.5381165z" fill-rule="evenodd"/><path fill="#000000" fill-opacity="0.0" d="m230.09186 646.2126l0 -110.58264" fill-rule="evenodd"/><path stroke="#000000" stroke-width="1.0" stroke-linejoin="round" stroke-linecap="butt" d="m230.09186 640.2126l0 -104.58264" fill-rule="evenodd"/><path fill="#000000" stroke="#000000" stroke-width="1.0" stroke-linecap="butt" d="m228.44012 640.2126l1.6517334 4.538086l1.6517334 -4.538086z" fill-rule="evenodd"/><path fill="#cfe2f3" d="m777.6562 275.62204l0 0c0 -11.02829 8.940186 -19.96849 19.968506 -19.96849l0 0c5.2959595 0 10.375 2.1038055 14.119812 5.848648c3.744873 3.744812 5.848694 8.823883 5.848694 14.119843l0 0c0 11.02832 -8.940247 19.968506 -19.968506 19.968506l0 0c-11.02832 0 -19.968506 -8.940186 -19.968506 -19.968506z" fill-rule="evenodd"/><path stroke="#000000" stroke-width="1.0" stroke-linejoin="round" stroke-linecap="butt" d="m777.6562 275.62204l0 0c0 -11.02829 8.940186 -19.96849 19.968506 -19.96849l0 0c5.2959595 0 10.375 2.1038055 14.119812 5.848648c3.744873 3.744812 5.848694 8.823883 5.848694 14.119843l0 0c0 11.02832 -8.940247 19.968506 -19.968506 19.968506l0 0c-11.02832 0 -19.968506 -8.940186 -19.968506 -19.968506z" fill-rule="evenodd"/><path fill="#000000" fill-opacity="0.0" d="m777.6562 275.62204l39.93701 0" fill-rule="evenodd"/><path stroke="#000000" stroke-width="1.0" stroke-linejoin="round" stroke-linecap="butt" d="m777.6562 275.62204l39.93701 0" fill-rule="evenodd"/><path fill="#000000" fill-opacity="0.0" d="m797.6247 255.65355l0 39.936996" fill-rule="evenodd"/><path stroke="#000000" stroke-width="1.0" stroke-linejoin="round" stroke-linecap="butt" d="m797.6247 255.65355l0 39.936996" fill-rule="evenodd"/><path fill="#cfe2f3" d="m777.7428 535.1627l0 0c0 -11.02832 8.940186 -19.968506 19.968506 -19.968506l0 0c5.2959595 0 10.375 2.1038208 14.119873 5.848633c3.744812 3.744812 5.848633 8.823914 5.848633 14.119873l0 0c0 11.02832 -8.940247 19.968506 -19.968506 19.968506l0 0c-11.02832 0 -19.968506 -8.940186 -19.968506 -19.968506z" fill-rule="evenodd"/><path stroke="#000000" stroke-width="1.0" stroke-linejoin="round" stroke-linecap="butt" d="m777.7428 535.1627l0 0c0 -11.02832 8.940186 -19.968506 19.968506 -19.968506l0 0c5.2959595 0 10.375 2.1038208 14.119873 5.848633c3.744812 3.744812 5.848633 8.823914 5.848633 14.119873l0 0c0 11.02832 -8.940247 19.968506 -19.968506 19.968506l0 0c-11.02832 0 -19.968506 -8.940186 -19.968506 -19.968506z" fill-rule="evenodd"/><path fill="#000000" fill-opacity="0.0" d="m777.7428 535.1627l39.93701 0" fill-rule="evenodd"/><path stroke="#000000" stroke-width="1.0" stroke-linejoin="round" stroke-linecap="butt" d="m777.7428 535.1627l39.93701 0" fill-rule="evenodd"/><path fill="#000000" fill-opacity="0.0" d="m797.7113 515.1942l0 39.93701" fill-rule="evenodd"/><path stroke="#000000" stroke-width="1.0" stroke-linejoin="round" stroke-linecap="butt" d="m797.7113 515.1942l0 39.93701" fill-rule="evenodd"/><path fill="#cfe2f3" d="m874.0131 147.09973l0 0c0 -11.02829 8.940186 -19.968498 19.968506 -19.968498l0 0c5.2959595 0 10.375061 2.1038132 14.119873 5.8486404c3.744812 3.7448273 5.848633 8.823883 5.848633 14.119858l0 0c0 11.028305 -8.940186 19.968506 -19.968506 19.968506l0 0c-11.02832 0 -19.968506 -8.940201 -19.968506 -19.968506z" fill-rule="evenodd"/><path stroke="#000000" stroke-width="1.0" stroke-linejoin="round" stroke-linecap="butt" d="m874.0131 147.09973l0 0c0 -11.02829 8.940186 -19.968498 19.968506 -19.968498l0 0c5.2959595 0 10.375061 2.1038132 14.119873 5.8486404c3.744812 3.7448273 5.848633 8.823883 5.848633 14.119858l0 0c0 11.028305 -8.940186 19.968506 -19.968506 19.968506l0 0c-11.02832 0 -19.968506 -8.940201 -19.968506 -19.968506z" fill-rule="evenodd"/><path fill="#000000" fill-opacity="0.0" d="m874.0131 147.09973l39.93701 0" fill-rule="evenodd"/><path stroke="#000000" stroke-width="1.0" stroke-linejoin="round" stroke-linecap="butt" d="m874.0131 147.09973l39.93701 0" fill-rule="evenodd"/><path fill="#000000" fill-opacity="0.0" d="m893.9816 127.13123l0 39.937004" fill-rule="evenodd"/><path stroke="#000000" stroke-width="1.0" stroke-linejoin="round" stroke-linecap="butt" d="m893.9816 127.13123l0 39.937004" fill-rule="evenodd"/><path fill="#cfe2f3" d="m913.9974 405.70865l0 0c0 -11.02829 8.940186 -19.968506 19.968506 -19.968506l0 0c5.2959595 0 10.375061 2.1038208 14.119873 5.8486633c3.744812 3.744812 5.848633 8.823883 5.848633 14.119843l0 0c0 11.02832 -8.940186 19.968506 -19.968506 19.968506l0 0c-11.02832 0 -19.968506 -8.940186 -19.968506 -19.968506z" fill-rule="evenodd"/><path stroke="#000000" stroke-width="1.0" stroke-linejoin="round" stroke-linecap="butt" d="m913.9974 405.70865l0 0c0 -11.02829 8.940186 -19.968506 19.968506 -19.968506l0 0c5.2959595 0 10.375061 2.1038208 14.119873 5.8486633c3.744812 3.744812 5.848633 8.823883 5.848633 14.119843l0 0c0 11.02832 -8.940186 19.968506 -19.968506 19.968506l0 0c-11.02832 0 -19.968506 -8.940186 -19.968506 -19.968506z" fill-rule="evenodd"/><path fill="#000000" fill-opacity="0.0" d="m913.9974 405.70865l39.93701 0" fill-rule="evenodd"/><path stroke="#000000" stroke-width="1.0" stroke-linejoin="round" stroke-linecap="butt" d="m913.9974 405.70865l39.93701 0" fill-rule="evenodd"/><path fill="#000000" fill-opacity="0.0" d="m933.9659 385.74014l0 39.93701" fill-rule="evenodd"/><path stroke="#000000" stroke-width="1.0" stroke-linejoin="round" stroke-linecap="butt" d="m933.9659 385.74014l0 39.93701" fill-rule="evenodd"/><path fill="#000000" fill-opacity="0.0" d="m721.3963 147.09973l152.62994 0" fill-rule="evenodd"/><path stroke="#000000" stroke-width="1.0" stroke-linejoin="round" stroke-linecap="butt" d="m721.3963 147.09973l146.62994 0" fill-rule="evenodd"/><path fill="#000000" stroke="#000000" stroke-width="1.0" stroke-linecap="butt" d="m868.02625 148.75146l4.538086 -1.6517334l-4.538086 -1.6517334z" fill-rule="evenodd"/><path fill="#000000" fill-opacity="0.0" d="m721.3963 275.62204l56.252014 0" fill-rule="evenodd"/><path stroke="#000000" stroke-width="1.0" stroke-linejoin="round" stroke-linecap="butt" d="m721.3963 275.62204l50.252014 0" fill-rule="evenodd"/><path fill="#000000" stroke="#000000" stroke-width="1.0" stroke-linecap="butt" d="m771.6483 277.27377l4.538086 -1.6517334l-4.538086 -1.6517334z" fill-rule="evenodd"/><path fill="#000000" fill-opacity="0.0" d="m721.3963 535.1627l56.346497 0" fill-rule="evenodd"/><path stroke="#000000" stroke-width="1.0" stroke-linejoin="round" stroke-linecap="butt" d="m721.3963 535.1627l50.346497 0" fill-rule="evenodd"/><path fill="#000000" stroke="#000000" stroke-width="1.0" stroke-linecap="butt" d="m771.7428 536.81445l4.538086 -1.6517334l-4.538086 -1.6517334z" fill-rule="evenodd"/><path fill="#000000" fill-opacity="0.0" d="m913.95013 147.09973l85.07086 0" fill-rule="evenodd"/><path stroke="#000000" stroke-width="1.0" stroke-linejoin="round" stroke-linecap="butt" d="m913.95013 147.09973l79.07086 0" fill-rule="evenodd"/><path fill="#000000" stroke="#000000" stroke-width="1.0" stroke-linecap="butt" d="m993.021 148.75146l4.538086 -1.6517334l-4.538086 -1.6517334z" fill-rule="evenodd"/><path fill="#000000" fill-opacity="0.0" d="m817.5932 275.62204l177.44879 0" fill-rule="evenodd"/><path stroke="#000000" stroke-width="1.0" stroke-linejoin="round" stroke-linecap="butt" d="m817.5932 275.62204l171.44879 0" fill-rule="evenodd"/><path fill="#000000" stroke="#000000" stroke-width="1.0" stroke-linecap="butt" d="m989.042 277.27377l4.538086 -1.6517334l-4.538086 -1.6517334z" fill-rule="evenodd"/><path fill="#000000" fill-opacity="0.0" d="m721.3963 405.3924l192.59845 0.3149414" fill-rule="evenodd"/><path stroke="#000000" stroke-width="1.0" stroke-linejoin="round" stroke-linecap="butt" d="m721.3963 405.3924l186.59845 0.30514526" fill-rule="evenodd"/><path fill="#000000" stroke="#000000" stroke-width="1.0" stroke-linecap="butt" d="m907.99207 407.34927l4.5407715 -1.6443176l-4.5354004 -1.6591492z" fill-rule="evenodd"/><path fill="#000000" fill-opacity="0.0" d="m953.9344 405.70865l35.18109 0" fill-rule="evenodd"/><path stroke="#000000" stroke-width="1.0" stroke-linejoin="round" stroke-linecap="butt" d="m953.9344 405.70865l29.181091 0" fill-rule="evenodd"/><path fill="#000000" stroke="#000000" stroke-width="1.0" stroke-linecap="butt" d="m983.1155 407.36038l4.538086 -1.6517334l-4.538086 -1.6517334z" fill-rule="evenodd"/><path fill="#000000" fill-opacity="0.0" d="m817.6798 535.1627l177.3858 0" fill-rule="evenodd"/><path stroke="#000000" stroke-width="1.0" stroke-linejoin="round" stroke-linecap="butt" d="m817.6798 535.1627l171.3858 0" fill-rule="evenodd"/><path fill="#000000" stroke="#000000" stroke-width="1.0" stroke-linecap="butt" d="m989.0656 536.81445l4.538086 -1.6517334l-4.538086 -1.6517334z" fill-rule="evenodd"/><path fill="#000000" fill-opacity="0.0" d="m721.3963 666.1811l273.6693 0" fill-rule="evenodd"/><path stroke="#000000" stroke-width="1.0" stroke-linejoin="round" stroke-linecap="butt" d="m721.3963 666.1811l267.6693 0" fill-rule="evenodd"/><path fill="#000000" stroke="#000000" stroke-width="1.0" stroke-linecap="butt" d="m989.0656 667.8328l4.538086 -1.6517334l-4.538086 -1.6517334z" fill-rule="evenodd"/><path fill="#000000" fill-opacity="0.0" d="m893.9816 167.06824l0 500.25195" fill-rule="evenodd"/><path stroke="#000000" stroke-width="1.0" stroke-linejoin="round" stroke-linecap="butt" d="m893.9816 173.06824l0 494.25195" fill-rule="evenodd"/><path fill="#000000" stroke="#000000" stroke-width="1.0" stroke-linecap="butt" d="m895.63336 173.06824l-1.6517334 -4.538086l-1.6517334 4.538086z" fill-rule="evenodd"/><path fill="#000000" fill-opacity="0.0" d="m797.6247 255.65355l0 -108.12599" fill-rule="evenodd"/><path stroke="#000000" stroke-width="1.0" stroke-linejoin="round" stroke-linecap="butt" d="m797.6247 249.65355l0 -102.12599" fill-rule="evenodd"/><path fill="#000000" stroke="#000000" stroke-width="1.0" stroke-linecap="butt" d="m795.97296 249.65355l1.6517334 4.538086l1.6517334 -4.538086z" fill-rule="evenodd"/><path fill="#000000" fill-opacity="0.0" d="m797.7113 515.1942l0 -109.25983" fill-rule="evenodd"/><path stroke="#000000" stroke-width="1.0" stroke-linejoin="round" stroke-linecap="butt" d="m797.7113 509.1942l0 -103.25983" fill-rule="evenodd"/><path fill="#000000" stroke="#000000" stroke-width="1.0" stroke-linecap="butt" d="m796.0596 509.1942l1.6517334 4.538086l1.6517334 -4.538086z" fill-rule="evenodd"/><path fill="#000000" fill-opacity="0.0" d="m264.35696 226.14174l41.102356 0l0 36.850388l-41.102356 0z" fill-rule="evenodd"/><path fill="#000000" d="m286.6734 251.28693l-1.640625 0l0 -10.453125q-0.59375 0.5625 -1.5625 1.140625q-0.953125 0.5625 -1.71875 0.84375l0 -1.59375q1.375 -0.640625 2.40625 -1.5625q1.03125 -0.921875 1.453125 -1.78125l1.0625 0l0 13.40625z" fill-rule="nonzero"/><path fill="#000000" fill-opacity="0.0" d="m279.81628 360.98163l41.102356 0l0 36.850403l-41.102356 0z" fill-rule="evenodd"/><path fill="#000000" d="m302.13272 386.12683l-1.640625 0l0 -10.453125q-0.59375 0.5625 -1.5625 1.140625q-0.953125 0.5625 -1.71875 0.84375l0 -1.59375q1.375 -0.640625 2.40625 -1.5625q1.03125 -0.921875 1.453125 -1.78125l1.0625 0l0 13.40625z" fill-rule="nonzero"/><path fill="#000000" fill-opacity="0.0" d="m279.81628 490.7546l41.102356 0l0 36.850372l-41.102356 0z" fill-rule="evenodd"/><path fill="#000000" d="m302.13272 515.8998l-1.640625 0l0 -10.453125q-0.59375 0.5625 -1.5625 1.140625q-0.953125 0.5625 -1.71875 0.84375l0 -1.59375q1.375 -0.640625 2.40625 -1.5625q1.03125 -0.921875 1.453125 -1.78125l1.0625 0l0 13.40625z" fill-rule="nonzero"/><path fill="#000000" fill-opacity="0.0" d="m279.81628 620.5302l41.102356 0l0 36.85034l-41.102356 0z" fill-rule="evenodd"/><path fill="#000000" d="m302.13272 645.67535l-1.640625 0l0 -10.453125q-0.59375 0.5625 -1.5625 1.140625q-0.953125 0.5625 -1.71875 0.84375l0 -1.59375q1.375 -0.640625 2.40625 -1.5625q1.03125 -0.921875 1.453125 -1.78125l1.0625 0l0 13.40625z" fill-rule="nonzero"/><path fill="#000000" fill-opacity="0.0" d="m241.08398 706.8294l41.102356 0l0 36.850403l-41.102356 0z" fill-rule="evenodd"/><path fill="#000000" d="m263.40045 731.9746l-1.640625 0l0 -10.453125q-0.59375 0.5625 -1.5625 1.140625q-0.953125 0.5625 -1.71875 0.84375l0 -1.59375q1.375 -0.640625 2.40625 -1.5625q1.03125 -0.921875 1.453125 -1.78125l1.0625 0l0 13.40625z" fill-rule="nonzero"/><path fill="#000000" fill-opacity="0.0" d="m913.4147 478.34384l41.102417 0l0 36.850372l-41.102417 0z" fill-rule="evenodd"/><path fill="#000000" d="m935.73114 503.489l-1.640625 0l0 -10.453125q-0.59375 0.5625 -1.5625 1.140625q-0.953125 0.5625 -1.71875 0.84375l0 -1.59375q1.375 -0.640625 2.40625 -1.5625q1.03125 -0.921875 1.453125 -1.78125l1.0625 0l0 13.40625z" fill-rule="nonzero"/><path fill="#000000" fill-opacity="0.0" d="m933.9659 478.34384l0 -52.661438" fill-rule="evenodd"/><path stroke="#000000" stroke-width="1.0" stroke-linejoin="round" stroke-linecap="butt" d="m933.9659 478.34384l0 -46.661438" fill-rule="evenodd"/><path fill="#000000" stroke="#000000" stroke-width="1.0" stroke-linecap="butt" d="m935.6176 431.6824l-1.6517334 -4.538086l-1.6517334 4.538086z" fill-rule="evenodd"/><path fill="#000000" fill-opacity="0.0" d="m282.18634 725.2546l38.740173 0" fill-rule="evenodd"/><path stroke="#000000" stroke-width="1.0" stroke-linejoin="round" stroke-linecap="butt" d="m282.18634 725.2546l32.740173 0" fill-rule="evenodd"/><path fill="#000000" stroke="#000000" stroke-width="1.0" stroke-linecap="butt" d="m314.9265 726.9063l4.538086 -1.6517334l-4.538086 -1.6517334z" fill-rule="evenodd"/><path fill="#000000" fill-opacity="0.0" d="m305.45932 244.56693l35.433075 0l0 -18.425186" fill-rule="evenodd"/><path stroke="#000000" stroke-width="1.0" stroke-linejoin="round" stroke-linecap="butt" d="m305.45932 244.56693l35.433075 0l0 -12.425186" fill-rule="evenodd"/><path fill="#000000" stroke="#000000" stroke-width="1.0" stroke-linecap="butt" d="m342.54413 232.14174l-1.6517334 -4.538101l-1.6517334 4.538101z" fill-rule="evenodd"/><path fill="#000000" fill-opacity="0.0" d="m320.91864 379.40683l19.968506 0l0 -24.75592" fill-rule="evenodd"/><path stroke="#000000" stroke-width="1.0" stroke-linejoin="round" stroke-linecap="butt" d="m320.91864 379.40683l19.968506 0l0 -18.75592" fill-rule="evenodd"/><path fill="#000000" stroke="#000000" stroke-width="1.0" stroke-linecap="butt" d="m342.53888 360.6509l-1.6517334 -4.538086l-1.6517334 4.538086z" fill-rule="evenodd"/><path fill="#000000" fill-opacity="0.0" d="m320.91864 509.17978l19.968506 0l0 -25.984253" fill-rule="evenodd"/><path stroke="#000000" stroke-width="1.0" stroke-linejoin="round" stroke-linecap="butt" d="m320.91864 509.17978l19.968506 0l0 -19.984253" fill-rule="evenodd"/><path fill="#000000" stroke="#000000" stroke-width="1.0" stroke-linecap="butt" d="m342.53888 489.19553l-1.6517334 -4.538086l-1.6517334 4.538086z" fill-rule="evenodd"/><path fill="#000000" fill-opacity="0.0" d="m320.91864 638.9554l19.968506 0l0 -24.75592" fill-rule="evenodd"/><path stroke="#000000" stroke-width="1.0" stroke-linejoin="round" stroke-linecap="butt" d="m320.91864 638.9554l19.968506 0l0 -18.75592" fill-rule="evenodd"/><path fill="#000000" stroke="#000000" stroke-width="1.0" stroke-linecap="butt" d="m342.53888 620.19946l-1.6517334 -4.538086l-1.6517334 4.538086z" fill-rule="evenodd"/></g></svg>