<svg version="1.1" viewBox="0.0 0.0 906.01312335958 240.4724409448819" fill="none" stroke="none" stroke-linecap="square" stroke-miterlimit="10" xmlns:xlink="http://www.w3.org/1999/xlink" xmlns="http://www.w3.org/2000/svg"><clipPath id="p.0"><path d="m0 0l906.0131 0l0 240.47244l-906.0131 0l0 -240.47244z" clip-rule="nonzero"/></clipPath><g clip-path="url(#p.0)"><path fill="#000000" fill-opacity="0.0" d="m0 0l906.0131 0l0 240.47244l-906.0131 0z" fill-rule="evenodd"/><path fill="#fff2cc" d="m447.28873 45.40945l440.37796 0l0 32.787403l-440.37796 0z" fill-rule="evenodd"/><path stroke="#000000" stroke-width="2.0" stroke-linejoin="round" stroke-linecap="butt" d="m447.28873 45.40945l440.37796 0l0 32.787403l-440.37796 0z" fill-rule="evenodd"/><path fill="#d9ead3" d="m6.9107614 45.40945l440.37796 0l0 32.787403l-440.37796 0z" fill-rule="evenodd"/><path stroke="#000000" stroke-width="2.0" stroke-linejoin="round" stroke-linecap="butt" d="m6.9107614 45.40945l440.37796 0l0 32.787403l-440.37796 0z" fill-rule="evenodd"/><path fill="#000000" fill-opacity="0.0" d="m849.81366 14.56168l68.97638 0l0 38.771652l-68.97638 0z" fill-rule="evenodd"/><path fill="#000000" d="m869.9878 38.249805q1.46875 -0.828125 2.703125 -1.90625q1.234375 -1.078125 1.953125 -2.234375q0.734375 -1.15625 0.734375 -2.171875q0 -0.890625 -0.53125 -1.40625q-0.515625 -0.515625 -1.5 -0.515625q-0.90625 0 -1.5625 0.359375q-0.65625 0.359375 -1.21875 0.890625l-0.515625 -0.734375q0.5625 -0.65625 1.59375 -1.1875q1.046875 -0.53125 2.234375 -0.53125q1.125 0 1.890625 0.40625q0.765625 0.40625 1.125 1.0625q0.375 0.65625 0.375 1.4375q0 1.59375 -1.53125 3.265625q-1.515625 1.671875 -3.796875 3.0l4.953125 -0.375l0.5625 -1.375l0.828125 0.15625l-0.421875 2.53125l-7.640625 0l-0.234375 -0.671875zm10.380554 -11.265625l-1.25 -0.171875l0 -0.6875l2.546875 -0.3125l0.015625 0l0.359375 0.25l0 7.8125l-0.03125 0.953125l3.6875 -3.828125l-1.1875 -0.21875l0 -0.734375l3.859375 0l0 0.734375l-1.265625 0.21875l-2.34375 2.296875l3.03125 4.71875l1.0 0.125l0 0.78125l-3.890625 0l0 -0.78125l1.015625 -0.140625l-2.265625 -3.71875l-1.640625 1.625l0.03125 0.828125l0 1.265625l1.140625 0.140625l0 0.78125l-3.8125 0l0 -0.78125l1.0 -0.140625l0 -11.015625zm10.099976 1.046875l-1.3125 -0.203125l0 -0.796875l2.15625 0q0.546875 0 1.375 -0.0625q0.78125 -0.0625 1.140625 -0.0625q2.203125 0 3.15625 0.6875q0.953125 0.6875 0.953125 2.015625q0 1.140625 -0.65625 1.953125q-0.65625 0.8125 -1.78125 1.015625q1.53125 -0.03125 2.40625 0.734375q0.890625 0.75 0.890625 2.046875q0 1.609375 -1.15625 2.640625q-1.140625 1.015625 -3.78125 1.015625q-0.578125 0 -1.09375 -0.046875q-1.25 -0.046875 -1.5 -0.046875l-2.125 0l0 -0.78125l1.328125 -0.15625l0 -9.953125zm1.703125 4.25q0.21875 0.015625 0.90625 0.015625l0.875 0q1.125 0 1.703125 -0.625q0.578125 -0.625 0.578125 -1.78125q0 -1.109375 -0.578125 -1.625q-0.578125 -0.53125 -1.96875 -0.53125q-0.578125 0 -1.1875 0.0625l-0.328125 0.03125l0 4.453125zm0 5.75q0.359375 0.125 1.65625 0.125q1.625 0 2.34375 -0.65625q0.734375 -0.671875 0.734375 -1.921875q0 -1.234375 -0.640625 -1.796875q-0.625 -0.5625 -2.03125 -0.5625q-1.640625 0 -2.0625 0.046875l0 4.765625z" fill-rule="nonzero"/><path fill="#000000" fill-opacity="0.0" d="m220.21523 47.459316l0 31.748035" fill-rule="evenodd"/><path stroke="#000000" stroke-width="2.0" stroke-linejoin="round" stroke-linecap="butt" stroke-dasharray="2.0,6.0" d="m220.21523 47.459316l0 31.748035" fill-rule="evenodd"/><path fill="#000000" fill-opacity="0.0" d="m679.04987 45.929134l0 31.748028" fill-rule="evenodd"/><path stroke="#000000" stroke-width="2.0" stroke-linejoin="round" stroke-linecap="butt" stroke-dasharray="2.0,6.0" d="m679.04987 45.929134l0 31.748028" fill-rule="evenodd"/><path fill="#000000" fill-opacity="0.0" d="m154.82939 79.20735l130.77165 0l0 38.771652l-130.77165 0z" fill-rule="evenodd"/><path fill="#000000" d="m185.31625 103.7236q-0.90625 0 -1.359375 -0.40625q-0.453125 -0.421875 -0.453125 -1.4375l0 -6.140625l-1.140625 0l0 -0.71875q0.078125 -0.015625 0.4375 -0.109375q0.375 -0.09375 0.5 -0.171875q0.265625 -0.140625 0.40625 -0.578125q0.125 -0.3125 0.296875 -0.984375q0.171875 -0.671875 0.21875 -0.796875l0.9375 0l0.03125 2.3125l2.671875 0l0 1.046875l-2.671875 0l0 4.921875q0 0.90625 0.046875 1.28125q0.0625 0.359375 0.25 0.46875q0.1875 0.109375 0.625 0.109375q0.4375 0 0.953125 -0.109375q0.53125 -0.109375 0.8125 -0.234375l0.234375 0.71875q-0.375 0.28125 -1.234375 0.5625q-0.859375 0.265625 -1.5625 0.265625zm4.6370087 -12.09375l-1.34375 -0.171875l0 -0.6875l2.609375 -0.3125l0.03125 0l0.359375 0.25l0 3.703125l-0.0625 1.359375q0.515625 -0.453125 1.40625 -0.875q0.890625 -0.421875 1.8125 -0.421875q1.0 0 1.5625 0.390625q0.5625 0.390625 0.78125 1.1875q0.21875 0.78125 0.21875 2.125l0 4.46875l1.125 0.140625l0 0.78125l-3.828125 0l0 -0.78125l1.046875 -0.140625l0 -4.484375q0 -0.953125 -0.125 -1.484375q-0.125 -0.53125 -0.484375 -0.796875q-0.34375 -0.265625 -1.0625 -0.265625q-0.5625 0 -1.21875 0.296875q-0.65625 0.28125 -1.15625 0.671875l0 6.0625l1.109375 0.140625l0 0.78125l-3.734375 0l0 -0.78125l0.953125 -0.125l0 -11.03125zm9.715897 11.15625l1.203125 -0.09375l0 -6.765625l-1.15625 -0.296875l0 -0.859375l2.21875 -0.296875l0.03125 0l0.34375 0.296875l0 0.28125l-0.046875 1.25l0.046875 0q0.15625 -0.265625 0.578125 -0.703125q0.421875 -0.4375 1.078125 -0.796875q0.65625 -0.359375 1.421875 -0.359375q0.3125 0 0.515625 0.078125l0 1.796875q-0.109375 -0.078125 -0.359375 -0.140625q-0.234375 -0.078125 -0.546875 -0.078125q-1.328125 0 -2.46875 0.8125l0 5.765625l2.03125 0.125l0 0.765625l-4.890625 0l0 -0.78125zm11.234268 0.953125q-1.9375 0 -2.953125 -1.265625q-1.015625 -1.265625 -1.015625 -3.375q0 -1.390625 0.53125 -2.4375q0.53125 -1.0625 1.46875 -1.640625q0.953125 -0.578125 2.171875 -0.578125q1.5 0 2.3125 0.828125q0.828125 0.828125 0.875 2.359375q0 0.984375 -0.109375 1.484375l-5.5 0q0.03125 1.59375 0.734375 2.5625q0.703125 0.96875 2.0 0.96875q0.640625 0 1.328125 -0.234375q0.703125 -0.234375 1.078125 -0.5625l0.3125 0.703125q-0.46875 0.484375 -1.390625 0.84375q-0.90625 0.34375 -1.84375 0.34375zm1.625 -5.46875q0.0625 -0.328125 0.0625 -0.6875q-0.03125 -1.046875 -0.453125 -1.640625q-0.421875 -0.59375 -1.328125 -0.59375q-0.9375 0 -1.484375 0.671875q-0.546875 0.671875 -0.625 2.25l3.828125 0zm4.6259003 4.015625q0.171875 0.234375 0.6875 0.4375q0.515625 0.1875 1.09375 0.1875q0.90625 0 1.34375 -0.34375q0.4375 -0.359375 0.4375 -0.984375q0 -0.4375 -0.28125 -0.75q-0.265625 -0.328125 -0.765625 -0.5625q-0.484375 -0.25 -1.390625 -0.609375q-1.234375 -0.46875 -1.8125 -1.109375q-0.5625 -0.640625 -0.5625 -1.703125q0 -0.703125 0.421875 -1.234375q0.4375 -0.53125 1.171875 -0.828125q0.75 -0.296875 1.65625 -0.296875q0.734375 0 1.28125 0.125q0.5625 0.109375 0.890625 0.21875q0.34375 0.109375 0.453125 0.140625l0 1.984375l-0.96875 0l-0.328125 -1.1875q-0.09375 -0.1875 -0.515625 -0.3125q-0.40625 -0.140625 -0.921875 -0.140625q-0.71875 0 -1.15625 0.328125q-0.4375 0.3125 -0.4375 0.84375q0 0.484375 0.21875 0.796875q0.234375 0.3125 0.578125 0.515625q0.359375 0.1875 0.96875 0.4375l0.328125 0.125q0.890625 0.359375 1.453125 0.6875q0.5625 0.3125 0.9375 0.828125q0.375 0.515625 0.375 1.265625q0 1.1875 -0.921875 1.890625q-0.921875 0.703125 -2.515625 0.703125q-0.78125 0 -1.640625 -0.203125q-0.859375 -0.21875 -1.40625 -0.453125l0 -2.046875l1.046875 0l0.28125 1.25zm7.455017 -10.65625l-1.34375 -0.171875l0 -0.6875l2.609375 -0.3125l0.03125 0l0.359375 0.25l0 3.703125l-0.0625 1.359375q0.515625 -0.453125 1.40625 -0.875q0.890625 -0.421875 1.8125 -0.421875q1.0 0 1.5625 0.390625q0.5625 0.390625 0.78125 1.1875q0.21875 0.78125 0.21875 2.125l0 4.46875l1.125 0.140625l0 0.78125l-3.828125 0l0 -0.78125l1.046875 -0.140625l0 -4.484375q0 -0.953125 -0.125 -1.484375q-0.125 -0.53125 -0.484375 -0.796875q-0.34375 -0.265625 -1.0625 -0.265625q-0.5625 0 -1.21875 0.296875q-0.65625 0.28125 -1.15625 0.671875l0 6.0625l1.109375 0.140625l0 0.78125l-3.734375 0l0 -0.78125l0.953125 -0.125l0 -11.03125zm9.684647 7.46875q0 -1.4375 0.59375 -2.484375q0.59375 -1.0625 1.5625 -1.609375q0.96875 -0.5625 2.0625 -0.5625q2.015625 0 3.03125 1.28125q1.015625 1.28125 1.015625 3.359375q0 1.453125 -0.59375 2.515625q-0.578125 1.0625 -1.546875 1.609375q-0.96875 0.53125 -2.078125 0.53125q-2.015625 0 -3.03125 -1.28125q-1.015625 -1.28125 -1.015625 -3.359375zm4.140625 3.734375q1.109375 0 1.703125 -0.90625q0.59375 -0.921875 0.59375 -2.71875q0 -1.765625 -0.546875 -2.796875q-0.546875 -1.046875 -1.75 -1.046875q-1.09375 0 -1.703125 0.90625q-0.59375 0.90625 -0.59375 2.703125q0 1.78125 0.5625 2.828125q0.5625 1.03125 1.734375 1.03125zm6.7592773 -11.203125l-1.296875 -0.171875l0 -0.6875l2.578125 -0.3125l0.03125 0l0.34375 0.25l0 11.953125l1.359375 0.125l0 0.78125l-4.3125 0l0 -0.78125l1.296875 -0.140625l0 -11.015625zm7.609268 12.109375q-0.953125 0 -1.765625 -0.46875q-0.796875 -0.484375 -1.265625 -1.46875q-0.46875 -1.0 -0.46875 -2.453125q0 -1.359375 0.5625 -2.484375q0.5625 -1.125 1.609375 -1.765625q1.046875 -0.65625 2.46875 -0.65625q0.8125 0 1.484375 0.1875l0 -3.0l-1.625 -0.1875l0 -0.6875l2.875 -0.296875l0.046875 0l0.359375 0.265625l0 12.03125l0.921875 0l0 0.734375q-0.515625 0.109375 -0.890625 0.171875q-0.375 0.0625 -0.78125 0.0625q-0.421875 0 -0.609375 -0.140625q-0.171875 -0.140625 -0.171875 -0.609375l0 -0.515625q-0.4375 0.546875 -1.171875 0.921875q-0.71875 0.359375 -1.578125 0.359375zm0.640625 -1.125q0.625 0 1.171875 -0.28125q0.546875 -0.28125 0.8125 -0.65625l0 -5.859375q-0.125 -0.1875 -0.59375 -0.328125q-0.46875 -0.15625 -1.0 -0.15625q-1.25 0 -2.0 0.953125q-0.734375 0.9375 -0.734375 2.921875q0 1.734375 0.65625 2.578125q0.65625 0.828125 1.6875 0.828125z" fill-rule="nonzero"/><path fill="#000000" fill-opacity="0.0" d="m607.042 79.20735l130.77167 0l0 38.771652l-130.77167 0z" fill-rule="evenodd"/><path fill="#000000" d="m637.5289 103.7236q-0.90625 0 -1.359375 -0.40625q-0.453125 -0.421875 -0.453125 -1.4375l0 -6.140625l-1.140625 0l0 -0.71875q0.078125 -0.015625 0.4375 -0.109375q0.375 -0.09375 0.5 -0.171875q0.265625 -0.140625 0.40625 -0.578125q0.125 -0.3125 0.296875 -0.984375q0.171875 -0.671875 0.21875 -0.796875l0.9375 0l0.03125 2.3125l2.671875 0l0 1.046875l-2.671875 0l0 4.921875q0 0.90625 0.046875 1.28125q0.0625 0.359375 0.25 0.46875q0.1875 0.109375 0.625 0.109375q0.4375 0 0.953125 -0.109375q0.53125 -0.109375 0.8125 -0.234375l0.234375 0.71875q-0.375 0.28125 -1.234375 0.5625q-0.859375 0.265625 -1.5625 0.265625zm4.637024 -12.09375l-1.34375 -0.171875l0 -0.6875l2.609375 -0.3125l0.03125 0l0.359375 0.25l0 3.703125l-0.0625 1.359375q0.515625 -0.453125 1.40625 -0.875q0.890625 -0.421875 1.8125 -0.421875q1.0 0 1.5625 0.390625q0.5625 0.390625 0.78125 1.1875q0.21875 0.78125 0.21875 2.125l0 4.46875l1.125 0.140625l0 0.78125l-3.828125 0l0 -0.78125l1.046875 -0.140625l0 -4.484375q0 -0.953125 -0.125 -1.484375q-0.125 -0.53125 -0.484375 -0.796875q-0.34375 -0.265625 -1.0625 -0.265625q-0.5625 0 -1.21875 0.296875q-0.65625 0.28125 -1.15625 0.671875l0 6.0625l1.109375 0.140625l0 0.78125l-3.734375 0l0 -0.78125l0.953125 -0.125l0 -11.03125zm9.715881 11.15625l1.203125 -0.09375l0 -6.765625l-1.15625 -0.296875l0 -0.859375l2.21875 -0.296875l0.03125 0l0.34375 0.296875l0 0.28125l-0.046875 1.25l0.046875 0q0.15625 -0.265625 0.578125 -0.703125q0.421875 -0.4375 1.078125 -0.796875q0.65625 -0.359375 1.421875 -0.359375q0.3125 0 0.515625 0.078125l0 1.796875q-0.109375 -0.078125 -0.359375 -0.140625q-0.234375 -0.078125 -0.546875 -0.078125q-1.328125 0 -2.46875 0.8125l0 5.765625l2.03125 0.125l0 0.765625l-4.890625 0l0 -0.78125zm11.234253 0.953125q-1.9375 0 -2.953125 -1.265625q-1.015625 -1.265625 -1.015625 -3.375q0 -1.390625 0.53125 -2.4375q0.53125 -1.0625 1.46875 -1.640625q0.953125 -0.578125 2.171875 -0.578125q1.5 0 2.3125 0.828125q0.828125 0.828125 0.875 2.359375q0 0.984375 -0.109375 1.484375l-5.5 0q0.03125 1.59375 0.734375 2.5625q0.703125 0.96875 2.0 0.96875q0.640625 0 1.328125 -0.234375q0.703125 -0.234375 1.078125 -0.5625l0.3125 0.703125q-0.46875 0.484375 -1.390625 0.84375q-0.90625 0.34375 -1.84375 0.34375zm1.625 -5.46875q0.0625 -0.328125 0.0625 -0.6875q-0.03125 -1.046875 -0.453125 -1.640625q-0.421875 -0.59375 -1.328125 -0.59375q-0.9375 0 -1.484375 0.671875q-0.546875 0.671875 -0.625 2.25l3.828125 0zm4.6259155 4.015625q0.171875 0.234375 0.6875 0.4375q0.515625 0.1875 1.09375 0.1875q0.90625 0 1.34375 -0.34375q0.4375 -0.359375 0.4375 -0.984375q0 -0.4375 -0.28125 -0.75q-0.265625 -0.328125 -0.765625 -0.5625q-0.484375 -0.25 -1.390625 -0.609375q-1.234375 -0.46875 -1.8125 -1.109375q-0.5625 -0.640625 -0.5625 -1.703125q0 -0.703125 0.421875 -1.234375q0.4375 -0.53125 1.171875 -0.828125q0.75 -0.296875 1.65625 -0.296875q0.734375 0 1.28125 0.125q0.5625 0.109375 0.890625 0.21875q0.34375 0.109375 0.453125 0.140625l0 1.984375l-0.96875 0l-0.328125 -1.1875q-0.09375 -0.1875 -0.515625 -0.3125q-0.40625 -0.140625 -0.921875 -0.140625q-0.71875 0 -1.15625 0.328125q-0.4375 0.3125 -0.4375 0.84375q0 0.484375 0.21875 0.796875q0.234375 0.3125 0.578125 0.515625q0.359375 0.1875 0.96875 0.4375l0.328125 0.125q0.890625 0.359375 1.453125 0.6875q0.5625 0.3125 0.9375 0.828125q0.375 0.515625 0.375 1.265625q0 1.1875 -0.921875 1.890625q-0.921875 0.703125 -2.515625 0.703125q-0.78125 0 -1.640625 -0.203125q-0.859375 -0.21875 -1.40625 -0.453125l0 -2.046875l1.046875 0l0.28125 1.25zm7.455017 -10.65625l-1.34375 -0.171875l0 -0.6875l2.609375 -0.3125l0.03125 0l0.359375 0.25l0 3.703125l-0.0625 1.359375q0.515625 -0.453125 1.40625 -0.875q0.890625 -0.421875 1.8125 -0.421875q1.0 0 1.5625 0.390625q0.5625 0.390625 0.78125 1.1875q0.21875 0.78125 0.21875 2.125l0 4.46875l1.125 0.140625l0 0.78125l-3.828125 0l0 -0.78125l1.046875 -0.140625l0 -4.484375q0 -0.953125 -0.125 -1.484375q-0.125 -0.53125 -0.484375 -0.796875q-0.34375 -0.265625 -1.0625 -0.265625q-0.5625 0 -1.21875 0.296875q-0.65625 0.28125 -1.15625 0.671875l0 6.0625l1.109375 0.140625l0 0.78125l-3.734375 0l0 -0.78125l0.953125 -0.125l0 -11.03125zm9.684631 7.46875q0 -1.4375 0.59375 -2.484375q0.59375 -1.0625 1.5625 -1.609375q0.96875 -0.5625 2.0625 -0.5625q2.015625 0 3.03125 1.28125q1.015625 1.28125 1.015625 3.359375q0 1.453125 -0.59375 2.515625q-0.578125 1.0625 -1.546875 1.609375q-0.96875 0.53125 -2.078125 0.53125q-2.015625 0 -3.03125 -1.28125q-1.015625 -1.28125 -1.015625 -3.359375zm4.140625 3.734375q1.109375 0 1.703125 -0.90625q0.59375 -0.921875 0.59375 -2.71875q0 -1.765625 -0.546875 -2.796875q-0.546875 -1.046875 -1.75 -1.046875q-1.09375 0 -1.703125 0.90625q-0.59375 0.90625 -0.59375 2.703125q0 1.78125 0.5625 2.828125q0.5625 1.03125 1.734375 1.03125zm6.7592773 -11.203125l-1.296875 -0.171875l0 -0.6875l2.578125 -0.3125l0.03125 0l0.34375 0.25l0 11.953125l1.359375 0.125l0 0.78125l-4.3125 0l0 -0.78125l1.296875 -0.140625l0 -11.015625zm7.609253 12.109375q-0.953125 0 -1.765625 -0.46875q-0.796875 -0.484375 -1.265625 -1.46875q-0.46875 -1.0 -0.46875 -2.453125q0 -1.359375 0.5625 -2.484375q0.5625 -1.125 1.609375 -1.765625q1.046875 -0.65625 2.46875 -0.65625q0.8125 0 1.484375 0.1875l0 -3.0l-1.625 -0.1875l0 -0.6875l2.875 -0.296875l0.046875 0l0.359375 0.265625l0 12.03125l0.921875 0l0 0.734375q-0.515625 0.109375 -0.890625 0.171875q-0.375 0.0625 -0.78125 0.0625q-0.421875 0 -0.609375 -0.140625q-0.171875 -0.140625 -0.171875 -0.609375l0 -0.515625q-0.4375 0.546875 -1.171875 0.921875q-0.71875 0.359375 -1.578125 0.359375zm0.640625 -1.125q0.625 0 1.171875 -0.28125q0.546875 -0.28125 0.8125 -0.65625l0 -5.859375q-0.125 -0.1875 -0.59375 -0.328125q-0.46875 -0.15625 -1.0 -0.15625q-1.25 0 -2.0 0.953125q-0.734375 0.9375 -0.734375 2.921875q0 1.734375 0.65625 2.578125q0.65625 0.828125 1.6875 0.828125z" fill-rule="nonzero"/><path fill="#000000" fill-opacity="0.0" d="m416.57742 7.1574802l68.97638 0l0 38.771652l-68.97638 0z" fill-rule="evenodd"/><path fill="#000000" d="m440.28122 23.26748q-0.34375 0.125 -1.0625 0.296875q-0.71875 0.171875 -1.171875 0.234375l-0.15625 -0.890625q0.8125 -0.171875 1.671875 -0.578125q0.859375 -0.421875 1.4375 -0.921875l0.015625 0l0.96875 0.15625l0 9.03125l1.984375 0.140625l0 0.78125l-5.765625 0l0 -0.78125l2.078125 -0.140625l0 -7.328125zm5.5868835 -3.6875l-1.25 -0.171875l0 -0.6875l2.546875 -0.3125l0.015625 0l0.359375 0.25l0 7.8125l-0.03125 0.953125l3.6875 -3.828125l-1.1875 -0.21875l0 -0.734375l3.859375 0l0 0.734375l-1.265625 0.21875l-2.34375 2.296875l3.03125 4.71875l1.0 0.125l0 0.78125l-3.890625 0l0 -0.78125l1.015625 -0.140625l-2.265625 -3.71875l-1.640625 1.625l0.03125 0.828125l0 1.265625l1.140625 0.140625l0 0.78125l-3.8125 0l0 -0.78125l1.0 -0.140625l0 -11.015625zm10.100006 1.046875l-1.3125 -0.203125l0 -0.796875l2.15625 0q0.546875 0 1.375 -0.0625q0.78125 -0.0625 1.140625 -0.0625q2.203125 0 3.15625 0.6875q0.953125 0.6875 0.953125 2.015625q0 1.140625 -0.65625 1.953125q-0.65625 0.8125 -1.78125 1.015625q1.53125 -0.03125 2.40625 0.734375q0.890625 0.75 0.890625 2.046875q0 1.609375 -1.15625 2.640625q-1.140625 1.015625 -3.78125 1.015625q-0.578125 0 -1.09375 -0.046875q-1.25 -0.046875 -1.5 -0.046875l-2.125 0l0 -0.78125l1.328125 -0.15625l0 -9.953125zm1.703125 4.25q0.21875 0.015625 0.90625 0.015625l0.875 0q1.125 0 1.703125 -0.625q0.578125 -0.625 0.578125 -1.78125q0 -1.109375 -0.578125 -1.625q-0.578125 -0.53125 -1.96875 -0.53125q-0.578125 0 -1.1875 0.0625l-0.328125 0.03125l0 4.453125zm0 5.75q0.359375 0.125 1.65625 0.125q1.625 0 2.34375 -0.65625q0.734375 -0.671875 0.734375 -1.921875q0 -1.234375 -0.640625 -1.796875q-0.625 -0.5625 -2.03125 -0.5625q-1.640625 0 -2.0625 0.046875l0 4.765625z" fill-rule="nonzero"/><path fill="#000000" fill-opacity="0.0" d="m92.191605 109.93438c21.678474 10.069336 94.22441 60.2147 130.07086 60.415977c35.84645 0.20127869 70.83989 -49.340256 85.00789 -59.208305" fill-rule="evenodd"/><path stroke="#000000" stroke-width="2.0" stroke-linejoin="round" stroke-linecap="butt" d="m92.191605 109.93438c21.678474 10.069328 94.22441 60.2147 130.07086 60.415977c17.923233 0.10064697 35.633194 -12.234421 50.633377 -25.828156c7.500061 -6.7968597 14.322693 -13.908386 20.155823 -19.937462c2.916565 -3.0145264 5.585724 -5.7584534 7.9684753 -8.057121c0.29788208 -0.28733063 0.59124756 -0.56770325 0.8800659 -0.84077454l0.13238525 -0.12374115" fill-rule="evenodd"/><path fill="#000000" stroke="#000000" stroke-width="2.0" stroke-linecap="butt" d="m302.0326 115.5631l-0.26797485 3.1694946l3.2714539 -5.7046432l-6.1729736 2.2671585z" fill-rule="evenodd"/><path fill="#000000" fill-opacity="0.0" d="m150.34645 159.72966l130.77165 0l0 38.771652l-130.77165 0z" fill-rule="evenodd"/><path fill="#000000" d="m170.77167 176.44904l-1.15625 -0.296875l0 -0.859375l2.28125 -0.296875l0.046875 0l0.34375 0.296875l0 0.671875l-0.015625 0.375q0.578125 -0.5 1.515625 -0.921875q0.9375 -0.421875 1.8125 -0.421875q1.0 0 1.546875 0.390625q0.5625 0.390625 0.78125 1.1875q0.234375 0.78125 0.234375 2.125l0 4.484375l1.109375 0.109375l0 0.796875l-3.78125 0l0 -0.78125l0.984375 -0.125l0 -4.5q0 -0.953125 -0.125 -1.484375q-0.125 -0.53125 -0.484375 -0.796875q-0.34375 -0.265625 -1.015625 -0.265625q-0.578125 0 -1.234375 0.296875q-0.65625 0.28125 -1.171875 0.671875l0 6.0625l1.09375 0.140625l0 0.78125l-3.78125 0l0 -0.78125l1.015625 -0.140625l0 -6.71875zm9.655273 3.171875q0 -1.4375 0.59375 -2.484375q0.59375 -1.0625 1.5625 -1.609375q0.96875 -0.5625 2.0625 -0.5625q2.015625 0 3.03125 1.28125q1.015625 1.28125 1.015625 3.359375q0 1.453125 -0.59375 2.515625q-0.578125 1.0625 -1.546875 1.609375q-0.96875 0.53125 -2.078125 0.53125q-2.015625 0 -3.03125 -1.28125q-1.015625 -1.28125 -1.015625 -3.359375zm4.140625 3.734375q1.109375 0 1.703125 -0.90625q0.59375 -0.921875 0.59375 -2.71875q0 -1.765625 -0.546875 -2.796875q-0.546875 -1.046875 -1.75 -1.046875q-1.09375 0 -1.703125 0.90625q-0.59375 0.90625 -0.59375 2.703125q0 1.78125 0.5625 2.828125q0.5625 1.03125 1.734375 1.03125zm8.321777 0.890625q-0.90625 0 -1.359375 -0.40625q-0.453125 -0.421875 -0.453125 -1.4375l0 -6.140625l-1.140625 0l0 -0.71875q0.078125 -0.015625 0.4375 -0.109375q0.375 -0.09375 0.5 -0.171875q0.265625 -0.140625 0.40625 -0.578125q0.125 -0.3125 0.296875 -0.984375q0.171875 -0.671875 0.21875 -0.796875l0.9375 0l0.03125 2.3125l2.671875 0l0 1.046875l-2.671875 0l0 4.921875q0 0.90625 0.046875 1.28125q0.0625 0.359375 0.25 0.46875q0.1875 0.109375 0.625 0.109375q0.4375 0 0.953125 -0.109375q0.53125 -0.109375 0.8125 -0.234375l0.234375 0.71875q-0.375 0.28125 -1.234375 0.5625q-0.859375 0.265625 -1.5625 0.265625zm5.6682587 -10.640625q-0.515625 0 -0.78125 -0.28125q-0.25 -0.296875 -0.25 -0.734375q0 -0.515625 0.3125 -0.84375q0.3125 -0.34375 0.859375 -0.34375q0.546875 0 0.796875 0.296875q0.265625 0.28125 0.265625 0.734375q0 0.53125 -0.3125 0.859375q-0.3125 0.3125 -0.875 0.3125l-0.015625 0zm-0.640625 2.84375l-1.21875 -0.296875l0 -0.84375l2.484375 -0.3125l0.03125 0l0.359375 0.296875l0 7.890625l1.28125 0.125l0 0.78125l-4.234375 0l0 -0.78125l1.296875 -0.140625l0 -6.71875zm5.359268 -0.1875l-1.5 0l0 -0.734375l1.5 -0.296875l0 -0.75q0 -1.0 0.515625 -1.828125q0.53125 -0.828125 1.359375 -1.3125q0.84375 -0.5 1.78125 -0.5q0.546875 0 0.953125 0.140625l0 1.609375q-0.140625 -0.125 -0.578125 -0.25q-0.421875 -0.125 -0.921875 -0.125q-0.75 0 -1.109375 0.390625q-0.34375 0.390625 -0.34375 1.359375l0 1.265625l2.21875 0l0 1.03125l-2.21875 0l0 6.921875l1.78125 0.125l0 0.78125l-4.796875 0l0 -0.78125l1.359375 -0.140625l0 -6.90625zm7.015625 -2.65625q-0.515625 0 -0.78125 -0.28125q-0.25 -0.296875 -0.25 -0.734375q0 -0.515625 0.3125 -0.84375q0.3125 -0.34375 0.859375 -0.34375q0.546875 0 0.796875 0.296875q0.265625 0.28125 0.265625 0.734375q0 0.53125 -0.3125 0.859375q-0.3125 0.3125 -0.875 0.3125l-0.015625 0zm-0.640625 2.84375l-1.21875 -0.296875l0 -0.84375l2.484375 -0.3125l0.03125 0l0.359375 0.296875l0 7.890625l1.28125 0.125l0 0.78125l-4.234375 0l0 -0.78125l1.296875 -0.140625l0 -6.71875zm3.8842773 3.25q0 -1.328125 0.515625 -2.390625q0.515625 -1.078125 1.53125 -1.703125q1.015625 -0.640625 2.453125 -0.640625q0.6875 0 1.171875 0.140625q0.5 0.125 1.1875 0.34375l-0.0625 2.46875l-1.046875 0l-0.34375 -1.640625q-0.09375 -0.4375 -1.21875 -0.4375q-1.125 0 -1.78125 0.90625q-0.640625 0.890625 -0.640625 2.5625q0 1.890625 0.734375 2.875q0.734375 0.984375 1.890625 0.984375q0.671875 0 1.265625 -0.203125q0.609375 -0.21875 1.046875 -0.5l0.296875 0.640625q-0.421875 0.4375 -1.265625 0.796875q-0.84375 0.359375 -1.703125 0.359375q-1.3125 0 -2.21875 -0.59375q-0.90625 -0.59375 -1.359375 -1.625q-0.453125 -1.03125 -0.453125 -2.34375zm8.395523 1.984375q0 -1.5 1.5 -2.203125q1.515625 -0.71875 3.8125 -0.765625l0 -0.453125q0 -0.75 -0.15625 -1.171875q-0.15625 -0.4375 -0.5625 -0.640625q-0.390625 -0.203125 -1.109375 -0.203125q-0.8125 0 -1.46875 0.234375q-0.640625 0.234375 -1.28125 0.5625l-0.390625 -0.828125q0.203125 -0.171875 0.765625 -0.453125q0.5625 -0.296875 1.296875 -0.515625q0.734375 -0.234375 1.46875 -0.234375q1.140625 0 1.796875 0.3125q0.671875 0.3125 0.953125 1.0q0.28125 0.6875 0.28125 1.84375l0 5.140625l0.953125 0l0 0.703125q-0.328125 0.078125 -0.8125 0.15625q-0.484375 0.078125 -0.859375 0.078125q-0.4375 0 -0.609375 -0.140625q-0.15625 -0.125 -0.15625 -0.59375l0 -0.53125q-0.484375 0.484375 -1.1875 0.890625q-0.6875 0.390625 -1.5625 0.390625q-1.15625 0 -1.921875 -0.65625q-0.75 -0.671875 -0.75 -1.921875zm3.359375 1.5q0.421875 0 0.953125 -0.25q0.546875 -0.265625 1.0 -0.625l0 -2.75q-1.75 0 -2.640625 0.546875q-0.875 0.53125 -0.875 1.390625q0 0.859375 0.421875 1.28125q0.421875 0.40625 1.140625 0.40625zm8.351013 1.0625q-0.90625 0 -1.359375 -0.40625q-0.453125 -0.421875 -0.453125 -1.4375l0 -6.140625l-1.140625 0l0 -0.71875q0.078125 -0.015625 0.4375 -0.109375q0.375 -0.09375 0.5 -0.171875q0.265625 -0.140625 0.40625 -0.578125q0.125 -0.3125 0.296875 -0.984375q0.171875 -0.671875 0.21875 -0.796875l0.9375 0l0.03125 2.3125l2.671875 0l0 1.046875l-2.671875 0l0 4.921875q0 0.90625 0.046875 1.28125q0.0625 0.359375 0.25 0.46875q0.1875 0.109375 0.625 0.109375q0.4375 0 0.953125 -0.109375q0.53125 -0.109375 0.8125 -0.234375l0.234375 0.71875q-0.375 0.28125 -1.234375 0.5625q-0.859375 0.265625 -1.5625 0.265625zm5.6682587 -10.640625q-0.515625 0 -0.78125 -0.28125q-0.25 -0.296875 -0.25 -0.734375q0 -0.515625 0.3125 -0.84375q0.3125 -0.34375 0.859375 -0.34375q0.546875 0 0.796875 0.296875q0.265625 0.28125 0.265625 0.734375q0 0.53125 -0.3125 0.859375q-0.3125 0.3125 -0.875 0.3125l-0.015625 0zm-0.640625 2.84375l-1.21875 -0.296875l0 -0.84375l2.484375 -0.3125l0.03125 0l0.359375 0.296875l0 7.890625l1.28125 0.125l0 0.78125l-4.234375 0l0 -0.78125l1.296875 -0.140625l0 -6.71875zm4.078018 3.171875q0 -1.4375 0.59375 -2.484375q0.59375 -1.0625 1.5625 -1.609375q0.96875 -0.5625 2.0625 -0.5625q2.015625 0 3.03125 1.28125q1.015625 1.28125 1.015625 3.359375q0 1.453125 -0.59375 2.515625q-0.578125 1.0625 -1.546875 1.609375q-0.96875 0.53125 -2.078125 0.53125q-2.015625 0 -3.03125 -1.28125q-1.015625 -1.28125 -1.015625 -3.359375zm4.140625 3.734375q1.109375 0 1.703125 -0.90625q0.59375 -0.921875 0.59375 -2.71875q0 -1.765625 -0.546875 -2.796875q-0.546875 -1.046875 -1.75 -1.046875q-1.09375 0 -1.703125 0.90625q-0.59375 0.90625 -0.59375 2.703125q0 1.78125 0.5625 2.828125q0.5625 1.03125 1.734375 1.03125zm6.5561523 -6.90625l-1.15625 -0.296875l0 -0.859375l2.28125 -0.296875l0.046875 0l0.34375 0.296875l0 0.671875l-0.015625 0.375q0.578125 -0.5 1.5156403 -0.921875q0.9375 -0.421875 1.8125 -0.421875q1.0 0 1.546875 0.390625q0.5625 0.390625 0.78125 1.1875q0.234375 0.78125 0.234375 2.125l0 4.484375l1.109375 0.109375l0 0.796875l-3.78125 0l0 -0.78125l0.984375 -0.125l0 -4.5q0 -0.953125 -0.125 -1.484375q-0.125 -0.53125 -0.484375 -0.796875q-0.34375 -0.265625 -1.015625 -0.265625q-0.578125 0 -1.234375 0.296875q-0.65626526 0.28125 -1.1718903 0.671875l0 6.0625l1.0937653 0.140625l0 0.78125l-3.7812653 0l0 -0.78125l1.015625 -0.140625l0 -6.71875z" fill-rule="nonzero"/><path fill="#000000" fill-opacity="0.0" d="m425.80316 99.63517l63.496063 0" fill-rule="evenodd"/><path stroke="#000000" stroke-width="2.0" stroke-linejoin="round" stroke-linecap="butt" d="m425.80316 99.63517l51.496063 0" fill-rule="evenodd"/><path fill="#000000" stroke="#000000" stroke-width="2.0" stroke-linecap="butt" d="m477.29922 102.93864l9.076172 -3.3034668l-9.076172 -3.3034668z" fill-rule="evenodd"/><path fill="#000000" fill-opacity="0.0" d="m425.80316 99.63517l130.77167 0l0 38.77166l-130.77167 0z" fill-rule="evenodd"/><path fill="#000000" d="m451.38162 111.198296l2.5625 -0.3125l0.03125 0l0.359375 0.25l0 4.8125q0.484375 -0.46875 1.140625 -0.765625q0.671875 -0.3125 1.484375 -0.3125q0.96875 0 1.75 0.46875q0.796875 0.46875 1.265625 1.453125q0.484375 0.96875 0.484375 2.453125q0 1.375 -0.578125 2.5q-0.5625 1.109375 -1.625 1.765625q-1.046875 0.65625 -2.4375 0.65625q-1.109375 0 -2.03125 -0.203125q-0.90625 -0.21875 -1.09375 -0.40625l0 -11.515625l-1.3125 -0.171875l0 -0.671875zm4.921875 4.8125q-0.609375 0 -1.125 0.28125q-0.515625 0.28125 -0.84375 0.625l0 5.890625q0.109375 0.234375 0.5625 0.375q0.453125 0.125 1.03125 0.125q1.234375 0 1.984375 -0.984375q0.75 -1.0 0.75 -2.90625q0 -1.703125 -0.65625 -2.546875q-0.65625 -0.859375 -1.703125 -0.859375zm12.821411 8.125q-0.453125 0 -0.671875 -0.171875q-0.203125 -0.171875 -0.203125 -0.578125l0 -0.546875q-0.53125 0.53125 -1.328125 0.9375q-0.78125 0.390625 -1.59375 0.390625q-1.484375 0 -2.109375 -0.796875q-0.625 -0.796875 -0.625 -2.640625l0 -4.640625l-0.890625 -0.25l0 -0.703125l2.234375 -0.21875l0.015625 0l0.3125 0.203125l0 5.484375q0 0.921875 0.125 1.453125q0.140625 0.515625 0.484375 0.765625q0.34375 0.25 1.0 0.25q0.640625 0 1.203125 -0.265625q0.5625 -0.28125 0.96875 -0.65625l0 -6.0625l-1.140625 -0.25l0 -0.703125l2.421875 -0.21875l0.015625 0l0.375 0.203125l0 8.0625l0.953125 0l-0.015625 0.71875q-0.4375 0.109375 -0.765625 0.171875q-0.328125 0.0625 -0.765625 0.0625zm4.1119995 -7.96875l-1.5 0l0 -0.734375l1.5 -0.296875l0 -0.75q0 -1.0 0.515625 -1.828125q0.53125 -0.828125 1.359375 -1.3125q0.84375 -0.5 1.78125 -0.5q0.546875 0 0.953125 0.140625l0 1.609375q-0.140625 -0.125 -0.578125 -0.25q-0.421875 -0.125 -0.921875 -0.125q-0.75 0 -1.109375 0.390625q-0.34375 0.390625 -0.34375 1.359375l0 1.265625l2.21875 0l0 1.03125l-2.21875 0l0 6.921875l1.78125 0.125l0 0.78125l-4.796875 0l0 -0.78125l1.359375 -0.140625l0 -6.90625zm6.40625 0l-1.5 0l0 -0.734375l1.5 -0.296875l0 -0.75q0 -1.0 0.515625 -1.828125q0.53125 -0.828125 1.359375 -1.3125q0.84375 -0.5 1.78125 -0.5q0.546875 0 0.953125 0.140625l0 1.609375q-0.140625 -0.125 -0.578125 -0.25q-0.421875 -0.125 -0.921875 -0.125q-0.75 0 -1.109375 0.390625q-0.34375 0.390625 -0.34375 1.359375l0 1.265625l2.21875 0l0 1.03125l-2.21875 0l0 6.921875l1.78125 0.125l0 0.78125l-4.796875 0l0 -0.78125l1.359375 -0.140625l0 -6.90625zm9.050049 8.0q-1.9375 0 -2.953125 -1.265625q-1.015625 -1.265625 -1.015625 -3.375q0 -1.390625 0.53125 -2.4375q0.53125 -1.0625 1.46875 -1.640625q0.953125 -0.578125 2.171875 -0.578125q1.5 0 2.3125 0.828125q0.828125 0.828125 0.875 2.359375q0 0.984375 -0.109375 1.484375l-5.5 0q0.03125 1.59375 0.734375 2.5625q0.703125 0.96875 2.0 0.96875q0.640625 0 1.328125 -0.234375q0.703125 -0.234375 1.078125 -0.5625l0.3125 0.703125q-0.46875 0.484375 -1.390625 0.84375q-0.90625 0.34375 -1.84375 0.34375zm1.625 -5.46875q0.0625 -0.328125 0.0625 -0.6875q-0.03125 -1.046875 -0.453125 -1.640625q-0.421875 -0.59375 -1.328125 -0.59375q-0.9375 0 -1.484375 0.671875q-0.546875 0.671875 -0.625 2.25l3.828125 0zm3.17276 4.515625l1.203125 -0.09375l0 -6.765625l-1.15625 -0.296875l0 -0.859375l2.21875 -0.296875l0.03125 0l0.34375 0.296875l0 0.28125l-0.046875 1.25l0.046875 0q0.15625 -0.265625 0.578125 -0.703125q0.421875 -0.4375 1.078125 -0.796875q0.65625 -0.359375 1.421875 -0.359375q0.3125 0 0.515625 0.078125l0 1.796875q-0.109375 -0.078125 -0.359375 -0.140625q-0.234375 -0.078125 -0.546875 -0.078125q-1.328125 0 -2.46875 0.8125l0 5.765625l2.03125 0.125l0 0.765625l-4.890625 0l0 -0.78125zm12.370026 -7.046875l-1.5 0l0 -0.734375l1.5 -0.296875l0 -0.75q0 -1.0 0.515625 -1.828125q0.53125 -0.828125 1.359375 -1.3125q0.84375 -0.5 1.78125 -0.5q0.546875 0 0.953125 0.140625l0 1.609375q-0.140625 -0.125 -0.578125 -0.25q-0.421875 -0.125 -0.921875 -0.125q-0.75 0 -1.109375 0.390625q-0.34375 0.390625 -0.34375 1.359375l0 1.265625l2.21875 0l0 1.03125l-2.21875 0l0 6.921875l1.78125 0.125l0 0.78125l-4.796875 0l0 -0.78125l1.359375 -0.140625l0 -6.90625zm6.2969055 -4.109375l-1.2969055 -0.171875l0 -0.6875l2.5781555 -0.3125l0.03125 0l0.34375 0.25l0 11.953125l1.359375 0.125l0 0.78125l-4.3125305 0l0 -0.78125l1.2969055 -0.140625l0 -11.015625zm6.0405273 1.453125q-0.515625 0 -0.78125 -0.28125q-0.25 -0.296875 -0.25 -0.734375q0 -0.515625 0.3125 -0.84375q0.3125 -0.34375 0.859375 -0.34375q0.546875 0 0.796875 0.296875q0.265625 0.28125 0.265625 0.734375q0 0.53125 -0.3125 0.859375q-0.3125 0.3125 -0.875 0.3125l-0.015625 0zm-0.640625 2.84375l-1.21875 -0.296875l0 -0.84375l2.484375 -0.3125l0.03125 0l0.359375 0.296875l0 7.890625l1.28125 0.125l0 0.78125l-4.234375 0l0 -0.78125l1.296875 -0.140625l0 -6.71875zm12.734253 2.890625q0 1.359375 -0.5625 2.484375q-0.5625 1.125 -1.609375 1.78125q-1.03125 0.65625 -2.421875 0.65625q-0.375 0 -0.828125 -0.0625q-0.453125 -0.0625 -0.71875 -0.15625l0.046875 1.34375l0 1.609375l1.65625 0.1875l0 0.78125l-4.453125 0l0 -0.78125l1.140625 -0.1875l0 -10.546875l-1.15625 -0.296875l0 -0.859375l2.265625 -0.296875l0.03125 0l0.34375 0.296875l0 0.9375q0.46875 -0.53125 1.1875 -0.890625q0.71875 -0.375 1.59375 -0.375q0.9375 0 1.734375 0.46875q0.796875 0.46875 1.265625 1.453125q0.484375 0.96875 0.484375 2.453125zm-4.140625 -3.25q-0.609375 0 -1.140625 0.265625q-0.53125 0.25 -0.8125 0.546875l0 6.03125q0.109375 0.203125 0.5625 0.359375q0.453125 0.140625 1.0 0.140625q1.234375 0 1.984375 -0.96875q0.765625 -0.984375 0.765625 -2.953125q0 -1.71875 -0.671875 -2.5625q-0.65625 -0.859375 -1.6875 -0.859375z" fill-rule="nonzero"/><path fill="#000000" fill-opacity="0.0" d="m750.08136 224.2546l32.787415 -32.755905" fill-rule="evenodd"/><path stroke="#000000" stroke-width="4.0" stroke-linejoin="round" stroke-linecap="butt" d="m750.08136 224.2546l15.808716 -15.793488" fill-rule="evenodd"/><path fill="#000000" stroke="#000000" stroke-width="4.0" stroke-linecap="butt" d="m770.55963 213.13515l8.172241 -17.503555l-17.511353 8.155457z" fill-rule="evenodd"/><path fill="#000000" fill-opacity="0.0" d="m776.0735 187.38583l106.834656 0l0 38.771652l-106.834656 0z" fill-rule="evenodd"/><path fill="#000000" d="m789.7531 210.96458l1.328125 -0.15625l0 -9.953125l-1.25 -0.21875l0 -0.78125l2.09375 0q0.453125 0 1.21875 -0.0625q0.796875 -0.0625 1.25 -0.0625q2.359375 0 3.359375 0.765625q1.0 0.75 1.0 2.390625q0 1.125 -0.640625 2.078125q-0.625 0.9375 -1.734375 1.28125q0.515625 0.265625 0.953125 0.9375q0.4375 0.65625 1.078125 1.84375q0.5 0.890625 0.765625 1.3125q0.265625 0.421875 0.5 0.46875l0.625 0.15625l0 0.78125l-2.203125 0q-0.265625 0 -0.59375 -0.546875q-0.3125 -0.5625 -0.84375 -1.703125q-0.5625 -1.265625 -1.0 -2.015625q-0.421875 -0.75 -0.828125 -0.953125q-1.71875 0 -2.03125 -0.015625l0 4.296875l1.578125 0.15625l0 0.78125l-4.625 0l0 -0.78125zm4.953125 -5.296875q1.015625 0 1.609375 -0.671875q0.59375 -0.671875 0.59375 -2.0q0 -1.171875 -0.609375 -1.78125q-0.59375 -0.625 -2.0625 -0.625q-0.515625 0 -1.03125 0.0625q-0.3125 0.03125 -0.40625 0.03125l0 4.96875q0.234375 0.015625 0.984375 0.015625l0.921875 0zm10.232788 6.25q-1.9375 0 -2.953125 -1.265625q-1.015625 -1.265625 -1.015625 -3.375q0 -1.390625 0.53125 -2.4375q0.53125 -1.0625 1.46875 -1.640625q0.953125 -0.578125 2.171875 -0.578125q1.5 0 2.3125 0.828125q0.828125 0.828125 0.875 2.359375q0 0.984375 -0.109375 1.484375l-5.5 0q0.03125 1.59375 0.734375 2.5625q0.703125 0.96875 2.0 0.96875q0.640625 0 1.328125 -0.234375q0.703125 -0.234375 1.078125 -0.5625l0.3125 0.703125q-0.46875 0.484375 -1.390625 0.84375q-0.90625 0.34375 -1.84375 0.34375zm1.625 -5.46875q0.0625 -0.328125 0.0625 -0.6875q-0.03125 -1.046875 -0.453125 -1.640625q-0.421875 -0.59375 -1.328125 -0.59375q-0.9375 0 -1.484375 0.671875q-0.546875 0.671875 -0.625 2.25l3.828125 0zm3.1414795 2.890625q0 -1.5 1.5 -2.203125q1.515625 -0.71875 3.8125 -0.765625l0 -0.453125q0 -0.75 -0.15625 -1.171875q-0.15625 -0.4375 -0.5625 -0.640625q-0.390625 -0.203125 -1.109375 -0.203125q-0.8125 0 -1.46875 0.234375q-0.640625 0.234375 -1.28125 0.5625l-0.390625 -0.828125q0.203125 -0.171875 0.765625 -0.453125q0.5625 -0.296875 1.296875 -0.515625q0.734375 -0.234375 1.46875 -0.234375q1.140625 0 1.796875 0.3125q0.671875 0.3125 0.953125 1.0q0.28125 0.6875 0.28125 1.84375l0 5.140625l0.953125 0l0 0.703125q-0.328125 0.078125 -0.8125 0.15625q-0.484375 0.078125 -0.859375 0.078125q-0.4375 0 -0.609375 -0.140625q-0.15625 -0.125 -0.15625 -0.59375l0 -0.53125q-0.484375 0.484375 -1.1875 0.890625q-0.6875 0.390625 -1.5625 0.390625q-1.15625 0 -1.921875 -0.65625q-0.75 -0.671875 -0.75 -1.921875zm3.359375 1.5q0.421875 0 0.953125 -0.25q0.546875 -0.265625 1.0 -0.625l0 -2.75q-1.75 0 -2.640625 0.546875q-0.875 0.53125 -0.875 1.390625q0 0.859375 0.421875 1.28125q0.421875 0.40625 1.140625 0.40625zm9.069763 1.078125q-0.953125 0 -1.765625 -0.46875q-0.796875 -0.484375 -1.265625 -1.46875q-0.46875 -1.0 -0.46875 -2.453125q0 -1.359375 0.5625 -2.484375q0.5625 -1.125 1.609375 -1.765625q1.046875 -0.65625 2.46875 -0.65625q0.8125 0 1.484375 0.1875l0 -3.0l-1.625 -0.1875l0 -0.6875l2.875 -0.296875l0.046875 0l0.359375 0.265625l0 12.03125l0.921875 0l0 0.734375q-0.515625 0.109375 -0.890625 0.171875q-0.375 0.0625 -0.78125 0.0625q-0.421875 0 -0.609375 -0.140625q-0.171875 -0.140625 -0.171875 -0.609375l0 -0.515625q-0.4375 0.546875 -1.171875 0.921875q-0.71875 0.359375 -1.578125 0.359375zm0.640625 -1.125q0.625 0 1.171875 -0.28125q0.546875 -0.28125 0.8125 -0.65625l0 -5.859375q-0.125 -0.1875 -0.59375 -0.328125q-0.46875 -0.15625 -1.0 -0.15625q-1.25 0 -2.0 0.953125q-0.734375 0.9375 -0.734375 2.921875q0 1.734375 0.65625 2.578125q0.65625 0.828125 1.6875 0.828125zm13.556152 -11.03125l1.765625 0l3.875 11.046875l1.0 0.15625l0 0.78125l-4.21875 0l0 -0.78125l1.328125 -0.15625l-0.765625 -2.375l-4.671875 0l-0.75 2.375l1.375 0.15625l0 0.78125l-3.78125 0l0 -0.78125l0.984375 -0.15625l3.859375 -11.046875zm1.0 2.5625l-0.390625 -1.40625l-0.390625 1.4375l-1.609375 5.140625l4.078125 0l-1.6875 -5.171875zm9.6032715 9.59375q-0.953125 0 -1.765625 -0.46875q-0.796875 -0.484375 -1.265625 -1.46875q-0.46875 -1.0 -0.46875 -2.453125q0 -1.359375 0.5625 -2.484375q0.5625 -1.125 1.609375 -1.765625q1.046875 -0.65625 2.46875 -0.65625q0.8125 0 1.484375 0.1875l0 -3.0l-1.625 -0.1875l0 -0.6875l2.875 -0.296875l0.046875 0l0.359375 0.265625l0 12.03125l0.921875 0l0 0.734375q-0.515625 0.109375 -0.890625 0.171875q-0.375 0.0625 -0.78125 0.0625q-0.421875 0 -0.609375 -0.140625q-0.171875 -0.140625 -0.171875 -0.609375l0 -0.515625q-0.4375 0.546875 -1.171875 0.921875q-0.71875 0.359375 -1.578125 0.359375zm0.640625 -1.125q0.625 0 1.171875 -0.28125q0.546875 -0.28125 0.8125 -0.65625l0 -5.859375q-0.125 -0.1875 -0.59375 -0.328125q-0.46875 -0.15625 -1.0 -0.15625q-1.25 0 -2.0 0.953125q-0.734375 0.9375 -0.734375 2.921875q0 1.734375 0.65625 2.578125q0.65625 0.828125 1.6875 0.828125zm9.29541 1.125q-0.953125 0 -1.765625 -0.46875q-0.796875 -0.484375 -1.265625 -1.46875q-0.46875 -1.0 -0.46875 -2.453125q0 -1.359375 0.5625 -2.484375q0.5625 -1.125 1.609375 -1.765625q1.046875 -0.65625 2.46875 -0.65625q0.8125 0 1.484375 0.1875l0 -3.0l-1.625 -0.1875l0 -0.6875l2.875 -0.296875l0.046875 0l0.359375 0.265625l0 12.03125l0.921875 0l0 0.734375q-0.515625 0.109375 -0.890625 0.171875q-0.375 0.0625 -0.78125 0.0625q-0.421875 0 -0.609375 -0.140625q-0.171875 -0.140625 -0.171875 -0.609375l0 -0.515625q-0.4375 0.546875 -1.171875 0.921875q-0.71875 0.359375 -1.578125 0.359375zm0.640625 -1.125q0.625 0 1.171875 -0.28125q0.546875 -0.28125 0.8125 -0.65625l0 -5.859375q-0.125 -0.1875 -0.59375 -0.328125q-0.46875 -0.15625 -1.0 -0.15625q-1.25 0 -2.0 0.953125q-0.734375 0.9375 -0.734375 2.921875q0 1.734375 0.65625 2.578125q0.65625 0.828125 1.6875 0.828125zm5.873535 0.171875l1.203125 -0.09375l0 -6.765625l-1.15625 -0.296875l0 -0.859375l2.21875 -0.296875l0.03125 0l0.34375 0.296875l0 0.28125l-0.046875 1.25l0.046875 0q0.15625 -0.265625 0.578125 -0.703125q0.421875 -0.4375 1.078125 -0.796875q0.65625 -0.359375 1.421875 -0.359375q0.3125 0 0.515625 0.078125l0 1.796875q-0.109375 -0.078125 -0.359375 -0.140625q-0.234375 -0.078125 -0.546875 -0.078125q-1.328125 0 -2.46875 0.8125l0 5.765625l2.03125 0.125l0 0.765625l-4.890625 0l0 -0.78125z" fill-rule="nonzero"/></g></svg>