<svg version="1.1" viewBox="0.0 0.0 494.29133858267716 206.86614173228347" fill="none" stroke="none" stroke-linecap="square" stroke-miterlimit="10" xmlns:xlink="http://www.w3.org/1999/xlink" xmlns="http://www.w3.org/2000/svg"><clipPath id="p.0"><path d="m0 0l494.29135 0l0 206.86613l-494.29135 0l0 -206.86613z" clip-rule="nonzero"/></clipPath><g clip-path="url(#p.0)"><path fill="#000000" fill-opacity="0.0" d="m0 0l494.29135 0l0 206.86613l-494.29135 0z" fill-rule="evenodd"/><path fill="#000000" fill-opacity="0.0" d="m7.7559056 124.91216l78.92913 0" fill-rule="evenodd"/><path stroke="#000000" stroke-width="3.0" stroke-linejoin="round" stroke-linecap="butt" d="m7.7559056 124.91216l78.92913 0" fill-rule="evenodd"/><path fill="#ffffff" d="m73.27034 64.314964l116.50394 0l0 121.196846l-116.50394 0z" fill-rule="evenodd"/><path stroke="#000000" stroke-width="4.0" stroke-linejoin="round" stroke-linecap="butt" d="m73.27034 64.314964l116.50394 0l0 121.196846l-116.50394 0z" fill-rule="evenodd"/><path fill="#000000" d="m95.50685 121.86964q-0.875 0 -1.734375 -0.3125q-0.859375 -0.328125 -1.5625 -0.9375l1.125 -1.34375q0.5 0.390625 1.09375 0.65625q0.59375 0.25 1.21875 0.25q0.625 0 0.921875 -0.203125q0.296875 -0.21875 0.296875 -0.5625q0 -0.296875 -0.15625 -0.46875q-0.15625 -0.1875 -0.46875 -0.328125q-0.3125 -0.140625 -0.71875 -0.3125l-1.125 -0.484375q-0.46875 -0.1875 -0.90625 -0.5q-0.421875 -0.3125 -0.6875 -0.765625q-0.25 -0.46875 -0.25 -1.109375q0 -0.71875 0.40625 -1.296875q0.40625 -0.578125 1.109375 -0.921875q0.71875 -0.359375 1.671875 -0.359375q0.78125 0 1.53125 0.296875q0.765625 0.28125 1.359375 0.84375l-1.0 1.234375q-0.453125 -0.328125 -0.90625 -0.5q-0.453125 -0.1875 -1.09375 -0.1875q-0.484375 0 -0.796875 0.203125q-0.296875 0.203125 -0.296875 0.578125q0 0.25 0.1875 0.4375q0.1875 0.171875 0.5 0.3125q0.328125 0.125 0.734375 0.28125l1.0625 0.453125q0.578125 0.21875 0.984375 0.53125q0.421875 0.3125 0.640625 0.765625q0.234375 0.453125 0.234375 1.0625q0 0.71875 -0.390625 1.328125q-0.390625 0.609375 -1.15625 0.984375q-0.75 0.375 -1.828125 0.375zm8.418716 0q-1.015625 0 -1.859375 -0.40625q-0.828125 -0.40625 -1.3125 -1.1875q-0.484375 -0.78125 -0.484375 -1.875q0 -1.078125 0.484375 -1.84375q0.5 -0.78125 1.28125 -1.1875q0.796875 -0.421875 1.671875 -0.421875q1.03125 0 1.71875 0.421875q0.6875 0.40625 1.046875 1.125q0.359375 0.71875 0.359375 1.625q0 0.265625 -0.046875 0.515625q-0.03125 0.234375 -0.046875 0.359375l-5.015625 0l0 -1.3125l3.6875 0l-0.296875 0.359375q0 -0.796875 -0.34375 -1.203125q-0.34375 -0.40625 -1.0 -0.40625q-0.46875 0 -0.84375 0.21875q-0.359375 0.21875 -0.5625 0.65625q-0.1875 0.4375 -0.1875 1.09375q0 0.6875 0.234375 1.125q0.25 0.421875 0.703125 0.640625q0.453125 0.21875 1.09375 0.21875q0.453125 0 0.859375 -0.125q0.40625 -0.125 0.84375 -0.34375l0.65625 1.1875q-0.578125 0.359375 -1.28125 0.5625q-0.6875 0.203125 -1.359375 0.203125zm5.1530914 -0.15625l0 -6.609375l1.59375 0l0.171875 1.4375l0.03125 0q0.5 -0.8125 1.1875 -1.203125q0.703125 -0.390625 1.5 -0.390625q0.4375 0 0.703125 0.0625q0.28125 0.0625 0.5625 0.203125l-0.390625 1.640625q-0.3125 -0.09375 -0.5625 -0.140625q-0.234375 -0.046875 -0.609375 -0.046875q-0.609375 0 -1.203125 0.359375q-0.59375 0.359375 -1.03125 1.25l0 3.4375l-1.953125 0zm10.153091 0l0 -5.078125l-2.65625 0l0 -1.53125l4.625 0l0 6.609375l-1.96875 0zm0.890625 -7.65625q-0.5625 0 -0.9375 -0.3125q-0.375 -0.328125 -0.375 -0.875q0 -0.546875 0.375 -0.875q0.375 -0.34375 0.9375 -0.34375q0.578125 0 0.9375 0.34375q0.359375 0.328125 0.359375 0.875q0 0.546875 -0.359375 0.875q-0.359375 0.3125 -0.9375 0.3125zm6.3874664 7.8125q-0.671875 0 -1.15625 -0.265625q-0.484375 -0.265625 -0.75 -0.71875q-0.265625 -0.453125 -0.265625 -1.015625q0 -1.109375 1.0 -1.6875q1.015625 -0.59375 3.359375 -0.71875q-0.046875 -0.3125 -0.203125 -0.515625q-0.15625 -0.21875 -0.453125 -0.328125q-0.296875 -0.125 -0.75 -0.125q-0.328125 0 -0.65625 0.078125q-0.3125 0.078125 -0.65625 0.21875q-0.328125 0.140625 -0.703125 0.328125l-0.703125 -1.28125q0.453125 -0.265625 0.953125 -0.46875q0.5 -0.203125 1.03125 -0.3125q0.546875 -0.109375 1.109375 -0.109375q0.9375 0 1.59375 0.328125q0.671875 0.3125 1.03125 0.984375q0.359375 0.65625 0.359375 1.671875l0 3.78125l-1.59375 0l-0.140625 -0.75l-0.0625 0q-0.484375 0.375 -1.09375 0.640625q-0.59375 0.265625 -1.25 0.265625zm0.625 -1.515625q0.4375 0 0.828125 -0.171875q0.390625 -0.1875 0.734375 -0.453125l0 -1.09375q-0.96875 0.046875 -1.515625 0.203125q-0.53125 0.140625 -0.75 0.375q-0.21875 0.21875 -0.21875 0.515625q0 0.203125 0.109375 0.34375q0.125 0.140625 0.328125 0.21875q0.203125 0.0625 0.484375 0.0625zm9.653091 1.515625q-1.234375 0 -1.875 -0.734375q-0.640625 -0.75 -0.640625 -2.0l0 -5.21875l-2.0625 0l0 -1.53125l4.015625 0l0 6.828125q0 0.609375 0.328125 0.84375q0.34375 0.234375 0.734375 0.234375q0.25 0 0.484375 -0.046875q0.25 -0.0625 0.5625 -0.171875l0.421875 1.4375q-0.5 0.15625 -0.921875 0.25q-0.421875 0.109375 -1.046875 0.109375zm3.6687164 -3.859375l0 -1.390625l6.125 0l0 1.390625l-6.125 0zm12.231216 3.859375q-1.046875 0 -1.671875 -0.359375q-0.625 -0.375 -0.90625 -1.015625q-0.28125 -0.65625 -0.28125 -1.53125l0 -2.328125l-1.640625 0l0 -1.453125l1.734375 -0.078125l0.265625 -2.03125l1.609375 0l0 2.03125l2.796875 0l0 1.53125l-2.796875 0l0 2.3125q0 0.5 0.140625 0.8125q0.15625 0.296875 0.453125 0.4375q0.3125 0.140625 0.796875 0.140625q0.375 0 0.6875 -0.0625q0.328125 -0.0625 0.625 -0.171875l0.34375 1.40625q-0.4375 0.140625 -0.96875 0.25q-0.515625 0.109375 -1.1875 0.109375zm6.8249664 0q-0.875 0 -1.640625 -0.40625q-0.765625 -0.40625 -1.25 -1.1875q-0.484375 -0.78125 -0.484375 -1.875q0 -1.078125 0.484375 -1.859375q0.484375 -0.78125 1.25 -1.1875q0.765625 -0.40625 1.640625 -0.40625q0.859375 0 1.625 0.40625q0.78125 0.40625 1.265625 1.1875q0.484375 0.78125 0.484375 1.859375q0 1.09375 -0.484375 1.875q-0.484375 0.78125 -1.265625 1.1875q-0.765625 0.40625 -1.625 0.40625zm0 -1.578125q0.453125 0 0.75 -0.21875q0.296875 -0.234375 0.453125 -0.65625q0.15625 -0.4375 0.15625 -1.015625q0 -0.5625 -0.15625 -0.984375q-0.15625 -0.4375 -0.453125 -0.65625q-0.296875 -0.234375 -0.75 -0.234375q-0.453125 0 -0.75 0.234375q-0.296875 0.21875 -0.453125 0.65625q-0.15625 0.421875 -0.15625 0.984375q0 0.578125 0.15625 1.015625q0.15625 0.421875 0.453125 0.65625q0.296875 0.21875 0.75 0.21875zm4.9343414 -2.28125l0 -1.390625l6.125 0l0 1.390625l-6.125 0z" fill-rule="nonzero"/><path fill="#000000" d="m100.53494 137.71338l0 -8.6875l3.078125 0q0.953125 0 1.71875 0.265625q0.765625 0.25 1.21875 0.875q0.46875 0.609375 0.46875 1.65625q0 1.015625 -0.46875 1.671875q-0.46875 0.640625 -1.25 0.953125q-0.765625 0.3125 -1.6875 0.3125l-1.125 0l0 2.953125l-1.953125 0zm1.953125 -4.5l1.0 0q0.8125 0 1.203125 -0.359375q0.40625 -0.359375 0.40625 -1.03125q0 -0.6875 -0.40625 -0.953125q-0.40625 -0.28125 -1.203125 -0.28125l-1.0 0l0 2.625zm8.028091 4.65625q-0.671875 0 -1.15625 -0.265625q-0.484375 -0.265625 -0.75 -0.71875q-0.265625 -0.453125 -0.265625 -1.015625q0 -1.109375 1.0 -1.6875q1.015625 -0.59375 3.359375 -0.71875q-0.046875 -0.3125 -0.203125 -0.515625q-0.15625 -0.21875 -0.453125 -0.328125q-0.296875 -0.125 -0.75 -0.125q-0.328125 0 -0.65625 0.078125q-0.3125 0.078125 -0.65625 0.21875q-0.328125 0.140625 -0.703125 0.328125l-0.703125 -1.28125q0.453125 -0.265625 0.953125 -0.46875q0.5 -0.203125 1.03125 -0.3125q0.546875 -0.109375 1.109375 -0.109375q0.9375 0 1.59375 0.328125q0.671875 0.3125 1.03125 0.984375q0.359375 0.65625 0.359375 1.671875l0 3.78125l-1.59375 0l-0.140625 -0.75l-0.0625 0q-0.484375 0.375 -1.09375 0.640625q-0.59375 0.265625 -1.25 0.265625zm0.625 -1.515625q0.4375 0 0.828125 -0.171875q0.390625 -0.1875 0.734375 -0.453125l0 -1.09375q-0.96875 0.046875 -1.515625 0.203125q-0.53125 0.140625 -0.75 0.375q-0.21875 0.21875 -0.21875 0.515625q0 0.203125 0.109375 0.34375q0.125 0.140625 0.328125 0.21875q0.203125 0.0625 0.484375 0.0625zm5.9343414 1.359375l0 -6.609375l1.59375 0l0.171875 1.4375l0.03125 0q0.5 -0.8125 1.1875 -1.203125q0.703125 -0.390625 1.5 -0.390625q0.4375 0 0.703125 0.0625q0.28125 0.0625 0.5625 0.203125l-0.390625 1.640625q-0.3125 -0.09375 -0.5625 -0.140625q-0.234375 -0.046875 -0.609375 -0.046875q-0.609375 0 -1.203125 0.359375q-0.59375 0.359375 -1.03125 1.25l0 3.4375l-1.953125 0zm9.434341 0.15625q-0.671875 0 -1.15625 -0.265625q-0.484375 -0.265625 -0.75 -0.71875q-0.265625 -0.453125 -0.265625 -1.015625q0 -1.109375 1.0 -1.6875q1.015625 -0.59375 3.359375 -0.71875q-0.046875 -0.3125 -0.203125 -0.515625q-0.15625 -0.21875 -0.453125 -0.328125q-0.296875 -0.125 -0.75 -0.125q-0.328125 0 -0.65625 0.078125q-0.3125 0.078125 -0.65625 0.21875q-0.328125 0.140625 -0.703125 0.328125l-0.703125 -1.28125q0.453125 -0.265625 0.953125 -0.46875q0.5 -0.203125 1.03125 -0.3125q0.546875 -0.109375 1.109375 -0.109375q0.9375 0 1.59375 0.328125q0.671875 0.3125 1.03125 0.984375q0.359375 0.65625 0.359375 1.671875l0 3.78125l-1.59375 0l-0.140625 -0.75l-0.0625 0q-0.484375 0.375 -1.09375 0.640625q-0.59375 0.265625 -1.25 0.265625zm0.625 -1.515625q0.4375 0 0.828125 -0.171875q0.390625 -0.1875 0.734375 -0.453125l0 -1.09375q-0.96875 0.046875 -1.515625 0.203125q-0.53125 0.140625 -0.75 0.375q-0.21875 0.21875 -0.21875 0.515625q0 0.203125 0.109375 0.34375q0.125 0.140625 0.328125 0.21875q0.203125 0.0625 0.484375 0.0625zm9.653091 1.515625q-1.234375 0 -1.875 -0.734375q-0.640625 -0.75 -0.640625 -2.0l0 -5.21875l-2.0625 0l0 -1.53125l4.015625 0l0 6.828125q0 0.609375 0.328125 0.84375q0.34375 0.234375 0.734375 0.234375q0.25 0 0.484375 -0.046875q0.25 -0.0625 0.5625 -0.171875l0.421875 1.4375q-0.5 0.15625 -0.921875 0.25q-0.421875 0.109375 -1.046875 0.109375zm7.9968414 0q-1.234375 0 -1.875 -0.734375q-0.640625 -0.75 -0.640625 -2.0l0 -5.21875l-2.0625 0l0 -1.53125l4.015625 0l0 6.828125q0 0.609375 0.328125 0.84375q0.34375 0.234375 0.734375 0.234375q0.25 0 0.484375 -0.046875q0.25 -0.0625 0.5625 -0.171875l0.421875 1.4375q-0.5 0.15625 -0.921875 0.25q-0.421875 0.109375 -1.046875 0.109375zm7.1218414 0q-1.015625 0 -1.859375 -0.40625q-0.828125 -0.40625 -1.3125 -1.1875q-0.484375 -0.78125 -0.484375 -1.875q0 -1.078125 0.484375 -1.84375q0.5 -0.78125 1.28125 -1.1875q0.796875 -0.421875 1.671875 -0.421875q1.03125 0 1.71875 0.421875q0.6875 0.40625 1.046875 1.125q0.359375 0.71875 0.359375 1.625q0 0.265625 -0.046875 0.515625q-0.03125 0.234375 -0.046875 0.359375l-5.015625 0l0 -1.3125l3.6875 0l-0.296875 0.359375q0 -0.796875 -0.34375 -1.203125q-0.34375 -0.40625 -1.0 -0.40625q-0.46875 0 -0.84375 0.21875q-0.359375 0.21875 -0.5625 0.65625q-0.1875 0.4375 -0.1875 1.09375q0 0.6875 0.234375 1.125q0.25 0.421875 0.703125 0.640625q0.453125 0.21875 1.09375 0.21875q0.453125 0 0.859375 -0.125q0.40625 -0.125 0.84375 -0.34375l0.65625 1.1875q-0.578125 0.359375 -1.28125 0.5625q-0.6875 0.203125 -1.359375 0.203125zm8.871841 0q-1.234375 0 -1.875 -0.734375q-0.640625 -0.75 -0.640625 -2.0l0 -5.21875l-2.0625 0l0 -1.53125l4.015625 0l0 6.828125q0 0.609375 0.328125 0.84375q0.34375 0.234375 0.734375 0.234375q0.25 0 0.484375 -0.046875q0.25 -0.0625 0.5625 -0.171875l0.421875 1.4375q-0.5 0.15625 -0.921875 0.25q-0.421875 0.109375 -1.046875 0.109375z" fill-rule="nonzero"/><path fill="#000000" fill-opacity="0.0" d="m7.7559056 94.360985l78.92913 0l0 30.551178l-78.92913 0z" fill-rule="evenodd"/><path fill="#000000" d="m19.92778 113.50157q-0.703125 0 -1.390625 -0.25q-0.6875 -0.265625 -1.25 -0.75l0.90625 -1.078125q0.390625 0.328125 0.859375 0.53125q0.484375 0.203125 0.984375 0.203125q0.5 0 0.734375 -0.171875q0.25 -0.171875 0.25 -0.4375q0 -0.25 -0.140625 -0.390625q-0.125 -0.140625 -0.375 -0.25q-0.234375 -0.125 -0.5625 -0.265625l-0.890625 -0.375q-0.390625 -0.15625 -0.734375 -0.40625q-0.34375 -0.25 -0.546875 -0.609375q-0.203125 -0.375 -0.203125 -0.890625q0 -0.5625 0.3125 -1.03125q0.328125 -0.46875 0.890625 -0.75q0.578125 -0.28125 1.34375 -0.28125q0.625 0 1.234375 0.234375q0.609375 0.234375 1.078125 0.6875l-0.796875 0.984375q-0.375 -0.265625 -0.734375 -0.40625q-0.359375 -0.140625 -0.875 -0.140625q-0.375 0 -0.625 0.15625q-0.25 0.15625 -0.25 0.46875q0 0.203125 0.15625 0.34375q0.15625 0.140625 0.40625 0.25q0.25 0.09375 0.578125 0.234375l0.84375 0.359375q0.46875 0.171875 0.796875 0.421875q0.34375 0.25 0.515625 0.609375q0.1875 0.359375 0.1875 0.84375q0 0.578125 -0.3125 1.078125q-0.3125 0.484375 -0.921875 0.78125q-0.609375 0.296875 -1.46875 0.296875zm4.018814 -0.125l0 -6.953125l2.46875 0q0.75 0 1.359375 0.21875q0.625 0.203125 0.984375 0.703125q0.375 0.484375 0.375 1.328125q0 0.796875 -0.375 1.328125q-0.375 0.515625 -1.0 0.765625q-0.609375 0.25 -1.34375 0.25l-0.90625 0l0 2.359375l-1.5625 0zm1.5625 -3.609375l0.8125 0q0.640625 0 0.953125 -0.28125q0.3125 -0.28125 0.3125 -0.8125q0 -0.5625 -0.328125 -0.78125q-0.3125 -0.21875 -0.9375 -0.21875l-0.8125 0l0 2.09375zm4.815689 3.609375l0 -1.328125l1.625 0l0 -4.296875l-1.625 0l0 -1.328125l4.828125 0l0 1.328125l-1.625 0l0 4.296875l1.625 0l0 1.328125l-4.828125 0zm12.787628 0l0 -1.328125l1.625 0l0 -4.296875l-1.625 0l0 -1.328125l4.828125 0l0 1.328125l-1.625 0l0 4.296875l1.625 0l0 1.328125l-4.828125 0zm6.378189 0l0 -5.28125l1.28125 0l0.109375 0.703125l0.046875 0q0.34375 -0.34375 0.78125 -0.578125q0.453125 -0.25 1.046875 -0.25q0.890625 0 1.296875 0.578125q0.421875 0.5625 0.421875 1.5625l0 3.265625l-1.5625 0l0 -3.0625q0 -0.53125 -0.171875 -0.765625q-0.171875 -0.25 -0.609375 -0.25q-0.3125 0 -0.5625 0.140625q-0.234375 0.140625 -0.515625 0.40625l0 3.53125l-1.5625 0zm9.768814 0.125q-0.84375 0 -1.34375 -0.28125q-0.5 -0.296875 -0.71875 -0.8125q-0.21875 -0.53125 -0.21875 -1.21875l0 -1.875l-1.328125 0l0 -1.15625l1.390625 -0.0625l0.203125 -1.625l1.296875 0l0 1.625l2.234375 0l0 1.21875l-2.234375 0l0 1.859375q0 0.390625 0.109375 0.640625q0.125 0.234375 0.359375 0.359375q0.25 0.109375 0.640625 0.109375q0.3125 0 0.5625 -0.046875q0.25 -0.0625 0.484375 -0.15625l0.28125 1.140625q-0.34375 0.109375 -0.765625 0.1875q-0.421875 0.09375 -0.953125 0.09375zm4.518814 -0.125l0 -5.421875q0 -0.609375 0.25 -1.09375q0.25 -0.5 0.765625 -0.78125q0.515625 -0.296875 1.359375 -0.296875q0.453125 0 0.859375 0.09375q0.40625 0.078125 0.734375 0.1875l-0.296875 1.15625q-0.25 -0.09375 -0.53125 -0.140625q-0.265625 -0.0625 -0.578125 -0.0625q-0.5 0 -0.75 0.21875q-0.234375 0.21875 -0.234375 0.703125l0 5.4375l-1.578125 0zm-1.390625 -4.0625l0 -1.15625l1.453125 -0.0625l3.328125 0l0 1.21875l-4.78125 0z" fill-rule="nonzero"/><path fill="#000000" fill-opacity="0.0" d="m189.77428 124.91338l91.71654 0" fill-rule="evenodd"/><path stroke="#000000" stroke-width="3.0" stroke-linejoin="round" stroke-linecap="butt" d="m189.77428 124.91338l81.43529 0" fill-rule="evenodd"/><path fill="#000000" stroke="#000000" stroke-width="3.0" stroke-linecap="butt" d="m271.20956 124.91338l-3.3737488 3.3737564l9.269287 -3.3737564l-9.269287 -3.3737488z" fill-rule="evenodd"/><path fill="#000000" fill-opacity="0.0" d="m189.77428 94.362206l91.71654 0l0 30.551178l-91.71654 0z" fill-rule="evenodd"/><path fill="#000000" d="m201.50865 113.50279q-1.015625 0 -1.625 -0.734375q-0.609375 -0.75 -0.609375 -2.03125q0 -0.859375 0.328125 -1.46875q0.328125 -0.625 0.84375 -0.953125q0.515625 -0.34375 1.09375 -0.34375q0.4375 0 0.75 0.15625q0.328125 0.140625 0.578125 0.40625l0.046875 0l-0.078125 -0.828125l0 -1.796875l1.5625 0l0 7.46875l-1.28125 0l-0.109375 -0.546875l-0.03125 0q-0.296875 0.296875 -0.6875 0.484375q-0.375 0.1875 -0.78125 0.1875zm0.40625 -1.28125q0.265625 0 0.484375 -0.109375q0.234375 -0.109375 0.4375 -0.375l0 -2.140625q-0.21875 -0.1875 -0.4375 -0.265625q-0.21875 -0.09375 -0.453125 -0.09375q-0.28125 0 -0.53125 0.171875q-0.25 0.15625 -0.390625 0.484375q-0.140625 0.3125 -0.140625 0.8125q0 0.78125 0.265625 1.15625q0.265625 0.359375 0.765625 0.359375zm6.456314 1.28125q-0.703125 0 -1.328125 -0.3125q-0.609375 -0.328125 -1.0 -0.953125q-0.375 -0.625 -0.375 -1.5q0 -0.875 0.375 -1.5q0.390625 -0.625 1.0 -0.9375q0.625 -0.328125 1.328125 -0.328125q0.6875 0 1.296875 0.328125q0.625 0.3125 1.0 0.9375q0.390625 0.625 0.390625 1.5q0 0.875 -0.390625 1.5q-0.375 0.625 -1.0 0.953125q-0.609375 0.3125 -1.296875 0.3125zm0 -1.265625q0.359375 0 0.59375 -0.171875q0.234375 -0.1875 0.359375 -0.53125q0.125 -0.34375 0.125 -0.796875q0 -0.453125 -0.125 -0.796875q-0.125 -0.34375 -0.359375 -0.515625q-0.234375 -0.1875 -0.59375 -0.1875q-0.375 0 -0.609375 0.1875q-0.234375 0.171875 -0.359375 0.515625q-0.125 0.34375 -0.125 0.796875q0 0.453125 0.125 0.796875q0.125 0.34375 0.359375 0.53125q0.234375 0.171875 0.609375 0.171875zm5.565689 1.265625q-0.90625 0 -1.3125 -0.5625q-0.40625 -0.578125 -0.40625 -1.59375l0 -3.25l1.578125 0l0 3.046875q0 0.546875 0.15625 0.796875q0.171875 0.234375 0.609375 0.234375q0.296875 0 0.53125 -0.125q0.234375 -0.125 0.5 -0.484375l0 -3.46875l1.5625 0l0 5.28125l-1.28125 0l-0.109375 -0.75l-0.046875 0q-0.359375 0.390625 -0.78125 0.640625q-0.421875 0.234375 -1.0 0.234375zm8.159439 0q-0.84375 0 -1.34375 -0.28125q-0.5 -0.296875 -0.71875 -0.8125q-0.21875 -0.53125 -0.21875 -1.21875l0 -1.875l-1.328125 0l0 -1.15625l1.390625 -0.0625l0.203125 -1.625l1.296875 0l0 1.625l2.234375 0l0 1.21875l-2.234375 0l0 1.859375q0 0.390625 0.109375 0.640625q0.125 0.234375 0.359375 0.359375q0.25 0.109375 0.640625 0.109375q0.3125 0 0.5625 -0.046875q0.25 -0.0625 0.484375 -0.15625l0.28125 1.140625q-0.34375 0.109375 -0.765625 0.1875q-0.421875 0.09375 -0.953125 0.09375zm4.378189 1.5l0 -9.171875l3.15625 0l0 0.828125l-1.953125 0l0 7.5l1.953125 0l0 0.84375l-3.15625 0zm6.331314 -1.625q0.03125 -0.84375 0.15625 -1.546875q0.125 -0.71875 0.34375 -1.34375q0.234375 -0.640625 0.59375 -1.265625q0.375 -0.625 0.90625 -1.296875l-3.40625 0l0 -1.3125l5.09375 0l0 0.953125q-0.640625 0.71875 -1.046875 1.34375q-0.390625 0.625 -0.609375 1.28125q-0.21875 0.65625 -0.328125 1.4375q-0.09375 0.765625 -0.125 1.75l-1.578125 0zm7.534439 -3.3125q-0.546875 0 -0.90625 -0.359375q-0.34375 -0.359375 -0.34375 -0.890625q0 -0.515625 0.34375 -0.875q0.359375 -0.375 0.90625 -0.375q0.546875 0 0.890625 0.375q0.34375 0.359375 0.34375 0.875q0 0.53125 -0.34375 0.890625q-0.34375 0.359375 -0.890625 0.359375zm0 3.4375q-0.546875 0 -0.90625 -0.359375q-0.34375 -0.359375 -0.34375 -0.890625q0 -0.515625 0.34375 -0.875q0.359375 -0.375 0.90625 -0.375q0.546875 0 0.890625 0.375q0.34375 0.359375 0.34375 0.875q0 0.53125 -0.34375 0.890625q-0.34375 0.359375 -0.890625 0.359375zm6.393814 0q-0.78125 0 -1.375 -0.40625q-0.578125 -0.40625 -0.90625 -1.1875q-0.328125 -0.796875 -0.328125 -1.9375q0 -1.734375 0.71875 -2.609375q0.71875 -0.875 1.890625 -0.875q1.171875 0 1.875 0.875q0.71875 0.875 0.71875 2.609375q0 1.140625 -0.328125 1.9375q-0.328125 0.78125 -0.90625 1.1875q-0.578125 0.40625 -1.359375 0.40625zm0 -1.21875q0.328125 0 0.59375 -0.203125q0.28125 -0.21875 0.4375 -0.71875q0.171875 -0.515625 0.171875 -1.390625q0 -0.890625 -0.171875 -1.375q-0.15625 -0.5 -0.4375 -0.703125q-0.265625 -0.203125 -0.59375 -0.203125q-0.34375 0 -0.625 0.203125q-0.265625 0.203125 -0.421875 0.703125q-0.15625 0.484375 -0.15625 1.375q0 0.875 0.15625 1.390625q0.15625 0.5 0.421875 0.71875q0.28125 0.203125 0.625 0.203125zm0 -1.53125q-0.34375 0 -0.578125 -0.21875q-0.234375 -0.21875 -0.234375 -0.59375q0 -0.359375 0.234375 -0.578125q0.234375 -0.21875 0.578125 -0.21875q0.328125 0 0.5625 0.21875q0.234375 0.21875 0.234375 0.578125q0 0.375 -0.234375 0.59375q-0.234375 0.21875 -0.5625 0.21875zm4.300064 4.25l0 -0.84375l1.953125 0l0 -7.5l-1.953125 0l0 -0.828125l3.15625 0l0 9.171875l-3.15625 0z" fill-rule="nonzero"/><path fill="#000000" fill-opacity="0.0" d="m189.77428 160.15224l91.71654 0" fill-rule="evenodd"/><path stroke="#000000" stroke-width="3.0" stroke-linejoin="round" stroke-linecap="butt" d="m189.77428 160.15224l81.43529 0" fill-rule="evenodd"/><path fill="#000000" stroke="#000000" stroke-width="3.0" stroke-linecap="butt" d="m271.20956 160.15224l-3.3737488 3.3737488l9.269287 -3.3737488l-9.269287 -3.373764z" fill-rule="evenodd"/><path fill="#000000" fill-opacity="0.0" d="m189.77428 129.60104l96.220474 0l0 30.551193l-96.220474 0z" fill-rule="evenodd"/><path fill="#000000" d="m202.38365 148.74164q-0.375 0 -0.75 -0.171875q-0.375 -0.1875 -0.703125 -0.53125l-0.03125 0l-0.125 0.578125l-1.234375 0l0 -7.46875l1.5625 0l0 1.828125l-0.046875 0.828125l0.03125 0q0.3125 -0.28125 0.6875 -0.4375q0.375 -0.15625 0.765625 -0.15625q0.671875 0 1.140625 0.328125q0.46875 0.328125 0.71875 0.9375q0.265625 0.59375 0.265625 1.40625q0 0.90625 -0.328125 1.546875q-0.3125 0.640625 -0.84375 0.984375q-0.515625 0.328125 -1.109375 0.328125zm-0.359375 -1.28125q0.28125 0 0.515625 -0.15625q0.234375 -0.15625 0.375 -0.5q0.140625 -0.34375 0.140625 -0.890625q0 -0.484375 -0.109375 -0.796875q-0.09375 -0.3125 -0.3125 -0.46875q-0.203125 -0.171875 -0.546875 -0.171875q-0.25 0 -0.5 0.125q-0.234375 0.109375 -0.484375 0.375l0 2.140625q0.234375 0.171875 0.46875 0.265625q0.234375 0.078125 0.453125 0.078125zm6.112564 1.15625l0 -4.0625l-2.140625 0l0 -1.21875l3.703125 0l0 5.28125l-1.5625 0zm0.71875 -6.109375q-0.453125 0 -0.75 -0.265625q-0.296875 -0.265625 -0.296875 -0.6875q0 -0.4375 0.296875 -0.703125q0.296875 -0.28125 0.75 -0.28125q0.453125 0 0.734375 0.28125q0.296875 0.265625 0.296875 0.703125q0 0.421875 -0.296875 0.6875q-0.28125 0.265625 -0.734375 0.265625zm6.846939 6.234375q-0.84375 0 -1.34375 -0.28125q-0.5 -0.296875 -0.71875 -0.8125q-0.21875 -0.53125 -0.21875 -1.21875l0 -1.875l-1.328125 0l0 -1.15625l1.390625 -0.0625l0.203125 -1.625l1.296875 0l0 1.625l2.234375 0l0 1.21875l-2.234375 0l0 1.859375q0 0.390625 0.109375 0.640625q0.125 0.234375 0.359375 0.359375q0.25 0.109375 0.640625 0.109375q0.3125 0 0.5625 -0.046875q0.25 -0.0625 0.484375 -0.15625l0.28125 1.140625q-0.34375 0.109375 -0.765625 0.1875q-0.421875 0.09375 -0.953125 0.09375zm5.909439 0q-0.828125 0 -1.5 -0.3125q-0.671875 -0.328125 -1.0625 -0.953125q-0.375 -0.625 -0.375 -1.5q0 -0.875 0.421875 -1.5q0.421875 -0.625 1.125 -0.9375q0.703125 -0.328125 1.5 -0.328125q0.640625 0 1.140625 0.203125q0.515625 0.1875 0.84375 0.5l-0.71875 0.96875q-0.3125 -0.203125 -0.59375 -0.296875q-0.28125 -0.109375 -0.578125 -0.109375q-0.453125 0 -0.8125 0.1875q-0.34375 0.171875 -0.53125 0.515625q-0.1875 0.34375 -0.1875 0.796875q0 0.453125 0.1875 0.796875q0.1875 0.34375 0.515625 0.53125q0.34375 0.171875 0.765625 0.171875q0.421875 0 0.765625 -0.140625q0.34375 -0.15625 0.640625 -0.359375l0.625 0.984375q-0.46875 0.40625 -1.046875 0.59375q-0.578125 0.1875 -1.125 0.1875zm3.503189 -0.125l0 -5.28125l1.28125 0l0.109375 0.703125l0.046875 0q0.34375 -0.34375 0.78125 -0.578125q0.453125 -0.25 1.046875 -0.25q0.890625 0 1.296875 0.578125q0.421875 0.5625 0.421875 1.5625l0 3.265625l-1.5625 0l0 -3.0625q0 -0.53125 -0.171875 -0.765625q-0.171875 -0.25 -0.609375 -0.25q-0.3125 0 -0.5625 0.140625q-0.234375 0.140625 -0.515625 0.40625l0 3.53125l-1.5625 0zm9.768814 0.125q-0.84375 0 -1.34375 -0.28125q-0.5 -0.296875 -0.71875 -0.8125q-0.21875 -0.53125 -0.21875 -1.21875l0 -1.875l-1.328125 0l0 -1.15625l1.390625 -0.0625l0.203125 -1.625l1.296875 0l0 1.625l2.234375 0l0 1.21875l-2.234375 0l0 1.859375q0 0.390625 0.109375 0.640625q0.125 0.234375 0.359375 0.359375q0.25 0.109375 0.640625 0.109375q0.3125 0 0.5625 -0.046875q0.25 -0.0625 0.484375 -0.15625l0.28125 1.140625q-0.34375 0.109375 -0.765625 0.1875q-0.421875 0.09375 -0.953125 0.09375zm4.378189 1.5l0 -9.171875l3.15625 0l0 0.828125l-1.953125 0l0 7.5l1.953125 0l0 0.84375l-3.15625 0zm5.112564 -1.625l0 -1.265625l1.828125 0l0 -3.90625l-1.515625 0l0 -0.984375q0.46875 -0.0625 0.796875 -0.140625q0.34375 -0.09375 0.609375 -0.203125q0.265625 -0.109375 0.515625 -0.265625l1.15625 0l0 5.5l1.53125 0l0 1.265625l-4.921875 0zm6.393814 0l0 -1.265625l1.828125 0l0 -3.90625l-1.515625 0l0 -0.984375q0.46875 -0.0625 0.796875 -0.140625q0.34375 -0.09375 0.609375 -0.203125q0.265625 -0.109375 0.515625 -0.265625l1.15625 0l0 5.5l1.53125 0l0 1.265625l-4.921875 0zm8.753189 -3.3125q-0.546875 0 -0.90625 -0.359375q-0.34375 -0.359375 -0.34375 -0.890625q0 -0.515625 0.34375 -0.875q0.359375 -0.375 0.90625 -0.375q0.546875 0 0.890625 0.375q0.34375 0.359375 0.34375 0.875q0 0.53125 -0.34375 0.890625q-0.34375 0.359375 -0.890625 0.359375zm0 3.4375q-0.546875 0 -0.90625 -0.359375q-0.34375 -0.359375 -0.34375 -0.890625q0 -0.515625 0.34375 -0.875q0.359375 -0.375 0.90625 -0.375q0.546875 0 0.890625 0.375q0.34375 0.359375 0.34375 0.875q0 0.53125 -0.34375 0.890625q-0.34375 0.359375 -0.890625 0.359375zm6.3938293 0q-0.78125 0 -1.375 -0.40625q-0.578125 -0.40625 -0.90625 -1.1875q-0.328125 -0.796875 -0.328125 -1.9375q0 -1.734375 0.71875 -2.609375q0.71875 -0.875 1.890625 -0.875q1.171875 0 1.875 0.875q0.71875 0.875 0.71875 2.609375q0 1.140625 -0.328125 1.9375q-0.328125 0.78125 -0.90625 1.1875q-0.578125 0.40625 -1.359375 0.40625zm0 -1.21875q0.328125 0 0.59375 -0.203125q0.28125 -0.21875 0.4375 -0.71875q0.171875 -0.515625 0.171875 -1.390625q0 -0.890625 -0.171875 -1.375q-0.15625 -0.5 -0.4375 -0.703125q-0.265625 -0.203125 -0.59375 -0.203125q-0.34375 0 -0.625 0.203125q-0.265625 0.203125 -0.421875 0.703125q-0.15625 0.484375 -0.15625 1.375q0 0.875 0.15625 1.390625q0.15625 0.5 0.421875 0.71875q0.28125 0.203125 0.625 0.203125zm0 -1.53125q-0.34375 0 -0.578125 -0.21875q-0.234375 -0.21875 -0.234375 -0.59375q0 -0.359375 0.234375 -0.578125q0.234375 -0.21875 0.578125 -0.21875q0.328125 0 0.5625 0.21875q0.234375 0.21875 0.234375 0.578125q0 0.375 -0.234375 0.59375q-0.234375 0.21875 -0.5625 0.21875zm4.300049 4.25l0 -0.84375l1.953125 0l0 -7.5l-1.953125 0l0 -0.828125l3.15625 0l0 9.171875l-3.15625 0z" fill-rule="nonzero"/><path fill="#000000" fill-opacity="0.0" d="m189.77428 89.67454l91.71654 0" fill-rule="evenodd"/><path stroke="#000000" stroke-width="3.0" stroke-linejoin="round" stroke-linecap="butt" d="m189.77428 89.67454l81.43529 0" fill-rule="evenodd"/><path fill="#000000" stroke="#000000" stroke-width="3.0" stroke-linecap="butt" d="m271.20956 89.67454l-3.3737488 3.3737564l9.269287 -3.3737564l-9.269287 -3.3737488z" fill-rule="evenodd"/><path fill="#000000" fill-opacity="0.0" d="m189.77428 59.12336l96.220474 0l0 30.551178l-96.220474 0z" fill-rule="evenodd"/><path fill="#000000" d="m201.1024 78.13895l-2.0 -5.28125l1.578125 0l0.828125 2.484375q0.125 0.40625 0.234375 0.8125q0.125 0.390625 0.25 0.828125l0.046875 0q0.109375 -0.4375 0.21875 -0.828125q0.125 -0.40625 0.25 -0.8125l0.828125 -2.484375l1.5 0l-1.9375 5.28125l-1.796875 0zm6.456314 0.125q-0.53125 0 -0.921875 -0.203125q-0.390625 -0.21875 -0.609375 -0.578125q-0.203125 -0.359375 -0.203125 -0.8125q0 -0.890625 0.796875 -1.359375q0.8125 -0.46875 2.6875 -0.578125q-0.03125 -0.234375 -0.171875 -0.40625q-0.125 -0.171875 -0.359375 -0.265625q-0.234375 -0.09375 -0.609375 -0.09375q-0.25 0 -0.515625 0.0625q-0.25 0.0625 -0.53125 0.171875q-0.265625 0.109375 -0.5625 0.265625l-0.546875 -1.03125q0.359375 -0.203125 0.75 -0.359375q0.40625 -0.171875 0.828125 -0.25q0.4375 -0.09375 0.890625 -0.09375q0.75 0 1.28125 0.265625q0.53125 0.25 0.8125 0.78125q0.296875 0.515625 0.296875 1.328125l0 3.03125l-1.28125 0l-0.109375 -0.59375l-0.046875 0q-0.390625 0.296875 -0.875 0.515625q-0.484375 0.203125 -1.0 0.203125zm0.5 -1.21875q0.34375 0 0.65625 -0.140625q0.3125 -0.140625 0.59375 -0.359375l0 -0.875q-0.78125 0.046875 -1.21875 0.171875q-0.421875 0.109375 -0.59375 0.296875q-0.171875 0.171875 -0.171875 0.40625q0 0.171875 0.078125 0.296875q0.09375 0.109375 0.265625 0.15625q0.171875 0.046875 0.390625 0.046875zm7.706314 1.21875q-0.984375 0 -1.5 -0.59375q-0.515625 -0.59375 -0.515625 -1.59375l0 -4.171875l-1.640625 0l0 -1.21875l3.21875 0l0 5.453125q0 0.484375 0.265625 0.671875q0.265625 0.1875 0.578125 0.1875q0.203125 0 0.390625 -0.03125q0.203125 -0.046875 0.453125 -0.140625l0.328125 1.15625q-0.40625 0.125 -0.75 0.203125q-0.328125 0.078125 -0.828125 0.078125zm5.159439 -0.125l0 -4.0625l-2.140625 0l0 -1.21875l3.703125 0l0 5.28125l-1.5625 0zm0.71875 -6.109375q-0.453125 0 -0.75 -0.265625q-0.296875 -0.265625 -0.296875 -0.6875q0 -0.4375 0.296875 -0.703125q0.296875 -0.28125 0.75 -0.28125q0.453125 0 0.734375 0.28125q0.296875 0.265625 0.296875 0.703125q0 0.421875 -0.296875 0.6875q-0.28125 0.265625 -0.734375 0.265625zm5.440689 6.234375q-1.015625 0 -1.625 -0.734375q-0.609375 -0.75 -0.609375 -2.03125q0 -0.859375 0.328125 -1.46875q0.328125 -0.625 0.84375 -0.953125q0.515625 -0.34375 1.09375 -0.34375q0.4375 0 0.75 0.15625q0.328125 0.140625 0.578125 0.40625l0.046875 0l-0.078125 -0.828125l0 -1.796875l1.5625 0l0 7.46875l-1.28125 0l-0.109375 -0.546875l-0.03125 0q-0.296875 0.296875 -0.6875 0.484375q-0.375 0.1875 -0.78125 0.1875zm0.40625 -1.28125q0.265625 0 0.484375 -0.109375q0.234375 -0.109375 0.4375 -0.375l0 -2.140625q-0.21875 -0.1875 -0.4375 -0.265625q-0.21875 -0.09375 -0.453125 -0.09375q-0.28125 0 -0.53125 0.171875q-0.25 0.15625 -0.390625 0.484375q-0.140625 0.3125 -0.140625 0.8125q0 0.78125 0.265625 1.15625q0.265625 0.359375 0.765625 0.359375z" fill-rule="nonzero"/><path fill="#ffffff" d="m281.4908 62.490814l116.50394 0l0 123.02362l-116.50394 0z" fill-rule="evenodd"/><path stroke="#000000" stroke-width="4.0" stroke-linejoin="round" stroke-linecap="butt" d="m281.4908 62.490814l116.50394 0l0 123.02362l-116.50394 0z" fill-rule="evenodd"/><path fill="#000000" d="m312.5054 128.95888q-0.8125 0 -1.546875 -0.28125q-0.71875 -0.28125 -1.28125 -0.84375q-0.5625 -0.5625 -0.890625 -1.390625q-0.3125 -0.84375 -0.3125 -1.9375q0 -1.4375 0.546875 -2.453125q0.5625 -1.015625 1.5 -1.546875q0.9375 -0.546875 2.09375 -0.546875q0.828125 0 1.5 0.34375q0.671875 0.328125 1.109375 0.75l-1.078125 1.21875q-0.3125 -0.296875 -0.6875 -0.453125q-0.359375 -0.171875 -0.84375 -0.171875q-0.609375 0 -1.09375 0.34375q-0.46875 0.328125 -0.75 0.96875q-0.28125 0.625 -0.28125 1.484375q0 0.890625 0.28125 1.53125q0.28125 0.625 0.78125 0.96875q0.5 0.328125 1.140625 0.328125q0.484375 0 0.875 -0.203125q0.390625 -0.21875 0.703125 -0.578125l1.078125 1.1875q-0.53125 0.625 -1.25 0.953125q-0.71875 0.328125 -1.59375 0.328125zm3.7156067 -0.15625l0 -6.609375l1.484375 0l0.125 0.8125l0.046875 0q0.1875 -0.40625 0.515625 -0.6875q0.34375 -0.28125 0.921875 -0.28125q0.421875 0 0.71875 0.28125q0.3125 0.265625 0.421875 0.796875q0.1875 -0.453125 0.53125 -0.765625q0.359375 -0.3125 0.9375 -0.3125q0.703125 0 1.09375 0.578125q0.390625 0.5625 0.390625 1.546875l0 4.640625l-1.875 0l0 -4.5q0 -0.609375 -0.359375 -0.609375q-0.1875 0 -0.328125 0.15625q-0.140625 0.15625 -0.265625 0.484375l0 4.46875l-1.53125 0l0 -4.5q0 -0.3125 -0.09375 -0.453125q-0.09375 -0.15625 -0.28125 -0.15625q-0.1875 0 -0.328125 0.15625q-0.125 0.15625 -0.265625 0.484375l0 4.46875l-1.859375 0zm10.934326 0.15625q-1.25 0 -2.015625 -0.921875q-0.765625 -0.921875 -0.765625 -2.546875q0 -1.078125 0.40625 -1.84375q0.40625 -0.78125 1.0625 -1.1875q0.65625 -0.421875 1.359375 -0.421875q0.546875 0 0.9375 0.1875q0.40625 0.1875 0.734375 0.515625l0.046875 0l-0.09375 -1.03125l0 -2.25l1.953125 0l0 9.34375l-1.59375 0l-0.140625 -0.6875l-0.046875 0q-0.359375 0.375 -0.84375 0.609375q-0.484375 0.234375 -1.0 0.234375zm0.515625 -1.59375q0.328125 0 0.609375 -0.140625q0.296875 -0.140625 0.546875 -0.46875l0 -2.6875q-0.265625 -0.234375 -0.546875 -0.328125q-0.265625 -0.109375 -0.5625 -0.109375q-0.359375 0 -0.671875 0.203125q-0.296875 0.203125 -0.484375 0.609375q-0.171875 0.40625 -0.171875 1.03125q0 0.96875 0.328125 1.4375q0.34375 0.453125 0.953125 0.453125zm5.0749817 1.4375l0 -8.6875l3.078125 0q0.953125 0 1.71875 0.265625q0.765625 0.25 1.21875 0.875q0.46875 0.609375 0.46875 1.65625q0 1.015625 -0.46875 1.671875q-0.46875 0.640625 -1.25 0.953125q-0.765625 0.3125 -1.6875 0.3125l-1.125 0l0 2.953125l-1.953125 0zm1.953125 -4.5l1.0 0q0.8125 0 1.203125 -0.359375q0.40625 -0.359375 0.40625 -1.03125q0 -0.6875 -0.40625 -0.953125q-0.40625 -0.28125 -1.203125 -0.28125l-1.0 0l0 2.625zm8.028076 4.65625q-0.671875 0 -1.15625 -0.265625q-0.484375 -0.265625 -0.75 -0.71875q-0.265625 -0.453125 -0.265625 -1.015625q0 -1.109375 1.0 -1.6875q1.015625 -0.59375 3.359375 -0.71875q-0.046875 -0.3125 -0.203125 -0.515625q-0.15625 -0.21875 -0.453125 -0.328125q-0.296875 -0.125 -0.75 -0.125q-0.328125 0 -0.65625 0.078125q-0.3125 0.078125 -0.65625 0.21875q-0.328125 0.140625 -0.703125 0.328125l-0.703125 -1.28125q0.453125 -0.265625 0.953125 -0.46875q0.5 -0.203125 1.03125 -0.3125q0.546875 -0.109375 1.109375 -0.109375q0.9375 0 1.59375 0.328125q0.671875 0.3125 1.03125 0.984375q0.359375 0.65625 0.359375 1.671875l0 3.78125l-1.59375 0l-0.140625 -0.75l-0.0625 0q-0.484375 0.375 -1.09375 0.640625q-0.59375 0.265625 -1.25 0.265625zm0.625 -1.515625q0.4375 0 0.828125 -0.171875q0.390625 -0.1875 0.734375 -0.453125l0 -1.09375q-0.96875 0.046875 -1.515625 0.203125q-0.53125 0.140625 -0.75 0.375q-0.21875 0.21875 -0.21875 0.515625q0 0.203125 0.109375 0.34375q0.125 0.140625 0.328125 0.21875q0.203125 0.0625 0.484375 0.0625zm5.9343567 1.359375l0 -6.609375l1.59375 0l0.171875 1.4375l0.03125 0q0.5 -0.8125 1.1875 -1.203125q0.703125 -0.390625 1.5 -0.390625q0.4375 0 0.703125 0.0625q0.28125 0.0625 0.5625 0.203125l-0.390625 1.640625q-0.3125 -0.09375 -0.5625 -0.140625q-0.234375 -0.046875 -0.609375 -0.046875q-0.609375 0 -1.203125 0.359375q-0.59375 0.359375 -1.03125 1.25l0 3.4375l-1.953125 0zm10.387451 0.15625q-0.875 0 -1.75 -0.296875q-0.859375 -0.296875 -1.484375 -0.71875l0.84375 -1.21875q0.59375 0.390625 1.265625 0.59375q0.671875 0.1875 1.40625 0.1875q0.546875 0 0.796875 -0.15625q0.25 -0.171875 0.25 -0.40625q0 -0.140625 -0.078125 -0.234375q-0.0625 -0.109375 -0.25 -0.1875q-0.171875 -0.09375 -0.5 -0.171875q-0.3125 -0.078125 -0.796875 -0.1875q-1.34375 -0.296875 -1.9375 -0.796875q-0.578125 -0.5 -0.578125 -1.265625q0 -0.9375 0.8125 -1.5q0.8125 -0.5625 2.21875 -0.5625q0.890625 0 1.609375 0.28125q0.734375 0.28125 1.265625 0.625l-0.890625 1.171875q-0.484375 -0.3125 -1.046875 -0.46875q-0.5625 -0.15625 -1.109375 -0.15625q-0.3125 0 -0.515625 0.0625q-0.1875 0.046875 -0.296875 0.1875q-0.109375 0.125 -0.109375 0.265625q0 0.265625 0.34375 0.390625q0.359375 0.125 1.1875 0.3125q1.015625 0.234375 1.578125 0.53125q0.578125 0.28125 0.796875 0.671875q0.234375 0.375 0.234375 0.921875q0 0.59375 -0.375 1.078125q-0.359375 0.484375 -1.09375 0.765625q-0.71875 0.28125 -1.796875 0.28125zm8.449982 0q-1.015625 0 -1.859375 -0.40625q-0.828125 -0.40625 -1.3125 -1.1875q-0.484375 -0.78125 -0.484375 -1.875q0 -1.078125 0.484375 -1.84375q0.5 -0.78125 1.28125 -1.1875q0.796875 -0.421875 1.671875 -0.421875q1.03125 0 1.71875 0.421875q0.6875 0.40625 1.046875 1.125q0.359375 0.71875 0.359375 1.625q0 0.265625 -0.046875 0.515625q-0.03125 0.234375 -0.046875 0.359375l-5.015625 0l0 -1.3125l3.6875 0l-0.296875 0.359375q0 -0.796875 -0.34375 -1.203125q-0.34375 -0.40625 -1.0 -0.40625q-0.46875 0 -0.84375 0.21875q-0.359375 0.21875 -0.5625 0.65625q-0.1875 0.4375 -0.1875 1.09375q0 0.6875 0.234375 1.125q0.25 0.421875 0.703125 0.640625q0.453125 0.21875 1.09375 0.21875q0.453125 0 0.859375 -0.125q0.40625 -0.125 0.84375 -0.34375l0.65625 1.1875q-0.578125 0.359375 -1.28125 0.5625q-0.6875 0.203125 -1.359375 0.203125z" fill-rule="nonzero"/><path fill="#000000" fill-opacity="0.0" d="m397.99475 99.049866l78.92914 0" fill-rule="evenodd"/><path stroke="#000000" stroke-width="3.0" stroke-linejoin="round" stroke-linecap="butt" d="m397.99475 99.049866l78.92914 0" fill-rule="evenodd"/><path fill="#000000" fill-opacity="0.0" d="m397.99475 68.49869l82.80316 0l0 30.551178l-82.80316 0z" fill-rule="evenodd"/><path fill="#000000" d="m410.151 87.639275q-0.703125 0 -1.40625 -0.234375q-0.6875 -0.25 -1.1875 -0.578125l0.671875 -0.96875q0.484375 0.296875 1.015625 0.46875q0.546875 0.15625 1.125 0.15625q0.421875 0 0.625 -0.125q0.203125 -0.140625 0.203125 -0.328125q0 -0.109375 -0.0625 -0.1875q-0.046875 -0.09375 -0.203125 -0.15625q-0.140625 -0.0625 -0.390625 -0.125q-0.25 -0.078125 -0.640625 -0.15625q-1.078125 -0.234375 -1.546875 -0.640625q-0.46875 -0.40625 -0.46875 -1.015625q0 -0.734375 0.640625 -1.1875q0.65625 -0.453125 1.796875 -0.453125q0.703125 0 1.28125 0.234375q0.59375 0.21875 1.0 0.484375l-0.703125 0.9375q-0.390625 -0.25 -0.84375 -0.375q-0.4375 -0.125 -0.875 -0.125q-0.25 0 -0.40625 0.046875q-0.15625 0.046875 -0.25 0.15625q-0.078125 0.09375 -0.078125 0.203125q0 0.21875 0.265625 0.328125q0.28125 0.09375 0.953125 0.25q0.8125 0.171875 1.265625 0.40625q0.46875 0.234375 0.640625 0.546875q0.171875 0.296875 0.171875 0.734375q0 0.484375 -0.296875 0.875q-0.28125 0.375 -0.875 0.609375q-0.578125 0.21875 -1.421875 0.21875zm6.753174 0q-0.8125 0 -1.484375 -0.3125q-0.671875 -0.328125 -1.0625 -0.953125q-0.375 -0.625 -0.375 -1.5q0 -0.859375 0.390625 -1.484375q0.390625 -0.625 1.015625 -0.953125q0.625 -0.328125 1.328125 -0.328125q0.828125 0 1.375 0.34375q0.5625 0.328125 0.84375 0.890625q0.28125 0.5625 0.28125 1.296875q0 0.203125 -0.03125 0.40625q-0.015625 0.203125 -0.046875 0.296875l-4.0 0l0 -1.0625l2.953125 0l-0.25 0.296875q0 -0.625 -0.28125 -0.953125q-0.265625 -0.328125 -0.78125 -0.328125q-0.390625 0 -0.6875 0.171875q-0.28125 0.171875 -0.4375 0.53125q-0.15625 0.34375 -0.15625 0.875q0 0.546875 0.1875 0.890625q0.203125 0.34375 0.5625 0.515625q0.359375 0.171875 0.875 0.171875q0.359375 0 0.671875 -0.09375q0.328125 -0.09375 0.6875 -0.28125l0.515625 0.953125q-0.453125 0.28125 -1.015625 0.453125q-0.546875 0.15625 -1.078125 0.15625zm7.0813293 0q-0.984375 0 -1.5 -0.59375q-0.515625 -0.59375 -0.515625 -1.59375l0 -4.171875l-1.640625 0l0 -1.21875l3.21875 0l0 5.453125q0 0.484375 0.265625 0.671875q0.265625 0.1875 0.578125 0.1875q0.203125 0 0.390625 -0.03125q0.203125 -0.046875 0.453125 -0.140625l0.328125 1.15625q-0.40625 0.125 -0.75 0.203125q-0.328125 0.078125 -0.828125 0.078125zm2.8312988 1.625l0 -1.171875l5.109375 0l0 1.171875l-5.109375 0zm8.487579 -1.625q-1.015625 0 -1.625 -0.734375q-0.609375 -0.75 -0.609375 -2.03125q0 -0.859375 0.328125 -1.46875q0.328125 -0.625 0.84375 -0.953125q0.515625 -0.34375 1.09375 -0.34375q0.4375 0 0.75 0.15625q0.328125 0.140625 0.578125 0.40625l0.046875 0l-0.078125 -0.828125l0 -1.796875l1.5625 0l0 7.46875l-1.28125 0l-0.109375 -0.546875l-0.03125 0q-0.296875 0.296875 -0.6875 0.484375q-0.375 0.1875 -0.78125 0.1875zm0.40625 -1.28125q0.265625 0 0.484375 -0.109375q0.234375 -0.109375 0.4375 -0.375l0 -2.140625q-0.21875 -0.1875 -0.4375 -0.265625q-0.21875 -0.09375 -0.453125 -0.09375q-0.28125 0 -0.53125 0.171875q-0.25 0.15625 -0.390625 0.484375q-0.140625 0.3125 -0.140625 0.8125q0 0.78125 0.265625 1.15625q0.265625 0.359375 0.765625 0.359375zm4.018799 3.109375l0 -7.234375l1.28125 0l0.109375 0.53125l0.03125 0q0.34375 -0.296875 0.75 -0.46875q0.40625 -0.1875 0.828125 -0.1875q0.671875 0 1.140625 0.328125q0.46875 0.328125 0.71875 0.9375q0.265625 0.609375 0.265625 1.40625q0 0.90625 -0.328125 1.546875q-0.3125 0.640625 -0.84375 0.984375q-0.515625 0.328125 -1.109375 0.328125q-0.359375 0 -0.703125 -0.140625q-0.328125 -0.15625 -0.609375 -0.4375l-0.03125 0l0.0625 0.875l0 1.53125l-1.5625 0zm2.46875 -3.109375q0.296875 0 0.53125 -0.15625q0.234375 -0.15625 0.375 -0.5q0.140625 -0.34375 0.140625 -0.890625q0 -0.484375 -0.109375 -0.796875q-0.09375 -0.3125 -0.3125 -0.46875q-0.203125 -0.171875 -0.546875 -0.171875q-0.25 0 -0.5 0.125q-0.234375 0.109375 -0.484375 0.375l0 2.140625q0.234375 0.171875 0.46875 0.265625q0.234375 0.078125 0.4375 0.078125z" fill-rule="nonzero"/><path fill="#000000" fill-opacity="0.0" d="m397.99475 129.60104l78.92914 0" fill-rule="evenodd"/><path stroke="#000000" stroke-width="3.0" stroke-linejoin="round" stroke-linecap="butt" d="m397.99475 129.60104l78.92914 0" fill-rule="evenodd"/><path fill="#000000" fill-opacity="0.0" d="m397.99475 99.049866l82.80316 0l0 30.551178l-82.80316 0z" fill-rule="evenodd"/><path fill="#000000" d="m410.651 118.19046q-0.828125 0 -1.5 -0.3125q-0.671875 -0.328125 -1.0625 -0.953125q-0.375 -0.625 -0.375 -1.5q0 -0.875 0.421875 -1.5q0.421875 -0.625 1.125 -0.9375q0.703125 -0.328125 1.5 -0.328125q0.640625 0 1.140625 0.203125q0.515625 0.1875 0.84375 0.5l-0.71875 0.96875q-0.3125 -0.203125 -0.59375 -0.296875q-0.28125 -0.109375 -0.578125 -0.109375q-0.453125 0 -0.8125 0.1875q-0.34375 0.171875 -0.53125 0.515625q-0.1875 0.34375 -0.1875 0.796875q0 0.453125 0.1875 0.796875q0.1875 0.34375 0.515625 0.53125q0.34375 0.171875 0.765625 0.171875q0.421875 0 0.765625 -0.140625q0.34375 -0.15625 0.640625 -0.359375l0.625 0.984375q-0.46875 0.40625 -1.046875 0.59375q-0.578125 0.1875 -1.125 0.1875zm3.1125488 -0.125l0 -5.28125l1.1875 0l0.09375 0.640625l0.046875 0q0.15625 -0.3125 0.421875 -0.53125q0.265625 -0.234375 0.71875 -0.234375q0.34375 0 0.578125 0.21875q0.25 0.21875 0.34375 0.640625q0.140625 -0.359375 0.421875 -0.609375q0.28125 -0.25 0.75 -0.25q0.5625 0 0.859375 0.453125q0.3125 0.453125 0.3125 1.25l0 3.703125l-1.484375 0l0 -3.609375q0 -0.46875 -0.28125 -0.46875q-0.15625 0 -0.265625 0.125q-0.109375 0.109375 -0.21875 0.390625l0 3.5625l-1.234375 0l0 -3.609375q0 -0.234375 -0.078125 -0.34375q-0.0625 -0.125 -0.21875 -0.125q-0.140625 0 -0.25 0.125q-0.109375 0.109375 -0.21875 0.390625l0 3.5625l-1.484375 0zm8.753204 0.125q-1.015625 0 -1.625 -0.734375q-0.609375 -0.75 -0.609375 -2.03125q0 -0.859375 0.328125 -1.46875q0.328125 -0.625 0.84375 -0.953125q0.515625 -0.34375 1.09375 -0.34375q0.4375 0 0.75 0.15625q0.328125 0.140625 0.578125 0.40625l0.046875 0l-0.078125 -0.828125l0 -1.796875l1.5625 0l0 7.46875l-1.28125 0l-0.109375 -0.546875l-0.03125 0q-0.296875 0.296875 -0.6875 0.484375q-0.375 0.1875 -0.78125 0.1875zm0.40625 -1.28125q0.265625 0 0.484375 -0.109375q0.234375 -0.109375 0.4375 -0.375l0 -2.140625q-0.21875 -0.1875 -0.4375 -0.265625q-0.21875 -0.09375 -0.453125 -0.09375q-0.28125 0 -0.53125 0.171875q-0.25 0.15625 -0.390625 0.484375q-0.140625 0.3125 -0.140625 0.8125q0 0.78125 0.265625 1.15625q0.265625 0.359375 0.765625 0.359375zm3.8937988 2.90625l0 -1.171875l5.109375 0l0 1.171875l-5.109375 0zm8.721954 -1.75l0 -4.0625l-2.140625 0l0 -1.21875l3.703125 0l0 5.28125l-1.5625 0zm0.71875 -6.109375q-0.453125 0 -0.75 -0.265625q-0.296875 -0.265625 -0.296875 -0.6875q0 -0.4375 0.296875 -0.703125q0.296875 -0.28125 0.75 -0.28125q0.453125 0 0.734375 0.28125q0.296875 0.265625 0.296875 0.703125q0 0.421875 -0.296875 0.6875q-0.28125 0.265625 -0.734375 0.265625zm3.4719238 6.109375l0 -5.28125l1.28125 0l0.109375 0.703125l0.046875 0q0.34375 -0.34375 0.78125 -0.578125q0.453125 -0.25 1.046875 -0.25q0.890625 0 1.296875 0.578125q0.421875 0.5625 0.421875 1.5625l0 3.265625l-1.5625 0l0 -3.0625q0 -0.53125 -0.171875 -0.765625q-0.171875 -0.25 -0.609375 -0.25q-0.3125 0 -0.5625 0.140625q-0.234375 0.140625 -0.515625 0.40625l0 3.53125l-1.5625 0zm7.8938293 0l0 -5.421875q0 -0.609375 0.25 -1.09375q0.25 -0.5 0.765625 -0.78125q0.515625 -0.296875 1.359375 -0.296875q0.453125 0 0.859375 0.09375q0.40625 0.078125 0.734375 0.1875l-0.296875 1.15625q-0.25 -0.09375 -0.53125 -0.140625q-0.265625 -0.0625 -0.578125 -0.0625q-0.5 0 -0.75 0.21875q-0.234375 0.21875 -0.234375 0.703125l0 5.4375l-1.578125 0zm-1.390625 -4.0625l0 -1.15625l1.453125 -0.0625l3.328125 0l0 1.21875l-4.78125 0zm8.721924 4.1875q-0.703125 0 -1.328125 -0.3125q-0.609375 -0.328125 -1.0 -0.953125q-0.375 -0.625 -0.375 -1.5q0 -0.875 0.375 -1.5q0.390625 -0.625 1.0 -0.9375q0.625 -0.328125 1.328125 -0.328125q0.6875 0 1.296875 0.328125q0.625 0.3125 1.0 0.9375q0.390625 0.625 0.390625 1.5q0 0.875 -0.390625 1.5q-0.375 0.625 -1.0 0.953125q-0.609375 0.3125 -1.296875 0.3125zm0 -1.265625q0.359375 0 0.59375 -0.171875q0.234375 -0.1875 0.359375 -0.53125q0.125 -0.34375 0.125 -0.796875q0 -0.453125 -0.125 -0.796875q-0.125 -0.34375 -0.359375 -0.515625q-0.234375 -0.1875 -0.59375 -0.1875q-0.375 0 -0.609375 0.1875q-0.234375 0.171875 -0.359375 0.515625q-0.125 0.34375 -0.125 0.796875q0 0.453125 0.125 0.796875q0.125 0.34375 0.359375 0.53125q0.234375 0.171875 0.609375 0.171875z" fill-rule="nonzero"/><path fill="#000000" fill-opacity="0.0" d="m397.99475 160.15224l78.92914 0" fill-rule="evenodd"/><path stroke="#000000" stroke-width="3.0" stroke-linejoin="round" stroke-linecap="butt" d="m397.99475 160.15224l78.92914 0" fill-rule="evenodd"/><path fill="#000000" fill-opacity="0.0" d="m397.99475 129.60104l96.22046 0l0 30.551193l-96.22046 0z" fill-rule="evenodd"/><path fill="#000000" d="m410.651 148.74164q-0.828125 0 -1.5 -0.3125q-0.671875 -0.328125 -1.0625 -0.953125q-0.375 -0.625 -0.375 -1.5q0 -0.875 0.421875 -1.5q0.421875 -0.625 1.125 -0.9375q0.703125 -0.328125 1.5 -0.328125q0.640625 0 1.140625 0.203125q0.515625 0.1875 0.84375 0.5l-0.71875 0.96875q-0.3125 -0.203125 -0.59375 -0.296875q-0.28125 -0.109375 -0.578125 -0.109375q-0.453125 0 -0.8125 0.1875q-0.34375 0.171875 -0.53125 0.515625q-0.1875 0.34375 -0.1875 0.796875q0 0.453125 0.1875 0.796875q0.1875 0.34375 0.515625 0.53125q0.34375 0.171875 0.765625 0.171875q0.421875 0 0.765625 -0.140625q0.34375 -0.15625 0.640625 -0.359375l0.625 0.984375q-0.46875 0.40625 -1.046875 0.59375q-0.578125 0.1875 -1.125 0.1875zm3.1125488 -0.125l0 -5.28125l1.1875 0l0.09375 0.640625l0.046875 0q0.15625 -0.3125 0.421875 -0.53125q0.265625 -0.234375 0.71875 -0.234375q0.34375 0 0.578125 0.21875q0.25 0.21875 0.34375 0.640625q0.140625 -0.359375 0.421875 -0.609375q0.28125 -0.25 0.75 -0.25q0.5625 0 0.859375 0.453125q0.3125 0.453125 0.3125 1.25l0 3.703125l-1.484375 0l0 -3.609375q0 -0.46875 -0.28125 -0.46875q-0.15625 0 -0.265625 0.125q-0.109375 0.109375 -0.21875 0.390625l0 3.5625l-1.234375 0l0 -3.609375q0 -0.234375 -0.078125 -0.34375q-0.0625 -0.125 -0.21875 -0.125q-0.140625 0 -0.25 0.125q-0.109375 0.109375 -0.21875 0.390625l0 3.5625l-1.484375 0zm8.753204 0.125q-1.015625 0 -1.625 -0.734375q-0.609375 -0.75 -0.609375 -2.03125q0 -0.859375 0.328125 -1.46875q0.328125 -0.625 0.84375 -0.953125q0.515625 -0.34375 1.09375 -0.34375q0.4375 0 0.75 0.15625q0.328125 0.140625 0.578125 0.40625l0.046875 0l-0.078125 -0.828125l0 -1.796875l1.5625 0l0 7.46875l-1.28125 0l-0.109375 -0.546875l-0.03125 0q-0.296875 0.296875 -0.6875 0.484375q-0.375 0.1875 -0.78125 0.1875zm0.40625 -1.28125q0.265625 0 0.484375 -0.109375q0.234375 -0.109375 0.4375 -0.375l0 -2.140625q-0.21875 -0.1875 -0.4375 -0.265625q-0.21875 -0.09375 -0.453125 -0.09375q-0.28125 0 -0.53125 0.171875q-0.25 0.15625 -0.390625 0.484375q-0.140625 0.3125 -0.140625 0.8125q0 0.78125 0.265625 1.15625q0.265625 0.359375 0.765625 0.359375zm3.8937988 2.90625l0 -1.171875l5.109375 0l0 1.171875l-5.109375 0zm8.721954 -1.75l0 -4.0625l-2.140625 0l0 -1.21875l3.703125 0l0 5.28125l-1.5625 0zm0.71875 -6.109375q-0.453125 0 -0.75 -0.265625q-0.296875 -0.265625 -0.296875 -0.6875q0 -0.4375 0.296875 -0.703125q0.296875 -0.28125 0.75 -0.28125q0.453125 0 0.734375 0.28125q0.296875 0.265625 0.296875 0.703125q0 0.421875 -0.296875 0.6875q-0.28125 0.265625 -0.734375 0.265625zm3.4719238 6.109375l0 -5.28125l1.28125 0l0.109375 0.703125l0.046875 0q0.34375 -0.34375 0.78125 -0.578125q0.453125 -0.25 1.046875 -0.25q0.890625 0 1.296875 0.578125q0.421875 0.5625 0.421875 1.5625l0 3.265625l-1.5625 0l0 -3.0625q0 -0.53125 -0.171875 -0.765625q-0.171875 -0.25 -0.609375 -0.25q-0.3125 0 -0.5625 0.140625q-0.234375 0.140625 -0.515625 0.40625l0 3.53125l-1.5625 0zm7.8938293 0l0 -5.421875q0 -0.609375 0.25 -1.09375q0.25 -0.5 0.765625 -0.78125q0.515625 -0.296875 1.359375 -0.296875q0.453125 0 0.859375 0.09375q0.40625 0.078125 0.734375 0.1875l-0.296875 1.15625q-0.25 -0.09375 -0.53125 -0.140625q-0.265625 -0.0625 -0.578125 -0.0625q-0.5 0 -0.75 0.21875q-0.234375 0.21875 -0.234375 0.703125l0 5.4375l-1.578125 0zm-1.390625 -4.0625l0 -1.15625l1.453125 -0.0625l3.328125 0l0 1.21875l-4.78125 0zm8.721924 4.1875q-0.703125 0 -1.328125 -0.3125q-0.609375 -0.328125 -1.0 -0.953125q-0.375 -0.625 -0.375 -1.5q0 -0.875 0.375 -1.5q0.390625 -0.625 1.0 -0.9375q0.625 -0.328125 1.328125 -0.328125q0.6875 0 1.296875 0.328125q0.625 0.3125 1.0 0.9375q0.390625 0.625 0.390625 1.5q0 0.875 -0.390625 1.5q-0.375 0.625 -1.0 0.953125q-0.609375 0.3125 -1.296875 0.3125zm0 -1.265625q0.359375 0 0.59375 -0.171875q0.234375 -0.1875 0.359375 -0.53125q0.125 -0.34375 0.125 -0.796875q0 -0.453125 -0.125 -0.796875q-0.125 -0.34375 -0.359375 -0.515625q-0.234375 -0.1875 -0.59375 -0.1875q-0.375 0 -0.609375 0.1875q-0.234375 0.171875 -0.359375 0.515625q-0.125 0.34375 -0.125 0.796875q0 0.453125 0.125 0.796875q0.125 0.34375 0.359375 0.53125q0.234375 0.171875 0.609375 0.171875zm3.8313293 2.890625l0 -1.171875l5.109375 0l0 1.171875l-5.109375 0zm8.721924 -1.75l0 -4.0625l-2.140625 0l0 -1.21875l3.703125 0l0 5.28125l-1.5625 0zm0.71875 -6.109375q-0.453125 0 -0.75 -0.265625q-0.296875 -0.265625 -0.296875 -0.6875q0 -0.4375 0.296875 -0.703125q0.296875 -0.28125 0.75 -0.28125q0.453125 0 0.734375 0.28125q0.296875 0.265625 0.296875 0.703125q0 0.421875 -0.296875 0.6875q-0.28125 0.265625 -0.734375 0.265625zm5.4407043 6.234375q-1.015625 0 -1.625 -0.734375q-0.609375 -0.75 -0.609375 -2.03125q0 -0.859375 0.328125 -1.46875q0.328125 -0.625 0.84375 -0.953125q0.515625 -0.34375 1.09375 -0.34375q0.4375 0 0.75 0.15625q0.328125 0.140625 0.578125 0.40625l0.046875 0l-0.078125 -0.828125l0 -1.796875l1.5625 0l0 7.46875l-1.28125 0l-0.109375 -0.546875l-0.03125 0q-0.296875 0.296875 -0.6875 0.484375q-0.375 0.1875 -0.78125 0.1875zm0.40625 -1.28125q0.265625 0 0.484375 -0.109375q0.234375 -0.109375 0.4375 -0.375l0 -2.140625q-0.21875 -0.1875 -0.4375 -0.265625q-0.21875 -0.09375 -0.453125 -0.09375q-0.28125 0 -0.53125 0.171875q-0.25 0.15625 -0.390625 0.484375q-0.140625 0.3125 -0.140625 0.8125q0 0.78125 0.265625 1.15625q0.265625 0.359375 0.765625 0.359375zm3.6437988 1.15625l1.84375 -2.75l-1.71875 -2.53125l1.671875 0l0.546875 0.84375q0.125 0.234375 0.28125 0.46875q0.15625 0.21875 0.28125 0.4375l0.03125 0q0.109375 -0.21875 0.21875 -0.453125q0.125 -0.234375 0.21875 -0.453125l0.46875 -0.84375l1.640625 0l-1.71875 2.71875l1.828125 2.5625l-1.671875 0l-0.609375 -0.875q-0.15625 -0.21875 -0.3125 -0.453125q-0.15625 -0.234375 -0.296875 -0.46875l-0.046875 0q-0.109375 0.234375 -0.25 0.46875q-0.125 0.21875 -0.234375 0.453125l-0.53125 0.875l-1.640625 0z" fill-rule="nonzero"/><path fill="#000000" fill-opacity="0.0" d="m118.42782 13.4161l0 49.76378" fill-rule="evenodd"/><path stroke="#cc0000" stroke-width="3.0" stroke-linejoin="round" stroke-linecap="butt" d="m118.42782 13.4161005l0 39.482517" fill-rule="evenodd"/><path fill="#cc0000" stroke="#cc0000" stroke-width="3.0" stroke-linecap="butt" d="m118.42782 52.898617l-3.3737488 -3.3737488l3.3737488 9.269302l3.3737564 -9.269302z" fill-rule="evenodd"/><path fill="#000000" fill-opacity="0.0" d="m162.11548 13.4161l0 49.76378" fill-rule="evenodd"/><path stroke="#cc0000" stroke-width="3.0" stroke-linejoin="round" stroke-linecap="butt" d="m162.11548 13.4161005l0 39.482517" fill-rule="evenodd"/><path fill="#cc0000" stroke="#cc0000" stroke-width="3.0" stroke-linecap="butt" d="m162.11548 52.898617l-3.3737488 -3.3737488l3.3737488 9.269302l3.373764 -9.269302z" fill-rule="evenodd"/><path fill="#000000" fill-opacity="0.0" d="m146.7979 6.2016964l0 52.913383l-30.551178 0l0 -52.913383z" fill-rule="evenodd"/><path fill="#cc0000" d="m127.78231 24.914827l5.2812424 0l0 1.1875l-0.640625 0.09375l0 0.046875q0.3125 0.15625 0.53125 0.421875q0.234375 0.265625 0.234375 0.71875q0 0.34375 -0.21875 0.578125q-0.21875 0.25 -0.640625 0.34375q0.359375 0.140625 0.609375 0.421875q0.25 0.28125 0.25 0.75q0 0.5625 -0.453125 0.859375q-0.453125 0.3125 -1.25 0.3125l-3.7031174 0l0 -1.484375l3.6093674 0q0.46875 0 0.46875 -0.28125q0 -0.15625 -0.125 -0.265625q-0.109375 -0.109375 -0.390625 -0.21875l-3.5624924 0l0 -1.234375l3.6093674 0q0.234375 0 0.34375 -0.078125q0.125 -0.0625 0.125 -0.21875q0 -0.140625 -0.125 -0.25q-0.109375 -0.109375 -0.390625 -0.21875l-3.5624924 0l0 -1.484375zm-0.125 9.221941q0 -0.703125 0.3125 -1.328125q0.32811737 -0.609375 0.9531174 -1.0000019q0.625 -0.375 1.5 -0.375q0.875 0 1.5 0.375q0.625 0.3906269 0.9375 1.0000019q0.328125 0.625 0.328125 1.328125q0 0.6875 -0.328125 1.296875q-0.3125 0.625 -0.9375 1.0q-0.625 0.390625 -1.5 0.390625q-0.875 0 -1.5 -0.390625q-0.625 -0.375 -0.9531174 -1.0q-0.3125 -0.609375 -0.3125 -1.296875zm1.2656174 0q0 0.359375 0.171875 0.59375q0.1875 0.234375 0.53125 0.359375q0.34375 0.125 0.796875 0.125q0.453125 0 0.796875 -0.125q0.34375 -0.125 0.515625 -0.359375q0.1875 -0.234375 0.1875 -0.59375q0 -0.375 -0.1875 -0.609375q-0.171875 -0.234375 -0.515625 -0.359375q-0.34375 -0.125 -0.796875 -0.125q-0.453125 0 -0.796875 0.125q-0.34375 0.125 -0.53125 0.359375q-0.171875 0.234375 -0.171875 0.609375zm-1.2656174 5.925064q0 -1.015625 0.7343674 -1.625q0.75 -0.609375 2.03125 -0.609375q0.859375 0 1.46875 0.328125q0.625 0.328125 0.953125 0.84375q0.34375 0.515625 0.34375 1.09375q0 0.4375 -0.15625 0.75q-0.140625 0.328125 -0.40625 0.578125l0 0.046875l0.828125 -0.078125l1.796875 0l0 1.5625l-7.4687424 0l0 -1.28125l0.5468674 -0.109375l0 -0.03125q-0.296875 -0.296875 -0.48436737 -0.6875q-0.1875 -0.375 -0.1875 -0.78125zm1.2812424 0.40625q0 0.265625 0.109375 0.484375q0.109375 0.234375 0.375 0.4375l2.140625 0q0.1875 -0.21875 0.265625 -0.4375q0.09375 -0.21875 0.09375 -0.453125q0 -0.28125 -0.171875 -0.53125q-0.15625 -0.25 -0.484375 -0.390625q-0.3125 -0.140625 -0.8125 -0.140625q-0.78125 0 -1.15625 0.265625q-0.359375 0.265625 -0.359375 0.765625zm-1.2812424 6.768814q0 -0.8125 0.3125 -1.484375q0.32811737 -0.671875 0.9531174 -1.0625q0.625 -0.375 1.5 -0.375q0.859375 0 1.484375 0.390625q0.625 0.390625 0.953125 1.015625q0.328125 0.625 0.328125 1.328125q0 0.828125 -0.34375 1.375q-0.328125 0.5625 -0.890625 0.84375q-0.5625 0.28125 -1.296875 0.28125q-0.203125 0 -0.40625 -0.03125q-0.203125 -0.015625 -0.296875 -0.046875l0 -4.0l1.0625 0l0 2.953125l-0.296875 -0.25q0.625 0 0.953125 -0.28125q0.328125 -0.265625 0.328125 -0.78125q0 -0.390625 -0.171875 -0.6875q-0.171875 -0.28125 -0.53125 -0.4375q-0.34375 -0.15625 -0.875 -0.15625q-0.546875 0 -0.890625 0.1875q-0.34375 0.203125 -0.515625 0.5625q-0.171875 0.359375 -0.171875 0.875q0 0.359375 0.09375 0.671875q0.09375 0.328125 0.28125 0.6875l-0.953125 0.515625q-0.28124237 -0.453125 -0.45311737 -1.015625q-0.15625 -0.546875 -0.15625 -1.078125z" fill-rule="nonzero"/><path fill="#000000" fill-opacity="0.0" d="m192.66667 5.671573l0 56.818897l-30.551193 0l0 -56.818897z" fill-rule="evenodd"/><path fill="#cc0000" d="m173.65108 28.68084l7.46875 0l0 1.5625l-1.828125 0l-1.015625 -0.078125l0 0.03125q0.3125 0.296875 0.546875 0.71875q0.234375 0.4375 0.234375 1.03125q0 0.90625 -0.578125 1.3125q-0.5625 0.40625 -1.5625 0.40625l-3.265625 0l0 -1.5625l3.0625 0q0.53125 0 0.765625 -0.171875q0.25 -0.171875 0.25 -0.609375q0 -0.3125 -0.140625 -0.5625q-0.140625 -0.234375 -0.40625 -0.515625l-3.53125 0l0 -1.5625zm-0.125 8.018814q0 -0.53125 0.203125 -0.921875q0.21875 -0.390625 0.578125 -0.609375q0.359375 -0.203125 0.8125 -0.203125q0.890625 0 1.359375 0.796875q0.46875 0.8125 0.578125 2.6875q0.234375 -0.03125 0.40625 -0.171875q0.171875 -0.125 0.265625 -0.359375q0.09375 -0.234375 0.09375 -0.609375q0 -0.25 -0.0625 -0.515625q-0.0625 -0.25 -0.171875 -0.53125q-0.109375 -0.265625 -0.265625 -0.5625l1.03125 -0.546875q0.203125 0.359375 0.359375 0.75q0.171875 0.40625 0.25 0.828125q0.09375 0.4375 0.09375 0.890625q0 0.75 -0.265625 1.28125q-0.25 0.53125 -0.78125 0.8125q-0.515625 0.296875 -1.328125 0.296875l-3.03125 0l0 -1.28125l0.59375 -0.109375l0 -0.046875q-0.296875 -0.390625 -0.515625 -0.875q-0.203125 -0.484375 -0.203125 -1.0zm1.21875 0.5q0 0.34375 0.140625 0.65625q0.140625 0.3125 0.359375 0.59375l0.875 0q-0.046875 -0.78125 -0.171875 -1.21875q-0.109375 -0.421875 -0.296875 -0.59375q-0.171875 -0.171875 -0.40625 -0.171875q-0.171875 0 -0.296875 0.078125q-0.109375 0.09375 -0.15625 0.265625q-0.046875 0.171875 -0.046875 0.390625zm-1.21875 7.706314q0 -0.984375 0.59375 -1.5q0.59375 -0.515625 1.59375 -0.515625l4.171875 0l0 -1.640625l1.21875 0l0 3.21875l-5.453125 0q-0.484375 0 -0.671875 0.265625q-0.1875 0.265625 -0.1875 0.578125q0 0.203125 0.03125 0.390625q0.046875 0.203125 0.140625 0.453125l-1.15625 0.328125q-0.125 -0.40625 -0.203125 -0.75q-0.078125 -0.328125 -0.078125 -0.828125zm0 6.331314q0 -0.84375 0.28125 -1.34375q0.296875 -0.5 0.8125 -0.71875q0.53125 -0.21875 1.21875 -0.21875l1.875 0l0 -1.328125l1.15625 0l0.0625 1.390625l1.625 0.203125l0 1.296875l-1.625 0l0 2.234375l-1.21875 0l0 -2.234375l-1.859375 0q-0.390625 0 -0.640625 0.109375q-0.234375 0.125 -0.359375 0.359375q-0.109375 0.25 -0.109375 0.640625q0 0.3125 0.046875 0.5625q0.0625 0.25 0.15625 0.484375l-1.140625 0.28125q-0.109375 -0.34375 -0.1875 -0.765625q-0.09375 -0.421875 -0.09375 -0.953125z" fill-rule="nonzero"/><path fill="#000000" fill-opacity="0.0" d="m303.6063 13.4161l0 49.76378" fill-rule="evenodd"/><path stroke="#cc0000" stroke-width="3.0" stroke-linejoin="round" stroke-linecap="butt" d="m303.6063 13.4161005l0 39.482517" fill-rule="evenodd"/><path fill="#cc0000" stroke="#cc0000" stroke-width="3.0" stroke-linecap="butt" d="m303.6063 52.898617l-3.3737488 -3.3737488l3.3737488 9.269302l3.3737488 -9.269302z" fill-rule="evenodd"/><path fill="#000000" fill-opacity="0.0" d="m298.7953 18.952755l109.13385 0l0 30.551182l-109.13385 0z" fill-rule="evenodd"/><path fill="#cc0000" d="m319.4658 38.093346q-0.828125 0 -1.5 -0.3125q-0.671875 -0.328125 -1.0625 -0.953125q-0.375 -0.625 -0.375 -1.5q0 -0.875 0.421875 -1.5q0.421875 -0.625 1.125 -0.9375q0.703125 -0.328125 1.5 -0.328125q0.640625 0 1.140625 0.203125q0.515625 0.1875 0.84375 0.5l-0.71875 0.96875q-0.3125 -0.203125 -0.59375 -0.296875q-0.28125 -0.109375 -0.578125 -0.109375q-0.453125 0 -0.8125 0.1875q-0.34375 0.171875 -0.53125 0.515625q-0.1875 0.34375 -0.1875 0.796875q0 0.453125 0.1875 0.796875q0.1875 0.34375 0.515625 0.53125q0.34375 0.171875 0.765625 0.171875q0.421875 0 0.765625 -0.140625q0.34375 -0.15625 0.640625 -0.359375l0.625 0.984375q-0.46875 0.40625 -1.046875 0.59375q-0.578125 0.1875 -1.125 0.1875zm3.1125793 -0.125l0 -5.28125l1.1875 0l0.09375 0.640625l0.046875 0q0.15625 -0.3125 0.421875 -0.53125q0.265625 -0.234375 0.71875 -0.234375q0.34375 0 0.578125 0.21875q0.25 0.21875 0.34375 0.640625q0.140625 -0.359375 0.421875 -0.609375q0.28125 -0.25 0.75 -0.25q0.5625 0 0.859375 0.453125q0.3125 0.453125 0.3125 1.25l0 3.703125l-1.484375 0l0 -3.609375q0 -0.46875 -0.28125 -0.46875q-0.15625 0 -0.265625 0.125q-0.109375 0.109375 -0.21875 0.390625l0 3.5625l-1.234375 0l0 -3.609375q0 -0.234375 -0.078125 -0.34375q-0.0625 -0.125 -0.21875 -0.125q-0.140625 0 -0.25 0.125q-0.109375 0.109375 -0.21875 0.390625l0 3.5625l-1.484375 0zm8.753174 0.125q-1.015625 0 -1.625 -0.734375q-0.609375 -0.75 -0.609375 -2.03125q0 -0.859375 0.328125 -1.46875q0.328125 -0.625 0.84375 -0.953125q0.515625 -0.34375 1.09375 -0.34375q0.4375 0 0.75 0.15625q0.328125 0.140625 0.578125 0.40625l0.046875 0l-0.078125 -0.828125l0 -1.796875l1.5625 0l0 7.46875l-1.28125 0l-0.109375 -0.546875l-0.03125 0q-0.296875 0.296875 -0.6875 0.484375q-0.375 0.1875 -0.78125 0.1875zm0.40625 -1.28125q0.265625 0 0.484375 -0.109375q0.234375 -0.109375 0.4375 -0.375l0 -2.140625q-0.21875 -0.1875 -0.4375 -0.265625q-0.21875 -0.09375 -0.453125 -0.09375q-0.28125 0 -0.53125 0.171875q-0.25 0.15625 -0.390625 0.484375q-0.140625 0.3125 -0.140625 0.8125q0 0.78125 0.265625 1.15625q0.265625 0.359375 0.765625 0.359375zm3.8938293 2.90625l0 -1.171875l5.109375 0l0 1.171875l-5.109375 0zm8.721924 -1.75l0 -4.0625l-2.140625 0l0 -1.21875l3.703125 0l0 5.28125l-1.5625 0zm0.71875 -6.109375q-0.453125 0 -0.75 -0.265625q-0.296875 -0.265625 -0.296875 -0.6875q0 -0.4375 0.296875 -0.703125q0.296875 -0.28125 0.75 -0.28125q0.453125 0 0.734375 0.28125q0.296875 0.265625 0.296875 0.703125q0 0.421875 -0.296875 0.6875q-0.28125 0.265625 -0.734375 0.265625zm3.4719543 6.109375l0 -5.28125l1.28125 0l0.109375 0.703125l0.046875 0q0.34375 -0.34375 0.78125 -0.578125q0.453125 -0.25 1.046875 -0.25q0.890625 0 1.296875 0.578125q0.421875 0.5625 0.421875 1.5625l0 3.265625l-1.5625 0l0 -3.0625q0 -0.53125 -0.171875 -0.765625q-0.171875 -0.25 -0.609375 -0.25q-0.3125 0 -0.5625 0.140625q-0.234375 0.140625 -0.515625 0.40625l0 3.53125l-1.5625 0zm7.893799 0l0 -5.421875q0 -0.609375 0.25 -1.09375q0.25 -0.5 0.765625 -0.78125q0.515625 -0.296875 1.359375 -0.296875q0.453125 0 0.859375 0.09375q0.40625 0.078125 0.734375 0.1875l-0.296875 1.15625q-0.25 -0.09375 -0.53125 -0.140625q-0.265625 -0.0625 -0.578125 -0.0625q-0.5 0 -0.75 0.21875q-0.234375 0.21875 -0.234375 0.703125l0 5.4375l-1.578125 0zm-1.390625 -4.0625l0 -1.15625l1.453125 -0.0625l3.328125 0l0 1.21875l-4.78125 0zm8.721954 4.1875q-0.703125 0 -1.328125 -0.3125q-0.609375 -0.328125 -1.0 -0.953125q-0.375 -0.625 -0.375 -1.5q0 -0.875 0.375 -1.5q0.390625 -0.625 1.0 -0.9375q0.625 -0.328125 1.328125 -0.328125q0.6875 0 1.296875 0.328125q0.625 0.3125 1.0 0.9375q0.390625 0.625 0.390625 1.5q0 0.875 -0.390625 1.5q-0.375 0.625 -1.0 0.953125q-0.609375 0.3125 -1.296875 0.3125zm0 -1.265625q0.359375 0 0.59375 -0.171875q0.234375 -0.1875 0.359375 -0.53125q0.125 -0.34375 0.125 -0.796875q0 -0.453125 -0.125 -0.796875q-0.125 -0.34375 -0.359375 -0.515625q-0.234375 -0.1875 -0.59375 -0.1875q-0.375 0 -0.609375 0.1875q-0.234375 0.171875 -0.359375 0.515625q-0.125 0.34375 -0.125 0.796875q0 0.453125 0.125 0.796875q0.125 0.34375 0.359375 0.53125q0.234375 0.171875 0.609375 0.171875zm3.8312988 2.890625l0 -1.171875l5.109375 0l0 1.171875l-5.109375 0zm9.956329 -1.625q-0.984375 0 -1.5 -0.59375q-0.515625 -0.59375 -0.515625 -1.59375l0 -4.171875l-1.640625 0l0 -1.21875l3.21875 0l0 5.453125q0 0.484375 0.265625 0.671875q0.265625 0.1875 0.578125 0.1875q0.203125 0 0.390625 -0.03125q0.203125 -0.046875 0.453125 -0.140625l0.328125 1.15625q-0.40625 0.125 -0.75 0.203125q-0.328125 0.078125 -0.828125 0.078125zm5.159424 -0.125l0 -4.0625l-2.140625 0l0 -1.21875l3.703125 0l0 5.28125l-1.5625 0zm0.71875 -6.109375q-0.453125 0 -0.75 -0.265625q-0.296875 -0.265625 -0.296875 -0.6875q0 -0.4375 0.296875 -0.703125q0.296875 -0.28125 0.75 -0.28125q0.453125 0 0.734375 0.28125q0.296875 0.265625 0.296875 0.703125q0 0.421875 -0.296875 0.6875q-0.28125 0.265625 -0.734375 0.265625zm5.8625793 6.234375q-0.703125 0 -1.40625 -0.234375q-0.6875 -0.25 -1.1875 -0.578125l0.671875 -0.96875q0.484375 0.296875 1.015625 0.46875q0.546875 0.15625 1.125 0.15625q0.421875 0 0.625 -0.125q0.203125 -0.140625 0.203125 -0.328125q0 -0.109375 -0.0625 -0.1875q-0.046875 -0.09375 -0.203125 -0.15625q-0.140625 -0.0625 -0.390625 -0.125q-0.25 -0.078125 -0.640625 -0.15625q-1.078125 -0.234375 -1.546875 -0.640625q-0.46875 -0.40625 -0.46875 -1.015625q0 -0.734375 0.640625 -1.1875q0.65625 -0.453125 1.796875 -0.453125q0.703125 0 1.28125 0.234375q0.59375 0.21875 1.0 0.484375l-0.703125 0.9375q-0.390625 -0.25 -0.84375 -0.375q-0.4375 -0.125 -0.875 -0.125q-0.25 0 -0.40625 0.046875q-0.15625 0.046875 -0.25 0.15625q-0.078125 0.09375 -0.078125 0.203125q0 0.21875 0.265625 0.328125q0.28125 0.09375 0.953125 0.25q0.8125 0.171875 1.265625 0.40625q0.46875 0.234375 0.640625 0.546875q0.171875 0.296875 0.171875 0.734375q0 0.484375 -0.296875 0.875q-0.28125 0.375 -0.875 0.609375q-0.578125 0.21875 -1.421875 0.21875zm7.378174 0q-0.84375 0 -1.34375 -0.28125q-0.5 -0.296875 -0.71875 -0.8125q-0.21875 -0.53125 -0.21875 -1.21875l0 -1.875l-1.328125 0l0 -1.15625l1.390625 -0.0625l0.203125 -1.625l1.296875 0l0 1.625l2.234375 0l0 1.21875l-2.234375 0l0 1.859375q0 0.390625 0.109375 0.640625q0.125 0.234375 0.359375 0.359375q0.25 0.109375 0.640625 0.109375q0.3125 0 0.5625 -0.046875q0.25 -0.0625 0.484375 -0.15625l0.28125 1.140625q-0.34375 0.109375 -0.765625 0.1875q-0.421875 0.09375 -0.953125 0.09375z" fill-rule="nonzero"/></g></svg>