<svg version="1.1" viewBox="0.0 0.0 913.6981627296587 410.3359580052493" fill="none" stroke="none" stroke-linecap="square" stroke-miterlimit="10" xmlns:xlink="http://www.w3.org/1999/xlink" xmlns="http://www.w3.org/2000/svg"><clipPath id="p.0"><path d="m0 0l913.6982 0l0 410.33597l-913.6982 0l0 -410.33597z" clip-rule="nonzero"/></clipPath><g clip-path="url(#p.0)"><path fill="#000000" fill-opacity="0.0" d="m0 0l913.6982 0l0 410.33597l-913.6982 0z" fill-rule="evenodd"/><path fill="#000000" fill-opacity="0.0" d="m49.086613 48.062992l850.83466 0" fill-rule="evenodd"/><path stroke="#000000" stroke-width="2.0" stroke-linejoin="round" stroke-linecap="butt" d="m49.086613 48.062992l843.98047 0" fill-rule="evenodd"/><path fill="#000000" stroke="#000000" stroke-width="2.0" stroke-linecap="butt" d="m893.0671 48.062992l-2.2491455 2.2491684l6.1795044 -2.2491684l-6.1795044 -2.2491684z" fill-rule="evenodd"/><path fill="#000000" fill-opacity="0.0" d="m57.267715 11.244095l62.3937 0l0 36.818897l-62.3937 0z" fill-rule="evenodd"/><path fill="#000000" d="m72.00209 38.164093q-0.953125 0 -1.46875 -0.609375q-0.5 -0.625 -0.5 -1.625l0 -5.6875l-1.765625 0l0 -1.40625l1.765625 0l0 -2.234375l1.59375 0l0 2.234375l2.71875 0l0 1.40625l-2.71875 0l0 5.78125q0 0.40625 0.203125 0.578125q0.203125 0.15625 0.625 0.15625l1.890625 0l0 1.40625l-2.34375 0zm10.246246 -13.0625l0 1.6875l-1.765625 0l0 -1.6875l1.765625 0zm-4.40625 5.140625l0 -1.40625l4.328125 0l0 7.921875l2.75 0l0 1.40625l-4.34375 0l0 -7.921875l-2.734375 0zm10.777496 -1.40625l0 0.421875q0.484375 -0.421875 1.15625 -0.421875l0.109375 0q1.3125 0 1.84375 0.75q0.625 -0.75 1.625 -0.75l0.109375 0q1.140625 0 1.671875 0.578125q0.546875 0.578125 0.546875 2.046875l0 6.703125l-1.484375 0l0 -6.71875q0 -0.765625 -0.15625 -1.0625q-0.15625 -0.296875 -0.71875 -0.296875l-0.109375 0q-0.5625 0 -0.78125 0.390625q-0.21875 0.375 -0.234375 0.84375l0 6.84375l-1.484375 0l0 -6.71875q0 -0.78125 -0.1875 -1.0625q-0.1875 -0.296875 -0.671875 -0.296875l-0.109375 0q-0.5625 0 -0.796875 0.328125q-0.21875 0.328125 -0.234375 0.734375l0 7.015625l-1.5 0l0 -9.328125l1.40625 0zm12.793121 9.328125q-1.640625 0 -2.40625 -0.703125q-0.765625 -0.703125 -0.765625 -2.28125l0 -3.359375q0 -1.609375 0.6875 -2.296875q0.703125 -0.6875 2.296875 -0.6875l0.875 0q1.328125 0 2.0 0.734375q0.6875 0.734375 0.6875 2.15625l0 2.421875l-4.953125 0l0 1.40625q0 0.578125 0.34375 0.890625q0.359375 0.3125 1.046875 0.3125l2.96875 0l0 1.40625l-2.78125 0zm1.828125 -6.8125q0 -0.484375 -0.3125 -0.796875q-0.3125 -0.3125 -0.796875 -0.3125l-1.09375 0q-0.671875 0 -0.9375 0.3125q-0.265625 0.296875 -0.265625 0.890625l0 1.3125l3.40625 0l0 -1.40625z" fill-rule="nonzero"/><path fill="#000000" fill-opacity="0.0" d="m81.81102 82.83465l114.519684 0l0 129.85828l-114.519684 0z" fill-rule="evenodd"/><path stroke="#000000" stroke-width="2.0" stroke-linejoin="round" stroke-linecap="butt" d="m81.81102 82.83465l114.519684 0l0 129.85828l-114.519684 0z" fill-rule="evenodd"/><path fill="#000000" d="m117.254 146.66815q0 1.5 -0.796875 2.21875q-0.796875 0.71875 -2.359375 0.71875l-1.953125 0l0 5.078125l-1.625 0l0 -13.0625l3.53125 0q1.59375 0 2.390625 0.703125q0.8125 0.703125 0.8125 2.203125l0 2.140625zm-1.609375 -2.296875q0 -0.71875 -0.328125 -1.03125q-0.328125 -0.3125 -1.046875 -0.3125l-2.125 0l0 5.1875l2.125 0q0.71875 0 1.046875 -0.328125q0.328125 -0.328125 0.328125 -1.03125l0 -2.484375zm11.058746 10.3125q-0.25 0 -0.546875 -0.140625q-0.28125 -0.15625 -0.484375 -0.421875q-0.421875 0.5625 -1.140625 0.5625l-1.65625 0q-1.421875 0 -2.0625 -0.5625q-0.640625 -0.578125 -0.640625 -1.953125l0 -0.375q0 -2.890625 2.71875 -2.890625l2.3125 0l0 -0.9375q0 -0.578125 -0.359375 -0.890625q-0.34375 -0.3125 -1.03125 -0.3125l-2.890625 0l0 -1.40625l2.703125 0q1.625 0 2.390625 0.71875q0.78125 0.703125 0.78125 2.265625l0 4.484375q0 0.28125 0.203125 0.421875q0.21875 0.125 0.734375 0.125l0 1.3125l-1.03125 0zm-2.359375 -1.40625q0.5625 0 0.703125 -0.25q0.15625 -0.265625 0.15625 -0.671875l0 -2.0625l-2.328125 0q-0.484375 0 -0.8125 0.328125q-0.3125 0.3125 -0.3125 0.796875l0 0.9375q0 0.484375 0.21875 0.703125q0.234375 0.21875 0.71875 0.21875l1.65625 0zm13.371246 2.0625q0 1.265625 -0.765625 1.890625q-0.75 0.625 -2.359375 0.625l-3.875 0l0 -1.40625l4.0625 0q0.671875 0 1.0 -0.265625q0.34375 -0.25 0.34375 -0.65625l0 -0.59375q0 -0.4375 -0.34375 -0.6875q-0.328125 -0.25 -1.0 -0.25l-3.21875 0l0 -2.578125q-0.625 -0.328125 -0.921875 -0.96875q-0.296875 -0.640625 -0.296875 -1.640625l0 -0.46875q0 -1.5625 0.765625 -2.265625q0.78125 -0.71875 2.40625 -0.71875l3.921875 0l0 3.453125q0 1.390625 -0.765625 2.1875q-0.765625 0.796875 -2.03125 0.796875l-1.5 0l0 0.796875l1.453125 0q1.609375 0 2.359375 0.625q0.765625 0.625 0.765625 1.890625l0 0.234375zm-3.078125 -4.953125q0.578125 0 0.875 -0.359375q0.296875 -0.375 0.328125 -0.796875l0 -2.46875l-2.515625 0q-0.6875 0 -1.046875 0.3125q-0.359375 0.3125 -0.359375 0.890625l0 1.21875q0 0.578125 0.359375 0.890625q0.359375 0.3125 1.046875 0.3125l1.3125 0zm9.355621 4.296875q-1.640625 0 -2.40625 -0.703125q-0.765625 -0.703125 -0.765625 -2.28125l0 -3.359375q0 -1.609375 0.6875 -2.296875q0.703125 -0.6875 2.296875 -0.6875l0.875 0q1.328125 0 2.0 0.734375q0.6875 0.734375 0.6875 2.15625l0 2.421875l-4.953125 0l0 1.40625q0 0.578125 0.34375 0.890625q0.359375 0.3125 1.046875 0.3125l2.96875 0l0 1.40625l-2.78125 0zm1.828125 -6.8125q0 -0.484375 -0.3125 -0.796875q-0.3125 -0.3125 -0.796875 -0.3125l-1.09375 0q-0.671875 0 -0.9375 0.3125q-0.265625 0.296875 -0.265625 0.890625l0 1.3125l3.40625 0l0 -1.40625zm21.758118 3.640625q0 1.546875 -0.859375 2.359375q-0.84375 0.8125 -2.28125 0.8125l-0.375 0q-1.421875 0 -2.28125 -0.8125q-0.84375 -0.8125 -0.84375 -2.359375l0 -6.71875q0 -1.5625 0.828125 -2.359375q0.84375 -0.8125 2.296875 -0.8125l0.375 0q1.453125 0 2.296875 0.8125q0.84375 0.796875 0.84375 2.359375l0 6.71875zm-1.59375 -7.078125q0 -0.578125 -0.4375 -0.984375q-0.4375 -0.421875 -1.109375 -0.421875l-0.375 0q-0.671875 0 -1.109375 0.421875q-0.4375 0.40625 -0.4375 0.984375l0 5.0625l3.46875 -5.0625zm-3.46875 7.4375q0 0.578125 0.4375 1.0q0.4375 0.40625 1.109375 0.40625l0.375 0q0.671875 0 1.109375 -0.40625q0.4375 -0.421875 0.4375 -1.0l0 -5.046875l-3.46875 5.046875z" fill-rule="nonzero"/><path fill="#000000" fill-opacity="0.0" d="m268.59055 82.83465l114.519684 0l0 129.85828l-114.519684 0z" fill-rule="evenodd"/><path stroke="#000000" stroke-width="2.0" stroke-linejoin="round" stroke-linecap="butt" d="m268.59055 82.83465l114.519684 0l0 129.85828l-114.519684 0z" fill-rule="evenodd"/><path fill="#000000" d="m304.03354 146.66815q0 1.5 -0.796875 2.21875q-0.796875 0.71875 -2.359375 0.71875l-1.953125 0l0 5.078125l-1.625 0l0 -13.0625l3.53125 0q1.59375 0 2.390625 0.703125q0.8125 0.703125 0.8125 2.203125l0 2.140625zm-1.609375 -2.296875q0 -0.71875 -0.328125 -1.03125q-0.328125 -0.3125 -1.046875 -0.3125l-2.125 0l0 5.1875l2.125 0q0.71875 0 1.046875 -0.328125q0.328125 -0.328125 0.328125 -1.03125l0 -2.484375zm11.058746 10.3125q-0.25 0 -0.546875 -0.140625q-0.28125 -0.15625 -0.484375 -0.421875q-0.421875 0.5625 -1.140625 0.5625l-1.65625 0q-1.421875 0 -2.0625 -0.5625q-0.640625 -0.578125 -0.640625 -1.953125l0 -0.375q0 -2.890625 2.71875 -2.890625l2.3125 0l0 -0.9375q0 -0.578125 -0.359375 -0.890625q-0.34375 -0.3125 -1.03125 -0.3125l-2.890625 0l0 -1.40625l2.703125 0q1.625 0 2.390625 0.71875q0.78125 0.703125 0.78125 2.265625l0 4.484375q0 0.28125 0.203125 0.421875q0.21875 0.125 0.734375 0.125l0 1.3125l-1.03125 0zm-2.359375 -1.40625q0.5625 0 0.703125 -0.25q0.15625 -0.265625 0.15625 -0.671875l0 -2.0625l-2.328125 0q-0.484375 0 -0.8125 0.328125q-0.3125 0.3125 -0.3125 0.796875l0 0.9375q0 0.484375 0.21875 0.703125q0.234375 0.21875 0.71875 0.21875l1.65625 0zm13.371246 2.0625q0 1.265625 -0.765625 1.890625q-0.75 0.625 -2.359375 0.625l-3.875 0l0 -1.40625l4.0625 0q0.671875 0 1.0 -0.265625q0.34375 -0.25 0.34375 -0.65625l0 -0.59375q0 -0.4375 -0.34375 -0.6875q-0.328125 -0.25 -1.0 -0.25l-3.21875 0l0 -2.578125q-0.625 -0.328125 -0.921875 -0.96875q-0.296875 -0.640625 -0.296875 -1.640625l0 -0.46875q0 -1.5625 0.765625 -2.265625q0.78125 -0.71875 2.40625 -0.71875l3.921875 0l0 3.453125q0 1.390625 -0.765625 2.1875q-0.765625 0.796875 -2.03125 0.796875l-1.5 0l0 0.796875l1.453125 0q1.609375 0 2.359375 0.625q0.765625 0.625 0.765625 1.890625l0 0.234375zm-3.078125 -4.953125q0.578125 0 0.875 -0.359375q0.296875 -0.375 0.328125 -0.796875l0 -2.46875l-2.515625 0q-0.6875 0 -1.046875 0.3125q-0.359375 0.3125 -0.359375 0.890625l0 1.21875q0 0.578125 0.359375 0.890625q0.359375 0.3125 1.046875 0.3125l1.3125 0zm9.355621 4.296875q-1.640625 0 -2.40625 -0.703125q-0.765625 -0.703125 -0.765625 -2.28125l0 -3.359375q0 -1.609375 0.6875 -2.296875q0.703125 -0.6875 2.296875 -0.6875l0.875 0q1.328125 0 2.0 0.734375q0.6875 0.734375 0.6875 2.15625l0 2.421875l-4.953125 0l0 1.40625q0 0.578125 0.34375 0.890625q0.359375 0.3125 1.046875 0.3125l2.96875 0l0 1.40625l-2.78125 0zm1.828125 -6.8125q0 -0.484375 -0.3125 -0.796875q-0.3125 -0.3125 -0.796875 -0.3125l-1.09375 0q-0.671875 0 -0.9375 0.3125q-0.265625 0.296875 -0.265625 0.890625l0 1.3125l3.40625 0l0 -1.40625zm17.929993 5.40625l0 -10.171875l-2.625 0.96875l0 -1.515625l2.4375 -0.9375l1.78125 0l0 11.65625l2.03125 0l0 1.40625l-6.0625 0l0 -1.40625l2.4375 0z" fill-rule="nonzero"/><path fill="#000000" fill-opacity="0.0" d="m596.4934 82.83465l114.519714 0l0 129.85828l-114.519714 0z" fill-rule="evenodd"/><path stroke="#000000" stroke-width="2.0" stroke-linejoin="round" stroke-linecap="butt" d="m596.4934 82.83465l114.519714 0l0 129.85828l-114.519714 0z" fill-rule="evenodd"/><path fill="#000000" d="m631.9364 146.66815q0 1.5 -0.796875 2.21875q-0.796875 0.71875 -2.359375 0.71875l-1.953125 0l0 5.078125l-1.625 0l0 -13.0625l3.53125 0q1.59375 0 2.390625 0.703125q0.8125 0.703125 0.8125 2.203125l0 2.140625zm-1.609375 -2.296875q0 -0.71875 -0.328125 -1.03125q-0.328125 -0.3125 -1.046875 -0.3125l-2.125 0l0 5.1875l2.125 0q0.71875 0 1.046875 -0.328125q0.328125 -0.328125 0.328125 -1.03125l0 -2.484375zm11.058777 10.3125q-0.25 0 -0.546875 -0.140625q-0.28125 -0.15625 -0.484375 -0.421875q-0.421875 0.5625 -1.140625 0.5625l-1.65625 0q-1.421875 0 -2.0625 -0.5625q-0.640625 -0.578125 -0.640625 -1.953125l0 -0.375q0 -2.890625 2.71875 -2.890625l2.3125 0l0 -0.9375q0 -0.578125 -0.359375 -0.890625q-0.34375 -0.3125 -1.03125 -0.3125l-2.890625 0l0 -1.40625l2.703125 0q1.625 0 2.390625 0.71875q0.78125 0.703125 0.78125 2.265625l0 4.484375q0 0.28125 0.203125 0.421875q0.21875 0.125 0.734375 0.125l0 1.3125l-1.03125 0zm-2.359375 -1.40625q0.5625 0 0.703125 -0.25q0.15625 -0.265625 0.15625 -0.671875l0 -2.0625l-2.328125 0q-0.484375 0 -0.8125 0.328125q-0.3125 0.3125 -0.3125 0.796875l0 0.9375q0 0.484375 0.21875 0.703125q0.234375 0.21875 0.71875 0.21875l1.65625 0zm13.371216 2.0625q0 1.265625 -0.765625 1.890625q-0.75 0.625 -2.359375 0.625l-3.875 0l0 -1.40625l4.0625 0q0.671875 0 1.0 -0.265625q0.34375 -0.25 0.34375 -0.65625l0 -0.59375q0 -0.4375 -0.34375 -0.6875q-0.328125 -0.25 -1.0 -0.25l-3.21875 0l0 -2.578125q-0.625 -0.328125 -0.921875 -0.96875q-0.296875 -0.640625 -0.296875 -1.640625l0 -0.46875q0 -1.5625 0.765625 -2.265625q0.78125 -0.71875 2.40625 -0.71875l3.921875 0l0 3.453125q0 1.390625 -0.765625 2.1875q-0.765625 0.796875 -2.03125 0.796875l-1.5 0l0 0.796875l1.453125 0q1.609375 0 2.359375 0.625q0.765625 0.625 0.765625 1.890625l0 0.234375zm-3.078125 -4.953125q0.578125 0 0.875 -0.359375q0.296875 -0.375 0.328125 -0.796875l0 -2.46875l-2.515625 0q-0.6875 0 -1.046875 0.3125q-0.359375 0.3125 -0.359375 0.890625l0 1.21875q0 0.578125 0.359375 0.890625q0.359375 0.3125 1.046875 0.3125l1.3125 0zm9.355652 4.296875q-1.640625 0 -2.40625 -0.703125q-0.765625 -0.703125 -0.765625 -2.28125l0 -3.359375q0 -1.609375 0.6875 -2.296875q0.703125 -0.6875 2.296875 -0.6875l0.875 0q1.328125 0 2.0 0.734375q0.6875 0.734375 0.6875 2.15625l0 2.421875l-4.953125 0l0 1.40625q0 0.578125 0.34375 0.890625q0.359375 0.3125 1.046875 0.3125l2.96875 0l0 1.40625l-2.78125 0zm1.828125 -6.8125q0 -0.484375 -0.3125 -0.796875q-0.3125 -0.3125 -0.796875 -0.3125l-1.09375 0q-0.671875 0 -0.9375 0.3125q-0.265625 0.296875 -0.265625 0.890625l0 1.3125l3.40625 0l0 -1.40625zm16.383118 6.8125l-1.515625 0l0 -13.0625l2.65625 0l2.953125 11.6875l0 -11.6875l1.5 0l0 13.0625l-2.671875 0l-2.921875 -11.671875l0 11.671875z" fill-rule="nonzero"/><path fill="#000000" fill-opacity="0.0" d="m11.249344 148.28346l54.204727 0" fill-rule="evenodd"/><path stroke="#000000" stroke-width="2.0" stroke-linejoin="round" stroke-linecap="butt" d="m11.249344 148.28346l47.35055 0" fill-rule="evenodd"/><path fill="#000000" stroke="#000000" stroke-width="2.0" stroke-linecap="butt" d="m58.599895 148.28346l-2.2491684 2.249176l6.179535 -2.249176l-6.179535 -2.2491608z" fill-rule="evenodd"/><path fill="#000000" fill-opacity="0.0" d="m7.1548557 111.46457l62.3937 0l0 36.818893l-62.3937 0z" fill-rule="evenodd"/><path fill="#000000" d="m19.07673 132.97832l0 5.40625l-1.609375 0l0 -13.0625l3.5 0q1.59375 0 2.390625 0.703125q0.8125 0.703125 0.8125 2.203125l0 1.796875q0 2.109375 -1.671875 2.625l2.59375 5.734375l-1.78125 0l-2.40625 -5.40625l-1.828125 0zm3.484375 -4.90625q0 -0.71875 -0.328125 -1.03125q-0.328125 -0.3125 -1.046875 -0.3125l-2.109375 0l0 4.84375l2.109375 0q0.71875 0 1.046875 -0.328125q0.328125 -0.328125 0.328125 -1.03125l0 -2.140625zm6.3712463 10.3125l-1.75 0l3.25 -6.75l-2.953125 -6.3125l1.765625 0l2.0625 4.421875l2.124998 -4.421875l1.734375 0l-3.03125 6.296875l3.21875 6.765625l-1.828125 0l-2.234373 -4.90625l-2.359375 4.90625z" fill-rule="nonzero"/><path fill="#000000" fill-opacity="0.0" d="m15.343832 311.5433l54.20472 0" fill-rule="evenodd"/><path stroke="#000000" stroke-width="2.0" stroke-linejoin="round" stroke-linecap="butt" d="m15.343832 311.5433l47.350555 0" fill-rule="evenodd"/><path fill="#000000" stroke="#000000" stroke-width="2.0" stroke-linecap="butt" d="m62.69438 311.5433l-2.2491646 2.249176l6.179531 -2.249176l-6.179531 -2.249176z" fill-rule="evenodd"/><path fill="#000000" fill-opacity="0.0" d="m11.249344 274.7244l62.3937 0l0 36.81891l-62.3937 0z" fill-rule="evenodd"/><path fill="#000000" d="m24.468094 301.6444l0 -11.640625l-2.96875 0l0 -1.421875l7.5625 0l0 1.421875l-2.96875 0l0 11.640625l-1.625 0zm8.558746 0l-1.75 0l3.25 -6.75l-2.953125 -6.3125l1.765625 0l2.0625 4.421875l2.125 -4.421875l1.734375 0l-3.03125 6.296875l3.21875 6.765625l-1.828125 0l-2.234375 -4.90625l-2.359375 4.90625z" fill-rule="nonzero"/><path fill="#000000" fill-opacity="0.0" d="m81.81102 247.46457l114.519684 0l0 129.85828l-114.519684 0z" fill-rule="evenodd"/><path stroke="#000000" stroke-width="2.0" stroke-linejoin="round" stroke-linecap="butt" d="m81.81102 247.46457l114.519684 0l0 129.85828l-114.519684 0z" fill-rule="evenodd"/><path fill="#000000" d="m122.43181 305.36057q0 1.609375 -0.734375 2.28125q-0.734375 0.671875 -2.4375 0.671875l-3.84375 0l0 -13.0625l3.625 0q1.671875 0 2.53125 0.6875q0.859375 0.671875 0.859375 2.21875l0 7.203125zm-1.625 -7.359375q0 -0.625 -0.375 -0.984375q-0.375 -0.359375 -0.984375 -0.359375l-2.40625 0l0 10.25l2.390625 0q0.703125 0 1.03125 -0.3125q0.34375 -0.328125 0.34375 -1.046875l0 -7.546875zm9.996246 9.890625q-0.609375 0.421875 -1.484375 0.421875l-0.640625 0q-1.515625 0 -2.25 -0.703125q-0.734375 -0.71875 -0.734375 -2.28125l0 -6.34375l1.59375 0l0 6.71875q0 0.5625 0.3125 0.890625q0.328125 0.3125 0.890625 0.3125l1.015625 0q0.59375 0 0.875 -0.296875q0.296875 -0.296875 0.328125 -0.671875l0 -6.953125l1.59375 0l0 9.328125l-1.5 0l0 -0.421875zm5.4337463 -8.90625l0 0.421875q0.484375 -0.421875 1.15625 -0.421875l0.109375 0q1.3125 0 1.84375 0.75q0.625 -0.75 1.625 -0.75l0.109375 0q1.140625 0 1.671875 0.578125q0.546875 0.578125 0.546875 2.046875l0 6.703125l-1.484375 0l0 -6.71875q0 -0.765625 -0.15625 -1.0625q-0.15625 -0.296875 -0.71875 -0.296875l-0.109375 0q-0.5625 0 -0.78125 0.390625q-0.21875 0.375 -0.234375 0.84375l0 6.84375l-1.484375 0l0 -6.71875q0 -0.78125 -0.1875 -1.0625q-0.1875 -0.296875 -0.671875 -0.296875l-0.109375 0q-0.5625 0 -0.796875 0.328125q-0.21875 0.328125 -0.234375 0.734375l0 7.015625l-1.5 0l0 -9.328125l1.40625 0zm10.074371 0l0 0.421875q0.484375 -0.421875 1.15625 -0.421875l0.109375 0q1.3125 0 1.84375 0.75q0.625 -0.75 1.625 -0.75l0.109375 0q1.140625 0 1.671875 0.578125q0.546875 0.578125 0.546875 2.046875l0 6.703125l-1.484375 0l0 -6.71875q0 -0.765625 -0.15625 -1.0625q-0.15625 -0.296875 -0.71875 -0.296875l-0.109375 0q-0.5625 0 -0.78125 0.390625q-0.21875 0.375 -0.234375 0.84375l0 6.84375l-1.484375 0l0 -6.71875q0 -0.78125 -0.1875 -1.0625q-0.1875 -0.296875 -0.671875 -0.296875l-0.109375 0q-0.5625 0 -0.796875 0.328125q-0.21875 0.328125 -0.234375 0.734375l0 7.015625l-1.5 0l0 -9.328125l1.40625 0zm11.230621 11.09375q0.453125 0 0.671875 -0.171875q0.21875 -0.15625 0.328125 -0.5625l0.265625 -1.03125l-0.375 0l-3.078125 -9.328125l1.71875 0l2.328125 7.8125l2.03125 -7.8125l1.625 0l-2.890625 10.328125q-0.234375 0.953125 -0.59375 1.421875q-0.359375 0.46875 -0.796875 0.609375q-0.4375 0.140625 -1.125 0.140625l-0.890625 0l0 -1.40625l0.78125 0z" fill-rule="nonzero"/><path fill="#000000" d="m131.7093 323.0793l0 1.359375l-4.15625 0l0 5.875l-1.609375 0l0 -13.0625l6.21875 0l0 1.359375l-4.609375 0l0 4.46875l4.15625 0zm10.074371 0l0 1.359375l-4.15625 0l0 5.875l-1.609375 0l0 -13.0625l6.21875 0l0 1.359375l-4.609375 0l0 4.46875l4.15625 0zm5.5274963 -5.828125l0 4.109375q0.5625 -0.375 1.40625 -0.375l0.859375 0q1.515625 0 2.25 0.71875q0.734375 0.703125 0.734375 2.265625l0 6.34375l-1.59375 0l0 -6.71875q0 -0.5625 -0.328125 -0.875q-0.3125 -0.328125 -0.875 -0.328125l-1.234375 0q-0.59375 0 -0.890625 0.3125q-0.296875 0.296875 -0.328125 0.65625l0 6.953125l-1.578125 0l0 -13.0625l1.578125 0z" fill-rule="nonzero"/><path fill="#000000" fill-opacity="0.0" d="m268.59055 247.46457l114.519684 0l0 129.85828l-114.519684 0z" fill-rule="evenodd"/><path stroke="#000000" stroke-width="2.0" stroke-linejoin="round" stroke-linecap="butt" d="m268.59055 247.46457l114.519684 0l0 129.85828l-114.519684 0z" fill-rule="evenodd"/><path fill="#000000" d="m288.4748 291.90744l0 5.40625l-1.609375 0l0 -13.0625l3.5 0q1.59375 0 2.390625 0.703125q0.8125 0.703125 0.8125 2.203125l0 1.796875q0 2.109375 -1.671875 2.625l2.59375 5.734375l-1.78125 0l-2.40625 -5.40625l-1.828125 0zm3.484375 -4.90625q0 -0.71875 -0.328125 -1.03125q-0.328125 -0.3125 -1.046875 -0.3125l-2.109375 0l0 4.84375l2.109375 0q0.71875 0 1.046875 -0.328125q0.328125 -0.328125 0.328125 -1.03125l0 -2.140625zm8.589996 10.3125q-1.640625 0 -2.40625 -0.703125q-0.765625 -0.703125 -0.765625 -2.28125l0 -3.359375q0 -1.609375 0.6875 -2.296875q0.703125 -0.6875 2.296875 -0.6875l0.875 0q1.328125 0 2.0 0.734375q0.6875 0.734375 0.6875 2.15625l0 2.421875l-4.953125 0l0 1.40625q0 0.578125 0.34375 0.890625q0.359375 0.3125 1.046875 0.3125l2.96875 0l0 1.40625l-2.78125 0zm1.828125 -6.8125q0 -0.484375 -0.3125 -0.796875q-0.3125 -0.3125 -0.796875 -0.3125l-1.09375 0q-0.671875 0 -0.9375 0.3125q-0.265625 0.296875 -0.265625 0.890625l0 1.3125l3.40625 0l0 -1.40625zm11.199371 4.484375q0 1.171875 -0.71875 1.75q-0.71875 0.578125 -2.078125 0.578125l-2.78125 0l0 -1.40625l2.96875 0q0.5 0 0.75 -0.203125q0.265625 -0.21875 0.265625 -0.625l0 -1.0q0 -0.828125 -0.796875 -0.828125l-0.6875 0q-1.3125 0 -1.953125 -0.5625q-0.640625 -0.578125 -0.640625 -1.8125l0 -0.546875q0 -1.25 0.703125 -1.796875q0.71875 -0.546875 2.09375 -0.546875l2.5 0l0 1.40625l-2.6875 0q-0.46875 0 -0.75 0.21875q-0.28125 0.203125 -0.28125 0.609375l0 0.671875q0 0.4375 0.25 0.640625q0.265625 0.203125 0.65625 0.203125l0.625 0q1.25 0 1.90625 0.609375q0.65625 0.609375 0.65625 1.796875l0 0.84375zm5.3087463 -7.0l0 0.453125q0.578125 -0.453125 1.5 -0.453125l0.671875 0q1.640625 0 2.40625 0.703125q0.765625 0.703125 0.765625 2.28125l0 3.359375q0 1.5625 -0.78125 2.28125q-0.765625 0.703125 -2.390625 0.703125l-2.078125 0l0 3.171875l-1.578125 0l0 -12.5l1.484375 0zm1.3125 1.40625q-0.609375 0 -0.921875 0.328125q-0.296875 0.3125 -0.296875 0.6875l0 5.5l2.265625 0q0.6875 0 1.03125 -0.3125q0.359375 -0.3125 0.359375 -0.890625l0 -4.109375q0 -0.578125 -0.359375 -0.890625q-0.34375 -0.3125 -1.03125 -0.3125l-1.046875 0zm14.152496 4.9375q0 1.5625 -0.78125 2.28125q-0.765625 0.703125 -2.390625 0.703125l-0.609375 0q-1.625 0 -2.40625 -0.703125q-0.765625 -0.71875 -0.765625 -2.28125l0 -3.359375q0 -1.5625 0.765625 -2.265625q0.78125 -0.71875 2.40625 -0.71875l0.609375 0q1.625 0 2.390625 0.71875q0.78125 0.703125 0.78125 2.265625l0 3.359375zm-1.578125 -3.734375q0 -0.578125 -0.359375 -0.890625q-0.34375 -0.3125 -1.046875 -0.3125l-0.984375 0q-0.6875 0 -1.046875 0.3125q-0.34375 0.3125 -0.34375 0.890625l0 4.109375q0 0.578125 0.34375 0.890625q0.359375 0.3125 1.046875 0.3125l0.984375 0q0.703125 0 1.046875 -0.3125q0.359375 -0.3125 0.359375 -0.890625l0 -4.109375zm6.2618713 -2.609375l0 0.453125q0.578125 -0.453125 1.5 -0.453125l0.859375 0q1.515625 0 2.25 0.71875q0.734375 0.703125 0.734375 2.265625l0 6.34375l-1.59375 0l0 -6.71875q0 -0.5625 -0.328125 -0.875q-0.3125 -0.328125 -0.875 -0.328125l-1.234375 0q-0.609375 0 -0.921875 0.328125q-0.296875 0.3125 -0.296875 0.6875l0 6.90625l-1.578125 0l0 -9.328125l1.484375 0zm14.839996 7.0q0 1.171875 -0.71875 1.75q-0.71875 0.578125 -2.078125 0.578125l-2.78125 0l0 -1.40625l2.96875 0q0.5 0 0.75 -0.203125q0.265625 -0.21875 0.265625 -0.625l0 -1.0q0 -0.828125 -0.796875 -0.828125l-0.6875 0q-1.3125 0 -1.953125 -0.5625q-0.640625 -0.578125 -0.640625 -1.8125l0 -0.546875q0 -1.25 0.703125 -1.796875q0.71875 -0.546875 2.09375 -0.546875l2.5 0l0 1.40625l-2.6875 0q-0.46875 0 -0.75 0.21875q-0.28125 0.203125 -0.28125 0.609375l0 0.671875q0 0.4375 0.25 0.640625q0.265625 0.203125 0.65625 0.203125l0.625 0q1.25 0 1.90625 0.609375q0.65625 0.609375 0.65625 1.796875l0 0.84375zm7.1212463 2.328125q-1.640625 0 -2.40625 -0.703125q-0.765625 -0.703125 -0.765625 -2.28125l0 -3.359375q0 -1.609375 0.6875 -2.296875q0.703125 -0.6875 2.296875 -0.6875l0.875 0q1.328125 0 2.0 0.734375q0.6875 0.734375 0.6875 2.15625l0 2.421875l-4.953125 0l0 1.40625q0 0.578125 0.34375 0.890625q0.359375 0.3125 1.046875 0.3125l2.96875 0l0 1.40625l-2.78125 0zm1.828125 -6.8125q0 -0.484375 -0.3125 -0.796875q-0.3125 -0.3125 -0.796875 -0.3125l-1.09375 0q-0.671875 0 -0.9375 0.3125q-0.265625 0.296875 -0.265625 0.890625l0 1.3125l3.40625 0l0 -1.40625z" fill-rule="nonzero"/><path fill="#000000" d="m299.13696 316.36057q0 1.609375 -0.734375 2.28125q-0.734375 0.671875 -2.4375 0.671875l-3.84375 0l0 -13.0625l3.625 0q1.671875 0 2.53125 0.6875q0.859375 0.671875 0.859375 2.21875l0 7.203125zm-1.625 -7.359375q0 -0.625 -0.375 -0.984375q-0.375 -0.359375 -0.984375 -0.359375l-2.40625 0l0 10.25l2.390625 0q0.703125 0 1.03125 -0.3125q0.34375 -0.328125 0.34375 -1.046875l0 -7.546875zm10.933746 10.3125q-0.25 0 -0.546875 -0.140625q-0.28125 -0.15625 -0.484375 -0.421875q-0.421875 0.5625 -1.140625 0.5625l-1.65625 0q-1.421875 0 -2.0625 -0.5625q-0.640625 -0.578125 -0.640625 -1.953125l0 -0.375q0 -2.890625 2.71875 -2.890625l2.3125 0l0 -0.9375q0 -0.578125 -0.359375 -0.890625q-0.34375 -0.3125 -1.03125 -0.3125l-2.890625 0l0 -1.40625l2.703125 0q1.625 0 2.390625 0.71875q0.78125 0.703125 0.78125 2.265625l0 4.484375q0 0.28125 0.203125 0.421875q0.21875 0.125 0.734375 0.125l0 1.3125l-1.03125 0zm-2.359375 -1.40625q0.5625 0 0.703125 -0.25q0.15625 -0.265625 0.15625 -0.671875l0 -2.0625l-2.328125 0q-0.484375 0 -0.8125 0.328125q-0.3125 0.3125 -0.3125 0.796875l0 0.9375q0 0.484375 0.21875 0.703125q0.234375 0.21875 0.71875 0.21875l1.65625 0zm10.386871 1.40625q-0.953125 0 -1.46875 -0.609375q-0.5 -0.625 -0.5 -1.625l0 -5.6875l-1.765625 0l0 -1.40625l1.765625 0l0 -2.234375l1.59375 0l0 2.234375l2.71875 0l0 1.40625l-2.71875 0l0 5.78125q0 0.40625 0.203125 0.578125q0.203125 0.15625 0.625 0.15625l1.890625 0l0 1.40625l-2.34375 0zm12.121246 0q-0.25 0 -0.546875 -0.140625q-0.28125 -0.15625 -0.484375 -0.421875q-0.421875 0.5625 -1.140625 0.5625l-1.65625 0q-1.421875 0 -2.0625 -0.5625q-0.640625 -0.578125 -0.640625 -1.953125l0 -0.375q0 -2.890625 2.71875 -2.890625l2.3125 0l0 -0.9375q0 -0.578125 -0.359375 -0.890625q-0.34375 -0.3125 -1.03125 -0.3125l-2.890625 0l0 -1.40625l2.703125 0q1.625 0 2.390625 0.71875q0.78125 0.703125 0.78125 2.265625l0 4.484375q0 0.28125 0.203125 0.421875q0.21875 0.125 0.734375 0.125l0 1.3125l-1.03125 0zm-2.359375 -1.40625q0.5625 0 0.703125 -0.25q0.15625 -0.265625 0.15625 -0.671875l0 -2.0625l-2.328125 0q-0.484375 0 -0.8125 0.328125q-0.3125 0.3125 -0.3125 0.796875l0 0.9375q0 0.484375 0.21875 0.703125q0.234375 0.21875 0.71875 0.21875l1.65625 0zm23.226868 -1.578125q0 1.5625 -0.78125 2.28125q-0.765625 0.703125 -2.390625 0.703125l-0.609375 0q-1.625 0 -2.40625 -0.703125q-0.765625 -0.71875 -0.765625 -2.28125l0 -3.359375q0 -1.5625 0.765625 -2.265625q0.78125 -0.71875 2.40625 -0.71875l0.609375 0q1.625 0 2.390625 0.71875q0.78125 0.703125 0.78125 2.265625l0 3.359375zm-1.578125 -3.734375q0 -0.578125 -0.359375 -0.890625q-0.34375 -0.3125 -1.046875 -0.3125l-0.984375 0q-0.6875 0 -1.046875 0.3125q-0.34375 0.3125 -0.34375 0.890625l0 4.109375q0 0.578125 0.34375 0.890625q0.359375 0.3125 1.046875 0.3125l0.984375 0q0.703125 0 1.046875 -0.3125q0.359375 -0.3125 0.359375 -0.890625l0 -4.109375zm8.824371 -4.9375q-0.296875 0 -0.484375 0.15625q-0.171875 0.15625 -0.171875 0.40625l0 1.765625l3.0 0l0 1.40625l-3.0 0l0 6.515625l2.265625 0l0 1.40625l-5.4375 0l0 -1.40625l1.59375 0l0 -6.515625l-1.59375 0l0 -1.40625l1.59375 0l0 -1.671875q0 -0.953125 0.53125 -1.5q0.546875 -0.5625 1.40625 -0.5625l2.828125 0l0 1.40625l-2.53125 0z" fill-rule="nonzero"/><path fill="#000000" d="m304.03354 333.29807q0 1.5 -0.796875 2.21875q-0.796875 0.71875 -2.359375 0.71875l-1.953125 0l0 5.078125l-1.625 0l0 -13.0625l3.53125 0q1.59375 0 2.390625 0.703125q0.8125 0.703125 0.8125 2.203125l0 2.140625zm-1.609375 -2.296875q0 -0.71875 -0.328125 -1.03125q-0.328125 -0.3125 -1.046875 -0.3125l-2.125 0l0 5.1875l2.125 0q0.71875 0 1.046875 -0.328125q0.328125 -0.328125 0.328125 -1.03125l0 -2.484375zm11.058746 10.3125q-0.25 0 -0.546875 -0.140625q-0.28125 -0.15625 -0.484375 -0.421875q-0.421875 0.5625 -1.140625 0.5625l-1.65625 0q-1.421875 0 -2.0625 -0.5625q-0.640625 -0.578125 -0.640625 -1.953125l0 -0.375q0 -2.890625 2.71875 -2.890625l2.3125 0l0 -0.9375q0 -0.578125 -0.359375 -0.890625q-0.34375 -0.3125 -1.03125 -0.3125l-2.890625 0l0 -1.40625l2.703125 0q1.625 0 2.390625 0.71875q0.78125 0.703125 0.78125 2.265625l0 4.484375q0 0.28125 0.203125 0.421875q0.21875 0.125 0.734375 0.125l0 1.3125l-1.03125 0zm-2.359375 -1.40625q0.5625 0 0.703125 -0.25q0.15625 -0.265625 0.15625 -0.671875l0 -2.0625l-2.328125 0q-0.484375 0 -0.8125 0.328125q-0.3125 0.3125 -0.3125 0.796875l0 0.9375q0 0.484375 0.21875 0.703125q0.234375 0.21875 0.71875 0.21875l1.65625 0zm13.371246 2.0625q0 1.265625 -0.765625 1.890625q-0.75 0.625 -2.359375 0.625l-3.875 0l0 -1.40625l4.0625 0q0.671875 0 1.0 -0.265625q0.34375 -0.25 0.34375 -0.65625l0 -0.59375q0 -0.4375 -0.34375 -0.6875q-0.328125 -0.25 -1.0 -0.25l-3.21875 0l0 -2.578125q-0.625 -0.328125 -0.921875 -0.96875q-0.296875 -0.640625 -0.296875 -1.640625l0 -0.46875q0 -1.5625 0.765625 -2.265625q0.78125 -0.71875 2.40625 -0.71875l3.921875 0l0 3.453125q0 1.390625 -0.765625 2.1875q-0.765625 0.796875 -2.03125 0.796875l-1.5 0l0 0.796875l1.453125 0q1.609375 0 2.359375 0.625q0.765625 0.625 0.765625 1.890625l0 0.234375zm-3.078125 -4.953125q0.578125 0 0.875 -0.359375q0.296875 -0.375 0.328125 -0.796875l0 -2.46875l-2.515625 0q-0.6875 0 -1.046875 0.3125q-0.359375 0.3125 -0.359375 0.890625l0 1.21875q0 0.578125 0.359375 0.890625q0.359375 0.3125 1.046875 0.3125l1.3125 0zm9.355621 4.296875q-1.640625 0 -2.40625 -0.703125q-0.765625 -0.703125 -0.765625 -2.28125l0 -3.359375q0 -1.609375 0.6875 -2.296875q0.703125 -0.6875 2.296875 -0.6875l0.875 0q1.328125 0 2.0 0.734375q0.6875 0.734375 0.6875 2.15625l0 2.421875l-4.953125 0l0 1.40625q0 0.578125 0.34375 0.890625q0.359375 0.3125 1.046875 0.3125l2.96875 0l0 1.40625l-2.78125 0zm1.828125 -6.8125q0 -0.484375 -0.3125 -0.796875q-0.3125 -0.3125 -0.796875 -0.3125l-1.09375 0q-0.671875 0 -0.9375 0.3125q-0.265625 0.296875 -0.265625 0.890625l0 1.3125l3.40625 0l0 -1.40625zm21.758118 3.640625q0 1.546875 -0.859375 2.359375q-0.84375 0.8125 -2.28125 0.8125l-0.375 0q-1.421875 0 -2.28125 -0.8125q-0.84375 -0.8125 -0.84375 -2.359375l0 -6.71875q0 -1.5625 0.828125 -2.359375q0.84375 -0.8125 2.296875 -0.8125l0.375 0q1.453125 0 2.296875 0.8125q0.84375 0.796875 0.84375 2.359375l0 6.71875zm-1.59375 -7.078125q0 -0.578125 -0.4375 -0.984375q-0.4375 -0.421875 -1.109375 -0.421875l-0.375 0q-0.671875 0 -1.109375 0.421875q-0.4375 0.40625 -0.4375 0.984375l0 5.0625l3.46875 -5.0625zm-3.46875 7.4375q0 0.578125 0.4375 1.0q0.4375 0.40625 1.109375 0.40625l0.375 0q0.671875 0 1.109375 -0.40625q0.4375 -0.421875 0.4375 -1.0l0 -5.046875l-3.46875 5.046875z" fill-rule="nonzero"/><path fill="#000000" fill-opacity="0.0" d="m596.4934 247.46457l114.519714 0l0 129.85828l-114.519714 0z" fill-rule="evenodd"/><path stroke="#000000" stroke-width="2.0" stroke-linejoin="round" stroke-linecap="butt" d="m596.4934 247.46457l114.519714 0l0 129.85828l-114.519714 0z" fill-rule="evenodd"/><path fill="#000000" d="m616.3777 291.90744l0 5.40625l-1.609375 0l0 -13.0625l3.5 0q1.59375 0 2.390625 0.703125q0.8125 0.703125 0.8125 2.203125l0 1.796875q0 2.109375 -1.671875 2.625l2.59375 5.734375l-1.78125 0l-2.40625 -5.40625l-1.828125 0zm3.484375 -4.90625q0 -0.71875 -0.328125 -1.03125q-0.328125 -0.3125 -1.046875 -0.3125l-2.109375 0l0 4.84375l2.109375 0q0.71875 0 1.046875 -0.328125q0.328125 -0.328125 0.328125 -1.03125l0 -2.140625zm8.589966 10.3125q-1.640625 0 -2.40625 -0.703125q-0.765625 -0.703125 -0.765625 -2.28125l0 -3.359375q0 -1.609375 0.6875 -2.296875q0.703125 -0.6875 2.296875 -0.6875l0.875 0q1.328125 0 2.0 0.734375q0.6875 0.734375 0.6875 2.15625l0 2.421875l-4.953125 0l0 1.40625q0 0.578125 0.34375 0.890625q0.359375 0.3125 1.046875 0.3125l2.96875 0l0 1.40625l-2.78125 0zm1.828125 -6.8125q0 -0.484375 -0.3125 -0.796875q-0.3125 -0.3125 -0.796875 -0.3125l-1.09375 0q-0.671875 0 -0.9375 0.3125q-0.265625 0.296875 -0.265625 0.890625l0 1.3125l3.40625 0l0 -1.40625zm11.199402 4.484375q0 1.171875 -0.71875 1.75q-0.71875 0.578125 -2.078125 0.578125l-2.78125 0l0 -1.40625l2.96875 0q0.5 0 0.75 -0.203125q0.265625 -0.21875 0.265625 -0.625l0 -1.0q0 -0.828125 -0.796875 -0.828125l-0.6875 0q-1.3125 0 -1.953125 -0.5625q-0.640625 -0.578125 -0.640625 -1.8125l0 -0.546875q0 -1.25 0.703125 -1.796875q0.71875 -0.546875 2.09375 -0.546875l2.5 0l0 1.40625l-2.6875 0q-0.46875 0 -0.75 0.21875q-0.28125 0.203125 -0.28125 0.609375l0 0.671875q0 0.4375 0.25 0.640625q0.265625 0.203125 0.65625 0.203125l0.625 0q1.25 0 1.90625 0.609375q0.65625 0.609375 0.65625 1.796875l0 0.84375zm5.308716 -7.0l0 0.453125q0.578125 -0.453125 1.5 -0.453125l0.671875 0q1.640625 0 2.40625 0.703125q0.765625 0.703125 0.765625 2.28125l0 3.359375q0 1.5625 -0.78125 2.28125q-0.765625 0.703125 -2.390625 0.703125l-2.078125 0l0 3.171875l-1.578125 0l0 -12.5l1.484375 0zm1.3125 1.40625q-0.609375 0 -0.921875 0.328125q-0.296875 0.3125 -0.296875 0.6875l0 5.5l2.265625 0q0.6875 0 1.03125 -0.3125q0.359375 -0.3125 0.359375 -0.890625l0 -4.109375q0 -0.578125 -0.359375 -0.890625q-0.34375 -0.3125 -1.03125 -0.3125l-1.046875 0zm14.152527 4.9375q0 1.5625 -0.78125 2.28125q-0.765625 0.703125 -2.390625 0.703125l-0.609375 0q-1.625 0 -2.40625 -0.703125q-0.765625 -0.71875 -0.765625 -2.28125l0 -3.359375q0 -1.5625 0.765625 -2.265625q0.78125 -0.71875 2.40625 -0.71875l0.609375 0q1.625 0 2.390625 0.71875q0.78125 0.703125 0.78125 2.265625l0 3.359375zm-1.578125 -3.734375q0 -0.578125 -0.359375 -0.890625q-0.34375 -0.3125 -1.046875 -0.3125l-0.984375 0q-0.6875 0 -1.046875 0.3125q-0.34375 0.3125 -0.34375 0.890625l0 4.109375q0 0.578125 0.34375 0.890625q0.359375 0.3125 1.046875 0.3125l0.984375 0q0.703125 0 1.046875 -0.3125q0.359375 -0.3125 0.359375 -0.890625l0 -4.109375zm6.261841 -2.609375l0 0.453125q0.578125 -0.453125 1.5 -0.453125l0.859375 0q1.515625 0 2.25 0.71875q0.734375 0.703125 0.734375 2.265625l0 6.34375l-1.59375 0l0 -6.71875q0 -0.5625 -0.328125 -0.875q-0.3125 -0.328125 -0.875 -0.328125l-1.234375 0q-0.609375 0 -0.921875 0.328125q-0.296875 0.3125 -0.296875 0.6875l0 6.90625l-1.578125 0l0 -9.328125l1.484375 0zm14.840027 7.0q0 1.171875 -0.71875 1.75q-0.71875 0.578125 -2.078125 0.578125l-2.78125 0l0 -1.40625l2.96875 0q0.5 0 0.75 -0.203125q0.265625 -0.21875 0.265625 -0.625l0 -1.0q0 -0.828125 -0.796875 -0.828125l-0.6875 0q-1.3125 0 -1.953125 -0.5625q-0.640625 -0.578125 -0.640625 -1.8125l0 -0.546875q0 -1.25 0.703125 -1.796875q0.71875 -0.546875 2.09375 -0.546875l2.5 0l0 1.40625l-2.6875 0q-0.46875 0 -0.75 0.21875q-0.28125 0.203125 -0.28125 0.609375l0 0.671875q0 0.4375 0.25 0.640625q0.265625 0.203125 0.65625 0.203125l0.625 0q1.25 0 1.90625 0.609375q0.65625 0.609375 0.65625 1.796875l0 0.84375zm7.121216 2.328125q-1.640625 0 -2.40625 -0.703125q-0.765625 -0.703125 -0.765625 -2.28125l0 -3.359375q0 -1.609375 0.6875 -2.296875q0.703125 -0.6875 2.296875 -0.6875l0.875 0q1.328125 0 2.0 0.734375q0.6875 0.734375 0.6875 2.15625l0 2.421875l-4.953125 0l0 1.40625q0 0.578125 0.34375 0.890625q0.359375 0.3125 1.046875 0.3125l2.96875 0l0 1.40625l-2.78125 0zm1.828125 -6.8125q0 -0.484375 -0.3125 -0.796875q-0.3125 -0.3125 -0.796875 -0.3125l-1.09375 0q-0.671875 0 -0.9375 0.3125q-0.265625 0.296875 -0.265625 0.890625l0 1.3125l3.40625 0l0 -1.40625z" fill-rule="nonzero"/><path fill="#000000" d="m627.03986 316.36057q0 1.609375 -0.734375 2.28125q-0.734375 0.671875 -2.4375 0.671875l-3.84375 0l0 -13.0625l3.625 0q1.671875 0 2.53125 0.6875q0.859375 0.671875 0.859375 2.21875l0 7.203125zm-1.625 -7.359375q0 -0.625 -0.375 -0.984375q-0.375 -0.359375 -0.984375 -0.359375l-2.40625 0l0 10.25l2.390625 0q0.703125 0 1.03125 -0.3125q0.34375 -0.328125 0.34375 -1.046875l0 -7.546875zm10.933716 10.3125q-0.25 0 -0.546875 -0.140625q-0.28125 -0.15625 -0.484375 -0.421875q-0.421875 0.5625 -1.140625 0.5625l-1.65625 0q-1.421875 0 -2.0625 -0.5625q-0.640625 -0.578125 -0.640625 -1.953125l0 -0.375q0 -2.890625 2.71875 -2.890625l2.3125 0l0 -0.9375q0 -0.578125 -0.359375 -0.890625q-0.34375 -0.3125 -1.03125 -0.3125l-2.890625 0l0 -1.40625l2.703125 0q1.625 0 2.390625 0.71875q0.78125 0.703125 0.78125 2.265625l0 4.484375q0 0.28125 0.203125 0.421875q0.21875 0.125 0.734375 0.125l0 1.3125l-1.03125 0zm-2.359375 -1.40625q0.5625 0 0.703125 -0.25q0.15625 -0.265625 0.15625 -0.671875l0 -2.0625l-2.328125 0q-0.484375 0 -0.8125 0.328125q-0.3125 0.3125 -0.3125 0.796875l0 0.9375q0 0.484375 0.21875 0.703125q0.234375 0.21875 0.71875 0.21875l1.65625 0zm10.386902 1.40625q-0.953125 0 -1.46875 -0.609375q-0.5 -0.625 -0.5 -1.625l0 -5.6875l-1.765625 0l0 -1.40625l1.765625 0l0 -2.234375l1.59375 0l0 2.234375l2.71875 0l0 1.40625l-2.71875 0l0 5.78125q0 0.40625 0.203125 0.578125q0.203125 0.15625 0.625 0.15625l1.890625 0l0 1.40625l-2.34375 0zm12.121216 0q-0.25 0 -0.546875 -0.140625q-0.28125 -0.15625 -0.484375 -0.421875q-0.421875 0.5625 -1.140625 0.5625l-1.65625 0q-1.421875 0 -2.0625 -0.5625q-0.640625 -0.578125 -0.640625 -1.953125l0 -0.375q0 -2.890625 2.71875 -2.890625l2.3125 0l0 -0.9375q0 -0.578125 -0.359375 -0.890625q-0.34375 -0.3125 -1.03125 -0.3125l-2.890625 0l0 -1.40625l2.703125 0q1.625 0 2.390625 0.71875q0.78125 0.703125 0.78125 2.265625l0 4.484375q0 0.28125 0.203125 0.421875q0.21875 0.125 0.734375 0.125l0 1.3125l-1.03125 0zm-2.359375 -1.40625q0.5625 0 0.703125 -0.25q0.15625 -0.265625 0.15625 -0.671875l0 -2.0625l-2.328125 0q-0.484375 0 -0.8125 0.328125q-0.3125 0.3125 -0.3125 0.796875l0 0.9375q0 0.484375 0.21875 0.703125q0.234375 0.21875 0.71875 0.21875l1.65625 0zm23.226868 -1.578125q0 1.5625 -0.78125 2.28125q-0.765625 0.703125 -2.390625 0.703125l-0.609375 0q-1.625 0 -2.40625 -0.703125q-0.765625 -0.71875 -0.765625 -2.28125l0 -3.359375q0 -1.5625 0.765625 -2.265625q0.78125 -0.71875 2.40625 -0.71875l0.609375 0q1.625 0 2.390625 0.71875q0.78125 0.703125 0.78125 2.265625l0 3.359375zm-1.578125 -3.734375q0 -0.578125 -0.359375 -0.890625q-0.34375 -0.3125 -1.046875 -0.3125l-0.984375 0q-0.6875 0 -1.046875 0.3125q-0.34375 0.3125 -0.34375 0.890625l0 4.109375q0 0.578125 0.34375 0.890625q0.359375 0.3125 1.046875 0.3125l0.984375 0q0.703125 0 1.046875 -0.3125q0.359375 -0.3125 0.359375 -0.890625l0 -4.109375zm8.824402 -4.9375q-0.296875 0 -0.484375 0.15625q-0.171875 0.15625 -0.171875 0.40625l0 1.765625l3.0 0l0 1.40625l-3.0 0l0 6.515625l2.265625 0l0 1.40625l-5.4375 0l0 -1.40625l1.59375 0l0 -6.515625l-1.59375 0l0 -1.40625l1.59375 0l0 -1.671875q0 -0.953125 0.53125 -1.5q0.546875 -0.5625 1.40625 -0.5625l2.828125 0l0 1.40625l-2.53125 0z" fill-rule="nonzero"/><path fill="#000000" d="m621.86206 333.29807q0 1.5 -0.796875 2.21875q-0.796875 0.71875 -2.359375 0.71875l-1.953125 0l0 5.078125l-1.625 0l0 -13.0625l3.53125 0q1.59375 0 2.390625 0.703125q0.8125 0.703125 0.8125 2.203125l0 2.140625zm-1.609375 -2.296875q0 -0.71875 -0.328125 -1.03125q-0.328125 -0.3125 -1.046875 -0.3125l-2.125 0l0 5.1875l2.125 0q0.71875 0 1.046875 -0.328125q0.328125 -0.328125 0.328125 -1.03125l0 -2.484375zm11.058716 10.3125q-0.25 0 -0.546875 -0.140625q-0.28125 -0.15625 -0.484375 -0.421875q-0.421875 0.5625 -1.140625 0.5625l-1.65625 0q-1.421875 0 -2.0625 -0.5625q-0.640625 -0.578125 -0.640625 -1.953125l0 -0.375q0 -2.890625 2.71875 -2.890625l2.3125 0l0 -0.9375q0 -0.578125 -0.359375 -0.890625q-0.34375 -0.3125 -1.03125 -0.3125l-2.890625 0l0 -1.40625l2.703125 0q1.625 0 2.390625 0.71875q0.78125 0.703125 0.78125 2.265625l0 4.484375q0 0.28125 0.203125 0.421875q0.21875 0.125 0.734375 0.125l0 1.3125l-1.03125 0zm-2.359375 -1.40625q0.5625 0 0.703125 -0.25q0.15625 -0.265625 0.15625 -0.671875l0 -2.0625l-2.328125 0q-0.484375 0 -0.8125 0.328125q-0.3125 0.3125 -0.3125 0.796875l0 0.9375q0 0.484375 0.21875 0.703125q0.234375 0.21875 0.71875 0.21875l1.65625 0zm13.371277 2.0625q0 1.265625 -0.765625 1.890625q-0.75 0.625 -2.359375 0.625l-3.875 0l0 -1.40625l4.0625 0q0.671875 0 1.0 -0.265625q0.34375 -0.25 0.34375 -0.65625l0 -0.59375q0 -0.4375 -0.34375 -0.6875q-0.328125 -0.25 -1.0 -0.25l-3.21875 0l0 -2.578125q-0.625 -0.328125 -0.921875 -0.96875q-0.296875 -0.640625 -0.296875 -1.640625l0 -0.46875q0 -1.5625 0.765625 -2.265625q0.78125 -0.71875 2.40625 -0.71875l3.921875 0l0 3.453125q0 1.390625 -0.765625 2.1875q-0.765625 0.796875 -2.03125 0.796875l-1.5 0l0 0.796875l1.453125 0q1.609375 0 2.359375 0.625q0.765625 0.625 0.765625 1.890625l0 0.234375zm-3.078125 -4.953125q0.578125 0 0.875 -0.359375q0.296875 -0.375 0.328125 -0.796875l0 -2.46875l-2.515625 0q-0.6875 0 -1.046875 0.3125q-0.359375 0.3125 -0.359375 0.890625l0 1.21875q0 0.578125 0.359375 0.890625q0.359375 0.3125 1.046875 0.3125l1.3125 0zm9.355591 4.296875q-1.640625 0 -2.40625 -0.703125q-0.765625 -0.703125 -0.765625 -2.28125l0 -3.359375q0 -1.609375 0.6875 -2.296875q0.703125 -0.6875 2.296875 -0.6875l0.875 0q1.328125 0 2.0 0.734375q0.6875 0.734375 0.6875 2.15625l0 2.421875l-4.953125 0l0 1.40625q0 0.578125 0.34375 0.890625q0.359375 0.3125 1.046875 0.3125l2.96875 0l0 1.40625l-2.78125 0zm1.828125 -6.8125q0 -0.484375 -0.3125 -0.796875q-0.3125 -0.3125 -0.796875 -0.3125l-1.09375 0q-0.671875 0 -0.9375 0.3125q-0.265625 0.296875 -0.265625 0.890625l0 1.3125l3.40625 0l0 -1.40625zm16.383118 6.8125l-1.515625 0l0 -13.0625l2.65625 0l2.953125 11.6875l0 -11.6875l1.5 0l0 13.0625l-2.671875 0l-2.921875 -11.671875l0 11.671875zm15.152527 -6.53125l0 1.40625l-6.0625 0l0 -1.40625l6.0625 0zm6.543091 5.125l0 -10.171875l-2.625 0.96875l0 -1.515625l2.4375 -0.9375l1.78125 0l0 11.65625l2.03125 0l0 1.40625l-6.0625 0l0 -1.40625l2.4375 0z" fill-rule="nonzero"/><path fill="#000000" fill-opacity="0.0" d="m764.86615 247.46457l114.51965 0l0 129.85828l-114.51965 0z" fill-rule="evenodd"/><path stroke="#000000" stroke-width="2.0" stroke-linejoin="round" stroke-linecap="butt" d="m764.86615 247.46457l114.51965 0l0 129.85828l-114.51965 0z" fill-rule="evenodd"/><path fill="#000000" d="m784.75037 291.90744l0 5.40625l-1.609375 0l0 -13.0625l3.5 0q1.59375 0 2.390625 0.703125q0.8125 0.703125 0.8125 2.203125l0 1.796875q0 2.109375 -1.671875 2.625l2.59375 5.734375l-1.78125 0l-2.40625 -5.40625l-1.828125 0zm3.484375 -4.90625q0 -0.71875 -0.328125 -1.03125q-0.328125 -0.3125 -1.046875 -0.3125l-2.109375 0l0 4.84375l2.109375 0q0.71875 0 1.046875 -0.328125q0.328125 -0.328125 0.328125 -1.03125l0 -2.140625zm8.590027 10.3125q-1.640625 0 -2.40625 -0.703125q-0.765625 -0.703125 -0.765625 -2.28125l0 -3.359375q0 -1.609375 0.6875 -2.296875q0.703125 -0.6875 2.296875 -0.6875l0.875 0q1.328125 0 2.0 0.734375q0.6875 0.734375 0.6875 2.15625l0 2.421875l-4.953125 0l0 1.40625q0 0.578125 0.34375 0.890625q0.359375 0.3125 1.046875 0.3125l2.96875 0l0 1.40625l-2.78125 0zm1.828125 -6.8125q0 -0.484375 -0.3125 -0.796875q-0.3125 -0.3125 -0.796875 -0.3125l-1.09375 0q-0.671875 0 -0.9375 0.3125q-0.265625 0.296875 -0.265625 0.890625l0 1.3125l3.40625 0l0 -1.40625zm11.199341 4.484375q0 1.171875 -0.71875 1.75q-0.71875 0.578125 -2.078125 0.578125l-2.78125 0l0 -1.40625l2.96875 0q0.5 0 0.75 -0.203125q0.265625 -0.21875 0.265625 -0.625l0 -1.0q0 -0.828125 -0.796875 -0.828125l-0.6875 0q-1.3125 0 -1.953125 -0.5625q-0.640625 -0.578125 -0.640625 -1.8125l0 -0.546875q0 -1.25 0.703125 -1.796875q0.71875 -0.546875 2.09375 -0.546875l2.5 0l0 1.40625l-2.6875 0q-0.46875 0 -0.75 0.21875q-0.28125 0.203125 -0.28125 0.609375l0 0.671875q0 0.4375 0.25 0.640625q0.265625 0.203125 0.65625 0.203125l0.625 0q1.25 0 1.90625 0.609375q0.65625 0.609375 0.65625 1.796875l0 0.84375zm5.308777 -7.0l0 0.453125q0.578125 -0.453125 1.5 -0.453125l0.671875 0q1.640625 0 2.40625 0.703125q0.765625 0.703125 0.765625 2.28125l0 3.359375q0 1.5625 -0.78125 2.28125q-0.765625 0.703125 -2.390625 0.703125l-2.078125 0l0 3.171875l-1.578125 0l0 -12.5l1.484375 0zm1.3125 1.40625q-0.609375 0 -0.921875 0.328125q-0.296875 0.3125 -0.296875 0.6875l0 5.5l2.265625 0q0.6875 0 1.03125 -0.3125q0.359375 -0.3125 0.359375 -0.890625l0 -4.109375q0 -0.578125 -0.359375 -0.890625q-0.34375 -0.3125 -1.03125 -0.3125l-1.046875 0zm14.152466 4.9375q0 1.5625 -0.78125 2.28125q-0.765625 0.703125 -2.390625 0.703125l-0.609375 0q-1.625 0 -2.40625 -0.703125q-0.765625 -0.71875 -0.765625 -2.28125l0 -3.359375q0 -1.5625 0.765625 -2.265625q0.78125 -0.71875 2.40625 -0.71875l0.609375 0q1.625 0 2.390625 0.71875q0.78125 0.703125 0.78125 2.265625l0 3.359375zm-1.578125 -3.734375q0 -0.578125 -0.359375 -0.890625q-0.34375 -0.3125 -1.046875 -0.3125l-0.984375 0q-0.6875 0 -1.046875 0.3125q-0.34375 0.3125 -0.34375 0.890625l0 4.109375q0 0.578125 0.34375 0.890625q0.359375 0.3125 1.046875 0.3125l0.984375 0q0.703125 0 1.046875 -0.3125q0.359375 -0.3125 0.359375 -0.890625l0 -4.109375zm6.261902 -2.609375l0 0.453125q0.578125 -0.453125 1.5 -0.453125l0.859375 0q1.515625 0 2.25 0.71875q0.734375 0.703125 0.734375 2.265625l0 6.34375l-1.59375 0l0 -6.71875q0 -0.5625 -0.328125 -0.875q-0.3125 -0.328125 -0.875 -0.328125l-1.234375 0q-0.609375 0 -0.921875 0.328125q-0.296875 0.3125 -0.296875 0.6875l0 6.90625l-1.578125 0l0 -9.328125l1.484375 0zm14.839966 7.0q0 1.171875 -0.71875 1.75q-0.71875 0.578125 -2.078125 0.578125l-2.78125 0l0 -1.40625l2.96875 0q0.5 0 0.75 -0.203125q0.265625 -0.21875 0.265625 -0.625l0 -1.0q0 -0.828125 -0.796875 -0.828125l-0.6875 0q-1.3125 0 -1.953125 -0.5625q-0.640625 -0.578125 -0.640625 -1.8125l0 -0.546875q0 -1.25 0.703125 -1.796875q0.71875 -0.546875 2.09375 -0.546875l2.5 0l0 1.40625l-2.6875 0q-0.46875 0 -0.75 0.21875q-0.28125 0.203125 -0.28125 0.609375l0 0.671875q0 0.4375 0.25 0.640625q0.265625 0.203125 0.65625 0.203125l0.625 0q1.25 0 1.90625 0.609375q0.65625 0.609375 0.65625 1.796875l0 0.84375zm7.121277 2.328125q-1.640625 0 -2.40625 -0.703125q-0.765625 -0.703125 -0.765625 -2.28125l0 -3.359375q0 -1.609375 0.6875 -2.296875q0.703125 -0.6875 2.296875 -0.6875l0.875 0q1.328125 0 2.0 0.734375q0.6875 0.734375 0.6875 2.15625l0 2.421875l-4.953125 0l0 1.40625q0 0.578125 0.34375 0.890625q0.359375 0.3125 1.046875 0.3125l2.96875 0l0 1.40625l-2.78125 0zm1.828125 -6.8125q0 -0.484375 -0.3125 -0.796875q-0.3125 -0.3125 -0.796875 -0.3125l-1.09375 0q-0.671875 0 -0.9375 0.3125q-0.265625 0.296875 -0.265625 0.890625l0 1.3125l3.40625 0l0 -1.40625z" fill-rule="nonzero"/><path fill="#000000" d="m795.41254 316.36057q0 1.609375 -0.734375 2.28125q-0.734375 0.671875 -2.4375 0.671875l-3.84375 0l0 -13.0625l3.625 0q1.671875 0 2.53125 0.6875q0.859375 0.671875 0.859375 2.21875l0 7.203125zm-1.625 -7.359375q0 -0.625 -0.375 -0.984375q-0.375 -0.359375 -0.984375 -0.359375l-2.40625 0l0 10.25l2.390625 0q0.703125 0 1.03125 -0.3125q0.34375 -0.328125 0.34375 -1.046875l0 -7.546875zm10.933777 10.3125q-0.25 0 -0.546875 -0.140625q-0.28125 -0.15625 -0.484375 -0.421875q-0.421875 0.5625 -1.140625 0.5625l-1.65625 0q-1.421875 0 -2.0625 -0.5625q-0.640625 -0.578125 -0.640625 -1.953125l0 -0.375q0 -2.890625 2.71875 -2.890625l2.3125 0l0 -0.9375q0 -0.578125 -0.359375 -0.890625q-0.34375 -0.3125 -1.03125 -0.3125l-2.890625 0l0 -1.40625l2.703125 0q1.625 0 2.390625 0.71875q0.78125 0.703125 0.78125 2.265625l0 4.484375q0 0.28125 0.203125 0.421875q0.21875 0.125 0.734375 0.125l0 1.3125l-1.03125 0zm-2.359375 -1.40625q0.5625 0 0.703125 -0.25q0.15625 -0.265625 0.15625 -0.671875l0 -2.0625l-2.328125 0q-0.484375 0 -0.8125 0.328125q-0.3125 0.3125 -0.3125 0.796875l0 0.9375q0 0.484375 0.21875 0.703125q0.234375 0.21875 0.71875 0.21875l1.65625 0zm10.386841 1.40625q-0.953125 0 -1.46875 -0.609375q-0.5 -0.625 -0.5 -1.625l0 -5.6875l-1.765625 0l0 -1.40625l1.765625 0l0 -2.234375l1.59375 0l0 2.234375l2.71875 0l0 1.40625l-2.71875 0l0 5.78125q0 0.40625 0.203125 0.578125q0.203125 0.15625 0.625 0.15625l1.890625 0l0 1.40625l-2.34375 0zm12.121277 0q-0.25 0 -0.546875 -0.140625q-0.28125 -0.15625 -0.484375 -0.421875q-0.421875 0.5625 -1.140625 0.5625l-1.65625 0q-1.421875 0 -2.0625 -0.5625q-0.640625 -0.578125 -0.640625 -1.953125l0 -0.375q0 -2.890625 2.71875 -2.890625l2.3125 0l0 -0.9375q0 -0.578125 -0.359375 -0.890625q-0.34375 -0.3125 -1.03125 -0.3125l-2.890625 0l0 -1.40625l2.703125 0q1.625 0 2.390625 0.71875q0.78125 0.703125 0.78125 2.265625l0 4.484375q0 0.28125 0.203125 0.421875q0.21875 0.125 0.734375 0.125l0 1.3125l-1.03125 0zm-2.359375 -1.40625q0.5625 0 0.703125 -0.25q0.15625 -0.265625 0.15625 -0.671875l0 -2.0625l-2.328125 0q-0.484375 0 -0.8125 0.328125q-0.3125 0.3125 -0.3125 0.796875l0 0.9375q0 0.484375 0.21875 0.703125q0.234375 0.21875 0.71875 0.21875l1.65625 0zm23.226868 -1.578125q0 1.5625 -0.78125 2.28125q-0.765625 0.703125 -2.390625 0.703125l-0.609375 0q-1.625 0 -2.40625 -0.703125q-0.765625 -0.71875 -0.765625 -2.28125l0 -3.359375q0 -1.5625 0.765625 -2.265625q0.78125 -0.71875 2.40625 -0.71875l0.609375 0q1.625 0 2.390625 0.71875q0.78125 0.703125 0.78125 2.265625l0 3.359375zm-1.578125 -3.734375q0 -0.578125 -0.359375 -0.890625q-0.34375 -0.3125 -1.046875 -0.3125l-0.984375 0q-0.6875 0 -1.046875 0.3125q-0.34375 0.3125 -0.34375 0.890625l0 4.109375q0 0.578125 0.34375 0.890625q0.359375 0.3125 1.046875 0.3125l0.984375 0q0.703125 0 1.046875 -0.3125q0.359375 -0.3125 0.359375 -0.890625l0 -4.109375zm8.824341 -4.9375q-0.296875 0 -0.484375 0.15625q-0.171875 0.15625 -0.171875 0.40625l0 1.765625l3.0 0l0 1.40625l-3.0 0l0 6.515625l2.265625 0l0 1.40625l-5.4375 0l0 -1.40625l1.59375 0l0 -6.515625l-1.59375 0l0 -1.40625l1.59375 0l0 -1.671875q0 -0.953125 0.53125 -1.5q0.546875 -0.5625 1.40625 -0.5625l2.828125 0l0 1.40625l-2.53125 0z" fill-rule="nonzero"/><path fill="#000000" d="m800.30914 333.29807q0 1.5 -0.796875 2.21875q-0.796875 0.71875 -2.359375 0.71875l-1.953125 0l0 5.078125l-1.625 0l0 -13.0625l3.53125 0q1.59375 0 2.390625 0.703125q0.8125 0.703125 0.8125 2.203125l0 2.140625zm-1.609375 -2.296875q0 -0.71875 -0.328125 -1.03125q-0.328125 -0.3125 -1.046875 -0.3125l-2.125 0l0 5.1875l2.125 0q0.71875 0 1.046875 -0.328125q0.328125 -0.328125 0.328125 -1.03125l0 -2.484375zm11.058716 10.3125q-0.25 0 -0.546875 -0.140625q-0.28125 -0.15625 -0.484375 -0.421875q-0.421875 0.5625 -1.140625 0.5625l-1.65625 0q-1.421875 0 -2.0625 -0.5625q-0.640625 -0.578125 -0.640625 -1.953125l0 -0.375q0 -2.890625 2.71875 -2.890625l2.3125 0l0 -0.9375q0 -0.578125 -0.359375 -0.890625q-0.34375 -0.3125 -1.03125 -0.3125l-2.890625 0l0 -1.40625l2.703125 0q1.625 0 2.390625 0.71875q0.78125 0.703125 0.78125 2.265625l0 4.484375q0 0.28125 0.203125 0.421875q0.21875 0.125 0.734375 0.125l0 1.3125l-1.03125 0zm-2.359375 -1.40625q0.5625 0 0.703125 -0.25q0.15625 -0.265625 0.15625 -0.671875l0 -2.0625l-2.328125 0q-0.484375 0 -0.8125 0.328125q-0.3125 0.3125 -0.3125 0.796875l0 0.9375q0 0.484375 0.21875 0.703125q0.234375 0.21875 0.71875 0.21875l1.65625 0zm13.371277 2.0625q0 1.265625 -0.765625 1.890625q-0.75 0.625 -2.359375 0.625l-3.875 0l0 -1.40625l4.0625 0q0.671875 0 1.0 -0.265625q0.34375 -0.25 0.34375 -0.65625l0 -0.59375q0 -0.4375 -0.34375 -0.6875q-0.328125 -0.25 -1.0 -0.25l-3.21875 0l0 -2.578125q-0.625 -0.328125 -0.921875 -0.96875q-0.296875 -0.640625 -0.296875 -1.640625l0 -0.46875q0 -1.5625 0.765625 -2.265625q0.78125 -0.71875 2.40625 -0.71875l3.921875 0l0 3.453125q0 1.390625 -0.765625 2.1875q-0.765625 0.796875 -2.03125 0.796875l-1.5 0l0 0.796875l1.453125 0q1.609375 0 2.359375 0.625q0.765625 0.625 0.765625 1.890625l0 0.234375zm-3.078125 -4.953125q0.578125 0 0.875 -0.359375q0.296875 -0.375 0.328125 -0.796875l0 -2.46875l-2.515625 0q-0.6875 0 -1.046875 0.3125q-0.359375 0.3125 -0.359375 0.890625l0 1.21875q0 0.578125 0.359375 0.890625q0.359375 0.3125 1.046875 0.3125l1.3125 0zm9.355591 4.296875q-1.640625 0 -2.40625 -0.703125q-0.765625 -0.703125 -0.765625 -2.28125l0 -3.359375q0 -1.609375 0.6875 -2.296875q0.703125 -0.6875 2.296875 -0.6875l0.875 0q1.328125 0 2.0 0.734375q0.6875 0.734375 0.6875 2.15625l0 2.421875l-4.953125 0l0 1.40625q0 0.578125 0.34375 0.890625q0.359375 0.3125 1.046875 0.3125l2.96875 0l0 1.40625l-2.78125 0zm1.828125 -6.8125q0 -0.484375 -0.3125 -0.796875q-0.3125 -0.3125 -0.796875 -0.3125l-1.09375 0q-0.671875 0 -0.9375 0.3125q-0.265625 0.296875 -0.265625 0.890625l0 1.3125l3.40625 0l0 -1.40625zm16.383118 6.8125l-1.515625 0l0 -13.0625l2.65625 0l2.953125 11.6875l0 -11.6875l1.5 0l0 13.0625l-2.671875 0l-2.921875 -11.671875l0 11.671875z" fill-rule="nonzero"/><path fill="#000000" fill-opacity="0.0" d="m446.53018 113.40157l114.519684 0l0 68.72442l-114.519684 0z" fill-rule="evenodd"/><path fill="#000000" d="m467.07706 148.60596l0 4.515625l-4.5 0l0 -4.515625l4.5 0zm17.28003 0l0 4.515625l-4.5 0l0 -4.515625l4.5 0zm17.28003 0l0 4.515625l-4.5 0l0 -4.515625l4.5 0z" fill-rule="nonzero"/><path fill="#000000" fill-opacity="0.0" d="m446.53018 277.1811l114.519684 0l0 68.72443l-114.519684 0z" fill-rule="evenodd"/><path fill="#000000" d="m467.07706 312.38547l0 4.515625l-4.5 0l0 -4.515625l4.5 0zm17.28003 0l0 4.515625l-4.5 0l0 -4.515625l4.5 0zm17.28003 0l0 4.515625l-4.5 0l0 -4.515625l4.5 0z" fill-rule="nonzero"/></g></svg>