<svg version="1.1" viewBox="0.0 0.0 743.6614173228346 427.87139107611546" fill="none" stroke="none" stroke-linecap="square" stroke-miterlimit="10" xmlns:xlink="http://www.w3.org/1999/xlink" xmlns="http://www.w3.org/2000/svg"><clipPath id="p.0"><path d="m0 0l743.66144 0l0 427.8714l-743.66144 0l0 -427.8714z" clip-rule="nonzero"/></clipPath><g clip-path="url(#p.0)"><path fill="#000000" fill-opacity="0.0" d="m0 0l743.66144 0l0 427.8714l-743.66144 0z" fill-rule="evenodd"/><path fill="#000000" fill-opacity="0.0" d="m135.66142 51.524933l0 305.38583" fill-rule="evenodd"/><path stroke="#666666" stroke-width="1.0" stroke-linejoin="round" stroke-linecap="butt" stroke-dasharray="4.0,3.0" d="m135.66142 51.524933l0 305.38583" fill-rule="evenodd"/><path fill="#000000" fill-opacity="0.0" d="m59.83727 140.56693l385.3858 0" fill-rule="evenodd"/><path stroke="#000000" stroke-width="2.0" stroke-linejoin="round" stroke-linecap="butt" d="m59.83727 140.56693l373.3858 0" fill-rule="evenodd"/><path fill="#000000" stroke="#000000" stroke-width="2.0" stroke-linecap="butt" d="m433.22308 143.87039l9.076202 -3.3034668l-9.076202 -3.3034668z" fill-rule="evenodd"/><path fill="#000000" fill-opacity="0.0" d="m59.83727 180.22047l421.5433 0" fill-rule="evenodd"/><path stroke="#000000" stroke-width="2.0" stroke-linejoin="round" stroke-linecap="butt" d="m59.83727 180.22047l409.5433 0" fill-rule="evenodd"/><path fill="#000000" stroke="#000000" stroke-width="2.0" stroke-linecap="butt" d="m469.38058 183.52394l9.076202 -3.3034668l-9.076202 -3.3034668z" fill-rule="evenodd"/><path fill="#000000" fill-opacity="0.0" d="m59.83727 114.05249l67.49606 0l0 35.55905l-67.49606 0z" fill-rule="evenodd"/><path fill="#000000" d="m72.43102 126.50874q0.921875 0 1.578125 0.265625q0.65625 0.25 1.265625 0.796875l-0.6875 0.78125q-0.53125 -0.421875 -1.03125 -0.609375q-0.5 -0.1875 -1.0625 -0.1875q-0.71875 0 -1.1875 0.328125q-0.46875 0.328125 -0.46875 0.96875q0 0.40625 0.15625 0.6875q0.15625 0.265625 0.59375 0.5q0.4375 0.21875 1.265625 0.46875q0.859375 0.265625 1.4375 0.578125q0.578125 0.296875 0.921875 0.84375q0.359375 0.53125 0.359375 1.359375q0 0.796875 -0.40625 1.421875q-0.390625 0.609375 -1.125 0.953125q-0.734375 0.34375 -1.75 0.34375q-1.90625 0 -3.125 -1.1875l0.703125 -0.765625q0.5625 0.453125 1.125 0.6875q0.578125 0.234375 1.28125 0.234375q0.859375 0 1.40625 -0.421875q0.5625 -0.421875 0.5625 -1.21875q0 -0.453125 -0.171875 -0.75q-0.171875 -0.3125 -0.59375 -0.546875q-0.421875 -0.234375 -1.21875 -0.484375q-1.40625 -0.421875 -2.0625 -1.015625q-0.65625 -0.609375 -0.65625 -1.625q0 -0.703125 0.359375 -1.25q0.375 -0.546875 1.03125 -0.84375q0.671875 -0.3125 1.5 -0.3125zm8.216919 0q0.828125 0 1.390625 0.21875q0.5625 0.203125 1.15625 0.6875l-0.703125 0.8125q-0.828125 -0.671875 -1.765625 -0.671875q-1.140625 0 -1.84375 0.875q-0.703125 0.875 -0.703125 2.828125q0 1.890625 0.6875 2.796875q0.703125 0.890625 1.84375 0.890625q0.59375 0 1.03125 -0.203125q0.4375 -0.203125 0.9375 -0.5625l0.625 0.8125q-0.4375 0.4375 -1.109375 0.734375q-0.65625 0.28125 -1.515625 0.28125q-1.125 0 -2.0 -0.546875q-0.875 -0.5625 -1.359375 -1.625q-0.484375 -1.078125 -0.484375 -2.578125q0 -1.515625 0.5 -2.578125q0.515625 -1.078125 1.375 -1.625q0.875 -0.546875 1.9375 -0.546875zm5.510605 0.15625l0 9.1875l-1.265625 0l0 -9.1875l1.265625 0zm5.0 0l-3.46875 4.203125l3.71875 4.984375l-1.546875 0l-3.625 -4.90625l3.484375 -4.28125l1.4375 0z" fill-rule="nonzero"/><path fill="#000000" fill-opacity="0.0" d="m59.83727 153.39633l67.49606 0l0 35.55905l-67.49606 0z" fill-rule="evenodd"/><path fill="#000000" d="m73.32165 164.44632l1.046875 0.234375l-3.078125 11.90625l-1.046875 -0.25l3.078125 -11.890625zm6.7264404 1.40625q0.828125 0 1.390625 0.21875q0.5625 0.203125 1.15625 0.6875l-0.703125 0.8125q-0.828125 -0.671875 -1.765625 -0.671875q-1.140625 0 -1.84375 0.875q-0.703125 0.875 -0.703125 2.828125q0 1.890625 0.6875 2.796875q0.703125 0.890625 1.84375 0.890625q0.59375 0 1.03125 -0.203125q0.4375 -0.203125 0.9375 -0.5625l0.625 0.8125q-0.4375 0.4375 -1.109375 0.734375q-0.65625 0.28125 -1.515625 0.28125q-1.125 0 -2.0 -0.546875q-0.875 -0.5625 -1.359375 -1.625q-0.484375 -1.078125 -0.484375 -2.578125q0 -1.515625 0.5 -2.578125q0.515625 -1.078125 1.375 -1.625q0.875 -0.546875 1.9375 -0.546875zm6.3772736 0q0.921875 0 1.578125 0.265625q0.65625 0.25 1.265625 0.796875l-0.6875 0.78125q-0.53125 -0.421875 -1.03125 -0.609375q-0.5 -0.1875 -1.0625 -0.1875q-0.71875 0 -1.1875 0.328125q-0.46875 0.328125 -0.46875 0.96875q0 0.40625 0.15625 0.6875q0.15625 0.265625 0.59375 0.5q0.4375 0.21875 1.265625 0.46875q0.859375 0.265625 1.4375 0.578125q0.578125 0.296875 0.921875 0.84375q0.359375 0.53125 0.359375 1.359375q0 0.796875 -0.40625 1.421875q-0.390625 0.609375 -1.125 0.953125q-0.734375 0.34375 -1.75 0.34375q-1.90625 0 -3.125 -1.1875l0.703125 -0.765625q0.5625 0.453125 1.125 0.6875q0.578125 0.234375 1.28125 0.234375q0.859375 0 1.40625 -0.421875q0.5625 -0.421875 0.5625 -1.21875q0 -0.453125 -0.171875 -0.75q-0.171875 -0.3125 -0.59375 -0.546875q-0.421875 -0.234375 -1.21875 -0.484375q-1.40625 -0.421875 -2.0625 -1.015625q-0.65625 -0.609375 -0.65625 -1.625q0 -0.703125 0.359375 -1.25q0.375 -0.546875 1.03125 -0.84375q0.671875 -0.3125 1.5 -0.3125z" fill-rule="nonzero"/><path fill="#000000" fill-opacity="0.0" d="m59.83727 337.7848l633.03937 0" fill-rule="evenodd"/><path stroke="#000000" stroke-width="2.0" stroke-linejoin="round" stroke-linecap="butt" d="m71.83727 337.7848l609.03937 0" fill-rule="evenodd"/><path fill="#000000" stroke="#000000" stroke-width="2.0" stroke-linecap="butt" d="m71.83727 334.48132l-9.076199 3.3034668l9.076199 3.3034668z" fill-rule="evenodd"/><path fill="#000000" stroke="#000000" stroke-width="2.0" stroke-linecap="butt" d="m680.87665 341.08826l9.076172 -3.3034668l-9.076172 -3.3034668z" fill-rule="evenodd"/><path fill="#000000" fill-opacity="0.0" d="m59.83727 307.17584l67.49606 0l0 35.55905l-67.49606 0z" fill-rule="evenodd"/><path fill="#000000" d="m72.43102 319.6321q0.921875 0 1.578125 0.265625q0.65625 0.25 1.265625 0.796875l-0.6875 0.78125q-0.53125 -0.421875 -1.03125 -0.609375q-0.5 -0.1875 -1.0625 -0.1875q-0.71875 0 -1.1875 0.328125q-0.46875 0.328125 -0.46875 0.96875q0 0.40625 0.15625 0.6875q0.15625 0.265625 0.59375 0.5q0.4375 0.21875 1.265625 0.46875q0.859375 0.265625 1.4375 0.578125q0.578125 0.296875 0.921875 0.84375q0.359375 0.53125 0.359375 1.359375q0 0.796875 -0.40625 1.421875q-0.390625 0.609375 -1.125 0.953125q-0.734375 0.34375 -1.75 0.34375q-1.90625 0 -3.125 -1.1875l0.703125 -0.765625q0.5625 0.453125 1.125 0.6875q0.578125 0.234375 1.28125 0.234375q0.859375 0 1.40625 -0.421875q0.5625 -0.421875 0.5625 -1.21875q0 -0.453125 -0.171875 -0.75q-0.171875 -0.3125 -0.59375 -0.546875q-0.421875 -0.234375 -1.21875 -0.484375q-1.40625 -0.421875 -2.0625 -1.015625q-0.65625 -0.609375 -0.65625 -1.625q0 -0.703125 0.359375 -1.25q0.375 -0.546875 1.03125 -0.84375q0.671875 -0.3125 1.5 -0.3125zm7.295044 -1.53125l0 1.03125l-1.59375 0l0 10.375l1.59375 0l0 1.015625l-2.765625 0l0 -12.421875l2.765625 0zm3.6666412 1.828125q0.828125 0 1.421875 0.3125q0.59375 0.296875 0.90625 0.828125q0.3125 0.515625 0.3125 1.125q0 0.8125 -0.484375 1.34375q-0.46875 0.515625 -1.25 0.703125q0.890625 0.078125 1.453125 0.640625q0.5625 0.5625 0.5625 1.515625q0 0.78125 -0.375 1.40625q-0.375 0.625 -1.078125 0.984375q-0.6875 0.34375 -1.59375 0.34375q-0.8125 0 -1.5 -0.296875q-0.671875 -0.296875 -1.171875 -0.90625l0.734375 -0.671875q0.4375 0.453125 0.890625 0.671875q0.46875 0.203125 1.015625 0.203125q0.828125 0 1.3125 -0.46875q0.484375 -0.46875 0.484375 -1.265625q0 -0.890625 -0.453125 -1.25q-0.453125 -0.359375 -1.328125 -0.359375l-0.65625 0l0.140625 -0.9375l0.453125 0q0.6875 0 1.140625 -0.40625q0.46875 -0.421875 0.46875 -1.171875q0 -0.625 -0.40625 -0.984375q-0.390625 -0.375 -1.0625 -0.375q-0.53125 0 -0.96875 0.1875q-0.421875 0.1875 -0.875 0.609375l-0.640625 -0.734375q1.140625 -1.046875 2.546875 -1.046875zm5.244461 7.359375q0.390625 0 0.65625 0.265625q0.265625 0.265625 0.265625 0.65625q0 0.375 -0.265625 0.65625q-0.265625 0.265625 -0.65625 0.265625q-0.390625 0 -0.65625 -0.265625q-0.265625 -0.28125 -0.265625 -0.65625q0 -0.390625 0.265625 -0.65625q0.265625 -0.265625 0.65625 -0.265625zm0 -4.90625q0.390625 0 0.65625 0.265625q0.265625 0.265625 0.265625 0.65625q0 0.375 -0.265625 0.65625q-0.265625 0.265625 -0.65625 0.265625q-0.390625 0 -0.65625 -0.265625q-0.265625 -0.28125 -0.265625 -0.65625q0 -0.390625 0.265625 -0.65625q0.265625 -0.265625 0.65625 -0.265625zm5.3237457 -2.453125q1.484375 0 2.234375 1.1875q0.75 1.171875 0.75 3.40625q0 2.234375 -0.75 3.421875q-0.75 1.1875 -2.234375 1.1875q-1.484375 0 -2.234375 -1.1875q-0.75 -1.1875 -0.75 -3.421875q0 -2.234375 0.75 -3.40625q0.75 -1.1875 2.234375 -1.1875zm0 0.96875q-0.859375 0 -1.28125 0.859375q-0.421875 0.84375 -0.421875 2.765625q0 1.921875 0.421875 2.78125q0.421875 0.859375 1.28125 0.859375q0.859375 0 1.28125 -0.859375q0.421875 -0.859375 0.421875 -2.78125q0 -1.90625 -0.421875 -2.765625q-0.421875 -0.859375 -1.28125 -0.859375zm7.1401978 -2.796875l0 12.421875l-2.75 0l0 -1.015625l1.59375 0l0 -10.375l-1.59375 0l0 -1.03125l2.75 0z" fill-rule="nonzero"/><path fill="#ffffff" d="m445.9239 114.826775l95.30707 0l0 35.55906l-95.30707 0z" fill-rule="evenodd"/><path stroke="#000000" stroke-width="2.0" stroke-linejoin="round" stroke-linecap="butt" d="m445.9239 114.826775l95.30707 0l0 35.55906l-95.30707 0z" fill-rule="evenodd"/><path fill="#000000" d="m459.47076 120.062546q0.828125 0 1.390625 0.21875q0.5625 0.203125 1.15625 0.6875l-0.703125 0.8125q-0.828125 -0.671875 -1.765625 -0.671875q-1.140625 0 -1.84375 0.875q-0.703125 0.875 -0.703125 2.828125q0 1.890625 0.6875 2.796875q0.703125 0.890625 1.84375 0.890625q0.59375 0 1.03125 -0.203125q0.4375 -0.203125 0.9375 -0.5625l0.625 0.8125q-0.4375 0.4375 -1.109375 0.734375q-0.65625 0.28125 -1.515625 0.28125q-1.125 0 -2.0 -0.546875q-0.875 -0.5625 -1.359375 -1.625q-0.484375 -1.078125 -0.484375 -2.578125q0 -1.515625 0.5 -2.578125q0.515625 -1.078125 1.375 -1.625q0.875 -0.546875 1.9375 -0.546875zm5.4553833 9.5q-0.6875 0 -1.078125 -0.40625q-0.390625 -0.40625 -0.390625 -1.140625l0 -8.453125l1.21875 -0.15625l0 8.59375q0 0.28125 0.09375 0.421875q0.109375 0.125 0.34375 0.125q0.265625 0 0.453125 -0.078125l0.328125 0.859375q-0.4375 0.234375 -0.96875 0.234375zm5.0728455 -7.34375q1.484375 0 2.296875 0.984375q0.828125 0.984375 0.828125 2.6875q0 1.09375 -0.375 1.921875q-0.375 0.828125 -1.09375 1.296875q-0.703125 0.453125 -1.671875 0.453125q-1.484375 0 -2.3125 -0.984375q-0.8125 -0.984375 -0.8125 -2.671875q0 -1.09375 0.359375 -1.921875q0.375 -0.84375 1.078125 -1.296875q0.71875 -0.46875 1.703125 -0.46875zm0 0.984375q-1.828125 0 -1.828125 2.703125q0 2.671875 1.8125 2.671875q1.8125 0 1.8125 -2.6875q0 -2.6875 -1.796875 -2.6875zm7.705475 -0.984375q0.625 0 1.140625 0.1875q0.515625 0.171875 1.0 0.578125l-0.578125 0.765625q-0.375 -0.265625 -0.734375 -0.390625q-0.34375 -0.125 -0.78125 -0.125q-0.84375 0 -1.328125 0.6875q-0.46875 0.671875 -0.46875 2.0q0 1.34375 0.46875 1.984375q0.46875 0.625 1.328125 0.625q0.421875 0 0.765625 -0.125q0.34375 -0.140625 0.765625 -0.40625l0.5625 0.796875q-0.953125 0.765625 -2.140625 0.765625q-1.421875 0 -2.25 -0.953125q-0.8125 -0.96875 -0.8125 -2.65625q0 -1.125 0.359375 -1.953125q0.375 -0.84375 1.0625 -1.3125q0.6875 -0.46875 1.640625 -0.46875zm5.042694 -2.8125l0 10.0l-1.234375 0l0 -9.84375l1.234375 -0.15625zm4.03125 2.96875l-2.59375 3.109375l2.890625 3.921875l-1.46875 0l-2.78125 -3.84375l2.578125 -3.1875l1.375 0z" fill-rule="nonzero"/><path fill="#000000" d="m459.47076 136.06255q0.828125 0 1.390625 0.21875q0.5625 0.203125 1.15625 0.6875l-0.703125 0.8125q-0.828125 -0.671875 -1.765625 -0.671875q-1.140625 0 -1.84375 0.875q-0.703125 0.875 -0.703125 2.828125q0 1.890625 0.6875 2.796875q0.703125 0.890625 1.84375 0.890625q0.59375 0 1.03125 -0.203125q0.4375 -0.203125 0.9375 -0.5625l0.625 0.8125q-0.4375 0.4375 -1.109375 0.734375q-0.65625 0.28125 -1.515625 0.28125q-1.125 0 -2.0 -0.546875q-0.875 -0.5625 -1.359375 -1.625q-0.484375 -1.078125 -0.484375 -2.578125q0 -1.515625 0.5 -2.578125q0.515625 -1.078125 1.375 -1.625q0.875 -0.546875 1.9375 -0.546875zm6.556427 2.15625q1.484375 0 2.296875 0.984375q0.828125 0.984375 0.828125 2.6875q0 1.09375 -0.375 1.921875q-0.375 0.828125 -1.09375 1.296875q-0.703125 0.453125 -1.671875 0.453125q-1.484375 0 -2.3125 -0.984375q-0.8125 -0.984375 -0.8125 -2.671875q0 -1.09375 0.359375 -1.921875q0.375 -0.84375 1.078125 -1.296875q0.71875 -0.46875 1.703125 -0.46875zm0 0.984375q-1.828125 0 -1.828125 2.703125q0 2.671875 1.8125 2.671875q1.8125 0 1.8125 -2.6875q0 -2.6875 -1.796875 -2.6875zm8.455475 -0.984375q0.953125 0 1.484375 0.578125q0.546875 0.578125 0.546875 1.578125l0 5.03125l-1.21875 0l0 -4.859375q0 -0.75 -0.28125 -1.046875q-0.28125 -0.3125 -0.828125 -0.3125q-0.5625 0 -1.0 0.328125q-0.421875 0.3125 -0.78125 0.90625l0 4.984375l-1.234375 0l0 -7.03125l1.046875 0l0.109375 1.046875q0.375 -0.5625 0.921875 -0.875q0.5625 -0.328125 1.234375 -0.328125zm8.044647 6.875q-0.6875 0.46875 -1.578125 0.46875q-0.890625 0 -1.390625 -0.5q-0.5 -0.515625 -0.5 -1.5l0 -4.234375l-1.21875 0l0 -0.953125l1.21875 0l0 -1.578125l1.234375 -0.140625l0 1.71875l1.65625 0l-0.125 0.953125l-1.53125 0l0 4.1875q0 0.546875 0.1875 0.796875q0.1875 0.234375 0.640625 0.234375q0.421875 0 0.9375 -0.28125l0.46875 0.828125zm4.311432 -6.875q0.375 0 0.703125 0.078125l-0.234375 1.203125q-0.3125 -0.078125 -0.609375 -0.078125q-0.65625 0 -1.0625 0.484375q-0.390625 0.46875 -0.609375 1.484375l0 4.015625l-1.234375 0l0 -7.03125l1.046875 0l0.125 1.4375q0.28125 -0.796875 0.75 -1.1875q0.484375 -0.40625 1.125 -0.40625zm4.338379 0q1.484375 0 2.296875 0.984375q0.828125 0.984375 0.828125 2.6875q0 1.09375 -0.375 1.921875q-0.375 0.828125 -1.09375 1.296875q-0.703125 0.453125 -1.671875 0.453125q-1.484375 0 -2.3125 -0.984375q-0.8125 -0.984375 -0.8125 -2.671875q0 -1.09375 0.359375 -1.921875q0.375 -0.84375 1.078125 -1.296875q0.71875 -0.46875 1.703125 -0.46875zm0 0.984375q-1.828125 0 -1.828125 2.703125q0 2.671875 1.8125 2.671875q1.8125 0 1.8125 -2.6875q0 -2.6875 -1.796875 -2.6875zm6.549225 6.359375q-0.6875 0 -1.078125 -0.40625q-0.390625 -0.40625 -0.390625 -1.140625l0 -8.453125l1.21875 -0.15625l0 8.59375q0 0.28125 0.09375 0.421875q0.109375 0.125 0.34375 0.125q0.265625 0 0.453125 -0.078125l0.328125 0.859375q-0.4375 0.234375 -0.96875 0.234375z" fill-rule="nonzero"/><path fill="#000000" fill-opacity="0.0" d="m541.23096 131.83202l154.42523 0" fill-rule="evenodd"/><path stroke="#000000" stroke-width="2.0" stroke-linejoin="round" stroke-linecap="butt" d="m541.23096 131.83202l142.42523 0" fill-rule="evenodd"/><path fill="#000000" stroke="#000000" stroke-width="2.0" stroke-linecap="butt" d="m683.6562 135.13548l9.076172 -3.3034668l-9.076172 -3.3034668z" fill-rule="evenodd"/><path fill="#000000" fill-opacity="0.0" d="m601.74805 51.524933l0 305.38583" fill-rule="evenodd"/><path stroke="#666666" stroke-width="1.0" stroke-linejoin="round" stroke-linecap="butt" stroke-dasharray="4.0,3.0" d="m601.74805 51.524933l0 305.38583" fill-rule="evenodd"/><path fill="#000000" fill-opacity="0.0" d="m607.31494 105.00787l67.49609 0l0 35.55905l-67.49609 0z" fill-rule="evenodd"/><path fill="#000000" d="m619.9087 117.46413q0.921875 0 1.578125 0.265625q0.65625 0.25 1.265625 0.796875l-0.6875 0.78125q-0.53125 -0.421875 -1.03125 -0.609375q-0.5 -0.1875 -1.0625 -0.1875q-0.71875 0 -1.1875 0.328125q-0.46875 0.328125 -0.46875 0.96875q0 0.40625 0.15625 0.6875q0.15625 0.265625 0.59375 0.5q0.4375 0.21875 1.265625 0.46875q0.859375 0.265625 1.4375 0.578125q0.578125 0.296875 0.921875 0.84375q0.359375 0.53125 0.359375 1.359375q0 0.796875 -0.40625 1.421875q-0.390625 0.609375 -1.125 0.953125q-0.734375 0.34375 -1.75 0.34375q-1.90625 0 -3.125 -1.1875l0.703125 -0.765625q0.5625 0.453125 1.125 0.6875q0.578125 0.234375 1.28125 0.234375q0.859375 0 1.40625 -0.421875q0.5625 -0.421875 0.5625 -1.21875q0 -0.453125 -0.171875 -0.75q-0.171875 -0.3125 -0.59375 -0.546875q-0.421875 -0.234375 -1.21875 -0.484375q-1.40625 -0.421875 -2.0625 -1.015625q-0.65625 -0.609375 -0.65625 -1.625q0 -0.703125 0.359375 -1.25q0.375 -0.546875 1.03125 -0.84375q0.671875 -0.3125 1.5 -0.3125zm8.216919 0q0.828125 0 1.390625 0.21875q0.5625 0.203125 1.15625 0.6875l-0.703125 0.8125q-0.828125 -0.671875 -1.765625 -0.671875q-1.140625 0 -1.84375 0.875q-0.703125 0.875 -0.703125 2.828125q0 1.890625 0.6875 2.796875q0.703125 0.890625 1.84375 0.890625q0.59375 0 1.03125 -0.203125q0.4375 -0.203125 0.9375 -0.5625l0.625 0.8125q-0.4375 0.4375 -1.109375 0.734375q-0.65625 0.28125 -1.515625 0.28125q-1.125 0 -2.0 -0.546875q-0.875 -0.5625 -1.359375 -1.625q-0.484375 -1.078125 -0.484375 -2.578125q0 -1.515625 0.5 -2.578125q0.515625 -1.078125 1.375 -1.625q0.875 -0.546875 1.9375 -0.546875zm5.51062 0.15625l0 9.1875l-1.265625 0l0 -9.1875l1.265625 0zm5.0 0l-3.46875 4.203125l3.71875 4.984375l-1.546875 0l-3.625 -4.90625l3.484375 -4.28125l1.4375 0z" fill-rule="nonzero"/><path fill="#000000" fill-opacity="0.0" d="m363.1391 96.272964l67.49606 0l0 35.55905l-67.49606 0z" fill-rule="evenodd"/><path fill="#000000" d="m375.96722 110.88547q0.625 0 1.140625 0.1875q0.515625 0.171875 1.0 0.578125l-0.578125 0.765625q-0.375 -0.265625 -0.734375 -0.390625q-0.34375 -0.125 -0.78125 -0.125q-0.84375 0 -1.328125 0.6875q-0.46875 0.671875 -0.46875 2.0q0 1.34375 0.46875 1.984375q0.46875 0.625 1.328125 0.625q0.421875 0 0.765625 -0.125q0.34375 -0.140625 0.765625 -0.40625l0.5625 0.796875q-0.953125 0.765625 -2.140625 0.765625q-1.421875 0 -2.25 -0.953125q-0.8125 -0.96875 -0.8125 -2.65625q0 -1.125 0.359375 -1.953125q0.375 -0.84375 1.0625 -1.3125q0.6875 -0.46875 1.640625 -0.46875zm5.214569 7.34375q-0.6875 0 -1.078125 -0.40625q-0.390625 -0.40625 -0.390625 -1.140625l0 -8.453125l1.21875 -0.15625l0 8.59375q0 0.28125 0.09375 0.421875q0.109375 0.125 0.34375 0.125q0.265625 0 0.453125 -0.078125l0.328125 0.859375q-0.4375 0.234375 -0.96875 0.234375zm3.7332458 -10.15625l0 10.0l-1.234375 0l0 -9.84375l1.234375 -0.15625zm4.03125 2.96875l-2.59375 3.109375l2.890625 3.921875l-1.46875 0l-2.78125 -3.84375l2.578125 -3.1875l1.375 0zm0.5270996 8.921875l0 -1.046875l6.46875 0l0 1.046875l-6.46875 0zm13.00769 -5.609375q0 0.3125 -0.03125 0.625l-4.484375 0q0.078125 1.15625 0.578125 1.703125q0.515625 0.546875 1.3125 0.546875q0.515625 0 0.9375 -0.140625q0.421875 -0.15625 0.890625 -0.46875l0.53125 0.734375q-1.109375 0.875 -2.453125 0.875q-1.453125 0 -2.28125 -0.953125q-0.8125 -0.96875 -0.8125 -2.640625q0 -1.09375 0.34375 -1.9375q0.359375 -0.84375 1.015625 -1.328125q0.65625 -0.484375 1.546875 -0.484375q1.40625 0 2.15625 0.921875q0.75 0.921875 0.75 2.546875zm-1.21875 -0.359375q0 -1.046875 -0.421875 -1.578125q-0.40625 -0.546875 -1.234375 -0.546875q-1.5 0 -1.640625 2.203125l3.296875 0l0 -0.078125zm6.482544 -3.109375q0.953125 0 1.484375 0.578125q0.546875 0.578125 0.546875 1.578125l0 5.03125l-1.21875 0l0 -4.859375q0 -0.75 -0.28125 -1.046875q-0.28125 -0.3125 -0.828125 -0.3125q-0.5625 0 -1.0 0.328125q-0.421875 0.3125 -0.78125 0.90625l0 4.984375l-1.234375 0l0 -7.03125l1.046875 0l0.109375 1.046875q0.375 -0.5625 0.921875 -0.875q0.5625 -0.328125 1.234375 -0.328125z" fill-rule="nonzero"/><path fill="#000000" fill-opacity="0.0" d="m505.4042 180.22047l190.26773 0" fill-rule="evenodd"/><path stroke="#000000" stroke-width="2.0" stroke-linejoin="round" stroke-linecap="butt" d="m505.4042 180.22047l178.26773 0" fill-rule="evenodd"/><path fill="#000000" stroke="#000000" stroke-width="2.0" stroke-linecap="butt" d="m683.67194 183.52394l9.076172 -3.3034668l-9.076172 -3.3034668z" fill-rule="evenodd"/><path fill="#000000" fill-opacity="0.0" d="m607.31494 153.39633l67.49609 0l0 35.55905l-67.49609 0z" fill-rule="evenodd"/><path fill="#000000" d="m620.7993 164.44632l1.046875 0.234375l-3.078125 11.90625l-1.046875 -0.25l3.078125 -11.890625zm6.7264404 1.40625q0.828125 0 1.390625 0.21875q0.5625 0.203125 1.15625 0.6875l-0.703125 0.8125q-0.828125 -0.671875 -1.765625 -0.671875q-1.140625 0 -1.84375 0.875q-0.703125 0.875 -0.703125 2.828125q0 1.890625 0.6875 2.796875q0.703125 0.890625 1.84375 0.890625q0.59375 0 1.03125 -0.203125q0.4375 -0.203125 0.9375 -0.5625l0.625 0.8125q-0.4375 0.4375 -1.109375 0.734375q-0.65625 0.28125 -1.515625 0.28125q-1.125 0 -2.0 -0.546875q-0.875 -0.5625 -1.359375 -1.625q-0.484375 -1.078125 -0.484375 -2.578125q0 -1.515625 0.5 -2.578125q0.515625 -1.078125 1.375 -1.625q0.875 -0.546875 1.9375 -0.546875zm6.3773193 0q0.921875 0 1.578125 0.265625q0.65625 0.25 1.265625 0.796875l-0.6875 0.78125q-0.53125 -0.421875 -1.03125 -0.609375q-0.5 -0.1875 -1.0625 -0.1875q-0.71875 0 -1.1875 0.328125q-0.46875 0.328125 -0.46875 0.96875q0 0.40625 0.15625 0.6875q0.15625 0.265625 0.59375 0.5q0.4375 0.21875 1.265625 0.46875q0.859375 0.265625 1.4375 0.578125q0.578125 0.296875 0.921875 0.84375q0.359375 0.53125 0.359375 1.359375q0 0.796875 -0.40625 1.421875q-0.390625 0.609375 -1.125 0.953125q-0.734375 0.34375 -1.75 0.34375q-1.90625 0 -3.125 -1.1875l0.703125 -0.765625q0.5625 0.453125 1.125 0.6875q0.578125 0.234375 1.28125 0.234375q0.859375 0 1.40625 -0.421875q0.5625 -0.421875 0.5625 -1.21875q0 -0.453125 -0.171875 -0.75q-0.171875 -0.3125 -0.59375 -0.546875q-0.421875 -0.234375 -1.21875 -0.484375q-1.40625 -0.421875 -2.0625 -1.015625q-0.65625 -0.609375 -0.65625 -1.625q0 -0.703125 0.359375 -1.25q0.375 -0.546875 1.03125 -0.84375q0.671875 -0.3125 1.5 -0.3125z" fill-rule="nonzero"/><path fill="#ffffff" d="m481.75067 180.22047l0 0c0 -6.5317535 5.2950134 -11.826767 11.826752 -11.826767l0 0c3.1366577 0 6.1448364 1.2460175 8.362793 3.463974c2.2179565 2.2179565 3.4639893 5.2261353 3.4639893 8.362793l0 0c0 6.5317383 -5.295044 11.826767 -11.826782 11.826767l0 0c-6.5317383 0 -11.826752 -5.2950287 -11.826752 -11.826767z" fill-rule="evenodd"/><path fill="#000000" fill-opacity="0.0" d="m493.57742 168.3937l0 23.653534m-11.826752 -11.826767l23.653534 0" fill-rule="evenodd"/><path fill="#000000" fill-opacity="0.0" d="m481.75067 180.22047l0 0c0 -6.5317535 5.2950134 -11.826767 11.826752 -11.826767l0 0c3.1366577 0 6.1448364 1.2460175 8.362793 3.463974c2.2179565 2.2179565 3.4639893 5.2261353 3.4639893 8.362793l0 0c0 6.5317383 -5.295044 11.826767 -11.826782 11.826767l0 0c-6.5317383 0 -11.826752 -5.2950287 -11.826752 -11.826767z" fill-rule="evenodd"/><path stroke="#000000" stroke-width="2.0" stroke-linejoin="round" stroke-linecap="butt" d="m493.57742 168.3937l0 23.653534m-11.826752 -11.826767l23.653534 0" fill-rule="evenodd"/><path stroke="#000000" stroke-width="2.0" stroke-linejoin="round" stroke-linecap="butt" d="m481.75067 180.22047l0 0c0 -6.5317535 5.2950134 -11.826767 11.826752 -11.826767l0 0c3.1366577 0 6.1448364 1.2460175 8.362793 3.463974c2.2179565 2.2179565 3.4639893 5.2261353 3.4639893 8.362793l0 0c0 6.5317383 -5.295044 11.826767 -11.826782 11.826767l0 0c-6.5317383 0 -11.826752 -5.2950287 -11.826752 -11.826767z" fill-rule="evenodd"/><path fill="#000000" fill-opacity="0.0" d="m378.42783 205.14174l67.49606 0l0 35.55905l-67.49606 0z" fill-rule="evenodd"/><path fill="#000000" d="m391.0997 216.94173q0.5625 0 1.015625 0.125q0.46875 0.125 0.9375 0.359375l-0.421875 0.859375q-0.703125 -0.34375 -1.484375 -0.34375q-0.703125 0 -0.96875 0.265625q-0.265625 0.25 -0.265625 0.78125l0 0.921875l3.90625 0l0 7.03125l-1.21875 0l0 -6.078125l-2.6875 0l0 6.078125l-1.234375 0l0 -6.078125l-1.109375 0l0 -0.953125l1.109375 0l0 -0.90625q0 -0.9375 0.59375 -1.5q0.609375 -0.5625 1.828125 -0.5625zm6.6636353 10.15625q-0.6875 0 -1.078125 -0.40625q-0.390625 -0.40625 -0.390625 -1.140625l0 -8.453125l1.21875 -0.15625l0 8.59375q0 0.28125 0.09375 0.421875q0.109375 0.125 0.34375 0.125q0.265625 0 0.453125 -0.078125l0.328125 0.859375q-0.4375 0.234375 -0.96875 0.234375zm6.045746 -0.46875q-0.6875 0.46875 -1.578125 0.46875q-0.890625 0 -1.390625 -0.5q-0.5 -0.515625 -0.5 -1.5l0 -4.234375l-1.21875 0l0 -0.953125l1.21875 0l0 -1.578125l1.234375 -0.140625l0 1.71875l1.65625 0l-0.125 0.953125l-1.53125 0l0 4.1875q0 0.546875 0.1875 0.796875q0.1875 0.234375 0.640625 0.234375q0.421875 0 0.9375 -0.28125l0.46875 0.828125zm6.377075 -3.40625q0 0.3125 -0.03125 0.625l-4.484375 0q0.078125 1.15625 0.578125 1.703125q0.515625 0.546875 1.3125 0.546875q0.515625 0 0.9375 -0.140625q0.421875 -0.15625 0.890625 -0.46875l0.53125 0.734375q-1.109375 0.875 -2.453125 0.875q-1.453125 0 -2.28125 -0.953125q-0.8125 -0.96875 -0.8125 -2.640625q0 -1.09375 0.34375 -1.9375q0.359375 -0.84375 1.015625 -1.328125q0.65625 -0.484375 1.546875 -0.484375q1.40625 0 2.15625 0.921875q0.75 0.921875 0.75 2.546875zm-1.21875 -0.359375q0 -1.046875 -0.421875 -1.578125q-0.40625 -0.546875 -1.234375 -0.546875q-1.5 0 -1.640625 2.203125l3.296875 0l0 -0.078125zm6.216919 -3.109375q0.375 0 0.703125 0.078125l-0.234375 1.203125q-0.3125 -0.078125 -0.609375 -0.078125q-0.65625 0 -1.0625 0.484375q-0.390625 0.46875 -0.609375 1.484375l0 4.015625l-1.234375 0l0 -7.03125l1.046875 0l0.125 1.4375q0.28125 -0.796875 0.75 -1.1875q0.484375 -0.40625 1.125 -0.40625zm7.010254 3.46875q0 0.3125 -0.03125 0.625l-4.484375 0q0.078125 1.15625 0.578125 1.703125q0.515625 0.546875 1.3125 0.546875q0.515625 0 0.9375 -0.140625q0.421875 -0.15625 0.890625 -0.46875l0.53125 0.734375q-1.109375 0.875 -2.453125 0.875q-1.453125 0 -2.28125 -0.953125q-0.8125 -0.96875 -0.8125 -2.640625q0 -1.09375 0.34375 -1.9375q0.359375 -0.84375 1.015625 -1.328125q0.65625 -0.484375 1.546875 -0.484375q1.40625 0 2.15625 0.921875q0.75 0.921875 0.75 2.546875zm-1.21875 -0.359375q0 -1.046875 -0.421875 -1.578125q-0.40625 -0.546875 -1.234375 -0.546875q-1.5 0 -1.640625 2.203125l3.296875 0l0 -0.078125zm8.607544 -5.765625l0 9.84375l-1.078125 0l-0.125 -0.96875q-0.34375 0.53125 -0.859375 0.828125q-0.515625 0.296875 -1.15625 0.296875q-1.265625 0 -1.96875 -0.984375q-0.6875 -0.984375 -0.6875 -2.65625q0 -1.078125 0.328125 -1.90625q0.34375 -0.84375 0.96875 -1.3125q0.625 -0.484375 1.453125 -0.484375q1.09375 0 1.90625 0.875l0 -3.6875l1.21875 0.15625zm-2.953125 9.03125q0.5625 0 0.953125 -0.25q0.40625 -0.265625 0.78125 -0.796875l0 -3.4375q-0.359375 -0.453125 -0.75 -0.671875q-0.390625 -0.234375 -0.875 -0.234375q-0.828125 0 -1.28125 0.6875q-0.4375 0.671875 -0.4375 2.015625q0 1.359375 0.40625 2.03125q0.421875 0.65625 1.203125 0.65625z" fill-rule="nonzero"/><path fill="#000000" fill-opacity="0.0" d="m493.57742 192.04724l0 42.771652l-143.05511 0" fill-rule="evenodd"/><path stroke="#980000" stroke-width="1.0" stroke-linejoin="round" stroke-linecap="butt" d="m493.57742 192.04724l0 42.771652l-143.05511 0" fill-rule="evenodd"/><path fill="#ffffff" d="m244.9316 223.76598l0 0c-0.9366913 -5.3304443 2.1386719 -10.607269 7.9210815 -13.591309c5.782425 -2.9840393 13.257797 -3.1519775 19.254044 -0.43252563l0 0c2.124054 -3.09935 6.011688 -5.2392273 10.486969 -5.7723846c4.475281 -0.5331421 9.012573 0.60305786 12.239441 3.0649414l0 0c1.8094177 -2.8100586 5.3622437 -4.6980743 9.397766 -4.994049c4.035492 -0.29599 7.9825745 1.0419464 10.440552 3.5390167l0 0c3.2690125 -2.978653 8.470032 -4.2328033 13.3526 -3.2197418c4.8825684 1.0130463 8.569702 4.1113434 9.466003 7.9542236l0 0c4.0050354 0.8459625 7.3411865 2.9964752 9.146423 5.8959503c1.8052673 2.8994598 1.9025269 6.263443 0.26672363 9.222794l0 0c3.9438171 3.9747162 4.8663635 9.270996 2.4234009 13.9123535c-2.4429932 4.641342 -7.884491 7.9304504 -14.293823 8.639893c-0.045166016 4.356064 -3.1302795 8.353149 -8.066193 10.450592c-4.9359436 2.0974426 -10.951904 1.9677124 -15.729095 -0.33917236l0 0c-2.0348206 5.2171326 -7.7621765 9.055878 -14.707642 9.857697c-6.945465 0.80184937 -13.863922 -1.5769653 -17.766357 -6.108673l0 0c-4.783539 2.2337036 -10.523407 2.8771667 -15.924774 1.7852173c-5.4013977 -1.091919 -10.009293 -3.8272705 -12.784271 -7.5889893l0 0c-4.888199 0.44296265 -9.614395 -1.5181885 -11.833008 -4.9101105c-2.218628 -3.391922 -1.457367 -7.492584 1.9059448 -10.266815l0 0c-4.360382 -1.9873352 -6.585312 -5.9308624 -5.514572 -9.774185c1.0707245 -3.843338 5.194504 -6.7155457 10.220932 -7.1188965z" fill-rule="evenodd"/><path fill="#000000" fill-opacity="0.0" d="m240.12862 240.8645l0 0c2.0576782 0.93782043 4.434784 1.3632507 6.812149 1.2191467m3.1138306 13.95813c1.0223541 -0.09265137 2.0244598 -0.28883362 2.9804688 -0.5834961m25.727173 6.387024c-0.7190552 -0.835022 -1.321106 -1.7272949 -1.7958374 -2.6616516m34.271088 -1.0875549l0 0c0.37097168 -0.9511719 0.6113281 -1.9301147 0.71707153 -2.920517m23.077301 -7.1905212c0.048095703 -4.6377106 -3.3535461 -8.884048 -8.743835 -10.915085m20.614136 -11.636673c-0.8729553 1.5792236 -2.2055664 2.980133 -3.8934326 4.0928955m-5.5188904 -19.212051l0 0c0.14871216 0.6377411 0.21755981 1.2850494 0.20553589 1.9329681m-23.023743 -6.6672516l0 0c-0.8154602 0.74302673 -1.4872742 1.573349 -1.9945374 2.4651184m-17.843964 -1.0104218l0 0c-0.4345703 0.67489624 -0.75909424 1.3890381 -0.96606445 2.1259918m-21.760712 0.58151245l0 0c1.2687988 0.5754242 2.442627 1.2680206 3.4956665 2.062561m-30.670425 11.9613495l0 0c0.12910461 0.7346649 0.33309937 1.4602814 0.61006165 2.1700592" fill-rule="evenodd"/><path stroke="#000000" stroke-width="1.0" stroke-linejoin="round" stroke-linecap="butt" d="m244.9316 223.76598l0 0c-0.9366913 -5.3304443 2.1386719 -10.607269 7.9210815 -13.591309c5.782425 -2.9840393 13.257797 -3.1519775 19.254044 -0.43252563l0 0c2.124054 -3.09935 6.011688 -5.2392273 10.486969 -5.7723846c4.475281 -0.5331421 9.012573 0.60305786 12.239441 3.0649414l0 0c1.8094177 -2.8100586 5.3622437 -4.6980743 9.397766 -4.994049c4.035492 -0.29599 7.9825745 1.0419464 10.440552 3.5390167l0 0c3.2690125 -2.978653 8.470032 -4.2328033 13.3526 -3.2197418c4.8825684 1.0130463 8.569702 4.1113434 9.466003 7.9542236l0 0c4.0050354 0.8459625 7.3411865 2.9964752 9.146423 5.8959503c1.8052673 2.8994598 1.9025269 6.263443 0.26672363 9.222794l0 0c3.9438171 3.9747162 4.8663635 9.270996 2.4234009 13.9123535c-2.4429932 4.641342 -7.884491 7.9304504 -14.293823 8.639893c-0.045166016 4.356064 -3.1302795 8.353149 -8.066193 10.450592c-4.9359436 2.0974426 -10.951904 1.9677124 -15.729095 -0.33917236l0 0c-2.0348206 5.2171326 -7.7621765 9.055878 -14.707642 9.857697c-6.945465 0.80184937 -13.863922 -1.5769653 -17.766357 -6.108673l0 0c-4.783539 2.2337036 -10.523407 2.8771667 -15.924774 1.7852173c-5.4013977 -1.091919 -10.009293 -3.8272705 -12.784271 -7.5889893l0 0c-4.888199 0.44296265 -9.614395 -1.5181885 -11.833008 -4.9101105c-2.218628 -3.391922 -1.457367 -7.492584 1.9059448 -10.266815l0 0c-4.360382 -1.9873352 -6.585312 -5.9308624 -5.514572 -9.774185c1.0707245 -3.843338 5.194504 -6.7155457 10.220932 -7.1188965z" fill-rule="evenodd"/><path stroke="#000000" stroke-width="1.0" stroke-linejoin="round" stroke-linecap="butt" d="m240.12862 240.8645l0 0c2.0576782 0.93782043 4.434784 1.3632507 6.812149 1.2191467m3.1138306 13.95813c1.0223541 -0.09265137 2.0244598 -0.28883362 2.9804688 -0.5834961m25.727173 6.387024c-0.7190552 -0.835022 -1.321106 -1.7272949 -1.7958374 -2.6616516m34.271088 -1.0875549l0 0c0.37097168 -0.9511719 0.6113281 -1.9301147 0.71707153 -2.920517m23.077301 -7.1905212c0.048095703 -4.6377106 -3.3535461 -8.884048 -8.743835 -10.915085m20.614136 -11.636673c-0.8729553 1.5792236 -2.2055664 2.980133 -3.8934326 4.0928955m-5.5188904 -19.212051l0 0c0.14871216 0.6377411 0.21755981 1.2850494 0.20553589 1.9329681m-23.023743 -6.6672516l0 0c-0.8154602 0.74302673 -1.4872742 1.573349 -1.9945374 2.4651184m-17.843964 -1.0104218l0 0c-0.4345703 0.67489624 -0.75909424 1.3890381 -0.96606445 2.1259918m-21.760712 0.58151245l0 0c1.2687988 0.5754242 2.442627 1.2680206 3.4956665 2.062561m-30.670425 11.9613495l0 0c0.12910461 0.7346649 0.33309937 1.4602814 0.61006165 2.1700592" fill-rule="evenodd"/><path fill="#000000" d="m263.28342 222.90672q0.625 0 1.140625 0.1875q0.515625 0.171875 1.0 0.578125l-0.578125 0.765625q-0.375 -0.265625 -0.734375 -0.390625q-0.34375 -0.125 -0.78125 -0.125q-0.84375 0 -1.328125 0.6875q-0.46875 0.671875 -0.46875 2.0q0 1.34375 0.46875 1.984375q0.46875 0.625 1.328125 0.625q0.421875 0 0.765625 -0.125q0.34375 -0.140625 0.765625 -0.40625l0.5625 0.796875q-0.953125 0.765625 -2.140625 0.765625q-1.421875 0 -2.25 -0.953125q-0.8125 -0.96875 -0.8125 -2.65625q0 -1.125 0.359375 -1.953125q0.375 -0.84375 1.0625 -1.3125q0.6875 -0.46875 1.640625 -0.46875zm10.855194 0q0.875 0 1.390625 0.578125q0.515625 0.578125 0.515625 1.578125l0 5.03125l-1.21875 0l0 -4.859375q0 -1.359375 -0.984375 -1.359375q-0.53125 0 -0.890625 0.296875q-0.359375 0.296875 -0.765625 0.9375l0 4.984375l-1.234375 0l0 -4.859375q0 -1.359375 -0.984375 -1.359375q-0.53125 0 -0.890625 0.3125q-0.359375 0.296875 -0.75 0.921875l0 4.984375l-1.234375 0l0 -7.03125l1.046875 0l0.109375 1.03125q0.796875 -1.1875 2.03125 -1.1875q0.65625 0 1.109375 0.34375q0.46875 0.328125 0.65625 0.921875q0.421875 -0.609375 0.921875 -0.9375q0.5 -0.328125 1.171875 -0.328125zm9.812805 -2.65625l0 9.84375l-1.078125 0l-0.125 -0.96875q-0.34375 0.53125 -0.859375 0.828125q-0.515625 0.296875 -1.15625 0.296875q-1.265625 0 -1.96875 -0.984375q-0.6875 -0.984375 -0.6875 -2.65625q0 -1.078125 0.328125 -1.90625q0.34375 -0.84375 0.96875 -1.3125q0.625 -0.484375 1.453125 -0.484375q1.09375 0 1.90625 0.875l0 -3.6875l1.21875 0.15625zm-2.953125 9.03125q0.5625 0 0.953125 -0.25q0.40625 -0.265625 0.78125 -0.796875l0 -3.4375q-0.359375 -0.453125 -0.75 -0.671875q-0.390625 -0.234375 -0.875 -0.234375q-0.828125 0 -1.28125 0.6875q-0.4375 0.671875 -0.4375 2.015625q0 1.359375 0.40625 2.03125q0.421875 0.65625 1.203125 0.65625z" fill-rule="nonzero"/><path fill="#000000" d="m266.15842 236.25047l0 9.84375l-1.078125 0l-0.125 -0.96875q-0.34375 0.53125 -0.859375 0.828125q-0.515625 0.296875 -1.15625 0.296875q-1.265625 0 -1.96875 -0.984375q-0.6875 -0.984375 -0.6875 -2.65625q0 -1.078125 0.328125 -1.90625q0.34375 -0.84375 0.96875 -1.3125q0.625 -0.484375 1.453125 -0.484375q1.09375 0 1.90625 0.875l0 -3.6875l1.21875 0.15625zm-2.953125 9.03125q0.5625 0 0.953125 -0.25q0.40625 -0.265625 0.78125 -0.796875l0 -3.4375q-0.359375 -0.453125 -0.75 -0.671875q-0.390625 -0.234375 -0.875 -0.234375q-0.828125 0 -1.28125 0.6875q-0.4375 0.671875 -0.4375 2.015625q0 1.359375 0.40625 2.03125q0.421875 0.65625 1.203125 0.65625zm10.798309 -2.90625q0 0.3125 -0.03125 0.625l-4.484375 0q0.078125 1.15625 0.578125 1.703125q0.515625 0.546875 1.3125 0.546875q0.515625 0 0.9375 -0.140625q0.421875 -0.15625 0.890625 -0.46875l0.53125 0.734375q-1.109375 0.875 -2.453125 0.875q-1.453125 0 -2.28125 -0.953125q-0.8125 -0.96875 -0.8125 -2.640625q0 -1.09375 0.34375 -1.9375q0.359375 -0.84375 1.015625 -1.328125q0.65625 -0.484375 1.546875 -0.484375q1.40625 0 2.15625 0.921875q0.75 0.921875 0.75 2.546875zm-1.21875 -0.359375q0 -1.046875 -0.421875 -1.578125q-0.40625 -0.546875 -1.234375 -0.546875q-1.5 0 -1.640625 2.203125l3.296875 0l0 -0.078125zm6.716919 3.765625q-0.6875 0.46875 -1.578125 0.46875q-0.890625 0 -1.390625 -0.5q-0.5 -0.515625 -0.5 -1.5l0 -4.234375l-1.21875 0l0 -0.953125l1.21875 0l0 -1.578125l1.234375 -0.140625l0 1.71875l1.65625 0l-0.125 0.953125l-1.53125 0l0 4.1875q0 0.546875 0.1875 0.796875q0.1875 0.234375 0.640625 0.234375q0.421875 0 0.9375 -0.28125l0.46875 0.828125zm6.377075 -3.40625q0 0.3125 -0.03125 0.625l-4.484375 0q0.078125 1.15625 0.578125 1.703125q0.515625 0.546875 1.3125 0.546875q0.515625 0 0.9375 -0.140625q0.421875 -0.15625 0.890625 -0.46875l0.53125 0.734375q-1.109375 0.875 -2.453125 0.875q-1.453125 0 -2.28125 -0.953125q-0.8125 -0.96875 -0.8125 -2.640625q0 -1.09375 0.34375 -1.9375q0.359375 -0.84375 1.015625 -1.328125q0.65625 -0.484375 1.546875 -0.484375q1.40625 0 2.15625 0.921875q0.75 0.921875 0.75 2.546875zm-1.21875 -0.359375q0 -1.046875 -0.421875 -1.578125q-0.40625 -0.546875 -1.234375 -0.546875q-1.5 0 -1.640625 2.203125l3.296875 0l0 -0.078125zm5.732544 -3.109375q0.625 0 1.140625 0.1875q0.515625 0.171875 1.0 0.578125l-0.578125 0.765625q-0.375 -0.265625 -0.734375 -0.390625q-0.34375 -0.125 -0.78125 -0.125q-0.84375 0 -1.328125 0.6875q-0.46875 0.671875 -0.46875 2.0q0 1.34375 0.46875 1.984375q0.46875 0.625 1.328125 0.625q0.421875 0 0.765625 -0.125q0.34375 -0.140625 0.765625 -0.40625l0.5625 0.796875q-0.953125 0.765625 -2.140625 0.765625q-1.421875 0 -2.25 -0.953125q-0.8125 -0.96875 -0.8125 -2.65625q0 -1.125 0.359375 -1.953125q0.375 -0.84375 1.0625 -1.3125q0.6875 -0.46875 1.640625 -0.46875zm7.355194 6.875q-0.6875 0.46875 -1.578125 0.46875q-0.890625 0 -1.390625 -0.5q-0.5 -0.515625 -0.5 -1.5l0 -4.234375l-1.21875 0l0 -0.953125l1.21875 0l0 -1.578125l1.234375 -0.140625l0 1.71875l1.65625 0l-0.125 0.953125l-1.53125 0l0 4.1875q0 0.546875 0.1875 0.796875q0.1875 0.234375 0.640625 0.234375q0.421875 0 0.9375 -0.28125l0.46875 0.828125zm3.7051697 -6.875q1.484375 0 2.296875 0.984375q0.828125 0.984375 0.828125 2.6875q0 1.09375 -0.375 1.921875q-0.375 0.828125 -1.09375 1.296875q-0.703125 0.453125 -1.671875 0.453125q-1.484375 0 -2.3125 -0.984375q-0.8125 -0.984375 -0.8125 -2.671875q0 -1.09375 0.359375 -1.921875q0.375 -0.84375 1.078125 -1.296875q0.71875 -0.46875 1.703125 -0.46875zm0 0.984375q-1.828125 0 -1.828125 2.703125q0 2.671875 1.8125 2.671875q1.8125 0 1.8125 -2.6875q0 -2.6875 -1.796875 -2.6875zm8.18985 -0.984375q0.375 0 0.703125 0.078125l-0.234375 1.203125q-0.3125 -0.078125 -0.609375 -0.078125q-0.65625 0 -1.0625 0.484375q-0.390625 0.46875 -0.609375 1.484375l0 4.015625l-1.234375 0l0 -7.03125l1.046875 0l0.125 1.4375q0.28125 -0.796875 0.75 -1.1875q0.484375 -0.40625 1.125 -0.40625z" fill-rule="nonzero"/><path fill="#000000" fill-opacity="0.0" d="m195.55983 338.1325l0 -103.3071l39.244095 0" fill-rule="evenodd"/><path stroke="#000000" stroke-width="1.0" stroke-linejoin="round" stroke-linecap="butt" d="m195.55983 338.1325l0 -103.3071l39.244095 0" fill-rule="evenodd"/><path fill="#000000" fill-opacity="0.0" d="m181.37007 205.14174l67.49606 0l0 35.55905l-67.49606 0z" fill-rule="evenodd"/><path fill="#000000" d="m193.96382 217.59798q0.921875 0 1.578125 0.265625q0.65625 0.25 1.265625 0.796875l-0.6875 0.78125q-0.53125 -0.421875 -1.03125 -0.609375q-0.5 -0.1875 -1.0625 -0.1875q-0.71875 0 -1.1875 0.328125q-0.46875 0.328125 -0.46875 0.96875q0 0.40625 0.15625 0.6875q0.15625 0.265625 0.59375 0.5q0.4375 0.21875 1.265625 0.46875q0.859375 0.265625 1.4375 0.578125q0.578125 0.296875 0.921875 0.84375q0.359375 0.53125 0.359375 1.359375q0 0.796875 -0.40625 1.421875q-0.390625 0.609375 -1.125 0.953125q-0.734375 0.34375 -1.75 0.34375q-1.90625 0 -3.125 -1.1875l0.703125 -0.765625q0.5625 0.453125 1.125 0.6875q0.578125 0.234375 1.28125 0.234375q0.859375 0 1.40625 -0.421875q0.5625 -0.421875 0.5625 -1.21875q0 -0.453125 -0.171875 -0.75q-0.171875 -0.3125 -0.59375 -0.546875q-0.421875 -0.234375 -1.21875 -0.484375q-1.40625 -0.421875 -2.0625 -1.015625q-0.65625 -0.609375 -0.65625 -1.625q0 -0.703125 0.359375 -1.25q0.375 -0.546875 1.03125 -0.84375q0.671875 -0.3125 1.5 -0.3125zm7.295044 -1.53125l0 1.03125l-1.59375 0l0 10.375l1.59375 0l0 1.015625l-2.765625 0l0 -12.421875l2.765625 0zm4.385391 1.828125q1.484375 0 2.234375 1.1875q0.75 1.171875 0.75 3.40625q0 2.234375 -0.75 3.421875q-0.75 1.1875 -2.234375 1.1875q-1.484375 0 -2.234375 -1.1875q-0.75 -1.1875 -0.75 -3.421875q0 -2.234375 0.75 -3.40625q0.75 -1.1875 2.234375 -1.1875zm0 0.96875q-0.859375 0 -1.28125 0.859375q-0.421875 0.84375 -0.421875 2.765625q0 1.921875 0.421875 2.78125q0.421875 0.859375 1.28125 0.859375q0.859375 0 1.28125 -0.859375q0.421875 -0.859375 0.421875 -2.78125q0 -1.90625 -0.421875 -2.765625q-0.421875 -0.859375 -1.28125 -0.859375zm7.1401978 -2.796875l0 12.421875l-2.75 0l0 -1.015625l1.59375 0l0 -10.375l-1.59375 0l0 -1.03125l2.75 0z" fill-rule="nonzero"/><path fill="#000000" fill-opacity="0.0" d="m292.53113 205.56303l0 -82.64567l153.66928 0" fill-rule="evenodd"/><path stroke="#980000" stroke-width="1.0" stroke-linejoin="round" stroke-linecap="butt" d="m292.53113 205.56303l0 -82.64567l153.66928 0" fill-rule="evenodd"/><path fill="#000000" fill-opacity="0.0" d="m12.04462 373.17584l123.622055 0l0 37.165375l-123.622055 0z" fill-rule="evenodd"/><path fill="#666666" d="m22.966494 386.27148l-1.15625 -0.171875l0 -0.734375l3.984375 0l0 0.734375l-1.265625 0.171875l0 3.953125l5.15625 0l0 -3.953125l-1.1875 -0.171875l0 -0.734375l3.937502 0l0 0.734375l-1.1562519 0.171875l0 9.125l1.1562519 0.140625l0 0.71875l-3.937502 0l0 -0.71875l1.1875 -0.140625l0 -4.265625l-5.15625 0l0 4.265625l1.28125 0.140625l0 0.71875l-4.03125 0l0 -0.71875l1.1875 -0.140625l0 -9.125zm10.869799 5.890625q0 -1.3125 0.546875 -2.28125q0.546875 -0.96875 1.421875 -1.46875q0.890625 -0.515625 1.90625 -0.515625q1.84375 0 2.765625 1.171875q0.9375 1.171875 0.9375 3.078125q0 1.34375 -0.546875 2.3125q-0.53125 0.96875 -1.421875 1.46875q-0.890625 0.484375 -1.890625 0.484375q-1.859375 0 -2.796875 -1.171875q-0.921875 -1.171875 -0.921875 -3.078125zm3.796875 3.421875q1.015625 0 1.546875 -0.828125q0.546875 -0.84375 0.546875 -2.484375q0 -1.625 -0.5 -2.578125q-0.484375 -0.953125 -1.59375 -0.953125q-1.015625 0 -1.5625 0.84375q-0.546875 0.828125 -0.546875 2.46875q0 1.625 0.515625 2.578125q0.515625 0.953125 1.59375 0.953125zm6.4735413 -0.5q0.15625 0.21875 0.625 0.40625q0.484375 0.171875 1.015625 0.171875q0.828125 0 1.21875 -0.328125q0.40625 -0.328125 0.40625 -0.890625q0 -0.40625 -0.25 -0.6875q-0.25 -0.296875 -0.703125 -0.515625q-0.4375 -0.234375 -1.28125 -0.5625q-1.125 -0.421875 -1.65625 -1.015625q-0.515625 -0.59375 -0.515625 -1.5625q0 -0.640625 0.390625 -1.125q0.390625 -0.484375 1.0625 -0.75q0.6875 -0.28125 1.53125 -0.28125q0.671875 0 1.171875 0.109375q0.515625 0.09375 0.8125 0.203125q0.3125 0.09375 0.421875 0.125l0 1.828125l-0.90625 0l-0.28125 -1.09375q-0.09375 -0.171875 -0.484375 -0.296875q-0.375 -0.125 -0.84375 -0.125q-0.65625 0 -1.0625 0.296875q-0.40625 0.296875 -0.40625 0.78125q0 0.453125 0.21875 0.734375q0.21875 0.28125 0.53125 0.46875q0.328125 0.171875 0.875 0.40625l0.296875 0.109375q0.828125 0.328125 1.328125 0.625q0.515625 0.28125 0.859375 0.765625q0.34375 0.46875 0.34375 1.15625q0 1.09375 -0.84375 1.734375q-0.828125 0.640625 -2.296875 0.640625q-0.71875 0 -1.515625 -0.1875q-0.78125 -0.203125 -1.265625 -0.40625l0 -1.875l0.953125 0l0.25 1.140625zm8.557678 1.3125q-0.84375 0 -1.25 -0.375q-0.40625 -0.375 -0.40625 -1.296875l0 -5.640625l-1.0625 0l0 -0.65625q0.078125 -0.015625 0.40625 -0.09375q0.34375 -0.09375 0.453125 -0.171875q0.234375 -0.125 0.375 -0.53125q0.109375 -0.265625 0.265625 -0.875q0.171875 -0.625 0.203125 -0.75l0.859375 0l0.03125 2.109375l2.453125 0l0 0.96875l-2.453125 0l0 4.5q0 0.84375 0.046875 1.1875q0.0625 0.328125 0.21875 0.4375q0.171875 0.09375 0.59375 0.09375q0.390625 0 0.859375 -0.09375q0.484375 -0.109375 0.75 -0.234375l0.21875 0.671875q-0.359375 0.25 -1.140625 0.5q-0.78125 0.25 -1.421875 0.25zm10.516785 0.015625q-0.765625 0 -1.375 -0.140625q-0.59375 -0.125 -1.3125 -0.34375q-0.4375 -0.15625 -0.65625 -0.171875l0.125 -2.65625l0.9375 0l0.25 1.90625q0.25 0.234375 0.8125 0.421875q0.5625 0.1875 1.234375 0.1875q1.1093712 0 1.6874962 -0.5q0.578125 -0.5 0.578125 -1.375q0 -0.578125 -0.3125 -0.984375q-0.3125 -0.40625 -0.84375 -0.703125q-0.5156212 -0.296875 -1.4218712 -0.6875q-0.8125 -0.375 -1.421875 -0.75q-0.609375 -0.390625 -1.0625 -1.015625q-0.4375 -0.640625 -0.4375 -1.53125q0 -0.8125 0.421875 -1.453125q0.4375 -0.640625 1.25 -1.0q0.8125 -0.359375 1.90625 -0.359375q0.6718712 0 1.1874962 0.109375q0.515625 0.09375 1.171875 0.265625q0.296875 0.109375 0.5 0.125l-0.078125 2.46875l-0.890625 0l-0.296875 -1.796875q-0.15625 -0.15625 -0.625 -0.28125q-0.453125 -0.140625 -0.9843712 -0.140625q-1.015625 0 -1.546875 0.4375q-0.515625 0.421875 -0.515625 1.21875q0 0.59375 0.3125 1.0q0.328125 0.390625 0.796875 0.671875q0.46875 0.265625 1.4843712 0.75q0.953125 0.453125 1.546875 0.828125q0.609375 0.359375 1.046875 0.953125q0.4375 0.59375 0.4375 1.421875q0 0.765625 -0.4375 1.484375q-0.4375 0.71875 -1.328125 1.1875q-0.875 0.453125 -2.1406212 0.453125zm6.2995872 3.5q-0.25 0 -0.5 -0.03125q-0.234375 -0.03125 -0.328125 -0.09375l0 -1.28125q0.078125 0.0625 0.328125 0.09375q0.265625 0.03125 0.5 0.03125q0.703125 0 1.234375 -0.5q0.546875 -0.484375 1.046875 -1.875l-0.703125 0l-2.796875 -7.25l-0.671875 -0.203125l0 -0.6875l3.53125 0l0 0.6875l-1.125 0.1875l1.4375 4.3125l0.671875 2.140625l0.625 -2.140625l1.3125 -4.3125l-0.984375 -0.1875l0 -0.6875l2.953125 0l0 0.6875l-0.734375 0.1875q-2.15625 6.59375 -2.546875 7.484375q-0.484375 1.265625 -0.90625 1.96875q-0.40625 0.71875 -0.96875 1.09375q-0.546875 0.375 -1.375 0.375zm8.555283 -4.828125q0.15625 0.21875 0.625 0.40625q0.484375 0.171875 1.015625 0.171875q0.828125 0 1.21875 -0.328125q0.40625 -0.328125 0.40625 -0.890625q0 -0.40625 -0.25 -0.6875q-0.25 -0.296875 -0.703125 -0.515625q-0.4375 -0.234375 -1.28125 -0.5625q-1.125 -0.421875 -1.65625 -1.015625q-0.515625 -0.59375 -0.515625 -1.5625q0 -0.640625 0.390625 -1.125q0.390625 -0.484375 1.0625 -0.75q0.6875 -0.28125 1.53125 -0.28125q0.671875 0 1.171875 0.109375q0.515625 0.09375 0.8125 0.203125q0.3125 0.09375 0.421875 0.125l0 1.828125l-0.90625 0l-0.28125 -1.09375q-0.09375 -0.171875 -0.484375 -0.296875q-0.375 -0.125 -0.84375 -0.125q-0.65625 0 -1.0625 0.296875q-0.40625 0.296875 -0.40625 0.78125q0 0.453125 0.21875 0.734375q0.21875 0.28125 0.53125 0.46875q0.328125 0.171875 0.875 0.40625l0.296875 0.109375q0.828125 0.328125 1.328125 0.625q0.515625 0.28125 0.859375 0.765625q0.34375 0.46875 0.34375 1.15625q0 1.09375 -0.84375 1.734375q-0.828125 0.640625 -2.296875 0.640625q-0.71875 0 -1.515625 -0.1875q-0.78125 -0.203125 -1.265625 -0.40625l0 -1.875l0.953125 0l0.25 1.140625zm8.557678 1.3125q-0.84375 0 -1.25 -0.375q-0.40625 -0.375 -0.40625 -1.296875l0 -5.640625l-1.0625 0l0 -0.65625q0.078125 -0.015625 0.40625 -0.09375q0.34375 -0.09375 0.453125 -0.171875q0.234375 -0.125 0.375 -0.53125q0.109375 -0.265625 0.265625 -0.875q0.171875 -0.625 0.203125 -0.75l0.859375 0l0.03125 2.109375l2.453125 0l0 0.96875l-2.453125 0l0 4.5q0 0.84375 0.046875 1.1875q0.0625 0.328125 0.21875 0.4375q0.171875 0.09375 0.59375 0.09375q0.390625 0 0.859375 -0.09375q0.484375 -0.109375 0.75 -0.234375l0.21875 0.671875q-0.359375 0.25 -1.140625 0.5q-0.78125 0.25 -1.421875 0.25zm7.0588684 0.015625q-1.78125 0 -2.71875 -1.15625q-0.921875 -1.15625 -0.921875 -3.09375q0 -1.265625 0.484375 -2.234375q0.484375 -0.96875 1.359375 -1.5q0.875 -0.53125 1.984375 -0.53125q1.359375 0 2.109375 0.765625q0.765625 0.75 0.8125 2.15625q0 0.890625 -0.109375 1.359375l-5.03125 0q0.015625 1.453125 0.65625 2.34375q0.65625 0.890625 1.84375 0.890625q0.578125 0 1.21875 -0.21875q0.640625 -0.21875 1.0 -0.5l0.265625 0.640625q-0.421875 0.4375 -1.265625 0.765625q-0.828125 0.3125 -1.6875 0.3125zm1.5 -5.0q0.03125 -0.3125 0.03125 -0.640625q0 -0.953125 -0.390625 -1.5q-0.390625 -0.546875 -1.234375 -0.546875q-0.84375 0 -1.359375 0.625q-0.5 0.609375 -0.5625 2.0625l3.515625 0zm2.8480377 4.125l0.890625 -0.125l0 -6.15625l-1.046875 -0.265625l0 -0.796875l2.09375 -0.265625l0.265625 0.1875l0.09375 0.59375l-0.015625 0.46875q0.5 -0.46875 1.390625 -0.859375q0.890625 -0.390625 1.59375 -0.390625q0.796875 0 1.28125 0.265625q0.484375 0.265625 0.734375 0.828125q0.46875 -0.40625 1.296875 -0.75q0.84375 -0.34375 1.578125 -0.34375q0.90625 0 1.421875 0.34375q0.515625 0.34375 0.71875 1.078125q0.21875 0.71875 0.21875 1.9375l0 4.125l1.0625 0.125l0 0.71875l-3.484375 0l0 -0.71875l0.90625 -0.125l0 -4.078125q0 -0.859375 -0.125 -1.359375q-0.125 -0.5 -0.46875 -0.75q-0.34375 -0.25 -1.0 -0.25q-0.46875 0 -1.015625 0.21875q-0.546875 0.203125 -0.921875 0.5q0.125 0.5625 0.125 1.625l0 4.09375l1.046875 0.125l0 0.71875l-3.546875 0l0 -0.71875l0.96875 -0.125l0 -4.109375q0 -0.875 -0.109375 -1.359375q-0.109375 -0.484375 -0.421875 -0.71875q-0.3125 -0.25 -0.9375 -0.25q-0.53125 0 -1.125 0.265625q-0.59375 0.265625 -1.03125 0.609375l0 5.5625l0.984375 0.125l0 0.71875l-3.421875 0l0 -0.71875z" fill-rule="nonzero"/><path fill="#000000" fill-opacity="0.0" d="m317.44882 373.17584l123.62204 0l0 37.165375l-123.62204 0z" fill-rule="evenodd"/><path fill="#666666" d="m328.60507 386.27148l-1.359375 -0.171875l0 -0.734375l4.296875 0l0 0.734375l-1.359375 0.171875l0 9.125l1.359375 0.15625l0 0.703125l-4.28125 0l0 -0.71875l1.34375 -0.140625l0 -9.125zm5.281494 2.984375l-1.046875 -0.265625l0 -0.796875l2.09375 -0.265625l0.046875 0l0.3125 0.265625l0 0.609375l-0.015625 0.359375q0.515625 -0.46875 1.375 -0.84375q0.875 -0.390625 1.671875 -0.390625q0.921875 0 1.421875 0.359375q0.515625 0.34375 0.71875 1.078125q0.203125 0.71875 0.203125 1.953125l0 4.109375l1.03125 0.09375l0 0.734375l-3.484375 0l0 -0.71875l0.90625 -0.109375l0 -4.125q0 -0.859375 -0.125 -1.34375q-0.109375 -0.5 -0.4375 -0.734375q-0.3125 -0.25 -0.921875 -0.25q-0.53125 0 -1.140625 0.265625q-0.59375 0.265625 -1.0625 0.609375l0 5.5625l1.0 0.125l0 0.71875l-3.46875 0l0 -0.71875l0.921875 -0.125l0 -6.15625zm11.372406 7.140625q-0.84375 0 -1.25 -0.375q-0.40625 -0.375 -0.40625 -1.296875l0 -5.640625l-1.0625 0l0 -0.65625q0.078125 -0.015625 0.40625 -0.09375q0.34375 -0.09375 0.453125 -0.171875q0.234375 -0.125 0.375 -0.53125q0.109375 -0.265625 0.265625 -0.875q0.171875 -0.625 0.203125 -0.75l0.859375 0l0.03125 2.109375l2.453125 0l0 0.96875l-2.453125 0l0 4.5q0 0.84375 0.046875 1.1875q0.0625 0.328125 0.21875 0.4375q0.171875 0.09375 0.59375 0.09375q0.390625 0 0.859375 -0.09375q0.484375 -0.109375 0.75 -0.234375l0.21875 0.671875q-0.359375 0.25 -1.140625 0.5q-0.78125 0.25 -1.421875 0.25zm7.0588684 0.015625q-1.78125 0 -2.71875 -1.15625q-0.921875 -1.15625 -0.921875 -3.09375q0 -1.265625 0.484375 -2.234375q0.484375 -0.96875 1.359375 -1.5q0.875 -0.53125 1.984375 -0.53125q1.359375 0 2.109375 0.765625q0.765625 0.75 0.8125 2.15625q0 0.890625 -0.109375 1.359375l-5.03125 0q0.015625 1.453125 0.65625 2.34375q0.65625 0.890625 1.84375 0.890625q0.578125 0 1.21875 -0.21875q0.640625 -0.21875 1.0 -0.5l0.265625 0.640625q-0.421875 0.4375 -1.265625 0.765625q-0.828125 0.3125 -1.6875 0.3125zm1.5 -5.0q0.03125 -0.3125 0.03125 -0.640625q0 -0.953125 -0.390625 -1.5q-0.390625 -0.546875 -1.234375 -0.546875q-0.84375 0 -1.359375 0.625q-0.5 0.609375 -0.5625 2.0625l3.515625 0zm2.8948975 4.125l1.09375 -0.09375l0 -6.1875l-1.046875 -0.265625l0 -0.796875l2.015625 -0.265625l0.03125 0l0.328125 0.265625l0 0.265625l-0.046875 1.140625l0.046875 0q0.140625 -0.25 0.515625 -0.640625q0.390625 -0.390625 0.984375 -0.71875q0.609375 -0.34375 1.3125 -0.34375q0.296875 0 0.484375 0.078125l0 1.640625q-0.109375 -0.078125 -0.34375 -0.140625q-0.21875 -0.0625 -0.5 -0.0625q-1.203125 0 -2.25 0.75l0 5.265625l1.859375 0.125l0 0.703125l-4.484375 0l0 -0.71875zm14.618835 -3.640625q0 1.25 -0.515625 2.28125q-0.515625 1.03125 -1.46875 1.640625q-0.953125 0.59375 -2.234375 0.59375q-0.34375 0 -0.765625 -0.0625q-0.40625 -0.046875 -0.65625 -0.140625l0.046875 1.234375l0 1.484375l1.53125 0.15625l0 0.71875l-4.09375 0l0 -0.71875l1.0625 -0.15625l0 -9.671875l-1.078125 -0.265625l0 -0.796875l2.078125 -0.265625l0.03125 0l0.3125 0.265625l0 0.859375q0.4375 -0.484375 1.09375 -0.8125q0.65625 -0.34375 1.453125 -0.34375q0.875 0 1.59375 0.4375q0.71875 0.421875 1.15625 1.3125q0.453125 0.890625 0.453125 2.25zm-3.796875 -2.96875q-0.5625 0 -1.046875 0.234375q-0.484375 0.234375 -0.75 0.515625l0 5.515625q0.109375 0.1875 0.515625 0.328125q0.421875 0.140625 0.921875 0.140625q1.125 0 1.828125 -0.890625q0.703125 -0.90625 0.703125 -2.703125q0 -1.59375 -0.609375 -2.359375q-0.609375 -0.78125 -1.5625 -0.78125zm5.0635376 3.234375q0 -1.3125 0.546875 -2.28125q0.546875 -0.96875 1.421875 -1.46875q0.890625 -0.515625 1.90625 -0.515625q1.84375 0 2.765625 1.171875q0.9375 1.171875 0.9375 3.078125q0 1.34375 -0.546875 2.3125q-0.53125 0.96875 -1.421875 1.46875q-0.890625 0.484375 -1.890625 0.484375q-1.859375 0 -2.796875 -1.171875q-0.921875 -1.171875 -0.921875 -3.078125zm3.796875 3.421875q1.015625 0 1.546875 -0.828125q0.546875 -0.84375 0.546875 -2.484375q0 -1.625 -0.5 -2.578125q-0.484375 -0.953125 -1.59375 -0.953125q-1.015625 0 -1.5625 0.84375q-0.546875 0.828125 -0.546875 2.46875q0 1.625 0.515625 2.578125q0.515625 0.953125 1.59375 0.953125zm6.4735413 -0.5q0.15625 0.21875 0.625 0.40625q0.484375 0.171875 1.015625 0.171875q0.828125 0 1.21875 -0.328125q0.40625 -0.328125 0.40625 -0.890625q0 -0.40625 -0.25 -0.6875q-0.25 -0.296875 -0.703125 -0.515625q-0.4375 -0.234375 -1.28125 -0.5625q-1.125 -0.421875 -1.65625 -1.015625q-0.515625 -0.59375 -0.515625 -1.5625q0 -0.640625 0.390625 -1.125q0.390625 -0.484375 1.0625 -0.75q0.6875 -0.28125 1.53125 -0.28125q0.671875 0 1.171875 0.109375q0.515625 0.09375 0.8125 0.203125q0.3125 0.09375 0.421875 0.125l0 1.828125l-0.90625 0l-0.28125 -1.09375q-0.09375 -0.171875 -0.484375 -0.296875q-0.375 -0.125 -0.84375 -0.125q-0.65625 0 -1.0625 0.296875q-0.40625 0.296875 -0.40625 0.78125q0 0.453125 0.21875 0.734375q0.21875 0.28125 0.53125 0.46875q0.328125 0.171875 0.875 0.40625l0.296875 0.109375q0.828125 0.328125 1.328125 0.625q0.515625 0.28125 0.859375 0.765625q0.34375 0.46875 0.34375 1.15625q0 1.09375 -0.84375 1.734375q-0.828125 0.640625 -2.296875 0.640625q-0.71875 0 -1.515625 -0.1875q-0.78125 -0.203125 -1.265625 -0.40625l0 -1.875l0.953125 0l0.25 1.140625zm9.651428 1.328125q-1.78125 0 -2.71875 -1.15625q-0.921875 -1.15625 -0.921875 -3.09375q0 -1.265625 0.484375 -2.234375q0.484375 -0.96875 1.359375 -1.5q0.875 -0.53125 1.984375 -0.53125q1.359375 0 2.109375 0.765625q0.765625 0.75 0.8125 2.15625q0 0.890625 -0.109375 1.359375l-5.03125 0q0.015625 1.453125 0.65625 2.34375q0.65625 0.890625 1.84375 0.890625q0.578125 0 1.21875 -0.21875q0.640625 -0.21875 1.0 -0.5l0.265625 0.640625q-0.421875 0.4375 -1.265625 0.765625q-0.828125 0.3125 -1.6875 0.3125zm1.5 -5.0q0.03125 -0.3125 0.03125 -0.640625q0 -0.953125 -0.390625 -1.5q-0.390625 -0.546875 -1.234375 -0.546875q-0.84375 0 -1.359375 0.625q-0.5 0.609375 -0.5625 2.0625l3.515625 0zm2.894928 4.125l1.09375 -0.09375l0 -6.1875l-1.046875 -0.265625l0 -0.796875l2.015625 -0.265625l0.03125 0l0.328125 0.265625l0 0.265625l-0.046875 1.140625l0.046875 0q0.140625 -0.25 0.515625 -0.640625q0.390625 -0.390625 0.984375 -0.71875q0.609375 -0.34375 1.3125 -0.34375q0.296875 0 0.484375 0.078125l0 1.640625q-0.109375 -0.078125 -0.34375 -0.140625q-0.21875 -0.0625 -0.5 -0.0625q-1.203125 0 -2.25 0.75l0 5.265625l1.859375 0.125l0 0.703125l-4.484375 0l0 -0.71875z" fill-rule="nonzero"/><path fill="#000000" fill-opacity="0.0" d="m611.8635 370.85828l123.62201 0l0 54.92914l-123.62201 0z" fill-rule="evenodd"/><path fill="#666666" d="m622.75415 383.9539l-1.140625 -0.171875l0 -0.734375l1.921875 0q0.453125 0 1.296875 -0.0625q0.859375 -0.046875 1.28125 -0.046875q2.71875 0 4.046875 1.375q1.328125 1.359375 1.328125 3.828125q0 1.734375 -0.6875 3.078125q-0.671875 1.34375 -1.90625 2.09375q-1.234375 0.75 -2.828125 0.75q-0.359375 0 -1.203125 -0.0625q-0.875 -0.0625 -1.3125 -0.0625l-2.015625 0l0 -0.71875l1.21875 -0.140625l0 -9.125zm1.546875 9.15625q0.515625 0.125 1.328125 0.125l0.4375 0q1.09375 -0.015625 1.9375 -0.546875q0.84375 -0.546875 1.3125 -1.625q0.46875 -1.078125 0.46875 -2.625q0 -2.3125 -1.0 -3.515625q-1.0 -1.203125 -3.03125 -1.203125q-0.421875 0 -1.0 0.0625q-0.25 0.046875 -0.453125 0.046875l0 9.28125zm8.328247 -3.265625q0 -1.3125 0.546875 -2.28125q0.546875 -0.96875 1.421875 -1.46875q0.890625 -0.515625 1.90625 -0.515625q1.84375 0 2.765625 1.171875q0.9375 1.171875 0.9375 3.078125q0 1.34375 -0.546875 2.3125q-0.53125 0.96875 -1.421875 1.46875q-0.890625 0.484375 -1.890625 0.484375q-1.859375 0 -2.796875 -1.171875q-0.921875 -1.171875 -0.921875 -3.078125zm3.796875 3.421875q1.015625 0 1.546875 -0.828125q0.546875 -0.84375 0.546875 -2.484375q0 -1.625 -0.5 -2.578125q-0.484375 -0.953125 -1.59375 -0.953125q-1.015625 0 -1.5625 0.84375q-0.546875 0.828125 -0.546875 2.46875q0 1.625 0.515625 2.578125q0.515625 0.953125 1.59375 0.953125zm4.3485107 -7.46875l3.421875 0l0 0.6875l-1.109375 0.1875l1.21875 4.3125l0.421875 1.859375l0.421875 -1.875l1.40625 -5.171875l1.4375 0l1.453125 5.171875l0.421875 1.890625l0.46875 -1.875l1.1875 -4.296875l-1.109375 -0.203125l0 -0.6875l2.96875 0l0 0.6875l-0.78125 0.203125l-2.265625 7.375l-1.375 0l-1.5625 -5.1875l-0.375 -1.8125l-0.3125 1.8125l-1.46875 5.1875l-1.375 0l-2.34375 -7.390625l-0.75 -0.1875l0 -0.6875zm13.937256 1.140625l-1.046875 -0.265625l0 -0.796875l2.09375 -0.265625l0.046875 0l0.3125 0.265625l0 0.609375l-0.015625 0.359375q0.515625 -0.46875 1.375 -0.84375q0.875 -0.390625 1.671875 -0.390625q0.921875 0 1.421875 0.359375q0.515625 0.34375 0.71875 1.078125q0.203125 0.71875 0.203125 1.953125l0 4.109375l1.03125 0.09375l0 0.734375l-3.484375 0l0 -0.71875l0.90625 -0.109375l0 -4.125q0 -0.859375 -0.125 -1.34375q-0.109375 -0.5 -0.4375 -0.734375q-0.3125 -0.25 -0.921875 -0.25q-0.53125 0 -1.140625 0.265625q-0.59375 0.265625 -1.0625 0.609375l0 5.5625l1.0 0.125l0 0.71875l-3.46875 0l0 -0.71875l0.921875 -0.125l0 -6.15625zm10.216187 5.828125q0.15625 0.21875 0.625 0.40625q0.484375 0.171875 1.015625 0.171875q0.828125 0 1.21875 -0.328125q0.40625 -0.328125 0.40625 -0.890625q0 -0.40625 -0.25 -0.6875q-0.25 -0.296875 -0.703125 -0.515625q-0.4375 -0.234375 -1.28125 -0.5625q-1.125 -0.421875 -1.65625 -1.015625q-0.515625 -0.59375 -0.515625 -1.5625q0 -0.640625 0.390625 -1.125q0.390625 -0.484375 1.0625 -0.75q0.6875 -0.28125 1.53125 -0.28125q0.671875 0 1.171875 0.109375q0.515625 0.09375 0.8125 0.203125q0.3125 0.09375 0.421875 0.125l0 1.828125l-0.90625 0l-0.28125 -1.09375q-0.09375 -0.171875 -0.484375 -0.296875q-0.375 -0.125 -0.84375 -0.125q-0.65625 0 -1.0625 0.296875q-0.40625 0.296875 -0.40625 0.78125q0 0.453125 0.21875 0.734375q0.21875 0.28125 0.53125 0.46875q0.328125 0.171875 0.875 0.40625l0.296875 0.109375q0.828125 0.328125 1.328125 0.625q0.515625 0.28125 0.859375 0.765625q0.34375 0.46875 0.34375 1.15625q0 1.09375 -0.84375 1.734375q-0.828125 0.640625 -2.296875 0.640625q-0.71875 0 -1.515625 -0.1875q-0.78125 -0.203125 -1.265625 -0.40625l0 -1.875l0.953125 0l0.25 1.140625zm8.557678 1.3125q-0.84375 0 -1.25 -0.375q-0.40625 -0.375 -0.40625 -1.296875l0 -5.640625l-1.0625 0l0 -0.65625q0.078125 -0.015625 0.40625 -0.09375q0.34375 -0.09375 0.453125 -0.171875q0.234375 -0.125 0.375 -0.53125q0.109375 -0.265625 0.265625 -0.875q0.171875 -0.625 0.203125 -0.75l0.859375 0l0.03125 2.109375l2.453125 0l0 0.96875l-2.453125 0l0 4.5q0 0.84375 0.046875 1.1875q0.0625 0.328125 0.21875 0.4375q0.171875 0.09375 0.59375 0.09375q0.390625 0 0.859375 -0.09375q0.484375 -0.109375 0.75 -0.234375l0.21875 0.671875q-0.359375 0.25 -1.140625 0.5q-0.78125 0.25 -1.421875 0.25zm3.480713 -0.859375l1.09375 -0.09375l0 -6.1875l-1.046875 -0.265625l0 -0.796875l2.015625 -0.265625l0.03125 0l0.328125 0.265625l0 0.265625l-0.046875 1.140625l0.046875 0q0.140625 -0.25 0.515625 -0.640625q0.390625 -0.390625 0.984375 -0.71875q0.609375 -0.34375 1.3125 -0.34375q0.296875 0 0.484375 0.078125l0 1.640625q-0.109375 -0.078125 -0.34375 -0.140625q-0.21875 -0.0625 -0.5 -0.0625q-1.203125 0 -2.25 0.75l0 5.265625l1.859375 0.125l0 0.703125l-4.484375 0l0 -0.71875zm10.29071 0.875q-1.78125 0 -2.71875 -1.15625q-0.921875 -1.15625 -0.921875 -3.09375q0 -1.265625 0.484375 -2.234375q0.484375 -0.96875 1.359375 -1.5q0.875 -0.53125 1.984375 -0.53125q1.359375 0 2.109375 0.765625q0.765625 0.75 0.8125 2.15625q0 0.890625 -0.109375 1.359375l-5.03125 0q0.015625 1.453125 0.65625 2.34375q0.65625 0.890625 1.84375 0.890625q0.578125 0 1.21875 -0.21875q0.640625 -0.21875 1.0 -0.5l0.265625 0.640625q-0.421875 0.4375 -1.265625 0.765625q-0.828125 0.3125 -1.6875 0.3125zm1.5 -5.0q0.03125 -0.3125 0.03125 -0.640625q0 -0.953125 -0.390625 -1.5q-0.390625 -0.546875 -1.234375 -0.546875q-0.84375 0 -1.359375 0.625q-0.5 0.609375 -0.5625 2.0625l3.515625 0zm2.8637085 2.640625q0 -1.375 1.375 -2.015625q1.390625 -0.65625 3.5 -0.703125l0 -0.40625q0 -0.703125 -0.15625 -1.09375q-0.140625 -0.390625 -0.5 -0.578125q-0.359375 -0.1875 -1.015625 -0.1875q-0.75 0 -1.34375 0.21875q-0.59375 0.21875 -1.1875 0.515625l-0.359375 -0.75q0.1875 -0.171875 0.703125 -0.4375q0.515625 -0.265625 1.1875 -0.46875q0.671875 -0.203125 1.34375 -0.203125q1.046875 0 1.65625 0.296875q0.609375 0.28125 0.859375 0.90625q0.265625 0.625 0.265625 1.6875l0 4.703125l0.875 0l0 0.640625q-0.296875 0.078125 -0.75 0.140625q-0.4375 0.078125 -0.78125 0.078125q-0.40625 0 -0.5625 -0.125q-0.140625 -0.125 -0.140625 -0.546875l0 -0.484375q-0.4375 0.4375 -1.078125 0.8125q-0.640625 0.359375 -1.4375 0.359375q-1.0625 0 -1.765625 -0.609375q-0.6875 -0.609375 -0.6875 -1.75zm3.078125 1.375q0.390625 0 0.875 -0.234375q0.5 -0.234375 0.921875 -0.5625l0 -2.515625q-1.609375 0 -2.421875 0.484375q-0.8125 0.484375 -0.8125 1.28125q0 0.796875 0.390625 1.171875q0.390625 0.375 1.046875 0.375zm5.128418 0.109375l0.890625 -0.125l0 -6.15625l-1.046875 -0.265625l0 -0.796875l2.09375 -0.265625l0.265625 0.1875l0.09375 0.59375l-0.015625 0.46875q0.5 -0.46875 1.390625 -0.859375q0.890625 -0.390625 1.59375 -0.390625q0.796875 0 1.28125 0.265625q0.484375 0.265625 0.734375 0.828125q0.46875 -0.40625 1.296875 -0.75q0.84375 -0.34375 1.578125 -0.34375q0.90625 0 1.421875 0.34375q0.515625 0.34375 0.71875 1.078125q0.21875 0.71875 0.21875 1.9375l0 4.125l1.0625 0.125l0 0.71875l-3.484375 0l0 -0.71875l0.90625 -0.125l0 -4.078125q0 -0.859375 -0.125 -1.359375q-0.125 -0.5 -0.46875 -0.75q-0.34375 -0.25 -1.0 -0.25q-0.46875 0 -1.015625 0.21875q-0.546875 0.203125 -0.921875 0.5q0.125 0.5625 0.125 1.625l0 4.09375l1.046875 0.125l0 0.71875l-3.546875 0l0 -0.71875l0.96875 -0.125l0 -4.109375q0 -0.875 -0.109375 -1.359375q-0.109375 -0.484375 -0.421875 -0.71875q-0.3125 -0.25 -0.9375 -0.25q-0.53125 0 -1.125 0.265625q-0.59375 0.265625 -1.03125 0.609375l0 5.5625l0.984375 0.125l0 0.71875l-3.421875 0l0 -0.71875z" fill-rule="nonzero"/><path fill="#666666" d="m625.1135 411.69452q-0.765625 0 -1.375 -0.140625q-0.59375 -0.125 -1.3125 -0.34375q-0.4375 -0.15625 -0.65625 -0.171875l0.125 -2.65625l0.9375 0l0.25 1.90625q0.25 0.234375 0.8125 0.421875q0.5625 0.1875 1.234375 0.1875q1.109375 0 1.6875 -0.5q0.578125 -0.5 0.578125 -1.375q0 -0.578125 -0.3125 -0.984375q-0.3125 -0.40625 -0.84375 -0.703125q-0.515625 -0.296875 -1.421875 -0.6875q-0.8125 -0.375 -1.421875 -0.75q-0.609375 -0.390625 -1.0625 -1.015625q-0.4375 -0.640625 -0.4375 -1.53125q0 -0.8125 0.421875 -1.453125q0.4375 -0.640625 1.25 -1.0q0.8125 -0.359375 1.90625 -0.359375q0.671875 0 1.1875 0.109375q0.515625 0.09375 1.171875 0.265625q0.296875 0.109375 0.5 0.125l-0.078125 2.46875l-0.890625 0l-0.296875 -1.796875q-0.15625 -0.15625 -0.625 -0.28125q-0.453125 -0.140625 -0.984375 -0.140625q-1.015625 0 -1.546875 0.4375q-0.515625 0.421875 -0.515625 1.21875q0 0.59375 0.3125 1.0q0.328125 0.390625 0.796875 0.671875q0.46875 0.265625 1.484375 0.75q0.953125 0.453125 1.546875 0.828125q0.609375 0.359375 1.046875 0.953125q0.4375 0.59375 0.4375 1.421875q0 0.765625 -0.4375 1.484375q-0.4375 0.71875 -1.328125 1.1875q-0.875 0.453125 -2.140625 0.453125zm6.3776855 -10.140625l-1.140625 -0.171875l0 -0.734375l1.9375 0q0.53125 0 1.046875 -0.046875q0.796875 -0.0625 1.5 -0.0625q2.125 0.015625 3.0 0.796875q0.875 0.78125 0.875 2.34375q0 1.171875 -0.546875 2.046875q-0.53125 0.859375 -1.5 1.3125q-0.953125 0.453125 -2.203125 0.453125q-0.421875 0 -0.859375 -0.015625q-0.4375 -0.03125 -0.546875 -0.046875l0 3.234375l2.015625 0.15625l0 0.71875l-4.796875 0l0 -0.71875l1.21875 -0.140625l0 -9.125zm1.5625 5.078125q0.421875 0.0625 1.40625 0.0625q1.15625 0 1.875 -0.703125q0.734375 -0.703125 0.734375 -2.296875q0 -1.265625 -0.625 -1.8125q-0.625 -0.546875 -1.96875 -0.546875q-0.46875 0 -1.0 0.0625q-0.3125 0.03125 -0.421875 0.03125l0 5.203125zm8.183838 -5.078125l-1.359375 -0.171875l0 -0.734375l4.296875 0l0 0.734375l-1.359375 0.171875l0 9.125l1.359375 0.15625l0 0.703125l-4.28125 0l0 -0.71875l1.34375 -0.140625l0 -9.125zm9.114441 0l-1.265625 -0.171875l0 -0.734375l7.84375 0l0.15625 2.5l-0.953125 0l-0.453125 -1.640625l-3.765625 -0.09375l0 4.25l2.65625 -0.046875l0.25 -1.21875l0.78125 0l0 3.4375l-0.765625 0l-0.265625 -1.28125l-2.65625 -0.0625l0 4.1875l2.296875 0.140625l0 0.71875l-5.03125 0l0 -0.71875l1.171875 -0.140625l0 -9.125zm8.915955 -0.953125l-1.1875 -0.15625l0 -0.625l2.359375 -0.28125l0.03125 0l0.3125 0.21875l0 10.953125l1.25 0.109375l0 0.71875l-3.953125 0l0 -0.71875l1.1875 -0.125l0 -10.09375zm3.8024292 8.734375q0 -1.375 1.375 -2.015625q1.390625 -0.65625 3.5 -0.703125l0 -0.40625q0 -0.703125 -0.15625 -1.09375q-0.140625 -0.390625 -0.5 -0.578125q-0.359375 -0.1875 -1.015625 -0.1875q-0.75 0 -1.34375 0.21875q-0.59375 0.21875 -1.1875 0.515625l-0.359375 -0.75q0.1875 -0.171875 0.703125 -0.4375q0.515625 -0.265625 1.1875 -0.46875q0.671875 -0.203125 1.34375 -0.203125q1.046875 0 1.65625 0.296875q0.609375 0.28125 0.859375 0.90625q0.265625 0.625 0.265625 1.6875l0 4.703125l0.875 0l0 0.640625q-0.296875 0.078125 -0.75 0.140625q-0.4375 0.078125 -0.78125 0.078125q-0.40625 0 -0.5625 -0.125q-0.140625 -0.125 -0.140625 -0.546875l0 -0.484375q-0.4375 0.4375 -1.078125 0.8125q-0.640625 0.359375 -1.4375 0.359375q-1.0625 0 -1.765625 -0.609375q-0.6875 -0.609375 -0.6875 -1.75zm3.078125 1.375q0.390625 0 0.875 -0.234375q0.5 -0.234375 0.921875 -0.5625l0 -2.515625q-1.609375 0 -2.421875 0.484375q-0.8125 0.484375 -0.8125 1.28125q0 0.796875 0.390625 1.171875q0.390625 0.375 1.046875 0.375zm6.503479 -0.34375q0.15625 0.21875 0.625 0.40625q0.484375 0.171875 1.015625 0.171875q0.828125 0 1.21875 -0.328125q0.40625 -0.328125 0.40625 -0.890625q0 -0.40625 -0.25 -0.6875q-0.25 -0.296875 -0.703125 -0.515625q-0.4375 -0.234375 -1.28125 -0.5625q-1.125 -0.421875 -1.65625 -1.015625q-0.515625 -0.59375 -0.515625 -1.5625q0 -0.640625 0.390625 -1.125q0.390625 -0.484375 1.0625 -0.75q0.6875 -0.28125 1.53125 -0.28125q0.671875 0 1.171875 0.109375q0.515625 0.09375 0.8125 0.203125q0.3125 0.09375 0.421875 0.125l0 1.828125l-0.90625 0l-0.28125 -1.09375q-0.09375 -0.171875 -0.484375 -0.296875q-0.375 -0.125 -0.84375 -0.125q-0.65625 0 -1.0625 0.296875q-0.40625 0.296875 -0.40625 0.78125q0 0.453125 0.21875 0.734375q0.21875 0.28125 0.53125 0.46875q0.328125 0.171875 0.875 0.40625l0.296875 0.109375q0.828125 0.328125 1.328125 0.625q0.515625 0.28125 0.859375 0.765625q0.34375 0.46875 0.34375 1.15625q0 1.09375 -0.84375 1.734375q-0.828125 0.640625 -2.296875 0.640625q-0.71875 0 -1.515625 -0.1875q-0.78125 -0.203125 -1.265625 -0.40625l0 -1.875l0.953125 0l0.25 1.140625zm6.838928 -9.765625l-1.234375 -0.15625l0 -0.625l2.390625 -0.28125l0.03125 0l0.3125 0.21875l0 3.390625l-0.046875 1.25q0.46875 -0.421875 1.28125 -0.796875q0.828125 -0.390625 1.65625 -0.390625q0.921875 0 1.4375 0.359375q0.515625 0.34375 0.71875 1.078125q0.203125 0.71875 0.203125 1.953125l0 4.09375l1.03125 0.125l0 0.71875l-3.5 0l0 -0.71875l0.953125 -0.125l0 -4.109375q0 -0.859375 -0.125 -1.34375q-0.109375 -0.5 -0.4375 -0.734375q-0.328125 -0.25 -0.96875 -0.25q-0.53125 0 -1.140625 0.265625q-0.59375 0.265625 -1.046875 0.609375l0 5.5625l1.015625 0.125l0 0.71875l-3.40625 0l0 -0.71875l0.875 -0.109375l0 -10.109375z" fill-rule="nonzero"/></g></svg>