<?xml version="1.0" encoding="UTF-8"?>
<!DOCTYPE svg PUBLIC "-//W3C//DTD SVG 1.1//EN" "http://www.w3.org/Graphics/SVG/1.1/DTD/svg11.dtd">
<svg xmlns="http://www.w3.org/2000/svg" xmlns:xlink="http://www.w3.org/1999/xlink" version="1.1" width="1050px" height="459px" viewBox="-0.5 -0.5 1050 459" style="background-color: rgb(255, 255, 255);"><defs/><g><path d="M 130 16 L 130 16 L 900 16 L 900 16" fill="none" stroke="rgb(0, 0, 0)" stroke-width="4" stroke-miterlimit="10" pointer-events="all"/><path d="M 130 16 L 130 436 L 900 436 L 900 16" fill="none" stroke="rgb(0, 0, 0)" stroke-width="4" stroke-miterlimit="10" pointer-events="none"/><rect x="670" y="276" width="80" height="80" fill="#f8cecc" stroke="#b85450" pointer-events="all"/><g fill="rgb(0, 0, 0)" font-family="Helvetica" text-anchor="middle" font-size="12px"><text x="709.5" y="320.5">Stage "Zero"</text></g><path d="M 700 334.54 L 720 345.27 L 700 356 Z" fill="rgb(255, 255, 255)" stroke="rgb(0, 0, 0)" stroke-miterlimit="10" transform="rotate(-90,710,345.27)" pointer-events="all"/><path d="M 130 394 L 710 394 L 710 363.51" fill="none" stroke="rgb(0, 0, 0)" stroke-width="2" stroke-miterlimit="10" pointer-events="stroke"/><path d="M 710 357.51 L 714 365.51 L 710 363.51 L 706 365.51 Z" fill="rgb(0, 0, 0)" stroke="rgb(0, 0, 0)" stroke-width="2" stroke-miterlimit="10" pointer-events="all"/><path d="M 810 156 L 770 156 L 770 316 L 758.24 316" fill="none" stroke="rgb(0, 0, 0)" stroke-width="2" stroke-miterlimit="10" pointer-events="stroke"/><path d="M 752.24 316 L 760.24 312 L 758.24 316 L 760.24 320 Z" fill="rgb(0, 0, 0)" stroke="rgb(0, 0, 0)" stroke-width="2" stroke-miterlimit="10" pointer-events="all"/><g fill="rgb(0, 0, 0)" font-family="Helvetica" font-size="14px"><text x="771.5" y="302">2 stages</text></g><g fill="rgb(0, 0, 0)" font-family="Helvetica" font-size="14px"><text x="771.5" y="322">half-cycle sampling</text></g><rect x="130" y="136" width="100" height="80" fill="#e1d5e7" stroke="#9673a6" pointer-events="all"/><rect x="130" y="136" width="100" height="80" fill="none" stroke="rgb(0, 0, 0)" pointer-events="all"/><path d="M 165 136 L 205 156 L 165 176 Z" fill="#fff2cc" stroke="#d6b656" stroke-miterlimit="10" pointer-events="all"/><path d="M 160 176 L 200 196 L 160 216 Z" fill="#fff2cc" stroke="#d6b656" stroke-miterlimit="10" transform="rotate(-180,180,196)" pointer-events="all"/><path d="M 205 156 L 223.63 156" fill="none" stroke="rgb(0, 0, 0)" stroke-miterlimit="10" pointer-events="stroke"/><path d="M 228.88 156 L 221.88 159.5 L 223.63 156 L 221.88 152.5 Z" fill="rgb(0, 0, 0)" stroke="rgb(0, 0, 0)" stroke-miterlimit="10" pointer-events="all"/><path d="M 230 196 L 206.37 196" fill="none" stroke="rgb(0, 0, 0)" stroke-miterlimit="10" pointer-events="stroke"/><path d="M 201.12 196 L 208.12 192.5 L 206.37 196 L 208.12 199.5 Z" fill="rgb(0, 0, 0)" stroke="rgb(0, 0, 0)" stroke-miterlimit="10" pointer-events="all"/><path d="M 180 216 L 180 206" fill="none" stroke="rgb(0, 0, 0)" stroke-miterlimit="10" pointer-events="stroke"/><path d="M 130 176 L 150 176 L 150 156 L 165 156" fill="none" stroke="rgb(0, 0, 0)" stroke-miterlimit="10" pointer-events="stroke"/><path d="M 160 196 L 150 196 L 150 176 L 130 176" fill="none" stroke="rgb(0, 0, 0)" stroke-miterlimit="10" pointer-events="stroke"/><path d="M 230 156 L 240 156 L 240 76 L 760 76 L 760 116 L 791.76 116" fill="none" stroke="rgb(0, 0, 0)" stroke-width="2" stroke-miterlimit="10" pointer-events="stroke"/><path d="M 797.76 116 L 789.76 120 L 791.76 116 L 789.76 112 Z" fill="rgb(0, 0, 0)" stroke="rgb(0, 0, 0)" stroke-width="2" stroke-miterlimit="10" pointer-events="all"/><path d="M 210 210.33 L 256.98 185.33 L 334.64 185.33 L 381.62 210.33 Z" fill="#dae8fc" stroke="#6c8ebf" stroke-miterlimit="10" transform="rotate(-90,295.81,197.83)" pointer-events="all"/><path d="M 360 276 L 334.2 276 L 334.2 240.7 L 316.55 240.72" fill="none" stroke="rgb(0, 0, 0)" stroke-width="2" stroke-miterlimit="10" pointer-events="stroke"/><path d="M 310.55 240.73 L 318.54 236.72 L 316.55 240.72 L 318.55 244.72 Z" fill="rgb(0, 0, 0)" stroke="rgb(0, 0, 0)" stroke-width="2" stroke-miterlimit="10" pointer-events="all"/><path d="M 800 156 L 316.55 154.94" fill="none" stroke="rgb(0, 0, 0)" stroke-width="2" stroke-miterlimit="10" pointer-events="stroke"/><path d="M 310.55 154.93 L 318.55 150.95 L 316.55 154.94 L 318.54 158.95 Z" fill="rgb(0, 0, 0)" stroke="rgb(0, 0, 0)" stroke-width="2" stroke-miterlimit="10" pointer-events="all"/><g fill="rgb(0, 0, 0)" font-family="Helvetica" text-anchor="middle" font-size="14px"><text x="680" y="152.24">0 stages</text></g><path d="M 283.31 197.83 L 238.23 196.28" fill="none" stroke="rgb(0, 0, 0)" stroke-width="2" stroke-miterlimit="10" pointer-events="stroke"/><path d="M 232.23 196.08 L 240.37 192.35 L 238.23 196.28 L 240.09 200.35 Z" fill="rgb(0, 0, 0)" stroke="rgb(0, 0, 0)" stroke-width="2" stroke-miterlimit="10" pointer-events="all"/><rect x="360" y="236" width="80" height="80" fill="#dae8fc" stroke="#6c8ebf" pointer-events="all"/><g fill="rgb(0, 0, 0)" font-family="Helvetica" text-anchor="middle" font-size="12px"><text x="399.5" y="280.5">Stage Two</text></g><path d="M 390 294.54 L 410 305.27 L 390 316 Z" fill="rgb(255, 255, 255)" stroke="rgb(0, 0, 0)" stroke-miterlimit="10" transform="rotate(-90,400,305.27)" pointer-events="all"/><ellipse cx="400" cy="321" rx="5" ry="5" fill="rgb(255, 255, 255)" stroke="rgb(0, 0, 0)" pointer-events="all"/><path d="M 588.16 276 L 560.67 276" fill="none" stroke="rgb(0, 0, 0)" stroke-width="2" stroke-miterlimit="10" pointer-events="stroke"/><path d="M 554.67 276 L 562.67 272 L 560.67 276 L 562.67 280 Z" fill="rgb(0, 0, 0)" stroke="rgb(0, 0, 0)" stroke-width="2" stroke-miterlimit="10" pointer-events="all"/><path d="M 472.43 276 L 448.24 276" fill="none" stroke="rgb(0, 0, 0)" stroke-width="2" stroke-miterlimit="10" pointer-events="stroke"/><path d="M 442.24 276 L 450.24 272 L 448.24 276 L 450.24 280 Z" fill="rgb(0, 0, 0)" stroke="rgb(0, 0, 0)" stroke-width="2" stroke-miterlimit="10" pointer-events="all"/><rect x="800" y="96" width="100" height="80" fill="#e1d5e7" stroke="#9673a6" transform="rotate(-180,850,136)" pointer-events="all"/><path d="M 825 136 L 865 156 L 825 176 Z" fill="#fff2cc" stroke="#d6b656" stroke-miterlimit="10" transform="rotate(-180,845,156)" pointer-events="all"/><path d="M 830 96 L 870 116 L 830 136 Z" fill="#fff2cc" stroke="#d6b656" stroke-miterlimit="10" transform="rotate(-360,850,116)" pointer-events="all"/><path d="M 825 156 L 806.37 156" fill="none" stroke="rgb(0, 0, 0)" stroke-miterlimit="10" pointer-events="stroke"/><path d="M 801.12 156 L 808.12 152.5 L 806.37 156 L 808.12 159.5 Z" fill="rgb(0, 0, 0)" stroke="rgb(0, 0, 0)" stroke-miterlimit="10" pointer-events="all"/><path d="M 800 116 L 823.63 116" fill="none" stroke="rgb(0, 0, 0)" stroke-miterlimit="10" pointer-events="stroke"/><path d="M 828.88 116 L 821.88 119.5 L 823.63 116 L 821.88 112.5 Z" fill="rgb(0, 0, 0)" stroke="rgb(0, 0, 0)" stroke-miterlimit="10" pointer-events="all"/><path d="M 850 96 L 850 106" fill="none" stroke="rgb(0, 0, 0)" stroke-miterlimit="10" pointer-events="stroke"/><path d="M 900 136 L 880 136 L 880 156 L 865 156" fill="none" stroke="rgb(0, 0, 0)" stroke-miterlimit="10" pointer-events="stroke"/><path d="M 870 116 L 880 116 L 880 136 L 900 136" fill="none" stroke="rgb(0, 0, 0)" stroke-miterlimit="10" pointer-events="stroke"/><path d="M 800 156 L 770 156 L 770 236 L 626.4 235.65" fill="none" stroke="rgb(0, 0, 0)" stroke-width="2" stroke-miterlimit="10" pointer-events="stroke"/><path d="M 620.4 235.64 L 628.41 231.66 L 626.4 235.65 L 628.39 239.66 Z" fill="rgb(0, 0, 0)" stroke="rgb(0, 0, 0)" stroke-width="2" stroke-miterlimit="10" pointer-events="all"/><g fill="rgb(0, 0, 0)" font-family="Helvetica" font-size="14px"><text x="641.51" y="231.29">2 stages</text></g><g fill="rgb(0, 0, 0)" font-family="Helvetica" font-size="14px"><text x="641.5" y="255.18">full-cycle-sampling</text></g><rect x="970" y="206" width="80" height="30" fill="none" stroke="none" pointer-events="all"/><g fill="rgb(0, 0, 0)" font-family="Helvetica" font-weight="bold" font-size="12px"><text x="971.5" y="225.5">Downstream</text></g><path d="M 970 451 L 970 1" fill="none" stroke="rgb(0, 0, 0)" stroke-width="3" stroke-miterlimit="10" stroke-dasharray="3 9" pointer-events="stroke"/><rect x="970" y="236" width="80" height="30" fill="none" stroke="none" pointer-events="all"/><g fill="rgb(0, 0, 0)" font-family="Helvetica" font-weight="bold" font-size="12px"><text x="971.5" y="255.5">SPI Flash</text></g><rect x="0" y="206" width="80" height="30" fill="none" stroke="none" pointer-events="all"/><g fill="rgb(0, 0, 0)" font-family="Helvetica" font-weight="bold" text-anchor="end" font-size="12px"><text x="77.5" y="225.5">Upstream</text></g><path d="M 80 456 L 80 6" fill="none" stroke="rgb(0, 0, 0)" stroke-width="3" stroke-miterlimit="10" stroke-dasharray="3 9" pointer-events="stroke"/><rect x="0" y="236" width="80" height="30" fill="none" stroke="none" pointer-events="all"/><g fill="rgb(0, 0, 0)" font-family="Helvetica" font-weight="bold" text-anchor="end" font-size="12px"><text x="77.5" y="255.5">SPI Host</text></g><path d="M 522.43 291 L 569.41 261 L 636.92 261 L 683.9 291 Z" fill="#dae8fc" stroke="#6c8ebf" stroke-miterlimit="10" transform="rotate(-90,603.16,276)" pointer-events="all"/><rect x="472.43" y="236" width="80" height="80" fill="#dae8fc" stroke="#6c8ebf" pointer-events="all"/><g fill="rgb(0, 0, 0)" font-family="Helvetica" text-anchor="middle" font-size="12px"><text x="511.92999999999995" y="280.5">Stage One</text></g><path d="M 502.43 294.54 L 522.43 305.27 L 502.43 316 Z" fill="rgb(255, 255, 255)" stroke="rgb(0, 0, 0)" stroke-miterlimit="10" transform="rotate(-90,512.43,305.27)" pointer-events="all"/><ellipse cx="512.43" cy="321" rx="5" ry="5" fill="rgb(255, 255, 255)" stroke="rgb(0, 0, 0)" pointer-events="all"/><path d="M 670 316 L 644.1 316 L 626.4 316.25" fill="none" stroke="rgb(0, 0, 0)" stroke-width="2" stroke-miterlimit="10" pointer-events="stroke"/><path d="M 620.4 316.34 L 628.34 312.22 L 626.4 316.25 L 628.46 320.22 Z" fill="rgb(0, 0, 0)" stroke="rgb(0, 0, 0)" stroke-width="2" stroke-miterlimit="10" pointer-events="all"/><path d="M 40 176 L 130 176" fill="none" stroke="rgb(0, 0, 0)" stroke-miterlimit="10" pointer-events="stroke"/><g fill="rgb(0, 0, 0)" font-family="Helvetica" text-anchor="end" font-size="14px"><rect fill="rgb(255, 255, 255)" stroke="none" x="89" y="158" width="32" height="18" stroke-width="0"/><text x="118.5" y="171.5">SIO*</text></g><path d="M 990 136 L 900 136" fill="none" stroke="rgb(0, 0, 0)" stroke-miterlimit="10" pointer-events="stroke"/><g fill="rgb(0, 0, 0)" font-family="Helvetica" font-size="14px"><rect fill="rgb(255, 255, 255)" stroke="none" x="919" y="117" width="32" height="18" stroke-width="0"/><text x="918.5" y="130.5">SIO*</text></g><g fill="rgb(0, 0, 0)" font-family="Helvetica" font-size="14px"><rect fill="rgb(255, 255, 255)" stroke="none" x="910" y="144" width="57" height="18" stroke-width="0"/><text x="909.5" y="155.5">Passthru</text></g><path d="M 130 394 L 891.76 394" fill="none" stroke="rgb(0, 0, 0)" stroke-width="2" stroke-miterlimit="10" pointer-events="stroke"/><path d="M 897.76 394 L 889.76 398 L 891.76 394 L 889.76 390 Z" fill="rgb(0, 0, 0)" stroke="rgb(0, 0, 0)" stroke-width="2" stroke-miterlimit="10" pointer-events="all"/><path d="M 130 394 L 400 394 L 400 334.24" fill="none" stroke="rgb(0, 0, 0)" stroke-width="2" stroke-miterlimit="10" pointer-events="stroke"/><path d="M 400 328.24 L 404 336.24 L 400 334.24 L 396 336.24 Z" fill="rgb(0, 0, 0)" stroke="rgb(0, 0, 0)" stroke-width="2" stroke-miterlimit="10" pointer-events="all"/><path d="M 130 394 L 512.4 394 L 512.43 334.24" fill="none" stroke="rgb(0, 0, 0)" stroke-width="2" stroke-miterlimit="10" pointer-events="stroke"/><path d="M 512.43 328.24 L 516.43 336.24 L 512.43 334.24 L 508.43 336.23 Z" fill="rgb(0, 0, 0)" stroke="rgb(0, 0, 0)" stroke-width="2" stroke-miterlimit="10" pointer-events="all"/><path d="M 40 394 L 130 394" fill="none" stroke="rgb(0, 0, 0)" stroke-miterlimit="10" pointer-events="stroke"/><g fill="rgb(0, 0, 0)" font-family="Helvetica" text-anchor="end" font-size="14px"><rect fill="rgb(255, 255, 255)" stroke="none" x="90" y="375" width="31" height="18" stroke-width="0"/><text x="118.5" y="388.5">SCK</text></g><path d="M 900 394 L 990 394" fill="none" stroke="rgb(0, 0, 0)" stroke-miterlimit="10" pointer-events="stroke"/><g fill="rgb(0, 0, 0)" font-family="Helvetica" font-size="14px"><rect fill="rgb(255, 255, 255)" stroke="none" x="921" y="376" width="31" height="18" stroke-width="0"/><text x="920.5" y="389.5">SCK</text></g><g fill="rgb(0, 0, 0)" font-family="Helvetica" font-size="14px"><rect fill="rgb(255, 255, 255)" stroke="none" x="912" y="404" width="57" height="18" stroke-width="0"/><text x="911.5" y="415.5">Passthru</text></g></g></svg>