<svg version="1.1" viewBox="0.0 0.0 951.9291338582677 497.7270341207349" fill="none" stroke="none" stroke-linecap="square" stroke-miterlimit="10" xmlns:xlink="http://www.w3.org/1999/xlink" xmlns="http://www.w3.org/2000/svg"><clipPath id="p.0"><path d="m0 0l951.92914 0l0 497.72702l-951.92914 0l0 -497.72702z" clip-rule="nonzero"/></clipPath><g clip-path="url(#p.0)"><path fill="#000000" fill-opacity="0.0" d="m0 0l951.92914 0l0 497.72702l-951.92914 0z" fill-rule="evenodd"/><path fill="#000000" fill-opacity="0.0" d="m264.0 81.6273l0 0c0 -17.31652 47.36615 -31.354332 105.79529 -31.354332l0 0c58.429108 0 105.79526 14.037811 105.79526 31.354332l0 0c0 17.31652 -47.36615 31.354332 -105.79526 31.354332l0 0c-58.42914 0 -105.79529 -14.037811 -105.79529 -31.354332z" fill-rule="evenodd"/><path stroke="#000000" stroke-width="2.0" stroke-linejoin="round" stroke-linecap="butt" d="m264.0 81.6273l0 0c0 -17.31652 47.36615 -31.354332 105.79529 -31.354332l0 0c58.429108 0 105.79526 14.037811 105.79526 31.354332l0 0c0 17.31652 -47.36615 31.354332 -105.79526 31.354332l0 0c-58.42914 0 -105.79529 -14.037811 -105.79529 -31.354332z" fill-rule="evenodd"/><path fill="#000000" d="m353.8653 87.18792l0 -10.34375l-1.6875 0l0 -1.359375l4.984375 0l0 1.359375l-1.671875 0l0 10.34375l1.671875 0l0 1.359375l-4.984375 0l0 -1.359375l1.6875 0zm12.855621 0.9375q-0.625 0.421875 -1.5 0.421875l-0.765625 0q-1.640625 0 -2.40625 -0.703125q-0.765625 -0.703125 -0.765625 -2.28125l0 -3.359375q0 -1.5625 0.765625 -2.265625q0.78125 -0.71875 2.40625 -0.71875l2.171875 0l0 -3.734375l1.578125 0l0 13.0625l-1.484375 0l0 -0.421875zm-1.3125 -0.984375q0.625 0 0.921875 -0.3125q0.296875 -0.328125 0.296875 -0.703125l0 -5.5l-2.359375 0q-0.6875 0 -1.046875 0.3125q-0.34375 0.3125 -0.34375 0.890625l0 4.109375q0 0.578125 0.34375 0.890625q0.359375 0.3125 1.046875 0.3125l1.140625 0zm10.027496 1.40625q-0.640625 0 -1.125 -0.4375q-0.46875 -0.453125 -0.46875 -1.421875l0 -9.796875l-2.734375 0l0 -1.40625l4.328125 0l0 11.109375q0 0.296875 0.140625 0.421875q0.15625 0.125 0.5 0.125l2.484375 0l0 1.40625l-3.125 0zm9.355621 0q-1.640625 0 -2.40625 -0.703125q-0.765625 -0.703125 -0.765625 -2.28125l0 -3.359375q0 -1.609375 0.6875 -2.296875q0.703125 -0.6875 2.296875 -0.6875l0.875 0q1.328125 0 2.0 0.734375q0.6875 0.734375 0.6875 2.15625l0 2.421875l-4.953125 0l0 1.40625q0 0.578125 0.34375 0.890625q0.359375 0.3125 1.046875 0.3125l2.96875 0l0 1.40625l-2.78125 0zm1.828125 -6.8125q0 -0.484375 -0.3125 -0.796875q-0.3125 -0.3125 -0.796875 -0.3125l-1.09375 0q-0.671875 0 -0.9375 0.3125q-0.265625 0.296875 -0.265625 0.890625l0 1.3125l3.40625 0l0 -1.40625z" fill-rule="nonzero"/><path fill="#000000" fill-opacity="0.0" d="m552.32806 144.33595l0 0c0 -17.316513 47.36615 -31.354324 105.79529 -31.354324l0 0c58.42914 0 105.79529 14.037811 105.79529 31.354324l0 0c0 17.316528 -47.36615 31.35434 -105.79529 31.35434l0 0c-58.42914 0 -105.79529 -14.037811 -105.79529 -31.35434z" fill-rule="evenodd"/><path stroke="#000000" stroke-width="2.0" stroke-linejoin="round" stroke-linecap="butt" d="m552.32806 144.33595l0 0c0 -17.316513 47.36615 -31.354324 105.79529 -31.354324l0 0c58.42914 0 105.79529 14.037811 105.79529 31.354324l0 0c0 17.316528 -47.36615 31.35434 -105.79529 31.35434l0 0c-58.42914 0 -105.79529 -14.037811 -105.79529 -31.35434z" fill-rule="evenodd"/><path fill="#000000" d="m651.418 143.24033q0 1.5 -0.796875 2.21875q-0.796875 0.71875 -2.359375 0.71875l-1.953125 0l0 5.078125l-1.625 0l0 -13.0625l3.53125 0q1.59375 0 2.390625 0.703125q0.8125 0.703125 0.8125 2.203125l0 2.140625zm-1.609375 -2.296875q0 -0.71875 -0.328125 -1.03125q-0.328125 -0.3125 -1.046875 -0.3125l-2.125 0l0 5.1875l2.125 0q0.71875 0 1.046875 -0.328125q0.328125 -0.328125 0.328125 -1.03125l0 -2.484375zm11.777527 7.328125q0 1.5625 -0.78125 2.28125q-0.765625 0.703125 -2.390625 0.703125l-0.609375 0q-1.625 0 -2.40625 -0.703125q-0.765625 -0.71875 -0.765625 -2.28125l0 -3.359375q0 -1.5625 0.765625 -2.265625q0.78125 -0.71875 2.40625 -0.71875l0.609375 0q1.625 0 2.390625 0.71875q0.78125 0.703125 0.78125 2.265625l0 3.359375zm-1.578125 -3.734375q0 -0.578125 -0.359375 -0.890625q-0.34375 -0.3125 -1.046875 -0.3125l-0.984375 0q-0.6875 0 -1.046875 0.3125q-0.34375 0.3125 -0.34375 0.890625l0 4.109375q0 0.578125 0.34375 0.890625q0.359375 0.3125 1.046875 0.3125l0.984375 0q0.703125 0 1.046875 -0.3125q0.359375 -0.3125 0.359375 -0.890625l0 -4.109375zm6.261841 -2.609375l0 0.453125q0.578125 -0.453125 1.5 -0.453125l0.671875 0q1.640625 0 2.40625 0.703125q0.765625 0.703125 0.765625 2.28125l0 3.359375q0 1.5625 -0.78125 2.28125q-0.765625 0.703125 -2.390625 0.703125l-2.078125 0l0 3.171875l-1.578125 0l0 -12.5l1.484375 0zm1.3125 1.40625q-0.609375 0 -0.921875 0.328125q-0.296875 0.3125 -0.296875 0.6875l0 5.5l2.265625 0q0.6875 0 1.03125 -0.3125q0.359375 -0.3125 0.359375 -0.890625l0 -4.109375q0 -0.578125 -0.359375 -0.890625q-0.34375 -0.3125 -1.03125 -0.3125l-1.046875 0z" fill-rule="nonzero"/><path fill="#000000" fill-opacity="0.0" d="m686.8583 272.3491l0 0c0 -17.316528 47.36615 -31.35434 105.79529 -31.35434l0 0c58.429077 0 105.79523 14.037811 105.79523 31.35434l0 0c0 17.316498 -47.36615 31.35431 -105.79523 31.35431l0 0c-58.42914 0 -105.79529 -14.037811 -105.79529 -31.35431z" fill-rule="evenodd"/><path stroke="#000000" stroke-width="2.0" stroke-linejoin="round" stroke-linecap="butt" d="m686.8583 272.3491l0 0c0 -17.316528 47.36615 -31.35434 105.79529 -31.35434l0 0c58.429077 0 105.79523 14.037811 105.79523 31.35434l0 0c0 17.316498 -47.36615 31.35431 -105.79523 31.35431l0 0c-58.42914 0 -105.79529 -14.037811 -105.79529 -31.35431z" fill-rule="evenodd"/><path fill="#000000" d="m777.5048 273.9722l-1.171875 5.296875l-2.25 0l-0.625 -13.0625l1.375 0l0.5625 11.65625l1.546875 -6.15625l1.15625 0l1.59375 6.15625l0.578125 -11.65625l1.28125 0l-0.640625 13.0625l-2.34375 0l-1.0625 -5.296875zm12.855591 5.296875q-0.25 0 -0.546875 -0.140625q-0.28125 -0.15625 -0.484375 -0.421875q-0.421875 0.5625 -1.140625 0.5625l-1.65625 0q-1.421875 0 -2.0625 -0.5625q-0.640625 -0.578125 -0.640625 -1.953125l0 -0.375q0 -2.890625 2.71875 -2.890625l2.3125 0l0 -0.9375q0 -0.578125 -0.359375 -0.890625q-0.34375 -0.3125 -1.03125 -0.3125l-2.890625 0l0 -1.40625l2.703125 0q1.625 0 2.390625 0.71875q0.78125 0.703125 0.78125 2.265625l0 4.484375q0 0.28125 0.203125 0.421875q0.21875 0.125 0.734375 0.125l0 1.3125l-1.03125 0zm-2.359375 -1.40625q0.5625 0 0.703125 -0.25q0.15625 -0.265625 0.15625 -0.671875l0 -2.0625l-2.328125 0q-0.484375 0 -0.8125 0.328125q-0.3125 0.3125 -0.3125 0.796875l0 0.9375q0 0.484375 0.21875 0.703125q0.234375 0.21875 0.71875 0.21875l1.65625 0zm10.558777 -11.65625l0 1.6875l-1.765625 0l0 -1.6875l1.765625 0zm-4.40625 5.140625l0 -1.40625l4.328125 0l0 7.921875l2.75 0l0 1.40625l-4.34375 0l0 -7.921875l-2.734375 0zm14.308716 7.921875q-0.953125 0 -1.46875 -0.609375q-0.5 -0.625 -0.5 -1.625l0 -5.6875l-1.765625 0l0 -1.40625l1.765625 0l0 -2.234375l1.59375 0l0 2.234375l2.71875 0l0 1.40625l-2.71875 0l0 5.78125q0 0.40625 0.203125 0.578125q0.203125 0.15625 0.625 0.15625l1.890625 0l0 1.40625l-2.34375 0z" fill-rule="nonzero"/><path fill="#000000" fill-opacity="0.0" d="m483.44095 422.22308l0 0c0 -17.316498 47.36618 -31.35431 105.79526 -31.35431l0 0c58.42914 0 105.79529 14.037811 105.79529 31.35431l0 0c0 17.316528 -47.36615 31.35434 -105.79529 31.35434l0 0c-58.429077 0 -105.79526 -14.037811 -105.79526 -31.35434z" fill-rule="evenodd"/><path stroke="#000000" stroke-width="2.0" stroke-linejoin="round" stroke-linecap="butt" d="m483.44095 422.22308l0 0c0 -17.316498 47.36618 -31.35431 105.79526 -31.35431l0 0c58.42914 0 105.79529 14.037811 105.79529 31.35431l0 0c0 17.316528 -47.36615 31.35434 -105.79529 31.35434l0 0c-58.429077 0 -105.79526 -14.037811 -105.79526 -31.35434z" fill-rule="evenodd"/><path fill="#000000" d="m572.00934 423.73685l0 5.40625l-1.609375 0l0 -13.0625l3.5 0q1.59375 0 2.390625 0.703125q0.8125 0.703125 0.8125 2.203125l0 1.796875q0 2.109375 -1.671875 2.625l2.59375 5.734375l-1.78125 0l-2.40625 -5.40625l-1.828125 0zm3.484375 -4.90625q0 -0.71875 -0.328125 -1.03125q-0.328125 -0.3125 -1.046875 -0.3125l-2.109375 0l0 4.84375l2.109375 0q0.71875 0 1.046875 -0.328125q0.328125 -0.328125 0.328125 -1.03125l0 -2.140625zm8.590027 10.3125q-1.640625 0 -2.40625 -0.703125q-0.765625 -0.703125 -0.765625 -2.28125l0 -3.359375q0 -1.609375 0.6875 -2.296875q0.703125 -0.6875 2.296875 -0.6875l0.875 0q1.328125 0 2.0 0.734375q0.6875 0.734375 0.6875 2.15625l0 2.421875l-4.953125 0l0 1.40625q0 0.578125 0.34375 0.890625q0.359375 0.3125 1.046875 0.3125l2.96875 0l0 1.40625l-2.78125 0zm1.828125 -6.8125q0 -0.484375 -0.3125 -0.796875q-0.3125 -0.3125 -0.796875 -0.3125l-1.09375 0q-0.671875 0 -0.9375 0.3125q-0.265625 0.296875 -0.265625 0.890625l0 1.3125l3.40625 0l0 -1.40625zm11.105591 6.8125q-0.25 0 -0.546875 -0.140625q-0.28125 -0.15625 -0.484375 -0.421875q-0.421875 0.5625 -1.140625 0.5625l-1.65625 0q-1.421875 0 -2.0625 -0.5625q-0.640625 -0.578125 -0.640625 -1.953125l0 -0.375q0 -2.890625 2.71875 -2.890625l2.3125 0l0 -0.9375q0 -0.578125 -0.359375 -0.890625q-0.34375 -0.3125 -1.03125 -0.3125l-2.890625 0l0 -1.40625l2.703125 0q1.625 0 2.390625 0.71875q0.78125 0.703125 0.78125 2.265625l0 4.484375q0 0.28125 0.203125 0.421875q0.21875 0.125 0.734375 0.125l0 1.3125l-1.03125 0zm-2.359375 -1.40625q0.5625 0 0.703125 -0.25q0.15625 -0.265625 0.15625 -0.671875l0 -2.0625l-2.328125 0q-0.484375 0 -0.8125 0.328125q-0.3125 0.3125 -0.3125 0.796875l0 0.9375q0 0.484375 0.21875 0.703125q0.234375 0.21875 0.71875 0.21875l1.65625 0zm11.652527 0.984375q-0.625 0.421875 -1.5 0.421875l-0.765625 0q-1.640625 0 -2.40625 -0.703125q-0.765625 -0.703125 -0.765625 -2.28125l0 -3.359375q0 -1.5625 0.765625 -2.265625q0.78125 -0.71875 2.40625 -0.71875l2.171875 0l0 -3.734375l1.578125 0l0 13.0625l-1.484375 0l0 -0.421875zm-1.3125 -0.984375q0.625 0 0.921875 -0.3125q0.296875 -0.328125 0.296875 -0.703125l0 -5.5l-2.359375 0q-0.6875 0 -1.046875 0.3125q-0.34375 0.3125 -0.34375 0.890625l0 4.109375q0 0.578125 0.34375 0.890625q0.359375 0.3125 1.046875 0.3125l1.140625 0z" fill-rule="nonzero"/><path fill="#000000" fill-opacity="0.0" d="m173.22835 433.29398l0 0c0 -17.316528 47.36615 -31.35434 105.79527 -31.35434l0 0c58.429108 0 105.79529 14.037811 105.79529 31.35434l0 0c0 17.316498 -47.36618 31.35431 -105.79529 31.35431l0 0c-58.429123 0 -105.79527 -14.037811 -105.79527 -31.35431z" fill-rule="evenodd"/><path stroke="#000000" stroke-width="2.0" stroke-linejoin="round" stroke-linecap="butt" d="m173.22835 433.29398l0 0c0 -17.316528 47.36615 -31.35434 105.79527 -31.35434l0 0c58.429108 0 105.79529 14.037811 105.79529 31.35434l0 0c0 17.316498 -47.36618 31.35431 -105.79529 31.35431l0 0c-58.429123 0 -105.79527 -14.037811 -105.79527 -31.35431z" fill-rule="evenodd"/><path fill="#000000" d="m254.58176 435.82333l-1.546875 0l-1.828125 -7.328125l0 11.71875l-1.421875 0l0 -13.0625l2.59375 0l1.5 6.6875l1.5 -6.6875l2.53125 0l0 13.0625l-1.453125 0l0 -11.71875l-1.875 7.328125zm12.793121 1.40625q0 1.5625 -0.78125 2.28125q-0.765625 0.703125 -2.390625 0.703125l-0.609375 0q-1.625 0 -2.40625 -0.703125q-0.765625 -0.71875 -0.765625 -2.28125l0 -3.359375q0 -1.5625 0.765625 -2.265625q0.78125 -0.71875 2.40625 -0.71875l0.609375 0q1.625 0 2.390625 0.71875q0.78125 0.703125 0.78125 2.265625l0 3.359375zm-1.578125 -3.734375q0 -0.578125 -0.359375 -0.890625q-0.34375 -0.3125 -1.046875 -0.3125l-0.984375 0q-0.6875 0 -1.046875 0.3125q-0.34375 0.3125 -0.34375 0.890625l0 4.109375q0 0.578125 0.34375 0.890625q0.359375 0.3125 1.046875 0.3125l0.984375 0q0.703125 0 1.046875 -0.3125q0.359375 -0.3125 0.359375 -0.890625l0 -4.109375zm10.152496 6.296875q-0.625 0.421875 -1.5 0.421875l-0.765625 0q-1.640625 0 -2.40625 -0.703125q-0.765625 -0.703125 -0.765625 -2.28125l0 -3.359375q0 -1.5625 0.765625 -2.265625q0.78125 -0.71875 2.40625 -0.71875l2.171875 0l0 -3.734375l1.578125 0l0 13.0625l-1.484375 0l0 -0.421875zm-1.3125 -0.984375q0.625 0 0.921875 -0.3125q0.296875 -0.328125 0.296875 -0.703125l0 -5.5l-2.359375 0q-0.6875 0 -1.046875 0.3125q-0.34375 0.3125 -0.34375 0.890625l0 4.109375q0 0.578125 0.34375 0.890625q0.359375 0.3125 1.046875 0.3125l1.140625 0zm10.293121 -11.65625l0 1.6875l-1.765625 0l0 -1.6875l1.765625 0zm-4.40625 5.140625l0 -1.40625l4.328125 0l0 7.921875l2.75 0l0 1.40625l-4.34375 0l0 -7.921875l-2.734375 0zm14.246246 -3.734375q-0.296875 0 -0.484375 0.15625q-0.171875 0.15625 -0.171875 0.40625l0 1.765625l3.0 0l0 1.40625l-3.0 0l0 6.515625l2.265625 0l0 1.40625l-5.4375 0l0 -1.40625l1.59375 0l0 -6.515625l-1.59375 0l0 -1.40625l1.59375 0l0 -1.671875q0 -0.953125 0.53125 -1.5q0.546875 -0.5625 1.40625 -0.5625l2.828125 0l0 1.40625l-2.53125 0zm7.7618713 13.421875q0.453125 0 0.671875 -0.171875q0.21875 -0.15625 0.328125 -0.5625l0.265625 -1.03125l-0.375 0l-3.078125 -9.328125l1.71875 0l2.328125 7.8125l2.03125 -7.8125l1.625 0l-2.890625 10.328125q-0.234375 0.953125 -0.59375 1.421875q-0.359375 0.46875 -0.796875 0.609375q-0.4375 0.140625 -1.125 0.140625l-0.890625 0l0 -1.40625l0.78125 0z" fill-rule="nonzero"/><path fill="#000000" fill-opacity="0.0" d="m11.296588 309.73358l0 0c0 -17.316498 47.366158 -31.35431 105.79528 -31.35431l0 0c58.429115 0 105.79528 14.037811 105.79528 31.35431l0 0c0 17.316528 -47.366165 31.35434 -105.79528 31.35434l0 0c-58.42912 0 -105.79528 -14.037811 -105.79528 -31.35434z" fill-rule="evenodd"/><path stroke="#000000" stroke-width="2.0" stroke-linejoin="round" stroke-linecap="butt" d="m11.296588 309.73358l0 0c0 -17.316498 47.366158 -31.35431 105.79528 -31.35431l0 0c58.429115 0 105.79528 14.037811 105.79528 31.35431l0 0c0 17.316528 -47.366165 31.35434 -105.79528 31.35434l0 0c-58.42912 0 -105.79528 -14.037811 -105.79528 -31.35434z" fill-rule="evenodd"/><path fill="#000000" d="m96.90594 311.35672l-1.171875 5.296875l-2.25 0l-0.625 -13.0625l1.375 0l0.5625 11.65625l1.546875 -6.15625l1.15625 0l1.59375 6.15625l0.578125 -11.65625l1.28125 0l-0.640625 13.0625l-2.34375 0l-1.0625 -5.296875zm8.308746 3.890625l0 -6.515625l-1.375 0l0 -1.40625l2.859375 0l0 0.5q0.609375 -0.5 1.5 -0.5l1.921875 0l0 1.5l-2.109375 0q-0.609375 0 -0.90625 0.375q-0.296875 0.375 -0.3125 0.78125l0 5.265625l2.03125 0l0 1.40625l-4.984375 0l0 -1.40625l1.375 0zm12.746246 -11.65625l0 1.6875l-1.765625 0l0 -1.6875l1.765625 0zm-4.40625 5.140625l0 -1.40625l4.328125 0l0 7.921875l2.75 0l0 1.40625l-4.34375 0l0 -7.921875l-2.734375 0zm14.308746 7.921875q-0.953125 0 -1.46875 -0.609375q-0.5 -0.625 -0.5 -1.625l0 -5.6875l-1.765625 0l0 -1.40625l1.765625 0l0 -2.234375l1.59375 0l0 2.234375l2.7187424 0l0 1.40625l-2.7187424 0l0 5.78125q0 0.40625 0.203125 0.578125q0.203125 0.15625 0.6249924 0.15625l1.890625 0l0 1.40625l-2.3437424 0zm9.261864 0q-1.640625 0 -2.40625 -0.703125q-0.765625 -0.703125 -0.765625 -2.28125l0 -3.359375q0 -1.609375 0.6875 -2.296875q0.703125 -0.6875 2.296875 -0.6875l0.875 0q1.328125 0 2.0 0.734375q0.6875 0.734375 0.6875 2.15625l0 2.421875l-4.953125 0l0 1.40625q0 0.578125 0.34375 0.890625q0.359375 0.3125 1.046875 0.3125l2.96875 0l0 1.40625l-2.78125 0zm1.828125 -6.8125q0 -0.484375 -0.3125 -0.796875q-0.3125 -0.3125 -0.796875 -0.3125l-1.09375 0q-0.671875 0 -0.9375 0.3125q-0.265625 0.296875 -0.265625 0.890625l0 1.3125l3.40625 0l0 -1.40625z" fill-rule="nonzero"/><path fill="#000000" fill-opacity="0.0" d="m11.296588 161.66273l0 0c0 -17.316528 47.366158 -31.35434 105.79528 -31.35434l0 0c58.429115 0 105.79528 14.037811 105.79528 31.35434l0 0c0 17.316513 -47.366165 31.354324 -105.79528 31.354324l0 0c-58.42912 0 -105.79528 -14.037811 -105.79528 -31.354324z" fill-rule="evenodd"/><path stroke="#000000" stroke-width="2.0" stroke-linejoin="round" stroke-linecap="butt" d="m11.296588 161.66273l0 0c0 -17.316528 47.366158 -31.35434 105.79528 -31.35434l0 0c58.429115 0 105.79528 14.037811 105.79528 31.35434l0 0c0 17.316513 -47.366165 31.354324 -105.79528 31.354324l0 0c-58.42912 0 -105.79528 -14.037811 -105.79528 -31.354324z" fill-rule="evenodd"/><path fill="#000000" d="m95.49375 165.41086q0 1.59375 -0.875 2.390625q-0.859375 0.78125 -2.484375 0.78125l-0.46875 0q-1.625 0 -2.5 -0.78125q-0.859375 -0.796875 -0.859375 -2.390625l0 -9.890625l1.625 0l0 10.25q0 0.578125 0.421875 0.984375q0.4375 0.40625 1.125 0.40625l0.84375 0q0.6875 0 1.109375 -0.40625q0.4375 -0.40625 0.4375 -0.984375l0 -10.25l1.625 0l0 9.890625zm4.5587463 -6.15625l0 0.453125q0.578125 -0.453125 1.5 -0.453125l0.671875 0q1.640625 0 2.40625 0.703125q0.765625 0.703125 0.765625 2.28125l0 3.359375q0 1.5625 -0.78125 2.28125q-0.765625 0.703125 -2.390625 0.703125l-2.078125 0l0 3.171875l-1.578125 0l0 -12.5l1.484375 0zm1.3125 1.40625q-0.609375 0 -0.921875 0.328125q-0.296875 0.3125 -0.296875 0.6875l0 5.5l2.265625 0q0.6875 0 1.03125 -0.3125q0.359375 -0.3125 0.359375 -0.890625l0 -4.109375q0 -0.578125 -0.359375 -0.890625q-0.34375 -0.3125 -1.03125 -0.3125l-1.046875 0zm12.652496 7.5q-0.625 0.421875 -1.5 0.421875l-0.765625 0q-1.640625 0 -2.40625 -0.703125q-0.765625 -0.703125 -0.765625 -2.28125l0 -3.359375q0 -1.5625 0.765625 -2.265625q0.78125 -0.71875 2.40625 -0.71875l2.171875 0l0 -3.734375l1.578125 0l0 13.0625l-1.484375 0l0 -0.421875zm-1.3125 -0.984375q0.625 0 0.921875 -0.3125q0.296875 -0.328125 0.296875 -0.703125l0 -5.5l-2.359375 0q-0.6875 0 -1.046875 0.3125q-0.34375 0.3125 -0.34375 0.890625l0 4.109375q0 0.578125 0.34375 0.890625q0.359375 0.3125 1.046875 0.3125l1.140625 0zm12.168121 1.40625q-0.25 0 -0.546875 -0.140625q-0.28125 -0.15625 -0.484375 -0.421875q-0.421875 0.5625 -1.140625 0.5625l-1.65625 0q-1.421875 0 -2.0625 -0.5625q-0.640625 -0.578125 -0.640625 -1.953125l0 -0.375q0 -2.890625 2.71875 -2.890625l2.3125 0l0 -0.9375q0 -0.578125 -0.359375 -0.890625q-0.34375 -0.3125 -1.03125 -0.3125l-2.890625 0l0 -1.40625l2.703125 0q1.625 0 2.390625 0.71875q0.78125 0.703125 0.78125 2.265625l0 4.484375q0 0.28125 0.203125 0.421875q0.21875 0.125 0.734375 0.125l0 1.3125l-1.03125 0zm-2.359375 -1.40625q0.5625 0 0.703125 -0.25q0.15625 -0.265625 0.15625 -0.671875l0 -2.0625l-2.328125 0q-0.484375 0 -0.8125 0.328125q-0.3125 0.3125 -0.3125 0.796875l0 0.9375q0 0.484375 0.21875 0.703125q0.234375 0.21875 0.71875 0.21875l1.65625 0zm10.386864 1.40625q-0.953125 0 -1.46875 -0.609375q-0.5 -0.625 -0.5 -1.625l0 -5.6875l-1.765625 0l0 -1.40625l1.765625 0l0 -2.234375l1.59375 0l0 2.234375l2.71875 0l0 1.40625l-2.71875 0l0 5.78125q0 0.40625 0.203125 0.578125q0.203125 0.15625 0.625 0.15625l1.890625 0l0 1.40625l-2.34375 0zm9.261871 0q-1.640625 0 -2.40625 -0.703125q-0.765625 -0.703125 -0.765625 -2.28125l0 -3.359375q0 -1.609375 0.6875 -2.296875q0.703125 -0.6875 2.296875 -0.6875l0.875 0q1.328125 0 2.0 0.734375q0.6875 0.734375 0.6875 2.15625l0 2.421875l-4.953125 0l0 1.40625q0 0.578125 0.34375 0.890625q0.359375 0.3125 1.046875 0.3125l2.96875 0l0 1.40625l-2.78125 0zm1.828125 -6.8125q0 -0.484375 -0.3125 -0.796875q-0.3125 -0.3125 -0.796875 -0.3125l-1.09375 0q-0.671875 0 -0.9375 0.3125q-0.265625 0.296875 -0.265625 0.890625l0 1.3125l3.40625 0l0 -1.40625z" fill-rule="nonzero"/><path fill="#000000" fill-opacity="0.0" d="m475.59055 81.6273c53.858246 0 107.71652 20.267715 107.71652 40.53543" fill-rule="evenodd"/><path stroke="#000000" stroke-width="2.0" stroke-linejoin="round" stroke-linecap="butt" d="m475.59055 81.6273c53.858246 0 107.71652 20.267715 107.71652 40.53543" fill-rule="evenodd"/><path fill="#000000" fill-opacity="0.0" d="m732.93195 166.50682c0 20.917908 33.629883 31.375198 67.25983 41.835815c33.629883 10.460632 67.25983 20.924606 67.25983 41.849228" fill-rule="evenodd"/><path stroke="#000000" stroke-width="2.0" stroke-linejoin="round" stroke-linecap="butt" d="m732.93195 166.50682c0 20.917908 33.629883 31.375198 67.25983 41.835815c16.814941 5.230316 33.629944 10.461472 46.24115 17.000626c6.305603 3.2695618 11.560242 6.8661346 15.238525 10.9530945c1.8391113 2.0435028 3.2841797 4.209564 4.269409 6.518692c0.061584473 0.14431763 0.121398926 0.28918457 0.17938232 0.4346161l0.07824707 0.20353699" fill-rule="evenodd"/><path fill="#000000" stroke="#000000" stroke-width="2.0" stroke-linecap="butt" d="m866.1985 243.4532l-2.6224365 -1.8000641l3.3410034 5.6641846l1.0814819 -6.4865875z" fill-rule="evenodd"/><path fill="#000000" fill-opacity="0.0" d="m717.845 250.17822c0 -20.91777 -14.929138 -32.52452 -29.858276 -41.83554c-14.929138 -9.311035 -29.858215 -16.326324 -29.858215 -32.65265" fill-rule="evenodd"/><path stroke="#000000" stroke-width="2.0" stroke-linejoin="round" stroke-linecap="butt" d="m717.845 250.17824c0 -20.917786 -14.929138 -32.524536 -29.858276 -41.835556c-7.4645386 -4.6555176 -14.929138 -8.737076 -20.527527 -13.695572c-2.7992554 -2.479248 -5.131897 -5.177719 -6.7647705 -8.276779c-0.40820312 -0.7747803 -0.7727051 -1.574585 -1.0898438 -2.402237c-0.1585083 -0.41383362 -0.30523682 -0.8346405 -0.43963623 -1.2627716l-0.070129395 -0.22958374" fill-rule="evenodd"/><path fill="#000000" stroke="#000000" stroke-width="2.0" stroke-linecap="butt" d="m659.09485 182.47575l2.5437622 1.9095764l-3.0979614 -5.8006897l-1.3554077 6.4349213z" fill-rule="evenodd"/><path fill="#000000" fill-opacity="0.0" d="m583.3148 166.50682c0 30.264084 -97.8504 45.394302 -195.7008 60.528168c-97.8504 15.13385 -195.70079 30.271347 -195.70079 60.54271" fill-rule="evenodd"/><path stroke="#000000" stroke-width="2.0" stroke-linejoin="round" stroke-linecap="butt" d="m583.3148 166.50682c0 30.264069 -97.8504 45.394302 -195.7008 60.528168c-48.9252 7.566925 -97.8504 15.13475 -134.5443 24.594788c-18.346954 4.7299957 -33.636078 9.93306 -44.338455 15.845566c-5.3511963 2.9562683 -9.555695 6.0898743 -12.422409 9.43042c-0.7166748 0.83514404 -1.349762 1.683197 -1.896225 2.5446472c-0.27323914 0.43075562 -0.5248108 0.8648071 -0.754364 1.3023071l-0.08886719 0.17388916" fill-rule="evenodd"/><path fill="#000000" stroke="#000000" stroke-width="2.0" stroke-linecap="butt" d="m193.56938 280.9266l-1.6390533 -2.7259827l0.6893616 6.5398865l3.6756744 -5.4529724z" fill-rule="evenodd"/><path fill="#000000" fill-opacity="0.0" d="m717.845 294.51993c0 26.38321 -13.4487915 39.573486 -26.897644 52.766388c-13.4487915 13.192902 -26.897644 26.388458 -26.897644 52.776947" fill-rule="evenodd"/><path stroke="#000000" stroke-width="2.0" stroke-linejoin="round" stroke-linecap="butt" d="m717.845 294.51993c0 26.38321 -13.4487915 39.573486 -26.897644 52.76642c-6.724365 6.5964355 -13.4487915 13.193573 -18.492126 21.440125c-2.5216675 4.1232605 -4.622986 8.658905 -6.093994 13.812988c-0.73547363 2.577057 -1.3133545 5.308716 -1.7073364 8.220764c-0.09851074 0.7279968 -0.18554688 1.4673157 -0.26062012 2.2182312l-0.022827148 0.23812866" fill-rule="evenodd"/><path fill="#000000" stroke="#000000" stroke-width="2.0" stroke-linecap="butt" d="m664.3704 393.21658l-2.1414185 -2.3519592l1.9575195 6.278015l2.5358887 -6.067505z" fill-rule="evenodd"/><path fill="#000000" fill-opacity="0.0" d="m483.44095 422.22308c-24.655518 0 -36.984253 2.7716675 -49.311035 5.543335c-12.326782 2.771637 -24.65158 5.5433044 -49.30313 5.5433044" fill-rule="evenodd"/><path stroke="#000000" stroke-width="2.0" stroke-linejoin="round" stroke-linecap="butt" d="m483.44095 422.22308c-24.655518 0 -36.984253 2.7716675 -49.311035 5.543335c-6.163391 1.3858032 -12.326263 2.771637 -20.029755 3.8110046c-3.8517456 0.51968384 -8.088684 0.9527588 -12.903351 1.2559204c-2.407318 0.1515503 -4.9591064 0.2706604 -7.679413 0.35186768c-0.34005737 0.0101623535 -0.68273926 0.019714355 -1.0281067 0.028656006l-0.80874634 0.01940918" fill-rule="evenodd"/><path fill="#000000" stroke="#000000" stroke-width="2.0" stroke-linecap="butt" d="m391.6805 433.23328l2.223938 -2.274109l-6.1540527 2.3179321l6.2042236 2.1801147z" fill-rule="evenodd"/><path fill="#000000" fill-opacity="0.0" d="m204.21507 411.1231c0 -19.80481 -21.779541 -30.85373 -43.559067 -39.60962c-21.779526 -8.75592 -43.55905 -15.218811 -43.55905 -30.437622" fill-rule="evenodd"/><path stroke="#000000" stroke-width="2.0" stroke-linejoin="round" stroke-linecap="butt" d="m204.21506 411.1231c0 -19.80484 -21.779526 -30.853699 -43.559036 -39.60962c-10.8897705 -4.37796 -21.779541 -8.182648 -29.946854 -12.795227c-4.083664 -2.3062744 -7.486717 -4.814514 -9.868851 -7.6973877c-0.5955353 -0.7207031 -1.1272659 -1.4648438 -1.5898666 -2.235077c-0.11564636 -0.1925354 -0.22698212 -0.3867798 -0.33390808 -0.5826416c-0.053466797 -0.09786987 -0.10582733 -0.19625854 -0.1570816 -0.29501343l-0.08224487 -0.16275024" fill-rule="evenodd"/><path fill="#000000" stroke="#000000" stroke-width="2.0" stroke-linecap="butt" d="m118.677216 347.7454l2.7071304 1.6700134l-3.6132889 -5.494507l-0.7638626 6.531616z" fill-rule="evenodd"/><path fill="#000000" fill-opacity="0.0" d="m117.091866 278.37927c0 -21.340729 0.01574707 -32.012146 0.03149414 -42.681442c0.01574707 -10.669296 0.03149414 -21.336441 0.03149414 -42.672897" fill-rule="evenodd"/><path stroke="#000000" stroke-width="2.0" stroke-linejoin="round" stroke-linecap="butt" d="m117.091866 278.37927c0 -21.340729 0.01574707 -32.012146 0.03149414 -42.681442c0.007873535 -5.3346405 0.01574707 -10.668747 0.021652222 -17.336258c0.0029525757 -3.3337708 0.00541687 -7.0008698 0.007133484 -11.168045l0.0013961792 -7.3144226" fill-rule="evenodd"/><path fill="#000000" stroke="#000000" stroke-width="2.0" stroke-linecap="butt" d="m117.15355 199.8791l2.2487335 2.2496033l-2.2479858 -6.179962l-2.250351 6.1790924z" fill-rule="evenodd"/><path fill="#000000" fill-opacity="0.0" d="m191.90042 139.49187c0 -8.923401 25.771652 -13.386169 51.543304 -17.846802c25.771667 -4.4606247 51.543304 -8.919113 51.543304 -17.838234" fill-rule="evenodd"/><path stroke="#000000" stroke-width="2.0" stroke-linejoin="round" stroke-linecap="butt" d="m191.90042 139.49187c0 -8.923401 25.771652 -13.386169 51.54332 -17.846802c12.8858185 -2.2303162 25.771652 -4.4600983 35.43602 -7.2471848c4.832184 -1.393547 8.859009 -2.9264145 11.677765 -4.6683426c0.08810425 -0.05444336 0.17501831 -0.10907745 0.26071167 -0.1639328l0.2296753 -0.14959717" fill-rule="evenodd"/><path fill="#000000" stroke="#000000" stroke-width="2.0" stroke-linecap="butt" d="m291.0479 109.416016l0.54800415 3.1332397l1.7107849 -6.349701l-5.392029 3.7644806z" fill-rule="evenodd"/><path fill="#000000" fill-opacity="0.0" d="m732.93195 122.1651c0 -17.091751 -18.700806 -33.03389 -37.40161 -34.183502c-18.700806 -1.1496048 -37.40155 12.493324 -37.40155 24.986649" fill-rule="evenodd"/><path stroke="#000000" stroke-width="2.0" stroke-linejoin="round" stroke-linecap="butt" d="m732.93195 122.1651c0 -17.091751 -18.700806 -33.033897 -37.40161 -34.183502c-9.350403 -0.5748062 -18.700745 2.548523 -25.713562 7.37722c-3.5064087 2.4143524 -6.428406 5.2550507 -8.473816 8.27298c-0.51135254 0.75447845 -0.9678955 1.5200424 -1.3651123 2.2927933c-0.049682617 0.096588135 -0.09838867 0.19330597 -0.1461792 0.29010773l-0.04925537 0.10185242" fill-rule="evenodd"/><path fill="#000000" stroke="#000000" stroke-width="2.0" stroke-linecap="butt" d="m659.7825 106.31655l-1.6400757 -2.7253723l0.69177246 6.5396347l3.673645 -5.454338z" fill-rule="evenodd"/><path fill="#000000" fill-opacity="0.0" d="m792.65356 303.7034c0 12.5000305 34.04547 25.422638 65.39783 25.000061c31.352417 -0.4225769 60.011597 -14.190308 65.39789 -28.169312c5.3863525 -13.979034 -12.500244 -28.169312 -25.000488 -28.169312" fill-rule="evenodd"/><path stroke="#000000" stroke-width="2.0" stroke-linejoin="round" stroke-linecap="butt" d="m792.65356 303.7034c0 12.5000305 34.04547 25.422638 65.39789 25.000061c31.352356 -0.4225769 60.011536 -14.190308 65.39789 -28.169312c2.6931152 -6.9895325 -0.4319458 -14.03186 -5.7928467 -19.326813c-2.68042 -2.647461 -5.9198 -4.8580933 -9.270325 -6.4068604c-0.8377075 -0.3871765 -1.682251 -0.7330017 -2.5267334 -1.0339355c-0.21124268 -0.07525635 -0.42236328 -0.14767456 -0.6333008 -0.21725464l-0.024841309 -0.0079956055" fill-rule="evenodd"/><path fill="#000000" stroke="#000000" stroke-width="2.0" stroke-linecap="butt" d="m905.2013 273.5413l2.6018066 -1.8297424l-6.473877 1.1551208l5.701782 3.2764282z" fill-rule="evenodd"/><path fill="#000000" fill-opacity="0.0" d="m468.74802 50.272964l181.22836 0l0 40.53543l-181.22836 0z" fill-rule="evenodd"/><path fill="#000000" d="m482.32614 63.08734l0 7.21875l-1.25 0l0 -7.21875l1.25 0zm0.109375 8.796875l0 1.46875l-1.46875 0l0 -1.46875l1.46875 0zm7.101898 1.46875q-1.296875 0 -1.90625 -0.546875q-0.59375 -0.546875 -0.59375 -1.796875l0 -2.640625q0 -1.265625 0.546875 -1.796875q0.546875 -0.546875 1.796875 -0.546875l0.6875 0q1.046875 0 1.578125 0.578125q0.53125 0.578125 0.53125 1.6875l0 1.90625l-3.890625 0l0 1.109375q0 0.453125 0.28125 0.703125q0.28125 0.25 0.8125 0.25l2.328125 0l0 1.09375l-2.171875 0zm1.4375 -5.34375q0 -0.390625 -0.25 -0.640625q-0.25 -0.25 -0.640625 -0.25l-0.84375 0q-0.53125 0 -0.75 0.25q-0.203125 0.234375 -0.203125 0.703125l0 1.03125l2.6875 0l0 -1.09375zm4.336273 -1.984375l0 0.34375q0.375 -0.34375 0.90625 -0.34375l0.078125 0q1.03125 0 1.453125 0.59375q0.484375 -0.59375 1.28125 -0.59375l0.09375 0q0.890625 0 1.3125 0.453125q0.421875 0.453125 0.421875 1.609375l0 5.265625l-1.171875 0l0 -5.28125q0 -0.59375 -0.125 -0.828125q-0.125 -0.234375 -0.5625 -0.234375l-0.09375 0q-0.4375 0 -0.609375 0.296875q-0.15625 0.296875 -0.171875 0.671875l0 5.375l-1.171875 0l0 -5.28125q0 -0.609375 -0.15625 -0.828125q-0.140625 -0.234375 -0.515625 -0.234375l-0.09375 0q-0.4375 0 -0.625 0.265625q-0.171875 0.25 -0.1875 0.5625l0 5.515625l-1.171875 0l0 -7.328125l1.109375 0zm8.633148 0l0 0.359375q0.453125 -0.359375 1.171875 -0.359375l0.515625 0q1.296875 0 1.890625 0.546875q0.609375 0.546875 0.609375 1.796875l0 2.640625q0 1.234375 -0.609375 1.796875q-0.609375 0.546875 -1.890625 0.546875l-1.625 0l0 2.484375l-1.234375 0l0 -9.8125l1.171875 0zm1.015625 1.09375q-0.484375 0 -0.71875 0.265625q-0.234375 0.25 -0.234375 0.546875l0 4.328125l1.78125 0q0.546875 0 0.8125 -0.25q0.28125 -0.25 0.28125 -0.703125l0 -3.234375q0 -0.453125 -0.28125 -0.703125q-0.265625 -0.25 -0.8125 -0.25l-0.828125 0zm8.945679 6.234375q-0.75 0 -1.15625 -0.484375q-0.390625 -0.484375 -0.390625 -1.28125l0 -4.46875l-1.3906555 0l0 -1.09375l1.3906555 0l0 -1.765625l1.25 0l0 1.765625l2.140625 0l0 1.09375l-2.140625 0l0 4.546875q0 0.328125 0.15625 0.46875q0.171875 0.125 0.5 0.125l1.484375 0l0 1.09375l-1.84375 0zm6.0549927 1.390625q0.34375 0 0.515625 -0.140625q0.1875 -0.125 0.265625 -0.4375l0.21875 -0.8125l-0.296875 0l-2.421875 -7.328125l1.34375 0l1.84375 6.140625l1.59375 -6.140625l1.265625 0l-2.265625 8.125q-0.1875 0.734375 -0.46875 1.09375q-0.28125 0.375 -0.625 0.484375q-0.34375 0.109375 -0.890625 0.109375l-0.703125 0l0 -1.09375l0.625 0zm16.891296 -1.390625q-1.3125 0 -1.90625 -0.546875q-0.578125 -0.546875 -0.578125 -1.765625l0 -1.84375q0 -1.28125 0.953125 -1.8125q-0.8125 -0.5625 -0.8125 -1.703125l0 -0.296875q0 -1.1875 0.640625 -1.734375q0.640625 -0.5625 1.890625 -0.5625l1.546875 0l0 1.109375l-1.734375 0q-0.546875 0 -0.8125 0.25q-0.25 0.25 -0.25 0.796875l0 0.59375q0 0.484375 0.296875 0.78125q0.3125 0.28125 0.765625 0.28125l3.5625 0l0 1.109375l-1.15625 0l0 5.34375l-2.40625 0zm-0.140625 -5.34375q-0.484375 0 -0.78125 0.28125q-0.296875 0.28125 -0.296875 0.765625l0 2.125q0 0.5625 0.265625 0.828125q0.265625 0.25 0.828125 0.25l1.34375 0l0 -4.25l-1.359375 0zm16.844421 -4.921875l0 7.21875l-1.25 0l0 -7.21875l1.25 0zm0.109375 8.796875l0 1.46875l-1.46875 0l0 -1.46875l1.46875 0zm9.414429 -0.359375q0 0.921875 -0.5625 1.375q-0.5625 0.453125 -1.640625 0.453125l-2.1875 0l0 -1.09375l2.34375 0q0.390625 0 0.59375 -0.171875q0.203125 -0.171875 0.203125 -0.5l0 -0.765625q0 -0.65625 -0.625 -0.65625l-0.546875 0q-1.03125 0 -1.53125 -0.453125q-0.5 -0.453125 -0.5 -1.421875l0 -0.421875q0 -0.984375 0.546875 -1.40625q0.5625 -0.4375 1.640625 -0.4375l1.96875 0l0 1.09375l-2.109375 0q-0.359375 0 -0.59375 0.171875q-0.21875 0.171875 -0.21875 0.5l0 0.515625q0 0.34375 0.203125 0.515625q0.203125 0.15625 0.5 0.15625l0.5 0q0.984375 0 1.5 0.484375q0.515625 0.46875 0.515625 1.40625l0 0.65625zm4.2581177 0.734375l0 -5.140625l-1.0625 0l0 -1.09375l2.234375 0l0 0.390625q0.484375 -0.390625 1.171875 -0.390625l1.515625 0l0 1.171875l-1.65625 0q-0.46875 0 -0.703125 0.296875q-0.234375 0.296875 -0.25 0.609375l0 4.15625l1.59375 0l0 1.09375l-3.90625 0l0 -1.09375l1.0625 0zm11.492554 1.09375q-0.1875 0 -0.421875 -0.109375q-0.21875 -0.125 -0.375 -0.328125q-0.34375 0.4375 -0.90625 0.4375l-1.296875 0q-1.109375 0 -1.625 -0.4375q-0.5 -0.453125 -0.5 -1.546875l0 -0.28125q0 -2.28125 2.140625 -2.28125l1.8125 0l0 -0.734375q0 -0.453125 -0.28125 -0.703125q-0.28125 -0.25 -0.8125 -0.25l-2.28125 0l0 -1.09375l2.125 0q1.28125 0 1.890625 0.5625q0.609375 0.546875 0.609375 1.78125l0 3.515625q0 0.21875 0.15625 0.328125q0.171875 0.109375 0.578125 0.109375l0 1.03125l-0.8125 0zm-1.84375 -1.09375q0.4375 0 0.546875 -0.203125q0.125 -0.21875 0.125 -0.53125l0 -1.609375l-1.828125 0q-0.390625 0 -0.640625 0.25q-0.234375 0.234375 -0.234375 0.625l0 0.734375q0 0.375 0.171875 0.5625q0.171875 0.171875 0.546875 0.171875l1.3125 0zm5.3831177 -6.234375l0 0.34375q0.375 -0.34375 0.90625 -0.34375l0.078125 0q1.03125 0 1.453125 0.59375q0.484375 -0.59375 1.28125 -0.59375l0.09375 0q0.890625 0 1.3125 0.453125q0.421875 0.453125 0.421875 1.609375l0 5.265625l-1.171875 0l0 -5.28125q0 -0.59375 -0.125 -0.828125q-0.125 -0.234375 -0.5625 -0.234375l-0.09375 0q-0.4375 0 -0.609375 0.296875q-0.15625 0.296875 -0.171875 0.671875l0 5.375l-1.171875 0l0 -5.28125q0 -0.609375 -0.15625 -0.828125q-0.140625 -0.234375 -0.515625 -0.234375l-0.09375 0q-0.4375 0 -0.625 0.265625q-0.171875 0.25 -0.1875 0.5625l0 5.515625l-1.171875 0l0 -7.328125l1.109375 0zm10.633179 -1.828125q-0.234375 0 -0.375 0.125q-0.140625 0.125 -0.140625 0.3125l0 1.390625l2.359375 0l0 1.09375l-2.359375 0l0 5.140625l1.78125 0l0 1.09375l-4.265625 0l0 -1.09375l1.25 0l0 -5.140625l-1.25 0l0 -1.09375l1.25 0l0 -1.3125q0 -0.75 0.421875 -1.1875q0.421875 -0.4375 1.09375 -0.4375l2.234375 0l0 1.109375l-2.0 0zm11.117493 10.546875l0 1.09375l-7.390625 0l0 -1.09375l7.390625 0zm4.7113037 -10.546875q-0.234375 0 -0.375 0.125q-0.140625 0.125 -0.140625 0.3125l0 1.390625l2.359375 0l0 1.09375l-2.359375 0l0 5.140625l1.78125 0l0 1.09375l-4.265625 0l0 -1.09375l1.25 0l0 -5.140625l-1.25 0l0 -1.09375l1.25 0l0 -1.3125q0 -0.75 0.421875 -1.1875q0.421875 -0.4375 1.09375 -0.4375l2.234375 0l0 1.109375l-2.0 0zm8.836243 8.8125q-0.484375 0.34375 -1.171875 0.34375l-0.5 0q-1.1875 0 -1.765625 -0.546875q-0.578125 -0.5625 -0.578125 -1.796875l0 -4.984375l1.25 0l0 5.28125q0 0.4375 0.25 0.703125q0.265625 0.25 0.703125 0.25l0.796875 0q0.46875 0 0.6875 -0.234375q0.234375 -0.234375 0.265625 -0.53125l0 -5.46875l1.234375 0l0 7.328125l-1.171875 0l0 -0.34375zm6.9613037 0.34375q-0.5 0 -0.875 -0.34375q-0.359375 -0.359375 -0.359375 -1.125l0 -7.6875l-2.15625 0l0 -1.109375l3.390625 0l0 8.734375q0 0.234375 0.109375 0.34375q0.125 0.09375 0.40625 0.09375l1.953125 0l0 1.09375l-2.46875 0zm7.9143677 0q-0.5 0 -0.875 -0.34375q-0.359375 -0.359375 -0.359375 -1.125l0 -7.6875l-2.15625 0l0 -1.109375l3.390625 0l0 8.734375q0 0.234375 0.109375 0.34375q0.125 0.09375 0.40625 0.09375l1.953125 0l0 1.09375l-2.46875 0z" fill-rule="nonzero"/><path fill="#000000" fill-opacity="0.0" d="m702.03937 72.4462l222.39368 0l0 40.53543l-222.39368 0z" fill-rule="evenodd"/><path fill="#000000" d="m715.6175 85.26057l0 7.21875l-1.25 0l0 -7.21875l1.25 0zm0.109375 8.796875l0 1.46875l-1.46875 0l0 -1.46875l1.46875 0zm7.1019287 1.46875q-1.296875 0 -1.90625 -0.546875q-0.59375 -0.546875 -0.59375 -1.796875l0 -2.640625q0 -1.265625 0.546875 -1.796875q0.546875 -0.546875 1.796875 -0.546875l0.6875 0q1.046875 0 1.578125 0.578125q0.53125 0.578125 0.53125 1.6875l0 1.90625l-3.890625 0l0 1.109375q0 0.453125 0.28125 0.703125q0.28125 0.25 0.8125 0.25l2.328125 0l0 1.09375l-2.171875 0zm1.4375 -5.34375q0 -0.390625 -0.25 -0.640625q-0.25 -0.25 -0.640625 -0.25l-0.84375 0q-0.53125 0 -0.75 0.25q-0.203125 0.234375 -0.203125 0.703125l0 1.03125l2.6875 0l0 -1.09375zm4.3362427 -1.984375l0 0.34375q0.375 -0.34375 0.90625 -0.34375l0.078125 0q1.03125 0 1.453125 0.59375q0.484375 -0.59375 1.28125 -0.59375l0.09375 0q0.890625 0 1.3125 0.453125q0.421875 0.453125 0.421875 1.609375l0 5.265625l-1.171875 0l0 -5.28125q0 -0.59375 -0.125 -0.828125q-0.125 -0.234375 -0.5625 -0.234375l-0.09375 0q-0.4375 0 -0.609375 0.296875q-0.15625 0.296875 -0.171875 0.671875l0 5.375l-1.171875 0l0 -5.28125q0 -0.609375 -0.15625 -0.828125q-0.140625 -0.234375 -0.515625 -0.234375l-0.09375 0q-0.4375 0 -0.625 0.265625q-0.171875 0.25 -0.1875 0.5625l0 5.515625l-1.171875 0l0 -7.328125l1.109375 0zm8.633179 0l0 0.359375q0.453125 -0.359375 1.171875 -0.359375l0.515625 0q1.296875 0 1.890625 0.546875q0.609375 0.546875 0.609375 1.796875l0 2.640625q0 1.234375 -0.609375 1.796875q-0.609375 0.546875 -1.890625 0.546875l-1.625 0l0 2.484375l-1.234375 0l0 -9.8125l1.171875 0zm1.015625 1.09375q-0.484375 0 -0.71875 0.265625q-0.234375 0.25 -0.234375 0.546875l0 4.328125l1.78125 0q0.546875 0 0.8125 -0.25q0.28125 -0.25 0.28125 -0.703125l0 -3.234375q0 -0.453125 -0.28125 -0.703125q-0.265625 -0.25 -0.8125 -0.25l-0.828125 0zm8.945618 6.234375q-0.75 0 -1.15625 -0.484375q-0.390625 -0.484375 -0.390625 -1.28125l0 -4.46875l-1.390625 0l0 -1.09375l1.390625 0l0 -1.765625l1.25 0l0 1.765625l2.140625 0l0 1.09375l-2.140625 0l0 4.546875q0 0.328125 0.15625 0.46875q0.171875 0.125 0.5 0.125l1.484375 0l0 1.09375l-1.84375 0zm6.0550537 1.390625q0.34375 0 0.515625 -0.140625q0.1875 -0.125 0.265625 -0.4375l0.21875 -0.8125l-0.296875 0l-2.421875 -7.328125l1.34375 0l1.84375 6.140625l1.59375 -6.140625l1.265625 0l-2.265625 8.125q-0.1875 0.734375 -0.46875 1.09375q-0.28125 0.375 -0.625 0.484375q-0.34375 0.109375 -0.890625 0.109375l-0.703125 0l0 -1.09375l0.625 0zm16.891296 -1.390625q-1.3125 0 -1.90625 -0.546875q-0.578125 -0.546875 -0.578125 -1.765625l0 -1.84375q0 -1.28125 0.953125 -1.8125q-0.8125 -0.5625 -0.8125 -1.703125l0 -0.296875q0 -1.1875 0.640625 -1.734375q0.640625 -0.5625 1.890625 -0.5625l1.546875 0l0 1.109375l-1.734375 0q-0.546875 0 -0.8125 0.25q-0.25 0.25 -0.25 0.796875l0 0.59375q0 0.484375 0.296875 0.78125q0.3125 0.28125 0.765625 0.28125l3.5625 0l0 1.109375l-1.15625 0l0 5.34375l-2.40625 0zm-0.140625 -5.34375q-0.484375 0 -0.78125 0.28125q-0.296875 0.28125 -0.296875 0.765625l0 2.125q0 0.5625 0.265625 0.828125q0.265625 0.25 0.828125 0.25l1.34375 0l0 -4.25l-1.359375 0zm14.750671 -2.0625q0 -1.703125 0.4375 -2.75q0.4375 -1.0625 1.21875 -1.859375l1.28125 0q-0.703125 0.84375 -1.046875 1.421875q-0.328125 0.578125 -0.484375 1.296875q-0.15625 0.71875 -0.15625 1.859375l0 4.609375q0 1.140625 0.15625 1.859375q0.15625 0.71875 0.484375 1.296875q0.34375 0.578125 1.046875 1.4375l-1.28125 0q-0.78125 -0.8125 -1.21875 -1.859375q-0.4375 -1.0625 -0.4375 -2.765625l0 -4.546875zm9.133118 7.40625q-1.3125 0 -1.90625 -0.546875q-0.578125 -0.546875 -0.578125 -1.765625l0 -1.84375q0 -1.28125 0.953125 -1.8125q-0.8125 -0.5625 -0.8125 -1.703125l0 -0.296875q0 -1.1875 0.640625 -1.734375q0.640625 -0.5625 1.890625 -0.5625l1.546875 0l0 1.109375l-1.734375 0q-0.546875 0 -0.8125 0.25q-0.25 0.25 -0.25 0.796875l0 0.59375q0 0.484375 0.296875 0.78125q0.3125 0.28125 0.765625 0.28125l3.5625 0l0 1.109375l-1.15625 0l0 5.34375l-2.40625 0zm-0.140625 -5.34375q-0.484375 0 -0.78125 0.28125q-0.296875 0.28125 -0.296875 0.765625l0 2.125q0 0.5625 0.265625 0.828125q0.265625 0.25 0.828125 0.25l1.34375 0l0 -4.25l-1.359375 0zm10.992554 3.0q0 1.234375 -0.609375 1.796875q-0.609375 0.546875 -1.890625 0.546875l-2.859375 0l0 -10.265625l1.234375 0l0 3.234375q0.4375 -0.296875 1.109375 -0.296875l0.515625 0q1.296875 0 1.890625 0.546875q0.609375 0.546875 0.609375 1.796875l0 2.640625zm-3.171875 -3.890625q-0.484375 0 -0.71875 0.265625q-0.234375 0.25 -0.234375 0.546875l0 4.328125l1.78125 0q0.546875 0 0.8125 -0.25q0.28125 -0.25 0.28125 -0.703125l0 -3.234375q0 -0.453125 -0.28125 -0.703125q-0.265625 -0.25 -0.8125 -0.25l-0.828125 0zm7.0862427 7.625q0.34375 0 0.515625 -0.140625q0.1875 -0.125 0.265625 -0.4375l0.21875 -0.8125l-0.296875 0l-2.421875 -7.328125l1.34375 0l1.84375 6.140625l1.59375 -6.140625l1.265625 0l-2.265625 8.125q-0.1875 0.734375 -0.46875 1.09375q-0.28125 0.375 -0.625 0.484375q-0.34375 0.109375 -0.890625 0.109375l-0.703125 0l0 -1.09375l0.625 0zm9.773804 -1.390625q-0.75 0 -1.15625 -0.484375q-0.390625 -0.484375 -0.390625 -1.28125l0 -4.46875l-1.390625 0l0 -1.09375l1.390625 0l0 -1.765625l1.25 0l0 1.765625l2.140625 0l0 1.09375l-2.140625 0l0 4.546875q0 0.328125 0.15625 0.46875q0.171875 0.125 0.5 0.125l1.484375 0l0 1.09375l-1.84375 0zm7.2893677 0q-1.296875 0 -1.90625 -0.546875q-0.59375 -0.546875 -0.59375 -1.796875l0 -2.640625q0 -1.265625 0.546875 -1.796875q0.546875 -0.546875 1.796875 -0.546875l0.6875 0q1.046875 0 1.578125 0.578125q0.53125 0.578125 0.53125 1.6875l0 1.90625l-3.890625 0l0 1.109375q0 0.453125 0.28125 0.703125q0.28125 0.25 0.8125 0.25l2.328125 0l0 1.09375l-2.171875 0zm1.4375 -5.34375q0 -0.390625 -0.25 -0.640625q-0.25 -0.25 -0.640625 -0.25l-0.84375 0q-0.53125 0 -0.75 0.25q-0.203125 0.234375 -0.203125 0.703125l0 1.03125l2.6875 0l0 -1.09375zm10.258179 6.734375l0 1.09375l-7.390625 0l0 -1.09375l7.390625 0zm4.1331177 -1.390625q-1.296875 0 -1.90625 -0.546875q-0.59375 -0.546875 -0.59375 -1.796875l0 -2.640625q0 -1.265625 0.546875 -1.796875q0.546875 -0.546875 1.796875 -0.546875l0.6875 0q1.046875 0 1.578125 0.578125q0.53125 0.578125 0.53125 1.6875l0 1.90625l-3.890625 0l0 1.109375q0 0.453125 0.28125 0.703125q0.28125 0.25 0.8125 0.25l2.328125 0l0 1.09375l-2.171875 0zm1.4375 -5.34375q0 -0.390625 -0.25 -0.640625q-0.25 -0.25 -0.640625 -0.25l-0.84375 0q-0.53125 0 -0.75 0.25q-0.203125 0.234375 -0.203125 0.703125l0 1.03125l2.6875 0l0 -1.09375zm5.0550537 -1.984375l0 0.359375q0.453125 -0.359375 1.171875 -0.359375l0.671875 0q1.1875 0 1.765625 0.5625q0.578125 0.546875 0.578125 1.78125l0 4.984375l-1.25 0l0 -5.28125q0 -0.4375 -0.265625 -0.6875q-0.25 -0.265625 -0.6875 -0.265625l-0.96875 0q-0.484375 0 -0.71875 0.265625q-0.234375 0.25 -0.234375 0.546875l0 5.421875l-1.234375 0l0 -7.328125l1.171875 0zm20.110046 0.734375l0 1.09375l-5.5625 0l0 -1.09375l5.5625 0zm0 2.921875l0 1.109375l-5.5625 0l0 -1.109375l5.5625 0zm7.9143677 -2.921875l0 1.09375l-5.5625 0l0 -1.09375l5.5625 0zm0 2.921875l0 1.109375l-5.5625 0l0 -1.109375l5.5625 0zm7.7425537 1.1875q0 1.203125 -0.671875 1.84375q-0.65625 0.640625 -1.78125 0.640625l-0.296875 0q-1.125 0 -1.796875 -0.640625q-0.671875 -0.640625 -0.671875 -1.84375l0 -5.28125q0 -1.234375 0.65625 -1.859375q0.671875 -0.640625 1.8125 -0.640625l0.296875 0q1.140625 0 1.796875 0.640625q0.65625 0.625 0.65625 1.859375l0 5.28125zm-1.25 -5.5625q0 -0.453125 -0.34375 -0.78125q-0.34375 -0.328125 -0.859375 -0.328125l-0.296875 0q-0.53125 0 -0.875 0.328125q-0.34375 0.328125 -0.34375 0.78125l0 3.96875l2.71875 -3.96875zm-2.71875 5.828125q0 0.453125 0.34375 0.796875q0.34375 0.328125 0.875 0.328125l0.296875 0q0.515625 0 0.859375 -0.328125q0.34375 -0.34375 0.34375 -0.796875l0 -3.953125l-2.71875 3.953125zm10.742493 -0.640625q0 1.703125 -0.4375 2.765625q-0.421875 1.046875 -1.203125 1.859375l-1.296875 0q0.703125 -0.859375 1.046875 -1.4375q0.34375 -0.578125 0.484375 -1.296875q0.15625 -0.71875 0.15625 -1.859375l0 -4.609375q0 -1.140625 -0.15625 -1.859375q-0.140625 -0.71875 -0.484375 -1.296875q-0.34375 -0.578125 -1.046875 -1.421875l1.296875 0q0.78125 0.796875 1.203125 1.859375q0.4375 1.046875 0.4375 2.75l0 4.546875z" fill-rule="nonzero"/><path fill="#000000" fill-opacity="0.0" d="m759.64294 151.35184l192.59845 111.18112l-20.283447 35.118103l-192.59845 -111.18111z" fill-rule="evenodd"/><path fill="#000000" d="m759.25 177.77455q-1.123169 -0.6483612 -1.3773804 -1.42659q-0.24072266 -0.770401 0.38446045 -1.852829l1.3207397 -2.286621q0.6329956 -1.0959473 1.3723145 -1.2825775q0.74713135 -0.20014954 1.8297119 0.42478943l0.59539795 0.34371948q0.90667725 0.52337646 1.0775757 1.2895966q0.17095947 0.7662201 -0.38391113 1.7268677l-0.95336914 1.6506958l-3.3695068 -1.9450989l-0.5548706 0.9606476q-0.22662354 0.39237976 -0.10809326 0.74946594q0.11859131 0.35710144 0.5786743 0.6226959l2.0162964 1.1639404l-0.5470581 0.9471283l-1.8809814 -1.0858307zm3.9176025 -3.9086914q0.19537354 -0.33825684 0.10394287 -0.6797333q-0.0914917 -0.34146118 -0.42980957 -0.5367584l-0.7307129 -0.42182922q-0.460083 -0.26559448 -0.77459717 -0.15847778q-0.29315186 0.10140991 -0.5275879 0.50730896l-0.5157471 0.8930054l2.3275146 1.3436127l0.5469971 -0.9471283zm4.747986 0.44955444l-0.17193604 0.29766846q0.4967041 -0.110183716 0.9567871 0.15541077l0.06762695 0.0390625q0.89312744 0.51556396 0.96154785 1.2406311q0.71643066 -0.27198792 1.4066162 0.12641907l0.08117676 0.04685974q0.77130127 0.44526672 0.9100952 1.0485687q0.13873291 0.60328674 -0.4395752 1.604538l-2.633606 4.5597076l-1.0148926 -0.58587646l2.6414185 -4.573242q0.29693604 -0.51416016 0.3059082 -0.77960205q0.008972168 -0.2654419 -0.36993408 -0.48417664l-0.08117676 -0.046875q-0.37890625 -0.21871948 -0.67626953 -0.047576904q-0.28381348 0.17897034 -0.48486328 0.49588013l-2.6882935 4.654419l-1.0149536 -0.5858612l2.6414185 -4.5732574q0.30480957 -0.52767944 0.27886963 -0.7952118q-0.0045776367 -0.27326965 -0.3293457 -0.46073914l-0.08117676 -0.046875q-0.37890625 -0.21873474 -0.6741333 -0.082458496q-0.27386475 0.1305542 -0.4437256 0.39335632l-2.758606 4.7761993l-1.0149536 -0.58587646l3.6651611 -6.3457184l0.9608154 0.55462646zm7.4767456 4.3161316l-0.17974854 0.31118774q0.5722046 -0.08465576 1.1947021 0.27467346l0.4465332 0.25779724q1.123169 0.6483612 1.3638916 1.4187622q0.25421143 0.77822876 -0.37097168 1.8606415l-1.3206787 2.286621q-0.6173706 1.0689087 -1.4264526 1.2513428q-0.80126953 0.16889954 -1.9109497 -0.47166443l-1.4073486 -0.81240845l-1.2425537 2.1513214l-1.0690308 -0.61712646l4.907715 -8.497025l1.0148926 0.58587646zm0.33258057 1.4548798q-0.41949463 -0.24217224 -0.75531006 -0.1293335q-0.32806396 0.09931946 -0.47650146 0.35638428l-2.164734 3.7479095l1.5426636 0.8905182q0.4736328 0.27340698 0.82873535 0.18972778q0.3685913 -0.07588196 0.59521484 -0.46824646l1.6176758 -2.8007812q0.22662354 -0.39237976 0.10809326 -0.7494812q-0.105041504 -0.34927368 -0.5786133 -0.62268066l-0.7172241 -0.41401672zm4.6293335 9.870941q-0.64953613 -0.37496948 -0.7591553 -0.9975128q-0.0960083 -0.61473083 0.30255127 -1.3047638l2.2349854 -3.8696747l-1.2043457 -0.6952362l0.5470581 -0.9471283l1.2043457 0.6952362l0.88305664 -1.5289154l1.0825806 0.6249237l-0.88305664 1.5289307l1.8538818 1.0702057l-0.5469971 0.94711304l-1.8539429 -1.0701904l-2.274109 3.937317q-0.16412354 0.2841339 -0.099121094 0.48402405q0.086364746 0.19416809 0.37054443 0.35821533l1.2855225 0.7421112l-0.5470581 0.9471283l-1.5967407 -0.92178345zm4.548462 4.2313843q0.29766846 0.17185974 0.51690674 0.13601685q0.22485352 -0.01449585 0.44885254 -0.24604797l0.5958252 -0.594223l-0.2571411 -0.14840698l1.567688 -7.556534l1.1637573 0.6717987l-1.4744263 6.239197l4.451477 -4.5206146l1.0961304 0.6327362l-6.025879 5.903076q-0.5296631 0.5421753 -0.9530029 0.71276855q-0.43115234 0.18411255 -0.78356934 0.10696411q-0.35235596 -0.07713318 -0.82598877 -0.35054016l-0.60894775 -0.35153198l0.5469971 -0.9471283l0.5413208 0.31246948z" fill-rule="nonzero"/><path fill="#000000" fill-opacity="0.0" d="m780.979 327.02362l134.51965 0l0 40.53543l-134.51965 0z" fill-rule="evenodd"/><path fill="#000000" d="m794.5571 339.83798l0 7.21875l-1.25 0l0 -7.21875l1.25 0zm0.109375 8.796875l0 1.46875l-1.46875 0l0 -1.46875l1.46875 0zm7.7268677 1.46875q-0.75 0 -1.15625 -0.484375q-0.390625 -0.484375 -0.390625 -1.28125l0 -4.46875l-1.390625 0l0 -1.09375l1.390625 0l0 -1.765625l1.25 0l0 1.765625l2.140625 0l0 1.09375l-2.140625 0l0 4.546875q0 0.328125 0.15625 0.46875q0.171875 0.125 0.5 0.125l1.484375 0l0 1.09375l-1.84375 0zm8.055054 -10.265625l0 1.328125l-1.390625 0l0 -1.328125l1.390625 0zm-3.46875 4.03125l0 -1.09375l3.40625 0l0 6.234375l2.15625 0l0 1.09375l-3.40625 0l0 -6.234375l-2.15625 0zm8.476868 -1.09375l0 0.34375q0.375 -0.34375 0.90625 -0.34375l0.078125 0q1.03125 0 1.453125 0.59375q0.484375 -0.59375 1.28125 -0.59375l0.09375 0q0.890625 0 1.3125 0.453125q0.421875 0.453125 0.421875 1.609375l0 5.265625l-1.171875 0l0 -5.28125q0 -0.59375 -0.125 -0.828125q-0.125 -0.234375 -0.5625 -0.234375l-0.09375 0q-0.4375 0 -0.609375 0.296875q-0.15625 0.296875 -0.171875 0.671875l0 5.375l-1.171875 0l0 -5.28125q0 -0.609375 -0.15625 -0.828125q-0.140625 -0.234375 -0.515625 -0.234375l-0.09375 0q-0.4375 0 -0.625 0.265625q-0.171875 0.25 -0.1875 0.5625l0 5.515625l-1.171875 0l0 -7.328125l1.109375 0zm10.055054 7.328125q-1.296875 0 -1.90625 -0.546875q-0.59375 -0.546875 -0.59375 -1.796875l0 -2.640625q0 -1.265625 0.546875 -1.796875q0.546875 -0.546875 1.796875 -0.546875l0.6875 0q1.046875 0 1.578125 0.578125q0.53125 0.578125 0.53125 1.6875l0 1.90625l-3.890625 0l0 1.109375q0 0.453125 0.28125 0.703125q0.28125 0.25 0.8125 0.25l2.328125 0l0 1.09375l-2.171875 0zm1.4375 -5.34375q0 -0.390625 -0.25 -0.640625q-0.25 -0.25 -0.640625 -0.25l-0.84375 0q-0.53125 0 -0.75 0.25q-0.203125 0.234375 -0.203125 0.703125l0 1.03125l2.6875 0l0 -1.09375zm5.1331177 4.25l0 -5.140625l-1.0625 0l0 -1.09375l2.234375 0l0 0.390625q0.484375 -0.390625 1.171875 -0.390625l1.515625 0l0 1.171875l-1.65625 0q-0.46875 0 -0.703125 0.296875q-0.234375 0.296875 -0.25 0.609375l0 4.15625l1.59375 0l0 1.09375l-3.90625 0l0 -1.09375l1.0625 0zm13.039429 2.484375l0 1.09375l-7.390625 0l0 -1.09375l7.390625 0zm4.1331177 -1.390625q-1.296875 0 -1.90625 -0.546875q-0.59375 -0.546875 -0.59375 -1.796875l0 -2.640625q0 -1.265625 0.546875 -1.796875q0.546875 -0.546875 1.796875 -0.546875l0.6875 0q1.046875 0 1.578125 0.578125q0.53125 0.578125 0.53125 1.6875l0 1.90625l-3.890625 0l0 1.109375q0 0.453125 0.28125 0.703125q0.28125 0.25 0.8125 0.25l2.328125 0l0 1.09375l-2.171875 0zm1.4375 -5.34375q0 -0.390625 -0.25 -0.640625q-0.25 -0.25 -0.640625 -0.25l-0.84375 0q-0.53125 0 -0.75 0.25q-0.203125 0.234375 -0.203125 0.703125l0 1.03125l2.6875 0l0 -1.09375zm4.9300537 5.34375l-1.375 0l2.28125 -3.78125l-2.109375 -3.546875l1.453125 0l1.390625 2.46875l1.421875 -2.46875l1.359375 0l-2.140625 3.484375l2.34375 3.84375l-1.46875 0l-1.546875 -2.765625l-1.609375 2.765625zm8.039368 -7.328125l0 0.359375q0.453125 -0.359375 1.171875 -0.359375l0.515625 0q1.296875 0 1.890625 0.546875q0.609375 0.546875 0.609375 1.796875l0 2.640625q0 1.234375 -0.609375 1.796875q-0.609375 0.546875 -1.890625 0.546875l-1.625 0l0 2.484375l-1.234375 0l0 -9.8125l1.171875 0zm1.015625 1.09375q-0.484375 0 -0.71875 0.265625q-0.234375 0.25 -0.234375 0.546875l0 4.328125l1.78125 0q0.546875 0 0.8125 -0.25q0.28125 -0.25 0.28125 -0.703125l0 -3.234375q0 -0.453125 -0.28125 -0.703125q-0.265625 -0.25 -0.8125 -0.25l-0.828125 0zm9.086304 -4.03125l0 1.328125l-1.390625 0l0 -1.328125l1.390625 0zm-3.46875 4.03125l0 -1.09375l3.40625 0l0 6.234375l2.15625 0l0 1.09375l-3.40625 0l0 -6.234375l-2.15625 0zm9.273743 5.140625l0 -5.140625l-1.0625 0l0 -1.09375l2.234375 0l0 0.390625q0.484375 -0.390625 1.171875 -0.390625l1.515625 0l0 1.171875l-1.65625 0q-0.46875 0 -0.703125 0.296875q-0.234375 0.296875 -0.25 0.609375l0 4.15625l1.59375 0l0 1.09375l-3.90625 0l0 -1.09375l1.0625 0zm9.258179 1.09375q-1.296875 0 -1.90625 -0.546875q-0.59375 -0.546875 -0.59375 -1.796875l0 -2.640625q0 -1.265625 0.546875 -1.796875q0.546875 -0.546875 1.796875 -0.546875l0.6875 0q1.046875 0 1.578125 0.578125q0.53125 0.578125 0.53125 1.6875l0 1.90625l-3.890625 0l0 1.109375q0 0.453125 0.28125 0.703125q0.28125 0.25 0.8125 0.25l2.328125 0l0 1.09375l-2.171875 0zm1.4375 -5.34375q0 -0.390625 -0.25 -0.640625q-0.25 -0.25 -0.640625 -0.25l-0.84375 0q-0.53125 0 -0.75 0.25q-0.203125 0.234375 -0.203125 0.703125l0 1.03125l2.6875 0l0 -1.09375zm8.101868 5.0q-0.484375 0.34375 -1.171875 0.34375l-0.609375 0q-1.28125 0 -1.890625 -0.546875q-0.59375 -0.546875 -0.59375 -1.796875l0 -2.640625q0 -1.234375 0.609375 -1.78125q0.609375 -0.5625 1.875 -0.5625l1.703125 0l0 -2.9375l1.25 0l0 10.265625l-1.171875 0l0 -0.34375zm-1.03125 -0.75q0.484375 0 0.71875 -0.25q0.234375 -0.265625 0.234375 -0.5625l0 -4.328125l-1.84375 0q-0.546875 0 -0.828125 0.25q-0.265625 0.25 -0.265625 0.703125l0 3.234375q0 0.453125 0.265625 0.703125q0.28125 0.25 0.828125 0.25l0.890625 0z" fill-rule="nonzero"/><path fill="#000000" fill-opacity="0.0" d="m622.36365 390.46072l111.212585 -192.59843l35.118103 20.283463l-111.212585 192.59842z" fill-rule="evenodd"/><path fill="#000000" d="m649.1003 390.3132q-0.37506104 0.6495056 -0.9976196 0.7590637q-0.6148071 0.0960083 -1.3048706 -0.30255127l-3.869629 -2.2350464l-0.69537354 1.2042847l-0.94714355 -0.5470276l0.69537354 -1.2042847l-1.5289307 -0.88305664l0.62506104 -1.0825195l1.5289307 0.88308716l1.0704346 -1.8537598l0.94714355 0.5470276l-1.0704346 1.8537598l3.937317 2.274109q0.28411865 0.16412354 0.48406982 0.09915161q0.19415283 -0.08633423 0.35821533 -0.3704834l0.7423096 -1.2854614l0.9470825 0.5470276l-0.92193604 1.5966797zm-4.861511 -12.109924l1.1500854 0.6642456l-0.69537354 1.2042847l-1.1500854 -0.6642761l0.69537354 -1.2042542zm1.7562866 5.0201416l-0.94714355 -0.5470581l1.7033081 -2.949768l5.3986206 3.118103l1.0782471 -1.8673096l0.9470825 0.5470276l-1.7033081 2.9497986l-5.3985596 -3.118103l-1.0782471 1.8673096zm3.291748 -7.8880005l0.29766846 0.17193604q-0.11010742 -0.49667358 0.15551758 -0.9567261l0.0390625 -0.06765747q0.51568604 -0.8930664 1.2407837 -0.9614563q-0.27191162 -0.71643066 0.12658691 -1.4064941l0.046875 -0.081207275q0.44537354 -0.77127075 1.048706 -0.90997314q0.6033325 -0.13873291 1.6045532 0.4395752l4.5597534 2.633606l-0.58599854 1.0148315l-4.573303 -2.6414185q-0.5140991 -0.29696655 -0.77960205 -0.30593872q-0.2654419 -0.008972168 -0.4841919 0.36990356l-0.046875 0.08117676q-0.21881104 0.37887573 -0.047668457 0.6762085q0.17895508 0.28378296 0.4958496 0.4848938l4.654419 2.6882935l-0.58599854 1.0148315l-4.573242 -2.6414185q-0.5276489 -0.30477905 -0.79522705 -0.27886963q-0.2732544 0.0045776367 -0.46081543 0.3293152l-0.046875 0.08117676q-0.21875 0.37887573 -0.08251953 0.6741028q0.1305542 0.27389526 0.39331055 0.44369507l4.776245 2.7586365l-0.58599854 1.0148315l-6.345703 -3.6651306l0.5546875 -0.9607239zm11.373779 -5.04245q-0.64849854 1.1231079 -1.4267578 1.3772888q-0.7705078 0.24066162 -1.8529053 -0.38452148l-2.286621 -1.3207092q-1.0959473 -0.6329956 -1.2825317 -1.3722839q-0.20007324 -0.74710083 0.4249878 -1.8295898l0.34381104 -0.59539795q0.5234375 -0.9065857 1.2897339 -1.0774841q0.7662964 -0.17089844 1.7269287 0.38394165l1.6506958 0.95339966l-1.9454956 3.3692627l0.9606323 0.5548706q0.39239502 0.22662354 0.7495117 0.10809326q0.3571167 -0.11853027 0.6227417 -0.57858276l1.1642456 -2.0161438l0.9470825 0.5470276l-1.0860596 1.8808289zm-3.9085083 -3.917511q-0.33825684 -0.19537354 -0.67974854 -0.10391235q-0.3414917 0.09146118 -0.53686523 0.42971802l-0.42193604 0.7306824q-0.265625 0.460083 -0.1585083 0.77453613q0.101379395 0.29315186 0.5072632 0.5275879l0.8930054 0.5157776l1.3438721 -2.327362l-0.9470825 -0.5470276zm6.2470703 -2.3196716l-4.451477 -2.5710754l-0.53131104 0.9201355l-0.9470825 -0.5470276l1.1173096 -1.934967l0.33825684 0.19537354q-0.096069336 -0.61483765 0.2477417 -1.2102051l0.75787354 -1.3125305l1.0147705 0.5861206l-0.82818604 1.4342957q-0.23443604 0.40594482 -0.09454346 0.75738525q0.13989258 0.35144043 0.40264893 0.52127075l3.59906 2.0787354l0.7969971 -1.380188l0.9470825 0.5470581l-1.9533081 3.382782l-0.94714355 -0.5470276l0.53131104 -0.9201355zm8.671692 -10.049469l0.94714355 0.5470276l-3.6956787 6.400238l-0.94714355 -0.5470276l3.6956787 -6.400238zm0.86260986 -4.274811q-0.64849854 1.1230774 -1.4267578 1.3772888q-0.7705078 0.24066162 -1.8529053 -0.38452148l-2.286621 -1.3207092q-1.0959473 -0.6329956 -1.2825317 -1.3722839q-0.20007324 -0.74713135 0.4249878 -1.8296204l0.34381104 -0.59536743q0.5234375 -0.9065857 1.2897339 -1.0774841q0.7662964 -0.17092896 1.7269287 0.38391113l1.6506958 0.9534302l-1.9454956 3.3692627l0.9606323 0.5548401q0.39239502 0.22662354 0.7495117 0.10809326q0.3571167 -0.118499756 0.6227417 -0.57858276l1.1642456 -2.0161438l0.9470825 0.5470581l-1.0860596 1.8808289zm-3.9085083 -3.9175415q-0.33825684 -0.19537354 -0.67974854 -0.10391235q-0.3414917 0.09146118 -0.53686523 0.42974854l-0.42193604 0.7306824q-0.265625 0.4600525 -0.1585083 0.77453613q0.101379395 0.29312134 0.5072632 0.5275574l0.8930054 0.5157776l1.3438721 -2.327362l-0.9470825 -0.5470276zm7.0926514 -1.5967102l-0.6876221 1.1907349l-2.133545 -3.8667297l-4.1262207 0.052764893l0.7266846 -1.2584229l2.83313 0.03048706l-1.4267578 -2.466095l0.67974854 -1.1772156l1.9468384 3.5964966l4.5004883 -0.10723877l-0.7344971 1.2719421l-3.168335 -0.043640137l1.5900879 2.7769165zm-2.3256226 -10.627228l0.31121826 0.17974854q-0.08459473 -0.57214355 0.27478027 -1.1945801l0.25787354 -0.4465332q0.64849854 -1.1230774 1.4189453 -1.363739q0.7782593 -0.25421143 1.8607178 0.37097168l2.286621 1.3207092q1.0689087 0.6173706 1.2512817 1.4264221q0.16882324 0.801239 -0.4718628 1.9107971l-0.8126221 1.4072266l2.1513672 1.2425537l-0.61724854 1.0689697l-8.49707 -4.9076843l0.58599854 -1.0148621zm1.4550171 -0.332489q-0.24224854 0.4194641 -0.12939453 0.75531006q0.099243164 0.32800293 0.35632324 0.47647095l3.7479248 2.1647034l0.89068604 -1.5425415q0.27349854 -0.4736023 0.18981934 -0.8286743q-0.075805664 -0.3685913 -0.46820068 -0.59521484l-2.8007812 -1.6176758q-0.39239502 -0.22662354 -0.7495117 -0.10809326q-0.3493042 0.10498047 -0.62280273 0.57858276l-0.4140625 0.71713257zm1.0527954 -9.884888l1.1500854 0.6642761l-0.6954346 1.2042847l-1.1500244 -0.6642761l0.69537354 -1.2042847zm1.7562256 5.0201416l-0.9470825 -0.5470276l1.7033081 -2.9497986l5.3985596 3.1181335l1.0782471 -1.8673096l0.94714355 0.5470276l-1.7033081 2.9497986l-5.3986206 -3.118103l-1.0782471 1.867279zm9.088867 -5.459961l-4.451477 -2.5710754l-0.53131104 0.9201355l-0.9470825 -0.5470276l1.1173096 -1.934967l0.33825684 0.19537354q-0.096069336 -0.61483765 0.2477417 -1.2102051l0.75787354 -1.3125305l1.0147705 0.5861206l-0.82818604 1.4342957q-0.23443604 0.40594482 -0.09454346 0.75738525q0.13989258 0.35144043 0.40264893 0.52127075l3.59906 2.0787354l0.7969971 -1.3801575l0.9470825 0.5470276l-1.9533081 3.382782l-0.94714355 -0.5470276l0.53131104 -0.9201355zm5.576721 -7.470459q-0.64849854 1.1230774 -1.4268188 1.3772888q-0.7704468 0.24066162 -1.8529053 -0.38452148l-2.286621 -1.3207092q-1.0959473 -0.6329956 -1.2824707 -1.3722839q-0.20013428 -0.74713135 0.42492676 -1.8296204l0.34381104 -0.59536743q0.52349854 -0.9065857 1.2897949 -1.0774841q0.76623535 -0.17092896 1.7268677 0.38394165l1.6507568 0.95339966l-1.9455566 3.3692627l0.9606323 0.5548401q0.39239502 0.22662354 0.7495117 0.10812378q0.3571167 -0.11853027 0.62280273 -0.57858276l1.1641846 -2.0161438l0.94714355 0.5470276l-1.0860596 1.8808289zm-3.9085693 -3.9175415q-0.33825684 -0.19537354 -0.67974854 -0.10391235q-0.3414917 0.09146118 -0.5368042 0.42974854l-0.42193604 0.7306824q-0.26568604 0.4600525 -0.15856934 0.77453613q0.101379395 0.29312134 0.5073242 0.5275879l0.89294434 0.5157776l1.3439331 -2.327362l-0.94714355 -0.5470581zm8.3811035 -4.515442q0.055419922 0.5913696 -0.28833008 1.1867676l-0.30474854 0.52770996q-0.64068604 1.1095581 -1.4189453 1.363739q-0.7705078 0.24066162 -1.8529053 -0.38452148l-2.286621 -1.3207092q-1.0689087 -0.6173706 -1.2377319 -1.4185791q-0.18237305 -0.8090515 0.4505005 -1.9050903l0.8516846 -1.474884l-2.5437012 -1.4692078l0.62506104 -1.082489l8.889404 5.1343384l-0.58599854 1.0148315l-0.29766846 -0.17190552zm-1.1651611 0.51794434q0.24224854 -0.4194641 0.14294434 -0.74746704q-0.11279297 -0.33581543 -0.36987305 -0.48431396l-3.7479248 -2.1647034l-0.92193604 1.5966797q-0.27349854 0.4736023 -0.19763184 0.8421936q0.083618164 0.35507202 0.47601318 0.58169556l2.8007812 1.6176758q0.39239502 0.22662354 0.7416992 0.12161255q0.3571167 -0.118499756 0.6305542 -0.59210205l0.44537354 -0.77127075z" fill-rule="nonzero"/><path fill="#000000" fill-opacity="0.0" d="m700.7952 166.5077l157.25989 157.25984l-28.661438 28.661407l-157.25983 -157.25983z" fill-rule="evenodd"/><path fill="#000000" d="m701.3353 185.17001l-5.104431 5.104431l-0.88391113 -0.8838806l5.104431 -5.104431l0.88391113 0.8838806zm-6.1430054 6.2976837l-1.0385742 1.038559l-1.0385742 -1.038559l1.0385742 -1.0385742l1.0385742 1.0385742zm3.9832153 6.060364q-0.9169922 -0.91703796 -0.96118164 -1.7346344q-0.03314209 -0.8065338 0.850708 -1.6904144l1.8671875 -1.867218q0.8949585 -0.894928 1.6572876 -0.8838806q0.7734375 0 1.6572876 0.8838806l0.48614502 0.48614502q0.7402344 0.74024963 0.7070923 1.524704q-0.03314209 0.7844391 -0.8175659 1.5688934l-1.3479614 1.3479156l-2.7510376 -2.7510834l-0.78448486 0.7844391q-0.32037354 0.32040405 -0.2982788 0.6960602q0.022094727 0.37565613 0.39770508 0.751297l1.6462402 1.6462402l-0.77337646 0.7733917l-1.5357666 -1.5357361zm4.795105 -2.762146q0.27618408 -0.2762146 0.27618408 -0.62976074q0 -0.3535614 -0.27618408 -0.629776l-0.59661865 -0.59661865q-0.3756714 -0.37564087 -0.7071533 -0.35354614q-0.30932617 0.022094727 -0.6408081 0.35354614l-0.729187 0.7292023l1.9003296 1.9003601l0.7734375 -0.773407zm4.4693604 1.6630402l-0.24310303 0.24307251q0.50823975 0.022094727 0.88391113 0.39775085l0.055236816 0.055236816q0.729187 0.7292023 0.607666 1.4473572q0.76239014 -0.07733154 1.3258667 0.48614502l0.06628418 0.06628418q0.62976074 0.629776 0.607666 1.2484894q-0.022094727 0.6187134 -0.8397217 1.4363098l-3.7233276 3.7233582l-0.8286743 -0.8286438l3.734436 -3.7344055q0.41986084 -0.41984558 0.49719238 -0.67396545q0.07733154 -0.2541046 -0.23205566 -0.5634613l-0.06628418 -0.06629944q-0.30932617 -0.3093567 -0.6408081 -0.22097778q-0.32043457 0.09944153 -0.59661865 0.3535614l-3.8007202 3.800705l-0.8286133 -0.8286438l3.734375 -3.7344055q0.4309082 -0.43089294 0.47509766 -0.6960602q0.06628418 -0.26516724 -0.19885254 -0.5303345l-0.06628418 -0.06628418q-0.3093872 -0.30937195 -0.62976074 -0.25411987q-0.29833984 0.055236816 -0.5303345 0.26516724l-3.9001465 3.9001312l-0.8286743 -0.8286438l5.1818237 -5.1817627l0.7844238 0.7844391zm6.104553 6.1045685l-0.25408936 0.2541046q0.5745239 0.06629944 1.0827026 0.5745239l0.36462402 0.36460876q0.9170532 0.9170227 0.9501953 1.7235718q0.044189453 0.81759644 -0.8397217 1.701477l-1.8671875 1.8672028q-0.87286377 0.87283325 -1.701477 0.83969116q-0.8175659 -0.044189453 -1.7235718 -0.95018005l-1.1490479 -1.1490479l-1.7567139 1.7567291l-0.87286377 -0.8728485l6.9385376 -6.9384766l0.8286133 0.8286438zm-0.055236816 1.4915466q-0.3425293 -0.34249878 -0.6960449 -0.32040405q-0.3425293 0.011047363 -0.5524292 0.22096252l-3.0604858 3.0604553l1.2595825 1.2595367q0.3866577 0.38668823 0.75128174 0.3977356q0.3756714 0.022109985 0.6960449 -0.29830933l2.2870483 -2.2870483q0.32043457 -0.32040405 0.29833984 -0.6960602q-0.011047363 -0.3645935 -0.3977661 -0.751297l-0.5855713 -0.5855713zm1.9171753 10.733902q-0.5303345 -0.5303345 -0.47509766 -1.1600952q0.06628418 -0.61872864 0.62976074 -1.1822052l3.159851 -3.1598816l-0.98327637 -0.98332214l0.77337646 -0.7733917l0.9833374 0.98332214l1.2484741 -1.2484894l0.88391113 0.8838806l-1.2485352 1.2484894l1.5136719 1.5136566l-0.77337646 0.7733917l-1.5136719 -1.5136566l-3.215149 3.2151337q-0.23199463 0.23202515 -0.22094727 0.4419403q0.03314209 0.20993042 0.26513672 0.4419403l1.0496216 1.0496216l-0.77337646 0.7733917l-1.3037109 -1.3037262zm3.2982178 5.264862q0.24304199 0.24307251 0.4640503 0.26516724q0.22094727 0.044189453 0.49713135 -0.121536255l0.72924805 -0.41984558l-0.20996094 -0.20991516l3.4692383 -6.894287l0.9501953 0.9501648l-3.03833 5.645813l5.468994 -3.2151337l0.8949585 0.894928l-7.34729 4.1432037q-0.65185547 0.3867035 -1.1048584 0.44195557q-0.4640503 0.06628418 -0.7844238 -0.09944153q-0.32043457 -0.16572571 -0.7070923 -0.5524292l-0.49719238 -0.49717712l0.77337646 -0.773407l0.44195557 0.4419403z" fill-rule="nonzero"/><path fill="#000000" fill-opacity="0.0" d="m294.37296 244.16824l219.49606 -35.590546l6.48822 40.0l-219.4961 35.590546z" fill-rule="evenodd"/><path fill="#000000" d="m313.13208 262.1336q0.19763184 1.2184448 -0.31381226 1.8712158q-0.51397705 0.6373596 -1.7786865 0.84243774l-2.8225098 0.4576416l-1.6436768 -10.133179l1.2184753 -0.1975708l0.5178528 3.1926575q0.38433838 -0.36306763 1.0475464 -0.47061157l0.50897217 -0.08251953q1.2801514 -0.20758057 1.9538269 0.23721313q0.6890564 0.44226074 0.8892212 1.6761475l0.42279053 2.6065674zm-3.7539368 -3.3327637q-0.4781189 0.077545166 -0.66693115 0.37722778q-0.19134521 0.28430176 -0.14379883 0.57736206l0.69299316 4.272278l1.7582703 -0.2850952q0.53982544 -0.08755493 0.7619934 -0.37683105q0.23760986 -0.29177856 0.16503906 -0.7390747l-0.5178528 -3.1926575q-0.07254028 -0.44726562 -0.39019775 -0.64901733q-0.30221558 -0.20425415 -0.842041 -0.11672974l-0.81747437 0.13253784zm8.21579 6.3924255q0.33932495 -0.055023193 0.4864502 -0.221344q0.16506958 -0.15338135 0.19216919 -0.47436523l0.08581543 -0.83703613l-0.2930298 0.04751587l-3.5639648 -6.8459473l1.326416 -0.21505737l2.8031616 5.7662964l0.59002686 -6.316498l1.2492981 -0.20257568l-0.93551636 8.3828125q-0.067474365 0.75491333 -0.28756714 1.1546631q-0.21759033 0.41519165 -0.5393982 0.5781555q-0.32180786 0.16299438 -0.8616333 0.2505188l-0.6940613 0.11254883l-0.17510986 -1.0796509l0.61694336 -0.10003662zm9.42511 -2.9370422q-0.7403259 0.12005615 -1.2189026 -0.2930603q-0.46313477 -0.41558838 -0.59072876 -1.202179l-0.71551514 -4.4111023l-1.3726807 0.2225647l-0.17514038 -1.0796356l1.3727112 -0.22257996l-0.28268433 -1.7428436l1.2338562 -0.20007324l0.28271484 1.7428436l2.113037 -0.3426056l0.17510986 1.0796356l-2.113037 0.34262085l0.72802734 4.48822q0.052520752 0.32388306 0.22927856 0.4376831q0.18966675 0.09588623 0.5135803 0.04336548l1.4652405 -0.23757935l0.17510986 1.0796204l-1.8199768 0.29510498zm7.1954346 -1.1667175q-1.2801819 0.20758057 -1.9692383 -0.2347107q-0.67367554 -0.44476318 -0.8738098 -1.6786499l-0.42279053 -2.6065674q-0.20263672 -1.2492828 0.2521057 -1.8612213q0.4522705 -0.62734985 1.6861572 -0.82740784l0.6786499 -0.11004639q1.0333557 -0.16755676 1.6503296 0.31808472q0.6169739 0.48562622 0.7945862 1.5806885l0.30523682 1.8816528l-3.8404846 0.6227417l0.17764282 1.0950623q0.07254028 0.44726562 0.39019775 0.64901733q0.31765747 0.20178223 0.842041 0.11672974l2.2981262 -0.37261963l0.17510986 1.0796509l-2.1438599 0.3475952zm0.5633545 -5.504883q-0.06253052 -0.38557434 -0.34933472 -0.5923462q-0.2868042 -0.20675659 -0.6723938 -0.14422607l-0.83288574 0.13504028q-0.52441406 0.08502197 -0.7003174 0.3668213q-0.16296387 0.26385498 -0.08792114 0.7265625l0.16513062 1.0179443l2.652832 -0.43014526l-0.17510986 -1.0796509zm11.204163 5.005615l0.17510986 1.0796509l-7.295349 1.1828918l-0.17510986 -1.0796204l7.295349 -1.1829224zm3.8572083 -2.0342102q-1.2801514 0.20758057 -1.9692383 -0.2347107q-0.67367554 -0.4447937 -0.8738098 -1.6786804l-0.42279053 -2.6065521q-0.20263672 -1.2492981 0.25213623 -1.8612213q0.45224 -0.62734985 1.6861267 -0.8274231l0.6786499 -0.11003113q1.0333862 -0.16755676 1.6503296 0.31806946q0.6169739 0.48564148 0.7945862 1.5807037l0.30523682 1.8816528l-3.8404846 0.62272644l0.17764282 1.0950623q0.07254028 0.44726562 0.39019775 0.64904785q0.31765747 0.20175171 0.842041 0.11672974l2.2981262 -0.37265015l0.17510986 1.0796509l-2.1438599 0.34762573zm0.5633545 -5.504898q-0.06253052 -0.3855896 -0.34933472 -0.5923462q-0.2868042 -0.20675659 -0.6723938 -0.14424133l-0.83288574 0.13505554q-0.52438354 0.08502197 -0.70028687 0.36680603q-0.16299438 0.26387024 -0.08795166 0.72657776l0.16513062 1.0179443l2.6528625 -0.43016052l-0.17514038 -1.0796356zm4.6721497 -2.767868l0.057525635 0.3547516q0.38974 -0.4272766 1.0992126 -0.5423126l0.6632385 -0.107543945q1.1721802 -0.19006348 1.8329163 0.27264404q0.65823364 0.44729614 0.8558655 1.665741l0.7980652 4.9200745l-1.2338867 0.20007324l-0.84558105 -5.2131195q-0.07006836 -0.43185425 -0.37228394 -0.6361084q-0.28930664 -0.22218323 -0.7211609 -0.15216064l-0.9562683 0.15504456q-0.4781189 0.07752991 -0.66696167 0.37724304q-0.1913147 0.2842865 -0.14379883 0.57733154l0.86813354 5.3519135l-1.2184753 0.1975708l-1.1733093 -7.2335663l1.1567688 -0.1875763zm19.968353 -2.4938354l0.17510986 1.0796509l-5.4907837 0.89030457l-0.17510986 -1.0796356l5.4907837 -0.8903198zm0.46783447 2.8841858l0.1776123 1.0950623l-5.4907837 0.89030457l-0.1776123 -1.0950623l5.4907837 -0.89030457zm7.3445435 -4.1509247l0.17510986 1.0796356l-5.4907837 0.89030457l-0.17514038 -1.0796356l5.490814 -0.89030457zm0.46780396 2.8841705l0.17764282 1.0950623l-5.4907837 0.8903198l-0.17764282 -1.0950623l5.4907837 -0.8903198zm11.342194 -7.1734924l-0.21264648 -1.3109894l1.3727112 -0.22257996l0.21264648 1.3109894l0.09011841 2.3122559l-0.8020325 0.13005066l-0.6607971 -2.2197266zm9.376709 6.4257965l-1.2833862 -7.912216l-1.9133301 1.0858612l-0.19012451 -1.1721802l1.7795105 -1.0325165l1.3727112 -0.2225647l1.4685059 9.053543l1.5732117 -0.25509644l0.17510986 1.0796509l-4.7041626 0.76275635l-0.17514038 -1.0796356l1.8970947 -0.30760193z" fill-rule="nonzero"/><path fill="#000000" fill-opacity="0.0" d="m386.13965 430.23914l219.77954 -33.95276l6.204712 40.06299l-219.77954 33.95276z" fill-rule="evenodd"/><path fill="#000000" d="m404.40167 448.9219q0.14108276 0.91101074 -0.34545898 1.4446716q-0.48654175 0.5336609 -1.5520325 0.6982727l-2.1618652 0.33395386l-0.16738892 -1.0808411l2.3162537 -0.35784912q0.38604736 -0.059631348 0.56048584 -0.26049805q0.17443848 -0.2008667 0.12423706 -0.52511597l-0.1171875 -0.7565918q-0.10043335 -0.64852905 -0.71810913 -0.5531006l-0.5404663 0.083496094q-1.019165 0.15744019 -1.5826416 -0.21401978q-0.5635071 -0.37142944 -0.7117615 -1.3287659l-0.064575195 -0.41693115q-0.15066528 -0.9727783 0.32525635 -1.473175q0.48892212 -0.518219 1.5544128 -0.6828308l1.9456787 -0.30056763l0.16738892 1.0808716l-2.0846252 0.322052q-0.35516357 0.054870605 -0.56048584 0.26049805q-0.18988037 0.20324707 -0.13967896 0.52749634l0.07891846 0.509552q0.052612305 0.33969116 0.2796631 0.47854614q0.22467041 0.12338257 0.5180664 0.078063965l0.4941101 -0.07632446q0.97283936 -0.15029907 1.5565491 0.24963379q0.58132935 0.38452148 0.724823 1.3109741l0.10043335 0.64852905zm4.3206177 0.07559204l-0.7867737 -5.0800476l-1.0500183 0.16220093l-0.16741943 -1.0808411l2.208191 -0.341156l0.059783936 0.38604736q0.4189148 -0.45999146 1.0983582 -0.5649414l1.4978333 -0.2314148l0.17938232 1.158081l-1.6368408 0.25286865q-0.46325684 0.07156372 -0.6494446 0.40072632q-0.18618774 0.3291626 -0.1538086 0.64035034l0.6361084 4.1073l1.5750732 -0.24331665l0.16738892 1.0808411l-3.860443 0.596405l-0.16741943 -1.0808716l1.0500488 -0.16223145zm11.5252075 -0.6737366q-0.18530273 0.028625488 -0.4336853 -0.043670654q-0.23532104 -0.090148926 -0.42080688 -0.2670288q-0.2727661 0.48483276 -0.8286743 0.5707092l-1.2816772 0.19799805q-1.0963745 0.16937256 -1.6729126 -0.18423462q-0.56347656 -0.37145996 -0.7308655 -1.4523315l-0.043060303 -0.27792358q-0.3491516 -2.254364 1.7663879 -2.5811768l1.7912598 -0.2767334l-0.11239624 -0.7257385q-0.069366455 -0.44778442 -0.3855896 -0.651886q-0.31619263 -0.20413208 -0.84121704 -0.12301636l-2.2545166 0.34829712l-0.16738892 -1.0808716l2.1000977 -0.32443237q1.2662048 -0.19561768 1.9545288 0.26724243q0.6859436 0.4473877 0.8748474 1.6672058l0.53808594 3.4742126q0.033477783 0.21618652 0.20462036 0.30041504q0.18661499 0.081848145 0.58810425 0.019805908l0.15783691 1.019104l-0.8029785 0.124053955zm-1.9895325 -0.79937744q0.43237305 -0.06680298 0.5093689 -0.2842102q0.09005737 -0.23526001 0.042236328 -0.5440979l-0.24633789 -1.5903931l-1.8066711 0.27908325q-0.38604736 0.059661865 -0.59487915 0.34487915q-0.19573975 0.26739502 -0.13595581 0.65341187l0.11239624 0.7257385q0.057403564 0.37057495 0.25595093 0.52963257q0.19616699 0.1435852 0.56677246 0.08633423l1.2971191 -0.20037842zm4.3658447 -6.982788l0.052612305 0.33969116q0.31799316 -0.39694214 0.8430176 -0.47805786l0.07720947 -0.011932373q1.019165 -0.15744019 1.5269775 0.36489868q0.38781738 -0.66070557 1.175354 -0.78234863l0.09265137 -0.014312744q0.880188 -0.13598633 1.3664551 0.24737549q0.4862976 0.38339233 0.6632385 1.5260315l0.8059082 5.203583l-1.1581421 0.17889404l-0.8082886 -5.2190247q-0.09088135 -0.58673096 -0.25027466 -0.7992859q-0.15939331 -0.21252441 -0.59176636 -0.14572144l-0.09265137 0.014312744q-0.43237305 0.06680298 -0.5567932 0.38641357q-0.10897827 0.31723022 -0.06704712 0.69018555l0.82266235 5.311676l-1.1581421 0.17892456l-0.8082886 -5.2190247q-0.09329224 -0.60220337 -0.28118896 -0.79452515q-0.1748352 -0.21014404 -0.5454407 -0.15289307l-0.09265137 0.014312744q-0.43237305 0.06680298 -0.57702637 0.35794067q-0.1315918 0.2732849 -0.09921265 0.5845032l0.84417725 5.4506226l-1.1581421 0.17892456l-1.1215515 -7.241791l1.096344 -0.16937256zm15.008484 6.5035706l0.16738892 1.0808716l-7.3039856 1.1283569l-0.16738892 -1.0808716l7.3039856 -1.1283569zm6.8847046 -1.9489441q0.15307617 0.9882202 -0.35958862 1.5575256q-0.5126648 0.5693054 -1.7634583 0.7625427l-3.011139 0.46517944l-0.16741943 -1.0808716l3.1655884 -0.48901367q0.5250244 -0.08111572 0.7409973 -0.32000732q0.2314148 -0.24130249 0.18121338 -0.56555176l-0.071746826 -0.46322632q-0.050231934 -0.3242798 -0.34381104 -0.48443604q-0.27816772 -0.16256714 -0.80319214 -0.081451416l-2.5015564 0.3864441l-0.3085022 -1.9918823q-0.51934814 -0.1885376 -0.82751465 -0.6468506q-0.308136 -0.4583435 -0.42770386 -1.2303772l-0.057403564 -0.37057495q-0.18890381 -1.2198486 0.31417847 -1.8509216q0.5161438 -0.6489258 1.7823792 -0.84454346l3.0420227 -0.4699402l0.41610718 2.6867065q0.16738892 1.0808716 -0.33917236 1.791565q-0.4911499 0.7082825 -1.4794312 0.8609619l-1.1581116 0.17889404l0.09564209 0.61764526l1.1272583 -0.1741333q1.2507935 -0.1932373 1.914093 0.21020508q0.6609192 0.388031 0.81396484 1.3762512l0.026306152 0.16986084zm-2.988922 -3.4750366q0.44781494 -0.06918335 0.63638306 -0.38290405q0.18618774 -0.3291626 0.16687012 -0.6582031l-0.29891968 -1.9301147l-1.9456787 0.30059814q-0.5404663 0.083496094 -0.78015137 0.37347412q-0.23968506 0.29000854 -0.17034912 0.73779297l0.14587402 0.94189453q0.069366455 0.44778442 0.38555908 0.651886q0.31622314 0.20413208 0.85668945 0.12063599l1.0037231 -0.15505981zm5.2709045 -4.8143005l0.055023193 0.35513306q0.39279175 -0.4243164 1.1031189 -0.5340576l0.66400146 -0.10256958q1.173584 -0.18130493 1.8310242 0.28631592q0.6550293 0.45214844 0.8439636 1.6719971l0.7628479 4.9256287l-1.2353516 0.19085693l-0.8082886 -5.2190247q-0.06695557 -0.43234253 -0.36773682 -0.638855q-0.28771973 -0.22433472 -0.7200928 -0.15753174l-0.95739746 0.1479187q-0.4786682 0.07394409 -0.6696472 0.3722229q-0.19335938 0.2828369 -0.14794922 0.5762024l0.829834 5.3580017l-1.2199097 0.18844604l-1.1215515 -7.2417603l1.1581116 -0.17892456zm10.966064 5.7209473q-0.74121094 0.11450195 -1.2168274 -0.30212402q-0.46017456 -0.41903687 -0.5821228 -1.2065125l-0.68395996 -4.416107l-1.3743286 0.21231079l-0.16738892 -1.0808716l1.3743286 -0.21231079l-0.27023315 -1.744812l1.2353516 -0.19085693l0.27023315 1.744812l2.115509 -0.32681274l0.16741943 1.0808716l-2.1155396 0.32681274l0.69589233 4.4933167q0.050231934 0.32424927 0.22616577 0.43936157q0.18899536 0.09729004 0.51327515 0.047210693l1.46698 -0.22665405l0.16738892 1.0808716l-1.8221436 0.28149414z" fill-rule="nonzero"/><path fill="#000000" fill-opacity="0.0" d="m165.64844 327.0231l168.56693 145.03937l-26.425201 30.740173l-168.56693 -145.03937z" fill-rule="evenodd"/><path fill="#000000" d="m163.3073 353.04456q-0.60095215 0.6990967 -1.3227234 0.6758423q-0.72177124 -0.023284912 -1.5390167 -0.72647095l-1.6581726 -1.4267273l0.7129822 -0.82940674l1.7766266 1.528656q0.29611206 0.25476074 0.56211853 0.25689697q0.26602173 0.002166748 0.47991943 -0.24667358l0.49908447 -0.5805969q0.4277954 -0.49765015 -0.045959473 -0.90527344l-0.41455078 -0.35668945q-0.78170776 -0.6726074 -0.8653412 -1.3423462q-0.08363342 -0.66970825 0.5478821 -1.4043579l0.27500916 -0.31991577q0.6416931 -0.74645996 1.3312378 -0.7096863q0.7115936 0.035095215 1.5288391 0.73828125l1.4923706 1.2840576l-0.71299744 0.82943726l-1.5989685 -1.3757935q-0.27241516 -0.23440552 -0.56211853 -0.2569275q-0.2778473 -0.012329102 -0.491745 0.23648071l-0.33613586 0.39102173q-0.22407532 0.26068115 -0.18214417 0.52349854q0.052108765 0.25097656 0.27716064 0.44458008l0.37901306 0.32614136q0.74617004 0.6420288 0.8212738 1.3456421q0.08529663 0.69177246 -0.5258484 1.4026794l-0.4277954 0.49765015zm2.7490692 3.3341675l3.351059 -3.8982544l-0.80540466 -0.69299316l0.71299744 -0.82940674l1.6937103 1.4573059l-0.25463867 0.29623413q0.6218109 0.019683838 1.1429443 0.46810913l1.1488953 0.9885254l-0.7639313 0.88864136l-1.2554779 -1.0802307q-0.35531616 -0.3057251 -0.7265167 -0.23345947q-0.3711853 0.07223511 -0.58673096 0.29904175l-2.709381 3.151764l1.2081146 1.0394897l-0.71299744 0.82940674l-2.9610443 -2.5477295l0.71299744 -0.82943726l0.80540466 0.69299316zm7.9986267 8.325134q-0.14212036 -0.122283936 -0.24848938 -0.35809326q-0.08433533 -0.2374878 -0.07035828 -0.4934082q-0.54577637 0.107543945 -0.9721527 -0.25930786l-0.983078 -0.8458557q-0.8409271 -0.7235718 -0.94659424 -1.3916321q-0.083618164 -0.66973877 0.629364 -1.4991455l0.18334961 -0.21328735q1.4870911 -1.7299194 3.1097412 -0.33377075l1.3739166 1.1821594l0.47872925 -0.55688477q0.29537964 -0.34362793 0.24516296 -0.7166443q-0.050231934 -0.37301636 -0.45292664 -0.71951294l-1.729248 -1.4878845l0.7129822 -0.82940674l1.6108093 1.3859863q0.9712219 0.83566284 1.0664673 1.659668q0.10542297 0.8121338 -0.69924927 1.7481995l-2.291748 2.665985q-0.14260864 0.16589355 -0.095458984 0.35073853q0.05899048 0.19503784 0.3669281 0.45999146l-0.6722412 0.78204346l-0.61590576 -0.52993774zm-0.6846161 -2.031952q0.33163452 0.28533936 0.54696655 0.20263672q0.23735046 -0.084350586 0.4410553 -0.32131958l1.049118 -1.2204285l-1.3857574 -1.1923523q-0.29611206 -0.25476074 -0.6485901 -0.22824097q-0.33044434 0.024871826 -0.585083 0.32107544l-0.47872925 0.55688477q-0.2444458 0.2843933 -0.23638916 0.5386658q0.018249512 0.24243164 0.3025055 0.48703003l0.99490356 0.8560486zm8.144623 -1.2166443l-0.22409058 0.26065063q0.50834656 -0.016082764 0.9110565 0.33041382l0.05921936 0.050964355q0.78170776 0.6726074 0.714447 1.3980103q0.7542267 -0.13433838 1.3582764 0.3854065l0.07106018 0.061157227q0.6751251 0.5808716 0.6995239 1.199646q0.024414062 0.6187744 -0.72932434 1.4956055l-3.432541 3.993042l-0.8883209 -0.76434326l3.4427338 -4.004883q0.38705444 -0.45025635 0.44508362 -0.7095337q0.058044434 -0.25924683 -0.27360535 -0.5445862l-0.07106018 -0.061157227q-0.33163452 -0.28533936 -0.6554413 -0.17233276q-0.31196594 0.12322998 -0.5682678 0.3973999l-3.5038452 4.075989l-0.8883209 -0.76431274l3.4427338 -4.0049133q0.3972473 -0.46209717 0.42140198 -0.7298889q0.046188354 -0.2694397 -0.23806763 -0.5140381l-0.07107544 -0.06112671q-0.33163452 -0.28536987 -0.6469116 -0.20620728q-0.29325867 0.07745361 -0.5088196 0.30426025l-3.59552 4.182617l-0.88830566 -0.76431274l4.7770386 -5.5570984l0.8409424 0.7235718zm4.8046875 15.635986l-0.71299744 0.82940674l-5.6022797 -4.820343l0.7129822 -0.82940674l5.602295 4.820343zm3.7339478 -0.06463623l3.351059 -3.8982544l-0.80540466 -0.69299316l0.71299744 -0.82943726l1.6937103 1.4573364l-0.25463867 0.2962036q0.6218109 0.019714355 1.1429443 0.46810913l1.14888 0.9885254l-0.763916 0.8886719l-1.2554779 -1.0802612q-0.35533142 -0.3057251 -0.7265167 -0.23345947q-0.3711853 0.072265625 -0.5867462 0.29904175l-2.7093658 3.1517944l1.2080994 1.0394897l-0.7129822 0.82940674l-2.9610443 -2.54776l0.71299744 -0.82940674l0.80540466 0.69299316zm8.855255 -0.6051941l1.0186005 0.8764343l-2.8121185 5.9079285l5.3822937 -3.6965027l0.983078 0.8458557l-6.376007 4.181305l-1.3620911 -1.1719666l3.1662445 -6.943054zm5.142685 14.092285q-0.14212036 -0.12231445 -0.24848938 -0.35812378q-0.08433533 -0.23745728 -0.07035828 -0.4934082q-0.54577637 0.10757446 -0.97216797 -0.25930786l-0.98306274 -0.8458557q-0.8409271 -0.72354126 -0.94659424 -1.3916321q-0.08363342 -0.66970825 0.629364 -1.4991455l0.18334961 -0.21325684q1.4870911 -1.72995 3.1097412 -0.33377075l1.3739166 1.1821594l0.47872925 -0.55688477q0.29537964 -0.34362793 0.2451477 -0.7166443q-0.050216675 -0.37301636 -0.45292664 -0.71951294l-1.7292328 -1.4878845l0.7129822 -0.82940674l1.6108093 1.3859558q0.9712219 0.83566284 1.066452 1.659668q0.10543823 0.8121643 -0.699234 1.74823l-2.2917633 2.665985q-0.14259338 0.16586304 -0.095443726 0.35073853q0.05897522 0.19503784 0.3669281 0.45999146l-0.67225647 0.78201294l-0.6158905 -0.5299072zm-0.6846161 -2.031952q0.33163452 0.28533936 0.5469513 0.20263672q0.23736572 -0.084350586 0.44107056 -0.32131958l1.049118 -1.2204285l-1.3857727 -1.1923523q-0.2960968 -0.25479126 -0.6485748 -0.22827148q-0.33044434 0.024871826 -0.585083 0.32110596l-0.47872925 0.55688477q-0.2444458 0.2843628 -0.23638916 0.5386658q0.018234253 0.24243164 0.3025055 0.48703003l0.99490356 0.8560486zm5.40477 6.093292q-0.37901306 -0.32611084 -0.43919373 -0.8313904q-0.038146973 -0.506897 0.46095276 -1.0874939l5.011307 -5.8296204l-1.634491 -1.4063721l0.72317505 -0.84124756l2.5701904 2.2114563l-5.693756 6.623474q-0.15278625 0.17773438 -0.14117432 0.33200073q0.03364563 0.15261841 0.24684143 0.33605957l1.4805145 1.2738953l-0.71299744 0.82940674l-1.8713684 -1.6101685zm12.857071 -2.4800415l-0.8657837 1.0071411l-1.0541229 -0.9069824l0.8657837 -1.0071411l1.0541229 0.9069824zm-5.2572937 0.7945862l0.71299744 -0.82940674l2.5820312 2.2216492l-4.0640564 4.727661l1.634491 1.4063721l-0.71299744 0.82940674l-2.582016 -2.2216492l4.0640564 -4.727661l-1.6345062 -1.4063721zm5.4401855 12.451874q-0.5912628 -0.055236816 -1.1123962 -0.5036316l-0.46192932 -0.39746094q-0.9712219 -0.83566284 -1.0766449 -1.6478271q-0.09358215 -0.80197144 0.7212677 -1.7498779l1.7213745 -2.0024414q0.804657 -0.93603516 1.6230774 -0.9533081q0.828598 -0.02911377 1.7879791 0.7963562l1.2910156 1.1108398l1.9148865 -2.2276l0.9475403 0.8153076l-6.6919556 7.784668l-0.88830566 -0.76434326l0.22409058 -0.26068115zm-0.29281616 -1.241333q0.36717224 0.31591797 0.70780945 0.27920532q0.35081482 -0.048583984 0.54434204 -0.27371216l2.8214111 -3.2821045l-1.3976135 -1.2025452q-0.41453552 -0.35668945 -0.79071045 -0.3505249q-0.36431885 0.016326904 -0.6596985 0.35992432l-2.1084137 2.4527283q-0.2953949 0.3435974 -0.25700378 0.7064209q0.050216675 0.37301636 0.46476746 0.7297058l0.67510986 0.5809021z" fill-rule="nonzero"/><path fill="#000000" fill-opacity="0.0" d="m156.60367 193.1076l0 222.3937l-40.535423 0l0 -222.3937z" fill-rule="evenodd"/><path fill="#000000" d="m135.3518 208.2951q-0.921875 0 -1.375 -0.5625q-0.453125 -0.5625 -0.453125 -1.640625l0 -2.1875l1.09375 0l0 2.34375q0 0.390625 0.171875 0.59375q0.171875 0.203125 0.5 0.203125l0.765625 0q0.65625 0 0.65625 -0.625l0 -0.546875q0 -1.03125 0.453125 -1.53125q0.453125 -0.5 1.421875 -0.5l0.421875 0q0.984375 0 1.40625 0.546875q0.4375 0.5625 0.4375 1.640625l0 1.96875l-1.09375 0l0 -2.109375q0 -0.359375 -0.171875 -0.59375q-0.171875 -0.21875 -0.5 -0.21875l-0.515625 0q-0.34375 0 -0.515625 0.203125q-0.15625 0.203125 -0.15625 0.5l0 0.5q0 0.984375 -0.484375 1.5q-0.46875 0.515625 -1.40625 0.515625l-0.65625 0zm-0.734375 4.258148l5.140625 0l0 -1.0625l1.09375 0l0 2.234375l-0.390625 0q0.390625 0.484375 0.390625 1.171875l0 1.515625l-1.171875 0l0 -1.65625q0 -0.46875 -0.296875 -0.703125q-0.296875 -0.234375 -0.609375 -0.25l-4.15625 0l0 1.59375l-1.09375 0l0 -3.90625l1.09375 0l0 1.0625zm-1.09375 11.492523q0 -0.1875 0.109375 -0.421875q0.125 -0.21875 0.328125 -0.375q-0.4375 -0.34375 -0.4375 -0.90625l0 -1.296875q0 -1.109375 0.4375 -1.625q0.453125 -0.5 1.546875 -0.5l0.28125 0q2.28125 0 2.28125 2.140625l0 1.8125l0.734375 0q0.453125 0 0.703125 -0.28125q0.25 -0.28125 0.25 -0.8125l0 -2.28125l1.09375 0l0 2.125q0 1.28125 -0.5625 1.890625q-0.546875 0.609375 -1.78125 0.609375l-3.515625 0q-0.21875 0 -0.328125 0.15625q-0.109375 0.171875 -0.109375 0.578125l-1.03125 0l0 -0.8125zm1.09375 -1.84375q0 0.4375 0.203125 0.546875q0.21875 0.125 0.53125 0.125l1.609375 0l0 -1.828125q0 -0.390625 -0.25 -0.640625q-0.234375 -0.234375 -0.625 -0.234375l-0.734375 0q-0.375 0 -0.5625 0.171875q-0.171875 0.171875 -0.171875 0.546875l0 1.3125zm6.234375 5.383148l-0.34375 0q0.34375 0.375 0.34375 0.90625l0 0.078125q0 1.03125 -0.59375 1.453125q0.59375 0.484375 0.59375 1.28125l0 0.09375q0 0.890625 -0.453125 1.3125q-0.453125 0.421875 -1.609375 0.421875l-5.265625 0l0 -1.171875l5.28125 0q0.59375 0 0.828125 -0.125q0.234375 -0.125 0.234375 -0.5625l0 -0.09375q0 -0.4375 -0.296875 -0.609375q-0.296875 -0.15625 -0.671875 -0.171875l-5.375 0l0 -1.171875l5.28125 0q0.609375 0 0.828125 -0.15625q0.234375 -0.140625 0.234375 -0.515625l0 -0.09375q0 -0.4375 -0.265625 -0.625q-0.25 -0.171875 -0.5625 -0.1875l-5.515625 0l0 -1.171875l7.328125 0l0 1.109375zm-8.71875 13.836273l-1.09375 0l0 -7.390625l1.09375 0l0 7.390625zm0.875 7.101898q-1.0 0 -1.484375 -0.59375q-0.484375 -0.59375 -0.484375 -1.859375l0 -3.046875l1.09375 0l0 3.203125q0 0.53125 0.203125 0.78125q0.203125 0.265625 0.53125 0.265625l0.46875 0q0.328125 0 0.53125 -0.265625q0.203125 -0.25 0.203125 -0.78125l0 -2.53125l2.015625 0q0.265625 -0.484375 0.765625 -0.71875q0.5 -0.234375 1.28125 -0.234375l0.375 0q1.234375 0 1.78125 0.59375q0.5625 0.609375 0.5625 1.890625l0 3.078125l-2.71875 0q-1.09375 0 -1.71875 -0.609375q-0.625 -0.59375 -0.625 -1.59375l0 -1.171875l-0.625 0l0 1.140625q0 1.265625 -0.5 1.859375q-0.484375 0.59375 -1.484375 0.59375l-0.171875 0zm3.890625 -2.421875q0 0.453125 0.28125 0.6875q0.296875 0.234375 0.625 0.265625l1.953125 0l0 -1.96875q0 -0.546875 -0.25 -0.828125q-0.25 -0.28125 -0.703125 -0.28125l-0.953125 0q-0.453125 0 -0.703125 0.28125q-0.25 0.28125 -0.25 0.828125l0 1.015625zm3.953125 5.945648l-0.359375 0q0.359375 0.453125 0.359375 1.171875l0 0.671875q0 1.1875 -0.5625 1.765625q-0.546875 0.578125 -1.78125 0.578125l-4.984375 0l0 -1.25l5.28125 0q0.4375 0 0.6875 -0.265625q0.265625 -0.25 0.265625 -0.6875l0 -0.96875q0 -0.484375 -0.265625 -0.71875q-0.25 -0.234375 -0.546875 -0.234375l-5.421875 0l0 -1.234375l7.328125 0l0 1.171875zm-7.328125 9.961273q0 -0.75 0.484375 -1.15625q0.484375 -0.390625 1.28125 -0.390625l4.46875 0l0 -1.390625l1.09375 0l0 1.390625l1.765625 0l0 1.25l-1.765625 0l0 2.140625l-1.09375 0l0 -2.140625l-4.546875 0q-0.328125 0 -0.46875 0.15625q-0.125 0.171875 -0.125 0.5l0 1.484375l-1.09375 0l0 -1.84375z" fill-rule="nonzero"/></g></svg>