<?xml version="1.0" encoding="UTF-8"?>
<!DOCTYPE svg PUBLIC "-//W3C//DTD SVG 1.1//EN" "http://www.w3.org/Graphics/SVG/1.1/DTD/svg11.dtd">
<svg xmlns="http://www.w3.org/2000/svg" xmlns:xlink="http://www.w3.org/1999/xlink" version="1.1" width="727px" height="484px" viewBox="-0.5 -0.5 727 484" style="background-color: rgb(255, 255, 255);"><defs/><g><path d="M 249 41.5 L 309 41.5 L 309 81.5 L 249 81.5" fill="none" stroke="rgb(0, 0, 0)" stroke-width="2" stroke-miterlimit="10" pointer-events="stroke"/><g fill="rgb(0, 0, 0)" font-family="Helvetica" font-weight="bold" text-anchor="middle" font-size="12px"><rect fill="rgb(255, 255, 255)" stroke="none" x="254" y="25" width="36" height="15" stroke-width="0"/><text x="271" y="36">async</text></g><path d="M 299 81.5 L 299 41.5" fill="none" stroke="rgb(0, 0, 0)" stroke-width="2" stroke-miterlimit="10" pointer-events="stroke"/><path d="M 289 81.5 L 289 41.5" fill="none" stroke="rgb(0, 0, 0)" stroke-width="2" stroke-miterlimit="10" pointer-events="stroke"/><path d="M 279 81.5 L 279 41.5" fill="none" stroke="rgb(0, 0, 0)" stroke-width="2" stroke-miterlimit="10" pointer-events="stroke"/><path d="M 269 81.5 L 269 41.5" fill="none" stroke="rgb(0, 0, 0)" stroke-width="2" stroke-miterlimit="10" pointer-events="stroke"/><rect x="368" y="421" width="120" height="40" fill="rgb(255, 255, 255)" stroke="rgb(0, 0, 0)" stroke-width="3" pointer-events="all"/><g fill="rgb(0, 0, 0)" font-family="Helvetica" font-weight="bold" text-anchor="middle" font-size="12px"><text x="427.5" y="445.5">return-by-HW regs</text></g><rect x="248" y="100.5" width="120" height="40" fill="rgb(255, 255, 255)" stroke="rgb(0, 0, 0)" stroke-width="3" pointer-events="all"/><g fill="rgb(0, 0, 0)" font-family="Helvetica" font-weight="bold" text-anchor="middle" font-size="12px"><text x="307.5" y="125">Write FIFO Interface</text></g><rect x="288" y="241" width="120" height="40" fill="rgb(255, 255, 255)" stroke="rgb(0, 0, 0)" stroke-width="3" pointer-events="all"/><g fill="rgb(0, 0, 0)" font-family="Helvetica" font-weight="bold" text-anchor="middle" font-size="12px"><text x="347.5" y="265.5">Read FIFO Interface</text></g><rect x="598" y="51" width="120" height="280" fill="rgb(255, 255, 255)" stroke="rgb(0, 0, 0)" stroke-width="3" pointer-events="all"/><g fill="rgb(0, 0, 0)" font-family="Helvetica" font-weight="bold" text-anchor="middle" font-size="12px"><text x="657.5" y="319.5">DPSRAM</text></g><path d="M 658 481 L 658 1" fill="none" stroke="#3d85c6" stroke-width="3" stroke-miterlimit="10" stroke-dasharray="9 9" pointer-events="stroke"/><rect x="598" y="51" width="60" height="20" fill="none" stroke="none" pointer-events="all"/><g fill="#3d85c6" font-family="Helvetica" font-weight="bold" text-anchor="middle" font-size="12px"><text x="627.5" y="68.5">SPI</text></g><rect x="598" y="71" width="60" height="20" fill="none" stroke="none" pointer-events="all"/><g fill="#3d85c6" font-family="Helvetica" font-weight="bold" text-anchor="middle" font-size="12px"><text x="627.5" y="85.5">clk</text></g><rect x="658" y="51" width="60" height="20" fill="none" stroke="none" pointer-events="all"/><g fill="#3d85c6" font-family="Helvetica" font-weight="bold" text-anchor="middle" font-size="12px"><text x="687.5" y="68.5">SYS</text></g><rect x="658" y="71" width="60" height="20" fill="none" stroke="none" pointer-events="all"/><g fill="#3d85c6" font-family="Helvetica" font-weight="bold" text-anchor="middle" font-size="12px"><text x="687.5" y="85.5">clk</text></g><path d="M 368 120.5 L 589.76 120.98" fill="none" stroke="rgb(0, 0, 0)" stroke-width="2" stroke-miterlimit="10" pointer-events="stroke"/><path d="M 595.76 121 L 587.76 124.98 L 589.76 120.98 L 587.77 116.98 Z" fill="rgb(0, 0, 0)" stroke="rgb(0, 0, 0)" stroke-width="2" stroke-miterlimit="10" pointer-events="all"/><g fill="rgb(0, 0, 0)" font-family="Helvetica" font-weight="bold" font-size="12px"><text x="445.5" y="116.18">WrDATA</text></g><path d="M 598 261 L 416.24 261" fill="none" stroke="rgb(0, 0, 0)" stroke-width="2" stroke-miterlimit="10" pointer-events="stroke"/><path d="M 410.24 261 L 418.24 257 L 416.24 261 L 418.24 265 Z" fill="rgb(0, 0, 0)" stroke="rgb(0, 0, 0)" stroke-width="2" stroke-miterlimit="10" pointer-events="all"/><g fill="rgb(0, 0, 0)" font-family="Helvetica" font-weight="bold" font-size="12px"><text x="472.5" y="255.5">RdDATA</text></g><path d="M 318 321 L 236.24 321" fill="none" stroke="rgb(0, 0, 0)" stroke-width="2" stroke-miterlimit="10" pointer-events="stroke"/><path d="M 230.24 321 L 238.24 317 L 236.24 321 L 238.24 325 Z" fill="rgb(0, 0, 0)" stroke="rgb(0, 0, 0)" stroke-width="2" stroke-miterlimit="10" pointer-events="all"/><g fill="rgb(0, 0, 0)" font-family="Helvetica" font-weight="bold" font-size="12px"><text x="250.5" y="315.5">WAIT(0x00)</text></g><path d="M 318 361 L 236.24 361" fill="none" stroke="rgb(0, 0, 0)" stroke-width="2" stroke-miterlimit="10" pointer-events="stroke"/><path d="M 230.24 361 L 238.24 357 L 236.24 361 L 238.24 365 Z" fill="rgb(0, 0, 0)" stroke="rgb(0, 0, 0)" stroke-width="2" stroke-miterlimit="10" pointer-events="all"/><g fill="rgb(0, 0, 0)" font-family="Helvetica" font-weight="bold" font-size="12px"><text x="249.5" y="355.5">START(0x01)</text></g><path d="M 318 401 L 236.24 401" fill="none" stroke="rgb(0, 0, 0)" stroke-width="2" stroke-miterlimit="10" pointer-events="stroke"/><path d="M 230.24 401 L 238.24 397 L 236.24 401 L 238.24 405 Z" fill="rgb(0, 0, 0)" stroke="rgb(0, 0, 0)" stroke-width="2" stroke-miterlimit="10" pointer-events="all"/><g fill="rgb(0, 0, 0)" font-family="Helvetica" font-weight="bold" font-size="12px"><text x="249.5" y="396.5">INVALID(0xFF)</text></g><path d="M 368 441 L 236.24 441" fill="none" stroke="rgb(0, 0, 0)" stroke-width="2" stroke-miterlimit="10" pointer-events="stroke"/><path d="M 230.24 441 L 238.24 437 L 236.24 441 L 238.24 445 Z" fill="rgb(0, 0, 0)" stroke="rgb(0, 0, 0)" stroke-width="2" stroke-miterlimit="10" pointer-events="all"/><path d="M 428 361 L 428 412.76" fill="none" stroke="rgb(0, 0, 0)" stroke-width="2" stroke-miterlimit="10" pointer-events="stroke"/><path d="M 428 418.76 L 424 410.76 L 428 412.76 L 432 410.76 Z" fill="rgb(0, 0, 0)" stroke="rgb(0, 0, 0)" stroke-width="2" stroke-miterlimit="10" pointer-events="all"/><g fill="rgb(0, 0, 0)" font-family="Helvetica" font-weight="bold" font-size="12px" transform="rotate(-90,435,399)"><text x="434.5" y="409.5">ADDR in SCK</text></g><rect x="568" y="411" width="50" height="60" fill="rgb(255, 255, 255)" stroke="rgb(0, 0, 0)" stroke-width="3" pointer-events="all"/><path d="M 608 451 L 618 456 L 608 461 Z" fill="rgb(255, 255, 255)" stroke="rgb(0, 0, 0)" stroke-width="3" stroke-miterlimit="10" transform="rotate(-180,613,456)" pointer-events="all"/><path d="M 318 60.5 L 389.76 60.5" fill="none" stroke="rgb(0, 0, 0)" stroke-width="2" stroke-miterlimit="10" pointer-events="stroke"/><path d="M 395.76 60.5 L 387.76 64.5 L 389.76 60.5 L 387.76 56.5 Z" fill="rgb(0, 0, 0)" stroke="rgb(0, 0, 0)" stroke-width="2" stroke-miterlimit="10" pointer-events="all"/><g fill="rgb(0, 0, 0)" font-family="Helvetica" font-weight="bold" text-anchor="middle" font-size="12px"><text x="352" y="53">CMD_ADDR</text></g><path d="M 718 441 L 626.24 441" fill="none" stroke="rgb(0, 0, 0)" stroke-width="2" stroke-miterlimit="10" pointer-events="stroke"/><path d="M 620.24 441 L 628.24 437 L 626.24 441 L 628.24 445 Z" fill="rgb(0, 0, 0)" stroke="rgb(0, 0, 0)" stroke-width="2" stroke-miterlimit="10" pointer-events="all"/><g fill="rgb(0, 0, 0)" font-family="Helvetica" font-weight="bold" font-size="12px"><text x="669.5" y="436.5">Reg in</text></g><g fill="rgb(0, 0, 0)" font-family="Helvetica" font-weight="bold" font-size="12px"><text x="669.5" y="457.5">SYS_CLK</text></g><path d="M 568 441 L 496.24 441" fill="none" stroke="rgb(0, 0, 0)" stroke-width="2" stroke-miterlimit="10" pointer-events="stroke"/><path d="M 490.24 441 L 498.24 437 L 496.24 441 L 498.24 445 Z" fill="rgb(0, 0, 0)" stroke="rgb(0, 0, 0)" stroke-width="2" stroke-miterlimit="10" pointer-events="all"/><path d="M 88 481 L 88 1" fill="none" stroke="#3d85c6" stroke-width="3" stroke-miterlimit="10" stroke-dasharray="9 9" pointer-events="stroke"/><rect x="128" y="71" width="50" height="40" fill="rgb(255, 255, 255)" stroke="rgb(0, 0, 0)" stroke-width="3" pointer-events="all"/><g fill="rgb(0, 0, 0)" font-family="Helvetica" font-weight="bold" text-anchor="middle" font-size="12px"><text x="152.5" y="95.5">S2P</text></g><rect x="128" y="341" width="50" height="40" fill="rgb(255, 255, 255)" stroke="rgb(0, 0, 0)" stroke-width="3" pointer-events="all"/><g fill="rgb(0, 0, 0)" font-family="Helvetica" font-weight="bold" text-anchor="middle" font-size="12px"><text x="152.5" y="365.5">P2S</text></g><path d="M 208 161 L 208 21" fill="none" stroke="rgb(0, 0, 0)" stroke-width="3" stroke-miterlimit="10" pointer-events="stroke"/><path d="M 208 471 L 208 221" fill="none" stroke="rgb(0, 0, 0)" stroke-width="3" stroke-miterlimit="10" pointer-events="stroke"/><path d="M 288 261 L 236.24 261" fill="none" stroke="rgb(0, 0, 0)" stroke-width="2" stroke-miterlimit="10" pointer-events="stroke"/><path d="M 230.24 261 L 238.24 257 L 236.24 261 L 238.24 265 Z" fill="rgb(0, 0, 0)" stroke="rgb(0, 0, 0)" stroke-width="2" stroke-miterlimit="10" pointer-events="all"/><path d="M 8 31 L 119.76 31" fill="none" stroke="rgb(0, 0, 0)" stroke-width="2" stroke-miterlimit="10" pointer-events="stroke"/><path d="M 125.76 31 L 117.76 35 L 119.76 31 L 117.76 27 Z" fill="rgb(0, 0, 0)" stroke="rgb(0, 0, 0)" stroke-width="2" stroke-miterlimit="10" pointer-events="all"/><g fill="rgb(0, 0, 0)" font-family="Helvetica" font-weight="bold" font-size="12px"><text x="19.5" y="23.5">SCK</text></g><path d="M 8 61 L 119.76 61" fill="none" stroke="rgb(0, 0, 0)" stroke-width="2" stroke-miterlimit="10" pointer-events="stroke"/><path d="M 125.76 61 L 117.76 65 L 119.76 61 L 117.76 57 Z" fill="rgb(0, 0, 0)" stroke="rgb(0, 0, 0)" stroke-width="2" stroke-miterlimit="10" pointer-events="all"/><g fill="rgb(0, 0, 0)" font-family="Helvetica" font-weight="bold" font-size="12px"><text x="19.5" y="56.5">/CS</text></g><path d="M 8 91 L 119.76 91" fill="none" stroke="rgb(0, 0, 0)" stroke-width="2" stroke-miterlimit="10" pointer-events="stroke"/><path d="M 125.76 91 L 117.76 95 L 119.76 91 L 117.76 87 Z" fill="rgb(0, 0, 0)" stroke="rgb(0, 0, 0)" stroke-width="2" stroke-miterlimit="10" pointer-events="all"/><g fill="rgb(0, 0, 0)" font-family="Helvetica" font-weight="bold" font-size="12px"><text x="19.5" y="86.5">MOSI</text></g><path d="M 128 361 L 16.24 361" fill="none" stroke="rgb(0, 0, 0)" stroke-width="2" stroke-miterlimit="10" pointer-events="stroke"/><path d="M 10.24 361 L 18.24 357 L 16.24 361 L 18.24 365 Z" fill="rgb(0, 0, 0)" stroke="rgb(0, 0, 0)" stroke-width="2" stroke-miterlimit="10" pointer-events="all"/><g fill="rgb(0, 0, 0)" font-family="Helvetica" font-weight="bold" font-size="12px"><text x="19.5" y="356.5">MISO</text></g></g></svg>