<svg version="1.1" viewBox="0.0 0.0 954.4776902887139 609.1338582677165" fill="none" stroke="none" stroke-linecap="square" stroke-miterlimit="10" xmlns:xlink="http://www.w3.org/1999/xlink" xmlns="http://www.w3.org/2000/svg"><clipPath id="p.0"><path d="m0 0l954.47766 0l0 609.13385l-954.47766 0l0 -609.13385z" clip-rule="nonzero"/></clipPath><g clip-path="url(#p.0)"><path fill="#000000" fill-opacity="0.0" d="m0 0l954.47766 0l0 609.13385l-954.47766 0z" fill-rule="evenodd"/><path fill="#000000" fill-opacity="0.0" d="m436.57742 423.6273l272.91336 0" fill-rule="evenodd"/><path stroke="#000000" stroke-width="2.0" stroke-linejoin="round" stroke-linecap="butt" d="m436.57742 423.6273l272.91336 0" fill-rule="evenodd"/><path fill="#000000" fill-opacity="0.0" d="m30.14567 353.35696l159.21259 0l0 38.64566l-159.21259 0z" fill-rule="evenodd"/><path fill="#000000" d="m45.895668 375.71695q0 1.015625 -0.625 1.515625q-0.609375 0.484375 -1.765625 0.484375l-2.390625 0l0 -1.203125l2.546875 0q0.421875 0 0.640625 -0.171875q0.234375 -0.1875 0.234375 -0.546875l0 -0.84375q0 -0.71875 -0.6875 -0.71875l-0.59375 0q-1.125 0 -1.671875 -0.484375q-0.546875 -0.5 -0.546875 -1.546875l0 -0.46875q0 -1.078125 0.609375 -1.546875q0.609375 -0.46875 1.78125 -0.46875l2.15625 0l0 1.203125l-2.3125 0q-0.390625 0 -0.640625 0.1875q-0.234375 0.171875 -0.234375 0.53125l0 0.578125q0 0.359375 0.21875 0.546875q0.21875 0.171875 0.546875 0.171875l0.546875 0q1.0625 0 1.625 0.515625q0.5625 0.515625 0.5625 1.546875l0 0.71875zm4.6556396 0.796875l0 -5.59375l-1.171875 0l0 -1.203125l2.453125 0l0 0.4375q0.53125 -0.4375 1.28125 -0.4375l1.640625 0l0 1.28125l-1.796875 0q-0.515625 0 -0.78125 0.328125q-0.25 0.328125 -0.265625 0.65625l0 4.53125l1.75 0l0 1.203125l-4.28125 0l0 -1.203125l1.171875 0zm12.546265 1.203125q-0.203125 0 -0.453125 -0.125q-0.25 -0.125 -0.421875 -0.359375q-0.375 0.484375 -0.984375 0.484375l-1.421875 0q-1.21875 0 -1.765625 -0.484375q-0.546875 -0.484375 -0.546875 -1.671875l0 -0.328125q0 -2.46875 2.328125 -2.46875l1.984375 0l0 -0.8125q0 -0.484375 -0.3125 -0.75q-0.296875 -0.28125 -0.890625 -0.28125l-2.46875 0l0 -1.203125l2.3125 0q1.390625 0 2.046875 0.609375q0.671875 0.609375 0.671875 1.953125l0 3.84375q0 0.234375 0.1875 0.359375q0.1875 0.109375 0.609375 0.109375l0 1.125l-0.875 0zm-2.015625 -1.203125q0.484375 0 0.609375 -0.21875q0.125 -0.21875 0.125 -0.578125l0 -1.765625l-2.0 0q-0.421875 0 -0.6875 0.28125q-0.265625 0.265625 -0.265625 0.6875l0 0.796875q0 0.421875 0.1875 0.609375q0.1875 0.1875 0.609375 0.1875l1.421875 0zm5.8743896 -6.796875l0 0.375q0.40625 -0.375 0.984375 -0.375l0.09375 0q1.125 0 1.59375 0.640625q0.53125 -0.640625 1.390625 -0.640625l0.09375 0q0.984375 0 1.4375 0.5q0.46875 0.484375 0.46875 1.75l0 5.75l-1.28125 0l0 -5.765625q0 -0.65625 -0.140625 -0.90625q-0.125 -0.25 -0.609375 -0.25l-0.09375 0q-0.484375 0 -0.671875 0.328125q-0.1875 0.328125 -0.203125 0.71875l0 5.875l-1.265625 0l0 -5.765625q0 -0.671875 -0.171875 -0.90625q-0.15625 -0.25 -0.578125 -0.25l-0.09375 0q-0.46875 0 -0.671875 0.28125q-0.1875 0.265625 -0.203125 0.625l0 6.015625l-1.28125 0l0 -8.0l1.203125 0zm15.108765 9.515625l0 1.203125l-8.078125 0l0 -1.203125l8.078125 0zm3.0462646 -2.71875l0 -5.59375l-1.171875 0l0 -1.203125l2.453125 0l0 0.4375q0.53125 -0.4375 1.28125 -0.4375l1.640625 0l0 1.28125l-1.796875 0q-0.515625 0 -0.78125 0.328125q-0.25 0.328125 -0.265625 0.65625l0 4.53125l1.75 0l0 1.203125l-4.28125 0l0 -1.203125l1.171875 0zm11.87439 0.828125q-0.53125 0.375 -1.28125 0.375l-0.65625 0q-1.40625 0 -2.0625 -0.59375q-0.65625 -0.609375 -0.65625 -1.96875l0 -2.875q0 -1.34375 0.65625 -1.953125q0.671875 -0.609375 2.0625 -0.609375l1.859375 0l0 -3.203125l1.359375 0l0 11.203125l-1.28125 0l0 -0.375zm-1.125 -0.828125q0.53125 0 0.78125 -0.28125q0.265625 -0.28125 0.265625 -0.59375l0 -4.71875l-2.015625 0q-0.59375 0 -0.90625 0.28125q-0.296875 0.265625 -0.296875 0.75l0 3.53125q0 0.484375 0.296875 0.765625q0.3125 0.265625 0.90625 0.265625l0.96875 0zm10.43689 1.203125q-0.203125 0 -0.453125 -0.125q-0.25 -0.125 -0.421875 -0.359375q-0.375 0.484375 -0.984375 0.484375l-1.421875 0q-1.21875 0 -1.765625 -0.484375q-0.546875 -0.484375 -0.546875 -1.671875l0 -0.328125q0 -2.46875 2.328125 -2.46875l1.984375 0l0 -0.8125q0 -0.484375 -0.3125 -0.75q-0.296875 -0.28125 -0.890625 -0.28125l-2.46875 0l0 -1.203125l2.3125 0q1.390625 0 2.046875 0.609375q0.671875 0.609375 0.671875 1.953125l0 3.84375q0 0.234375 0.1875 0.359375q0.1875 0.109375 0.609375 0.109375l0 1.125l-0.875 0zm-2.015625 -1.203125q0.484375 0 0.609375 -0.21875q0.125 -0.21875 0.125 -0.578125l0 -1.765625l-2.0 0q-0.421875 0 -0.6875 0.28125q-0.265625 0.265625 -0.265625 0.6875l0 0.796875q0 0.421875 0.1875 0.609375q0.1875 0.1875 0.609375 0.1875l1.421875 0zm8.890015 1.203125q-0.8125 0 -1.25 -0.53125q-0.421875 -0.53125 -0.421875 -1.390625l0 -4.875l-1.515625 0l0 -1.203125l1.515625 0l0 -1.921875l1.359375 0l0 1.921875l2.328125 0l0 1.203125l-2.328125 0l0 4.953125q0 0.359375 0.171875 0.5q0.171875 0.140625 0.546875 0.140625l1.609375 0l0 1.203125l-2.015625 0zm10.40564 0q-0.203125 0 -0.453125 -0.125q-0.25 -0.125 -0.421875 -0.359375q-0.375 0.484375 -0.984375 0.484375l-1.421875 0q-1.21875 0 -1.765625 -0.484375q-0.546875 -0.484375 -0.546875 -1.671875l0 -0.328125q0 -2.46875 2.328125 -2.46875l1.984375 0l0 -0.8125q0 -0.484375 -0.3125 -0.75q-0.296875 -0.28125 -0.890625 -0.28125l-2.46875 0l0 -1.203125l2.3125 0q1.390625 0 2.046875 0.609375q0.671875 0.609375 0.671875 1.953125l0 3.84375q0 0.234375 0.1875 0.359375q0.1875 0.109375 0.609375 0.109375l0 1.125l-0.875 0zm-2.015625 -1.203125q0.484375 0 0.609375 -0.21875q0.125 -0.21875 0.125 -0.578125l0 -1.765625l-2.0 0q-0.421875 0 -0.6875 0.28125q-0.265625 0.265625 -0.265625 0.6875l0 0.796875q0 0.421875 0.1875 0.609375q0.1875 0.1875 0.609375 0.1875l1.421875 0zm9.983772 -11.921875l0 1.203125l-2.078125 0l0 12.640625l2.078125 0l0 1.203125l-3.359375 0l0 -15.046875l3.359375 0zm9.34314 10.59375q0 1.328125 -0.640625 1.9375q-0.640625 0.59375 -2.078125 0.59375l-2.046875 0l0 -1.203125l2.1875 0q0.609375 0 0.890625 -0.28125q0.296875 -0.28125 0.296875 -0.890625l0 -1.640625q0 -0.53125 -0.328125 -0.84375q-0.3125 -0.3125 -0.84375 -0.3125l-1.703125 0l0 -1.203125l1.546875 0q0.5 0 0.828125 -0.3125q0.34375 -0.328125 0.34375 -0.84375l0 -1.3125q0 -0.609375 -0.28125 -0.875q-0.28125 -0.28125 -0.890625 -0.28125l-2.046875 0l0 -1.203125l1.859375 0q1.359375 0 2.046875 0.609375q0.703125 0.59375 0.703125 1.890625l0 1.0q0 1.234375 -0.890625 1.859375q1.046875 0.578125 1.046875 1.96875l0 1.34375zm5.8275146 1.328125l0 -8.734375l-2.265625 0.828125l0 -1.296875l2.109375 -0.796875l1.515625 0l0 10.0l1.734375 0l0 1.203125l-5.1875 0l0 -1.203125l2.09375 0zm9.87439 -6.796875l0 1.59375l-1.609375 0l0 -1.59375l1.609375 0zm0 6.40625l0 1.59375l-1.609375 0l0 -1.59375l1.609375 0zm10.68689 -1.125q0 1.328125 -0.734375 2.03125q-0.71875 0.6875 -1.953125 0.6875l-0.328125 0q-1.234375 0 -1.96875 -0.6875q-0.71875 -0.703125 -0.71875 -2.03125l0 -5.765625q0 -1.34375 0.71875 -2.03125q0.71875 -0.6875 1.96875 -0.6875l0.328125 0q1.25 0 1.96875 0.6875q0.71875 0.6875 0.71875 2.03125l0 5.765625zm-1.359375 -6.0625q0 -0.5 -0.375 -0.859375q-0.375 -0.359375 -0.953125 -0.359375l-0.328125 0q-0.578125 0 -0.953125 0.359375q-0.375 0.359375 -0.375 0.859375l0 4.328125l2.984375 -4.328125zm-2.984375 6.359375q0 0.5 0.375 0.859375q0.375 0.359375 0.953125 0.359375l0.328125 0q0.578125 0 0.953125 -0.359375q0.375 -0.359375 0.375 -0.859375l0 -4.3125l-2.984375 4.3125zm10.53064 3.140625l0 -12.640625l-2.078125 0l0 -1.203125l3.359375 0l0 15.046875l-3.359375 0l0 -1.203125l2.078125 0z" fill-rule="nonzero"/><path fill="#000000" fill-opacity="0.0" d="m754.3517 489.17322l169.85828 0" fill-rule="evenodd"/><path stroke="#000000" stroke-width="2.0" stroke-linejoin="round" stroke-linecap="butt" d="m754.3517 489.17322l157.85828 0" fill-rule="evenodd"/><path fill="#000000" stroke="#000000" stroke-width="2.0" stroke-linecap="butt" d="m912.20996 492.47668l9.076233 -3.3034668l-9.076233 -3.3034668z" fill-rule="evenodd"/><path fill="#000000" fill-opacity="0.0" d="m774.63385 450.53018l149.07086 0l0 38.64566l-149.07086 0z" fill-rule="evenodd"/><path fill="#000000" d="m788.4932 464.8902q-0.25 0 -0.40625 0.140625q-0.15625 0.125 -0.15625 0.34375l0 1.515625l2.578125 0l0 1.203125l-2.578125 0l0 5.59375l1.9375 0l0 1.203125l-4.65625 0l0 -1.203125l1.359375 0l0 -5.59375l-1.359375 0l0 -1.203125l1.359375 0l0 -1.4375q0 -0.8125 0.46875 -1.28125q0.46875 -0.484375 1.203125 -0.484375l2.4375 0l0 1.203125l-2.1875 0zm8.858765 -1.203125l0 1.4375l-1.53125 0l0 -1.4375l1.53125 0zm-3.796875 4.40625l0 -1.203125l3.703125 0l0 6.796875l2.375 0l0 1.203125l-3.734375 0l0 -6.796875l-2.34375 0zm12.21814 -3.203125q-0.25 0 -0.40625 0.140625q-0.15625 0.125 -0.15625 0.34375l0 1.515625l2.578125 0l0 1.203125l-2.578125 0l0 5.59375l1.9375 0l0 1.203125l-4.65625 0l0 -1.203125l1.359375 0l0 -5.59375l-1.359375 0l0 -1.203125l1.359375 0l0 -1.4375q0 -0.8125 0.46875 -1.28125q0.46875 -0.484375 1.203125 -0.484375l2.4375 0l0 1.203125l-2.1875 0zm11.077515 7.4375q0 1.34375 -0.671875 1.953125q-0.65625 0.609375 -2.046875 0.609375l-0.53125 0q-1.390625 0 -2.0625 -0.609375q-0.65625 -0.609375 -0.65625 -1.953125l0 -2.875q0 -1.34375 0.65625 -1.953125q0.671875 -0.609375 2.0625 -0.609375l0.53125 0q1.390625 0 2.046875 0.609375q0.671875 0.609375 0.671875 1.953125l0 2.875zm-1.359375 -3.203125q0 -0.484375 -0.3125 -0.75q-0.296875 -0.28125 -0.890625 -0.28125l-0.84375 0q-0.59375 0 -0.90625 0.28125q-0.296875 0.265625 -0.296875 0.75l0 3.53125q0 0.484375 0.296875 0.765625q0.3125 0.265625 0.90625 0.265625l0.84375 0q0.59375 0 0.890625 -0.265625q0.3125 -0.28125 0.3125 -0.765625l0 -3.53125zm11.06189 7.28125l0 1.203125l-8.078125 0l0 -1.203125l8.078125 0zm4.6400146 -5.53125l-0.875 4.015625l-1.484375 0l-1.4375 -8.0l1.359375 0l0.90625 6.359375l1.0625 -4.921875l1.03125 0l0.96875 4.921875l0.90625 -6.359375l1.28125 0l-1.421875 8.0l-1.53125 0l-0.765625 -4.015625zm10.28064 3.640625q-0.53125 0.375 -1.28125 0.375l-0.65625 0q-1.40625 0 -2.0625 -0.59375q-0.65625 -0.609375 -0.65625 -1.96875l0 -2.875q0 -1.34375 0.65625 -1.953125q0.671875 -0.609375 2.0625 -0.609375l1.859375 0l0 -3.203125l1.359375 0l0 11.203125l-1.28125 0l0 -0.375zm-1.125 -0.828125q0.53125 0 0.78125 -0.28125q0.265625 -0.28125 0.265625 -0.59375l0 -4.71875l-2.015625 0q-0.59375 0 -0.90625 0.28125q-0.296875 0.265625 -0.296875 0.75l0 3.53125q0 0.484375 0.296875 0.765625q0.3125 0.265625 0.90625 0.265625l0.96875 0zm10.43689 1.203125q-0.203125 0 -0.453125 -0.125q-0.25 -0.125 -0.421875 -0.359375q-0.375 0.484375 -0.984375 0.484375l-1.421875 0q-1.21875 0 -1.765625 -0.484375q-0.546875 -0.484375 -0.546875 -1.671875l0 -0.328125q0 -2.46875 2.328125 -2.46875l1.984375 0l0 -0.8125q0 -0.484375 -0.3125 -0.75q-0.296875 -0.28125 -0.890625 -0.28125l-2.46875 0l0 -1.203125l2.3125 0q1.390625 0 2.046875 0.609375q0.671875 0.609375 0.671875 1.953125l0 3.84375q0 0.234375 0.1875 0.359375q0.1875 0.109375 0.609375 0.109375l0 1.125l-0.875 0zm-2.015625 -1.203125q0.484375 0 0.609375 -0.21875q0.125 -0.21875 0.125 -0.578125l0 -1.765625l-2.0 0q-0.421875 0 -0.6875 0.28125q-0.265625 0.265625 -0.265625 0.6875l0 0.796875q0 0.421875 0.1875 0.609375q0.1875 0.1875 0.609375 0.1875l1.421875 0zm8.890015 1.203125q-0.8125 0 -1.25 -0.53125q-0.421875 -0.53125 -0.421875 -1.390625l0 -4.875l-1.515625 0l0 -1.203125l1.515625 0l0 -1.921875l1.359375 0l0 1.921875l2.328125 0l0 1.203125l-2.328125 0l0 4.953125q0 0.359375 0.171875 0.5q0.171875 0.140625 0.546875 0.140625l1.609375 0l0 1.203125l-2.015625 0zm10.40564 0q-0.203125 0 -0.453125 -0.125q-0.25 -0.125 -0.421875 -0.359375q-0.375 0.484375 -0.984375 0.484375l-1.421875 0q-1.21875 0 -1.765625 -0.484375q-0.546875 -0.484375 -0.546875 -1.671875l0 -0.328125q0 -2.46875 2.328125 -2.46875l1.984375 0l0 -0.8125q0 -0.484375 -0.3125 -0.75q-0.296875 -0.28125 -0.890625 -0.28125l-2.46875 0l0 -1.203125l2.3125 0q1.390625 0 2.046875 0.609375q0.671875 0.609375 0.671875 1.953125l0 3.84375q0 0.234375 0.1875 0.359375q0.1875 0.109375 0.609375 0.109375l0 1.125l-0.875 0zm-2.015625 -1.203125q0.484375 0 0.609375 -0.21875q0.125 -0.21875 0.125 -0.578125l0 -1.765625l-2.0 0q-0.421875 0 -0.6875 0.28125q-0.265625 0.265625 -0.265625 0.6875l0 0.796875q0 0.421875 0.1875 0.609375q0.1875 0.1875 0.609375 0.1875l1.421875 0zm9.983765 -11.921875l0 1.203125l-2.078125 0l0 12.640625l2.078125 0l0 1.203125l-3.359375 0l0 -15.046875l3.359375 0zm8.171265 3.125l-3.875 0l0 -1.203125l5.203125 0l0 1.5625l-2.8125 9.640625l-1.421875 0l2.90625 -10.0zm8.233765 2.0l0 1.59375l-1.609375 0l0 -1.59375l1.609375 0zm0 6.40625l0 1.59375l-1.609375 0l0 -1.59375l1.609375 0zm10.68689 -1.125q0 1.328125 -0.734375 2.03125q-0.71875 0.6875 -1.953125 0.6875l-0.328125 0q-1.234375 0 -1.96875 -0.6875q-0.71875 -0.703125 -0.71875 -2.03125l0 -5.765625q0 -1.34375 0.71875 -2.03125q0.71875 -0.6875 1.96875 -0.6875l0.328125 0q1.25 0 1.96875 0.6875q0.71875 0.6875 0.71875 2.03125l0 5.765625zm-1.359375 -6.0625q0 -0.5 -0.375 -0.859375q-0.375 -0.359375 -0.953125 -0.359375l-0.328125 0q-0.578125 0 -0.953125 0.359375q-0.375 0.359375 -0.375 0.859375l0 4.328125l2.984375 -4.328125zm-2.984375 6.359375q0 0.5 0.375 0.859375q0.375 0.359375 0.953125 0.359375l0.328125 0q0.578125 0 0.953125 -0.359375q0.375 -0.359375 0.375 -0.859375l0 -4.3125l-2.984375 4.3125zm10.53064 3.140625l0 -12.640625l-2.078125 0l0 -1.203125l3.359375 0l0 15.046875l-3.359375 0l0 -1.203125l2.078125 0z" fill-rule="nonzero"/><path fill="#ffffff" d="m708.6982 586.34515l0 -194.34384l45.653503 38.868774l0 116.60629z" fill-rule="evenodd"/><path stroke="#000000" stroke-width="2.0" stroke-linejoin="round" stroke-linecap="butt" d="m708.6982 586.34515l0 -194.34384l45.653503 38.868774l0 116.60629z" fill-rule="evenodd"/><path fill="#000000" fill-opacity="0.0" d="m731.52496 139.75066l0 271.68506" fill-rule="evenodd"/><path stroke="#000000" stroke-width="2.0" stroke-linejoin="round" stroke-linecap="butt" d="m731.52496 139.75066l0 271.68506" fill-rule="evenodd"/><path fill="#000000" fill-opacity="0.0" d="m769.19556 385.56168l0 -46.173218l-38.64569 0l0 46.173218z" fill-rule="evenodd"/><path fill="#000000" d="m752.8355 351.06033l-0.390625 0q0.390625 0.5 0.390625 1.28125l0 0.578125q0 1.40625 -0.609375 2.0625q-0.59375 0.65625 -1.953125 0.65625l-2.875 0q-1.34375 0 -1.953125 -0.671875q-0.609375 -0.65625 -0.609375 -2.046875l0 -1.78125l-2.71875 0l0 -1.359375l10.71875 0l0 1.28125zm-1.203125 1.125q0 -0.53125 -0.28125 -0.796875q-0.28125 -0.25 -0.59375 -0.25l-4.71875 0l0 1.9375q0 0.59375 0.265625 0.890625q0.28125 0.3125 0.765625 0.3125l3.53125 0q0.484375 0 0.75 -0.3125q0.28125 -0.296875 0.28125 -0.890625l0 -0.890625zm-4.234375 12.140015q-1.34375 0 -1.953125 -0.671875q-0.609375 -0.65625 -0.609375 -2.046875l0 -0.53125q0 -1.390625 0.609375 -2.0625q0.609375 -0.65625 1.953125 -0.65625l2.875 0q1.34375 0 1.953125 0.65625q0.609375 0.671875 0.609375 2.0625l0 0.53125q0 1.390625 -0.609375 2.046875q-0.609375 0.671875 -1.953125 0.671875l-2.875 0zm3.203125 -1.359375q0.484375 0 0.75 -0.3125q0.28125 -0.296875 0.28125 -0.890625l0 -0.84375q0 -0.59375 -0.28125 -0.90625q-0.265625 -0.296875 -0.75 -0.296875l-3.53125 0q-0.484375 0 -0.765625 0.296875q-0.265625 0.3125 -0.265625 0.90625l0 0.84375q0 0.59375 0.265625 0.890625q0.28125 0.3125 0.765625 0.3125l3.53125 0zm-3.765625 9.452515q-1.015625 0 -1.515625 -0.625q-0.484375 -0.609375 -0.484375 -1.765625l0 -2.390625l1.203125 0l0 2.546875q0 0.421875 0.171875 0.640625q0.1875 0.234375 0.546875 0.234375l0.84375 0q0.71875 0 0.71875 -0.6875l0 -0.59375q0 -1.125 0.484375 -1.671875q0.5 -0.546875 1.546875 -0.546875l0.46875 0q1.078125 0 1.546875 0.609375q0.46875 0.609375 0.46875 1.78125l0 2.15625l-1.203125 0l0 -2.3125q0 -0.390625 -0.1875 -0.640625q-0.171875 -0.234375 -0.53125 -0.234375l-0.578125 0q-0.359375 0 -0.546875 0.21875q-0.171875 0.21875 -0.171875 0.546875l0 0.546875q0 1.0625 -0.515625 1.625q-0.515625 0.5625 -1.546875 0.5625l-0.71875 0z" fill-rule="nonzero"/><path fill="#000000" fill-opacity="0.0" d="m533.28217 469.85303l175.62201 0" fill-rule="evenodd"/><path stroke="#000000" stroke-width="2.0" stroke-linejoin="round" stroke-linecap="butt" d="m533.28217 469.85303l175.62201 0" fill-rule="evenodd"/><path fill="#000000" fill-opacity="0.0" d="m533.95276 516.68243l175.52753 0" fill-rule="evenodd"/><path stroke="#000000" stroke-width="2.0" stroke-linejoin="round" stroke-linecap="butt" d="m533.95276 516.68243l175.52753 0" fill-rule="evenodd"/><path fill="#000000" fill-opacity="0.0" d="m533.95276 567.0236l174.36218 0" fill-rule="evenodd"/><path stroke="#000000" stroke-width="2.0" stroke-linejoin="round" stroke-linecap="butt" d="m533.95276 567.0236l174.36218 0" fill-rule="evenodd"/><path fill="#000000" fill-opacity="0.0" d="m533.87006 424.1942l0 142.83466" fill-rule="evenodd"/><path stroke="#000000" stroke-width="2.0" stroke-linejoin="round" stroke-linecap="butt" d="m533.87006 424.1942l0 142.83466" fill-rule="evenodd"/><path fill="#000000" fill-opacity="0.0" d="m533.87006 384.4147l159.21265 0l0 38.64566l-159.21265 0z" fill-rule="evenodd"/><path fill="#000000" d="m549.62006 406.7747q0 1.015625 -0.625 1.515625q-0.609375 0.484375 -1.765625 0.484375l-2.390625 0l0 -1.203125l2.546875 0q0.421875 0 0.640625 -0.171875q0.234375 -0.1875 0.234375 -0.546875l0 -0.84375q0 -0.71875 -0.6875 -0.71875l-0.59375 0q-1.125 0 -1.671875 -0.484375q-0.546875 -0.5 -0.546875 -1.546875l0 -0.46875q0 -1.078125 0.609375 -1.546875q0.609375 -0.46875 1.78125 -0.46875l2.15625 0l0 1.203125l-2.3125 0q-0.390625 0 -0.640625 0.1875q-0.234375 0.171875 -0.234375 0.53125l0 0.578125q0 0.359375 0.21875 0.546875q0.21875 0.171875 0.546875 0.171875l0.546875 0q1.0625 0 1.625 0.515625q0.5625 0.515625 0.5625 1.546875l0 0.71875zm4.6556396 0.796875l0 -5.59375l-1.171875 0l0 -1.203125l2.453125 0l0 0.4375q0.53125 -0.4375 1.28125 -0.4375l1.640625 0l0 1.28125l-1.796875 0q-0.515625 0 -0.78125 0.328125q-0.25 0.328125 -0.265625 0.65625l0 4.53125l1.75 0l0 1.203125l-4.28125 0l0 -1.203125l1.171875 0zm12.546265 1.203125q-0.203125 0 -0.453125 -0.125q-0.25 -0.125 -0.421875 -0.359375q-0.375 0.484375 -0.984375 0.484375l-1.421875 0q-1.21875 0 -1.765625 -0.484375q-0.546875 -0.484375 -0.546875 -1.671875l0 -0.328125q0 -2.46875 2.328125 -2.46875l1.984375 0l0 -0.8125q0 -0.484375 -0.3125 -0.75q-0.296875 -0.28125 -0.890625 -0.28125l-2.46875 0l0 -1.203125l2.3125 0q1.390625 0 2.046875 0.609375q0.671875 0.609375 0.671875 1.953125l0 3.84375q0 0.234375 0.1875 0.359375q0.1875 0.109375 0.609375 0.109375l0 1.125l-0.875 0zm-2.015625 -1.203125q0.484375 0 0.609375 -0.21875q0.125 -0.21875 0.125 -0.578125l0 -1.765625l-2.0 0q-0.421875 0 -0.6875 0.28125q-0.265625 0.265625 -0.265625 0.6875l0 0.796875q0 0.421875 0.1875 0.609375q0.1875 0.1875 0.609375 0.1875l1.421875 0zm5.8743896 -6.796875l0 0.375q0.40625 -0.375 0.984375 -0.375l0.09375 0q1.125 0 1.59375 0.640625q0.53125 -0.640625 1.390625 -0.640625l0.09375 0q0.984375 0 1.4375 0.5q0.46875 0.484375 0.46875 1.75l0 5.75l-1.28125 0l0 -5.765625q0 -0.65625 -0.140625 -0.90625q-0.125 -0.25 -0.609375 -0.25l-0.09375 0q-0.484375 0 -0.671875 0.328125q-0.1875 0.328125 -0.203125 0.71875l0 5.875l-1.265625 0l0 -5.765625q0 -0.671875 -0.171875 -0.90625q-0.15625 -0.25 -0.578125 -0.25l-0.09375 0q-0.46875 0 -0.671875 0.28125q-0.1875 0.265625 -0.203125 0.625l0 6.015625l-1.28125 0l0 -8.0l1.203125 0zm15.108765 9.515625l0 1.203125l-8.078125 0l0 -1.203125l8.078125 0zm3.0462646 -2.71875l0 -5.59375l-1.171875 0l0 -1.203125l2.453125 0l0 0.4375q0.53125 -0.4375 1.28125 -0.4375l1.640625 0l0 1.28125l-1.796875 0q-0.515625 0 -0.78125 0.328125q-0.25 0.328125 -0.265625 0.65625l0 4.53125l1.75 0l0 1.203125l-4.28125 0l0 -1.203125l1.171875 0zm11.87439 0.828125q-0.53125 0.375 -1.28125 0.375l-0.65625 0q-1.40625 0 -2.0625 -0.59375q-0.65625 -0.609375 -0.65625 -1.96875l0 -2.875q0 -1.34375 0.65625 -1.953125q0.671875 -0.609375 2.0625 -0.609375l1.859375 0l0 -3.203125l1.359375 0l0 11.203125l-1.28125 0l0 -0.375zm-1.125 -0.828125q0.53125 0 0.78125 -0.28125q0.265625 -0.28125 0.265625 -0.59375l0 -4.71875l-2.015625 0q-0.59375 0 -0.90625 0.28125q-0.296875 0.265625 -0.296875 0.75l0 3.53125q0 0.484375 0.296875 0.765625q0.3125 0.265625 0.90625 0.265625l0.96875 0zm10.43689 1.203125q-0.203125 0 -0.453125 -0.125q-0.25 -0.125 -0.421875 -0.359375q-0.375 0.484375 -0.984375 0.484375l-1.421875 0q-1.21875 0 -1.765625 -0.484375q-0.546875 -0.484375 -0.546875 -1.671875l0 -0.328125q0 -2.46875 2.328125 -2.46875l1.984375 0l0 -0.8125q0 -0.484375 -0.3125 -0.75q-0.296875 -0.28125 -0.890625 -0.28125l-2.46875 0l0 -1.203125l2.3125 0q1.390625 0 2.046875 0.609375q0.671875 0.609375 0.671875 1.953125l0 3.84375q0 0.234375 0.1875 0.359375q0.1875 0.109375 0.609375 0.109375l0 1.125l-0.875 0zm-2.015625 -1.203125q0.484375 0 0.609375 -0.21875q0.125 -0.21875 0.125 -0.578125l0 -1.765625l-2.0 0q-0.421875 0 -0.6875 0.28125q-0.265625 0.265625 -0.265625 0.6875l0 0.796875q0 0.421875 0.1875 0.609375q0.1875 0.1875 0.609375 0.1875l1.421875 0zm8.890015 1.203125q-0.8125 0 -1.25 -0.53125q-0.421875 -0.53125 -0.421875 -1.390625l0 -4.875l-1.515625 0l0 -1.203125l1.515625 0l0 -1.921875l1.359375 0l0 1.921875l2.328125 0l0 1.203125l-2.328125 0l0 4.953125q0 0.359375 0.171875 0.5q0.171875 0.140625 0.546875 0.140625l1.609375 0l0 1.203125l-2.015625 0zm10.40564 0q-0.203125 0 -0.453125 -0.125q-0.25 -0.125 -0.421875 -0.359375q-0.375 0.484375 -0.984375 0.484375l-1.421875 0q-1.21875 0 -1.765625 -0.484375q-0.546875 -0.484375 -0.546875 -1.671875l0 -0.328125q0 -2.46875 2.328125 -2.46875l1.984375 0l0 -0.8125q0 -0.484375 -0.3125 -0.75q-0.296875 -0.28125 -0.890625 -0.28125l-2.46875 0l0 -1.203125l2.3125 0q1.390625 0 2.046875 0.609375q0.671875 0.609375 0.671875 1.953125l0 3.84375q0 0.234375 0.1875 0.359375q0.1875 0.109375 0.609375 0.109375l0 1.125l-0.875 0zm-2.015625 -1.203125q0.484375 0 0.609375 -0.21875q0.125 -0.21875 0.125 -0.578125l0 -1.765625l-2.0 0q-0.421875 0 -0.6875 0.28125q-0.265625 0.265625 -0.265625 0.6875l0 0.796875q0 0.421875 0.1875 0.609375q0.1875 0.1875 0.609375 0.1875l1.421875 0zm9.983765 -11.921875l0 1.203125l-2.078125 0l0 12.640625l2.078125 0l0 1.203125l-3.359375 0l0 -15.046875l3.359375 0zm8.171265 3.125l-3.875 0l0 -1.203125l5.203125 0l0 1.5625l-2.8125 9.640625l-1.421875 0l2.90625 -10.0zm8.233765 2.0l0 1.59375l-1.609375 0l0 -1.59375l1.609375 0zm0 6.40625l0 1.59375l-1.609375 0l0 -1.59375l1.609375 0zm10.68689 -1.125q0 1.328125 -0.734375 2.03125q-0.71875 0.6875 -1.953125 0.6875l-0.328125 0q-1.234375 0 -1.96875 -0.6875q-0.71875 -0.703125 -0.71875 -2.03125l0 -5.765625q0 -1.34375 0.71875 -2.03125q0.71875 -0.6875 1.96875 -0.6875l0.328125 0q1.25 0 1.96875 0.6875q0.71875 0.6875 0.71875 2.03125l0 5.765625zm-1.359375 -6.0625q0 -0.5 -0.375 -0.859375q-0.375 -0.359375 -0.953125 -0.359375l-0.328125 0q-0.578125 0 -0.953125 0.359375q-0.375 0.359375 -0.375 0.859375l0 4.328125l2.984375 -4.328125zm-2.984375 6.359375q0 0.5 0.375 0.859375q0.375 0.359375 0.953125 0.359375l0.328125 0q0.578125 0 0.953125 -0.359375q0.375 -0.359375 0.375 -0.859375l0 -4.3125l-2.984375 4.3125zm10.53064 3.140625l0 -12.640625l-2.078125 0l0 -1.203125l3.359375 0l0 15.046875l-3.359375 0l0 -1.203125l2.078125 0z" fill-rule="nonzero"/><path fill="#000000" fill-opacity="0.0" d="m533.87006 431.20734l159.21265 0l0 38.64569l-159.21265 0z" fill-rule="evenodd"/><path fill="#000000" d="m549.62006 453.56735q0 1.015625 -0.625 1.515625q-0.609375 0.484375 -1.765625 0.484375l-2.390625 0l0 -1.203125l2.546875 0q0.421875 0 0.640625 -0.171875q0.234375 -0.1875 0.234375 -0.546875l0 -0.84375q0 -0.71875 -0.6875 -0.71875l-0.59375 0q-1.125 0 -1.671875 -0.484375q-0.546875 -0.5 -0.546875 -1.546875l0 -0.46875q0 -1.078125 0.609375 -1.546875q0.609375 -0.46875 1.78125 -0.46875l2.15625 0l0 1.203125l-2.3125 0q-0.390625 0 -0.640625 0.1875q-0.234375 0.171875 -0.234375 0.53125l0 0.578125q0 0.359375 0.21875 0.546875q0.21875 0.171875 0.546875 0.171875l0.546875 0q1.0625 0 1.625 0.515625q0.5625 0.515625 0.5625 1.546875l0 0.71875zm4.6556396 0.796875l0 -5.59375l-1.171875 0l0 -1.203125l2.453125 0l0 0.4375q0.53125 -0.4375 1.28125 -0.4375l1.640625 0l0 1.28125l-1.796875 0q-0.515625 0 -0.78125 0.328125q-0.25 0.328125 -0.265625 0.65625l0 4.53125l1.75 0l0 1.203125l-4.28125 0l0 -1.203125l1.171875 0zm12.546265 1.203125q-0.203125 0 -0.453125 -0.125q-0.25 -0.125 -0.421875 -0.359375q-0.375 0.484375 -0.984375 0.484375l-1.421875 0q-1.21875 0 -1.765625 -0.484375q-0.546875 -0.484375 -0.546875 -1.671875l0 -0.328125q0 -2.46875 2.328125 -2.46875l1.984375 0l0 -0.8125q0 -0.484375 -0.3125 -0.75q-0.296875 -0.28125 -0.890625 -0.28125l-2.46875 0l0 -1.203125l2.3125 0q1.390625 0 2.046875 0.609375q0.671875 0.609375 0.671875 1.953125l0 3.84375q0 0.234375 0.1875 0.359375q0.1875 0.109375 0.609375 0.109375l0 1.125l-0.875 0zm-2.015625 -1.203125q0.484375 0 0.609375 -0.21875q0.125 -0.21875 0.125 -0.578125l0 -1.765625l-2.0 0q-0.421875 0 -0.6875 0.28125q-0.265625 0.265625 -0.265625 0.6875l0 0.796875q0 0.421875 0.1875 0.609375q0.1875 0.1875 0.609375 0.1875l1.421875 0zm5.8743896 -6.796875l0 0.375q0.40625 -0.375 0.984375 -0.375l0.09375 0q1.125 0 1.59375 0.640625q0.53125 -0.640625 1.390625 -0.640625l0.09375 0q0.984375 0 1.4375 0.5q0.46875 0.484375 0.46875 1.75l0 5.75l-1.28125 0l0 -5.765625q0 -0.65625 -0.140625 -0.90625q-0.125 -0.25 -0.609375 -0.25l-0.09375 0q-0.484375 0 -0.671875 0.328125q-0.1875 0.328125 -0.203125 0.71875l0 5.875l-1.265625 0l0 -5.765625q0 -0.671875 -0.171875 -0.90625q-0.15625 -0.25 -0.578125 -0.25l-0.09375 0q-0.46875 0 -0.671875 0.28125q-0.1875 0.265625 -0.203125 0.625l0 6.015625l-1.28125 0l0 -8.0l1.203125 0zm15.108765 9.515625l0 1.203125l-8.078125 0l0 -1.203125l8.078125 0zm3.0462646 -2.71875l0 -5.59375l-1.171875 0l0 -1.203125l2.453125 0l0 0.4375q0.53125 -0.4375 1.28125 -0.4375l1.640625 0l0 1.28125l-1.796875 0q-0.515625 0 -0.78125 0.328125q-0.25 0.328125 -0.265625 0.65625l0 4.53125l1.75 0l0 1.203125l-4.28125 0l0 -1.203125l1.171875 0zm11.87439 0.828125q-0.53125 0.375 -1.28125 0.375l-0.65625 0q-1.40625 0 -2.0625 -0.59375q-0.65625 -0.609375 -0.65625 -1.96875l0 -2.875q0 -1.34375 0.65625 -1.953125q0.671875 -0.609375 2.0625 -0.609375l1.859375 0l0 -3.203125l1.359375 0l0 11.203125l-1.28125 0l0 -0.375zm-1.125 -0.828125q0.53125 0 0.78125 -0.28125q0.265625 -0.28125 0.265625 -0.59375l0 -4.71875l-2.015625 0q-0.59375 0 -0.90625 0.28125q-0.296875 0.265625 -0.296875 0.75l0 3.53125q0 0.484375 0.296875 0.765625q0.3125 0.265625 0.90625 0.265625l0.96875 0zm10.43689 1.203125q-0.203125 0 -0.453125 -0.125q-0.25 -0.125 -0.421875 -0.359375q-0.375 0.484375 -0.984375 0.484375l-1.421875 0q-1.21875 0 -1.765625 -0.484375q-0.546875 -0.484375 -0.546875 -1.671875l0 -0.328125q0 -2.46875 2.328125 -2.46875l1.984375 0l0 -0.8125q0 -0.484375 -0.3125 -0.75q-0.296875 -0.28125 -0.890625 -0.28125l-2.46875 0l0 -1.203125l2.3125 0q1.390625 0 2.046875 0.609375q0.671875 0.609375 0.671875 1.953125l0 3.84375q0 0.234375 0.1875 0.359375q0.1875 0.109375 0.609375 0.109375l0 1.125l-0.875 0zm-2.015625 -1.203125q0.484375 0 0.609375 -0.21875q0.125 -0.21875 0.125 -0.578125l0 -1.765625l-2.0 0q-0.421875 0 -0.6875 0.28125q-0.265625 0.265625 -0.265625 0.6875l0 0.796875q0 0.421875 0.1875 0.609375q0.1875 0.1875 0.609375 0.1875l1.421875 0zm8.890015 1.203125q-0.8125 0 -1.25 -0.53125q-0.421875 -0.53125 -0.421875 -1.390625l0 -4.875l-1.515625 0l0 -1.203125l1.515625 0l0 -1.921875l1.359375 0l0 1.921875l2.328125 0l0 1.203125l-2.328125 0l0 4.953125q0 0.359375 0.171875 0.5q0.171875 0.140625 0.546875 0.140625l1.609375 0l0 1.203125l-2.015625 0zm10.40564 0q-0.203125 0 -0.453125 -0.125q-0.25 -0.125 -0.421875 -0.359375q-0.375 0.484375 -0.984375 0.484375l-1.421875 0q-1.21875 0 -1.765625 -0.484375q-0.546875 -0.484375 -0.546875 -1.671875l0 -0.328125q0 -2.46875 2.328125 -2.46875l1.984375 0l0 -0.8125q0 -0.484375 -0.3125 -0.75q-0.296875 -0.28125 -0.890625 -0.28125l-2.46875 0l0 -1.203125l2.3125 0q1.390625 0 2.046875 0.609375q0.671875 0.609375 0.671875 1.953125l0 3.84375q0 0.234375 0.1875 0.359375q0.1875 0.109375 0.609375 0.109375l0 1.125l-0.875 0zm-2.015625 -1.203125q0.484375 0 0.609375 -0.21875q0.125 -0.21875 0.125 -0.578125l0 -1.765625l-2.0 0q-0.421875 0 -0.6875 0.28125q-0.265625 0.265625 -0.265625 0.6875l0 0.796875q0 0.421875 0.1875 0.609375q0.1875 0.1875 0.609375 0.1875l1.421875 0zm9.983765 -11.921875l0 1.203125l-2.078125 0l0 12.640625l2.078125 0l0 1.203125l-3.359375 0l0 -15.046875l3.359375 0zm6.5306396 11.921875l0 -8.734375l-2.265625 0.828125l0 -1.296875l2.109375 -0.796875l1.515625 0l0 10.0l1.734375 0l0 1.203125l-5.1875 0l0 -1.203125l2.09375 0zm11.46814 -1.328125q0 1.328125 -0.640625 1.9375q-0.640625 0.59375 -2.078125 0.59375l-2.09375 0l0 -1.203125l2.234375 0q0.609375 0 0.890625 -0.28125q0.296875 -0.28125 0.296875 -0.890625l0 -2.03125q0 -0.515625 -0.328125 -0.828125q-0.3125 -0.3125 -0.84375 -0.3125l-2.09375 0l0 -5.65625l4.421875 0l0 1.203125l-3.0625 0l0 3.25l0.65625 0q1.234375 0 1.9375 0.609375q0.703125 0.609375 0.703125 1.890625l0 1.71875zm7.0462646 -5.46875l0 1.59375l-1.609375 0l0 -1.59375l1.609375 0zm0 6.40625l0 1.59375l-1.609375 0l0 -1.59375l1.609375 0zm10.78064 -0.9375q0 1.328125 -0.640625 1.9375q-0.640625 0.59375 -2.078125 0.59375l-0.453125 0q-1.4375 0 -2.078125 -0.59375q-0.640625 -0.609375 -0.640625 -1.9375l0 -1.34375q0 -1.390625 1.046875 -1.96875q-0.859375 -0.59375 -0.859375 -1.859375l0 -1.0q0 -1.28125 0.671875 -1.890625q0.671875 -0.609375 1.921875 -0.609375l0.328125 0q1.25 0 1.921875 0.609375q0.671875 0.609375 0.671875 1.890625l0 1.0q0 1.265625 -0.859375 1.859375q1.046875 0.578125 1.046875 1.96875l0 1.34375zm-3.296875 -7.46875q-0.546875 0.015625 -0.78125 0.296875q-0.234375 0.28125 -0.234375 0.859375l0 1.3125q0 0.5 0.296875 0.8125q0.296875 0.3125 0.75 0.34375l0.546875 0q0.5 0 0.8125 -0.3125q0.328125 -0.328125 0.328125 -0.84375l0 -1.3125q0 -0.609375 -0.265625 -0.875q-0.265625 -0.28125 -0.875 -0.28125l-0.578125 0zm1.90625 5.984375q0 -0.53125 -0.328125 -0.84375q-0.3125 -0.3125 -0.84375 -0.3125l-0.765625 0q-0.53125 0 -0.859375 0.3125q-0.3125 0.3125 -0.3125 0.84375l0 1.640625q0 0.59375 0.25 0.890625q0.265625 0.28125 0.8125 0.28125l0.859375 0q0.609375 0 0.890625 -0.28125q0.296875 -0.28125 0.296875 -0.890625l0 -1.640625zm7.4837646 4.734375l0 -12.640625l-2.078125 0l0 -1.203125l3.359375 0l0 15.046875l-3.359375 0l0 -1.203125l2.078125 0z" fill-rule="nonzero"/><path fill="#000000" fill-opacity="0.0" d="m533.87006 479.2152l169.7638 0l0 38.64569l-169.7638 0z" fill-rule="evenodd"/><path fill="#000000" d="m549.62006 501.57523q0 1.015625 -0.625 1.515625q-0.609375 0.484375 -1.765625 0.484375l-2.390625 0l0 -1.203125l2.546875 0q0.421875 0 0.640625 -0.171875q0.234375 -0.1875 0.234375 -0.546875l0 -0.84375q0 -0.71875 -0.6875 -0.71875l-0.59375 0q-1.125 0 -1.671875 -0.484375q-0.546875 -0.5 -0.546875 -1.546875l0 -0.46875q0 -1.078125 0.609375 -1.546875q0.609375 -0.46875 1.78125 -0.46875l2.15625 0l0 1.203125l-2.3125 0q-0.390625 0 -0.640625 0.1875q-0.234375 0.171875 -0.234375 0.53125l0 0.578125q0 0.359375 0.21875 0.546875q0.21875 0.171875 0.546875 0.171875l0.546875 0q1.0625 0 1.625 0.515625q0.5625 0.515625 0.5625 1.546875l0 0.71875zm4.6556396 0.796875l0 -5.59375l-1.171875 0l0 -1.203125l2.453125 0l0 0.4375q0.53125 -0.4375 1.28125 -0.4375l1.640625 0l0 1.28125l-1.796875 0q-0.515625 0 -0.78125 0.328125q-0.25 0.328125 -0.265625 0.65625l0 4.53125l1.75 0l0 1.203125l-4.28125 0l0 -1.203125l1.171875 0zm12.546265 1.203125q-0.203125 0 -0.453125 -0.125q-0.25 -0.125 -0.421875 -0.359375q-0.375 0.484375 -0.984375 0.484375l-1.421875 0q-1.21875 0 -1.765625 -0.484375q-0.546875 -0.484375 -0.546875 -1.671875l0 -0.328125q0 -2.46875 2.328125 -2.46875l1.984375 0l0 -0.8125q0 -0.484375 -0.3125 -0.75q-0.296875 -0.28125 -0.890625 -0.28125l-2.46875 0l0 -1.203125l2.3125 0q1.390625 0 2.046875 0.609375q0.671875 0.609375 0.671875 1.953125l0 3.84375q0 0.234375 0.1875 0.359375q0.1875 0.109375 0.609375 0.109375l0 1.125l-0.875 0zm-2.015625 -1.203125q0.484375 0 0.609375 -0.21875q0.125 -0.21875 0.125 -0.578125l0 -1.765625l-2.0 0q-0.421875 0 -0.6875 0.28125q-0.265625 0.265625 -0.265625 0.6875l0 0.796875q0 0.421875 0.1875 0.609375q0.1875 0.1875 0.609375 0.1875l1.421875 0zm5.8743896 -6.796875l0 0.375q0.40625 -0.375 0.984375 -0.375l0.09375 0q1.125 0 1.59375 0.640625q0.53125 -0.640625 1.390625 -0.640625l0.09375 0q0.984375 0 1.4375 0.5q0.46875 0.484375 0.46875 1.75l0 5.75l-1.28125 0l0 -5.765625q0 -0.65625 -0.140625 -0.90625q-0.125 -0.25 -0.609375 -0.25l-0.09375 0q-0.484375 0 -0.671875 0.328125q-0.1875 0.328125 -0.203125 0.71875l0 5.875l-1.265625 0l0 -5.765625q0 -0.671875 -0.171875 -0.90625q-0.15625 -0.25 -0.578125 -0.25l-0.09375 0q-0.46875 0 -0.671875 0.28125q-0.1875 0.265625 -0.203125 0.625l0 6.015625l-1.28125 0l0 -8.0l1.203125 0zm15.108765 9.515625l0 1.203125l-8.078125 0l0 -1.203125l8.078125 0zm3.0462646 -2.71875l0 -5.59375l-1.171875 0l0 -1.203125l2.453125 0l0 0.4375q0.53125 -0.4375 1.28125 -0.4375l1.640625 0l0 1.28125l-1.796875 0q-0.515625 0 -0.78125 0.328125q-0.25 0.328125 -0.265625 0.65625l0 4.53125l1.75 0l0 1.203125l-4.28125 0l0 -1.203125l1.171875 0zm11.87439 0.828125q-0.53125 0.375 -1.28125 0.375l-0.65625 0q-1.40625 0 -2.0625 -0.59375q-0.65625 -0.609375 -0.65625 -1.96875l0 -2.875q0 -1.34375 0.65625 -1.953125q0.671875 -0.609375 2.0625 -0.609375l1.859375 0l0 -3.203125l1.359375 0l0 11.203125l-1.28125 0l0 -0.375zm-1.125 -0.828125q0.53125 0 0.78125 -0.28125q0.265625 -0.28125 0.265625 -0.59375l0 -4.71875l-2.015625 0q-0.59375 0 -0.90625 0.28125q-0.296875 0.265625 -0.296875 0.75l0 3.53125q0 0.484375 0.296875 0.765625q0.3125 0.265625 0.90625 0.265625l0.96875 0zm10.43689 1.203125q-0.203125 0 -0.453125 -0.125q-0.25 -0.125 -0.421875 -0.359375q-0.375 0.484375 -0.984375 0.484375l-1.421875 0q-1.21875 0 -1.765625 -0.484375q-0.546875 -0.484375 -0.546875 -1.671875l0 -0.328125q0 -2.46875 2.328125 -2.46875l1.984375 0l0 -0.8125q0 -0.484375 -0.3125 -0.75q-0.296875 -0.28125 -0.890625 -0.28125l-2.46875 0l0 -1.203125l2.3125 0q1.390625 0 2.046875 0.609375q0.671875 0.609375 0.671875 1.953125l0 3.84375q0 0.234375 0.1875 0.359375q0.1875 0.109375 0.609375 0.109375l0 1.125l-0.875 0zm-2.015625 -1.203125q0.484375 0 0.609375 -0.21875q0.125 -0.21875 0.125 -0.578125l0 -1.765625l-2.0 0q-0.421875 0 -0.6875 0.28125q-0.265625 0.265625 -0.265625 0.6875l0 0.796875q0 0.421875 0.1875 0.609375q0.1875 0.1875 0.609375 0.1875l1.421875 0zm8.890015 1.203125q-0.8125 0 -1.25 -0.53125q-0.421875 -0.53125 -0.421875 -1.390625l0 -4.875l-1.515625 0l0 -1.203125l1.515625 0l0 -1.921875l1.359375 0l0 1.921875l2.328125 0l0 1.203125l-2.328125 0l0 4.953125q0 0.359375 0.171875 0.5q0.171875 0.140625 0.546875 0.140625l1.609375 0l0 1.203125l-2.015625 0zm10.40564 0q-0.203125 0 -0.453125 -0.125q-0.25 -0.125 -0.421875 -0.359375q-0.375 0.484375 -0.984375 0.484375l-1.421875 0q-1.21875 0 -1.765625 -0.484375q-0.546875 -0.484375 -0.546875 -1.671875l0 -0.328125q0 -2.46875 2.328125 -2.46875l1.984375 0l0 -0.8125q0 -0.484375 -0.3125 -0.75q-0.296875 -0.28125 -0.890625 -0.28125l-2.46875 0l0 -1.203125l2.3125 0q1.390625 0 2.046875 0.609375q0.671875 0.609375 0.671875 1.953125l0 3.84375q0 0.234375 0.1875 0.359375q0.1875 0.109375 0.609375 0.109375l0 1.125l-0.875 0zm-2.015625 -1.203125q0.484375 0 0.609375 -0.21875q0.125 -0.21875 0.125 -0.578125l0 -1.765625l-2.0 0q-0.421875 0 -0.6875 0.28125q-0.265625 0.265625 -0.265625 0.6875l0 0.796875q0 0.421875 0.1875 0.609375q0.1875 0.1875 0.609375 0.1875l1.421875 0zm9.983765 -11.921875l0 1.203125l-2.078125 0l0 12.640625l2.078125 0l0 1.203125l-3.359375 0l0 -15.046875l3.359375 0zm6.8743896 8.0625q0.515625 -0.734375 0.703125 -1.046875q0.1875 -0.3125 0.25 -0.625q0.0625 -0.328125 0.0625 -0.921875l0 -1.125q0 -0.5 -0.375 -0.84375q-0.359375 -0.359375 -0.953125 -0.359375l-1.921875 0l0 -1.21875l1.765625 0q1.390625 0 2.125 0.6875q0.75 0.671875 0.75 2.03125l0 0.671875q0 0.796875 -0.109375 1.296875q-0.109375 0.5 -0.328125 0.890625q-0.203125 0.375 -0.6875 1.0625l-2.359375 3.34375l3.796875 0l0 1.21875l-5.265625 0l0 -1.40625l2.546875 -3.65625zm11.108765 2.53125q0 1.328125 -0.640625 1.9375q-0.640625 0.59375 -2.078125 0.59375l-2.046875 0l0 -1.203125l2.1875 0q0.609375 0 0.890625 -0.28125q0.296875 -0.28125 0.296875 -0.890625l0 -1.640625q0 -0.53125 -0.328125 -0.84375q-0.3125 -0.3125 -0.84375 -0.3125l-1.703125 0l0 -1.203125l1.546875 0q0.5 0 0.828125 -0.3125q0.34375 -0.328125 0.34375 -0.84375l0 -1.3125q0 -0.609375 -0.28125 -0.875q-0.28125 -0.28125 -0.890625 -0.28125l-2.046875 0l0 -1.203125l1.859375 0q1.359375 0 2.046875 0.609375q0.703125 0.59375 0.703125 1.890625l0 1.0q0 1.234375 -0.890625 1.859375q1.046875 0.578125 1.046875 1.96875l0 1.34375zm7.0618896 -5.46875l0 1.59375l-1.609375 0l0 -1.59375l1.609375 0zm0 6.40625l0 1.59375l-1.609375 0l0 -1.59375l1.609375 0zm7.4056396 0.390625l0 -8.734375l-2.265625 0.828125l0 -1.296875l2.109375 -0.796875l1.515625 0l0 10.0l1.734375 0l0 1.203125l-5.1875 0l0 -1.203125l2.09375 0zm11.921265 -1.515625q0 1.3125 -0.71875 2.015625q-0.71875 0.703125 -1.8125 0.703125l-0.5625 0q-1.09375 0 -1.8125 -0.703125q-0.71875 -0.703125 -0.71875 -2.015625l0 -5.765625q0 -1.359375 0.734375 -2.03125q0.734375 -0.6875 2.125 -0.6875l2.0 0l0 1.21875l-2.171875 0q-0.59375 0 -0.96875 0.359375q-0.359375 0.34375 -0.359375 0.84375l0 1.734375l1.578125 0q1.375 0 2.03125 0.609375q0.65625 0.609375 0.65625 1.953125l0 1.765625zm-4.265625 0.296875q0 0.515625 0.328125 0.875q0.34375 0.34375 0.921875 0.34375l0.40625 0q0.578125 0 0.90625 -0.34375q0.34375 -0.359375 0.34375 -0.875l0 -2.359375q0 -0.5 -0.296875 -0.78125q-0.296875 -0.28125 -0.875 -0.28125l-1.734375 0l0 3.421875zm10.452515 3.140625l0 -12.640625l-2.078125 0l0 -1.203125l3.359375 0l0 15.046875l-3.359375 0l0 -1.203125l2.078125 0z" fill-rule="nonzero"/><path fill="#000000" fill-opacity="0.0" d="m536.4029 527.2231l169.7638 0l0 38.64569l-169.7638 0z" fill-rule="evenodd"/><path fill="#000000" d="m552.1529 549.58307q0 1.015625 -0.625 1.515625q-0.609375 0.484375 -1.765625 0.484375l-2.390625 0l0 -1.203125l2.546875 0q0.421875 0 0.640625 -0.171875q0.234375 -0.1875 0.234375 -0.546875l0 -0.84375q0 -0.71875 -0.6875 -0.71875l-0.59375 0q-1.125 0 -1.671875 -0.484375q-0.546875 -0.5 -0.546875 -1.546875l0 -0.46875q0 -1.078125 0.609375 -1.546875q0.609375 -0.46875 1.78125 -0.46875l2.15625 0l0 1.203125l-2.3125 0q-0.390625 0 -0.640625 0.1875q-0.234375 0.171875 -0.234375 0.53125l0 0.578125q0 0.359375 0.21875 0.546875q0.21875 0.171875 0.546875 0.171875l0.546875 0q1.0625 0 1.625 0.515625q0.5625 0.515625 0.5625 1.546875l0 0.71875zm4.6556396 0.796875l0 -5.59375l-1.171875 0l0 -1.203125l2.453125 0l0 0.4375q0.53125 -0.4375 1.28125 -0.4375l1.640625 0l0 1.28125l-1.796875 0q-0.515625 0 -0.78125 0.328125q-0.25 0.328125 -0.265625 0.65625l0 4.53125l1.75 0l0 1.203125l-4.28125 0l0 -1.203125l1.171875 0zm12.546265 1.203125q-0.203125 0 -0.453125 -0.125q-0.25 -0.125 -0.421875 -0.359375q-0.375 0.484375 -0.984375 0.484375l-1.421875 0q-1.21875 0 -1.765625 -0.484375q-0.546875 -0.484375 -0.546875 -1.671875l0 -0.328125q0 -2.46875 2.328125 -2.46875l1.984375 0l0 -0.8125q0 -0.484375 -0.3125 -0.75q-0.296875 -0.28125 -0.890625 -0.28125l-2.46875 0l0 -1.203125l2.3125 0q1.390625 0 2.046875 0.609375q0.671875 0.609375 0.671875 1.953125l0 3.84375q0 0.234375 0.1875 0.359375q0.1875 0.109375 0.609375 0.109375l0 1.125l-0.875 0zm-2.015625 -1.203125q0.484375 0 0.609375 -0.21875q0.125 -0.21875 0.125 -0.578125l0 -1.765625l-2.0 0q-0.421875 0 -0.6875 0.28125q-0.265625 0.265625 -0.265625 0.6875l0 0.796875q0 0.421875 0.1875 0.609375q0.1875 0.1875 0.609375 0.1875l1.421875 0zm5.8743896 -6.796875l0 0.375q0.40625 -0.375 0.984375 -0.375l0.09375 0q1.125 0 1.59375 0.640625q0.53125 -0.640625 1.390625 -0.640625l0.09375 0q0.984375 0 1.4375 0.5q0.46875 0.484375 0.46875 1.75l0 5.75l-1.28125 0l0 -5.765625q0 -0.65625 -0.140625 -0.90625q-0.125 -0.25 -0.609375 -0.25l-0.09375 0q-0.484375 0 -0.671875 0.328125q-0.1875 0.328125 -0.203125 0.71875l0 5.875l-1.265625 0l0 -5.765625q0 -0.671875 -0.171875 -0.90625q-0.15625 -0.25 -0.578125 -0.25l-0.09375 0q-0.46875 0 -0.671875 0.28125q-0.1875 0.265625 -0.203125 0.625l0 6.015625l-1.28125 0l0 -8.0l1.203125 0zm15.108765 9.515625l0 1.203125l-8.078125 0l0 -1.203125l8.078125 0zm3.0462646 -2.71875l0 -5.59375l-1.171875 0l0 -1.203125l2.453125 0l0 0.4375q0.53125 -0.4375 1.28125 -0.4375l1.640625 0l0 1.28125l-1.796875 0q-0.515625 0 -0.78125 0.328125q-0.25 0.328125 -0.265625 0.65625l0 4.53125l1.75 0l0 1.203125l-4.28125 0l0 -1.203125l1.171875 0zm11.87439 0.828125q-0.53125 0.375 -1.28125 0.375l-0.65625 0q-1.40625 0 -2.0625 -0.59375q-0.65625 -0.609375 -0.65625 -1.96875l0 -2.875q0 -1.34375 0.65625 -1.953125q0.671875 -0.609375 2.0625 -0.609375l1.859375 0l0 -3.203125l1.359375 0l0 11.203125l-1.28125 0l0 -0.375zm-1.125 -0.828125q0.53125 0 0.78125 -0.28125q0.265625 -0.28125 0.265625 -0.59375l0 -4.71875l-2.015625 0q-0.59375 0 -0.90625 0.28125q-0.296875 0.265625 -0.296875 0.75l0 3.53125q0 0.484375 0.296875 0.765625q0.3125 0.265625 0.90625 0.265625l0.96875 0zm10.43689 1.203125q-0.203125 0 -0.453125 -0.125q-0.25 -0.125 -0.421875 -0.359375q-0.375 0.484375 -0.984375 0.484375l-1.421875 0q-1.21875 0 -1.765625 -0.484375q-0.546875 -0.484375 -0.546875 -1.671875l0 -0.328125q0 -2.46875 2.328125 -2.46875l1.984375 0l0 -0.8125q0 -0.484375 -0.3125 -0.75q-0.296875 -0.28125 -0.890625 -0.28125l-2.46875 0l0 -1.203125l2.3125 0q1.390625 0 2.046875 0.609375q0.671875 0.609375 0.671875 1.953125l0 3.84375q0 0.234375 0.1875 0.359375q0.1875 0.109375 0.609375 0.109375l0 1.125l-0.875 0zm-2.015625 -1.203125q0.484375 0 0.609375 -0.21875q0.125 -0.21875 0.125 -0.578125l0 -1.765625l-2.0 0q-0.421875 0 -0.6875 0.28125q-0.265625 0.265625 -0.265625 0.6875l0 0.796875q0 0.421875 0.1875 0.609375q0.1875 0.1875 0.609375 0.1875l1.421875 0zm8.890015 1.203125q-0.8125 0 -1.25 -0.53125q-0.421875 -0.53125 -0.421875 -1.390625l0 -4.875l-1.515625 0l0 -1.203125l1.515625 0l0 -1.921875l1.359375 0l0 1.921875l2.328125 0l0 1.203125l-2.328125 0l0 4.953125q0 0.359375 0.171875 0.5q0.171875 0.140625 0.546875 0.140625l1.609375 0l0 1.203125l-2.015625 0zm10.40564 0q-0.203125 0 -0.453125 -0.125q-0.25 -0.125 -0.421875 -0.359375q-0.375 0.484375 -0.984375 0.484375l-1.421875 0q-1.21875 0 -1.765625 -0.484375q-0.546875 -0.484375 -0.546875 -1.671875l0 -0.328125q0 -2.46875 2.328125 -2.46875l1.984375 0l0 -0.8125q0 -0.484375 -0.3125 -0.75q-0.296875 -0.28125 -0.890625 -0.28125l-2.46875 0l0 -1.203125l2.3125 0q1.390625 0 2.046875 0.609375q0.671875 0.609375 0.671875 1.953125l0 3.84375q0 0.234375 0.1875 0.359375q0.1875 0.109375 0.609375 0.109375l0 1.125l-0.875 0zm-2.015625 -1.203125q0.484375 0 0.609375 -0.21875q0.125 -0.21875 0.125 -0.578125l0 -1.765625l-2.0 0q-0.421875 0 -0.6875 0.28125q-0.265625 0.265625 -0.265625 0.6875l0 0.796875q0 0.421875 0.1875 0.609375q0.1875 0.1875 0.609375 0.1875l1.421875 0zm9.983765 -11.921875l0 1.203125l-2.078125 0l0 12.640625l2.078125 0l0 1.203125l-3.359375 0l0 -15.046875l3.359375 0zm9.34314 10.59375q0 1.328125 -0.640625 1.9375q-0.640625 0.59375 -2.078125 0.59375l-2.046875 0l0 -1.203125l2.1875 0q0.609375 0 0.890625 -0.28125q0.296875 -0.28125 0.296875 -0.890625l0 -1.640625q0 -0.53125 -0.328125 -0.84375q-0.3125 -0.3125 -0.84375 -0.3125l-1.703125 0l0 -1.203125l1.546875 0q0.5 0 0.828125 -0.3125q0.34375 -0.328125 0.34375 -0.84375l0 -1.3125q0 -0.609375 -0.28125 -0.875q-0.28125 -0.28125 -0.890625 -0.28125l-2.046875 0l0 -1.203125l1.859375 0q1.359375 0 2.046875 0.609375q0.703125 0.59375 0.703125 1.890625l0 1.0q0 1.234375 -0.890625 1.859375q1.046875 0.578125 1.046875 1.96875l0 1.34375zm5.8275146 1.328125l0 -8.734375l-2.265625 0.828125l0 -1.296875l2.109375 -0.796875l1.515625 0l0 10.0l1.734375 0l0 1.203125l-5.1875 0l0 -1.203125l2.09375 0zm9.87439 -6.796875l0 1.59375l-1.609375 0l0 -1.59375l1.609375 0zm0 6.40625l0 1.59375l-1.609375 0l0 -1.59375l1.609375 0zm7.7493896 -3.46875q0.515625 -0.734375 0.703125 -1.046875q0.1875 -0.3125 0.25 -0.625q0.0625 -0.328125 0.0625 -0.921875l0 -1.125q0 -0.5 -0.375 -0.84375q-0.359375 -0.359375 -0.953125 -0.359375l-1.921875 0l0 -1.21875l1.765625 0q1.390625 0 2.125 0.6875q0.75 0.671875 0.75 2.03125l0 0.671875q0 0.796875 -0.109375 1.296875q-0.109375 0.5 -0.328125 0.890625q-0.203125 0.375 -0.6875 1.0625l-2.359375 3.34375l3.796875 0l0 1.21875l-5.265625 0l0 -1.40625l2.546875 -3.65625zm9.09314 5.0625l0 -2.5l-3.296875 0l0 -1.375l1.71875 -7.328125l1.296875 0l-1.640625 7.546875l1.921875 0l0 -3.65625l1.359375 0l0 3.65625l1.203125 0l0 1.15625l-1.203125 0l0 2.5l-1.359375 0zm8.671265 0.71875l0 -12.640625l-2.078125 0l0 -1.203125l3.359375 0l0 15.046875l-3.359375 0l0 -1.203125l2.078125 0z" fill-rule="nonzero"/><path fill="#ffffff" d="m407.40945 491.43005l0 -135.6063l31.855652 27.121246l0 81.36377z" fill-rule="evenodd"/><path stroke="#000000" stroke-width="2.0" stroke-linejoin="round" stroke-linecap="butt" d="m407.40945 491.43005l0 -135.6063l31.855652 27.121246l0 81.36377z" fill-rule="evenodd"/><path fill="#ffffff" d="m252.65617 436.95538l60.73491 0l0 90.2677l-60.73491 0z" fill-rule="evenodd"/><path stroke="#000000" stroke-width="2.0" stroke-linejoin="round" stroke-linecap="butt" d="m252.65617 436.95538l60.73491 0l0 90.2677l-60.73491 0z" fill-rule="evenodd"/><path fill="#ffffff" d="m252.65617 505.80054l12.724411 7.354309l-12.724411 7.35437z" fill-rule="evenodd"/><path stroke="#000000" stroke-width="2.0" stroke-linejoin="round" stroke-linecap="butt" d="m252.65617 505.80054l12.724411 7.354309l-12.724411 7.35437z" fill-rule="evenodd"/><path fill="#000000" fill-opacity="0.0" d="m312.4908 453.79004l94.04724 0" fill-rule="evenodd"/><path stroke="#000000" stroke-width="2.0" stroke-linejoin="round" stroke-linecap="butt" d="m312.4908 453.79004l94.04724 0" fill-rule="evenodd"/><path fill="#000000" fill-opacity="0.0" d="m28.409449 397.95538l378.11023 0" fill-rule="evenodd"/><path stroke="#000000" stroke-width="2.0" stroke-linejoin="round" stroke-linecap="butt" d="m28.409449 397.95538l378.11023 0" fill-rule="evenodd"/><path fill="#000000" fill-opacity="0.0" d="m201.79527 397.95538l0 60.724396" fill-rule="evenodd"/><path stroke="#000000" stroke-width="2.0" stroke-linejoin="round" stroke-linecap="butt" d="m201.79527 397.95538l0 60.724396" fill-rule="evenodd"/><path fill="#000000" fill-opacity="0.0" d="m201.79527 458.68765l49.95276 0" fill-rule="evenodd"/><path stroke="#000000" stroke-width="2.0" stroke-linejoin="round" stroke-linecap="butt" d="m201.79527 458.68765l49.95276 0" fill-rule="evenodd"/><path fill="#000000" fill-opacity="0.0" d="m423.33728 369.38437l0 -120.31496" fill-rule="evenodd"/><path stroke="#cc0000" stroke-width="2.0" stroke-linejoin="round" stroke-linecap="butt" d="m423.33728 362.5302l0 -113.4608" fill-rule="evenodd"/><path fill="#cc0000" stroke="#cc0000" stroke-width="2.0" stroke-linecap="butt" d="m423.33728 362.5302l-2.249176 -2.249176l2.249176 6.1795654l2.2491455 -6.1795654z" fill-rule="evenodd"/><path fill="#000000" fill-opacity="0.0" d="m461.98425 395.99475l0 -132.25198l-38.64566 0l0 132.25198z" fill-rule="evenodd"/><path fill="#000000" d="m437.62424 277.64902q0 -0.8125 0.53125 -1.25q0.53125 -0.421875 1.390625 -0.421875l4.875 0l0 -1.515625l1.203125 0l0 1.515625l1.921875 0l0 1.359375l-1.921875 0l0 2.328125l-1.203125 0l0 -2.328125l-4.953125 0q-0.359375 0 -0.5 0.171875q-0.140625 0.171875 -0.140625 0.546875l0 1.609375l-1.203125 0l0 -2.015625zm0 6.2806396l0 -1.5l4.125 2.484375l3.875 -2.296875l0 1.578125l-2.6875 1.53125l2.6875 1.546875l0 1.484375l-3.8125 -2.328125l-4.1875 2.53125l0 -1.59375l3.03125 -1.6875l-3.03125 -1.75zm10.0 10.952515q0 -0.25 -0.140625 -0.40625q-0.125 -0.15625 -0.34375 -0.15625l-1.515625 0l0 2.578125l-1.203125 0l0 -2.578125l-5.59375 0l0 1.9375l-1.203125 0l0 -4.65625l1.203125 0l0 1.359375l5.59375 0l0 -1.359375l1.203125 0l0 1.359375l1.4375 0q0.8125 0 1.28125 0.46875q0.484375 0.46875 0.484375 1.203125l0 2.4375l-1.203125 0l0 -2.1875zm-11.515625 12.140015l-1.203125 0l0 -8.078125l1.203125 0l0 8.078125zm3.515625 7.0306396q-1.015625 0 -1.515625 -0.625q-0.484375 -0.609375 -0.484375 -1.765625l0 -2.390625l1.203125 0l0 2.546875q0 0.421875 0.171875 0.640625q0.1875 0.234375 0.546875 0.234375l0.84375 0q0.71875 0 0.71875 -0.6875l0 -0.59375q0 -1.125 0.484375 -1.671875q0.5 -0.546875 1.546875 -0.546875l0.46875 0q1.078125 0 1.546875 0.609375q0.46875 0.609375 0.46875 1.78125l0 2.15625l-1.203125 0l0 -2.3125q0 -0.390625 -0.1875 -0.640625q-0.171875 -0.234375 -0.53125 -0.234375l-0.578125 0q-0.359375 0 -0.546875 0.21875q-0.171875 0.21875 -0.171875 0.546875l0 0.546875q0 1.0625 -0.515625 1.625q-0.515625 0.5625 -1.546875 0.5625l-0.71875 0zm-2.0 6.1087646q0 -1.40625 0.59375 -2.0625q0.609375 -0.65625 1.96875 -0.65625l2.875 0q1.375 0 1.96875 0.59375q0.59375 0.59375 0.59375 1.96875l0 0.75q0 1.140625 -0.640625 1.71875q-0.625 0.59375 -1.84375 0.59375l-2.078125 0l0 -4.265625l-1.203125 0q-0.484375 0 -0.765625 0.296875q-0.265625 0.3125 -0.265625 0.90625l0 2.546875l-1.203125 0l0 -2.390625zm5.84375 1.578125q0.40625 0 0.671875 -0.28125q0.28125 -0.265625 0.28125 -0.6875l0 -0.921875q0 -0.578125 -0.265625 -0.8125q-0.265625 -0.234375 -0.765625 -0.234375l-1.125 0l0 2.9375l1.203125 0zm-5.84375 7.6712646q0 -0.546875 0.375 -0.953125q0.390625 -0.40625 1.21875 -0.40625l8.40625 0l0 -2.34375l1.203125 0l0 3.703125l-9.515625 0q-0.265625 0 -0.375 0.125q-0.109375 0.140625 -0.109375 0.4375l0 2.125l-1.203125 0l0 -2.6875z" fill-rule="nonzero"/><path fill="#000000" fill-opacity="0.0" d="m27.427822 567.0236l256.56693 0" fill-rule="evenodd"/><path stroke="#000000" stroke-width="2.0" stroke-linejoin="round" stroke-linecap="butt" d="m27.427822 567.0236l256.56693 0" fill-rule="evenodd"/><path fill="#000000" fill-opacity="0.0" d="m283.02362 527.2231l0 39.62207" fill-rule="evenodd"/><path stroke="#000000" stroke-width="2.0" stroke-linejoin="round" stroke-linecap="butt" d="m283.02362 534.0773l0 32.767883" fill-rule="evenodd"/><path fill="#000000" stroke="#000000" stroke-width="2.0" stroke-linecap="butt" d="m283.02362 534.0773l2.249176 2.2491455l-2.249176 -6.1795044l-2.249176 6.1795044z" fill-rule="evenodd"/><path fill="#000000" fill-opacity="0.0" d="m30.14567 527.7113l159.21259 0l0 38.64563l-159.21259 0z" fill-rule="evenodd"/><path fill="#000000" d="m45.895668 550.0713q0 1.015625 -0.625 1.515625q-0.609375 0.484375 -1.765625 0.484375l-2.390625 0l0 -1.203125l2.546875 0q0.421875 0 0.640625 -0.171875q0.234375 -0.1875 0.234375 -0.546875l0 -0.84375q0 -0.71875 -0.6875 -0.71875l-0.59375 0q-1.125 0 -1.671875 -0.484375q-0.546875 -0.5 -0.546875 -1.546875l0 -0.46875q0 -1.078125 0.609375 -1.546875q0.609375 -0.46875 1.78125 -0.46875l2.15625 0l0 1.203125l-2.3125 0q-0.390625 0 -0.640625 0.1875q-0.234375 0.171875 -0.234375 0.53125l0 0.578125q0 0.359375 0.21875 0.546875q0.21875 0.171875 0.546875 0.171875l0.546875 0q1.0625 0 1.625 0.515625q0.5625 0.515625 0.5625 1.546875l0 0.71875zm4.6556396 0.796875l0 -5.59375l-1.171875 0l0 -1.203125l2.453125 0l0 0.4375q0.53125 -0.4375 1.28125 -0.4375l1.640625 0l0 1.28125l-1.796875 0q-0.515625 0 -0.78125 0.328125q-0.25 0.328125 -0.265625 0.65625l0 4.53125l1.75 0l0 1.203125l-4.28125 0l0 -1.203125l1.171875 0zm12.546265 1.203125q-0.203125 0 -0.453125 -0.125q-0.25 -0.125 -0.421875 -0.359375q-0.375 0.484375 -0.984375 0.484375l-1.421875 0q-1.21875 0 -1.765625 -0.484375q-0.546875 -0.484375 -0.546875 -1.671875l0 -0.328125q0 -2.46875 2.328125 -2.46875l1.984375 0l0 -0.8125q0 -0.484375 -0.3125 -0.75q-0.296875 -0.28125 -0.890625 -0.28125l-2.46875 0l0 -1.203125l2.3125 0q1.390625 0 2.046875 0.609375q0.671875 0.609375 0.671875 1.953125l0 3.84375q0 0.234375 0.1875 0.359375q0.1875 0.109375 0.609375 0.109375l0 1.125l-0.875 0zm-2.015625 -1.203125q0.484375 0 0.609375 -0.21875q0.125 -0.21875 0.125 -0.578125l0 -1.765625l-2.0 0q-0.421875 0 -0.6875 0.28125q-0.265625 0.265625 -0.265625 0.6875l0 0.796875q0 0.421875 0.1875 0.609375q0.1875 0.1875 0.609375 0.1875l1.421875 0zm5.8743896 -6.796875l0 0.375q0.40625 -0.375 0.984375 -0.375l0.09375 0q1.125 0 1.59375 0.640625q0.53125 -0.640625 1.390625 -0.640625l0.09375 0q0.984375 0 1.4375 0.5q0.46875 0.484375 0.46875 1.75l0 5.75l-1.28125 0l0 -5.765625q0 -0.65625 -0.140625 -0.90625q-0.125 -0.25 -0.609375 -0.25l-0.09375 0q-0.484375 0 -0.671875 0.328125q-0.1875 0.328125 -0.203125 0.71875l0 5.875l-1.265625 0l0 -5.765625q0 -0.671875 -0.171875 -0.90625q-0.15625 -0.25 -0.578125 -0.25l-0.09375 0q-0.46875 0 -0.671875 0.28125q-0.1875 0.265625 -0.203125 0.625l0 6.015625l-1.28125 0l0 -8.0l1.203125 0zm15.108765 9.515625l0 1.203125l-8.078125 0l0 -1.203125l8.078125 0zm3.0462646 -2.71875l0 -5.59375l-1.171875 0l0 -1.203125l2.453125 0l0 0.4375q0.53125 -0.4375 1.28125 -0.4375l1.640625 0l0 1.28125l-1.796875 0q-0.515625 0 -0.78125 0.328125q-0.25 0.328125 -0.265625 0.65625l0 4.53125l1.75 0l0 1.203125l-4.28125 0l0 -1.203125l1.171875 0zm6.9056396 -6.796875l1.46875 0l1.875 6.890625l1.8125 -6.890625l1.421875 0l-2.296875 8.0l-1.96875 0l-2.3125 -8.0zm14.28064 8.0q-0.203125 0 -0.453125 -0.125q-0.25 -0.125 -0.421875 -0.359375q-0.375 0.484375 -0.984375 0.484375l-1.421875 0q-1.21875 0 -1.765625 -0.484375q-0.546875 -0.484375 -0.546875 -1.671875l0 -0.328125q0 -2.46875 2.328125 -2.46875l1.984375 0l0 -0.8125q0 -0.484375 -0.3125 -0.75q-0.296875 -0.28125 -0.890625 -0.28125l-2.46875 0l0 -1.203125l2.3125 0q1.390625 0 2.046875 0.609375q0.671875 0.609375 0.671875 1.953125l0 3.84375q0 0.234375 0.1875 0.359375q0.1875 0.109375 0.609375 0.109375l0 1.125l-0.875 0zm-2.015625 -1.203125q0.484375 0 0.609375 -0.21875q0.125 -0.21875 0.125 -0.578125l0 -1.765625l-2.0 0q-0.421875 0 -0.6875 0.28125q-0.265625 0.265625 -0.265625 0.6875l0 0.796875q0 0.421875 0.1875 0.609375q0.1875 0.1875 0.609375 0.1875l1.421875 0zm8.81189 1.203125q-0.546875 0 -0.953125 -0.375q-0.40625 -0.390625 -0.40625 -1.21875l0 -8.40625l-2.34375 0l0 -1.203125l3.703125 0l0 9.515625q0 0.265625 0.125 0.375q0.140625 0.109375 0.4375 0.109375l2.125 0l0 1.203125l-2.6875 0zm8.890015 -11.203125l0 1.4375l-1.53125 0l0 -1.4375l1.53125 0zm-3.796875 4.40625l0 -1.203125l3.703125 0l0 6.796875l2.375 0l0 1.203125l-3.734375 0l0 -6.796875l-2.34375 0zm13.358772 6.421875q-0.53125 0.375 -1.28125 0.375l-0.65625 0q-1.40625 0 -2.0625076 -0.59375q-0.65625 -0.609375 -0.65625 -1.96875l0 -2.875q0 -1.34375 0.65625 -1.953125q0.6718826 -0.609375 2.0625076 -0.609375l1.859375 0l0 -3.203125l1.359375 0l0 11.203125l-1.28125 0l0 -0.375zm-1.125 -0.828125q0.53125 0 0.78125 -0.28125q0.265625 -0.28125 0.265625 -0.59375l0 -4.71875l-2.015625 0q-0.59375 0 -0.90625 0.28125q-0.296875 0.265625 -0.296875 0.75l0 3.53125q0 0.484375 0.296875 0.765625q0.3125 0.265625 0.90625 0.265625l0.96875 0z" fill-rule="nonzero"/><path fill="#000000" fill-opacity="0.0" d="m312.4908 497.3596l-46.173218 0l0 29.858246l46.173218 0z" fill-rule="evenodd"/><path fill="#000000" d="m278.83322 519.1596q-1.171875 0 -1.71875 -0.5q-0.546875 -0.5 -0.546875 -1.625l0 -2.40625q0 -1.140625 0.484375 -1.625q0.5 -0.5 1.65625 -0.5l0.625 0q0.9375 0 1.421875 0.53125q0.5 0.515625 0.5 1.53125l0 1.734375l-3.546875 0l0 1.0q0 0.40625 0.25 0.640625q0.25 0.21875 0.75 0.21875l2.109375 0l0 1.0l-1.984375 0zm1.3125 -4.859375q0 -0.359375 -0.234375 -0.578125q-0.21875 -0.234375 -0.5625 -0.234375l-0.78125 0q-0.484375 0 -0.671875 0.234375q-0.1875 0.21875 -0.1875 0.640625l0 0.9375l2.4375 0l0 -1.0zm4.5877686 -1.796875l0 0.3125q0.421875 -0.3125 1.078125 -0.3125l0.609375 0q1.078125 0 1.59375 0.5q0.53125 0.5 0.53125 1.625l0 4.53125l-1.125 0l0 -4.796875q0 -0.40625 -0.234375 -0.640625q-0.234375 -0.234375 -0.640625 -0.234375l-0.875 0q-0.4375 0 -0.65625 0.234375q-0.203125 0.234375 -0.203125 0.5l0 4.9375l-1.140625 0l0 -6.65625l1.0625 0z" fill-rule="nonzero"/><path fill="#ffffff" d="m617.39105 117.93438l60.734924 0l0 90.26772l-60.734924 0z" fill-rule="evenodd"/><path stroke="#000000" stroke-width="2.0" stroke-linejoin="round" stroke-linecap="butt" d="m617.39105 117.93438l60.734924 0l0 90.26772l-60.734924 0z" fill-rule="evenodd"/><path fill="#ffffff" d="m617.39105 186.77953l12.724426 7.3543396l-12.724426 7.3543243z" fill-rule="evenodd"/><path stroke="#000000" stroke-width="2.0" stroke-linejoin="round" stroke-linecap="butt" d="m617.39105 186.77953l12.724426 7.3543396l-12.724426 7.3543243z" fill-rule="evenodd"/><path fill="#000000" fill-opacity="0.0" d="m469.2257 80.0l217.07086 0l0 146.92914l-217.07086 0z" fill-rule="evenodd"/><path stroke="#666666" stroke-width="2.0" stroke-linejoin="round" stroke-linecap="butt" stroke-dasharray="2.0,6.0" d="m469.2257 80.0l217.07086 0l0 146.92914l-217.07086 0z" fill-rule="evenodd"/><path fill="#666666" d="m485.61633 101.64125q0 1.359375 -0.75 2.046875q-0.734375 0.671875 -2.125 0.671875l-0.40625 0q-1.390625 0 -2.140625 -0.671875q-0.734375 -0.6875 -0.734375 -2.046875l0 -8.484375l1.390625 0l0 8.78125q0 0.5 0.359375 0.859375q0.375 0.34375 0.96875 0.34375l0.71875 0q0.59375 0 0.953125 -0.34375q0.375 -0.359375 0.375 -0.859375l0 -8.78125l1.390625 0l0 8.484375zm3.9212646 -5.28125l0 0.390625q0.5 -0.390625 1.28125 -0.390625l0.578125 0q1.40625 0 2.0625 0.609375q0.65625 0.59375 0.65625 1.953125l0 2.875q0 1.34375 -0.671875 1.953125q-0.65625 0.609375 -2.046875 0.609375l-1.78125 0l0 2.71875l-1.359375 0l0 -10.71875l1.28125 0zm1.125 1.203125q-0.53125 0 -0.796875 0.28125q-0.25 0.28125 -0.25 0.59375l0 4.71875l1.9375 0q0.59375 0 0.890625 -0.265625q0.3125 -0.28125 0.3125 -0.765625l0 -3.53125q0 -0.484375 -0.3125 -0.75q-0.296875 -0.28125 -0.890625 -0.28125l-0.890625 0zm10.84314 6.421875q-0.53125 0.375 -1.28125 0.375l-0.65625 0q-1.40625 0 -2.0625 -0.59375q-0.65625 -0.609375 -0.65625 -1.96875l0 -2.875q0 -1.34375 0.65625 -1.953125q0.671875 -0.609375 2.0625 -0.609375l1.859375 0l0 -3.203125l1.359375 0l0 11.203125l-1.28125 0l0 -0.375zm-1.125 -0.828125q0.53125 0 0.78125 -0.28125q0.265625 -0.28125 0.265625 -0.59375l0 -4.71875l-2.015625 0q-0.59375 0 -0.90625 0.28125q-0.296875 0.265625 -0.296875 0.75l0 3.53125q0 0.484375 0.296875 0.765625q0.3125 0.265625 0.90625 0.265625l0.96875 0zm10.43689 1.203125q-0.203125 0 -0.453125 -0.125q-0.25 -0.125 -0.421875 -0.359375q-0.375 0.484375 -0.984375 0.484375l-1.421875 0q-1.21875 0 -1.765625 -0.484375q-0.546875 -0.484375 -0.546875 -1.671875l0 -0.328125q0 -2.46875 2.328125 -2.46875l1.984375 0l0 -0.8125q0 -0.484375 -0.3125 -0.75q-0.296875 -0.28125 -0.890625 -0.28125l-2.46875 0l0 -1.203125l2.3125 0q1.390625 0 2.046875 0.609375q0.671875 0.609375 0.671875 1.953125l0 3.84375q0 0.234375 0.1875 0.359375q0.1875 0.109375 0.609375 0.109375l0 1.125l-0.875 0zm-2.015625 -1.203125q0.484375 0 0.609375 -0.21875q0.125 -0.21875 0.125 -0.578125l0 -1.765625l-2.0 0q-0.421875 0 -0.6875 0.28125q-0.265625 0.265625 -0.265625 0.6875l0 0.796875q0 0.421875 0.1875 0.609375q0.1875 0.1875 0.609375 0.1875l1.421875 0zm8.890015 1.203125q-0.8125 0 -1.25 -0.53125q-0.421875 -0.53125 -0.421875 -1.390625l0 -4.875l-1.515625 0l0 -1.203125l1.515625 0l0 -1.921875l1.359375 0l0 1.921875l2.328125 0l0 1.203125l-2.328125 0l0 4.953125q0 0.359375 0.171875 0.5q0.171875 0.140625 0.546875 0.140625l1.609375 0l0 1.203125l-2.015625 0zm7.9525146 0q-1.40625 0 -2.0625 -0.59375q-0.65625 -0.609375 -0.65625 -1.96875l0 -2.875q0 -1.375 0.59375 -1.96875q0.59375 -0.59375 1.96875 -0.59375l0.75 0q1.140625 0 1.71875 0.640625q0.59375 0.625 0.59375 1.84375l0 2.078125l-4.265625 0l0 1.203125q0 0.484375 0.296875 0.765625q0.3125 0.265625 0.90625 0.265625l2.546875 0l0 1.203125l-2.390625 0zm1.578125 -5.84375q0 -0.40625 -0.28125 -0.671875q-0.265625 -0.28125 -0.6875 -0.28125l-0.921875 0q-0.578125 0 -0.8125 0.265625q-0.234375 0.265625 -0.234375 0.765625l0 1.125l2.9375 0l0 -1.203125zm18.701904 -1.03125q0 1.296875 -0.6875 1.90625q-0.6875 0.609375 -2.03125 0.609375l-1.671875 0l0 4.359375l-1.390625 0l0 -11.203125l3.03125 0q1.359375 0 2.046875 0.609375q0.703125 0.59375 0.703125 1.890625l0 1.828125zm-1.390625 -1.96875q0 -0.609375 -0.28125 -0.875q-0.28125 -0.28125 -0.890625 -0.28125l-1.828125 0l0 4.453125l1.828125 0q0.609375 0 0.890625 -0.28125q0.28125 -0.28125 0.28125 -0.890625l0 -2.125zm10.108765 6.28125q0 1.34375 -0.671875 1.953125q-0.65625 0.609375 -2.046875 0.609375l-0.53125 0q-1.390625 0 -2.0625 -0.609375q-0.65625 -0.609375 -0.65625 -1.953125l0 -2.875q0 -1.34375 0.65625 -1.953125q0.671875 -0.609375 2.0625 -0.609375l0.53125 0q1.390625 0 2.046875 0.609375q0.671875 0.609375 0.671875 1.953125l0 2.875zm-1.359375 -3.203125q0 -0.484375 -0.3125 -0.75q-0.296875 -0.28125 -0.890625 -0.28125l-0.84375 0q-0.59375 0 -0.90625 0.28125q-0.296875 0.265625 -0.296875 0.75l0 3.53125q0 0.484375 0.296875 0.765625q0.3125 0.265625 0.90625 0.265625l0.84375 0q0.59375 0 0.890625 -0.265625q0.3125 -0.28125 0.3125 -0.765625l0 -3.53125zm9.452515 3.765625q0 1.015625 -0.625 1.515625q-0.609375 0.484375 -1.765625 0.484375l-2.390625 0l0 -1.203125l2.546875 0q0.421875 0 0.640625 -0.171875q0.234375 -0.1875 0.234375 -0.546875l0 -0.84375q0 -0.71875 -0.6875 -0.71875l-0.59375 0q-1.125 0 -1.671875 -0.484375q-0.546875 -0.5 -0.546875 -1.546875l0 -0.46875q0 -1.078125 0.609375 -1.546875q0.609375 -0.46875 1.78125 -0.46875l2.15625 0l0 1.203125l-2.3125 0q-0.390625 0 -0.640625 0.1875q-0.234375 0.171875 -0.234375 0.53125l0 0.578125q0 0.359375 0.21875 0.546875q0.21875 0.171875 0.546875 0.171875l0.546875 0q1.0625 0 1.625 0.515625q0.5625 0.515625 0.5625 1.546875l0 0.71875zm14.576904 2.0q-1.4375 0 -2.078125 -0.59375q-0.640625 -0.609375 -0.640625 -1.9375l0 -2.015625q0 -1.390625 1.046875 -1.96875q-0.890625 -0.625 -0.890625 -1.859375l0 -0.328125q0 -1.296875 0.6875 -1.890625q0.703125 -0.609375 2.0625 -0.609375l1.703125 0l0 1.203125l-1.890625 0q-0.609375 0 -0.890625 0.28125q-0.28125 0.265625 -0.28125 0.875l0 0.640625q0 0.515625 0.328125 0.84375q0.34375 0.3125 0.84375 0.3125l3.890625 0l0 1.203125l-1.265625 0l0 5.84375l-2.625 0zm-0.15625 -5.84375q-0.53125 0 -0.859375 0.3125q-0.3125 0.3125 -0.3125 0.84375l0 2.3125q0 0.609375 0.28125 0.890625q0.296875 0.28125 0.90625 0.28125l1.46875 0l0 -4.640625l-1.484375 0zm20.608154 -1.03125q0 1.296875 -0.6875 1.90625q-0.6875 0.609375 -2.03125 0.609375l-1.671875 0l0 4.359375l-1.390625 0l0 -11.203125l3.03125 0q1.359375 0 2.046875 0.609375q0.703125 0.59375 0.703125 1.890625l0 1.828125zm-1.390625 -1.96875q0 -0.609375 -0.28125 -0.875q-0.28125 -0.28125 -0.890625 -0.28125l-1.828125 0l0 4.453125l1.828125 0q0.609375 0 0.890625 -0.28125q0.28125 -0.28125 0.28125 -0.890625l0 -2.125zm10.108765 6.28125q0 1.34375 -0.671875 1.953125q-0.65625 0.609375 -2.046875 0.609375l-0.53125 0q-1.390625 0 -2.0625 -0.609375q-0.65625 -0.609375 -0.65625 -1.953125l0 -2.875q0 -1.34375 0.65625 -1.953125q0.671875 -0.609375 2.0625 -0.609375l0.53125 0q1.390625 0 2.046875 0.609375q0.671875 0.609375 0.671875 1.953125l0 2.875zm-1.359375 -3.203125q0 -0.484375 -0.3125 -0.75q-0.296875 -0.28125 -0.890625 -0.28125l-0.84375 0q-0.59375 0 -0.90625 0.28125q-0.296875 0.265625 -0.296875 0.75l0 3.53125q0 0.484375 0.296875 0.765625q0.3125 0.265625 0.90625 0.265625l0.84375 0q0.59375 0 0.890625 -0.265625q0.3125 -0.28125 0.3125 -0.765625l0 -3.53125zm7.7806396 -5.4375l0 1.4375l-1.53125 0l0 -1.4375l1.53125 0zm-3.796875 4.40625l0 -1.203125l3.703125 0l0 6.796875l2.375 0l0 1.203125l-3.734375 0l0 -6.796875l-2.34375 0zm10.03064 -1.203125l0 0.390625q0.5 -0.390625 1.28125 -0.390625l0.734375 0q1.296875 0 1.921875 0.609375q0.640625 0.609375 0.640625 1.953125l0 5.4375l-1.359375 0l0 -5.765625q0 -0.46875 -0.28125 -0.75q-0.28125 -0.28125 -0.765625 -0.28125l-1.046875 0q-0.53125 0 -0.796875 0.28125q-0.25 0.28125 -0.25 0.59375l0 5.921875l-1.359375 0l0 -8.0l1.28125 0zm10.87439 8.0q-0.8125 0 -1.25 -0.53125q-0.421875 -0.53125 -0.421875 -1.390625l0 -4.875l-1.515625 0l0 -1.203125l1.515625 0l0 -1.921875l1.359375 0l0 1.921875l2.328125 0l0 1.203125l-2.328125 0l0 4.953125q0 0.359375 0.171875 0.5q0.171875 0.140625 0.546875 0.140625l1.609375 0l0 1.203125l-2.015625 0zm7.9525146 0q-1.40625 0 -2.0625 -0.59375q-0.65625 -0.609375 -0.65625 -1.96875l0 -2.875q0 -1.375 0.59375 -1.96875q0.59375 -0.59375 1.96875 -0.59375l0.75 0q1.140625 0 1.71875 0.640625q0.59375 0.625 0.59375 1.84375l0 2.078125l-4.265625 0l0 1.203125q0 0.484375 0.296875 0.765625q0.3125 0.265625 0.90625 0.265625l2.546875 0l0 1.203125l-2.390625 0zm1.578125 -5.84375q0 -0.40625 -0.28125 -0.671875q-0.265625 -0.28125 -0.6875 -0.28125l-0.921875 0q-0.578125 0 -0.8125 0.265625q-0.234375 0.265625 -0.234375 0.765625l0 1.125l2.9375 0l0 -1.203125zm5.6087646 4.640625l0 -5.59375l-1.171875 0l0 -1.203125l2.453125 0l0 0.4375q0.53125 -0.4375 1.28125 -0.4375l1.640625 0l0 1.28125l-1.796875 0q-0.515625 0 -0.78125 0.328125q-0.25 0.328125 -0.265625 0.65625l0 4.53125l1.75 0l0 1.203125l-4.28125 0l0 -1.203125l1.171875 0z" fill-rule="nonzero"/><path fill="#666666" d="m483.05383 123.36q-0.546875 0 -0.953125 -0.375q-0.40625 -0.390625 -0.40625 -1.21875l0 -8.40625l-2.34375 0l0 -1.203125l3.703125 0l0 9.515625q0 0.265625 0.125 0.375q0.140625 0.109375 0.4375 0.109375l2.125 0l0 1.203125l-2.6875 0zm11.108765 -2.5625q0 1.34375 -0.671875 1.953125q-0.65625 0.609375 -2.046875 0.609375l-0.53125 0q-1.390625 0 -2.0625 -0.609375q-0.65625 -0.609375 -0.65625 -1.953125l0 -2.875q0 -1.34375 0.65625 -1.953125q0.671875 -0.609375 2.0625 -0.609375l0.53125 0q1.390625 0 2.046875 0.609375q0.671875 0.609375 0.671875 1.953125l0 2.875zm-1.359375 -3.203125q0 -0.484375 -0.3125 -0.75q-0.296875 -0.28125 -0.890625 -0.28125l-0.84375 0q-0.59375 0 -0.90625 0.28125q-0.296875 0.265625 -0.296875 0.75l0 3.53125q0 0.484375 0.296875 0.765625q0.3125 0.265625 0.90625 0.265625l0.84375 0q0.59375 0 0.890625 -0.265625q0.3125 -0.28125 0.3125 -0.765625l0 -3.53125zm10.171265 6.328125q0 1.078125 -0.65625 1.609375q-0.640625 0.546875 -2.015625 0.546875l-3.328125 0l0 -1.203125l3.484375 0q0.578125 0 0.859375 -0.21875q0.296875 -0.21875 0.296875 -0.578125l0 -0.515625q0 -0.359375 -0.296875 -0.578125q-0.28125 -0.21875 -0.859375 -0.21875l-2.765625 0l0 -2.203125q-0.53125 -0.296875 -0.78125 -0.828125q-0.25 -0.546875 -0.25 -1.421875l0 -0.390625q0 -1.34375 0.65625 -1.953125q0.671875 -0.609375 2.0625 -0.609375l3.359375 0l0 2.953125q0 1.203125 -0.65625 1.890625q-0.65625 0.671875 -1.75 0.671875l-1.28125 0l0 0.6875l1.25 0q1.375 0 2.015625 0.546875q0.65625 0.53125 0.65625 1.625l0 0.1875zm-2.640625 -4.25q0.5 0 0.75 -0.3125q0.265625 -0.3125 0.296875 -0.671875l0 -2.125l-2.15625 0q-0.59375 0 -0.90625 0.28125q-0.296875 0.265625 -0.296875 0.75l0 1.046875q0 0.5 0.296875 0.765625q0.3125 0.265625 0.90625 0.265625l1.109375 0zm8.890015 -7.515625l0 1.4375l-1.53125 0l0 -1.4375l1.53125 0zm-3.796875 4.40625l0 -1.203125l3.703125 0l0 6.796875l2.375 0l0 1.203125l-3.734375 0l0 -6.796875l-2.34375 0zm11.99939 6.796875q-1.40625 0 -2.0625 -0.59375q-0.65625 -0.609375 -0.65625 -1.96875l0 -2.875q0 -1.34375 0.65625 -1.953125q0.671875 -0.609375 2.0625 -0.609375l2.0625 0l0 1.203125l-2.21875 0q-0.59375 0 -0.90625 0.28125q-0.296875 0.265625 -0.296875 0.75l0 3.53125q0 0.484375 0.296875 0.765625q0.3125 0.265625 0.90625 0.265625l2.21875 0l0 1.203125l-2.0625 0z" fill-rule="nonzero"/><path fill="#000000" fill-opacity="0.0" d="m730.7743 139.7559l-52.91339 0" fill-rule="evenodd"/><path stroke="#000000" stroke-width="2.0" stroke-linejoin="round" stroke-linecap="butt" d="m730.7743 139.7559l-52.91339 0" fill-rule="evenodd"/><path fill="#000000" fill-opacity="0.0" d="m30.367455 194.52756l437.88977 0" fill-rule="evenodd"/><path stroke="#000000" stroke-width="2.0" stroke-linejoin="round" stroke-linecap="butt" d="m30.367455 194.52756l437.88977 0" fill-rule="evenodd"/><path fill="#000000" fill-opacity="0.0" d="m30.14567 155.8819l159.21259 0l0 38.64566l-159.21259 0z" fill-rule="evenodd"/><path fill="#000000" d="m43.505043 176.22627l-0.875 4.015625l-1.484375 0l-1.4375 -8.0l1.359375 0l0.90625 6.359375l1.0625 -4.921875l1.03125 0l0.96875 4.921875l0.90625 -6.359375l1.28125 0l-1.421875 8.0l-1.53125 0l-0.765625 -4.015625zm6.9525146 -3.984375l0 0.390625q0.5 -0.390625 1.28125 -0.390625l0.578125 0q1.40625 0 2.0625 0.609375q0.65625 0.59375 0.65625 1.953125l0 2.875q0 1.34375 -0.671875 1.953125q-0.65625 0.609375 -2.046875 0.609375l-1.78125 0l0 2.71875l-1.359375 0l0 -10.71875l1.28125 0zm1.125 1.203125q-0.53125 0 -0.796875 0.28125q-0.25 0.28125 -0.25 0.59375l0 4.71875l1.9375 0q0.59375 0 0.890625 -0.265625q0.3125 -0.28125 0.3125 -0.765625l0 -3.53125q0 -0.484375 -0.3125 -0.75q-0.296875 -0.28125 -0.890625 -0.28125l-0.890625 0zm9.74939 6.796875q-0.8125 0 -1.25 -0.53125q-0.421875 -0.53125 -0.421875 -1.390625l0 -4.875l-1.515625 0l0 -1.203125l1.515625 0l0 -1.921875l1.359375 0l0 1.921875l2.328125 0l0 1.203125l-2.328125 0l0 4.953125q0 0.359375 0.171875 0.5q0.171875 0.140625 0.546875 0.140625l1.609375 0l0 1.203125l-2.015625 0zm6.4993896 -1.203125l0 -5.59375l-1.171875 0l0 -1.203125l2.453125 0l0 0.4375q0.53125 -0.4375 1.28125 -0.4375l1.640625 0l0 1.28125l-1.796875 0q-0.515625 0 -0.78125 0.328125q-0.25 0.328125 -0.265625 0.65625l0 4.53125l1.75 0l0 1.203125l-4.28125 0l0 -1.203125l1.171875 0zm8.59314 -6.875q0 -1.859375 0.46875 -3.0q0.46875 -1.15625 1.328125 -2.046875l1.40625 0q-0.765625 0.9375 -1.140625 1.578125q-0.359375 0.625 -0.53125 1.40625q-0.171875 0.78125 -0.171875 2.03125l0 5.015625q0 1.25 0.171875 2.046875q0.171875 0.78125 0.53125 1.40625q0.375 0.625 1.140625 1.5625l-1.40625 0q-0.859375 -0.875 -1.328125 -2.03125q-0.46875 -1.15625 -0.46875 -3.015625l0 -4.953125zm10.78064 -1.921875q-0.25 0 -0.40625 0.140625q-0.15625 0.125 -0.15625 0.34375l0 1.515625l2.578125 0l0 1.203125l-2.578125 0l0 5.59375l1.9375 0l0 1.203125l-4.65625 0l0 -1.203125l1.359375 0l0 -5.59375l-1.359375 0l0 -1.203125l1.359375 0l0 -1.4375q0 -0.8125 0.46875 -1.28125q0.46875 -0.484375 1.203125 -0.484375l2.4375 0l0 1.203125l-2.1875 0zm6.5462646 8.796875l0 -5.59375l-1.171875 0l0 -1.203125l2.453125 0l0 0.4375q0.53125 -0.4375 1.28125 -0.4375l1.640625 0l0 1.28125l-1.796875 0q-0.515625 0 -0.78125 0.328125q-0.25 0.328125 -0.265625 0.65625l0 4.53125l1.75 0l0 1.203125l-4.28125 0l0 -1.203125l1.171875 0zm13.171265 -1.359375q0 1.34375 -0.671875 1.953125q-0.65625 0.609375 -2.046875 0.609375l-0.53125 0q-1.390625 0 -2.0625 -0.609375q-0.65625 -0.609375 -0.65625 -1.953125l0 -2.875q0 -1.34375 0.65625 -1.953125q0.671875 -0.609375 2.0625 -0.609375l0.53125 0q1.390625 0 2.046875 0.609375q0.671875 0.609375 0.671875 1.953125l0 2.875zm-1.359375 -3.203125q0 -0.484375 -0.3125 -0.75q-0.296875 -0.28125 -0.890625 -0.28125l-0.84375 0q-0.59375 0 -0.90625 0.28125q-0.296875 0.265625 -0.296875 0.75l0 3.53125q0 0.484375 0.296875 0.765625q0.3125 0.265625 0.90625 0.265625l0.84375 0q0.59375 0 0.890625 -0.265625q0.3125 -0.28125 0.3125 -0.765625l0 -3.53125zm4.5931396 -2.234375l0 0.375q0.40625 -0.375 0.984375 -0.375l0.09375 0q1.125 0 1.59375 0.640625q0.53125 -0.640625 1.390625 -0.640625l0.09375 0q0.984375 0 1.4375 0.5q0.46875 0.484375 0.46875 1.75l0 5.75l-1.28125 0l0 -5.765625q0 -0.65625 -0.140625 -0.90625q-0.125 -0.25 -0.609375 -0.25l-0.09375 0q-0.484375 0 -0.671875 0.328125q-0.1875 0.328125 -0.203125 0.71875l0 5.875l-1.265625 0l0 -5.765625q0 -0.671875 -0.171875 -0.90625q-0.15625 -0.25 -0.578125 -0.25l-0.09375 0q-0.46875 0 -0.671875 0.28125q-0.1875 0.265625 -0.203125 0.625l0 6.015625l-1.28125 0l0 -8.0l1.203125 0zm18.155037 6.796875l0 -5.59375l-1.1718826 0l0 -1.203125l2.4531326 0l0 0.4375q0.53125 -0.4375 1.28125 -0.4375l1.640625 0l0 1.28125l-1.796875 0q-0.515625 0 -0.78125 0.328125q-0.25 0.328125 -0.265625 0.65625l0 4.53125l1.75 0l0 1.203125l-4.2812576 0l0 -1.203125l1.1718826 0zm10.09314 1.203125q-1.40625 0 -2.0625 -0.59375q-0.65625 -0.609375 -0.65625 -1.96875l0 -2.875q0 -1.375 0.59375 -1.96875q0.59375 -0.59375 1.96875 -0.59375l0.75 0q1.140625 0 1.71875 0.640625q0.59375 0.625 0.59375 1.84375l0 2.078125l-4.265625 0l0 1.203125q0 0.484375 0.296875 0.765625q0.3125 0.265625 0.90625 0.265625l2.546875 0l0 1.203125l-2.390625 0zm1.578125 -5.84375q0 -0.40625 -0.28125 -0.671875q-0.265625 -0.28125 -0.6875 -0.28125l-0.921875 0q-0.578125 0 -0.8125 0.265625q-0.234375 0.265625 -0.234375 0.765625l0 1.125l2.9375 0l0 -1.203125zm10.31189 6.40625q0 1.078125 -0.65625 1.609375q-0.640625 0.546875 -2.015625 0.546875l-3.328125 0l0 -1.203125l3.484375 0q0.578125 0 0.859375 -0.21875q0.296875 -0.21875 0.296875 -0.578125l0 -0.515625q0 -0.359375 -0.296875 -0.578125q-0.28125 -0.21875 -0.859375 -0.21875l-2.765625 0l0 -2.203125q-0.53125 -0.296875 -0.78125 -0.828125q-0.25 -0.546875 -0.25 -1.421875l0 -0.390625q0 -1.34375 0.65625 -1.953125q0.671875 -0.609375 2.0625 -0.609375l3.359375 0l0 2.953125q0 1.203125 -0.65625 1.890625q-0.65625 0.671875 -1.75 0.671875l-1.28125 0l0 0.6875l1.25 0q1.375 0 2.015625 0.546875q0.65625 0.53125 0.65625 1.625l0 0.1875zm-2.640625 -4.25q0.5 0 0.75 -0.3125q0.265625 -0.3125 0.296875 -0.671875l0 -2.125l-2.15625 0q-0.59375 0 -0.90625 0.28125q-0.296875 0.265625 -0.296875 0.75l0 1.046875q0 0.5 0.296875 0.765625q0.3125 0.265625 0.90625 0.265625l1.109375 0zm9.733765 0.5625q0 1.859375 -0.484375 3.015625q-0.46875 1.15625 -1.3125 2.03125l-1.40625 0q0.765625 -0.9375 1.125 -1.5625q0.375 -0.625 0.546875 -1.40625q0.171875 -0.796875 0.171875 -2.046875l0 -5.015625q0 -1.25 -0.171875 -2.03125q-0.171875 -0.78125 -0.546875 -1.40625q-0.359375 -0.640625 -1.125 -1.578125l1.40625 0q0.84375 0.890625 1.3125 2.046875q0.484375 1.140625 0.484375 3.0l0 4.953125z" fill-rule="nonzero"/><path fill="#000000" fill-opacity="0.0" d="m685.7139 98.61155l60.724365 0" fill-rule="evenodd"/><path stroke="#000000" stroke-width="1.0" stroke-linejoin="round" stroke-linecap="butt" d="m685.7139 98.61155l60.724365 0" fill-rule="evenodd"/><path fill="#000000" fill-opacity="0.0" d="m746.4488 98.61155l0 -53.889763" fill-rule="evenodd"/><path stroke="#000000" stroke-width="1.0" stroke-linejoin="round" stroke-linecap="butt" d="m746.4488 98.61155l0 -53.889763" fill-rule="evenodd"/><path fill="#000000" fill-opacity="0.0" d="m745.4698 44.73491l-305.63776 0" fill-rule="evenodd"/><path stroke="#000000" stroke-width="1.0" stroke-linejoin="round" stroke-linecap="butt" d="m745.4698 44.73491l-305.63776 0" fill-rule="evenodd"/><path fill="#000000" fill-opacity="0.0" d="m438.85828 45.71391l0 61.700787" fill-rule="evenodd"/><path stroke="#000000" stroke-width="1.0" stroke-linejoin="round" stroke-linecap="butt" d="m438.85828 45.71391l0 61.700787" fill-rule="evenodd"/><path fill="#000000" fill-opacity="0.0" d="m437.87665 106.44882l31.338562 0" fill-rule="evenodd"/><path stroke="#000000" stroke-width="1.0" stroke-linejoin="round" stroke-linecap="butt" d="m437.87665 106.44882l31.338562 0" fill-rule="evenodd"/><path fill="#000000" fill-opacity="0.0" d="m439.83072 6.0892386l159.21262 0l0 38.64567l-159.21262 0z" fill-rule="evenodd"/><path fill="#000000" d="m451.59634 29.246115l0 -5.59375l-1.171875 0l0 -1.203125l2.453125 0l0 0.4375q0.53125 -0.4375 1.28125 -0.4375l1.640625 0l0 1.28125l-1.796875 0q-0.515625 0 -0.78125 0.328125q-0.25 0.328125 -0.265625 0.65625l0 4.53125l1.75 0l0 1.203125l-4.28125 0l0 -1.203125l1.171875 0zm8.546265 -6.796875l0 0.390625q0.5 -0.390625 1.28125 -0.390625l0.578125 0q1.40625 0 2.0625 0.609375q0.65625 0.59375 0.65625 1.953125l0 2.875q0 1.34375 -0.671875 1.953125q-0.65625 0.609375 -2.046875 0.609375l-1.78125 0l0 2.718748l-1.359375 0l0 -10.718748l1.28125 0zm1.125 1.203125q-0.53125 0 -0.796875 0.28125q-0.25 0.28125 -0.25 0.59375l0 4.71875l1.9375 0q0.59375 0 0.890625 -0.265625q0.3125 -0.28125 0.3125 -0.765625l0 -3.53125q0 -0.484375 -0.3125 -0.75q-0.296875 -0.28125 -0.890625 -0.28125l-0.890625 0zm9.74939 6.796875q-0.8125 0 -1.25 -0.53125q-0.421875 -0.53125 -0.421875 -1.390625l0 -4.875l-1.515625 0l0 -1.203125l1.515625 0l0 -1.921875l1.359375 0l0 1.921875l2.328125 0l0 1.203125l-2.328125 0l0 4.953125q0 0.359375 0.171875 0.5q0.171875 0.140625 0.546875 0.140625l1.609375 0l0 1.203125l-2.015625 0zm6.4993896 -1.203125l0 -5.59375l-1.171875 0l0 -1.203125l2.453125 0l0 0.4375q0.53125 -0.4375 1.28125 -0.4375l1.640625 0l0 1.28125l-1.796875 0q-0.515625 0 -0.78125 0.328125q-0.25 0.328125 -0.265625 0.65625l0 4.53125l1.75 0l0 1.203125l-4.28125 0l0 -1.203125l1.171875 0z" fill-rule="nonzero"/><path fill="#000000" fill-opacity="0.0" d="m467.66797 139.98688l-169.85825 0" fill-rule="evenodd"/><path stroke="#cc0000" stroke-width="2.0" stroke-linejoin="round" stroke-linecap="butt" d="m460.8138 139.98688l-163.00409 0" fill-rule="evenodd"/><path fill="#cc0000" stroke="#cc0000" stroke-width="2.0" stroke-linecap="butt" d="m460.8138 139.98688l-2.249176 2.2491608l6.179535 -2.2491608l-6.179535 -2.2491608z" fill-rule="evenodd"/><path fill="#000000" fill-opacity="0.0" d="m308.45538 100.308395l159.21259 0l0 38.645676l-159.21259 0z" fill-rule="evenodd"/><path fill="#000000" d="m323.33038 124.293396q-0.53125 0.375 -1.28125 0.375l-0.546875 0q-1.296875 0 -1.9375 -0.609375q-0.625 -0.609375 -0.625 -1.953125l0 -5.4375l1.359375 0l0 5.765625q0 0.46875 0.28125 0.75q0.28125 0.28125 0.765625 0.28125l0.859375 0q0.515625 0 0.765625 -0.25q0.25 -0.265625 0.28125 -0.578125l0 -5.96875l1.359375 0l0 8.0l-1.28125 0l0 -0.375zm5.4368896 -7.625l0 0.390625q0.5 -0.390625 1.28125 -0.390625l0.578125 0q1.40625 0 2.0625 0.609375q0.65625 0.59375 0.65625 1.953125l0 2.875q0 1.34375 -0.671875 1.953125q-0.65625 0.609375 -2.046875 0.609375l-1.78125 0l0 2.71875l-1.359375 0l0 -10.71875l1.28125 0zm1.125 1.203125q-0.53125 0 -0.796875 0.28125q-0.25 0.28125 -0.25 0.59375l0 4.71875l1.9375 0q0.59375 0 0.890625 -0.265625q0.3125 -0.28125 0.3125 -0.765625l0 -3.53125q0 -0.484375 -0.3125 -0.75q-0.296875 -0.28125 -0.890625 -0.28125l-0.890625 0zm10.84314 6.421875q-0.53125 0.375 -1.28125 0.375l-0.65625 0q-1.40625 0 -2.0625 -0.59375q-0.65625 -0.609375 -0.65625 -1.96875l0 -2.875q0 -1.34375 0.65625 -1.953125q0.671875 -0.609375 2.0625 -0.609375l1.859375 0l0 -3.203125l1.359375 0l0 11.203125l-1.28125 0l0 -0.375zm-1.125 -0.828125q0.53125 0 0.78125 -0.28125q0.265625 -0.28125 0.265625 -0.59375l0 -4.71875l-2.015625 0q-0.59375 0 -0.90625 0.28125q-0.296875 0.265625 -0.296875 0.75l0 3.53125q0 0.484375 0.296875 0.765625q0.3125 0.265625 0.90625 0.265625l0.96875 0zm10.43689 1.203125q-0.203125 0 -0.453125 -0.125q-0.25 -0.125 -0.421875 -0.359375q-0.375 0.484375 -0.984375 0.484375l-1.421875 0q-1.21875 0 -1.765625 -0.484375q-0.546875 -0.484375 -0.546875 -1.671875l0 -0.328125q0 -2.46875 2.328125 -2.46875l1.984375 0l0 -0.8125q0 -0.484375 -0.3125 -0.75q-0.296875 -0.28125 -0.890625 -0.28125l-2.46875 0l0 -1.203125l2.3125 0q1.390625 0 2.046875 0.609375q0.671875 0.609375 0.671875 1.953125l0 3.84375q0 0.234375 0.1875 0.359375q0.1875 0.109375 0.609375 0.109375l0 1.125l-0.875 0zm-2.015625 -1.203125q0.484375 0 0.609375 -0.21875q0.125 -0.21875 0.125 -0.578125l0 -1.765625l-2.0 0q-0.421875 0 -0.6875 0.28125q-0.265625 0.265625 -0.265625 0.6875l0 0.796875q0 0.421875 0.1875 0.609375q0.1875 0.1875 0.609375 0.1875l1.421875 0zm8.890015 1.203125q-0.8125 0 -1.25 -0.53125q-0.421875 -0.53125 -0.421875 -1.390625l0 -4.875l-1.515625 0l0 -1.203125l1.515625 0l0 -1.921875l1.359375 0l0 1.921875l2.328125 0l0 1.203125l-2.328125 0l0 4.953125q0 0.359375 0.171875 0.5q0.171875 0.140625 0.546875 0.140625l1.609375 0l0 1.203125l-2.015625 0zm7.9525146 0q-1.40625 0 -2.0625 -0.59375q-0.65625 -0.609375 -0.65625 -1.96875l0 -2.875q0 -1.375 0.59375 -1.96875q0.59375 -0.59375 1.96875 -0.59375l0.75 0q1.140625 0 1.71875 0.640625q0.59375 0.625 0.59375 1.84375l0 2.078125l-4.265625 0l0 1.203125q0 0.484375 0.296875 0.765625q0.3125 0.265625 0.90625 0.265625l2.546875 0l0 1.203125l-2.390625 0zm1.578125 -5.84375q0 -0.40625 -0.28125 -0.671875q-0.265625 -0.28125 -0.6875 -0.28125l-0.921875 0q-0.578125 0 -0.8125 0.265625q-0.234375 0.265625 -0.234375 0.765625l0 1.125l2.9375 0l0 -1.203125zm11.202515 7.359375l0 1.203125l-8.078125 0l0 -1.203125l8.078125 0zm3.0462646 -2.71875l0 -5.59375l-1.171875 0l0 -1.203125l2.453125 0l0 0.4375q0.53125 -0.4375 1.28125 -0.4375l1.640625 0l0 1.28125l-1.796875 0q-0.515625 0 -0.78125 0.328125q-0.25 0.328125 -0.265625 0.65625l0 4.53125l1.75 0l0 1.203125l-4.28125 0l0 -1.203125l1.171875 0zm8.546265 -6.796875l0 0.390625q0.5 -0.390625 1.28125 -0.390625l0.578125 0q1.40625 0 2.0625 0.609375q0.65625 0.59375 0.65625 1.953125l0 2.875q0 1.34375 -0.671875 1.953125q-0.65625 0.609375 -2.046875 0.609375l-1.78125 0l0 2.71875l-1.359375 0l0 -10.71875l1.28125 0zm1.125 1.203125q-0.53125 0 -0.796875 0.28125q-0.25 0.28125 -0.25 0.59375l0 4.71875l1.9375 0q0.59375 0 0.890625 -0.265625q0.3125 -0.28125 0.3125 -0.765625l0 -3.53125q0 -0.484375 -0.3125 -0.75q-0.296875 -0.28125 -0.890625 -0.28125l-0.890625 0zm9.74939 6.796875q-0.8125 0 -1.25 -0.53125q-0.421875 -0.53125 -0.421875 -1.390625l0 -4.875l-1.515625 0l0 -1.203125l1.515625 0l0 -1.921875l1.359375 0l0 1.921875l2.328125 0l0 1.203125l-2.328125 0l0 4.953125q0 0.359375 0.171875 0.5q0.171875 0.140625 0.546875 0.140625l1.609375 0l0 1.203125l-2.015625 0zm6.4993896 -1.203125l0 -5.59375l-1.171875 0l0 -1.203125l2.453125 0l0 0.4375q0.53125 -0.4375 1.28125 -0.4375l1.640625 0l0 1.28125l-1.796875 0q-0.515625 0 -0.78125 0.328125q-0.25 0.328125 -0.265625 0.65625l0 4.53125l1.75 0l0 1.203125l-4.28125 0l0 -1.203125l1.171875 0z" fill-rule="nonzero"/><path fill="#000000" fill-opacity="0.0" d="m924.2087 303.41995l-169.85828 0" fill-rule="evenodd"/><path stroke="#cc0000" stroke-width="2.0" stroke-linejoin="round" stroke-linecap="butt" d="m917.3545 303.41995l-163.00409 0" fill-rule="evenodd"/><path fill="#cc0000" stroke="#cc0000" stroke-width="2.0" stroke-linecap="butt" d="m917.3545 303.41995l-2.2491455 2.249176l6.1795044 -2.249176l-6.1795044 -2.249176z" fill-rule="evenodd"/><path fill="#000000" fill-opacity="0.0" d="m764.99603 263.74146l159.21265 0l0 38.64569l-159.21265 0z" fill-rule="evenodd"/><path fill="#000000" d="m778.8554 278.10147q-0.25 0 -0.40625 0.140625q-0.15625 0.125 -0.15625 0.34375l0 1.515625l2.578125 0l0 1.203125l-2.578125 0l0 5.59375l1.9375 0l0 1.203125l-4.65625 0l0 -1.203125l1.359375 0l0 -5.59375l-1.359375 0l0 -1.203125l1.359375 0l0 -1.4375q0 -0.8125 0.46875 -1.28125q0.46875 -0.484375 1.203125 -0.484375l2.4375 0l0 1.203125l-2.1875 0zm8.858765 -1.203125l0 1.4375l-1.53125 0l0 -1.4375l1.53125 0zm-3.796875 4.40625l0 -1.203125l3.703125 0l0 6.796875l2.375 0l0 1.203125l-3.734375 0l0 -6.796875l-2.34375 0zm12.21814 -3.203125q-0.25 0 -0.40625 0.140625q-0.15625 0.125 -0.15625 0.34375l0 1.515625l2.578125 0l0 1.203125l-2.578125 0l0 5.59375l1.9375 0l0 1.203125l-4.65625 0l0 -1.203125l1.359375 0l0 -5.59375l-1.359375 0l0 -1.203125l1.359375 0l0 -1.4375q0 -0.8125 0.46875 -1.28125q0.46875 -0.484375 1.203125 -0.484375l2.4375 0l0 1.203125l-2.1875 0zm11.077515 7.4375q0 1.34375 -0.671875 1.953125q-0.65625 0.609375 -2.046875 0.609375l-0.53125 0q-1.390625 0 -2.0625 -0.609375q-0.65625 -0.609375 -0.65625 -1.953125l0 -2.875q0 -1.34375 0.65625 -1.953125q0.671875 -0.609375 2.0625 -0.609375l0.53125 0q1.390625 0 2.046875 0.609375q0.671875 0.609375 0.671875 1.953125l0 2.875zm-1.359375 -3.203125q0 -0.484375 -0.3125 -0.75q-0.296875 -0.28125 -0.890625 -0.28125l-0.84375 0q-0.59375 0 -0.90625 0.28125q-0.296875 0.265625 -0.296875 0.75l0 3.53125q0 0.484375 0.296875 0.765625q0.3125 0.265625 0.90625 0.265625l0.84375 0q0.59375 0 0.890625 -0.265625q0.3125 -0.28125 0.3125 -0.765625l0 -3.53125zm11.06189 7.28125l0 1.203125l-8.078125 0l0 -1.203125l8.078125 0zm4.6400146 -5.53125l-0.875 4.015625l-1.484375 0l-1.4375 -8.0l1.359375 0l0.90625 6.359375l1.0625 -4.921875l1.03125 0l0.96875 4.921875l0.90625 -6.359375l1.28125 0l-1.421875 8.0l-1.53125 0l-0.765625 -4.015625zm8.49939 4.015625q-1.40625 0 -2.0625 -0.59375q-0.65625 -0.609375 -0.65625 -1.96875l0 -2.875q0 -1.375 0.59375 -1.96875q0.59375 -0.59375 1.96875 -0.59375l0.75 0q1.140625 0 1.71875 0.640625q0.59375 0.625 0.59375 1.84375l0 2.078125l-4.265625 0l0 1.203125q0 0.484375 0.296875 0.765625q0.3125 0.265625 0.90625 0.265625l2.546875 0l0 1.203125l-2.390625 0zm1.578125 -5.84375q0 -0.40625 -0.28125 -0.671875q-0.265625 -0.28125 -0.6875 -0.28125l-0.921875 0q-0.578125 0 -0.8125 0.265625q-0.234375 0.265625 -0.234375 0.765625l0 1.125l2.9375 0l0 -1.203125zm5.5150146 -2.15625l0 0.390625q0.5 -0.390625 1.28125 -0.390625l0.734375 0q1.296875 0 1.921875 0.609375q0.640625 0.609375 0.640625 1.953125l0 5.4375l-1.359375 0l0 -5.765625q0 -0.46875 -0.28125 -0.75q-0.28125 -0.28125 -0.765625 -0.28125l-1.046875 0q-0.53125 0 -0.796875 0.28125q-0.25 0.28125 -0.25 0.59375l0 5.921875l-1.359375 0l0 -8.0l1.28125 0z" fill-rule="nonzero"/><path fill="#ffffff" d="m209.51443 173.47507l60.734894 0l0 90.2677l-60.734894 0z" fill-rule="evenodd"/><path stroke="#000000" stroke-width="2.0" stroke-linejoin="round" stroke-linecap="butt" d="m209.51443 173.47507l60.734894 0l0 90.2677l-60.734894 0z" fill-rule="evenodd"/><path fill="#ffffff" d="m209.51443 242.3202l12.724411 7.3543396l-12.724411 7.3543243z" fill-rule="evenodd"/><path stroke="#000000" stroke-width="2.0" stroke-linejoin="round" stroke-linecap="butt" d="m209.51443 242.3202l12.724411 7.3543396l-12.724411 7.3543243z" fill-rule="evenodd"/><path fill="#000000" fill-opacity="0.0" d="m263.1076 164.6693l-46.173218 0l0 29.858261l46.173218 0z" fill-rule="evenodd"/><path fill="#000000" d="m236.33946 186.46928q-1.171875 0 -1.71875 -0.5q-0.546875 -0.5 -0.546875 -1.625l0 -2.40625q0 -1.140625 0.484375 -1.625q0.5 -0.5 1.65625 -0.5l0.625 0q0.9375 0 1.421875 0.53125q0.5 0.515625 0.5 1.53125l0 1.734375l-3.546875 0l0 1.0q0 0.40625 0.25 0.640625q0.25 0.21875 0.75 0.21875l2.109375 0l0 1.0l-1.984375 0zm1.3125 -4.859375q0 -0.359375 -0.234375 -0.578125q-0.21875 -0.234375 -0.5625 -0.234375l-0.78125 0q-0.484375 0 -0.671875 0.234375q-0.1875 0.21875 -0.1875 0.640625l0 0.9375l2.4375 0l0 -1.0zm4.587784 -1.796875l0 0.3125q0.421875 -0.3125 1.078125 -0.3125l0.609375 0q1.078125 0 1.59375 0.5q0.53125 0.5 0.53125 1.625l0 4.53125l-1.125 0l0 -4.796875q0 -0.40625 -0.234375 -0.640625q-0.234375 -0.234375 -0.640625 -0.234375l-0.875 0q-0.4375 0 -0.65625 0.234375q-0.203125 0.234375 -0.203125 0.5l0 4.9375l-1.140625 0l0 -6.65625l1.0625 0z" fill-rule="nonzero"/><path fill="#000000" fill-opacity="0.0" d="m270.24802 155.8819l159.21262 0l0 38.64566l-159.21262 0z" fill-rule="evenodd"/><path fill="#000000" d="m283.6074 176.22627l-0.875 4.015625l-1.484375 0l-1.4375 -8.0l1.359375 0l0.90625 6.359375l1.0625 -4.921875l1.03125 0l0.96875 4.921875l0.90625 -6.359375l1.28125 0l-1.421875 8.0l-1.53125 0l-0.765625 -4.015625zm6.9525146 -3.984375l0 0.390625q0.5 -0.390625 1.28125 -0.390625l0.578125 0q1.40625 0 2.0625 0.609375q0.65625 0.59375 0.65625 1.953125l0 2.875q0 1.34375 -0.671875 1.953125q-0.65625 0.609375 -2.046875 0.609375l-1.78125 0l0 2.71875l-1.359375 0l0 -10.71875l1.28125 0zm1.125 1.203125q-0.53125 0 -0.796875 0.28125q-0.25 0.28125 -0.25 0.59375l0 4.71875l1.9375 0q0.59375 0 0.890625 -0.265625q0.3125 -0.28125 0.3125 -0.765625l0 -3.53125q0 -0.484375 -0.3125 -0.75q-0.296875 -0.28125 -0.890625 -0.28125l-0.890625 0zm9.74939 6.796875q-0.8125 0 -1.25 -0.53125q-0.421875 -0.53125 -0.421875 -1.390625l0 -4.875l-1.515625 0l0 -1.203125l1.515625 0l0 -1.921875l1.359375 0l0 1.921875l2.328125 0l0 1.203125l-2.328125 0l0 4.953125q0 0.359375 0.171875 0.5q0.171875 0.140625 0.546875 0.140625l1.609375 0l0 1.203125l-2.015625 0zm6.4993896 -1.203125l0 -5.59375l-1.171875 0l0 -1.203125l2.453125 0l0 0.4375q0.53125 -0.4375 1.28125 -0.4375l1.640625 0l0 1.28125l-1.796875 0q-0.515625 0 -0.78125 0.328125q-0.25 0.328125 -0.265625 0.65625l0 4.53125l1.75 0l0 1.203125l-4.28125 0l0 -1.203125l1.171875 0zm14.233765 2.71875l0 1.203125l-8.078125 0l0 -1.203125l8.078125 0zm6.2025146 -1.828125q-0.5 0.3125 -1.203125 0.3125l-0.65625 0q-1.40625 0 -2.0625 -0.59375q-0.65625 -0.609375 -0.65625 -1.96875l0 -2.875q0 -1.34375 0.65625 -1.953125q0.671875 -0.609375 2.0625 -0.609375l3.21875 0l0 10.71875l-1.359375 0l0 -3.03125zm-1.046875 -0.890625q0.53125 0 0.78125 -0.28125q0.265625 -0.28125 0.265625 -0.59375l0 -4.71875l-2.015625 0q-0.59375 0 -0.90625 0.28125q-0.296875 0.265625 -0.296875 0.75l0 3.53125q0 0.484375 0.296875 0.765625q0.3125 0.265625 0.90625 0.265625l0.96875 0z" fill-rule="nonzero"/><path fill="#000000" fill-opacity="0.0" d="m240.021 174.44357l0 -107.81103" fill-rule="evenodd"/><path stroke="#cc0000" stroke-width="2.0" stroke-linejoin="round" stroke-linecap="butt" d="m240.021 167.58939l0 -100.95684" fill-rule="evenodd"/><path fill="#cc0000" stroke="#cc0000" stroke-width="2.0" stroke-linecap="butt" d="m240.021 167.5894l-2.2491608 -2.249176l2.2491608 6.179535l2.249176 -6.179535z" fill-rule="evenodd"/><path fill="#000000" fill-opacity="0.0" d="m278.66666 205.8819l0 -132.25198l-38.64566 0l0 132.25198z" fill-rule="evenodd"/><path fill="#000000" d="m254.30667 87.458046q0 -0.546875 0.375 -0.953125q0.390625 -0.40625 1.21875 -0.40625l8.40625 0l0 -2.34375l1.203125 0l0 3.703125l-9.515625 0q-0.265625 0 -0.375 0.125q-0.109375 0.140625 -0.109375 0.4375l0 2.125l-1.203125 0l0 -2.6875zm0 10.483765q0 -0.203125 0.125 -0.453125q0.125 -0.25 0.359375 -0.421875q-0.484375 -0.375 -0.484375 -0.984375l0 -1.421875q0 -1.21875 0.484375 -1.765625q0.484375 -0.546875 1.671875 -0.546875l0.328125 0q2.46875 0 2.46875 2.328125l0 1.984375l0.8125 0q0.484375 0 0.75 -0.3125q0.28125 -0.296875 0.28125 -0.890625l0 -2.46875l1.203125 0l0 2.3125q0 1.390625 -0.609375 2.046875q-0.609375 0.671875 -1.953125 0.671875l-3.84375 0q-0.234375 0 -0.359375 0.1875q-0.109375 0.1875 -0.109375 0.609375l-1.125 0l0 -0.875zm1.203125 -2.015625q0 0.484375 0.21875 0.609375q0.21875 0.125 0.578125 0.125l1.765625 0l0 -2.0q0 -0.421875 -0.28125 -0.6875q-0.265625 -0.265625 -0.6875 -0.265625l-0.796875 0q-0.421875 0 -0.609375 0.1875q-0.1875 0.1875 -0.1875 0.609375l0 1.421875zm-1.203125 8.890015q0 -0.8125 0.53125 -1.25q0.53125 -0.421875 1.390625 -0.421875l4.875 0l0 -1.515625l1.203125 0l0 1.515625l1.921875 0l0 1.359375l-1.921875 0l0 2.328125l-1.203125 0l0 -2.328125l-4.953125 0q-0.359375 0 -0.5 0.171875q-0.140625 0.171875 -0.140625 0.546875l0 1.609375l-1.203125 0l0 -2.015625zm0 8.37439q0 -1.40625 0.59375 -2.0625q0.609375 -0.65625 1.96875 -0.65625l2.875 0q1.34375 0 1.953125 0.65625q0.609375 0.671875 0.609375 2.0625l0 2.0625l-1.203125 0l0 -2.21875q0 -0.59375 -0.28125 -0.90625q-0.265625 -0.296875 -0.75 -0.296875l-3.53125 0q-0.484375 0 -0.765625 0.296875q-0.265625 0.3125 -0.265625 0.90625l0 2.21875l-1.203125 0l0 -2.0625zm11.203125 6.7493896l-3.515625 0q0.3125 0.484375 0.3125 1.203125l0 0.734375q0 1.296875 -0.609375 1.921875q-0.609375 0.640625 -1.953125 0.640625l-5.4375 0l0 -1.359375l5.765625 0q0.46875 0 0.75 -0.28125q0.28125 -0.28125 0.28125 -0.765625l0 -1.046875q0 -0.515625 -0.265625 -0.78125q-0.265625 -0.25 -0.5625 -0.265625l-5.96875 0l0 -1.359375l11.203125 0l0 1.359375zm-12.71875 14.249397l-1.203125 0l0 -8.078133l1.203125 0l0 8.078133zm5.53125 4.6400146l-4.015625 -0.875l0 -1.484375l8.0 -1.4375l0 1.359375l-6.359375 0.90625l4.921875 1.0625l0 1.03125l-4.921875 0.96875l6.359375 0.90625l0 1.28125l-8.0 -1.421875l0 -1.53125l4.015625 -0.765625zm3.984375 6.9525146l-0.390625 0q0.390625 0.5 0.390625 1.28125l0 0.578125q0 1.40625 -0.609375 2.0625q-0.59375 0.65625 -1.953125 0.65625l-2.875 0q-1.34375 0 -1.953125 -0.671875q-0.609375 -0.65625 -0.609375 -2.046875l0 -1.78125l-2.71875 0l0 -1.359375l10.71875 0l0 1.28125zm-1.203125 1.125q0 -0.53125 -0.28125 -0.796875q-0.28125 -0.25 -0.59375 -0.25l-4.71875 0l0 1.9375q0 0.59375 0.265625 0.890625q0.28125 0.3125 0.765625 0.3125l3.53125 0q0.484375 0 0.75 -0.3125q0.28125 -0.296875 0.28125 -0.890625l0 -0.890625zm-6.796875 9.74939q0 -0.8125 0.53125 -1.25q0.53125 -0.421875 1.390625 -0.421875l4.875 0l0 -1.515625l1.203125 0l0 1.515625l1.921875 0l0 1.359375l-1.921875 0l0 2.328125l-1.203125 0l0 -2.328125l-4.953125 0q-0.359375 0 -0.5 0.171875q-0.140625 0.171875 -0.140625 0.546875l0 1.609375l-1.203125 0l0 -2.015625zm1.203125 6.4993896l5.59375 0l0 -1.171875l1.203125 0l0 2.453125l-0.4375 0q0.4375 0.53125 0.4375 1.28125l0 1.640625l-1.28125 0l0 -1.796875q0 -0.515625 -0.328125 -0.78125q-0.328125 -0.25 -0.65625 -0.265625l-4.53125 0l0 1.75l-1.203125 0l0 -4.28125l1.203125 0l0 1.171875z" fill-rule="nonzero"/></g></svg>